<svg id="Capa_1" data-name="Capa 1" data-type="moto.svg" xmlns="http://www.w3.org/2000/svg" viewBox="0 0 44.55 37.73"><defs><style>.cls-1{fill:#524c4f;}.cls-2,.cls-24{fill:#3d383c;}.cls-3{fill:#9d9e9e;}.cls-4{fill:#413c40;}.cls-5{fill:#524e51;}.cls-6{fill:#2f2c2e;}.cls-7{fill:#bebebd;}.cls-8{fill:#e2e0e0;}.cls-9{fill:#666465;}.body{fill:#FFA500;}.cls-12{fill:#494547;}.cls-13{fill:#353133;}.cls-14{fill:#747270;}.cls-15{fill:#5e5b5b;}.cls-17{fill:#b4b4b3;}.cls-18{fill:#332f32;}.cls-19,.cls-25{fill:#524d51;}.cls-20{fill:#b86933;}.cls-21{fill:#a9a9a9;}.cls-22{fill:#2d292b;}.cls-23{fill:#f2f8fd;}.cls-24,.cls-25{opacity:0.8;}</style></defs><path class="cls-1" d="M152.26,90.45l.37-.37-1.57,5.7-.83-.6,10.35-6.6-.15.22-.07-.37Zm8.4-2.77h.07a.34.34,0,0,1,.3.37l-.07.83c0,.07-.08.15-.15.22l-10.13,7c-.15.07-.3.15-.45.07a.52.52,0,0,1-.37-.67l1.57-5.7a1,1,0,0,1,.38-.38Z" transform="translate(-124.01 -76.45)"/><path class="cls-2" d="M136.06,85.5l-6.53,20.33a.29.29,0,0,0,.23.37.25.25,0,0,0,.37-.22l7.05-20.1a.61.61,0,0,0-.37-.75.56.56,0,0,0-.75.37" transform="translate(-124.01 -76.45)"/><path class="cls-2" d="M160.51,78.53c.52,0,1.12,1,.75,1.42s-1.5.45-1.58-.45a1.16,1.16,0,0,1,.53-.9.59.59,0,0,1,.3-.07" transform="translate(-124.01 -76.45)"/><path class="cls-3" d="M160.43,87.6a.75.75,0,0,1,.68-.07l.52.3a.66.66,0,0,1,.3.6,2.15,2.15,0,0,1-1,1.65.6.6,0,0,1-.6.07l-.68-.37a.68.68,0,0,1-.3-.6,2.84,2.84,0,0,1,1.05-1.58" transform="translate(-124.01 -76.45)"/><path class="cls-4" d="M156.91,84h0c1.2-1.42,4.2-4.5,7.65-3.07a4.78,4.78,0,0,0-3.9.67,10,10,0,0,0-3,2.7c-2.93,3.6-3.9,8.48-2.18,10.88a1.75,1.75,0,0,0,.53.52c-3.23-2.4-2.1-7.72.9-11.7" transform="translate(-124.01 -76.45)"/><path class="cls-5" d="M155.71,87.53a13.9,13.9,0,0,1,1.95-3.23c.15-.15.22-.3.37-.45a10.56,10.56,0,0,1,2.63-2.25,4.44,4.44,0,0,1,4.35-.45l.22.15c-1.12-.67-2.7-.52-4.35.45A10.35,10.35,0,0,0,158.26,84c-.15.15-.23.3-.38.45a12.11,12.11,0,0,0-1.95,3.23c-1.27,2.92-1.42,5.92-.22,7.57a3.57,3.57,0,0,0,1,.9l-.22-.15a3.46,3.46,0,0,1-1-.9c-1.27-1.65-1-4.65.23-7.57" transform="translate(-124.01 -76.45)"/><path class="cls-4" d="M159.16,85.5a7.63,7.63,0,0,1,2.7-2.32c1.87-1.05,3.67-1,4.65.37,1.5,2.1.6,6.38-1.95,9.53a9.1,9.1,0,0,1-2.7,2.4c-1.88,1-3.68,1-4.65-.38-1.5-2.17-.6-6.45,1.95-9.6m-3.53,9.75a3.46,3.46,0,0,0,1,.9c3.37,1.88,6.45-1,7.65-2.32,2.55-2.85,3.82-6.9,3.07-9.68a4.56,4.56,0,0,0-2.1-2.77c-1.12-.68-2.7-.53-4.35.45a10,10,0,0,0-3,2.7C155,88.05,154,92.93,155.63,95.25Z" transform="translate(-124.01 -76.45)"/><path class="cls-6" d="M158.26,87.08c2-3.45,4.72-4.58,5.92-4.28.08,0,.08,0,.15.08a1.81,1.81,0,0,1,.75.75c1.35,1.87.53,5.7-1.72,8.62a7.67,7.67,0,0,1-2.4,2.1,3.48,3.48,0,0,1-3.45.38c-.08-.08-.15-.08-.23-.23s-1.87-2.77,1-7.42m-1.35,8.32c1.05,1.5,3,1.58,5,.45a9.77,9.77,0,0,0,2.85-2.55c2.7-3.37,3.6-7.87,2-10.12-1-1.5-3-1.58-4.95-.45a9.77,9.77,0,0,0-2.85,2.55C156.23,88.65,155.33,93.15,156.91,95.4Z" transform="translate(-124.01 -76.45)"/><path class="cls-7" d="M161.63,94.5l-1.12-.67a3.06,3.06,0,0,1-3.23.3l1.13.67A3,3,0,0,0,161.63,94.5Z" transform="translate(-124.01 -76.45)"/><path class="cls-7" d="M164.86,83.7,163.73,83A3.15,3.15,0,0,1,165.08,86a8.34,8.34,0,0,1-.82,3.45l1.12.68a8.27,8.27,0,0,0,.83-3.45A3.36,3.36,0,0,0,164.86,83.7Z" transform="translate(-124.01 -76.45)"/><path class="cls-8" d="M165.38,90.08l-1.12-.68a11,11,0,0,1-1.8,2.78l1.12.67A11,11,0,0,0,165.38,90.08Z" transform="translate(-124.01 -76.45)"/><path class="cls-7" d="M163.58,92.85l-1.12-.67a7.19,7.19,0,0,1-2,1.65l1.13.67A8.36,8.36,0,0,0,163.58,92.85Z" transform="translate(-124.01 -76.45)"/><path class="cls-3" d="M159.38,89.7l.6-.37h.15l-.22.22Zm.3.83.3-.45.15-.08-.07.23Zm.23.22.3-.52.15-.15-.08.15Zm.45-2.32h-.23l-.37-.38.45.23Zm0-.23-.3-.52.37.37.08.23Zm.15-.82.15.3v.37l-.08-.07Zm.15,3.52.07-.6.08-.15v.23Zm.07-3.3v-.45l.15.53v.07Zm-.6,1,.08.07H160l-.37-.22Zm-.15.22.15.08-.22.07-.45-.07Zm-.07.3h.15l-.15.08-.53.07ZM161,90.38l.07-.3v.07l-.07.68Zm.07-2.63v-.07l.08-.68v.45Zm.15,2.4v-.07l.15.22v.38Zm.15-2.62-.07.15v-.23l.15-.52Zm.08,2.32h0l.15.68-.15-.3Zm.15,0-.08-.22.15.07.3.53Zm.22-.3-.07-.22h.22l.38.37Zm.15-.22-.07-.08h.22l.38.23Zm.15-.3-.15-.08.23-.07.45.07Zm.08-.3-.15-.08.15-.07.52-.08Zm0-.23H162l.22-.22.45-.15Zm.22-1.2-.3.45-.15.08.08-.23Zm-.22-.22-.3.52-.15.15.15-.15Zm-5.48,4.27h0l2.18-1.27.67-.23-.67.6-2.18,1.28v.15l1.65-.9-1.57,1.35v.15l2.17-1.88.6-.37-.6.67-2.17,1.73v.15l1.65-1.28-1.58,1.73v.15L159,91.05l.75-.6-.6.83L157,93.53v.07h.15L158.71,92s-1.43,2-1.43,2h.08l1.87-2.63.6-.67-.52.9s-1.95,2.62-1.95,2.7h.07l1.43-2s-1.13,2.1-1.13,2.17h.08l.07-.07,1.58-2.93.6-.9-.38,1s-1.57,2.85-1.57,2.92h.07l.08-.07,1.13-2.1-.83,2.17v.08h.08l.07-.08,1.13-3,.3-.6-.15.6-1.28,3v.08h.08l.07-.08,1-2.17-.6,2.17v.08h.07a.08.08,0,0,0,.08-.08l.82-3,.45-1-.07,1-.83,3v.07h.08a.07.07,0,0,0,.07-.07l.6-2.25-.22,2.1h.07l.08-.08.3-2.92.22-.9.08.75-.38,2.92h.08l.07-.07.3-2.25.15,2h.15l.08-.08-.15-2.7.15-1.05.22.83.15,2.7H162l.08-.08-.15-2.1s.52,1.73.52,1.8h.08l.07-.07-.67-2.33-.08-.67.23.45.52,2.4h.08l.07-.08-.45-2,.83,1.5h.15a.07.07,0,0,0,.07-.07l-1.05-2-.22-.9.52.52,1,2h.15a.08.08,0,0,0,.08-.08l-.83-1.65,1.2,1.13h.08l.07-.08-1.5-1.42-.37-.75.6.3,1.42,1.5h.08l.07-.08-1.2-1.27,1.5.75v-.08h-.07l-1.8-.82-.53-.53.75.08,1.8.9V89.7h-.07l-1.5-.75,1.72.23.08-.08V89h-.08l-2.1-.3-.52-.3.67-.08,2,.38.07-.08v-.07h-.07l-1.65-.3,1.87-.23s.08,0,.08-.07V87.9h-.08l-2.25.3-.6-.15.83-.3,2.25-.15a.07.07,0,0,0,.07-.07v-.08h-.07l-1.73.15,1.88-.67.07-.08s0-.07-.07,0h-.08l-2.4.83-.75.07.9-.52,2.4-.83.08-.07s0-.08-.08,0H166l-1.8.67,1.87-1.12.08-.08h-.08l-2.4,1.42-.67.23.67-.6,2-.75.07-.07h-.07l-1.8,1,1.72-1.5V85.5h-.07l-2.33,2-.6.38.6-.68,2.33-1.87s.07-.08,0-.08h-.08l-1.72,1.35,1.65-1.72v-.08h-.08l-2.17,2.33-.75.6.6-.83,2.17-2.25v-.07H165l-1.58,1.65,1.43-2v-.08h-.15l-1.88,2.63-.6.67.53-.9,2-2.62v-.08h-.15l-1.43,2,1.13-2.1v-.07h-.08l-.07.07-1.58,2.93-.6.9.38-1,1.57-2.85v-.07h-.07l-.08.07-1.12,2.1.82-2.17v-.08h-.07l-.08.08-1.12,3-.3.6.15-.6,1.27-3h-.15l-.9,2.17.53-2h-.15l-.75,2.85-.45,1.05.07-1,.75-2.85h-.15l-.52,2,.15-1.88c-.08,0-.08.08-.15.08l-.23,2.55-.22.9-.08-.75.3-2.55c-.07,0-.07.07-.15.07L161,86l-.08-1.5c-.07,0-.07.07-.15.07l.15,2.1-.15,1-.22-.82-.15-2-.15.15.07,1.35-.3-1.12-.07.07.45,1.58.07.67-.07-.75L160,85.13c-.07.07-.07.07-.07.15l.22,1.2-.45-.9-.07.07.67,1.28.23.9L160,87.3,159.31,86c0,.07-.08.07-.08.15l.45.9L159,86.4l-.08.08.9.9.38.75-.6-.3-1-1-.07.08.75.75-1-.45-.07.07,1.27.6.53.53-.75-.08L158,87.68l-.07.07,1,.53-1.2-.15c0,.07-.07.07-.07.15l1.65.22.52.3-.67.08-1.58-.3c0,.07,0,.07-.07.15l1.2.22-1.35.15c0,.08,0,.08-.08.15l1.88-.22.6.15-.83.3-1.8.15c0,.07,0,.07-.07.15l1.35-.08-1.43.53c0,.07,0,.07-.07.15l2-.68.75-.07-.9.52-2,.68V91l1.5-.53-1.58,1Z" transform="translate(-124.01 -76.45)"/><path class="cls-9" d="M157.06,91.88A9.9,9.9,0,0,1,161.63,84c2.55-1.42,4.58-.3,4.58,2.63a9.9,9.9,0,0,1-4.58,7.87c-2.55,1.43-4.57.3-4.57-2.62m-.6.3c0,3.22,2.32,4.57,5.17,2.92a11.28,11.28,0,0,0,5.1-8.85c0-3.22-2.32-4.57-5.17-2.92A11.48,11.48,0,0,0,156.46,92.18Z" transform="translate(-124.01 -76.45)"/><path class="cls-9" d="M161.18,88a.79.79,0,0,1,.68-.08l.52.3a.68.68,0,0,1,.3.6,2.15,2.15,0,0,1-1,1.65.59.59,0,0,1-.6.08l-.68-.38a.66.66,0,0,1-.3-.6A2.85,2.85,0,0,1,161.18,88" transform="translate(-124.01 -76.45)"/><path class="body" d="M153.53,87a19.1,19.1,0,0,1,2.63-4.2,13.7,13.7,0,0,1,3-2.55c1.87-1.12,3.6-1.2,4.87-.45l2.78,1.65-10.5,7.13v.07L153.53,87" transform="translate(-124.01 -76.45)"/><path class="body" d="M161.93,81.9a5.34,5.34,0,0,1,4.2-.75,2.85,2.85,0,0,1,1.13.68v.52l-11,6.38a15.74,15.74,0,0,1,5.7-6.83" transform="translate(-124.01 -76.45)"/><path class="body" d="M156.46,88.13c.15-.3.3-.83.6-1.35a6,6,0,0,1,.52-.9c.23-.3.38-.6.68-1s.52-.67.75-1l.9-.9a9.32,9.32,0,0,1,2-1.43c.38-.15.75-.37,1-.45a2.62,2.62,0,0,1,1-.22,5,5,0,0,1,1.57.07.63.63,0,0,1,.38.15.28.28,0,0,1,.15.08,2,2,0,0,0-.6-.08,5.89,5.89,0,0,0-1.5.15,4.53,4.53,0,0,0-.9.3,5.89,5.89,0,0,0-1,.53c-.3.22-.67.45-1,.67l-1,.75c-.3.3-.6.53-.9.83s-.52.6-.82.9A21.07,21.07,0,0,0,157.13,87c-.37.53-.6,1-.82,1.28a5,5,0,0,1-.3.52,1.42,1.42,0,0,0,.45-.67" transform="translate(-124.01 -76.45)"/><path class="body" d="M154.66,94.8c-.23.3-11.78,7-12.53,7l-3.07-2.25a1.81,1.81,0,0,1-.75-1.2,50.58,50.58,0,0,1-.9-7.12,5.28,5.28,0,0,1,.22-1.88A4.58,4.58,0,0,1,140,87a13.17,13.17,0,0,1,3.22-1c.9-.23,1.73-.38,2.63-.6s1.57-.38,2.4-.53c1.57-.3,3.07-.6,4.65-.82a23,23,0,0,1,2.32-.3,5.14,5.14,0,0,1,2.4,1,.5.5,0,0,1,.08.75c-3.38,3.45-2.85,8.92-3,9.22" transform="translate(-124.01 -76.45)"/><path class="body" d="M138.16,92.48a17.91,17.91,0,0,1,1-3.53l3.68,2.18a53.11,53.11,0,0,0-2.63,5.1,34.79,34.79,0,0,0,.3,4.5l-1.57-1.13a1.81,1.81,0,0,1-.75-1.2c-.23-1.05-.45-2.32-.6-3.6.22-.75.37-1.5.6-2.32" transform="translate(-124.01 -76.45)"/><path class="cls-3" d="M130.43,104.93a.79.79,0,0,1,.68-.08l.52.3a.68.68,0,0,1,.3.6,2.15,2.15,0,0,1-1,1.65.59.59,0,0,1-.6.08l-.68-.38a.66.66,0,0,1-.3-.6,2.53,2.53,0,0,1,1.05-1.57" transform="translate(-124.01 -76.45)"/><path class="cls-4" d="M126.91,101.4h0c1.2-1.42,4.2-4.5,7.65-3.07a4.78,4.78,0,0,0-3.9.67,10,10,0,0,0-3,2.7c-2.93,3.6-3.9,8.48-2.18,10.88a1.75,1.75,0,0,0,.53.52c-3.3-2.47-2.18-7.8.9-11.7" transform="translate(-124.01 -76.45)"/><path class="cls-5" d="M125.63,104.93a14.63,14.63,0,0,1,2-3.23c.15-.15.23-.3.38-.45A10.35,10.35,0,0,1,130.58,99c1.58-.9,3.15-1.12,4.35-.45l.23.15c-1.13-.67-2.7-.52-4.35.45a10.56,10.56,0,0,0-2.63,2.25c-.15.15-.22.3-.37.45a11.85,11.85,0,0,0-2,3.23c-1.28,2.92-1.43,5.92-.23,7.57a3.46,3.46,0,0,0,1,.9l-.23-.15a3.57,3.57,0,0,1-1-.9c-1.28-1.72-1-4.72.22-7.57" transform="translate(-124.01 -76.45)"/><path class="cls-4" d="M129.08,102.83a7.84,7.84,0,0,1,2.7-2.33c1.88-1,3.68-1,4.65.38,1.5,2.1.6,6.37-2,9.52a8.73,8.73,0,0,1-2.7,2.4c-1.87,1-3.67,1-4.65-.37-1.5-2.18-.6-6.38,2-9.6m-3.45,9.82a3.46,3.46,0,0,0,1,.9c3.37,1.88,6.45-1,7.65-2.32,2.55-2.85,3.82-6.9,3.07-9.68a4.56,4.56,0,0,0-2.1-2.77c-1.12-.68-2.7-.53-4.35.45a10,10,0,0,0-3,2.7C124.88,105.45,123.91,110.25,125.63,112.65Z" transform="translate(-124.01 -76.45)"/><path class="cls-6" d="M128.18,104.4c2-3.45,4.73-4.57,5.93-4.27.07,0,.07,0,.15.07a1.81,1.81,0,0,1,.75.75c1.35,1.88.52,5.7-1.73,8.63a7.69,7.69,0,0,1-2.4,2.1,3.45,3.45,0,0,1-3.45.37c-.07-.07-.15-.07-.22-.22s-1.88-2.7,1-7.43m-1.35,8.33c1,1.5,3,1.57,5,.45a9.94,9.94,0,0,0,2.85-2.55c2.7-3.38,3.6-7.88,2-10.13-1-1.5-3-1.57-4.95-.45a9.94,9.94,0,0,0-2.85,2.55C126.16,106,125.26,110.48,126.83,112.73Z" transform="translate(-124.01 -76.45)"/><path class="cls-7" d="M131.56,111.83l-1.13-.68a3,3,0,0,1-3.22.3l1.12.68A3.06,3.06,0,0,0,131.56,111.83Z" transform="translate(-124.01 -76.45)"/><path class="cls-7" d="M134.78,101l-1.12-.68a3.18,3.18,0,0,1,1.35,2.93,8.27,8.27,0,0,1-.83,3.45l1.13.67a8.34,8.34,0,0,0,.82-3.45A3.39,3.39,0,0,0,134.78,101Z" transform="translate(-124.01 -76.45)"/><path class="cls-8" d="M135.31,107.4l-1.13-.67a11,11,0,0,1-1.8,2.77l1.13.68A11,11,0,0,0,135.31,107.4Z" transform="translate(-124.01 -76.45)"/><path class="cls-7" d="M133.51,110.18l-1.13-.68a6.83,6.83,0,0,1-2,1.65l1.12.68A7.19,7.19,0,0,0,133.51,110.18Z" transform="translate(-124.01 -76.45)"/><path class="cls-3" d="M129.31,107.1l.6-.37h.15l-.23.22Zm.3.83.3-.45.15-.08-.08.23Zm.22.15.3-.53.15-.15-.07.15Zm.45-2.25h-.22l-.38-.38.45.23Zm.08-.3-.3-.53.37.38.08.22Zm.07-.83.15.3v.38l-.07-.08Zm.15,3.53.08-.6.07-.15v.22Zm.08-3.3v-.45l.15.52v.08Zm-.6,1,.07.08h-.22l-.38-.23Zm-.15.3.15.08-.23.07-.45-.07Zm-.08.23H130l-.15.07-.52.08Zm1,1.35.08-.3v.07l-.08.68Zm.08-2.63v-.07l.07-.68v.45Zm.15,2.33v-.08l.15.23V108Zm.15-2.63-.08.15v-.22l.15-.53Zm.07,2.33h0l.15.67-.15-.3Zm.15,0-.07-.23.15.08.3.52Zm.23-.23-.08-.22h.23l.37.37Zm.15-.3-.08-.07H132l.37.22Zm.15-.3-.15-.07.22-.08.45.08Zm.07-.22-.15-.08.15-.07.53-.08Zm0-.3h-.15l.23-.23.45-.15Zm.23-1.2-.3.45-.15.07.07-.22Zm-.15-.15-.3.52-.15.15.07-.15Zm-5.55,4.2h0l2.17-1.28.68-.22-.68.6-2.17,1.27v.15l1.65-.9-1.58,1.35v.15l2.18-2,.6-.37-.6.67-2.18,1.73V110l1.65-1.28-1.57,1.73v.15l2.17-2.33.75-.6-.6.83-2.17,2.25v.07h.15l1.57-1.65s-1.42,2-1.42,2h.07l1.88-2.63.6-.67-.53.9s-1.95,2.62-1.95,2.7h.08l1.42-2s-1.12,2.1-1.12,2.17h.07l.08-.07,1.57-2.93.6-.9-.37,1s-1.58,2.85-1.58,2.92h.08l.08-.07,1.12-2.1-.82,2.17v.08h.07l.08-.08,1.12-3,.3-.6-.15.6-1.27,3v.08h.07l.08-.08,1-2.17-.6,2.17v.08h.08a.07.07,0,0,0,.07-.08l.83-3,.45-1-.08,1-.82,3v.07h.07s.08,0,.08-.07l.6-2.25-.23,2.1h.08l.07-.08.3-2.92.23-.9.07.75-.37,2.92h.07l.08-.07L131,109l.15,2h.15l.07-.08-.15-2.7-.15-.3.22.83.15,2.7h.15l.08-.08-.15-2.1s.52,1.73.52,1.8h.08l.07-.07-.67-2.33-.08-.67.23.45.52,2.4h.08l.07-.08-.45-2,.83,1.5h.15a.07.07,0,0,0,.07-.07l-1-2-.22-.9.52.52,1.05,2h.15a.08.08,0,0,0,.08-.08l-.82-1.65,1.2,1.13H134l.08-.08-1.5-1.42-.38-.75.6.3,1.43,1.5h.07l.08-.08-1.2-1.27,1.5.75v-.08h-.08l-1.8-.82-.52-.53.75.08,1.8.9v-.08h-.08l-1.5-.75,1.73.23.07-.08V107h-.07l-2.1-.3-.53-.3.68-.08,2,.38.08-.08v-.07H135l-1.65-.23,1.87-.22a.08.08,0,0,0,.08-.08V106h-.08l-2.25.3-.6-.15.83-.3,2.25-.15a.07.07,0,0,0,.07-.08v-.07h-.07l-1.73.15,1.88-.68.07-.07s0-.08-.07,0h-.08l-2.4.82-.75.08.9-.53,2.4-.82.08-.08s0-.07-.08,0h-.07l-1.8.68,1.87-1.13.08-.07h-.08l-2.4,1.42-.67.23.67-.6,2.4-1.35.08-.08h-.08l-1.8,1,1.73-1.5V103h-.08l-2.32,2-.6.37.6-.67,2.32-1.88s.08-.07,0-.07h-.07L133.73,104l1.65-1.73v-.07h-.07l-2.18,2.32-.75.6.6-.82,2.18-2.25V102h-.08l-1.72,1.35,1.42-1.95v-.07h-.15L132.76,104l-.6.68.52-.9,1.95-2.63V101h-.15l-1.42,2,1.12-2.1v-.08h-.07l-.08.08-1.57,2.92-.6.9.37-1,1.58-2.85v-.08h-.08l-.07.08-1.13,2.1.83-2.18v-.07h-.08l-.07.07-1.13,3-.22.3.15-.6,1.27-3h-.15l-.9,2.18.53-2h-.15l-.75,2.85-.45,1,.07-1,.75-2.85h-.15l-.52,2,.15-1.87c-.08,0-.08.07-.15.07l-.23,2.55-.22.9-.08-.75.3-2.55c-.07,0-.07.08-.15.08L131,102.9l-.08-1.5c-.07,0-.07.08-.15.08l.15,2.1-.15,1-.22-.83-.15-2-.15.15.07,1.35-.3-1.13-.07.08.45,1.57.07.68-.22-.45-.38-1.73c-.07.08-.07.08-.07.15l.22,1.2-.45-.9-.07.08.67,1.27.23.9-.53-.52-.67-1.28c0,.08-.08.08-.08.15l.45.9-.67-.67-.08.07.9.9.38.75-.6-.3-1-1-.07.07.75.75-1-.45-.07.08,1.27.6.53.52-.75-.07-1.28-.68-.07.08,1,.52-1.2-.15c0,.08-.07.08-.07.15l1.65.23.52.3-.67.07-1.58-.3c0,.08,0,.08-.07.15l1.2.23-1.35.15c0,.07,0,.07-.08.15l1.88-.23.6.15-.83.3-1.8.15c0,.08,0,.08-.07.15l1.35-.07-1.43.52c0,.08,0,.08-.07.15l2-.67.75-.08-.9.53-2,.67v.15l1.5-.52-1.5,1Z" transform="translate(-124.01 -76.45)"/><path class="cls-9" d="M127,109.28a9.91,9.91,0,0,1,4.58-7.88c2.55-1.42,4.57-.3,4.57,2.63a9.89,9.89,0,0,1-4.57,7.87c-2.55,1.43-4.58.23-4.58-2.62m-.6.3c0,3.22,2.33,4.57,5.18,2.92a11.28,11.28,0,0,0,5.1-8.85c0-3.22-2.33-4.57-5.18-2.92A11.5,11.5,0,0,0,126.38,109.58Z" transform="translate(-124.01 -76.45)"/><path class="cls-9" d="M131.11,105.38a.77.77,0,0,1,.67-.08l.53.3a.68.68,0,0,1,.3.6,2.13,2.13,0,0,1-1,1.65.59.59,0,0,1-.6.08l-.67-.38a.66.66,0,0,1-.3-.6,2.8,2.8,0,0,1,1.05-1.57" transform="translate(-124.01 -76.45)"/><path class="cls-2" d="M145.88,83.85a.29.29,0,0,1,.15-.07,10.26,10.26,0,0,0,2.7-.9,26.32,26.32,0,0,0,3.45-2.1,16,16,0,0,1,2.55-1.8,1,1,0,0,1,.9,0L152,82.73,146,84.9a.63.63,0,0,1-.08-1.05" transform="translate(-124.01 -76.45)"/><path class="cls-12" d="M146.41,83.93a13,13,0,0,0,3.82-1.43.65.65,0,0,1,.3-.15c1.13-.67,2.1-1.35,2.85-1.87a19.32,19.32,0,0,1,1.73-1.28c.22-.15.45-.22.52-.15l4.88,2.85c-3,2.55-6.08,4.8-9.6,5.93L146,85H146c-.23-.23.07-1,.45-1" transform="translate(-124.01 -76.45)"/><path class="cls-2" d="M151.21,86.85c.6-.3,2.47-.15,7-3.6A18.41,18.41,0,0,1,160,82c.23-.15.45-.23.53-.15a1,1,0,0,1,.37.52c.38,1.35-4.5,4.13-4.72,4.2-1.73,1-4,2-5.18,1.28h-.07c-.3-.23,0-.83.3-1" transform="translate(-124.01 -76.45)"/><path class="cls-13" d="M152.41,87.3a20.58,20.58,0,0,0,6.45-3.45,9.3,9.3,0,0,1,1.72-1.2c.3-.15.38-.15.38.08.07.45-1.8,2.1-4.05,3.37-3.83,2.25-5.55,1.88-5.1,1.43,0-.15.37-.15.6-.23" transform="translate(-124.01 -76.45)"/><path class="cls-14" d="M142.88,100.05a10.58,10.58,0,0,1,.6-.9,15.49,15.49,0,0,1,3.83-2.92c2-1.2,3.75-1.65,4.35-1.35l1,.52c-.6-.3-2.32.15-4.35,1.35a16.87,16.87,0,0,0-3.82,2.93,2.06,2.06,0,0,0-.6.9.76.76,0,0,0-.08.37.43.43,0,0,0,.23.38l-1-.53a.4.4,0,0,1-.22-.37.88.88,0,0,1,.07-.38" transform="translate(-124.01 -76.45)"/><path class="cls-15" d="M148.28,96.83c2.48-1.43,4.5-1.88,4.5-1s-2,2.78-4.5,4.28-4.5,1.87-4.5,1,1.95-2.85,4.5-4.27" transform="translate(-124.01 -76.45)"/><path class="body" d="M149.56,85.35c2.1,2.55-2.93,5.78-7.28,6.38-2.85.37-4.5-.68-4.95-3.53a4.52,4.52,0,0,1,0-1.72c1-3.9,10.13-3.68,12.23-1.13" transform="translate(-124.01 -76.45)"/><path class="body" d="M138.76,85.28c-.08-.53,1.5-1.2,3.45-1.5s3.67-.08,3.75.52-1.5,1.2-3.45,1.5-3.68,0-3.75-.52" transform="translate(-124.01 -76.45)"/><path class="cls-17" d="M155.26,94.13s.75-.6,1.87-1.35c.6-.38,1.2-.83,2-1.28s1.5-.9,2.33-1.35a42,42,0,0,1,4.42-2.32,17.84,17.84,0,0,1,2.1-.9.43.43,0,0,1,.53.15.47.47,0,0,1-.08.67s-.75.6-1.87,1.35-2.7,1.73-4.28,2.63c-.82.45-1.57.9-2.32,1.27l-2.1,1a17.84,17.84,0,0,1-2.1.9.57.57,0,0,1-.6-.15.55.55,0,0,1,.15-.67" transform="translate(-124.01 -76.45)"/><path class="cls-2" d="M149.11,98.25c.15-.07.22-.07.3,0l2.92,1.65-.6,1-2.92-1.65a.37.37,0,0,1-.15-.3,1.13,1.13,0,0,1,.45-.75" transform="translate(-124.01 -76.45)"/><path class="cls-18" d="M151.58,100.73c0,.3.23.37.45.22a1,1,0,0,0,.45-.75c0-.3-.22-.37-.45-.22a1,1,0,0,0-.45.75" transform="translate(-124.01 -76.45)"/><path class="cls-2" d="M134.86,80.33a.26.26,0,0,0,.22-.08.4.4,0,0,0,.15-.6l-1.42-2.55a.41.41,0,0,0-.6-.15.4.4,0,0,0-.15.6l1.42,2.55a.43.43,0,0,0,.38.23" transform="translate(-124.01 -76.45)"/><path class="cls-19" d="M137,85.58a.35.35,0,0,0,.15-.68l-1.05-.6a.39.39,0,0,1-.23-.3l-.52-3.9c0-.22-.23-.3-.45-.3a.33.33,0,0,0-.3.45l.52,3.9a1.49,1.49,0,0,0,.6.9l1,.6c.08-.15.15-.07.23-.07" transform="translate(-124.01 -76.45)"/><path class="cls-2" d="M134,84.53c-.23.45.52,1.42,1,1.2s1-1.2.15-1.58a1,1,0,0,0-1,.23.15.15,0,0,0-.15.15" transform="translate(-124.01 -76.45)"/><path class="cls-20" d="M134.11,84.6a.62.62,0,0,1,.67.3c.23.3.3.6.15.68a.62.62,0,0,1-.67-.3c-.23-.23-.3-.6-.15-.68" transform="translate(-124.01 -76.45)"/><path class="cls-21" d="M137.48,84.6l.68-1.12c-.08,0-.08,0-.08-.08l-.67,1.13C137.41,84.6,137.41,84.6,137.48,84.6Z" transform="translate(-124.01 -76.45)"/><path class="cls-19" d="M137.33,84.6l.68-1.12c-.23-.08-.38-.15-.38-.08L137,84.53C137,84.45,137.11,84.45,137.33,84.6Z" transform="translate(-124.01 -76.45)"/><path class="cls-19" d="M138.83,85.58l.68-1.13a.24.24,0,0,0-.08-.15,3.23,3.23,0,0,0-.75-.52L138,84.9a3.23,3.23,0,0,1,.75.53A.23.23,0,0,1,138.83,85.58Z" transform="translate(-124.01 -76.45)"/><path class="cls-21" d="M137.93,84.9l.68-1.12c-.15-.08-.38-.23-.53-.3l-.67,1.12A4.54,4.54,0,0,1,137.93,84.9Z" transform="translate(-124.01 -76.45)"/><path class="cls-22" d="M137.48,84.6c-.45-.22-.6-.22-.37,0a6.07,6.07,0,0,0,1.27.83c.45.22.6.22.38,0a9.48,9.48,0,0,0-1.28-.83" transform="translate(-124.01 -76.45)"/><path class="cls-21" d="M139.51,85.88l.75-1-.08-.08-.75,1Z" transform="translate(-124.01 -76.45)"/><path class="cls-19" d="M139.43,85.8l.75-1c-.22-.15-.3-.15-.37-.15l-.75,1.05A.73.73,0,0,1,139.43,85.8Z" transform="translate(-124.01 -76.45)"/><path class="cls-19" d="M140.78,86.93l.75-1.05a.23.23,0,0,0-.07-.15c-.15-.15-.45-.38-.68-.6L140,86.18a2.87,2.87,0,0,1,.68.6A.23.23,0,0,1,140.78,86.93Z" transform="translate(-124.01 -76.45)"/><path class="cls-21" d="M140,86.18l.75-1.05a1.47,1.47,0,0,0-.45-.3l-.75,1A1.47,1.47,0,0,1,140,86.18Z" transform="translate(-124.01 -76.45)"/><path class="cls-22" d="M139.51,85.88c-.45-.23-.6-.23-.38,0a6,6,0,0,0,1.2.9c.45.22.6.22.38,0a5.35,5.35,0,0,0-1.2-.9" transform="translate(-124.01 -76.45)"/><polygon class="body" points="12.57 9.21 15.8 11.08 13.03 18.06 10.25 16.48 12.57 9.21"/><path class="cls-2" d="M139.28,88.35l-.82,2.1-2.78-1.57.68-2.18c1,.53,1.95,1,2.92,1.65" transform="translate(-124.01 -76.45)"/><path class="cls-2" d="M139.21,87.3,131.78,107a.37.37,0,0,0,.15.45c.15.07.38,0,.38-.15l8-19.58a.62.62,0,0,0-.3-.82.74.74,0,0,0-.82.37" transform="translate(-124.01 -76.45)"/><path class="cls-2" d="M137.56,84l2.92,1.65a1,1,0,0,1,.45,1.2l-.37,1.2a.81.81,0,0,1-.3.38l-.9.52-3.75-2.17a.63.63,0,0,1-.3-.45v-.9a1.12,1.12,0,0,1,.52-.9l.9-.53a.82.82,0,0,1,.83,0" transform="translate(-124.01 -76.45)"/><path class="cls-2" d="M139.73,87.9c-.22.45.53,1.43,1.05,1.2s1-1.2.15-1.57a1,1,0,0,0-1.05.22.17.17,0,0,0-.15.15" transform="translate(-124.01 -76.45)"/><path class="cls-20" d="M139.88,88c.15-.08.45,0,.68.3s.3.6.15.67-.45,0-.68-.3-.3-.6-.15-.67" transform="translate(-124.01 -76.45)"/><path class="cls-19" d="M141.53,88a2.34,2.34,0,0,0,1-.23c1-.52,2.62-1.35,2.7-1.35a.39.39,0,1,0-.38-.67s-1.72.82-2.7,1.35a1.3,1.3,0,0,1-1.27,0l-.38-.23A.4.4,0,0,0,140,87a.39.39,0,0,0,.15.53l.37.22a2.41,2.41,0,0,0,1.05.23" transform="translate(-124.01 -76.45)"/><path class="cls-2" d="M149,87.9a.49.49,0,0,0,.45-.3.5.5,0,0,0-.3-.6l-4.05-1.35a.53.53,0,0,0-.6.3.52.52,0,0,0,.3.6l4,1.35H149" transform="translate(-124.01 -76.45)"/><path class="cls-19" d="M133.81,88.2c-.53,1.2,1.42,3.6,2.77,3.08,1.2-.45,2.4-3.08.3-4a2.67,2.67,0,0,0-2.62.52.86.86,0,0,0-.45.45" transform="translate(-124.01 -76.45)"/><path class="cls-23" d="M134.18,88.2c.38-.3,1.2.08,1.88.83s.75,1.65.37,2-1.2-.08-1.87-.83-.75-1.65-.38-2" transform="translate(-124.01 -76.45)"/><path class="cls-2" d="M132.61,77.55a.77.77,0,0,0,1,.15.79.79,0,0,0,.37-1,.77.77,0,0,0-1.05-.15.79.79,0,0,0-.37,1" transform="translate(-124.01 -76.45)"/><path class="cls-2" d="M149,88.28c.38.15.75-.15.9-.6a.79.79,0,0,0-.37-1c-.38-.15-.75.15-.9.6s0,.9.37,1" transform="translate(-124.01 -76.45)"/><path class="cls-24" d="M136.36,84.68c-.08.15.6.75,1.57,1.35s1.8.82,1.95.67a12.69,12.69,0,0,0-3.52-2" transform="translate(-124.01 -76.45)"/><path class="cls-25" d="M135.68,87.38c.3.07.38.3.3.45s-.45.22-.67.15-.38-.3-.3-.45a.7.7,0,0,1,.67-.15" transform="translate(-124.01 -76.45)"/><path class="cls-2" d="M164,80.55c.53,0,1.13,1,.75,1.43s-1.5.45-1.57-.45a1.12,1.12,0,0,1,.52-.9c.23,0,.3-.08.3-.08" transform="translate(-124.01 -76.45)"/></svg>