<svg id="Capa_1" data-name="Capa 1" xmlns="http://www.w3.org/2000/svg" xmlns:xlink="http://www.w3.org/1999/xlink" viewBox="0 0 80.08 70.71"><defs><style>.cls-1{fill:none;}.cls-2{fill:#c31b27;}.cls-3{fill:#c6c6c8;}.cls-4{fill:#1e1b1a;}.cls-5{fill:#5c595b;}.cls-6{fill:#afb0b0;}.cls-7{fill:#5f5e60;}.cls-8{fill:#cb5252;}.cls-9{fill:#802523;}.cls-10{fill:#a52822;}.cls-11{clip-path:url(#clip-path);}.cls-12{fill:url(#Degradado_sin_nombre_256);}.cls-13{fill:#9dcdea;}.cls-14{fill:#30281f;}.cls-15{fill:#858586;}.cls-16{clip-path:url(#clip-path-2);}.cls-17{fill:url(#Degradado_sin_nombre_257);}.cls-18{fill:#fff;}.cls-19{fill:#e3e1e2;}.cls-20{fill:#2e2a2c;}</style><clipPath id="clip-path" transform="translate(-45.4 -34.89)"><path class="cls-1" d="M73.43,85.27l-.37-.22-5.25-3,.37-.38,3.6,2.18a27.86,27.86,0,0,0-7-4.2c.15.07.23.15.23.22a.24.24,0,0,1,0,.3h-.08l.15.23-5.32-3.08.22-.22,2.78,1.65.07-.08a23,23,0,0,0-7.87-4.12l-.45-.3.07-.15a.27.27,0,0,1,.23-.08c3.52.68,7.2,3.38,9,4.8,4.57,1.28,9.07,5.33,9.3,5.55a.24.24,0,0,1,0,.3H73Z"/></clipPath><linearGradient id="Degradado_sin_nombre_256" x1="8.83" y1="44.76" x2="27.58" y2="44.76" gradientUnits="userSpaceOnUse"><stop offset="0" stop-color="#59afcc"/><stop offset="1" stop-color="#446a70"/></linearGradient><clipPath id="clip-path-2" transform="translate(-45.4 -34.89)"><path class="cls-1" d="M65.56,102a1.23,1.23,0,0,1-.45.38,1.81,1.81,0,0,1-2-.08c-.83-.53-6.23-3.6-6.53-3.75a1.49,1.49,0,0,1,.08-.45,3.86,3.86,0,0,0,.07-.38c0-.07,0-.15.08-.15l.22-.45c0-.07.08-.07.08-.15a1.68,1.68,0,0,1,.45-.3c.07,0,.15-.07.3-.07a3,3,0,0,1,.75.07,5.7,5.7,0,0,1,.67.3c2.33,1.35,2.4,1.43,2.4,1.43l2,1.12s.83.68,1.43.38.45,2.1.45,2.1"/></clipPath><linearGradient id="Degradado_sin_nombre_257" x1="10.88" y1="62.17" x2="18.96" y2="66.52" gradientUnits="userSpaceOnUse"><stop offset="0" stop-color="#fff"/><stop offset="0.74" stop-color="#fff"/><stop offset="0.82" stop-color="#e3e1e2"/><stop offset="1" stop-color="#e3e1e2"/></linearGradient></defs><path class="cls-2" d="M125.48,64l-1,.61c-.75.45-1.42.07-1.42-.83a3,3,0,0,1,1.42-2.4l1-.6V64" transform="translate(-45.4 -34.89)"/><path class="cls-3" d="M114.76,73.05c1.72-1,3.15-.23,3.15,1.8a7.1,7.1,0,0,1-3.15,5.47c-1.73,1-3.15.23-3.15-1.8a6.94,6.94,0,0,1,3.15-5.47" transform="translate(-45.4 -34.89)"/><path class="cls-4" d="M114.76,70.35a5.23,5.23,0,0,0-.6.37,2.19,2.19,0,0,0-.38.3,1.76,1.76,0,0,0-.37.3,12.22,12.22,0,0,0-4.13,8.4V80a1.53,1.53,0,0,0,.08.6v.08c0,.15.07.37.07.52a1.51,1.51,0,0,0,.15.53,1,1,0,0,1,.15.45,2.68,2.68,0,0,0,.53.75l.3.3a1,1,0,0,0,.3.22l-3.68-2.1-1.5-.9a7.54,7.54,0,0,0,.6-3c0-2.17.6-2.77,1.73-5.1.82-1.5,1.57-3.07,2.25-4.65l3.07,1.8Z" transform="translate(-45.4 -34.89)"/><path class="cls-5" d="M114.76,80.32c-1.73,1-3.15.23-3.15-1.8a7.07,7.07,0,0,1,3.15-5.47c1.72-1,3.15-.23,3.15,1.8a6.76,6.76,0,0,1-3.15,5.47m0-10a5.23,5.23,0,0,0-.6.37,2.19,2.19,0,0,0-.38.3,1.76,1.76,0,0,0-.37.3,12.22,12.22,0,0,0-4.13,8.4V80a1.53,1.53,0,0,0,.08.6v.08c0,.15.07.37.07.52a1.51,1.51,0,0,0,.15.53,1,1,0,0,1,.15.45,2.68,2.68,0,0,0,.53.75l.3.3a1,1,0,0,0,.3.22c1,.6,2.4.53,4-.37a12.52,12.52,0,0,0,5.55-9.38V73.5C120.31,70,117.83,68.55,114.76,70.35Z" transform="translate(-45.4 -34.89)"/><path class="cls-4" d="M121.88,72.6l-1.57.9c0-3.52-2.48-5-5.55-3.15a5.23,5.23,0,0,0-.6.37,2.19,2.19,0,0,0-.38.3,1.76,1.76,0,0,0-.37.3,12.87,12.87,0,0,0-4.13,8.4V80l-1.5.9h-.07V80a17,17,0,0,1,5.62-10.65,1,1,0,0,0,.3-.3,1.53,1.53,0,0,0,.38-.3c.07-.07.22-.15.3-.22s.22-.15.37-.23c4-2.1,7.2-.3,7.2,4.28" transform="translate(-45.4 -34.89)"/><path class="cls-4" d="M114.76,66.37a1.51,1.51,0,0,1-.68,1.2c-.37.23-.67.08-.67-.37V65.4a1.53,1.53,0,0,1,.67-1.2.41.41,0,0,1,.68.37Z" transform="translate(-45.4 -34.89)"/><polygon class="cls-6" points="45.43 44.83 42.88 46.26 42.51 45.96 40.1 44.61 40.03 44.61 35.3 41.83 35.6 41.01 36.2 39.43 42.58 43.11 44.6 44.31 45.43 44.83"/><path class="cls-7" d="M90.83,78.75,90,79.2l-1.65,1-2-1.13L81.08,76l.6-1.58.15-.45a1.2,1.2,0,0,1,.08-.37l6.9,4Z" transform="translate(-45.4 -34.89)"/><path class="cls-6" d="M91.21,79a.82.82,0,0,1-.45.75l-.83-.52-2-1.2-6.3-3.68.15-.45a1.35,1.35,0,0,1,.07-.37.24.24,0,0,1,.08-.15l7,4.05L91,78.67v.08c.23.07.23.15.23.22" transform="translate(-45.4 -34.89)"/><path class="cls-6" d="M88.28,81.15a.29.29,0,0,0-.15.07H88l-2.7-1.57-.75-.45-2.47-1.43c-.45-.3-.9-.52-1.35-.82l.07-.15,4.73,2.78h0L87.91,81Z" transform="translate(-45.4 -34.89)"/><path class="cls-6" d="M91.21,76.12,89,77.4l-.15.15L88,78l-1.65,1-.82.45h0l-.15.08-7.43,4.27,2.78-7,.07-.15.3-.82.6-1.58.15-.45a1.2,1.2,0,0,1,.08-.37.25.25,0,0,1,.07-.15,4.23,4.23,0,0,1,1.5-1.73h0Z" transform="translate(-45.4 -34.89)"/><path class="cls-7" d="M91.13,78.67a.14.14,0,0,0-.22,0h-.08l-2-1.12-6.9-4a.29.29,0,0,1,.07-.15l7,4Z" transform="translate(-45.4 -34.89)"/><path class="cls-8" d="M121.13,47,82.28,69.45,62.63,58.05l38.85-22.5c1,.6,2.1,1.2,3.23,1.87.3.15.6.38.9.53,3.67,2.17,7.72,4.5,11.47,6.67.3.15.6.38.9.53l3.15,1.8" transform="translate(-45.4 -34.89)"/><path class="cls-9" d="M124.21,57.07l-4.95,2.85v-9c.07,0,1.12-.6,2.47-1.42s2.48.6,2.48,3.07Z" transform="translate(-45.4 -34.89)"/><path class="cls-9" d="M124.36,46.57h-.08c-.07-.07-.15-.07-.3-.15h-.07c-.08,0-.15-.07-.3-.07a1.2,1.2,0,0,0-.75,0,.46.46,0,0,0-.3.07.53.53,0,0,0-.3.08c-.08,0-.23.08-.3.08s-.15,0-.15.07-.08,0-.15.08-.08.07-.15.07-.23.08-.3.15h-.15c-1-.6-2.1-1.2-3.23-1.87-.3-.15-.6-.38-.9-.53-3.67-2.17-7.72-4.5-11.47-6.67-.3-.15-.6-.38-.9-.53-1.13-.67-2.18-1.27-3.23-1.87.15-.08,2-1,3.23-.3Z" transform="translate(-45.4 -34.89)"/><path class="cls-7" d="M87.91,80.85v.22l-2.7-1.57-.75-.45L82,77.62l-1.35-.82.08-.15.3-.82,5.25,3.07,2,1.13a1.55,1.55,0,0,0-.37.82" transform="translate(-45.4 -34.89)"/><path class="cls-4" d="M91.21,79a.82.82,0,0,1-.45.75l-2.48,1.43a.29.29,0,0,0-.15.07H88V81a1,1,0,0,1,.45-.75l1.65-1,.83-.45h.3V79" transform="translate(-45.4 -34.89)"/><path class="cls-3" d="M79.36,93.45c1.72-1,3.15-.23,3.15,1.8a7.13,7.13,0,0,1-3.15,5.48c-1.73,1-3.15.22-3.15-1.8a7.18,7.18,0,0,1,3.15-5.48" transform="translate(-45.4 -34.89)"/><path class="cls-4" d="M73.88,100.35v.15a1.55,1.55,0,0,0,.08.6.74.74,0,0,0,.07.38.5.5,0,0,0,.08.29,3.19,3.19,0,0,0,.15.53c0,.08.07.15.07.3a.07.07,0,0,0,.08.07c.15.23.22.46.45.61,0,.07.07.07.07.15a1.37,1.37,0,0,0,.3.22c.08.08.23.15.3.23l-3.67-2.18-2.48-1.42A8.25,8.25,0,0,0,71,97.58c.52-1.58.75-3,1.87-4.13,1.35-1.35,2.63-2.77,4-4.2l1.27.75,1.43.83a11.54,11.54,0,0,0-5.63,9.52" transform="translate(-45.4 -34.89)"/><path class="cls-10" d="M62.93,78.67c-.07,0-.07.08-.07.08L60.08,77.1l-.22.23-4.73-2.78a26.6,26.6,0,0,1,7.8,4.12" transform="translate(-45.4 -34.89)"/><path class="cls-10" d="M71.86,83.85l-3.6-2.18-.38.38L65.11,80.4,65,80.17H65a.22.22,0,0,0,0-.3l-.22-.22a28.34,28.34,0,0,1,7,4.2" transform="translate(-45.4 -34.89)"/><g class="cls-11"><rect class="cls-12" x="9.06" y="39.13" width="18.97" height="11.25"/></g><path class="cls-9" d="M107.71,80.1a16.08,16.08,0,0,1,5.62-10.65l-3.07-1.8c-.68,1.57-1.5,3.15-2.25,4.65-1.2,2.25-1.73,2.92-1.73,5.1a7.57,7.57,0,0,1-.6,3l1.5.9.53-.3h.07v-.23h-.07v-.22a.45.45,0,0,1,0-.45M91.13,78.67,89,77.4l-.15.15-.82.45-1.65,1-.83.45h0l-.15.08,2.7,1.57v-.22a1,1,0,0,1,.45-.75l1.65-1,.83-.45ZM76.66,89.17l-4,4.21a9,9,0,0,0-1.87,4.12,7,7,0,0,1-1.58,2.7l2.48,1.43.52-.3v-.15h0v-.9a1.58,1.58,0,0,1,.08-.6V99.6c0-.23.07-.38.07-.6v-.15a1.83,1.83,0,0,1,.15-.6c.15-.53.3-1,.45-1.5.08-.15.08-.3.15-.38s.15-.37.23-.52a3.07,3.07,0,0,1,.37-.75c.15-.23.23-.53.38-.75a2.27,2.27,0,0,1,.37-.6c.08-.15.15-.23.23-.38s.15-.22.22-.37a1.11,1.11,0,0,0,.23-.3,3,3,0,0,0,.37-.53c.15-.22.3-.37.46-.6a9.48,9.48,0,0,1,1.8-1.72ZM65.18,99.9h0v2.55a1.23,1.23,0,0,0,.45-.38S65.78,99.6,65.18,99.9Z" transform="translate(-45.4 -34.89)"/><path class="cls-9" d="M119.33,59.92v-9a28.51,28.51,0,0,0,2.48-1.42c1.35-.83,2.47.6,2.47,3.07v4.5ZM92.78,75.3v-9l25.13-14.48v9Zm21.3-7.73c-.37.23-.67.08-.67-.37V65.4a1.53,1.53,0,0,1,.67-1.2.42.42,0,0,1,.68.38v1.8A1.51,1.51,0,0,1,114.08,67.57ZM90.83,79.72l-2.47,1.43a.25.25,0,0,0-.15.07h-.15l-2.7-1.57-7.43,4.27,2.78-7,.07-.15.3-.82.6-1.58.15-.45a1.2,1.2,0,0,1,.08-.37.25.25,0,0,1,.07-.15,4.16,4.16,0,0,1,1.5-1.73h0l.68-.45c2-1.2,6.75-3.9,7-4v9L89,77.47l2.1,1.2h.07v.23A.81.81,0,0,1,90.83,79.72ZM125.48,64l-1,.61c-.75.45-1.42.07-1.42-.83a3,3,0,0,1,1.42-2.4l1-.6V49.43c0-1.66-.52-2.48-1.2-2.85-.07-.08-.15-.08-.3-.15h-.07c-.08,0-.15-.08-.3-.08h-.75a.42.42,0,0,0-.3.08.59.59,0,0,0-.3.07c-.08,0-.15.08-.3.08s-.15,0-.15.07-.08,0-.15.08-.08.07-.15.07-.23.08-.3.15h-.15L82.21,69.45a5.73,5.73,0,0,0-1,.9,6.88,6.88,0,0,0-1.12,1.88.16.16,0,0,1,.15.15.28.28,0,0,1,.07.22V73c0,.15-.07.3-.07.52a7.39,7.39,0,0,1-.45,1.28c-.08.07-.08.22-.15.37a7.8,7.8,0,0,0-.3.83.28.28,0,0,1-.08.15c-.9,2.25-1.87,4.87-2.92,6.9a8.78,8.78,0,0,1-2.18,3c-.07.07-.15.07-.3.15l-.07.07a6.63,6.63,0,0,0-.75.75l-1.35,1.35a43,43,0,0,0-5.1,6.45c-.15.3-.3.53-.45.83a7.6,7.6,0,0,0-.38.75c-.07.15-.15.37-.22.52a1,1,0,0,0-.15.45A5.62,5.62,0,0,0,65,98.93v1c.6-.3.38,2.1.38,2.1a1.27,1.27,0,0,1-.45.37v3.15l6.6-3.82-2.48-1.43a8.06,8.06,0,0,0,1.58-2.7c.52-1.57.75-3,1.87-4.12,1.35-1.35,2.63-2.78,4-4.2l1.27.75c.23-.15.45-.38.68-.53a6.18,6.18,0,0,1,.75-.45c3.9-2.25,7.12-.45,7.12,4.05l-1.57.9v.23L107,81.45l-1.5-.9a7.71,7.71,0,0,0,.6-3c0-2.17.6-2.77,1.72-5.1A49.76,49.76,0,0,0,110,67.8l3.08,1.8c.07-.07.22-.15.37-.3a1.53,1.53,0,0,0,.38-.3c.07-.07.22-.15.3-.22s.22-.15.37-.23c3.9-2.25,7.13-.45,7.13,4l-1.58.9v.23l2.78-1.58a5.2,5.2,0,0,0,2.4-4.12A24.22,24.22,0,0,0,125.48,64Z" transform="translate(-45.4 -34.89)"/><polygon class="cls-9" points="72.5 25.86 47.38 40.41 47.3 31.41 72.43 16.86 72.5 25.86"/><path class="cls-5" d="M79.36,100.73c-1.73,1-3.15.22-3.15-1.8a7.07,7.07,0,0,1,3.15-5.48c1.72-1,3.15-.23,3.15,1.8a6.63,6.63,0,0,1-3.15,5.48m0-10a11.87,11.87,0,0,0-5.48,9.52v.15a1.53,1.53,0,0,0,.08.6.74.74,0,0,0,.07.38.53.53,0,0,0,.08.3,3.34,3.34,0,0,0,.15.52c0,.08.07.15.07.3a.08.08,0,0,0,.08.08c.15.22.22.45.45.6,0,.08.07.08.07.15a.93.93,0,0,0,.3.22c.08.08.23.15.3.23a3.76,3.76,0,0,0,3.9-.37A12.52,12.52,0,0,0,85,94.05v-.23C84.91,90.45,82.43,89,79.36,90.75Z" transform="translate(-45.4 -34.89)"/><path class="cls-4" d="M86.48,93l-1.57.9c0-3.52-2.48-5-5.55-3.15a11.87,11.87,0,0,0-5.48,9.52l-1.57.9v-.9a1.79,1.79,0,0,1,.07-.6V99.6c0-.23.08-.38.08-.6v-.15a1.61,1.61,0,0,1,.15-.6c.15-.53.3-1,.45-1.5.07-.15.07-.3.15-.38s.15-.37.22-.52a3.53,3.53,0,0,1,.38-.75c.15-.23.22-.53.37-.75a2.62,2.62,0,0,1,.38-.6c.07-.15.15-.23.22-.38s.15-.22.23-.37a1.11,1.11,0,0,0,.22-.3,3,3,0,0,0,.38-.53c.15-.22.3-.37.45-.6a9.48,9.48,0,0,1,1.8-1.72c.22-.15.45-.38.67-.53a7.07,7.07,0,0,1,.75-.45c4-2.17,7.2-.37,7.2,4.13" transform="translate(-45.4 -34.89)"/><path class="cls-13" d="M91.21,76.12,89,77.4l-.15.15L88,78l-1.65,1-.82.45h0l-.15.08-7.43,4.27,2.78-7,.07-.15.3-.82.6-1.58.15-.45a1.2,1.2,0,0,1,.08-.37.25.25,0,0,1,.07-.15,4.23,4.23,0,0,1,1.5-1.73h0l.68-.45c2-1.2,6.75-3.9,7-4Z" transform="translate(-45.4 -34.89)"/><path class="cls-10" d="M74.26,85.72,74,86l-.08.08a8.83,8.83,0,0,0-.75.75L71.78,88.2a43.63,43.63,0,0,0-5.1,6.45c-.15.3-.3.53-.45.82a5.73,5.73,0,0,0-.37.76c-.08.14-.15.37-.23.52a1.14,1.14,0,0,0-.15.45,5.9,5.9,0,0,0-.37,1.58v.9L45.46,88.27c-.08-.22-1-4.12,8.7-13.5.15-.14.3-.29.37-.37l.45.3,4.73,2.77L65,80.55l2.78,1.65,5.25,3,.37.23Z" transform="translate(-45.4 -34.89)"/><polygon class="cls-9" points="19.78 70.63 0.13 59.16 0.06 56.53 0.06 53.98 0.06 53.38 19.78 64.78 19.78 65.01 19.78 67.48 19.78 70.63"/><path class="cls-10" d="M82.28,69.45a5,5,0,0,0-1,.9,7,7,0,0,0-1.13,1.87l-.67-.37L69.38,66l-8.85-5.18A6.05,6.05,0,0,1,62.63,58Z" transform="translate(-45.4 -34.89)"/><path class="cls-14" d="M58.43,96.37c.53.3.83,1.58.83,2.1s-.45.75-1,.46L51,94.72a2.19,2.19,0,0,1-1-1.65c0-.6.6-1.27,1.2-1Z" transform="translate(-45.4 -34.89)"/><path class="cls-15" d="M50.48,92.25c-.07,0-.07.08-.15.15l8.78,5c0-.07-.08-.15-.08-.22Z" transform="translate(-45.4 -34.89)"/><path class="cls-15" d="M50.11,93.67a.51.51,0,0,0,.15.3l8.85,5.1c.07,0,.07-.07.15-.14Z" transform="translate(-45.4 -34.89)"/><path class="cls-15" d="M50,92.85A.29.29,0,0,1,50,93l9.22,5.32V98.1Z" transform="translate(-45.4 -34.89)"/><g class="cls-16"><rect class="cls-17" x="11.23" y="61.71" width="9.15" height="6.23"/></g><path class="cls-18" d="M50,91.42c-2.18-1.27-2.25-1.35-2.25-1.35l-1.8-1-.3-.15c-.08.45,0,1.88,0,2.55a1.64,1.64,0,0,0,.82.83c.83.45,5.93,3.37,6.15,3.52-.15-.15-.3-3-2.62-4.35" transform="translate(-45.4 -34.89)"/><path class="cls-19" d="M62.48,100.42a3.77,3.77,0,0,1-1.57-.75c-.83-.45-1.43-.9-1.43-1a4.11,4.11,0,0,1,1.58.75c.82.53,1.5,1,1.42,1" transform="translate(-45.4 -34.89)"/><path class="cls-19" d="M50.41,93.22a3.78,3.78,0,0,1-1.58-.75c-.82-.45-1.42-.9-1.42-1a4.1,4.1,0,0,1,1.57.75,7.36,7.36,0,0,1,1.43,1" transform="translate(-45.4 -34.89)"/><path class="cls-13" d="M80.41,72.67v.38c0,.15-.08.3-.08.52a6,6,0,0,1-.45,1.28c-.07.07-.07.22-.15.37s-.22.53-.3.83a.29.29,0,0,1-.07.15c-.9,2.25-1.88,4.87-2.93,6.9a8.91,8.91,0,0,1-2.17,3,1.64,1.64,0,0,1-.3.15l.3-.3-.83-.53-.3-.52h.08a.24.24,0,0,0,0-.3c-.23-.15-4.8-4.28-9.3-5.55-1.8-1.43-5.48-4-9-4.8a.27.27,0,0,0-.23.08l.6-1.43,5.18-12,8.85,5.18,10.12,5.85.68.37a.17.17,0,0,1,.15.15c.15,0,.15.15.15.22" transform="translate(-45.4 -34.89)"/><polygon class="cls-20" points="19.86 45.81 14.23 42.58 14.38 42.43 14.61 42.21 17.38 43.86 18.2 44.38 18.2 44.38 19.41 45.06 19.48 45.21 19.63 45.43 19.86 45.81"/><polygon class="cls-20" points="28.03 50.38 27.73 50.16 22.48 47.16 22.86 46.78 26.45 48.96 27.66 49.71 27.73 49.86 28.03 50.38"/><path class="cls-20" d="M65,80.1h0a.23.23,0,0,1-.15.07c-.07,0-.07,0-.15-.07a10.5,10.5,0,0,0-1.05-.9h0c-.22-.15-.45-.38-.75-.6a23,23,0,0,0-7.87-4.13c-.08,0-.23-.07-.3-.07s-.15-.15-.15-.23V74.1s0-.08.07-.08a.3.3,0,0,1,.23-.07c3.52.67,7.2,3.37,9,4.8.37.3.67.6.9.75s.22.15.22.22c.08.23.08.31,0,.38" transform="translate(-45.4 -34.89)"/><path class="cls-20" d="M73.21,84.75h0a.25.25,0,0,1-.15.07c-.08,0-.08,0-.15-.07a12.21,12.21,0,0,0-1-.9,28,28,0,0,0-7-4.2c-.38-.15-.75-.23-1.13-.38h0a2.29,2.29,0,0,0-.67-.14c-.15,0-.23-.15-.15-.23s0-.08.07-.08l.08-.07h.15c.3.07.52.15.82.22,4.58,1.28,9.08,5.33,9.3,5.55a.57.57,0,0,1-.07.23" transform="translate(-45.4 -34.89)"/></svg>