<svg id="Capa_1" data-name="Capa 1" xmlns="http://www.w3.org/2000/svg" viewBox="0 0 151.72 128.93"><defs><style>.cls-1{fill:#464245;}.cls-2{fill:#c31b27;}.cls-3{fill:#2a2627;}.cls-4{fill:#605d60;}.cls-5{fill:#1e1b1a;}.cls-6{fill:#534f52;}.cls-7{fill:#edecec;}.cls-8{fill:#c6c6c8;}.cls-9{fill:#302c2e;}.cls-10{fill:#524c51;}.cls-11{fill:#393538;}.cls-12{fill:#9b9c9c;}.cls-13{fill:#423e42;}.cls-14{fill:#363335;}.cls-15{fill:#737273;}.cls-16{fill:#a52822;}.cls-17{fill:#929394;}.cls-18{fill:#802523;}.cls-19{fill:#a7a7a7;}.cls-20{fill:#88444a;}.cls-21{fill:#cb5252;}.cls-22{fill:#9dcdea;}.cls-23{fill:#959596;}.cls-24{fill:#30281f;}.cls-25{fill:#858586;}.cls-26{fill:#faefdd;}.cls-27{fill:#2e2a2c;}</style></defs><polygon class="cls-1" points="62.85 99.3 85.5 86.25 60.45 71.7 23.7 92.85 48.75 107.4 60.75 100.5 62.85 99.3"/><polygon class="cls-2" points="150.45 56.4 148.88 55.5 146.63 54.23 141.75 51.38 144 50.1 145.57 49.13 148.88 51.08 150.38 51.98 150.45 56.4"/><polygon class="cls-2" points="151.72 51.23 150.38 51.98 148.88 51.08 145.57 49.13 146.93 48.38 148.88 49.5 150.38 50.4 151.72 51.23"/><polygon class="cls-2" points="151.72 51.23 151.72 55.65 150.45 56.4 150.38 51.98 151.72 51.23"/><polygon class="cls-3" points="148.88 57.3 146.47 55.88 145.13 55.13 143.18 54 140.25 52.27 140.85 51.98 140.93 51.98 141.82 51.45 144.07 50.17 145.72 49.27 147 48.52 148.95 47.4 148.95 49.65 148.95 51.15 148.95 53.03 148.95 55.65 148.88 57.3"/><path class="cls-1" d="M161.55,63.14l-2.25,1.28-1,.6-1.12-.68h-.08l-.37-.22L156.6,64l-.15-.07-.23-.08-.9-.52c-.67-.38-1.35-.75-1.95-1.13h.08l.9-.52,2.25-1.28Z" transform="translate(-12.67 -10.19)"/><path class="cls-4" d="M159.6,68.62c-.6-.3-1.13-.68-1.73-1s-1.35-.82-2.1-1.2c-.22-.15-.52-.3-.75-.45-.6-.37-1.12-.67-1.72-1h0c-.83-.45-1.58-.9-2.4-1.43l.6-.37,1.35-.75.6-.3c.67.37,1.35.75,2,1.12l.9.53.22.07.15.08.15.07.38.23h.07l1.13.67c.15.08.22.23.3.3a3.92,3.92,0,0,0,.3.38c.07.07.07.15.15.3a.25.25,0,0,1,.07.15c.08.07.08.15.15.3a.28.28,0,0,0,.08.15c0,.07.07.15.07.22s.08.15.08.3v.08a.26.26,0,0,0,.08.22,2.25,2.25,0,0,1,.07.68.89.89,0,0,0-.15.6" transform="translate(-12.67 -10.19)"/><path class="cls-4" d="M158.32,64.94l3.23-1.87v4.42l-2,1.13a5,5,0,0,0-1.28-3.68" transform="translate(-12.67 -10.19)"/><path class="cls-5" d="M156.07,70.64a6.33,6.33,0,0,1-2.77,4.88l-2.85-1.65-1.73-1.05-1.05-.6-1-.53-4.88-2.85,5.55-3.22,1.13-.68c.9.53,1.8,1,2.77,1.58l1.13.67c.37.23.67.38,1,.6h0c.6.38,1.2.75,1.8,1a1.68,1.68,0,0,1,.53.53.28.28,0,0,1,.07.22c0,.08.08.15.08.23a1,1,0,0,1,.07.45.4.4,0,0,1,.15.37" transform="translate(-12.67 -10.19)"/><path class="cls-5" d="M153.3,75.52a2.88,2.88,0,0,1-.68.3c-.07,0-.15.07-.22.07s-.3.08-.45,0h-.38a.53.53,0,0,1-.37-.15c-.9-.52-1.88-1.12-2.78-1.65l-1.12-.67c-.45-.23-.9-.53-1.28-.75h0a1.68,1.68,0,0,1-.45-.3c-.52-.3-1-.6-1.5-.9s-1.35-.75-1.95-1.13l-1.42-.82,1.2-.68,4.87,2.85,1,.53,1.05.6,1.72,1.05Z" transform="translate(-12.67 -10.19)"/><path class="cls-6" d="M158.25,69.44l-3.83-2.17-1-.6-1.27-.75-2.55-1.5,1.35-.75H151l.6-.38,2.48,1.43,2.4,1.42.3.15.07.08a1,1,0,0,1,.3.22c.08.08.15.15.23.15a.07.07,0,0,1,.07.08,1.82,1.82,0,0,1,.15.15,2.64,2.64,0,0,1,.38.67c.07.08.07.23.15.3s.07.23.07.38v.15a2.76,2.76,0,0,0,.08.37c-.08.23,0,.38,0,.6" transform="translate(-12.67 -10.19)"/><polygon class="cls-4" points="150.45 56.4 148.88 57.3 148.88 55.5 148.88 52.95 148.88 51.08 148.88 49.5 148.88 47.25 150.38 46.35 150.38 50.4 150.38 51.98 150.45 56.4"/><path class="cls-7" d="M155.32,68.84c-.07,0-.07,0-.15-.07a.24.24,0,0,1-.15-.08h-.6a3,3,0,0,0-1.27.38l-1-.6-.75-.45-1-.6-3.07-1.8,1.12-.68c.9.53,1.8,1,2.78,1.58l1.12.67c.38.23.68.38,1,.6h0c.75.38,1.35.68,2,1" transform="translate(-12.67 -10.19)"/><path class="cls-7" d="M153.3,69.07c-.08.07-.15.07-.23.15s-.15.07-.22.15-.15.07-.23.15-.15.15-.22.15l-.23.22a4.46,4.46,0,0,0-.45.6c-.07.08-.15.23-.22.3s-.08.15-.15.23a7.09,7.09,0,0,0-.53,1.12c-.07.15-.07.3-.15.38a.7.7,0,0,0-.07.37c0,.08-.08.15-.08.3v1.13a.26.26,0,0,0,.08.22.3.3,0,0,0,.07.23.24.24,0,0,0,.08.15c0,.07.07.15.15.22s0,.08.07.08h0c0,.07.08.07.08.15l.15.15.07.07.15.15c-.9-.52-1.87-1.12-2.77-1.65l-1.13-.67c-.45-.23-.9-.53-1.27-.75h0a1.68,1.68,0,0,1-.45-.3c-.53-.3-1-.6-1.5-.9-.68-.38-1.35-.75-2-1.13l-1.43-.82,1.2-.68,5.55-3.22,3.08,1.8,1.05.6.75.45Z" transform="translate(-12.67 -10.19)"/><path class="cls-8" d="M153.3,69.07c1.57-.9,2.77-.15,2.85,1.57a6.34,6.34,0,0,1-2.78,4.88c-1.57.9-2.85.15-2.85-1.58a6.11,6.11,0,0,1,2.78-4.87" transform="translate(-12.67 -10.19)"/><path class="cls-5" d="M156.75,66.22h0a.24.24,0,0,0-.15-.08c-.08,0-.15-.07-.23-.07s-.37-.08-.52-.15h-1a.3.3,0,0,0-.23.07.26.26,0,0,0-.22.08c-.08,0-.15.07-.3.07s-.23.08-.38.15l-.45.23h-.07l-1.28-.75-2.55-1.5h.08l1.35-.75h.07l.6-.38,2.48,1.43L156.3,66Z" transform="translate(-12.67 -10.19)"/><path class="cls-6" d="M157.8,64.57c-.08,0-.15-.08-.23-.08s-.15-.07-.22-.07-.08-.08-.15-.08h-.08c-.15,0-.22-.07-.37-.07h-.23a2.36,2.36,0,0,0-.75,0,1.34,1.34,0,0,0-.52.07,3.43,3.43,0,0,1-.38.08,1,1,0,0,0-.45.15c-.15.07-.3.07-.45.15h-.07c-.08,0-.08,0-.15.07a2,2,0,0,0-.53.3h-.07l-2.4-1.42h.07l.6-.38,1.35-.75.6-.3h.08Z" transform="translate(-12.67 -10.19)"/><path class="cls-9" d="M123.67,62.39Z" transform="translate(-12.67 -10.19)"/><path class="cls-9" d="M153.3,66.59a3.6,3.6,0,0,0-.83.6.9.9,0,0,0-.37.38c-.15.15-.38.3-.53.45a1.83,1.83,0,0,0-.37.45c-.08.07-.15.22-.3.3a5.87,5.87,0,0,0-.6.9,6.64,6.64,0,0,0-.75,1.27c-.08.15-.15.38-.23.53a1.48,1.48,0,0,0-.15.37c-.07.23-.15.45-.22.75,0,.08-.08.15-.08.23s-.07.22-.07.3a.26.26,0,0,1-.08.22c0,.15-.07.23-.07.38a.44.44,0,0,1-.08.3,5.66,5.66,0,0,0-.07,1V76a.28.28,0,0,0,.07.22v.23a5.47,5.47,0,0,0,.23.6.29.29,0,0,0,.07.15.37.37,0,0,1,.15.3c.08.07.08.15.15.22s.08.08.15.15a.76.76,0,0,0,.38.3l-3.3-2-.9-.52L142.57,74l-1-.6-1.43-.83h0l-2.4-1.42.6-.38.6-.37,1.73-1h0l1.2-.68,5.55-3.22,1.12-.68.9-.52,2.55,1.5Z" transform="translate(-12.67 -10.19)"/><path class="cls-4" d="M123.67,62.39Z" transform="translate(-12.67 -10.19)"/><path class="cls-4" d="M147,75.89l-.6.38-.83.45c-1.2-.68-2.47-1.43-3.75-2.18a8.73,8.73,0,0,0-1.12-.6c-.45-.22-.83-.52-1.28-.75a13,13,0,0,0-1.5-.82c-.37-.23-.75-.45-1-.6l.83-.45.6-.38,2.4,1.43,1.72,1,.75.45,2,1.2Z" transform="translate(-12.67 -10.19)"/><path class="cls-4" d="M145.57,76.72h0c-1.2-.68-2.47-1.43-3.82-2.18a8.83,8.83,0,0,0-1.13-.6c-.45-.22-.82-.52-1.27-.75-.83-.45-1.65-1-2.55-1.5h0c.37.23.75.38,1,.6a14.83,14.83,0,0,0,1.5.83c.45.22.82.52,1.27.75a8.83,8.83,0,0,0,1.13.6q2,1.23,3.82,2.25" transform="translate(-12.67 -10.19)"/><path class="cls-4" d="M145.72,72.29l2.55-1.5A12.33,12.33,0,0,0,147,76l-1.43.82L147,76a5,5,0,0,0-1.28-3.68" transform="translate(-12.67 -10.19)"/><path class="cls-6" d="M123.67,62.39Z" transform="translate(-12.67 -10.19)"/><path class="cls-6" d="M145.57,76.72c-1.2-.68-2.47-1.43-3.75-2.18a8.73,8.73,0,0,0-1.12-.6c-.45-.22-.83-.52-1.28-.75a13,13,0,0,0-1.5-.82c-.37-.23-.75-.45-1-.6l.83-.45.6-.38.6-.37L141.37,72l2.48,1.43.3.15h.07c.08.07.23.15.3.22s.15.15.23.15V74c.07.07.07.15.15.15s.15.22.22.37.08.15.15.23a6.4,6.4,0,0,1,.23.67v.23a.49.49,0,0,0,.07.3v.75" transform="translate(-12.67 -10.19)"/><path class="cls-5" d="M143.47,77.92a6.31,6.31,0,0,1-2.77,4.87l-2.85-1.65-1.73-1-1.05-.6-.9-.52-4.87-2.85,5.55-3.23,1.12-.67,2.7,1.57,1.13.68,1,.6,1.8,1.05c.08.07.15.07.23.15l.07.07c.08.08.08.08.08.15s.07.08.07.15a5.47,5.47,0,0,1,.23.6v.23a.58.58,0,0,1,.22.45" transform="translate(-12.67 -10.19)"/><path class="cls-5" d="M140.7,82.79a3,3,0,0,1-1.28.38h-.37c-.08,0-.15-.08-.23-.08s-.07,0-.15-.07l-2.85-1.65-1.12-.68-1.73-1-1.87-1.12-1.5-.9c-.53-.3-1-.6-1.5-.9l1.12-.68,4.88,2.85.9.53,1.05.6,1.72,1Z" transform="translate(-12.67 -10.19)"/><path class="cls-7" d="M142.65,76.12h0a.76.76,0,0,0-.38-.15h-.37a2,2,0,0,0-.6.07c-.08,0-.23.08-.3.08a.63.63,0,0,1-.38.15l-1-.6-.75-.45-1.05-.6-3.08-1.8,1.13-.68,2.7,1.58,1.12.67,1,.6Z" transform="translate(-12.67 -10.19)"/><path class="cls-7" d="M140.62,76.34a3.34,3.34,0,0,0-.82.6l-.23.23a17.58,17.58,0,0,1-.45.6c-.07.07-.15.15-.15.22s-.15.23-.22.38-.15.22-.23.37l-.22.45a1,1,0,0,0-.15.53v.15c0,.15-.08.22-.08.37s-.07.23-.07.38v.9c0,.15.07.37.07.45s0,.15.08.15.07.15.15.22.07.15.15.23.07.07.15.15l.22.22L136,81.29l-1.12-.67-1.73-1.05-1.87-1.13-1.5-.9-1.5-.9,1.12-.67,5.55-3.23,3.08,1.8,1.05.6.75.45Z" transform="translate(-12.67 -10.19)"/><path class="cls-8" d="M140.62,76.34c1.58-.9,2.78-.15,2.85,1.58a6.31,6.31,0,0,1-2.77,4.87c-1.58.9-2.78.15-2.85-1.57a6.33,6.33,0,0,1,2.77-4.88" transform="translate(-12.67 -10.19)"/><path class="cls-5" d="M123.67,62.39Z" transform="translate(-12.67 -10.19)"/><path class="cls-5" d="M144.07,73.57c0-.08-.07-.08,0,0a.22.22,0,0,0-.15-.08.29.29,0,0,1-.15-.07h-.07c-.08,0-.15-.08-.23-.08h-1.12a.27.27,0,0,0-.23.08,1,1,0,0,0-.45.15h-.07c-.15.07-.23.07-.38.15l-.45.22-1.27-.75L137,71.69h0l.82-.45.6-.37.6-.38,2.48,1.43,2.47,1.42Z" transform="translate(-12.67 -10.19)"/><polygon class="cls-4" points="123.08 72.22 121.65 72.97 117.9 70.8 112.95 67.95 114.38 67.13 119.33 69.97 121.8 71.47 123.08 72.22"/><path class="cls-5" d="M137.17,85.57h0" transform="translate(-12.67 -10.19)"/><path class="cls-5" d="M140.62,73.94a3.34,3.34,0,0,0-.82.6c-.08,0-.08.08-.15.08l-.08.07a.07.07,0,0,0-.07.08c-.15.07-.23.22-.38.3a1.21,1.21,0,0,0-.3.3l-.3.3a1.39,1.39,0,0,0-.3.37,5.7,5.7,0,0,0-.75,1,4.5,4.5,0,0,0-.37.6,6.9,6.9,0,0,0-.53,1c0,.08-.07.15-.07.23a.24.24,0,0,1-.08.15,6.6,6.6,0,0,0-.3.82c0,.08-.07.23-.07.3v.08c0,.07-.08.15-.08.22v.08c-.07.22-.07.37-.15.6,0,.07-.07.15-.07.3s-.08.22-.08.37v1.58c0,.15.08.3.08.45s0,.15.07.15v.07c0,.08.08.15.08.23s0,.07.07.15a.51.51,0,0,1,.15.3,2,2,0,0,0,.83.75l-3.38-1.95-3.82-2.18-4.88-2.85.6-.37,1.43-.83,1-.52,1.13-.68L134.55,73l1.12-.68.9-.52,2.55,1.5Z" transform="translate(-12.67 -10.19)"/><path class="cls-1" d="M123.67,62.39Z" transform="translate(-12.67 -10.19)"/><polygon class="cls-1" points="145.65 54.75 145.05 55.05 143.7 55.8 143.63 55.8 143.1 56.1 141.68 56.92 140.7 57.45 140.7 57.45 139.5 58.13 137.4 59.33 135.45 60.45 133.88 61.35 132.82 61.95 132.68 62.02 132.68 62.02 130.95 63.08 130.88 63.08 130.35 63.38 129.75 63.75 128.93 64.2 127.95 64.72 126.83 65.4 124.72 66.6 122.78 67.72 121.28 68.63 120.08 69.3 119.1 69.83 117.67 70.65 117.08 70.95 110.03 75 105.15 72.15 110.03 69.3 112.2 68.03 112.8 67.65 114.22 66.83 115.2 66.3 116.33 65.63 121.88 62.4 123 61.73 123.9 61.2 123.9 61.2 124.72 60.75 125.33 60.38 125.92 60 127.65 58.95 127.65 58.95 128.85 58.27 134.4 55.05 135.53 54.38 136.43 53.85 136.5 53.85 137.85 53.1 137.93 53.1 138.53 52.73 139.88 51.98 140.48 51.67 142.43 52.8 143.33 53.33 143.55 53.4 143.7 53.48 143.85 53.55 144.23 53.78 144.3 53.78 145.65 54.75"/><path class="cls-10" d="M140.7,82.79a6.12,6.12,0,0,0,2.77-4.87c0-1.8-1.27-2.48-2.85-1.58a6.14,6.14,0,0,0-2.77,4.88C137.85,82.94,139.12,83.69,140.7,82.79Zm-.08-8.85c2.7-1.57,4.95-.3,4.95,2.78a10.76,10.76,0,0,1-4.87,8.47c-2.7,1.58-4.95.3-4.95-2.77A10.79,10.79,0,0,1,140.62,73.94Z" transform="translate(-12.67 -10.19)"/><path class="cls-11" d="M140.62,72.29c2-1.2,3.9-1.12,5,0A4.87,4.87,0,0,1,146.92,76l-1.42.82c0-3.15-2.25-4.35-4.95-2.77a10.89,10.89,0,0,0-4.88,8.47l-1.42.83a11.71,11.71,0,0,1,1.27-5.1,14.38,14.38,0,0,1,5.1-5.93" transform="translate(-12.67 -10.19)"/><polygon class="cls-4" points="110.25 79.65 101.55 74.55 105.3 72.38 110.25 75.22 110.25 79.65"/><path class="cls-4" d="M134.32,83.24l1.43-.82-12.83,7.42V85.42l12.68-7.35a13.41,13.41,0,0,0-1.28,5.17" transform="translate(-12.67 -10.19)"/><path class="cls-4" d="M102.75,100.87l-4.58-2.7-1.57-.9-2-1.2.68-.38,2,1.2h0l.9.53,4,2.4v.3a.57.57,0,0,0,.15.37,1,1,0,0,0,.38.38" transform="translate(-12.67 -10.19)"/><polygon class="cls-1" points="89.55 89.63 85.5 87.22 84.6 86.7 82.58 85.5 84.22 84.53 85.42 83.85 88.28 82.2 89.55 82.95 89.55 89.63"/><path class="cls-12" d="M122.92,89.84l-19,11a1.2,1.2,0,0,1-1.2.15.76.76,0,0,1-.38-.45c-.07-.15-.07-.22-.15-.37v-8.4l12-6.9L118,82.64l4.88-2.85v5.7Z" transform="translate(-12.67 -10.19)"/><path class="cls-10" d="M153.3,75.52a6.14,6.14,0,0,0,2.77-4.88c0-1.8-1.27-2.47-2.85-1.57a6.12,6.12,0,0,0-2.77,4.87C150.52,75.67,151.72,76.42,153.3,75.52Zm0-8.85c2.7-1.58,4.95-.3,4.95,2.77a10.8,10.8,0,0,1-4.88,8.48c-2.7,1.57-5,.3-5-2.78A10.48,10.48,0,0,1,153.3,66.67Z" transform="translate(-12.67 -10.19)"/><polygon class="cls-4" points="89.55 82.95 88.28 82.2 89.55 81.53 89.55 82.95"/><path class="cls-4" d="M91.8,106.64l.6.38a4.48,4.48,0,0,0-.6-.38m-3.6-2.1h0l.45.23ZM92.4,107h0c-.23-.15-.38-.23-.6-.38s-.53-.3-.75-.45c-.45-.3-.9-.52-1.43-.82-.22-.15-.52-.3-.75-.45H88.8c-.08,0-.15-.08-.23-.15l-.45-.23h0l-.22-.15-.23-.15-.07-.07-1-.6a.07.07,0,0,1-.07-.08l-.15-.07h-.08c-.07-.08-.15-.08-.22-.15h0c-.3-.23-.68-.38-1-.6s-.67-.38-1.05-.6H84l-.08.07,2,1.2h0l.37.23,1.28.75,4.05,2.32,1,.6v-.15C92.55,107.09,92.47,107,92.4,107Z" transform="translate(-12.67 -10.19)"/><path class="cls-11" d="M153.3,65c2-1.2,3.9-1.13,5-.08a4.84,4.84,0,0,1,1.28,3.68l-1.43.82c0-3.15-2.25-4.35-4.95-2.77a10.88,10.88,0,0,0-4.87,8.47l-1.43.83a12.19,12.19,0,0,1,1.28-5.18A13.72,13.72,0,0,1,153.3,65" transform="translate(-12.67 -10.19)"/><path class="cls-4" d="M94.05,106.34l-1.43.83c-.07-.08-.15-.08-.22-.15a2.62,2.62,0,0,1-.6-.38c-.23-.15-.53-.3-.75-.45-.45-.3-.9-.52-1.43-.82-.22-.15-.52-.3-.75-.45H88.8c-.08,0-.15-.08-.23-.15l-.45-.23h0l-.22-.15-.23-.15-.07-.07-1-.6a.07.07,0,0,1-.07-.08l-.15-.07h-.08c-.07-.08-.15-.08-.22-.15h0c-.3-.23-.68-.38-1-.6s-.67-.38-1.05-.6l-.22-.15c.07,0,.15.07.22.15l1.35-.75h.08c.67.37,1.35.82,2,1.2h0c.08.07.15.07.23.15l.22.15a3.93,3.93,0,0,1,.6.37c.3.15.53.3.83.45,1,.53,1.87,1.13,2.85,1.65.67.38,1.2.68,1.8,1" transform="translate(-12.67 -10.19)"/><polygon class="cls-13" points="89.55 82.95 85.5 85.28 85.42 83.85 88.28 82.2 89.55 81.53 89.55 82.95"/><polygon class="cls-13" points="85.5 85.28 84.22 84.53 85.42 83.85 85.5 85.28"/><path class="cls-5" d="M87.75,113.17a2.24,2.24,0,0,1-1.28.37.7.7,0,0,1-.37-.07.27.27,0,0,1-.23-.08H85.8c-.08,0-.08-.07-.15-.07l-2.85-1.65L81.67,111l-1.35-.75-1.87-1.12-1.2-.75-2-1.2.23-.15,1-.53,2,1.2,3.67,2.1,1,.6,1.8,1Z" transform="translate(-12.67 -10.19)"/><polygon class="cls-5" points="54.3 84.45 54.3 84.9 54.3 83.1 54.3 84.45"/><path class="cls-5" d="M67,100.57v0Z" transform="translate(-12.67 -10.19)"/><path class="cls-5" d="M90.52,108.37a6.31,6.31,0,0,1-2.77,4.87l-2.85-1.65-1.8-1-1-.6-3.68-2.1-2-1.2,4.87-2.77.75-.45,1.2-.68.15.08,1.88,1.12.52.3,1.13.68,2.85,1.65a1.84,1.84,0,0,1,.52.52c0,.08.08.15.08.23s.07.15.07.22a.9.9,0,0,1,.08.45.62.62,0,0,1,.07.38" transform="translate(-12.67 -10.19)"/><path class="cls-4" d="M94.05,106.34c-.6-.3-1.13-.67-1.73-1-.9-.53-1.87-1.05-2.85-1.65-.3-.15-.52-.3-.82-.45a3.92,3.92,0,0,1-.6-.38c-.08-.07-.15-.07-.23-.15h0c-.07,0-.15-.07-.22-.15h0c-.68-.37-1.35-.75-2-1.2l.6-.37,2-1.13.9.53,1.13.67,1.95,1.13.15.07c.15.08.22.15.37.23l.23.22.22.23c.08.07.08.15.15.22s.15.23.23.3.07.15.15.23a4.75,4.75,0,0,1,.37,1.12c0,.08.08.23.08.3v.08c0,.15.07.37.07.52a1.57,1.57,0,0,0-.07.6" transform="translate(-12.67 -10.19)"/><path class="cls-6" d="M92.4,107h0c-.23-.15-.38-.23-.6-.38s-.53-.3-.75-.45c-.45-.3-.9-.52-1.43-.82-.22-.15-.52-.3-.75-.45H88.8c-.08,0-.15-.08-.23-.15l-.45-.23c-.07-.07-.15-.07-.22-.15s-.15-.07-.23-.15c-.37-.22-.75-.37-1.12-.6,0,0-.08,0-.08-.07s-.07-.08-.15-.08h-.07c-.08-.07-.15-.07-.23-.15h0c-.3-.22-.67-.37-1-.6s-.68-.37-1-.6l1.35-.75h.07L86,101l2,1.2.22.15,2.78,1.57h.07a2.68,2.68,0,0,1,1,1.35c.08.15.08.23.15.38a.9.9,0,0,1,.08.45.7.7,0,0,0,.07.37v.6c.08,0,0-.07-.07-.07" transform="translate(-12.67 -10.19)"/><polygon class="cls-7" points="54.3 84.45 54.3 84.45 54.3 83.1 54.3 84.45"/><path class="cls-7" d="M89.7,106.57a.08.08,0,0,1-.08-.08h-.07c-.08,0-.08,0-.15-.07H89a3.11,3.11,0,0,0-1.27.37L86,105.74l-1-.6-.9-.52-.75-.45L82,103.42l1.2-.68.15.08,1.88,1.12.52.3,1.13.68Z" transform="translate(-12.67 -10.19)"/><path class="cls-7" d="M67,94.64v0Z" transform="translate(-12.67 -10.19)"/><path class="cls-7" d="M67,100.57v0Z" transform="translate(-12.67 -10.19)"/><path class="cls-7" d="M87.75,106.72a5.3,5.3,0,0,0-2,2.1l-.23.45c0,.07-.07.15-.07.22s-.08.15-.08.23a1.46,1.46,0,0,0-.15.52c0,.08,0,.15-.07.15a.27.27,0,0,1-.08.23c0,.07-.07.22-.07.3a.62.62,0,0,1-.08.37v.9c0,.08,0,.15.08.15a.76.76,0,0,0,.15.38c0,.07.07.15.15.22a.15.15,0,0,0,.15.15l.3.3L83,111.74l-1.13-.67-1.35-.75-1.87-1.13-1.2-.75-2-1.2.23-.15,1-.52,4.88-2.78.75-.45,1.35.75.75.45.9.53,1,.6Z" transform="translate(-12.67 -10.19)"/><path class="cls-8" d="M87.75,106.72c1.57-.9,2.77-.15,2.85,1.57a6.34,6.34,0,0,1-2.78,4.88c-1.57.9-2.77.15-2.85-1.58a5.93,5.93,0,0,1,2.78-4.87" transform="translate(-12.67 -10.19)"/><path class="cls-4" d="M82.8,112.79l-1.43.83c-.45-.3-1-.53-1.42-.83l-.3-.15c-.9-.52-1.88-1-2.78-1.65-.6-.3-1.12-.67-1.72-1-.08-.08-.15-.08-.23-.15a1.42,1.42,0,0,0-.6-.3,3.34,3.34,0,0,0-.6-.3.51.51,0,0,0-.3-.15c-.07,0-.07-.08-.15-.08a1.47,1.47,0,0,1-.45-.3l.6-.37.83-.45,2,1.2.45.22,4.43,2.55.37.23Z" transform="translate(-12.67 -10.19)"/><path class="cls-4" d="M81.45,113.62l-.6.37-.83.45c-1.57-.9-3.15-1.87-4.87-2.85-.45-.22-.83-.52-1.28-.75a.29.29,0,0,1-.15-.07.28.28,0,0,1-.15-.08h0c-.37-.22-.82-.45-1.27-.75-.3-.15-.53-.3-.83-.45h0a3.93,3.93,0,0,0-.6-.37,2.59,2.59,0,0,0,.6.3l.83-.45.52-.3h.08c.15.07.3.22.45.3s.07.07.15.07a.51.51,0,0,0,.3.15,19668661934096.72,19668661934096.72,0,0,1,1.2.6h0c.07.08.15.08.22.15.6.38,1.2.68,1.73,1,1,.52,1.87,1.12,2.77,1.65h0l.3.15c.45.3.9.6,1.43.9" transform="translate(-12.67 -10.19)"/><polygon class="cls-5" points="54.3 82.05 54.3 82.95 54.23 82.05 54.3 82.05"/><polygon class="cls-5" points="54.3 84.45 54.3 84.9 54.3 83.1 54.3 84.45"/><path class="cls-5" d="M67,100.57v0Z" transform="translate(-12.67 -10.19)"/><path class="cls-5" d="M87.75,104.32l-.08.07a4.72,4.72,0,0,0-.75.53c-.07,0-.07.07-.15.15s-.22.15-.3.22l-.22.23-.23.22-.22.23a2.76,2.76,0,0,0-.6.75c-.08.07-.15.15-.15.22s-.23.38-.38.53a3.93,3.93,0,0,0-.37.6c-.15.22-.23.45-.38.67a2.4,2.4,0,0,0-.3.75,4.91,4.91,0,0,1-.22.6c-.08.15-.08.3-.15.45s-.08.23-.08.3a.3.3,0,0,1-.07.23c0,.15-.08.22-.08.37a.46.46,0,0,1-.07.3.55.55,0,0,1-.08.38v.82a4.08,4.08,0,0,0,.23,1.43c.07.15.07.22.15.37s.07.23.15.3.07.15.15.23.07.07.15.15a.74.74,0,0,0,.37.3s.08,0,.08.07L81.07,114l-.15-.07-.9-.53-3.9-2.25-1.5-.82-.22-.15-2-1.2.53-.3H73l.6-.38.83-.45,1-.52.23-.15,1-.53,4.88-2.77.75-.45,1.2-.68.15-.07.67-.38.08-.07,2,1.2h0l.38.22Z" transform="translate(-12.67 -10.19)"/><path class="cls-4" d="M61.57,103.72h0c-.22-.08-.37-.23-.6-.3a2,2,0,0,1,.6.3" transform="translate(-12.67 -10.19)"/><path class="cls-4" d="M80,114.44v.15c-.3-.15-.6-.37-.9-.52-1.35-.75-2.7-1.58-4.12-2.4-.38-.23-.83-.45-1.28-.75-.15-.08-.22-.15-.37-.23h0a8.83,8.83,0,0,0-1.13-.6c-.3-.15-.6-.37-1-.52l.07-.08h.08a4.5,4.5,0,0,0-.6-.37,2.25,2.25,0,0,0,.6.3c.3.15.52.3.82.45a10.64,10.64,0,0,1,1.28.75c.07,0,.07.07.15.07s.07.08.15.08c.45.22.82.52,1.27.75q2.59,1.58,5,2.92" transform="translate(-12.67 -10.19)"/><path class="cls-5" d="M53,103.42H53c0-.08.07-.08.07,0h0" transform="translate(-12.67 -10.19)"/><path class="cls-5" d="M77.92,115.64a6.33,6.33,0,0,1-2.77,4.88l-2.85-1.65-.08-.08c-.52-.3-1.12-.67-1.65-1-.37-.23-.67-.38-1-.6-.15-.08-.22-.15-.37-.23-1.13-.6-2.18-1.27-3.3-1.87h0l-1.58-.9a14,14,0,0,1-1.35-.83c-.45-.3-.9-.52-1.35-.82v-3.75L67.05,112l.37-.23,2-1.12h.08l2,1.12a5.28,5.28,0,0,1,.9.53c.38.22.75.45,1,.6.6.37,1.2.67,1.8,1a24,24,0,0,0,2.7,1.72" transform="translate(-12.67 -10.19)"/><polygon class="cls-6" points="54.3 81.97 54.3 82.95 54.23 82.05 54.23 81.97 54.3 81.97"/><polygon class="cls-6" points="54.3 84.45 54.3 84.9 54.3 83.1 54.3 84.45"/><path class="cls-6" d="M67,100.57v0Z" transform="translate(-12.67 -10.19)"/><path class="cls-6" d="M87.67,102.67a6.69,6.69,0,0,0-1.2.82l-.07.08c-.15.15-.38.3-.53.45l-.07.07a9.71,9.71,0,0,0-.83.9c-.15.15-.3.38-.45.53s-.37.45-.52.67a13.06,13.06,0,0,0-1,1.73l-.23.45-.22.45v.07l-.23.45a1.14,1.14,0,0,0-.15.45,1.51,1.51,0,0,0-.15.6,2,2,0,0,0-.15.6c-.07.15-.07.3-.15.53s-.07.3-.07.45a9.41,9.41,0,0,0-.15,1.5v.07c-.45-.3-1-.52-1.43-.82l-.3-.15h0c-.9-.53-1.87-1-2.77-1.65-.6-.3-1.13-.68-1.73-1-.07-.07-.15-.07-.22-.15h0a1.61,1.61,0,0,0-.6-.3,6.67,6.67,0,0,0-.6-.3.65.65,0,0,0-.3-.15c-.08,0-.08-.07-.15-.07a1.68,1.68,0,0,1-.45-.3l.6-.38.82-.45,1-.52.22-.15,1-.53,4.87-2.77.75-.45,1.2-.68.15-.07.68-.38.07-.07h.08l-.23-.15c.08,0,.15.07.23.15l1.35-.75,2,1.2Z" transform="translate(-12.67 -10.19)"/><path class="cls-4" d="M81.45,113.54h0c-.45-.22-1-.52-1.43-.75a.57.57,0,0,0-.3-.15h0c-.9-.52-1.87-1-2.77-1.65-.6-.3-1.13-.67-1.73-1-.07-.08-.15-.08-.22-.15h0a1.48,1.48,0,0,0-.6-.3,3.72,3.72,0,0,0-.6-.3.57.57,0,0,0-.3-.15c-.08,0-.08-.08-.15-.08a1.47,1.47,0,0,1-.45-.3l.6-.37.82-.45,1-.53.22-.15,2,1.2,1.87,1c.08,0,.15.08.23.15s.15.08.22.15a.16.16,0,0,1,.15.15,1,1,0,0,1,.38.38l.07.07a3.5,3.5,0,0,1,.53.9c0,.08.07.23.07.3a.44.44,0,0,1,.08.3h0c0,.08.07.15.07.3s.08.3.08.45v.6a.42.42,0,0,1,.15.3" transform="translate(-12.67 -10.19)"/><path class="cls-5" d="M77.92,115.64c-.9-.52-1.87-1-2.77-1.65-.6-.37-1.2-.67-1.8-1-.38-.22-.75-.45-1-.6a6,6,0,0,1-.9-.52l-2-1.13,1.13-.6h0l1.8,1,.3.15.52.3,1.13.68L77,113.84h.08c.07,0,.07.08.15.08l.22.22a.38.38,0,0,1,.15.3c0,.15.08.23.15.38s.08.22.08.3v.15a.7.7,0,0,1,.07.37" transform="translate(-12.67 -10.19)"/><path class="cls-5" d="M75.07,120.52a2.23,2.23,0,0,1-1.27.37h-.23a.28.28,0,0,1-.22-.07H73.2a.22.22,0,0,1-.15-.08s-.08,0-.08-.07L70.12,119,69,118.34h0l-.45-.3-3.15-1.87a4.8,4.8,0,0,1-.83-.53c-1-.6-2.1-1.2-3.15-1.87v-1.35c.45.3.9.52,1.35.82s.9.53,1.35.83l1.58.9h0c1.12.6,2.17,1.27,3.3,1.87.15.08.22.15.37.23.38.22.68.37,1,.6.53.3,1.13.67,1.65,1l.08.08Z" transform="translate(-12.67 -10.19)"/><path class="cls-6" d="M61.57,103.72h0c-.22-.08-.37-.23-.6-.3a2,2,0,0,1,.6.3" transform="translate(-12.67 -10.19)"/><path class="cls-6" d="M80,114.44c-1.57-.9-3.15-1.87-4.87-2.85-.45-.22-.83-.52-1.28-.75-.07,0-.07-.07-.15-.07a.28.28,0,0,1-.15-.08h0c-.37-.22-.82-.45-1.27-.75-.3-.15-.53-.3-.83-.45h0a3.93,3.93,0,0,0-.6-.37,2.59,2.59,0,0,0,.6.3l.83-.45.52-.3h.08l.6-.38,2,1.2.23.15,2.77,1.58h.08a1.83,1.83,0,0,1,.45.37l.07.08.23.22.08.08a.57.57,0,0,1,.15.3c.07.07.07.15.15.22.07.23.14.53.22.83v.6a1.52,1.52,0,0,1,.07.52" transform="translate(-12.67 -10.19)"/><path class="cls-7" d="M77,113.77h0a.28.28,0,0,1-.15-.08H76.5a2,2,0,0,0-.68.08.57.57,0,0,0-.3.15.07.07,0,0,0-.07.07c-.08,0-.15.08-.23.15l-1.8-1-1-.6-.9-.52-2-1.13h0l1.13-.6,1.8,1.05.3.15.52.3,1.13.68Z" transform="translate(-12.67 -10.19)"/><path class="cls-7" d="M53,103.42H53c0-.08.07-.08.07,0h0" transform="translate(-12.67 -10.19)"/><path class="cls-7" d="M72.3,118.87h0v.37a.46.46,0,0,0,.07.3.27.27,0,0,0,.08.23c0,.07.07.15.07.22s.08.15.15.23l.23.22a.24.24,0,0,0,.15.08c.07,0,.07.07.15.07l-2.85-1.65-1.13-.67h0l-.45-.3-3.15-1.88-.82-.52-3.15-1.88v-5.1l5.47,3.15.38-.22,2-1.13h.07l2,1.13.9.52,1,.6,1.8,1a7.12,7.12,0,0,0-2.92,5.18" transform="translate(-12.67 -10.19)"/><polygon class="cls-4" points="46.2 104.47 46.2 104.92 45.83 104.7 46.2 104.47"/><polygon class="cls-4" points="57.52 109.88 56.1 110.7 49.58 106.95 48.75 106.42 48.75 104.85 51 106.13 56.25 109.13 57.52 109.88"/><path class="cls-5" d="M53,103.42H53c0-.08.07-.08.07,0h0" transform="translate(-12.67 -10.19)"/><path class="cls-5" d="M45.45,107.39Z" transform="translate(-12.67 -10.19)"/><polygon class="cls-5" points="46.2 104.47 46.2 105.15 45.75 105.38 45.23 105.08 45.83 104.7 46.2 104.47"/><path class="cls-5" d="M75.07,111.59a.24.24,0,0,1-.15.08l-.07.07a2.5,2.5,0,0,0-.53.38l-.07.07c-.15.15-.38.3-.53.45l-.15.15-.07.08a.24.24,0,0,0-.08.15l-.37.37c-.23.23-.38.45-.6.68-.08.07-.15.15-.15.22s-.23.3-.3.45a1.78,1.78,0,0,0-.3.53c-.08.15-.15.22-.23.37v.08a.57.57,0,0,0-.15.37,10.69,10.69,0,0,0-.52,1.35c-.08.15-.08.3-.15.45s-.08.23-.08.3-.07.15-.07.23-.08.22-.08.37a.46.46,0,0,1-.07.3c0,.15-.08.3-.08.45v1.58a1.14,1.14,0,0,0,.15.45.26.26,0,0,0,.08.22c.07.15.07.23.15.38a.29.29,0,0,0,.07.15c0,.07.08.07.08.15s.15.15.15.22l.07.08.23.22.15.15-3.15-1.8-6.68-3.9-.22-.15v-8.55l5.47,3.15.38-.22,2-1.13h.07l1.13-.6h0l.82-.45.08-.07.82.52,1.2.68.38.22Z" transform="translate(-12.67 -10.19)"/><path class="cls-5" d="M51.82,96.44h0" transform="translate(-12.67 -10.19)"/><path class="cls-5" d="M61.57,103.72h0c-.22-.08-.37-.23-.6-.3a2,2,0,0,1,.6.3" transform="translate(-12.67 -10.19)"/><path class="cls-5" d="M78.52,111.22h0c-.07,0-.07-.08-.15-.08s-.15-.07-.22-.07-.15-.08-.3-.08h-1a1.7,1.7,0,0,0-.82.23,2.38,2.38,0,0,0-.9.45h-.08l-1.27-.75-.38-.23-1.2-.67-.82-.53h.07a3.93,3.93,0,0,0-.6-.37,2.59,2.59,0,0,0,.6.3l.83-.45.52-.3h.08l.6-.38,2,1.2.23.15Z" transform="translate(-12.67 -10.19)"/><path class="cls-6" d="M61.57,103.72h0c-.22-.08-.37-.23-.6-.3a2,2,0,0,1,.6.3" transform="translate(-12.67 -10.19)"/><path class="cls-6" d="M53,103.42H53c0-.08.07-.08.07,0h0" transform="translate(-12.67 -10.19)"/><polygon class="cls-6" points="46.2 104.47 46.2 104.92 45.83 104.7 46.2 104.47"/><path class="cls-6" d="M75.07,110c-.15.07-.37.22-.52.3a7,7,0,0,1-.75.52l-.08.08a2.28,2.28,0,0,0-.6.6,1.21,1.21,0,0,0-.3.3l-.15.15c-.07.15-.22.22-.37.37a14.38,14.38,0,0,0-1,1.2c-.07.15-.22.3-.3.45a12.35,12.35,0,0,0-.75,1.2l-.22.45-.23.45a3.55,3.55,0,0,0-.22.53,1,1,0,0,0-.15.52l-.23.68c-.07.15-.07.37-.15.52h0a1.81,1.81,0,0,1-.15.53c0,.15-.07.3-.07.52A10.56,10.56,0,0,0,68.7,121l-6.53-3.75-.82-.53v-7.87L66.82,112l.38-.23,2-1.12h.07l1.13-.6h0l.82-.45.08-.08h.07a3.93,3.93,0,0,0-.6-.37,2.59,2.59,0,0,0,.6.3l.83-.45.52-.3,2,1.2Z" transform="translate(-12.67 -10.19)"/><path class="cls-5" d="M91.12,103.94h0a1.48,1.48,0,0,0-.37-.15c-.08,0-.15-.07-.3-.07a.27.27,0,0,1-.23-.08h-1a.26.26,0,0,0-.22.08.57.57,0,0,0-.38.15c-.07,0-.15.07-.22.07s-.15.08-.23.08l-.45.22H87.6l-1.28-.75a11.66,11.66,0,0,1,1.2-.82l-.22-.15h0l-2-1.2h.08l.6-.38,2,1.2.23.15Z" transform="translate(-12.67 -10.19)"/><polygon class="cls-6" points="54.23 79.5 54.23 79.5 54.23 78.08 54.23 79.5"/><path class="cls-6" d="M69,91Z" transform="translate(-12.67 -10.19)"/><path class="cls-6" d="M92.1,102.22c-.08,0-.08-.08-.15-.08s-.23-.07-.38-.15a.29.29,0,0,1-.15-.07h-.07a.42.42,0,0,1-.3-.08H89.77a1.46,1.46,0,0,0-.52.15c-.08,0-.15.08-.3.08s-.15.07-.3.07-.15.08-.3.15-.23.08-.3.15-.23.08-.3.15h-.08l-.22-.15-2-1.2h.08l.6-.37,2-1.13.9.53,1.12.67Z" transform="translate(-12.67 -10.19)"/><path class="cls-10" d="M87.75,113.17a6.14,6.14,0,0,0,2.77-4.88c0-1.8-1.27-2.47-2.85-1.57a6.12,6.12,0,0,0-2.77,4.87C84.9,113.39,86.17,114.07,87.75,113.17Zm0-8.85c2.7-1.58,5-.3,5,2.77v.15a11.06,11.06,0,0,1-4.88,8.33c-2.62,1.5-4.8.37-4.95-2.63v-.15A10.5,10.5,0,0,1,87.75,104.32Z" transform="translate(-12.67 -10.19)"/><path class="cls-11" d="M87.67,102.67c3.45-2,6.3-.38,6.3,3.6l-1.42.82c0-3.07-2.25-4.35-5-2.77a10.89,10.89,0,0,0-4.88,8.47l-1.42.83a14.31,14.31,0,0,1,6.37-11" transform="translate(-12.67 -10.19)"/><polygon class="cls-13" points="54.3 81.97 54.3 82.95 54.23 82.05 54.23 81.97 54.3 81.97"/><polygon class="cls-13" points="54.23 79.5 54.23 79.5 54.23 78.08 54.23 79.5"/><path class="cls-13" d="M69,91Z" transform="translate(-12.67 -10.19)"/><path class="cls-13" d="M84.07,102.14h0l-.22-.15c.07.08.15.15.22.15" transform="translate(-12.67 -10.19)"/><path class="cls-6" d="M51.82,96.44h0" transform="translate(-12.67 -10.19)"/><path class="cls-6" d="M79.35,109.42c-.08-.08-.15-.08-.3-.15s-.23-.08-.3-.08-.15-.07-.3-.07a2.33,2.33,0,0,0-1,0,.74.74,0,0,0-.38.07.44.44,0,0,0-.3.08,4.82,4.82,0,0,0-1,.37,5.55,5.55,0,0,0-.6.3h-.08l-.22-.15-2-1.2h.08l.6-.37.82-.45,1-.53.22-.15,2,1.2,1.8,1.13" transform="translate(-12.67 -10.19)"/><polygon class="cls-4" points="68.78 103.42 70.13 102.6 70.13 102.75 68.33 103.88 67.35 104.4 67.35 104.25 68.17 103.72 68.78 103.42"/><path class="cls-4" d="M98.17,102.89a2.27,2.27,0,0,1-1,1.8l-4.5,2.63v-.15l1.43-.83v-1.57c0-.15-.08-.3-.08-.45a.51.51,0,0,0-.15-.3c-.07-.15-.07-.23-.15-.38s-.07-.15-.15-.22-.07-.08-.07-.15-.08-.08-.08-.15-.07-.15-.15-.23l-.22-.22-.23-.23c-.07,0-.07-.07-.15-.07s-.07-.08-.15-.08H92.4c-.08-.07-.15-.07-.23-.15s-.22-.07-.37-.15-.15,0-.15-.07H89.92a1.28,1.28,0,0,0-.52.15c-.08,0-.15.07-.3.07s-.15.08-.3.08h-.15c-.08,0-.08,0-.15.07s-.23.08-.3.15-.23.08-.3.15h-.08c-.07.08-.22.15-.3.23s-.22.15-.3.22-.37.23-.52.38h-.08l-.07.07c-.15.15-.38.3-.53.45L86,104a9.71,9.71,0,0,0-.83.9c-.15.15-.3.37-.45.52s-.37.45-.52.68a12.33,12.33,0,0,0-1.05,1.72l-.23.45-.22.45v.08l-.23.45a1.14,1.14,0,0,0-.15.45,46240706294715.29,46240706294715.29,0,0,1-.3,1.2c-.07.15-.07.3-.15.52s-.07.3-.07.45a9.65,9.65,0,0,0-.15,1.5V112c0-.08-.08-.23-.08-.3s-.07-.23-.07-.3-.08-.23-.08-.3a2.57,2.57,0,0,0-.52-.9l-.08-.08c-.15-.15-.22-.3-.37-.37l-.08-.08-.07-.07c-.08-.08-.15-.08-.23-.15s-.15-.08-.22-.15-.15-.08-.23-.08h-.15c-.07,0-.07,0-.15-.07h-.22a3,3,0,0,0-1.2,0h-.23a.49.49,0,0,0-.3.07c-.15.08-.3.08-.45.15s-.3.08-.37.15-.08,0-.15.08a.51.51,0,0,0-.3.15H75.9c-.08,0-.08.07-.15.07H75.6c-.15.08-.38.23-.53.3a6.08,6.08,0,0,1-.75.53l-.07.07a2.28,2.28,0,0,0-.6.6c-.08.08-.23.15-.3.3l-.15.15c-.08.15-.23.23-.38.38a13.08,13.08,0,0,0-1,1.2c-.08.15-.23.3-.3.45a9.14,9.14,0,0,0-.75,1.2l-.23.45-.22.45a3.78,3.78,0,0,0-.23.52,1.14,1.14,0,0,0-.15.53l-.22.67c-.08.15-.08.38-.15.53h0a2,2,0,0,1-.15.52c0,.15-.08.3-.08.53a11.91,11.91,0,0,0-.15,1.57l1.43-.82v.15l-1.88,1.05-6.52,3.75-2,1.12v-7.72l1.57-.9.23-.15.6-.38,1.42-.82,1-.53,1.12-.67h0l3.6-2.1,2-1.13.83-.52.3-.15.82-.45h0l.08-.08h.07l.83-.45.52-.3h.08l.6-.37.82-.45,1-.53.22-.15,1-.52,4.87-2.78.75-.37,1.2-.68.83-.45h0l.07-.07,1.35-.75h0l.08-.08h0l.6-.37.9-.53,1.12-.67,6.45-3.75.68-.38h0l.9-.52V98Z" transform="translate(-12.67 -10.19)"/><polygon class="cls-14" points="76.35 91.5 75.45 92.03 74.85 92.33 74.85 92.4 74.78 92.4 73.5 93.15 73.42 93.15 73.35 93.22 73.28 93.22 72.53 93.67 71.33 94.35 70.58 94.8 70.58 93.97 70.58 92.63 70.58 92.4 71.25 92.03 71.4 91.95 72.75 91.2 72.83 91.13 73.42 90.83 75.38 89.7 76.35 89.1 76.35 90.22 76.35 91.5"/><path class="cls-10" d="M75.07,120.52a6.12,6.12,0,0,0,2.78-4.88c0-1.8-1.28-2.47-2.85-1.57a6.11,6.11,0,0,0-2.78,4.87C72.3,120.67,73.57,121.34,75.07,120.52Zm0-8.93c2.7-1.57,5-.3,5,2.78v.15a11,11,0,0,1-4.87,8.32c-2.63,1.5-4.8.38-5-2.62v-.15A10.9,10.9,0,0,1,75.07,111.59Z" transform="translate(-12.67 -10.19)"/><polygon class="cls-3" points="54.3 84.45 54.3 84.9 54.3 83.1 54.3 84.45"/><polygon class="cls-3" points="70.58 93.97 70.58 94.8 68.55 93.6 69.3 93.22 70.42 92.55 70.58 92.4 70.58 92.63 70.58 93.97"/><path class="cls-8" d="M75.07,114.07c1.58-.9,2.85-.15,2.85,1.57a6.33,6.33,0,0,1-2.77,4.88c-1.58.9-2.78.15-2.85-1.58a6.08,6.08,0,0,1,2.77-4.87" transform="translate(-12.67 -10.19)"/><path class="cls-11" d="M75.07,110c3.53-2,6.3-.38,6.38,3.6l-1.43.82c0-3.07-2.25-4.35-5-2.77a10.88,10.88,0,0,0-4.87,8.47l-1.43.83a13.85,13.85,0,0,1,6.3-11" transform="translate(-12.67 -10.19)"/><path class="cls-13" d="M61.57,103.72h0c-.22-.08-.37-.23-.6-.3a2,2,0,0,1,.6.3" transform="translate(-12.67 -10.19)"/><path class="cls-13" d="M71.47,109.42h0c-.22-.08-.37-.23-.6-.3.23.07.38.22.6.3" transform="translate(-12.67 -10.19)"/><path class="cls-3" d="M53,103.42H53c0-.08.07-.08.07,0h0" transform="translate(-12.67 -10.19)"/><polygon class="cls-3" points="56.7 102.83 54.67 101.63 56.63 100.5 56.7 100.5 56.7 100.42 56.7 100.5 56.7 102.83"/><polygon class="cls-14" points="59.63 100.8 59.63 101.17 58.73 101.63 58.73 101.7 56.7 102.83 56.7 100.5 56.7 100.42 57.83 99.83 58.65 99.38 58.73 99.3 58.8 99.22 59.55 98.78 59.55 99.9 59.63 100.8"/><polygon class="cls-4" points="54.3 81.97 54.3 82.95 54.23 82.05 54.23 81.97 54.3 81.97"/><polygon class="cls-4" points="54.23 79.5 54.23 79.5 54.23 78.08 54.23 79.5"/><path class="cls-4" d="M69,91Z" transform="translate(-12.67 -10.19)"/><polygon class="cls-4" points="54.3 84.45 54.3 84.9 54.3 83.1 54.3 84.45"/><path class="cls-4" d="M67,100.57v0Z" transform="translate(-12.67 -10.19)"/><path class="cls-4" d="M123.67,62.39Z" transform="translate(-12.67 -10.19)"/><polygon class="cls-15" points="54.3 81.97 54.3 82.95 54.23 82.05 54.23 81.97 54.3 81.97"/><polygon class="cls-15" points="54.23 79.5 54.23 79.5 54.23 78.08 54.23 79.5"/><polygon class="cls-15" points="54.3 84.45 54.3 84.9 54.3 83.1 54.3 84.45"/><path class="cls-15" d="M69,91Z" transform="translate(-12.67 -10.19)"/><path class="cls-15" d="M123.67,62.39Z" transform="translate(-12.67 -10.19)"/><polygon class="cls-4" points="54.3 81.97 54.3 82.95 54.23 82.05 54.23 81.97 54.3 81.97"/><polygon class="cls-4" points="54.3 84.45 54.3 84.9 54.3 83.1 54.3 84.45"/><polygon class="cls-4" points="54.23 79.5 54.23 79.5 54.23 78.08 54.23 79.5"/><path class="cls-4" d="M69,91Z" transform="translate(-12.67 -10.19)"/><path class="cls-4" d="M123.67,62.39Z" transform="translate(-12.67 -10.19)"/><polygon class="cls-15" points="54.23 79.5 54.23 79.5 54.23 78.08 54.23 79.5"/><polygon class="cls-4" points="54.23 79.5 54.23 79.5 54.23 78.08 54.23 79.5"/><path class="cls-16" d="M123.67,62.39ZM69,91Zm95.32-46.72V24.74l-5,2.93-2.55,1.42-2.18,1.28L152,31.79l-2.17,1.28-2.55,1.42L66.82,81v8.85h0v5.4h0v16.88l.38-.23,2-1.12h.07l1.13-.6h0l.82-.45.08-.08h.07a3.93,3.93,0,0,0-.6-.37,2.59,2.59,0,0,0,.6.3l.83-.45.52-.3h.08l.6-.38.82-.45,1-.52.22-.15,1-.53L81.22,104l.75-.45,1.2-.68.15-.07.68-.38.07-.07h.08l-.23-.15c.08,0,.15.07.23.15l1.35-.75h.07l.61-.38,1.94-1.12.9-.53,5.55-3.22.68-.38L97,95l1.2-.68L101,92.69l1.2-.67,12-6.9L118,82.94l4.88-2.85L125,78.82l.6-.38,1.43-.82,1-.53,1.13-.67,5.55-3.23,1.12-.67.9-.53h0l.83-.45.6-.37.6-.38,1.72-1.05,1.2-.67,5.55-3.23,1.13-.67.9-.53h.07l1.35-.75h.08l.6-.37,1.35-.75.6-.3h.08l.9-.53,2.25-1.27,1.65-.9,1.27-.75,2-1.13L163,57l1.27-.75Z" transform="translate(-12.67 -10.19)"/><polygon class="cls-16" points="54.23 79.5 54.23 79.5 54.23 78.08 54.23 79.5"/><polygon class="cls-16" points="54.3 81.97 54.3 82.95 54.23 82.05 54.23 81.97 54.3 81.97"/><polygon class="cls-16" points="54.3 84.45 54.3 84.9 54.3 83.1 54.3 84.45"/><path class="cls-16" d="M67,100.57v0Z" transform="translate(-12.67 -10.19)"/><path class="cls-16" d="M71.47,109.42h0c-.22-.08-.37-.23-.6-.3.23.07.38.22.6.3" transform="translate(-12.67 -10.19)"/><path class="cls-16" d="M84.07,102.14h0l-.22-.15c.07.08.15.15.22.15" transform="translate(-12.67 -10.19)"/><path class="cls-15" d="M67,100.57v0Z" transform="translate(-12.67 -10.19)"/><path class="cls-5" d="M40.2,122.54l-.53,4.13-1.42,3.75c0,.07-.08.22-.08.3-.07.37-.15,1-.22,1.57,0,.15-.08.3-.08.45A8.29,8.29,0,0,0,37.8,134l-.23-.15-5.47-3.23L27.6,128l-6-3.53-1.13-.67a5.17,5.17,0,0,1-.67-.6,2.88,2.88,0,0,1-.6-1.28,2.76,2.76,0,0,1-.08-.37c0-.15-.07-.3-.07-.45v-.75a11,11,0,0,1,4.2-7.73Z" transform="translate(-12.67 -10.19)"/><path class="cls-5" d="M45.22,138.29h0l-3.15-1.8L44,135.44v.6a.46.46,0,0,0,.07.3.27.27,0,0,0,.08.23,1,1,0,0,0,.15.45.57.57,0,0,0,.15.3v.07c.07.08.07.15.15.23s.07.07.07.15l.23.22a1,1,0,0,0,.3.23.07.07,0,0,1,.07.07" transform="translate(-12.67 -10.19)"/><path class="cls-5" d="M48.82,126.74A10.9,10.9,0,0,0,44,135.22l-1.43.82v-.67a1.74,1.74,0,0,1,.08-.6.74.74,0,0,1,.07-.38,14.5,14.5,0,0,1,.38-1.65v-.07c0-.08.07-.15.07-.23s.08-.15.08-.3,0-.07.07-.15.15-.37.23-.52a4,4,0,0,1,.37-.75.08.08,0,0,1,.08-.08c.08-.15.15-.22.23-.37a1.78,1.78,0,0,1,.3-.53c.07-.15.15-.22.22-.37s.23-.38.38-.6a.29.29,0,0,0,.07-.15c.15-.23.3-.38.45-.6l.08-.08c.15-.22.3-.37.45-.6a.59.59,0,0,1,.3-.3c.15-.15.22-.3.37-.37l.53-.53a1.21,1.21,0,0,0,.3-.3Z" transform="translate(-12.67 -10.19)"/><path class="cls-10" d="M48.9,135.59c-1.58.9-2.85.15-2.85-1.57a6.33,6.33,0,0,1,2.77-4.88c1.58-.9,2.78-.15,2.85,1.58a6.31,6.31,0,0,1-2.77,4.87m-.08-8.85A10.9,10.9,0,0,0,44,135.22V136a.49.49,0,0,0,.07.3.26.26,0,0,0,.08.22,1,1,0,0,0,.15.45.51.51,0,0,0,.15.3v.08c.07.07.07.15.15.22s.07.08.07.15l.23.23a1,1,0,0,0,.3.22c.07,0,.07.08.07.08s.08,0,.08.07a.07.07,0,0,1,.07.08c.9.52,2.1.45,3.53-.38a10.91,10.91,0,0,0,4.87-8.32v-.15C53.77,126.44,51.52,125.17,48.82,126.74Z" transform="translate(-12.67 -10.19)"/><path class="cls-8" d="M48.9,129.14c1.57-.9,2.77-.15,2.85,1.58A6.32,6.32,0,0,1,49,135.59c-1.57.9-2.85.15-2.85-1.57a6,6,0,0,1,2.78-4.88" transform="translate(-12.67 -10.19)"/><polygon class="cls-17" points="46.2 104.47 46.2 105.15 45.75 105.38 39.9 108.75 39.9 108.15 45.23 105.08 45.83 104.7 46.2 104.47"/><polygon class="cls-15" points="54.3 81.97 54.3 82.95 54.23 82.05 54.23 81.97 54.3 81.97"/><polygon class="cls-15" points="54.3 84.45 54.3 84.9 54.3 83.1 54.3 84.45"/><path class="cls-11" d="M55.2,128.77l-1.43.82c0-3.07-2.25-4.35-5-2.77A10.88,10.88,0,0,0,44,135.29l-1.43.83v-.75a1.74,1.74,0,0,1,.08-.6.74.74,0,0,1,.07-.38,14.5,14.5,0,0,1,.38-1.65v-.07c0-.08.07-.15.07-.23s.08-.15.08-.3,0-.07.07-.15.15-.37.23-.52a4,4,0,0,1,.37-.75.08.08,0,0,1,.08-.08c.08-.15.15-.22.23-.37a1.78,1.78,0,0,1,.3-.53c.07-.15.15-.22.22-.37s.23-.38.38-.6a.29.29,0,0,0,.07-.15c.15-.23.3-.38.45-.6l.08-.08c.15-.22.3-.37.45-.6a.59.59,0,0,1,.3-.3c.15-.15.22-.3.37-.37l.53-.53a1.21,1.21,0,0,0,.3-.3c.07-.07.22-.15.3-.22s.22-.15.3-.23.22-.15.3-.22.22-.15.3-.23c3.52-1.8,6.37-.22,6.37,3.83" transform="translate(-12.67 -10.19)"/><polygon class="cls-15" points="54.23 79.5 54.23 79.5 54.23 78.08 54.23 79.5"/><polygon class="cls-18" points="54.3 101.4 54.3 101.85 48.83 98.63 48.83 98.25 48.9 96 48.9 95.85 48.9 94.58 48.9 93.67 48.9 93.53 48.9 92.55 48.9 91.95 48.9 91.88 48.9 91.2 48.9 90.3 48.9 89.17 48.9 88.95 48.9 88.8 48.98 87.22 48.98 84.38 48.98 82.8 48.98 82.28 48.98 81.9 49.05 80.25 49.05 79.88 49.05 79.13 48.67 78.9 46.2 77.47 36.3 71.7 33.75 70.28 31.57 69 29.25 67.65 29.25 67.42 29.18 64.95 29.18 62.02 29.18 56.17 34.2 59.1 36.75 60.6 38.92 61.88 41.48 63.3 43.58 64.58 46.13 66.08 54.23 70.72 54.23 76.28 54.23 76.58 54.23 77.4 54.23 79.65 54.23 79.95 54.23 82.05 54.3 82.95 54.3 84.9 54.3 85.28 54.3 87.45 54.3 90.38 54.3 92.25 54.3 93.38 54.3 95.1 54.3 95.7 54.3 97.8 54.3 99.08 54.3 99.15 54.3 101.4"/><path class="cls-16" d="M51.82,96.44h0" transform="translate(-12.67 -10.19)"/><path class="cls-16" d="M53,103.42H53c0-.08.07-.08.07,0h0" transform="translate(-12.67 -10.19)"/><path class="cls-16" d="M61.57,103.72h0c-.22-.08-.37-.23-.6-.3a2,2,0,0,1,.6.3" transform="translate(-12.67 -10.19)"/><path class="cls-4" d="M43.35,120.44h0l-.08-.07v0l.08.07" transform="translate(-12.67 -10.19)"/><path class="cls-4" d="M53,103.42H53c0-.08.07-.08.07,0h0" transform="translate(-12.67 -10.19)"/><path class="cls-19" d="M43.35,120.44h0l-.08-.07v0l.08.07" transform="translate(-12.67 -10.19)"/><path class="cls-19" d="M53,103.42H53c0-.08.07-.08.07,0h0" transform="translate(-12.67 -10.19)"/><polygon class="cls-17" points="46.2 106.28 39.9 109.95 39.9 109.28 46.2 105.67 46.2 106.28"/><path class="cls-19" d="M45.45,107.39Z" transform="translate(-12.67 -10.19)"/><path class="cls-16" d="M61,103.34a2.62,2.62,0,0,1,.6.38c-.22-.15-.37-.23-.6-.38m-9.9,15.83L48,120.89a.89.89,0,0,0-.38.68c0,.22.15.37.38.22l3.07-1.72a.89.89,0,0,0,.38-.68C51.45,119.17,51.22,119,51.07,119.17Zm-5.62-11.78ZM43.2,120.22v0C43.27,120.29,43.2,120.29,43.2,120.22Z" transform="translate(-12.67 -10.19)"/><path class="cls-16" d="M52.57,120.14v-.67l6.3-3.68v.68Zm6.3-2.47-6.3,3.67v-.6l6.3-3.6Zm-6.3.67,5.33-3.07.6-.38.37-.22v.6l-.45.22-5.85,3.38Zm-.9-2.62a3.45,3.45,0,0,1-1.27,1.57l-6.23,3.6a1.33,1.33,0,0,1-.6.15.93.93,0,0,1-.9-1v-.3l.53-4.58V115a11.28,11.28,0,0,1,.37-1.58v-.07l1.5-5.4a.28.28,0,0,0,.08-.15l.22-.45a4.81,4.81,0,0,1,.75-.9c.08-.08.15-.15.23-.15l1.12-.68,4.28-2.47.15-.08h0l.15-.07.07-.08h0c.08,0,.08-.07.15-.07a.66.66,0,0,1,.38-.08.94.94,0,0,1,.9,1V108a6.2,6.2,0,0,1-.23,1.2c-.07.15-.07.3-.15.45l-.15.53-.37,1.42-.15.6Zm-.6,4.35L48,121.79c-.23.15-.38,0-.38-.22a.89.89,0,0,1,.38-.68l3.07-1.72c.23-.15.38,0,.38.22A.89.89,0,0,1,51.07,120.07ZM61.2,89.62c-.08,0-.08.07-.15.07-.23.15-.6.38-1,.6l-.67.45c-.08.08-.23.15-.3.23a15.6,15.6,0,0,0-1.65,1.12c-.68.45-1.43,1-2.25,1.65-.45.3-.9.68-1.35,1.05-.68.53-1.35,1.13-2,1.73h-.07c-.15.15-.3.22-.45.37s-.45.38-.68.6c-.52.45-1,1-1.5,1.5s-.9,1-1.35,1.43l-.07.07c0,.08-.08.08-.08.15s-.07.08-.15.15c-.67.75-1.27,1.5-1.95,2.33-.52.67-1.05,1.42-1.57,2.17-.08.08-.15.23-.23.3-.22.38-.45.68-.67,1-.08.08-.08.15-.15.3s-.15.3-.08.3h0c.15.08.83-.3,1-.15v.08a.26.26,0,0,1-.08.22c-.07.23-.22.45-.3.75s-.22.6-.37.9-.23.6-.38.9-.15.38-.22.6-.15.45-.23.75v.08a7.42,7.42,0,0,0-.3,1c-.15.53-.3,1.13-.45,1.65a8.47,8.47,0,0,0-.3,1.28c-.07.3-.15.6-.22.82a.53.53,0,0,1-.08.3c-.07.23-.07.38-.15.6s-.07.38-.07.53a4.67,4.67,0,0,0-.15,1v.3a2.63,2.63,0,0,0-.08.75c-.07.75-.15,1.42-.15,1.87v1.05l-.52,4.13-1.43,3.75c0,.07-.07.22-.07.3-.08.37-.15,1-.23,1.57,0,.15-.07.3-.07.45a7.26,7.26,0,0,0-.08,1.28v5.1l4.35-2.55,1.88-1v-.3l-1.43.82v-.67a1.74,1.74,0,0,1,.08-.6.74.74,0,0,1,.07-.38,14.5,14.5,0,0,1,.38-1.65v-.07c0-.08.07-.15.07-.23s.08-.15.08-.3,0-.07.07-.15.15-.37.23-.52a3.48,3.48,0,0,1,.37-.75.08.08,0,0,1,.08-.08c.08-.15.15-.22.23-.37a1.78,1.78,0,0,1,.3-.53c.07-.15.14-.22.22-.37s.23-.38.38-.6a.29.29,0,0,0,.07-.15c.15-.23.3-.38.45-.6l.08-.08c.15-.22.3-.37.45-.6a.59.59,0,0,1,.3-.3c.15-.15.22-.3.37-.37l.53-.53a1.21,1.21,0,0,0,.3-.3c.07-.07.22-.15.3-.22s.22-.15.3-.23.22-.15.3-.22.22-.15.3-.23c3.52-2,6.3-.37,6.37,3.6l-1.42.83v.15L60,126v-7.72l1.58-.9V103.72c-.22-.15-.37-.23-.6-.38.23.08.38.23.6.3V89.32C61.65,89.32,61.5,89.39,61.2,89.62Z" transform="translate(-12.67 -10.19)"/><polygon class="cls-17" points="46.2 106.8 46.2 107.47 39.9 111.08 39.9 110.47 46.2 106.8"/><path class="cls-20" d="M69,91Z" transform="translate(-12.67 -10.19)"/><path class="cls-20" d="M123.67,62.39Z" transform="translate(-12.67 -10.19)"/><polygon class="cls-18" points="25.05 128.78 0.07 114.22 0 111 0 109.72 5.17 112.65 9 114.9 14.63 118.2 19.43 120.97 24.82 124.13 25.05 124.28 25.05 128.78"/><polygon class="cls-21" points="151.65 14.55 146.55 17.48 144.07 18.9 141.9 20.1 139.43 21.6 137.25 22.8 134.7 24.3 54.23 70.72 46.13 66.08 43.58 64.58 41.48 63.3 38.92 61.88 36.75 60.6 34.2 59.1 29.18 56.17 126.6 0 151.65 14.55"/><path class="cls-22" d="M43.87,107.09a.3.3,0,0,1-.07.23,5.56,5.56,0,0,0-.3.75c-.15.3-.23.6-.38.9s-.22.6-.37.9-.15.37-.23.6-.15.45-.22.75v.07a6.57,6.57,0,0,0-.3,1c-.15.52-.3,1.12-.45,1.65a7.3,7.3,0,0,0-.3,1.27c-.08.3-.15.6-.23.83a.61.61,0,0,1-.07.3c-.08.22-.08.37-.15.6s-.08.37-.08.52a5.54,5.54,0,0,0-.15,1v.3a3,3,0,0,0-.07.75c-.08.75-.15,1.43-.15,1.88v1l-17-9.9-2.17-1.28-5.85-3.37a42.11,42.11,0,0,1,3.45-14.85c.6.37,1.2.67,1.8,1.05,2.7,1.57,5.47,3.15,8.17,4.72,4.73,2.78,9.45,5.48,14.18,8.25h0c.15.08.82-.3,1-.15v.15" transform="translate(-12.67 -10.19)"/><path class="cls-21" d="M61.72,89.32a1.25,1.25,0,0,0-.45.3c-.07,0-.07.07-.15.07-.22.15-.6.38-1,.6l-.68.45c-.07.08-.22.15-.3.23a16.7,16.7,0,0,0-1.65,1.12c-.67.45-1.42,1-2.25,1.65-.45.3-.9.68-1.35,1.05-.67.53-1.35,1.13-2,1.73h-.08c-.15.15-.3.22-.45.37s-.45.38-.67.6c-.53.45-1,1-1.5,1.5s-.9,1-1.35,1.43l-.08.07c0,.08-.07.08-.07.15s-.08.08-.15.15c-.68.75-1.28,1.5-1.95,2.33-.53.67-1.05,1.42-1.58,2.17-.07.08-.15.23-.22.3-.23.38-.45.68-.68,1a1.64,1.64,0,0,0-.15.3c-.15.15-.15.3-.07.3-4.73-2.77-9.45-5.47-14.18-8.25-2.7-1.57-5.47-3.15-8.17-4.72-.6-.38-1.2-.68-1.8-1-.3-.15-.53-.3-.83-.45-.07,0-.07-.15.08-.38,5.62-9.52,16-15.9,18.3-17.25.3-.15.45-.22.45-.3L42,77.92l2.4,1.35,2.17,1.27L49.12,82,59,87.82l2.4,1.42Z" transform="translate(-12.67 -10.19)"/><path class="cls-21" d="M51.82,96.44h0" transform="translate(-12.67 -10.19)"/><path class="cls-21" d="M40.2,122.54l-.53,4.13-1.42,3.75c0,.07-.08.22-.08.3-.07.37-.15,1-.22,1.57,0,.15-.08.3-.08.45A8.29,8.29,0,0,0,37.8,134v.52l-.23-.15-5.47-3.15-4.73-2.77-5.62-3.3-3.83-2.25-5.17-3a5.38,5.38,0,0,1,.07-1v-.22a8.85,8.85,0,0,1,.15-1.35.66.66,0,0,1,.08-.38v-.15a9.82,9.82,0,0,1,.22-1l1.43-3.75.52-4.13,5.85,3.38,2.18,1.27Z" transform="translate(-12.67 -10.19)"/><path class="cls-23" d="M53,103.42H53c0-.08.07-.08.07,0h0" transform="translate(-12.67 -10.19)"/><path class="cls-23" d="M43.35,120.44h0l-.08-.07v0l.08.07" transform="translate(-12.67 -10.19)"/><path class="cls-20" d="M53.25,107.84A3.39,3.39,0,0,1,53,109c-.07.15-.07.37-.15.52l-.15.45-.37,1.43-.15.6-1.05,3.6a3.07,3.07,0,0,1-1,1.27l-6.23,3.6a.42.42,0,0,1-.3.08H43.5a.08.08,0,0,1-.08-.08l-.07-.07a.08.08,0,0,0-.08-.08V120l.6-4.8a4.3,4.3,0,0,1,.38-1.65l1.5-5.47c0-.08.07-.08.07-.15s.08-.23.15-.3a2.19,2.19,0,0,1,.83-.83l.22-.15,1-.6,4.12-2.4.3-.15.15-.07c.08,0,.08-.08.15-.08h.38c.07,0,.07,0,.07.08s.08.07.08.15v4.27Zm.52-3.52v-.53a.88.88,0,0,0-.9-1,.7.7,0,0,0-.37.07c-.08,0-.08.08-.15.08l-.08.07-.15.08h0l-.15.07-4.27,2.48-1.13.67c-.07.08-.15.08-.22.15a3.05,3.05,0,0,0-.75.9l-.23.45a.23.23,0,0,1-.07.15l-1.5,5.4v.08a3.93,3.93,0,0,0-.38,1.57v.23l-.52,4.57v.3a.89.89,0,0,0,.9,1,2,2,0,0,0,.6-.15l6.22-3.6a3.43,3.43,0,0,0,1.28-1.58L53,112.27l.15-.6.37-1.43.15-.52c.08-.15.08-.3.15-.45a3.45,3.45,0,0,0,.23-1.2v-.23Z" transform="translate(-12.67 -10.19)"/><path class="cls-22" d="M53,103.42H53c0-.08.07-.08.07,0h0" transform="translate(-12.67 -10.19)"/><path class="cls-22" d="M53.25,107.77v.07A3.39,3.39,0,0,1,53,109c-.07.15-.07.37-.15.52l-.15.45-.37,1.43-.15.6-1.05,3.6a3.07,3.07,0,0,1-1,1.27l-6.23,3.6a.42.42,0,0,1-.3.08H43.5a.08.08,0,0,1-.08-.08l-.07-.07-.08-.08V120l.6-4.8a4.3,4.3,0,0,1,.38-1.65l1.5-5.47c0-.08.07-.08.07-.15s.08-.23.15-.3a2.19,2.19,0,0,1,.83-.83l.22-.15,1-.6,4.12-2.4.3-.15.15-.07c.08,0,.08-.08.15-.08H53a.08.08,0,0,1,.08.08c0,.07.07.07.07.15V104Z" transform="translate(-12.67 -10.19)"/><path class="cls-22" d="M43.35,120.44h0l-.08-.07v0l.08.07" transform="translate(-12.67 -10.19)"/><path class="cls-24" d="M30.75,127.72c.9.52,1.27,2.4,1.27,3.3s-.75,1.2-1.57.67l-11.1-6.45a3.28,3.28,0,0,1-1.58-2.55c0-.9,1-2,1.8-1.5Z" transform="translate(-12.67 -10.19)"/><path class="cls-25" d="M18.6,121.34l-.23.23,13.43,7.87c-.08-.15-.08-.3-.15-.37Z" transform="translate(-12.67 -10.19)"/><path class="cls-25" d="M18,123.44l.22.45,13.58,8c.07-.07.15-.15.15-.22Z" transform="translate(-12.67 -10.19)"/><path class="cls-25" d="M17.92,122.24c0,.08-.07.15-.07.3L32,130.79v-.37Z" transform="translate(-12.67 -10.19)"/><path class="cls-26" d="M34.8,128.84c1.65,1,2.77,2.1,2.77,4.35,0,2.93-1,2.48-1.87,2-.08,0-.08-.08-.15-.08a.25.25,0,0,1-.15-.07.08.08,0,0,1-.08-.08c-.52-.3-1.2-.67-2-1.05-2.85-1.65-6.52-4.05-6.15-5.32.3-1,1.88-2.48,4.5-1.2a24,24,0,0,1,3.08,1.42" transform="translate(-12.67 -10.19)"/><path class="cls-26" d="M13.8,122.24c.07,0,.07.08.15.08a.29.29,0,0,1,.15.07.07.07,0,0,1,.07.08c.53.3,1.13.67,1.8,1,2.63,1.5,6.08,3.22,5.7,1.57a11.52,11.52,0,0,0-4.12-5.92c-1.05-.68-2-1.43-2.85-1.88a4.05,4.05,0,0,0-1.73-.6c-.15,1.13-.3,2.63-.3,3.15v1.35a2.86,2.86,0,0,0,1.13,1" transform="translate(-12.67 -10.19)"/><path class="cls-17" d="M51.45,119.39a.89.89,0,0,1-.38.68L48,121.79c-.23.15-.38,0-.38-.22a.89.89,0,0,1,.38-.68l3.07-1.72c.15-.15.38,0,.38.22" transform="translate(-12.67 -10.19)"/><polygon class="cls-27" points="15.6 105.67 15.15 104.85 9.53 101.55 9.07 101.92 15.6 105.67"/><path class="cls-27" d="M27.82,115.27c-.07,0-.15,0-.15-.08s-6.07-5.47-11.55-6.52c-.15,0-.22-.15-.22-.3s.15-.23.3-.23c5.55,1.13,11.47,6.45,11.77,6.68.08.07.08.22,0,.37s-.07.08-.15.08" transform="translate(-12.67 -10.19)"/><polygon class="cls-27" points="25.05 111 24.6 110.17 19.05 106.88 18.6 107.25 25.05 111"/><path class="cls-27" d="M37.27,120.59c-.07,0-.15,0-.15-.07S31.05,115,25.57,114c-.15,0-.22-.15-.22-.3s.15-.22.3-.22c5.55,1.12,11.47,6.45,11.77,6.67a.33.33,0,0,1,0,.38c0,.07-.07.07-.15.07" transform="translate(-12.67 -10.19)"/></svg>