<svg id="Capa_1" data-name="Capa 1" xmlns="http://www.w3.org/2000/svg" viewBox="0 0 85.3 67.09"><defs><style>.cls-1{fill:#9b9b9b;}.cls-2{fill:#b85918;}.cls-3{fill:#474747;}.cls-4{fill:#2a2824;}.cls-5,.cls-6{fill:#2b2a28;}.cls-5{isolation:isolate;opacity:0.7;}.cls-7{fill:#7fe5ff;}.cls-8{fill:#f2fcff;}</style></defs><path class="cls-1" d="M551.5,695.1a7.1,7.1,0,0,0-3.3,5.7c0,2.1,1.4,3,3.2,2a7.1,7.1,0,0,0,3.3-5.7C554.8,695,553.3,694.1,551.5,695.1Z" transform="translate(-515.9 -637.95)"/><path class="cls-1" d="M589,673.4a7.1,7.1,0,0,0-3.3,5.7c0,2.1,1.4,3,3.2,2a7.1,7.1,0,0,0,3.3-5.7C592.3,673.3,590.8,672.4,589,673.4Z" transform="translate(-515.9 -637.95)"/><path class="cls-1" d="M599,657.5l-4.1-9c0-.1,0-.2-.1-.2-4-2.8-17.8-10.2-17.8-10.2a1.48,1.48,0,0,0-1.3,0h0l-33.8,19.5a4.35,4.35,0,0,1-.7.4,1.38,1.38,0,0,0-.4.3h0a5.24,5.24,0,0,0-1.1,1,.3.3,0,0,1,.4,0,107.47,107.47,0,0,0,17.4,10,.37.37,0,0,1,.2.5c-.9,2-2.9,6.5-3.7,7.8a2.19,2.19,0,0,1-.9,1,2.1,2.1,0,0,1-1.1.4,1.27,1.27,0,0,1-.6-.1,62.74,62.74,0,0,1-18.5-11.6.62.62,0,0,1-.1-.7l-1,1.1a5.2,5.2,0,0,0-.5.3c-.1.1-.2.1-.4.2a1966866193407.54,1966866193407.54,0,0,0-.8.4c-.3.2-.6.3-.9.5a8.79,8.79,0,0,1-1,.6h0c-.4.3-.9.6-1.4.9-1.2.8-2.5,1.6-3.8,2.5a3.51,3.51,0,0,1-.8.5l-1.2.9a3,3,0,0,1-.7.5,4.23,4.23,0,0,1-.7.5l-.3.3c-.4.3-.8.7-1.2,1l-.2.2a8.72,8.72,0,0,0-1.6,2c0,.1-.1.2-.1.3v.1c0,.1-.1.2-.1.3v1.5c.2,1,1.2,1.6,1.3,1.9s-.7,1.9-.9,1.8-.2-.2-.2-.2v1.5s.1.3.3.3,1.1-2.9,1.5-2.7a117.36,117.36,0,0,0,12.3,7.3,4.46,4.46,0,0,1,2,2.3l.8,2.4c.9,3.6,6.6,3.2,10.3,2h.2l.3-.2,4-2.3a11.7,11.7,0,0,1,3.3-3c.2-.1.3-.2.4-.2a4.18,4.18,0,0,1,1-.4,4.27,4.27,0,0,1,1.9-.2c.1,0,.3.1.4.1a.76.76,0,0,1,.4.2c.1,0,.1.1.2.1s.2.1.3.2a3.17,3.17,0,0,1,.5.6c0,.1.1.1.1.2a.35.35,0,0,0,.1.2c0,.1.1.2.1.3a.37.37,0,0,0,.1.3,2.77,2.77,0,0,1,.1.9v.4L582,680.5l1.4-.8v-1a3.53,3.53,0,0,1,.3-1.4c0-.2.1-.3.1-.5s.1-.3.2-.5a10.6,10.6,0,0,1,1.1-2.1c.1-.1.2-.3.3-.4s.2-.3.3-.4a11.7,11.7,0,0,1,3.3-3,.76.76,0,0,1,.4-.2,4.18,4.18,0,0,1,1-.4,4.27,4.27,0,0,1,1.9-.2h.2c.1,0,.2,0,.2.1a2.18,2.18,0,0,1,.8.5h0a1.38,1.38,0,0,1,.3.4,3.13,3.13,0,0,1,.5,1c0,.1,0,.2.1.2a3.08,3.08,0,0,1,.1,1v.4l.9-.5h0v-4.2l.8-.5,3.6-2v-6C599.5,659.1,599.3,658.3,599,657.5Zm-57.2,38.6a1.93,1.93,0,0,1-.9.5,10.73,10.73,0,0,1-6.7-.6c-.3-.2-1.3-3.5-1-3.3a19.3,19.3,0,0,0,8,.5h0a1.08,1.08,0,0,1,.8.2c.1,0,.1.1.2.2C542.7,694.1,542.7,695.1,541.8,696.1Zm26.9-19.4a.55.55,0,0,1-.3.5l-1.7,1c-.2.1-.3,0-.3-.1v-.4a.55.55,0,0,1,.3-.5l1.7-1c.2-.1.3,0,.3.1Zm-.1-2.8-11.5,6.6c-1.1.6-1.8.7-.8-1.3a91.54,91.54,0,0,1,4.6-10.1,2.84,2.84,0,0,1,1-.9l4.3-2.5a.46.46,0,0,1,.7.3,53.83,53.83,0,0,1,1.9,7.5C568.9,673.6,568.7,673.8,568.6,673.9Zm1.7-5.7c-.5-1.6-.9-2.8-1.2-3.5a.37.37,0,0,1,.2-.5c.8-.5,8-4.5,11.2-6.3l3.2,7.2-12.3,7.2A27.46,27.46,0,0,0,570.3,668.2Zm13.8-.3a.55.55,0,0,1-.3.5l-1.7,1c-.2.1-.3,0-.3-.1v-.4a.55.55,0,0,1,.3-.5l1.7-1c.2-.1.3,0,.3.1Zm.7-3.2-3.3-7.3c3-1.7,5.1-2.8,6.8-3.6a1.53,1.53,0,0,1,2.1.7l3,5.5Z" transform="translate(-515.9 -637.95)"/><path class="cls-1" d="M526.8,670.7c-1.2.8-2.5,1.6-3.8,2.5A41.29,41.29,0,0,1,526.8,670.7Z" transform="translate(-515.9 -637.95)"/><path class="cls-2" d="M541.8,696.1a1.93,1.93,0,0,1-.9.5,5.82,5.82,0,0,0,.3-3.4,1.08,1.08,0,0,1,.8.2l.2.2C542.7,694.1,542.7,695.1,541.8,696.1Z" transform="translate(-515.9 -637.95)"/><path class="cls-3" d="M554.8,693h0a3.29,3.29,0,0,0-3.4.3,10.61,10.61,0,0,0-4.8,8.3,3.32,3.32,0,0,0,1.4,3.1,3.29,3.29,0,0,0,3.4-.3,10.61,10.61,0,0,0,4.8-8.3,5.9,5.9,0,0,0-.2-1.4A3.25,3.25,0,0,0,554.8,693Zm-3.4,9.8c-1.8,1-3.3.1-3.2-2a7.25,7.25,0,0,1,3.3-5.7c1.8-1,3.3-.1,3.2,2A7.25,7.25,0,0,1,551.4,702.8Z" transform="translate(-515.9 -637.95)"/><path class="cls-3" d="M592.3,671.3a3.29,3.29,0,0,0-3.4.3,10.61,10.61,0,0,0-4.8,8.3,3.32,3.32,0,0,0,1.4,3.1,3.29,3.29,0,0,0,3.4-.3,10.61,10.61,0,0,0,4.8-8.3,5.9,5.9,0,0,0-.2-1.4A3.11,3.11,0,0,0,592.3,671.3Zm-3.4,9.8c-1.8,1-3.3.1-3.2-2a7.25,7.25,0,0,1,3.3-5.7c1.8-1,3.3-.1,3.2,2A7.1,7.1,0,0,1,588.9,681.1Z" transform="translate(-515.9 -637.95)"/><path class="cls-3" d="M543.9,697.8l-.3.2h-.2c-3.7,1.2-9.4,1.6-10.3-2l-.8-2.4a4.11,4.11,0,0,0-2-2.3A117.36,117.36,0,0,1,518,684c-.4-.3-1.4,2.7-1.5,2.7s-.3-.3-.3-.3v-.9c-.2.1-.3.6-.3,1.2v2.4a9,9,0,0,0,3.7,5.8,72.81,72.81,0,0,0,13.1,7.7,14.24,14.24,0,0,0,11.2.3l.6-.3h0a.78.78,0,0,0,.4-.4l.8-.5v-1a3.53,3.53,0,0,1,.3-1.4c0-.2.1-.3.1-.5s.1-.3.2-.5.2-.5.3-.8a2.51,2.51,0,0,1,.4-.7c.1-.2.3-.5.4-.7h0c.2-.2.3-.5.5-.7Zm-18.1.1-5.2-3.2v-1.6l5.2,3.2Zm-8.9-10.7c.2-.7.9-3,1.3-2.8a139,139,0,0,0,12,7.3,3.31,3.31,0,0,1,1.6,2.2,20.52,20.52,0,0,0,1,3.4C528.3,696,518,689.9,516.9,687.2Z" transform="translate(-515.9 -637.95)"/><path class="cls-3" d="M532.9,697.3c-4.6-1.3-14.9-7.4-16-10.1.2-.7.9-3,1.3-2.8a139,139,0,0,0,12,7.3,3.31,3.31,0,0,1,1.6,2.2C531.9,693.9,532.6,696.9,532.9,697.3Z" transform="translate(-515.9 -637.95)"/><path class="cls-3" d="M601.2,666.7v1.4a2.2,2.2,0,0,1-.9,1.9l-2.4,1.9a2.18,2.18,0,0,1-.8.5l-1.3.8-.5-.3h0v-4.2l.8-.5,3.5-2v-2l1,1A2.53,2.53,0,0,1,601.2,666.7Z" transform="translate(-515.9 -637.95)"/><path class="cls-4" d="M556.8,694.8v.4l-.8-.5a2.69,2.69,0,0,0-1.2-1.7h0l-2.1-1.2a4.27,4.27,0,0,1,1.9-.2h0c.2,0,.3.1.4.1a.76.76,0,0,1,.4.2.35.35,0,0,1,.2.1c.1.1.2.1.3.2a3.17,3.17,0,0,1,.5.6c0,.1.1.1.1.2a.35.35,0,0,0,.1.2c0,.1.1.2.1.3a.37.37,0,0,0,.1.3Z" transform="translate(-515.9 -637.95)"/><path class="cls-4" d="M594.3,673.1v.4l-.8-.5h0a2.69,2.69,0,0,0-1.2-1.7l-2.1-1.2a4.27,4.27,0,0,1,1.9-.2h.2c.1,0,.2,0,.2.1a2.18,2.18,0,0,1,.8.5h0a1.38,1.38,0,0,1,.3.4,3.13,3.13,0,0,1,.5,1c0,.1,0,.2.1.2A3.4,3.4,0,0,1,594.3,673.1Z" transform="translate(-515.9 -637.95)"/><path class="cls-4" d="M554.7,692.9a3.39,3.39,0,0,0-3.3.4,10.61,10.61,0,0,0-4.8,8.3v1.1a.37.37,0,0,0,.1.3c0,.1.1.2.1.3s0,.1.1.2.1.1.1.2v.1c0,.1.1.1.1.2v.1a.1.1,0,0,0,.1.1c0,.1.1.1.2.2s.1.1.2.1.2.1.2.2l-3-1.7a1.21,1.21,0,0,1-.5-.5h0a.78.78,0,0,0,.4-.4l.8-.5v-1a3.53,3.53,0,0,1,.3-1.4c0-.2.1-.3.1-.5s.1-.3.2-.5.2-.5.3-.8a2.51,2.51,0,0,1,.4-.7c.1-.2.3-.5.4-.7h0c.2-.2.3-.5.5-.7a11.7,11.7,0,0,1,3.3-3c.2-.1.3-.2.4-.2a4.18,4.18,0,0,1,1-.4Z" transform="translate(-515.9 -637.95)"/><path class="cls-4" d="M554.8,693Z" transform="translate(-515.9 -637.95)"/><path class="cls-4" d="M592.3,671.3a3.53,3.53,0,0,0-3.4.3,10.61,10.61,0,0,0-4.8,8.3,3.31,3.31,0,0,0,1.3,3l-3-1.7a1.87,1.87,0,0,1-.7-.6l1.4-.8v-1a3.93,3.93,0,0,1,.3-1.4c0-.2.1-.3.1-.5s.1-.3.2-.5a10.6,10.6,0,0,1,1.1-2.1c.1-.1.2-.3.3-.4s.2-.3.3-.4a11.7,11.7,0,0,1,3.3-3c.2-.1.3-.2.4-.2a4.18,4.18,0,0,1,1-.4Z" transform="translate(-515.9 -637.95)"/><path class="cls-5" d="M532.9,697.3c-4.6-1.3-14.9-7.4-16-10.1.2-.7.9-3,1.3-2.8a139,139,0,0,0,12,7.3,3.31,3.31,0,0,1,1.6,2.2C531.9,693.9,532.6,696.9,532.9,697.3Z" transform="translate(-515.9 -637.95)"/><path class="cls-6" d="M568.7,676.3v.4a.55.55,0,0,1-.3.5l-1.7,1c-.2.1-.3,0-.3-.1v-.4a.55.55,0,0,1,.3-.5l1.7-1C568.6,676.1,568.7,676.1,568.7,676.3Z" transform="translate(-515.9 -637.95)"/><path class="cls-6" d="M584.1,667.5v.4a.55.55,0,0,1-.3.5l-1.7,1c-.2.1-.3,0-.3-.1v-.4a.55.55,0,0,1,.3-.5l1.7-1C583.9,667.2,584.1,667.3,584.1,667.5Z" transform="translate(-515.9 -637.95)"/><path class="cls-7" d="M557.7,669.8c-.9,2-2.9,6.5-3.7,7.9a2.19,2.19,0,0,1-.9,1,2.1,2.1,0,0,1-1.1.4,1.27,1.27,0,0,1-.6-.1,62.74,62.74,0,0,1-18.5-11.6.62.62,0,0,1-.1-.7h0l.1-.1,6.8-7.2h0a.3.3,0,0,1,.4,0,115.46,115.46,0,0,0,17.4,10C557.7,669.4,557.8,669.6,557.7,669.8Z" transform="translate(-515.9 -637.95)"/><path class="cls-7" d="M568.9,673.5c0,.1-.2.3-.3.4l-11.5,6.6c-1.1.6-1.7.7-.8-1.3a91.54,91.54,0,0,1,4.6-10.1,2.84,2.84,0,0,1,1-.9l4.3-2.5a.46.46,0,0,1,.7.3A49.62,49.62,0,0,1,568.9,673.5Z" transform="translate(-515.9 -637.95)"/><path class="cls-7" d="M593.5,659.9l-8.6,4.8-3.3-7.3c3-1.7,5-2.8,6.8-3.6a1.53,1.53,0,0,1,2.1.7Z" transform="translate(-515.9 -637.95)"/><path class="cls-7" d="M583.8,665.1l-12.3,7.2a42.09,42.09,0,0,0-1.2-4.2c-.5-1.6-.9-2.8-1.2-3.5a.37.37,0,0,1,.2-.5c.8-.5,8-4.5,11.2-6.3Z" transform="translate(-515.9 -637.95)"/><path class="cls-8" d="M540.9,696.5a10.73,10.73,0,0,1-6.7-.6c-.3-.2-1.3-3.5-1-3.3a19.3,19.3,0,0,0,8,.5A5.7,5.7,0,0,1,540.9,696.5Z" transform="translate(-515.9 -637.95)"/><path class="cls-8" d="M517.3,683.2c.1.2-.7,1.9-.9,1.8s-.2-.2-.2-.2a13.7,13.7,0,0,1-.2-3.4h0C516.3,682.3,517.2,682.9,517.3,683.2Z" transform="translate(-515.9 -637.95)"/><polygon class="cls-8" points="9.9 58.35 9.9 59.95 4.8 56.75 4.8 55.15 9.9 58.35"/></svg>