<svg id="Capa_1" data-name="Capa 1" xmlns="http://www.w3.org/2000/svg" xmlns:xlink="http://www.w3.org/1999/xlink" viewBox="0 0 98.02 70.8"><defs><style>.cls-1{fill:red;}.cls-2{fill:#7fe5ff;}.cls-3{fill:url(#linear-gradient);}.cls-4{fill:#606060;}.cls-5{fill:#9b9b9b;}.cls-6{fill:#fff3e0;}.cls-7{fill:#303030;}</style><linearGradient id="linear-gradient" x1="56.04" y1="101.19" x2="58.47" y2="102.09" gradientUnits="userSpaceOnUse"><stop offset="0" stop-color="#fff3e0"/><stop offset="0.08" stop-color="#e8dbc5"/><stop offset="0.18" stop-color="#d3c5ae"/><stop offset="0.29" stop-color="#c3b49c"/><stop offset="0.43" stop-color="#b8a98f"/><stop offset="0.61" stop-color="#b2a288"/><stop offset="1" stop-color="#b0a086"/></linearGradient></defs><path class="cls-1" d="M123.9,63.8a1.83,1.83,0,0,1-2,.17l.65-3.49a5.12,5.12,0,0,1,1.37-1.18Z" transform="translate(-27.3 -41.27)"/><path class="cls-2" d="M78.65,71.08l-.26.62L72.92,85c-3.76-2.18-8.29-4.93-12.83-7.68l-.17-.3L60,77a.21.21,0,0,0,0-.3l-.21-.19a27.16,27.16,0,0,1,6.9,4.13l-3.52-2.1-.38.35L68.21,82v0l-.29-.5h0l0,0a.1.1,0,0,0,0-.07.2.2,0,0,0-.06-.23s0,0,0,0a.1.1,0,0,0-.06,0L67.79,81a30.87,30.87,0,0,0-6.26-4.2c-.15-.07-.29-.15-.44-.21A12.7,12.7,0,0,0,59.7,76c-.27-.1-.55-.18-.83-.26-1.76-1.41-5.37-4-8.81-4.68a.18.18,0,0,0-.17.06c-1-.62-2-1.22-3-1.77l-.11.08h0l0,0,5.65-12.9Z" transform="translate(-27.3 -41.27)"/><path class="cls-2" d="M58,75.56a23.72,23.72,0,0,0-7.11-3.88L55,74.16l.17-.15,2.72,1.62A.31.31,0,0,1,58,75.56Z" transform="translate(-27.3 -41.27)"/><path class="cls-2" d="M92.55,63.73,81.22,70.27,77.35,83.89l15.23-8.8ZM78.08,83,81.6,70.56,92.11,64.5l0,10.33Z" transform="translate(-27.3 -41.27)"/><polygon class="cls-2" points="64.81 23.22 54.3 29.29 50.78 41.68 64.84 33.56 64.81 23.22"/><path class="cls-2" d="M78.68,73c-.58,2-4.41,9.9-4.62,10.31,0,0,0,0,0,.08a3.16,3.16,0,0,1-1.28,1.81,1.43,1.43,0,0,1-.28.13l0,0,.24-.14.18-.1v0l0-.12L78.39,71.7l.26-.62C78.93,71,79,71.85,78.68,73Z" transform="translate(-27.3 -41.27)"/><path class="cls-3" d="M58.76,100c-.21,1.62-1,2.5-2.73,3.74l-.91.63s0,0,0,0,0-.12,0-.18v0a0,0,0,0,0,0,0h0s0,0,0,0h0l0-.09.06-.2h0l1.39-4.65.15-.09.44-.24C58.52,98.17,59,98.44,58.76,100Z" transform="translate(-27.3 -41.27)"/><polygon class="cls-4" points="77.18 41.98 77.18 42.16 77.02 42.07 77.18 41.98"/><path class="cls-4" d="M117,73.53a3.29,3.29,0,0,0-.37-.57,1.6,1.6,0,0,0-.22-.24,1.7,1.7,0,0,0-.24-.22c-1-.83-2.62-.83-4.37.18a12.52,12.52,0,0,0-5.67,9.81h0c0,.23,0,.43,0,.64s0,.27,0,.4a1.62,1.62,0,0,1,0,.2c0,.11.06.21.08.31s0,.16.06.23.07.17.1.25a.61.61,0,0,0,.05.12.33.33,0,0,0,0,.12,2,2,0,0,0,.11.2c0,.08.08.16.13.24l.11.15.17.22a1.14,1.14,0,0,1,.11.11h0l.1.11.11.1.11.07c1,.78,2.58.77,4.29-.22a12.49,12.49,0,0,0,5.67-9.82h0A5.13,5.13,0,0,0,117,73.53ZM111.8,83c-1.79,1-3.25.2-3.26-1.86a7.16,7.16,0,0,1,3.24-5.61c1.8-1,3.26-.21,3.27,1.85A7.18,7.18,0,0,1,111.8,83Z" transform="translate(-27.3 -41.27)"/><path class="cls-4" d="M110.2,64.4,95.64,72.81l-.68-11a1.07,1.07,0,0,0-.45-1h0l-.05,0h0L92,59.48l5.43-3Z" transform="translate(-27.3 -41.27)"/><polygon class="cls-4" points="96.58 15.23 95.39 15.92 69.69 0.82 51.84 11.28 51.83 11.28 50.95 10.8 69.66 0 96.58 15.23"/><polygon class="cls-4" points="95.39 15.92 82.9 23.13 70.17 15.23 69.69 0.82 95.39 15.92"/><path class="cls-4" d="M30.52,84.78l.12-.41Z" transform="translate(-27.3 -41.27)"/><path class="cls-4" d="M29.53,88.42v0c.19-.86.43-1.76.69-2.66-.27.92-.5,1.83-.7,2.71h0l.06,0Z" transform="translate(-27.3 -41.27)"/><path class="cls-4" d="M56.67,99.14l-6.44-3.58A4.68,4.68,0,0,0,48.8,95l-.26,0a1.81,1.81,0,0,0-1.06.15l-.13.07h0l-8.71-5.7h0a7.52,7.52,0,0,0-2.27-2.84l-5-3.37C38,87.46,46.86,93.2,54.06,97.5Z" transform="translate(-27.3 -41.27)"/><path class="cls-4" d="M48.76,100.43a7.83,7.83,0,0,1-1.32-1.66,1.26,1.26,0,0,1-.37-.18L38,92.66a1.88,1.88,0,0,1-.3-.27,3.37,3.37,0,0,1-1.93-.54l-6.07-3.33,12.65,7.9Z" transform="translate(-27.3 -41.27)"/><path class="cls-4" d="M55.13,104.39c0-.13.06-.26.1-.39l-.12.38-.52-.3.54.33Z" transform="translate(-27.3 -41.27)"/><path class="cls-4" d="M94.46,60.78l.05,0h0Z" transform="translate(-27.3 -41.27)"/><polygon class="cls-4" points="51.09 30.43 51.35 29.8 51.09 30.43 51.09 30.43"/><path class="cls-4" d="M55.13,104.39c0-.19.11-.39.15-.59l-.05.2C55.19,104.13,55.16,104.26,55.13,104.39Z" transform="translate(-27.3 -41.27)"/><path class="cls-4" d="M122.26,73l1.24-.72a3.58,3.58,0,0,0,.43-.29l-1.67,1Z" transform="translate(-27.3 -41.27)"/><path class="cls-4" d="M67.53,98.22a11.69,11.69,0,0,0-4,4.23,14.49,14.49,0,0,0-1,2.07,10.21,10.21,0,0,0-.68,3.52,5.42,5.42,0,0,0,.41,2.17c.84,1.94,2.9,2.47,5.3,1.08a12.51,12.51,0,0,0,5.66-9.82C73.22,97.87,70.66,96.41,67.53,98.22Zm0,10.27c-1.8,1-3.26.21-3.27-1.86A7.16,7.16,0,0,1,67.54,101c1.79-1,3.25-.2,3.26,1.86A7.16,7.16,0,0,1,67.56,108.49Z" transform="translate(-27.3 -41.27)"/><path class="cls-4" d="M55.13,104.39v0c0-.2.11-.41.16-.62h0C55.24,104,55.18,104.2,55.13,104.39Z" transform="translate(-27.3 -41.27)"/><path class="cls-5" d="M111.78,75.48a7.16,7.16,0,0,0-3.24,5.61c0,2.06,1.47,2.9,3.26,1.86a7.16,7.16,0,0,0,3.25-5.62C115,75.28,113.58,74.44,111.78,75.48Z" transform="translate(-27.3 -41.27)"/><polygon class="cls-5" points="69.69 0.82 51.84 11.28 64.75 18.21 70.17 15.23 69.69 0.82"/><path class="cls-5" d="M67.54,101a7.17,7.17,0,0,0-3.24,5.61c0,2.07,1.47,2.9,3.26,1.87a7.17,7.17,0,0,0,3.24-5.62C70.79,100.82,69.33,100,67.54,101Z" transform="translate(-27.3 -41.27)"/><path class="cls-5" d="M123.91,65.48V63.8a1.83,1.83,0,0,1-2,.17l.65-3.49a5.12,5.12,0,0,1,1.37-1.18V56.5l-1.19.69L110.2,64.4,95.64,72.81l-.68-11a1.07,1.07,0,0,0-.45-1h0l-.05,0h0a.85.85,0,0,0-.17-.06H94a.65.65,0,0,0-.19,0l-.1,0a1.73,1.73,0,0,0-.32.14L66.79,46.63l-12.31,7a5.54,5.54,0,0,0-2.12,2.86L78.65,71.08c.28-.06.37.77,0,1.94-.58,2-4.41,9.9-4.62,10.31,0,0,0,0,0,.08a3.16,3.16,0,0,1-1.28,1.81,1.43,1.43,0,0,1-.28.13l0,0,.24-.14.18-.1-1.31-.79L62.69,79l-3.33-2-4.61-2.64.09-.08-4.58-2.74L50,71.47a.19.19,0,0,1-.15-.19l-3.07-1.84,0,0-.56.32.05,0c-1.47,1-5.44,3.76-10.49,6.68-2,1.16-3.51,3.71-4.61,6.62l.22.14.07,0C38,87.46,46.86,93.2,54.06,97.5c.91.54,1.79,1.07,2.64,1.56l0,.08.15-.09.44-.24a10.52,10.52,0,0,1,2.14-.93,1.32,1.32,0,0,1,1.12.07l.07.06a.73.73,0,0,1,0,.09.35.35,0,0,1,0,.08l0,.14s0,.06,0,.09a1,1,0,0,1,0,.3c-.2,1.64-2.53,3.54-4.69,5.07l-.91.63c-.06.29-.13.57-.19.85l-.2.12L30.09,90l-1-.6c-1.59.91-1.84,2.53-1.83,4.35,0,1.17.11,2.14.61,2.43,7.65,4.45,18.38,11,26,15.49a.65.65,0,0,0,.35.1,1.82,1.82,0,0,0,.89-.3l1.17-.67L60,108.91l.21-.11a16.1,16.1,0,0,1,7.29-12.45c4-2.3,7.24-.51,7.34,4L96.57,87.82l7.06-4.08.69-.4.16-.09a16.12,16.12,0,0,1,7.28-12.44c4-2.31,7.25-.51,7.34,4L122.26,73c0-.09,0-.18,0-.28.09-.44.18-.88.23-1.31a13.89,13.89,0,0,0,.1-1.55,8.5,8.5,0,0,0-.62-3.29l1.45-.84A3.41,3.41,0,0,1,123.91,65.48ZM91.75,81.18l-2.57,1.49c-.18.1-.33,0-.33-.19a.7.7,0,0,1,.33-.57l2.57-1.48c.17-.11.32,0,.32.19A.7.7,0,0,1,91.75,81.18Zm-14.4,2.71,3.87-13.62,11.33-6.54,0,11.36Z" transform="translate(-27.3 -41.27)"/><path class="cls-5" d="M46.85,95.77a1.36,1.36,0,0,1,.1-.21l-8.09-5.29a2.91,2.91,0,0,1,0,.31Z" transform="translate(-27.3 -41.27)"/><path class="cls-5" d="M47.05,98c0-.13-.09-.25-.14-.37l-8.46-5.54a1,1,0,0,1-.23.13Z" transform="translate(-27.3 -41.27)"/><path class="cls-5" d="M46.72,96.75a2,2,0,0,1,0-.24s0,0,0-.05l-7.82-5.11a1.05,1.05,0,0,1-.06.24Z" transform="translate(-27.3 -41.27)"/><path class="cls-6" d="M38.92,91c0,.07,0,.13,0,.18l0,.17h0l-.06.23h0a1.23,1.23,0,0,1-.38.53,1,1,0,0,1-.22.13,1.35,1.35,0,0,1-.54.14,3.42,3.42,0,0,1-1.92-.54l-6.07-3.33-.1-.06-.07,0h0v0c.2-.86.43-1.76.69-2.66.09-.31.19-.62.29-.93,0-.14.08-.27.13-.41.14-.44.3-.88.46-1.31l.22.14.07,0,5,3.37a7.52,7.52,0,0,1,2.27,2.84h0c0,.13.09.26.13.39a1.6,1.6,0,0,0,.05.21,1.42,1.42,0,0,1,0,.2,2.87,2.87,0,0,1,0,.31C38.91,90.71,38.92,90.85,38.92,91Z" transform="translate(-27.3 -41.27)"/><path class="cls-6" d="M47.36,95.17a1.18,1.18,0,0,0-.41.39,1.36,1.36,0,0,0-.1.21,2,2,0,0,0-.15.69s0,0,0,.05a2,2,0,0,0,0,.24,3.89,3.89,0,0,0,.19.91c.05.12.09.24.14.37a7.59,7.59,0,0,0,.39.74,7.83,7.83,0,0,0,1.32,1.66,3.85,3.85,0,0,0,.3.27h0a7.11,7.11,0,0,0,1.16.84l3.3,1.91,1.07.62.52.3.12-.38.05-.2h0l1.38-4.65h0l-6.43-3.58A2.91,2.91,0,0,0,47.36,95.17Z" transform="translate(-27.3 -41.27)"/><path class="cls-7" d="M47.07,98.59a1.26,1.26,0,0,0,.37.18,7.59,7.59,0,0,1-.39-.74l-8.83-5.78a1.3,1.3,0,0,1-.53.14,1.88,1.88,0,0,0,.3.27Z" transform="translate(-27.3 -41.27)"/><path class="cls-7" d="M46.91,97.66a3.89,3.89,0,0,1-.19-.91l-7.9-5.16a1.21,1.21,0,0,1-.37.53Z" transform="translate(-27.3 -41.27)"/><path class="cls-7" d="M46.7,96.46a2,2,0,0,1,.15-.69l-8-5.19a2.73,2.73,0,0,1,0,.41,1.42,1.42,0,0,1,0,.36Z" transform="translate(-27.3 -41.27)"/><path class="cls-7" d="M47,95.56a1.18,1.18,0,0,1,.41-.39l-8.73-5.71a4.1,4.1,0,0,1,.23.81Z" transform="translate(-27.3 -41.27)"/><path class="cls-7" d="M119.1,74.81V75l-1.62.94h0a5.13,5.13,0,0,0-.51-2.39,3.29,3.29,0,0,0-.37-.57,1.6,1.6,0,0,0-.22-.24,1.7,1.7,0,0,0-.24-.22c-1-.83-2.62-.83-4.37.18a12.52,12.52,0,0,0-5.67,9.81h0c0,.22,0,.44,0,.64l.06.4a1.62,1.62,0,0,1,0,.2c0,.11.06.21.08.31s0,.16.06.23.07.17.1.25a.61.61,0,0,0,.05.12.34.34,0,0,0,0,.12l.11.2c0,.08.09.16.13.24l.12.15.17.22a1.14,1.14,0,0,1,.11.11,1.14,1.14,0,0,1,.11.11l.11.1.11.08.12.08.12.08-4.13-2.4.69-.4.16.09v-.18a16.12,16.12,0,0,1,7.28-12.44C115.76,68.5,119,70.3,119.1,74.81Z" transform="translate(-27.3 -41.27)"/><path class="cls-7" d="M122.26,73v0Z" transform="translate(-27.3 -41.27)"/><path class="cls-7" d="M125.32,67.92c0,1.64-.2,3.12-1.39,4.06l-1.67,1c0-.09,0-.18,0-.28.09-.44.18-.88.23-1.31a13.89,13.89,0,0,0,.1-1.55,8.5,8.5,0,0,0-.62-3.29l1.45-.84a3.41,3.41,0,0,1,.44-.21C125.1,65.05,125.32,66.29,125.32,67.92Z" transform="translate(-27.3 -41.27)"/><path class="cls-7" d="M94.45,60.78a.85.85,0,0,0-.17-.06H94a.65.65,0,0,0-.19,0l-.1,0a1.73,1.73,0,0,0-.32.14L66.79,46.63a1.07,1.07,0,0,1,1.1-.11l10.36,5.55.88.48h0L92,59.48Z" transform="translate(-27.3 -41.27)"/><path class="cls-7" d="M94.51,60.8h0l-.05,0Z" transform="translate(-27.3 -41.27)"/><path class="cls-7" d="M74.86,100.35v.18l-1.63.94c0-3.6-2.57-5.06-5.7-3.25a11.69,11.69,0,0,0-4,4.23l-.28.5c-.18.34-.34.69-.49,1l-.21.53A11.9,11.9,0,0,0,62,106.3a8.89,8.89,0,0,0-.13.88,8.43,8.43,0,0,0,0,.86,5.6,5.6,0,0,0,.41,2.17L60,108.91l.21-.11a16.1,16.1,0,0,1,7.29-12.45C71.51,94.05,74.76,95.84,74.86,100.35Z" transform="translate(-27.3 -41.27)"/><path class="cls-7" d="M72.92,85l0,.12-1.31-.77L62.69,79,60,77.38l.18.1-.13-.21C64.63,80,69.16,82.77,72.92,85Z" transform="translate(-27.3 -41.27)"/><path class="cls-7" d="M50.42,71.58l4.46,2.67.09-.09-4.13-2.48Z" transform="translate(-27.3 -41.27)"/><path class="cls-7" d="M49.89,71.12l-3-1.77-.11.08c1,.57,2,1.16,3,1.79A.23.23,0,0,1,49.89,71.12Z" transform="translate(-27.3 -41.27)"/><path class="cls-7" d="M49.83,71.28l-3.07-1.84h0l3,1.79v0S49.82,71.27,49.83,71.28Z" transform="translate(-27.3 -41.27)"/><path class="cls-7" d="M72.87,85.07v0l-1.31-.79Z" transform="translate(-27.3 -41.27)"/><path class="cls-7" d="M62.69,79l-3.33-2,.68.38Z" transform="translate(-27.3 -41.27)"/><path class="cls-7" d="M54.87,74.25l0,0-4.58-2.74.15,0h0l.87.54,0,0Z" transform="translate(-27.3 -41.27)"/><path class="cls-7" d="M60.73,98.41a1,1,0,0,1,0,.3l-1.32-.83a1.32,1.32,0,0,1,1.12.07l.07.06a.73.73,0,0,1,0,.09.35.35,0,0,1,0,.08l0,.14S60.73,98.38,60.73,98.41Z" transform="translate(-27.3 -41.27)"/><path class="cls-7" d="M30.13,89.77c0,.07,0,.15,0,.22l-1-.6.2-.12Z" transform="translate(-27.3 -41.27)"/><path class="cls-7" d="M47.51,99.72,47,99.4Z" transform="translate(-27.3 -41.27)"/><path class="cls-7" d="M47.59,99.77l1.47.94h0Q48.33,100.25,47.59,99.77Z" transform="translate(-27.3 -41.27)"/><path class="cls-7" d="M54.93,105.26l-.2.12L30.09,90c0-.07,0-.15,0-.22Z" transform="translate(-27.3 -41.27)"/><path class="cls-7" d="M55.12,104.41c-.06.29-.13.57-.19.85L30.13,89.77l-.8-.5c.06-.28.12-.57.19-.85l.07,0,.1.06,12.64,7.9,2.35,1.5L47,99.4l.26.16a2.26,2.26,0,0,1,.26.16l.07,0c.5.32,1,.63,1.47.93h0a7.28,7.28,0,0,0,1.16.84l3.3,1.91Z" transform="translate(-27.3 -41.27)"/><path class="cls-7" d="M56.7,99.06l0,.08L54.06,97.5C55,98,55.85,98.57,56.7,99.06Z" transform="translate(-27.3 -41.27)"/><path class="cls-7" d="M60.72,98.71c-.2,1.64-2.53,3.54-4.69,5.07,1.72-1.24,2.52-2.12,2.73-3.74s-.24-1.87-1.5-1.23a10.52,10.52,0,0,1,2.14-.93Z" transform="translate(-27.3 -41.27)"/><path class="cls-7" d="M48.76,100.43l-6.42-4,4.65,3,.52.32.08,0q.73.48,1.47.93A3.85,3.85,0,0,1,48.76,100.43Z" transform="translate(-27.3 -41.27)"/><path class="cls-7" d="M54.59,104.08l-1.07-.62c.56.33,1.1.66,1.61,1Z" transform="translate(-27.3 -41.27)"/><path class="cls-7" d="M58.76,100c-.21,1.62-1,2.5-2.73,3.74l-.91.63s0,0,0,0,0-.12,0-.18v0a0,0,0,0,0,0,0h0s0,0,0,0h0l0-.09.06-.2h0l1.39-4.65.15-.09.44-.24C58.52,98.17,59,98.44,58.76,100Z" transform="translate(-27.3 -41.27)"/><path class="cls-7" d="M92.07,80.62a.7.7,0,0,1-.32.56l-2.57,1.49c-.18.1-.33,0-.33-.19a.7.7,0,0,1,.33-.57l2.57-1.48C91.92,80.32,92.07,80.41,92.07,80.62Z" transform="translate(-27.3 -41.27)"/><path class="cls-7" d="M60.22,77.48l-.18-.1L59.36,77l-4.61-2.64.09-.08,0,0,.1-.09.16-.15,2.73,1.62s0,0,0,.07A.21.21,0,0,0,58,76l.69.17c.62.49,1,.83,1,.84a.2.2,0,0,0,.14.06.19.19,0,0,0,.1,0l.17.3Z" transform="translate(-27.3 -41.27)"/><path class="cls-7" d="M58.87,75.74a8,8,0,0,0-.81-.2s-.07,0-.11,0c-.6-.45-1.33-1-2.13-1.48l-.41-.26L55,73.56l-.7-.4a1.18,1.18,0,0,1-.19-.11L54,73l-.67-.34-.23-.11-.05,0c-.56-.26-1.14-.5-1.71-.7h0l-.47-.14h0l-.39-.1h0l-.15,0L50,71.47a.19.19,0,0,1-.15-.19s0,0,0,0v0a.23.23,0,0,1,.07-.1.18.18,0,0,1,.17-.06C53.5,71.74,57.11,74.33,58.87,75.74Z" transform="translate(-27.3 -41.27)"/><path class="cls-7" d="M58.68,76.12c.62.5,1,.83,1,.84a.2.2,0,0,0,.14.06s.06,0,.09,0,0,0,.06,0a.22.22,0,0,0,0-.3l-.22-.19C59.39,76.33,59,76.22,58.68,76.12Z" transform="translate(-27.3 -41.27)"/><path class="cls-7" d="M67.68,81.44s-.4-.35-1-.85l-3.53-2.1-.38.35L68.22,82l-.3-.52a.19.19,0,0,1-.1,0A.2.2,0,0,1,67.68,81.44Z" transform="translate(-27.3 -41.27)"/><path class="cls-7" d="M58,75.56a.31.31,0,0,0-.09.07s0,0,0,.07A.2.2,0,0,0,58,76l.7.17c.35.1.71.21,1.07.34a27.24,27.24,0,0,1,6.91,4.13c.62.5,1,.84,1,.85a.2.2,0,0,0,.14.06.19.19,0,0,0,.1,0s0,0,.06,0a.22.22,0,0,0,0-.3c-.2-.18-4.65-4.16-9.09-5.39a8,8,0,0,0-.81-.2S58,75.55,58,75.56Z" transform="translate(-27.3 -41.27)"/></svg>