<svg id="Capa_1" data-name="Capa 1" xmlns="http://www.w3.org/2000/svg" viewBox="0 0 85.43 79.07"><defs><style>.cls-1{fill:#534f52;}.cls-2{fill:#2e2a2c;}.cls-3{fill:#b3b3b2;}.cls-4{fill:#c6c6c8;}.cls-5{fill:#1e1b1a;}.cls-6{fill:#a52822;}.cls-7{fill:#585857;}.cls-8{fill:#e5e4e4;}.cls-9{fill:#3e3e3d;}.cls-10{fill:#2d292b;}.cls-11{fill:#929394;}.cls-12{fill:#524c50;}.cls-13{fill:#cbcaca;}.cls-14,.cls-15{fill:#fff;}.cls-14{fill-rule:evenodd;}.cls-16{fill:#30281f;}.cls-17{fill:#858586;}.cls-18{fill:none;stroke:#b3b3b2;stroke-miterlimit:22.93;stroke-width:0.22px;}</style></defs><polygon class="cls-1" points="79.35 45.3 79.35 48 78.08 46.05 79.35 45.3"/><polygon class="cls-2" points="79.35 48 59.1 36.23 57.75 34.27 78.08 46.05 79.35 48"/><polygon class="cls-3" points="85.42 36.67 83.85 37.58 83.85 33.52 85.35 32.7 85.42 36.67"/><path class="cls-4" d="M125.15,94.81c1.42-.82,2.55-.15,2.55,1.43a5.59,5.59,0,0,1-2.55,4.42c-1.43.83-2.55.15-2.55-1.42a5.7,5.7,0,0,1,2.55-4.43" transform="translate(-51.57 -49.14)"/><path class="cls-5" d="M122,103.21,101.75,91.44a3,3,0,0,1-1.28-2.85,10,10,0,0,1,4.43-7.73l20.32,11.78a9.57,9.57,0,0,0-4.42,7.72,2.8,2.8,0,0,0,1.2,2.85" transform="translate(-51.57 -49.14)"/><path class="cls-1" d="M125.15,91.21c3.15-1.8,5.77-.37,5.77,3.3l-1.27.75c0-2.85-2-4-4.5-2.55a9.61,9.61,0,0,0-4.43,7.73l-1.27.75a12.59,12.59,0,0,1,5.7-10" transform="translate(-51.57 -49.14)"/><path class="cls-5" d="M125.15,100.74a5.62,5.62,0,0,0,2.55-4.43c0-1.65-1.13-2.25-2.55-1.42a5.56,5.56,0,0,0-2.55,4.42C122.6,100.89,123.8,101.49,125.15,100.74Zm0-8.1c2.47-1.43,4.5-.3,4.5,2.55a10,10,0,0,1-4.43,7.72c-2.47,1.43-4.5.3-4.5-2.55A9.76,9.76,0,0,1,125.15,92.64Z" transform="translate(-51.57 -49.14)"/><path class="cls-6" d="M119.45,101.11l1.27-.75Z" transform="translate(-51.57 -49.14)"/><path class="cls-3" d="M137,91l-6.08,3.52c0-3.67-2.62-5.1-5.77-3.3a12.46,12.46,0,0,0-5.7,9.9L95.82,114.76V92h0V84.69L137,60.91V81.84l-1.5.9v4l1.5-.9V91Z" transform="translate(-51.57 -49.14)"/><path class="cls-6" d="M95.75,92v0Z" transform="translate(-51.57 -49.14)"/><path class="cls-6" d="M95.75,92v0Z" transform="translate(-51.57 -49.14)"/><polygon class="cls-7" points="44.25 62.02 23.93 50.17 23.85 23.77 44.17 35.55 44.25 62.02"/><polygon class="cls-8" points="44.17 35.55 23.85 23.77 65.03 0 85.35 11.78 44.17 35.55"/><polygon class="cls-9" points="42.98 62.7 22.65 50.92 23.93 50.17 44.25 62.02 42.98 62.7"/><polygon class="cls-3" points="44.25 62.02 44.25 65.63 42.98 66.3 42.98 62.7 44.25 62.02"/><polygon class="cls-10" points="36.6 72.67 16.27 60.9 15 58.95 35.33 70.72 36.6 72.67"/><polygon class="cls-1" points="36.6 69.97 36.6 72.67 35.33 70.72 36.6 69.97"/><path class="cls-4" d="M82.4,119.49c1.42-.83,2.55-.15,2.55,1.5a5.59,5.59,0,0,1-2.55,4.42c-1.43.83-2.55.15-2.55-1.42a5.7,5.7,0,0,1,2.55-4.5" transform="translate(-51.57 -49.14)"/><path class="cls-5" d="M79.25,127.89C72.5,124,65.75,120,59,116.11a3,3,0,0,1-1.28-2.85,10,10,0,0,1,4.43-7.72l20.32,11.77A9.6,9.6,0,0,0,78.05,125a2.81,2.81,0,0,0,1.2,2.85" transform="translate(-51.57 -49.14)"/><path class="cls-5" d="M82.4,125.41A5.59,5.59,0,0,0,85,121c0-1.65-1.13-2.25-2.55-1.5a5.56,5.56,0,0,0-2.55,4.42C79.85,125.56,81.05,126.24,82.4,125.41Zm0-8.1c2.47-1.42,4.5-.3,4.5,2.55a10,10,0,0,1-4.43,7.73C80,129,78,127.89,78,125A9.79,9.79,0,0,1,82.4,117.31Z" transform="translate(-51.57 -49.14)"/><path class="cls-1" d="M82.4,115.89c3.15-1.8,5.77-.38,5.77,3.3l-1.27.75c0-2.85-2-4-4.5-2.55A9.58,9.58,0,0,0,78,125.11l-1.27.75a12.57,12.57,0,0,1,5.7-10" transform="translate(-51.57 -49.14)"/><polygon class="cls-11" points="21.82 78.53 1.57 66.75 1.5 62.4 21.82 74.17 21.82 78.53"/><path class="cls-3" d="M72.42,128.11,52.1,116.34c-.3-.15-.53-.9-.53-1.58s.3-2.55.75-2.77a6.05,6.05,0,0,0,.75-.45L73.4,123.31a4.87,4.87,0,0,1-.75.45c-.45.23-.75,1.95-.75,2.78,0,.67.22,1.42.52,1.57" transform="translate(-51.57 -49.14)"/><path class="cls-3" d="M73.4,123.31v4.35l-.75.45c-.45.23-.75-.75-.75-1.57s.3-2.55.75-2.78l.75-.45" transform="translate(-51.57 -49.14)"/><polygon class="cls-3" points="21.82 74.17 1.5 62.4 1.5 57.83 21.82 69.6 21.82 74.17"/><polygon class="cls-12" points="21.82 69.6 1.5 57.83 6.3 43.42 26.63 55.27 21.82 69.6"/><path class="cls-8" d="M73.62,82a1.29,1.29,0,0,0-1.35.15l-12.45,7.2,20.25,11.77,12.45-7.2a1.51,1.51,0,0,1,1.35-.15Z" transform="translate(-51.57 -49.14)"/><path class="cls-3" d="M91.55,105.84v-8.7l-10,5.77-3.08,10.5Zm1-11.93c1-.6,2-.15,2,1.13l.08,20.47-6.38,3.68c0-3.68-2.62-5.1-5.77-3.3a12.67,12.67,0,0,0-5.7,9.9l-3.3,1.87v-8.92l4.8-14.33c.52-1.42.82-2.7,1.87-3.3Z" transform="translate(-51.57 -49.14)"/><path class="cls-13" d="M78.2,104.41,57.87,92.64c.53-1.43.83-2.7,1.88-3.3L80,101.11c-1,.6-1.28,1.88-1.8,3.3" transform="translate(-51.57 -49.14)"/><polygon class="cls-2" points="13.05 64.65 12.6 63.9 7.88 61.13 7.5 61.42 13.05 64.65"/><path class="cls-2" d="M64.17,113.26c-.07,0-.07,0-.15-.07s-5.17-4.65-9.82-5.55c-.15,0-.23-.15-.15-.23s.15-.15.22-.15c4.73,1,9.83,5.48,10,5.63a.24.24,0,0,1,0,.3c.07.07,0,.07-.08.07" transform="translate(-51.57 -49.14)"/><polygon class="cls-2" points="21.15 69.15 20.7 68.47 15.97 65.63 15.6 66 21.15 69.15"/><path class="cls-2" d="M72.27,117.84c-.07,0-.07,0-.15-.08s-5.17-4.65-9.82-5.55c-.15,0-.23-.15-.15-.22s.15-.23.22-.15c4.73,1,9.83,5.47,10,5.62a.24.24,0,0,1,0,.3c.07,0,0,.08-.08.08" transform="translate(-51.57 -49.14)"/><path class="cls-14" d="M70.62,117.54a4.46,4.46,0,0,1,2.1,3.6c0,3.37-4.35.67-4.35-2.25,0-1.43,1-2,2.25-1.35" transform="translate(-51.57 -49.14)"/><path class="cls-14" d="M70.92,117.84a4,4,0,0,1,1.8,3.07c0,2.93-3.75.6-3.75-2a1.21,1.21,0,0,1,2-1.12" transform="translate(-51.57 -49.14)"/><path class="cls-5" d="M70.92,117.84a4,4,0,0,1,1.8,3.07c0,2.93-3.75.6-3.75-2a1.21,1.21,0,0,1,2-1.12" transform="translate(-51.57 -49.14)"/><path class="cls-5" d="M70.92,117.84a4,4,0,0,1,1.8,3.07c0,2.93-3.75.6-3.75-2a1.21,1.21,0,0,1,2-1.12" transform="translate(-51.57 -49.14)"/><path class="cls-15" d="M72.65,119c.6,1.28.45,2.55-.3,2.93s-1.88-.3-2.55-1.58-.45-2.55.3-2.92,2,.37,2.55,1.57" transform="translate(-51.57 -49.14)"/><path class="cls-5" d="M70.92,117.84a4,4,0,0,1,1.8,3.07c0,2.93-3.75.6-3.75-2a1.21,1.21,0,0,1,2-1.12" transform="translate(-51.57 -49.14)"/><path class="cls-15" d="M72.65,119c.6,1.2.45,2.55-.3,2.92s-1.88-.3-2.48-1.5-.45-2.55.3-2.92,1.88.22,2.48,1.5" transform="translate(-51.57 -49.14)"/><path class="cls-5" d="M70.92,117.84a4,4,0,0,1,1.8,3.07c0,2.93-3.75.6-3.75-2a1.21,1.21,0,0,1,2-1.12" transform="translate(-51.57 -49.14)"/><path class="cls-15" d="M72.65,119c.6,1.2.45,2.47-.3,2.85s-1.8-.3-2.4-1.5-.45-2.48.3-2.85,1.8.3,2.4,1.5" transform="translate(-51.57 -49.14)"/><path class="cls-5" d="M70.92,117.84a4,4,0,0,1,1.8,3.07c0,2.93-3.75.6-3.75-2a1.21,1.21,0,0,1,2-1.12" transform="translate(-51.57 -49.14)"/><path class="cls-15" d="M72.57,119c.6,1.2.45,2.4-.3,2.77s-1.8-.3-2.32-1.5-.45-2.4.3-2.77,1.8.3,2.32,1.5" transform="translate(-51.57 -49.14)"/><path class="cls-5" d="M70.92,117.84a4,4,0,0,1,1.8,3.07c0,2.93-3.75.6-3.75-2a1.21,1.21,0,0,1,2-1.12" transform="translate(-51.57 -49.14)"/><path class="cls-15" d="M72.57,119c.53,1.12.45,2.4-.3,2.7s-1.72-.3-2.32-1.43-.45-2.4.3-2.7,1.72.3,2.32,1.43" transform="translate(-51.57 -49.14)"/><path class="cls-5" d="M70.92,117.84a4,4,0,0,1,1.8,3.07c0,2.93-3.75.6-3.75-2a1.21,1.21,0,0,1,2-1.12" transform="translate(-51.57 -49.14)"/><path class="cls-15" d="M72.57,119c.53,1.12.45,2.32-.3,2.62s-1.72-.3-2.25-1.42-.45-2.33.3-2.63,1.65.3,2.25,1.43" transform="translate(-51.57 -49.14)"/><path class="cls-5" d="M70.92,117.84a4,4,0,0,1,1.8,3.07c0,2.93-3.75.6-3.75-2a1.21,1.21,0,0,1,2-1.12" transform="translate(-51.57 -49.14)"/><path class="cls-15" d="M72.5,119c.52,1.12.45,2.25-.23,2.62s-1.65-.3-2.25-1.35-.45-2.25.23-2.62S72,118,72.5,119" transform="translate(-51.57 -49.14)"/><path class="cls-5" d="M70.92,117.84a4,4,0,0,1,1.8,3.07c0,2.93-3.75.6-3.75-2a1.21,1.21,0,0,1,2-1.12" transform="translate(-51.57 -49.14)"/><path class="cls-15" d="M72.5,119.11c.52,1,.45,2.18-.23,2.55s-1.65-.3-2.17-1.35-.45-2.25.22-2.55,1.65.23,2.18,1.35" transform="translate(-51.57 -49.14)"/><path class="cls-5" d="M70.92,117.84a4,4,0,0,1,1.8,3.07c0,2.93-3.75.6-3.75-2a1.21,1.21,0,0,1,2-1.12" transform="translate(-51.57 -49.14)"/><path class="cls-15" d="M72.5,119.11c.52,1,.37,2.18-.23,2.48s-1.57-.3-2.1-1.35-.37-2.18.23-2.48,1.57.3,2.1,1.35" transform="translate(-51.57 -49.14)"/><path class="cls-5" d="M70.92,117.84a4,4,0,0,1,1.8,3.07c0,2.93-3.75.6-3.75-2a1.21,1.21,0,0,1,2-1.12" transform="translate(-51.57 -49.14)"/><path class="cls-15" d="M72.42,119.11c.53,1,.38,2.1-.22,2.4s-1.58-.3-2.1-1.27-.38-2.1.22-2.4,1.58.22,2.1,1.27" transform="translate(-51.57 -49.14)"/><path class="cls-5" d="M70.92,117.84a4,4,0,0,1,1.8,3.07c0,2.93-3.75.6-3.75-2a1.21,1.21,0,0,1,2-1.12" transform="translate(-51.57 -49.14)"/><path class="cls-15" d="M72.42,119.11c.53,1,.38,2.1-.22,2.4s-1.5-.22-2-1.27a1.84,1.84,0,0,1,.23-2.4c.6-.3,1.5.3,2,1.27" transform="translate(-51.57 -49.14)"/><path class="cls-5" d="M70.92,117.84a4,4,0,0,1,1.8,3.07c0,2.93-3.75.6-3.75-2a1.21,1.21,0,0,1,2-1.12" transform="translate(-51.57 -49.14)"/><path class="cls-15" d="M72.35,119.11c.45,1,.37,2-.23,2.33s-1.5-.23-2-1.2-.37-2,.23-2.33,1.5.23,1.95,1.2" transform="translate(-51.57 -49.14)"/><path class="cls-5" d="M70.92,117.84a4,4,0,0,1,1.8,3.07c0,2.93-3.75.6-3.75-2a1.21,1.21,0,0,1,2-1.12" transform="translate(-51.57 -49.14)"/><path class="cls-15" d="M72.35,119.19c.45,1,.37,2-.23,2.25s-1.42-.23-2-1.2-.37-1.95.23-2.25,1.5.22,1.95,1.2" transform="translate(-51.57 -49.14)"/><path class="cls-5" d="M70.92,117.84a4,4,0,0,1,1.8,3.07c0,2.93-3.75.6-3.75-2a1.21,1.21,0,0,1,2-1.12" transform="translate(-51.57 -49.14)"/><path class="cls-15" d="M72.35,119.19c.45.9.37,1.87-.23,2.17s-1.42-.22-1.87-1.2-.38-1.87.22-2.17,1.43.22,1.88,1.2" transform="translate(-51.57 -49.14)"/><path class="cls-5" d="M70.92,117.84a4,4,0,0,1,1.8,3.07c0,2.93-3.75.6-3.75-2a1.21,1.21,0,0,1,2-1.12" transform="translate(-51.57 -49.14)"/><path class="cls-15" d="M72.27,119.19c.45.9.38,1.87-.22,2.17s-1.35-.22-1.8-1.12-.38-1.88.22-2.1c.6-.38,1.35.15,1.8,1" transform="translate(-51.57 -49.14)"/><path class="cls-5" d="M70.92,117.84a4,4,0,0,1,1.8,3.07c0,2.93-3.75.6-3.75-2a1.21,1.21,0,0,1,2-1.12" transform="translate(-51.57 -49.14)"/><path class="cls-15" d="M72.27,119.19c.45.9.38,1.8-.22,2.1s-1.35-.23-1.8-1.13-.38-1.8.22-2.1,1.35.23,1.8,1.13" transform="translate(-51.57 -49.14)"/><path class="cls-5" d="M70.92,117.84a4,4,0,0,1,1.8,3.07c0,2.93-3.75.6-3.75-2a1.21,1.21,0,0,1,2-1.12" transform="translate(-51.57 -49.14)"/><path class="cls-15" d="M72.27,119.19a1.52,1.52,0,0,1-.22,2c-.53.23-1.28-.22-1.73-1s-.3-1.8.23-2,1.27.22,1.72,1" transform="translate(-51.57 -49.14)"/><path class="cls-5" d="M70.92,117.84a4,4,0,0,1,1.8,3.07c0,2.93-3.75.6-3.75-2a1.21,1.21,0,0,1,2-1.12" transform="translate(-51.57 -49.14)"/><path class="cls-15" d="M72.2,119.19c.37.82.3,1.72-.23,2s-1.27-.23-1.65-1-.3-1.73.23-2,1.27.22,1.65,1" transform="translate(-51.57 -49.14)"/><path class="cls-5" d="M70.92,117.84a4,4,0,0,1,1.8,3.07c0,2.93-3.75.6-3.75-2a1.21,1.21,0,0,1,2-1.12" transform="translate(-51.57 -49.14)"/><path class="cls-15" d="M72.2,119.26c.37.83.3,1.65-.23,1.88s-1.2-.23-1.65-1-.3-1.65.23-1.87,1.27.15,1.65,1" transform="translate(-51.57 -49.14)"/><path class="cls-5" d="M70.92,117.84a4,4,0,0,1,1.8,3.07c0,2.93-3.75.6-3.75-2a1.21,1.21,0,0,1,2-1.12" transform="translate(-51.57 -49.14)"/><path class="cls-15" d="M72.2,119.26a1.52,1.52,0,0,1-.15,1.88c-.53.22-1.2-.23-1.58-1a1.51,1.51,0,0,1,.15-1.87c.45-.23,1.13.15,1.58,1" transform="translate(-51.57 -49.14)"/><path class="cls-5" d="M70.92,117.84a4,4,0,0,1,1.8,3.07c0,2.93-3.75.6-3.75-2a1.21,1.21,0,0,1,2-1.12" transform="translate(-51.57 -49.14)"/><path class="cls-15" d="M72.12,119.26c.38.75.3,1.58-.15,1.8s-1.12-.22-1.5-1-.3-1.58.15-1.8,1.13.22,1.5,1" transform="translate(-51.57 -49.14)"/><path class="cls-5" d="M70.92,117.84a4,4,0,0,1,1.8,3.07c0,2.93-3.75.6-3.75-2a1.21,1.21,0,0,1,2-1.12" transform="translate(-51.57 -49.14)"/><path class="cls-15" d="M72.12,119.26c.38.75.3,1.5-.15,1.73s-1.12-.15-1.5-.9-.3-1.5.15-1.73,1.13.15,1.5.9" transform="translate(-51.57 -49.14)"/><path class="cls-5" d="M70.92,117.84a4,4,0,0,1,1.8,3.07c0,2.93-3.75.6-3.75-2a1.21,1.21,0,0,1,2-1.12" transform="translate(-51.57 -49.14)"/><path class="cls-15" d="M72.05,119.26c.37.68.3,1.43-.15,1.65s-1.05-.15-1.43-.9-.3-1.42.15-1.65a1.36,1.36,0,0,1,1.43.9" transform="translate(-51.57 -49.14)"/><path class="cls-5" d="M70.92,117.84a4,4,0,0,1,1.8,3.07c0,2.93-3.75.6-3.75-2a1.21,1.21,0,0,1,2-1.12" transform="translate(-51.57 -49.14)"/><path class="cls-15" d="M72.05,119.34c.3.67.22,1.42-.15,1.65s-1.05-.15-1.35-.83-.3-1.42.15-1.65,1,.08,1.35.83" transform="translate(-51.57 -49.14)"/><path class="cls-5" d="M70.92,117.84a4,4,0,0,1,1.8,3.07c0,2.93-3.75.6-3.75-2a1.21,1.21,0,0,1,2-1.12" transform="translate(-51.57 -49.14)"/><path class="cls-15" d="M72.05,119.34c.3.67.22,1.35-.15,1.57s-1-.15-1.35-.82-.23-1.35.15-1.58,1,.15,1.35.83" transform="translate(-51.57 -49.14)"/><path class="cls-5" d="M70.92,117.84a4,4,0,0,1,1.8,3.07c0,2.93-3.75.6-3.75-2a1.21,1.21,0,0,1,2-1.12" transform="translate(-51.57 -49.14)"/><path class="cls-15" d="M72,119.34a1.18,1.18,0,0,1-.15,1.5c-.37.22-1-.15-1.27-.83a1.18,1.18,0,0,1,.15-1.5c.37-.15,1,.15,1.27.83" transform="translate(-51.57 -49.14)"/><path class="cls-5" d="M70.92,117.84a4,4,0,0,1,1.8,3.07c0,2.93-3.75.6-3.75-2a1.21,1.21,0,0,1,2-1.12" transform="translate(-51.57 -49.14)"/><path class="cls-15" d="M72,119.34c.3.6.23,1.27-.15,1.42s-.9-.15-1.2-.75-.22-1.27.15-1.42.9.15,1.2.75" transform="translate(-51.57 -49.14)"/><path class="cls-5" d="M70.92,117.84a4,4,0,0,1,1.8,3.07c0,2.93-3.75.6-3.75-2a1.21,1.21,0,0,1,2-1.12" transform="translate(-51.57 -49.14)"/><path class="cls-15" d="M72,119.34c.3.6.23,1.2-.15,1.42s-.9-.15-1.2-.75-.22-1.2.15-1.42.9.15,1.2.75" transform="translate(-51.57 -49.14)"/><path class="cls-5" d="M70.92,117.84a4,4,0,0,1,1.8,3.07c0,2.93-3.75.6-3.75-2a1.21,1.21,0,0,1,2-1.12" transform="translate(-51.57 -49.14)"/><path class="cls-15" d="M71.9,119.34a1,1,0,0,1-.15,1.35c-.38.15-.83-.15-1.13-.68a1,1,0,0,1,.15-1.35,1,1,0,0,1,1.13.68" transform="translate(-51.57 -49.14)"/><path class="cls-5" d="M70.92,117.84a4,4,0,0,1,1.8,3.07c0,2.93-3.75.6-3.75-2a1.21,1.21,0,0,1,2-1.12" transform="translate(-51.57 -49.14)"/><path class="cls-15" d="M71.9,119.41c.22.53.22,1.13-.15,1.28s-.83-.15-1-.68-.23-1.12.15-1.27.75.07,1.05.67" transform="translate(-51.57 -49.14)"/><path class="cls-5" d="M70.92,117.84a4,4,0,0,1,1.8,3.07c0,2.93-3.75.6-3.75-2a1.21,1.21,0,0,1,2-1.12" transform="translate(-51.57 -49.14)"/><path class="cls-15" d="M71.82,119.41c.23.53.23,1-.15,1.2s-.75-.15-1-.67-.22-1,.15-1.2.83.15,1,.67" transform="translate(-51.57 -49.14)"/><path class="cls-5" d="M70.92,117.84a4,4,0,0,1,1.8,3.07c0,2.93-3.75.6-3.75-2a1.21,1.21,0,0,1,2-1.12" transform="translate(-51.57 -49.14)"/><path class="cls-15" d="M71.82,119.41c.23.53.23,1-.15,1.13s-.75-.15-1-.6-.23-1,.15-1.13.75.08,1,.6" transform="translate(-51.57 -49.14)"/><path class="cls-5" d="M70.92,117.84a4,4,0,0,1,1.8,3.07c0,2.93-3.75.6-3.75-2a1.21,1.21,0,0,1,2-1.12" transform="translate(-51.57 -49.14)"/><path class="cls-15" d="M71.82,119.41a1,1,0,0,1-.07,1.13c-.3.15-.68-.15-.9-.6a1,1,0,0,1,.07-1.13c.23-.15.68.15.9.6" transform="translate(-51.57 -49.14)"/><path class="cls-5" d="M70.92,117.84a4,4,0,0,1,1.8,3.07c0,2.93-3.75.6-3.75-2a1.21,1.21,0,0,1,2-1.12" transform="translate(-51.57 -49.14)"/><path class="cls-15" d="M71.75,119.41a.85.85,0,0,1-.08,1c-.3.15-.67-.15-.9-.52a.85.85,0,0,1,.08-1c.3-.15.67.07.9.52" transform="translate(-51.57 -49.14)"/><path class="cls-5" d="M70.92,117.84a4,4,0,0,1,1.8,3.07c0,2.93-3.75.6-3.75-2a1.21,1.21,0,0,1,2-1.12" transform="translate(-51.57 -49.14)"/><path class="cls-15" d="M71.75,119.41c.22.45.15.83-.08,1s-.6-.08-.82-.53-.15-.82.07-1,.6.15.83.52" transform="translate(-51.57 -49.14)"/><path class="cls-5" d="M70.92,117.84a4,4,0,0,1,1.8,3.07c0,2.93-3.75.6-3.75-2a1.21,1.21,0,0,1,2-1.12" transform="translate(-51.57 -49.14)"/><path class="cls-15" d="M71.75,119.49c.22.37.15.82-.08.9s-.6-.08-.82-.53-.15-.82.07-.9.6.08.83.53" transform="translate(-51.57 -49.14)"/><path class="cls-5" d="M70.92,117.84a4,4,0,0,1,1.8,3.07c0,2.93-3.75.6-3.75-2a1.21,1.21,0,0,1,2-1.12" transform="translate(-51.57 -49.14)"/><path class="cls-15" d="M71.67,119.49c.15.37.15.75-.07.9s-.53-.08-.75-.45-.15-.75.07-.9.6.07.75.45" transform="translate(-51.57 -49.14)"/><path class="cls-5" d="M70.92,117.84a4,4,0,0,1,1.8,3.07c0,2.93-3.75.6-3.75-2a1.21,1.21,0,0,1,2-1.12" transform="translate(-51.57 -49.14)"/><path class="cls-15" d="M71.67,119.49c.15.37.15.67-.07.82s-.53-.07-.68-.45-.15-.67.08-.82.52.15.67.45" transform="translate(-51.57 -49.14)"/><path class="cls-5" d="M70.92,117.84a4,4,0,0,1,1.8,3.07c0,2.93-3.75.6-3.75-2a1.21,1.21,0,0,1,2-1.12" transform="translate(-51.57 -49.14)"/><path class="cls-15" d="M71.67,119.49c.15.3.15.67-.07.75s-.45-.08-.68-.38-.15-.67.08-.75.45.08.67.38" transform="translate(-51.57 -49.14)"/><path class="cls-5" d="M70.92,117.84a4,4,0,0,1,1.8,3.07c0,2.93-3.75.6-3.75-2a1.21,1.21,0,0,1,2-1.12" transform="translate(-51.57 -49.14)"/><path class="cls-15" d="M71.6,119.49c.15.3.15.6-.08.67s-.45-.07-.6-.37-.15-.6.08-.68.45.08.6.38" transform="translate(-51.57 -49.14)"/><path class="cls-5" d="M70.92,117.84a4,4,0,0,1,1.8,3.07c0,2.93-3.75.6-3.75-2a1.21,1.21,0,0,1,2-1.12" transform="translate(-51.57 -49.14)"/><path class="cls-15" d="M71.6,119.56c.15.3.07.53-.08.6s-.37-.07-.52-.3-.08-.52.07-.6.38,0,.53.3" transform="translate(-51.57 -49.14)"/><path class="cls-5" d="M70.92,117.84a4,4,0,0,1,1.8,3.07c0,2.93-3.75.6-3.75-2a1.21,1.21,0,0,1,2-1.12" transform="translate(-51.57 -49.14)"/><path class="cls-15" d="M71.52,119.56a.44.44,0,0,1-.07.6c-.15.08-.38-.07-.53-.3a.44.44,0,0,1,.08-.6.43.43,0,0,1,.52.3" transform="translate(-51.57 -49.14)"/><path class="cls-5" d="M70.92,117.84a4,4,0,0,1,1.8,3.07c0,2.93-3.75.6-3.75-2a1.21,1.21,0,0,1,2-1.12" transform="translate(-51.57 -49.14)"/><path class="cls-15" d="M71.52,119.56c.08.23.08.45-.07.53s-.3-.08-.45-.3-.08-.45.07-.53.38.08.45.3" transform="translate(-51.57 -49.14)"/><path class="cls-5" d="M70.92,117.84a4,4,0,0,1,1.8,3.07c0,2.93-3.75.6-3.75-2a1.21,1.21,0,0,1,2-1.12" transform="translate(-51.57 -49.14)"/><path class="cls-15" d="M71.52,119.56c.08.23.08.38-.07.45s-.3-.07-.38-.22-.07-.38.08-.45.22.07.37.22" transform="translate(-51.57 -49.14)"/><path class="cls-5" d="M70.92,117.84a4,4,0,0,1,1.8,3.07c0,2.93-3.75.6-3.75-2a1.21,1.21,0,0,1,2-1.12" transform="translate(-51.57 -49.14)"/><path class="cls-15" d="M71.45,119.56c.07.15.07.38-.08.38s-.22-.08-.37-.23-.08-.37.07-.37a.42.42,0,0,1,.38.22" transform="translate(-51.57 -49.14)"/><path class="cls-5" d="M70.92,117.84a4,4,0,0,1,1.8,3.07c0,2.93-3.75.6-3.75-2a1.21,1.21,0,0,1,2-1.12" transform="translate(-51.57 -49.14)"/><path class="cls-15" d="M71.45,119.64a.34.34,0,0,1,0,.37c-.08.08-.23,0-.3-.15s-.08-.3,0-.37.22,0,.3.15" transform="translate(-51.57 -49.14)"/><path class="cls-5" d="M70.92,117.84a4,4,0,0,1,1.8,3.07c0,2.93-3.75.6-3.75-2a1.21,1.21,0,0,1,2-1.12" transform="translate(-51.57 -49.14)"/><path class="cls-15" d="M71.45,119.64c.07.15.07.22,0,.3s-.15,0-.23-.15-.07-.23,0-.3.15,0,.23.15" transform="translate(-51.57 -49.14)"/><path class="cls-5" d="M70.92,117.84a4,4,0,0,1,1.8,3.07c0,2.93-3.75.6-3.75-2a1.21,1.21,0,0,1,2-1.12" transform="translate(-51.57 -49.14)"/><path class="cls-15" d="M71.37,119.64c.08.07,0,.22,0,.22s-.15,0-.22-.15,0-.22,0-.22.22.07.22.15" transform="translate(-51.57 -49.14)"/><path class="cls-5" d="M70.92,117.84a4,4,0,0,1,1.8,3.07c0,2.93-3.75.6-3.75-2a1.21,1.21,0,0,1,2-1.12" transform="translate(-51.57 -49.14)"/><path class="cls-15" d="M71.37,119.64v.15c-.07,0-.07,0-.15-.08v-.15c.08-.07.08,0,.15.08" transform="translate(-51.57 -49.14)"/><path class="cls-5" d="M70.92,117.84a4,4,0,0,1,1.8,3.07c0,2.93-3.75.6-3.75-2a1.21,1.21,0,0,1,2-1.12" transform="translate(-51.57 -49.14)"/><path class="cls-15" d="M71.3,119.64v.15c0,.07-.08,0-.08-.08v-.15a.08.08,0,0,1,.08.08" transform="translate(-51.57 -49.14)"/><path class="cls-9" d="M70.92,117.84a4,4,0,0,1,1.8,3.07c0,2.93-3.75.6-3.75-2a1.21,1.21,0,0,1,2-1.12" transform="translate(-51.57 -49.14)"/><path class="cls-15" d="M71.3,119.64h0" transform="translate(-51.57 -49.14)"/><path class="cls-14" d="M55.55,109a3.85,3.85,0,0,1,1.8,3.15c0,3-3.83.6-3.83-2a1.26,1.26,0,0,1,2-1.2" transform="translate(-51.57 -49.14)"/><path class="cls-14" d="M55.77,109.29a3.42,3.42,0,0,1,1.58,2.7c0,2.55-3.3.52-3.3-1.73.07-1.05.82-1.5,1.72-1" transform="translate(-51.57 -49.14)"/><path class="cls-5" d="M55.77,109.29a3.42,3.42,0,0,1,1.58,2.7c0,2.55-3.3.52-3.3-1.73.07-1.05.82-1.5,1.72-1" transform="translate(-51.57 -49.14)"/><path class="cls-5" d="M55.77,109.29a3.42,3.42,0,0,1,1.58,2.7c0,2.55-3.3.52-3.3-1.73.07-1.05.82-1.5,1.72-1" transform="translate(-51.57 -49.14)"/><path class="cls-15" d="M57.35,110.26c.52,1.13.45,2.25-.23,2.63s-1.65-.3-2.25-1.35-.45-2.25.23-2.63,1.72.23,2.25,1.35" transform="translate(-51.57 -49.14)"/><path class="cls-5" d="M55.77,109.29a3.42,3.42,0,0,1,1.58,2.7c0,2.55-3.3.52-3.3-1.73.07-1.05.82-1.5,1.72-1" transform="translate(-51.57 -49.14)"/><path class="cls-15" d="M57.35,110.26c.52,1,.45,2.25-.23,2.55s-1.65-.3-2.17-1.35-.45-2.25.22-2.55,1.65.3,2.18,1.35" transform="translate(-51.57 -49.14)"/><path class="cls-5" d="M55.77,109.29a3.42,3.42,0,0,1,1.58,2.7c0,2.55-3.3.52-3.3-1.73.07-1.05.82-1.5,1.72-1" transform="translate(-51.57 -49.14)"/><path class="cls-15" d="M57.35,110.26c.52,1,.37,2.18-.23,2.48s-1.65-.3-2.1-1.35-.37-2.18.23-2.48,1.57.3,2.1,1.35" transform="translate(-51.57 -49.14)"/><path class="cls-5" d="M55.77,109.29a3.42,3.42,0,0,1,1.58,2.7c0,2.55-3.3.52-3.3-1.73.07-1.05.82-1.5,1.72-1" transform="translate(-51.57 -49.14)"/><path class="cls-15" d="M57.27,110.34c.53,1,.38,2.1-.22,2.47s-1.58-.3-2.1-1.27-.38-2.1.22-2.48,1.65.23,2.1,1.28" transform="translate(-51.57 -49.14)"/><path class="cls-5" d="M55.77,109.29a3.42,3.42,0,0,1,1.58,2.7c0,2.55-3.3.52-3.3-1.73.07-1.05.82-1.5,1.72-1" transform="translate(-51.57 -49.14)"/><path class="cls-15" d="M57.27,110.34c.53,1,.38,2.1-.22,2.4s-1.58-.23-2-1.28-.37-2.1.23-2.4,1.5.23,2,1.28" transform="translate(-51.57 -49.14)"/><path class="cls-5" d="M55.77,109.29a3.42,3.42,0,0,1,1.58,2.7c0,2.55-3.3.52-3.3-1.73.07-1.05.82-1.5,1.72-1" transform="translate(-51.57 -49.14)"/><path class="cls-15" d="M57.27,110.34c.45,1,.38,2-.22,2.32s-1.5-.22-2-1.27-.37-2,.23-2.33,1.5.3,2,1.28" transform="translate(-51.57 -49.14)"/><path class="cls-5" d="M55.77,109.29a3.42,3.42,0,0,1,1.58,2.7c0,2.55-3.3.52-3.3-1.73.07-1.05.82-1.5,1.72-1" transform="translate(-51.57 -49.14)"/><path class="cls-15" d="M57.2,110.34c.45,1,.37,2-.23,2.32s-1.5-.22-1.95-1.2-.37-2,.23-2.32,1.5.22,2,1.2" transform="translate(-51.57 -49.14)"/><path class="cls-5" d="M55.77,109.29a3.42,3.42,0,0,1,1.58,2.7c0,2.55-3.3.52-3.3-1.73.07-1.05.82-1.5,1.72-1" transform="translate(-51.57 -49.14)"/><path class="cls-15" d="M57.2,110.34c.45,1,.37,2-.23,2.25s-1.42-.23-1.95-1.2-.37-2,.23-2.25,1.5.3,2,1.2" transform="translate(-51.57 -49.14)"/><path class="cls-5" d="M55.77,109.29a3.42,3.42,0,0,1,1.58,2.7c0,2.55-3.3.52-3.3-1.73.07-1.05.82-1.5,1.72-1" transform="translate(-51.57 -49.14)"/><path class="cls-15" d="M57.2,110.34c.45.9.37,1.87-.23,2.17s-1.42-.22-1.87-1.2-.38-1.87.22-2.17,1.43.3,1.88,1.2" transform="translate(-51.57 -49.14)"/><path class="cls-5" d="M55.77,109.29a3.42,3.42,0,0,1,1.58,2.7c0,2.55-3.3.52-3.3-1.73.07-1.05.82-1.5,1.72-1" transform="translate(-51.57 -49.14)"/><path class="cls-15" d="M57.12,110.41c.45.9.38,1.88-.22,2.18s-1.35-.23-1.8-1.13-.38-1.87.22-2.17,1.35.15,1.8,1.12" transform="translate(-51.57 -49.14)"/><path class="cls-5" d="M55.77,109.29a3.42,3.42,0,0,1,1.58,2.7c0,2.55-3.3.52-3.3-1.73.07-1.05.82-1.5,1.72-1" transform="translate(-51.57 -49.14)"/><path class="cls-15" d="M57.12,110.41c.45.9.38,1.8-.22,2.1s-1.35-.22-1.8-1.12-.3-1.8.22-2.1,1.35.22,1.8,1.12" transform="translate(-51.57 -49.14)"/><path class="cls-5" d="M55.77,109.29a3.42,3.42,0,0,1,1.58,2.7c0,2.55-3.3.52-3.3-1.73.07-1.05.82-1.5,1.72-1" transform="translate(-51.57 -49.14)"/><path class="cls-15" d="M57.12,110.41c.45.83.3,1.8-.22,2s-1.35-.23-1.73-1-.3-1.8.23-2,1.27.15,1.72,1" transform="translate(-51.57 -49.14)"/><path class="cls-5" d="M55.77,109.29a3.42,3.42,0,0,1,1.58,2.7c0,2.55-3.3.52-3.3-1.73.07-1.05.82-1.5,1.72-1" transform="translate(-51.57 -49.14)"/><path class="cls-15" d="M57.05,110.41a1.52,1.52,0,0,1-.23,2c-.52.22-1.27-.23-1.72-1a1.53,1.53,0,0,1,.22-2c.6-.3,1.35.23,1.73,1" transform="translate(-51.57 -49.14)"/><path class="cls-5" d="M55.77,109.29a3.42,3.42,0,0,1,1.58,2.7c0,2.55-3.3.52-3.3-1.73.07-1.05.82-1.5,1.72-1" transform="translate(-51.57 -49.14)"/><path class="cls-15" d="M57.05,110.41c.37.83.3,1.65-.23,2s-1.27-.22-1.65-1-.3-1.65.23-2,1.27.23,1.65,1" transform="translate(-51.57 -49.14)"/><path class="cls-5" d="M55.77,109.29a3.42,3.42,0,0,1,1.58,2.7c0,2.55-3.3.52-3.3-1.73.07-1.05.82-1.5,1.72-1" transform="translate(-51.57 -49.14)"/><path class="cls-15" d="M57.05,110.41c.37.83.3,1.65-.23,1.88s-1.2-.23-1.57-1-.3-1.65.22-1.87,1.2.22,1.58,1" transform="translate(-51.57 -49.14)"/><path class="cls-5" d="M55.77,109.29a3.42,3.42,0,0,1,1.58,2.7c0,2.55-3.3.52-3.3-1.73.07-1.05.82-1.5,1.72-1" transform="translate(-51.57 -49.14)"/><path class="cls-15" d="M57,110.41c.38.75.3,1.58-.15,1.8s-1.2-.22-1.57-1-.3-1.58.15-1.8,1.2.22,1.57,1" transform="translate(-51.57 -49.14)"/><path class="cls-5" d="M55.77,109.29a3.42,3.42,0,0,1,1.58,2.7c0,2.55-3.3.52-3.3-1.73.07-1.05.82-1.5,1.72-1" transform="translate(-51.57 -49.14)"/><path class="cls-15" d="M57,110.49c.38.75.3,1.57-.15,1.8s-1.12-.23-1.5-1-.3-1.57.15-1.8,1.13.23,1.5,1" transform="translate(-51.57 -49.14)"/><path class="cls-5" d="M55.77,109.29a3.42,3.42,0,0,1,1.58,2.7c0,2.55-3.3.52-3.3-1.73.07-1.05.82-1.5,1.72-1" transform="translate(-51.57 -49.14)"/><path class="cls-15" d="M57,110.49c.38.75.3,1.5-.15,1.72s-1.12-.22-1.5-.9-.3-1.5.15-1.72,1.13.15,1.5.9" transform="translate(-51.57 -49.14)"/><path class="cls-5" d="M55.77,109.29a3.42,3.42,0,0,1,1.58,2.7c0,2.55-3.3.52-3.3-1.73.07-1.05.82-1.5,1.72-1" transform="translate(-51.57 -49.14)"/><path class="cls-15" d="M56.9,110.49c.37.67.3,1.5-.15,1.65s-1-.15-1.43-.9-.3-1.5.15-1.65,1.13.15,1.43.9" transform="translate(-51.57 -49.14)"/><path class="cls-5" d="M55.77,109.29a3.42,3.42,0,0,1,1.58,2.7c0,2.55-3.3.52-3.3-1.73.07-1.05.82-1.5,1.72-1" transform="translate(-51.57 -49.14)"/><path class="cls-15" d="M56.9,110.49c.37.67.3,1.42-.15,1.65s-1-.15-1.43-.9-.3-1.43.15-1.65a1.34,1.34,0,0,1,1.43.9" transform="translate(-51.57 -49.14)"/><path class="cls-5" d="M55.77,109.29a3.42,3.42,0,0,1,1.58,2.7c0,2.55-3.3.52-3.3-1.73.07-1.05.82-1.5,1.72-1" transform="translate(-51.57 -49.14)"/><path class="cls-15" d="M56.9,110.49c.3.67.22,1.35-.15,1.57s-1-.15-1.35-.82-.23-1.35.15-1.58,1,.15,1.35.83" transform="translate(-51.57 -49.14)"/><path class="cls-5" d="M55.77,109.29a3.42,3.42,0,0,1,1.58,2.7c0,2.55-3.3.52-3.3-1.73.07-1.05.82-1.5,1.72-1" transform="translate(-51.57 -49.14)"/><path class="cls-15" d="M56.9,110.49c.3.67.22,1.35-.15,1.5s-1-.15-1.28-.83-.22-1.35.15-1.5.9.23,1.28.83" transform="translate(-51.57 -49.14)"/><path class="cls-5" d="M55.77,109.29a3.42,3.42,0,0,1,1.58,2.7c0,2.55-3.3.52-3.3-1.73.07-1.05.82-1.5,1.72-1" transform="translate(-51.57 -49.14)"/><path class="cls-15" d="M56.82,110.56c.3.6.23,1.28-.15,1.5s-1-.15-1.27-.82-.23-1.28.15-1.5,1,.15,1.27.82" transform="translate(-51.57 -49.14)"/><path class="cls-5" d="M55.77,109.29a3.42,3.42,0,0,1,1.58,2.7c0,2.55-3.3.52-3.3-1.73.07-1.05.82-1.5,1.72-1" transform="translate(-51.57 -49.14)"/><path class="cls-15" d="M56.82,110.56c.3.6.23,1.28-.15,1.43s-.9-.15-1.2-.75-.22-1.28.15-1.43.9.15,1.2.75" transform="translate(-51.57 -49.14)"/><path class="cls-5" d="M55.77,109.29a3.42,3.42,0,0,1,1.58,2.7c0,2.55-3.3.52-3.3-1.73.07-1.05.82-1.5,1.72-1" transform="translate(-51.57 -49.14)"/><path class="cls-15" d="M56.82,110.56c.3.6.23,1.2-.15,1.35s-.9-.15-1.2-.75-.22-1.2.15-1.35.9.15,1.2.75" transform="translate(-51.57 -49.14)"/><path class="cls-5" d="M55.77,109.29a3.42,3.42,0,0,1,1.58,2.7c0,2.55-3.3.52-3.3-1.73.07-1.05.82-1.5,1.72-1" transform="translate(-51.57 -49.14)"/><path class="cls-15" d="M56.75,110.56a1,1,0,0,1-.15,1.35c-.38.15-.83-.15-1.13-.67a1,1,0,0,1,.15-1.35c.38-.23.9.15,1.13.67" transform="translate(-51.57 -49.14)"/><path class="cls-5" d="M55.77,109.29a3.42,3.42,0,0,1,1.58,2.7c0,2.55-3.3.52-3.3-1.73.07-1.05.82-1.5,1.72-1" transform="translate(-51.57 -49.14)"/><path class="cls-15" d="M56.75,110.56c.22.53.22,1.13-.15,1.28s-.83-.15-1.05-.68-.23-1.12.15-1.27.75.15,1,.67" transform="translate(-51.57 -49.14)"/><path class="cls-5" d="M55.77,109.29a3.42,3.42,0,0,1,1.58,2.7c0,2.55-3.3.52-3.3-1.73.07-1.05.82-1.5,1.72-1" transform="translate(-51.57 -49.14)"/><path class="cls-15" d="M56.75,110.56c.22.53.22,1-.15,1.2s-.75-.15-1.05-.67-.23-1,.15-1.2.75.22,1,.67" transform="translate(-51.57 -49.14)"/><path class="cls-5" d="M55.77,109.29a3.42,3.42,0,0,1,1.58,2.7c0,2.55-3.3.52-3.3-1.73.07-1.05.82-1.5,1.72-1" transform="translate(-51.57 -49.14)"/><path class="cls-15" d="M56.67,110.64c.23.52.23,1-.15,1.2s-.75-.15-1-.6-.23-1,.15-1.2.75.07,1,.6" transform="translate(-51.57 -49.14)"/><path class="cls-5" d="M55.77,109.29a3.42,3.42,0,0,1,1.58,2.7c0,2.55-3.3.52-3.3-1.73.07-1.05.82-1.5,1.72-1" transform="translate(-51.57 -49.14)"/><path class="cls-15" d="M56.67,110.64a1,1,0,0,1-.07,1.12c-.3.15-.75-.15-1-.6s-.15-1,.15-1.12.68.07.9.6" transform="translate(-51.57 -49.14)"/><path class="cls-5" d="M55.77,109.29a3.42,3.42,0,0,1,1.58,2.7c0,2.55-3.3.52-3.3-1.73.07-1.05.82-1.5,1.72-1" transform="translate(-51.57 -49.14)"/><path class="cls-15" d="M56.67,110.64a.85.85,0,0,1-.07,1c-.3.15-.68-.15-.9-.6a.85.85,0,0,1,.07-1c.23-.15.68.15.9.6" transform="translate(-51.57 -49.14)"/><path class="cls-5" d="M55.77,109.29a3.42,3.42,0,0,1,1.58,2.7c0,2.55-3.3.52-3.3-1.73.07-1.05.82-1.5,1.72-1" transform="translate(-51.57 -49.14)"/><path class="cls-15" d="M56.6,110.64a.85.85,0,0,1-.08,1c-.3.15-.67-.08-.9-.53a.85.85,0,0,1,.08-1c.3-.15.67.08.9.53" transform="translate(-51.57 -49.14)"/><path class="cls-5" d="M55.77,109.29a3.42,3.42,0,0,1,1.58,2.7c0,2.55-3.3.52-3.3-1.73.07-1.05.82-1.5,1.72-1" transform="translate(-51.57 -49.14)"/><path class="cls-15" d="M56.6,110.64a.75.75,0,0,1-.08,1c-.22.15-.6-.07-.82-.52a.77.77,0,0,1,.07-1c.23-.07.6.15.83.53" transform="translate(-51.57 -49.14)"/><path class="cls-5" d="M55.77,109.29a3.42,3.42,0,0,1,1.58,2.7c0,2.55-3.3.52-3.3-1.73.07-1.05.82-1.5,1.72-1" transform="translate(-51.57 -49.14)"/><path class="cls-15" d="M56.6,110.64c.22.37.15.82-.08.9s-.6-.08-.75-.53-.15-.82.08-.9.52.15.75.53" transform="translate(-51.57 -49.14)"/><path class="cls-5" d="M55.77,109.29a3.42,3.42,0,0,1,1.58,2.7c0,2.55-3.3.52-3.3-1.73.07-1.05.82-1.5,1.72-1" transform="translate(-51.57 -49.14)"/><path class="cls-15" d="M56.52,110.64c.15.37.15.75-.07.9s-.53-.08-.75-.45-.15-.75.07-.9a.71.71,0,0,1,.75.45" transform="translate(-51.57 -49.14)"/><path class="cls-5" d="M55.77,109.29a3.42,3.42,0,0,1,1.58,2.7c0,2.55-3.3.52-3.3-1.73.07-1.05.82-1.5,1.72-1" transform="translate(-51.57 -49.14)"/><path class="cls-15" d="M56.52,110.71c.15.38.15.68-.07.83s-.53-.08-.68-.45-.15-.68.08-.83.52.08.67.45" transform="translate(-51.57 -49.14)"/><path class="cls-5" d="M55.77,109.29a3.42,3.42,0,0,1,1.58,2.7c0,2.55-3.3.52-3.3-1.73.07-1.05.82-1.5,1.72-1" transform="translate(-51.57 -49.14)"/><path class="cls-15" d="M56.52,110.71c.15.3.15.68-.07.75a.6.6,0,0,1-.68-.37c-.15-.3-.15-.68.08-.75s.52.07.67.37" transform="translate(-51.57 -49.14)"/><path class="cls-5" d="M55.77,109.29a3.42,3.42,0,0,1,1.58,2.7c0,2.55-3.3.52-3.3-1.73.07-1.05.82-1.5,1.72-1" transform="translate(-51.57 -49.14)"/><path class="cls-15" d="M56.45,110.71c.15.3.15.6-.08.75s-.45-.07-.6-.37-.15-.6.08-.75.45.07.6.37" transform="translate(-51.57 -49.14)"/><path class="cls-5" d="M55.77,109.29a3.42,3.42,0,0,1,1.58,2.7c0,2.55-3.3.52-3.3-1.73.07-1.05.82-1.5,1.72-1" transform="translate(-51.57 -49.14)"/><path class="cls-15" d="M56.45,110.71a.53.53,0,0,1-.08.68c-.15.07-.45-.08-.6-.38s-.07-.6.08-.67.45.07.6.37" transform="translate(-51.57 -49.14)"/><path class="cls-5" d="M55.77,109.29a3.42,3.42,0,0,1,1.58,2.7c0,2.55-3.3.52-3.3-1.73.07-1.05.82-1.5,1.72-1" transform="translate(-51.57 -49.14)"/><path class="cls-15" d="M56.45,110.71a.44.44,0,0,1-.08.6c-.15.08-.37-.07-.52-.3a.44.44,0,0,1,.07-.6c.15-.07.38.08.53.3" transform="translate(-51.57 -49.14)"/><path class="cls-5" d="M55.77,109.29a3.42,3.42,0,0,1,1.58,2.7c0,2.55-3.3.52-3.3-1.73.07-1.05.82-1.5,1.72-1" transform="translate(-51.57 -49.14)"/><path class="cls-15" d="M56.37,110.71c.15.23.08.53-.07.53s-.38-.08-.45-.3a.36.36,0,0,1,.07-.53.47.47,0,0,1,.45.3" transform="translate(-51.57 -49.14)"/><path class="cls-5" d="M55.77,109.29a3.42,3.42,0,0,1,1.58,2.7c0,2.55-3.3.52-3.3-1.73.07-1.05.82-1.5,1.72-1" transform="translate(-51.57 -49.14)"/><path class="cls-15" d="M56.37,110.79c.08.22.08.45-.07.52s-.3-.07-.45-.3-.08-.45.07-.52.38.07.45.3" transform="translate(-51.57 -49.14)"/><path class="cls-5" d="M55.77,109.29a3.42,3.42,0,0,1,1.58,2.7c0,2.55-3.3.52-3.3-1.73.07-1.05.82-1.5,1.72-1" transform="translate(-51.57 -49.14)"/><path class="cls-15" d="M56.37,110.79c.08.22.08.37-.07.45s-.3-.08-.38-.23-.07-.37.08-.45.22,0,.37.23" transform="translate(-51.57 -49.14)"/><path class="cls-5" d="M55.77,109.29a3.42,3.42,0,0,1,1.58,2.7c0,2.55-3.3.52-3.3-1.73.07-1.05.82-1.5,1.72-1" transform="translate(-51.57 -49.14)"/><path class="cls-15" d="M56.3,110.79c.07.15.07.37-.08.37s-.3-.07-.37-.22-.08-.38.07-.38.3.08.38.23" transform="translate(-51.57 -49.14)"/><path class="cls-5" d="M55.77,109.29a3.42,3.42,0,0,1,1.58,2.7c0,2.55-3.3.52-3.3-1.73.07-1.05.82-1.5,1.72-1" transform="translate(-51.57 -49.14)"/><path class="cls-15" d="M56.3,110.79a.34.34,0,0,1,0,.37c-.08.08-.23-.07-.3-.22a.33.33,0,0,1,0-.38.43.43,0,0,1,.3.23" transform="translate(-51.57 -49.14)"/><path class="cls-5" d="M55.77,109.29a3.42,3.42,0,0,1,1.58,2.7c0,2.55-3.3.52-3.3-1.73.07-1.05.82-1.5,1.72-1" transform="translate(-51.57 -49.14)"/><path class="cls-15" d="M56.3,110.79c.07.15.07.3,0,.3s-.23,0-.23-.15-.07-.3,0-.3a1,1,0,0,1,.23.15" transform="translate(-51.57 -49.14)"/><path class="cls-5" d="M55.77,109.29a3.42,3.42,0,0,1,1.58,2.7c0,2.55-3.3.52-3.3-1.73.07-1.05.82-1.5,1.72-1" transform="translate(-51.57 -49.14)"/><path class="cls-15" d="M56.22,110.79c.08.07.08.22,0,.22s-.15,0-.22-.15-.08-.22,0-.22.22.07.22.15" transform="translate(-51.57 -49.14)"/><path class="cls-5" d="M55.77,109.29a3.42,3.42,0,0,1,1.58,2.7c0,2.55-3.3.52-3.3-1.73.07-1.05.82-1.5,1.72-1" transform="translate(-51.57 -49.14)"/><path class="cls-15" d="M56.22,110.86c.08.08,0,.15,0,.23s-.15,0-.15-.08,0-.15,0-.22.15-.08.15.07" transform="translate(-51.57 -49.14)"/><path class="cls-5" d="M55.77,109.29a3.42,3.42,0,0,1,1.58,2.7c0,2.55-3.3.52-3.3-1.73.07-1.05.82-1.5,1.72-1" transform="translate(-51.57 -49.14)"/><path class="cls-15" d="M56.22,110.86V111c-.07,0-.07,0-.15-.07v-.15c.08-.08.08,0,.15.07" transform="translate(-51.57 -49.14)"/><path class="cls-5" d="M55.77,109.29a3.42,3.42,0,0,1,1.58,2.7c0,2.55-3.3.52-3.3-1.73.07-1.05.82-1.5,1.72-1" transform="translate(-51.57 -49.14)"/><path class="cls-15" d="M56.15,110.86v.08a.08.08,0,0,1-.08-.08v-.07c.08,0,.08,0,.08.07" transform="translate(-51.57 -49.14)"/><path class="cls-9" d="M55.77,109.29a3.42,3.42,0,0,1,1.58,2.7c0,2.55-3.3.52-3.3-1.73.07-1.05.82-1.5,1.72-1" transform="translate(-51.57 -49.14)"/><path class="cls-15" d="M56.15,110.86h0" transform="translate(-51.57 -49.14)"/><path class="cls-16" d="M66.27,116.86c.53.3.83,1.58.83,2.1s-.45.75-1,.45L59,115.29a2.12,2.12,0,0,1-1-1.58c0-.6.6-1.27,1.2-1Z" transform="translate(-51.57 -49.14)"/><path class="cls-17" d="M58.47,112.81c-.07,0-.07.08-.15.15l8.63,5c0-.07-.08-.15-.08-.22Z" transform="translate(-51.57 -49.14)"/><path class="cls-17" d="M58.1,114.16c0,.08.07.15.15.3l8.7,5c.07,0,.07-.08.15-.15Z" transform="translate(-51.57 -49.14)"/><path class="cls-17" d="M58.1,113.34a.28.28,0,0,1-.08.15l9.08,5.25v-.23Z" transform="translate(-51.57 -49.14)"/><polygon class="cls-12" points="39.98 47.92 39.98 56.7 26.85 64.28 29.93 53.77 39.98 47.92"/><path class="cls-3" d="M91.77,107.86c.23-.07.38,0,.38.23a.67.67,0,0,1-.38.6L89,110.26c-.23.08-.38,0-.38-.22a.65.65,0,0,1,.38-.6Z" transform="translate(-51.57 -49.14)"/><path class="cls-18" d="M91.77,107.86c.23-.07.38,0,.38.23a.67.67,0,0,1-.38.6L89,110.26c-.23.08-.38,0-.38-.22a.65.65,0,0,1,.38-.6Z" transform="translate(-51.57 -49.14)"/></svg>