<svg id="Capa_1" data-name="Capa 1" xmlns="http://www.w3.org/2000/svg" viewBox="0 0 59.45 50.4"><defs><style>.cls-1{fill:silver;}.cls-2{fill:#605e5c;}.cls-3{fill:#9b9b9b;}.cls-4{fill:#363636;}</style></defs><path class="cls-1" d="M560.1,672.7v.1l-.1-.1C560,672.8,560.1,672.7,560.1,672.7Z" transform="translate(-511.45 -649.43)"/><path class="cls-2" d="M557,664.3c-.1.1-.1.2-.2.3a.1.1,0,0,1-.1.1l-.2.4c0,.1,0,.1-.1.2s-.1.2-.2.4a.31.31,0,0,1-.1.2c-.1.1-.1.3-.2.4s-.1.1-.1.2v.1c0,.1-.1.2-.1.4s0,.1-.1.2-.1.3-.1.4v.2c-.1.2-.1.4-.2.6v1.8h0v.6a.6.6,0,0,0,.1.4h0c-.3.2-.5.4-.7.5a4.87,4.87,0,0,1-.1-1.2,12.45,12.45,0,0,1,1.5-5.7Z" transform="translate(-511.45 -649.43)"/><path class="cls-2" d="M567.6,666.6a15.21,15.21,0,0,1-6.1,7.9c-2.7,1.6-5.1,1.1-6.2-1,.3-.1.6-.3.9-.4.1.1.2.2.2.3l.1.1h0a.6.6,0,0,1,.4.1v.1h0l.1-.1v-.1h.5l-.1.2v.1h.1l.1-.1.1-.3h0l-.2.4v.1h.1l.1-.1.2-.4c.1,0,.3-.1.4-.1l-.1.5v.1h.1a.1.1,0,0,0,.1-.1l.2-.6c.2,0,.3-.1.5-.2l-.2.6v.1h.1a.1.1,0,0,0,.1-.1l.2-.7a.76.76,0,0,0,.4-.2l-.1.8h0l.1-.1.1-.8a.35.35,0,0,1,.2-.1l.1.1-.1.7h0l.1-.1.1-.6v-.3a.52.52,0,0,1,.4-.2v.9h.1v-.1l-.1-1a1.76,1.76,0,0,0,.5-.4l.1,1h0l.1-.1-.1-1.2.3-.3a6.47,6.47,0,0,1,.3,1h.1s.1-.1,0-.1l-.3-1.1.1-.1.2,1h.1l.1-.1-.2-1.1.3-.3.4.8h.1s.1-.1,0-.1l-.5-.9h0c.1-.2.3-.3.4-.5l.5,1h.2a.1.1,0,0,0,.1-.1l-.6-1.1c.1-.1.2-.2.2-.3l.8.7h0c.1-.1.1-.1,0-.1l-.8-.8a2.19,2.19,0,0,0,.3-.5h0l.7.7h0c.1-.1.1-.1,0-.1l-.7-.7c.2-.1.3-.2.5-.3l.6.3h0V668h-.1l-.5-.2.6-.3.3.1h0v-.1h-.1l-.1-.1c.3-.2.5-.3.8-.5s.3-.2.5-.3a.35.35,0,0,1-.1.2c0-.1.1-.1.1-.2C567,667,567.3,666.8,567.6,666.6Z" transform="translate(-511.45 -649.43)"/><path class="cls-2" d="M568.3,662.7a6.6,6.6,0,0,1-.1,1.4c-.2.1-.5.2-.7.3s-.3.1-.4.2a10.09,10.09,0,0,0-1.5.7c0-.1.1-.3.1-.4l1.1-.4.1-.1h0l-1,.3a1.27,1.27,0,0,0,.1-.6l1-.3.1-.1h0l-.9.3c0-.1.1-.3.1-.4l.9-.5.1-.1h0l-.8.5v-.4l.8-.5v-.1h0l-.7.4v-.5l.6-.5v-.1h0l-1.2.2v-.2l.6-.5v-.1h0l-.6.5c0-.2,0-.3-.1-.4l.5-.5v-.1h-.1l-.5.5c0-.1-.1-.2-.1-.4l.3-.3v-.1h-.1l-.3.3c-.1-.2-.1-.3-.2-.4l.2-.2V660h-.1l-.1.1a.35.35,0,0,0-.1-.2l.4-.2,1-.6C567.7,659.5,568.3,660.9,568.3,662.7Z" transform="translate(-511.45 -649.43)"/><path class="cls-2" d="M562.9,666.1h0v.7a15.05,15.05,0,0,0-1.7,1c-.2.1-.5.3-.7.4h0l-.1-.1-.2-.1h-.1l-.1-.1c0-.1-.1-.1-.1-.2a.75.75,0,0,1-.1-.5,4.4,4.4,0,0,1,.2-1c.1-.2.2-.3.2-.5s.2-.3.3-.4a1.76,1.76,0,0,1,.5-.4,1,1,0,0,1,.9-.1l.7.4h0v.2a.1.1,0,0,1,.1.1.35.35,0,0,1,.1.2h0v.2C562.9,666,562.9,666,562.9,666.1Z" transform="translate(-511.45 -649.43)"/><path class="cls-2" d="M527.5,686.3a3.4,3.4,0,0,1-.1,1v.2a3.55,3.55,0,0,1-.2,1v.1c-.1.3-.2.7-.3,1a.35.35,0,0,1-.1.2,4.18,4.18,0,0,1-.4,1h0v.1a3,3,0,0,1-.4.8c0,.1-.1.2-.1.3a2.09,2.09,0,0,1-.4.6.35.35,0,0,1-.1.2c-.2.3-.4.5-.6.8l-.1.1c-.2.2-.3.4-.5.6l-.1.1-.1.1-.4.4-.2.2a1.38,1.38,0,0,1-.4.3l-.2.2c-.1.1-.3.2-.4.3l-.2.2a1.61,1.61,0,0,1-.7.4l-.6.3c-.1,0-.2,0-.2.1s-.3.1-.4.2-.2,0-.2.1-.2.1-.4.1h-1.5c-.1,0-.1,0-.2-.1s-.2-.1-.3-.1-.1-.1-.2-.1a.35.35,0,0,1-.2-.1,1.47,1.47,0,0,1-.6-.5h0a.6.6,0,0,1,.4.1v.1h.1l.1-.1v-.1h.5l-.1.2v.1h.1l.1-.1.1-.3h0l-.1.4v.1h.1l.1-.1.2-.4a.6.6,0,0,0,.4-.1l-.1.5v.1h.1c.1,0,.1,0,.1-.1l.2-.6c.2-.1.3-.1.5-.2l-.2.6h.1a.1.1,0,0,0,.1-.1l.2-.7c.1-.1.3-.1.4-.2l-.1.8h0a.1.1,0,0,0,.1-.1l.1-.9a.31.31,0,0,0,.2-.1l.1-.1v.1l-.1.7h0a.1.1,0,0,0,.1-.1l.1-.6v-.3a.52.52,0,0,1,.4-.2l.1.8h0v-.1l-.1-1a1.76,1.76,0,0,0,.5-.4l.1,1h0l.1-.1-.1-1.2.3-.3a6.47,6.47,0,0,1,.3,1h.1l.1-.1-.3-1.1.1-.1c.1.6.2,1,.2,1h.1l.1-.1-.2-1.1.3-.3.4.8h.2c.1-.1.1-.1,0-.1l-.5-.9h0a2.18,2.18,0,0,0,.4-.5l.5,1h.1a.1.1,0,0,0,.1-.1l-.5-1.1c.1-.1.2-.2.2-.3l.7.7h0l.1-.1-.8-.8a1.76,1.76,0,0,1,.4-.5l.7.7h.1c.1-.1.1-.1,0-.1l-.7-.8a.52.52,0,0,0,.2-.4l.9.4h0v-.1h-.1l-.9-.4c.1-.2.2-.3.3-.5l1,.5h0v-.1h-.1l-.9-.5c.1-.1.1-.2.2-.4l1.1.1h.1V689h-.1l-.3-.1-.7-.1a.35.35,0,0,1,.1-.2v-.1l1,.2.1-.1v-.1h-.1l-.9-.2c.1-.1.1-.3.2-.4l1.1-.1c.1,0,.1,0,.1-.1v-.1h-.1l-1,.1c0-.2.1-.3.2-.5l1.1-.1c.1,0,.1,0,.1-.1v-.1h-.1l-1,.1c0-.1.1-.3.1-.4l1.1-.4.1-.1h-.1l-1,.3c0-.2.1-.4.1-.6l1-.4a.1.1,0,0,0,.1-.1h0l-.9.3c0-.1.1-.3.1-.4l.9-.5v-.1h0l-.8.5v-.4l.8-.4s.1-.1,0-.1h0l-.7.4v-.5l.6-.5v-.1h-.1l-.6.5v-.2l.6-.5v-.1h-.1l-.6.5c0-.2,0-.3-.1-.4l.5-.5v-.1h0l-.4.5c0-.1-.1-.2-.1-.4l.3-.3v-.1h0l-.3.3c0-.1-.1-.2-.1-.4l.1-.3h0l.2-.3h0c.1,0,.1.1.2.1l.2.2c0,.1.1.1.2.2s.1.2.2.2.1.1.1.2.1.2.1.3.1.1.1.2.1.2.1.3.1.1.1.2.1.2.1.3,0,.2.1.2a.6.6,0,0,0,.1.4v.2A2.67,2.67,0,0,0,527.5,686.3Z" transform="translate(-511.45 -649.43)"/><path class="cls-2" d="M528.2,685.9a15.06,15.06,0,0,1-6.8,11.8c-3.8,2.2-6.8.4-6.8-3.9a15.06,15.06,0,0,1,6.8-11.8,5.74,5.74,0,0,1,3.8-.9l-.4,1h0a.6.6,0,0,1-.4-.1h-1.1c-.1,0-.3.1-.4.1h-.2c-.2,0-.3.1-.5.2s-.1,0-.2.1-.2.1-.3.1a.1.1,0,0,0-.1.1c-.1,0-.1.1-.2.1a.1.1,0,0,0-.1.1c-.1,0-.1.1-.2.1s-.1.1-.2.1-.2.1-.4.2-.1.1-.2.1a.1.1,0,0,0-.1.1c-.1.1-.3.2-.4.3s-.1.1-.2.1-.2.2-.3.2-.1.1-.2.2l-.1.1a.35.35,0,0,1-.2.1l-.3.3-.1.1c-.1.2-.3.3-.4.5s-.1.1-.1.2-.2.2-.2.3l-.1.1a1.76,1.76,0,0,1-.4.5.35.35,0,0,0-.1.2.52.52,0,0,0-.2.4l-.1.1c-.1.2-.2.3-.3.5a.31.31,0,0,1-.1.2c-.1.1-.1.2-.2.4a.35.35,0,0,0-.1.2c-.1.1-.1.2-.2.4a.31.31,0,0,1-.1.2c-.1.1-.1.3-.2.4s0,.1-.1.2-.1.3-.2.5,0,.1-.1.2-.1.3-.1.4v.2a1.27,1.27,0,0,0-.1.6v.2a.6.6,0,0,1-.1.4v1.2h0v.6a.6.6,0,0,0,.1.4v.2c0,.1.1.2.1.4v.2c.1.2.1.3.2.5s0,.1.1.2.1.2.2.3a.31.31,0,0,0,.1.2l.3.3.1.1a2.65,2.65,0,0,0,.6.5.35.35,0,0,1,.2.1c.1,0,.1.1.2.1a.37.37,0,0,1,.3.1c.1,0,.1,0,.2.1h1.5c.1,0,.2-.1.4-.1s.1,0,.2-.1a.76.76,0,0,0,.4-.2c.1,0,.1,0,.2-.1l.6-.3c.2-.1.5-.3.7-.4a.22.22,0,0,0,.2-.2c.1-.1.3-.2.4-.3s.2-.1.2-.2.3-.2.4-.3l.2-.2.4-.4a.1.1,0,0,1,.1-.1l.1-.1c.2-.2.3-.4.5-.6l.1-.1c.2-.3.4-.5.6-.8a.35.35,0,0,1,.1-.2c.1-.2.3-.4.4-.6s.1-.2.1-.3c.1-.3.3-.5.4-.8v-.1h0c.1-.3.3-.7.4-1,0-.1,0-.2.1-.2.1-.3.2-.6.3-1v-.1c.1-.3.1-.7.2-1v-.2c0-.3.1-.7.1-1v-.9a.6.6,0,0,0-.1-.4c0-.1,0-.2-.1-.2s-.1-.2-.1-.3a.35.35,0,0,0-.1-.2c0-.1-.1-.2-.1-.3s-.1-.1-.1-.2-.1-.2-.1-.3-.1-.1-.1-.2a.22.22,0,0,0-.2-.2c-.1,0-.1-.1-.2-.2l-.2-.2c-.1,0-.1-.1-.2-.1h0l.4-1C527.4,682.2,528.2,683.7,528.2,685.9Z" transform="translate(-511.45 -649.43)"/><path class="cls-2" d="M522.2,691a.35.35,0,0,0-.1.2c-.1.1-.2.1-.2.2s-.2.2-.3.2h0a.37.37,0,0,1-.3.1h-.5l-.2-.1h-.1l-.2-.1-.1-.1-.3-.1a.89.89,0,0,1-.4-.8,2.85,2.85,0,0,1,1.3-2.2,1,1,0,0,1,.9-.1l.7.4-.7,2a.48.48,0,0,0,.2.6C522,691,522.1,691,522.2,691Z" transform="translate(-511.45 -649.43)"/><path class="cls-2" d="M549.4,674.9c-.1,0-.2-.1-.3-.1h-.6a.9.9,0,0,0-.5.1h-.1a1.42,1.42,0,0,0-.6.2h-.1a1.85,1.85,0,0,1-.7.2h-.1c-.2.1-.5.2-.7.3a.1.1,0,0,0-.1.1,3,3,0,0,0-.8.4c-.1,0-.1.1-.2.1-.3.2-.6.3-.9.5s-.5.3-.7.4-.1.1-.2.1-.3.2-.5.3a.22.22,0,0,0-.2.2c-.2.1-.3.2-.5.3s-.1.1-.2.1c-.2.2-.4.3-.6.5l-.1.1a1.76,1.76,0,0,0-.5.4l-.2.1a1.38,1.38,0,0,1-.4.3.35.35,0,0,1-.2.1l-.4.4-.1.1c-.1.2-.3.3-.4.4h0c-.2.2-.3.4-.5.6h0a2.19,2.19,0,0,1-.3.5h0c0,.1,0,.1-.1.2v.3a.37.37,0,0,0,.1.3h0c0,.1.1.1.2.2l-.5-.3-.8-.5a.55.55,0,0,1-.3-.5.9.9,0,0,1,.1-.5,3.55,3.55,0,0,1,.8-1.2,20.48,20.48,0,0,1,5.1-3.9c2.7-1.6,5-2.2,5.8-1.8Z" transform="translate(-511.45 -649.43)"/><path class="cls-2" d="M549.7,675.4v.2c-.2.9-1.5,2.3-3.3,3.7l-1.1-.6c-.1-.1-.2-.1-.4,0a1.33,1.33,0,0,0-.6,1,.52.52,0,0,0,.2.4l.5.3c-.4.2-.8.5-1.2.7-2.7,1.6-5,2.2-5.8,1.8-.1,0-.1-.1-.2-.2h0c0-.1-.1-.2-.1-.3v-.3c0-.1,0-.1.1-.2h0c.1-.2.2-.3.3-.5h0a2.65,2.65,0,0,1,.5-.6.1.1,0,0,1,.1-.1c.1-.1.2-.3.4-.4a.1.1,0,0,0,.1-.1l.4-.4a.35.35,0,0,1,.2-.1,1.38,1.38,0,0,1,.4-.3l.2-.1c.1-.1.3-.2.5-.4l.1-.1c.2-.2.4-.3.6-.5.1,0,.1-.1.2-.1s.3-.2.5-.3.2-.1.2-.2c.2-.1.3-.2.5-.3a.35.35,0,0,0,.2-.1c.2-.1.5-.3.7-.4s.6-.3.9-.5c.1,0,.1-.1.2-.1.3-.1.5-.3.8-.4a.1.1,0,0,0,.1-.1c.2-.1.5-.2.7-.3h.1a1.85,1.85,0,0,1,.7-.2h.1c.2-.1.4-.1.6-.2h.1c.2,0,.3-.1.5-.1h.6a.37.37,0,0,1,.3.1C549.6,675,549.7,675.2,549.7,675.4Z" transform="translate(-511.45 -649.43)"/><path class="cls-2" d="M549.1,680.9Z" transform="translate(-511.45 -649.43)"/><path class="cls-2" d="M544.8,678.7a1.33,1.33,0,0,0-.6,1,.52.52,0,0,0,.2.4l.5.3,3.4,2h0a.52.52,0,0,1-.2-.4,1.33,1.33,0,0,1,.6-1c.2-.1.3-.1.4,0l-2.7-1.6-1.1-.6C545.1,678.6,544.9,678.6,544.8,678.7Z" transform="translate(-511.45 -649.43)"/><path class="cls-2" d="M548.7,680.9a1.33,1.33,0,0,0-.6,1,.52.52,0,0,0,.2.4c.1.1.2.1.4,0a1.33,1.33,0,0,0,.6-1,.52.52,0,0,0-.2-.4h0A.3.3,0,0,0,548.7,680.9Z" transform="translate(-511.45 -649.43)"/><path class="cls-3" d="M570.6,663.6a.66.66,0,0,0-.7-.2,4.2,4.2,0,0,1-.5.2.1.1,0,0,0-.1.1,10.37,10.37,0,0,1-1,.4c-.2.1-.5.2-.7.3s-.3.1-.4.2a10.09,10.09,0,0,0-1.5.7h0l-1.3.1,1.5-.5,1.1-.4.1-.1h0l-1,.3-2.2.8-.8.1c0,.1,0,.1.1.2h.1v.4h0v.6h0a15.05,15.05,0,0,0-1.7,1c-.2.1-.5.3-.7.4h0l-.1-.1-.2-.1h-.1l-.1-.1c0-.1-.1-.1-.1-.2a.75.75,0,0,1-.1-.5,4.4,4.4,0,0,1,.2-1c.1-.2.2-.3.2-.5s.2-.3.3-.4a1.76,1.76,0,0,1,.5-.4,1,1,0,0,1,.9-.1l.7.4h0l.4-.1-.3.2v.2h0l1-.6,2.2-.8,1-.3.1-.1h0l-.9.3-1.5.5,1.6-1,.9-.5.1-.1h0l-.8.5-2.4,1.4-1,.3,1-.8,2.4-1.4.8-.5v-.1h0l-.7.4-1.7,1,1.7-1.5.6-.5v-.1h0l-1.5.4-2.5,2.1-.8.5.8-.9,2.5-2,.6-.5v-.1h0l-.6.5-1.8,1.4,1.7-1.8.5-.5v-.1h-.1l-.5.5-2.5,2.6-1,.8.8-1.1,2.6-2.7.3-.3v-.1h-.1l-.3.3-1.9,2,1.7-2.4.2-.2v-.1h-.1l-.1.1-2.4,3.4-.8.9.7-1.2,2.3-3.2-.3.2-1.4,1.9.9-1.6-.3.2-1.3,2.5-.8,1.2.5-1.3,1.1-2-.3.2-.4.8.2-.7-.2.1-.6,1.6-.4.8.2-.8s.3-.6.6-1.4l-.2.1-.1.1v-.1l-.2.1-.3,1.1-.6,1.4.1-1.3.2-.9-.3.2-.1.7-.3,1.2-.1-1,.1-.7-.3.2v.5l-.2,1.4-.3-1.1v-.6l-.3.2.1.5.1.9-.3-.6-.1-.6-.3.2.3.5.2,1a.1.1,0,0,0-.1.1l-.5-.5-.4-.7-.2.1.1.2-.2-.2-.2.1.6.6.3.6v.1a.35.35,0,0,0-.1.2l-.3-.2-.2-.1-.8-.9-.1.1.5.6-.8-.4-.2.1,1.3.6v.1l.4.4c0,.1-.1.1-.1.2l-.7-.1-.6-.3-.8-.4a.1.1,0,0,1-.1.1l.6.3.4.2-.8-.1h-.4c0,.1,0,.1-.1.2l1.7.2.6.3h0v.1l-.5.1h-.2l-1.7-.3a.31.31,0,0,1-.1.2l1.2.2-1.3.2c0,.1-.1.1-.1.2l.7-.1,1.3-.2.7.1v.1l-.9.3-1.9.1c0,.1,0,.1-.1.2l1.3-.1-1.4.5v.2l2.1-.8h.8v.1l-1,.6-.9.3-1.2.4v.2l.6-.2.9-.3-1.5,1v.2l2.3-1.4,1-.3-.9.8-2.4,1.4v.2l1.7-1-.2.2-1.5,1.2v.2l2.5-2.1.8-.5-.8.9-2.5,1.9v.2l1.7-1.4-1.7,1.8h0c-.3.2-.5.4-.7.5s-.3.2-.5.3l-1.2.9c-.1,0-.1.1-.1.2s-.1.2-.1.4a.6.6,0,0,0,.1.4l.1.1h0c.1,0,.1.1.2.1h.4a8.41,8.41,0,0,1,1-.4h0l.6-.3c.3-.1.6-.3.9-.4.1,0,.2-.1.3-.1s.2-.1.3-.1a.35.35,0,0,0,.2-.1l.6-.3a.35.35,0,0,0,.2-.1c.1,0,.2-.1.3-.1s.1-.1.2-.1a.1.1,0,0,0,.1-.1.35.35,0,0,0,.2-.1c.1,0,.1-.1.2-.1s.1-.1.2-.1.1-.1.2-.1.2-.1.3-.2.1-.1.2-.1h.1c.1,0,.1-.1.2-.1s.2-.1.3-.2.1-.1.2-.1h0a.35.35,0,0,1,.2-.1c.2-.1.3-.2.5-.3s.1-.1.2-.1h.1a.35.35,0,0,1,.2-.1c.1,0,.1-.1.2-.1a.35.35,0,0,1,.2-.1l.1-.1c.1,0,.1-.1.2-.1h.1c.2-.1.3-.2.5-.3s.1-.1.2-.1.1-.1.2-.1a.35.35,0,0,1,.2-.1c.2-.1.3-.2.5-.3h0a.35.35,0,0,1,.2-.1c.2-.1.3-.2.5-.3s.1-.1.2-.1l.6-.3a.35.35,0,0,1,.2-.1c.3-.2.5-.3.8-.5s.3-.2.5-.3h0l.9-.6c.2-.1.3-.2.5-.3s.5-.4.8-.6a.1.1,0,0,0,.1-.1h0c1-.7,1.6-1.2,1.6-1.2A4,4,0,0,0,570.6,663.6Zm-8.1.4-.4.6-.2.1.1-.3Zm-.7.4.5-.7-.4.7-.2.2Zm-.6-.8-.1.8v.1h0v-.2Zm-.8.6h0l-.1-.4Zm-.3.1c0,.1-.1.1,0,0l-.1-.2Zm-.5.4h0l-.2-.1Zm-.5.3.1.1h0Zm.2,2.8.1-.1h0l.1-.1h0l-.1.2-.5.5Zm-2.1,2.4a12.49,12.49,0,0,0-1.2.8l2-2.1,1-.8-.8,1.1Zm1.5-.9a2.09,2.09,0,0,0-.6.4h0l.2-.3.8-.9Zm.6-.5c-.1,0-.1.1-.2.1l.3-.4Zm.4-1h0l-.1.2-.5.7.4-.7.2-.2Z" transform="translate(-511.45 -649.43)"/><polygon class="cls-3" points="48.25 18.37 48.25 18.37 48.25 18.37 48.25 18.37"/><polygon class="cls-3" points="48.05 18.17 48.05 18.17 48.05 18.27 48.05 18.27 48.05 18.17"/><path class="cls-3" d="M562.9,666.8Z" transform="translate(-511.45 -649.43)"/><path class="cls-3" d="M562.6,665.3Zm-.8-.4a1,1,0,0,0-.9.1,1,1,0,0,1,.9-.1l.7.4Zm-2.1,2.9Zm-.2-.1Z" transform="translate(-511.45 -649.43)"/><path class="cls-3" d="M557,672.7l-.4.8h0l-.1-.1a1.63,1.63,0,0,0,.3-.6A.31.31,0,0,0,557,672.7Z" transform="translate(-511.45 -649.43)"/><path class="cls-3" d="M559.7,671.3l-.5,1.9-.2.7a.1.1,0,0,1-.1.1h-.1v-.1l.2-.6.5-1.8Z" transform="translate(-511.45 -649.43)"/><path class="cls-3" d="M559,671.7l-.5,1.7-.2.6a.1.1,0,0,1-.1.1h-.1V674l.1-.5.5-1.7A.44.44,0,0,0,559,671.7Z" transform="translate(-511.45 -649.43)"/><path class="cls-3" d="M557.8,672.3l-.7,1.3v.1l-.1.1h0v-.1l.6-1.2C557.6,672.4,557.7,672.4,557.8,672.3Z" transform="translate(-511.45 -649.43)"/><path class="cls-3" d="M560,671.2l-.2,1.7-.1.8a.1.1,0,0,1-.1.1h0l.1-.8.2-1.7C559.9,671.2,559.9,671.2,560,671.2Z" transform="translate(-511.45 -649.43)"/><path class="cls-3" d="M558.7,671.9l-.7,1.7-.2.4-.1.1h-.1V674l.2-.4.7-1.6A.35.35,0,0,1,558.7,671.9Z" transform="translate(-511.45 -649.43)"/><path class="cls-3" d="M558.3,672.1l-.6,1.5-.1.3-.1.1h-.1v-.1l.1-.2.5-1.4C558.2,672.1,558.2,672.1,558.3,672.1Z" transform="translate(-511.45 -649.43)"/><path class="cls-3" d="M564.2,670.4h0l-.8-.8-.2-.2a.35.35,0,0,1,.2-.1l.2.2.8.8C564.3,670.3,564.3,670.3,564.2,670.4Z" transform="translate(-511.45 -649.43)"/><path class="cls-3" d="M563.7,671a.1.1,0,0,1-.1.1h-.2l-.5-1-.2-.5c.1,0,.1-.1.2-.1l.2.4Z" transform="translate(-511.45 -649.43)"/><path class="cls-3" d="M564.6,669.7h0l-.8-.7a.35.35,0,0,1,.2-.1l.7.7Z" transform="translate(-511.45 -649.43)"/><path class="cls-3" d="M565.6,668.1h0v.1h0l-.3-.1a.35.35,0,0,1,.2-.1l.1.1Z" transform="translate(-511.45 -649.43)"/><path class="cls-3" d="M565.2,668.8h0v.1h0l-.6-.3c.1,0,.1-.1.2-.1l.4.3Z" transform="translate(-511.45 -649.43)"/><path class="cls-3" d="M560.9,673.2h0c0,.1,0,.1-.1.1h-.1v-.9l-.1-1.5a.35.35,0,0,1,.2-.1l.1,1.5Z" transform="translate(-511.45 -649.43)"/><path class="cls-3" d="M563,671.6h-.1l-.4-.8-.4-.7c.1,0,.1-.1.2-.1l.4.7.5.9C563.1,671.5,563.1,671.6,563,671.6Z" transform="translate(-511.45 -649.43)"/><path class="cls-3" d="M562.2,672.4v.1h-.1a6.47,6.47,0,0,0-.3-1c-.1-.4-.2-.8-.3-1.1a.35.35,0,0,1,.2-.1l.3,1Z" transform="translate(-511.45 -649.43)"/><path class="cls-3" d="M561.6,672.9h0l-.1.1h0l-.1-1-.1-1.4c.1,0,.1-.1.2-.1l.1,1.3Z" transform="translate(-511.45 -649.43)"/><path class="cls-3" d="M562.4,672.1a.1.1,0,0,1-.1.1h-.1l-.2-1c-.1-.3-.1-.7-.2-1a.35.35,0,0,1,.2-.1l.2,1Z" transform="translate(-511.45 -649.43)"/><path class="cls-3" d="M560.5,670.9l-.2,1.7v.3l-.1.6a.1.1,0,0,1-.1.1h0l.1-.7v-.1l.2-1.7C560.4,671,560.4,670.9,560.5,670.9Z" transform="translate(-511.45 -649.43)"/><path class="cls-3" d="M569.1,656.7a4.23,4.23,0,0,0-.7-.5h0l-3.7-2.2a4.82,4.82,0,0,0-3.6-.5,8.93,8.93,0,0,0-2,.6c-.3.2-.6.3-.9.5a3.51,3.51,0,0,1-.8.5l2.6,1.5a1,1,0,0,1,.5.6h0v.5a.31.31,0,0,1-.1.2v.1a.1.1,0,0,1-.1.1c0,.1-.1.2-.2.3a8.29,8.29,0,0,1-1.9,1.8,20.28,20.28,0,0,1-1.8,1.3c-.2.2-.5.3-.7.5a12.88,12.88,0,0,1-1.5.9c-2.3,1.3-5.3,2.6-6.9,1.7h-.1c-.1-.1-.6-.3-1.3-.7a.85.85,0,0,1,0,.7,1.22,1.22,0,0,1-.9.8h-.3a1.06,1.06,0,0,1-.6-.7l-5-1.6c-.7.3-2.2,1.1-3.2,1.6a2.77,2.77,0,0,1-1.3.3h-.2a1.58,1.58,0,0,1-.7,1.5c-.4.2-.8-.1-1.1-.5l-1.3,3.3-1.5,3.6c-.1.4-.2.9-.3,1.3a.6.6,0,0,0,.1.4c0,.3.1.5.1.8a.6.6,0,0,0,.1.4c0,.3.1.6.1.8s.1.4.1.6.1.4.1.6c.1.4.1.8.2,1.1a2.75,2.75,0,0,0,1,1.6l2.1,1.5,2,1.5a7.86,7.86,0,0,0,2-.9l-.8-.5a.55.55,0,0,1-.3-.5.9.9,0,0,1,.1-.5,3.55,3.55,0,0,1,.8-1.2,20.48,20.48,0,0,1,5.1-3.9c2.7-1.6,5-2.2,5.8-1.8l1.3.7a.55.55,0,0,1,.3.5v.2c1.5-.9,2.4-1.5,2.5-1.6a5.38,5.38,0,0,0,.1-.8,4.48,4.48,0,0,1,.1-1.1h0a10,10,0,0,1,.2-1.6,21.18,21.18,0,0,1,1.2-5l.7.4h0l1.2-.7.5-.3,1-.6.2-.1.2-.1.3-.2.1-.1.5-.3.2-.1h.1l.2-.1.5-.3.3-.2.2-.1.3-.2.5-.3.3-.2.4-.2.3-.2.5-.3.2-.1h0l.2-.1.2-.1.2-.1.2-.1.3-.2.6-.4.3-.2.5-.3.3-.2.1-.1.4-.2,1-.6,1.1-.6.3-.2.9-.5Zm-3.3.3c-.5.5-2,.6-2.1-.6v-.1a1.42,1.42,0,0,1,.2-.6,1.7,1.7,0,0,1,.6-.6.37.37,0,0,1,.3-.1,1.27,1.27,0,0,1,.7.4c.1.1.2.2.2.3A1.53,1.53,0,0,1,565.8,657Z" transform="translate(-511.45 -649.43)"/><path class="cls-3" d="M539.6,679.6c-.1,0-.1.1-.2.1A.35.35,0,0,0,539.6,679.6Z" transform="translate(-511.45 -649.43)"/><path class="cls-3" d="M537.7,682Z" transform="translate(-511.45 -649.43)"/><path class="cls-3" d="M538.1,681.2Z" transform="translate(-511.45 -649.43)"/><path class="cls-3" d="M548.5,674.8Z" transform="translate(-511.45 -649.43)"/><path class="cls-3" d="M537.8,681.8Z" transform="translate(-511.45 -649.43)"/><path class="cls-3" d="M539,680.2c0-.1.1-.1,0,0C539.1,680.1,539,680.1,539,680.2Z" transform="translate(-511.45 -649.43)"/><path class="cls-3" d="M538.6,680.7Z" transform="translate(-511.45 -649.43)"/><path class="cls-3" d="M529.8,672.8c-.1.4-.2.9-.3,1.3a.75.75,0,0,0-.1-.5Z" transform="translate(-511.45 -649.43)"/><path class="cls-3" d="M544.7,676.1c-.1,0-.1.1-.2.1C544.6,676.2,544.7,676.2,544.7,676.1Z" transform="translate(-511.45 -649.43)"/><path class="cls-3" d="M549.1,674.8Z" transform="translate(-511.45 -649.43)"/><path class="cls-3" d="M545.7,675.7a.1.1,0,0,0-.1.1C545.6,675.7,545.6,675.7,545.7,675.7Z" transform="translate(-511.45 -649.43)"/><path class="cls-3" d="M542.2,677.6c-.1.1-.2.1-.2.2Z" transform="translate(-511.45 -649.43)"/><path class="cls-3" d="M541.5,678.1c-.1,0-.1.1-.2.1A.35.35,0,0,0,541.5,678.1Z" transform="translate(-511.45 -649.43)"/><path class="cls-3" d="M540.2,679.1l-.2.2Z" transform="translate(-511.45 -649.43)"/><path class="cls-3" d="M542.9,677.1c-.1,0-.1.1-.2.1C542.8,677.2,542.9,677.2,542.9,677.1Z" transform="translate(-511.45 -649.43)"/><path class="cls-3" d="M540.8,678.7l-.1.1C540.7,678.7,540.7,678.7,540.8,678.7Z" transform="translate(-511.45 -649.43)"/><path class="cls-3" d="M548,674.9Z" transform="translate(-511.45 -649.43)"/><path class="cls-3" d="M546.5,675.3Z" transform="translate(-511.45 -649.43)"/><path class="cls-3" d="M547.3,675h-.1C547.2,675.1,547.3,675.1,547.3,675Z" transform="translate(-511.45 -649.43)"/><path class="cls-3" d="M525.6,688.1l-1.5.5,1.3-.1,1-.1h.1v.1a.1.1,0,0,1-.1.1l-1.1.1-1.9.2-.3.1.1-.3h.2l2.2-.8,1-.3h.1a.1.1,0,0,1-.1.1Z" transform="translate(-511.45 -649.43)"/><path class="cls-3" d="M524.2,693.5h0l-.8-.8-.8-.8.6,1.1.5,1.1a.1.1,0,0,1-.1.1h-.1l-.5-1-.9-1.7-.2-.3c.1-.1.2-.1.2-.2l.2.4,1.2,1.2.8.8A.1.1,0,0,0,524.2,693.5Z" transform="translate(-511.45 -649.43)"/><path class="cls-3" d="M524.8,682h0l-2.1,3.8-.8,1.2.5-1.3,2-3.8h-.2l-1.5,2.7,1-2.7h-.2l-1.4,3.7-.4.8.2-.8s1.1-2.6,1.5-3.6h-.2l-1.1,2.5.6-2.4h-.2l-.9,3.4-.6,1.4.1-1.3.9-3.3c-.1,0-.1,0-.2.1l-.6,2.2.2-1.7v-.3c-.1,0-.1.1-.2.1l-.1.9-.2,2-.3,1.2-.1-1,.1-.9.2-2c-.1,0-.1.1-.2.1l-.2,1.9-.1-1.7c-.1,0-.1.1-.2.1l.2,2.4v.1l-.2,1.4-.2-.5-.2-.5-.1-1.7v-.8c-.1,0-.1.1-.2.1l.1,1.1v.5l-.1-.3-.3-1c-.1,0-.1.1-.2.2l.4,1.2.2.8.1.9-.3-.6-.1-.7-.3-1.5a.35.35,0,0,1-.2.1l.3,1.4-.6-1.1-.1.1.7,1.4.1.2.2.9-.1.1-.5-.5h-.1l-.8-1.7c0,.1-.1.1-.1.2l.6,1.1-.8-.8-.1.1,1.1,1.1.1.2.2.5-.1.1-.3-.1-.3-.1-1.2-1.2a.35.35,0,0,0-.1.2l.8.9-1.1-.5-.1.1,1.5.7.3.3.1.2c0,.1-.1.1-.1.2H518l-.6-.1-1.4-.7a.31.31,0,0,1-.1.2l1,.5-1.2-.1a.35.35,0,0,0-.1.2l1.7.2.5.3h0v.1h0l-.7.1-1.7-.3a.31.31,0,0,1-.1.2l1.2.2-1.3.1c0,.1,0,.1-.1.2l2-.2.7.1v.1l-.9.3-1.9.2c0,.1,0,.1-.1.2l1.3-.1-1.4.5v.2l2.1-.8.9-.1v.1l-1,.6-2.2.8v.2l1.5-.5-1.6.9v.2l2.3-1.4.9-.3-.9.8-2.4,1.4v.2l1.7-1-1.7,1.4v.2l2.5-2.1.8-.5-.8.9-2.5,1.9v.2l1.7-1.4-1.7,1.8v.2l2.5-2.6,1-.8-.8,1.1-2.6,2.7v.2l1.8-1.9c0,.1-.1.2-.2.3l-.1.1c-.4.6-1,1.5-1.3,1.9,0,.1,0,.1.1.2l2.4-3.4.9-.9-.7,1.2s-1.8,2.5-2.4,3.3a.31.31,0,0,0,.1.2l1.7-2.4c0,.1-.2.3-.4.6,0,.1-.1.1-.1.2a2.19,2.19,0,0,1-.3.5c0,.1-.1.1-.1.2s-.2.3-.2.5h0c-.1.1-.1.2-.2.3s-.1.2-.2.3l.1.1h0l2.1-3.8.8-1.2-.5,1.3s-1.8,3.2-2,3.8v.1h.1l.1-.1v-.1l1.5-2.7-1,2.7-.1.2v.1h.1l.1-.1.1-.3,1.4-3.7.4-.8-.2.8-1.6,3.7-.1.4v.1h.1l.1-.1.2-.4,1.1-2.5-.6,2.4-.1.5v.1h.1c.1,0,.1,0,.1-.1l.2-.6.9-3.5.6-1.4-.1,1.3-.9,3.4-.2.6h.1a.1.1,0,0,0,.1-.1l.2-.7.6-2.3-.2,2.1-.1.8h0a.1.1,0,0,0,.1-.1l.1-.9.3-3,.3-1.2.1,1-.4,3v.1l-.1.7h0a.1.1,0,0,0,.1-.1l.1-.6V695l.2-2,.1,1.8.1.8h0v-.1l-.1-1-.2-2.6.2-1.2-.2-.1v0l-.2-.1-.2.6.1-.7-.3-.1a.89.89,0,0,1-.4-.8,2.85,2.85,0,0,1,1.3-2.2,1,1,0,0,1,.9-.1l.7.4.3-.7h0l.2-.6-.5.4.8-1.1h0l.2-.6-.4.5-.8.9.7-1.2,1-1.4.2-.6-.6.9,1-1.9Zm-6.4,7.8.2-.1h0Zm.1-.5h0Zm-.1,1.1.3-.2v.1Zm1.1-2.6h0l-.2-.2Zm-.5.4.2.1h0Zm-.2.6h0l-.1-.1.1.1Zm0,2.7.5-.6.1-.1h0l-.1.2Zm1.1-4v0Zm.3-.1v0Zm.5.1h0v0Zm.3,0h0l-.1-.1.2-.7Zm.6.3.1-.2.5-.7-.4.7Zm.8-.6-.4.6-.2.1.1-.3Z" transform="translate(-511.45 -649.43)"/><path class="cls-3" d="M523,694.8h-.1l-.4-.8-.6-1.2.3,1.5.2,1.1a.1.1,0,0,1-.1.1h-.1l-.2-1c-.2-1-.5-2.2-.5-2.2l-.2-.5c.1,0,.2-.1.3-.1l.1.5.9,1.7.5.9C523,694.7,523,694.7,523,694.8Z" transform="translate(-511.45 -649.43)"/><path class="cls-3" d="M526.8,686.8h0v.1l-1,.4-2.2.8h0l.1-.2,2.3-1.4.8-.5h.1v.1l-.9.5-1.6,1,1.5-.5.9-.3Z" transform="translate(-511.45 -649.43)"/><path class="cls-3" d="M522.2,695.5a.1.1,0,0,1-.1.1H522a6.59,6.59,0,0,1-.3-1c-.2-.6-.4-1.3-.4-1.3l.1,1.6.1,1.2a.1.1,0,0,1-.1.1h0l-.1-1.1-.2-2.5-.2-.9h.4v.8l.6,2Z" transform="translate(-511.45 -649.43)"/><path class="cls-3" d="M525.2,689.3l-1.4.2,1.2.2,1,.2h.1v.1l-.1.1-1-.2-1.7-.3h-.4l.1-.3h.2l2-.2,1-.1h.1v.1a.1.1,0,0,1-.1.1Z" transform="translate(-511.45 -649.43)"/><path class="cls-3" d="M525.9,690.5h0l-1.2-.1-1.2-.2,1,.5.9.5h.1v.1h0l-1-.5-1.4-.7h-.3l.1-.3.3.1,1.8.2.7.1h.3c-.1.2-.1.2-.1.3Z" transform="translate(-511.45 -649.43)"/><path class="cls-3" d="M525.1,691.9h0v.1h0l-.9-.4-1.1-.5.9.9.7.8a.1.1,0,0,1-.1.1h0l-.7-.7-1.2-1.2-.2-.1.1-.1.1-.1.2.2,1.5.7.7.3Z" transform="translate(-511.45 -649.43)"/><path class="cls-3" d="M526.4,683.6v.1l-.5.5-1.4,1.5.2-.4,1.2-1.3.4-.5c0,.1,0,.1.1.1Z" transform="translate(-511.45 -649.43)"/><path class="cls-3" d="M526.8,685.5a.1.1,0,0,1-.1.1l-.8.4-2,1.2.2-.5,1.9-1.6.6-.5h.1v.1l-.6.5-1.7,1.4,1.7-1,.7-.4c-.1.2-.1.2,0,.3Z" transform="translate(-511.45 -649.43)"/><path class="cls-3" d="M526.6,684.4l-.6.5-1.6,1.3.1-.3,1.5-1.2.6-.5h.1A.31.31,0,0,0,526.6,684.4Z" transform="translate(-511.45 -649.43)"/><path class="cls-3" d="M526,683.3v.1l-.3.3-.7.8.2-.4.5-.5.3-.3Z" transform="translate(-511.45 -649.43)"/><path class="cls-3" d="M545.9,663.9a1,1,0,0,0-.5-.6.78.78,0,0,0-.8.2l-5.1-1.7a.52.52,0,0,0-.7.3c-.7.3-2.2,1.1-3.3,1.6a1.72,1.72,0,0,1-1.7,0l.1-.3v-.2l.8-1.1V662a.1.1,0,0,0-.1-.1,8.18,8.18,0,0,0-.9-.8c-.2-.1-.4-.3-.6-.4l-.1-.1c-.3-.2-.4-.2-.5-.2l-.5.6-.3-.2.3-.6h0a.31.31,0,0,0-.1-.2.1.1,0,0,1-.1-.1,15.62,15.62,0,0,1,9.4-.7c.2,0,.3.1.5.1a6.89,6.89,0,0,1,3.7,2A2.59,2.59,0,0,1,545.9,663.9Z" transform="translate(-511.45 -649.43)"/><path class="cls-3" d="M568.9,665.7Z" transform="translate(-511.45 -649.43)"/><path class="cls-3" d="M527.8,669c-.5.4-1.6-.1-2.5-1.1s-1-2.2-.5-2.6,1.6.1,2.4,1.1C528.2,667.4,528.4,668.6,527.8,669Z" transform="translate(-511.45 -649.43)"/><path class="cls-4" d="M568.9,665.7a16.81,16.81,0,0,1-3.9,7c-1.6,1.8-5.7,5.6-10.2,3.1l-.3-.2a2.65,2.65,0,0,1-.6-.5h0a5.81,5.81,0,0,1-1.6-1.9,4.48,4.48,0,0,1,.1-1.1h0a10,10,0,0,1,.2-1.6,21.18,21.18,0,0,1,1.2-5l.7.4h0l1.2-.7.5-.3a13.84,13.84,0,0,0-1.5,5.7,4.48,4.48,0,0,0,.1,1.2c-.2.1-.3.2-.5.3l-1.2.9c-.1,0-.1.1-.1.2s-.1.2-.1.4a.6.6,0,0,0,.1.4l.1.1h0c.1,0,.1.1.2.1h.4a8.41,8.41,0,0,1,1-.4h0l.6-.3c1.1,2,3.5,2.6,6.2,1a14.83,14.83,0,0,0,6.1-7.9c.2-.1.3-.2.5-.3s.5-.3.8-.6Z" transform="translate(-511.45 -649.43)"/><path class="cls-4" d="M568.9,665.7Z" transform="translate(-511.45 -649.43)"/><path class="cls-4" d="M566.7,667.2a.35.35,0,0,1-.1.2.31.31,0,0,1,.1-.2Z" transform="translate(-511.45 -649.43)"/><path class="cls-4" d="M569.3,663.6a.1.1,0,0,0-.1.1,10.37,10.37,0,0,1-1,.4,6.6,6.6,0,0,0,.1-1.4,5.26,5.26,0,0,0-1.5-4l1.1-.6.3-.2a4.8,4.8,0,0,1,.9,1.9A8,8,0,0,1,569.3,663.6Z" transform="translate(-511.45 -649.43)"/><path class="cls-4" d="M524.9,695.9c-1.6,1.8-5.7,5.6-10.2,3.1l-.3-.2a2.65,2.65,0,0,1-.6-.5h0c-4-3.3-2.5-10.2,1.5-15.5,1.2-1.4,3.8-4.1,6.9-4.5h1.2a4.92,4.92,0,0,1,2,.5l.6.3h0l-.4,1-.4,1a5.21,5.21,0,0,0-3.8.9,15.06,15.06,0,0,0-6.8,11.8c0,4.3,3.1,6.1,6.8,3.9a15.06,15.06,0,0,0,6.8-11.8,5,5,0,0,0-2-4.4l.4-1.1.3-.7a5.76,5.76,0,0,1,2.1,3.2C530.1,686.7,528.3,692.1,524.9,695.9Z" transform="translate(-511.45 -649.43)"/><path class="cls-4" d="M560.5,657.6h0v.4h0v.1a.1.1,0,0,1-.1.1c0,.1-.1.2-.2.3a8.29,8.29,0,0,1-1.9,1.8,20.28,20.28,0,0,1-1.8,1.3,2.51,2.51,0,0,1-.7.4c-.8.5-1.5.9-1.5.9-2.3,1.3-5.3,2.6-6.9,1.7h-.1c-.1-.1-.6-.3-1.3-.7h0a2.35,2.35,0,0,0-.5-2.5,7.62,7.62,0,0,0-3.7-2c-.2,0-.3-.1-.5-.1a18.58,18.58,0,0,0,3.2-1.1,33.54,33.54,0,0,0,4.6-2.8,20.76,20.76,0,0,1,3.4-2.4,1.08,1.08,0,0,1,1.1,0h.1l3.9,2.3,2.6,1.5a1,1,0,0,1,.5.6h0C560.5,657.5,560.5,657.6,560.5,657.6Z" transform="translate(-511.45 -649.43)"/><path class="cls-4" d="M545.9,664h0a1,1,0,0,0-.5-.6.78.78,0,0,0-.8.2l-5.1-1.7a.52.52,0,0,0-.7.3c-.7.3-2.2,1.1-3.3,1.6a1.72,1.72,0,0,1-1.7,0l.1-.3v-.2l.8-1.1v-.1a.1.1,0,0,0-.1-.1,8.18,8.18,0,0,0-.9-.8c-.2-.1-.4-.3-.6-.4a.1.1,0,0,1-.1-.1c-.3-.2-.4-.2-.5-.2l-.5.6-.3-.2.4-.6h0a.31.31,0,0,0-.1-.2l-.1-.1c-.2-.2-.6-.4-1-.7-.2-.1-.5-.2-.7-.3l-.1-.1c-.3-.1-.5-.2-.5-.1l-.4.7a2,2,0,0,0-.8.1l-.8.4-.1-.1a.55.55,0,0,1-.3-.5l-.7-5.2h0v-.5l-1.7-3a.75.75,0,0,0,0-.9,1,1,0,0,0-1.4-.2,1.06,1.06,0,0,0-.5,1.3c.1.3.4.4.8.4l1.7,3c0,.1.1.1.2.2l.7,5.1v.1h0a1.27,1.27,0,0,0-1.4.3c-.1.1-.2.2-.2.3-.3.6.7,1.9,1.5,1.6.1-.1.3-.2.4-.3v1.1a.55.55,0,0,0,.4.6h0l.5.3a1.27,1.27,0,0,0-.6.1,3.81,3.81,0,0,0-1.7.8,1,1,0,0,0-.5.7,3.17,3.17,0,0,0,.9,2.9l-3.3,10.2h1.2l2.2-6.4,2.6,1.5-2.2,5.7h0l-.4,1-.4,1-.4,1-.3.9-.4,1-.2.6-.5,1.2-.2.6h0l-.2.7-.2.6h0l-.3.7-.7,2a.48.48,0,0,0,.2.6h.3a.22.22,0,0,0,.2-.2v-.1l.1-.1.2-.4.1-.3.1-.3.1-.3.1-.4.1-.3.3-.6.1-.2.2-.6.2-.5.2-.5.1-.3v-.1l.2-.4.4-.9.2-.4.4-.9.1-.3h0l.2-.3.4-1,.4-1.1.3-.7,2.5-6.1.3-.8,1.5-3.6,1.3-3.3c.3.4.8.7,1.1.5a1.41,1.41,0,0,0,.7-1.5h.2a3.08,3.08,0,0,0,1.3-.3l3.2-1.6,5,1.6c.1.3.2.6.6.7h.3c.4,0,.7-.3.9-.8A1.27,1.27,0,0,0,545.9,664Zm-18.1,5c-.5.4-1.6-.1-2.4-1.1s-1.1-2.2-.5-2.6,1.6.1,2.5,1.1S528.4,668.6,527.8,669Z" transform="translate(-511.45 -649.43)"/><path class="cls-4" d="M565.7,657c-.5.5-2,.6-2.1-.6v-.1a1.42,1.42,0,0,1,.2-.6,1.7,1.7,0,0,1,.6-.6.37.37,0,0,1,.3-.1,1.27,1.27,0,0,1,.7.4c.1.1.2.2.2.3C565.9,656.2,566,656.7,565.7,657Z" transform="translate(-511.45 -649.43)"/></svg>