<svg id="Capa_1" data-name="Capa 1" xmlns="http://www.w3.org/2000/svg" xmlns:xlink="http://www.w3.org/1999/xlink" viewBox="0 0 165.53 113.3"><defs><style>.cls-1{fill:none;}.cls-2{fill:#b1b1b1;}.cls-3{fill:#838485;}.cls-4{fill:#5b5954;}.cls-5{clip-path:url(#clip-path);}.cls-6{fill:url(#Degradado_sin_nombre_295);}.cls-7{fill:#4a4752;}.cls-8{clip-path:url(#clip-path-2);}.cls-9{fill:url(#Degradado_sin_nombre_295-2);}.cls-10{clip-path:url(#clip-path-3);}.cls-11{fill:url(#Degradado_sin_nombre_296);}.cls-12{fill:#d5d3d4;}.cls-13{clip-path:url(#clip-path-4);}.cls-14{fill:url(#Degradado_sin_nombre_299);}.cls-15{fill:#e0dfe0;}.cls-16{clip-path:url(#clip-path-5);}.cls-17{fill:url(#Degradado_sin_nombre_299-2);}.cls-18{fill:#d6d4d6;}.cls-19{clip-path:url(#clip-path-6);}.cls-20{fill:url(#Degradado_sin_nombre_299-3);}.cls-21{clip-path:url(#clip-path-7);}.cls-22{fill:url(#Degradado_sin_nombre_295-3);}.cls-23{clip-path:url(#clip-path-8);}.cls-24{fill:url(#Degradado_sin_nombre_295-4);}.cls-25{clip-path:url(#clip-path-9);}.cls-26{fill:url(#Degradado_sin_nombre_296-2);}.cls-27{clip-path:url(#clip-path-10);}.cls-28{fill:url(#Degradado_sin_nombre_299-4);}.cls-29{clip-path:url(#clip-path-11);}.cls-30{fill:url(#Degradado_sin_nombre_299-5);}.cls-31{clip-path:url(#clip-path-12);}.cls-32{fill:url(#Degradado_sin_nombre_299-6);}.cls-33{fill:#66537d;}.cls-34{fill:#bbccb6;}.cls-35{fill:#828384;}.cls-36{fill:#717071;}.cls-37{fill:#a1a2a2;}.cls-38{fill:#524e51;}.cls-39{clip-path:url(#clip-path-13);}.cls-40{fill:url(#Degradado_sin_nombre_295-5);}.cls-41{clip-path:url(#clip-path-14);}.cls-42{fill:url(#Degradado_sin_nombre_295-6);}.cls-43{clip-path:url(#clip-path-15);}.cls-44{fill:url(#Degradado_sin_nombre_296-3);}.cls-45{clip-path:url(#clip-path-16);}.cls-46{fill:url(#Degradado_sin_nombre_299-7);}.cls-47{clip-path:url(#clip-path-17);}.cls-48{fill:url(#Degradado_sin_nombre_298);}.cls-49{clip-path:url(#clip-path-18);}.cls-50{fill:url(#Degradado_sin_nombre_299-8);}.cls-51{clip-path:url(#clip-path-19);}.cls-52{fill:url(#Degradado_sin_nombre_295-7);}.cls-53{clip-path:url(#clip-path-20);}.cls-54{fill:url(#Degradado_sin_nombre_295-8);}.cls-55{clip-path:url(#clip-path-21);}.cls-56{fill:url(#Degradado_sin_nombre_296-4);}.cls-57{clip-path:url(#clip-path-22);}.cls-58{fill:url(#Degradado_sin_nombre_299-9);}.cls-59{clip-path:url(#clip-path-23);}.cls-60{fill:url(#Degradado_sin_nombre_298-2);}.cls-61{clip-path:url(#clip-path-24);}.cls-62{fill:url(#Degradado_sin_nombre_299-10);}.cls-63{fill:#b3b3b2;}.cls-64{fill:#cbcaca;}.cls-65{fill:#bcbdbf;}.cls-66{clip-path:url(#clip-path-25);}.cls-67{fill:url(#Degradado_sin_nombre_285);}.cls-68{clip-path:url(#clip-path-26);}.cls-69{fill:url(#Degradado_sin_nombre_299-11);}.cls-70{fill:#b7b7b7;}.cls-71{clip-path:url(#clip-path-27);}.cls-72{fill:url(#Degradado_sin_nombre_306);}.cls-73{fill:#e4eded;}.cls-74{fill:#bcc2c2;}.cls-75{fill:#dadce0;}.cls-76{fill:#a3a6a7;}.cls-77{clip-path:url(#clip-path-28);}.cls-78{fill:url(#Degradado_sin_nombre_306-2);}.cls-79{clip-path:url(#clip-path-29);}.cls-80{fill:url(#Degradado_sin_nombre_303);}.cls-81{fill:#c1c7c6;}.cls-82{clip-path:url(#clip-path-30);}.cls-83{fill:url(#Degradado_sin_nombre_306-3);}.cls-84{clip-path:url(#clip-path-31);}.cls-85{fill:url(#Degradado_sin_nombre_303-2);}.cls-86{clip-path:url(#clip-path-32);}.cls-87{fill:url(#Degradado_sin_nombre_306-4);}.cls-88{clip-path:url(#clip-path-33);}.cls-89{fill:url(#Degradado_sin_nombre_305);}.cls-90{fill:#7f7e7f;}.cls-91{fill:#c1c8d8;}.cls-92{fill:#e0e3e7;}.cls-93{fill:#8e622d;}.cls-94{fill:#9ec5ab;}.cls-95{fill:#e5e4e4;}.cls-96{clip-path:url(#clip-path-34);}.cls-97{fill:url(#Degradado_sin_nombre_306-5);}.cls-98{fill:#8c9093;}.cls-99{fill:#818587;}.cls-100{fill:#a0a6a8;}.cls-101{fill:#454248;}.cls-102{clip-path:url(#clip-path-35);}.cls-103{fill:url(#Degradado_sin_nombre_295-9);}.cls-104{clip-path:url(#clip-path-36);}.cls-105{fill:url(#Degradado_sin_nombre_296-5);}.cls-106{clip-path:url(#clip-path-37);}.cls-107{fill:url(#Degradado_sin_nombre_299-12);}.cls-108{clip-path:url(#clip-path-38);}.cls-109{fill:url(#Degradado_sin_nombre_298-3);}.cls-110{clip-path:url(#clip-path-39);}.cls-111{fill:url(#Degradado_sin_nombre_299-13);}.cls-112{fill:#524c50;}.cls-113{fill:#d5bf46;}.cls-114{fill:#87352e;}.cls-115{fill:#c9cece;}.cls-116{fill:#d1d5d5;}.cls-117{fill:#a0acb5;}.cls-118{fill:#a44242;}.cls-119{clip-path:url(#clip-path-40);}.cls-120{fill:url(#Degradado_sin_nombre_306-6);}.cls-121{clip-path:url(#clip-path-41);}.cls-122{fill:url(#Degradado_sin_nombre_303-3);}.cls-123{clip-path:url(#clip-path-42);}.cls-124{fill:url(#Degradado_sin_nombre_306-7);}.cls-125{clip-path:url(#clip-path-43);}.cls-126{fill:url(#Degradado_sin_nombre_303-4);}.cls-127{clip-path:url(#clip-path-44);}.cls-128{fill:url(#Degradado_sin_nombre_306-8);}.cls-129{fill:#853830;}.cls-130{fill:#3e3e3d;}.cls-131{fill:#b08c39;}.cls-132{fill:#8f632e;}.cls-133{clip-path:url(#clip-path-45);}.cls-134{fill:url(#Degradado_sin_nombre_305-2);}.cls-135{clip-path:url(#clip-path-46);}.cls-136{fill:url(#Degradado_sin_nombre_306-9);}.cls-137{fill:#82393b;}.cls-138{fill:#bf793e;}.cls-139{fill:#d4b65a;}.cls-140{fill:#9e4b39;}.cls-141{fill:#8292a0;}.cls-142{fill:#777f8a;}.cls-143{fill:#878788;}.cls-144{fill:#fafbfb;}.cls-145{fill:#dcd9d9;}.cls-146{fill:#f9fcfd;}.cls-147{fill:#8ea5d5;}.cls-148{fill:#4c4249;}.cls-149{fill:#cf826d;}</style><clipPath id="clip-path" transform="translate(-6.91 -22.03)"><path class="cls-1" d="M105.51,44.09c0,2.31.79,3.95,2.11,4.81,1.78,1.19,5.6,3.23,5.6,3.23C118.55,49,129.09,38.3,129.09,33c0-2.31-5-4.08-6.39-4.94-1.77-1.12-4.47-1-7.5.79-5.41,3.1-9.69,10-9.69,15.28"/></clipPath><linearGradient id="Degradado_sin_nombre_295" x1="-8874.12" y1="15842.6" x2="-8886.64" y2="15864.64" gradientUnits="userSpaceOnUse"><stop offset="0" stop-color="#70757f"/><stop offset="0.13" stop-color="#70757f"/><stop offset="0.44" stop-color="#56555d"/><stop offset="0.84" stop-color="#56555d"/><stop offset="1" stop-color="#45434a"/></linearGradient><clipPath id="clip-path-2" transform="translate(-6.91 -22.03)"><path class="cls-1" d="M111.64,47.58c0,2.31.79,4,2.11,4.81,1.77,1.19,5.6,3.23,5.6,3.23,5.33-3.1,15.87-13.83,15.87-19.17,0-2.3-5-4.08-6.39-4.94-1.78-1.12-4.48-1-7.51.79-5.33,3.1-9.68,10-9.68,15.28"/></clipPath><linearGradient id="Degradado_sin_nombre_295-2" x1="-9099.63" y1="15436.43" x2="-9112.8" y2="15458.46" xlink:href="#Degradado_sin_nombre_295"/><clipPath id="clip-path-3" transform="translate(-6.91 -22.03)"><path class="cls-1" d="M119.74,48.5c0,3.56,2.9,4.75,6.46,2.71s6.45-6.59,6.45-10.15-2.9-4.74-6.45-2.7S119.74,45,119.74,48.5"/></clipPath><linearGradient id="Degradado_sin_nombre_296" x1="9437.1" y1="9823.44" x2="9430.51" y2="9816.51" gradientUnits="userSpaceOnUse"><stop offset="0" stop-color="#dddee2"/><stop offset="0.13" stop-color="#dddee2"/><stop offset="0.44" stop-color="#bfc0c1"/><stop offset="0.84" stop-color="#bfc0c1"/><stop offset="1" stop-color="#a4a7a9"/></linearGradient><clipPath id="clip-path-4" transform="translate(-6.91 -22.03)"><path class="cls-1" d="M132.32,41.72c0,3.16-2.57,7.25-5.8,9.09s-5.79.72-5.79-2.44a5.38,5.38,0,0,1,.13-1,12.47,12.47,0,0,1,5.66-8c.27-.13.47-.26.66-.33,3-1.31,5.14-.19,5.14,2.77"/></clipPath><linearGradient id="Degradado_sin_nombre_299" x1="-8319.42" y1="13606.69" x2="-8326.66" y2="13618.35" gradientUnits="userSpaceOnUse"><stop offset="0" stop-color="#78787a"/><stop offset="0.16" stop-color="#78787a"/><stop offset="0.56" stop-color="#b0b2b3"/><stop offset="0.87" stop-color="#aaadae"/><stop offset="1" stop-color="#aaadae"/></linearGradient><clipPath id="clip-path-5" transform="translate(-6.91 -22.03)"><path class="cls-1" d="M129.16,40.8c0,2.37-3,6.65-5.34,8.1h-.06a.19.19,0,0,1-.13-.07.62.62,0,0,1-.33-.13c-.07,0-.07,0-.13-.06a14.64,14.64,0,0,1-2.18-1,1,1,0,0,1-.13-.46,10.61,10.61,0,0,1,.33-1.32,12.68,12.68,0,0,1,4.54-6.19,5.74,5.74,0,0,1,.79-.53c.2-.13.4-.2.6-.33a10.93,10.93,0,0,1,1.71,1.52,4.09,4.09,0,0,0,.33.46"/></clipPath><linearGradient id="Degradado_sin_nombre_299-2" x1="-9044.98" y1="16057.22" x2="-9050.25" y2="16066.45" xlink:href="#Degradado_sin_nombre_299"/><clipPath id="clip-path-6" transform="translate(-6.91 -22.03)"><path class="cls-1" d="M127.91,43.63a3.76,3.76,0,0,1-1.85,2.9c-1,.59-1.84.26-1.84-.79v-.33A4.11,4.11,0,0,1,126,42.84c.06-.07.13-.07.2-.13,1-.4,1.71,0,1.71.92"/></clipPath><linearGradient id="Degradado_sin_nombre_299-3" x1="-8946.72" y1="12081" x2="-8949.35" y2="12084.51" xlink:href="#Degradado_sin_nombre_299"/><clipPath id="clip-path-7" transform="translate(-6.91 -22.03)"><path class="cls-1" d="M83.25,56.94c0,2.3.79,4,2.11,4.8C87.14,62.93,91,65,91,65c5.33-3.09,15.87-13.83,15.87-19.17,0-2.3-5-4.08-6.39-4.94-1.78-1.12-4.48-1-7.51.79-5.33,3.1-9.68,10-9.68,15.29"/></clipPath><linearGradient id="Degradado_sin_nombre_295-3" x1="-8898.07" y1="15852.25" x2="-8910.58" y2="15874.29" xlink:href="#Degradado_sin_nombre_295"/><clipPath id="clip-path-8" transform="translate(-6.91 -22.03)"><path class="cls-1" d="M89.44,60.43c0,2.3.79,3.95,2.11,4.81,1.78,1.18,5.6,3.22,5.6,3.22C102.48,65.37,113,54.63,113,49.3c0-2.31-5-4.09-6.39-4.94-1.78-1.12-4.48-1-7.51.79-5.33,3.09-9.68,9.94-9.68,15.28"/></clipPath><linearGradient id="Degradado_sin_nombre_295-4" x1="-9120.04" y1="15452.28" x2="-9133.21" y2="15474.32" xlink:href="#Degradado_sin_nombre_295"/><clipPath id="clip-path-9" transform="translate(-6.91 -22.03)"><path class="cls-1" d="M97.54,61.35c0,3.56,2.9,4.74,6.46,2.7s6.45-6.59,6.45-10.14-2.9-4.75-6.45-2.7-6.46,6.58-6.46,10.14"/></clipPath><linearGradient id="Degradado_sin_nombre_296-2" x1="9314.15" y1="10810.18" x2="9308.22" y2="10803.25" xlink:href="#Degradado_sin_nombre_296"/><clipPath id="clip-path-10" transform="translate(-6.91 -22.03)"><path class="cls-1" d="M110.12,54.56c0,3.17-2.57,7.25-5.79,9.09s-5.8.73-5.8-2.43a6.39,6.39,0,0,1,.13-1.06,12.41,12.41,0,0,1,5.67-8,5,5,0,0,1,.66-.33c2.89-1.32,5.13-.2,5.13,2.76"/></clipPath><linearGradient id="Degradado_sin_nombre_299-4" x1="-8645.6" y1="12936.1" x2="-8653.51" y2="12947.76" xlink:href="#Degradado_sin_nombre_299"/><clipPath id="clip-path-11" transform="translate(-6.91 -22.03)"><path class="cls-1" d="M106.9,53.64c0,2.37-3,6.66-5.34,8.1h-.07a.22.22,0,0,1-.13-.06c-.13,0-.19-.07-.33-.13s-.06,0-.13-.07a15.07,15.07,0,0,1-2.17-1A.89.89,0,0,1,98.6,60a8.22,8.22,0,0,1,.33-1.32,12.71,12.71,0,0,1,4.54-6.19,5.11,5.11,0,0,1,.79-.52c.2-.14.4-.2.59-.33a10.64,10.64,0,0,1,1.72,1.51,3.91,3.91,0,0,1,.33.46"/></clipPath><linearGradient id="Degradado_sin_nombre_299-5" x1="-9067.13" y1="16069.88" x2="-9072.4" y2="16079.1" xlink:href="#Degradado_sin_nombre_299"/><clipPath id="clip-path-12" transform="translate(-6.91 -22.03)"><path class="cls-1" d="M105.71,56.47a3.77,3.77,0,0,1-1.84,2.9c-1,.6-1.85.27-1.85-.79v-.33a4.11,4.11,0,0,1,1.78-2.57c.07-.06.13-.06.2-.13,1-.39,1.71,0,1.71.92"/></clipPath><linearGradient id="Degradado_sin_nombre_299-6" x1="-8494.98" y1="13376.53" x2="-8497.62" y2="13380.62" xlink:href="#Degradado_sin_nombre_299"/><clipPath id="clip-path-13" transform="translate(-6.91 -22.03)"><path class="cls-1" d="M138.18,63.13c0,2.3.79,3.95,2.11,4.81,1.78,1.18,5.6,3.22,5.6,3.22,5.34-3.09,15.87-13.83,15.87-19.16,0-2.31-5-4.09-6.39-4.94-1.77-1.12-4.47-1-7.5.79-5.41,3.09-9.69,9.94-9.69,15.28"/></clipPath><linearGradient id="Degradado_sin_nombre_295-5" x1="-9199.82" y1="15208.98" x2="-9213" y2="15230.38" xlink:href="#Degradado_sin_nombre_295"/><clipPath id="clip-path-14" transform="translate(-6.91 -22.03)"><path class="cls-1" d="M144.37,66.62c0,2.3.8,3.95,2.11,4.81,1.78,1.18,5.6,3.22,5.6,3.22C157.42,71.56,168,60.82,168,55.49c0-2.31-5-4.09-6.39-4.94-1.78-1.12-4.48-1-7.51.79-5.4,3.09-9.69,9.94-9.69,15.28"/></clipPath><linearGradient id="Degradado_sin_nombre_295-6" x1="-8835.2" y1="15865.03" x2="-8847.72" y2="15887.07" xlink:href="#Degradado_sin_nombre_295"/><clipPath id="clip-path-15" transform="translate(-6.91 -22.03)"><path class="cls-1" d="M152.41,67.47c0,3.56,2.9,4.75,6.46,2.71s6.45-6.59,6.45-10.15-2.9-4.74-6.45-2.7-6.46,6.59-6.46,10.14"/></clipPath><linearGradient id="Degradado_sin_nombre_296-3" x1="-8490.14" y1="12859.45" x2="-8498.7" y2="12872.15" xlink:href="#Degradado_sin_nombre_296"/><clipPath id="clip-path-16" transform="translate(-6.91 -22.03)"><path class="cls-1" d="M165.06,60.76c0,3.16-2.57,7.24-5.8,9.09s-5.8.72-5.8-2.44a5.3,5.3,0,0,1,.14-1,12.45,12.45,0,0,1,5.66-8,6.72,6.72,0,0,1,.66-.33c2.9-1.38,5.14-.2,5.14,2.77"/></clipPath><linearGradient id="Degradado_sin_nombre_299-7" x1="-8276.24" y1="13578.95" x2="-8283.49" y2="13590.59" xlink:href="#Degradado_sin_nombre_299"/><clipPath id="clip-path-17" transform="translate(-6.91 -22.03)"><path class="cls-1" d="M161.83,59.83c0,2.38-3,6.66-5.34,8.11h-.06a.19.19,0,0,1-.13-.07c-.14,0-.2-.07-.33-.13s-.07,0-.13-.07a13.68,13.68,0,0,1-2.18-1,1,1,0,0,1-.13-.46,10.47,10.47,0,0,1,.33-1.31,12.75,12.75,0,0,1,4.54-6.2,6.68,6.68,0,0,1,.79-.52c.2-.13.4-.2.6-.33a10.48,10.48,0,0,1,1.71,1.51,3.91,3.91,0,0,1,.33.46"/></clipPath><linearGradient id="Degradado_sin_nombre_298" x1="-9012.43" y1="16076.48" x2="-9017.7" y2="16085.7" gradientUnits="userSpaceOnUse"><stop offset="0" stop-color="#b0b2b3"/><stop offset="0.13" stop-color="#b0b2b3"/><stop offset="0.44" stop-color="#8e9193"/><stop offset="0.84" stop-color="#8e9193"/><stop offset="1" stop-color="#78787a"/></linearGradient><clipPath id="clip-path-18" transform="translate(-6.91 -22.03)"><path class="cls-1" d="M160.58,62.6a3.76,3.76,0,0,1-1.85,2.9c-1,.59-1.84.26-1.84-.79v-.33a4.11,4.11,0,0,1,1.78-2.57c.06-.07.13-.07.2-.13,1-.33,1.71,0,1.71.92"/></clipPath><linearGradient id="Degradado_sin_nombre_299-8" x1="-7951.12" y1="14517.26" x2="-7953.09" y2="14520.79" xlink:href="#Degradado_sin_nombre_299"/><clipPath id="clip-path-19" transform="translate(-6.91 -22.03)"><path class="cls-1" d="M115.92,76c0,2.31.79,4,2.11,4.81,1.78,1.19,5.6,3.23,5.6,3.23,5.33-3.1,15.87-13.83,15.87-19.17,0-2.31-5-4.08-6.39-4.94-1.78-1.12-4.48-1-7.51.79-5.33,3.1-9.68,9.88-9.68,15.28"/></clipPath><linearGradient id="Degradado_sin_nombre_295-7" x1="-9095.41" y1="15464.91" x2="-9108.58" y2="15486.95" xlink:href="#Degradado_sin_nombre_295"/><clipPath id="clip-path-20" transform="translate(-6.91 -22.03)"><path class="cls-1" d="M122.11,79.46c0,2.31.79,4,2.11,4.81,1.78,1.19,5.6,3.23,5.6,3.23,5.33-3.1,15.87-13.83,15.87-19.17,0-2.3-5-4.08-6.39-4.94-1.78-1.12-4.48-1-7.51.79-5.33,3.1-9.68,9.88-9.68,15.28"/></clipPath><linearGradient id="Degradado_sin_nombre_295-8" x1="-8857.36" y1="15877.68" x2="-8869.87" y2="15899.73" xlink:href="#Degradado_sin_nombre_295"/><clipPath id="clip-path-21" transform="translate(-6.91 -22.03)"><path class="cls-1" d="M130.21,80.32c0,3.56,2.9,4.74,6.46,2.7s6.45-6.59,6.45-10.14-2.9-4.75-6.45-2.7-6.46,6.58-6.46,10.14"/></clipPath><linearGradient id="Degradado_sin_nombre_296-4" x1="-8062.52" y1="13825.7" x2="-8070.42" y2="13838.99" xlink:href="#Degradado_sin_nombre_296"/><clipPath id="clip-path-22" transform="translate(-6.91 -22.03)"><path class="cls-1" d="M142.79,73.6c0,3.16-2.56,7.25-5.79,9.09s-5.8.72-5.8-2.44a6.28,6.28,0,0,1,.13-1,12.48,12.48,0,0,1,5.67-8,6.72,6.72,0,0,1,.66-.33c2.89-1.38,5.13-.19,5.13,2.77"/></clipPath><linearGradient id="Degradado_sin_nombre_299-9" x1="-8298.41" y1="13591.64" x2="-8305.65" y2="13603.28" xlink:href="#Degradado_sin_nombre_299"/><clipPath id="clip-path-23" transform="translate(-6.91 -22.03)"><path class="cls-1" d="M139.57,72.61c0,2.37-3,6.66-5.34,8.1h-.06a.24.24,0,0,1-.14-.06c-.13,0-.19-.07-.33-.13s-.06,0-.13-.07a15.07,15.07,0,0,1-2.17-1,.89.89,0,0,1-.13-.46,8,8,0,0,1,.33-1.32,12.71,12.71,0,0,1,4.54-6.19,5.11,5.11,0,0,1,.79-.52c.2-.14.4-.2.59-.33a10.64,10.64,0,0,1,1.72,1.51,2.94,2.94,0,0,0,.33.46"/></clipPath><linearGradient id="Degradado_sin_nombre_298-2" x1="-9034.62" y1="16089.12" x2="-9039.89" y2="16098.34" xlink:href="#Degradado_sin_nombre_298"/><clipPath id="clip-path-24" transform="translate(-6.91 -22.03)"><path class="cls-1" d="M138.38,75.44a3.77,3.77,0,0,1-1.84,2.9c-1,.6-1.85.27-1.85-.79v-.33a4.11,4.11,0,0,1,1.78-2.57c.07-.06.13-.06.2-.13,1-.39,1.71,0,1.71.92"/></clipPath><linearGradient id="Degradado_sin_nombre_299-10" x1="-8468.25" y1="13382.33" x2="-8470.88" y2="13386.41" xlink:href="#Degradado_sin_nombre_299"/><clipPath id="clip-path-25" transform="translate(-6.91 -22.03)"><path class="cls-1" d="M121.39,45.67V48c0,1.58,2,2.9,4.41,2.9s4.41-1.32,4.41-2.9v-2.5Z"/></clipPath><linearGradient id="Degradado_sin_nombre_285" x1="114.22" y1="26.22" x2="122.78" y2="26.22" gradientUnits="userSpaceOnUse"><stop offset="0" stop-color="#504d51"/><stop offset="0.16" stop-color="#504d51"/><stop offset="0.56" stop-color="#828587"/><stop offset="0.87" stop-color="#7e7f82"/><stop offset="1" stop-color="#7e7f82"/></linearGradient><clipPath id="clip-path-26" transform="translate(-6.91 -22.03)"><path class="cls-1" d="M117.63,43.43v1.06c0,3,3.69,5.33,8.17,5.33S134,47.45,134,44.49V43.17Z"/></clipPath><linearGradient id="Degradado_sin_nombre_299-11" x1="110.26" y1="24.47" x2="126.73" y2="24.47" xlink:href="#Degradado_sin_nombre_299"/><clipPath id="clip-path-27" transform="translate(-6.91 -22.03)"><path class="cls-1" d="M51.44,41.59V70.31c0,.79,1,1.51,2.3,1.51s2.31-.66,2.31-1.51V41.52Z"/></clipPath><linearGradient id="Degradado_sin_nombre_306" x1="44.4" y1="34.65" x2="49.01" y2="34.65" gradientUnits="userSpaceOnUse"><stop offset="0" stop-color="#a4a6a7"/><stop offset="0.16" stop-color="#a4a6a7"/><stop offset="0.56" stop-color="#dcdce1"/><stop offset="0.87" stop-color="#d6d8db"/><stop offset="1" stop-color="#d6d8db"/></linearGradient><clipPath id="clip-path-28" transform="translate(-6.91 -22.03)"><path class="cls-1" d="M29.63,79.59v1.12C29.63,82,31.21,83,33.12,83s3.5-1,3.5-2.31V79.46Z"/></clipPath><linearGradient id="Degradado_sin_nombre_306-2" x1="22.66" y1="59.22" x2="29.25" y2="59.22" xlink:href="#Degradado_sin_nombre_306"/><clipPath id="clip-path-29" transform="translate(-6.91 -22.03)"><path class="cls-1" d="M29.24,77.75V79c0,1.38,1.71,2.5,3.88,2.5S37,80.38,37,79V77.62Z"/></clipPath><linearGradient id="Degradado_sin_nombre_303" x1="22" y1="57.54" x2="29.91" y2="57.54" gradientUnits="userSpaceOnUse"><stop offset="0" stop-color="#bbbcbd"/><stop offset="0.16" stop-color="#bbbcbd"/><stop offset="0.56" stop-color="#f1f4fb"/><stop offset="0.87" stop-color="#eceff6"/><stop offset="1" stop-color="#eceff6"/></linearGradient><clipPath id="clip-path-30" transform="translate(-6.91 -22.03)"><path class="cls-1" d="M29.63,74.19v3.16c0,1.26,1.58,2.31,3.49,2.31s3.5-1,3.5-2.31V74.13Z"/></clipPath><linearGradient id="Degradado_sin_nombre_306-3" x1="22.66" y1="54.87" x2="29.25" y2="54.87" xlink:href="#Degradado_sin_nombre_306"/><clipPath id="clip-path-31" transform="translate(-6.91 -22.03)"><path class="cls-1" d="M29.24,72v1.26c0,1.38,1.71,2.5,3.88,2.5S37,74.59,37,73.21V71.82Z"/></clipPath><linearGradient id="Degradado_sin_nombre_303-2" x1="22" y1="51.74" x2="29.91" y2="51.74" xlink:href="#Degradado_sin_nombre_303"/><clipPath id="clip-path-32" transform="translate(-6.91 -22.03)"><path class="cls-1" d="M29.63,70.57v1.12c0,1.25,1.58,2.31,3.49,2.31s3.5-1,3.5-2.31V70.44Z"/></clipPath><linearGradient id="Degradado_sin_nombre_306-4" x1="22.66" y1="50.19" x2="29.25" y2="50.19" xlink:href="#Degradado_sin_nombre_306"/><clipPath id="clip-path-33" transform="translate(-6.91 -22.03)"><path class="cls-1" d="M16.33,100.34v1.45a.67.67,0,0,1-.33.59c-.2.07-1.19.86-1.38.73l-3.3-4a1.76,1.76,0,0,1-.85-1.52l-1.72-.72c0-.2,1.06-.66,1.19-.79a.07.07,0,0,0,.07-.07.59.59,0,0,1,.65,0l4.81,2.77a1.82,1.82,0,0,1,.86,1.51"/></clipPath><linearGradient id="Degradado_sin_nombre_305" x1="9069.49" y1="15638.36" x2="9072.12" y2="15642.88" gradientUnits="userSpaceOnUse"><stop offset="0" stop-color="#dcdce1"/><stop offset="0.13" stop-color="#dcdce1"/><stop offset="0.44" stop-color="#bdbec0"/><stop offset="0.84" stop-color="#bdbec0"/><stop offset="1" stop-color="#a4a6a7"/></linearGradient><clipPath id="clip-path-34" transform="translate(-6.91 -22.03)"><path class="cls-1" d="M97,101.4l14.49-8.57c1.91-1.12,2.11-4.41.4-7.37s-4.68-4.48-6.59-3.36L90.56,90.79Z"/></clipPath><linearGradient id="Degradado_sin_nombre_306-5" x1="8915.97" y1="15543.23" x2="8910.19" y2="15533.07" xlink:href="#Degradado_sin_nombre_306"/><clipPath id="clip-path-35" transform="translate(-6.91 -22.03)"><path class="cls-1" d="M49.46,122.74c0,2.3.79,4,2.11,4.81,1.78,1.18,5.6,3.22,5.6,3.22C62.5,127.68,73,116.94,73,111.61c0-2.31-5-4.09-6.39-4.94-1.78-1.12-4.48-1-7.51.79-5.4,3.09-9.68,9.88-9.68,15.28"/></clipPath><linearGradient id="Degradado_sin_nombre_295-9" x1="-9161.89" y1="15511.71" x2="-9175.06" y2="15533.74" xlink:href="#Degradado_sin_nombre_295"/><clipPath id="clip-path-36" transform="translate(-6.91 -22.03)"><path class="cls-1" d="M57.5,123.59c0,3.56,2.89,4.75,6.45,2.7s6.46-6.58,6.46-10.14-2.9-4.74-6.46-2.7S57.5,120,57.5,123.59"/></clipPath><linearGradient id="Degradado_sin_nombre_296-5" x1="-8584.98" y1="12915.46" x2="-8593.54" y2="12928.16" xlink:href="#Degradado_sin_nombre_296"/><clipPath id="clip-path-37" transform="translate(-6.91 -22.03)"><path class="cls-1" d="M70.14,116.81c0,3.16-2.57,7.24-5.79,9.09s-5.8.72-5.8-2.44a6.28,6.28,0,0,1,.13-1,12.43,12.43,0,0,1,5.67-8c.26-.13.46-.26.65-.33,2.9-1.31,5.14-.13,5.14,2.77"/></clipPath><linearGradient id="Degradado_sin_nombre_299-12" x1="-8680.96" y1="12982.03" x2="-8688.86" y2="12993.69" xlink:href="#Degradado_sin_nombre_299"/><clipPath id="clip-path-38" transform="translate(-6.91 -22.03)"><path class="cls-1" d="M66.91,115.89c0,2.37-3,6.65-5.33,8.1h-.07a.2.2,0,0,1-.13-.07.65.65,0,0,1-.33-.13c-.06,0-.06,0-.13-.06a14.59,14.59,0,0,1-2.17-1,.92.92,0,0,1-.13-.46,9.05,9.05,0,0,1,.32-1.32,12.7,12.7,0,0,1,4.55-6.19,5.2,5.2,0,0,1,.79-.53c.2-.13.4-.2.59-.33a11.1,11.1,0,0,1,1.72,1.52c.26.39.32.46.32.46"/></clipPath><linearGradient id="Degradado_sin_nombre_298-3" x1="-9107.3" y1="16132.46" x2="-9112.57" y2="16141.68" xlink:href="#Degradado_sin_nombre_298"/><clipPath id="clip-path-39" transform="translate(-6.91 -22.03)"><path class="cls-1" d="M65.66,118.72a3.79,3.79,0,0,1-1.84,2.9c-1,.59-1.85.26-1.85-.79v-.33a4.19,4.19,0,0,1,1.78-2.57c.07-.07.13-.07.2-.13,1-.4,1.71,0,1.71.92"/></clipPath><linearGradient id="Degradado_sin_nombre_299-13" x1="-8018.48" y1="14418.99" x2="-8020.46" y2="14422.49" xlink:href="#Degradado_sin_nombre_299"/><clipPath id="clip-path-40" transform="translate(-6.91 -22.03)"><path class="cls-1" d="M65.47,101.73v1.12c0,1.25,1.58,2.3,3.49,2.3s3.49-1,3.49-2.3v-1.26Z"/></clipPath><linearGradient id="Degradado_sin_nombre_306-6" x1="58.23" y1="81.35" x2="65.47" y2="81.35" xlink:href="#Degradado_sin_nombre_306"/><clipPath id="clip-path-41" transform="translate(-6.91 -22.03)"><path class="cls-1" d="M65.07,99.88v1.25c0,1.39,1.71,2.51,3.89,2.51s3.88-1.12,3.88-2.51V99.75Z"/></clipPath><linearGradient id="Degradado_sin_nombre_303-3" x1="57.57" y1="79.67" x2="65.47" y2="79.67" xlink:href="#Degradado_sin_nombre_303"/><clipPath id="clip-path-42" transform="translate(-6.91 -22.03)"><path class="cls-1" d="M65.47,96.32v3.17c0,1.25,1.58,2.3,3.49,2.3s3.49-1,3.49-2.3V96.26Z"/></clipPath><linearGradient id="Degradado_sin_nombre_306-7" x1="58.23" y1="77" x2="65.47" y2="77" xlink:href="#Degradado_sin_nombre_306"/><clipPath id="clip-path-43" transform="translate(-6.91 -22.03)"><path class="cls-1" d="M65.07,94.09v1.25c0,1.38,1.71,2.5,3.89,2.5s3.88-1.12,3.88-2.5V94Z"/></clipPath><linearGradient id="Degradado_sin_nombre_303-4" x1="57.57" y1="73.87" x2="65.47" y2="73.87" xlink:href="#Degradado_sin_nombre_303"/><clipPath id="clip-path-44" transform="translate(-6.91 -22.03)"><path class="cls-1" d="M65.47,92.7v1.12c0,1.25,1.58,2.31,3.49,2.31s3.49-1,3.49-2.31V92.57Z"/></clipPath><linearGradient id="Degradado_sin_nombre_306-8" x1="58.23" y1="72.32" x2="65.47" y2="72.32" xlink:href="#Degradado_sin_nombre_306"/><clipPath id="clip-path-45" transform="translate(-6.91 -22.03)"><path class="cls-1" d="M50.18,119.91v1.44a.69.69,0,0,1-.33.6c-.19.06-1.18.85-1.38.72l-3.29-4a1.75,1.75,0,0,1-.86-1.52l-1.71-.72c0-.2,1-.66,1.19-.79a.06.06,0,0,0,.06-.07.61.61,0,0,1,.66,0l4.81,2.77a1.76,1.76,0,0,1,.85,1.52"/></clipPath><linearGradient id="Degradado_sin_nombre_305-2" x1="9731.31" y1="14344.6" x2="9733.94" y2="14348.48" xlink:href="#Degradado_sin_nombre_305"/><clipPath id="clip-path-46" transform="translate(-6.91 -22.03)"><path class="cls-1" d="M85.29,61.55V93.82c0,.79,1,1.52,2.31,1.52s2.3-.66,2.3-1.52V61.48Z"/></clipPath><linearGradient id="Degradado_sin_nombre_306-9" x1="77.99" y1="56.38" x2="82.6" y2="56.38" xlink:href="#Degradado_sin_nombre_306"/></defs><polygon class="cls-2" points="163.55 26.28 165.53 25.23 129.82 4.61 127.85 5.67 163.55 26.28"/><polygon class="cls-3" points="163.55 31.88 165.53 30.89 165.53 25.23 163.55 26.28 163.55 31.88"/><polygon class="cls-4" points="127.85 5.67 163.55 26.28 163.55 31.88 127.85 11.33 127.85 5.67"/><g class="cls-5"><rect class="cls-6" x="98.6" y="4.87" width="23.58" height="25.23"/></g><path class="cls-7" d="M128.11,31.29c-3.23-2.43-9.3.2-13.57,5.87s-5.1,12.23-1.87,14.66,9.3-.21,13.56-5.87,5.11-12.24,1.88-14.66" transform="translate(-6.91 -22.03)"/><g class="cls-8"><rect class="cls-9" x="104.73" y="8.37" width="23.58" height="25.23"/></g><path class="cls-7" d="M134.3,34.77c-3.22-2.42-9.3.21-13.56,5.88s-5.11,12.23-1.88,14.66,9.3-.21,13.56-5.87,5.11-12.24,1.88-14.67" transform="translate(-6.91 -22.03)"/><g class="cls-10"><rect class="cls-11" x="112.83" y="14.29" width="12.91" height="16.93"/></g><path class="cls-12" d="M131.73,38.19c-2.13-1.59-6.15.18-9,4s-3.43,8.13-1.31,9.73,6.15-.17,9-4,3.43-8.14,1.31-9.74" transform="translate(-6.91 -22.03)"/><g class="cls-13"><rect class="cls-14" x="113.82" y="15.61" width="11.59" height="15.02"/></g><path class="cls-15" d="M129.55,41.39h0c0,2.44-2,5.53-4.34,6.92a3.88,3.88,0,0,1-1.25.52,2.14,2.14,0,0,1-2.84-1.12,1,1,0,0,1-.13-.46,10.47,10.47,0,0,1,.33-1.31,12.77,12.77,0,0,1,4.55-6.2,5.37,5.37,0,0,1,.79-.52c.19-.13.39-.2.59-.33s.06-.07.13-.07a2.31,2.31,0,0,1,2.17,2.57" transform="translate(-6.91 -22.03)"/><g class="cls-16"><rect class="cls-17" x="113.95" y="16.8" width="8.3" height="10.08"/></g><path class="cls-18" d="M129.69,42.38a7.83,7.83,0,0,1-3.76,5.93c-2,1.18-3.75.46-3.75-1.58a3.3,3.3,0,0,1,.06-.73,8.16,8.16,0,0,1,3.69-5.2,1.32,1.32,0,0,1,.46-.2c1.85-.92,3.3-.13,3.3,1.78" transform="translate(-6.91 -22.03)"/><g class="cls-19"><rect class="cls-20" x="117.31" y="20.29" width="3.69" height="4.81"/></g><path class="cls-15" d="M126.33,43.89a1.64,1.64,0,0,1-.73,1.19c-.39.26-.72.07-.72-.33v-.13a1.37,1.37,0,0,1,.72-1,.07.07,0,0,0,.07-.07c.39-.19.66-.06.66.33" transform="translate(-6.91 -22.03)"/><g class="cls-21"><rect class="cls-22" x="76.34" y="17.72" width="23.58" height="25.23"/></g><path class="cls-7" d="M105.86,44.15c-3.22-2.43-9.3.2-13.56,5.87s-5.11,12.23-1.88,14.66,9.3-.2,13.57-5.87,5.1-12.23,1.87-14.66" transform="translate(-6.91 -22.03)"/><g class="cls-23"><rect class="cls-24" x="82.53" y="21.21" width="23.58" height="25.23"/></g><path class="cls-7" d="M112.05,47.64c-3.22-2.43-9.3.2-13.56,5.87s-5.1,12.23-1.88,14.66,9.3-.2,13.57-5.87,5.1-12.24,1.87-14.66" transform="translate(-6.91 -22.03)"/><g class="cls-25"><rect class="cls-26" x="90.63" y="27.14" width="12.91" height="16.93"/></g><path class="cls-12" d="M97.94,61.61c0,3.56,2.9,4.75,6.45,2.7s6.46-6.58,6.46-10.14-2.9-4.74-6.46-2.7-6.45,6.59-6.45,10.14" transform="translate(-6.91 -22.03)"/><g class="cls-27"><rect class="cls-28" x="91.62" y="28.45" width="11.59" height="15.02"/></g><path class="cls-15" d="M107.29,54.24h0c0,2.43-2,5.53-4.35,6.91a4.06,4.06,0,0,1-1.25.53,2.15,2.15,0,0,1-2.83-1.12.89.89,0,0,1-.13-.46,9.1,9.1,0,0,1,.33-1.32,12.62,12.62,0,0,1,4.54-6.19,5.74,5.74,0,0,1,.79-.53c.2-.13.4-.2.6-.33s.06-.06.13-.06a2.26,2.26,0,0,1,2.17,2.57" transform="translate(-6.91 -22.03)"/><g class="cls-29"><rect class="cls-30" x="91.69" y="29.64" width="8.3" height="10.08"/></g><path class="cls-18" d="M107.49,55.22a7.78,7.78,0,0,1-3.76,5.93c-2,1.19-3.75.46-3.75-1.58a2.73,2.73,0,0,1,.07-.72,8.19,8.19,0,0,1,3.68-5.21,1.55,1.55,0,0,1,.47-.19c1.84-.93,3.29-.14,3.29,1.77" transform="translate(-6.91 -22.03)"/><g class="cls-31"><rect class="cls-32" x="95.11" y="33.13" width="3.69" height="4.81"/></g><path class="cls-15" d="M104.13,56.74a1.66,1.66,0,0,1-.72,1.18c-.4.27-.73.07-.73-.33v-.13a1.4,1.4,0,0,1,.73-1,.06.06,0,0,0,.06-.06c.33-.2.66-.07.66.33" transform="translate(-6.91 -22.03)"/><polygon class="cls-33" points="132 23.84 130.48 24.7 130.48 14.89 132 13.96 132 23.84"/><path class="cls-34" d="M131,39.32c-1.83-1.38-5.28.12-7.71,3.35s-2.91,7-1.08,8.34,5.29-.12,7.71-3.35,2.91-7,1.08-8.34" transform="translate(-6.91 -22.03)"/><polygon class="cls-35" points="156.3 22.79 97.42 53.29 76.93 40.18 126.4 11.59 134.17 10.01 156.3 22.79"/><polygon class="cls-36" points="156.3 22.79 146.95 24.7 126.4 11.59 134.17 10.01 156.3 22.79"/><polygon class="cls-37" points="98.87 29.25 122.91 15.35 136.61 23.18 112.63 37.02 98.87 29.25"/><path class="cls-35" d="M134,46.53c0-3-3.66-5.34-8.17-5.34s-8.17,2.39-8.17,5.34,3.66,5.33,8.17,5.33S134,49.48,134,46.53" transform="translate(-6.91 -22.03)"/><polygon class="cls-38" points="156.3 27.34 97.42 61.26 97.42 53.29 146.95 24.7 156.3 22.79 156.3 27.34"/><polygon class="cls-36" points="112.63 37.02 136.61 23.18 138.06 26.02 111.19 41.56 112.63 37.02"/><g class="cls-39"><rect class="cls-40" x="131.27" y="23.91" width="23.58" height="25.23"/></g><path class="cls-7" d="M160.76,50.27c-3.22-2.43-9.3.2-13.56,5.87s-5.1,12.23-1.88,14.66,9.3-.2,13.57-5.87,5.1-12.23,1.87-14.66" transform="translate(-6.91 -22.03)"/><g class="cls-41"><rect class="cls-42" x="137.47" y="27.4" width="23.58" height="25.23"/></g><path class="cls-7" d="M167,53.76c-3.22-2.43-9.3.2-13.56,5.87s-5.11,12.23-1.88,14.66,9.3-.21,13.56-5.87,5.11-12.24,1.88-14.66" transform="translate(-6.91 -22.03)"/><g class="cls-43"><rect class="cls-44" x="145.5" y="33.26" width="12.91" height="16.93"/></g><path class="cls-12" d="M164.38,57.18c-2.12-1.6-6.15.17-9,4s-3.43,8.14-1.3,9.74,6.14-.18,9-4,3.42-8.14,1.3-9.73" transform="translate(-6.91 -22.03)"/><g class="cls-45"><rect class="cls-46" x="146.56" y="34.58" width="11.59" height="15.08"/></g><path class="cls-15" d="M162.22,60.43h0c0,2.43-2,5.53-4.34,6.91a3.92,3.92,0,0,1-1.25.53,2.15,2.15,0,0,1-2.84-1.12,1,1,0,0,1-.13-.46A10.61,10.61,0,0,1,154,65a12.79,12.79,0,0,1,4.55-6.19,4.74,4.74,0,0,1,.79-.53c.19-.13.39-.19.59-.33s.07-.06.13-.06a2.26,2.26,0,0,1,2.17,2.57" transform="translate(-6.91 -22.03)"/><g class="cls-47"><rect class="cls-48" x="146.62" y="35.83" width="8.3" height="10.08"/></g><path class="cls-18" d="M162.36,61.41a7.81,7.81,0,0,1-3.76,5.93c-2,1.19-3.75.46-3.75-1.58a3.17,3.17,0,0,1,.06-.72,8.2,8.2,0,0,1,3.69-5.21,1.5,1.5,0,0,1,.46-.19c1.85-.93,3.3-.2,3.3,1.77" transform="translate(-6.91 -22.03)"/><g class="cls-49"><rect class="cls-50" x="149.98" y="39.32" width="3.69" height="4.74"/></g><path class="cls-15" d="M159,62.86a1.64,1.64,0,0,1-.73,1.19c-.39.26-.72.07-.72-.33v-.13a1.37,1.37,0,0,1,.72-1,.07.07,0,0,0,.07-.07c.39-.19.66-.06.66.33" transform="translate(-6.91 -22.03)"/><g class="cls-51"><rect class="cls-52" x="109.01" y="36.75" width="23.58" height="25.23"/></g><path class="cls-7" d="M138.56,63.08c-3.23-2.42-9.3.2-13.56,5.87s-5.11,12.24-1.88,14.66,9.3-.2,13.56-5.87,5.11-12.23,1.88-14.66" transform="translate(-6.91 -22.03)"/><g class="cls-53"><rect class="cls-54" x="115.2" y="40.25" width="23.58" height="25.23"/></g><path class="cls-7" d="M144.71,66.62c-3.23-2.43-9.3.2-13.57,5.87s-5.1,12.23-1.88,14.66,9.3-.2,13.57-5.87,5.1-12.23,1.88-14.66" transform="translate(-6.91 -22.03)"/><g class="cls-55"><rect class="cls-56" x="123.3" y="46.11" width="12.91" height="16.93"/></g><path class="cls-12" d="M130.61,80.58c0,3.56,2.9,4.74,6.45,2.7s6.46-6.58,6.46-10.14-2.9-4.74-6.46-2.7-6.45,6.65-6.45,10.14" transform="translate(-6.91 -22.03)"/><g class="cls-57"><rect class="cls-58" x="124.29" y="47.42" width="11.59" height="15.08"/></g><path class="cls-15" d="M140,73.27h0c0,2.44-2,5.53-4.35,6.92a3.79,3.79,0,0,1-1.25.52,2.13,2.13,0,0,1-2.83-1.12.89.89,0,0,1-.13-.46,9,9,0,0,1,.33-1.31,12.75,12.75,0,0,1,4.54-6.2,6.68,6.68,0,0,1,.79-.52c.2-.13.4-.2.6-.33s.06-.07.13-.07c1.25,0,2.17.92,2.17,2.57" transform="translate(-6.91 -22.03)"/><g class="cls-59"><rect class="cls-60" x="124.36" y="48.61" width="8.3" height="10.08"/></g><path class="cls-18" d="M140.16,74.19a7.78,7.78,0,0,1-3.76,5.93c-2,1.19-3.75.46-3.75-1.58a2.73,2.73,0,0,1,.07-.72,8.19,8.19,0,0,1,3.68-5.21,1.58,1.58,0,0,1,.47-.2c1.84-.85,3.29-.13,3.29,1.78" transform="translate(-6.91 -22.03)"/><g class="cls-61"><rect class="cls-62" x="127.78" y="52.1" width="3.69" height="4.81"/></g><path class="cls-15" d="M136.8,75.71a1.66,1.66,0,0,1-.72,1.18c-.4.27-.73.07-.73-.33v-.13a1.4,1.4,0,0,1,.73-1,.06.06,0,0,0,.06-.06c.4-.2.66-.07.66.33" transform="translate(-6.91 -22.03)"/><path class="cls-63" d="M132.65,66.75c0,.53-3.56,4.15-6.65,9.75a37.89,37.89,0,0,0-3.56,8.3l-8.56-5.47A21.55,21.55,0,0,1,116.51,71a34.24,34.24,0,0,1,7.64-9.69Z" transform="translate(-6.91 -22.03)"/><path class="cls-64" d="M132.65,66.75c0,.53-3.56,4.15-6.65,9.75L116.51,71a34.24,34.24,0,0,1,7.64-9.69Z" transform="translate(-6.91 -22.03)"/><path class="cls-63" d="M123.49,84.4l-1.12.4c.93-10.15,9.89-17.72,10.28-18l.53.72c-.07.07-8.83,7.45-9.69,16.93" transform="translate(-6.91 -22.03)"/><polygon class="cls-38" points="98.87 29.25 112.63 37.02 111.19 41.56 97.42 33.72 98.87 29.25"/><polygon class="cls-65" points="98.93 27.07 100.78 36.1 100.78 45.78 103.81 44.06 103.81 49.4 100.78 51.18 99.92 51.64 97.16 53.29 97.16 28.13 98.93 27.07"/><g class="cls-66"><rect class="cls-67" x="114.48" y="23.51" width="8.83" height="5.4"/></g><g class="cls-68"><rect class="cls-69" x="110.72" y="21.14" width="16.34" height="6.65"/></g><path class="cls-70" d="M134,43.43c0-2.94-3.66-5.33-8.17-5.33s-8.17,2.39-8.17,5.33,3.66,5.34,8.17,5.34S134,46.38,134,43.43" transform="translate(-6.91 -22.03)"/><g class="cls-71"><rect class="cls-72" x="44.53" y="19.5" width="4.61" height="30.3"/></g><path class="cls-73" d="M56,41.59c0,.79-1,1.51-2.3,1.51s-2.31-.66-2.31-1.51,1-1.52,2.31-1.52,2.3.73,2.3,1.52" transform="translate(-6.91 -22.03)"/><path class="cls-74" d="M57.5,29.14a2.86,2.86,0,0,1-1.12,2.5l-.6.53a2.2,2.2,0,0,0-.85,1.71v7.38a1.26,1.26,0,0,1-1.19.59,1.37,1.37,0,0,1-1.18-.59v-8a3.83,3.83,0,0,1,1.44-3L56.51,28c0-.07.85-.26,1,1.12" transform="translate(-6.91 -22.03)"/><path class="cls-75" d="M53,41.65v-8a3.83,3.83,0,0,1,1.45-3L57,28.42h.26a.71.71,0,0,0-.79-.4l-2.5,2.24a3.84,3.84,0,0,0-1.45,3v8a.75.75,0,0,0,.53.39c.06.07.06,0,0,0" transform="translate(-6.91 -22.03)"/><path class="cls-76" d="M57.1,30.79,55.78,32a3.86,3.86,0,0,0-1.45,3v6.72c.33-.13.53-.26.6-.53V33.88a2.18,2.18,0,0,1,.85-1.71l.6-.53a4.1,4.1,0,0,0,.72-.85" transform="translate(-6.91 -22.03)"/><g class="cls-77"><rect class="cls-78" x="22.72" y="57.44" width="6.98" height="3.56"/></g><g class="cls-79"><rect class="cls-80" x="22.33" y="55.59" width="7.77" height="3.89"/></g><path class="cls-81" d="M37,77.75c0,1.38-1.71,2.5-3.89,2.5s-3.88-1.12-3.88-2.5,1.71-2.5,3.88-2.5S37,76.37,37,77.75" transform="translate(-6.91 -22.03)"/><g class="cls-82"><rect class="cls-83" x="22.72" y="52.1" width="6.98" height="5.53"/></g><g class="cls-84"><rect class="cls-85" x="22.33" y="49.8" width="7.77" height="3.89"/></g><path class="cls-81" d="M37,72c0,1.39-1.71,2.51-3.89,2.51S29.24,73.34,29.24,72s1.71-2.5,3.88-2.5S37,70.57,37,72" transform="translate(-6.91 -22.03)"/><g class="cls-86"><rect class="cls-87" x="22.72" y="48.41" width="6.98" height="3.56"/></g><path class="cls-73" d="M36.62,70.57c0,1.25-1.59,2.31-3.5,2.31s-5.66-.73-5.66-2,3.75-2.57,5.66-2.57,3.5,1,3.5,2.24" transform="translate(-6.91 -22.03)"/><path class="cls-34" d="M16.85,108.77c0,3.23,2.64,4.29,5.8,2.44s5.8-7.51,5.8-10.74-2.64-2.76-5.8-.85c1-.59-5.8,11.13-5.8,9.15" transform="translate(-6.91 -22.03)"/><path class="cls-63" d="M39.58,94.94c-1-5.4-3.16-8.17-6.46-8.23a2,2,0,0,0-.59.06c-.33-.59-3.88.14-4.35.47-.26.13-4.41,5.53-11.52,18.17l-6.52-3.62C11.39,95.14,20,82.23,27.85,82.23h.07a6.36,6.36,0,0,1,2.83.66c1.12.52,6.33,2.83,7.25,4.35s1.12,5.13,1.58,7.7" transform="translate(-6.91 -22.03)"/><g class="cls-88"><rect class="cls-89" x="1.84" y="73.9" width="7.57" height="7.31"/></g><path class="cls-90" d="M15.14,101.07v1.45a.68.68,0,0,1-1,.59l-4.8-2.77a1.73,1.73,0,0,1-.86-1.51V97.38a.67.67,0,0,1,1-.59l4.81,2.76a1.76,1.76,0,0,1,.85,1.52" transform="translate(-6.91 -22.03)"/><path class="cls-91" d="M11.45,99.88a.89.89,0,0,1-.13.46c-.2.33-.66.4-1.18.13a2.52,2.52,0,0,1-1.25-2c0-.53.26-.79.72-.73a.9.9,0,0,1,.53.2,2.13,2.13,0,0,1,1.31,1.91" transform="translate(-6.91 -22.03)"/><path class="cls-91" d="M14.29,101.53a.89.89,0,0,1-.14.46c-.19.33-.65.39-1.18.13a2.54,2.54,0,0,1-1.25-2c0-.52.26-.79.72-.72a.9.9,0,0,1,.53.2,2.45,2.45,0,0,1,1.32,1.91" transform="translate(-6.91 -22.03)"/><path class="cls-92" d="M11.45,99.88a.89.89,0,0,1-.13.46.79.79,0,0,1-.52-.2,2.53,2.53,0,0,1-1.26-2,.89.89,0,0,1,.14-.46.83.83,0,0,1,.52.2,2.34,2.34,0,0,1,1.25,2" transform="translate(-6.91 -22.03)"/><path class="cls-92" d="M14.29,101.53a.89.89,0,0,1-.14.46.9.9,0,0,1-.52-.2,2.54,2.54,0,0,1-1.25-2,1,1,0,0,1,.13-.47.85.85,0,0,1,.52.2,2.76,2.76,0,0,1,1.26,2" transform="translate(-6.91 -22.03)"/><polygon class="cls-93" points="9.62 83.92 76.01 42.29 76.01 32.01 9.62 73.64 9.62 83.92"/><polygon class="cls-94" points="28.85 69.36 47.69 60.07 47.69 53.29 28.85 64.16 28.85 69.36"/><polygon class="cls-94" points="48.08 64.48 76.01 48.35 76.01 37.74 48.08 53.88 48.08 64.48"/><polygon class="cls-94" points="76.01 32.41 49.34 47.82 49.34 50.78 76.01 35.37 76.01 32.41"/><path class="cls-64" d="M105.12,40.93,88.78,63.65l-32.54,6.2V42.25c0-2.24,2-6.92,3.43-8.7,5.14-6.72,7.51-9,12.78-11.52Z" transform="translate(-6.91 -22.03)"/><path class="cls-63" d="M80.88,58.71c0-2.24,2.11-7.7,3.36-9.61C88.91,41.85,92.8,39.48,98.07,37V35.73L77.65,25.12c-5.27,2.5-9.42,7.51-12.25,14.62-.86,2.11-2.31,6-2.31,8.3l-1.71,24.9,20.55-4Z" transform="translate(-6.91 -22.03)"/><path class="cls-95" d="M80.88,57.46c0-2.24,2.11-7.7,3.36-9.61,4.67-7.25,8.56-9.62,13.83-12.12L77.65,23.94c-5.27,2.5-9.42,7.51-12.25,14.62-.86,2.11-2.31,6-2.31,8.3l-1.71,24.9,20.55-4Z" transform="translate(-6.91 -22.03)"/><polygon class="cls-38" points="37.48 104.47 98.87 68.5 98.87 61.72 37.48 94.72 37.48 104.47"/><g class="cls-96"><rect class="cls-97" x="83.65" y="58.95" width="22.99" height="20.42"/></g><path class="cls-98" d="M90.76,90.59c1.91-1.12,4.87.4,6.59,3.36s1.51,6.26-.4,7.38-4.87-.39-6.59-3.36-1.51-6.26.4-7.38" transform="translate(-6.91 -22.03)"/><path class="cls-99" d="M90.69,92.11c1.52-.92,3.89.33,5.27,2.7s1.25,5-.33,5.93-3.88-.33-5.27-2.7-1.18-5.07.33-5.93" transform="translate(-6.91 -22.03)"/><polygon class="cls-100" points="61.52 93.33 80.36 82.47 80.36 75.75 61.52 86.62 61.52 93.33"/><polygon class="cls-99" points="79.31 80.16 79.31 77.06 77.06 78.25 77.06 78.97 77.06 81.94 79.31 82.8 79.31 80.16"/><polygon class="cls-75" points="80.36 82.2 62.77 92.35 64.95 93.6 82.53 83.45 80.36 82.2"/><polygon class="cls-65" points="78.19 74.5 60.6 84.64 62.71 85.89 80.36 75.68 78.19 74.5"/><polygon class="cls-3" points="62.77 92.35 62.77 92.87 64.95 94.06 64.95 93.6 62.77 92.35"/><polygon class="cls-2" points="82.53 83.92 64.95 94.06 64.95 93.6 82.53 83.45 82.53 83.92"/><polygon class="cls-75" points="77.13 78.97 59.55 89.12 61.72 90.37 79.31 80.16 77.13 78.97"/><polygon class="cls-2" points="79.31 80.69 61.72 90.83 61.72 90.37 79.31 80.16 79.31 80.69"/><polygon class="cls-63" points="64.16 83.52 82.01 73.18 82.01 38.73 64.95 48.87 65.47 54.41 66.39 52.76 64.16 67.05 64.16 83.52"/><path class="cls-63" d="M42.48,117.53l28.58-12V89.08c-6.52-3.49-28.58,12.84-28.58,12.84Z" transform="translate(-6.91 -22.03)"/><path class="cls-101" d="M76.2,116.15l-5.27-2.9A15.84,15.84,0,0,0,69.15,108c.2,0,.4-.06.6-.06,3.29,0,5.46,2.76,6.45,8.23" transform="translate(-6.91 -22.03)"/><g class="cls-102"><rect class="cls-103" x="42.55" y="83.52" width="23.58" height="25.23"/></g><path class="cls-7" d="M72.06,109.88c-3.23-2.43-9.3.2-13.57,5.87s-5.1,12.23-1.87,14.66,9.3-.2,13.56-5.87,5.11-12.24,1.88-14.66" transform="translate(-6.91 -22.03)"/><g class="cls-104"><rect class="cls-105" x="50.59" y="89.38" width="12.91" height="16.93"/></g><path class="cls-12" d="M69.48,113.29c-2.12-1.59-6.15.18-9,4s-3.43,8.13-1.3,9.73,6.14-.17,9-4,3.42-8.14,1.3-9.74" transform="translate(-6.91 -22.03)"/><g class="cls-106"><rect class="cls-107" x="51.64" y="90.7" width="11.59" height="15.02"/></g><path class="cls-15" d="M67.31,116.48h0c0,2.44-2,5.53-4.35,6.92a3.79,3.79,0,0,1-1.25.52,2.13,2.13,0,0,1-2.83-1.12.89.89,0,0,1-.13-.46,8.22,8.22,0,0,1,.33-1.32,12.71,12.71,0,0,1,4.54-6.19,6,6,0,0,1,.79-.52c.2-.14.4-.2.59-.33s.07-.07.14-.07a2.31,2.31,0,0,1,2.17,2.57" transform="translate(-6.91 -22.03)"/><g class="cls-108"><rect class="cls-109" x="51.71" y="91.88" width="8.3" height="10.08"/></g><path class="cls-18" d="M67.44,117.47a7.81,7.81,0,0,1-3.75,5.93c-2,1.18-3.76.46-3.76-1.58a2.8,2.8,0,0,1,.07-.73,8.12,8.12,0,0,1,3.69-5.2,1.32,1.32,0,0,1,.46-.2c1.84-.86,3.29-.13,3.29,1.78" transform="translate(-6.91 -22.03)"/><g class="cls-110"><rect class="cls-111" x="55.07" y="95.38" width="3.69" height="4.81"/></g><path class="cls-15" d="M64.08,119a1.66,1.66,0,0,1-.72,1.19c-.4.26-.73.07-.73-.33v-.13a1.38,1.38,0,0,1,.73-1,.06.06,0,0,0,.06-.07c.4-.19.66-.06.66.33" transform="translate(-6.91 -22.03)"/><path class="cls-75" d="M74.29,85.65a1.36,1.36,0,0,1-1.05-.52A1.38,1.38,0,0,1,73,84l1.39-9.36a4.84,4.84,0,0,1,2.24-3.16l4.74-3a1.89,1.89,0,0,1,.79-.26,1.48,1.48,0,0,1,1.51,1.51v8.44a3.94,3.94,0,0,1-2,3.42l-6.79,4A1.47,1.47,0,0,1,74.29,85.65Z" transform="translate(-6.91 -22.03)"/><path class="cls-112" d="M74.69,85.13l6.78-3.95a3.48,3.48,0,0,0,1.71-3V69.78a1.07,1.07,0,0,0-1.64-.92l-4.75,3a4.62,4.62,0,0,0-2,2.9l-1.38,9.35a.91.91,0,0,0,1.32,1" transform="translate(-6.91 -22.03)"/><path class="cls-75" d="M74.62,98.17a1.25,1.25,0,0,1-1.25-1.25V90.46a1.78,1.78,0,0,1,.92-1.58l2.57-1.51a1.1,1.1,0,0,1,.59-.2,1.24,1.24,0,0,1,1.25,1.25v6.46a1.77,1.77,0,0,1-.92,1.58L75.21,98c-.13.2-.39.2-.59.2" transform="translate(-6.91 -22.03)"/><path class="cls-112" d="M77.65,96.13l-2.57,1.51a.83.83,0,0,1-1.25-.72V90.46a1.23,1.23,0,0,1,.72-1.18l2.57-1.52a.84.84,0,0,1,1.26.73v6.45a1.63,1.63,0,0,1-.73,1.19" transform="translate(-6.91 -22.03)"/><path class="cls-63" d="M105.12,83,88.91,92.31V64.91A20.84,20.84,0,0,1,90.3,57.4c1.84-4.48,9.68-15.09,14.82-16.47Z" transform="translate(-6.91 -22.03)"/><polygon class="cls-75" points="98.21 60.01 78.38 71.47 78.38 74.43 79.11 74.89 98.87 60.4 98.21 60.01"/><polygon class="cls-76" points="98.87 60.4 79.11 71.93 79.11 74.89 98.87 63.37 98.87 60.4"/><path class="cls-99" d="M90.69,92.64v.46a.66.66,0,0,1-.33.52l-2,1.19a.22.22,0,0,1-.33-.2v-.13l1.71-1A.66.66,0,0,0,90.1,93v-.33l.33-.2c.07-.13.26,0,.26.2" transform="translate(-6.91 -22.03)"/><path class="cls-113" d="M90,92.64V93a.66.66,0,0,1-.33.52l-1.71,1v-.33a.68.68,0,0,1,.33-.53Z" transform="translate(-6.91 -22.03)"/><path class="cls-99" d="M104.85,84.27v.46a.67.67,0,0,1-.33.53l-2,1.18a.22.22,0,0,1-.33-.19v-.13l1.71-1a.67.67,0,0,0,.33-.53v-.33l.33-.2c.07-.13.26,0,.26.2" transform="translate(-6.91 -22.03)"/><path class="cls-113" d="M104.2,84.27v.33a.69.69,0,0,1-.33.53l-1.72,1v-.33a.69.69,0,0,1,.33-.53Z" transform="translate(-6.91 -22.03)"/><path class="cls-99" d="M100.11,87v.46a.68.68,0,0,1-.33.53l-2,1.18a.22.22,0,0,1-.33-.2v-.13l1.71-1a.66.66,0,0,0,.33-.52V87l.33-.2c.06-.07.26.07.26.2" transform="translate(-6.91 -22.03)"/><path class="cls-113" d="M99.45,87v.33a.66.66,0,0,1-.33.52l-1.71,1v-.33a.65.65,0,0,1,.33-.52Z" transform="translate(-6.91 -22.03)"/><path class="cls-99" d="M95.44,89.87v.46a.69.69,0,0,1-.33.53l-2,1.18a.22.22,0,0,1-.33-.19v-.14l1.71-1a.68.68,0,0,0,.33-.53v-.33l.33-.2c.07-.13.27,0,.27.2" transform="translate(-6.91 -22.03)"/><path class="cls-113" d="M94.71,89.8v.33a.67.67,0,0,1-.33.53l-1.71,1v-.33a.67.67,0,0,1,.33-.53Z" transform="translate(-6.91 -22.03)"/><path class="cls-64" d="M39.71,54c.46,9.42,35.17,28,32.67,18.9-.72-2.7,16.53-11.66,16.53-11.66s-18.7-6.45-32.67-18.9c0,0-16.79,6.59-16.53,11.66" transform="translate(-6.91 -22.03)"/><path class="cls-63" d="M81.73,58.32c-6.12-2.77-15.21-6.85-23.18-13.44-5.86,2.9-17.19,9-17,12.78a6.82,6.82,0,0,0,.26,1.52c3.88,5,12.51,10.73,19.63,14,3.22.6,5.33-.13,4.54-3-.72-2.37,12.85-9.41,15.74-11.85" transform="translate(-6.91 -22.03)"/><path class="cls-95" d="M81.73,58.32a107.49,107.49,0,0,1-23.18-14c-5.86,2.89-17.19,9-17,12.77a6.82,6.82,0,0,0,.26,1.52c3.88,5,12.51,10.73,19.63,14,3.22.59,5.33-.13,4.54-3C65.27,67.28,78.44,60,81.73,58.32" transform="translate(-6.91 -22.03)"/><path class="cls-64" d="M70.73,89.15c-6.58,1.84-26,11-26,11L19.62,85.06s9.22-6.78,18.84-14.89c7.18-6,31.22,17.46,32.6,18.84a.4.4,0,0,0-.33.14" transform="translate(-6.91 -22.03)"/><polygon class="cls-114" points="57.11 63.63 32.8 78.51 14.69 64.81 37.74 46.17 57.11 63.63"/><polygon class="cls-95" points="59.61 62.05 32.8 77.59 14.69 63.89 37.74 45.25 59.61 62.05"/><polygon class="cls-95" points="57.3 56.84 30.36 75.02 14.62 67.91 41.17 47.75 57.3 56.84"/><path class="cls-115" d="M28.45,91.52l4.08-3.17A27.24,27.24,0,0,0,22.12,84.6a3.72,3.72,0,0,0-3.49,1.32L17.12,87.7Z" transform="translate(-6.91 -22.03)"/><path class="cls-73" d="M45.9,102.06v13.43l-3.42,2-.6-15.15v-.59L28.51,91.45l4.09-3.16c2.9,1.25,8.3,6.12,11.26,8.89a6.2,6.2,0,0,1,1.91,3.29,14.29,14.29,0,0,1,.13,1.59" transform="translate(-6.91 -22.03)"/><path class="cls-116" d="M45.9,102.06v13.43l-3.42,2-.6-15.15,3.83-1.85a7.51,7.51,0,0,1,.19,1.59" transform="translate(-6.91 -22.03)"/><path class="cls-117" d="M19,87.1l3.16.6a45,45,0,0,1,13.31,7.24l5.8,5.4a4.16,4.16,0,0,1,1.31,3v22.2L16.59,110.62V89.15A2,2,0,0,1,19,87.1" transform="translate(-6.91 -22.03)"/><polygon class="cls-73" points="1.51 78.51 42.81 102.36 45.38 101.9 46.63 102.62 43.67 104.47 0.07 79.37 1.51 78.51"/><path class="cls-117" d="M53.54,124.65l-.92,9.75-.79.46a3,3,0,0,1-1.45.39,2.44,2.44,0,0,1-1.18-.33L7.9,111.08a1.93,1.93,0,0,1-1-1.65v-8.1L49.13,125.7a2.67,2.67,0,0,0,1.19.33,2.28,2.28,0,0,0,1.44-.39Z" transform="translate(-6.91 -22.03)"/><path class="cls-116" d="M53.54,124.65l-.92,9.75-.79.46a3,3,0,0,1-1.45.39V126.1a2.3,2.3,0,0,0,1.45-.4Z" transform="translate(-6.91 -22.03)"/><path class="cls-118" d="M52.62,133l-.79.46a2.62,2.62,0,0,1-2.7.06L6.91,109.1v.4a2,2,0,0,0,.92,1.65L49.13,135a2.64,2.64,0,0,0,2.7-.07l.79-.46.13-1.58Z" transform="translate(-6.91 -22.03)"/><polygon class="cls-73" points="7.25 92.68 3.23 90.31 3.23 88.86 7.25 91.16 7.25 92.68"/><g class="cls-119"><rect class="cls-120" x="58.56" y="79.57" width="6.98" height="3.56"/></g><g class="cls-121"><rect class="cls-122" x="58.16" y="77.72" width="7.77" height="3.89"/></g><path class="cls-81" d="M72.84,99.88c0,1.38-1.71,2.5-3.88,2.5s-3.89-1.12-3.89-2.5,1.71-2.5,3.89-2.5,3.88,1.12,3.88,2.5" transform="translate(-6.91 -22.03)"/><g class="cls-123"><rect class="cls-124" x="58.56" y="74.23" width="6.98" height="5.53"/></g><g class="cls-125"><rect class="cls-126" x="58.16" y="71.93" width="7.77" height="3.89"/></g><path class="cls-81" d="M72.84,94.09c0,1.38-1.71,2.5-3.88,2.5s-3.89-1.12-3.89-2.5,1.71-2.51,3.89-2.51,3.88,1.12,3.88,2.51" transform="translate(-6.91 -22.03)"/><g class="cls-127"><rect class="cls-128" x="58.56" y="70.54" width="6.98" height="3.56"/></g><path class="cls-73" d="M72.45,92.7c0-1.27-1.57-2.3-3.49-2.3s-3.49,1-3.49,2.3S67,95,69,95s3.49-1,3.49-2.31" transform="translate(-6.91 -22.03)"/><path class="cls-63" d="M76.2,116.15a15.86,15.86,0,0,0-1.71-5.2,5.35,5.35,0,0,0-4.74-3,2,2,0,0,0-.6.06c-.33-.59-3.88.2-4.34.53-.2.13-3.49,1.78-7.84,6.85a61.4,61.4,0,0,0-6.59,9.49l-8.3-4.61c.53-2.9,3.3-6.39,6.92-9.49,4.74-4,10.93-7.31,15.41-7.31h.07a6.36,6.36,0,0,1,2.83.66c1.12.52,6.32,2.83,7.24,4.34a6.59,6.59,0,0,1,.6,1.52c.46,1.71.72,4.28,1,6.19" transform="translate(-6.91 -22.03)"/><path class="cls-95" d="M75.21,110c-.26.33-.46.66-.72,1a5.35,5.35,0,0,0-4.74-3,2,2,0,0,0-.6.06c-.33-.59-3.88.2-4.34.53-.2.13-3.49,1.78-7.84,6.85l-7.91-4.61c4.75-4,10.94-7.31,15.42-7.31h.06a6.4,6.4,0,0,1,2.84.66c1.12.52,6.32,2.83,7.24,4.34a3.68,3.68,0,0,1,.59,1.52" transform="translate(-6.91 -22.03)"/><polygon class="cls-129" points="55.53 83.65 53.81 84.64 52.43 83.85 54.14 82.86 55.53 83.65"/><path class="cls-63" d="M77.85,115.82l-1.65.26c-1-5.4-3.16-8.16-6.45-8.23a1.76,1.76,0,0,0-.6.07c-6.71.59-15.74,10.14-16.86,16l-1.91.86c1.19-6.19,10.08-16.86,17.59-18.38a8.06,8.06,0,0,1,1.71-.19h.07a6.47,6.47,0,0,1,4.87,2.11c1.38,1.52,2.57,3.82,3.23,7.51" transform="translate(-6.91 -22.03)"/><polygon class="cls-63" points="66.39 52.76 64.16 67.05 45.65 58.09 43.74 57.17 43.41 57.04 31.48 48.15 34.05 33.2 46.63 42.22 48.48 43.27 66.39 52.76"/><polygon class="cls-112" points="65.47 53.09 63.37 65.47 45.65 56.91 43.74 55.99 43.67 55.99 32.67 47.75 34.78 35.37 36.36 36.23 43.34 40.24 46.63 42.16 48.48 43.27 65.47 53.09"/><polygon class="cls-130" points="47.89 54.34 45.91 53.42 34.91 45.12 32.93 46.3 32.67 47.75 43.67 55.99 43.74 55.99 45.65 56.91 63.37 65.47 63.96 62.11 47.89 54.34"/><path class="cls-130" d="M50.25,62.27c-.2.13-.33.26-.53.4l-6.78,4a.9.9,0,0,1-1.32-1l1.45-6.52a3.61,3.61,0,0,1,.26-.86Z" transform="translate(-6.91 -22.03)"/><polygon class="cls-131" points="56.32 83.19 54.67 84.18 53.29 83.39 55 82.4 56.32 83.19"/><polygon class="cls-113" points="56.32 83.19 56.32 84.11 54.67 85.1 54.67 84.18 56.32 83.19"/><polygon class="cls-132" points="54.67 84.18 54.67 85.1 53.29 84.31 53.29 83.39 54.67 84.18"/><g class="cls-133"><rect class="cls-134" x="35.7" y="93.47" width="7.57" height="7.31"/></g><path class="cls-90" d="M48.93,120.56V122a.68.68,0,0,1-1,.6l-4.8-2.77a1.75,1.75,0,0,1-.86-1.52v-1.44a.68.68,0,0,1,1-.6l4.81,2.77a1.83,1.83,0,0,1,.85,1.51" transform="translate(-6.91 -22.03)"/><path class="cls-91" d="M45.24,119.38a.89.89,0,0,1-.13.46c-.2.33-.66.39-1.18.13a2.54,2.54,0,0,1-1.25-2c0-.52.26-.79.72-.72a.9.9,0,0,1,.53.2,2.2,2.2,0,0,1,1.31,1.91" transform="translate(-6.91 -22.03)"/><path class="cls-91" d="M48.08,121.09a.89.89,0,0,1-.14.46c-.19.33-.65.4-1.18.13a2.52,2.52,0,0,1-1.25-2c0-.53.26-.79.72-.73a.9.9,0,0,1,.53.2,2.22,2.22,0,0,1,1.32,1.91" transform="translate(-6.91 -22.03)"/><path class="cls-92" d="M45.24,119.38a.89.89,0,0,1-.13.46.85.85,0,0,1-.52-.2,2.55,2.55,0,0,1-1.26-2,1,1,0,0,1,.14-.47.9.9,0,0,1,.52.2,2.45,2.45,0,0,1,1.25,2" transform="translate(-6.91 -22.03)"/><path class="cls-92" d="M48.08,121.09a.89.89,0,0,1-.14.46.83.83,0,0,1-.52-.2,2.52,2.52,0,0,1-1.25-2,.89.89,0,0,1,.13-.46.84.84,0,0,1,.52.19,2.48,2.48,0,0,1,1.26,2" transform="translate(-6.91 -22.03)"/><polygon class="cls-63" points="48.48 43.27 48.48 43.27 45.65 56.91 45.38 57.96 43.41 57.04 43.74 55.99 46.63 42.22 46.63 42.16 48.48 43.27"/><g class="cls-135"><rect class="cls-136" x="78.38" y="39.45" width="4.61" height="33.86"/></g><path class="cls-73" d="M89.9,61.55c0,.79-1,1.51-2.3,1.51s-2.31-.66-2.31-1.51S86.28,60,87.6,60s2.3.66,2.3,1.52" transform="translate(-6.91 -22.03)"/><path class="cls-74" d="M91.35,49a2.86,2.86,0,0,1-1.12,2.5l-.59.53a2.19,2.19,0,0,0-.86,1.71v7.38a1.23,1.23,0,0,1-1.18.59,1.4,1.4,0,0,1-1.19-.59v-8a3.86,3.86,0,0,1,1.45-3l2.5-2.24s.86-.2,1,1.12" transform="translate(-6.91 -22.03)"/><path class="cls-75" d="M86.94,61.61v-8a3.84,3.84,0,0,1,1.45-3l2.5-2.24h.26a.71.71,0,0,0-.79-.4l-2.5,2.24a3.86,3.86,0,0,0-1.45,3v8a1,1,0,0,0,.53.39" transform="translate(-6.91 -22.03)"/><path class="cls-76" d="M91,50.74l-1.32,1.19a3.84,3.84,0,0,0-1.45,3v6.72c.33-.13.53-.27.59-.53V53.77a2.19,2.19,0,0,1,.86-1.71l.59-.53a2.72,2.72,0,0,0,.73-.79" transform="translate(-6.91 -22.03)"/><path class="cls-63" d="M39.71,54a7.45,7.45,0,0,0,.92,1.84c6,7.31,32.67,18.91,32.67,18.91l-.92-1.85S46.82,61.22,39.71,54" transform="translate(-6.91 -22.03)"/><path class="cls-137" d="M51,52.19l-.85.6c-.27.13-.27.39-.53.26l-.39-.33c-.27-.13-.6-.72-.33-.92l.85-.59c.27-.14,1.19-.6,1.45-.4l.13.07c.33.13-.06,1.12-.33,1.31" transform="translate(-6.91 -22.03)"/><path class="cls-138" d="M52.23,52.33l-1.39.92a.81.81,0,0,1-.92,0l-.33-.2c-.33-.2.07-1.45.4-1.58l1-.07c.27-.19.66-.59,1-.46l.27.2c.26.07.33,1,0,1.19" transform="translate(-6.91 -22.03)"/><path class="cls-139" d="M51.9,51.53l-.86.6a.85.85,0,0,1-.79,0l-.13-.07a.42.42,0,0,1,0-.72l.85-.6a.85.85,0,0,1,.79,0l.14.07a.43.43,0,0,1,0,.72" transform="translate(-6.91 -22.03)"/><path class="cls-137" d="M59.08,56.87l-.86.59c-.26.13-.26.4-.53.27l-.39-.33c-.27-.13-.6-.73-.33-.93l.85-.59c.27-.13,1.19-.59,1.45-.39l.14.06c.26.13-.07,1.12-.33,1.32" transform="translate(-6.91 -22.03)"/><path class="cls-138" d="M60.33,57l-1.39.92a.78.78,0,0,1-.92,0l-.33-.19c-.33-.2.07-1.45.4-1.58l1-.07c.26-.2.65-.59,1-.46l.27.2c.26.06.26,1,0,1.18" transform="translate(-6.91 -22.03)"/><path class="cls-139" d="M59.93,56.21l-.85.59a.8.8,0,0,1-.79,0l-.14-.06a.44.44,0,0,1,0-.73l.86-.59a.85.85,0,0,1,.79,0l.13.07a.42.42,0,0,1,0,.72" transform="translate(-6.91 -22.03)"/><path class="cls-137" d="M67.11,61.55l-.85.59c-.27.13-.27.39-.53.26l-.4-.33c-.26-.13-.59-.72-.33-.92l.86-.59c.26-.13,1.19-.59,1.45-.4l.13.07c.33.13-.06,1.12-.33,1.32" transform="translate(-6.91 -22.03)"/><path class="cls-138" d="M68.36,61.61,67,62.53a.78.78,0,0,1-.92,0l-.33-.19c-.33-.2.06-1.45.39-1.58l1-.07c.27-.2.66-.59,1-.46l.26.2c.27.13.33,1,0,1.18" transform="translate(-6.91 -22.03)"/><path class="cls-139" d="M68,60.89l-.85.59a.85.85,0,0,1-.79,0l-.13-.07a.42.42,0,0,1,0-.72l.85-.59a.85.85,0,0,1,.79,0l.13.06a.43.43,0,0,1,0,.73" transform="translate(-6.91 -22.03)"/><path class="cls-140" d="M31,94.15a.6.6,0,0,1-.13.4c-.33.33-1,.26-1.85-.14a3.29,3.29,0,0,1-2-2.23c0-.53.46-.73,1.12-.6a2.78,2.78,0,0,1,.85.33c1.06.53,2,1.52,2,2.24" transform="translate(-6.91 -22.03)"/><path class="cls-141" d="M19.62,105.74l19.1,11a.93.93,0,0,0,1.39-.79V104.1A2.14,2.14,0,0,0,39,102.19l-19.11-11A.92.92,0,0,0,18.5,92v11.85a2.26,2.26,0,0,0,1.12,1.91" transform="translate(-6.91 -22.03)"/><path class="cls-116" d="M39.18,116.48l-19.1-11A2.14,2.14,0,0,1,19,103.57V91.71a.79.79,0,0,1,.33-.65.92.92,0,0,0-.79.92v11.85a2.14,2.14,0,0,0,1.12,1.91l19.1,11a.89.89,0,0,0,1.06-.13,1,1,0,0,1-.6-.13" transform="translate(-6.91 -22.03)"/><path class="cls-142" d="M40.11,114.31v1a227.52,227.52,0,0,1-21.54-11.85v-1a239.13,239.13,0,0,0,21.54,11.86" transform="translate(-6.91 -22.03)"/><path class="cls-142" d="M40.11,112.46v1a245,245,0,0,1-21.54-11.86v-1c6.26,4.08,17.12,9.68,21.54,11.85" transform="translate(-6.91 -22.03)"/><path class="cls-142" d="M40.11,110.55v1A230.15,230.15,0,0,1,18.57,99.68v-1a222.5,222.5,0,0,0,21.54,11.85" transform="translate(-6.91 -22.03)"/><path class="cls-142" d="M40.11,108.64v1A230.15,230.15,0,0,1,18.57,97.77v-.92a234.24,234.24,0,0,0,21.54,11.79" transform="translate(-6.91 -22.03)"/><path class="cls-117" d="M40.11,114.83v1A245.43,245.43,0,0,1,18.57,103.9v-1c5.93,3.82,16.66,9.49,21.54,11.92" transform="translate(-6.91 -22.03)"/><path class="cls-117" d="M40.11,112.92v1c-4.42-2.11-15.22-7.77-21.54-11.85v-1a220.35,220.35,0,0,0,21.54,11.85" transform="translate(-6.91 -22.03)"/><path class="cls-117" d="M40.11,111.08v1c-4.88-2.37-15.61-8-21.54-11.92v-.93c5.93,3.82,16.66,9.49,21.54,11.86" transform="translate(-6.91 -22.03)"/><path class="cls-117" d="M40.11,109.17v1A230.15,230.15,0,0,1,18.57,98.3v-1a236.66,236.66,0,0,0,21.54,11.86" transform="translate(-6.91 -22.03)"/><path class="cls-142" d="M40.11,106.73v1A230.15,230.15,0,0,1,18.57,95.86v-1a238.78,238.78,0,0,0,21.54,11.85" transform="translate(-6.91 -22.03)"/><path class="cls-142" d="M40.11,104.89v1C35.69,103.77,24.89,98.1,18.57,94V93c6.26,4.09,17.12,9.68,21.54,11.86" transform="translate(-6.91 -22.03)"/><path class="cls-142" d="M40,104c-4.41-2.11-15.15-7.71-21.47-11.79a1.19,1.19,0,0,1,.26-.4.57.57,0,0,1,.4-.2c.33.2,3.09,1.91,4.48,2.83.06,0,.06.07.13.07C26,95.73,28.25,97,30.36,98c.06,0,.13.06.2.06,2.83,1.39,8.62,4.68,8.62,4.68a1.91,1.91,0,0,1,.53.53A2,2,0,0,1,40,104" transform="translate(-6.91 -22.03)"/><path class="cls-117" d="M40.11,107.26v1A245.71,245.71,0,0,1,18.57,96.32v-1c5.93,3.82,16.66,9.48,21.54,11.92" transform="translate(-6.91 -22.03)"/><path class="cls-117" d="M40.11,105.35v1c-4.42-2.11-15.22-7.78-21.54-11.86v-1a222.82,222.82,0,0,0,21.54,11.86" transform="translate(-6.91 -22.03)"/><path class="cls-117" d="M40.11,104.43h0A229.21,229.21,0,0,1,18.57,92.57v-.2a.54.54,0,0,1,.06-.26,1.76,1.76,0,0,1,.27-.4c1.58,1,3.22,2.11,4.94,3.1.06,0,.06.07.13.07,2.17,1.25,4.41,2.5,6.52,3.55.07,0,.13.07.2.07,2,1,7.51,3.88,9.22,4.74a3.21,3.21,0,0,1,.33.59.75.75,0,0,0-.13.6" transform="translate(-6.91 -22.03)"/><polygon class="cls-76" points="103.81 44.06 100.78 41.63 100.78 45.78 103.81 44.06"/><polygon class="cls-76" points="98.93 27.07 98.21 26.08 98.21 27.53 98.93 27.07"/><polygon class="cls-73" points="15.35 97.29 11.33 94.98 11.33 93.53 15.35 95.84 15.35 97.29"/><polygon class="cls-73" points="23.45 101.96 19.36 99.59 19.36 98.14 23.45 100.45 23.45 101.96"/><polygon class="cls-73" points="31.48 106.57 27.47 104.27 27.47 102.82 31.48 105.13 31.48 106.57"/><polygon class="cls-73" points="39.59 111.25 35.57 108.88 35.57 107.43 39.59 109.74 39.59 111.25"/><path class="cls-143" d="M21.73,118.39a2.23,2.23,0,0,1-1.05-1.78v-3.29c0-.66.46-.86,1.05-.53l7.9,4.61a2.22,2.22,0,0,1,1.06,1.78v3.29c0,.66-.46.86-1.06.53Z" transform="translate(-6.91 -22.03)"/><path class="cls-144" d="M22.06,117.8A2.24,2.24,0,0,1,21,116v-3.29c0-.66.47-.86,1.06-.53l7.9,4.61A2.22,2.22,0,0,1,31,118.59v3.29c0,.66-.46.86-1.06.53Z" transform="translate(-6.91 -22.03)"/><path class="cls-145" d="M21.73,117.93a2.23,2.23,0,0,1-1.05-1.78v-3.29c0-.66.46-.86,1.05-.53l7.9,4.61a2.22,2.22,0,0,1,1.06,1.78V122c0,.66-.46.86-1.06.53Z" transform="translate(-6.91 -22.03)"/><path class="cls-146" d="M29.63,122.34l-7.9-4.61a1.88,1.88,0,0,1-.86-1.45V113c0-.53.4-.73.86-.46l7.9,4.61a1.88,1.88,0,0,1,.86,1.45v3.29c0,.53-.4.73-.86.46" transform="translate(-6.91 -22.03)"/><path class="cls-147" d="M30.49,118.59a1.88,1.88,0,0,0-.86-1.45l-7.9-4.61c-.46-.27-.86-.07-.86.39Z" transform="translate(-6.91 -22.03)"/><path class="cls-147" d="M20.87,116.28a1.88,1.88,0,0,0,.86,1.45l7.9,4.61c.46.27.86.07.86-.39Z" transform="translate(-6.91 -22.03)"/><path class="cls-138" d="M51.3,99.82l-.79.33a.52.52,0,0,0-.33.52V101a.43.43,0,0,0,.53.4l.79-.33a.53.53,0,0,0,.33-.53v-.26a.43.43,0,0,0-.53-.46" transform="translate(-6.91 -22.03)"/><path class="cls-139" d="M51.5,100.08l-.79.33a.51.51,0,0,0-.33.53v.32a.42.42,0,0,0,.53.4l.79-.33a.52.52,0,0,0,.33-.53v-.26c0-.33-.27-.59-.53-.46" transform="translate(-6.91 -22.03)"/><path class="cls-148" d="M60.33,86l-.53.33a1.37,1.37,0,0,1-1.25,0l-5.73-2.57c-.73-.33-.79-.85-.13-1.12l.52-.26a1.66,1.66,0,0,1,1.12,0L60,84.86c.59.33.79.79.33,1.12" transform="translate(-6.91 -22.03)"/><polygon class="cls-149" points="50.92 64.22 51.38 64.35 53.75 62.97 53.42 62.77 50.92 64.22"/><polygon class="cls-149" points="49.73 63.76 50.13 63.89 52.56 62.51 52.17 62.31 49.73 63.76"/><polygon class="cls-149" points="48.48 63.3 48.94 63.43 51.38 62.05 50.98 61.85 48.48 63.3"/><polygon class="cls-149" points="47.29 62.84 47.75 62.97 50.13 61.59 49.73 61.39 47.29 62.84"/><polygon class="cls-149" points="46.11 62.31 46.57 62.44 49.01 61.13 48.61 60.86 46.11 62.31"/><polygon class="cls-149" points="45.19 61.72 45.65 61.85 48.02 60.47 47.62 60.27 45.19 61.72"/><path class="cls-148" d="M40.11,74.52l.52-.33a1,1,0,0,1,1.06.07L46,77.42a.68.68,0,0,1-.13,1.25l-.53.2a.92.92,0,0,1-.92-.13l-4.22-3.1a.63.63,0,0,1-.06-1.12" transform="translate(-6.91 -22.03)"/><polygon class="cls-149" points="35.37 52.43 35.04 52.23 32.67 53.55 32.93 53.81 35.37 52.43"/><polygon class="cls-149" points="36.36 53.02 35.96 52.83 33.59 54.14 33.86 54.41 36.36 53.02"/><polygon class="cls-149" points="37.28 53.62 36.89 53.42 34.52 54.74 34.78 54.93 37.28 53.62"/><polygon class="cls-149" points="38.2 54.21 37.81 54.01 35.44 55.33 35.7 55.53 38.2 54.21"/><polygon class="cls-149" points="39.06 54.8 38.66 54.67 36.29 55.92 36.56 56.19 39.06 54.8"/><polygon class="cls-149" points="39.72 55.59 39.32 55.4 36.95 56.65 37.22 56.91 39.72 55.59"/></svg>