<svg id="Capa_1" data-name="Capa 1" data-type="minibus_van.svg" xmlns="http://www.w3.org/2000/svg" xmlns:xlink="http://www.w3.org/1999/xlink" viewBox="0 0 92.44 81.55"><defs><style>.cls-1{fill:red;}.cls-2{fill:#b0b1b1;}.cls-3{fill:#5c5c5c;}.body{fill:#BA00FF;}.cls-6{fill:url(#linear-gradient);}.cls-7{fill:url(#linear-gradient-2);}.cls-8{fill:url(#linear-gradient-3);}.cls-9{fill:#fff;}.cls-10{fill:#e6e6e6;}.cls-11{fill:#87e5ff;}.cls-12{fill:#e6e6e6;}</style><linearGradient id="linear-gradient" x1="34.22" y1="120.26" x2="44.27" y2="125.41" gradientUnits="userSpaceOnUse"><stop offset="0" stop-color="#fff"/><stop offset="0.74" stop-color="#fff"/><stop offset="0.82" stop-color="#e6e6e6"/></linearGradient><linearGradient id="linear-gradient-2" x1="37.12" y1="121.93" x2="40.52" y2="123.68" xlink:href="#linear-gradient"/><linearGradient id="linear-gradient-3" x1="20.16" y1="112" x2="29.76" y2="116.92" xlink:href="#linear-gradient"/></defs><path class="cls-1" d="M113.32,81.68l-1.21.69c-.9.52-1.63.1-1.63-.94a3.57,3.57,0,0,1,1.62-2.81l1.2-.69C113.31,79.22,113.31,80.48,113.32,81.68Z" transform="translate(-20.89 -48.14)"/><path class="cls-2" d="M73.63,98.7l-.09,0h0a.11.11,0,0,1,.08,0Z" transform="translate(-20.89 -48.14)"/><path class="cls-2" d="M70.4,101.53a.55.55,0,0,1-.22.07.17.17,0,0,1-.1,0h0l0,0s0,0,0-.06a.05.05,0,0,1,0,0s0,0,0,0,0-.1,0-.15Z" transform="translate(-20.89 -48.14)"/><path class="cls-3" d="M100.93,89.05l-.65.41c-.15.11-.32.23-.47.36a3.35,3.35,0,0,0-.47.39l-.49.46a14.17,14.17,0,0,0-4.28,9.22c0,.07,0,.13,0,.2v.22c0,.23,0,.45,0,.66a.13.13,0,0,0,0,.06,5.58,5.58,0,0,0,.1.59,3.43,3.43,0,0,0,.17.57,3.52,3.52,0,0,0,.21.52,3.57,3.57,0,0,0,.57.86c.12.12.24.24.36.34a2.44,2.44,0,0,0,.33.23c1.17.72,2.8.64,4.61-.39a14.14,14.14,0,0,0,6.37-10.82V92.7C107.33,88.66,104.46,87,100.93,89.05Zm3.64,5.79c0,.18,0,.37-.08.56s-.08.34-.13.51a5.1,5.1,0,0,1-.2.63,8.74,8.74,0,0,1-.39.9,6.08,6.08,0,0,1-.42.74l-.21.33-.27.36c-.16.2-.32.39-.49.57a5.88,5.88,0,0,1-1.42,1.15,3.34,3.34,0,0,1-1.64.5l-.27,0-.13,0-.13,0a1.52,1.52,0,0,1-.47-.2,1.85,1.85,0,0,1-.32-.25,2.1,2.1,0,0,1-.26-.33,2.52,2.52,0,0,1-.21-.4h0a2.57,2.57,0,0,1-.15-.47h0a1.09,1.09,0,0,1,0-.26,2.72,2.72,0,0,1,0-.58,2.42,2.42,0,0,1,0-.46.91.91,0,0,1,0-.23,1.1,1.1,0,0,1,0-.18l0-.16a.76.76,0,0,1,0-.16.22.22,0,0,1,0-.08.36.36,0,0,1,0-.1,6.21,6.21,0,0,1,.28-.9,4.22,4.22,0,0,1,.18-.45,4.54,4.54,0,0,1,.21-.45,8.1,8.1,0,0,1,.49-.85c.09-.14.18-.27.28-.4a9,9,0,0,1,.62-.74,6.29,6.29,0,0,1,1.42-1.15c2-1.16,3.65-.23,3.66,2.09A5.21,5.21,0,0,1,104.57,94.84Z" transform="translate(-20.89 -48.14)"/><path class="body" d="M111.87,73.78l-5.69,3.28,0-10.39L109,65c1.57-.91,2.84.69,2.85,3.56Z" transform="translate(-20.89 -48.14)"/><path class="body" d="M73.59,98.67a.11.11,0,0,0-.08,0h0l.09,0Zm19.14,2.47v.22l.07,0h0a.6.6,0,0,1,0-.23Z" transform="translate(-20.89 -48.14)"/><polygon class="body" points="83.66 29.86 54.63 46.62 54.59 36.23 83.64 19.47 83.66 29.86"/><path class="cls-3" d="M60.06,112.65a14.06,14.06,0,0,0-6.37,11v.22c0,.23,0,.45.06.67a2.7,2.7,0,0,0,.06.41,1.41,1.41,0,0,0,.07.31,3.7,3.7,0,0,0,.19.64,2.88,2.88,0,0,0,.13.31.47.47,0,0,0,0,.1,3.93,3.93,0,0,0,.48.74l.13.14a1.64,1.64,0,0,0,.31.28,2.36,2.36,0,0,0,.36.26l0,0c1.16.68,2.77.58,4.54-.44a14.14,14.14,0,0,0,6.38-10.81v-.23C66.47,112.25,63.59,110.6,60.06,112.65Zm0,11.54c-2,1.16-3.65.22-3.66-2.09v0c0-.14,0-.29,0-.43l0-.3.06-.35c0-.14.06-.27.1-.41s0,0,0,0,0-.16.07-.25a4,4,0,0,1,.15-.45,8.74,8.74,0,0,1,.39-.9c.08-.14.15-.29.24-.43a7.24,7.24,0,0,1,.54-.82,3,3,0,0,1,.27-.35,6.75,6.75,0,0,1,.68-.73c.11-.11.23-.21.35-.31a5.67,5.67,0,0,1,.73-.51c2-1.16,3.66-.22,3.67,2.09A8.07,8.07,0,0,1,60.09,124.19Z" transform="translate(-20.89 -48.14)"/><path class="body" d="M39,122.65a4.8,4.8,0,0,0-1.81-.83c-.06.1.66.62,1.6,1.18a5,5,0,0,0,1.81.82A5,5,0,0,0,39,122.65Zm-11.12-7.58a2.2,2.2,0,0,1,.24.38l7,4a.94.94,0,0,1,.3-.06Zm.79,1.6h0L34.39,120a.65.65,0,0,1,.13-.16l-6-3.46C28.56,116.49,28.6,116.58,28.63,116.67Zm.26,1.07,5.15,3c0-.06,0-.13.07-.2l-5.27-3C28.86,117.57,28.88,117.66,28.89,117.74Zm-2.68-2.65v0a0,0,0,0,0,0,0c-.29-.21-.71-.49-1.2-.78a4.8,4.8,0,0,0-1.81-.83c-.06.1.66.62,1.6,1.18a13.94,13.94,0,0,0,1.36.7,1,1,0,0,0,.43.13h0S26.48,115.3,26.21,115.09Zm0,.89h0Z" transform="translate(-20.89 -48.14)"/><path class="cls-12" d="M100.93,92.2c2-1.16,3.66-.22,3.67,2.09A8.09,8.09,0,0,1,101,100.6c-2,1.16-3.66.22-3.67-2.09A8,8,0,0,1,100.93,92.2Z" transform="translate(-20.89 -48.14)"/><path class="cls-12" d="M60.07,115.8c2-1.17,3.65-.23,3.66,2.08a8,8,0,0,1-3.64,6.31c-2,1.16-3.66.22-3.67-2.09A8,8,0,0,1,60.07,115.8Z" transform="translate(-20.89 -48.14)"/><path class="body" d="M41.09,98.73a.22.22,0,0,0-.1.09L37.78,96.9l-.27.26L32,94C35.4,94.75,38.93,97.1,41.09,98.73Z" transform="translate(-20.89 -48.14)"/><path class="body" d="M51.4,104.69l-4.17-2.5-.41.39-3.2-1.86-.17-.3.06,0a.26.26,0,0,0,0-.35l-.26-.23A32.44,32.44,0,0,1,51.4,104.69Z" transform="translate(-20.89 -48.14)"/><path class="body" d="M113.32,81.68l-1.21.69c-.9.52-1.63.1-1.63-.94a3.57,3.57,0,0,1,1.62-2.81l1.2-.69c0-5.13,0-10.51,0-13.06,0-1.94-.59-2.88-1.37-3.27l.09,0L89.26,48.44c-1.42-.83-3.53.3-3.69.38l-44.89,26a6.69,6.69,0,0,0-2.42,3.25l10.26,6,11.69,6.79.78.45h0a.46.46,0,0,1,.2.19.66.66,0,0,1,.08.3,1.23,1.23,0,0,1,0,.47,5.26,5.26,0,0,1-.11.58,11.67,11.67,0,0,1-.49,1.43c-.05.13-.11.27-.16.41l-.36.92a1.54,1.54,0,0,0-.08.19c-1,2.57-2.2,5.61-3.4,7.93a8.63,8.63,0,0,1-2.54,3.42,1.3,1.3,0,0,1-.32.14l.39-.38-1-.56-.39-.23-6.07-3.46,0,0-3.2-1.86.17.3-6.46-3.7.18-.16L32,94l-.35-.07a.26.26,0,0,1-.2-.25l-.48.47C19.85,105,20.88,109.51,20.94,109.76v.72l.39.19,2.11,1.22,2.63,1.52a5.27,5.27,0,0,1,1.07.81.64.64,0,0,1,.37.09l8.33,4.82a1.07,1.07,0,0,1,.39.4h0a3.94,3.94,0,0,1,.74.34l2.78,1.6L42,122.76s1,.75,1.68.41h0c.7-.34.48,2.47.48,2.47a1.9,1.9,0,0,1-.49.46,2,2,0,0,1-2.26-.1c-1-.57-7.2-4.17-7.53-4.35a3.34,3.34,0,0,1,.06-.5h0l-5-2.88c0,.1,0,.17,0,.19l-7.13-4.11a1.85,1.85,0,0,1-.9-.92v3.07l22.73,13.21,7.61-4.4.61-.35a1.64,1.64,0,0,1,0-.22h0v0a7.68,7.68,0,0,1,0-.83.61.61,0,0,1,0-.14c0-.23,0-.48.08-.72a.22.22,0,0,0,0-.08,6.43,6.43,0,0,1,.13-.72.78.78,0,0,1,0-.21c0-.24.1-.48.16-.71a17.44,17.44,0,0,1,.54-1.69l.18-.45c.09-.22.18-.44.27-.64s.27-.58.42-.87.29-.58.46-.86.26-.45.39-.66.17-.27.26-.4a4.4,4.4,0,0,1,.3-.45c.08-.12.15-.22.23-.32s.28-.38.43-.58.36-.45.54-.66a16.76,16.76,0,0,1,2-2c.27-.22.54-.43.82-.62s.55-.36.84-.53c4.54-2.62,8.23-.52,8.24,4.71l-1.82,1v.23L92.16,101.7l.57-.34v-.22a2.81,2.81,0,0,1,0-.29,4.19,4.19,0,0,1,0-.5,18.41,18.41,0,0,1,5.28-11.13c.19-.2.38-.39.58-.57l.65-.56h0a3.79,3.79,0,0,1,.39-.31c.14-.11.3-.22.45-.32a3.15,3.15,0,0,1,.33-.22l.46-.29c4.54-2.62,8.24-.52,8.25,4.7l-1.83,1v.23l3.22-1.86a6.13,6.13,0,0,0,2.77-4.79C113.33,85,113.32,83.38,113.32,81.68Zm-2.11-20.3a3.37,3.37,0,0,0-.84,0A2.63,2.63,0,0,1,111.21,61.38ZM68.09,99.06l-1,.55h0l-.2.12-8.56,4.94,3.19-8h0l.08-.2.36-.91.71-1.8.21-.53a2.11,2.11,0,0,1,.13-.4c0-.06,0-.13.09-.2a5.43,5.43,0,0,1,1.71-2h0a7.94,7.94,0,0,1,.8-.52c2.37-1.38,7.82-4.51,8.1-4.69l0,10.41-2.59,1.49L71,97.4,70,98Zm5.19.8-2.88,1.67a.55.55,0,0,1-.22.07.17.17,0,0,1-.1,0h0l0,0s0,0,0-.06a.05.05,0,0,1,0,0s0,0,0,0,0-.1,0-.15a1.09,1.09,0,0,1,.49-.84l1.91-1.1,1-.56a.26.26,0,0,1,.1,0l.06,0h.07a.11.11,0,0,1,.08,0l0,0h0s0,0,0,0l0,0a0,0,0,0,0,0,0,.16.16,0,0,1,0,.06.36.36,0,0,1,0,.19A1.07,1.07,0,0,1,73.28,99.86Zm27.63-15.39a1.73,1.73,0,0,1-.79,1.37c-.44.25-.81,0-.81-.46V83.31a1.77,1.77,0,0,1,.8-1.38c.44-.26.8-.05.8.46ZM75.52,94.76l0-10.39,29.05-16.76,0,10.39Zm30.66-17.7,0-10.39L109,65c1.57-.91,2.84.69,2.85,3.56l0,5.2Z" transform="translate(-20.89 -48.14)"/><path class="cls-6" d="M43.68,123.16h0c-.71.34-1.68-.41-1.68-.41l-2.22-1.29L37,119.87a3.94,3.94,0,0,0-.74-.34h0a1.87,1.87,0,0,0-.86-.12h0a.94.94,0,0,0-.3.06,1.24,1.24,0,0,0-.53.37.65.65,0,0,0-.13.16,2.33,2.33,0,0,0-.28.51c0,.07,0,.14-.07.2a4.19,4.19,0,0,0-.1.42h0a3.34,3.34,0,0,0-.06.5c.33.18,6.55,3.78,7.53,4.35a2,2,0,0,0,2.26.1,1.9,1.9,0,0,0,.49-.46S44.38,122.82,43.68,123.16ZM38.75,123c-.94-.56-1.66-1.08-1.6-1.18a4.8,4.8,0,0,1,1.81.83,5,5,0,0,1,1.6,1.17A5,5,0,0,1,38.75,123Z" transform="translate(-20.89 -48.14)"/><path class="cls-7" d="M40.56,123.82a5,5,0,0,1-1.81-.82c-.94-.56-1.66-1.08-1.6-1.18a4.8,4.8,0,0,1,1.81.83A5,5,0,0,1,40.56,123.82Z" transform="translate(-20.89 -48.14)"/><path class="cls-8" d="M29,118.25a5,5,0,0,0-.07-.51c0-.08,0-.17-.05-.27s-.12-.5-.21-.79h0c0-.09-.07-.18-.11-.29h0a5.12,5.12,0,0,0-.44-.92,2.2,2.2,0,0,0-.24-.38h0a4.46,4.46,0,0,0-.69-.84,5.27,5.27,0,0,0-1.07-.81l-2.63-1.52-2.11-1.22-.39-.19v2.93a1.85,1.85,0,0,0,.9.92L29,118.44S29,118.35,29,118.25Zm-5.77-4.77a4.8,4.8,0,0,1,1.81.83c.49.29.91.57,1.2.78a0,0,0,0,1,0,0v0c.27.21.42.35.39.39h0a1,1,0,0,1-.43-.13,13.94,13.94,0,0,1-1.36-.7C23.85,114.1,23.13,113.58,23.19,113.48Zm3,2.49h0Z" transform="translate(-20.89 -48.14)"/><path class="cls-9" d="M26.6,115.48h0a1,1,0,0,1-.43-.13,13.94,13.94,0,0,1-1.36-.7c-.94-.56-1.66-1.08-1.6-1.18a4.8,4.8,0,0,1,1.81.83c.49.29.91.57,1.2.78a0,0,0,0,1,0,0v0C26.48,115.3,26.63,115.44,26.6,115.48Z" transform="translate(-20.89 -48.14)"/><path class="cls-10" d="M40.56,123.82a5,5,0,0,1-1.81-.82c-.94-.56-1.66-1.08-1.6-1.18a4.8,4.8,0,0,1,1.81.83A5,5,0,0,1,40.56,123.82Z" transform="translate(-20.89 -48.14)"/><path class="cls-10" d="M26.6,115.48h0a1,1,0,0,1-.43-.13,13.94,13.94,0,0,1-1.36-.7c-.94-.56-1.66-1.08-1.6-1.18a4.8,4.8,0,0,1,1.81.83c.49.29.91.57,1.2.78h0C26.48,115.3,26.63,115.44,26.6,115.48Z" transform="translate(-20.89 -48.14)"/><path class="cls-11" d="M73.77,95.78l-2.59,1.49L71,97.4,70,98l-1.9,1.11-1,.55h0l-.2.12-8.56,4.94,3.19-8h0l.08-.2.36-.91.71-1.8.21-.53a2.11,2.11,0,0,1,.13-.4c0-.06,0-.13.09-.2a5.43,5.43,0,0,1,1.71-2h0a7.94,7.94,0,0,1,.8-.52c2.37-1.38,7.82-4.51,8.1-4.69Z" transform="translate(-20.89 -48.14)"/><path class="cls-11" d="M61.27,92.23a5.26,5.26,0,0,1-.11.58,11.67,11.67,0,0,1-.49,1.43c-.05.13-.11.27-.16.41l-.36.92a1.54,1.54,0,0,0-.08.19c-1,2.57-2.2,5.61-3.4,7.93a8.63,8.63,0,0,1-2.54,3.42,1.3,1.3,0,0,1-.32.14l.39-.38-1-.56-.34-.59.06,0a.25.25,0,0,0,0-.35c-.23-.22-5.51-4.94-10.76-6.39-2.08-1.66-6.34-4.71-10.39-5.52a.23.23,0,0,0-.23.08l.7-1.6,6-13.84,10.26,6,11.69,6.79.78.45h0a.46.46,0,0,1,.2.19.66.66,0,0,1,.08.3A1.23,1.23,0,0,1,61.27,92.23Z" transform="translate(-20.89 -48.14)"/><path d="M109.17,91.65l-1.83,1c0-4-2.88-5.69-6.41-3.65l-.65.41c-.15.11-.32.23-.47.36a3.35,3.35,0,0,0-.47.39l-.49.46a14.17,14.17,0,0,0-4.28,9.22c0,.07,0,.13,0,.2v.22c0,.23,0,.45,0,.66a.13.13,0,0,0,0,.06,5.58,5.58,0,0,0,.1.59,3.43,3.43,0,0,0,.17.57,3.52,3.52,0,0,0,.21.52,3.57,3.57,0,0,0,.57.86c.12.12.24.24.36.34a2.44,2.44,0,0,0,.33.23l-4.2-2.44.57-.34.07,0h0a.6.6,0,0,1,0-.23l-.09,0a2.81,2.81,0,0,1,0-.29,4.19,4.19,0,0,1,0-.5,19.49,19.49,0,0,1,5.28-11.13c.19-.2.38-.39.58-.57l.65-.56h0l.39-.31c.14-.11.3-.22.45-.32a3.15,3.15,0,0,1,.33-.22l.46-.29C105.46,84.33,109.16,86.43,109.17,91.65Z" transform="translate(-20.89 -48.14)"/><path d="M92.82,101.09a.6.6,0,0,0,0,.23h0l-.07,0v-.22Z" transform="translate(-20.89 -48.14)"/><path d="M98.05,89.22a19.49,19.49,0,0,0-5.28,11.13A18.41,18.41,0,0,1,98.05,89.22Z" transform="translate(-20.89 -48.14)"/><path d="M92.82,101.09a.6.6,0,0,0,0,.23h0l-.07,0v-.22Z" transform="translate(-20.89 -48.14)"/><path d="M98.85,90.67a15,15,0,0,0-4.28,9.22A14.17,14.17,0,0,1,98.85,90.67Z" transform="translate(-20.89 -48.14)"/><path d="M70.4,101.53a.55.55,0,0,1-.22.07.17.17,0,0,1-.1,0h0l0,0s0,0,0-.06a.05.05,0,0,1,0,0s0,0,0,0,0-.1,0-.15Z" transform="translate(-20.89 -48.14)"/><path d="M68.3,115.25l-1.82,1c0-4-2.89-5.7-6.42-3.65a14.06,14.06,0,0,0-6.37,11v.22c0,.23,0,.45.06.67a2.7,2.7,0,0,0,.06.41,1.41,1.41,0,0,0,.07.31,3.7,3.7,0,0,0,.19.64,2.88,2.88,0,0,0,.13.31.47.47,0,0,0,0,.1,3.93,3.93,0,0,0,.48.74l.13.14a1.64,1.64,0,0,0,.31.28,2.36,2.36,0,0,0,.36.26l-4.24-2.47.61-.35a1.64,1.64,0,0,1,0-.22h0v0a7.68,7.68,0,0,1,0-.83.61.61,0,0,1,0-.14c0-.23,0-.48.08-.72a.22.22,0,0,0,0-.08,6.43,6.43,0,0,1,.13-.72.78.78,0,0,1,0-.21c0-.24.1-.48.16-.71a17.44,17.44,0,0,1,.54-1.69l.18-.45c.09-.22.18-.44.27-.64s.27-.58.42-.87.29-.58.46-.86.26-.45.39-.66.17-.27.26-.4a4.4,4.4,0,0,1,.3-.45c.08-.12.15-.22.23-.32s.28-.38.43-.58.36-.45.54-.66a16.76,16.76,0,0,1,2-2c.27-.22.54-.43.82-.62s.55-.36.84-.53C64.6,107.92,68.29,110,68.3,115.25Z" transform="translate(-20.89 -48.14)"/><path d="M73.78,99a1.07,1.07,0,0,1-.5.85l-2.88,1.67-.49-.29a1.09,1.09,0,0,1,.49-.84l1.91-1.1,1-.56a.26.26,0,0,1,.1,0l.06,0h.1l.09,0h0s0,0,0,0l0,0a0,0,0,0,0,0,0,.16.16,0,0,1,0,.06A.36.36,0,0,1,73.78,99Z" transform="translate(-20.89 -48.14)"/><path d="M100.91,82.39v2.08a1.73,1.73,0,0,1-.79,1.37c-.44.25-.81,0-.81-.46V83.31a1.77,1.77,0,0,1,.8-1.38C100.55,81.67,100.91,81.88,100.91,82.39Z" transform="translate(-20.89 -48.14)"/><path d="M34,120.71a4.19,4.19,0,0,0-.1.42l-5-2.88a5,5,0,0,0-.07-.51Z" transform="translate(-20.89 -48.14)"/><path d="M34.39,120a2.33,2.33,0,0,0-.28.51l-5.27-3c-.05-.24-.12-.5-.21-.79Z" transform="translate(-20.89 -48.14)"/><path d="M36.23,119.53a1.87,1.87,0,0,0-.86-.12h0l-7.51-4.34h0a4.46,4.46,0,0,0-.69-.84.64.64,0,0,1,.37.09l8.33,4.82A1.07,1.07,0,0,1,36.23,119.53Z" transform="translate(-20.89 -48.14)"/><path d="M35.05,119.47a1.24,1.24,0,0,0-.53.37l-6-3.46h0a5.12,5.12,0,0,0-.44-.92Z" transform="translate(-20.89 -48.14)"/><path d="M53.24,106.31l-.39-.23-6.07-3.46,0,0,.41-.39,4.17,2.5a32.44,32.44,0,0,0-8.17-4.89l.26.23a.26.26,0,0,1,0,.35l-.06,0,.17.3.17.3-6.46-3.7.18-.16.27-.26L41,98.82a.22.22,0,0,1,.1-.09C38.93,97.1,35.4,94.75,32,94l-.35-.07a.26.26,0,0,1-.2-.25v0a.14.14,0,0,1,.07-.1h0a.23.23,0,0,1,.23-.08c4.05.81,8.31,3.86,10.39,5.52,5.25,1.45,10.53,6.17,10.76,6.39a.25.25,0,0,1,0,.35l-.06,0Z" transform="translate(-20.89 -48.14)"/></svg>