<svg id="Capa_1" data-name="Capa 1" xmlns="http://www.w3.org/2000/svg"
    xmlns:xlink="http://www.w3.org/1999/xlink" viewBox="0 0 1080 1350">
    <defs>
        <style>
            .cls-14{fill:#c4c2c1;}.cls-2,.cls-3,.cls-4{fill:#353535;}.cls-2{opacity:0.2;}.cls-3{opacity:0.29;}.cls-4{opacity:0.12;}.cls-5{fill:#292929;}.cls-6{fill:#682427;}.cls-7{fill:#1a1a1a;}.cls-8{fill:#222;}.cls-9{fill:#3d4b4d;}.cls-10{fill:#5b6060;}.cls-11{fill:#cdd2d5;}.cls-12{fill:#1d1d1d;}.cls-13{fill:#911d25;}.cls-1{fill:url(#linear-gradient);}.cls-15{fill:url(#linear-gradient-2);}.cls-16{fill:url(#linear-gradient-3);}.cls-17{fill:url(#linear-gradient-4);}.cls-18{fill:url(#linear-gradient-5);}.cls-19{fill:url(#linear-gradient-6);}.cls-20{fill:url(#linear-gradient-7);}.cls-21{fill:url(#linear-gradient-8);}.cls-22{fill:url(#linear-gradient-9);}.cls-23{fill:url(#linear-gradient-10);}.cls-24{fill:url(#linear-gradient-11);}.cls-25{fill:url(#linear-gradient-12);}.cls-26{fill:url(#linear-gradient-13);}.cls-27{fill:url(#linear-gradient-14);}.cls-28{fill:url(#linear-gradient-15);}.cls-29{fill:url(#linear-gradient-22);}.cls-30{fill:url(#linear-gradient-29);}.cls-31{fill:url(#linear-gradient-30);}.cls-32{fill:url(#linear-gradient-31);}.cls-33{fill:url(#linear-gradient-32);}.cls-34{fill:url(#linear-gradient-33);}.cls-35{fill:url(#linear-gradient-34);}.cls-36{fill:url(#linear-gradient-35);}.cls-37{fill:url(#linear-gradient-36);}.cls-38{fill:url(#linear-gradient-37);}.cls-39{fill:url(#linear-gradient-38);}.cls-40{fill:url(#linear-gradient-39);}.cls-41{fill:url(#linear-gradient-40);}.cls-42{fill:url(#linear-gradient-41);}.cls-43{fill:url(#linear-gradient-42);}.cls-44{fill:url(#linear-gradient-43);}.cls-45{fill:url(#linear-gradient-44);}.cls-46{fill:url(#linear-gradient-45);}.cls-47{fill:url(#linear-gradient-46);}.cls-48{fill:url(#linear-gradient-47);}.cls-49{fill:url(#linear-gradient-48);}.cls-50{fill:url(#linear-gradient-49);}.cls-51{fill:#1e1e1e;}.cls-52{fill:url(#linear-gradient-50);}.cls-53{fill:url(#linear-gradient-51);}.cls-54{fill:url(#linear-gradient-52);}.cls-55{fill:url(#linear-gradient-53);}.cls-56{fill:url(#linear-gradient-54);}.cls-57{fill:url(#linear-gradient-55);}.cls-58{fill:url(#linear-gradient-56);}.cls-59{fill:url(#linear-gradient-57);}.cls-60{fill:url(#linear-gradient-58);}.cls-61{fill:url(#linear-gradient-59);}.cls-62{fill:url(#linear-gradient-60);}.cls-63{fill:url(#linear-gradient-61);}.cls-64{fill:url(#linear-gradient-62);}.cls-65{fill:url(#linear-gradient-63);}.cls-66{fill:url(#linear-gradient-64);}.cls-67{fill:url(#linear-gradient-65);}.cls-68{fill:url(#linear-gradient-66);}.cls-69{fill:url(#linear-gradient-67);}.cls-70{fill:url(#linear-gradient-68);}.cls-71{fill:url(#linear-gradient-69);}.cls-72{fill:#9a97aa;}.cls-73{fill:#90919a;}.cls-74{fill:#c8c6e8;}.cls-75{fill:#131313;}.cls-76{fill:url(#linear-gradient-70);}.cls-77{fill:url(#linear-gradient-71);}.cls-78{fill:url(#linear-gradient-72);}.cls-79{fill:url(#linear-gradient-73);}.cls-80{fill:url(#linear-gradient-74);}.cls-81{fill:url(#linear-gradient-75);}.cls-82{fill:url(#linear-gradient-76);}.cls-83{fill:url(#linear-gradient-77);}.cls-84{fill:url(#linear-gradient-78);}.cls-85{fill:url(#linear-gradient-79);}.cls-86{fill:url(#linear-gradient-80);}.cls-87{fill:url(#linear-gradient-81);}.cls-88{fill:url(#linear-gradient-82);}.cls-89{fill:url(#linear-gradient-83);}.cls-90{fill:url(#linear-gradient-84);}.cls-91{fill:url(#linear-gradient-91);}.cls-92{fill:url(#linear-gradient-98);}.cls-93{fill:url(#linear-gradient-99);}.cls-94{fill:url(#linear-gradient-100);}.cls-95{fill:url(#linear-gradient-101);}.cls-96{fill:url(#linear-gradient-102);}.cls-97{fill:url(#linear-gradient-103);}.cls-98{fill:url(#linear-gradient-104);}.cls-99{fill:url(#linear-gradient-105);}.cls-100{fill:url(#linear-gradient-106);}.cls-101{fill:url(#linear-gradient-107);}.cls-102{fill:url(#linear-gradient-108);}.cls-103{fill:url(#linear-gradient-109);}.cls-104{fill:url(#linear-gradient-110);}.cls-105{fill:url(#linear-gradient-111);}.cls-106{fill:url(#linear-gradient-112);}.cls-107{fill:url(#linear-gradient-113);}.cls-108{fill:url(#linear-gradient-114);}.cls-109{fill:url(#linear-gradient-115);}.cls-110{fill:url(#linear-gradient-116);}.cls-111{fill:url(#linear-gradient-117);}.cls-112{fill:url(#linear-gradient-118);}.cls-113{fill:url(#linear-gradient-119);}.cls-114{fill:url(#linear-gradient-120);}.cls-115{fill:url(#linear-gradient-121);}.cls-116{fill:url(#linear-gradient-122);}.cls-117{fill:url(#linear-gradient-123);}.cls-118{fill:url(#linear-gradient-124);}.cls-119{fill:url(#linear-gradient-125);}.cls-120{fill:url(#linear-gradient-126);}.cls-121{fill:url(#linear-gradient-127);}.cls-122{fill:url(#linear-gradient-128);}.cls-123{fill:url(#linear-gradient-129);}.cls-124{fill:url(#linear-gradient-130);}.cls-125{fill:url(#linear-gradient-131);}.cls-126{fill:url(#linear-gradient-132);}.cls-127{fill:url(#linear-gradient-133);}.cls-128{fill:url(#linear-gradient-134);}.cls-129{fill:url(#linear-gradient-135);}.cls-130{fill:url(#linear-gradient-136);}.cls-131{fill:url(#linear-gradient-137);}.cls-132{fill:url(#linear-gradient-138);}.cls-133{fill:url(#linear-gradient-139);}.cls-134{fill:#4a4a56;}.cls-135{fill:#abb1b5;}.cls-136{fill:#383f48;}.cls-137{fill:#c9c5e8;}.cls-138{fill:#ff9104;}.cls-139{fill:#e4e5e9;}.cls-140{fill:#bac0c4;}.cls-141{fill:url(#linear-gradient-140);}.cls-142{fill:url(#linear-gradient-141);}</style>
        <linearGradient id="linear-gradient" x1="571.22" y1="832.61" x2="571.08" y2="832.37"
            gradientTransform="translate(-372.36)" gradientUnits="userSpaceOnUse">
            <stop offset="0" stop-color="#181818" />
            <stop offset="0.27" stop-color="#262626" />
            <stop offset="0.77" stop-color="#2e2e2e" />
        </linearGradient>
        <linearGradient id="linear-gradient-2" x1="571.87" y1="832.36" x2="571.73" y2="832.12"
            xlink:href="#linear-gradient" />
        <linearGradient id="linear-gradient-3" x1="576.74" y1="832.91" x2="575.72" y2="831.13"
            xlink:href="#linear-gradient" />
        <linearGradient id="linear-gradient-4" x1="586.89" y1="842.76" x2="581.03" y2="832.6"
            xlink:href="#linear-gradient" />
        <linearGradient id="linear-gradient-5" x1="600.25" y1="846.56" x2="595.69" y2="838.65"
            xlink:href="#linear-gradient" />
        <linearGradient id="linear-gradient-6" x1="609.02" y1="884.56" x2="590.68" y2="852.79"
            xlink:href="#linear-gradient" />
        <linearGradient id="linear-gradient-7" x1="611.6" y1="858.13" x2="610.05" y2="855.45"
            xlink:href="#linear-gradient" />
        <linearGradient id="linear-gradient-8" x1="613.58" y1="861.2" x2="611.76" y2="858.04"
            xlink:href="#linear-gradient" />
        <linearGradient id="linear-gradient-9" x1="618.56" y1="870.86" x2="616.75" y2="867.73"
            xlink:href="#linear-gradient" />
        <linearGradient id="linear-gradient-10" x1="621.13" y1="877.22" x2="617.73" y2="871.34"
            xlink:href="#linear-gradient" />
        <linearGradient id="linear-gradient-11" x1="621.51" y1="905.68" x2="620.83" y2="904.49"
            xlink:href="#linear-gradient" />
        <linearGradient id="linear-gradient-12" x1="622.51" y1="902.61" x2="621.8" y2="901.38"
            xlink:href="#linear-gradient" />
        <linearGradient id="linear-gradient-13" x1="623.39" y1="900.03" x2="622.08" y2="897.77"
            xlink:href="#linear-gradient" />
        <linearGradient id="linear-gradient-14" x1="624.42" y1="896.19" x2="619.19" y2="887.12"
            xlink:href="#linear-gradient" />
        <linearGradient id="linear-gradient-15" x1="257.87" y1="908.39" x2="208.28" y2="822.51"
            gradientTransform="matrix(1, 0, 0, 1, 0, 0)" xlink:href="#linear-gradient" />
        <linearGradient id="linear-gradient-22" x1="607.99" y1="885.15" x2="589.65" y2="853.39"
            xlink:href="#linear-gradient" />
        <linearGradient id="linear-gradient-29" x1="258.59" y1="907.57" x2="209.39" y2="822.35"
            gradientTransform="matrix(1, 0, 0, 1, 0, 0)" xlink:href="#linear-gradient" />
        <linearGradient id="linear-gradient-30" x1="571.68" y1="832.48" x2="571.94" y2="832.03"
            gradientTransform="translate(-372.36)" gradientUnits="userSpaceOnUse">
            <stop offset="0" stop-color="#141414" />
            <stop offset="0.44" stop-color="#1e1e1e" />
            <stop offset="0.78" stop-color="#202020" />
            <stop offset="0.98" stop-color="#292929" />
            <stop offset="1" stop-color="#2a2a2a" />
        </linearGradient>
        <linearGradient id="linear-gradient-31" x1="575.78" y1="832.79" x2="576.68" y2="831.25"
            xlink:href="#linear-gradient-30" />
        <linearGradient id="linear-gradient-32" x1="572.79" y1="868.11" x2="576.92" y2="860.94"
            xlink:href="#linear-gradient-30" />
        <linearGradient id="linear-gradient-33" x1="581.87" y1="887.69" x2="586.01" y2="880.53"
            xlink:href="#linear-gradient-30" />
        <linearGradient id="linear-gradient-34" x1="581.89" y1="841.25" x2="585.88" y2="834.35"
            xlink:href="#linear-gradient-30" />
        <linearGradient id="linear-gradient-35" x1="597.02" y1="844.53" x2="598.68" y2="841.66"
            xlink:href="#linear-gradient-30" />
        <linearGradient id="linear-gradient-36" x1="610.5" y1="857.37" x2="611.19" y2="856.18"
            xlink:href="#linear-gradient-30" />
        <linearGradient id="linear-gradient-37" x1="612.2" y1="860.4" x2="613.09" y2="858.87"
            xlink:href="#linear-gradient-30" />
        <linearGradient id="linear-gradient-38" x1="559.7" y1="874.71" x2="561.08" y2="872.33"
            xlink:href="#linear-gradient-30" />
        <linearGradient id="linear-gradient-39" x1="567.41" y1="834.4" x2="568.39" y2="832.69"
            xlink:href="#linear-gradient-30" />
        <linearGradient id="linear-gradient-40" x1="570.95" y1="832.68" x2="571.2" y2="832.25"
            xlink:href="#linear-gradient-30" />
        <linearGradient id="linear-gradient-41" x1="593.96" y1="914.34" x2="594.17" y2="913.97"
            xlink:href="#linear-gradient-30" />
        <linearGradient id="linear-gradient-42" x1="590.31" y1="881.39" x2="603.01" y2="859.39"
            xlink:href="#linear-gradient-30" />
        <linearGradient id="linear-gradient-43" x1="617.1" y1="870.25" x2="618.2" y2="868.34"
            xlink:href="#linear-gradient-30" />
        <linearGradient id="linear-gradient-44" x1="618.42" y1="876.15" x2="620.64" y2="872.29"
            xlink:href="#linear-gradient-30" />
        <linearGradient id="linear-gradient-45" x1="620.63" y1="906.02" x2="621.71" y2="904.15"
            xlink:href="#linear-gradient-30" />
        <linearGradient id="linear-gradient-46" x1="621.66" y1="902.84" x2="622.64" y2="901.14"
            xlink:href="#linear-gradient-30" />
        <linearGradient id="linear-gradient-47" x1="621.97" y1="900.24" x2="623.51" y2="897.57"
            xlink:href="#linear-gradient-30" />
        <linearGradient id="linear-gradient-48" x1="619.36" y1="894.98" x2="623.51" y2="887.8"
            xlink:href="#linear-gradient-30" />
        <linearGradient id="linear-gradient-49" x1="207.83" y1="895.83" x2="238.24" y2="843.15"
            gradientTransform="matrix(1, 0, 0, 1, 0, 0)" xlink:href="#linear-gradient-30" />
        <linearGradient id="linear-gradient-50" x1="571.68" y1="832.48" x2="571.94" y2="832.03"
            gradientTransform="translate(-372.36)" gradientUnits="userSpaceOnUse">
            <stop offset="0" stop-color="#161616" />
            <stop offset="0.3" stop-color="#1a1a1a" />
            <stop offset="0.79" stop-color="#1e1e1e" />
            <stop offset="0.8" stop-color="#1e1e1e" />
        </linearGradient>
        <linearGradient id="linear-gradient-51" x1="575.78" y1="832.79" x2="576.68" y2="831.25"
            xlink:href="#linear-gradient-50" />
        <linearGradient id="linear-gradient-52" x1="572.79" y1="868.11" x2="576.92" y2="860.94"
            xlink:href="#linear-gradient-50" />
        <linearGradient id="linear-gradient-53" x1="581.87" y1="887.69" x2="586.01" y2="880.53"
            xlink:href="#linear-gradient-50" />
        <linearGradient id="linear-gradient-54" x1="581.89" y1="841.25" x2="585.88" y2="834.35"
            xlink:href="#linear-gradient-50" />
        <linearGradient id="linear-gradient-55" x1="597.02" y1="844.53" x2="598.68" y2="841.66"
            xlink:href="#linear-gradient-50" />
        <linearGradient id="linear-gradient-56" x1="610.5" y1="857.37" x2="611.19" y2="856.18"
            xlink:href="#linear-gradient-50" />
        <linearGradient id="linear-gradient-57" x1="612.2" y1="860.4" x2="613.09" y2="858.87"
            xlink:href="#linear-gradient-50" />
        <linearGradient id="linear-gradient-58" x1="559.7" y1="874.71" x2="561.08" y2="872.33"
            xlink:href="#linear-gradient-50" />
        <linearGradient id="linear-gradient-59" x1="567.41" y1="834.4" x2="568.39" y2="832.69"
            xlink:href="#linear-gradient-50" />
        <linearGradient id="linear-gradient-60" x1="570.95" y1="832.68" x2="571.2" y2="832.25"
            xlink:href="#linear-gradient-50" />
        <linearGradient id="linear-gradient-61" x1="593.96" y1="914.34" x2="594.17" y2="913.97"
            xlink:href="#linear-gradient-50" />
        <linearGradient id="linear-gradient-62" x1="590.31" y1="881.39" x2="603.01" y2="859.39"
            xlink:href="#linear-gradient-50" />
        <linearGradient id="linear-gradient-63" x1="617.1" y1="870.25" x2="618.2" y2="868.34"
            xlink:href="#linear-gradient-50" />
        <linearGradient id="linear-gradient-64" x1="618.42" y1="876.15" x2="620.64" y2="872.29"
            xlink:href="#linear-gradient-50" />
        <linearGradient id="linear-gradient-65" x1="620.63" y1="906.02" x2="621.71" y2="904.15"
            xlink:href="#linear-gradient-50" />
        <linearGradient id="linear-gradient-66" x1="621.66" y1="902.84" x2="622.64" y2="901.14"
            xlink:href="#linear-gradient-50" />
        <linearGradient id="linear-gradient-67" x1="621.97" y1="900.24" x2="623.51" y2="897.57"
            xlink:href="#linear-gradient-50" />
        <linearGradient id="linear-gradient-68" x1="619.36" y1="894.98" x2="623.51" y2="887.8"
            xlink:href="#linear-gradient-50" />
        <linearGradient id="linear-gradient-69" x1="207.83" y1="895.83" x2="238.24" y2="843.15"
            gradientTransform="matrix(1, 0, 0, 1, 0, 0)" xlink:href="#linear-gradient-50" />
        <linearGradient id="linear-gradient-70" x1="1003.79" y1="1070.9" x2="1003.65" y2="1070.66"
            xlink:href="#linear-gradient" />
        <linearGradient id="linear-gradient-71" x1="1004.45" y1="1070.66" x2="1004.3" y2="1070.41"
            xlink:href="#linear-gradient" />
        <linearGradient id="linear-gradient-72" x1="1009.31" y1="1071.2" x2="1008.29" y2="1069.42"
            xlink:href="#linear-gradient" />
        <linearGradient id="linear-gradient-73" x1="1019.46" y1="1081.05" x2="1013.6" y2="1070.9"
            xlink:href="#linear-gradient" />
        <linearGradient id="linear-gradient-74" x1="1032.82" y1="1084.85" x2="1028.26" y2="1076.94"
            xlink:href="#linear-gradient" />
        <linearGradient id="linear-gradient-75" x1="1041.59" y1="1122.85" x2="1023.25" y2="1091.09"
            xlink:href="#linear-gradient" />
        <linearGradient id="linear-gradient-76" x1="1044.17" y1="1096.42" x2="1042.62" y2="1093.74"
            xlink:href="#linear-gradient" />
        <linearGradient id="linear-gradient-77" x1="1046.15" y1="1099.49" x2="1044.33" y2="1096.33"
            xlink:href="#linear-gradient" />
        <linearGradient id="linear-gradient-78" x1="1051.13" y1="1109.15" x2="1049.32" y2="1106.02"
            xlink:href="#linear-gradient" />
        <linearGradient id="linear-gradient-79" x1="1053.7" y1="1115.51" x2="1050.3" y2="1109.63"
            xlink:href="#linear-gradient" />
        <linearGradient id="linear-gradient-80" x1="1054.08" y1="1143.97" x2="1053.4" y2="1142.78"
            xlink:href="#linear-gradient" />
        <linearGradient id="linear-gradient-81" x1="1055.08" y1="1140.9" x2="1054.37" y2="1139.67"
            xlink:href="#linear-gradient" />
        <linearGradient id="linear-gradient-82" x1="1055.96" y1="1138.32" x2="1054.65" y2="1136.06"
            xlink:href="#linear-gradient" />
        <linearGradient id="linear-gradient-83" x1="1056.99" y1="1134.48" x2="1051.76" y2="1125.42"
            xlink:href="#linear-gradient" />
        <linearGradient id="linear-gradient-84" x1="690.44" y1="1146.68" x2="640.85" y2="1060.8"
            gradientTransform="matrix(1, 0, 0, 1, 0, 0)" xlink:href="#linear-gradient" />
        <linearGradient id="linear-gradient-91" x1="1040.56" y1="1123.44" x2="1022.22" y2="1091.68"
            xlink:href="#linear-gradient" />
        <linearGradient id="linear-gradient-98" x1="691.16" y1="1145.86" x2="641.96" y2="1060.64"
            gradientTransform="matrix(1, 0, 0, 1, 0, 0)" xlink:href="#linear-gradient" />
        <linearGradient id="linear-gradient-99" x1="1004.25" y1="1070.77" x2="1004.51" y2="1070.32"
            xlink:href="#linear-gradient-30" />
        <linearGradient id="linear-gradient-100" x1="1008.36" y1="1071.08" x2="1009.25" y2="1069.54"
            xlink:href="#linear-gradient-30" />
        <linearGradient id="linear-gradient-101" x1="1005.36" y1="1106.4" x2="1009.49" y2="1099.24"
            xlink:href="#linear-gradient-30" />
        <linearGradient id="linear-gradient-102" x1="1014.45" y1="1125.98" x2="1018.58" y2="1118.83"
            xlink:href="#linear-gradient-30" />
        <linearGradient id="linear-gradient-103" x1="1014.47" y1="1079.54" x2="1018.45" y2="1072.64"
            xlink:href="#linear-gradient-30" />
        <linearGradient id="linear-gradient-104" x1="1029.59" y1="1082.83" x2="1031.25" y2="1079.95"
            xlink:href="#linear-gradient-30" />
        <linearGradient id="linear-gradient-105" x1="1043.07" y1="1095.66" x2="1043.76" y2="1094.47"
            xlink:href="#linear-gradient-30" />
        <linearGradient id="linear-gradient-106" x1="1044.77" y1="1098.69" x2="1045.66" y2="1097.16"
            xlink:href="#linear-gradient-30" />
        <linearGradient id="linear-gradient-107" x1="992.27" y1="1113" x2="993.65" y2="1110.62"
            xlink:href="#linear-gradient-30" />
        <linearGradient id="linear-gradient-108" x1="999.98" y1="1072.69" x2="1000.96" y2="1070.98"
            xlink:href="#linear-gradient-30" />
        <linearGradient id="linear-gradient-109" x1="1003.52" y1="1070.97" x2="1003.77" y2="1070.54"
            xlink:href="#linear-gradient-30" />
        <linearGradient id="linear-gradient-110" x1="1026.53" y1="1152.63" x2="1026.74" y2="1152.26"
            xlink:href="#linear-gradient-30" />
        <linearGradient id="linear-gradient-111" x1="1022.88" y1="1119.68" x2="1035.59" y2="1097.68"
            xlink:href="#linear-gradient-30" />
        <linearGradient id="linear-gradient-112" x1="1049.67" y1="1108.54" x2="1050.77" y2="1106.63"
            xlink:href="#linear-gradient-30" />
        <linearGradient id="linear-gradient-113" x1="1050.99" y1="1114.44" x2="1053.21" y2="1110.59"
            xlink:href="#linear-gradient-30" />
        <linearGradient id="linear-gradient-114" x1="1053.21" y1="1144.31" x2="1054.28" y2="1142.44"
            xlink:href="#linear-gradient-30" />
        <linearGradient id="linear-gradient-115" x1="1054.23" y1="1141.14" x2="1055.21" y2="1139.43"
            xlink:href="#linear-gradient-30" />
        <linearGradient id="linear-gradient-116" x1="1054.54" y1="1138.53" x2="1056.08" y2="1135.86"
            xlink:href="#linear-gradient-30" />
        <linearGradient id="linear-gradient-117" x1="1051.93" y1="1133.27" x2="1056.08" y2="1126.09"
            xlink:href="#linear-gradient-30" />
        <linearGradient id="linear-gradient-118" x1="640.4" y1="1134.12" x2="670.81" y2="1081.45"
            gradientTransform="matrix(1, 0, 0, 1, 0, 0)" xlink:href="#linear-gradient-30" />
        <linearGradient id="linear-gradient-119" x1="1004.25" y1="1070.77" x2="1004.51" y2="1070.32"
            xlink:href="#linear-gradient-50" />
        <linearGradient id="linear-gradient-120" x1="1008.36" y1="1071.08" x2="1009.25" y2="1069.54"
            xlink:href="#linear-gradient-50" />
        <linearGradient id="linear-gradient-121" x1="1005.36" y1="1106.4" x2="1009.49" y2="1099.24"
            xlink:href="#linear-gradient-50" />
        <linearGradient id="linear-gradient-122" x1="1014.45" y1="1125.98" x2="1018.58" y2="1118.83"
            xlink:href="#linear-gradient-50" />
        <linearGradient id="linear-gradient-123" x1="1014.47" y1="1079.54" x2="1018.45" y2="1072.64"
            xlink:href="#linear-gradient-50" />
        <linearGradient id="linear-gradient-124" x1="1029.59" y1="1082.83" x2="1031.25" y2="1079.95"
            xlink:href="#linear-gradient-50" />
        <linearGradient id="linear-gradient-125" x1="1043.07" y1="1095.66" x2="1043.76" y2="1094.47"
            xlink:href="#linear-gradient-50" />
        <linearGradient id="linear-gradient-126" x1="1044.77" y1="1098.69" x2="1045.66" y2="1097.16"
            xlink:href="#linear-gradient-50" />
        <linearGradient id="linear-gradient-127" x1="992.27" y1="1113" x2="993.65" y2="1110.62"
            xlink:href="#linear-gradient-50" />
        <linearGradient id="linear-gradient-128" x1="999.98" y1="1072.69" x2="1000.96" y2="1070.98"
            xlink:href="#linear-gradient-50" />
        <linearGradient id="linear-gradient-129" x1="1003.52" y1="1070.97" x2="1003.77" y2="1070.54"
            xlink:href="#linear-gradient-50" />
        <linearGradient id="linear-gradient-130" x1="1026.53" y1="1152.63" x2="1026.74" y2="1152.26"
            xlink:href="#linear-gradient-50" />
        <linearGradient id="linear-gradient-131" x1="1022.88" y1="1119.68" x2="1035.59" y2="1097.68"
            xlink:href="#linear-gradient-50" />
        <linearGradient id="linear-gradient-132" x1="1049.67" y1="1108.54" x2="1050.77" y2="1106.63"
            xlink:href="#linear-gradient-50" />
        <linearGradient id="linear-gradient-133" x1="1050.99" y1="1114.44" x2="1053.21" y2="1110.59"
            xlink:href="#linear-gradient-50" />
        <linearGradient id="linear-gradient-134" x1="1053.21" y1="1144.31" x2="1054.28" y2="1142.44"
            xlink:href="#linear-gradient-50" />
        <linearGradient id="linear-gradient-135" x1="1054.23" y1="1141.14" x2="1055.21" y2="1139.43"
            xlink:href="#linear-gradient-50" />
        <linearGradient id="linear-gradient-136" x1="1054.54" y1="1138.53" x2="1056.08" y2="1135.86"
            xlink:href="#linear-gradient-50" />
        <linearGradient id="linear-gradient-137" x1="1051.93" y1="1133.27" x2="1056.08" y2="1126.09"
            xlink:href="#linear-gradient-50" />
        <linearGradient id="linear-gradient-138" x1="640.4" y1="1134.12" x2="670.81" y2="1081.45"
            gradientTransform="matrix(1, 0, 0, 1, 0, 0)" xlink:href="#linear-gradient-50" />
        <linearGradient id="linear-gradient-139" x1="1434.98" y1="173.84" x2="1452.73" y2="143.09"
            gradientTransform="translate(-310.67 286.08) rotate(17.1)"
            xlink:href="#linear-gradient-50" />
        <linearGradient id="linear-gradient-140" x1="868.08" y1="998.7" x2="878.72" y2="980.26"
            gradientTransform="translate(-97.6)" xlink:href="#linear-gradient-50" />
        <linearGradient id="linear-gradient-141" x1="841.32" y1="1007.35" x2="865" y2="966.33"
            gradientTransform="translate(-97.6)" xlink:href="#linear-gradient-50" />
    </defs>
    <g id="body">
        <path class="cls-14"
            d="M1025.91,908.28v56.51l-.33.13v.14l.33-.27-.33,26.56v12.11l-.67.67-2.66,2.79-5.19,5.4-11.72,10.58-7,6.32-6.85,4.86-9.65,6.79-50.06,28.36h-.07L901,1086.67l-34,19.24-19.17,10-43.2,15.71H791.27l-4.53-2.6-1.06-.66h-.13l-1.73-1.07h-.07l-35.61-20.57-14-8.12c-.13-.4-.26-.8-.4-1.26a21,21,0,0,0-.93-2.46c-7.92-21.24-27.36-47.66-41.74-59.65-10.85-9-47.12-29.88-69-42.2-9.26-5.26-15.91-8.92-17.18-9.58a.93.93,0,0,1-.2-.14V972.58l-20,11.58-4.26,2.46h-.07l-7.85,4.59L321.46,846.3l-44.14-25.42v-.07h-.13v-.07l-5.06-2.93-70-40.4-1.8-1.07-3.13-1.79-43.47-25.1-5.45-3.13L88.75,712l-47-27.16V331.23L311,175.8,841.66,482.13V659.46l116.22,67.09,4.53,2.6,5.19,6.46,24.5,58.91,26,90.06,1.73,7.25,2.59,10.52Z" />
    </g>
    <polygon class="cls-2"
        points="841.91 482.46 841.91 659.66 832.66 654.33 820.21 658.79 623.78 759.04 620.72 762.3 618.39 769.16 604.88 904.48 604.88 972.91 584.84 984.49 572.66 991.55 572.66 637.89 841.91 482.46" />
    <polygon class="cls-3"
        points="800.91 1030.89 798.38 1131.6 791.39 1131.6 734.21 1098.65 730.75 1091.02 698.93 1045.07 604.88 981.3 604.88 904.48 618.39 769.16 756.71 847.41 800.91 1030.89" />
    <polygon class="cls-3"
        points="41.97 331.54 572.63 637.92 572.63 991.52 41.97 685.14 41.97 331.54" />
    <path class="cls-4"
        d="M800.91,1030.91l8.52,4.07S945.26,991.15,1022,916.61c4-8.33,1.93-5,1.93-5l1.76,91.82s-14.75,20.3-43.74,37.41c-18,10.63-68.36,39.77-109.76,62.17-25.28,13.68-48.48,22.71-57.31,24.88-3.58.85-6.64,2.76-9.12,3.31-4.77,1.07-7.39.37-7.39.37Z" />
    <polygon class="cls-5"
        points="597.77 996.74 594.84 1019.57 325.52 864.08 312.54 856.55 284.91 840.65 284.85 840.58 279.79 837.65 208.9 796.71 192.46 787.26 187.93 784.6 186.66 783.93 157.78 767.23 153.71 764.89 148.26 761.7 146.93 760.9 88.75 727.35 88.75 711.98 148.26 746.32 153.71 749.45 197.18 774.55 200.31 776.35 202.11 777.41 272.13 817.81 277.19 820.74 277.19 820.81 277.32 820.81 277.32 820.88 277.66 821.08 305.02 836.85 321.46 846.3 572.41 991.22 572.54 991.15 580.26 986.62 580.33 986.62 597.77 996.74" />
    <polygon class="cls-6"
        points="148.26 761.7 148.26 772.28 137.34 765.96 146.93 760.9 148.26 761.7" />
    <polygon class="cls-7"
        points="186.66 783.93 179.54 790.26 153.71 807.5 153.71 764.89 157.78 767.23 186.66 783.93" />
    <polygon class="cls-7" points="187.93 784.6 179.54 790.26 186.66 783.93 187.93 784.6" />
    <polygon class="cls-5"
        points="153.71 764.89 153.71 807.5 148.26 804.37 148.26 761.7 153.71 764.89" />
    <polygon class="cls-5"
        points="192.46 787.26 189.66 811.82 166.63 825.14 169.56 799.11 179.54 790.26 187.93 784.6 192.46 787.26" />
    <polygon class="cls-5" points="187.93 784.6 179.54 790.26 186.66 783.93 187.93 784.6" />
    <path class="cls-8"
        d="M708.86,1079.28l-64.5-42.14-32.61,22.37,8.78-18.9,17.11-14.51,49.52,28.55S697.48,1061.31,708.86,1079.28Z" />
    <polygon class="cls-8"
        points="783.75 1127.27 783.48 1127.34 780.35 1129.6 777.63 1131.6 777.63 1142.12 748.14 1125.14 748.14 1106.7 783.75 1127.27" />
    <path class="cls-5"
        d="M783.75,1127.27l-.27.07-3.13,2.26L748.14,1111l-12.58-7.32h-.07c-.13-.73-.33-1.47-.53-2.2-.27-.93-.54-1.86-.87-2.86l14,8v.07Z" />
    <path class="cls-9"
        d="M1037.63,1009.25v25.17a5.63,5.63,0,0,1-.14,1.13,9.7,9.7,0,0,1-1.46,4.26s-10.85,10-14.11,12.64l-.8.6-2.6,2.8s-15.11,12.85-17.7,14.51c-41.94,27.29-118,74.15-162.69,92-8.39,3.33-39.87,11.85-39.87,11.85l-17.84-8.39-2.79-9V1131.6l14,7.92c4.8,2.73,11.45,3.93,17.84,3.4a27.63,27.63,0,0,0,3.26-.4,32.94,32.94,0,0,0,5.06-1.33s14.25-5,18.91-6.93c49.12-20.5,128.53-68.16,166.94-94,6.06-4,11.12-7.52,14.85-10.31,1.33-1,2.46-1.87,3.46-2.67s2.33-1.93,4-3.39c.4-.33.8-.73,1.2-1.13,4.19-3.66,8.92-8.06,8.92-8.06A11.45,11.45,0,0,0,1037.63,1009.25Z" />
    <path class="cls-9" d="M1037.63,1034.42v1l-.14.14A5.63,5.63,0,0,0,1037.63,1034.42Z" />
    <path class="cls-10"
        d="M1037.63,1007.86v1.39a11.45,11.45,0,0,1-1.6,5.46s-4.73,4.4-8.92,8.06c-.4.4-.8.8-1.2,1.13-1.66,1.46-3.06,2.73-4,3.39s-2.13,1.67-3.46,2.67c-3.73,2.79-8.79,6.32-14.85,10.31-38.41,25.83-117.82,73.49-166.94,94-4.66,1.93-18.91,6.93-18.91,6.93a32.94,32.94,0,0,1-5.06,1.33,27.63,27.63,0,0,1-3.26.4c-6.39.53-13-.67-17.84-3.4l-14-7.92,2.72-2,3.13-2.26.27-.07h.07l1.73,1.07h.13l1.06.66,4.53,2.6h13.38l43.2-15.71,19.17-10,34-19.24,30.75-17.44h.07l50.06-28.36,9.65-6.79,6.85-4.86,7-6.32,11.72-10.58,5.19-5.4,2.66-2.79.67-.67v-8.25l7.59,4.33C1036.56,1001.47,1037.56,1004.86,1037.63,1007.86Z" />
    <polygon class="cls-11" points="1025.91 964.79 1025.58 965.05 1025.58 964.92 1025.91 964.79" />
    <polygon class="cls-5" points="748.14 1106.7 734.09 1098.65 734.09 1098.58 748.14 1106.7" />
    <polygon class="cls-5" points="783.75 1127.27 748.14 1106.77 748.14 1106.7 783.75 1127.27" />
    <polygon class="cls-5"
        points="299.23 896.69 295.5 897.16 292.57 870.87 279.79 837.65 284.85 840.58 284.91 840.65 296.3 870.33 299.23 896.69" />
    <polygon class="cls-12"
        points="327.38 880.45 316.8 886.58 299.23 896.69 296.36 870.47 296.3 870.33 284.91 840.65 312.54 856.55 325.52 864.08 327.38 880.45" />
    <polygon class="cls-13"
        points="148.26 772.28 148.26 804.37 137.34 798.04 137.34 765.96 148.26 772.28" />
    <path class="cls-10"
        d="M740,1134.79l-5.59,3.27s.86-11.32-5.06-33.35a86.41,86.41,0,0,0-6.39-16.31c-9.32-19-25.23-39.74-37.54-50q-1.5-1.2-3.6-2.8c-.66-.46-1.46-1-2.2-1.53l-5.19-3.53c-.93-.59-1.86-1.19-2.86-1.86-14.38-9.19-34.88-21-50.45-29.82-12.72-7.19-22-12.31-22-12.31l5.59-3.27a.93.93,0,0,0,.2.14c1.27.66,7.92,4.32,17.18,9.58,21.9,12.32,58.17,33.15,69,42.2,14.38,12,33.82,38.41,41.74,59.65a21,21,0,0,1,.93,2.46c.14.46.27.86.4,1.26v.07c.33,1,.6,1.93.87,2.86.2.73.4,1.47.53,2.2h.07C740.75,1124.21,740,1134.79,740,1134.79Z" />
    <path class="cls-9"
        d="M734.36,1138.06l-3.6.66s-4.72-23.36-8.78-33.48a153.47,153.47,0,0,0-13.12-26c-11.38-18-21.7-24.63-21.7-24.63l-49.52-28.55-17.11,14.51-8.78,18.9-17.44-10V1024l.53-4.4,2.93-22.83L599,986.56s9.32,5.12,22,12.31c15.57,8.79,36.07,20.63,50.45,29.82,1,.67,1.93,1.27,2.86,1.86l5.19,3.53c.74.54,1.54,1.07,2.2,1.53q2.1,1.61,3.6,2.8c12.31,10.25,28.22,30.95,37.54,50a86.41,86.41,0,0,1,6.39,16.31C735.22,1126.74,734.36,1138.06,734.36,1138.06Z" />
    <polygon class="cls-11" points="1025.91 964.79 1025.58 965.05 1025.58 964.92 1025.91 964.79" />
    <path class="cls-1" d="M199,832.33c-.08.16-.24.24-.32.39l-.15-.23A1.05,1.05,0,0,1,199,832.33Z" />
    <path class="cls-15" d="M199.85,832.17c-.32.08-.55.08-.79.16l.08-.08Z" />
    <path class="cls-16"
        d="M205.79,832.1a21,21,0,0,0-3.83-.16,3.7,3.7,0,0,1,.94-.08h.31c.55,0,1,.08,1.49.08C205,832,205.4,832,205.79,832.1Z" />
    <path class="cls-17"
        d="M214,843c-1.8.47-4.39-1.56-5.79-4.46-1.18-2.5-1-5,.39-5.87h.08a18.39,18.39,0,0,1,2.5.71c.62.23,1.25.47,1.95.78a9,9,0,0,1,1.8,2.66C216.35,839.76,215.88,842.5,214,843Z" />
    <path class="cls-18"
        d="M229.49,845.63a3,3,0,0,1-3.2-.16,9.2,9.2,0,0,1-4.07-6.18A67.59,67.59,0,0,1,229.49,845.63Z" />
    <path class="cls-19"
        d="M237.16,878.17c0,5.4-2.5,8.69-6.34,9.08l-.54-.94c2.19-1.18,3.6-3.84,3.6-7.67,0-7.43-5.32-16.58-11.82-20.34-3.44-1.95-6.49-2-8.68-.62l-.55-.94c2.27-3.29,6.49-3.91,11.35-1.1C231.37,859.87,237.16,869.88,237.16,878.17Z" />
    <path class="cls-20"
        d="M239.35,858.07a8.08,8.08,0,0,1-.78-.94,8.91,8.91,0,0,1-.94-1.64C238.25,856.35,238.8,857.21,239.35,858.07Z" />
    <path class="cls-21"
        d="M241.23,861.2c-.63-1.1-1.25-2.12-1.88-3.13.63.94,1.17,1.95,1.8,2.89A.29.29,0,0,1,241.23,861.2Z" />
    <path class="cls-22"
        d="M246,871c-.47-1.1-.94-2.2-1.41-3.37.24.47.39.94.63,1.33C245.45,869.65,245.77,870.27,246,871Z" />
    <path class="cls-23"
        d="M248.35,877.47a9.47,9.47,0,0,1-2.19-4A5.49,5.49,0,0,1,246,871c.39.86.7,1.72,1,2.58a18.32,18.32,0,0,1,.78,2.27A14.35,14.35,0,0,1,248.35,877.47Z" />
    <path class="cls-24"
        d="M249.21,904.07a6.53,6.53,0,0,1-.39,1.25c-.16.23-.24.54-.4.78A15.84,15.84,0,0,0,249.21,904.07Z" />
    <path class="cls-25" d="M250.07,901l-.24,1.18a2.5,2.5,0,0,0-.31.78A14,14,0,0,0,250.07,901Z" />
    <path class="cls-26"
        d="M250.62,897.26c-.08.7-.16,1.41-.24,2a8.16,8.16,0,0,1-.23,1.26C250.3,899.45,250.46,898.43,250.62,897.26Z" />
    <path class="cls-27"
        d="M250.85,893.35a28.22,28.22,0,0,1-.23,3.67,5.55,5.55,0,0,1-1.8-1.25c-2.19-2-3.37-5.39-2.66-7.51.62-1.8,2.34-2.11,4.3-.86v.08A51.49,51.49,0,0,1,250.85,893.35Z" />
    <path class="cls-28"
        d="M255.22,893.5c0,9-2.52,15.71-6.85,20a5.29,5.29,0,0,1-1.26,1.13l-.34-.47a6.61,6.61,0,0,0,.93-1.13c3.47-4.26,5.4-10.52,5.4-18.3a45.4,45.4,0,0,0-.27-5.2c-2.13-21.23-17.11-45.26-35.08-55.71-6.86-4-13.38-5.46-18.84-4.59a10.89,10.89,0,0,0-2.06.46h-.07l-.2-.4c.73-.26,1.53-.6,2.33-.86,5.93-1.53,13.12-.4,21,4.19C239.45,843.84,255.22,871.07,255.22,893.5Z" />
    <path class="cls-15" d="M199.85,832.17c-.32.08-.55.08-.79.16l.08-.08Z" />
    <path class="cls-16"
        d="M205.79,832.1a21,21,0,0,0-3.83-.16,3.7,3.7,0,0,1,.94-.08h.31c.55,0,1,.08,1.49.08C205,832,205.4,832,205.79,832.1Z" />
    <path class="cls-17"
        d="M214,843c-1.8.47-4.39-1.56-5.79-4.46-1.18-2.5-1-5,.39-5.87h.08a18.39,18.39,0,0,1,2.5.71c.62.23,1.25.47,1.95.78a9,9,0,0,1,1.8,2.66C216.35,839.76,215.88,842.5,214,843Z" />
    <path class="cls-18"
        d="M229.49,845.63a3,3,0,0,1-3.2-.16,9.2,9.2,0,0,1-4.07-6.18A67.59,67.59,0,0,1,229.49,845.63Z" />
    <path class="cls-20"
        d="M239.35,858.07a8.08,8.08,0,0,1-.78-.94,8.91,8.91,0,0,1-.94-1.64C238.25,856.35,238.8,857.21,239.35,858.07Z" />
    <path class="cls-21"
        d="M241.23,861.2c-.63-1.1-1.25-2.12-1.88-3.13.63.94,1.17,1.95,1.8,2.89A.29.29,0,0,1,241.23,861.2Z" />
    <path class="cls-29"
        d="M237.16,878.17c0,5.4-2.5,8.69-6.34,9.08a7.38,7.38,0,0,1-3.12-.24,7.15,7.15,0,0,0,2.58-.7c2.19-1.18,3.6-3.84,3.6-7.67,0-7.43-5.32-16.58-11.82-20.34-3.44-1.95-6.49-2-8.68-.62a5.4,5.4,0,0,0-1.72,1.8,9.44,9.44,0,0,1,1.17-2.74c2.27-3.29,6.49-3.91,11.35-1.1C231.37,859.87,237.16,869.88,237.16,878.17Z" />
    <path class="cls-22"
        d="M246,871c-.47-1.1-.94-2.2-1.41-3.37.24.47.39.94.63,1.33C245.45,869.65,245.77,870.27,246,871Z" />
    <path class="cls-23"
        d="M248.35,877.47a9.47,9.47,0,0,1-2.19-4A5.49,5.49,0,0,1,246,871c.39.86.7,1.72,1,2.58a18.32,18.32,0,0,1,.78,2.27A14.35,14.35,0,0,1,248.35,877.47Z" />
    <path class="cls-24"
        d="M249.21,904.07a6.53,6.53,0,0,1-.39,1.25c-.16.23-.24.54-.4.78A15.84,15.84,0,0,0,249.21,904.07Z" />
    <path class="cls-25" d="M250.07,901l-.24,1.18a2.5,2.5,0,0,0-.31.78A14,14,0,0,0,250.07,901Z" />
    <path class="cls-26"
        d="M250.62,897.26c-.08.7-.16,1.41-.24,2a8.16,8.16,0,0,1-.23,1.26C250.3,899.45,250.46,898.43,250.62,897.26Z" />
    <path class="cls-27"
        d="M250.85,893.35a28.22,28.22,0,0,1-.23,3.67,5.55,5.55,0,0,1-1.8-1.25c-2.19-2-3.37-5.39-2.66-7.51.62-1.8,2.34-2.11,4.3-.86v.08A51.49,51.49,0,0,1,250.85,893.35Z" />
    <path class="cls-30"
        d="M255.22,893.5c0,9-2.52,15.71-6.85,20-.27-.2-.4-.27-.67-.47,3.47-4.26,5.4-10.52,5.4-18.3a45.4,45.4,0,0,0-.27-5.2c-2.13-21.23-17.11-45.26-35.08-55.71-6.86-4-13.38-5.46-18.84-4.59a3.56,3.56,0,0,1,0-.8c5.93-1.53,13.12-.4,21,4.19C239.45,843.84,255.22,871.07,255.22,893.5Z" />
    <path class="cls-31" d="M199.85,832.17c-.32.08-.55.08-.79.16l.08-.08Z" />
    <path class="cls-32"
        d="M205.79,832.1a21,21,0,0,0-3.83-.16,3.7,3.7,0,0,1,.94-.08h.31c.55,0,1,.08,1.49.08C205,832,205.4,832,205.79,832.1Z" />
    <path class="cls-33"
        d="M203.76,869.8c-2.19-.47-4.54-3.21-5.24-6.1s.54-4.93,2.73-4.46,4.46,3.13,5.17,6.1S206,870.27,203.76,869.8Z" />
    <path class="cls-34"
        d="M214.94,888.89c-1.33,1.33-3.91.31-5.78-2.35s-2.27-5.79-.94-7.19,4-.32,5.79,2.34S216.27,887.48,214.94,888.89Z" />
    <path class="cls-35"
        d="M214,843c-1.8.47-4.39-1.56-5.79-4.46-1.18-2.5-1-5,.39-5.87h.08a18.39,18.39,0,0,1,2.5.71c.62.23,1.25.47,1.95.78a9,9,0,0,1,1.8,2.66C216.35,839.76,215.88,842.5,214,843Z" />
    <path class="cls-36"
        d="M229.49,845.63a3,3,0,0,1-3.2-.16,9.2,9.2,0,0,1-4.07-6.18A67.59,67.59,0,0,1,229.49,845.63Z" />
    <path class="cls-37"
        d="M239.35,858.07a8.08,8.08,0,0,1-.78-.94,8.91,8.91,0,0,1-.94-1.64C238.25,856.35,238.8,857.21,239.35,858.07Z" />
    <path class="cls-38"
        d="M241.23,861.2c-.63-1.1-1.25-2.12-1.88-3.13.63.94,1.17,1.95,1.8,2.89A.29.29,0,0,1,241.23,861.2Z" />
    <path class="cls-39"
        d="M187.64,872.23c.32,1.09.71,2.19,1.1,3.28a39.59,39.59,0,0,1-1.41-4A2.74,2.74,0,0,1,187.64,872.23Z" />
    <path class="cls-40"
        d="M195.54,833.43a4.21,4.21,0,0,1,1.1-.39,6.6,6.6,0,0,0-1.72.86l-.08.07a.83.83,0,0,0-.39.08c.23-.15.47-.23.7-.39a314698590945.14,314698590945.14,0,0,0,.32-.16C195.54,833.5,195.54,833.5,195.54,833.43Z" />
    <path class="cls-41" d="M198.52,832.49a1.05,1.05,0,0,1,.47-.16c-.08.16-.24.24-.32.39Z" />
    <path class="cls-42"
        d="M223.63,915a33.31,33.31,0,0,1-3.84-1.72c.63.31,1.33.62,2,.86S223,914.78,223.63,915Z" />
    <path class="cls-43"
        d="M237.16,878.17c0,5.4-2.5,8.69-6.34,9.08a7.38,7.38,0,0,1-3.12-.24,7.15,7.15,0,0,0,2.58-.7c2.19-1.18,3.6-3.84,3.6-7.67,0-7.43-5.32-16.58-11.82-20.34-3.44-1.95-6.49-2-8.68-.62a5.4,5.4,0,0,0-1.72,1.8,9.44,9.44,0,0,1,1.17-2.74c2.27-3.29,6.49-3.91,11.35-1.1C231.37,859.87,237.16,869.88,237.16,878.17Z" />
    <path class="cls-44"
        d="M246,871c-.47-1.1-.94-2.2-1.41-3.37.24.47.39.94.63,1.33C245.45,869.65,245.77,870.27,246,871Z" />
    <path class="cls-45"
        d="M248.35,877.47a9.47,9.47,0,0,1-2.19-4A5.49,5.49,0,0,1,246,871c.39.86.7,1.72,1,2.58a18.32,18.32,0,0,1,.78,2.27A14.35,14.35,0,0,1,248.35,877.47Z" />
    <path class="cls-46"
        d="M249.21,904.07a6.53,6.53,0,0,1-.39,1.25c-.16.23-.24.54-.4.78A15.84,15.84,0,0,0,249.21,904.07Z" />
    <path class="cls-47" d="M250.07,901l-.24,1.18a2.5,2.5,0,0,0-.31.78A14,14,0,0,0,250.07,901Z" />
    <path class="cls-48"
        d="M250.62,897.26c-.08.7-.16,1.41-.24,2a8.16,8.16,0,0,1-.23,1.26C250.3,899.45,250.46,898.43,250.62,897.26Z" />
    <path class="cls-49"
        d="M250.85,893.35a28.22,28.22,0,0,1-.23,3.67,5.55,5.55,0,0,1-1.8-1.25c-2.19-2-3.37-5.39-2.66-7.51.62-1.8,2.34-2.11,4.3-.86v.08A51.49,51.49,0,0,1,250.85,893.35Z" />
    <path class="cls-50"
        d="M255.22,893.5c0,9-2.52,15.71-6.85,20a5.29,5.29,0,0,1-1.26,1.13l-.07.13a20.14,20.14,0,0,1-3.13,1.93,16.45,16.45,0,0,0,2.86-2.53,6.61,6.61,0,0,0,.93-1.13c3.47-4.26,5.4-10.52,5.4-18.3a45.4,45.4,0,0,0-.27-5.2c-2.13-21.23-17.11-45.26-35.08-55.71-6.86-4-13.38-5.46-18.84-4.59a10.89,10.89,0,0,0-2.06.46h-.07a16.57,16.57,0,0,0-2.93,1.13,9.29,9.29,0,0,1,2.73-1.53c.73-.26,1.53-.6,2.33-.86,5.93-1.53,13.12-.4,21,4.19C239.45,843.84,255.22,871.07,255.22,893.5Z" />
    <path class="cls-51"
        d="M305.85,903.93a23.59,23.59,0,0,0,10.94-17.31v0l-17.58,10.11-3.72.47-2.93-26.29-12.78-33.22L208.9,796.71l-23.5,13.58a24.52,24.52,0,0,0-8.19,8.12c-3.79,6-6,14.18-6,24.1,0,32.22,22.77,71.49,50.86,87.67,14.17,8.25,26.95,8.92,36.21,3.46a3.88,3.88,0,0,0,.66-.4Zm-57.48,9.54a5.29,5.29,0,0,1-1.26,1.13l-.07.13a20.14,20.14,0,0,1-3.13,1.93c-6.46,4.4-15.78,4.13-26.16-1.79-19.44-11.32-35.28-38.55-35.28-61,0-11.71,4.39-19.77,11.38-23.1a9.29,9.29,0,0,1,2.73-1.53c.73-.26,1.53-.6,2.33-.86,5.93-1.53,13.12-.4,21,4.19,19.5,11.25,35.27,38.48,35.27,60.91C255.22,902.48,252.7,909.21,248.37,913.47Z" />
    <path class="cls-52" d="M199.85,832.17c-.32.08-.55.08-.79.16l.08-.08Z" />
    <path class="cls-53"
        d="M205.79,832.1a21,21,0,0,0-3.83-.16,3.7,3.7,0,0,1,.94-.08h.31c.55,0,1,.08,1.49.08C205,832,205.4,832,205.79,832.1Z" />
    <path class="cls-54"
        d="M203.76,869.8c-2.19-.47-4.54-3.21-5.24-6.1s.54-4.93,2.73-4.46,4.46,3.13,5.17,6.1S206,870.27,203.76,869.8Z" />
    <path class="cls-55"
        d="M214.94,888.89c-1.33,1.33-3.91.31-5.78-2.35s-2.27-5.79-.94-7.19,4-.32,5.79,2.34S216.27,887.48,214.94,888.89Z" />
    <path class="cls-56"
        d="M214,843c-1.8.47-4.39-1.56-5.79-4.46-1.18-2.5-1-5,.39-5.87h.08a18.39,18.39,0,0,1,2.5.71c.62.23,1.25.47,1.95.78a9,9,0,0,1,1.8,2.66C216.35,839.76,215.88,842.5,214,843Z" />
    <path class="cls-57"
        d="M229.49,845.63a3,3,0,0,1-3.2-.16,9.2,9.2,0,0,1-4.07-6.18A67.59,67.59,0,0,1,229.49,845.63Z" />
    <path class="cls-58"
        d="M239.35,858.07a8.08,8.08,0,0,1-.78-.94,8.91,8.91,0,0,1-.94-1.64C238.25,856.35,238.8,857.21,239.35,858.07Z" />
    <path class="cls-59"
        d="M241.23,861.2c-.63-1.1-1.25-2.12-1.88-3.13.63.94,1.17,1.95,1.8,2.89A.29.29,0,0,1,241.23,861.2Z" />
    <path class="cls-60"
        d="M187.64,872.23c.32,1.09.71,2.19,1.1,3.28a39.59,39.59,0,0,1-1.41-4A2.74,2.74,0,0,1,187.64,872.23Z" />
    <path class="cls-61"
        d="M195.54,833.43a4.21,4.21,0,0,1,1.1-.39,6.6,6.6,0,0,0-1.72.86l-.08.07a.83.83,0,0,0-.39.08c.23-.15.47-.23.7-.39a314698590945.14,314698590945.14,0,0,0,.32-.16C195.54,833.5,195.54,833.5,195.54,833.43Z" />
    <path class="cls-62" d="M198.52,832.49a1.05,1.05,0,0,1,.47-.16c-.08.16-.24.24-.32.39Z" />
    <path class="cls-63"
        d="M223.63,915a33.31,33.31,0,0,1-3.84-1.72c.63.31,1.33.62,2,.86S223,914.78,223.63,915Z" />
    <path class="cls-64"
        d="M237.16,878.17c0,5.4-2.5,8.69-6.34,9.08a7.38,7.38,0,0,1-3.12-.24,7.15,7.15,0,0,0,2.58-.7c2.19-1.18,3.6-3.84,3.6-7.67,0-7.43-5.32-16.58-11.82-20.34-3.44-1.95-6.49-2-8.68-.62a5.4,5.4,0,0,0-1.72,1.8,9.44,9.44,0,0,1,1.17-2.74c2.27-3.29,6.49-3.91,11.35-1.1C231.37,859.87,237.16,869.88,237.16,878.17Z" />
    <path class="cls-65"
        d="M246,871c-.47-1.1-.94-2.2-1.41-3.37.24.47.39.94.63,1.33C245.45,869.65,245.77,870.27,246,871Z" />
    <path class="cls-66"
        d="M248.35,877.47a9.47,9.47,0,0,1-2.19-4A5.49,5.49,0,0,1,246,871c.39.86.7,1.72,1,2.58a18.32,18.32,0,0,1,.78,2.27A14.35,14.35,0,0,1,248.35,877.47Z" />
    <path class="cls-67"
        d="M249.21,904.07a6.53,6.53,0,0,1-.39,1.25c-.16.23-.24.54-.4.78A15.84,15.84,0,0,0,249.21,904.07Z" />
    <path class="cls-68" d="M250.07,901l-.24,1.18a2.5,2.5,0,0,0-.31.78A14,14,0,0,0,250.07,901Z" />
    <path class="cls-69"
        d="M250.62,897.26c-.08.7-.16,1.41-.24,2a8.16,8.16,0,0,1-.23,1.26C250.3,899.45,250.46,898.43,250.62,897.26Z" />
    <path class="cls-70"
        d="M250.85,893.35a28.22,28.22,0,0,1-.23,3.67,5.55,5.55,0,0,1-1.8-1.25c-2.19-2-3.37-5.39-2.66-7.51.62-1.8,2.34-2.11,4.3-.86v.08A51.49,51.49,0,0,1,250.85,893.35Z" />
    <path class="cls-71"
        d="M255.22,893.5c0,9-2.52,15.71-6.85,20a5.29,5.29,0,0,1-1.26,1.13l-.07.13a20.14,20.14,0,0,1-3.13,1.93,16.45,16.45,0,0,0,2.86-2.53,6.61,6.61,0,0,0,.93-1.13c3.47-4.26,5.4-10.52,5.4-18.3a45.4,45.4,0,0,0-.27-5.2c-2.13-21.23-17.11-45.26-35.08-55.71-6.86-4-13.38-5.46-18.84-4.59a10.89,10.89,0,0,0-2.06.46h-.07a16.57,16.57,0,0,0-2.93,1.13,9.29,9.29,0,0,1,2.73-1.53c.73-.26,1.53-.6,2.33-.86,5.93-1.53,13.12-.4,21,4.19C239.45,843.84,255.22,871.07,255.22,893.5Z" />
    <path class="cls-72"
        d="M203.76,869.8c-2.19-.47-4.54-3.21-5.24-6.1s.54-4.93,2.73-4.46,4.46,3.13,5.17,6.1S206,870.27,203.76,869.8Z" />
    <path class="cls-72"
        d="M214.94,888.89c-1.33,1.33-3.91.31-5.78-2.35s-2.27-5.79-.94-7.19,4-.32,5.79,2.34S216.27,887.48,214.94,888.89Z" />
    <path class="cls-72"
        d="M214,843c-1.8.47-4.39-1.56-5.79-4.46-1.18-2.5-1-5,.39-5.87h.08a18.39,18.39,0,0,1,2.5.71c.62.23,1.25.47,1.95.78a9,9,0,0,1,1.8,2.66C216.35,839.76,215.88,842.5,214,843Z" />
    <path class="cls-72"
        d="M229.49,845.63a3,3,0,0,1-3.2-.16,9.2,9.2,0,0,1-4.07-6.18A67.59,67.59,0,0,1,229.49,845.63Z" />
    <path class="cls-72"
        d="M239.35,858.07a8.08,8.08,0,0,1-.78-.94,8.91,8.91,0,0,1-.94-1.64C238.25,856.35,238.8,857.21,239.35,858.07Z" />
    <path class="cls-72"
        d="M187.64,872.23c.32,1.09.71,2.19,1.1,3.28a39.59,39.59,0,0,1-1.41-4A2.74,2.74,0,0,1,187.64,872.23Z" />
    <path class="cls-72" d="M198.52,832.49a1.05,1.05,0,0,1,.47-.16c-.08.16-.24.24-.32.39Z" />
    <path class="cls-72"
        d="M223.63,915a33.31,33.31,0,0,1-3.84-1.72c.63.31,1.33.62,2,.86S223,914.78,223.63,915Z" />
    <path class="cls-72"
        d="M237.16,878.17c0,5.4-2.5,8.69-6.34,9.08a7.38,7.38,0,0,1-3.12-.24,7.15,7.15,0,0,0,2.58-.7c2.19-1.18,3.6-3.84,3.6-7.67,0-7.43-5.32-16.58-11.82-20.34-3.44-1.95-6.49-2-8.68-.62a5.4,5.4,0,0,0-1.72,1.8,9.44,9.44,0,0,1,1.17-2.74c2.27-3.29,6.49-3.91,11.35-1.1C231.37,859.87,237.16,869.88,237.16,878.17Z" />
    <path class="cls-72"
        d="M248.35,877.47a9.47,9.47,0,0,1-2.19-4A5.49,5.49,0,0,1,246,871c.39.86.7,1.72,1,2.58a18.32,18.32,0,0,1,.78,2.27A14.35,14.35,0,0,1,248.35,877.47Z" />
    <path class="cls-72"
        d="M250.85,893.35a28.22,28.22,0,0,1-.23,3.67,5.55,5.55,0,0,1-1.8-1.25c-2.19-2-3.37-5.39-2.66-7.51.62-1.8,2.34-2.11,4.3-.86v.08A51.49,51.49,0,0,1,250.85,893.35Z" />
    <path class="cls-72"
        d="M221.75,914.16c-.63-.24-1.33-.55-2-.86a33.31,33.31,0,0,0,3.84,1.72C223,914.78,222.38,914.47,221.75,914.16ZM194.84,834l.08-.07.23-.24c-.23.16-.47.24-.7.39A.83.83,0,0,1,194.84,834ZM220,832.59c-7.92-4.59-15.11-5.72-21-4.19-.8.26-1.6.6-2.33.86a9.29,9.29,0,0,0-2.73,1.53,16.57,16.57,0,0,1,2.93-1.13h.07a10.89,10.89,0,0,1,2.06-.46c5.46-.87,12,.6,18.84,4.59,18,10.45,32.95,34.48,35.08,55.71a45.4,45.4,0,0,1,.27,5.2c0,7.78-1.93,14-5.4,18.3a6.61,6.61,0,0,1-.93,1.13,16.45,16.45,0,0,1-2.86,2.53,20.14,20.14,0,0,0,3.13-1.93l.07-.13a5.29,5.29,0,0,0,1.26-1.13c4.33-4.26,6.85-11,6.85-20C255.22,871.07,239.45,843.84,220,832.59Z" />
    <path class="cls-73"
        d="M203.76,869.8c-2.19-.47-4.54-3.21-5.24-6.1s.54-4.93,2.73-4.46,4.46,3.13,5.17,6.1S206,870.27,203.76,869.8Z" />
    <path class="cls-73"
        d="M214.94,888.89c-1.33,1.33-3.91.31-5.78-2.35s-2.27-5.79-.94-7.19,4-.32,5.79,2.34S216.27,887.48,214.94,888.89Z" />
    <path class="cls-73"
        d="M214,843c-1.8.47-4.39-1.56-5.79-4.46-1.18-2.5-1-5,.39-5.87h.08a18.39,18.39,0,0,1,2.5.71c.62.23,1.25.47,1.95.78a9,9,0,0,1,1.8,2.66C216.35,839.76,215.88,842.5,214,843Z" />
    <path class="cls-73"
        d="M229.49,845.63a3,3,0,0,1-3.2-.16,9.2,9.2,0,0,1-4.07-6.18A67.59,67.59,0,0,1,229.49,845.63Z" />
    <path class="cls-73"
        d="M239.35,858.07a8.08,8.08,0,0,1-.78-.94,8.91,8.91,0,0,1-.94-1.64C238.25,856.35,238.8,857.21,239.35,858.07Z" />
    <path class="cls-73"
        d="M237.16,878.17c0,5.4-2.5,8.69-6.34,9.08a7.38,7.38,0,0,1-3.12-.24,7.15,7.15,0,0,0,2.58-.7c2.19-1.18,3.6-3.84,3.6-7.67,0-7.43-5.32-16.58-11.82-20.34-3.44-1.95-6.49-2-8.68-.62a5.4,5.4,0,0,0-1.72,1.8,9.44,9.44,0,0,1,1.17-2.74c2.27-3.29,6.49-3.91,11.35-1.1C231.37,859.87,237.16,869.88,237.16,878.17Z" />
    <path class="cls-73"
        d="M248.35,877.47a9.47,9.47,0,0,1-2.19-4A5.49,5.49,0,0,1,246,871c.39.86.7,1.72,1,2.58a18.32,18.32,0,0,1,.78,2.27A14.35,14.35,0,0,1,248.35,877.47Z" />
    <path class="cls-73"
        d="M250.85,893.35a28.22,28.22,0,0,1-.23,3.67,5.55,5.55,0,0,1-1.8-1.25c-2.19-2-3.37-5.39-2.66-7.51.62-1.8,2.34-2.11,4.3-.86v.08A51.49,51.49,0,0,1,250.85,893.35Z" />
    <path class="cls-74"
        d="M187.64,872.23a2.74,2.74,0,0,0-.31-.71,39.59,39.59,0,0,0,1.41,4C188.35,874.42,188,873.32,187.64,872.23Zm34.11,41.93c-.63-.24-1.33-.55-2-.86a33.31,33.31,0,0,0,3.84,1.72C223,914.78,222.38,914.47,221.75,914.16Z" />
    <path class="cls-74"
        d="M252.83,889.5c-2.13-21.23-17.11-45.26-35.08-55.71-6.86-4-13.38-5.46-18.84-4.59a10.89,10.89,0,0,0-2.06.46h-.07a16.57,16.57,0,0,0-2.93,1.13c-7,3.33-11.38,11.39-11.38,23.1,0,22.43,15.84,49.66,35.28,61,10.38,5.92,19.7,6.19,26.16,1.79a16.45,16.45,0,0,0,2.86-2.53,6.61,6.61,0,0,0,.93-1.13c3.47-4.26,5.4-10.52,5.4-18.3A45.4,45.4,0,0,0,252.83,889.5Zm-2.2,7.53v.26a5.83,5.83,0,0,0-.13,1,5.49,5.49,0,0,0-.13,1,9.17,9.17,0,0,1-.2,1.26,1.08,1.08,0,0,1-.07.47,8.63,8.63,0,0,0-.27,1.2c-.26.66-.4,1.33-.6,1.86s-.26.87-.4,1.27a.57.57,0,0,0-.19.33l-.2.4a10.56,10.56,0,0,1-.54,1.2c-.26.46-.46.86-.73,1.33,0,.07-.06.07-.06.13a16.32,16.32,0,0,0-.94,1.4c-.33.4-.66.73-.93,1.13,0,0,0,.07-.13.07v.06H245c-.46.54-.86.87-1.33,1.34a4.29,4.29,0,0,1-1.13.93c-.2.06-.27.2-.4.26a.07.07,0,0,0-.07.07H242a2.64,2.64,0,0,1-.8.53c-.13.07-.27.2-.33.2s-.07.07-.2.07a4,4,0,0,1-1.07.53,6.71,6.71,0,0,1-1.66.6,17,17,0,0,1-2.2.6,5.71,5.71,0,0,1-1.2.13,14.79,14.79,0,0,1-3.52,0,4.55,4.55,0,0,1-.87-.06,20,20,0,0,1-2.73-.47c-1.26-.33-2.53-.67-3.79-1.13-.27-.13-.6-.27-.93-.4a9.34,9.34,0,0,1-1.87-.87c-.4-.13-.66-.33-1-.46a21.6,21.6,0,0,1-2.06-1.07,14.32,14.32,0,0,0-1.66-1c-.07-.06-.14-.2-.2-.26a28.91,28.91,0,0,1-3.13-2.13,2.24,2.24,0,0,0-.54-.33,22.83,22.83,0,0,0-2-1.67,54.77,54.77,0,0,1-4.13-3.93c-.73-.66-1.4-1.33-2.13-2.13-.2-.2-.46-.53-.66-.73-.87-1.06-1.74-2.06-2.6-3.13a.67.67,0,0,0-.27-.33c-.06-.07-.06-.07-.06-.13a3.64,3.64,0,0,1-.6-.8,6.54,6.54,0,0,1-.67-.87L198,893.1c-.87-1.27-1.8-2.6-2.6-3.93a23.53,23.53,0,0,1-1.39-2.46,33.68,33.68,0,0,1-1.93-3.6,65.68,65.68,0,0,1-3-6.72c-.13-.33-.27-.66-.33-.86-.2-.67-.47-1.27-.67-1.93a13.12,13.12,0,0,1-.73-2.07,2.79,2.79,0,0,0-.27-.8c-.13-.66-.33-1.39-.53-2.13,0-.06-.07-.2-.07-.26-.4-1.53-.6-2.87-.86-4.26-.2-1.07-.4-2.27-.53-3.4s-.27-2.33-.27-3.46v-.53a10.34,10.34,0,0,1-.07-1.47c0-.73.07-1.59.07-2.33,0-.46.13-.93.13-1.39a.87.87,0,0,1,.07-.34,4.49,4.49,0,0,1,.07-.93v-.07c0-.13.06-.33.06-.46a1.12,1.12,0,0,1,.07-.47,16.24,16.24,0,0,1,.33-1.66c0-.07.07-.2.07-.27v-.13c0-.07.07-.13.07-.2a.65.65,0,0,1,.19-.53,3,3,0,0,1,.2-.8v-.07c0-.2,0-.26.07-.33a14.86,14.86,0,0,1,.6-1.6,2.79,2.79,0,0,1,.27-.8.36.36,0,0,1,.2-.33c.13-.4.4-.8.53-1.2s.33-.53.47-.86l.46-.74a6.34,6.34,0,0,1,1-1.46,7.82,7.82,0,0,1,.73-.87c.14-.13.2-.26.4-.46l.47-.47a11.25,11.25,0,0,1,.93-.86l.13-.14a2.18,2.18,0,0,1,.33-.2h.07s.07,0,.07-.13a5,5,0,0,1,.6-.27.55.55,0,0,0,.13-.19,1.25,1.25,0,0,1,.33-.2c.07-.07.14-.2.2-.2a.07.07,0,0,0,.07-.07.07.07,0,0,1,.07-.07c.13,0,.2-.06.26-.06a6.14,6.14,0,0,1,.73-.4,5,5,0,0,0,.27-.14c.07,0,.07,0,.07-.06a.23.23,0,0,1,.2-.07,4.93,4.93,0,0,1,.93-.33c.13-.14.2-.14.4-.2l1.4-.4h.06a1.19,1.19,0,0,1,.47-.13H199l.07-.07h.33a2.32,2.32,0,0,1,.4-.07A6.43,6.43,0,0,1,201,832a4.76,4.76,0,0,1,1-.06,4,4,0,0,1,.94-.07h.33c.53,0,1,.07,1.46.07a5.84,5.84,0,0,1,1.07.2c.26,0,.4.06.66.06a5.1,5.1,0,0,1,.94.14,5.17,5.17,0,0,1,1,.26c.07,0,.14.07.27.07h.07a17.24,17.24,0,0,1,2.46.66c.93.34,2,.8,3.06,1.27a9,9,0,0,0,1.2.53,24.73,24.73,0,0,1,2.33,1.27c.8.46,1.46.86,2.26,1.39a13.89,13.89,0,0,1,2.2,1.53,64.76,64.76,0,0,1,7.26,6.33,54.81,54.81,0,0,1,4.25,4.66c.67.8,1.34,1.66,2,2.53s1.2,1.73,1.8,2.53c.13.06.13.06.13.13.6.87,1.14,1.73,1.73,2.6.34.46.6,1,.94,1.53a9.17,9.17,0,0,0,.86,1.33c.07.06.07.2.07.26.6,1,1.13,2.07,1.73,3.2a1.86,1.86,0,0,1,.26.53c.47.87.94,1.8,1.34,2.66.26.47.4.94.66,1.34a7.18,7.18,0,0,0,.33,1.06l.4,1c.4.86.74,1.66,1.07,2.53s.53,1.53.73,2.33a14.11,14.11,0,0,1,.6,1.6v.2a23.81,23.81,0,0,1,.66,2.39c.07.34.2.6.27.93v.27a1.47,1.47,0,0,1,.13.53,2,2,0,0,1,.14.54v.06c.2.87.4,1.73.53,2.6s.27,1.66.33,2.39v.14a43.39,43.39,0,0,1,.4,5.86A30.5,30.5,0,0,1,250.63,897Z" />
    <path class="cls-72"
        d="M245.06,911.42c-.47.55-.86.86-1.33,1.33a8.11,8.11,0,0,1-1.17.94c-.16.08-.24.15-.39.23a.08.08,0,0,0-.08.08H242a5.9,5.9,0,0,1-.86.55.59.59,0,0,1-.31.15c-.08,0-.08.08-.16.08a4.64,4.64,0,0,1-1.09.55,15.91,15.91,0,0,1-1.65.63,17.1,17.1,0,0,1-2.19.54,5.92,5.92,0,0,1-1.25.16,13,13,0,0,1-3.52,0,3.44,3.44,0,0,1-.86-.08,16.36,16.36,0,0,1-2.74-.47,33.11,33.11,0,0,1-3.75-1.09c-.63-.24-1.25-.55-1.88-.86s-1.33-.55-2-.86-1.33-.71-2-1.1c-.55-.31-1.09-.7-1.64-1l-.24-.23c-1-.63-2.11-1.33-3.13-2.11a2,2,0,0,0-.54-.39c-.63-.55-1.25-1.1-2-1.65a48,48,0,0,1-4.15-3.91c-.7-.7-1.4-1.33-2.11-2.11-.23-.23-.47-.55-.7-.78-.86-1-1.72-2-2.58-3.13-.08-.08-.16-.24-.24-.31s-.08-.08-.08-.16a3.14,3.14,0,0,1-.62-.78,6.46,6.46,0,0,1-.63-.86L198,893.11c-.86-1.25-1.8-2.58-2.58-3.91a27.42,27.42,0,0,1-1.41-2.5c-.71-1.17-1.33-2.35-2-3.6-1.09-2.19-2.11-4.46-3-6.73a5.39,5.39,0,0,1-.31-.86c-.39-1.09-.78-2.19-1.1-3.28a2.74,2.74,0,0,0-.31-.71c-.08-.31-.16-.54-.23-.78-.16-.7-.4-1.41-.55-2.11,0-.08-.08-.24-.08-.31-.39-1.49-.63-2.82-.86-4.23-.23-1.09-.39-2.27-.55-3.44s-.23-2.27-.23-3.44v-.55a8.34,8.34,0,0,1-.08-1.41c0-.78.08-1.64.08-2.34,0-.47.08-.94.08-1.41a.68.68,0,0,1,.07-.32,3.66,3.66,0,0,1,.08-.93v-.08c0-.16.08-.32.08-.47a1,1,0,0,1,.08-.47,13.16,13.16,0,0,1,.31-1.64c0-.08.08-.24.08-.32v-.08c0-.07.08-.15.08-.23a1.12,1.12,0,0,1,.15-.55,2.92,2.92,0,0,1,.24-.78v-.08c0-.15,0-.23.08-.31a9.05,9.05,0,0,1,.54-1.57,2.84,2.84,0,0,1,.32-.86.68.68,0,0,1,.15-.31c.16-.39.39-.78.55-1.17s.31-.55.47-.86.31-.55.47-.79a6.56,6.56,0,0,1,1-1.4,3.16,3.16,0,0,1,.7-.86c.16-.16.24-.32.39-.47l.47-.47a9.07,9.07,0,0,1,.94-.86l.16-.16a.8.8,0,0,1,.31-.23h.08a.08.08,0,0,0,.08-.08,3.21,3.21,0,0,1,.54-.32l.16-.15c.08-.08.23-.16.31-.24s.16-.15.24-.15a.08.08,0,0,0,.08-.08s0-.08.07-.08.16-.08.24-.08a.83.83,0,0,1,.39-.08l.08-.07a6.6,6.6,0,0,1,1.72-.86c.16-.08.23-.08.39-.16a9.27,9.27,0,0,1,1.41-.39h.08l.15.23c-3.44,4-5.4,9.94-5.4,17.6,0,21,14.79,46.39,33,56.95C233.25,911.26,239.74,912.59,245.06,911.42Z" />
    <path class="cls-73"
        d="M248.82,895.77c-2.19-2-3.37-5.39-2.66-7.51.62-1.8,2.34-2.11,4.3-.86-.08-.78-.23-1.56-.39-2.42s-.31-1.72-.47-2.58v-.08a2,2,0,0,0-.16-.55,2.3,2.3,0,0,0-.15-.55V881l-.24-.94c-.23-.78-.39-1.64-.7-2.43v-.15a9.47,9.47,0,0,1-2.19-4A5.49,5.49,0,0,1,246,871c-.47-1.1-.94-2.2-1.41-3.37-.39-.86-.86-1.8-1.33-2.66a2.06,2.06,0,0,0-.31-.55c-.55-1.09-1.1-2.19-1.72-3.2s-1.25-2.12-1.88-3.13a8.08,8.08,0,0,1-.78-.94,8.91,8.91,0,0,1-.94-1.64c0-.08,0-.08-.08-.16-.62-.78-1.17-1.64-1.8-2.5s-1.33-1.72-2-2.51a60.68,60.68,0,0,0-4.23-4.69,3,3,0,0,1-3.2-.16,9.2,9.2,0,0,1-4.07-6.18,24,24,0,0,0-2.19-1.48c-.78-.55-1.49-.94-2.27-1.41a21.85,21.85,0,0,0-2.35-1.25c-.78-.39-1.56-.71-2.27-1a9,9,0,0,1,1.8,2.66c1.41,3,.94,5.71-.93,6.18s-4.39-1.56-5.79-4.46c-1.18-2.5-1-5,.39-5.87-.08,0-.16-.07-.24-.07l-1-.24a3.94,3.94,0,0,0-.94-.16c-.24,0-.39-.07-.63-.07a21,21,0,0,0-3.83-.16,4.06,4.06,0,0,0-1,.08,5,5,0,0,0-1.09.15c-.32.08-.55.08-.79.16H199c-.08.16-.24.24-.32.39-3.44,4-5.4,9.94-5.4,17.6,0,21,14.79,46.39,33,56.95,7,4,13.45,5.32,18.77,4.15h.08v-.08a.08.08,0,0,0,.08-.08c.31-.39.62-.7.94-1.09l.94-1.41c0-.08.07-.08.07-.16.24-.47.47-.86.71-1.33a7.63,7.63,0,0,0,.54-1.17,15.84,15.84,0,0,0,.79-2,5.05,5.05,0,0,0,.31-1.1,14,14,0,0,0,.55-2,.94.94,0,0,0,.08-.46c.15-1.1.31-2.12.47-3.29V897A5.55,5.55,0,0,1,248.82,895.77Zm-45.06-26c-2.19-.47-4.54-3.21-5.24-6.1s.54-4.93,2.73-4.46,4.46,3.13,5.17,6.1S206,870.27,203.76,869.8Zm2.74-19.24c-.63,1.56-2,2-3.6,1.17a7,7,0,0,1-1.65-1.17c-2.19-2-3.44-5.48-2.73-7.59a2.15,2.15,0,0,1,1.87-1.49,4.48,4.48,0,0,1,3.45,1.49C206,845.08,207.2,848.45,206.5,850.56Zm8.44,38.33c-1.33,1.33-3.91.31-5.78-2.35s-2.27-5.79-.94-7.19,4-.32,5.79,2.34S216.27,887.48,214.94,888.89Zm11.35,14a9.24,9.24,0,0,1-4.15-7.2c0-2.26,1.33-3.36,3.13-2.73a3.28,3.28,0,0,1,1,.39,9.4,9.4,0,0,1,3.83,5.08,9.72,9.72,0,0,1,.31,2C230.43,903.13,228.56,904.22,226.29,902.89Zm6.25-12.83a12.78,12.78,0,0,1-8.36-1.95,28.22,28.22,0,0,1-6.73-5.64c-.08-.07-.16-.15-.16-.23a35.4,35.4,0,0,1-6.65-11.5c-.08-.08-.08-.08-.08-.16a25.54,25.54,0,0,1-1.64-8.76,13,13,0,0,1,2.27-7.9c2.66-3.36,7.51-3.91,13-.78,8.44,4.85,15.25,16.58,15.25,26.28C239.43,885.53,236.69,889.28,232.54,890.06Zm10.88,16.35a3.28,3.28,0,0,1-1.25,0c-1.57-.39-3.52-2.19-4.54-4.46a6.62,6.62,0,0,1-.63-4.38,2.36,2.36,0,0,1,1.57-1.72c1.88-.47,4.46,1.49,5.79,4.38S245.3,905.94,243.42,906.41Z" />
    <path class="cls-75"
        d="M224.18,853.14c-5.48-3.13-10.33-2.58-13,.78a13,13,0,0,0-2.27,7.9,25.54,25.54,0,0,0,1.64,8.76c0,.08,0,.08.08.16a35.4,35.4,0,0,0,6.65,11.5c0,.08.08.16.16.23a28.22,28.22,0,0,0,6.73,5.64,12.78,12.78,0,0,0,8.36,1.95c4.15-.78,6.89-4.53,6.89-10.64C239.43,869.72,232.62,858,224.18,853.14Zm6.64,34.11a7.38,7.38,0,0,1-3.12-.24,10.47,10.47,0,0,1-5.64-1.64,23.17,23.17,0,0,1-6.57-6.1c-.08-.16-.23-.24-.23-.39a54.26,54.26,0,0,1-3-5.09,22.63,22.63,0,0,1-2-8.76,10.56,10.56,0,0,1,1.41-5.55,9.44,9.44,0,0,1,1.17-2.74c2.27-3.29,6.49-3.91,11.35-1.1,7.19,4.23,13,14.24,13,22.53C237.16,883.57,234.66,886.86,230.82,887.25Z" />
    <path class="cls-75"
        d="M237.16,878.17c0,5.4-2.5,8.69-6.34,9.08a7.38,7.38,0,0,1-3.12-.24,7.15,7.15,0,0,0,2.58-.7c2.19-1.18,3.6-3.84,3.6-7.67,0-7.43-5.32-16.58-11.82-20.34-3.44-1.95-6.49-2-8.68-.62a5.4,5.4,0,0,0-1.72,1.8,9.44,9.44,0,0,1,1.17-2.74c2.27-3.29,6.49-3.91,11.35-1.1C231.37,859.87,237.16,869.88,237.16,878.17Z" />
    <path class="cls-72"
        d="M237.16,878.17c0,5.4-2.5,8.69-6.34,9.08a7.38,7.38,0,0,1-3.12-.24,7.15,7.15,0,0,0,2.58-.7c2.19-1.18,3.6-3.84,3.6-7.67,0-7.43-5.32-16.58-11.82-20.34-3.44-1.95-6.49-2-8.68-.62a5.4,5.4,0,0,0-1.72,1.8,9.44,9.44,0,0,1,1.17-2.74c2.27-3.29,6.49-3.91,11.35-1.1C231.37,859.87,237.16,869.88,237.16,878.17Z" />
    <path class="cls-74"
        d="M233.88,878.64c0,3.83-1.41,6.49-3.6,7.67a7.15,7.15,0,0,1-2.58.7,10.47,10.47,0,0,1-5.64-1.64,23.17,23.17,0,0,1-6.57-6.1c-.08-.16-.23-.24-.23-.39a54.26,54.26,0,0,1-3-5.09,22.63,22.63,0,0,1-2-8.76,10.56,10.56,0,0,1,1.41-5.55,5.4,5.4,0,0,1,1.72-1.8c2.19-1.41,5.24-1.33,8.68.62C228.56,862.06,233.88,871.21,233.88,878.64Z" />
    <path class="cls-75"
        d="M229.49,845.63a3,3,0,0,1-3.2-.16,9.2,9.2,0,0,1-4.07-6.18A67.59,67.59,0,0,1,229.49,845.63Z" />
    <path class="cls-75"
        d="M239.35,858.07a8.08,8.08,0,0,1-.78-.94,8.91,8.91,0,0,1-.94-1.64C238.25,856.35,238.8,857.21,239.35,858.07Z" />
    <path class="cls-75"
        d="M248.35,877.47a9.47,9.47,0,0,1-2.19-4A5.49,5.49,0,0,1,246,871c.39.86.7,1.72,1,2.58a18.32,18.32,0,0,1,.78,2.27A14.35,14.35,0,0,1,248.35,877.47Z" />
    <path class="cls-75"
        d="M250.85,893.35a28.22,28.22,0,0,1-.23,3.67,5.55,5.55,0,0,1-1.8-1.25c-2.19-2-3.37-5.39-2.66-7.51.62-1.8,2.34-2.11,4.3-.86v.08A51.49,51.49,0,0,1,250.85,893.35Z" />
    <path class="cls-75"
        d="M243.42,906.41a3.28,3.28,0,0,1-1.25,0c-1.57-.39-3.52-2.19-4.54-4.46a6.62,6.62,0,0,1-.63-4.38,2.36,2.36,0,0,1,1.57-1.72c1.88-.47,4.46,1.49,5.79,4.38S245.3,905.94,243.42,906.41Z" />
    <path class="cls-75"
        d="M230.43,900.47c0,2.66-1.87,3.75-4.14,2.42a9.24,9.24,0,0,1-4.15-7.2c0-2.26,1.33-3.36,3.13-2.73a3.28,3.28,0,0,1,1,.39,9.4,9.4,0,0,1,3.83,5.08A9.72,9.72,0,0,1,230.43,900.47Z" />
    <path class="cls-75"
        d="M214.94,888.89c-1.33,1.33-3.91.31-5.78-2.35s-2.27-5.79-.94-7.19,4-.32,5.79,2.34S216.27,887.48,214.94,888.89Z" />
    <path class="cls-75"
        d="M203.76,869.8c-2.19-.47-4.54-3.21-5.24-6.1s.54-4.93,2.73-4.46,4.46,3.13,5.17,6.1S206,870.27,203.76,869.8Z" />
    <path class="cls-75"
        d="M206.5,850.56c-.63,1.56-2,2-3.6,1.17a7,7,0,0,1-1.65-1.17c-2.19-2-3.44-5.48-2.73-7.59a2.15,2.15,0,0,1,1.87-1.49,4.48,4.48,0,0,1,3.45,1.49C206,845.08,207.2,848.45,206.5,850.56Z" />
    <path class="cls-75"
        d="M214,843c-1.8.47-4.39-1.56-5.79-4.46-1.18-2.5-1-5,.39-5.87h.08a18.39,18.39,0,0,1,2.5.71c.62.23,1.25.47,1.95.78a9,9,0,0,1,1.8,2.66C216.35,839.76,215.88,842.5,214,843Z" />
    <path class="cls-76"
        d="M631.56,1070.62c-.08.16-.24.24-.32.39l-.15-.23A1.05,1.05,0,0,1,631.56,1070.62Z" />
    <path class="cls-77" d="M632.42,1070.47c-.32.08-.55.08-.78.15l.07-.07Z" />
    <path class="cls-78"
        d="M638.36,1070.39a21,21,0,0,0-3.83-.16,3.74,3.74,0,0,1,.94-.08h.31c.55,0,1,.08,1.49.08C637.58,1070.31,638,1070.31,638.36,1070.39Z" />
    <path class="cls-79"
        d="M646.58,1081.26c-1.8.47-4.38-1.56-5.79-4.46-1.18-2.5-1-5,.39-5.86h.08a17,17,0,0,1,2.5.7c.63.24,1.25.47,2,.78a9.23,9.23,0,0,1,1.8,2.66C648.92,1078.06,648.45,1080.79,646.58,1081.26Z" />
    <path class="cls-80"
        d="M662.06,1083.92a3,3,0,0,1-3.2-.15,9.25,9.25,0,0,1-4.07-6.18A67.48,67.48,0,0,1,662.06,1083.92Z" />
    <path class="cls-81"
        d="M669.73,1116.46c0,5.4-2.5,8.69-6.34,9.08l-.54-.94c2.19-1.17,3.6-3.83,3.6-7.67,0-7.43-5.32-16.58-11.82-20.33-3.44-2-6.49-2-8.68-.63l-.55-.94c2.27-3.29,6.5-3.91,11.35-1.09C663.94,1098.16,669.73,1108.17,669.73,1116.46Z" />
    <path class="cls-82"
        d="M671.92,1096.36a8.08,8.08,0,0,1-.78-.94,9.17,9.17,0,0,1-.94-1.64C670.83,1094.64,671.37,1095.5,671.92,1096.36Z" />
    <path class="cls-83"
        d="M673.8,1099.49c-.63-1.1-1.25-2.11-1.88-3.13.63.94,1.17,2,1.8,2.89A.29.29,0,0,1,673.8,1099.49Z" />
    <path class="cls-84"
        d="M678.57,1109.27c-.47-1.1-.94-2.19-1.41-3.37.24.47.39.94.63,1.33C678,1107.94,678.34,1108.56,678.57,1109.27Z" />
    <path class="cls-85"
        d="M680.92,1115.76a9.41,9.41,0,0,1-2.19-4,5.63,5.63,0,0,1-.16-2.5c.39.86.7,1.72,1,2.58a18.91,18.91,0,0,1,.78,2.27A15,15,0,0,1,680.92,1115.76Z" />
    <path class="cls-86"
        d="M681.78,1142.36a6.32,6.32,0,0,1-.39,1.25c-.16.23-.24.55-.39.78A16.78,16.78,0,0,0,681.78,1142.36Z" />
    <path class="cls-87"
        d="M682.64,1139.31l-.24,1.17a2.5,2.5,0,0,0-.31.78A13.87,13.87,0,0,0,682.64,1139.31Z" />
    <path class="cls-88"
        d="M683.19,1135.55c-.08.71-.16,1.41-.24,2a7.83,7.83,0,0,1-.23,1.25C682.87,1137.74,683,1136.73,683.19,1135.55Z" />
    <path class="cls-89"
        d="M683.42,1131.64a28.5,28.5,0,0,1-.23,3.68,5.88,5.88,0,0,1-1.8-1.25c-2.19-2-3.37-5.4-2.66-7.51.62-1.8,2.34-2.12,4.3-.86v.07A51.49,51.49,0,0,1,683.42,1131.64Z" />
    <path class="cls-90"
        d="M687.8,1131.79c0,9-2.53,15.71-6.86,20a4.89,4.89,0,0,1-1.26,1.13l-.34-.46a6.66,6.66,0,0,0,.93-1.14c3.47-4.26,5.4-10.51,5.4-18.3a45.11,45.11,0,0,0-.27-5.19c-2.13-21.24-17.11-45.27-35.08-55.72-6.86-4-13.38-5.46-18.84-4.59a11.76,11.76,0,0,0-2.06.47h-.07l-.2-.4c.73-.27,1.53-.6,2.33-.87,5.93-1.53,13.12-.4,21,4.19C672,1082.13,687.8,1109.36,687.8,1131.79Z" />
    <path class="cls-77" d="M632.42,1070.47c-.32.08-.55.08-.78.15l.07-.07Z" />
    <path class="cls-78"
        d="M638.36,1070.39a21,21,0,0,0-3.83-.16,3.74,3.74,0,0,1,.94-.08h.31c.55,0,1,.08,1.49.08C637.58,1070.31,638,1070.31,638.36,1070.39Z" />
    <path class="cls-79"
        d="M646.58,1081.26c-1.8.47-4.38-1.56-5.79-4.46-1.18-2.5-1-5,.39-5.86h.08a17,17,0,0,1,2.5.7c.63.24,1.25.47,2,.78a9.23,9.23,0,0,1,1.8,2.66C648.92,1078.06,648.45,1080.79,646.58,1081.26Z" />
    <path class="cls-80"
        d="M662.06,1083.92a3,3,0,0,1-3.2-.15,9.25,9.25,0,0,1-4.07-6.18A67.48,67.48,0,0,1,662.06,1083.92Z" />
    <path class="cls-82"
        d="M671.92,1096.36a8.08,8.08,0,0,1-.78-.94,9.17,9.17,0,0,1-.94-1.64C670.83,1094.64,671.37,1095.5,671.92,1096.36Z" />
    <path class="cls-83"
        d="M673.8,1099.49c-.63-1.1-1.25-2.11-1.88-3.13.63.94,1.17,2,1.8,2.89A.29.29,0,0,1,673.8,1099.49Z" />
    <path class="cls-91"
        d="M669.73,1116.46c0,5.4-2.5,8.69-6.34,9.08a7.07,7.07,0,0,1-3.12-.24,7,7,0,0,0,2.58-.7c2.19-1.17,3.6-3.83,3.6-7.67,0-7.43-5.32-16.58-11.82-20.33-3.44-2-6.49-2-8.68-.63a5.5,5.5,0,0,0-1.72,1.8,9.44,9.44,0,0,1,1.17-2.74c2.27-3.29,6.5-3.91,11.35-1.09C663.94,1098.16,669.73,1108.17,669.73,1116.46Z" />
    <path class="cls-84"
        d="M678.57,1109.27c-.47-1.1-.94-2.19-1.41-3.37.24.47.39.94.63,1.33C678,1107.94,678.34,1108.56,678.57,1109.27Z" />
    <path class="cls-85"
        d="M680.92,1115.76a9.41,9.41,0,0,1-2.19-4,5.63,5.63,0,0,1-.16-2.5c.39.86.7,1.72,1,2.58a18.91,18.91,0,0,1,.78,2.27A15,15,0,0,1,680.92,1115.76Z" />
    <path class="cls-86"
        d="M681.78,1142.36a6.32,6.32,0,0,1-.39,1.25c-.16.23-.24.55-.39.78A16.78,16.78,0,0,0,681.78,1142.36Z" />
    <path class="cls-87"
        d="M682.64,1139.31l-.24,1.17a2.5,2.5,0,0,0-.31.78A13.87,13.87,0,0,0,682.64,1139.31Z" />
    <path class="cls-88"
        d="M683.19,1135.55c-.08.71-.16,1.41-.24,2a7.83,7.83,0,0,1-.23,1.25C682.87,1137.74,683,1136.73,683.19,1135.55Z" />
    <path class="cls-89"
        d="M683.42,1131.64a28.5,28.5,0,0,1-.23,3.68,5.88,5.88,0,0,1-1.8-1.25c-2.19-2-3.37-5.4-2.66-7.51.62-1.8,2.34-2.12,4.3-.86v.07A51.49,51.49,0,0,1,683.42,1131.64Z" />
    <path class="cls-92"
        d="M687.8,1131.79c0,9-2.53,15.71-6.86,20-.27-.2-.4-.27-.67-.47,3.47-4.26,5.4-10.51,5.4-18.3a45.11,45.11,0,0,0-.27-5.19c-2.13-21.24-17.11-45.27-35.08-55.72-6.86-4-13.38-5.46-18.84-4.59a3.55,3.55,0,0,1,0-.8c5.93-1.53,13.12-.4,21,4.19C672,1082.13,687.8,1109.36,687.8,1131.79Z" />
    <path class="cls-93" d="M632.42,1070.47c-.32.08-.55.08-.78.15l.07-.07Z" />
    <path class="cls-94"
        d="M638.36,1070.39a21,21,0,0,0-3.83-.16,3.74,3.74,0,0,1,.94-.08h.31c.55,0,1,.08,1.49.08C637.58,1070.31,638,1070.31,638.36,1070.39Z" />
    <path class="cls-95"
        d="M636.33,1108.09c-2.19-.47-4.54-3.2-5.24-6.1s.55-4.93,2.73-4.46,4.46,3.13,5.17,6.11S638.52,1108.56,636.33,1108.09Z" />
    <path class="cls-96"
        d="M647.51,1127.18c-1.33,1.33-3.91.31-5.78-2.35s-2.27-5.78-.94-7.19,4-.32,5.79,2.34S648.85,1125.77,647.51,1127.18Z" />
    <path class="cls-97"
        d="M646.58,1081.26c-1.8.47-4.38-1.56-5.79-4.46-1.18-2.5-1-5,.39-5.86h.08a17,17,0,0,1,2.5.7c.63.24,1.25.47,2,.78a9.23,9.23,0,0,1,1.8,2.66C648.92,1078.06,648.45,1080.79,646.58,1081.26Z" />
    <path class="cls-98"
        d="M662.06,1083.92a3,3,0,0,1-3.2-.15,9.25,9.25,0,0,1-4.07-6.18A67.48,67.48,0,0,1,662.06,1083.92Z" />
    <path class="cls-99"
        d="M671.92,1096.36a8.08,8.08,0,0,1-.78-.94,9.17,9.17,0,0,1-.94-1.64C670.83,1094.64,671.37,1095.5,671.92,1096.36Z" />
    <path class="cls-100"
        d="M673.8,1099.49c-.63-1.1-1.25-2.11-1.88-3.13.63.94,1.17,2,1.8,2.89A.29.29,0,0,1,673.8,1099.49Z" />
    <path class="cls-101"
        d="M620.21,1110.52c.32,1.09.71,2.19,1.1,3.28a39.43,39.43,0,0,1-1.41-4A2.54,2.54,0,0,1,620.21,1110.52Z" />
    <path class="cls-102"
        d="M628.11,1071.72a4.61,4.61,0,0,1,1.1-.39,6.92,6.92,0,0,0-1.72.86l-.08.08a.94.94,0,0,0-.39.07c.23-.15.47-.23.7-.39a.29.29,0,0,0,.16-.07.28.28,0,0,0,.16-.08C628.11,1071.8,628.11,1071.8,628.11,1071.72Z" />
    <path class="cls-103" d="M631.09,1070.78a1.05,1.05,0,0,1,.47-.16c-.08.16-.24.24-.32.39Z" />
    <path class="cls-104"
        d="M656.2,1153.31a33.31,33.31,0,0,1-3.84-1.72c.63.31,1.33.62,2,.86S655.57,1153.07,656.2,1153.31Z" />
    <path class="cls-105"
        d="M669.73,1116.46c0,5.4-2.5,8.69-6.34,9.08a7.07,7.07,0,0,1-3.12-.24,7,7,0,0,0,2.58-.7c2.19-1.17,3.6-3.83,3.6-7.67,0-7.43-5.32-16.58-11.82-20.33-3.44-2-6.49-2-8.68-.63a5.5,5.5,0,0,0-1.72,1.8,9.44,9.44,0,0,1,1.17-2.74c2.27-3.29,6.5-3.91,11.35-1.09C663.94,1098.16,669.73,1108.17,669.73,1116.46Z" />
    <path class="cls-106"
        d="M678.57,1109.27c-.47-1.1-.94-2.19-1.41-3.37.24.47.39.94.63,1.33C678,1107.94,678.34,1108.56,678.57,1109.27Z" />
    <path class="cls-107"
        d="M680.92,1115.76a9.41,9.41,0,0,1-2.19-4,5.63,5.63,0,0,1-.16-2.5c.39.86.7,1.72,1,2.58a18.91,18.91,0,0,1,.78,2.27A15,15,0,0,1,680.92,1115.76Z" />
    <path class="cls-108"
        d="M681.78,1142.36a6.32,6.32,0,0,1-.39,1.25c-.16.23-.24.55-.39.78A16.78,16.78,0,0,0,681.78,1142.36Z" />
    <path class="cls-109"
        d="M682.64,1139.31l-.24,1.17a2.5,2.5,0,0,0-.31.78A13.87,13.87,0,0,0,682.64,1139.31Z" />
    <path class="cls-110"
        d="M683.19,1135.55c-.08.71-.16,1.41-.24,2a7.83,7.83,0,0,1-.23,1.25C682.87,1137.74,683,1136.73,683.19,1135.55Z" />
    <path class="cls-111"
        d="M683.42,1131.64a28.5,28.5,0,0,1-.23,3.68,5.88,5.88,0,0,1-1.8-1.25c-2.19-2-3.37-5.4-2.66-7.51.62-1.8,2.34-2.12,4.3-.86v.07A51.49,51.49,0,0,1,683.42,1131.64Z" />
    <path class="cls-112"
        d="M687.8,1131.79c0,9-2.53,15.71-6.86,20a4.89,4.89,0,0,1-1.26,1.13l-.07.13a21,21,0,0,1-3.13,1.94,17.32,17.32,0,0,0,2.86-2.53,6.66,6.66,0,0,0,.93-1.14c3.47-4.26,5.4-10.51,5.4-18.3a45.11,45.11,0,0,0-.27-5.19c-2.13-21.24-17.11-45.27-35.08-55.72-6.86-4-13.38-5.46-18.84-4.59a11.76,11.76,0,0,0-2.06.47h-.07a15.15,15.15,0,0,0-2.93,1.13,9.07,9.07,0,0,1,2.73-1.53c.73-.27,1.53-.6,2.33-.87,5.93-1.53,13.12-.4,21,4.19C672,1082.13,687.8,1109.36,687.8,1131.79Z" />
    <path class="cls-51"
        d="M730.08,1141.75l-4.94-32.59L719.31,1094a54.69,54.69,0,0,0-23.73-27.76L641.47,1035,618,1048.58a24.56,24.56,0,0,0-8.19,8.13c-3.79,6-6,14.17-6,24.09,0,32.22,22.77,71.49,50.86,87.67,14.18,8.25,29.36,5.69,39.13,1.24C694,1169.62,730.08,1141.75,730.08,1141.75Zm-49.14,10a4.89,4.89,0,0,1-1.26,1.13l-.07.13a21,21,0,0,1-3.13,1.94c-6.46,4.39-15.78,4.12-26.16-1.8-19.44-11.32-35.28-38.54-35.28-61,0-11.71,4.4-19.77,11.38-23.09a9.07,9.07,0,0,1,2.73-1.53c.73-.27,1.53-.6,2.33-.87,5.93-1.53,13.12-.4,21,4.19,19.5,11.25,35.28,38.48,35.28,60.91C687.8,1140.78,685.27,1147.5,680.94,1151.76Z" />
    <path class="cls-113" d="M632.42,1070.47c-.32.08-.55.08-.78.15l.07-.07Z" />
    <path class="cls-114"
        d="M638.36,1070.39a21,21,0,0,0-3.83-.16,3.74,3.74,0,0,1,.94-.08h.31c.55,0,1,.08,1.49.08C637.58,1070.31,638,1070.31,638.36,1070.39Z" />
    <path class="cls-115"
        d="M636.33,1108.09c-2.19-.47-4.54-3.2-5.24-6.1s.55-4.93,2.73-4.46,4.46,3.13,5.17,6.11S638.52,1108.56,636.33,1108.09Z" />
    <path class="cls-116"
        d="M647.51,1127.18c-1.33,1.33-3.91.31-5.78-2.35s-2.27-5.78-.94-7.19,4-.32,5.79,2.34S648.85,1125.77,647.51,1127.18Z" />
    <path class="cls-117"
        d="M646.58,1081.26c-1.8.47-4.38-1.56-5.79-4.46-1.18-2.5-1-5,.39-5.86h.08a17,17,0,0,1,2.5.7c.63.24,1.25.47,2,.78a9.23,9.23,0,0,1,1.8,2.66C648.92,1078.06,648.45,1080.79,646.58,1081.26Z" />
    <path class="cls-118"
        d="M662.06,1083.92a3,3,0,0,1-3.2-.15,9.25,9.25,0,0,1-4.07-6.18A67.48,67.48,0,0,1,662.06,1083.92Z" />
    <path class="cls-119"
        d="M671.92,1096.36a8.08,8.08,0,0,1-.78-.94,9.17,9.17,0,0,1-.94-1.64C670.83,1094.64,671.37,1095.5,671.92,1096.36Z" />
    <path class="cls-120"
        d="M673.8,1099.49c-.63-1.1-1.25-2.11-1.88-3.13.63.94,1.17,2,1.8,2.89A.29.29,0,0,1,673.8,1099.49Z" />
    <path class="cls-121"
        d="M620.21,1110.52c.32,1.09.71,2.19,1.1,3.28a39.43,39.43,0,0,1-1.41-4A2.54,2.54,0,0,1,620.21,1110.52Z" />
    <path class="cls-122"
        d="M628.11,1071.72a4.61,4.61,0,0,1,1.1-.39,6.92,6.92,0,0,0-1.72.86l-.08.08a.94.94,0,0,0-.39.07c.23-.15.47-.23.7-.39a.29.29,0,0,0,.16-.07.28.28,0,0,0,.16-.08C628.11,1071.8,628.11,1071.8,628.11,1071.72Z" />
    <path class="cls-123" d="M631.09,1070.78a1.05,1.05,0,0,1,.47-.16c-.08.16-.24.24-.32.39Z" />
    <path class="cls-124"
        d="M656.2,1153.31a33.31,33.31,0,0,1-3.84-1.72c.63.31,1.33.62,2,.86S655.57,1153.07,656.2,1153.31Z" />
    <path class="cls-125"
        d="M669.73,1116.46c0,5.4-2.5,8.69-6.34,9.08a7.07,7.07,0,0,1-3.12-.24,7,7,0,0,0,2.58-.7c2.19-1.17,3.6-3.83,3.6-7.67,0-7.43-5.32-16.58-11.82-20.33-3.44-2-6.49-2-8.68-.63a5.5,5.5,0,0,0-1.72,1.8,9.44,9.44,0,0,1,1.17-2.74c2.27-3.29,6.5-3.91,11.35-1.09C663.94,1098.16,669.73,1108.17,669.73,1116.46Z" />
    <path class="cls-126"
        d="M678.57,1109.27c-.47-1.1-.94-2.19-1.41-3.37.24.47.39.94.63,1.33C678,1107.94,678.34,1108.56,678.57,1109.27Z" />
    <path class="cls-127"
        d="M680.92,1115.76a9.41,9.41,0,0,1-2.19-4,5.63,5.63,0,0,1-.16-2.5c.39.86.7,1.72,1,2.58a18.91,18.91,0,0,1,.78,2.27A15,15,0,0,1,680.92,1115.76Z" />
    <path class="cls-128"
        d="M681.78,1142.36a6.32,6.32,0,0,1-.39,1.25c-.16.23-.24.55-.39.78A16.78,16.78,0,0,0,681.78,1142.36Z" />
    <path class="cls-129"
        d="M682.64,1139.31l-.24,1.17a2.5,2.5,0,0,0-.31.78A13.87,13.87,0,0,0,682.64,1139.31Z" />
    <path class="cls-130"
        d="M683.19,1135.55c-.08.71-.16,1.41-.24,2a7.83,7.83,0,0,1-.23,1.25C682.87,1137.74,683,1136.73,683.19,1135.55Z" />
    <path class="cls-131"
        d="M683.42,1131.64a28.5,28.5,0,0,1-.23,3.68,5.88,5.88,0,0,1-1.8-1.25c-2.19-2-3.37-5.4-2.66-7.51.62-1.8,2.34-2.12,4.3-.86v.07A51.49,51.49,0,0,1,683.42,1131.64Z" />
    <path class="cls-132"
        d="M687.8,1131.79c0,9-2.53,15.71-6.86,20a4.89,4.89,0,0,1-1.26,1.13l-.07.13a21,21,0,0,1-3.13,1.94,17.32,17.32,0,0,0,2.86-2.53,6.66,6.66,0,0,0,.93-1.14c3.47-4.26,5.4-10.51,5.4-18.3a45.11,45.11,0,0,0-.27-5.19c-2.13-21.24-17.11-45.27-35.08-55.72-6.86-4-13.38-5.46-18.84-4.59a11.76,11.76,0,0,0-2.06.47h-.07a15.15,15.15,0,0,0-2.93,1.13,9.07,9.07,0,0,1,2.73-1.53c.73-.27,1.53-.6,2.33-.87,5.93-1.53,13.12-.4,21,4.19C672,1082.13,687.8,1109.36,687.8,1131.79Z" />
    <path class="cls-72"
        d="M636.33,1108.09c-2.19-.47-4.54-3.2-5.24-6.1s.55-4.93,2.73-4.46,4.46,3.13,5.17,6.11S638.52,1108.56,636.33,1108.09Z" />
    <path class="cls-72"
        d="M647.51,1127.18c-1.33,1.33-3.91.31-5.78-2.35s-2.27-5.78-.94-7.19,4-.32,5.79,2.34S648.85,1125.77,647.51,1127.18Z" />
    <path class="cls-72"
        d="M646.58,1081.26c-1.8.47-4.38-1.56-5.79-4.46-1.18-2.5-1-5,.39-5.86h.08a17,17,0,0,1,2.5.7c.63.24,1.25.47,2,.78a9.23,9.23,0,0,1,1.8,2.66C648.92,1078.06,648.45,1080.79,646.58,1081.26Z" />
    <path class="cls-72"
        d="M662.06,1083.92a3,3,0,0,1-3.2-.15,9.25,9.25,0,0,1-4.07-6.18A67.48,67.48,0,0,1,662.06,1083.92Z" />
    <path class="cls-72"
        d="M671.92,1096.36a8.08,8.08,0,0,1-.78-.94,9.17,9.17,0,0,1-.94-1.64C670.83,1094.64,671.37,1095.5,671.92,1096.36Z" />
    <path class="cls-72"
        d="M620.21,1110.52c.32,1.09.71,2.19,1.1,3.28a39.43,39.43,0,0,1-1.41-4A2.54,2.54,0,0,1,620.21,1110.52Z" />
    <path class="cls-72" d="M631.09,1070.78a1.05,1.05,0,0,1,.47-.16c-.08.16-.24.24-.32.39Z" />
    <path class="cls-72"
        d="M656.2,1153.31a33.31,33.31,0,0,1-3.84-1.72c.63.31,1.33.62,2,.86S655.57,1153.07,656.2,1153.31Z" />
    <path class="cls-72"
        d="M669.73,1116.46c0,5.4-2.5,8.69-6.34,9.08a7.07,7.07,0,0,1-3.12-.24,7,7,0,0,0,2.58-.7c2.19-1.17,3.6-3.83,3.6-7.67,0-7.43-5.32-16.58-11.82-20.33-3.44-2-6.49-2-8.68-.63a5.5,5.5,0,0,0-1.72,1.8,9.44,9.44,0,0,1,1.17-2.74c2.27-3.29,6.5-3.91,11.35-1.09C663.94,1098.16,669.73,1108.17,669.73,1116.46Z" />
    <path class="cls-72"
        d="M680.92,1115.76a9.41,9.41,0,0,1-2.19-4,5.63,5.63,0,0,1-.16-2.5c.39.86.7,1.72,1,2.58a18.91,18.91,0,0,1,.78,2.27A15,15,0,0,1,680.92,1115.76Z" />
    <path class="cls-72"
        d="M683.42,1131.64a28.5,28.5,0,0,1-.23,3.68,5.88,5.88,0,0,1-1.8-1.25c-2.19-2-3.37-5.4-2.66-7.51.62-1.8,2.34-2.12,4.3-.86v.07A51.49,51.49,0,0,1,683.42,1131.64Z" />
    <path class="cls-72"
        d="M654.32,1152.45c-.63-.24-1.33-.55-2-.86a33.31,33.31,0,0,0,3.84,1.72C655.57,1153.07,655,1152.76,654.32,1152.45Zm-26.91-80.18.08-.08.23-.24c-.23.16-.47.24-.7.39A.94.94,0,0,1,627.41,1072.27Zm25.11-1.39c-7.92-4.59-15.11-5.72-21-4.19-.8.27-1.6.6-2.33.87a9.07,9.07,0,0,0-2.73,1.53,15.15,15.15,0,0,1,2.93-1.13h.07a11.76,11.76,0,0,1,2.06-.47c5.46-.87,12,.6,18.84,4.59,18,10.45,32.95,34.48,35.08,55.72a45.11,45.11,0,0,1,.27,5.19c0,7.79-1.93,14-5.4,18.3a6.66,6.66,0,0,1-.93,1.14,17.32,17.32,0,0,1-2.86,2.53,21,21,0,0,0,3.13-1.94l.07-.13a4.89,4.89,0,0,0,1.26-1.13c4.33-4.26,6.86-11,6.86-20C687.8,1109.36,672,1082.13,652.52,1070.88Z" />
    <path class="cls-73"
        d="M636.33,1108.09c-2.19-.47-4.54-3.2-5.24-6.1s.55-4.93,2.73-4.46,4.46,3.13,5.17,6.11S638.52,1108.56,636.33,1108.09Z" />
    <path class="cls-73"
        d="M647.51,1127.18c-1.33,1.33-3.91.31-5.78-2.35s-2.27-5.78-.94-7.19,4-.32,5.79,2.34S648.85,1125.77,647.51,1127.18Z" />
    <path class="cls-73"
        d="M646.58,1081.26c-1.8.47-4.38-1.56-5.79-4.46-1.18-2.5-1-5,.39-5.86h.08a17,17,0,0,1,2.5.7c.63.24,1.25.47,2,.78a9.23,9.23,0,0,1,1.8,2.66C648.92,1078.06,648.45,1080.79,646.58,1081.26Z" />
    <path class="cls-73"
        d="M662.06,1083.92a3,3,0,0,1-3.2-.15,9.25,9.25,0,0,1-4.07-6.18A67.48,67.48,0,0,1,662.06,1083.92Z" />
    <path class="cls-73"
        d="M671.92,1096.36a8.08,8.08,0,0,1-.78-.94,9.17,9.17,0,0,1-.94-1.64C670.83,1094.64,671.37,1095.5,671.92,1096.36Z" />
    <path class="cls-73"
        d="M669.73,1116.46c0,5.4-2.5,8.69-6.34,9.08a7.07,7.07,0,0,1-3.12-.24,7,7,0,0,0,2.58-.7c2.19-1.17,3.6-3.83,3.6-7.67,0-7.43-5.32-16.58-11.82-20.33-3.44-2-6.49-2-8.68-.63a5.5,5.5,0,0,0-1.72,1.8,9.44,9.44,0,0,1,1.17-2.74c2.27-3.29,6.5-3.91,11.35-1.09C663.94,1098.16,669.73,1108.17,669.73,1116.46Z" />
    <path class="cls-73"
        d="M680.92,1115.76a9.41,9.41,0,0,1-2.19-4,5.63,5.63,0,0,1-.16-2.5c.39.86.7,1.72,1,2.58a18.91,18.91,0,0,1,.78,2.27A15,15,0,0,1,680.92,1115.76Z" />
    <path class="cls-73"
        d="M683.42,1131.64a28.5,28.5,0,0,1-.23,3.68,5.88,5.88,0,0,1-1.8-1.25c-2.19-2-3.37-5.4-2.66-7.51.62-1.8,2.34-2.12,4.3-.86v.07A51.49,51.49,0,0,1,683.42,1131.64Z" />
    <path class="cls-74"
        d="M620.21,1110.52a2.54,2.54,0,0,0-.31-.7,39.43,39.43,0,0,0,1.41,4C620.92,1112.71,620.53,1111.61,620.21,1110.52Zm34.11,41.93c-.63-.24-1.33-.55-2-.86a33.31,33.31,0,0,0,3.84,1.72C655.57,1153.07,655,1152.76,654.32,1152.45Z" />
    <path class="cls-74"
        d="M685.4,1127.8c-2.13-21.24-17.11-45.27-35.08-55.72-6.86-4-13.38-5.46-18.84-4.59a11.76,11.76,0,0,0-2.06.47h-.07a15.15,15.15,0,0,0-2.93,1.13c-7,3.32-11.38,11.38-11.38,23.09,0,22.44,15.84,49.66,35.28,61,10.38,5.92,19.7,6.19,26.16,1.8a17.32,17.32,0,0,0,2.86-2.53,6.66,6.66,0,0,0,.93-1.14c3.47-4.26,5.4-10.51,5.4-18.3A45.11,45.11,0,0,0,685.4,1127.8Zm-2.2,7.52v.26a5.83,5.83,0,0,0-.13,1,5.72,5.72,0,0,0-.13,1,9.31,9.31,0,0,1-.2,1.27,1.06,1.06,0,0,1-.07.46,7.36,7.36,0,0,0-.26,1.2c-.27.67-.4,1.33-.6,1.86s-.27.87-.4,1.27c-.07.07-.2.2-.2.33l-.2.4a10.56,10.56,0,0,1-.54,1.2c-.26.47-.46.86-.73,1.33,0,.07-.06.07-.06.13-.34.47-.67.94-.94,1.4s-.66.73-.93,1.13c0,0,0,.07-.13.07v.07h-.07c-.46.53-.86.86-1.33,1.33a4,4,0,0,1-1.13.93c-.2.07-.27.2-.4.27a.06.06,0,0,0-.07.06h-.13a2.89,2.89,0,0,1-.8.54c-.13.06-.27.19-.33.19s-.07.07-.2.07a4,4,0,0,1-1.07.53,6.71,6.71,0,0,1-1.66.6,17,17,0,0,1-2.2.6,5.65,5.65,0,0,1-1.2.14,15.92,15.92,0,0,1-3.52,0,4,4,0,0,1-.87-.07,20,20,0,0,1-2.73-.47,38.88,38.88,0,0,1-3.79-1.13c-.27-.13-.6-.27-.93-.4a9.26,9.26,0,0,1-1.87-.86c-.4-.14-.66-.34-1-.47-.66-.27-1.33-.67-2.06-1.06a12,12,0,0,0-1.66-1c-.07-.07-.14-.2-.2-.27a28.91,28.91,0,0,1-3.13-2.13,2.4,2.4,0,0,0-.53-.33c-.67-.6-1.27-1.13-2-1.67a56.72,56.72,0,0,1-4.13-3.92c-.73-.67-1.4-1.34-2.13-2.13-.2-.2-.46-.54-.66-.74-.87-1.06-1.73-2.06-2.6-3.12a.66.66,0,0,0-.27-.34c-.06-.06-.06-.06-.06-.13a3.64,3.64,0,0,1-.6-.8,7.18,7.18,0,0,1-.67-.86l-1.13-1.67c-.87-1.26-1.8-2.6-2.59-3.93a21.11,21.11,0,0,1-1.4-2.46,38.78,38.78,0,0,1-1.93-3.59,65.83,65.83,0,0,1-3-6.73c-.13-.33-.27-.66-.33-.86-.2-.67-.47-1.27-.67-1.93a13.12,13.12,0,0,1-.73-2.07,2.93,2.93,0,0,0-.26-.79c-.14-.67-.34-1.4-.54-2.13,0-.07-.06-.2-.06-.27-.4-1.53-.6-2.86-.87-4.26-.2-1.07-.4-2.26-.53-3.4s-.27-2.33-.27-3.46V1095a10.27,10.27,0,0,1-.07-1.46c0-.74.07-1.6.07-2.33,0-.47.13-.94.13-1.4a.83.83,0,0,1,.07-.33,4.58,4.58,0,0,1,.07-.94v-.06c0-.14.06-.34.06-.47a1.06,1.06,0,0,1,.07-.46,15.9,15.9,0,0,1,.33-1.67c0-.07.07-.2.07-.27v-.13c0-.06.07-.13.07-.2a.63.63,0,0,1,.2-.53,2.68,2.68,0,0,1,.2-.8v-.07c0-.2,0-.26.06-.33.2-.53.34-1.06.6-1.6a3.14,3.14,0,0,1,.27-.8.38.38,0,0,1,.2-.33c.13-.4.4-.8.53-1.2s.33-.53.47-.86l.46-.73a6.2,6.2,0,0,1,1-1.47,7.83,7.83,0,0,1,.73-.86c.14-.14.2-.27.4-.47l.47-.47c.26-.26.6-.59.93-.86l.13-.13a1.17,1.17,0,0,1,.34-.2h.06s.07,0,.07-.14a5.1,5.1,0,0,1,.6-.26.46.46,0,0,0,.13-.2,1.25,1.25,0,0,1,.33-.2c.07-.07.14-.2.2-.2a.07.07,0,0,0,.07-.07.07.07,0,0,1,.07-.07c.13,0,.2-.06.26-.06a7.07,7.07,0,0,1,.74-.4.24.24,0,0,0,.13-.07.21.21,0,0,0,.13-.06c.07,0,.07,0,.07-.07a.23.23,0,0,1,.2-.07,5.75,5.75,0,0,1,.93-.33.8.8,0,0,1,.4-.2l1.4-.4h.06a1.23,1.23,0,0,1,.47-.13h.07l.06-.07H632a2.15,2.15,0,0,1,.39-.07,6.43,6.43,0,0,1,1.14-.2,4.81,4.81,0,0,1,1-.06,4,4,0,0,1,.94-.07h.33c.53,0,1,.07,1.46.07a5.84,5.84,0,0,1,1.07.2c.27,0,.4.06.66.06a5.1,5.1,0,0,1,.94.14,5.47,5.47,0,0,1,1,.26c.06,0,.13.07.26.07h.07a16.06,16.06,0,0,1,2.46.67c.93.33,2,.79,3.06,1.26a9,9,0,0,0,1.2.53,24.73,24.73,0,0,1,2.33,1.27c.8.46,1.46.86,2.26,1.4a12.32,12.32,0,0,1,2.2,1.53,63.65,63.65,0,0,1,7.26,6.32,58.33,58.33,0,0,1,4.26,4.66c.66.8,1.33,1.66,2,2.53s1.2,1.73,1.8,2.53c.13.07.13.07.13.13.6.87,1.14,1.73,1.73,2.6.34.46.6,1,.94,1.53a8.66,8.66,0,0,0,.86,1.33.39.39,0,0,1,.07.27c.6,1,1.13,2.06,1.73,3.19a2.41,2.41,0,0,1,.27.53c.46.87.93,1.8,1.33,2.67.26.46.4.93.66,1.33a7.18,7.18,0,0,0,.33,1.06l.4,1c.4.87.74,1.67,1.07,2.53s.53,1.53.73,2.33a14.86,14.86,0,0,1,.6,1.6v.2a24.58,24.58,0,0,1,.67,2.39c.06.34.2.6.26.94v.26a1.54,1.54,0,0,1,.14.54,2.13,2.13,0,0,1,.13.53v.06c.2.87.4,1.74.53,2.6s.27,1.66.33,2.4v.13a43.39,43.39,0,0,1,.4,5.86A30.5,30.5,0,0,1,683.2,1135.32Z" />
    <path class="cls-72"
        d="M677.63,1149.71c-.47.55-.86.86-1.33,1.33a7.48,7.48,0,0,1-1.17.94c-.16.08-.24.16-.39.23a.08.08,0,0,0-.08.08h-.08a5.16,5.16,0,0,1-.86.55.58.58,0,0,1-.31.16c-.08,0-.08.07-.16.07a4.29,4.29,0,0,1-1.09.55,13.92,13.92,0,0,1-1.65.63,18.93,18.93,0,0,1-2.19.55,6.69,6.69,0,0,1-1.25.15,13,13,0,0,1-3.52,0,3.44,3.44,0,0,1-.86-.08,15.41,15.41,0,0,1-2.74-.47,33.11,33.11,0,0,1-3.75-1.09c-.63-.24-1.25-.55-1.88-.86s-1.33-.55-2-.86-1.32-.71-2-1.1c-.55-.31-1.09-.7-1.64-1l-.24-.24a35.69,35.69,0,0,1-3.12-2.11,2.55,2.55,0,0,0-.55-.39c-.63-.55-1.25-1.1-2-1.64a49.53,49.53,0,0,1-4.14-3.92c-.71-.7-1.41-1.33-2.12-2.11-.23-.23-.47-.55-.7-.78-.86-1-1.72-2-2.58-3.13-.08-.08-.16-.23-.24-.31s-.08-.08-.08-.16a3,3,0,0,1-.62-.78,5.88,5.88,0,0,1-.63-.86l-1.17-1.64c-.86-1.26-1.8-2.59-2.58-3.92a27.42,27.42,0,0,1-1.41-2.5c-.71-1.17-1.33-2.35-2-3.6-1.09-2.19-2.11-4.46-3-6.72a7.23,7.23,0,0,1-.31-.87c-.39-1.09-.78-2.19-1.1-3.28a2.54,2.54,0,0,0-.31-.7c-.08-.32-.16-.55-.23-.79-.16-.7-.39-1.41-.55-2.11,0-.08-.08-.23-.08-.31-.39-1.49-.63-2.82-.86-4.23-.23-1.09-.39-2.27-.55-3.44s-.23-2.27-.23-3.44V1095a8.34,8.34,0,0,1-.08-1.41c0-.78.08-1.64.08-2.34,0-.47.08-.94.08-1.41a.62.62,0,0,1,.07-.31,3.7,3.7,0,0,1,.08-.94v-.08c0-.16.08-.31.08-.47a1,1,0,0,1,.08-.47,13.51,13.51,0,0,1,.31-1.64c0-.08.08-.24.08-.32v-.07c0-.08.08-.16.08-.24a1.27,1.27,0,0,1,.15-.55,3,3,0,0,1,.24-.78v-.08c0-.15,0-.23.08-.31a8.2,8.2,0,0,1,.55-1.56,2.44,2.44,0,0,1,.31-.86.67.67,0,0,1,.15-.32c.16-.39.39-.78.55-1.17s.31-.55.47-.86.31-.55.47-.78a6.39,6.39,0,0,1,1-1.41,3.31,3.31,0,0,1,.7-.86c.16-.16.24-.31.39-.47l.47-.47a10.35,10.35,0,0,1,.94-.86l.16-.16a1,1,0,0,1,.31-.23h.08a.08.08,0,0,0,.08-.08,3,3,0,0,1,.55-.31l.15-.16c.08-.08.23-.16.31-.23s.16-.16.24-.16a.08.08,0,0,0,.08-.08s0-.08.07-.08.16-.08.24-.08a.94.94,0,0,1,.39-.07l.08-.08a6.92,6.92,0,0,1,1.72-.86c.16-.08.23-.08.39-.16a9.27,9.27,0,0,1,1.41-.39h.08l.15.23c-3.44,4-5.4,9.94-5.4,17.61,0,21,14.79,46.38,33,57C665.82,1149.55,672.31,1150.88,677.63,1149.71Z" />
    <path class="cls-73"
        d="M681.39,1134.07c-2.19-2-3.37-5.4-2.66-7.51.62-1.8,2.34-2.12,4.3-.86-.08-.79-.23-1.57-.39-2.43s-.31-1.72-.47-2.58v-.08a2,2,0,0,0-.16-.55,2.25,2.25,0,0,0-.15-.54v-.24l-.24-.94c-.23-.78-.39-1.64-.7-2.42v-.16a9.41,9.41,0,0,1-2.19-4,5.63,5.63,0,0,1-.16-2.5c-.47-1.1-.94-2.19-1.41-3.37-.39-.86-.86-1.8-1.33-2.66a1.87,1.87,0,0,0-.31-.54c-.55-1.1-1.09-2.19-1.72-3.21s-1.25-2.11-1.88-3.13a8.08,8.08,0,0,1-.78-.94,9.17,9.17,0,0,1-.94-1.64c0-.08,0-.08-.08-.16-.62-.78-1.17-1.64-1.8-2.5s-1.33-1.72-2-2.5a59,59,0,0,0-4.23-4.7,3,3,0,0,1-3.2-.15,9.25,9.25,0,0,1-4.07-6.18,21.06,21.06,0,0,0-2.19-1.49c-.78-.55-1.49-.94-2.27-1.41a20.94,20.94,0,0,0-2.35-1.25c-.78-.39-1.56-.7-2.27-1a9.23,9.23,0,0,1,1.8,2.66c1.41,3,.94,5.71-.93,6.18s-4.38-1.56-5.79-4.46c-1.18-2.5-1-5,.39-5.86-.08,0-.16-.08-.24-.08l-1-.24a4.48,4.48,0,0,0-.94-.15c-.24,0-.39-.08-.63-.08a21,21,0,0,0-3.83-.16,4.06,4.06,0,0,0-1,.08,4.46,4.46,0,0,0-1.09.16c-.32.08-.55.08-.78.15h-.08c-.08.16-.24.24-.32.39-3.44,4-5.4,9.94-5.4,17.61,0,21,14.79,46.38,33,57,7,4,13.45,5.31,18.77,4.14h.08v-.08a.08.08,0,0,0,.08-.08c.31-.39.63-.7.94-1.09l.94-1.41c0-.08.07-.08.07-.16.24-.46.47-.86.71-1.32a9.55,9.55,0,0,0,.55-1.18,16.78,16.78,0,0,0,.78-2,5.05,5.05,0,0,0,.31-1.1,13.87,13.87,0,0,0,.55-2,1,1,0,0,0,.08-.47c.15-1.1.31-2.11.47-3.29v-.23A5.88,5.88,0,0,1,681.39,1134.07Zm-45.06-26c-2.19-.47-4.54-3.2-5.24-6.1s.55-4.93,2.73-4.46,4.46,3.13,5.17,6.11S638.52,1108.56,636.33,1108.09Zm2.74-19.24c-.63,1.56-2,2-3.6,1.17a7,7,0,0,1-1.65-1.17c-2.18-2-3.44-5.48-2.73-7.59a2.12,2.12,0,0,1,1.87-1.48,4.47,4.47,0,0,1,3.45,1.48C638.52,1083.37,639.77,1086.74,639.07,1088.85Zm8.44,38.33c-1.33,1.33-3.91.31-5.78-2.35s-2.27-5.78-.94-7.19,4-.32,5.79,2.34S648.85,1125.77,647.51,1127.18Zm11.35,14a9.23,9.23,0,0,1-4.15-7.19c0-2.27,1.33-3.37,3.13-2.74a3.56,3.56,0,0,1,1,.39,9.39,9.39,0,0,1,3.83,5.09,9.54,9.54,0,0,1,.31,2C663,1141.42,661.13,1142.51,658.86,1141.18Zm6.25-12.82a12.8,12.8,0,0,1-8.36-2,28.17,28.17,0,0,1-6.73-5.63c-.08-.08-.16-.16-.16-.24a35.4,35.4,0,0,1-6.65-11.5c-.08-.08-.08-.08-.08-.15a25.64,25.64,0,0,1-1.64-8.77,13,13,0,0,1,2.27-7.9c2.66-3.36,7.51-3.91,13-.78,8.45,4.85,15.25,16.59,15.25,26.29C672,1123.82,669.26,1127.57,665.11,1128.36ZM676,1144.7a3.28,3.28,0,0,1-1.25,0c-1.57-.39-3.52-2.19-4.54-4.45a6.65,6.65,0,0,1-.63-4.39,2.36,2.36,0,0,1,1.57-1.72c1.88-.47,4.46,1.49,5.79,4.38S677.87,1144.23,676,1144.7Z" />
    <path class="cls-75"
        d="M656.75,1091.43c-5.48-3.13-10.33-2.58-13,.78a13,13,0,0,0-2.27,7.9,25.64,25.64,0,0,0,1.64,8.77c0,.07,0,.07.08.15a35.4,35.4,0,0,0,6.65,11.5c0,.08.08.16.16.24a28.17,28.17,0,0,0,6.73,5.63,12.8,12.8,0,0,0,8.36,2c4.15-.79,6.89-4.54,6.89-10.64C672,1108,665.2,1096.28,656.75,1091.43Zm6.64,34.11a7.07,7.07,0,0,1-3.12-.24,10.49,10.49,0,0,1-5.64-1.64,23.17,23.17,0,0,1-6.57-6.1c-.08-.16-.23-.24-.23-.39a50.93,50.93,0,0,1-3-5.09,22.47,22.47,0,0,1-2-8.76,10.59,10.59,0,0,1,1.41-5.55,9.44,9.44,0,0,1,1.17-2.74c2.27-3.29,6.5-3.91,11.35-1.09,7.19,4.22,13,14.23,13,22.52C669.73,1121.86,667.23,1125.15,663.39,1125.54Z" />
    <path class="cls-75"
        d="M669.73,1116.46c0,5.4-2.5,8.69-6.34,9.08a7.07,7.07,0,0,1-3.12-.24,7,7,0,0,0,2.58-.7c2.19-1.17,3.6-3.83,3.6-7.67,0-7.43-5.32-16.58-11.82-20.33-3.44-2-6.49-2-8.68-.63a5.5,5.5,0,0,0-1.72,1.8,9.44,9.44,0,0,1,1.17-2.74c2.27-3.29,6.5-3.91,11.35-1.09C663.94,1098.16,669.73,1108.17,669.73,1116.46Z" />
    <path class="cls-72"
        d="M669.73,1116.46c0,5.4-2.5,8.69-6.34,9.08a7.07,7.07,0,0,1-3.12-.24,7,7,0,0,0,2.58-.7c2.19-1.17,3.6-3.83,3.6-7.67,0-7.43-5.32-16.58-11.82-20.33-3.44-2-6.49-2-8.68-.63a5.5,5.5,0,0,0-1.72,1.8,9.44,9.44,0,0,1,1.17-2.74c2.27-3.29,6.5-3.91,11.35-1.09C663.94,1098.16,669.73,1108.17,669.73,1116.46Z" />
    <path class="cls-74"
        d="M666.45,1116.93c0,3.84-1.41,6.5-3.6,7.67a7,7,0,0,1-2.58.7,10.49,10.49,0,0,1-5.64-1.64,23.17,23.17,0,0,1-6.57-6.1c-.08-.16-.23-.24-.23-.39a50.93,50.93,0,0,1-3-5.09,22.47,22.47,0,0,1-2-8.76,10.59,10.59,0,0,1,1.41-5.55A5.5,5.5,0,0,1,646,1096c2.19-1.41,5.24-1.33,8.68.63C661.13,1100.35,666.45,1109.5,666.45,1116.93Z" />
    <path class="cls-75"
        d="M662.06,1083.92a3,3,0,0,1-3.2-.15,9.25,9.25,0,0,1-4.07-6.18A67.48,67.48,0,0,1,662.06,1083.92Z" />
    <path class="cls-75"
        d="M671.92,1096.36a8.08,8.08,0,0,1-.78-.94,9.17,9.17,0,0,1-.94-1.64C670.83,1094.64,671.37,1095.5,671.92,1096.36Z" />
    <path class="cls-75"
        d="M680.92,1115.76a9.41,9.41,0,0,1-2.19-4,5.63,5.63,0,0,1-.16-2.5c.39.86.7,1.72,1,2.58a18.91,18.91,0,0,1,.78,2.27A15,15,0,0,1,680.92,1115.76Z" />
    <path class="cls-75"
        d="M683.42,1131.64a28.5,28.5,0,0,1-.23,3.68,5.88,5.88,0,0,1-1.8-1.25c-2.19-2-3.37-5.4-2.66-7.51.62-1.8,2.34-2.12,4.3-.86v.07A51.49,51.49,0,0,1,683.42,1131.64Z" />
    <path class="cls-75"
        d="M676,1144.7a3.28,3.28,0,0,1-1.25,0c-1.57-.39-3.52-2.19-4.54-4.45a6.65,6.65,0,0,1-.63-4.39,2.36,2.36,0,0,1,1.57-1.72c1.88-.47,4.46,1.49,5.79,4.38S677.87,1144.23,676,1144.7Z" />
    <path class="cls-75"
        d="M663,1138.76c0,2.66-1.87,3.75-4.14,2.42a9.23,9.23,0,0,1-4.15-7.19c0-2.27,1.33-3.37,3.13-2.74a3.56,3.56,0,0,1,1,.39,9.39,9.39,0,0,1,3.83,5.09A9.54,9.54,0,0,1,663,1138.76Z" />
    <path class="cls-75"
        d="M647.51,1127.18c-1.33,1.33-3.91.31-5.78-2.35s-2.27-5.78-.94-7.19,4-.32,5.79,2.34S648.85,1125.77,647.51,1127.18Z" />
    <path class="cls-75"
        d="M636.33,1108.09c-2.19-.47-4.54-3.2-5.24-6.1s.55-4.93,2.73-4.46,4.46,3.13,5.17,6.11S638.52,1108.56,636.33,1108.09Z" />
    <path class="cls-75"
        d="M639.07,1088.85c-.63,1.56-2,2-3.6,1.17a7,7,0,0,1-1.65-1.17c-2.18-2-3.44-5.48-2.73-7.59a2.12,2.12,0,0,1,1.87-1.48,4.47,4.47,0,0,1,3.45,1.48C638.52,1083.37,639.77,1086.74,639.07,1088.85Z" />
    <path class="cls-75"
        d="M646.58,1081.26c-1.8.47-4.38-1.56-5.79-4.46-1.18-2.5-1-5,.39-5.86h.08a17,17,0,0,1,2.5.7c.63.24,1.25.47,2,.78a9.23,9.23,0,0,1,1.8,2.66C648.92,1078.06,648.45,1080.79,646.58,1081.26Z" />
    <path class="cls-133"
        d="M1037.07,864.87a22.74,22.74,0,0,1-1,2.52,4.19,4.19,0,0,1-.3.77l-.07.22a14.61,14.61,0,0,1-1.53,2.78,18.92,18.92,0,0,1-1.74,2.28c-3.52,3.69-9.32,7.23-14.81,9.33l-6.18-21.48-2.07-7.19a19.7,19.7,0,0,1,2.57-1c10.87-3.32,17.17-4.87,20.94-4.2a5.45,5.45,0,0,1,3.94,2.5,11.27,11.27,0,0,1,1.36,6.53c0,.06,0,.13,0,.19a14.6,14.6,0,0,1-.43,3.78,3,3,0,0,1-.2,1A19.13,19.13,0,0,1,1037.07,864.87Z" />
    <path class="cls-134"
        d="M1037.07,864.87a22.74,22.74,0,0,1-1,2.52,4.19,4.19,0,0,1-.3.77l-.07.22a14.61,14.61,0,0,1-1.53,2.78,18.92,18.92,0,0,1-1.74,2.28,35.41,35.41,0,0,1-14.73,9.66l-.08-.33-6.18-21.48c3.15-2.28,6.84-3.53,9.88-4.86a29.59,29.59,0,0,1,13.7-2.15,5.25,5.25,0,0,1,1.81.49c.8.37,1.25,1.49,1.35,3.17,0,.06,0,.13,0,.19a14.6,14.6,0,0,1-.43,3.78,3,3,0,0,1-.2,1A19.13,19.13,0,0,1,1037.07,864.87Z" />
    <path class="cls-135"
        d="M674.7,957.62c-2.39-.54-26.89-14-28.35-17.44-1.2-2.8-.2-7.79,2.06-11.25a.48.48,0,0,0,.13-.27l.4-.6s28.36,19,29.29,21.24v.06C678.63,951.36,677.17,958.08,674.7,957.62Z" />
    <path class="cls-136"
        d="M678.23,949.3v.06c-.07,1.73-1.2,2.73-3,1.67l-23-13.25a8.84,8.84,0,0,1-3.92-6.79v-.86a7,7,0,0,1,.13-1.2.48.48,0,0,0,.13-.27l.4-.6c.73-.86,1.93-1,3.26-.2L669,937.51a24.37,24.37,0,0,1,8.45,9.06A6,6,0,0,1,678.23,949.3Z" />
    <path class="cls-137"
        d="M655,934.41c0,1.34-1,1.88-2.12,1.21a4.67,4.67,0,0,1-2.11-3.65c0-1.33,1-1.87,2.11-1.2A4.66,4.66,0,0,1,655,934.41Z" />
    <polygon class="cls-51"
        points="1025.88 951.03 1002.96 970.11 853.29 1058.29 853.29 1058.29 816.43 1073.47 807.97 1073.43 800.59 1072.27 800.45 1105.74 807.82 1107.78 818.18 1107.48 853.6 1093.34 853.44 1075.82 853.6 1093.34 877.83 1081.83 981.31 1021.64 1008.78 1000.24 1008.78 1000.24 1025.73 984.64 1025.88 951.03" />
    <polygon class="cls-138"
        points="816.93 1075.2 807.97 1075.16 802.05 1074.13 801.91 1103.84 807.85 1105.23 818.53 1104.73 816.93 1075.2" />
    <path class="cls-139"
        d="M1022.3,956.45,999.36,975a5.48,5.48,0,0,0-1.61,3.78l0,6.93c0,1.38.71,1.92,1.59,1.21l22.94-18.55a5.47,5.47,0,0,0,1.6-3.78l0-6.93C1023.89,956.28,1023.18,955.74,1022.3,956.45Z" />
    <path class="cls-139"
        d="M1022.23,971.59l-22.94,18.54a5.47,5.47,0,0,0-1.6,3.79l0,6.93c0,1.38.7,1.92,1.58,1.21l22.94-18.55a5.43,5.43,0,0,0,1.6-3.78l0-6.94C1023.82,971.42,1023.11,970.88,1022.23,971.59Z" />
    <path class="cls-139"
        d="M853.52,1061.88l-29.35,12.91a4,4,0,0,0-2,3.39l0,6.93c0,1.38.9,2.1,2,1.6l29.35-12.9a4,4,0,0,0,2-3.39l0-6.94C855.55,1062.1,854.65,1061.39,853.52,1061.88Z" />
    <path class="cls-139"
        d="M853.45,1077l-29.34,12.91a4,4,0,0,0-2.06,3.39l0,6.93c0,1.38.91,2.1,2,1.6L853.4,1089a4,4,0,0,0,2.05-3.39l0-6.94C855.49,1077.24,854.58,1076.53,853.45,1077Z" />
    <path class="cls-51"
        d="M660.1,810.3l85.43,49.32a13.91,13.91,0,0,1,6.66,9.27c2.71,13.34,9.4,46,15.4,72.68,7.6,33.77,9.2,48.83,9.2,48.83v25.12c0,2.43-1.72,3.43-3.83,2.21l-20.14-11.63c-3.83-2.21-60.63-71.87-68.29-76.3l-31.07-17.93a8.45,8.45,0,0,1-3.83-6.61l6.64-92.77C656.27,810.06,658,809.08,660.1,810.3Z" />
    <path class="cls-51"
        d="M1013.35,883.72l-4.08-15.52,0,0-13.13-49.78L968.36,746.2l-3.17-.49L948,761.9l-29.33,21.27L896,796.31l-64.06,36.92L794,850.7l-21.28,7.46-5.63,7.51,18,72.78.34,1.23,2.31,9.3,11.09,40.17,5.59,15.37h0l2.19,7.58,2.84,5.86,7.6,3.91,45.45-15.23,102.65-59.06,24-18.52,19-16.07,6.57-9.5.94-5.85Z" />
    <path class="cls-140"
        d="M771.54,998.64a3.85,3.85,0,0,1-1.27.4,7.44,7.44,0,0,1-1.33.47c-1,.33-2.06.66-3.19,1s-2,.6-3.07.86h-.06c-2,.47-3.93.94-5.73,1.27a48.92,48.92,0,0,1-4.92.73c-1.33.13-2.73.27-4.2.33-1,.07-1.93.07-2.79.07h-.54a24.88,24.88,0,0,1-9.31-1.53,12.54,12.54,0,0,1-3.6-2.2c-3.13-2.79-3.66-6.65-3.73-9.65,0-.8.07-.73.07-1.46.47-7.79,3.26-10.06,8.45-11.59.14-.06.27-.06.4-.13l5.66,3.46,21.17,13.05,2.2,1.33,5.72,3.53Z" />
    <path class="cls-141"
        d="M789.18,992.92a1.76,1.76,0,0,1-.4.27c-2.13,1.39-6.33,2-6.33,2h-3.86l-12.84-.13h-1.6l-.6-1.33L761,988.26s.93-.4,2.33-.93c.47-.2,1-.4,1.6-.6l1.66-.6c2.4-.8,4.73-1.4,5.46-1.07s2.33-.19,4.46-.79c.46-.14.86-.27,1.33-.4.27-.07.47-.14.73-.2a5.48,5.48,0,0,1,.67-.2,21.72,21.72,0,0,1,3.53-.6.23.23,0,0,1,.2-.07,4.81,4.81,0,0,1,3.32.47C789.64,985.4,791.11,991.26,789.18,992.92Z" />
    <path class="cls-142"
        d="M782.72,987.53c-.07.6-.2,1.13-.27,1.66s-.2.8-.33,1.13a2.26,2.26,0,0,1-.4,1c-.13.33-.27.6-.4.87l-.4.6c-.2.33-.46.6-.66.93-.4.4-.8.8-1.27,1.2a.47.47,0,0,1-.26.26h-.14a24.24,24.24,0,0,1-3.13,1.67c-.8.4-2.13,1-4,1.73a8.43,8.43,0,0,0-1.2.46,7.44,7.44,0,0,1-1.33.47c-1,.33-2.06.66-3.19,1s-2,.6-3.07.86h-.06c-2,.47-3.93.94-5.73,1.27a48.92,48.92,0,0,1-4.92.73c-1.33.13-2.73.27-4.2.33-1,.07-1.93.07-2.79.07h-.54a24.88,24.88,0,0,1-9.31-1.53,12.54,12.54,0,0,1-3.6-2.2c-3.13-2.79-3.66-6.65-3.73-9.65,0-.8.07-.73.07-1.46.47-7.79,3.26-10.06,8.45-11.59.14-.06.27-.06.4-.13l6.26-1.73c.6-.13,1.2-.33,1.86-.47a17,17,0,0,1,1.8-.46c8.79-2.27,17-4,17-4a3,3,0,0,1,.73-.13,18.46,18.46,0,0,1,8.32-.13,6.62,6.62,0,0,1,1.59.4,13.62,13.62,0,0,1,1.6.53v.07a11.21,11.21,0,0,1,6.19,7.18v.07a3.85,3.85,0,0,1,.4,1.27c.07.46.14.93.2,1.39a14.64,14.64,0,0,1,.14,1.67A21.43,21.43,0,0,1,782.72,987.53Z" />
    <path class="cls-134"
        d="M782.79,987.59a9.13,9.13,0,0,1-.34,1.6c-.13.4-.2.8-.33,1.13a2.26,2.26,0,0,1-.4,1,.39.39,0,0,1-.07.27,3,3,0,0,0-.33.6l-.4.6c-.2.33-.46.6-.66.93-.4.4-.8.8-1.27,1.2a.47.47,0,0,1-.26.26h-.14a22.14,22.14,0,0,1-7,3.46h-.06a3.85,3.85,0,0,1-1.27.4,7.44,7.44,0,0,1-1.33.47c-1,.33-2.06.66-3.19,1s-2,.6-3.07.86h-.06c-2,.47-3.93.94-5.73,1.27a48.92,48.92,0,0,1-4.92.73c-1.33.13-2.73.27-4.2.33-1,.07-1.93.07-2.79.07h-.54c-1.26-.13-2.32-.2-3.26-.33-4.32-.6-7.59-3.07-6.72-13.05.47-6,3.39-8.32,7.92-9.72a69.57,69.57,0,0,1,6.86-1.6,9.72,9.72,0,0,0,1.86-.4,19.84,19.84,0,0,0,2-.33.23.23,0,0,1,.2-.07,143.74,143.74,0,0,1,16.31-2.92,43.57,43.57,0,0,1,4.85-.34,9.86,9.86,0,0,1,1.47.07,5.11,5.11,0,0,1,1.4.13,5.78,5.78,0,0,1,1.86.34,4.81,4.81,0,0,1,2.86,2.92v.07a3.85,3.85,0,0,1,.4,1.27,10.71,10.71,0,0,1,.54,3A22.68,22.68,0,0,1,782.79,987.59Z" />
</svg>