<svg xmlns="http://www.w3.org/2000/svg" version="1.0" width="402.000000pt" height="452.000000pt" viewBox="0 0 402.000000 452.000000" preserveAspectRatio="xMidYMid meet">
<metadata fill="#ffffff">
Created by potrace 1.16, written by Peter Selinger 2001-2019
</metadata>
<g transform="translate(0.000000,452.000000) scale(0.100000,-0.100000)" fill="#ffffff" stroke="none">
<path d="M1705 4341 c-16 -5 -59 -14 -95 -20 -534 -102 -1004 -572 -1115 -1116 -43 -208 -32 -478 29 -713 103 -395 425 -985 845 -1545 55 -73 125 -158 156 -188 109 -108 225 -159 372 -167 80 -4 103 -1 174 22 96 31 201 97 259 163 121 138 426 576 567 813 254 430 385 748 454 1100 17 84 17 366 0 450 -41 215 -126 415 -254 604 -75 112 -245 283 -350 353 -65 44 -216 123 -292 154 -63 25 -183 58 -305 83 -80 17 -388 21 -445 7z m365 -776 c94 -23 118 -32 201 -77 131 -69 247 -194 309 -332 47 -103 63 -180 63 -301 -1 -135 -18 -207 -80 -335 -39 -78 -62 -109 -132 -180 -96 -96 -176 -146 -298 -186 -67 -22 -96 -26 -203 -26 -168 -1 -288 33 -411 115 -221 147 -341 383 -326 645 6 116 25 191 74 289 67 136 186 256 323 326 61 31 92 43 180 66 54 14 238 12 300 -4z" fill="#ffffff"/>
<path d="M3010 1104 c-124 -24 -232 -88 -303 -180 -19 -24 -37 -41 -41 -37 -3 3 -6 30 -6 59 0 46 -4 56 -24 70 -37 23 -68 14 -89 -26 -15 -29 -17 -56 -15 -161 4 -175 -2 -169 188 -169 130 0 149 2 163 18 18 19 22 59 9 78 -12 19 -49 34 -82 34 -25 0 -31 3 -26 16 21 53 111 127 193 156 47 16 74 19 141 15 100 -6 168 -35 233 -102 44 -44 98 -136 99 -166 0 -23 36 -52 65 -51 34 0 65 29 65 60 0 14 -18 62 -39 106 -59 120 -132 191 -258 248 -55 25 -82 30 -157 33 -50 2 -102 1 -116 -1z" fill="#ffffff"/>
<path d="M2624 545 c-15 -22 -15 -32 -5 -68 38 -128 135 -246 252 -305 203 -103 461 -51 601 122 50 61 58 58 58 -18 0 -49 22 -76 62 -76 51 0 58 22 58 187 0 194 11 183 -182 183 -128 0 -147 -2 -161 -18 -42 -46 -3 -112 65 -112 43 0 45 -5 21 -40 -30 -44 -86 -90 -143 -118 -48 -23 -67 -26 -155 -27 -90 0 -106 3 -159 29 -75 37 -135 98 -170 172 -51 112 -49 109 -88 112 -30 3 -40 -1 -54 -23z" fill="#ffffff"/>
</g>
</svg>