<?xml version="1.0" encoding="UTF-8"?>
<!DOCTYPE svg PUBLIC "-//W3C//DTD SVG 1.1//EN" "http://www.w3.org/Graphics/SVG/1.1/DTD/svg11.dtd">
<!-- Creator: CorelDRAW X7 -->
<svg xmlns="http://www.w3.org/2000/svg" xml:space="preserve" width="11.5637mm" height="11.9087mm" version="1.1" style="shape-rendering:geometricPrecision; text-rendering:geometricPrecision; image-rendering:optimizeQuality; fill-rule:evenodd; clip-rule:evenodd"
viewBox="0 0 21 21"
 xmlns:xlink="http://www.w3.org/1999/xlink">
 <defs>
  <style type="text/css">
   <![CDATA[
    .fil0 {fill:#7E2726}
   ]]>
  </style>
 </defs>
 <g id="Capa_x0020_1">
  <metadata id="CorelCorpID_0Corel-Layer"/>
  <path class="fil0" d="M10 0c3,0 6,1 8,3 2,2 3,5 3,7 0,3 -1,6 -3,8 -2,2 -5,3 -8,3 -2,0 -5,-1 -7,-3 -2,-2 -3,-5 -3,-8 0,-2 1,-5 3,-7 2,-2 5,-3 7,-3zm-4 10l2 0 -4 -5c-1,2 -2,3 -2,5 0,3 1,5 2,6 2,2 4,3 6,3 2,0 4,-1 6,-2l-1 -1c0,0 0,0 0,0l-3 0c-1,0 -1,0 -1,0l0 -3 -1 -2c0,2 -1,3 -2,3l0 2c1,0 1,0 1,0 0,0 -1,0 -1,0 -1,0 -1,0 -2,0 1,0 1,0 1,0l0 -2c-1,0 -2,-3 -1,-4zm9 4l0 -4c0,0 0,0 0,-1 -1,0 -1,0 -1,-1 0,0 0,-1 0,-1l0 -2 -2 0 0 2c0,0 0,1 0,1 0,1 0,1 -1,1 0,0 0,1 0,1l-6 -6c2,-1 3,-2 5,-2 3,0 5,1 6,2 2,2 3,4 3,6 0,2 -1,4 -2,6l-2 -2z"/>
 </g>
</svg>
