<!-- <svg version="1.1" xmlns="http://www.w3.org/2000/svg" xmlns:xlink="http://www.w3.org/1999/xlink" x="0px" y="0px"
	 viewBox="0 0 576 455" xml:space="preserve" fill="#fff">
<g>
	<path d="M290.94,389.42c-18.07-0.19-41.2-2.65-63.99-8c-1.09-0.26-2.68,0.15-3.12-1.1c-0.54-1.53,1.11-2.24,1.98-3.12
		c15.26-15.36,30.58-30.67,45.81-46.05c1.68-1.7,3.28-2.27,5.72-1.99c64.7,7.32,120.59-48.2,113.36-112.64
		c-0.35-3.15,0.4-5.24,2.62-7.45c27.83-27.75,55.59-55.56,83.27-83.46c2.31-2.33,3.8-2.62,6.62-0.68
		c28.37,19.5,54.37,41.81,78.08,66.7c18.53,19.44,19.36,49.95,0.62,69.46c-36.21,37.69-76.52,70.15-123.45,93.8
		C393.75,377.41,346.47,389.51,290.94,389.42z"/>
	<path d="M286.12,63.99c26.17-0.44,45.7,1.44,65.09,4.84c1.28,0.22,3.08-0.02,3.57,1.26c0.66,1.71-1.27,2.51-2.26,3.49
		c-15.96,16.05-32,32.03-47.91,48.13c-1.97,2-3.84,2.54-6.6,2.29c-52.01-4.73-98.05,28.03-110.6,78.75
		c-2.73,11.05-3.87,22.32-2.17,33.69c0.46,3.09-0.25,5.27-2.51,7.52c-26.76,26.7-53.44,53.48-80.08,80.29
		c-2.06,2.08-3.44,3.18-6.58,1.16c-28.35-18.24-54.9-38.76-79.61-61.67c-20.87-19.35-21.67-53.82-0.82-73.21
		c52.86-49.16,112.12-88.07,181.3-110.51C228,69.95,259.9,64.51,286.12,63.99z"/>
	<path d="M60.22,423.73c0-9.18,3.71-16.65,10.14-23.08c40.49-40.51,80.92-81.08,121.37-121.64
		c89.14-89.38,178.3-178.75,267.4-268.18c9.74-9.77,20.98-13.36,34.13-8.84c21.5,7.4,27.84,34.48,11.71,50.98
		c-23.75,24.3-47.9,48.21-71.89,72.27C327.34,231.26,221.58,337.26,115.9,443.33c-7.02,7.05-14.88,11.66-25.06,11.51
		C73.81,454.59,60.23,440.79,60.22,423.73z"/>
</g>
</svg>
 -->
 <svg xmlns="http://www.w3.org/2000/svg" version="1.0" width="437.000000pt" height="462.000000pt" viewBox="0 0 437.000000 462.000000" preserveAspectRatio="xMidYMid meet">
<metadata fill="#ffffff">
Created by potrace 1.16, written by Peter Selinger 2001-2019
</metadata>
<g transform="translate(0.000000,462.000000) scale(0.100000,-0.100000)" fill="#ffffff" stroke="none">
<path d="M1975 4390 c-18 -20 -15 -70 5 -70 6 0 10 -4 10 -8 0 -5 -39 -15 -87 -22 -288 -42 -551 -135 -789 -280 -37 -22 -69 -38 -72 -35 -3 2 -10 15 -16 27 -20 40 -60 35 -119 -13 -200 -165 -248 -211 -245 -238 2 -15 12 -30 26 -36 28 -12 28 -16 -5 -51 -247 -261 -435 -610 -514 -949 -68 -296 -71 -653 -8 -925 110 -476 366 -887 735 -1180 174 -138 364 -245 576 -324 257 -95 404 -120 718 -120 240 0 299 5 465 43 176 40 422 137 580 229 467 271 824 740 963 1267 27 102 32 127 47 230 23 148 23 451 0 598 -49 323 -171 632 -353 890 -34 49 -133 170 -200 247 l-31 35 29 3 c33 4 54 32 45 61 -9 28 -293 261 -319 261 -32 0 -50 -16 -52 -47 -1 -15 -3 -29 -3 -30 -1 -1 -36 20 -79 46 -243 151 -512 248 -804 291 -49 7 -88 17 -88 22 0 4 4 8 10 8 20 0 23 50 5 70 -17 19 -32 20 -215 20 -183 0 -198 -1 -215 -20z m440 -245 c66 -8 129 -17 140 -19 11 -3 51 -12 88 -21 447 -106 857 -386 1123 -768 67 -95 179 -300 215 -392 105 -267 153 -579 130 -844 -33 -382 -150 -702 -366 -1002 -201 -279 -514 -524 -830 -649 -140 -56 -264 -90 -435 -121 -101 -19 -479 -19 -580 0 -476 86 -815 270 -1135 612 -345 370 -539 928 -496 1428 18 214 60 398 130 576 36 92 148 297 215 392 404 580 1103 893 1801 808z" fill="#ffffff"/>
<path d="M1422 3343 c-12 -24 -7 -36 48 -118 26 -38 84 -125 129 -192 l81 -122 -70 -35 c-180 -90 -354 -244 -468 -415 -132 -197 -140 -239 -73 -367 143 -275 418 -506 721 -607 70 -23 105 -31 238 -57 68 -13 266 -13 334 0 138 27 166 33 211 47 26 9 49 14 51 12 2 -2 43 -64 91 -137 49 -73 96 -137 106 -143 24 -13 62 22 52 48 -4 10 -42 69 -85 132 -43 63 -78 120 -78 127 0 6 21 22 48 34 93 43 238 148 319 229 135 134 283 366 283 442 0 19 -18 67 -46 118 -115 214 -294 398 -501 513 -68 38 -214 97 -288 116 -22 6 -62 17 -90 24 -33 8 -113 13 -235 13 -185 -1 -252 -9 -384 -49 -27 -8 -53 -13 -57 -10 -4 2 -69 96 -144 209 -114 170 -141 205 -161 205 -13 0 -27 -8 -32 -17z m869 -423 c170 -17 286 -49 432 -121 151 -75 293 -191 407 -334 56 -71 140 -219 140 -247 0 -29 -73 -158 -141 -247 -107 -143 -274 -281 -423 -350 -58 -27 -47 -36 -150 118 l-76 114 45 46 c93 94 139 249 116 390 -34 203 -179 353 -378 390 -71 13 -167 1 -241 -30 -24 -11 -47 -19 -52 -19 -8 0 -150 216 -150 229 0 16 143 48 265 60 50 4 93 9 96 10 4 0 53 -4 110 -9z m-486 -197 c41 -60 78 -118 81 -131 5 -17 -3 -33 -36 -68 -66 -72 -119 -209 -119 -309 0 -240 224 -464 464 -464 45 0 141 21 173 38 11 6 27 11 35 11 18 0 161 -215 153 -229 -18 -28 -212 -61 -361 -61 -141 0 -245 17 -373 59 -216 72 -395 194 -541 367 -76 91 -171 245 -171 278 0 26 46 112 114 211 68 100 172 209 259 274 57 41 218 131 237 131 5 0 43 -48 85 -107z m463 -133 c243 -56 363 -330 247 -561 -21 -41 -64 -89 -81 -89 -12 0 -74 89 -74 106 0 5 11 31 25 58 33 65 34 156 4 221 -23 49 -82 105 -111 105 -9 0 -20 5 -23 10 -8 14 -101 13 -128 -1 -18 -10 -24 -8 -46 19 -15 17 -34 44 -44 61 -17 30 -17 30 5 42 30 16 114 37 153 38 17 0 49 -4 73 -9z m-280 -145 c18 -25 32 -50 32 -56 0 -6 -10 -25 -23 -42 -53 -73 -58 -147 -15 -234 43 -85 121 -126 235 -121 43 1 77 -2 81 -8 65 -97 64 -109 -8 -130 -124 -37 -274 8 -368 110 -95 103 -125 237 -81 368 22 67 81 158 102 158 7 0 28 -20 45 -45z" fill="#ffffff"/>
</g>
</svg>