<svg xmlns="http://www.w3.org/2000/svg" version="1.0" width="390.000000pt" height="340.000000pt" viewBox="0 0 390.000000 340.000000" preserveAspectRatio="xMidYMid meet">
<metadata fill="#ffffff">
Created by potrace 1.16, written by Peter Selinger 2001-2019
</metadata>
<g transform="translate(0.000000,340.000000) scale(0.100000,-0.100000)" fill="#ffffff" stroke="none">
<path d="M1484 3161 c-128 -39 -168 -73 -222 -188 -37 -80 -43 -203 -13 -283 26 -71 103 -166 162 -203 47 -29 146 -60 161 -51 10 7 -24 74 -50 97 -10 10 -27 37 -37 60 -11 23 -36 80 -58 127 -65 143 -76 174 -66 193 6 9 14 17 19 17 6 0 44 16 86 35 41 19 81 35 88 35 7 0 32 -42 55 -92 56 -126 51 -119 110 -138 66 -22 102 -57 135 -131 15 -32 31 -61 36 -64 13 -8 47 41 70 103 31 81 25 204 -12 284 -61 131 -179 209 -323 215 -57 2 -98 -3 -141 -16z" fill="#ffffff"/>
<path d="M1617 2721 c-70 -46 -78 -113 -27 -226 18 -38 41 -90 52 -115 11 -25 33 -73 49 -108 40 -87 39 -92 -13 -80 -219 49 -268 57 -300 46 -97 -32 -123 -145 -52 -219 27 -28 39 -32 297 -88 57 -13 119 -27 200 -46 151 -36 208 -30 246 24 44 61 37 101 -45 277 -25 55 -51 113 -59 129 -7 17 -26 57 -41 90 -130 286 -135 295 -174 319 -37 21 -98 20 -133 -3z" fill="#ffffff"/>
<path d="M815 2588 c-31 -18 -44 -40 -44 -73 0 -33 12 -52 48 -78 34 -23 19 -26 -134 -29 l-130 -3 -3 -565 c-3 -606 2 -707 43 -817 70 -185 229 -329 440 -401 143 -48 133 -47 680 -47 l520 0 3 126 3 126 -77 7 c-42 3 -271 6 -508 6 -335 0 -441 3 -476 14 -151 46 -243 130 -307 281 -4 11 -10 302 -13 647 l-5 627 21 -14 c12 -8 59 -37 104 -66 l81 -52 55 54 c30 29 54 59 54 65 0 7 -15 21 -32 32 -18 10 -86 54 -152 96 -65 42 -126 76 -135 76 -9 0 -25 -6 -36 -12z" fill="#ffffff"/>
<path d="M3054 2488 c-25 -46 -54 -96 -64 -113 -26 -44 -89 -153 -118 -204 -14 -25 -38 -68 -55 -95 -16 -28 -39 -67 -50 -86 -10 -19 -62 -108 -114 -198 -51 -89 -96 -169 -99 -176 -5 -13 83 -70 188 -125 31 -16 55 -10 66 17 16 40 247 432 255 432 4 0 48 -27 97 -60 l90 -61 0 -699 c0 -513 3 -706 12 -725 15 -33 53 -43 78 -20 20 18 20 36 20 756 l0 738 -42 34 c-24 19 -76 55 -115 81 -40 26 -75 52 -79 57 -3 5 44 95 105 201 61 105 111 194 111 198 0 11 -206 130 -224 130 -8 0 -36 -37 -62 -82z" fill="#ffffff"/>
<path d="M1325 2401 c-65 -17 -127 -52 -173 -98 -98 -98 -124 -203 -126 -503 -1 -136 4 -229 13 -275 16 -85 47 -212 65 -269 8 -22 20 -63 27 -89 8 -27 19 -53 25 -58 8 -6 51 46 140 172 71 100 177 250 236 333 104 145 108 153 108 203 0 65 -7 83 -32 83 -12 0 -37 4 -57 10 -20 5 -74 18 -121 30 -97 24 -126 41 -157 96 -42 72 -23 150 50 208 34 27 45 30 99 29 56 -1 84 -6 191 -34 20 -5 42 -7 47 -4 17 11 -30 83 -64 99 -116 53 -150 66 -193 70 -26 3 -61 1 -78 -3z" fill="#ffffff"/>
<path d="M1510 1294 c-80 -114 -167 -236 -193 -273 l-49 -66 26 -19 c58 -44 80 -46 528 -46 234 0 433 -3 442 -6 14 -6 54 -56 345 -446 73 -98 147 -189 164 -202 130 -99 326 -1 327 162 0 80 -29 131 -119 205 -178 149 -280 284 -376 500 -21 48 -54 105 -73 127 -64 75 -55 74 -447 75 -192 0 -355 4 -362 8 -13 8 -25 45 -43 130 -6 31 -14 57 -18 57 -4 0 -72 -93 -152 -206z" fill="#ffffff"/>
</g>
</svg>