<?xml version="1.0" encoding="UTF-8"?>
<!DOCTYPE svg PUBLIC "-//W3C//DTD SVG 1.1//EN" "http://www.w3.org/Graphics/SVG/1.1/DTD/svg11.dtd">
<!-- Creator: CorelDRAW X7 -->
<svg xmlns="http://www.w3.org/2000/svg" xml:space="preserve" width="5.0987mm" height="3.8917mm" version="1.1" style="shape-rendering:geometricPrecision; text-rendering:geometricPrecision; image-rendering:optimizeQuality; fill-rule:evenodd; clip-rule:evenodd"
viewBox="0 0 34 26"
 xmlns:xlink="http://www.w3.org/1999/xlink">
 <defs>
  <style type="text/css">
   <![CDATA[
    .fil0 {fill:#F58634;fill-rule:nonzero}
   ]]>
  </style>
 </defs>
 <g id="Capa_x0020_1">
  <metadata id="CorelCorpID_0Corel-Layer"/>
  <g id="_1951725562480">
   <polygon class="fil0" points="0,13 14,13 14,17 21,11 14,4 14,9 0,9 "/>
   <path class="fil0" d="M20 0l-4 0c-1,0 -1,0 -2,0l0 0c0,0 -1,1 -2,1l0 0 0 0c0,0 -1,1 -1,1 0,1 -1,1 -1,2l-1 3 2 0 1 -4 0 0c0,0 1,-1 1,-1 0,0 0,0 1,-1l0 0c0,0 0,0 0,0l0 0c0,0 0,0 0,0l0 0 0 0 1 0 0 0 0 0c0,0 0,0 0,0l0 0c0,0 0,0 1,0l4 0 0 0 5 0 0 0c0,0 1,0 1,0l0 0c0,0 1,0 1,0 0,1 1,1 1,1 0,0 0,1 0,1l0 0 1 6 2 7 0 0c0,1 0,2 0,2 -1,1 -1,1 -1,1l0 0c0,1 -1,1 -1,2 -1,0 -1,0 -2,0l-7 0 -6 0 0 0 0 0 0 0 -2 0c0,0 -1,0 -1,0 -1,0 -1,-1 -1,-1l0 0c-1,-1 -1,-1 -1,-2 0,0 0,-1 0,-1l0 -2 -3 0 0 2c-1,1 -1,2 -1,3 0,1 1,2 1,3l0 0c1,1 1,2 2,2 1,1 2,1 3,1l9 0 8 0c1,0 2,-1 3,-1 1,-1 1,-1 2,-2l0 0 0 0c1,-1 1,-2 1,-3 0,-1 0,-2 0,-3l-2 -8 -2 -6c0,0 0,-1 0,-1 -1,0 -1,-1 -2,-1l0 0 0 0c0,0 -1,-1 -1,-1 -1,0 -2,0 -2,0l-5 0z"/>
  </g>
 </g>
</svg>
