<svg xmlns="http://www.w3.org/2000/svg" version="1.0" width="547.000000pt" height="568.000000pt" viewBox="0 0 547.000000 568.000000" preserveAspectRatio="xMidYMid meet">
<metadata fill="#ffffff">
Created by potrace 1.16, written by Peter Selinger 2001-2019
</metadata>
<g transform="translate(0.000000,568.000000) scale(0.100000,-0.100000)" fill="#ffffff" stroke="none">
<path d="M3670 5152 c-85 -38 -95 -140 -18 -184 16 -9 96 -14 277 -18 l253 -5 -152 -175 c-84 -96 -181 -206 -215 -245 -128 -145 -193 -221 -204 -242 -29 -57 2 -125 66 -142 50 -14 765 -2 796 13 27 14 48 74 38 112 -4 15 -20 37 -35 48 -26 20 -43 21 -274 24 -136 2 -251 7 -255 11 -7 7 81 112 358 426 190 217 205 236 205 277 0 22 -5 48 -11 60 -24 45 -55 48 -446 47 -202 0 -375 -3 -383 -7z" fill="#ffffff"/>
<path d="M2318 4112 c-16 -9 -35 -31 -44 -50 -20 -43 -8 -80 36 -109 32 -22 40 -23 281 -23 204 0 249 -2 249 -14 0 -7 -39 -54 -87 -104 l-88 -90 -120 -6 c-105 -5 -288 -26 -364 -42 -214 -44 -375 -92 -560 -168 -557 -228 -995 -589 -1304 -1074 -120 -189 -202 -353 -201 -402 2 -70 171 -378 307 -560 393 -524 992 -906 1670 -1065 188 -44 335 -58 607 -58 265 0 336 5 573 48 183 32 435 106 582 170 17 7 55 23 85 36 172 72 391 205 579 352 192 151 439 415 570 611 118 176 251 425 251 469 0 38 -130 277 -243 447 -201 301 -489 590 -772 772 -358 231 -787 384 -1269 451 -49 7 -91 17 -93 22 -1 6 47 67 107 138 101 117 110 131 110 168 0 31 -7 47 -29 70 l-29 29 -389 0 c-348 -1 -391 -2 -415 -18z m637 -607 c157 -14 211 -22 350 -50 548 -111 1048 -402 1428 -829 81 -92 86 -81 -58 -151 -276 -133 -538 -220 -855 -283 -30 -6 -77 -16 -105 -22 -103 -20 -296 -46 -543 -70 -133 -13 -761 -13 -894 0 -290 29 -524 62 -673 96 -39 8 -81 18 -95 21 -42 9 -272 73 -315 88 -116 40 -237 86 -281 105 -27 13 -90 41 -140 64 -50 23 -101 48 -115 57 l-24 16 175 174 c312 312 605 499 990 634 158 55 355 101 530 125 47 6 97 13 113 15 24 4 26 2 18 -13 -5 -10 -45 -58 -89 -108 -63 -71 -82 -100 -92 -141 -12 -46 -11 -54 4 -78 9 -14 29 -30 43 -36 16 -6 176 -9 415 -7 l390 3 24 28 c33 38 33 96 0 134 l-24 28 -255 5 c-141 3 -259 8 -263 12 -11 12 150 198 172 198 5 0 81 -7 169 -15z m-2274 -1209 c219 -105 228 -108 394 -164 139 -47 307 -94 433 -121 131 -28 158 -36 173 -48 11 -9 20 -44 28 -104 6 -50 18 -114 25 -143 41 -155 149 -341 267 -457 144 -142 286 -221 504 -280 76 -21 361 -17 445 5 36 10 79 21 95 25 17 4 70 26 119 49 304 143 512 422 571 771 9 52 20 104 25 116 9 24 46 38 175 65 137 29 299 74 445 124 185 64 224 80 403 169 75 38 143 67 150 64 6 -2 25 -29 41 -58 15 -30 47 -88 69 -129 22 -41 49 -91 60 -112 l20 -36 -45 -89 c-120 -234 -263 -429 -458 -623 -207 -207 -388 -339 -653 -474 -409 -210 -765 -296 -1222 -296 -265 0 -505 29 -715 87 -172 47 -187 52 -325 106 -331 129 -596 300 -845 546 -212 209 -369 419 -495 664 l-40 77 30 58 c100 194 152 282 164 282 5 0 78 -33 162 -74z m1439 -385 c80 -10 104 -26 117 -80 24 -102 140 -246 241 -299 151 -79 338 -81 487 -3 74 38 174 143 213 223 18 37 32 71 32 77 0 25 25 60 49 69 23 9 218 32 264 32 21 0 22 -24 3 -110 -72 -326 -275 -538 -616 -641 -29 -9 -95 -14 -185 -14 -120 0 -150 4 -215 24 -304 98 -502 296 -576 579 -8 29 -17 78 -21 109 l-6 56 69 -7 c38 -4 103 -11 144 -15z m880 -49 c0 -33 -52 -99 -105 -134 -72 -47 -159 -66 -229 -48 -56 14 -109 39 -143 68 -31 28 -73 92 -73 113 0 18 14 19 275 19 258 0 275 -1 275 -18z" fill="#ffffff"/>
</g>
</svg>