<svg xmlns="http://www.w3.org/2000/svg" version="1.0" width="415.000000pt" height="420.000000pt" viewBox="0 0 415.000000 420.000000" preserveAspectRatio="xMidYMid meet">
<metadata fill="#ffffff">
Created by potrace 1.16, written by Peter Selinger 2001-2019
</metadata>
<g transform="translate(0.000000,420.000000) scale(0.100000,-0.100000)" fill="#ffffff" stroke="none">
<path d="M1844 4086 c-84 -31 -131 -62 -165 -109 -40 -55 -50 -100 -54 -236 -2 -75 -9 -129 -19 -152 -21 -49 -74 -93 -136 -114 -92 -30 -169 -9 -250 68 -142 136 -261 168 -396 107 -104 -47 -259 -206 -345 -355 -19 -32 -23 -55 -23 -115 0 -92 15 -121 123 -233 42 -43 84 -94 93 -115 34 -73 14 -187 -45 -251 -12 -13 -44 -34 -72 -47 -41 -20 -66 -24 -144 -24 -176 0 -251 -44 -324 -190 -32 -65 -32 -66 -35 -237 l-3 -171 31 -75 c37 -90 85 -148 145 -177 37 -18 69 -23 182 -27 153 -6 190 -18 236 -73 28 -33 57 -115 57 -161 0 -53 -30 -111 -95 -182 -128 -142 -157 -262 -95 -391 51 -104 219 -254 380 -337 118 -61 179 -42 325 101 99 97 141 117 225 107 132 -16 221 -124 206 -250 -17 -146 58 -283 194 -353 53 -28 60 -29 229 -32 160 -3 180 -1 235 19 70 25 135 67 166 106 40 52 50 90 50 202 0 203 43 274 189 312 78 20 142 -4 234 -88 157 -143 297 -162 445 -61 86 59 234 226 285 323 16 30 22 58 22 115 0 92 -14 118 -127 237 -43 45 -85 98 -93 117 -42 99 10 237 108 288 34 18 65 23 167 28 142 6 179 19 243 83 22 22 55 72 73 113 l34 73 0 165 c0 100 -4 176 -11 193 -56 136 -88 182 -153 215 -34 18 -67 23 -187 28 -161 8 -186 16 -237 74 -29 34 -62 117 -62 158 0 61 25 111 92 185 40 44 83 105 100 141 28 58 30 70 26 140 -4 55 -12 90 -29 122 -76 141 -370 360 -483 360 -64 -1 -113 -29 -222 -132 -117 -109 -158 -128 -235 -108 -61 17 -93 35 -134 76 -46 45 -65 93 -66 163 0 74 -21 188 -41 226 -23 43 -62 76 -153 129 l-80 46 -160 -1 c-141 0 -167 -3 -221 -23z m421 -1058 c323 -72 569 -288 689 -606 56 -148 64 -380 20 -546 -27 -99 -106 -255 -171 -336 -125 -157 -288 -264 -489 -322 -67 -19 -102 -23 -239 -23 -137 0 -172 4 -239 23 -263 76 -472 246 -591 481 -209 414 -78 923 304 1183 127 87 295 150 431 162 67 6 228 -3 285 -16z" fill="#ffffff"/>
<path d="M2483 2470 c-51 -12 -67 -25 -293 -249 -118 -116 -216 -211 -220 -211 -3 0 -25 25 -49 55 -56 70 -116 124 -160 142 -68 29 -146 -10 -171 -85 -11 -36 -11 -45 9 -84 30 -64 305 -333 349 -342 71 -16 83 -8 361 268 145 143 276 281 292 305 22 33 29 57 29 92 0 41 -4 51 -35 78 -20 17 -40 31 -45 31 -4 0 -14 2 -22 4 -7 2 -28 0 -45 -4z" fill="#ffffff"/>
</g>
</svg>