<svg id="Capa_1" data-name="Capa 1" xmlns="http://www.w3.org/2000/svg"
    xmlns:xlink="http://www.w3.org/1999/xlink" viewBox="0 0 1080 1350">
    <defs>
        <style>
            .cls-1{fill:#1e1e1e;}.cls-2{fill:#9491a4;}.cls-3{fill:#8a8b94;}.cls-14{fill:#c4c2c1;}.cls-5{fill:#353535;opacity:0.29;}.cls-6{fill:#fa8d07;}.cls-7{fill:#636363;}.cls-8{fill:#1d232a;}.cls-9{fill:#a7adb1;}.cls-10{fill:#383f48;}.cls-11{fill:url(#linear-gradient);}.cls-12{fill:#4a4a56;}</style>
        <linearGradient id="linear-gradient" x1="-2178.44" y1="806.1" x2="-2154.67" y2="806.1"
            gradientTransform="translate(2498.15 -154.91)" gradientUnits="userSpaceOnUse">
            <stop offset="0" stop-color="#161616" />
            <stop offset="0.3" stop-color="#1a1a1a" />
            <stop offset="0.79" stop-color="#1e1e1e" />
            <stop offset="0.8" stop-color="#1e1e1e" />
        </linearGradient>
    </defs>
    <ellipse class="cls-1" cx="187.04" cy="764" rx="78.54" ry="73.85" />
    <ellipse class="cls-2" cx="187.04" cy="764" rx="51.69" ry="48.61" />
    <ellipse class="cls-3" cx="187.04" cy="764" rx="46.53" ry="43.75" />
    <ellipse class="cls-1" cx="187.04" cy="764" rx="23.76" ry="22.34" />
    <ellipse class="cls-2" cx="187.04" cy="764" rx="21.37" ry="20.1" />
    <ellipse class="cls-1" cx="187.04" cy="730.9" rx="4.56" ry="4.29" />
    <ellipse class="cls-1" cx="204.68" cy="735.29" rx="4.56" ry="4.29" />
    <ellipse class="cls-1" cx="217.61" cy="747.39" rx="4.56" ry="4.29" />
    <ellipse class="cls-1" cx="222.37" cy="763.96" rx="4.56" ry="4.29" />
    <ellipse class="cls-1" cx="217.66" cy="780.53" rx="4.56" ry="4.29" />
    <ellipse class="cls-1" cx="204.77" cy="792.67" rx="4.56" ry="4.29" />
    <ellipse class="cls-1" cx="187.14" cy="797.11" rx="4.56" ry="4.29" />
    <ellipse class="cls-1" cx="169.52" cy="792.66" rx="4.56" ry="4.29" />
    <ellipse class="cls-1" cx="156.63" cy="780.51" rx="4.56" ry="4.29" />
    <ellipse class="cls-1" cx="151.94" cy="763.93" rx="4.56" ry="4.29" />
    <ellipse class="cls-1" cx="156.71" cy="747.37" rx="4.56" ry="4.29" />
    <ellipse class="cls-1" cx="169.65" cy="735.28" rx="4.56" ry="4.29" />
    <ellipse class="cls-1" cx="711.13" cy="763.67" rx="78.54" ry="73.85" />
    <ellipse class="cls-2" cx="711.13" cy="763.67" rx="51.69" ry="48.61" />
    <ellipse class="cls-3" cx="711.13" cy="763.67" rx="46.53" ry="43.75" />
    <ellipse class="cls-1" cx="711.13" cy="763.67" rx="23.76" ry="22.34" />
    <ellipse class="cls-2" cx="711.13" cy="763.67" rx="21.37" ry="20.1" />
    <ellipse class="cls-1" cx="711.13" cy="730.56" rx="4.56" ry="4.29" />
    <ellipse class="cls-1" cx="728.77" cy="734.96" rx="4.56" ry="4.29" />
    <ellipse class="cls-1" cx="741.7" cy="747.06" rx="4.56" ry="4.29" />
    <ellipse class="cls-1" cx="746.46" cy="763.62" rx="4.56" ry="4.29" />
    <ellipse class="cls-1" cx="741.75" cy="780.2" rx="4.56" ry="4.29" />
    <ellipse class="cls-1" cx="728.86" cy="792.34" rx="4.56" ry="4.29" />
    <ellipse class="cls-1" cx="711.23" cy="796.78" rx="4.56" ry="4.29" />
    <ellipse class="cls-1" cx="693.61" cy="792.33" rx="4.56" ry="4.29" />
    <ellipse class="cls-1" cx="680.73" cy="780.18" rx="4.56" ry="4.29" />
    <ellipse class="cls-1" cx="676.04" cy="763.6" rx="4.56" ry="4.29" />
    <ellipse class="cls-1" cx="680.8" cy="747.04" rx="4.56" ry="4.29" />
    <ellipse class="cls-1" cx="693.74" cy="734.94" rx="4.56" ry="4.29" />
    <path class="cls-14"
        d="M53.09,803.43l6.79.66,20.42.24,57.85-.26,70.37-.24,317.2,0,194.45.45h327.1s5.89-4.4,6.46-5.92,3-4.93,3.22-5.5,1.78-5.87,1.78-5.87a56.43,56.43,0,0,0-.28-7.54,75.41,75.41,0,0,0-2.66-8.62c-.36-.71-3.77-6.25-3.77-6.25l-4.75-5.7-2.37-39.17-6.11-68.85-22.35-28.36H891.5l-49.4-57.18s-18.19-19.67-21.55-23.13-16.83-16.91-16.83-16.91l-5.26-5-10.71-9.51-8.4-6.62S774.73,501,772.9,500s-1.82-1-2.24-1.2-1.52-.64-2.11-.83-3.24-.94-3.24-.94l-4.53-1-6.29-1-21.3-2.17L662.42,490l-79.18-.53-211,3.49L264.56,612.31,59.39,636.19s-3.22,2.64-4,3.33-8.13,7.7-8.58,8.19-6.87,8.08-7.56,9.06-2.41,3.65-2.78,4.3-1.9,3.67-1.9,3.67-1.73,4.92-1.81,5.32-.39,2.32-.39,2.32l-.2,3.15-3.62,19.26-6.35,41.45s-1,11.83-.93,14.74.24,7.4.38,8.53.92,5.54,1.21,6.46,1.69,4.17,1.69,4.17a21.08,21.08,0,0,0,2.89,3.43c.9.59,18.6,23.14,18.6,23.14a8.17,8.17,0,0,0,1.27,2.67,18.19,18.19,0,0,1,2,2.33C50.07,802.79,53.09,803.43,53.09,803.43Z" />
    <path class="cls-5"
        d="M1038.79,649.23l-157.53-.74L776.43,531.94h-368s-92.19,116.55-95.6,116.55S81.74,662.88,81.74,662.88s-8.91,18.41-9.35,35.46c0,.54-1.08,10.33-1.14,11-1,10.79-10.08,36.4-12.55,59.51-2.2,20.66-10.05,34.56,1.18,35.25,24.57,1.52,108.77-2.1,108.77-2.1l157.68.67h720.94s25.78-17.35,0-45.4l-3-50Z" />
    <path class="cls-6"
        d="M45.26,758.62c-1.63-.15-5.39-5.77-5.39-5.77l6-33.66c.94-5.83,4.15-5.64,10-5.88,3.77-.15,14.41-.38,16.33.6,4.54,2.31,5.3,7.38,5.3,9.91s-2.27,20.27-2.27,20.27-1.91,13.8-2.49,14.53C71.91,759.67,57,759.69,45.26,758.62Z" />
    <path class="cls-7"
        d="M61.39,804l-8.3-.53a7.74,7.74,0,0,1-5-3.17,37.06,37.06,0,0,1-3.87-10.64c-.27-2.24-.61-7.94-.6-8.51s.55-12.53.55-12.53l1.1-10H77.53s5,0,6.29,2c1.07,1.58,2.2,2.13,3,6,.86,4.28.53,12.4.36,14.36-.3,3.35-.19,6.58-1.14,10.18s-1.61,7.66-2.42,10.71c-.17.68-2.55,2.54-3.3,2.47C77.1,804.07,61.39,804,61.39,804Z" />
    <polygon class="cls-8"
        points="558.5 548.14 406.21 545.72 324.82 647.5 558.5 648.49 558.5 548.14" />
    <path class="cls-8"
        d="M581.81,549.08V650.91H732.48l27.86-2.85s-5.19-85.56-6.26-92.1c-.71-4.36,0-7.42-10.8-6.85S581.81,549.08,581.81,549.08Z" />
    <path class="cls-7"
        d="M1047.27,758.93H857s16.77,26.89,14.55,45.4h175.68S1072.1,786.22,1047.27,758.93Z" />
    <ellipse class="cls-1" cx="286.96" cy="800.01" rx="78.54" ry="73.85" />
    <ellipse class="cls-2" cx="286.96" cy="800.01" rx="51.69" ry="48.61" />
    <ellipse class="cls-3" cx="286.96" cy="800.01" rx="46.53" ry="43.75" />
    <ellipse class="cls-1" cx="286.96" cy="800.01" rx="23.76" ry="22.34" />
    <ellipse class="cls-2" cx="286.96" cy="800.01" rx="21.37" ry="20.1" />
    <ellipse class="cls-1" cx="286.96" cy="766.9" rx="4.56" ry="4.29" />
    <ellipse class="cls-1" cx="269.32" cy="771.29" rx="4.56" ry="4.29" />
    <ellipse class="cls-1" cx="256.39" cy="783.4" rx="4.56" ry="4.29" />
    <ellipse class="cls-1" cx="251.63" cy="799.96" rx="4.56" ry="4.29" />
    <ellipse class="cls-1" cx="256.34" cy="816.54" rx="4.56" ry="4.29" />
    <ellipse class="cls-1" cx="269.23" cy="828.68" rx="4.56" ry="4.29" />
    <ellipse class="cls-1" cx="286.86" cy="833.12" rx="4.56" ry="4.29" />
    <ellipse class="cls-1" cx="304.48" cy="828.67" rx="4.56" ry="4.29" />
    <ellipse class="cls-1" cx="317.36" cy="816.52" rx="4.56" ry="4.29" />
    <ellipse class="cls-1" cx="322.05" cy="799.94" rx="4.56" ry="4.29" />
    <ellipse class="cls-1" cx="317.29" cy="783.38" rx="4.56" ry="4.29" />
    <ellipse class="cls-1" cx="304.35" cy="771.28" rx="4.56" ry="4.29" />
    <ellipse class="cls-1" cx="798.71" cy="801.06" rx="78.54" ry="73.85" />
    <ellipse class="cls-2" cx="798.71" cy="801.06" rx="51.69" ry="48.61" />
    <ellipse class="cls-3" cx="798.71" cy="801.06" rx="46.53" ry="43.75" />
    <ellipse class="cls-1" cx="798.71" cy="801.06" rx="23.76" ry="22.34" />
    <ellipse class="cls-2" cx="798.71" cy="801.06" rx="21.37" ry="20.1" />
    <ellipse class="cls-1" cx="798.71" cy="767.96" rx="4.56" ry="4.29" />
    <ellipse class="cls-1" cx="781.07" cy="772.35" rx="4.56" ry="4.29" />
    <ellipse class="cls-1" cx="768.14" cy="784.45" rx="4.56" ry="4.29" />
    <ellipse class="cls-1" cx="763.39" cy="801.02" rx="4.56" ry="4.29" />
    <ellipse class="cls-1" cx="768.09" cy="817.6" rx="4.56" ry="4.29" />
    <ellipse class="cls-1" cx="780.99" cy="829.73" rx="4.56" ry="4.29" />
    <ellipse class="cls-1" cx="798.61" cy="834.17" rx="4.56" ry="4.29" />
    <ellipse class="cls-1" cx="816.23" cy="829.72" rx="4.56" ry="4.29" />
    <ellipse class="cls-1" cx="829.12" cy="817.57" rx="4.56" ry="4.29" />
    <ellipse class="cls-1" cx="833.81" cy="800.99" rx="4.56" ry="4.29" />
    <ellipse class="cls-1" cx="829.04" cy="784.43" rx="4.56" ry="4.29" />
    <ellipse class="cls-1" cx="816.1" cy="772.34" rx="4.56" ry="4.29" />
    <path class="cls-9"
        d="M481.87,669.67h68.44a.85.85,0,0,1,.85.85v22.26a1.36,1.36,0,0,1-1.36,1.36H481.47a.44.44,0,0,1-.44-.44V670.52a.85.85,0,0,1,.85-.85Z"
        transform="translate(1032.19 1363.81) rotate(180)" />
    <path class="cls-10"
        d="M485.4,682.57h61.4c2.41,0,4.37-1.63,4.37-3.63v-5.65c0-2-2-3.62-4.37-3.62H493.33c-4.63,0-8.83,2.23-10.77,5.72l-1.13,2C480.1,679.82,482.21,682.57,485.4,682.57Z" />
    <ellipse class="cls-9" cx="540.41" cy="676.12" rx="4.7" ry="3.9" />
    <rect class="cls-11" x="319.72" y="642.98" width="23.76" height="16.42" rx="0.46"
        transform="translate(663.19 1302.38) rotate(180)" />
    <rect class="cls-12" x="333.41" y="632.71" width="58.44" height="36.96" rx="1.61"
        transform="translate(725.26 1302.38) rotate(180)" />
    <polyline class="cls-8"
        points="399.88 542.75 317.94 644.92 275.36 610.97 358.94 514.51 399.88 542.75" />
    <path class="cls-7"
        d="M45.26,758.62,22.5,734.24s-.83,8.91-.87,9.48-.36,6.45-.36,6.45l.37,9.34L22.85,766l1.69,4.17,16,19.57,5.51,7,.92,2.16.35.51Z" />
    <path class="cls-6"
        d="M27.08,704.32l3.52,1.32s.85.57.85,1.14-.85,7.39-.85,7.39L25.35,737.3l-2.85-3.06Z" />
    <polygon class="cls-8"
        points="806.57 528.18 824.05 545.94 840.35 563.48 857.75 583.48 869.2 596.74 891.5 622.55 881.26 648.49 791.81 549.04 806.57 528.18" />
</svg>