<svg id="Capa_1" data-name="Capa 1" xmlns="http://www.w3.org/2000/svg"
    xmlns:xlink="http://www.w3.org/1999/xlink" viewBox="0 0 1080 1350">
    <defs>
        <style>
            .cls-1{fill:#1e1e1e;}.cls-2{fill:#9693a6;}.cls-3{fill:#8c8d96;}.cls-14{fill:#c4c2c1;}.cls-5{fill:#353535;opacity:0.29;}.cls-6{fill:#1d232a;}.cls-7{fill:url(#linear-gradient);}.cls-8{fill:#4a4a56;}.cls-9{fill:#b3b3b3;}.cls-10{fill:#fc8f04;}.cls-11{fill:#a9afb3;}.cls-12{fill:#383f48;}.cls-13{fill:#828286;}</style>
        <linearGradient id="linear-gradient" x1="-2237.58" y1="851.66" x2="-2214.34" y2="851.66"
            gradientTransform="translate(2536.93 -246.03)" gradientUnits="userSpaceOnUse">
            <stop offset="0" stop-color="#161616" />
            <stop offset="0.3" stop-color="#1a1a1a" />
            <stop offset="0.79" stop-color="#1e1e1e" />
            <stop offset="0.8" stop-color="#1e1e1e" />
        </linearGradient>
    </defs>
    <ellipse class="cls-1" cx="675.58" cy="734.38" rx="85.57" ry="80.46" />
    <ellipse class="cls-2" cx="675.58" cy="734.38" rx="56.32" ry="52.96" />
    <ellipse class="cls-3" cx="675.58" cy="734.38" rx="50.7" ry="47.67" />
    <ellipse class="cls-1" cx="675.58" cy="734.38" rx="25.88" ry="24.34" />
    <ellipse class="cls-2" cx="675.58" cy="734.38" rx="23.29" ry="21.89" />
    <ellipse class="cls-1" cx="675.58" cy="698.31" rx="4.97" ry="4.67" />
    <ellipse class="cls-1" cx="656.36" cy="703.1" rx="4.97" ry="4.67" />
    <ellipse class="cls-1" cx="642.27" cy="716.29" rx="4.97" ry="4.67" />
    <ellipse class="cls-1" cx="637.09" cy="734.33" rx="4.97" ry="4.67" />
    <ellipse class="cls-1" cx="642.22" cy="752.4" rx="4.97" ry="4.67" />
    <ellipse class="cls-1" cx="656.27" cy="765.62" rx="4.97" ry="4.67" />
    <ellipse class="cls-1" cx="675.47" cy="770.46" rx="4.97" ry="4.67" />
    <ellipse class="cls-1" cx="694.67" cy="765.61" rx="4.97" ry="4.67" />
    <ellipse class="cls-1" cx="708.71" cy="752.37" rx="4.97" ry="4.67" />
    <ellipse class="cls-1" cx="713.82" cy="734.31" rx="4.97" ry="4.67" />
    <ellipse class="cls-1" cx="708.63" cy="716.26" rx="4.97" ry="4.67" />
    <ellipse class="cls-1" cx="694.53" cy="703.08" rx="4.97" ry="4.67" />
    <ellipse class="cls-1" cx="137.83" cy="734.64" rx="85.57" ry="80.46" />
    <ellipse class="cls-2" cx="137.83" cy="734.64" rx="56.32" ry="52.96" />
    <ellipse class="cls-3" cx="137.83" cy="734.64" rx="50.7" ry="47.67" />
    <ellipse class="cls-1" cx="137.83" cy="734.64" rx="25.88" ry="24.34" />
    <ellipse class="cls-2" cx="137.83" cy="734.64" rx="23.29" ry="21.89" />
    <ellipse class="cls-1" cx="137.83" cy="698.56" rx="4.97" ry="4.67" />
    <ellipse class="cls-1" cx="118.62" cy="703.35" rx="4.97" ry="4.67" />
    <ellipse class="cls-1" cx="104.53" cy="716.54" rx="4.97" ry="4.67" />
    <ellipse class="cls-1" cx="99.35" cy="734.59" rx="4.97" ry="4.67" />
    <ellipse class="cls-1" cx="104.47" cy="752.65" rx="4.97" ry="4.67" />
    <ellipse class="cls-1" cx="118.52" cy="765.87" rx="4.97" ry="4.67" />
    <ellipse class="cls-1" cx="137.73" cy="770.71" rx="4.97" ry="4.67" />
    <ellipse class="cls-1" cx="156.93" cy="765.86" rx="4.97" ry="4.67" />
    <ellipse class="cls-1" cx="170.97" cy="752.63" rx="4.97" ry="4.67" />
    <ellipse class="cls-1" cx="176.08" cy="734.56" rx="4.97" ry="4.67" />
    <ellipse class="cls-1" cx="170.88" cy="716.52" rx="4.97" ry="4.67" />
    <ellipse class="cls-1" cx="156.78" cy="703.34" rx="4.97" ry="4.67" />
    <path class="cls-14"
        d="M24.06,613.39V727s.13,16.53,16.55,17.3L58,750.77s4.21,11.6,15.61,11.6H984.14v-136l-33-18.07-281.2-5-1.67-142.73s.17-11.6-11.24-11.6l-21.73-6.47s.68-10.75-11.23-11.6H374.47s-4.74-.8-8.74,4.84S259.3,579.26,259.3,579.26A34.87,34.87,0,0,1,237.82,590l-195,7.48S24.06,597.88,24.06,613.39Z" />
    <path class="cls-5"
        d="M986,626.32v87.39l-19.64.52v48.14H75.45c-9.14,0-16.54-7.74-16.54-17.3V631.46c0-9.92,13.75-7.76,23.24-7.76l188.11-3c5.39,0,48-2.39,51.06-7.05l103-150.44c2-3,12.41-14.33,15.91-14.33H659a11.48,11.48,0,0,1,11.23,11.6l1.88,160.22Z" />
    <polygon class="cls-6" points="590 483.25 426.49 483.25 334.62 620.71 590 620.71 590 483.25" />
    <rect class="cls-7" x="299.35" y="597.6" width="23.24" height="16.05" rx="0.46"
        transform="translate(621.94 1211.26) rotate(180)" />
    <rect class="cls-8" x="312.74" y="587.56" width="57.15" height="36.14" rx="1.61"
        transform="translate(682.63 1211.26) rotate(180)" />
    <path class="cls-9"
        d="M982.14,714.23h5.64a3.23,3.23,0,0,1,3.38,3v46.55a3.59,3.59,0,0,1-3.78,3.37H964.51V714.23Z" />
    <ellipse class="cls-1" cx="784.1" cy="781.34" rx="85.57" ry="80.46" />
    <ellipse class="cls-2" cx="784.1" cy="781.34" rx="56.32" ry="52.96" />
    <ellipse class="cls-3" cx="784.1" cy="781.34" rx="50.7" ry="47.67" />
    <ellipse class="cls-1" cx="784.1" cy="781.34" rx="25.88" ry="24.34" />
    <ellipse class="cls-2" cx="784.1" cy="781.34" rx="23.29" ry="21.89" />
    <ellipse class="cls-1" cx="784.1" cy="745.26" rx="4.97" ry="4.67" />
    <ellipse class="cls-1" cx="764.88" cy="750.05" rx="4.97" ry="4.67" />
    <ellipse class="cls-1" cx="750.79" cy="763.24" rx="4.97" ry="4.67" />
    <ellipse class="cls-1" cx="745.62" cy="781.29" rx="4.97" ry="4.67" />
    <ellipse class="cls-1" cx="750.74" cy="799.35" rx="4.97" ry="4.67" />
    <ellipse class="cls-1" cx="764.79" cy="812.57" rx="4.97" ry="4.67" />
    <ellipse class="cls-1" cx="783.99" cy="817.41" rx="4.97" ry="4.67" />
    <ellipse class="cls-1" cx="803.19" cy="812.56" rx="4.97" ry="4.67" />
    <ellipse class="cls-1" cx="817.23" cy="799.32" rx="4.97" ry="4.67" />
    <ellipse class="cls-1" cx="822.34" cy="781.26" rx="4.97" ry="4.67" />
    <ellipse class="cls-1" cx="817.15" cy="763.21" rx="4.97" ry="4.67" />
    <ellipse class="cls-1" cx="803.05" cy="750.04" rx="4.97" ry="4.67" />
    <path class="cls-8"
        d="M66.37,719.62h-5a3,3,0,0,0-3,3V769.2a3.37,3.37,0,0,0,3.37,3.37H82.15v-53Z" />
    <path class="cls-10"
        d="M74.5,645.25h5.59a3.2,3.2,0,0,1,3.35,3v46.55a3.57,3.57,0,0,1-3.74,3.37l-22.68,3v-54Z" />
    <path class="cls-10"
        d="M30,635.09a5.42,5.42,0,0,1,1,3.53l-.22,47.52c0,1.09-.62,1.73-1.08,1.1l-5.67-7.84V628.66Z" />
    <path class="cls-10"
        d="M47.73,646.6c-.13,8.33-.21,39.21-.23,46.68a3,3,0,0,0,1.38,2.54L57,701.16v-54l-7.28-2A1.58,1.58,0,0,0,47.73,646.6Z" />
    <path class="cls-11"
        d="M523.32,633.47h65.84a.85.85,0,0,1,.85.85v21.35a1.36,1.36,0,0,1-1.36,1.36H522.91a.44.44,0,0,1-.44-.44V634.32a.85.85,0,0,1,.85-.85Z"
        transform="translate(1112.47 1290.51) rotate(180)" />
    <path class="cls-12"
        d="M526.68,645.89H585.8c2.32,0,4.2-1.56,4.2-3.49V637c0-1.93-1.88-3.49-4.2-3.49H534.32c-4.46,0-8.51,2.15-10.38,5.51l-1.08,1.95C521.57,643.25,523.61,645.89,526.68,645.89Z" />
    <ellipse class="cls-11" cx="579.65" cy="639.68" rx="4.52" ry="3.76" />
    <ellipse class="cls-1" cx="200.39" cy="782.06" rx="85.57" ry="80.46" />
    <ellipse class="cls-2" cx="200.39" cy="782.06" rx="56.32" ry="52.96" />
    <ellipse class="cls-3" cx="200.39" cy="782.06" rx="50.7" ry="47.67" />
    <ellipse class="cls-1" cx="200.39" cy="782.06" rx="25.88" ry="24.34" />
    <ellipse class="cls-2" cx="200.39" cy="782.06" rx="23.29" ry="21.89" />
    <ellipse class="cls-1" cx="200.39" cy="745.98" rx="4.97" ry="4.67" />
    <ellipse class="cls-1" cx="181.18" cy="750.77" rx="4.97" ry="4.67" />
    <ellipse class="cls-1" cx="167.09" cy="763.96" rx="4.97" ry="4.67" />
    <ellipse class="cls-1" cx="161.91" cy="782" rx="4.97" ry="4.67" />
    <ellipse class="cls-1" cx="167.03" cy="800.07" rx="4.97" ry="4.67" />
    <ellipse class="cls-1" cx="181.08" cy="813.29" rx="4.97" ry="4.67" />
    <ellipse class="cls-1" cx="200.28" cy="818.13" rx="4.97" ry="4.67" />
    <ellipse class="cls-1" cx="219.48" cy="813.28" rx="4.97" ry="4.67" />
    <ellipse class="cls-1" cx="233.52" cy="800.04" rx="4.97" ry="4.67" />
    <ellipse class="cls-1" cx="238.63" cy="781.98" rx="4.97" ry="4.67" />
    <ellipse class="cls-1" cx="233.44" cy="763.93" rx="4.97" ry="4.67" />
    <ellipse class="cls-1" cx="219.34" cy="750.76" rx="4.97" ry="4.67" />
    <polygon class="cls-6" points="412 481.65 356.82 459.44 262.52 585.21 321.32 613.66 412 481.65" />
    <polygon class="cls-13"
        points="21.63 700.08 21.63 726.63 21.63 741.78 58.31 769.2 58.31 722.65 21.63 700.08" />
    <polygon class="cls-13"
        points="82.15 719.62 24.06 692.59 21.63 691.09 21.63 700.08 58.31 722.65 82.15 719.62" />
    <polyline class="cls-13" points="21.63 691.09 24.06 690.84 24.06 692.59" />
</svg>