<svg id="Capa_1" data-name="Capa 1" xmlns="http://www.w3.org/2000/svg"
    xmlns:xlink="http://www.w3.org/1999/xlink" viewBox="0 0 1080 1350">
    <defs>
        <style>
            .cls-1{fill:#1e1e1e;}.cls-2{fill:#9a97aa;}.cls-3{fill:#90919a;}.cls-14{fill:#c4c2c1;}.cls-5{fill:#7f8081;opacity:0.2;}.cls-6{fill:#353535;opacity:0.29;}.cls-7{fill:#1d232a;}.cls-8{fill:#abb1b5;}.cls-9{fill:#383f48;}.cls-10{fill:#3d4b4d;}.cls-11{fill:#ff1436;}.cls-12{fill:url(#linear-gradient);}.cls-13{fill:#4a4a56;}.cls-4{fill:#ff8f08;}.cls-15{fill:#e2e3e7;}.cls-16{fill:#282828;opacity:0.11;}</style>
        <linearGradient id="linear-gradient" x1="-254.34" y1="696.1" x2="-233.77" y2="696.1"
            gradientTransform="matrix(-1, 0, 0, 1, 53.42, 0)" gradientUnits="userSpaceOnUse">
            <stop offset="0" stop-color="#161616" />
            <stop offset="0.3" stop-color="#1a1a1a" />
            <stop offset="0.79" stop-color="#1e1e1e" />
            <stop offset="0.8" stop-color="#1e1e1e" />
        </linearGradient>
    </defs>
    <path class="cls-1"
        d="M888,899.2c-.47,106.6-162.56,106.59-163,0C725.41,792.6,887.49,792.61,888,899.2Z" />
    <path class="cls-2"
        d="M860.09,899.2c1,69.61-108.32,69.61-107.3,0C751.77,829.59,861.12,829.59,860.09,899.2Z" />
    <path class="cls-3"
        d="M854.73,899.2c.92,62.66-97.5,62.66-96.58,0C757.23,836.54,855.66,836.54,854.73,899.2Z" />
    <path class="cls-1"
        d="M831.09,899.2c.47,32-49.77,32-49.3,0C781.32,867.21,831.57,867.21,831.09,899.2Z" />
    <path class="cls-2"
        d="M828.62,899.2c.42,28.78-44.78,28.78-44.36,0C783.84,870.42,829,870.42,828.62,899.2Z" />
    <path class="cls-1"
        d="M811.17,862.66c.09,6.13-9.55,6.13-9.46,0C801.62,856.52,811.26,856.52,811.17,862.66Z" />
    <path class="cls-1"
        d="M828.84,869.87c-3,5.36-11.34.53-8.19-4.73C823.64,859.78,832,864.6,828.84,869.87Z" />
    <path class="cls-1" d="M840.53,885c-5.28,3.14-10.09-5.21-4.72-8.2S845.89,882,840.53,885Z" />
    <path class="cls-1"
        d="M843.09,903.88c-6.14.08-6.12-9.57,0-9.46C849.25,894.34,849.23,904,843.09,903.88Z" />
    <path class="cls-1" d="M835.84,921.54c-5.35-3-.51-11.35,4.75-8.19S841.11,924.7,835.84,921.54Z" />
    <path class="cls-1"
        d="M820.73,933.19c-3.13-5.27,5.24-10.07,8.21-4.7C832.07,933.77,823.71,938.56,820.73,933.19Z" />
    <path class="cls-1"
        d="M801.81,935.72c-.06-6.13,9.58-6.1,9.46,0C811.34,941.9,801.7,941.86,801.81,935.72Z" />
    <path class="cls-1"
        d="M784.17,928.45c3-5.35,11.34-.5,8.17,4.76C789.33,938.56,781,933.7,784.17,928.45Z" />
    <path class="cls-1"
        d="M772.54,913.31c5.28-3.12,10.06,5.25,4.69,8.22S767.16,916.28,772.54,913.31Z" />
    <path class="cls-1"
        d="M770,894.39c6.14-.06,6.09,9.58,0,9.46C763.85,903.91,763.9,894.27,770,894.39Z" />
    <path class="cls-1"
        d="M777.35,876.76c5.34,3,.47,11.34-4.78,8.16C767.23,881.9,772.1,873.58,777.35,876.76Z" />
    <path class="cls-1"
        d="M792.5,865.15c3.12,5.29-5.27,10.06-8.22,4.68C781.17,864.54,789.55,859.77,792.5,865.15Z" />
    <path class="cls-1"
        d="M244.52,890C244,996.6,82,996.59,81.49,890,82,783.39,244.05,783.4,244.52,890Z" />
    <path class="cls-2"
        d="M216.65,890c1,69.61-108.32,69.61-107.3,0C108.34,820.38,217.68,820.38,216.65,890Z" />
    <path class="cls-3"
        d="M211.29,890c.92,62.66-97.5,62.66-96.58,0C113.79,827.34,212.22,827.34,211.29,890Z" />
    <path class="cls-1" d="M187.66,890c.46,32-49.78,32-49.31,0C137.88,858,188.13,858,187.66,890Z" />
    <path class="cls-2"
        d="M185.18,890c.42,28.78-44.78,28.78-44.36,0C140.4,861.22,185.61,861.22,185.18,890Z" />
    <path class="cls-1"
        d="M167.73,853.45c.09,6.14-9.55,6.14-9.46,0C158.18,847.31,167.82,847.31,167.73,853.45Z" />
    <path class="cls-1"
        d="M185.4,860.67c-3,5.35-11.34.53-8.19-4.74C180.21,850.57,188.55,855.4,185.4,860.67Z" />
    <path class="cls-1"
        d="M197.09,875.76c-5.27,3.14-10.09-5.22-4.72-8.2C197.64,864.42,202.45,872.77,197.09,875.76Z" />
    <path class="cls-1"
        d="M199.65,894.67c-6.13.08-6.12-9.56,0-9.46C205.81,885.13,205.79,894.77,199.65,894.67Z" />
    <path class="cls-1"
        d="M192.41,912.33c-5.36-3-.52-11.34,4.75-8.18C202.51,907.15,197.67,915.49,192.41,912.33Z" />
    <path class="cls-1"
        d="M177.29,924c-3.13-5.28,5.24-10.08,8.21-4.71C188.63,924.56,180.27,929.36,177.29,924Z" />
    <path class="cls-1"
        d="M158.37,926.52c-.06-6.14,9.58-6.1,9.47,0C167.9,932.69,158.26,932.66,158.37,926.52Z" />
    <path class="cls-1"
        d="M140.73,919.24c3-5.35,11.34-.49,8.17,4.77C145.89,929.35,137.56,924.5,140.73,919.24Z" />
    <path class="cls-1"
        d="M129.1,904.11c5.28-3.12,10.06,5.25,4.69,8.21C128.5,915.44,123.72,907.07,129.1,904.11Z" />
    <path class="cls-1"
        d="M126.6,885.18c6.14,0,6.09,9.59,0,9.47C120.41,894.7,120.46,885.06,126.6,885.18Z" />
    <path class="cls-1"
        d="M133.91,867.55c5.34,3,.47,11.35-4.78,8.17C123.79,872.7,128.66,864.37,133.91,867.55Z" />
    <path class="cls-1"
        d="M149.06,856c3.12,5.29-5.26,10-8.22,4.67C137.73,855.33,146.11,850.57,149.06,856Z" />
    <path class="cls-14"
        d="M35.33,749.67c5.31,34,3.08,77.9,9.09,111.19,7.11,29.8,35,56.9,66.69,56.76,235-.06,651,0,885.26,0,53.54-3.06,47.08-55.07,49.63-91.8-.45-2.64-4-7.83-3.17-10.54l-14.75-187.45c-3.24-31.59-2.82-74.12-19.85-102.32-10.72-20.4-10.86-45-35-55.56-6-1.58-10-4-14.09-4.08l-605.17-9.7c-13.86-1.8-29.63,10.81-38.53,21.55-19.16,23.47-51.39,68.72-69.24,91.89s-37.67,59.47-66.29,72.9c-23.47,13-45.49,26.39-66.48,38.13C90.63,696.66,34.58,713.84,35.33,749.67Z" />
    <path class="cls-5"
        d="M35.79,745.15c12.72,13.36,39.9,38.6,54.07,50.43l157.31-85.71c-15.76-23.48-42-59.38-49.7-79.08a126.08,126.08,0,0,1-15.39,10.63c-4.51,2.56-10.6,5.81-16.73,9.29-4.84,2.75-9.47,5.51-14.94,8.62C110.58,682,70.58,704.61,70.58,704.61L60,711.45l-10.16,8.22C42.6,725.2,35.83,738.72,35.79,745.15Z" />
    <path class="cls-6"
        d="M1004.76,525.39,396.6,512.8l-85.33-35.94L285.2,511l72.26,33.53,14.77,13.34,23.23-25.81,151.42,2.32-6.17,383.87,231.71-.73.07-8L773.62,899l2.19-9.63,2.92-8.27,3.65-7.51,4.18-6.61,6-7.69,7.85-7,6.51-4.65,8-4.5,8.54-3.58,9.76-2.85,11.63-1.89,11.46-.44,10.76.95,9,1.78,9.77,3.07,9.13,4.12,5.91,3.44,4.29,3,4.19,3.35,6.05,5.85,5.49,6.73,4.86,7.77,3.8,8.18L932.1,890l2.62,13.28.53,14.21,65.27.74,10-4.15,12.91-7.69,8.45-10.37,3.92-8.64,3.56-14.13s4.58-43.27,3.17-47l-2.89-7.65-19-237.25-2.44-16.88-5-20.18Z" />
    <polygon class="cls-6"
        points="285.47 667.06 283.58 915.63 271.75 915.66 271.81 912.54 271.71 908.35 271.43 904.2 270.44 896.55 269 889.91 267.14 883.73 265.52 879.48 263 874.03 259.76 868.38 255.53 862.39 250.36 856.5 245.76 852.19 239.09 847.09 232.86 843.26 225.02 839.46 215.15 836.01 204.38 833.67 194.22 832.68 185.3 832.6 175.63 833.76 166.32 835.77 159.64 837.88 155.95 839.31 149.18 842.49 142.78 846.24 133.82 853.08 66.98 847.52 86.64 793.61 243.95 707.9 249.48 704.41 252.13 702.26 285.47 667.06" />
    <polygon class="cls-5"
        points="394.6 530.21 546.02 532.53 539.85 916.4 282.72 913.79 284.62 665.22 394.6 530.21" />
    <path class="cls-7"
        d="M228.66,685.23l15.56,23.18c22-9.36,110.22-127.21,127-146.73,11.45-12.27-57.22-34.31-55.92-37,0,0-29-14.31-29.83-13.18C260,544.73,220.84,594.93,195.37,630,192.38,634,228.66,685.23,228.66,685.23Z" />
    <path class="cls-7"
        d="M316.39,696.71l184.85,1.73a24.31,24.31,0,0,0,24.24-24.39V563.52a12.59,12.59,0,0,0-12.56-12.63c-36.88,5-115.94-16.35-136.67,24.49l-66.94,95.46C298.63,687,304.82,696.71,316.39,696.71Z" />
    <path class="cls-8"
        d="M475.41,738.27c4.9-2.07,44.86,5.32,43.65-5.47-.88-2.59,2.36-15.49-2.87-15.16H478.71C468.7,716.69,465.59,737.1,475.41,738.27Z" />
    <path class="cls-9"
        d="M473,728.51c2.14-1.31,48.12,3.28,46.06-3.06-.15-2.49,1-7.9-3.06-7.81H478.55C473.43,716.72,465.66,726.88,473,728.51Z" />
    <path class="cls-8" d="M508.24,723.07c-.07,4.27,6.64,4.27,6.58,0S508.17,718.8,508.24,723.07Z" />
    <path class="cls-10"
        d="M935.86,913.08c0,1,0,2.06-.1,3.08,85.81,2.91,107.5,1.75,107.29-91.8H935.86L909.64,853.1A81.45,81.45,0,0,1,935.86,913.08Z" />
    <path class="cls-10"
        d="M1028.6,825.85l14.45-.93c.36-.23-2.85-7.34-2.89-7.65L1028.87,674C1004.24,669.14,1031.92,821,1028.6,825.85Z" />
    <polygon class="cls-11"
        points="1022.17 683.96 1031.88 815.31 1039.88 813.82 1029.43 680.69 1022.17 683.96" />
    <path class="cls-12"
        d="M290.25,703.13c2.67-.93,17.8,2.53,17.4-3-.54-2.59,1.8-11.28-2.95-11.11-2.67.92-17.8-2.53-17.4,2.95C287.83,694.61,285.5,703.3,290.25,703.13Z" />
    <path class="cls-13"
        d="M309.44,711.92c9.14-1.87,40.24,6.38,39.63-10.41,5.19-29.51-21.77-19.71-39.63-21.23C294.49,680.12,294.51,712.08,309.44,711.92Z" />
    <path class="cls-10"
        d="M36.69,820.91c2.35,52,9.65,89.47,72.49,95.25a80.94,80.94,0,0,1,25.66-62.5L67.25,848l-31-52.44Z" />
    <path class="cls-1"
        d="M772.87,913.06c.48,106.6,162.56,106.59,163,0C935.42,806.45,773.33,806.46,772.87,913.06Z" />
    <path class="cls-2"
        d="M800.73,913.06c-1,69.6,108.33,69.61,107.3,0C909.05,843.45,799.71,843.45,800.73,913.06Z" />
    <path class="cls-3"
        d="M806.09,913.06c-.92,62.65,97.51,62.65,96.58,0C903.59,850.4,805.17,850.4,806.09,913.06Z" />
    <path class="cls-1"
        d="M829.73,913.06c-.47,32,49.78,32,49.3,0C879.5,881.07,829.26,881.07,829.73,913.06Z" />
    <path class="cls-2"
        d="M832.2,913.06c-.42,28.77,44.79,28.77,44.36,0C877,884.28,831.78,884.28,832.2,913.06Z" />
    <path class="cls-1"
        d="M849.65,876.51c-.09,6.14,9.55,6.14,9.46,0C859.2,870.38,849.56,870.38,849.65,876.51Z" />
    <path class="cls-1"
        d="M832,883.73c3,5.36,11.34.53,8.19-4.74C837.18,873.64,828.83,878.46,832,883.73Z" />
    <path class="cls-1"
        d="M820.29,898.82c5.28,3.14,10.09-5.22,4.72-8.2C819.74,887.48,814.93,895.84,820.29,898.82Z" />
    <path class="cls-1"
        d="M817.73,917.73c6.14.08,6.12-9.56,0-9.46C811.58,908.19,811.59,917.84,817.73,917.73Z" />
    <path class="cls-1"
        d="M825,935.39c5.35-3,.51-11.34-4.75-8.18C814.87,930.21,819.72,938.55,825,935.39Z" />
    <path class="cls-1"
        d="M840.09,947.05c3.13-5.28-5.23-10.07-8.21-4.7S837.12,952.42,840.09,947.05Z" />
    <path class="cls-1"
        d="M859,949.58c.07-6.14-9.58-6.1-9.46,0C849.48,955.75,859.12,955.72,859,949.58Z" />
    <path class="cls-1"
        d="M876.65,942.3c-3-5.34-11.34-.49-8.17,4.77C871.49,952.41,879.82,947.56,876.65,942.3Z" />
    <path class="cls-1"
        d="M888.29,927.17c-5.29-3.12-10.07,5.25-4.7,8.22S893.66,930.13,888.29,927.17Z" />
    <path class="cls-1"
        d="M890.78,908.25c-6.14-.06-6.08,9.58.05,9.46C897,917.77,896.92,908.12,890.78,908.25Z" />
    <path class="cls-1"
        d="M883.47,890.62c-5.34,3-.47,11.34,4.78,8.16C893.59,895.76,888.72,887.44,883.47,890.62Z" />
    <path class="cls-1"
        d="M868.32,879c-3.11,5.29,5.27,10.06,8.22,4.68C879.65,878.4,871.27,873.63,868.32,879Z" />
    <path class="cls-1"
        d="M109.06,913.06c.48,106.6,162.56,106.59,163,0C271.61,806.45,109.52,806.46,109.06,913.06Z" />
    <path class="cls-2"
        d="M136.92,913.06c-1,69.6,108.33,69.61,107.3,0C245.24,843.45,135.9,843.45,136.92,913.06Z" />
    <path class="cls-3"
        d="M142.28,913.06c-.92,62.65,97.51,62.65,96.58,0C239.78,850.4,141.36,850.4,142.28,913.06Z" />
    <path class="cls-1"
        d="M165.92,913.06c-.47,32,49.78,32,49.3,0C215.69,881.07,165.45,881.07,165.92,913.06Z" />
    <path class="cls-2"
        d="M168.39,913.06c-.42,28.77,44.79,28.77,44.36,0C213.17,884.28,168,884.28,168.39,913.06Z" />
    <path class="cls-1"
        d="M185.84,876.51c-.09,6.14,9.55,6.14,9.46,0C195.39,870.38,185.75,870.38,185.84,876.51Z" />
    <path class="cls-1"
        d="M168.17,883.73c3,5.36,11.34.53,8.19-4.74C173.37,873.64,165,878.46,168.17,883.73Z" />
    <path class="cls-1"
        d="M156.48,898.82c5.28,3.14,10.09-5.22,4.72-8.2C155.93,887.48,151.12,895.84,156.48,898.82Z" />
    <path class="cls-1"
        d="M153.92,917.73c6.14.08,6.12-9.56,0-9.46C147.77,908.19,147.78,917.84,153.92,917.73Z" />
    <path class="cls-1"
        d="M161.17,935.39c5.35-3,.51-11.34-4.75-8.18C151.06,930.21,155.91,938.55,161.17,935.39Z" />
    <path class="cls-1"
        d="M176.28,947.05c3.13-5.28-5.23-10.07-8.21-4.7S173.31,952.42,176.28,947.05Z" />
    <path class="cls-1"
        d="M195.2,949.58c.07-6.14-9.58-6.1-9.46,0C185.67,955.75,195.31,955.72,195.2,949.58Z" />
    <path class="cls-1"
        d="M212.84,942.3c-3-5.34-11.34-.49-8.17,4.77C207.68,952.41,216,947.56,212.84,942.3Z" />
    <path class="cls-1"
        d="M224.48,927.17c-5.29-3.12-10.07,5.25-4.7,8.22S229.85,930.13,224.48,927.17Z" />
    <path class="cls-1"
        d="M227,908.25c-6.14-.06-6.08,9.58.05,9.46C233.16,917.77,233.11,908.12,227,908.25Z" />
    <path class="cls-1"
        d="M219.66,890.62c-5.34,3-.47,11.34,4.78,8.16C229.78,895.76,224.91,887.44,219.66,890.62Z" />
    <path class="cls-1"
        d="M204.51,879c-3.11,5.29,5.27,10.06,8.22,4.68C215.84,878.4,207.46,873.63,204.51,879Z" />
    <path class="cls-4"
        d="M64,835c.25,3,6.3,13.24,3.22,13.07,8.85.49,35.77,4.88,39.41-7.85,4.38-30.88-1.24-34.86-31.35-32.84A46.51,46.51,0,0,0,64,835Z" />
    <path class="cls-15"
        d="M64,835c.25,3,2.9,10,3.22,13.07l8.5.71c5.2-11.37,8.92-28.86,9.08-41.4H75.31A46.51,46.51,0,0,0,64,835Z" />
    <path class="cls-15"
        d="M35.72,782.81c.29,2.91.36,8.82.57,12.11a2.59,2.59,0,0,0,.3,1.19l4.47,7.56c.48-8,1.42-23.93,1.32-33.07a4.76,4.76,0,0,0-1.56-3.44L34,760.89Z" />
    <polygon class="cls-16"
        points="125.03 756.11 125.02 756.1 178.74 725.82 177.56 723.82 125.03 756.11" />
    <polygon class="cls-16"
        points="76.39 717.64 76.39 717.63 130.1 687.36 128.93 685.36 76.39 717.64" />
</svg>