<svg id="Capa_1" data-name="Capa 1" xmlns="http://www.w3.org/2000/svg" viewBox="0 0 1080 1350">
    <defs>
        <style>
            .cls-1{fill:#434342;}.cls-14{fill:#c4c2c1;}.cls-3{fill:#353535;opacity:0.29;}.cls-4{fill:#fda524;}.cls-5{fill:#b6b6b6;}.cls-6,.cls-7{fill:none;stroke-miterlimit:10;}.cls-6{stroke:#434342;stroke-width:7px;}.cls-7{stroke:#a5a5a5;stroke-width:1.57px;}.cls-8{fill:#191919;}.cls-9{fill:#acacac;}.cls-10{fill:#bdbdbd;}</style>
    </defs>
    <polygon class="cls-1"
        points="216.73 569.97 240.39 579.17 279.39 512.37 259.31 500.64 216.73 569.97" />
    <path class="cls-14"
        d="M244.43,499.67l33.73,12.79,33.39,20.07,24.66,239.66s2.59,31.09,36.65,35.37l33.74,11.08,303.9,13.53,176.82-92.69s12.16-13.18-2.07-20.77L597,564.81s-5.21-16.79-7.3-21-17.87-30.68-17.87-30.68-23.2-28.73-28.5-33.64-28.11-22.62-28.11-22.62L488.91,441l-17.83-7.55-23-8.91-14.52-3.66-19.21-7.42-25-6.29s-10.75-1.54-14.18,4.06l-3.42,5.6-17.61,52-38.39-17-2-.46-1.87,3.2L295,448.2l-12.93-7.43-2-.46Z" />
    <path class="cls-3"
        d="M353.14,544.34h0l11.47,58.38,6.2,47.72,20.31,111.7,15.48,56.5-33.74-11.08s-30.64,2.45-36.65-35.37-23.95-238-23.95-238Z" />
    <circle class="cls-4" cx="302.71" cy="429.99" r="40.49"
        transform="translate(-215.39 339.99) rotate(-45)" />
    <path class="cls-5"
        d="M344.8,461.48c-30.81,13.6-61.71,9.8-61.71,9.8l2.37-42.14L287.84,387s31.45-1.48,60.42,15.49C371.58,416.17,369.53,450.57,344.8,461.48Z" />
    <path class="cls-6" d="M351,447.2l70.38-149.33a8.21,8.21,0,0,1,10.77-4l55.24,24.7" />
    <line class="cls-7" x1="921.53" y1="747.56" x2="876.74" y2="640.21" />
    <line class="cls-7" x1="921.53" y1="747.56" x2="813.95" y2="703.32" />
    <line class="cls-7" x1="921.53" y1="747.56" x2="814.17" y2="792.35" />
    <line class="cls-7" x1="921.53" y1="747.56" x2="877.28" y2="855.14" />
    <line class="cls-7" x1="921.53" y1="747.56" x2="966.31" y2="854.92" />
    <line class="cls-7" x1="921.53" y1="747.56" x2="1029.1" y2="791.81" />
    <line class="cls-7" x1="921.53" y1="747.56" x2="1028.88" y2="702.78" />
    <line class="cls-7" x1="921.53" y1="747.56" x2="965.77" y2="639.99" />
    <line class="cls-7" x1="939.27" y1="709.3" x2="897.56" y2="640.08" />
    <line class="cls-7" x1="949.87" y1="707.76" x2="908.16" y2="638.54" />
    <line class="cls-7" x1="903.78" y1="709.3" x2="945.49" y2="640.08" />
    <line class="cls-7" x1="893.18" y1="707.76" x2="934.89" y2="638.54" />
    <line class="cls-7" x1="907.01" y1="707.96" x2="828.57" y2="688.51" />
    <line class="cls-7" x1="913.42" y1="699.37" x2="834.99" y2="679.92" />
    <line class="cls-7" x1="881.92" y1="733.05" x2="862.47" y2="654.61" />
    <line class="cls-7" x1="873.33" y1="739.46" x2="853.88" y2="661.02" />
    <line class="cls-7" x1="883.26" y1="729.82" x2="814.04" y2="771.53" />
    <line class="cls-7" x1="881.72" y1="719.22" x2="812.5" y2="760.93" />
    <line class="cls-7" x1="883.26" y1="765.31" x2="814.04" y2="723.6" />
    <line class="cls-7" x1="881.72" y1="775.91" x2="812.5" y2="734.2" />
    <line class="cls-7" x1="881.92" y1="762.08" x2="862.47" y2="840.52" />
    <line class="cls-7" x1="873.33" y1="755.67" x2="853.88" y2="834.1" />
    <line class="cls-7" x1="907.01" y1="787.17" x2="828.57" y2="806.62" />
    <line class="cls-7" x1="913.42" y1="795.76" x2="834.99" y2="815.21" />
    <line class="cls-7" x1="903.78" y1="785.83" x2="945.49" y2="855.05" />
    <line class="cls-7" x1="893.18" y1="787.37" x2="934.89" y2="856.59" />
    <line class="cls-7" x1="939.27" y1="785.83" x2="897.56" y2="855.05" />
    <line class="cls-7" x1="949.87" y1="787.37" x2="908.16" y2="856.59" />
    <line class="cls-7" x1="936.04" y1="787.17" x2="1014.48" y2="806.62" />
    <line class="cls-7" x1="929.63" y1="795.76" x2="1008.07" y2="815.21" />
    <line class="cls-7" x1="961.13" y1="762.08" x2="980.58" y2="840.52" />
    <line class="cls-7" x1="969.72" y1="755.67" x2="989.17" y2="834.1" />
    <line class="cls-7" x1="959.79" y1="765.31" x2="1029.01" y2="723.6" />
    <line class="cls-7" x1="961.33" y1="775.91" x2="1030.55" y2="734.2" />
    <line class="cls-7" x1="959.79" y1="729.82" x2="1029.01" y2="771.53" />
    <line class="cls-7" x1="961.33" y1="719.22" x2="1030.55" y2="760.93" />
    <line class="cls-7" x1="961.13" y1="733.05" x2="980.58" y2="654.61" />
    <line class="cls-7" x1="969.72" y1="739.46" x2="989.17" y2="661.02" />
    <line class="cls-7" x1="936.04" y1="707.96" x2="1014.48" y2="688.51" />
    <line class="cls-7" x1="929.63" y1="699.37" x2="1008.07" y2="679.92" />
    <path class="cls-8"
        d="M774.92,747.56A146.61,146.61,0,1,0,921.53,601,146.6,146.6,0,0,0,774.92,747.56Zm37.58,0a109,109,0,1,1,109,109A109,109,0,0,1,812.5,747.56Z" />
    <circle class="cls-9" cx="921.53" cy="747.56" r="56.45" />
    <path class="cls-10"
        d="M921.53,641.68A105.89,105.89,0,1,1,815.64,747.57,106,106,0,0,1,921.53,641.68m0-3.14a109,109,0,1,0,109,109,109,109,0,0,0-109-109Z" />
    <path class="cls-14"
        d="M181.49,566.31A170,170,0,0,1,351.3,727.68a6.58,6.58,0,0,1-8.06,6.72l-1.51-.36c-16-3.75-29.07-15.79-33.32-31.69A131.4,131.4,0,0,0,181.49,605h-.24a45.74,45.74,0,0,1-38.59-20.39l-2.7-4.12a6.56,6.56,0,0,1,4-10A170.69,170.69,0,0,1,181.49,566.31Z" />
    <line class="cls-7" x1="181.49" y1="736.33" x2="133.28" y2="620.76" />
    <line class="cls-7" x1="181.49" y1="736.33" x2="65.68" y2="688.7" />
    <line class="cls-7" x1="181.49" y1="736.33" x2="65.92" y2="784.55" />
    <line class="cls-7" x1="181.49" y1="736.33" x2="133.86" y2="852.15" />
    <line class="cls-7" x1="181.49" y1="736.33" x2="229.71" y2="851.91" />
    <line class="cls-7" x1="181.49" y1="736.33" x2="297.31" y2="783.97" />
    <line class="cls-7" x1="181.49" y1="736.33" x2="297.07" y2="688.12" />
    <line class="cls-7" x1="181.49" y1="736.33" x2="229.13" y2="620.52" />
    <line class="cls-7" x1="200.6" y1="695.14" x2="155.69" y2="620.62" />
    <line class="cls-7" x1="212.01" y1="693.48" x2="167.11" y2="618.96" />
    <line class="cls-7" x1="162.39" y1="695.14" x2="207.3" y2="620.62" />
    <line class="cls-7" x1="150.97" y1="693.48" x2="195.88" y2="618.96" />
    <line class="cls-7" x1="165.87" y1="693.7" x2="81.42" y2="672.75" />
    <line class="cls-7" x1="172.77" y1="684.45" x2="88.32" y2="663.51" />
    <line class="cls-7" x1="138.85" y1="720.71" x2="117.91" y2="636.26" />
    <line class="cls-7" x1="129.61" y1="727.61" x2="108.67" y2="643.17" />
    <line class="cls-7" x1="140.29" y1="717.23" x2="65.77" y2="762.14" />
    <line class="cls-7" x1="138.64" y1="705.82" x2="64.12" y2="750.72" />
    <line class="cls-7" x1="140.29" y1="755.44" x2="65.77" y2="710.53" />
    <line class="cls-7" x1="138.64" y1="766.85" x2="64.12" y2="721.95" />
    <line class="cls-7" x1="138.85" y1="751.96" x2="117.91" y2="836.41" />
    <line class="cls-7" x1="129.61" y1="745.06" x2="108.67" y2="829.5" />
    <line class="cls-7" x1="165.87" y1="778.97" x2="81.42" y2="799.92" />
    <line class="cls-7" x1="172.77" y1="788.22" x2="88.32" y2="809.16" />
    <line class="cls-7" x1="162.39" y1="777.53" x2="207.3" y2="852.05" />
    <line class="cls-7" x1="150.97" y1="779.19" x2="195.88" y2="853.71" />
    <line class="cls-7" x1="200.6" y1="777.53" x2="155.69" y2="852.05" />
    <line class="cls-7" x1="212.01" y1="779.19" x2="167.11" y2="853.71" />
    <line class="cls-7" x1="197.12" y1="778.97" x2="281.56" y2="799.92" />
    <line class="cls-7" x1="190.22" y1="788.22" x2="274.66" y2="809.16" />
    <line class="cls-7" x1="224.13" y1="751.96" x2="245.07" y2="836.41" />
    <line class="cls-7" x1="233.38" y1="745.06" x2="254.32" y2="829.5" />
    <line class="cls-7" x1="222.69" y1="755.44" x2="297.21" y2="710.53" />
    <line class="cls-7" x1="224.35" y1="766.85" x2="298.87" y2="721.95" />
    <line class="cls-7" x1="222.69" y1="717.23" x2="297.21" y2="762.14" />
    <line class="cls-7" x1="224.35" y1="705.82" x2="298.87" y2="750.72" />
    <line class="cls-7" x1="224.13" y1="720.71" x2="245.07" y2="636.26" />
    <line class="cls-7" x1="233.38" y1="727.61" x2="254.32" y2="643.17" />
    <line class="cls-7" x1="197.12" y1="693.7" x2="281.56" y2="672.75" />
    <line class="cls-7" x1="190.22" y1="684.45" x2="274.66" y2="663.51" />
    <path class="cls-8"
        d="M23.65,736.33A157.84,157.84,0,1,0,181.49,578.5,157.84,157.84,0,0,0,23.65,736.33Zm40.47,0A117.38,117.38,0,1,1,181.49,853.71,117.37,117.37,0,0,1,64.12,736.33Z" />
    <circle class="cls-9" cx="181.49" cy="736.33" r="60.78" />
    <path class="cls-10"
        d="M181.49,622.1a114.24,114.24,0,1,1-80.77,33.46,113.48,113.48,0,0,1,80.77-33.46m0-3.14A117.38,117.38,0,1,0,298.87,736.33,117.37,117.37,0,0,0,181.49,619Z" />
    <path class="cls-1"
        d="M176,744.53h0a11.63,11.63,0,0,0,15.91-4.18L312.26,534.23,292.17,522.5,171.82,728.62A11.63,11.63,0,0,0,176,744.53Z" />
    <rect class="cls-1" x="311.63" y="417.07" width="33.63" height="132.86" rx="1.93"
        transform="translate(368.31 1066.64) rotate(-149.72)" />
    <rect class="cls-1" x="287.18" y="535.65" width="6.11" height="26.46"
        transform="translate(-330.11 522.77) rotate(-59.72)" />
    <rect class="cls-1" x="284.43" y="540.35" width="6.11" height="26.46"
        transform="translate(-335.54 522.73) rotate(-59.72)" />
    <rect class="cls-1" x="281.68" y="545.06" width="6.11" height="26.46"
        transform="translate(-340.96 522.69) rotate(-59.72)" />
    <rect class="cls-1" x="278.93" y="549.77" width="6.11" height="26.46"
        transform="translate(-346.39 522.65) rotate(-59.72)" />
    <rect class="cls-1" x="276.18" y="554.48" width="6.11" height="26.46"
        transform="translate(-351.82 522.61) rotate(-59.72)" />
    <rect class="cls-1" x="273.43" y="559.19" width="6.11" height="26.46"
        transform="translate(-357.25 522.57) rotate(-59.72)" />
    <rect class="cls-1" x="270.68" y="563.89" width="6.11" height="26.46"
        transform="translate(-362.68 522.53) rotate(-59.72)" />
    <rect class="cls-1" x="267.94" y="568.6" width="6.11" height="26.46"
        transform="translate(-368.11 522.49) rotate(-59.72)" />
    <rect class="cls-1" x="265.19" y="573.31" width="6.11" height="26.46"
        transform="translate(-373.54 522.46) rotate(-59.72)" />
    <polygon class="cls-1"
        points="493.42 305.06 481.34 332.09 515.74 348.95 528.26 320.43 493.42 305.06" />
    <path class="cls-14"
        d="M820.2,678.23c8-15.13,35.54-34.34,35.54-34.34a130.06,130.06,0,0,1,49.89-18.2,120.58,120.58,0,0,1,53.1,4.7c2,.54,8,2.6,15,2s15.64-1.54,22-5.25S1008,619.3,1008,619.3s4.36-5.27-.43-8.34-21.14-11.71-27.51-14-29.21-9.62-43.87-10.28-31.67-.48-42.19,1.71-42.62,13.85-42.62,13.85a5.44,5.44,0,0,1,2,2,5,5,0,0,1,.51,2.91,6.22,6.22,0,0,1-1,2.45c-.42.46-5.19,3.88-5.19,3.88L812.5,638.05,792,651.42,786,660Z" />
    <path class="cls-1"
        d="M718.37,599.26l30,14.7a53.66,53.66,0,0,0,55.14-4.78l6.38-4.63a38.36,38.36,0,0,1,41.48-2.34h0a4.93,4.93,0,0,1,.4,8.33L799.6,647.09A46,46,0,0,1,753,650.72l-76.2-37.33a4.93,4.93,0,0,1-1.12-8.1l.16-.15A38.37,38.37,0,0,1,718.37,599.26Z" />
</svg>