<svg id="Capa_1" data-name="Capa 1" xmlns="http://www.w3.org/2000/svg" viewBox="0 0 1080 1350">
    <defs>
        <style>
            .cls-1{fill:#1e1e1e;}.cls-2{fill:#9693a6;}.cls-3{fill:#8c8d96;}.cls-14{fill:#c3c1c0;}.cls-5,.cls-7{fill:#353535;}.cls-5{opacity:0.29;}.cls-6{fill:#696565;}.cls-8{fill:#1d232a;}.cls-9{fill:#a7adb1;}.cls-10{fill:#383f48;}.cls-11{fill:#96a0a1;}.cls-12{fill:#b2b2b2;}.cls-13{fill:#606060;}.cls-4{fill:#d4d9dd;}</style>
    </defs>
    <path class="cls-1"
        d="M915.16,825.6a89.84,89.84,0,0,1-179.68,0c0-49.62,40.22-59.13,89.84-59.13S915.16,776,915.16,825.6Z" />
    <circle class="cls-2" cx="825.32" cy="825.6" r="59.13" />
    <circle class="cls-3" cx="825.32" cy="825.6" r="53.23" />
    <circle class="cls-1" cx="825.32" cy="825.6" r="27.17" />
    <circle class="cls-2" cx="825.32" cy="825.6" r="24.45" />
    <circle class="cls-1" cx="825.32" cy="785.32" r="5.21" />
    <circle class="cls-1" cx="845.5" cy="790.66" r="5.21" />
    <circle class="cls-1" cx="860.29" cy="805.39" r="5.21" />
    <circle class="cls-1" cx="865.73" cy="825.54" r="5.21" />
    <circle class="cls-1" cx="860.35" cy="845.71" r="5.21" />
    <circle class="cls-1" cx="845.59" cy="860.47" r="5.21" />
    <circle class="cls-1" cx="825.43" cy="865.87" r="5.21" />
    <circle class="cls-1" cx="805.28" cy="860.46" r="5.21" />
    <circle class="cls-1" cx="790.54" cy="845.68" r="5.21" />
    <circle class="cls-1" cx="785.17" cy="825.51" r="5.21" />
    <circle class="cls-1" cx="790.62" cy="805.36" r="5.21" />
    <circle class="cls-1" cx="805.43" cy="790.65" r="5.21" />
    <path class="cls-1"
        d="M682.25,823.18a89.84,89.84,0,0,1-179.68,0c0-49.62,40.22-59.14,89.84-59.14S682.25,773.56,682.25,823.18Z" />
    <circle class="cls-2" cx="592.41" cy="823.18" r="59.13" />
    <circle class="cls-3" cx="592.41" cy="823.18" r="53.23" />
    <circle class="cls-1" cx="592.41" cy="823.18" r="27.17" />
    <circle class="cls-2" cx="592.41" cy="823.18" r="24.45" />
    <circle class="cls-1" cx="592.41" cy="782.9" r="5.21" />
    <circle class="cls-1" cx="612.59" cy="788.24" r="5.21" />
    <circle class="cls-1" cx="627.38" cy="802.97" r="5.21" />
    <circle class="cls-1" cx="632.81" cy="823.12" r="5.21" />
    <circle class="cls-1" cx="627.44" cy="843.29" r="5.21" />
    <circle class="cls-1" cx="612.68" cy="858.05" r="5.21" />
    <circle class="cls-1" cx="592.52" cy="863.45" r="5.21" />
    <circle class="cls-1" cx="572.37" cy="858.04" r="5.21" />
    <circle class="cls-1" cx="557.63" cy="843.26" r="5.21" />
    <circle class="cls-1" cx="552.26" cy="823.09" r="5.21" />
    <circle class="cls-1" cx="557.71" cy="802.94" r="5.21" />
    <circle class="cls-1" cx="572.52" cy="788.23" r="5.21" />
    <path class="cls-1"
        d="M228.57,809.68a89.84,89.84,0,0,1-179.68,0c0-49.62,40.22-59.13,89.84-59.13S228.57,760.06,228.57,809.68Z" />
    <circle class="cls-2" cx="138.73" cy="809.68" r="59.13" />
    <circle class="cls-3" cx="138.73" cy="809.68" r="53.23" />
    <circle class="cls-1" cx="138.73" cy="809.68" r="27.17" />
    <circle class="cls-2" cx="138.73" cy="809.68" r="24.45" />
    <circle class="cls-1" cx="138.73" cy="769.4" r="5.21" />
    <circle class="cls-1" cx="158.91" cy="774.74" r="5.21" />
    <circle class="cls-1" cx="173.7" cy="789.47" r="5.21" />
    <circle class="cls-1" cx="179.14" cy="809.62" r="5.21" />
    <circle class="cls-1" cx="173.76" cy="829.79" r="5.21" />
    <circle class="cls-1" cx="159.01" cy="844.55" r="5.21" />
    <circle class="cls-1" cx="138.84" cy="849.95" r="5.21" />
    <circle class="cls-1" cx="118.69" cy="844.54" r="5.21" />
    <circle class="cls-1" cx="103.95" cy="829.76" r="5.21" />
    <circle class="cls-1" cx="98.58" cy="809.59" r="5.21" />
    <circle class="cls-1" cx="104.03" cy="789.44" r="5.21" />
    <circle class="cls-1" cx="118.84" cy="774.73" r="5.21" />
    <path class="cls-14"
        d="M29.58,821.85l39.89,38.81,2.44,1.2,36.17-.09,469.37-.36,468.75-3.79v-27.7l-66.11-68.78H567.73V433.27l-42.34-40-18.12,7.44-16.37,7.8-19.39,10.75-9.91,6.36S445.47,437.9,444,439.21s-11.5,12-11.5,12-8.35,13.06-9,14.6-3.17,11.93-3.17,11.93h-136L171.76,597.07,60.31,603s-13.56,1-13.56,14.29V772.4s-6.82-.9-8.24-.91a25.73,25.73,0,0,0-4.56.31,14.26,14.26,0,0,0-1.62.6l-2.51,6.86-2.16,8.83-3,18.51v7.24l.57,2.56.77,2.69a8.82,8.82,0,0,0,.91,1.35c.25.21.86.59.86.59Z" />
    <polygon class="cls-5"
        points="565.07 803.15 565.07 863.51 1022.6 860.02 1022.6 803.15 565.07 803.15" />
    <path class="cls-5" d="M567.9,435.28S467,472.37,462.9,519.76s-.43,344.11-.43,344.11H567.9Z" />
    <path class="cls-5"
        d="M104.34,645l109.93-5.9,10,126.49-120,98.22-15,.08V659.27C89.25,651.66,95.88,645.38,104.34,645Z" />
    <polygon class="cls-5"
        points="462.9 519.76 326.91 519.76 214.26 639.08 223.88 772.97 462.59 772.97 462.9 519.76" />
    <polygon class="cls-5"
        points="1022.6 803.15 1046.38 831.93 1046.38 859.63 1022.6 860.02 1022.6 803.15" />
    <polygon class="cls-6"
        points="46.75 772.4 89.25 807.66 70.84 808.19 32.33 772.4 32.25 772.19 33.81 771.83 37.08 771.51 38.84 771.5 40.74 771.65 46.75 772.4" />
    <polygon class="cls-6"
        points="46.75 772.4 37.08 771.51 33.95 771.8 32.25 772.19 29.82 779.26 27.66 788.09 26.61 794.54 24.64 806.6 24.64 813.84 25.21 816.4 25.98 819.09 26.89 820.44 27.75 821.03 29.02 821.59 29.58 821.85 69.47 860.66 71.91 861.86 89.25 861.86 89.25 807.66 46.75 772.4" />
    <polygon class="cls-7"
        points="32.33 772.4 70.84 808.19 89.25 807.66 89.25 861.86 71.91 861.86 70.84 808.86 32.33 772.4" />
    <polygon class="cls-8"
        points="442.18 551.88 331.94 551.88 260.17 647.01 440.58 649.57 442.18 551.88" />
    <path class="cls-9"
        d="M403.37,661h38a.85.85,0,0,1,.85.85v11.63a1.36,1.36,0,0,1-1.36,1.36H403a.44.44,0,0,1-.44-.44V661.81a.85.85,0,0,1,.85-.85Z"
        transform="translate(844.7 1335.76) rotate(180)" />
    <path class="cls-10"
        d="M405,668.25h34.72a2.29,2.29,0,0,0,2.47-2V663a2.29,2.29,0,0,0-2.47-2H409.48a6.91,6.91,0,0,0-6.1,3.24l-.63,1.14C402,666.7,403.19,668.25,405,668.25Z" />
    <ellipse class="cls-9" cx="436.1" cy="664.61" rx="2.66" ry="2.21" />
    <polygon class="cls-11"
        points="461.07 864.78 452.95 864.78 452.95 789.46 238.96 789.46 238.96 773.89 458.06 773.89 461.07 864.78" />
    <rect class="cls-12" x="239.56" y="799.99" width="213.38" height="13.97" />
    <polygon class="cls-13"
        points="452.94 788.54 449.91 788.54 449.91 796.5 452.94 799.99 452.94 788.54" />
    <polygon class="cls-4"
        points="452.92 799.99 450.13 796.5 242.19 796.99 239.56 799.99 452.92 799.99" />
    <rect class="cls-12" x="239.56" y="825.4" width="213.37" height="13.97" />
    <polygon class="cls-13"
        points="452.93 813.96 449.9 813.96 449.9 821.91 452.93 825.4 452.93 813.96" />
    <polygon class="cls-4"
        points="452.91 825.4 450.12 821.91 242.19 822.4 239.56 825.4 452.91 825.4" />
    <rect class="cls-12" x="238.65" y="850.82" width="214.28" height="13.97" />
    <polygon class="cls-13"
        points="452.93 839.37 449.9 839.37 449.9 847.32 452.93 850.82 452.93 839.37" />
    <polygon class="cls-4"
        points="452.91 850.82 450.1 847.32 241.29 847.81 238.65 850.82 452.91 850.82" />
    <circle class="cls-1" cx="196.31" cy="878.81" r="89.84" />
    <circle class="cls-2" cx="196.31" cy="878.81" r="59.13" />
    <circle class="cls-3" cx="196.31" cy="878.81" r="53.23" />
    <circle class="cls-1" cx="196.31" cy="878.81" r="27.17" />
    <circle class="cls-2" cx="196.31" cy="878.81" r="24.45" />
    <circle class="cls-1" cx="196.31" cy="838.53" r="5.21" />
    <circle class="cls-1" cx="216.49" cy="843.87" r="5.21" />
    <circle class="cls-1" cx="231.28" cy="858.6" r="5.21" />
    <circle class="cls-1" cx="236.72" cy="878.75" r="5.21" />
    <circle class="cls-1" cx="231.34" cy="898.92" r="5.21" />
    <circle class="cls-1" cx="216.59" cy="913.68" r="5.21" />
    <circle class="cls-1" cx="196.42" cy="919.08" r="5.21" />
    <circle class="cls-1" cx="176.27" cy="913.67" r="5.21" />
    <circle class="cls-1" cx="161.53" cy="898.89" r="5.21" />
    <circle class="cls-1" cx="156.16" cy="878.72" r="5.21" />
    <circle class="cls-1" cx="161.61" cy="858.57" r="5.21" />
    <circle class="cls-1" cx="176.42" cy="843.86" r="5.21" />
    <circle class="cls-1" cx="667.29" cy="878.82" r="89.84" />
    <circle class="cls-2" cx="667.29" cy="878.82" r="59.13" />
    <circle class="cls-3" cx="667.29" cy="878.82" r="53.23" />
    <circle class="cls-1" cx="667.29" cy="878.82" r="27.17" />
    <circle class="cls-2" cx="667.29" cy="878.82" r="24.45" />
    <circle class="cls-1" cx="667.29" cy="838.55" r="5.21" />
    <circle class="cls-1" cx="687.47" cy="843.89" r="5.21" />
    <circle class="cls-1" cx="702.26" cy="858.62" r="5.21" />
    <circle class="cls-1" cx="707.7" cy="878.77" r="5.21" />
    <circle class="cls-1" cx="702.32" cy="898.93" r="5.21" />
    <circle class="cls-1" cx="687.56" cy="913.7" r="5.21" />
    <circle class="cls-1" cx="667.4" cy="919.1" r="5.21" />
    <circle class="cls-1" cx="647.25" cy="913.68" r="5.21" />
    <circle class="cls-1" cx="632.51" cy="898.91" r="5.21" />
    <circle class="cls-1" cx="627.14" cy="878.74" r="5.21" />
    <circle class="cls-1" cx="632.59" cy="858.59" r="5.21" />
    <circle class="cls-1" cx="647.4" cy="843.88" r="5.21" />
    <circle class="cls-1" cx="899.85" cy="878.82" r="89.84" />
    <circle class="cls-2" cx="899.85" cy="878.82" r="59.13" />
    <circle class="cls-3" cx="899.85" cy="878.82" r="53.23" />
    <circle class="cls-1" cx="899.85" cy="878.82" r="27.17" />
    <circle class="cls-2" cx="899.85" cy="878.82" r="24.45" />
    <circle class="cls-1" cx="899.85" cy="838.55" r="5.21" />
    <circle class="cls-1" cx="920.02" cy="843.89" r="5.21" />
    <circle class="cls-1" cx="934.82" cy="858.62" r="5.21" />
    <circle class="cls-1" cx="940.25" cy="878.77" r="5.21" />
    <circle class="cls-1" cx="934.87" cy="898.93" r="5.21" />
    <circle class="cls-1" cx="920.12" cy="913.7" r="5.21" />
    <circle class="cls-1" cx="899.96" cy="919.1" r="5.21" />
    <circle class="cls-1" cx="879.8" cy="913.68" r="5.21" />
    <circle class="cls-1" cx="865.06" cy="898.91" r="5.21" />
    <circle class="cls-1" cx="859.7" cy="878.74" r="5.21" />
    <circle class="cls-1" cx="865.15" cy="858.59" r="5.21" />
    <circle class="cls-1" cx="879.95" cy="843.88" r="5.21" />
    <path class="cls-11"
        d="M103.48,865.53s-.08-24.18,8.5-40.65,14-27.42,24.74-36.71,26.11-22.12,44-25.06,30.07-2.38,46.28,3.7a75.54,75.54,0,0,1,26.4,17L267.58,800s10.46,15.67,13.8,25.42,6.6,24.05,6.6,24.05l1.39,17.07-10-15.71-18.87-29.73s-7.93-10.7-14.87-15.8c-6-4.42-21.69-9.14-25.72-10.32a11.64,11.64,0,0,0-1.92-.38c-4.63-.5-24.66-2.49-31.15-.52-16.37,5-22.44,8.55-28.56,12.31-10.08,6.18-14.37,8.26-24.67,20.77C129.51,832.15,103.48,865.53,103.48,865.53Z" />
    <path class="cls-11"
        d="M574.35,873.48s-.08-24.18,8.49-40.65,14.56-20.38,25.32-29.68S657.72,802,657.72,802c-16.37,5-22.43,8.54-28.56,12.3-10.07,6.18-14.37,8.26-24.67,20.78C600.37,840.1,574.35,873.48,574.35,873.48Z" />
    <rect class="cls-8" x="1045.57" y="831.93" width="9.79" height="31.59"
        transform="translate(2100.94 1695.44) rotate(-180)" />
    <polygon class="cls-8"
        points="274.85 492.66 316.47 521.95 221.52 624.29 181.89 592.12 274.85 492.66" />
    <polygon class="cls-8" points="49.31 633.86 84.39 649.57 84.39 786.58 49.31 761.39 49.31 633.86" />
</svg>