<svg id="Capa_1" data-name="Capa 1" xmlns="http://www.w3.org/2000/svg"
    xmlns:xlink="http://www.w3.org/1999/xlink" viewBox="0 0 1080 1350">
    <defs>
        <style>
            .cls-1{fill:#1e1e1e;}.cls-2{fill:#9693a6;}.cls-3{fill:#8c8d96;}.cls-14{fill:#c4c2c1;}.cls-5,.cls-7{fill:#353535;}.cls-5{opacity:0.29;}.cls-6{fill:#fcfdff;}.cls-8{fill:#a7adb1;}.cls-9{fill:#383f48;}.cls-10{fill:url(#linear-gradient);}.cls-11{fill:#4a4a56;}.cls-12{fill:#292929;}.cls-13{fill:#fa0302;}.cls-4{fill:#fa8d07;}</style>
        <linearGradient id="linear-gradient" x1="-2004.04" y1="694.3" x2="-1993.93" y2="694.3"
            gradientTransform="translate(2110.43 68.68)" gradientUnits="userSpaceOnUse">
            <stop offset="0" stop-color="#161616" />
            <stop offset="0.3" stop-color="#1a1a1a" />
            <stop offset="0.79" stop-color="#1e1e1e" />
            <stop offset="0.8" stop-color="#1e1e1e" />
        </linearGradient>
    </defs>
    <circle class="cls-1" cx="735" cy="854.97" r="52.7" />
    <circle class="cls-2" cx="735" cy="854.97" r="34.69" />
    <circle class="cls-3" cx="735" cy="854.97" r="31.22" />
    <circle class="cls-1" cx="735" cy="854.97" r="15.94" />
    <circle class="cls-2" cx="735" cy="854.97" r="14.34" />
    <circle class="cls-1" cx="735" cy="831.34" r="3.06" />
    <circle class="cls-1" cx="746.84" cy="834.47" r="3.06" />
    <circle class="cls-1" cx="755.52" cy="843.11" r="3.06" />
    <circle class="cls-1" cx="758.71" cy="854.93" r="3.06" />
    <circle class="cls-1" cx="755.55" cy="866.76" r="3.06" />
    <circle class="cls-1" cx="746.9" cy="875.43" r="3.06" />
    <circle class="cls-1" cx="735.07" cy="878.59" r="3.06" />
    <circle class="cls-1" cx="723.24" cy="875.42" r="3.06" />
    <circle class="cls-1" cx="714.6" cy="866.75" r="3.06" />
    <circle class="cls-1" cx="711.45" cy="854.92" r="3.06" />
    <circle class="cls-1" cx="714.65" cy="843.1" r="3.06" />
    <circle class="cls-1" cx="723.33" cy="834.47" r="3.06" />
    <circle class="cls-1" cx="440.68" cy="856.3" r="52.7" />
    <circle class="cls-2" cx="440.68" cy="856.3" r="34.69" />
    <circle class="cls-3" cx="440.68" cy="856.3" r="31.22" />
    <circle class="cls-1" cx="440.68" cy="856.3" r="15.94" />
    <circle class="cls-2" cx="440.68" cy="856.3" r="14.34" />
    <circle class="cls-1" cx="440.68" cy="832.67" r="3.06" />
    <circle class="cls-1" cx="452.52" cy="835.81" r="3.06" />
    <circle class="cls-1" cx="461.2" cy="844.44" r="3.06" />
    <circle class="cls-1" cx="464.39" cy="856.27" r="3.06" />
    <circle class="cls-1" cx="461.23" cy="868.1" r="3.06" />
    <circle class="cls-1" cx="452.58" cy="876.76" r="3.06" />
    <circle class="cls-1" cx="440.75" cy="879.93" r="3.06" />
    <circle class="cls-1" cx="428.93" cy="876.75" r="3.06" />
    <circle class="cls-1" cx="420.28" cy="868.08" r="3.06" />
    <circle class="cls-1" cx="417.13" cy="856.25" r="3.06" />
    <circle class="cls-1" cx="420.33" cy="844.43" r="3.06" />
    <circle class="cls-1" cx="429.01" cy="835.8" r="3.06" />
    <circle class="cls-1" cx="339.57" cy="856.3" r="52.7" />
    <circle class="cls-2" cx="339.57" cy="856.3" r="34.69" />
    <circle class="cls-3" cx="339.57" cy="856.3" r="31.22" />
    <circle class="cls-1" cx="339.57" cy="856.3" r="15.94" />
    <circle class="cls-2" cx="339.57" cy="856.3" r="14.34" />
    <circle class="cls-1" cx="339.57" cy="832.67" r="3.06" />
    <circle class="cls-1" cx="351.41" cy="835.81" r="3.06" />
    <circle class="cls-1" cx="360.09" cy="844.44" r="3.06" />
    <circle class="cls-1" cx="363.28" cy="856.27" r="3.06" />
    <circle class="cls-1" cx="360.12" cy="868.1" r="3.06" />
    <circle class="cls-1" cx="351.47" cy="876.76" r="3.06" />
    <circle class="cls-1" cx="339.64" cy="879.93" r="3.06" />
    <circle class="cls-1" cx="327.82" cy="876.75" r="3.06" />
    <circle class="cls-1" cx="319.17" cy="868.08" r="3.06" />
    <circle class="cls-1" cx="316.02" cy="856.25" r="3.06" />
    <circle class="cls-1" cx="319.22" cy="844.43" r="3.06" />
    <circle class="cls-1" cx="327.9" cy="835.8" r="3.06" />
    <circle class="cls-1" cx="177.36" cy="865.04" r="52.7" />
    <circle class="cls-2" cx="177.36" cy="865.04" r="34.69" />
    <circle class="cls-3" cx="177.36" cy="865.04" r="31.22" />
    <circle class="cls-1" cx="177.36" cy="865.04" r="15.94" />
    <circle class="cls-2" cx="177.36" cy="865.04" r="14.34" />
    <circle class="cls-1" cx="177.36" cy="841.41" r="3.06" />
    <circle class="cls-1" cx="189.2" cy="844.54" r="3.06" />
    <circle class="cls-1" cx="197.88" cy="853.18" r="3.06" />
    <circle class="cls-1" cx="201.07" cy="865" r="3.06" />
    <circle class="cls-1" cx="197.91" cy="876.83" r="3.06" />
    <circle class="cls-1" cx="189.26" cy="885.5" r="3.06" />
    <circle class="cls-1" cx="177.43" cy="888.66" r="3.06" />
    <circle class="cls-1" cx="165.61" cy="885.49" r="3.06" />
    <circle class="cls-1" cx="156.96" cy="876.82" r="3.06" />
    <circle class="cls-1" cx="153.81" cy="864.99" r="3.06" />
    <circle class="cls-1" cx="157.01" cy="853.17" r="3.06" />
    <circle class="cls-1" cx="165.69" cy="844.54" r="3.06" />
    <circle class="cls-1" cx="886.7" cy="850.75" r="52.7" />
    <circle class="cls-2" cx="886.7" cy="850.75" r="34.69" />
    <circle class="cls-3" cx="886.7" cy="850.75" r="31.22" />
    <circle class="cls-1" cx="886.7" cy="850.75" r="15.94" />
    <circle class="cls-2" cx="886.7" cy="850.75" r="14.34" />
    <circle class="cls-1" cx="886.7" cy="827.13" r="3.06" />
    <circle class="cls-1" cx="898.54" cy="830.26" r="3.06" />
    <circle class="cls-1" cx="907.22" cy="838.9" r="3.06" />
    <circle class="cls-1" cx="910.41" cy="850.72" r="3.06" />
    <circle class="cls-1" cx="907.25" cy="862.55" r="3.06" />
    <circle class="cls-1" cx="898.6" cy="871.21" r="3.06" />
    <circle class="cls-1" cx="886.77" cy="874.38" r="3.06" />
    <circle class="cls-1" cx="874.95" cy="871.2" r="3.06" />
    <circle class="cls-1" cx="866.3" cy="862.54" r="3.06" />
    <circle class="cls-1" cx="863.15" cy="850.7" r="3.06" />
    <circle class="cls-1" cx="866.35" cy="838.88" r="3.06" />
    <circle class="cls-1" cx="875.03" cy="830.25" r="3.06" />
    <polygon class="cls-14"
        points="1003.68 536.76 1043.4 599.26 1043.4 874.25 288.84 874.25 233.96 877.01 194.28 877.01 184.96 892.61 83.15 892.66 43.43 830.16 36.6 714.71 105.48 591.11 249.12 586.54 248.22 536.76 1003.68 536.76" />
    <path class="cls-5"
        d="M284.57,647.77l-135.35,3.64L90.43,734.49l-3,122.21,78-1.88L212,798.37c8.73,0,49.13-1.11,49.13-1.11l23.43-1Z" />
    <rect class="cls-5" x="524.36" y="357.21" width="274.99" height="754.56"
        transform="translate(1396.34 72.64) rotate(90)" />
    <polygon class="cls-5" points="249.12 586.54 288.84 650.03 200.53 651.92 249.12 586.54" />
    <rect class="cls-6" x="83.15" y="873.53" width="8.53" height="19.13" />
    <polygon class="cls-7" points="83.15 873.53 42.54 815.13 43.43 830.16 83.15 892.66 83.15 873.53" />
    <path class="cls-8"
        d="M237.39,770.85h34.15a.85.85,0,0,1,.85.85V782a1.36,1.36,0,0,1-1.36,1.36H237a.44.44,0,0,1-.44-.44V771.7A.85.85,0,0,1,237.39,770.85Z"
        transform="translate(508.94 1554.21) rotate(180)" />
    <path class="cls-9"
        d="M238.78,777.44h31.39a2.07,2.07,0,0,0,2.23-1.85V772.7a2.07,2.07,0,0,0-2.23-1.85H242.83a6.23,6.23,0,0,0-5.5,2.93l-.58,1C236.07,776,237.15,777.44,238.78,777.44Z" />
    <ellipse class="cls-8" cx="266.9" cy="774.15" rx="2.4" ry="2" />
    <polygon class="cls-1"
        points="276.25 763.07 278 668.79 153.83 672.35 107.99 744.45 107.99 770.85 276.25 768.48 276.25 763.07" />
    <rect class="cls-10" x="106.39" y="759.49" width="10.12" height="6.99" rx="0.46"
        transform="translate(222.9 1525.97) rotate(180)" />
    <rect class="cls-11" x="112.22" y="755.12" width="24.88" height="15.73" rx="1.61"
        transform="translate(249.32 1525.97) rotate(180)" />
    <circle class="cls-1" cx="366.18" cy="912.68" r="52.7" />
    <circle class="cls-2" cx="366.18" cy="912.68" r="34.69" />
    <circle class="cls-3" cx="366.18" cy="912.68" r="31.22" />
    <circle class="cls-1" cx="366.18" cy="912.68" r="15.94" />
    <circle class="cls-2" cx="366.18" cy="912.68" r="14.34" />
    <circle class="cls-1" cx="366.18" cy="889.05" r="3.06" />
    <circle class="cls-1" cx="378.02" cy="892.19" r="3.06" />
    <circle class="cls-1" cx="386.7" cy="900.82" r="3.06" />
    <circle class="cls-1" cx="389.89" cy="912.65" r="3.06" />
    <circle class="cls-1" cx="386.73" cy="924.48" r="3.06" />
    <circle class="cls-1" cx="378.08" cy="933.14" r="3.06" />
    <circle class="cls-1" cx="366.25" cy="936.31" r="3.06" />
    <circle class="cls-1" cx="354.43" cy="933.13" r="3.06" />
    <circle class="cls-1" cx="345.78" cy="924.46" r="3.06" />
    <circle class="cls-1" cx="342.63" cy="912.63" r="3.06" />
    <circle class="cls-1" cx="345.83" cy="900.81" r="3.06" />
    <circle class="cls-1" cx="354.51" cy="892.18" r="3.06" />
    <path class="cls-1"
        d="M286.66,911.7a52.71,52.71,0,0,1-105.41,0c0-29.11,23.62-51.6,52.71-52.71C262.89,857.89,286.66,882.59,286.66,911.7Z" />
    <circle class="cls-2" cx="233.96" cy="911.7" r="34.69" />
    <circle class="cls-3" cx="233.96" cy="911.7" r="31.22" />
    <circle class="cls-1" cx="233.96" cy="911.7" r="15.94" />
    <circle class="cls-2" cx="233.96" cy="911.7" r="14.34" />
    <circle class="cls-1" cx="233.96" cy="888.07" r="3.06" />
    <circle class="cls-1" cx="245.79" cy="891.2" r="3.06" />
    <circle class="cls-1" cx="254.47" cy="899.84" r="3.06" />
    <circle class="cls-1" cx="257.66" cy="911.66" r="3.06" />
    <circle class="cls-1" cx="254.5" cy="923.49" r="3.06" />
    <circle class="cls-1" cx="245.85" cy="932.16" r="3.06" />
    <circle class="cls-1" cx="234.02" cy="935.33" r="3.06" />
    <circle class="cls-1" cx="222.2" cy="932.15" r="3.06" />
    <circle class="cls-1" cx="213.55" cy="923.48" r="3.06" />
    <circle class="cls-1" cx="210.4" cy="911.65" r="3.06" />
    <circle class="cls-1" cx="213.6" cy="899.83" r="3.06" />
    <circle class="cls-1" cx="222.29" cy="891.2" r="3.06" />
    <circle class="cls-1" cx="482.09" cy="912.68" r="52.7" />
    <circle class="cls-2" cx="482.09" cy="912.68" r="34.69" />
    <circle class="cls-3" cx="482.09" cy="912.68" r="31.22" />
    <circle class="cls-1" cx="482.09" cy="912.68" r="15.94" />
    <circle class="cls-2" cx="482.09" cy="912.68" r="14.34" />
    <circle class="cls-1" cx="482.09" cy="889.05" r="3.06" />
    <circle class="cls-1" cx="493.93" cy="892.19" r="3.06" />
    <circle class="cls-1" cx="502.61" cy="900.82" r="3.06" />
    <circle class="cls-1" cx="505.79" cy="912.65" r="3.06" />
    <circle class="cls-1" cx="502.64" cy="924.48" r="3.06" />
    <circle class="cls-1" cx="493.99" cy="933.14" r="3.06" />
    <circle class="cls-1" cx="482.16" cy="936.31" r="3.06" />
    <circle class="cls-1" cx="470.33" cy="933.13" r="3.06" />
    <circle class="cls-1" cx="461.69" cy="924.46" r="3.06" />
    <circle class="cls-1" cx="458.54" cy="912.63" r="3.06" />
    <circle class="cls-1" cx="461.74" cy="900.81" r="3.06" />
    <circle class="cls-1" cx="470.42" cy="892.18" r="3.06" />
    <circle class="cls-1" cx="834" cy="911.85" r="52.7" />
    <circle class="cls-2" cx="834" cy="911.85" r="34.69" />
    <circle class="cls-3" cx="834" cy="911.85" r="31.22" />
    <circle class="cls-1" cx="834" cy="911.85" r="15.94" />
    <circle class="cls-2" cx="834" cy="911.85" r="14.34" />
    <circle class="cls-1" cx="834" cy="888.22" r="3.06" />
    <circle class="cls-1" cx="845.83" cy="891.36" r="3.06" />
    <circle class="cls-1" cx="854.51" cy="899.99" r="3.06" />
    <circle class="cls-1" cx="857.7" cy="911.82" r="3.06" />
    <circle class="cls-1" cx="854.55" cy="923.65" r="3.06" />
    <circle class="cls-1" cx="845.89" cy="932.31" r="3.06" />
    <circle class="cls-1" cx="834.07" cy="935.48" r="3.06" />
    <circle class="cls-1" cx="822.24" cy="932.3" r="3.06" />
    <circle class="cls-1" cx="813.59" cy="923.63" r="3.06" />
    <circle class="cls-1" cx="810.45" cy="911.8" r="3.06" />
    <circle class="cls-1" cx="813.64" cy="899.98" r="3.06" />
    <circle class="cls-1" cx="822.33" cy="891.35" r="3.06" />
    <circle class="cls-1" cx="960.46" cy="911.9" r="52.7" />
    <circle class="cls-2" cx="960.46" cy="911.9" r="34.69" />
    <circle class="cls-3" cx="960.46" cy="911.9" r="31.22" />
    <circle class="cls-1" cx="960.46" cy="911.9" r="15.94" />
    <circle class="cls-2" cx="960.46" cy="911.9" r="14.34" />
    <circle class="cls-1" cx="960.46" cy="888.27" r="3.06" />
    <circle class="cls-1" cx="972.3" cy="891.41" r="3.06" />
    <circle class="cls-1" cx="980.97" cy="900.05" r="3.06" />
    <circle class="cls-1" cx="984.16" cy="911.87" r="3.06" />
    <circle class="cls-1" cx="981.01" cy="923.7" r="3.06" />
    <circle class="cls-1" cx="972.35" cy="932.36" r="3.06" />
    <circle class="cls-1" cx="960.53" cy="935.53" r="3.06" />
    <circle class="cls-1" cx="948.7" cy="932.35" r="3.06" />
    <circle class="cls-1" cx="940.05" cy="923.68" r="3.06" />
    <circle class="cls-1" cx="936.91" cy="911.85" r="3.06" />
    <circle class="cls-1" cx="940.1" cy="900.03" r="3.06" />
    <circle class="cls-1" cx="948.79" cy="891.4" r="3.06" />
    <polyline class="cls-12"
        points="1041.43 875.22 1041.43 854.97 903.01 856.87 800.19 859.2 691.42 859.96 552.16 859.96 433.95 860.03 336.82 860.03 288.84 861.15 288.84 875.22 784.82 874.8" />
    <path class="cls-13"
        d="M1035.89,853.25h0c3,0,5.54-.16,5.54-2V829.94c0-3-2.49-1.87-5.54-1.87h0a5.54,5.54,0,0,0-5.54,5.51v14.15A5.54,5.54,0,0,0,1035.89,853.25Z" />
    <path class="cls-12"
        d="M288.84,875.22V798.5l-72.25,1.7-34.83,34.21c-3,10.83-34.86,58.2-34.86,58.2H185s10.07-17.43,16.71-21.82a99.39,99.39,0,0,1,14.87-7.88,30.09,30.09,0,0,1,9.84-3c4.82-.44,12.12-1.34,17.89,0,23.15,5.45,27,15.25,27,15.25Z" />
    <polygon class="cls-1"
        points="116.51 629.21 94.69 614.35 40.55 714.22 87.81 737.4 147.27 650.03 116.51 629.21" />
    <polygon class="cls-11"
        points="39.91 722.12 87.41 749.37 87.41 859.41 44.76 804.91 39.91 722.12" />
    <rect class="cls-4" x="91.54" y="873.53" width="8.53" height="19.13" rx="1.08" />
    <polygon class="cls-6" points="46.04 834.27 46.04 820.16 42.54 815.13 43.43 830.16 46.04 834.27" />
</svg>