<svg xmlns="http://www.w3.org/2000/svg" width="114.64" height="186.04" viewBox="0 0 694 1126" xmlns:xlink="http://www.w3.org/1999/xlink" shape-rendering="geometricPrecision" image-rendering="optimizeQuality" fill-rule="evenodd" clip-rule="evenodd"><defs><linearGradient id="7" gradientUnits="userSpaceOnUse" xlink:href="#6" x1="495" y1="352.72" x2="537.94" y2="261.77"/><linearGradient id="6" gradientUnits="userSpaceOnUse" x1="395.09" y1="290.31" x2="422.6" y2="229.01"><stop stop-color="#96989a"/><stop offset=".588" stop-color="#fefefe"/><stop offset="1" stop-color="#bdbfc1"/></linearGradient><linearGradient id="9" gradientUnits="userSpaceOnUse" x1="319.91" y1="614.84" x2="432.76" y2="532.48"><stop stop-color="#2a252c"/><stop offset="1" stop-color="#a9abae"/></linearGradient><linearGradient id="F" gradientUnits="userSpaceOnUse" x1="395.19" y1="549.01" x2="355.76" y2="549.51"><stop stop-color="#fff"/><stop offset="1" stop-color="#fff" stop-opacity="0"/></linearGradient><linearGradient id="E" gradientUnits="userSpaceOnUse" x1="185.22" y1="517.79" x2="533.9" y2="630.11"><stop stop-color="#fff"/><stop offset=".31" stop-color="#fff" stop-opacity=".502"/><stop offset="1" stop-color="#fff" stop-opacity="0"/></linearGradient><linearGradient id="8" gradientUnits="userSpaceOnUse" x1="315.52" y1="508.52" x2="244.38" y2="601.64"><stop stop-color="#2a252e"/><stop offset=".522" stop-color="#a0a0a1"/><stop offset="1" stop-color="#292627"/></linearGradient><linearGradient id="G" gradientUnits="userSpaceOnUse" x1="391.29" y1="644.06" x2="366.62" y2="677.37" xlink:href="#F"/><linearGradient id="5" gradientUnits="userSpaceOnUse" x1="347.55" y1="276.99" x2="404.8" y2="203.32"><stop stop-color="#e6e7e8"/><stop offset=".549" stop-color="#373435"/><stop offset="1" stop-color="#e6e7e8"/></linearGradient><linearGradient id="4" gradientUnits="userSpaceOnUse" x1="436.97" y1="432.09" x2="323.62" y2="338.69"><stop stop-color="#637663"/><stop offset="1" stop-color="#fefefe"/></linearGradient><mask id="1"><path fill="url(#E)" d="m222 113h275v922h-275z"/></mask><mask id="3"><path fill="url(#G)" d="m358 637h41.628v48.28h-41.628z"/></mask><mask id="2"><path fill="url(#F)" d="m354 487h42.22v123.78h-42.22z"/></mask><mask id="0"><path fill="url(#D)" d="m84 862h440v212h-440z"/></mask><radialGradient id="A" gradientUnits="userSpaceOnUse" gradientTransform="matrix(1.61985-.00002-.00005 2.0026-228-587)" cx="367.69" cy="585.47" r="562.95"><stop stop-color="#fefefe"/><stop offset=".439" stop-color="#b4dff3"/><stop offset="1" stop-color="#0098da"/></radialGradient><radialGradient id="B" gradientUnits="userSpaceOnUse" gradientTransform="matrix(.79935-1.55201 1.15338.44384-230 892)" cx="473.49" cy="281.67" r="111.65"><stop stop-color="#bdbfc1"/><stop offset=".502" stop-color="#fefefe"/><stop offset="1" stop-color="#96989a"/></radialGradient><radialGradient id="C" gradientUnits="userSpaceOnUse" gradientTransform="matrix(.50908-1.25166.91986.26257-21 959)" xlink:href="#B" cx="572.86" cy="328.07" r="107.18"/><radialGradient id="D" gradientUnits="userSpaceOnUse" cx="307.38" cy="961.06" r="220.76"><stop stop-color="#fff"/><stop offset=".78" stop-color="#fff" stop-opacity="-127.5"/><stop offset="1" stop-color="#fff" stop-opacity="0"/></radialGradient></defs><path fill="url(#A)" d="m0 0h694v1126h-694z"/><path d="m286 874c119-24 225 0 235 52 10 52-78 114-198 137-120 24-226 0-236-52-10-52 79-114 199-137" mask="url(#0)" fill="#272424"/><path d="m493 881c-11 24-17 54-97 100-79 45-141 63-161 32-19-30-20-39-20-119 0-80-12-595-12-595 0 0-5-57 28-97 32-39 74-60 117-79 43-20 98-39 123-16 25 23 34 32 34 74 0 42-2 640-2 640-1 18-3 42-10 60z" fill="#292627" stroke="#373435" stroke-width="4.289"/><path d="m465 102c0 0-36-20-104-20-68 0-212 51-242 121-29 70-23 123-23 176 0 52 3 484 16 529 12 45 59 124 153 120-13 0-23-5-30-15-19-30-20-39-20-119 0-80-12-595-12-595 0 0-5-57 28-97 32-39 74-60 117-79 39-18 89-36 117-21" fill="url(#8)"/><path d="m224 321c0-36 4-61 15-82 11-21 28-37 56-56h1c0 0 101-58 141-66 20-4 35-2 44 6 10 7 14 20 14 37l-1 649c0 0 0 61-21 84-10 12-46 42-81 70-30 23-60 45-74 52-2 1-5 2-8 4-13 6-29 14-43 14-20 0-37-15-37-69 0-53-1-214-3-364-1-132-3-248-3-279m24-77c-10 19-13 43-13 77 0 35 1 149 3 279 1 152 3 315 3 364 0 45 11 58 26 58 12 0 26-7 39-13 2-1 5-3 8-4 13-6 42-28 72-51 34-27 69-57 80-68 17-20 18-75 18-77v-649c0-14-3-24-9-29-7-6-19-7-36-3-37 7-133 62-138 64-27 18-43 33-53 52" mask="url(#1)" fill="#fefefe" fill-rule="nonzero"/><path d="m260 323c0-67 13-93 66-127 0 0 79-46 116-53 38-8 51 7 51 36 0 29 0 638 0 638 0 0-1 56-19 77-19 21-101 82-131 96-29 13-78 45-78-45 0-90-5-554-5-622" fill="url(#9)"/><path d="m305 356c24-11 49-22 73-33 16-8 33-16 49-23 6-3 11-5 17-8 2-1 5-2 8-3l7-3-1 119-156 81v-128l3-2" fill="#fefefe"/><path d="m307 361v116l146-76v-107c-4 1-146 67-146 67" fill="url(#4)"/><g fill="#a9abae"><path d="m358 523c0-9-2-24 18-32 19-7 19 12 18 27 0 15-1 62-1 62 0 0 4 21-18 28-22 7-18-19-18-27 0-7 0-48 1-58" mask="url(#2)"/><path d="m391 641c18 12-4 52-24 39-19-12 6-51 24-39" mask="url(#3)"/></g><path d="m365 272c0 0-1 4-6 5-4 1-10 0-10-9-1-8-3-30 14-50 18-20 37-16 40-12 3 4 0 12 0 12l-38 54" fill="url(#5)"/><path d="m364 271c-4-25 8-55 37-54l54 26-28 60c-21-11-42-21-63-32" fill="url(#6)"/><path d="m449 336c-50-21-4-126 46-104 49 23 3 124-46 104" fill="url(#B)"/><path d="m561 361c-35-15-73-31-108-47-14-26 0-60 32-61l101 45-25 63" fill="url(#7)"/><path d="m558 361c-30-13-2-76 28-63 29 14 1 75-28 63" fill="url(#C)"/><path d="m566 342c-12-5-1-31 12-25 12 5 0 30-12 25" fill="#fefefe"/><path d="m563 325l18 8c3-6 3-14-3-16-7-3-12 2-15 8" fill="#606062"/></svg>