<svg xmlns="http://www.w3.org/2000/svg" width="28.455" height="36.714" viewBox="0 0 19 24" xmlns:xlink="http://www.w3.org/1999/xlink" shape-rendering="geometricPrecision" image-rendering="optimizeQuality" fill-rule="evenodd" clip-rule="evenodd"><defs><radialGradient id="0" gradientUnits="userSpaceOnUse" cx="9.543" cy="12.247" r="29.16"><stop stop-color="#fefefe"/><stop offset=".439" stop-color="#a8d7f6"/><stop offset="1" stop-color="#aed2b0"/></radialGradient><radialGradient id="1" gradientUnits="userSpaceOnUse" xlink:href="#0" cx="9.321" cy="5.344" r="13.862"/></defs><g fill-rule="nonzero"><path d="m17 14c-1-1-3-3-6-3-3 0-5 1-6 3 0 0-4 6-1 10h16c0 0 0 0 0 0 3-4-1-10-1-10zm-7 6c0 0 0 0 0 0l-1 1c0 0 0 0 0 0l-1-1c0 0 0 0 0 0v-7c0 0 0 0 0 0l1-1c0 0 0 0 0 0l1 1c0 0 0 0 0 0v7" fill="url(#0)"/><path d="m9 10c3 0 5-2 5-5 0-3-2-5-5-5-3 0-5 2-5 5 0 3 2 5 5 5" fill="url(#1)"/></g></svg>