<svg xmlns="http://www.w3.org/2000/svg" width="20" height="20" viewBox="0 0 142 135" shape-rendering="geometricPrecision" image-rendering="optimizeQuality" fill-rule="evenodd" clip-rule="evenodd"><defs><linearGradient id="0" gradientUnits="userSpaceOnUse" x1="118.99" y1="91.45" x2="70.55" y2="3.407"><stop stop-color="#615776"/><stop offset="1" stop-color="#fefefe"/></linearGradient><radialGradient id="1" gradientUnits="userSpaceOnUse" cx="94.77" cy="79.69" r="134.89"><stop stop-color="#fefefe"/><stop offset=".42" stop-color="#a6b3ce"/><stop offset="1" stop-color="#4e699e"/></radialGradient><radialGradient id="2" gradientUnits="userSpaceOnUse" cx="94.77" cy="14.675" r="125.56"><stop stop-color="#fefefe"/><stop offset=".4" stop-color="#c3ddee"/><stop offset="1" stop-color="#88bdde"/></radialGradient></defs><path fill="#615776" d="m55 69l15 16-5 5-15-15z"/><path fill="#8c7ead" d="m54 79l7 7-4 5-7-8z"/><path d="m43 83l13 15c1 1 1 2 0 2l-39 34c-1 1-2 1-2 0l-13-15c-1-1-1-2 0-2l39-34c1-1 2-1 2 0" fill="#e0953e"/><path d="m53 95l3 3c1 1 1 2 0 2l-39 34c-1 1-2 1-2 0l-3-3 41-36" fill="#bf7639"/><g fill="#615776"><path d="m43 83h7l7 8-2 6z"/><path d="m2 119c0 0-4 6 1 12 5 6 12 2 12 2l-13-14"/></g><circle cx="95" cy="47" r="47" fill="url(#0)"/><path d="m95 3c12 0 23 5 31 13 8 8 13 19 13 31 0 12-5 23-13 31-8 8-19 13-31 13-12 0-23-5-31-13-8-8-13-19-13-31 0-12 5-23 13-31 8-8 19-13 31-13m0 2c-12 0-22 5-29 12-8 8-12 18-12 30 0 12 5 22 12 29 8 8 18 12 30 12 12 0 22-5 29-12 8-8 12-18 12-30 0-12-5-22-12-29-8-8-18-12-30-12" fill="#fefefe" fill-rule="nonzero"/><circle cx="95" cy="47" r="39" fill="url(#1)"/><path d="m95 9c20 0 37 17 37 37-35 15-40-18-74 0 0-20 17-37 37-37m-37 37" fill="url(#2)"/><path fill="#f2cf92" d="m43 84l2 2-41 36-2-2z"/></svg>