<svg xmlns="http://www.w3.org/2000/svg" width="23" height="23" viewBox="0 0 39 28" shape-rendering="geometricPrecision" image-rendering="optimizeQuality" fill-rule="evenodd" clip-rule="evenodd"><g fill="#393738"><path d="m0 0h2v21h-2z"/><path d="m4 0h1v21h-1z"/><path d="m6 0h1v21h-1z"/><path d="m9 0h1v21h-1z"/><path d="m11 0h2v21h-2z"/><path d="m15 0h1v21h-1z"/><path d="m17 0h3v21h-3z"/><path d="m21 0h1v21h-1z"/><path d="m23 0h1v21h-1z"/><path d="m26 0h2v21h-2z"/><path d="m30 0h2v21h-2z"/><path d="m33 0h1v21h-1z"/><path d="m36 0h1v21h-1z"/><path d="m38 0h1v21h-1z"/><g fill-rule="nonzero"><path d="m36 27h1c0 0 0 1 0 1 0 0 0 0 1 0 0 0 1 0 1 0 0 0 0-1 0-1 0 0 0-1 0-1 0 0 0 0-1 0 0 0 0 0-1 0h-1l1-3h3v1h-2v1c0 0 1 0 1 0 0 0 1 0 1 0 0 0 0 1 0 1 0 0 0 1 0 1 0 0-1 1-1 1 0 0-1 0-1 0 0 0 0-1-1-1z"/><path d="m33 28v1h-3c0 0 0 0 0 0s0 0 0-1c0 0 0 0 1-1 1 0 1-1 1-1 0 0 0-1 0-1 0 0 0 0 0-1 0 0 0 0-1 0 0 0-1 0-1 0 0 0 0 0 0 1h-1c0 0 0-1 1-1 0 0 1 0 1 0 0 0 1 0 1 0 0 0 0 1 0 1 0 0 0 0 0 1 0 0 0 0 0 1 0 0-1 1-1 1 0 0-1 1-1 1h3z"/><path d="m24 24v-1h3c0 0-1 1-1 1 0 1-1 1-1 2 0 0 0 1 0 1h-1c0 0 0-1 0-1 0-1 0-1 1-2 0-1 1-1 1-1h-3z"/><path d="m18 27h1c0 0 0 1 0 1 0 0 0 0 1 0 0 0 1 0 1 0 0 0 0-1 0-1 0 0 0-1 0-1 0 0 0 0-1 0 0 0 0 0-1 0h-1l1-3h3v1h-2v1c0 0 1 0 1 0 0 0 1 0 1 0 0 0 0 1 0 1 0 0 0 1 0 1 0 0-1 1-1 1 0 0-1 0-1 0 0 0 0-1-1-1z"/><path d="m12 27h1c0 0 0 1 0 1 0 0 0 0 1 0 0 0 1 0 1 0 0 0 0 0 0-1 0 0 0-1 0-1 0 0 0 0-1 0v-1c0 0 0 0 0 0h1c0 0 0 0 0-1 0 0 0 0 0-1 0 0 0 0-1 0 0 0 0 0-1 0 0 0 0 0 0 1h-1c0 0 0-1 1-1 0 0 1 0 1 0 0 0 1 0 1 0 0 0 0 0 1 0 0 0 0 0 0 1 0 0 0 0 0 1 0 0 0 0-1 0 0 0 1 0 1 0 0 0 0 1 0 1 0 0 0 1 0 1 0 0-1 0-1 0 0 0-1 0-1 0 0 0 0-1-1-1z"/><path d="m9 28v1h-3c0 0 0 0 0 0s0 0 0-1c0 0 0 0 1-1 1 0 1-1 1-1 0 0 0-1 0-1 0 0 0 0 0-1 0 0 0 0-1 0 0 0-1 0-1 0 0 0 0 0 0 1h-1c0 0 0-1 1-1 0 0 1 0 1 0 0 0 1 0 1 0 0 0 0 1 0 1 0 0 0 0 0 1 0 0 0 0 0 1 0 0-1 1-1 1 0 0-1 1-1 1h3z"/><path d="m2 28h-1v-4c0 0 0 0-1 0 0 0 0 0-1 0v-1c0 0 1 0 1-1 0 0 0 0 1-1v5z"/></g></g></svg>