<svg xmlns="http://www.w3.org/2000/svg" width="23" height="23" viewBox="0 0 41042 20761" xmlns:xlink="http://www.w3.org/1999/xlink" shape-rendering="geometricPrecision" image-rendering="optimizeQuality" fill-rule="evenodd" clip-rule="evenodd"><defs><linearGradient id="B" gradientUnits="userSpaceOnUse" xlink:href="#A" x1="32034.2" x2="29798.7"/><linearGradient id="C" gradientUnits="userSpaceOnUse" x1="16611" y1="18020.1" x2="16719.9" y2="15526"><stop stop-color="#fff8b3"/><stop offset=".012" stop-color="#fff8b3"/><stop offset=".988" stop-color="#fff8b3"/><stop offset="1" stop-color="#fff8b3"/></linearGradient><linearGradient id="I" gradientUnits="userSpaceOnUse" xlink:href="#C" x1="13493.5" y1="18670.1" x2="13599.6" y2="16239.2"/><linearGradient id="D" gradientUnits="userSpaceOnUse" xlink:href="#C" x1="14812.3" y1="19943.7" x2="15051.5" y2="14463.4"/><linearGradient id="E" gradientUnits="userSpaceOnUse" xlink:href="#C" x1="14755.5" y1="13948.2" x2="14859.7" y2="11560.9"/><linearGradient id="H" gradientUnits="userSpaceOnUse" xlink:href="#C" x1="15282.8" y1="19578.4" x2="15387.3" y2="17182.4"/><linearGradient id="F" gradientUnits="userSpaceOnUse" xlink:href="#C" x1="16410.4" y1="14839.8" x2="16512.5" y2="12501.1"/><linearGradient id="G" gradientUnits="userSpaceOnUse" xlink:href="#C" x1="13433.9" y1="15587.3" x2="13552.8" y2="12863.1"/><linearGradient id="A" gradientUnits="userSpaceOnUse" x1="11313.7" x2="8156.07"><stop stop-color="#376cb1"/><stop offset="1" stop-color="#315589"/></linearGradient><linearGradient id="2" gradientUnits="userSpaceOnUse" x1="10105.6" y1="-505.32" x2="25033.2" y2="1592.63"><stop stop-color="#376cb1"/><stop offset=".02" stop-color="#376cb1"/><stop offset=".98" stop-color="#315589"/><stop offset="1" stop-color="#315589"/></linearGradient><linearGradient id="3" gradientUnits="userSpaceOnUse" y1="14756.4" x2="0" y2="13207.6"><stop stop-color="#fff8b3"/><stop offset="1" stop-color="#fff8b3"/></linearGradient><linearGradient id="9" gradientUnits="userSpaceOnUse" xlink:href="#3" y1="16863.5" x2="0" y2="15210.7"/><linearGradient id="4" gradientUnits="userSpaceOnUse" xlink:href="#3" y1="18113.9" x2="0" y2="14567.8"/><linearGradient id="5" gradientUnits="userSpaceOnUse" xlink:href="#3" y1="15278" x2="0" y2="13464.3"/><linearGradient id="8" gradientUnits="userSpaceOnUse" xlink:href="#3" y1="17907.2" x2="0" y2="16328.4"/><linearGradient id="6" gradientUnits="userSpaceOnUse" xlink:href="#3" y1="17315.2" x2="0" y2="15707"/><linearGradient id="7" gradientUnits="userSpaceOnUse" xlink:href="#3" y1="14168.7" x2="0" y2="12594.4"/></defs><g fill="#292729"><path d="m23328 15154c587-34 1168-125 1753-190-524 1779-1704 2991-3031 3149-1262 224-1974 379-3305 300-4131-108-678-3233 4584-3259z"/><path d="m40517 10765c398 846 595 1874 503 3042-264 3373-2159 5211-4046 5329-288 18-1166 58-1454 50-1670-44-3099-1200-3831-2880l512-44c141-12 236 81 250 201l280-29c72-116 181-231 323-242l1112-88c119-9 213 57 244 156l258-28c61-112 108-225 256-238l1029-90c115-10 215 61 250 161l156-17 2-5c58-122 148-263 297-272l695-45c119-8 250 71 303 181l408-44c451-80 969-180 1393-355 232-96 443-219 594-424 262-487 629-1041 762-1578 6-55-10-204-40-246l-1-1-5-4c-80-70-225-151-261-252l-7-19 2-20c33-428 67-856 100-1285l4-51 44-25c3-2 7-3 10-5 11-21 17-85 19-117-50-226-82-454-159-674l-6-17 1-18v-6z"/></g><g fill="#2c282c"><path d="m2117 11144c-121-325-262-636-433-866-509-547-1096-94-1259 648-254 1139-283 2215-295 3399l47-463 13-77 11-99c36-193 73-386 109-578l68-273 1-7 2-9 58-236 36-100 26-92 67-166 41-113 21-40 33-81 174-313 195-259 198-153 133-67 134-32 162-49 154 4 173 5 132 18z"/><path d="m15667 10387c-338-499-911-1124-1667-986-850 279-1257 1219-1463 2459-14 122-29 243-43 365-198 413-335 823-437 1241l-8 29c349-1283 1019-2288 1850-2768l33-25 60-26c45-24 91-46 138-67v7l235-103 154-33c177-48 358-74 542-75 184-9 386-15 605-18z"/></g><path d="m15062 10405c225-11 476-17 753-20 56 86 109 173 157 257l2 4 2 4c248 522 502 1080 679 1629l1 3 1 3c260 982 446 1980 706 2963 87 353 173 706 260 1059 165 564 200 926 817 1099 392 54 783 76 1178 74 587-34 1168-125 1753-190-524 1779-1704 2991-3031 3149-1262 224-1974 379-3305 300-1801-47-3256-2399-3249-5253 7-2853 1529-5071 3274-5082z" fill="#292729"/><path d="m15681 20671c1157-337 2095-1648 2462-3386-337-199-386-523-518-977-87-353-174-706-260-1059-260-983-447-1981-706-2964l-1-3-1-3c-150-467-357-939-567-1391l-38 35c-21-15-43-31-64-46-29-16-57-31-85-47l107-115-18-39-31-23c-28-16-57-31-85-47-33 51-66 102-100 153-21-15-43-31-64-46-28-1-56-1-84-2 26-51 52-103 79-154-21-8-42-16-64-24-28-8-56-16-84-25-19 44-39 88-58 132-21-8-42-16-64-24-35-8-70-17-105-25 19-44 39-88 58-132-21-1-42-1-63-2-28-1-56-1-84-2-13 37-26 74-38 110-21-8-42-16-63-24-28-1-56-1-84-2 13-29 26-59 39-88-28-1-56-1-84-2-28-1-56-1-84-2-20 22-40 44-61 65-21-1-42-1-63-2-28-1-56-1-84-2 6-15 13-29 20-44-62 13-125 27-187 40-62 13-124 26-187 40l-238 117 4-52c-1349 599-2338 2551-2344 4893-7 2608 1209 4797 2793 5190 317 69 791 62 1100-22z" fill="#2e2c2f"/><path d="m16079 10867l-28 25-64-46-85-47 96-104-21-45-2-4-2-4-10-18-3-2-106-47-79 154-64-46-84-2 79-154-64-24-84-25-58 133-85-24-84-25 58-133-63-2-84-2-38 111-84-24-84-2 39-89-63-2-84-2-61 65-63-2-84-2 19-44-187 40-187 40-433 190-429 324-385 392-360 504-275 551-251 641-209 665-143 756 57-177 59-133 58-133 40-66 25 135 46 135 67 113 88 136 181-867 248-731 315-595 341-460 427-369 432-212 477-122 461 34 463 102 405 234 388 345 155 251c-148-435-341-873-537-1292zm-1209 9590l438-33 413-168 409-280 364-393 359-549 273-619 227-754 99-824-17 112-59 132-57 155-58 155-58 155-58 155-59 110-58 133-73-315-153 443-196 397-219 352-283 305-285 238-329 170-311 81-376 12-317-98-318-142-300-231-281-275-221-363-222-408-161-451-140-450-31 312-67-136-66-114-46-135-66-113-46-135-46-135-46-135-67-136 88 762 129 741 251 654 291 589 370 457 431 391 468 236 486 147z" fill="#3c393e"/><path d="m15227 11317c493 13 946 255 1326 663 37 100 71 200 103 299l1 3 1 3c260 982 446 1980 706 2964 87 353 174 706 260 1059v1c-251 2044-1366 3586-2655 3552-1422-37-2519-1980-2448-4339 71-2359 1282-4242 2705-4205z" fill="#e5e6e7"/><path d="m15119 11314c575 15 1096 341 1509 880 9 28 19 57 28 85l1 3 1 3c260 982 446 1980 706 2964l184 748c-172 2195-1333 3896-2686 3861-1422-37-2519-1980-2448-4339 71-2359 1282-4242 2705-4205" fill="#d1d2d4"/><path d="m17520 16279c-2369 199-5017 642-5003-1763-57 321-92 657-103 1004-71 2359 1025 4302 2448 4339 1294 34 2414-1522 2659-3580z" fill="url(#D)"/><path d="m13810 15291c261-109 359-364 368-548 9-173-61-367-129-534-79-192-324-778-399-966-57-144-228-380-381-116-256 440-310 933-398 1396-14 75-29 158-43 238-26 146-28 827 299 751 144-34 531-157 682-221z" fill="url(#G)"/><path d="m14014 18348c51-194 170-774 217-976 67-289 94-512-16-797-79-204-171-329-550-280-142 18-469 65-592 79-305 36-255 270-227 430 87 498 235 1202 578 1660 47 63 194 198 335 168 180-39 230-191 255-285z" fill="url(#I)"/><path d="m16111 18960c100-197-6-379-106-560-94-171-357-668-443-834-57-110-57-157-171-243-169-128-382-78-496 67-83 105-129 256-159 367-55 206-197 791-240 1002-34 166-36 341 34 505 91 212 261 303 597 254 384-56 871-334 984-558" fill="url(#H)"/><path d="m16846 17811c26-57 60-158 90-237 209-550 481-1376 317-1903-44-141-207-115-357-62-255 89-691 192-845 349-120 123-136 281-134 421 9 474 320 998 527 1447 73 158 308 188 402-16z" fill="url(#C)"/><path d="m16973 14736c83-13 147-49 164-102 16-52 26-112 31-178-99-425-192-851-291-1276-123-262-276-494-446-634-48-40-94-40-143-30-120 24-173 218-184 261-62 229-230 954-284 1187-30 129-65 266-63 396 1 80 27 194 76 267 70 103 229 208 407 196 145-10 589-64 733-87" fill="url(#F)"/><path d="m15265 13471c58-237 252-1015 306-1266 33-155 63-396-176-509-268-126-709-27-946 82-83 38-195 105-258 152-158 119-212 297-180 447 13 62-24 4 75 214 99 210 416 855 519 1049 36 68 120 159 202 218 114 82 195 58 276-19 68-64 109-134 138-209 19-48-14 79 44-158z" fill="url(#E)"/><path d="m14163 16461c-275-119-421-35-414 153-34 355 195 891 379 1232 41-189 80-376 103-474 67-289 94-512-16-797-16-42-33-80-52-114m3121-651l-569 247c-328 224-406 380-318 655 98 358 312 1014 449 1100 26-57 60-158 90-237 192-504 436-1240 349-1765zm-3235-1601l-90-217c-190 442-248 894-269 1345 47-17 88-33 120-46 260-109 359-364 368-548 9-173-61-367-129-534m1103-475c11-25 31-46 53-68 5-12 11-24 16-36 19-48-14 79 44-158 48-195 187-754 265-1087-363-61-740 167-800 383-43 330 105 696 422 966m1639-722c-98-89-147-126-308-39-156 316-179 648-241 976-24 219-5 749 348 832l463-66c42-18 72-45 83-79 16-52 28-107 35-164-101-431-196-864-295-1295-28-57-56-112-84-164zm-1179 4652c-252-43-362 224-421 344-176 389-435 1320 960 792 1-137-74-268-147-399-80-144-280-523-392-737" fill="#292729"/><g fill="#959699"><path d="m15101 14757c233 6 414 387 404 851-10 464-208 835-441 829-233-6-414-387-404-851 10-464 208-835 441-829m-34-129c291 8 518 448 508 982-11 535-255 962-546 955-291-8-518-447-508-982 10-535 255-962 546-955"/><path d="m12915 15736l585-123c26-5 50-7 71-6l-470 130c-114 32-211 73-210 107l8 232c1 34 100 34 214 18l474-69c-22 11-46 20-73 25l-585 123c-82 17-151-3-152-45l-10-285c-1-42 65-90 147-108z"/><path d="m17055 15368l-598 142c-26 6-50 9-72 8l483-146c117-35 218-79 220-114l14-232c2-34-97-31-213-11l-482 85c22-12 48-21 75-28l598-142c84-20 151-2 148 40l-17 284c-2 42-73 93-157 113z"/><path d="m13824 12421l133 312c5 12 10 24 10 37l-144-211c-31-45-67-81-93-36l-94 161c-18 31-23 83 0 137l94 227c-11-5-20-13-27-24l-173-270c-22-35-24-98 2-135l152-220c26-37 123-17 139 22z"/><path d="m15763 11976l-46 321c-2 12-3 24 0 38l85-223c18-48 43-86 82-45l137 149c26 29 45 79 38 136l-31 233c9-6 16-15 20-27l96-284c12-37-3-99-39-133l-210-201c-36-34-126-5-131 36z"/></g><path d="m15225 13808c-126 106-204 220-370 161-182-106-316-301-417-441 82 209 121 248 331 472 148 116 373-1 456-193zm1452 1035c-216 20-482 82-689 38-258-75-344-286-377-477-19 201-13 354 212 511 248 78 571 16 853-72zm-3194 624c281-19 476-80 687-205 118-107 134-282 91-461-48 139-56 356-265 469-174 80-307 151-513 197m420 3161c-193 126-426 50-588-75 174 194 483 385 588 75m-405-2385c201-9 456-57 636-3 220 88 256 303 248 495 58-200 84-353-91-521-210-91-518-45-793 28zm1550 979c124-30 222-38 316 13 128 64 223 262 310 402-24-236-135-409-238-463-66-50-309-44-387 48z" fill="#fefefe"/><g fill="#959699"><path d="m16242 18480l-118-275c-5-11-9-21-9-33l127 186c27 40 59 71 82 32l83-142c16-27 20-73 0-121l-83-200c9 4 18 11 24 21l152 238c20 31 21 86-2 119l-134 194c-23 33-108 15-123-19z"/><path d="m14210 19199l42-292c2-11 3-22 0-34l-77 210c-16 45-39 83-74 51l-124-115c-24-22-41-65-34-116l28-212c-9 6-15 15-18 26l-87 266c-11 34 3 88 35 113l191 152c33 26 114-13 120-50z"/></g><path d="m15125 15391c-9-11-19-21-29-30-18-16-37-29-56-37 9 11 18 20 27 28 18 16 38 30 58 39m-145-163c38 4 82 25 126 65 34 31 64 68 88 109 17-5 30-18 36-43 17-69-46-168-99-216-59-53-145-80-162-6-7 27-1 59 12 91zm-11 556c9 10 18 20 27 28 19 17 40 31 61 39-9-11-18-21-28-30-19-17-40-30-60-38zm143 162c-38-4-81-25-125-64-32-28-60-63-83-100-18 7-32 24-39 51-17 72 34 171 93 224 65 58 145 67 163-10 7-31 2-66-10-100zm-1-318c-14-19-29-36-44-50-26-23-54-39-81-45 14 19 29 36 44 50 25 23 54 39 81 45m-171-184c40 1 88 22 136 65 35 32 66 71 90 113 12-8 21-21 26-41 7-28 2-60-10-92-38-5-81-28-125-67-33-30-62-66-86-105-18 6-31 21-37 46-6 25-3 53 6 81m217 272c-40 0-88-22-137-65-35-32-66-71-90-113-14 8-25 23-31 46-8 32-1 70 13 107 38 2 82 23 126 62 33 29 61 65 84 104 20-7 34-23 41-51 7-27 3-59-7-90zm-245-637c23-96 125-98 228-5 103 93 168 246 145 342-8 35-27 57-53 67 20 55 26 110 16 154-7 31-23 53-44 66 20 57 26 114 16 160-9 39-30 64-58 76 21 58 28 117 17 164-25 103-127 112-229 21-102-91-164-248-140-351 9-38 28-62 54-75-24-62-32-124-21-173 8-35 26-58 49-71-18-54-24-107-14-149 9-36 27-60 53-71-21-56-29-112-19-156z" fill="#bcbdbf"/><path d="m14981 15228c38 4 82 25 126 64 31 28 58 61 80 97-5 4-11 8-17 10-24-41-53-78-88-109-44-39-88-60-126-64-12-32-19-65-13-92 9-40 39-50 73-43-23 2-42 15-49 45-7 27 0 60 13 92zm-92 562c-10 9-18 22-22 41-17 72 34 171 94 224 26 23 54 38 80 43-31 3-70-14-105-45-59-54-111-153-94-224 7-27 20-43 39-51l7 11zm106-249c12 15 25 29 37 41 15 14 32 25 48 33l8 11c-27-6-55-23-81-45-15-14-31-31-44-50 10 2 21 6 32 11zm-53-98c40 1 88 22 136 65 30 28 58 61 80 96-4 6-9 11-15 15-24-42-55-81-90-113-48-43-96-64-136-65-9-28-12-56-6-81 6-25 20-40 37-46l7 11c-9 8-16 20-20 37-6 25-3 53 6 81zm-26 107c-7 8-12 19-15 33-8 33-2 70 13 107 38 2 82 23 126 62 29 26 56 58 77 92-5 4-11 8-17 10-22-39-51-75-84-104-44-39-88-60-126-62-15-37-21-75-13-107 5-23 16-37 31-46l9 14zm186-161c-9-11-19-21-29-30-18-15-37-28-56-37 9 11 18 21 27 28 18 16 38 30 58 39m-156 393c9 10 18 20 28 28 19 17 41 31 60 39-9-11-18-21-28-29-20-18-40-31-60-38m50-776c41-2 93 21 145 69 103 93 168 246 145 342-8 35-27 58-53 67 20 56 26 110 16 155-7 31-23 53-44 66 20 56 27 113 16 159-9 39-30 64-57 76 20 58 28 117 16 164-15 64-61 92-117 82 45-1 79-29 92-84 11-47 4-105-16-164 28-12 48-37 58-76 11-46 4-103-16-159 21-13 37-35 44-66 11-44 4-99-16-154 26-9 45-32 53-67 23-96-42-249-145-342-42-38-84-61-121-67z" fill="#959699"/><path d="m15154 15669c-23-45-53-84-85-113-43-39-91-59-129-54 23 44 54 84 84 112 43 39 91 59 129 54zm9 18c-40 7-93-16-140-58-34-31-68-75-93-125-26 7-45 27-53 63-12 50 3 111 32 167 37-3 83 17 125 55 32 29 62 68 84 110 32-3 57-23 67-65 10-41 2-93-22-147m16-244c-22-40-51-77-79-103-38-34-81-54-115-55 22 39 51 74 79 100 38 34 81 56 116 58zm10 19c-38-1-86-24-128-62-32-29-64-70-88-114-29 3-52 22-61 60-9 39-1 87 21 138 40-6 92 15 139 57 35 31 68 75 93 125 23-7 41-26 49-58 10-42 0-94-25-147zm2-19c29-2 51-19 60-56 20-85-51-205-117-265-71-64-167-89-188-2-10 42 2 94 28 147 38-1 85 20 127 59 33 29 65 71 89 118zm-17 241c26 59 35 116 24 162-11 44-37 67-70 71 26 56 38 117 26 166-23 95-118 89-200 17-79-71-142-202-119-295 10-41 34-64 64-70-30-61-46-127-33-181 9-38 30-60 57-68-25-56-33-110-23-153 10-40 33-61 63-66-28-57-40-115-29-161 23-94 125-70 202 0 74 67 149 199 127 293-9 39-33 58-63 62 27 58 37 115 26 160-8 35-27 55-52 63m-66 215c-20-37-47-71-75-97-38-34-79-53-114-51 21 36 47 69 75 94 38 34 79 54 115 55zm-262-83c-21 86 38 206 110 270 76 68 166 75 187-14 11-46-1-102-26-154-38 0-84-21-126-58-31-28-61-66-84-108-29 5-52 25-61 65z" fill="#fefefe"/><path d="m15156 15660c-23-45-53-84-85-112-43-39-91-59-129-54 23 44 53 84 84 112 43 39 92 60 129 54zm9 18c-40 7-93-16-140-58-34-31-68-75-93-125-26 7-45 27-53 63-12 50 3 111 32 167 37-3 83 17 125 55 32 29 62 68 84 110 32-3 57-23 67-65 10-41 2-93-22-147m16-244c-22-40-51-77-79-103-38-34-81-54-115-55 22 39 51 74 79 100 38 34 81 56 116 58zm10 19c-38-1-86-24-128-62-32-29-64-70-88-114-29 4-52 22-61 60-9 39-1 87 21 138 40-6 92 15 139 57 35 31 68 75 93 125 23-7 41-26 49-58 10-42 0-94-25-147zm2-19c29-2 51-19 60-56 20-85-51-205-117-265-71-64-167-89-188-2-10 42 2 95 28 147 38-1 85 21 128 59 33 29 65 71 89 118zm-17 242c26 59 35 117 24 162-11 44-37 67-70 71 26 56 38 117 26 166-23 95-118 90-200 17-79-71-142-202-119-295 10-41 34-64 64-70-30-61-46-127-33-181 9-38 30-60 57-68-25-56-33-110-23-153 10-40 33-61 63-66-28-57-40-115-29-161 23-94 125-70 202 0 74 67 149 199 127 293-9 39-33 58-63 62 27 58 37 115 26 160-8 35-27 55-52 63m-66 215c-20-37-47-72-75-97-38-34-79-53-114-52 21 36 47 69 74 94 38 34 79 54 115 55m-262-83c-21 86 38 206 110 270 76 68 166 74 187-14 11-46-1-102-25-154-39 1-84-21-126-58-31-28-61-66-84-108-29 5-52 25-61 65z" fill="#e5e6e7"/><path d="m4766 19157l286-81 245-187 231-329 200-418 178-524 289-686 1052-75 762-332-1462-129c-1505-165-2640 111-2735-120-414-623-604-1332-835-2138-243-913-523-1811-765-2724-30-91-62-182-96-273l-132-18-173-4-154-4-162 49-134 32-133 67-216 188-213 294-191 383-169 471-130 525-109 579-69 632-38 686c41 1031 152 1951 401 2952 257 588 438 1083 1030 1383l39 1 38 1 3165-203z" fill="#292729"/><path d="m1525 19359c105-15 211-30 316-44 384-287 546-576 761-1002 65-198 130-396 195-594 48-222 97-444 145-666 31-252 63-503 94-755 12-264 24-528 35-792-1-35-2-70-3-106-1-35-2-70-3-106-1-35-2-71-3-106-1-29-2-59-3-88-1-35-2-70-3-106-1-35-2-71-3-106-1-35-2-71-3-106-1-29-2-59-3-88-45-13-90-26-136-39-1-23-1-47-2-70-4-24-8-47-12-71 45 7 90 14 135 21-1-41-2-82-3-123-4-35-9-71-13-106-45-1-90-2-135-3-1-29-2-59-2-88-4-30-8-59-12-88 35 1 71 2 106 3-19-71-38-142-57-213-28-1-56-1-84-2-1-35-2-70-3-106-7-24-14-47-21-71 19-2 38-4 57-6-15-54-30-108-45-162-12 3-24 6-36 9-4-29-8-59-12-88-7-29-15-59-22-89 7-1 14-2 22-2-18-64-37-128-55-192 0 0-1 0-1 0-2-8-4-17-6-25-10-35-20-70-30-104-6-16-11-32-17-48 1 0 2 0 3 0-46-160-92-320-138-480-1 0-2 1-3 1-10-30-21-59-31-89-10-24-21-47-31-71 6-2 12-5 18-7-14-50-29-101-43-151-9 5-18 11-27 16-7-24-14-47-21-71-13-18-27-36-40-54 16-10 33-19 49-29-13-45-26-91-38-136-21 14-42 27-62 41-10-24-21-48-31-71-17-18-33-36-50-54 32-27 65-53 97-80-3-11-6-22-9-32-8-15-17-30-25-45-13-18-27-36-40-54-31 29-63 57-94 86-10-18-20-36-30-54-13-12-26-24-39-36 28-34 56-69 84-104-13-24-27-48-40-71-16-12-33-24-49-36-21 35-43 69-64 104-10-12-20-24-30-36-13-12-26-24-40-36 18-35 36-70 55-104-10-12-20-24-30-36-13-12-26-24-40-36-15 41-30 81-45 122-10-12-20-24-30-36-13 0-26-1-38-1 12-41 23-82 35-122-10-6-20-12-29-18-13-6-26-12-39-19-9 35-17 70-26 105-10-6-20-12-29-18-16-6-32-13-49-19 9-35 17-70 26-105-10 0-19 0-29-1-13 0-26-1-39-1-6 29-11 58-17 88-10-6-20-12-29-18-13 0-26-1-39-1 6-23 12-47 17-70-13 0-26-1-39-1-13 0-26-1-39-1-9 18-18 35-27 52-10 0-19 0-29-1-13 0-26-1-39-1 3-12 6-23 9-35-29 11-57 22-86 33-29 11-57 22-86 33-72 63-144 126-216 188-71 98-142 196-213 294-64 122-128 243-192 365-57 157-113 314-169 471-43 175-86 350-129 525-36 193-72 386-109 578-23 211-46 422-69 632-13 235-25 469-38 704 11 270 22 541 32 811 23 259 47 518 70 777 45 236 90 472 135 708 190 766 425 1650 1193 2039z" fill="#2e2c2f"/><path d="m3071 15506l-3-106-3-106-3-106-3-88-3-106-3-106-3-106-3-88-136-39-2-70-12-88 136 39-4-123-13-106-135-4-3-106-12-88 102 3c-18-69-37-137-56-206l-81 9-3-106-21-71 57-6-49-175-33 4-12-88-21-71 21-2-55-192h-1l-6-26-30-104-17-48h3l-138-480-3 1-31-89-31-71 18-7-43-151-27 16-31-71-30-54 49-29-38-136-62 41-31-71-50-54 97-80-9-33-25-45-40-54-94 86-30-54-39-36 84-103-40-72-49-36-64 104-30-36-40-36 55-104-30-36-49-36-35 122-30-36-39-1 35-122-29-18-39-19-26 105-39-19-39-19 26-105-29-1-38-1-17 88-39-19-38-1 17-70-29-1-39-1-27 52-29-1-39-1 9-35-86 33-86 33-198 153-195 259-174 313-162 401-122 437-111 508-91 526-60 597 25-140 26-105 26-105 18-52 13 106 22 106 31 89 41 107 77-685 109-578 141-472 153-366 194-294 197-171 218-100 212 23 214 76 188 181 181 269 146 391 147 444 111 531 84 601 58 688 46-87 26-87 35-105 16-105 31 71 32 106 32 124 23 124 32 106 23 124 22 107 3 123zm-1535 3219l201-30 189-136 186-224 164-313 161-436 121-490 99-596 39-651-7 88-26 105-25 122-25 123-25 123-25 122-26 88-26 105-36-248-67 351-87 315-98 279-128 243-129 190-150 137-142 67-173 13-146-74-147-109-140-180-131-215-104-285-105-320-77-354-68-354-12 246-32-106-31-89-22-106-31-89-22-106-22-106-22-106-32-106 46 600 65 583 120 514 138 462 174 357 201 305 217 182 224 112z" fill="#3c393e"/><path d="m1564 12426c578 15 1044 1298 1040 2865-4 1567-476 2826-1054 2810-578-15-1044-1298-1040-2865 4-1567 476-2826 1054-2810" fill="#e5e6e7"/><path d="m1520 12425c578 15 1043 1298 1040 2865-4 1567-476 2826-1054 2810-578-15-1043-1298-1040-2865 4-1567 476-2826 1054-2810" fill="#d1d2d4"/><path d="m2547 15705c-960 148-2031 460-2050-1137-20 214-31 437-31 667-4 1567 462 2850 1040 2865 526 14 964-1027 1042-2395z" fill="url(#4)"/><path d="m1030 15074c105-74 142-244 144-366 2-115-29-243-58-354-34-127-140-514-172-639-25-95-96-251-156-75-99 294-116 622-147 930-5 50-10 105-15 158-9 97-3 549 130 497 58-23 214-108 275-151z" fill="url(#5)"/><path d="m1146 17103c19-129 61-515 78-650 24-192 33-340-15-529-34-135-73-217-226-182-57 13-190 46-240 57-123 26-101 181-88 287 41 330 108 797 252 1099 20 41 81 131 138 109 73-27 91-128 100-191z" fill="url(#6)"/><path d="m2003 17495c38-132-6-251-49-371-40-113-152-441-189-551-24-72-25-104-72-160-70-84-156-49-201 48-33 70-50 171-61 245-20 138-72 526-87 667-12 111-11 227 19 335 39 140 109 200 245 165 155-40 350-228 393-377z" fill="url(#8)"/><path d="m2290 16728c10-38 23-105 34-158 79-367 181-917 109-1266-19-94-85-75-145-39-102 61-279 132-340 238-47 82-52 187-50 281 9 315 141 661 229 957 31 104 127 123 163-13" fill="url(#9)"/><path d="m2309 14685c34-9 59-33 65-69 57-322-101-1111-308-1382-20-26-39-26-58-19-48 17-68 146-72 174-23 152-83 635-103 790-11 86-24 177-21 264 1 53 13 128 34 177 29 68 95 137 167 128 59-7 239-46 296-63" fill="url(#3)"/><path d="m1602 13856c21-158 92-676 111-843 12-103 22-264-77-337-110-82-288-13-383 61-33 26-78 71-103 103-63 80-83 199-69 298 6 41-9 3 33 142 42 139 178 565 222 693 15 45 51 105 84 143 47 54 80 37 112-15 27-43 43-90 54-140 7-32-5 53 16-105" fill="url(#7)"/><path d="m1186 15849c-113-77-171-20-166 104-10 236 89 590 167 816 14-126 29-250 37-316 24-192 33-340-15-529-7-28-14-53-22-76zm1261-453l-228 168c-131 151-161 255-122 437 43 237 137 671 194 727 10-38 23-105 34-158 72-336 164-827 123-1174zm-1331-1042l-39-143c-72 295-91 596-95 895 19-12 36-22 48-31 105-74 142-244 144-366 2-115-28-243-58-354zm443-323c4-17 12-31 21-46 2-8 4-16 6-24 7-32-5 53 16-105 17-130 68-502 96-724-148-38-299 116-321 260-14 219 50 462 182 639m658-491c-41-59-61-83-126-24-60 211-66 432-88 650-7 146 6 497 150 550l187-47c17-12 29-30 33-53 54-306-49-772-157-1076zm-430 3097c-103-27-145 151-167 231-67 260-163 879 398 519-1-91-33-178-64-264-34-95-119-345-167-487z" fill="#292729"/><g fill="#959699"><path d="m1549 14711c95 2 172 254 173 562 1 308-76 556-170 554-95-2-172-254-173-563-1-308 76-556 170-553m-15-86c118 3 215 294 217 649 1 355-93 641-212 638-118-3-215-294-217-649-1-355 93-641 212-638"/><path d="m672 15376l236-86c10-4 20-5 29-4l-190 90c-46 22-85 50-84 72l6 154c1 23 41 22 87 10l192-49c-9 7-19 13-29 17l-236 86c-33 12-61-1-62-29l-7-189c-1-28 25-61 59-73z"/><path d="m2349 15103l-241 99c-11 4-20 6-29 6l195-100c47-24 88-54 88-77l3-154c0-23-40-20-87-6l-195 59c9-8 19-14 30-19l241-99c34-14 61-2 61 26l-4 189c-1 28-29 62-63 76z"/><path d="m1006 13168l57 206c2 8 4 16 5 25l-61-139c-13-30-28-53-38-23l-36 108c-7 21-8 55 1 91l41 150c-4-3-8-9-11-16l-73-178c-9-23-11-65-1-90l59-147c10-25 50-12 57 14z"/><path d="m1789 12860l-15 213c-1 8-1 16 0 25l32-148c7-32 17-58 33-30l57 98c11 19 19 53 17 90l-10 155c4-4 6-10 8-18l36-189c5-25-2-66-17-88l-87-132c-15-22-51-2-53 25z"/></g><path d="m1589 14080c-50 71-81 147-149 110-75-69-131-198-174-290 35 138 52 164 140 311 61 76 151-3 183-131m600 678c-87 15-195 58-279 30-105-48-142-188-158-314-6 134-2 235 91 338 101 50 232 7 346-53zm-1290 436c114-14 192-56 277-141 47-72 51-188 32-307-18 93-19 237-103 313-70 54-123 103-206 134zm204 2096c-77 85-173 36-240-46 73 128 200 252 240 46m-190-1581c81-7 185-41 258-6 90 57 107 200 106 327 21-133 30-235-42-345-86-59-211-26-322 24m640 639c50-21 90-27 128 6 53 42 93 173 130 265-12-156-59-270-102-306-27-33-126-27-157 34z" fill="#fefefe"/><g fill="#959699"><path d="m2052 17176l-51-182c-2-7-4-14-4-22l54 122c11 26 25 47 34 20l32-95c6-18 7-49-1-80l-36-132c4 3 7 7 10 14l64 157c8 20 9 57 1 79l-52 130c-9 22-44 11-50-12z"/><path d="m1234 17667l14-194c1-7 1-15 0-22l-29 140c-6 30-15 55-30 34l-52-75c-10-14-17-43-15-77l9-141c-3 4-6 10-7 18l-33 177c-4 23 2 58 16 75l79 99c13 17 46-9 48-34"/></g><path d="m1566 15132c-4-7-8-14-12-20-7-10-15-19-23-24 4 7 8 13 11 19 7 10 16 19 24 25m-60-107c15 2 33 16 52 42 14 20 27 45 37 72 7-4 12-12 14-28 6-46-21-111-43-143-25-35-60-52-66-3-2 18 0 39 6 61zm2 369c4 7 8 13 11 19 8 11 17 20 25 25-4-7-8-14-12-19-8-11-16-20-25-25zm60 106c-15-2-33-16-51-42-13-19-25-41-35-66-7 5-13 16-15 34-6 48 16 113 40 148 27 38 60 43 66-8 3-20 0-44-5-67zm-4-211c-6-12-12-24-19-33-11-15-22-26-33-30 6 13 12 24 18 33 11 15 23 26 33 30zm-71-121c16 0 36 14 56 42 15 21 28 47 38 74 5-5 8-14 10-27 2-19 0-40-5-61-15-3-33-18-51-44-14-20-26-44-36-69-7 4-12 14-15 31-2 16-1 35 3 54m91 179c-16 0-36-14-56-43-15-21-28-47-38-74-6 6-10 16-12 31-3 22 0 47 6 71 15 1 34 15 52 40 14 19 26 43 35 68 8-5 14-16 16-34 2-18 1-39-4-60zm-106-421c8-64 50-66 92-5 43 61 71 162 63 226-3 23-10 38-21 45 9 37 12 73 8 102-3 21-9 36-17 44 9 38 12 75 8 106-3 26-12 43-23 51 9 39 13 78 9 109-9 68-50 75-93 16-42-60-69-164-60-232 3-25 11-42 21-50-10-41-14-82-10-115 3-23 10-39 19-48-8-36-11-71-7-99 3-24 11-40 21-47-9-37-13-74-9-103z" fill="#bcbdbf"/><path d="m1505 15025c16 2 34 16 52 42 13 18 24 40 34 64-2 3-4 5-7 7-10-27-23-52-37-72-18-26-36-39-52-42-6-21-8-43-6-61 3-26 15-34 29-29-10 1-17 10-19 30-2 18 1 40 6 61m-32 374c-4 6-7 15-9 27-6 48 16 113 40 148 11 15 22 25 33 28-13 2-29-9-43-29-25-35-47-101-40-148 2-18 8-29 15-34l3 7zm40-166c5 10 10 19 15 27 6 9 13 16 20 21l3 7c-11-4-23-15-33-29-6-9-13-20-19-33 4 2 9 4 13 7zm-23-65c16 0 36 14 56 42 13 18 24 40 34 64-2 4-3 7-6 10-10-28-23-54-38-74-20-28-40-42-56-42-4-18-6-37-4-54 2-17 8-27 15-31l3 7c-4 5-6 14-8 25-2 16-1 35 3 54zm-9 71c-3 5-5 13-6 22-3 22 0 47 7 71 15 1 34 15 52 40 12 17 23 38 32 61-2 3-4 5-7 7-9-25-22-50-35-68-18-26-37-39-52-40-7-25-9-49-6-71 2-15 6-25 12-31l4 9zm74-108c-4-7-8-14-12-20-7-10-15-18-23-24 4 7 8 14 11 18 7 11 16 20 24 26m-59 262c4 7 8 13 11 19 8 11 17 20 25 25-3-7-8-14-12-19-8-11-17-21-25-25zm12-516c17-1 38 13 60 45 43 61 71 162 63 226-3 23-10 39-21 45 9 37 12 73 8 103-3 21-9 35-17 44 9 37 12 75 8 106-3 26-11 43-23 51 9 39 12 77 8 109-6 43-24 61-47 55 18-1 32-20 37-56 4-31 1-70-8-109 11-8 19-25 23-51 4-30 1-68-8-106 9-9 15-23 17-44 4-29 1-65-8-102 10-6 18-22 21-45 8-64-20-165-63-226-18-25-35-40-50-44z" fill="#959699"/><path d="m1580 15316c-10-30-23-56-36-74-18-25-38-38-53-35 10 29 23 56 35 74 18 25 38 39 53 35zm4 12c-16 5-38-10-57-37-14-20-29-50-39-82-10 5-18 18-21 42-4 33 2 74 15 111 15-2 34 11 51 35 13 19 26 45 35 73 13-2 23-16 27-44 4-28 0-62-11-97zm4-162c-9-27-21-51-33-68-16-23-33-36-47-36 9 26 21 49 33 66 16 23 33 37 48 38zm4 12c-16 0-35-15-53-40-13-19-27-46-37-75-12 2-21 15-24 40-3 26 0 58 10 91 16-4 38 9 57 37 14 20 29 49 39 82 9-5 16-17 19-39 4-28-1-62-12-97zm1-13c12-2 21-13 24-38 7-57-23-136-50-175-29-42-69-58-76 0-4 28 2 63 13 97 16-1 35 13 52 38 14 19 27 47 37 78m-4 161c11 39 15 77 11 107-4 30-14 45-28 47 11 37 17 77 12 110-8 63-47 60-81 12-33-46-60-133-52-195 4-28 13-43 25-47-13-40-20-84-15-120 3-25 11-40 23-46-11-37-15-73-11-101 3-27 13-41 25-44-12-38-18-76-14-106 8-63 50-48 82-2 31 44 63 131 55 194-3 26-13 39-25 41 11 38 16 76 12 106-3 23-10 37-21 42zm-25 143c-9-25-20-47-32-64-16-22-33-34-47-33 9 24 20 46 31 62 16 22 33 35 47 35zm-107-53c-7 57 18 136 48 178 31 44 68 48 76-11 4-31-1-68-12-102-16 1-34-13-52-38-13-19-25-43-35-71-12 3-21 17-24 43z" fill="#fefefe"/><path d="m1581 15310c-10-30-23-56-36-74-18-25-38-38-53-35 10 29 23 56 35 74 18 25 38 39 53 35zm4 12c-16 5-38-10-57-37-14-20-29-50-39-82-10 5-18 18-21 42-4 33 2 74 15 111 15-2 34 11 51 36 13 19 26 45 35 73 13-2 23-16 27-44 4-28 0-62-11-98zm4-162c-9-27-21-51-33-68-16-23-33-36-47-36 9 26 21 49 33 66 16 23 33 37 48 38zm4 12c-16 0-35-15-53-40-13-19-27-46-37-75-12 2-21 15-24 40-3 26 0 58 10 92 16-4 38 9 57 37 14 20 29 49 39 82 9-5 16-17 19-39 4-28-1-62-12-97zm1-13c12-2 21-13 24-38 7-57-23-136-50-175-29-42-69-58-76 0-4 28 2 63 13 97 16-1 35 13 52 38 14 19 27 47 37 78m-4 160c11 39 15 77 11 107-4 30-14 45-28 47 11 37 17 77 12 110-8 63-47 60-81 12-33-46-60-133-52-195 4-27 13-42 25-47-13-40-20-84-15-120 3-25 11-40 22-46-11-37-15-73-11-101 3-27 13-41 25-44-12-38-18-76-14-106 8-63 50-48 82-2 31 44 63 131 55 193-3 26-13 39-25 41 12 38 16 76 12 106-3 23-10 37-20 42zm-25 143c-9-25-20-47-32-64-16-22-33-34-47-34 9 24 20 46 31 62 16 22 33 35 47 36zm-107-53c-7 57 18 136 48 178 31 44 68 48 76-11 4-31-1-68-12-102-16 0-34-13-52-38-13-19-25-44-35-71-12 3-21 17-24 43z" fill="#e5e6e7"/><path d="m23170 148c606 44 1085 148 1666 323 345 99 825 306 1162 467 1339 683 2618 1411 3876 2370 441 319 880 664 1260 967 2218 572 4455 1168 6653 1881 455 149 984 432 1521 837 289 288 470 528 658 901 192 445 448 1149 580 2002 33 312 77 579 66 879 82 235 115 474 165 698-8 185-46 196-78 214-33 428-67 857-100 1285 23 65 150 139 233 211 60 39 90 247 77 340-133 543-542 1177-775 1612-265 364-754 592-2055 823l-493 54c-1-106-130-196-226-190l-695 45c-101 7-170 119-217 217l-26 54-305 33c20-97-62-180-156-171l-1029 90c-101 9-132 101-184 197l-20 36-406 44c19-99-47-174-149-166l-1112 88c-110 9-202 115-260 216l-12 21-447 46 7-25c31-111-31-198-140-189l-1318 113c-109 9-204 111-256 213l-34 67-518 53c16-106-114-216-218-207l-1243 115c-108 10-215 123-299 201l-86 81-809 83c-1793 94-3586 187-5379 281-853 47-1607 200-2426 247-377 2-772-16-1208-76-653-181-714-512-912-1189-87-354-174-707-261-1061-289-1095-416-1866-706-2962-168-521-468-1183-673-1614-277-483-932-1474-1864-1303-850 279-1257 1219-1463 2459-14 122-29 243-43 365-198 413-335 823-437 1241-172 622-269 1310-270 2036-1 472 38 930 112 1367l-5351-471c-1505-165-2640 111-2735-120-414-623-604-1332-835-2137-242-913-522-1812-765-2724-140-418-310-845-528-1138-509-547-1096-95-1259 648-278 1247-287 2419-298 3740-155-271-151-408-74-713-76-1145-18-2243 188-3380 70-427 200-838 299-1257 110-408 207-816 276-1225 45-321 77-538 122-858 25-189 212-493 378-651 175-180 385-458 544-667 486-670 998-1392 1530-2149 177-247 485-723 660-900 314-289 958-675 1364-890 1535-682 2868-1205 4765-1334 3662-576 8455-794 12265-531 244 1 481 36 725 37z" fill="#376cb1"/><path d="m25083 683c-4146-521-12192 557-9359-156 265-401-4176 175-5668 124 41-3 83-6 124-9 3662-576 8455-794 12265-531 981 3 2195 319 2637 572z" fill="url(#2)"/><path d="m40729 11668c-325 172-650 335-961 472-5015 2216-11245 1131-16636 1327-1915 70-4316 118-6411-414 176 745 302 1392 522 2226 87 354 174 708 261 1061 198 677 259 1009 912 1189 436 60 831 78 1208 76 819-48 1573-200 2426-247 1793-94 3586-187 5379-281l809-83 86-81c83-79 191-191 299-201l1243-115c103-10 233 101 217 207l518-53 34-67c52-102 148-204 256-213l1318-113c109-9 170 78 140 189l-7 25 447-46 12-21c58-101 150-208 260-216l1112-88c102-8 168 68 149 166l406-44 20-36c52-95 83-188 184-197l1029-90c94-8 176 75 156 171l305-33 25-54c47-99 116-211 217-218l695-45c96-6 225 83 226 190l493-53c1301-231 1790-459 2055-823 233-434 642-1069 775-1612 13-94-17-301-77-340-83-73-211-146-233-212 33-428 67-857 100-1285 10-5 19-10 29-19z" fill="#386aaf"/><path d="m40676 11992c-262 136-527 266-795 385-5107 2256-11341 1156-16748 1353-1959 71-4287 107-6345-385 143 628 264 1211 455 1936 87 354 174 707 261 1061 198 677 259 1009 912 1189 436 60 831 78 1208 76 819-48 1573-200 2426-247 1793-94 3586-187 5379-281l809-83 86-81c84-79 191-191 299-201l1243-115c103-9 233 101 218 207l518-53 34-67c52-102 148-204 256-213l1318-113c109-9 170 78 140 189l-7 24 447-46 12-21c58-101 150-208 260-216l1112-88c102-8 168 67 149 167l406-44 20-36c52-95 83-188 184-197l1029-90c94-8 176 75 156 171l305-33 26-54c47-98 116-211 217-217l695-45c96-6 225 83 226 190l493-54c1301-231 1790-459 2055-822 233-435 642-1069 775-1612 13-94-17-301-77-340-83-72-210-146-233-211l76-980z" fill="#3868ae"/><path d="m40652 12299c-217 110-436 216-658 314-5183 2290-11386 1179-16859 1378-1954 71-4236 103-6282-359 117 523 228 1035 390 1648 87 354 174 707 261 1061 198 677 259 1009 912 1189 436 60 831 78 1208 76 819-48 1573-200 2426-247 1793-94 3586-187 5379-281l809-83 86-81c84-79 191-191 299-201l1243-115c103-9 233 101 218 207l518-53 34-67c52-102 148-204 256-213l1318-113c109-9 170 78 140 189l-7 24 447-46 12-21c58-101 150-208 260-216l1112-88c102-8 168 67 149 166l406-44 20-36c53-95 83-188 184-197l1029-90c94-8 176 75 156 171l305-33 26-54c47-98 116-211 217-217l695-45c96-6 225 83 226 190l493-54c1300-230 1790-459 2055-823 233-434 642-1069 775-1612 13-94-17-301-77-340-83-73-210-146-233-212l53-673z" fill="#3867ad"/><path d="m40628 12604c-172 85-346 168-522 245-5257 2323-11431 1202-16971 1404-1948 71-4188 99-6219-336 95 428 194 861 326 1362 87 354 174 707 261 1061 198 677 259 1009 912 1189 436 60 831 78 1208 76 819-48 1573-200 2426-247 1793-94 3586-187 5379-281l809-83 86-81c84-79 191-191 299-201l1243-115c103-9 233 101 218 207l518-53 34-67c52-102 148-204 256-213l1318-113c109-9 170 78 140 189l-7 24 447-46 12-21c58-101 150-208 260-216l1112-88c102-8 168 67 149 166l406-44 20-36c52-95 83-188 184-197l1029-90c94-8 176 75 156 171l305-33 26-54c47-98 116-211 217-217l695-45c96-6 225 83 226 190l493-54c1301-231 1790-459 2055-822 233-434 642-1069 775-1612 13-94-17-301-77-340-83-73-210-146-233-212l29-368z" fill="#3965ab"/><path d="m18455 17535c614-53 1257-41 1895 5 555-64 1103-149 1700-182 1793-94 3586-187 5379-281l809-83 86-81c84-79 191-191 299-201l1243-114c103-10 233 101 218 207l518-53 34-67c52-102 148-204 256-213l1318-113c109-9 170 78 140 189l-7 24 447-46 12-21c58-101 150-208 260-216l1112-88c102-8 168 67 149 166l406-44 20-36c53-95 83-188 184-197l1029-90c94-8 176 75 156 171l305-33 26-54c47-98 116-211 217-217l695-45c96-6 225 83 226 190l493-54c1300-230 1790-459 2055-823 233-434 642-1069 775-1612 13-94-17-301-77-340-83-73-210-146-233-212l5-65c-128 61-256 121-385 178-5332 2356-11478 1225-17083 1430-1940 71-4140 96-6156-313 77 338 159 687 262 1078 87 354 174 707 261 1061 198 677 259 1009 912 1189l39 5z" fill="#3a63aa"/><path d="m17975 17327c1146-167 2409-72 3593 69 158-15 318-28 482-37 1793-94 3586-187 5379-281l809-83 86-81c83-79 191-191 299-201l1243-115c103-10 233 101 218 207l518-53 34-67c52-102 148-204 256-213l1318-113c109-9 170 78 140 189l-7 25 447-46 12-21c58-101 150-208 260-216l1112-88c102-8 168 67 149 166l406-44 20-36c52-95 83-188 184-197l1029-90c94-8 176 75 156 171l305-33 26-54c47-99 116-211 217-218l695-45c96-6 225 83 226 189l493-53c1300-231 1790-459 2055-823 233-434 642-1069 775-1612 13-94-17-301-77-340-23-20-49-40-75-59-141 68-282 134-426 197-5406 2389-11524 1249-17194 1456-1932 70-4094 93-6093-293 59 251 123 512 197 795 87 354 174 708 261 1061 140 478 211 784 471 986z" fill="#3a61a8"/><path d="m17773 17096c1606-267 3467-9 5239 213l4417-231 809-83 86-81c83-79 191-191 299-201l1243-115c103-10 233 101 218 207l518-53 34-67c52-102 148-204 256-213l1318-113c109-9 170 78 140 189l-2 7c157-27 314-53 471-79 58-92 143-180 243-188l1112-88c56-4 102 17 128 53 164-22 330-43 498-62 32-54 68-96 133-101l1029-90c58-5 111 24 139 70 122-8 244-15 366-21 46-88 110-176 199-182l695-45c96-6 225 83 226 190l493-53c1300-231 1790-459 2055-823 233-434 642-1069 775-1612 6-44 3-113-9-178-151 73-303 144-456 212-5480 2422-11572 1272-17306 1481-1921 70-4046 90-6027-273 40 164 83 335 130 513 87 354 174 708 261 1061 95 323 158 568 269 755z" fill="#3b5ea5"/><path d="m2796 12062c870-501 2654 399 4077 436 1286 34 3950-936 5635-383l30-255c99-598 245-1126 465-1544-10-733 9-1418 53-2044-232 170-477 351-709 482-2059 1165-4906 304-7284 241-1029-27-2380-98-3495-770 27 74 54 150 81 229 435 313 713 1447 1106 3447l41 161" fill="#376cb1"/><path d="m2755 11900c332-177 752-166 1129-117 568 74 1151 243 1721 372 414 94 837 175 1247 185 428 11 885-73 1298-145 549-96 1095-205 1648-287 709-105 1811-253 2727 57l12-105c99-598 245-1126 465-1544-8-655 5-1270 40-1840-204 153-411 302-628 424-2096 1186-4946 315-7331 253-1049-28-2344-105-3443-724l9 25c435 312 713 1446 1106 3446" fill="#386aaf"/><path d="m2722 11736c343-168 764-160 1152-110 572 74 1157 244 1731 374 407 92 824 172 1227 183 421 11 873-72 1279-143 550-97 1097-206 1651-287 741-110 1851-248 2783 67 99-581 243-1094 458-1502-7-576 2-1123 28-1634l-53 39c-161 116-325 229-496 325-2128 1204-4965 328-7379 265-990-26-2175-98-3229-600 305 486 543 1487 848 3025z" fill="#3868ae"/><path d="m2691 11576c802-355 2082 81 2914 269 400 90 811 170 1206 180 414 11 861-72 1260-142 551-97 1099-206 1653-288 774-115 1896-245 2845 78 98-522 236-984 433-1358-6-501 0-979 19-1431-153 109-309 215-471 307-2158 1221-4983 340-7426 277-968-25-2104-96-3137-549 243 517 451 1398 703 2656z" fill="#3966ac"/><path d="m2658 11414c830-347 2088 82 2947 275 394 89 798 168 1187 178 407 11 849-72 1242-141 552-97 1100-206 1656-288 798-118 1936-254 2911 87 96-461 225-871 403-1209-6-428-2-839 11-1231-129 90-260 176-396 253-2189 1238-5002 353-7474 288-955-25-2057-95-3075-514 199 506 379 1271 588 2302" fill="#3964ab"/><path d="m2625 11253c854-340 2094 82 2979 282 387 87 784 165 1166 175 400 11 837-72 1223-139 553-97 1102-206 1658-289 829-123 1983-257 2980 98 92-402 212-762 372-1064-5-357-2-702 6-1034-105 72-213 140-322 202-2219 1256-5021 365-7522 300-946-25-2023-95-3027-488 163 471 316 1121 488 1957z" fill="#3a62a9"/><path d="m2592 11092c1152-435 2936 428 4159 460 393 10 825-71 1204-138 553-97 1103-207 1660-289 861-127 2032-259 3051 111 87-345 197-655 337-921-4-288-3-568 2-840-82 54-165 106-250 153-2250 1273-5040 378-7569 312-939-25-1995-95-2989-467 131 419 258 957 396 1618z" fill="#3a60a7"/><path d="m12051 7564l354 9h3 1c27 2 52 14 69 32 17 18 28 43 27 70v3l-22 358c-2 28-15 53-36 71-20 18-47 28-76 28l-355-9h-3c-27-2-52-14-69-32-17-18-28-43-27-70v-3l22-359c2-28 15-53 36-71 20-18 47-28 76-28z" fill="#393738"/><g fill="#307ec1"><path d="m11815 14849v5l-1 13v5l-2 27-1 10-1 19v4l-1 15-1 18v1l-1 19-1 13v5l-1 19-1 9-2 29v4l-1 23-1 23v6l-1 14-2 52-1 15-1 15-1 38v14 5l-1 19v9l-1 61v6 19 14 5 19 36 2 5 34c-1 472 38 930 112 1367l-5351-471c-1505-165-2640 111-2735-120-364-547-555-1162-753-1849 504-82 1182-32 1480-25 1432 38 2836 831 4262 904 1055 54 1614 228 2304-527 267-292 528-439 774-479-27 179-49 361-64 546z"/><path d="m16553 12368c-168-521-485-1233-689-1664-277-483-932-1474-1864-1303-850 279-1257 1219-1463 2459-14 122-29 243-43 365-198 413-335 823-437 1241-22 80-43 162-63 244 45-3775 1240-6623 2687-6654 1298-28 2421 2144 2849 5284l-977 27z"/></g><path d="m7351 5690c1686-27 3358-16 5016 29l62-160c-82-466-179-904-293-1337-114-436-246-871-395-1327-202-511-392-938-656-1253-252-347-593-542-1085-579-921 19-1748 170-2507 435-760 265-1452 644-2103 1119-600 527-1153 1043-1672 1588-496 521-962 1070-1409 1681 1698-105 3378-169 5042-196" fill="#2f314a"/><path d="m11948 4250c-393-1070-980-2211-1290-2397-742 396-1044 430-1450 1171l-110 372 21 235c163 14 564-7 759 61 572 516-141 1271 253 1646 637 418 2238 549 1816-1087z" fill="#a8afc0" fill-rule="nonzero"/><path d="m8420 1483c-547 117-1099 295-1608 529-472 195-1194 593-1472 868-403 949-782 1676-1081 2662 1223-46 1878-763 2753-219 202-796 498-1420 760-2162l648-1678m-5513 3839c337 5 293 155 962 195l889-2051c67-155-1328 1162-1851 1856m6301-1695c27-1047 278-1166 1205-1245 299-25 717 50 504-281-82-127-166-227-274-335-178-177-395-365-651-413-316-43-811-27-1018 55-292 820-489 1373-782 2192-44 88-41 165 2 178 217-196 1014-131 1014-151" fill="#616c7b"/><path d="m7365 3642c73-179 178-472 160-425-964 43-4175 1409-1208 551 430-102 617-83 1049-126zm-3056 1012l-43 4c-485 45-911 295-1089 460-125 122 660 243 900 234l232-698m2764-605c-982 17-1414 522-2409 562-89 250-174 503-256 761 325-18 598-47 694-75 744-219 1112-476 1883-156 41 17 80 26 118 30 106-361 229-738 353-1101-27-15-349-13-383-20z" fill="#a8afc0"/><path d="m12408 1225h4l154-18h4l20-2c147-17 294-33 441-49l10-1 9-1 67-7 10-1 77-8c-310 62-779 166-877 163l-325-8 81 204-2-4-1-2-1-2-1-2-1-2-1-2-1-2-1-2-1-2-1-2-1-2-1-2-19-28v-1-1l-1-2v-1l-1-1v-1l-1-2-2-3-1-2-1-2-1-1-1-1-1-1-1-1-1-1-1-1-1-1c-10-15-20-30-30-45l-1-1-1-2c-16-18-32-36-49-53l-18-40 20-2 20-2 115-14 4-1 20-2 20-2 12-1 8-1 20-2 20-2 20-2 20-2 31-4 143-17zm18024 3008c-1775-1252-3418-2478-5275-3512-1276-45-2583-15-3842-48l2044 3002c407 646 1552 479 3411 470 1297 5 2470 57 3662 88" fill="#616c7b"/><path d="m11935 1280c3344-406 6624-604 9879-614 222 23 843 128 355 524-155 118 114 321 241 604 305 507 824 1356 1129 1863 110-58 1291-381 2217-385 1594 71 1395 717 2969 863l57-34c96 16 153 7 175-24l706 80-26 61c-999-14-2001-1-3000 26-1487 45-2973 125-4456 240-1506 117-3010 262-4512 431-1154 128-2307 273-3458 424-90-12-219-33-338-53-844-1110-1041-2712-1872-3913-16-18-32-36-48-53l-18-40" fill="#2f314a"/><path d="m21889 2522l81 485c86 357-176 1167-345 1333l786-26c101 3 384-213 462-305l-940-1529-44 42m-4118 2053l122 3c164 4 813 27 816-101 1-39-199-146-189-534l-6-328 113-646c-171 119-823 1313-855 1605zm-1585-1169c-45-182-90-570-177-733-476-745-2287-389-3203-417 143 382 934 2620 1206 2633l69-573c99-483 117-759 803-812l1302-99zm9107-1871c-152-66-672-286-863-339-258-72-1235-3-1563-11l1278 2281c538-102 883-138 1517-179 1487-18 1404 541 2112 779l948 23c1015 243-1300-1725-3429-2553z" fill="#a8afc0"/><path d="m19824 1351l105 420h-223l-133-403-785 68c-383-10-484 352-343 699 66 193 2149-119 2581-170 183-4 270-625-12-700-314-81-815 56-1190 86" fill="#616c7b"/><path d="m31272 4311c94-9 178-16 247-22 331-20 431-117 436-248l-1041 59c75 60 149 118 220 175l138 36" fill="#393738"/><path d="m30004 3402c-18-33-34-60-47-79-158-99-36-316 209-309 398 48 795 97 1192 145 440 88 677 459 600 900-337 29-674 52-1010 68-295-234-617-485-944-725" fill="url(#B)"/><path d="m30199 3029c396 48 761 124 1156 172 342 71 631 361 571 813-1 0-1 0-2 0 0 5-45-13-48-77-8-78-122-145-162-154-89-18-619 34-1109 74l-24-18c475-57 987-124 1138-96 63 7 169 120 163 12-11-158-291-494-535-509-393-48-754-142-1149-190-97 9-167 40-200 202-9-155 63-215 200-228z" fill="#fefefe"/><path d="m11935 1281c4491-546 8866-714 13221-560 1857 1033 3501 2260 5275 3512-5673-146-11579 496-16221 1106-90-12-219-34-338-53-844-1110-1041-2713-1872-3913-16-18-32-36-48-53l-18-40zm13194-464c-4351-154-8701 24-13024 541 320 474 546 1004 750 1536 297 774 571 1634 1070 2306 95 15 189 31 284 44 5250-689 10605-1223 15908-1112-1631-1156-3240-2338-4989-3313z" fill="#292729"/><g fill="#3c57a1"><path d="m11725 1303c366 444 1117 2585 1635 3933 191 37 353 54 544 91-871-1111-1062-2738-1903-3953-235-268-560-444-915-561-311-94-689-154-974-167-50 4-100 8-149 12 316 26 765 95 1095 206 296 105 432 181 667 439"/><path d="m25166 723c24 21 224 122 258 149 1749 1001 3318 2169 5007 3361 218 11 447 26 666 18-366-292-803-639-1223-943-1258-959-2537-1687-3876-2370-336-162-817-368-1162-467-694-200-1576-376-2350-352 431 29 1201 135 1651 250 404 108 521 108 1029 355z"/></g><g fill="#292729"><path d="m25166 723c24 21 224 122 258 149 1744 998 3309 2163 4993 3350 218 1 436 4 654 7-361-288-786-626-1196-922-1258-959-2537-1687-3876-2370-190-91-427-197-659-290-116-3-233-5-349-7 53 24 111 51 175 82z"/><path d="m11725 1303c366 444 1117 2585 1635 3933 191 37 353 54 544 91-871-1111-1062-2738-1903-3953-35-40-72-78-111-113l-186 21 21 22z"/></g><path d="m21063 17452c220-169 483-484 625-721 268-431 761-1091 1282-1105 5322-285 9758-552 15206-1139 459-98 1368-227 1830-337 106-24 237 18 203 237-87 258-204 500-272 642-254 520-1843 733-2006 750-2073 65-4027 303-5942 597l-1097 94c-71 6-137 52-189 111-218 36-436 72-654 109-43-58-119-100-184-94l-1243 115c-108 10-216 123-299 201l-86 81-809 83c-1793 94-3586 187-5379 281-341 19-667 55-987 94z" fill="#3a60a7"/><path d="m6637 7400l524 20c109 4 109 42 105 114-1 11-443-18-520-20-80-2-106 38-82 106 63 172-175 167-163 39l13-145c7-77 43-118 123-115zm448 902c-84 119-188 166-322 162-187-2-329-151-333-526 1-46-1-91 8-134 16 26 141 87 170 101-13 46-101 7-110 23-32 29-8 490 281 485 107 3 232-29 305-111z" fill="#fefefe"/><path d="m7257 7817c1 18-39 177-39 196-35 134-92 271-161 323 24-43 59-139 75-201 65-177 26-179-118-120-147 61-421 77-418-112l1-17h-13c-70-2-141-57-153-122-14-22-22-48-19-73l26-256c8-77 82-139 162-136l565 22c51 2 102 29 127 68-27-20-61-33-95-34l-565-21c-80-3-154 59-162 136l-26 256c-3 28 6 55 23 79 28 23 64 37 99 38l527 14c80 2 130-62 149-136l64-255c3-12 3-23 2-34 16 23 23 50 16 79l-64 255c-6 25-16 48-29 69 12-7 22-13 26-14z" fill="#393738"/><path d="m2729 7448l428-25c89-5 88 29 83 95-1 10-362 21-425 25-65 5-88 44-69 104 48 151-146 167-134 49l14-133c7-71 38-111 103-115m349 784c-71 115-157 167-267 175-153 14-266-110-262-452 2-42 1-83 9-123 12 23 114 67 137 78-12 43-83 15-90 30-27 29-16 447 221 418 88-6 190-46 252-126" fill="#fefefe"/><path d="m3227 7776c1 16-35 165-36 182-31 125-81 255-138 307 20-41 51-131 65-189 57-166 24-165-94-99-122 68-346 105-340-67l1-16-11 1c-57 4-114-40-123-98-11-19-17-42-14-65l26-235c8-71 70-134 135-138l462-28c42-3 83 18 103 52-21-16-49-25-77-23l-462 28c-65 4-127 67-135 138l-26 235c-3 26 4 49 17 70 23 18 52 29 80 27l431-32c65-5 108-67 125-137l57-237c3-11 3-21 2-31 13 20 18 44 12 70l-57 237c-6 23-14 45-25 65 10-7 19-14 22-15z" fill="#393738"/><path d="m3237 13724c-119-41-179-125-181-222-1-54 39-117 81-136 71-33 87-59 316-11 994 174 2006 374 3000 548 1799 289 3578 499 5389 687 0 141-1 300-2 441-1803-198-3819-322-5488-596-1198-252-2168-454-3116-710z" fill="#bcbdbf"/><path d="m40224 11386c95-151 236-319 239-604-114 116-350 215-608 300-250 82-1132 267-1723 236 569-55 1283-218 1686-350 332-109 557-236 591-376 8-116-20-403-59-687-29-212-90-760-148-1261 35 73 222 916 267 1245 38 276 66 557 61 691l5-1c59 446-83 672-208 871-233 370-368 360-102-64zm-21639-3031c-335 30-366 291-625 313-136 30-279 19-406-36-304-104-585-150-672-1-160 194-7 715 186 1409-342-826-374-1267-258-1468 128-220 426-176 785-53l5 2c104 45 231 82 343 58 228-50 390-249 642-224m-4295-1204c-226 154-420 312-608 646-129 223-383 877-172 1107 15 17 32 30 50 38 197 94 732-80 1105 56 628 230 799 646 1261 898 168 91 308 11 407-134 108-157 218-555 274-905 55 265-21 748-176 972-135 197-340 292-563 171-450-245-710-705-1261-907-414-152-827 86-1100-44-441-211-52-994 101-1259 136-214 358-475 680-640zm12146 4625c262 44 465 73 627 78 258 22 198-258 112-512-96-279-165-444-294-760l-181-358c-61-124-334-599-201-437 34 23 265 402 350 561 67 112 187 282 253 396 249 422 785 1154 1453 1106l74 180c-558 40-1481-1000-1423-830 146 424 460 802-122 783-171-6-403-44-669-89-476-79-1831-197-2332-149 826-108 1517-108 2352 31zm9804-4851c400-123-148-572-764-918-850-607-3143-1361-4141-1596 916 79 6400 1878 5099 2634-483 109-2864-250-3780-1 845-307 2383-75 3586-119m1355 76c304 424 280 895 240 820-151-68-289-551-503-802-400-524-1423-1209-1927-1447 517 157 1670 646 2189 1428zm-18686 3195c698 58 1557 174 2237 438 317 104 1518 687 1620 1424-370-639-1115-1092-1777-1349-956-360-1697-421-2079-513z" fill="#fefefe"/><path d="m12051 7583l354 9c48 1 85 40 82 86l-22 358c-3 46-45 83-93 82l-354-9c-48-1-85-40-82-86l22-359c3-46 45-83 93-82z" fill="#f8db4e"/><path d="m12054 7604l301 8c8 0 16 2 23 4l-132 33 31-7-114 28 244-34c4 4 7 9 9 14l-167 50 171-41c2 6 4 12 4 19l-34 8 35-5c0 3 0 7 0 10l-1 17-184 39 126-19-121 41 178-47-2 29-15 5 15-4-1 21-145 34 145-26-1 20-207 71 114-26-30 8 12-3-12 3 31-7-113 29 203-29-1 23-116 35 115-28-3 49-122 26 121-18v1l-116 39 115-31-3 49-83 20 83-15-1 24-1 6-144 50 114-26-30 8 55-13c-12 30-41 51-73 50l-301-8c-41-1-72-37-70-79l19-330c3-43 38-77 79-75" fill="#fcf0c3"/><path d="m3160 13496c-53 219-125 411-203 567-238-886-509-1760-745-2648-140-418-310-845-528-1138-509-547-1096-95-1259 648-278 1247-287 2419-298 3740-155-271-151-408-74-713-76-1145-18-2243 188-3380 68-417 193-818 292-1226 240-609 532-969 828-981 615-26 922 1127 1395 3536l405 1595z" fill="#307ec1"/><path d="m21063 17453c219-169 483-484 625-721 268-431 762-1091 1282-1105 5322-285 9758-552 15206-1139 459-98 1368-227 1830-337 106-24 237 18 203 237-17 50-250 565-268 613 89-301 73-663-138-639-933 105-1576 372-1820 656-5448 587-9077 812-14399 1097-709 53-1022 144-1092 559 31 379 775 483 2171 546-329 19-3291 194-3601 232z" fill="#334e83"/><path d="m38019 16064c95-189 109-408 113-631-12-348-212-492-533-519-2823 248-5637 518-8460 766-394 25-770 191-1011 510-174 239-461 679-675 777-129 18-258 36-388 54-45 10-19 87 38 85 320 8 861 13 1095-55l100-94c83-79 191-191 299-201l1243-115c109-10 246 112 214 223l512-51 43-85c52-102 148-204 256-213l1318-113c109-9 170 78 140 189l-13 46 439-44 26-45c58-101 150-208 260-216l1112-88c110-9 179 81 142 192l-1 2 396-40 37-68c52-96 83-188 184-197l1029-90c101-9 188 87 151 192l-8 22 297-30 47-100c47-98 116-211 217-217l695-45c101-6 238 92 225 205l-4 38 462-47z" fill="#959699"/><path d="m36474 16038c43-66 97-121 167-126l695-45c101-6 238 92 225 205l-4 38 136-14c12-24 21-50 24-77l37-340c12-113-125-211-225-205l-695 45c-101 6-170 119-217 217l-143 301zm-1806 364l19-2 37-68c52-95 83-188 184-197l1029-90c101-9 188 87 151 192l-8 22 42-4c19-29 35-61 47-93l111-317c37-105-50-201-151-192l-1029 90c-101 9-132 102-184 197l-237 431c-5 10-9 20-12 30zm-1952 196l35-4 26-45c58-101 150-208 260-216l1112-88c110-9 179 81 142 192l-1 2 64-6 130-388c37-111-32-200-142-192l-1112 88c-110 9-202 115-260 216l-253 440zm-2157 217l8-1 43-85c52-102 148-204 256-213l1318-113c109-9 170 78 140 189l-13 46 86-9 4-12 115-418c30-111-31-198-140-189l-1318 113c-109 9-204 111-256 213l-244 478zm-425 43l114-384c33-110-105-233-214-223l-1243 115c-108 10-216 123-299 201l-543 512 250-25 100-94c83-79 191-191 299-201l1243-115c109-10 247 112 214 223l79-8z" fill="#727375"/><path d="m38122 15334c-44-277-235-396-524-420-2823 248-5637 518-8460 766-394 25-770 191-1011 510-174 239-461 679-675 777-129 18-258 36-388 54-45 10-19 87 38 85l66 1 307-43c214-98 500-538 675-777 241-319 617-485 1011-510 2823-248 5637-518 8460-766 252 21 430 115 500 322z" fill="#fefefe"/><path d="m38006 12307l2692-604v4l-1 20-2 20-2 29-2 31-2 20-2 20v5l-4 56-1 20c8 517-32 838-98 1078 95 200-24 392-292 476-543 177-766 191-1275 303-1042 177-1341 207-1255-318l245-1160z" fill="#26252f"/><path d="m40615 12774l-2 21v3l-2 21v3l-1 9v3 3 3 3 3 3 3 3 3 3 3 3 4l-1 11v3 3 3 3l-5 65v3 3 3l1 2v1 1 1 1l1 2v1 1 1 1 1 1 1 1l3 6v1 1l1 1v1l1 1v1l1 1 1 1v1 1l1 1 1 1 1 1 1 1 1 1 1 1v1l1 1 1 1 1 1 3 4v1l2 3 1 1 1 1c-918 285-1850 425-2779 589-20-3-2-224 26-245 926-154 1854-301 2739-587zm-2596-106c-4 3-46 232-26 245 900-133 1794-284 2655-562v-2l10-124v-4l2-27v-1-4-1l6-73v-4-3-1-4-4c-876 272-1762 426-2648 568z" fill="#2c2e3f"/><path d="m40604 12911c0 6-1 12-1 17-809 274-1700 397-2570 558-22-15-13-42 26-80 851-141 1707-243 2545-495m-2402-197c-35 34-61 66-26 80 830-147 1660-288 2479-538 0-6 1-13 1-19-820 218-1637 347-2454 478z" fill="#727375"/><path fill="#393738" d="m38006 12307l2692-604v4l-1 20-2 21-3 32v8l-2 20-1 20-3 31-1 9-1 20-2 20-2 30-2 30-2 20-1 20-1 9-3 32-1 20-2 29-1 2-2739 576 78-369"/><path d="m38342 12232c4 14 5 30 3 47 10-19 21-38 34-55l233-52c3 15 4 31 2 50 10-20 22-40 36-58l230-51c4 15 5 33 3 52 11-22 24-42 38-61l226-51c4 16 6 34 4 55 12-23 25-45 40-65l223-50c5 17 7 36 5 58 12-25 27-48 43-69l219-49c6 17 8 38 6 61 13-26 28-51 45-73l215-48c7 18 9 39 7 64 13-28 30-54 48-77l211-47c7 18 11 41 9 68 14-29 31-57 51-81l207-46c8 19 12 43 10 70 14-31 32-60 53-85l156-35v4l-1 20-2 20-3 36v4l-2 20-5 59v1l-1 20-5 60v6c-43 57-96 97-141 105-62 10-93-39-84-116-45 89-121 161-184 171-62 10-93-39-84-115-45 88-120 160-183 170-62 10-94-38-85-114-44 87-120 159-183 169-62 11-93-38-85-113-44 87-119 158-182 168-62 11-94-37-86-112-44 86-119 157-181 168-62 11-94-37-87-112-44 86-119 156-181 167-62 11-95-36-87-111-44 86-119 156-181 167-62 11-95-36-88-110-44 85-119 156-181 167-62 11-94-36-88-109-43 85-130 157-181 167-51 9-66-9-80-39-13-31-13-77 5-131 13-38 32-75 55-107l233-52z" fill="#727375"/><path d="m40611 11780c-14 3-24 33-27 44-11 37-8 83 22 78 18-3 29-27 35-45 12-39 0-82-30-77m-266 57c-15 3-25 31-29 45-12 37-7 81 23 76 18-3 29-26 35-45 12-39 1-81-29-76m-267 57c-15 3-25 29-30 44-12 37-7 80 23 75 18-3 29-25 36-45 12-39 1-79-29-74m-267 57c-16 3-26 28-31 44-12 37-6 78 24 73 17-3 29-24 35-44 12-38 2-78-27-73zm-267 57c-17 3-26 26-32 44-12 37-5 76 24 71 17-3 29-24 35-44 12-38 2-76-27-71m-267 57c-17 3-27 26-33 43-12 37-4 75 25 70 17-3 28-23 35-43 12-37 3-75-26-70zm-268 58c-17 3-27 24-33 43-12 36-4 74 25 69 17-3 28-23 35-43 12-37 3-74-26-69zm-268 58c-17 3-28 23-34 42-12 36-3 73 25 68 17-3 28-22 34-42 12-36 3-74-26-69zm-268 58c-17 3-28 23-34 43-12 36-3 72 26 67 17-3 28-22 34-42 12-36 3-73-26-68m-269 58c-17 3-28 23-34 43-12 36-3 72 26 67 17-3 28-22 35-43 12-36 2-72-26-67zm139-66c4 14 5 30 3 47 10-19 21-38 34-55l21-5c-16 25-30 52-39 80-30 90-2 153 61 142 64-11 139-93 169-183 11-32 14-61 11-84l11-2c3 15 4 31 2 50 10-20 22-40 36-58l20-4c-17 25-32 54-41 83-29 90-2 153 61 142 64-11 140-93 169-183 11-33 14-63 10-87l11-2c4 15 5 33 3 52 11-22 24-42 38-61l20-5c-18 26-33 56-43 86-30 90-3 154 61 143 64-11 140-94 170-184 11-35 14-65 10-89l10-2c4 16 6 34 4 55 12-23 25-45 40-65l20-4c-19 27-35 58-46 90-30 90-3 155 60 144 64-11 140-94 170-185 12-36 14-68 9-93l10-2c5 17 7 36 5 58 12-25 27-48 43-69l20-4c-20 28-37 60-48 94-30 91-4 156 60 145 63-11 141-94 170-186 12-38 14-71 8-96l9-2c6 17 8 38 6 61 13-26 28-51 45-73l19-4c-21 29-39 63-50 98-30 91-4 157 59 146 63-11 141-95 171-186 13-40 14-74 7-99l9-2c7 18 9 39 7 64 13-28 30-54 48-77l19-4c-22 30-40 65-52 102-30 92-5 158 59 147 63-11 142-95 171-187 13-41 14-77 6-103l9-2c7 18 11 41 9 68 14-29 31-57 51-81l19-4c-23 31-42 67-55 106-29 92-5 159 59 148 63-11 142-96 171-189 13-43 14-80 4-106l9-2c8 19 12 43 10 70 14-31 32-60 53-85l19-4c-24 32-44 70-57 110-29 93-5 160 59 149 39-7 83-41 119-88v3l-3 40v6c-43 57-96 97-141 105-62 10-93-39-84-116-45 89-121 161-184 171-62 10-93-39-84-115-45 88-120 160-183 170-62 10-94-38-85-114-44 87-120 159-183 169-62 11-93-38-85-113-44 87-119 158-182 168-62 11-94-37-86-112-44 86-119 157-181 168-62 11-94-37-87-112-44 86-119 156-181 167-62 11-95-36-87-111-44 86-119 156-181 167-62 11-95-36-88-110-44 85-119 156-181 167-62 11-94-36-88-109-43 85-130 157-181 167-51 9-66-9-80-39-13-31-13-77 5-131 13-38 32-75 55-107l20-5c-16 24-29 51-38 78-30 90-2 153 62 141 64-11 139-94 169-183 10-31 13-59 11-81l9-2z" fill="#4d4c4e"/><path d="m1002 7138c1667-193 3585-256 5555-242 1967 14 3985 106 5855 225 53 0 76 27 76 71 2 60-79 136-56 148 415-2 656-79 949 191l3 3c248 263-58 573-203 802-165 262-637 960-363 1258 163 140 335-76 451-195 144-159 299-285 496-359 197-74 433-96 736-47l5 1 3 1c337 99 637 306 909 589 268 279 507 631 726 1026 148 277 523 804 767 361 130-211 148-580 122-920 58 330 74 695-78 972-298 542-752-61-910-347-204-360-424-709-712-1008-257-267-540-463-854-556-279-45-494-26-671 41-177 67-319 182-451 329l-2 2c-166 169-350 398-625 192-348-378 165-1109 350-1403 105-166 447-481 258-682-298-272-701-77-988-127-193-26 107-210 38-274-1849-117-3890-162-5831-176-1964-14-3893-13-5556 179l2-57zm2136 6445c-30-45 22-135 63-154 71-33 78-51 321-11 995 174 2006 374 3000 548 1776 285 3533 493 5319 680v63c-1766-181-3504-382-5260-657-995-169-2006-364-3001-533-238-36-292-23-308 8-17 33-83 134-136 55zm8766-712c-1313 97-2368 221-4420 86-2829-187-8476-1119-962-168l28 4 18 2c1975 171 3535 98 5414-69l-3 10-75 136zm-4613-139c1998 132 3201-27 4733-137 16-50 33-99 50-149l-64 7c-1900 190-3475 279-5455 109-7275-926-2068-15 735 170zm-6702-2702c82-161 166-288 277-365 472-327 851 176 1038 528 147 275 221 474 356 956 139 507 483 1922-19 128-110-357-229-704-387-1000-173-324-545-792-966-501-100 69-203 190-278 338-253 594-202 460-21-85zm-378 1439c-140 938-176 1856-117 2807-8 50-12 95-12 139-10 43-18 83-24 120-84-190-71-325-7-573-76-1129-19-2211 187-3332 68-411 193-806 291-1209 240-600 532-955 827-967 216-9 394 126 555 407-139-192-292-284-471-277-296 12-588 367-827 967-98 403-223 798-291 1209-44 237-80 473-111 708zm18849-3939c-3471-1675-7062-1443-10904-1525-2101 41-4296-71-6391 59-219 331-494 621-730 902 5361-719 12661-395 18025 564" fill="#fefefe"/><g fill="#393738"><path d="m6924 5650l4-16c341-1448 823-2871 1440-4225-891 207-2319 893-2981 1409-761 987-1056 1812-1572 2928 1016-50 2055-81 3109-96m4359-3436c-306-534-581-822-1202-957-392-26-762 30-1148 52-664 1381-1142 2832-1440 4335 1574-13 3181 8 4801 56-52-311-107-620-175-926-223-868-460-1744-836-2560m-4357 3561c-1035 15-2070 45-3104 96l-206 10 86-187c512-1109 838-1979 1586-2952l10-12 12-10c711-555 2149-1228 3029-1433l247-57-105 231c-614 1348-1092 2761-1432 4202l-26 111-97 1m2000-4590c390-22 771-78 1163-52h9l9 2c656 142 959 451 1284 1017l3 5 2 5c380 824 619 1706 844 2584 69 309 135 620 176 934l11 79-21 66c-1598-47-3315-70-4914-56l-153 1 30-150c299-1511 782-2977 1450-4365l32-66 73-4z"/><path d="m11403 5677c297 7 594 15 891 24-114-682-272-1341-468-2004l-423 1980"/><path d="m4526 4170l-279 1555c-144 6-341 48-485 55 240-520 501-1140 764-1611z"/><path d="m11497 4826c31 27 121 31 211 39 138-92 326-128 388-2 85 172-111 594-167 673-62 80-155 88-370 91-594-3-1899-24-2493-27-508 7-678-100-710-258l2809-52 146-621 185 158z"/></g><path d="m11206 5291c34-110 99-225 104-371-3-168-4-437-8-605 11-230-84-389-410-390-597 97-1194 194-1791 291-654 150-946 621-747 1149 957 4 1908-14 2851-74z" fill="url(#A)"/><path d="m10897 3982c-595 97-1190 187-1783 284-509 119-895 499-718 1041 1 0 2 0 3 0 2 6 66-20 58-98-2-95 159-188 218-201 181-41 1640-5 2474-26-831-8-2183-89-2489-24-95 14-235 162-247 30-13-192 351-626 720-669 591-96 1175-209 1768-305 149 2 263 33 342 226-16-189-136-255-347-257z" fill="#fefefe"/><path d="m11787 5049c68-46 222-110 252-33-22 199-327 569-432 527 80-69 273-294 293-433 29-64-152-34-113-60zm-433-298c54 53 87 110 151 136 178 89 258-8 376-47 15-2 40 18 34 32-13 32-46 54-77 69-110 53-285 94-379-5-59-39-156-233-105-184z" fill="#727375"/><path d="m7351 5698c1686-27 3358-16 5016 29l62-160c-82-466-179-904-293-1338-114-436-246-871-395-1327-202-511-392-938-656-1252-260-310-593-512-1085-579-921 19-1748 170-2507 435-760 265-1452 644-2103 1119-600 527-1153 1043-1672 1588-496 521-962 1070-1409 1681 1698-105 3378-170 5042-196m5047 125c-1667-45-3348-57-5046-29-1697 27-3410 93-5139 202l-101 6 59-82c467-648 955-1225 1478-1773 521-547 1077-1066 1680-1596l2-2 1-1c659-481 1360-865 2129-1133 769-268 1607-421 2541-440h4 3c520 69 873 283 1149 613 273 325 467 761 672 1281l1 3c149 456 281 892 397 1333 115 440 214 885 297 1359l2 13-5 12-98 179-19 55h-8z" fill="#e5e6e7"/><path d="m30712 4292c1120 467 2582 921 3749 1344 563 257-237 365-419 329-3891 98-8239-628-11982-744-643-39-3678-27-3062-307 964-93 11438-470 11713-623z" fill="#376cb1"/><path d="m30608 4424l18 10c-264-6-529-11-793-13h-4l-209-2h-2l-159-1h-88-155-68-147-99c-112 1-223 1-335 2h-9l-200 2h-18l-164 2-99 1-152 3-210 4h-1l-211 5-155 4-100 3-146 4-43 1-184 6-21 1c-198 7-396 14-593 22l-27 1-174 7-52 2-179 8-201 10h-6l-207 10-160 8-91 5-93 5-178 10-53 3-240 14-9 1-205 13-140 9-127 8-52 4-189 13-76 5c-145 10-290 21-435 32l-39 3-26 2c-146 11-291 22-436 34l-67 6-162 13-61 5-13 1-199 17c-118 10-236 21-354 31l-126 11-72 7c-137 13-273 25-409 38l-132 13c-708 69-1402 143-2079 222 66 3 119 7 157 10 2804 137 5741 600 8618 948 2337 283 4680 516 6890 452h7l7 2c106 27 264 3 351-17 50-11 295-84 270-178-18-68-258-199-294-217-1315-563-2633-1067-3954-1632l15 9c-217-3-433-5-650-5z" fill="#4473b6"/><path d="m35204 6129c-1371-587-2743-1109-4119-1702-160-2-319-3-478-3l-82-46 101 56c-264-6-529-11-793-13h-4l-209-2h-2l-159-1h-88-155-68-147-99c-112 1-223 1-335 2h-9l-200 2h-18l-164 2-99 1-152 3-210 4h-1l-211 5-155 4-100 3-146 4-43 1-184 6-21 1c-198 7-396 14-593 22l-27 1-174 7-52 2-179 8-201 10h-6l-207 10-160 8-91 5-93 5-178 10-53 3-240 14-9 1-205 13-140 9-127 8-52 4-189 13-76 5c-145 10-290 21-435 32l-39 3-26 2c-146 11-291 23-436 34l-67 6-162 13-61 5-13 1-199 17c-118 10-236 21-354 31l-126 11-72 7c-137 13-273 25-409 38l-132 13c-542 52-1076 109-1600 167 2698 157 5510 595 8268 929 2335 283 4676 516 6884 452l13-1 14 4c111 28 490-20 564-122-58-48-166-108-208-130z" fill="#507abb"/><path d="m35212 6207c-1432-612-2864-1155-4301-1782-101-1-202-1-303-2l-92-51c37 21 74 41 111 62-264-6-529-11-793-13h-4l-209-2h-2l-159-1h-88-155-68-147-99c-112 0-223 1-335 2h-9l-200 2h-18l-164 2-99 2-152 3-210 4h-1l-211 5-154 4-101 3-146 4-43 1-184 6-21 1c-198 7-396 14-593 22l-27 1-174 7-52 2-179 8-201 9h-6l-207 10-160 8-91 5-93 5-178 10-53 3-240 14-9 1-205 13-140 9-127 8-52 3-189 13-76 5c-145 10-290 21-435 32l-39 3-26 2c-146 11-291 22-436 34l-67 6-162 13-61 5-13 1-199 17c-118 10-236 21-354 31l-126 11-72 7c-137 13-273 25-409 38l-132 13c-381 37-757 76-1129 116 2545 178 5181 584 7770 897 2332 283 4671 515 6877 452h20l22 5c85 22 315-5 443-59-23-13-45-25-60-33z" fill="#5c83c1"/><path d="m35040 6208c-1432-607-2864-1151-4301-1784l-132-1-8-5 26 15c-265-6-529-11-793-13h-4l-209-2h-2l-159-1h-88-155-68-147-99c-112 1-223 1-335 2h-9l-200 2h-18l-164 2-99 1-152 3-210 4h-1l-211 5-155 4-100 3-146 4-43 1-184 6-21 1c-198 7-396 14-593 22l-27 1-174 7-52 2-179 8-201 10h-6l-207 10-160 8-91 5-93 5-178 10-53 3-240 14-9 1-205 13-140 9-127 8-52 4-189 13-76 5c-145 10-290 21-434 32l-39 3-26 2c-146 11-291 23-436 34l-67 6-162 13-61 5-13 1-199 17c-118 10-236 21-354 31l-126 11-72 7c-137 13-273 25-409 38l-132 13c-228 22-454 45-679 68 2396 193 4865 567 7292 861 2330 282 4666 515 6870 451l26-1 29 7c47 12 140 7 232-8z" fill="#698cc6"/><path d="m34671 6127c-1358-566-2716-1087-4079-1694-253-6-506-10-759-13h-4l-209-2h-2l-159-1h-88-155-68-147-99c-112 1-223 1-335 2h-9l-200 2h-18l-164 2-99 2-152 3-210 4h-1l-211 5-155 4-100 3-146 4-43 1-184 6-21 1c-198 7-396 14-593 22l-27 1-174 7-52 2-179 8-201 9h-6l-207 10-160 8-91 5-93 5-178 10-53 3-240 14-9 1-205 13-140 9-127 8-52 3-189 13-76 5c-145 10-290 21-434 32l-39 3-26 2c-146 11-291 22-436 34l-67 6-162 13-61 5-13 1-200 17c-118 10-236 21-354 31l-126 11-73 7c-137 13-273 25-409 38l-132 13-243 24c2250 201 4558 547 6829 822 2311 280 4629 511 6816 452z" fill="#7697cd"/><path d="m34305 6050c-1293-532-2588-1035-3886-1621-195-4-390-7-585-9h-4l-209-2h-2l-159-1h-88-155-68-147-99c-112 1-223 1-335 2h-9l-200 2h-18l-164 2-99 1-152 3-210 4h-1l-211 5-155 4-100 3-146 4-43 1-184 6-21 1c-198 7-396 14-593 22l-27 1-174 7-52 2-179 8-201 9h-6l-207 10-160 8-91 5-93 5-178 10-53 3-240 14-9 1-205 13-140 9-127 8-52 4-189 13-76 5c-145 10-290 21-434 31l-39 3-26 2c-146 11-291 23-436 34l-67 5-162 13-61 5-13 1-200 17c-118 10-236 21-354 31l-126 11-72 7c-120 11-240 22-359 34 2107 205 4257 523 6377 780 2192 265 4390 487 6477 459z" fill="#82a2d3"/><path d="m29206 4292l628 67-628-67m4718 1677c-1223-499-2447-981-3676-1542-138-2-277-4-415-6h-4l-209-2h-2l-159-1h-88-155-68-147-99c-112 1-223 1-335 2h-9l-200 2h-18l-164 2-99 1-152 3-210 4h-1l-211 5-20 1c-1591 116-3193 207-4794 299-250 14-499 28-749 43 1941 204 3914 492 5860 727 2069 251 4143 462 6125 461z" fill="#90aedb"/><path d="m33530 5883c-1147-466-2296-926-3448-1459-83-1-166-2-248-3h-4l-209-2h-2l-159-1h-88-155-68-147-99-85c-414 39-833 70-1250 100-1540 112-3090 202-4640 291 1612 189 3238 419 4846 614 1941 235 3888 436 5757 458z" fill="#9fbbe2"/><path d="m33122 5792c-1066-432-2133-868-3204-1370l-85-1h-4l-194-2c-149 23-299 34-397 44-540 58-1088 99-1636 139-1245 91-2497 167-3750 240 1298 163 2601 342 3892 498 1810 219 3625 409 5378 451z" fill="#afc9ea"/><path d="m23521 6462c1353 293 2379 848 3414 1887 838 785-227 727-739 525-650-635-1087-1264-1989-1577-2894-978-5033-1187-7609-1615-535-93-1196-261-1731-354 2013 88 5512 503 8655 1134z" fill="#376cb1"/><path d="m26222 8833c110 42 228 73 344 94 129 23 539 74 619-68 75-132-205-402-284-476-998-1002-2010-1575-3390-1874-543-109-1088-210-1635-304-1287-222-2582-409-3879-559-815-95-1640-179-2463-233 356 78 711 160 1070 222 863 144 1729 270 2592 411 1731 283 3360 643 5025 1206 906 314 1348 943 2000 1581z" fill="#4675b7"/><path d="m26249 8792c104 39 217 68 326 88 102 18 506 68 569-44 55-96-220-366-276-418-992-995-1995-1564-3366-1861-543-109-1087-210-1633-304-1286-222-2580-408-3877-559-586-68-1178-131-1769-181 130 27 260 52 390 74 863 144 1728 270 2592 411 1733 284 3365 644 5033 1208 914 317 1355 942 2011 1585z" fill="#557fbe"/><path d="m26275 8751c99 37 205 63 308 82 81 15 465 60 518-20 20-77-219-314-265-358l-4-3c-985-989-1979-1552-3341-1847-543-109-1086-210-1632-304-1285-222-2579-408-3874-559-126-15-253-29-380-43 535 84 1071 165 1606 253 1736 284 3370 646 5041 1210 921 320 1363 942 2022 1589z" fill="#6489c4"/><path d="m26301 8709c93 34 193 59 290 76 82 15 360 48 458 4-29-87-197-255-246-300l-2-2-2-2c-979-982-1964-1541-3316-1834-542-109-1085-209-1630-303-486-84-973-163-1461-236 1313 252 2585 568 3878 1005 929 322 1371 941 2033 1593z" fill="#7496cc"/><path d="m26326 8666c156 52 490 125 653 94-53-82-168-197-210-236l-3-3-3-3c-972-976-1949-1530-3292-1821-435-87-871-169-1308-247 707 176 1410 380 2120 619 935 325 1378 940 2042 1596z" fill="#84a4d5"/><path d="m19815 13152l7345-177 297 1738-1729 52c-1196 25-2439 37-3665 61-1214 35-1615 25-1875-583l-373-1092z" fill="#26252f"/><path d="m20159 14152c-79 51-158 102-237 153-36 44-11 99 18 107 2760-45 5520-89 8281-133-31-43-61-86-92-130-211-30-422-61-633-91-2446 31-4892 63-7338 94zm-226-652c-79 51-158 102-237 153-32 30-17 90 18 107 2760-44 5521-89 8281-133-31-43-61-86-92-130-211-30-422-60-633-91-2446 32-4892 63-7338 94z" fill="#2c2e3f"/><path d="m19972 14305c-30 30-26 54 13 74 1348-25 2697-50 4045-74-1353 0-2706 1-4059 1zm-226-652c-26 27-42 53 13 73 1348-25 2697-50 4045-74-1353 0-2706 1-4059 1z" fill="#727375"/><path fill="#393738" d="m19815 13152l7345-177 73 431-7300 93-118-347"/><path d="m20222 13142c13 14 25 30 33 47 1-17 5-33 12-48l282-7c13 15 24 31 33 49 2-18 6-35 13-50l279-7c14 15 26 33 35 52 2-19 6-37 14-53l274-7c15 16 28 35 39 55 2-20 7-39 15-56l270-6c17 17 31 37 42 58 1-22 7-42 16-59l265-6c18 18 34 39 46 61 1-23 7-45 17-63l261-6c19 19 36 40 49 65 1-25 7-47 18-66l255-6c21 19 39 42 53 68 1-26 8-50 19-70l251-6c22 20 42 44 56 71 1-28 7-52 20-73l245-6c24 20 45 46 60 74 0-29 7-55 20-76l242-6c25 21 47 47 64 77 0-30 7-57 20-79l237-6c27 22 50 49 68 79-1-31 7-59 21-82l233-6c28 22 52 50 71 82-1-32 7-61 21-84l230-6c29 22 54 51 73 84-1-33 7-63 22-86l227-5c30 23 56 52 76 86-1-34 6-65 22-88l225-5c30 23 57 53 78 87-2-35 6-66 21-90l223-5c31 23 58 54 79 89-2-35 6-67 22-91l221-5c31 23 59 54 80 89-2-36 6-68 22-92l220-5c31 24 59 55 81 90-3-36 5-68 22-93l220-5c31 24 59 55 80 91-3-36 6-68 23-93l220-5c31 24 58 55 80 91-3-36 9-69 28-93l214-5c5 4 10 9 15 13 40 37 77 86 96 141 19 55 16 105-4 141-21 36-45 58-106 58-62-1-154-58-200-137 4 84-50 145-127 144-77-1-151-58-196-137 3 84-53 144-130 143-77-1-150-58-194-136 1 83-56 144-133 143-77-1-149-58-191-136-1 83-59 143-136 142-77-1-148-58-188-135-3 82-61 142-138 141-77-1-149-58-187-135-4 82-63 141-140 140-77-1-149-57-186-134-6 81-64 140-141 139-77-1-149-57-184-134-7 81-66 140-143 138-77-1-149-57-183-133-8 80-66 139-143 137-77-1-148-57-184-132-7 80-66 137-143 136-77-1-149-57-183-131-7 79-66 136-143 135-77-2-148-56-184-131-7 79-66 135-143 134-77-2-149-56-184-130-7 78-66 135-143 133-77-1-148-56-184-129-7 78-66 134-143 132-77-1-149-55-184-128-7 77-66 133-143 131-77-1-148-55-184-128-7 77-65 132-143 131-77-2-149-55-184-127-7 76-65 131-143 130-77-2-149-54-184-126-7 76-65 131-143 130-77-1-149-54-184-125-7 76-65 130-142 129-77-1-149-53-184-124-7 75-65 130-142 129-77-1-149-53-185-124-7 75-79 130-143 129-63-1-94-21-131-54-37-33-64-78-72-127-6-35-2-67 9-95l282-7z" fill="#727375"/><path d="m26988 13187c2-10-2-30-5-38-12-36-55-100-98-101-1 0-3 0-4 0-6 7 0 31 2 38 13 38 59 97 105 100zm-427-131c-1 0-3-1-4 0-6 8 0 31 3 38 12 38 57 101 104 101 5-8-2-31-4-39-12-37-56-100-99-101zm-323 8c-1 0-2-1-3 0-6 8 0 31 3 39 12 38 56 100 104 100 5-8-1-31-4-39-12-37-57-99-100-99zm-323 8c-1 0-2-1-3-1-6 8 1 31 3 39 12 37 55 98 98 98 1 0 3 0 4 0 6-7 0-31-2-38-12-38-57-98-100-98m-323 46c11 36 52 97 94 97 1 0 5 0 6-1 6-6 2-31-1-37-12-38-56-98-102-98-6 8 0 31 3 39m-324-31c-1 0-2-1-3-1-6 8 0 31 3 39 10 36 50 95 92 95 18 0 11-28 8-38-11-38-57-95-99-96zm-323 7c-1 0-2-1-3-1-6 8 0 31 2 39 10 35 47 93 89 93 19 0 14-26 10-38-11-39-56-93-98-94zm-323 7c-1 0-2-1-3 0-6 8-1 31 1 40 9 35 45 90 85 91 20 0 16-25 13-38-10-38-55-91-96-92zm-323 7c-1 0-3-1-4 0-6 8-1 31 1 39 9 35 43 89 83 90 21 0 18-24 14-38-10-37-53-89-94-90zm-323 6c-1 0-4 0-5 0-6 7-2 31 0 39 8 34 42 86 82 87 21 0 20-22 16-38-9-38-53-87-93-88m-323 6c-1 0-4 0-6 0-6 7-3 31-2 38 8 34 41 84 80 85 22 0 22-21 18-38-9-37-52-85-91-85zm-324 6c-1 0-5 0-6 1-6 6-4 30-2 38 7 34 40 82 78 83 22 0 23-21 19-38-8-37-51-83-89-83zm-324 6c-17 0-12 27-10 38 7 34 40 80 77 81 22 0 23-21 20-38-7-36-49-81-87-81m-324 6c-19 0-14 26-12 38 6 34 39 78 76 79 22 0 24-20 20-37-7-36-47-79-85-80zm-325 5c-19 0-16 24-13 37 6 34 39 77 76 77 22 0 24-19 21-37-7-35-46-77-83-78zm-325 5c-20 0-18 22-15 37 6 34 39 75 76 76 22 0 24-18 21-36-7-35-45-76-81-76zm-326 5c-20 0-20 21-17 37 6 34 39 74 75 74 22 0 24-18 21-36-6-35-44-74-79-75m-325 5c-21 0-21 20-18 36 6 34 40 73 76 73 21 0 24-17 21-36-6-34-42-74-78-74zm-326 5c-21 0-22 18-19 36 6 34 40 72 75 73 21 0 24-17 21-35-6-34-42-72-77-73zm-326 5c-21 0-23 18-20 35 6 33 40 71 75 72 21 0 24-16 21-35-6-34-41-72-76-73zm-326 6c-21 0-24 17-20 35 6 33 40 71 75 71 21 0 24-16 21-35-6-33-40-71-76-71m-327 6c-21 0-24 17-21 35 6 33 40 70 75 70 21 0 24-17 21-35-6-33-41-70-75-71zm147-38c13 14 25 30 33 47 1-17 5-33 12-48h25c-7 21-9 45-5 71 14 82 90 150 169 151 79 1 131-65 117-147-5-29-18-57-36-80h13c13 15 24 31 33 49 2-18 6-35 13-50l24-1c-8 22-10 47-5 74 15 82 90 150 169 151 79 1 132-65 117-148-5-31-20-59-39-83h13c14 15 26 33 35 52 2-19 6-37 14-53h24c-9 22-11 48-6 76 14 83 90 151 168 152 79 1 132-65 117-148-6-32-21-61-41-86h12c15 16 28 35 39 55 2-20 7-39 15-56l24-1c-9 23-12 50-7 80 14 83 89 152 168 153 79 1 132-65 117-149-6-33-22-64-44-89h12c17 17 31 37 42 58 1-22 7-42 16-59l24-1c-10 24-13 52-8 83 15 84 90 152 168 154 79 1 132-66 117-149-6-35-24-67-47-93h11c18 18 34 39 46 61 1-23 7-45 17-63l24-1c-11 24-14 54-9 87 15 84 89 153 168 155 79 1 133-66 117-150-7-36-26-70-51-96h11c19 19 36 40 49 65 1-25 7-47 18-66l24-1c-12 25-15 56-9 90 16 85 90 154 168 156 79 2 133-66 117-151-7-38-28-73-55-100h10c21 19 39 42 53 68 1-26 8-50 19-70l23-1c-12 26-16 58-9 94 16 85 90 155 169 157 79 1 134-67 116-152-8-39-30-76-59-103h10c22 20 42 44 56 71 1-28 7-52 20-73l23-1c-13 26-17 60-10 97 17 86 91 156 170 158 79 2 133-67 116-153-8-41-32-78-63-107h10c24 20 45 46 60 74 0-29 7-55 20-76h23c-14 27-18 62-10 100 18 86 92 157 171 159 79 2 134-68 115-154-9-42-34-81-67-110h10c25 21 47 47 64 77 0-30 7-57 20-79h22c-15 27-19 64-10 103 19 87 93 158 172 160 79 2 134-68 113-156-10-44-36-83-70-112h9c27 22 50 49 68 79-1-31 7-59 21-82l22-1c-15 28-19 65-10 106 21 87 94 160 173 161 79 1 133-69 111-157-11-45-39-86-73-115h9c28 22 52 50 71 82-1-32 7-61 21-84l22-1c-16 28-20 67-9 109 22 88 96 161 175 162 79 1 132-70 109-158-12-46-41-88-76-117h9c29 22 54 51 73 84-1-33 7-63 22-86l22-1c-16 29-20 68-9 111 23 89 98 162 177 163 79 1 131-70 107-159-13-47-43-89-79-119h9c30 23 56 52 76 86-1-34 6-65 22-88l21-1c-16 29-20 69-8 113 25 89 101 163 180 164 79 1 129-71 104-160-13-48-44-91-82-121h9c30 23 57 53 78 87-2-35 6-66 21-90l21-1c-17 29-20 70-7 115 26 90 104 163 183 165 79 1 128-71 101-161-14-49-46-92-84-122h9c31 23 58 54 79 89-2-35 6-67 22-91h21c-17 29-21 70-7 116 27 90 106 164 185 165 78 1 126-72 98-162-15-49-47-93-85-124h9c31 23 59 54 80 89-2-36 6-68 22-92l21-1c-17 30-21 71-7 117 28 91 109 165 188 166 79 1 123-72 95-163-16-50-48-94-86-124h9c31 24 59 55 81 90-3-36 5-68 22-93h21c-18 30-22 71-7 118 29 91 112 165 191 166 79 1 121-73 92-164-16-50-48-94-86-125h9c31 24 59 55 80 91-3-36 6-68 23-93l21-1c-18 30-22 72-7 118 30 91 115 166 193 167 78 1 120-73 90-164-16-50-48-94-86-125h10c31 24 58 55 80 91-3-36 9-69 28-93h16c-18 30-23 72-7 118 30 91 117 166 196 167 78 1 117-73 87-165-17-50-48-94-86-125h8c5 4 10 9 15 13 40 37 77 86 96 141 19 55 16 105-4 141-21 36-45 58-106 58-62-1-154-58-200-137 4 84-50 145-127 144-77-1-151-58-196-137 3 84-53 144-130 143-77-1-150-58-194-136 1 83-56 144-133 143-77-1-149-58-191-136-1 83-59 143-136 142-77-1-148-58-188-135-3 82-61 142-138 141-77-1-149-58-187-135-4 82-63 141-140 140-77-1-149-57-186-134-6 81-64 140-141 139-77-1-149-57-184-134-7 81-66 140-143 138-77-1-149-57-183-133-8 80-66 139-143 137-77-1-148-57-184-132-7 80-66 137-143 136-77-1-149-57-183-131-7 79-66 136-143 135-77-2-148-56-184-131-7 79-66 135-143 134-77-2-149-56-184-130-7 78-66 135-143 133-77-1-148-56-184-129-7 78-66 134-143 132-77-1-149-55-184-128-7 77-66 133-143 131-77-1-148-55-184-128-7 77-65 132-143 131-77-2-149-55-184-127-7 76-65 131-143 130-77-2-149-54-184-126-7 76-65 131-143 130-77-1-149-54-184-125-7 76-65 130-142 129-77-1-149-53-184-124-7 75-65 130-142 129-77-1-149-53-185-124-7 75-79 130-143 129-63-1-94-21-131-54-37-33-64-78-72-127-6-35-2-67 9-95l25-1c-7 21-9 44-4 69 14 82 90 149 168 150 79 1 131-65 117-148-5-28-17-55-35-78h11z" fill="#4d4c4e"/><path d="m28164 8314c-447 108-501 311-352 755 661 1717 1166 3061 1700 4824 91 200 205 369 443 347l5-1h5c2230-90 4434-232 6595-495 174-38 309-224 358-380 326-1660 474-3296 49-4945-132-450-430-625-903-651-2971-2-5364 158-7902 545z" fill="#26252f"/><g fill="#959699"><path d="m35035 8934c209-8 417-15 626-22-30-100-61-200-94-299-208 7-416 14-624 22 32 100 63 199 92 299m-798 34c241-11 482-22 724-31-30-100-60-200-93-299-241 10-482 20-722 31 32 100 62 199 92 299zm-741 38c222-12 445-24 667-35-29-100-60-200-92-299-222 11-444 22-667 34 32 100 63 199 92 299zm-795 47c241-15 481-30 722-43-29-100-60-200-93-299-240 13-481 28-721 43 32 100 63 199 92 299m-808 55c194-14 388-27 582-40l153-10c-29-100-60-200-93-299l-149 10c-195 13-390 26-585 40 32 99 63 199 92 299m-803 61c243-19 486-38 729-55-30-100-60-199-93-299-243 18-486 36-729 55 32 100 63 199 92 299zm-841 70c256-22 512-44 768-64-29-100-60-200-92-299-256 21-513 42-769 65 33 100 64 199 94 299zm-814 74c247-23 494-46 741-68-30-100-61-199-94-299-247 22-493 44-740 68 32 99 64 199 93 299m-899 89c275-28 551-55 826-82-30-100-61-199-94-299-277 26-553 54-830 82 34 99 67 199 98 298zm6596-117c209-8 418-16 628-22-25-93-51-186-78-279-209 6-417 14-626 22 24 83 47 167 69 250l8 30zm-798 35c242-12 483-22 724-32l-4-14c-24-89-48-177-73-266-241 9-483 20-724 31 23 82 46 164 68 247l9 34m-740 38c222-12 445-24 667-35l-5-19c-23-87-47-175-72-262-222 11-445 22-667 34 25 86 48 172 71 259l6 22zm-795 47c241-15 481-30 722-43l-2-8c-24-91-49-182-75-273-241 13-481 28-722 43 25 86 49 173 72 260l6 21zm-808 55c208-15 416-29 624-43l111-7-2-8c-24-91-49-182-76-273l-169 11c-189 12-377 26-566 39 25 88 50 176 73 265l5 17zm-803 61c243-19 487-38 730-56l-1-4c-25-93-50-185-77-278-243 17-486 36-730 55 24 84 47 168 69 252l8 30zm-839 71c255-22 511-44 766-65l-5-18c-23-88-48-177-73-265-256 21-512 42-768 64 28 94 54 188 79 283zm-814 74c247-24 494-46 742-68-25-94-52-189-79-282-247 22-494 44-741 67 27 94 54 188 79 283zm-893 88c274-28 547-55 821-81-25-95-52-189-79-283-275 26-550 53-825 82 29 94 57 189 84 283zm6585-90c210-8 420-15 629-22-24-103-50-206-77-309-209 7-419 14-628 22 26 103 51 206 75 309zm-798 34c242-11 483-22 725-31-24-103-49-206-76-309-241 10-483 20-724 32 26 103 52 206 76 309zm-740 38c222-12 445-24 667-35-24-103-49-206-76-309-222 11-445 22-667 35 27 103 52 206 76 309m-795 47c241-15 482-30 722-43-24-103-49-206-76-309-241 13-481 28-722 43 26 103 52 206 76 308zm-808 55c196-14 393-27 589-40l146-10c-24-103-50-206-76-309l-125 8c-203 13-407 27-610 42 26 103 52 206 76 308zm-804 61c244-19 487-38 731-55-24-103-49-206-76-309-243 18-487 36-730 56 26 102 52 205 75 308m-837 70c255-22 510-44 764-64-24-103-49-206-76-308-255 21-510 42-766 65 27 103 53 205 77 308zm-815 74c248-24 495-46 742-68-25-103-50-205-77-308-247 22-494 44-742 68 27 103 52 205 77 308m-887 88c272-28 543-55 815-81-25-103-50-205-77-308-273 26-546 53-819 82 28 102 55 205 81 307m6557-132c210-8 421-15 631-22-19-88-38-176-58-264-210 6-420 14-630 22 20 88 39 176 57 264m-798 34c242-11 483-22 725-31-18-88-37-176-57-264-242 10-483 20-725 31 20 88 39 176 58 264zm-740 38c222-12 445-24 667-34-18-88-38-176-58-264-222 11-445 22-667 34 20 88 39 176 58 264m-795 47c241-15 482-30 723-43-19-88-38-176-58-264-241 13-482 28-722 43 20 88 39 176 58 264zm-808 55c192-14 383-27 575-40l160-10c-19-88-38-176-58-264l-158 10c-192 13-385 26-577 40 20 88 39 176 58 264m-804 61c244-19 488-38 731-55-19-88-38-176-58-264-244 18-487 36-731 56 20 88 39 176 58 264zm-835 70c254-22 509-44 763-64-19-88-38-176-58-264-255 21-509 42-764 64 20 88 40 176 59 264m-815 74c248-23 495-46 743-68-19-88-39-176-59-264-248 22-495 44-742 68 20 88 40 176 59 264zm-883 87c270-28 540-55 811-80-19-88-38-176-59-264-271 26-543 53-814 81 22 88 42 175 62 263m6556-64c211-8 421-15 632-22-20-110-42-221-65-331-210 7-421 14-631 22 22 110 44 220 64 330zm-797 34c241-11 483-22 724-31-20-110-41-220-64-330-242 9-483 20-724 31 22 110 44 220 64 330m-740 38c222-12 445-24 667-34-20-110-42-220-64-330-222 11-445 22-667 34 23 110 44 220 64 330m-795 47c241-15 482-29 723-43-20-110-42-220-65-330-241 13-482 28-723 43 22 110 44 219 64 329zm-808 54c173-12 346-24 520-36l216-14c-20-110-42-220-64-329l-171 11c-188 12-376 25-565 39 23 109 44 219 64 329m-804 60c244-19 488-38 732-55-20-110-42-219-64-329-244 18-488 36-732 55 22 109 44 219 64 329m-834 69c254-22 508-43 762-64-20-110-42-219-64-328-254 20-509 42-763 64 23 109 45 219 65 328m-816 74c248-23 496-46 744-67-21-110-43-219-66-328-248 22-495 44-743 68 23 109 44 218 65 328zm-879 86c269-27 538-54 807-80-21-109-43-219-65-328-270 26-540 52-810 80 24 109 47 218 68 327zm225-2236c-278 27-556 55-834 84 41 108 80 215 117 323 277-28 554-56 831-83-36-108-74-216-114-324m812-75c-246 22-492 45-738 68 40 108 78 216 114 324 247-23 493-46 740-68-37-108-75-217-115-325zm845-72c-257 21-514 43-771 65 40 108 78 216 114 325 256-22 513-44 770-65-36-109-73-217-113-325m801-62c-242 18-485 36-727 56 39 108 77 217 112 325 243-19 485-38 728-56-36-109-74-217-113-326zm808-56l-164 11c-190 13-380 26-570 40 39 109 77 217 113 326 201-14 402-28 603-41l131-9c-36-109-74-218-113-326zm795-48c-240 14-480 28-720 43 39 108 77 217 113 326 240-15 481-30 721-43-36-109-74-218-113-326zm742-39c-222 11-444 22-666 35 39 109 77 217 113 327 222-12 445-24 667-35-36-109-73-218-113-327zm795-35c-240 9-480 20-720 31 39 108 77 217 112 326 241-11 481-22 722-31-36-109-74-218-114-326m697-25c-207 6-414 14-621 22 40 109 78 218 114 327 208-8 416-15 623-22-37-109-75-218-116-326zm783 308c-36-109-74-218-114-326-197 5-395 10-592 16 40 108 79 217 115 326 197-6 394-11 592-16zm115 371c-29-100-59-200-91-299-197 5-394 10-591 16 33 99 64 199 94 299 196-6 393-11 589-16zm95 350c-24-93-49-186-75-279-196 5-392 10-589 16 27 93 53 186 78 279 195-6 390-12 586-16m92 381c-23-103-48-207-73-309-195 5-390 10-585 16 27 103 52 206 77 309 194-6 388-11 582-16zm72 335c-18-88-36-176-56-264-194 4-387 10-581 16 20 88 39 176 58 264 193-6 386-11 579-16m77 403c-20-110-41-221-63-331-193 4-386 10-579 15 23 110 44 220 65 331 192-6 385-11 577-15m-656-2586c31 75 112 272 140 347 177-4 432-6 609-8 10 17 20 35 30 54v18c-179 3-434 4-613 8 40 108 78 217 113 326 181-4 439-6 620-9l17 71c-179 3-435 5-614 9 32 99 62 199 91 299 171-4 418-5 589-8l14 72c-169 3-414 4-583 8 26 93 51 186 75 279 160-4 397-5 557-8l11 72c-158 3-393 4-550 8 26 103 50 206 73 310 147-3 372-4 519-7l8 72c-145 3-367 4-512 7 19 88 38 176 56 264 135-3 346-4 481-6l5 72c-132 2-340 3-472 6 22 110 43 221 63 331 117-3 311-3 428-5l3 72c-114 2-304 2-417 5 15 86 30 172 45 257l-71 12c-15-89-31-178-47-268-192 4-385 9-577 15 13 74 26 149 39 223l-71 12c-13-78-27-156-41-233-211 7-421 14-632 22 11 60 40 231 50 292l-71 12c-11-63-41-238-52-301-241 9-483 20-724 31 14 77 58 221 71 297l-71 12c-13-80-59-226-73-306-222 11-445 22-667 34 15 81 27 217 41 298l-71 12c-14-84-27-223-42-306-241 13-482 28-723 43 15 82 27 240 41 322l-71 12c-14-84-27-245-42-329l-224 15c-170 11-341 23-511 35 15 83 39 222 53 305l-71 12c-14-86-39-227-54-312-244 18-488 36-732 55 14 79 37 236 50 315l-71 12c-14-81-37-240-52-321-254 20-508 41-761 63 19 103 37 206 54 308l-71 12c-18-105-36-209-55-314-248 22-496 44-744 67 18 98 35 196 52 294l-71 12c-17-100-34-200-53-299-269 26-538 52-807 79 19 100 37 200 54 300l-71 12c-17-102-35-203-55-305-130 13-260 27-390 41l-26-70c134-14 268-28 402-42-21-109-44-218-68-327-152 16-304 31-456 48l-26-69c156-17 311-33 466-49-20-88-41-176-62-263-168 17-336 35-503 53l-26-68v-1c171-18 341-36 512-54-26-103-53-205-82-307-161 17-321 34-482 51l-7-72c157-17 313-33 470-50-27-94-55-188-84-283-173 18-345 36-518 55l-7-71c168-18 336-36 504-53-31-99-64-199-98-298-164 17-328 34-492 52l-24-72c158-17 334-33 492-50-38-108-77-215-118-323-155 16-311 33-466 50l-8-71c149-16 298-32 448-48-32-83-66-167-100-250l67-27c37 90 73 180 107 270 278-29 556-57 834-84-35-91-70-182-108-273l67-27c40 98 78 195 115 294 246-24 492-47 738-68-33-86-87-249-122-335l67-27c38 93 94 263 130 355 257-23 514-45 771-66-40-109-104-250-148-358l67-27c47 115 113 264 156 379 242-20 485-38 727-56-39-104-100-263-142-366l67-27c45 111 109 277 151 388 197-14 394-28 591-41l142-9c-39-105-90-243-133-348l67-27c46 112 100 257 142 370 240-16 480-30 720-44-39-105-80-210-123-314l67-27c46 112 90 224 132 337 222-12 444-24 666-35-40-109-83-217-127-325l67-27c47 116 93 232 136 348 240-12 480-22 720-31-34-90-90-235-126-324l67-27c40 97 99 250 135 348 207-8 414-15 620-22-29-75-100-261-130-336l67-27c34 83 108 278 140 361 197-6 395-11 592-16-25-67-103-256-130-322l67-27z"/><path d="m36819 13284c-111 14-222 27-333 41 1-61 2-122 3-184l-73-1c-1 64-1 129-3 193-243 29-485 57-728 84 1-78 3-156 3-234l-73-1c-1 81-2 162-3 243-224 25-448 49-672 72 2-82 3-164 3-247h-72c-1 85-2 170-4 255-243 25-486 49-729 72 2-83 3-166 4-248l-73-1c-1 85-2 171-4 256l-226 21c-172 16-344 31-516 46 2-85 3-169 3-254l-73-1c0 87-1 174-4 261-246 21-493 42-740 61 2-81 3-161 3-241l-73-1c-1 82-2 165-4 248-257 20-513 39-770 57 2-104 4-209 5-313l-73-1c-1 106-3 213-5 319-251 18-502 35-753 51 2-100 3-199 5-299h-73c-1 101-2 202-5 304-272 17-545 34-818 49 3-101 5-203 6-305l-72-1c-1 103-3 207-6 310-138 8-276 15-414 22 12 25 23 48 36 70 125-7 251-13 376-20-3 71-6 142-9 214h3l70-3c3-72 6-143 9-215 273-15 546-32 819-49-2 76-5 152-8 227l73-3c3-76 6-152 8-228 251-16 502-33 753-51-2 80-5 160-8 240l73-4c3-80 6-161 9-242 257-18 514-37 770-57-2 84-5 169-8 253l73-5c3-85 5-169 8-254 247-19 494-40 740-61-2 88-5 176-9 265l73-6c4-88 6-177 9-265 175-15 350-31 524-47l217-20c-2 91-5 183-9 274l73-6c4-92 7-183 9-275 243-23 486-47 729-72-2 94-5 187-9 281l73-7c4-94 7-188 9-282 224-23 448-47 672-71-2 95-5 190-9 285l74-8c4-95 6-190 9-285 243-27 485-55 728-84-2 95-5 191-9 286l53-6c7-1 13-3 20-5 4-94 7-189 9-283 103-13 207-25 310-38 8-18 14-37 20-54l4-21z"/></g><path d="m28624 11183l8543-570c11 29 25 72 25 109 1 760-47 1622-173 2386l-7575 564c-245-827-522-1640-784-2389l-36-99z" fill="#606162"/><path d="m27847 9127c616 1600 1226 3173 1723 4815 86 189 159 305 387 284l7-1h6c2199-89 4399-229 6583-495 163-35 292-212 339-362 324-1648 411-3237-11-4879-130-443-344-607-803-631-2667-2-5261 143-7896 545-450 108-471 317-334 723zm2680-1564c1801-141 3591-164 5397-129 579 30 995 289 1161 858 425 1558 354 3568 43 5146-80 264-238 522-530 578-2198 249-4405 391-6613 497-366 35-542-154-684-470-533-1764-1197-3458-1858-5175-206-610 1-857 612-1003 825-135 1638-251 2473-302z" fill="#26252f"/><path d="m28176 8380c-447 107-501 311-352 755 661 1717 1190 3053 1724 4816 91 200 173 321 411 299l5-1h5c2230-91 4426-232 6587-495 174-38 309-224 358-380 326-1660 413-3242-12-4891-132-450-353-623-825-649-2971-2-5364 158-7902 546zm-118-491c819-135 1577-247 2470-302 1847-144 3545-165 5394-129 610 32 986 317 1139 840 404 1481 368 3484 43 5133-95 314-268 514-510 560-2224 252-4422 391-6612 497-347 33-518-138-659-453-572-1891-1194-3448-1858-5176-182-540-65-814 594-971z" fill="#959699" id="0"/><use xlink:href="#0"/><path d="m37033 13281c-143 626-397 541-1354 618 108-44 572-90 891-126 174-38 309-224 358-380 188-623 349-2216 258-3302 111 627 68 1870-153 3191zm-8973-5089c-456 104-551 323-403 765 611 1634 1208 3109 1754 4900 84 205 107 380 398 430 22-2 71 6 123-24-218 11-309-121-397-314-534-1763-1063-3110-1724-4827-149-444-82-652 365-759 2538-387 4930-530 7901-528 341 19 550 114 691 334-143-238-359-343-715-366-3032-41-5403 26-7993 389" fill="#fefefe"/><path d="m28698 11314l8493-583c5 743-71 1487-202 2244l-7574 543c-246-782-493-1488-755-2196l38-9z" fill="#959699" id="1"/><use xlink:href="#1"/><path d="m30226 13046l6059-414c44-3 77-39 74-79l-99-1365c-3-40-41-71-85-67l-6059 414c-44 3-77 39-74 79l99 1365c3 40 41 71 85 67" fill="#fefefe"/><path fill="#e5e6e7" d="m28901 11339l8290-571-38 39-8257 594-153-52 158-10"/><g fill="#727375"><path d="m28899 11404c256 700 480 1336 724 2099l-209 15c-246-782-493-1487-756-2196 66 34 156 59 240 82z"/><path d="m36246 11184c-12-30-44-51-80-48l-6037 413c-44 3-77 39-74 79l100 1334c2 26 19 49 43 60-2-6-4-13-5-20l-100-1334c-3-40 30-76 74-79l6037-413c15-1 29 2 41 8z"/></g><path d="m36237 12595c44-3 76-39 74-79-111-1815-110-1438-19-20 3 40-30 76-74 79-7740 529-7634 544 19 20" fill="#a8aaac"/><path d="m33642 9602c5-41 7-83 4-123-5-74-25-153-58-227-5 40-6 80-4 118 5 74 25 155 57 232zm59-633c103 136 172 308 185 493 10 143-14 277-65 390 68 56 148 92 239 95 262 7 373-288 358-511-17-249-197-570-475-578-104-3-184 42-242 111m-1733 377c-5 39-6 79-3 118 6 81 29 165 66 243 6-40 7-81 4-122-6-81-29-163-67-239m-58 625c-103-136-171-306-184-490-10-133 10-258 54-366-79-59-172-97-274-99-273-7-420 246-401 497 20 273 238 562 529 570 116 3 209-41 276-111zm968-241c16-62 22-129 18-194-8-108-46-221-107-319-16 63-22 129-18 193 8 107 46 221 107 320m41-741c121 142 201 328 216 529 11 148-15 285-70 402 61 37 130 60 204 62 106 3 190-39 251-104-98-136-163-307-175-492-9-139 12-269 58-381-73-58-160-95-256-97-93-2-169 29-228 82zm-172 969c-121-141-202-328-216-531-10-148 16-286 71-403-69-45-149-72-235-74-122-3-218 47-286 126 108 136 180 307 194 491 10 137-13 265-61 375 80 64 175 105 281 107 104 3 189-33 253-92zm1202-1339c362 9 680 368 709 801 29 433-242 777-604 767-132-3-259-54-367-137-110 111-257 176-423 172-119-3-233-41-335-106-114 113-268 179-440 174-148-4-289-59-408-149-115 117-273 186-452 181-389-10-730-365-762-792-32-427 258-765 647-755 142 4 278 53 394 136 116-129 280-206 466-201 131 3 257 47 367 119 109-105 252-166 414-162 136 4 265 53 377 134 107-117 253-187 419-182z" fill="#393738"/><path d="m33693 9570c6-41 7-83 4-123-5-74-25-153-58-227-5 40-6 80-4 118 5 74 25 155 57 232zm59-633c103 136 172 308 185 493 10 143-14 277-65 390 68 56 148 92 239 95 262 7 373-289 358-511-17-249-198-570-475-578-104-3-184 42-242 111m-1733 377c-5 39-6 79-3 118 6 81 29 165 66 243 6-40 7-81 4-122-6-81-30-163-67-239m-58 625c-103-136-171-306-184-490-10-133 10-258 54-366-79-59-172-97-274-99-273-7-420 246-401 497 20 273 238 562 529 570 116 3 209-41 276-111zm968-241c16-63 22-129 18-194-8-108-46-221-107-319-16 63-22 129-18 193 8 107 46 222 107 320m41-741c121 142 201 328 216 529 11 148-15 285-70 402 61 37 129 60 204 62 106 3 190-39 251-104-98-136-163-307-175-492-9-139 13-269 58-381-73-58-160-95-256-97-93-2-169 29-228 82zm-172 969c-121-141-202-328-216-531-10-148 16-286 71-403-70-45-149-72-235-74-123-3-218 47-286 126 108 136 180 307 194 491 10 137-13 265-61 375 80 64 175 105 281 107 104 3 189-33 253-92zm1202-1339c362 10 680 368 709 802 29 433-242 777-604 767-132-3-259-54-367-137-110 111-257 176-423 171-119-3-233-41-335-106-114 113-267 179-440 174-148-4-289-59-408-149-115 117-273 186-452 182-389-10-730-365-762-792-32-427 258-765 647-755 142 4 278 53 394 136 117-129 280-206 467-201 131 3 257 47 367 119 109-105 252-166 414-162 136 3 265 53 377 134 107-117 253-187 419-182z" fill="#bcbdbf"/><g fill="#e5e6e7"><path d="m32954 9879c68-114 96-252 86-383-13-181-98-365-227-494-67 113-95 252-86 382 13 180 97 367 226 495zm-29 44c-143-137-235-339-249-536-10-144 22-298 99-422-100-86-221-139-354-142-190-5-331 94-414 236 122 131 201 306 214 483 10 136-19 269-81 379 106 111 245 185 404 189 157 4 290-63 382-188zm794-126c57-108 81-236 72-357-11-160-79-325-184-448-51 107-73 234-65 352 11 160 76 328 177 453m-28 48c-115-136-189-321-200-497-9-134 18-277 80-397-99-100-225-166-369-169-148-4-272 60-358 177 142 138 235 337 249 535 11 146-22 298-99 422 92 77 203 125 324 129 158 4 287-69 372-199zm65-6c94 100 214 166 353 170 323 8 473-333 454-611-20-298-237-656-566-665-160-4-283 77-363 210 119 134 197 316 209 494 10 138-19 283-88 403zm-791 119c-102 136-250 210-423 205-169-4-317-81-431-196-93 134-240 222-429 217-360-9-634-351-660-694-25-332 185-651 539-641 157 4 297 71 408 173 93-152 249-256 454-251 143 4 274 60 383 151 97-129 235-198 398-194 152 4 287 71 394 175 90-142 228-228 401-223 358 9 596 388 617 714 21 310-153 676-508 667-149-4-279-72-381-176-96 138-239 215-410 211-132-3-252-54-353-137zm-859-74c52-99 76-218 67-337-12-159-81-320-190-441-47 101-68 218-60 333 11 158 77 320 182 446zm-546-987c-326-9-512 289-489 590 24 318 278 641 613 650 175 5 310-80 394-205-119-136-193-314-206-489-9-132 16-265 73-377-103-99-236-165-385-169"/><path d="m35020 12189l105-16c14 51 37 89 68 114 32 24 68 35 108 33 49-3 88-24 117-63 29-39 40-89 33-150-7-58-28-103-65-134-36-31-81-46-133-42-33 2-61 11-85 28-25 17-43 37-55 62l-96-6 30-431 409-26 11 97-328 21-18 225c45-38 95-59 149-62 72-5 135 17 191 64 55 47 88 110 97 189 9 75-5 141-42 199-45 70-113 108-204 114-75 5-138-12-191-52-52-39-86-94-101-163zm-470 18c65 14 120 37 165 70 57-63 79-153 65-271-8-67-26-125-55-174-28-49-66-85-113-110-47-25-97-36-152-32-81 5-145 37-192 97-47 59-64 144-51 256 13 108 49 189 108 243 60 54 131 79 213 74 39-3 75-12 108-29-37-20-75-34-113-41l17-82zm256 125c55 32 104 54 149 68l-23 78c-61-18-124-48-189-91-57 38-122 59-196 64-74 5-144-9-209-41-65-32-117-80-158-144-40-64-65-136-75-218-10-82-2-157 23-227 25-69 66-123 123-162 57-39 122-61 198-65 76-5 146 9 212 42 65 32 118 80 157 144 40 63 64 136 74 218 8 68 5 130-9 186-14 56-40 105-76 148zm-1233 167l-97-829 109-7 97 828-109 7zm-751-51l176-11c54-3 96-11 126-23 30-12 52-28 69-48 23-27 39-64 48-109 9-45 10-98 3-161-10-87-32-152-66-197-34-45-72-74-114-87-30-10-78-12-143-8l-173 11 74 633m-97 105l-97-829 283-18c64-4 113-3 148 3 48 8 91 25 128 52 48 34 86 79 114 135 28 56 47 121 55 195 7 63 7 119-2 169-9 50-23 91-42 124-19 33-41 60-66 80-25 20-56 36-93 48-37 12-81 19-130 22l-297 19zm-387-810l109-7 56 479c10 83 8 150-5 200-13 50-42 92-87 126-45 34-107 53-187 58-77 5-142-4-194-28-52-24-92-60-118-110-27-49-46-118-56-205l-56-479 109-7 56 478c8 72 21 125 39 158 17 33 43 58 78 75 34 16 75 23 122 20 80-5 135-27 165-66 30-39 38-110 26-214l-56-478zm-1102 561l279-18-113-224c-34-68-60-124-78-168-4 54-13 108-26 161l-62 249m-197 355l219-848 117-7 434 807-124 8-125-245-344 22-61 257-116 7z"/></g><g fill-rule="nonzero"><path d="m35070 12208l105-16c14 52 37 89 68 114 32 24 68 35 108 33 49-3 88-24 117-63 29-39 40-89 33-150-7-58-28-103-65-134-36-32-81-46-133-42-33 2-61 11-85 28-24 16-43 37-55 62l-96-6 30-431 409-26 11 97-328 21-18 225c45-38 95-58 149-62 72-5 135 17 191 64 55 47 88 110 97 189 9 75-5 141-42 199-45 70-113 108-204 114-75 5-138-12-191-52-52-39-86-93-101-163zm-470 18c65 14 120 37 165 70 57-63 79-153 65-271-8-67-26-125-55-174-28-48-66-85-113-110-47-25-97-36-152-32-81 5-145 37-192 97-47 59-64 144-51 256 13 108 49 189 108 243 60 54 131 79 213 74 39-2 75-12 107-29-37-20-75-34-113-41l17-82zm256 125c55 32 104 54 149 68l-23 78c-61-18-125-48-189-91-57 38-122 59-196 64-74 5-144-9-209-41-65-32-117-80-158-144-41-63-65-136-75-218-10-82-2-157 23-226 25-69 66-123 122-162 57-39 122-61 198-65 76-5 147 9 212 42 65 32 118 80 157 144 40 63 64 136 74 218 8 68 5 130-9 186-14 56-39 105-76 148zm-1233 167l-97-829 109-7 97 829-109 7m-751-51l176-11c54-3 96-11 126-23 30-12 53-28 69-48 23-28 39-64 48-109 9-45 10-98 3-161-10-87-32-152-66-197-34-45-72-74-114-87-30-10-78-12-143-8l-173 11 74 633m-97 105l-97-828 283-18c64-4 113-3 148 3 48 8 91 25 128 52 48 34 86 79 114 135 28 56 47 121 55 195 7 63 7 119-2 169-9 50-23 91-42 124-19 33-41 60-66 80-25 20-56 36-93 48-37 12-81 19-130 22l-297 19zm-387-810l109-7 56 479c10 83 8 150-5 200-13 50-42 92-87 126-45 34-107 53-187 58-77 5-142-5-194-28-52-24-92-60-119-109-27-49-45-118-56-206l-56-479 109-7 56 478c8 72 21 125 39 158 17 33 43 58 78 75 35 17 75 23 122 20 80-5 135-27 165-66 30-39 38-110 26-214l-56-478m-1102 561l279-18-113-224c-34-68-61-124-78-168-4 54-13 107-26 161l-62 249m-197 355l219-848 117-7 434 807-124 8-125-245-344 22-61 257-116 7z" fill="#393738"/><path d="m35045 12198l105-16c14 51 37 89 68 114 32 24 68 35 108 33 49-3 88-24 117-63 29-39 40-89 33-150-7-58-28-103-65-134-36-32-81-46-133-42-33 2-61 11-86 28-24 17-43 37-55 62l-96-6 30-431 409-26 11 97-328 21-18 225c45-38 95-58 149-62 72-5 135 17 190 64 55 47 88 110 97 189 9 75-5 141-42 199-45 70-113 108-204 114-75 5-138-12-191-52-52-39-86-94-101-163zm-470 18c65 14 120 37 165 70 57-63 79-153 65-271-8-67-26-125-55-174-28-49-66-85-113-110-47-25-97-36-152-32-81 5-145 37-192 97-47 59-64 144-51 256 13 108 49 189 108 243 60 54 131 79 213 74 39-2 75-12 108-29-37-20-75-34-113-41l17-82zm256 125c54 32 104 54 149 68l-23 78c-61-18-125-48-189-90-57 38-122 59-196 64-74 5-144-9-209-41-65-32-117-80-158-144-40-64-65-136-75-218-10-82-2-157 23-226 25-69 66-123 123-162 57-39 122-61 198-65 76-5 147 9 212 42 65 32 118 80 157 144 40 63 64 136 74 218 8 68 5 130-9 186-14 56-40 105-76 148zm-1233 167l-97-829 109-7 97 829-109 7m-751-51l176-11c54-3 96-11 126-23 30-12 52-28 69-48 23-28 39-64 48-109 9-45 10-98 3-161-10-87-32-152-66-197-34-45-72-74-114-87-30-10-78-12-143-8l-173 11 74 633m-97 105l-97-829 283-18c64-4 113-3 148 3 48 8 91 25 128 52 48 34 86 79 114 136 28 56 47 121 55 195 7 63 7 119-2 169-9 50-23 91-42 124-19 33-41 60-66 80-25 20-56 36-93 48-37 12-81 19-130 22l-297 19zm-387-810l109-7 56 479c10 83 8 150-5 200-13 50-42 92-87 126-45 34-107 53-187 58-77 5-142-4-194-28-52-24-92-60-119-109-27-49-45-118-56-206l-56-479 109-7 56 478c8 72 21 125 39 158 17 33 43 58 78 75 35 16 75 23 122 20 80-5 135-27 165-66 30-39 38-110 26-214l-56-478m-1102 561l279-18-113-224c-34-68-61-124-78-168-4 54-13 108-26 161l-62 249m-197 355l219-848 117-7 434 807-124 8-125-245-344 22-61 257-116 7z" fill="#959699"/></g><path d="m35274 11940c49-23 99-47 149-69 22 10 43 24 63 41 55 47 88 110 97 189 9 75-5 141-42 199-45 70-113 108-204 114-75 5-138-12-191-52-52-39-86-94-101-163l105-16c14 51 37 89 68 114 32 24 68 35 108 33 49-3 88-24 117-63 29-39 40-89 33-150-7-58-28-103-65-134-36-32-81-46-133-42h-5zm-231 74c44-4 88-16 132-32-16 14-28 30-36 48l-96-6 1-9zm-907-122h4c36 1 71 4 106 7-9 44-10 94-4 152 13 108 49 189 108 243 60 54 131 79 213 74 39-2 75-12 108-29-37-20-75-34-113-41l17-82c65 14 120 37 165 70 57-63 79-153 65-271-1-7-2-14-3-20 38 6 77 11 115 15 8 67 5 128-9 184-14 56-40 105-76 148 55 32 104 54 149 68l-23 78c-61-18-125-48-189-90-57 38-122 59-196 64-74 5-144-9-209-41-65-32-117-80-158-144-40-64-65-136-75-218-7-59-5-114 6-166zm-585 213c40-6 74-17 106-31l50 429-109 7-48-404zm-844 93c37-7 72-17 106-27l34 286 176-11c54-3 96-11 126-23 30-12 52-28 69-48 23-28 39-64 48-109 9-45 10-98 3-161-1-8-2-15-3-23 19 2 39 5 59 10 20 4 38 7 56 10 7 62 6 117-3 166-9 50-23 91-42 124-19 33-41 60-66 80-25 20-56 36-93 48-37 12-81 19-130 22l-297 19-43-364zm-829 43c38 7 76 18 113 27 9 67 21 116 37 147 17 33 43 58 78 75 35 16 75 23 122 20 80-5 135-27 165-66 30-39 38-110 26-214l-4-33c39 7 76 11 111 13l2 13c10 83 8 150-5 200-13 50-42 92-87 126-45 34-107 53-187 58-77 5-142-4-194-28-52-24-92-60-119-109-27-49-45-118-56-206l-3-24zm-815 428l107-417c33 6 66 14 100 21l-10 41 279-18-1-3c33-5 66-15 99-31l3-1 193 359-124 8-125-245-344 22-61 257-116 7" fill="#848587"/><path d="m18472 9518c-58-238-116-475-174-713 12-186 89-327 307-368 2220 44 4440 87 6660 131 76 6 97 53 118 86 263 418 494 813 757 1231 78 250 36 403-161 459-1493 25-2986 50-4479 75-191-38-290-92-363-149-323-227-647-454-970-681-81-43-173-63-278-60-472-4-944-7-1416-11z" fill="#393738"/><path d="m26074 9915c-255-405-497-818-752-1223-19-30-23-50-60-53-2217-43-4434-87-6651-130-164 33-228 130-240 290 53 216 105 432 158 647 453 3 906 7 1358 10 110-3 216 16 314 68l4 2 4 3c323 227 648 455 973 683 95 75 209 111 326 134 1487-25 2974-50 4461-75 173-55 151-209 106-357z" fill="#d1d2d4"/><g fill="#fefefe"><path d="m24450 8623c99 161 154 352 148 555-15 560-480 1002-1040 987-560-15-1002-481-987-1040 5-198 67-382 170-536l1710 33z"/><path d="m22796 8591c125 181 195 398 189 629-16 606-548 1084-1188 1067-640-17-1146-522-1130-1128 6-226 84-435 212-606l1917 38"/></g><g fill="#d1d2d4"><path d="m22570 8586c153 174 243 401 236 647-14 528-464 944-1005 930-541-14-969-454-955-981 6-242 104-460 260-624l38 1c-178 158-292 383-299 636-13 492 386 902 891 915 504 13 924-375 937-867 7-257-99-492-274-660l171 3"/><path d="m22159 8578c216 159 353 422 346 716-12 471-394 843-853 831-459-12-821-404-808-875 8-289 155-542 373-690l72 1c-257 124-438 389-446 700-12 439 326 804 754 816 427 11 783-336 795-775 8-315-163-591-418-727l185 3"/><path d="m22885 8654c14-17 28-33 43-49l34 1c-24 22-47 45-69 69l-9-20zm1365-24c138 157 219 362 213 584-12 477-419 852-907 840-302-8-564-162-718-391l2-4c145 203 384 339 657 346 455 12 834-338 846-783 6-232-90-444-248-595l155 3"/><path d="m22907 8709c37-38 78-73 121-103l65 1c-66 32-126 73-178 124l-8-22m972-86c195 144 319 381 312 646-11 426-356 762-770 751-249-6-466-137-597-332l2-4c123 173 320 287 545 293 386 10 707-303 718-700 7-284-147-534-377-656l167 3z"/></g><path d="m22856 8592c83 164 128 351 123 548-17 635-545 1137-1181 1120-635-17-1137-545-1120-1181 5-192 57-371 144-528l-96-2c-81 159-129 338-133 528-17 661 487 1214 1139 1265l237-4c325-37 614-200 813-441 193 200 461 328 761 335 605 16 1109-462 1125-1067 5-195-41-380-127-541l-88-2c92 158 143 344 138 540-15 564-484 1008-1047 994-283-7-536-129-716-320 142-195 229-435 236-695 5-196-36-382-113-549l-96-2z" fill="#848587"/><path d="m25703 9529c-1021-286-1842-566-3437-699-2200-183-6590 62-748 52h22l14 1c1536 84 2749 377 4210 817l-2-11-58-159zm-3587-479c1554 130 2489 468 3680 798 13 56 26 113 39 169l-50-16c-1477-468-2702-781-4241-866-5657 15-1608-267 572-85" fill="#a8aaac"/><path d="m39373 7039c-834 355-603 234-1437 589-28 17-30 67-35 104-7 237 64 834 136 1363 19 273 149 414 230 443 565-81 712-93 1280-311 68-65 127-93 148-162 96-274-35-748 130-1059 26-55 88-106 128-118-153-340-451-703-581-849z" fill="#393738"/><path d="m39357 7108c-461 195-927 373-1389 568-5 13-8 45-9 59-4 145 13 307 27 451 21 217 47 434 75 651 11 83 22 167 34 252 8 111 62 333 180 389 199-28 403-54 599-97 221-48 433-124 643-205 40-35 110-84 124-130 53-151 34-397 36-559 2-170 16-354 96-506 20-42 60-88 104-118-127-261-331-537-521-754z" fill="#d1d2d4"/><g fill="#fefefe"><path d="m38104 9158c243-151 381-656 311-1164-24-174-70-327-129-450-106 43-212 87-317 132-5 13-8 45-10 59-4 145 13 307 27 451 21 217 47 434 76 651 11 83 22 167 34 252 1 20 4 43 9 69z"/><path d="m38236 7565c-32 187-37 393-8 599 80 577 479 936 784 799 304-138 372-914 319-1297-53-383-51-363-118-495-316 131-660 264-976 394z"/></g><g fill="#d1d2d4"><path d="m39216 7404c88 285 112 1708-441 1453-262-130-505-660-455-1160l-1 12c-47 466 184 961 429 1082 496 246 474-1155 389-1423l79 36"/><path d="m39033 7461c76 193 111 447 86 700-45 446-261 718-483 608-222-110-366-561-322-1007l-1 10c-42 416 93 836 300 939 207 103 409-151 450-567 26-266-19-533-109-719l79 35z"/><path d="m38195 7582l-15 6c9 11 18 23 27 36l2-21c-4-7-9-14-14-21m-105 1469c126-79 219-264 262-491l-2-4c-44 218-140 391-266 453l6 42"/><path d="m38151 7600l-27 11c27 18 54 42 79 72l1-23c-17-23-35-43-53-60m-65 1422c9-3 19-6 29-10 118-53 207-219 246-431l-2-3c-39 189-119 335-226 384-18 8-36 13-54 15l6 46z"/></g><path d="m38211 7575c-16 163-14 337 10 511 84 605 493 988 796 851 302-137 352-964 299-1346-53-381-59-300-108-422l45-19c46 124 100 266 122 422 70 425 47 1330-323 1456-249 51-477-53-645-256-63 209-163 371-289 447-6-24-11-48-15-70 120-70 215-226 274-427-91-160-161-373-196-620-24-174-28-347-15-511l45-19z" fill="#848587"/><path d="m38071 8346c557-292 1053-501 1668-730-20-31-40-63-61-93-311 109-1647 453-1606 823zm1733-622c-317 114-1745 534-1699 905 587-318 1112-547 1761-789-19-38-40-77-62-116" fill="#a8aaac"/></svg>