<svg xmlns="http://www.w3.org/2000/svg" width="20" height="20" viewBox="0 0 58 92" xmlns:xlink="http://www.w3.org/1999/xlink" shape-rendering="geometricPrecision" image-rendering="optimizeQuality" fill-rule="evenodd" clip-rule="evenodd"><defs><linearGradient id="0" gradientUnits="userSpaceOnUse" x1="34.842" y1="10.97" x2="22.909" y2="27.558"><stop stop-color="#376cb1"/><stop offset="1" stop-color="#00aeec"/></linearGradient><linearGradient id="1" gradientUnits="userSpaceOnUse" xlink:href="#0" x1="35.21" y1="47.942" x2="20.808" y2="83.71"/></defs><path d="m1 73c6 25 52 25 56 0 4-25-13-40-27-40-15 0-35 15-29 40" fill="url(#1)"/><path d="m56 65c-1-18-13-30-25-30-12 0-27 11-28 29 3-17 17-27 28-27 11 0 22 11 25 28" fill="#a8d7f6"/><circle cx="29" cy="19" r="19" fill="url(#0)"/><path d="m29 2c10 0 17 8 17 17 0 0 0 1 0 1-1-8-8-14-17-14-9 0-16 6-17 14 0 0 0-1 0-1 0-10 8-17 17-17" fill="#a8d7f6"/></svg>