<svg xmlns="http://www.w3.org/2000/svg" width="23" height="23" viewBox="0 0 119 79" shape-rendering="geometricPrecision" image-rendering="optimizeQuality" fill-rule="evenodd" clip-rule="evenodd"><defs><clipPath><path d="m0 0h119v79h-119v-79"/></clipPath><radialGradient id="0" gradientUnits="userSpaceOnUse" cx="23.03" cy="28.11" r="3.882"><stop stop-color="#cd3539"/><stop offset="1" stop-color="#8a2e30"/></radialGradient></defs><path d="m5 72l28-8h31l26-9 22-1c0 0 3 0 2-2-1-2-27-48-27-48h-19l-16 4-22-2-18 5-7 62z" fill="#fefefe"/><path d="m9 68l2-18c0 0 11-8 21-9 10 0 10 4 12 6 2 2 3 4 12 3 8-1 17-4 28 4-7 2-13 4-20 7-10 0-21 0-31 0l-23 7z" fill="#1f97d7"/><path d="m11 49c0-2 1-5 1-7 0 0 13-10 24-9 10 1 7 6 12 7 5 1 15 2 24-2l25 15c0 0-6 0-8 1-3 0-4 1-4 1 0 0-5-5-14-5-5 0-9 1-13 1-7 1-9 0-11-1-2-2-2-5-7-7-7-2-16 1-27 7z" fill="#41a65e"/><path fill="#b3ce52" d="m100 53l11-1-6-10-27-3z"/><g fill="#fff13c"><path d="m104 40l-6-10-23 7z"/><path d="m97 28l-3-7-10 2v2l-12 10z"/></g><g fill="#b3ce52"><path d="m37 30l4-15c0 0 3 0 3 1 0 1 1 4 3 5 2 1 8 1 11 0 3-1 5-2 5-2l5 18c0 0-14 4-19 1-5-3-2-7-12-8"/><path d="m13 38c1-7 2-14 2-21 0 0 15-3 16-3 1 0 6 1 6 1-1 5-2 10-3 15-8 1-15 5-22 9z"/></g><path fill="#fff13c" d="m15 12v2l16-3 14 2-2-4-12-1z"/><path d="m46 9l2 10c0 0 6 1 10-1 4-2 5-4 5-4l-4-7c0 0-4 2-7 2-3 1-7 0-7 0z" fill="#00aeec"/><g fill="#b3ce52"><path d="m71 33l11-9-1-3 12-2-4-8-10 1c0 0 3 4-2 6-5 2-11 2-11 2l4 13z"/><path d="m85 5l2 4h-10c0 0 2 5-1 6-3 1-8 2-8 2l-2-8c0 0 6 0 10-2 4-2 10-2 10-2z"/></g><path d="m23 29c3 0 5 0 7 1 2 1 3 2 3 3 0 1-1 2-3 3-2 1-4 1-7 1-3 0-5 0-7-1-2-1-3-2-3-3 0-1 1-2 3-3 2-1 4-1 7-1m6 2c-2-1-4-1-6-1-2 0-5 0-6 1-1 1-2 1-2 2 0 1 1 1 2 2 2 1 4 1 6 1 2 0 5 0 6-1 1-1 2-1 2-2 0-1-1-1-2-2" fill="#cd3539" fill-rule="nonzero"/><path d="m23 28c4 0 7 2 7 4 0 2-3 3-7 3-4 0-7-1-7-3 0-2 3-4 7-4" fill="url(#0)"/><path d="m88 34c3 0 5 0 7 1 2 1 3 2 3 3 0 1-1 2-3 3-2 1-4 1-7 1-3 0-5 0-7-1-2-1-3-2-3-3 0-1 1-2 3-3 2-1 4-1 7-1m6 2c-2-1-4-1-6-1-2 0-5 0-6 1-1 1-2 1-2 2 0 1 1 1 2 2 2 1 4 1 6 1 2 0 5 0 6-1 1-1 2-1 2-2 0-1-1-1-2-2" fill="#cd3539" fill-rule="nonzero"/><path d="m88 33c4 0 7 2 7 4 0 2-3 3-7 3-4 0-7-1-7-3 0-2 3-4 7-4" fill="url(#0)"/><path d="m63 12c3 0 5 0 7 1 2 1 3 2 3 3 0 1-1 2-3 3-2 1-4 1-7 1-3 0-5 0-7-1-2-1-3-2-3-3 0-1 1-2 3-3 2-1 4-1 7-1m6 2c-2-1-4-1-6-1-2 0-5 0-6 1-1 1-2 1-2 2 0 1 1 1 2 2 2 1 4 1 6 1 2 0 5 0 6-1 1-1 2-1 2-2 0-1-1-1-2-2" fill="#cd3539" fill-rule="nonzero"/><path d="m63 11c4 0 7 2 7 4 0 2-3 3-7 3-4 0-7-1-7-3 0-2 3-4 7-4" fill="url(#0)"/><g fill="#cd3539" fill-rule="nonzero"><path d="m50 21c1 0 2 0 3 0 0 0 0 0 0 0v-1c-1 0-2 0-3 0v1m-17 9c0-1 1-1 1-2l-1-1c0 1-1 1-1 2l1 1m2-4l-1-1 1 1m2-4l-1-1 1 1m2-4l-1-1 1 1m2-3c1 0 1 0 2 0l1-1c-1-1-2 0-3 0l1 1zm3 1c1 1 1 1 2 2l1-1c-1-1-1-1-2-2l-1 1m3 3c1 1 2 1 3 2l1-1c-1 0-1-1-2-1l-1 1z"/><path d="m41 32c-1 0-2-1-3-1v1c1 0 2 1 3 1l1-1zm35 6v1l1-1zm-3-1c-1 0-2 0-3 0v1c1 0 2 0 3 0v-1m-5 0c-1 0-2 1-3 1v1c1 0 2-1 3-1v-1m-4 1v1-1m-4 0v1-1m-4 0c-1 0-2 0-3 0v1c1 0 2 0 3 0v-1m-4 0c-1 0-2-1-2-1l-1 1c1 1 2 1 3 1v-1m-3-2l-1 1 1-1m-3-3c-1-1-2-1-3-1l-1 1c1 0 2 1 2 1l1-1z"/><path d="m67 24c0-1 0-2-1-3h-1c0 0 0 0 0 0l1 3h1m5 10c-1 0-2 0-2-1l-1 1c1 1 2 1 3 1v-1m-3-2c0-1-1-2-1-3h-1c0 1 1 2 1 3l1-1zm-1-4h-1 1"/></g></svg>