<svg xmlns="http://www.w3.org/2000/svg" width="20" height="20" viewBox="0 0 153 153" xmlns:xlink="http://www.w3.org/1999/xlink" shape-rendering="geometricPrecision" image-rendering="optimizeQuality" fill-rule="evenodd" clip-rule="evenodd"><defs><linearGradient id="5" gradientUnits="userSpaceOnUse" y1="25.429" x2="0" y2="73.73"><stop stop-color="#fefefe"/><stop offset=".651" stop-color="#1f97d7"/><stop offset="1" stop-color="#2f81c3"/></linearGradient><linearGradient id="4" gradientUnits="userSpaceOnUse" xlink:href="#0" y1="139.71" x2="0" y2="126.17"/><linearGradient id="6" gradientUnits="userSpaceOnUse" y1="119.6" x2="0" y2="33.05"><stop stop-color="#414192"/><stop offset="1" stop-color="#00aeec"/></linearGradient><linearGradient id="3" gradientUnits="userSpaceOnUse" xlink:href="#0" x1="28.25" x2="12.222"/><linearGradient id="1" gradientUnits="userSpaceOnUse" xlink:href="#0" y1="26.12" x2="0" y2="12.582"/><linearGradient id="0" gradientUnits="userSpaceOnUse" x1="121.88" x2="141.86"><stop stop-color="#e5e6e7"/><stop offset=".212" stop-color="#606162"/><stop offset=".612" stop-color="#fefefe"/><stop offset=".812" stop-color="#d2d3d4"/><stop offset="1" stop-color="#393738"/></linearGradient><linearGradient id="2" gradientUnits="userSpaceOnUse" y1="0" x2="0" y2="152.65"><stop stop-color="#e5e6e7"/><stop offset=".141" stop-color="#606162"/><stop offset=".612" stop-color="#fefefe"/><stop offset=".812" stop-color="#d2d3d4"/><stop offset="1" stop-color="#393738"/></linearGradient></defs><circle cx="76" cy="76" r="76" fill="url(#2)"/><circle cx="76" cy="76" r="63" fill="#314777"/><circle cx="76" cy="76" r="62" fill="url(#6)"/><ellipse cx="76" cy="50" rx="46" ry="33" fill="url(#5)"/><path d="m68 13c5-1 10-1 14 0-2 4-5 9-7 13-2-4-5-9-7-13" fill="url(#1)"/><path d="m68 139c5 1 10 1 14 0-2-4-5-9-7-13-2 4-5 9-7 13" fill="url(#4)"/><path d="m48 47c0 0 29 19 33 23 6 7-2 13-9 7-3-3-25-30-25-30z" fill="#7b2c2d"/><path d="m48 114c0 0 21-37 25-41 6-6 13 1 8 8-3 3-33 33-33 33" fill="#cd3539"/><path d="m140 69c1 5 1 10 0 14-4-2-9-5-13-7 4-2 9-5 13-7" fill="url(#0)"/><path d="m13 69c-1 5-1 10 0 14 4-2 9-5 13-7-4-2-9-5-13-7" fill="url(#3)"/></svg>