<svg id="Capa_1" data-name="Capa 1" xmlns="http://www.w3.org/2000/svg"
    xmlns:xlink="http://www.w3.org/1999/xlink" viewBox="0 0 1080 1350">
    <defs>
        <style>
            .cls-1{fill:#1e1e1e;}.cls-14{fill:#c4c2c1;}.cls-2{fill:url(#linear-gradient);}.cls-3{fill:url(#linear-gradient-2);}.cls-4{fill:url(#linear-gradient-3);}.cls-5{fill:url(#linear-gradient-4);}.cls-6{fill:url(#linear-gradient-5);}.cls-7{fill:url(#linear-gradient-6);}.cls-8{fill:url(#linear-gradient-7);}.cls-9{fill:url(#linear-gradient-8);}.cls-10{fill:url(#linear-gradient-9);}.cls-11{fill:url(#linear-gradient-10);}.cls-12{fill:url(#linear-gradient-11);}.cls-13{fill:url(#linear-gradient-12);}.cls-121{fill:url(#linear-gradient-13);}.cls-15{fill:url(#linear-gradient-14);}.cls-16{fill:url(#linear-gradient-15);}.cls-17{fill:url(#linear-gradient-22);}.cls-18{fill:url(#linear-gradient-29);}.cls-19{fill:url(#linear-gradient-30);}.cls-20{fill:url(#linear-gradient-31);}.cls-21{fill:url(#linear-gradient-32);}.cls-22{fill:url(#linear-gradient-33);}.cls-23{fill:url(#linear-gradient-34);}.cls-24{fill:url(#linear-gradient-35);}.cls-25{fill:url(#linear-gradient-36);}.cls-26{fill:url(#linear-gradient-37);}.cls-27{fill:url(#linear-gradient-38);}.cls-28{fill:url(#linear-gradient-39);}.cls-29{fill:url(#linear-gradient-40);}.cls-30{fill:url(#linear-gradient-41);}.cls-31{fill:url(#linear-gradient-42);}.cls-32{fill:url(#linear-gradient-43);}.cls-33{fill:url(#linear-gradient-44);}.cls-34{fill:url(#linear-gradient-45);}.cls-35{fill:url(#linear-gradient-46);}.cls-36{fill:url(#linear-gradient-47);}.cls-37{fill:url(#linear-gradient-48);}.cls-38{fill:url(#linear-gradient-49);}.cls-39{fill:url(#linear-gradient-50);}.cls-40{fill:url(#linear-gradient-51);}.cls-41{fill:url(#linear-gradient-52);}.cls-42{fill:url(#linear-gradient-53);}.cls-43{fill:url(#linear-gradient-54);}.cls-44{fill:url(#linear-gradient-55);}.cls-45{fill:url(#linear-gradient-56);}.cls-46{fill:url(#linear-gradient-57);}.cls-47{fill:url(#linear-gradient-58);}.cls-48{fill:url(#linear-gradient-59);}.cls-49{fill:url(#linear-gradient-60);}.cls-50{fill:url(#linear-gradient-61);}.cls-51{fill:url(#linear-gradient-62);}.cls-52{fill:url(#linear-gradient-63);}.cls-53{fill:url(#linear-gradient-64);}.cls-54{fill:url(#linear-gradient-65);}.cls-55{fill:url(#linear-gradient-66);}.cls-56{fill:url(#linear-gradient-67);}.cls-57{fill:url(#linear-gradient-68);}.cls-58{fill:url(#linear-gradient-69);}.cls-59{fill:#908da0;}.cls-60{fill:#868790;}.cls-61{fill:#bebcde;}.cls-62{fill:#131313;}.cls-63{fill:url(#linear-gradient-70);}.cls-64{fill:url(#linear-gradient-71);}.cls-65{fill:url(#linear-gradient-72);}.cls-66{fill:url(#linear-gradient-73);}.cls-67{fill:url(#linear-gradient-74);}.cls-68{fill:url(#linear-gradient-75);}.cls-69{fill:url(#linear-gradient-76);}.cls-70{fill:url(#linear-gradient-77);}.cls-71{fill:url(#linear-gradient-78);}.cls-72{fill:url(#linear-gradient-79);}.cls-73{fill:url(#linear-gradient-80);}.cls-74{fill:url(#linear-gradient-81);}.cls-75{fill:url(#linear-gradient-82);}.cls-76{fill:url(#linear-gradient-83);}.cls-77{fill:url(#linear-gradient-84);}.cls-78{fill:url(#linear-gradient-91);}.cls-79{fill:url(#linear-gradient-98);}.cls-80{fill:url(#linear-gradient-99);}.cls-81{fill:url(#linear-gradient-100);}.cls-82{fill:url(#linear-gradient-101);}.cls-83{fill:url(#linear-gradient-102);}.cls-84{fill:url(#linear-gradient-103);}.cls-85{fill:url(#linear-gradient-104);}.cls-86{fill:url(#linear-gradient-105);}.cls-87{fill:url(#linear-gradient-106);}.cls-88{fill:url(#linear-gradient-107);}.cls-89{fill:url(#linear-gradient-108);}.cls-90{fill:url(#linear-gradient-109);}.cls-91{fill:url(#linear-gradient-110);}.cls-92{fill:url(#linear-gradient-111);}.cls-93{fill:url(#linear-gradient-112);}.cls-94{fill:url(#linear-gradient-113);}.cls-95{fill:url(#linear-gradient-114);}.cls-96{fill:url(#linear-gradient-115);}.cls-97{fill:url(#linear-gradient-116);}.cls-98{fill:url(#linear-gradient-117);}.cls-99{fill:url(#linear-gradient-118);}.cls-100{fill:url(#linear-gradient-119);}.cls-101{fill:url(#linear-gradient-120);}.cls-102{fill:url(#linear-gradient-121);}.cls-103{fill:url(#linear-gradient-122);}.cls-104{fill:url(#linear-gradient-123);}.cls-105{fill:url(#linear-gradient-124);}.cls-106{fill:url(#linear-gradient-125);}.cls-107{fill:url(#linear-gradient-126);}.cls-108{fill:url(#linear-gradient-127);}.cls-109{fill:url(#linear-gradient-128);}.cls-110{fill:url(#linear-gradient-129);}.cls-111{fill:url(#linear-gradient-130);}.cls-112{fill:url(#linear-gradient-131);}.cls-113{fill:url(#linear-gradient-132);}.cls-114{fill:url(#linear-gradient-133);}.cls-115{fill:url(#linear-gradient-134);}.cls-116{fill:url(#linear-gradient-135);}.cls-117{fill:url(#linear-gradient-136);}.cls-118{fill:url(#linear-gradient-137);}.cls-119{fill:url(#linear-gradient-138);}.cls-120,.cls-122{fill:#353535;}.cls-122,.cls-123{opacity:0.29;}.cls-124{fill:#bebebe;}.cls-125{fill:#b1b1b1;}.cls-126{fill:#1d232a;}.cls-127{fill:#fa8d07;}.cls-128{fill:#636363;}</style>
        <linearGradient id="linear-gradient" x1="-12340.86" y1="831.34" x2="-12341.16" y2="830.82"
            gradientTransform="translate(10080.92 370.33) scale(0.77 0.64)"
            gradientUnits="userSpaceOnUse">
            <stop offset="0" stop-color="#181818" />
            <stop offset="0.27" stop-color="#262626" />
            <stop offset="0.77" stop-color="#2e2e2e" />
        </linearGradient>
        <linearGradient id="linear-gradient-2" x1="-12339.61" y1="830.76" x2="-12339.88" y2="830.28"
            xlink:href="#linear-gradient" />
        <linearGradient id="linear-gradient-3" x1="-12329.99" y1="831.8" x2="-12332.03" y2="828.27"
            xlink:href="#linear-gradient" />
        <linearGradient id="linear-gradient-4" x1="-12309.5" y1="853.2" x2="-12321.98" y2="831.58"
            xlink:href="#linear-gradient" />
        <linearGradient id="linear-gradient-5" x1="-12283.47" y1="861.52" x2="-12293.06" y2="844.9"
            xlink:href="#linear-gradient" />
        <linearGradient id="linear-gradient-6" x1="-12265.09" y1="944.39" x2="-12304.16" y2="876.72"
            xlink:href="#linear-gradient" />
        <linearGradient id="linear-gradient-7" x1="-12261.17" y1="886.97" x2="-12264.46" y2="881.28"
            xlink:href="#linear-gradient" />
        <linearGradient id="linear-gradient-8" x1="-12257.23" y1="893.66" x2="-12261.11" y2="886.94"
            xlink:href="#linear-gradient" />
        <linearGradient id="linear-gradient-9" x1="-12247.36" y1="914.74" x2="-12251.23" y2="908.03"
            xlink:href="#linear-gradient" />
        <linearGradient id="linear-gradient-10" x1="-12242.07" y1="928.53" x2="-12249.36" y2="915.9"
            xlink:href="#linear-gradient" />
        <linearGradient id="linear-gradient-11" x1="-12241.58" y1="990.82" x2="-12243.12"
            y2="988.16" xlink:href="#linear-gradient" />
        <linearGradient id="linear-gradient-12" x1="-12239.63" y1="984.11" x2="-12241.21"
            y2="981.38" xlink:href="#linear-gradient" />
        <linearGradient id="linear-gradient-13" x1="-12237.83" y1="978.49" x2="-12240.7" y2="973.52"
            xlink:href="#linear-gradient" />
        <linearGradient id="linear-gradient-14" x1="-12235.36" y1="969.92" x2="-12246.6" y2="950.44"
            xlink:href="#linear-gradient" />
        <linearGradient id="linear-gradient-15" x1="-12593.33" y1="995.97" x2="-12698.89"
            y2="813.13" gradientTransform="translate(10367.67 370.33) scale(0.77 0.64)"
            xlink:href="#linear-gradient" />
        <linearGradient id="linear-gradient-22" x1="-12267.29" y1="945.66" x2="-12306.36" y2="878"
            xlink:href="#linear-gradient" />
        <linearGradient id="linear-gradient-29" x1="-12592.55" y1="994.49" x2="-12697.33" y2="813"
            gradientTransform="translate(10367.67 370.33) scale(0.77 0.64)"
            xlink:href="#linear-gradient" />
        <linearGradient id="linear-gradient-30" x1="-12339.99" y1="831.01" x2="-12339.46"
            y2="830.09" gradientTransform="translate(10080.92 370.33) scale(0.77 0.64)"
            gradientUnits="userSpaceOnUse">
            <stop offset="0" stop-color="#141414" />
            <stop offset="0.44" stop-color="#1e1e1e" />
            <stop offset="0.78" stop-color="#202020" />
            <stop offset="0.98" stop-color="#292929" />
            <stop offset="1" stop-color="#2a2a2a" />
        </linearGradient>
        <linearGradient id="linear-gradient-31" x1="-12331.88" y1="831.55" x2="-12330.14"
            y2="828.53" xlink:href="#linear-gradient-30" />
        <linearGradient id="linear-gradient-32" x1="-12338.24" y1="908.8" x2="-12329.2" y2="893.15"
            xlink:href="#linear-gradient-30" />
        <linearGradient id="linear-gradient-33" x1="-12320.31" y1="951.54" x2="-12311.29"
            y2="935.91" xlink:href="#linear-gradient-30" />
        <linearGradient id="linear-gradient-34" x1="-12320.28" y1="850.2" x2="-12311.65" y2="835.27"
            xlink:href="#linear-gradient-30" />
        <linearGradient id="linear-gradient-35" x1="-12290.28" y1="857.4" x2="-12286.44" y2="850.75"
            xlink:href="#linear-gradient-30" />
        <linearGradient id="linear-gradient-36" x1="-12263.52" y1="885.45" x2="-12261.92"
            y2="882.69" xlink:href="#linear-gradient-30" />
        <linearGradient id="linear-gradient-37" x1="-12260.19" y1="892.06" x2="-12258.16"
            y2="888.54" xlink:href="#linear-gradient-30" />
        <linearGradient id="linear-gradient-38" x1="-12363.79" y1="923.27" x2="-12360.72"
            y2="917.94" xlink:href="#linear-gradient-30" />
        <linearGradient id="linear-gradient-39" x1="-12348.46" y1="835.13" x2="-12346.42" y2="831.6"
            xlink:href="#linear-gradient-30" />
        <linearGradient id="linear-gradient-40" x1="-12341.45" y1="831.47" x2="-12340.92"
            y2="830.56" xlink:href="#linear-gradient-30" />
        <linearGradient id="linear-gradient-41" x1="-12295.95" y1="1009.52" x2="-12295.69"
            y2="1009.07" xlink:href="#linear-gradient-30" />
        <linearGradient id="linear-gradient-42" x1="-12304.73" y1="938.09" x2="-12276.81"
            y2="889.72" xlink:href="#linear-gradient-30" />
        <linearGradient id="linear-gradient-43" x1="-12250.54" y1="913.54" x2="-12248.05"
            y2="909.24" xlink:href="#linear-gradient-30" />
        <linearGradient id="linear-gradient-44" x1="-12248.08" y1="926.45" x2="-12243.1" y2="917.83"
            xlink:href="#linear-gradient-30" />
        <linearGradient id="linear-gradient-45" x1="-12243.5" y1="991.49" x2="-12241.2" y2="987.49"
            xlink:href="#linear-gradient-30" />
        <linearGradient id="linear-gradient-46" x1="-12241.48" y1="984.58" x2="-12239.36"
            y2="980.91" xlink:href="#linear-gradient-30" />
        <linearGradient id="linear-gradient-47" x1="-12240.93" y1="978.89" x2="-12237.6" y2="973.11"
            xlink:href="#linear-gradient-30" />
        <linearGradient id="linear-gradient-48" x1="-12246.33" y1="967.59" x2="-12237.27"
            y2="951.91" xlink:href="#linear-gradient-30" />
        <linearGradient id="linear-gradient-49" x1="-12699.78" y1="971.23" x2="-12632.1" y2="854.01"
            gradientTransform="translate(10367.67 370.33) scale(0.77 0.64)"
            xlink:href="#linear-gradient-30" />
        <linearGradient id="linear-gradient-50" x1="-12339.99" y1="831.01" x2="-12339.46"
            y2="830.09" gradientTransform="translate(10080.92 370.33) scale(0.77 0.64)"
            gradientUnits="userSpaceOnUse">
            <stop offset="0" stop-color="#161616" />
            <stop offset="0.3" stop-color="#1a1a1a" />
            <stop offset="0.79" stop-color="#1e1e1e" />
            <stop offset="0.8" stop-color="#1e1e1e" />
        </linearGradient>
        <linearGradient id="linear-gradient-51" x1="-12331.88" y1="831.55" x2="-12330.14"
            y2="828.53" xlink:href="#linear-gradient-50" />
        <linearGradient id="linear-gradient-52" x1="-12338.24" y1="908.8" x2="-12329.2" y2="893.15"
            xlink:href="#linear-gradient-50" />
        <linearGradient id="linear-gradient-53" x1="-12320.31" y1="951.54" x2="-12311.29"
            y2="935.91" xlink:href="#linear-gradient-50" />
        <linearGradient id="linear-gradient-54" x1="-12320.28" y1="850.2" x2="-12311.65" y2="835.27"
            xlink:href="#linear-gradient-50" />
        <linearGradient id="linear-gradient-55" x1="-12290.28" y1="857.4" x2="-12286.44" y2="850.75"
            xlink:href="#linear-gradient-50" />
        <linearGradient id="linear-gradient-56" x1="-12263.52" y1="885.45" x2="-12261.92"
            y2="882.69" xlink:href="#linear-gradient-50" />
        <linearGradient id="linear-gradient-57" x1="-12260.19" y1="892.06" x2="-12258.16"
            y2="888.54" xlink:href="#linear-gradient-50" />
        <linearGradient id="linear-gradient-58" x1="-12363.79" y1="923.27" x2="-12360.72"
            y2="917.94" xlink:href="#linear-gradient-50" />
        <linearGradient id="linear-gradient-59" x1="-12348.46" y1="835.13" x2="-12346.42" y2="831.6"
            xlink:href="#linear-gradient-50" />
        <linearGradient id="linear-gradient-60" x1="-12341.45" y1="831.47" x2="-12340.92"
            y2="830.56" xlink:href="#linear-gradient-50" />
        <linearGradient id="linear-gradient-61" x1="-12295.95" y1="1009.52" x2="-12295.69"
            y2="1009.07" xlink:href="#linear-gradient-50" />
        <linearGradient id="linear-gradient-62" x1="-12304.73" y1="938.09" x2="-12276.81"
            y2="889.72" xlink:href="#linear-gradient-50" />
        <linearGradient id="linear-gradient-63" x1="-12250.54" y1="913.54" x2="-12248.05"
            y2="909.24" xlink:href="#linear-gradient-50" />
        <linearGradient id="linear-gradient-64" x1="-12248.08" y1="926.45" x2="-12243.1" y2="917.83"
            xlink:href="#linear-gradient-50" />
        <linearGradient id="linear-gradient-65" x1="-12243.5" y1="991.49" x2="-12241.2" y2="987.49"
            xlink:href="#linear-gradient-50" />
        <linearGradient id="linear-gradient-66" x1="-12241.48" y1="984.58" x2="-12239.36"
            y2="980.91" xlink:href="#linear-gradient-50" />
        <linearGradient id="linear-gradient-67" x1="-12240.93" y1="978.89" x2="-12237.6" y2="973.11"
            xlink:href="#linear-gradient-50" />
        <linearGradient id="linear-gradient-68" x1="-12246.33" y1="967.59" x2="-12237.27"
            y2="951.91" xlink:href="#linear-gradient-50" />
        <linearGradient id="linear-gradient-69" x1="-12699.78" y1="971.23" x2="-12632.1" y2="854.01"
            gradientTransform="translate(10367.67 370.33) scale(0.77 0.64)"
            xlink:href="#linear-gradient-50" />
        <linearGradient id="linear-gradient-70" x1="-12892.32" y1="435.75" x2="-12892.62"
            y2="435.23" xlink:href="#linear-gradient" />
        <linearGradient id="linear-gradient-71" x1="-12891.07" y1="435.17" x2="-12891.35" y2="434.7"
            xlink:href="#linear-gradient" />
        <linearGradient id="linear-gradient-72" x1="-12881.46" y1="436.22" x2="-12883.49"
            y2="432.69" xlink:href="#linear-gradient" />
        <linearGradient id="linear-gradient-73" x1="-12860.97" y1="457.62" x2="-12873.45" y2="436"
            xlink:href="#linear-gradient" />
        <linearGradient id="linear-gradient-74" x1="-12834.94" y1="465.93" x2="-12844.53"
            y2="449.32" xlink:href="#linear-gradient" />
        <linearGradient id="linear-gradient-75" x1="-12816.56" y1="548.8" x2="-12855.62" y2="481.14"
            xlink:href="#linear-gradient" />
        <linearGradient id="linear-gradient-76" x1="-12812.64" y1="491.39" x2="-12815.92"
            y2="485.69" xlink:href="#linear-gradient" />
        <linearGradient id="linear-gradient-77" x1="-12808.69" y1="498.08" x2="-12812.58"
            y2="491.35" xlink:href="#linear-gradient" />
        <linearGradient id="linear-gradient-78" x1="-12798.82" y1="519.16" x2="-12802.7" y2="512.45"
            xlink:href="#linear-gradient" />
        <linearGradient id="linear-gradient-79" x1="-12793.54" y1="532.95" x2="-12800.83"
            y2="520.31" xlink:href="#linear-gradient" />
        <linearGradient id="linear-gradient-80" x1="-12793.05" y1="595.24" x2="-12794.59"
            y2="592.58" xlink:href="#linear-gradient" />
        <linearGradient id="linear-gradient-81" x1="-12791.1" y1="588.53" x2="-12792.68" y2="585.79"
            xlink:href="#linear-gradient" />
        <linearGradient id="linear-gradient-82" x1="-12789.3" y1="582.91" x2="-12792.17" y2="577.93"
            xlink:href="#linear-gradient" />
        <linearGradient id="linear-gradient-83" x1="-12786.82" y1="574.33" x2="-12798.06"
            y2="554.86" xlink:href="#linear-gradient" />
        <linearGradient id="linear-gradient-84" x1="-13144.79" y1="600.38" x2="-13250.35"
            y2="417.55" gradientTransform="translate(10367.67 370.33) scale(0.77 0.64)"
            xlink:href="#linear-gradient" />
        <linearGradient id="linear-gradient-91" x1="-12818.76" y1="550.07" x2="-12857.83"
            y2="482.41" xlink:href="#linear-gradient" />
        <linearGradient id="linear-gradient-98" x1="-13144.02" y1="598.9" x2="-13248.8" y2="417.42"
            gradientTransform="translate(10367.67 370.33) scale(0.77 0.64)"
            xlink:href="#linear-gradient" />
        <linearGradient id="linear-gradient-99" x1="-12891.46" y1="435.43" x2="-12890.93" y2="434.5"
            xlink:href="#linear-gradient-30" />
        <linearGradient id="linear-gradient-100" x1="-12883.35" y1="435.96" x2="-12881.6"
            y2="432.94" xlink:href="#linear-gradient-30" />
        <linearGradient id="linear-gradient-101" x1="-12889.71" y1="513.22" x2="-12880.67"
            y2="497.57" xlink:href="#linear-gradient-30" />
        <linearGradient id="linear-gradient-102" x1="-12871.78" y1="555.96" x2="-12862.75"
            y2="540.32" xlink:href="#linear-gradient-30" />
        <linearGradient id="linear-gradient-103" x1="-12871.74" y1="454.62" x2="-12863.12"
            y2="439.68" xlink:href="#linear-gradient-30" />
        <linearGradient id="linear-gradient-104" x1="-12841.75" y1="461.81" x2="-12837.91"
            y2="455.17" xlink:href="#linear-gradient-30" />
        <linearGradient id="linear-gradient-105" x1="-12814.98" y1="489.86" x2="-12813.39"
            y2="487.11" xlink:href="#linear-gradient-30" />
        <linearGradient id="linear-gradient-106" x1="-12811.65" y1="496.48" x2="-12809.62"
            y2="492.96" xlink:href="#linear-gradient-30" />
        <linearGradient id="linear-gradient-107" x1="-12915.26" y1="527.68" x2="-12912.19"
            y2="522.36" xlink:href="#linear-gradient-30" />
        <linearGradient id="linear-gradient-108" x1="-12899.93" y1="439.55" x2="-12897.89"
            y2="436.01" xlink:href="#linear-gradient-30" />
        <linearGradient id="linear-gradient-109" x1="-12892.91" y1="435.89" x2="-12892.39"
            y2="434.98" xlink:href="#linear-gradient-30" />
        <linearGradient id="linear-gradient-110" x1="-12847.42" y1="613.94" x2="-12847.16"
            y2="613.48" xlink:href="#linear-gradient-30" />
        <linearGradient id="linear-gradient-111" x1="-12856.2" y1="542.51" x2="-12828.27"
            y2="494.14" xlink:href="#linear-gradient-30" />
        <linearGradient id="linear-gradient-112" x1="-12802" y1="517.95" x2="-12799.52" y2="513.65"
            xlink:href="#linear-gradient-30" />
        <linearGradient id="linear-gradient-113" x1="-12799.55" y1="530.87" x2="-12794.57"
            y2="522.24" xlink:href="#linear-gradient-30" />
        <linearGradient id="linear-gradient-114" x1="-12794.97" y1="595.9" x2="-12792.66"
            y2="591.91" xlink:href="#linear-gradient-30" />
        <linearGradient id="linear-gradient-115" x1="-12792.95" y1="589" x2="-12790.83" y2="585.33"
            xlink:href="#linear-gradient-30" />
        <linearGradient id="linear-gradient-116" x1="-12792.4" y1="583.31" x2="-12789.06"
            y2="577.53" xlink:href="#linear-gradient-30" />
        <linearGradient id="linear-gradient-117" x1="-12797.8" y1="572.01" x2="-12788.74"
            y2="556.32" xlink:href="#linear-gradient-30" />
        <linearGradient id="linear-gradient-118" x1="-13251.25" y1="575.65" x2="-13183.57"
            y2="458.43" gradientTransform="translate(10367.67 370.33) scale(0.77 0.64)"
            xlink:href="#linear-gradient-30" />
        <linearGradient id="linear-gradient-119" x1="-12891.46" y1="435.43" x2="-12890.93"
            y2="434.5" xlink:href="#linear-gradient-50" />
        <linearGradient id="linear-gradient-120" x1="-12883.35" y1="435.96" x2="-12881.6"
            y2="432.94" xlink:href="#linear-gradient-50" />
        <linearGradient id="linear-gradient-121" x1="-12889.71" y1="513.22" x2="-12880.67"
            y2="497.57" xlink:href="#linear-gradient-50" />
        <linearGradient id="linear-gradient-122" x1="-12871.78" y1="555.96" x2="-12862.75"
            y2="540.32" xlink:href="#linear-gradient-50" />
        <linearGradient id="linear-gradient-123" x1="-12871.74" y1="454.62" x2="-12863.12"
            y2="439.68" xlink:href="#linear-gradient-50" />
        <linearGradient id="linear-gradient-124" x1="-12841.75" y1="461.81" x2="-12837.91"
            y2="455.17" xlink:href="#linear-gradient-50" />
        <linearGradient id="linear-gradient-125" x1="-12814.98" y1="489.86" x2="-12813.39"
            y2="487.11" xlink:href="#linear-gradient-50" />
        <linearGradient id="linear-gradient-126" x1="-12811.65" y1="496.48" x2="-12809.62"
            y2="492.96" xlink:href="#linear-gradient-50" />
        <linearGradient id="linear-gradient-127" x1="-12915.26" y1="527.68" x2="-12912.19"
            y2="522.36" xlink:href="#linear-gradient-50" />
        <linearGradient id="linear-gradient-128" x1="-12899.93" y1="439.55" x2="-12897.89"
            y2="436.01" xlink:href="#linear-gradient-50" />
        <linearGradient id="linear-gradient-129" x1="-12892.91" y1="435.89" x2="-12892.39"
            y2="434.98" xlink:href="#linear-gradient-50" />
        <linearGradient id="linear-gradient-130" x1="-12847.42" y1="613.94" x2="-12847.16"
            y2="613.48" xlink:href="#linear-gradient-50" />
        <linearGradient id="linear-gradient-131" x1="-12856.2" y1="542.51" x2="-12828.27"
            y2="494.14" xlink:href="#linear-gradient-50" />
        <linearGradient id="linear-gradient-132" x1="-12802" y1="517.95" x2="-12799.52" y2="513.65"
            xlink:href="#linear-gradient-50" />
        <linearGradient id="linear-gradient-133" x1="-12799.55" y1="530.87" x2="-12794.57"
            y2="522.24" xlink:href="#linear-gradient-50" />
        <linearGradient id="linear-gradient-134" x1="-12794.97" y1="595.9" x2="-12792.66"
            y2="591.91" xlink:href="#linear-gradient-50" />
        <linearGradient id="linear-gradient-135" x1="-12792.95" y1="589" x2="-12790.83" y2="585.33"
            xlink:href="#linear-gradient-50" />
        <linearGradient id="linear-gradient-136" x1="-12792.4" y1="583.31" x2="-12789.06"
            y2="577.53" xlink:href="#linear-gradient-50" />
        <linearGradient id="linear-gradient-137" x1="-12797.8" y1="572.01" x2="-12788.74"
            y2="556.32" xlink:href="#linear-gradient-50" />
        <linearGradient id="linear-gradient-138" x1="-13251.25" y1="575.65" x2="-13183.57"
            y2="458.43" gradientTransform="translate(10367.67 370.33) scale(0.77 0.64)"
            xlink:href="#linear-gradient-50" />
    </defs>
    <path class="cls-1"
        d="M714,977.5c-.06,21-7.77,35.8-20.2,42.75l-35.95,20.12c.8-.45,1.52-1,2.27-1.53-12.72,8.57-31.08,8.26-51.54-3.12-38.23-21.25-69.13-72.78-69-115.08.06-21.08,7.83-35.89,20.33-42.81a.75.75,0,0,0-.13.06l36-20.12c12.59-7,30-6,49.27,4.64C683.22,883.67,714.12,935.2,714,977.5ZM653.59,984c.08-27.35-19.92-60.69-44.63-74.43s-44.85-2.7-44.93,24.65,19.92,60.69,44.63,74.43S653.51,1011.36,653.59,984Z" />
    <path class="cls-2"
        d="M577.38,905.07c-.12.22-.35.33-.47.55l-.24-.33A1.77,1.77,0,0,1,577.38,905.07Z" />
    <path class="cls-3" d="M578.69,904.85c-.48.11-.83.11-1.19.22l.12-.11Z" />
    <path class="cls-4"
        d="M587.72,904.74a35.28,35.28,0,0,0-5.82-.22,6.23,6.23,0,0,1,1.43-.11h.47c.83,0,1.54.11,2.26.11C586.53,904.63,587.13,904.63,587.72,904.74Z" />
    <path class="cls-5"
        d="M600.2,920c-2.73.66-6.66-2.2-8.79-6.27-1.79-3.51-1.55-7,.59-8.24h.12a28.15,28.15,0,0,1,3.8,1c1,.33,1.9.66,3,1.1a13.09,13.09,0,0,1,2.73,3.74C603.77,915.51,603.05,919.36,600.2,920Z" />
    <path class="cls-6"
        d="M623.73,923.75c-1.19.77-3,.77-4.87-.22a12.93,12.93,0,0,1-6.18-8.68A103.27,103.27,0,0,1,623.73,923.75Z" />
    <path class="cls-7"
        d="M635.38,969.47c0,7.58-3.81,12.2-9.63,12.75l-.83-1.32c3.33-1.65,5.47-5.39,5.47-10.77,0-10.44-8.08-23.3-17.95-28.57-5.23-2.75-9.86-2.86-13.19-.88l-.83-1.32c3.44-4.62,9.86-5.5,17.23-1.54C626.58,943.75,635.38,957.82,635.38,969.47Z" />
    <path class="cls-8"
        d="M638.71,941.23a10.91,10.91,0,0,1-1.19-1.32,12.08,12.08,0,0,1-1.43-2.31C637,938.81,637.87,940,638.71,941.23Z" />
    <path class="cls-9"
        d="M641.56,945.62c-.95-1.54-1.9-3-2.85-4.39.95,1.32,1.78,2.74,2.73,4.06A.38.38,0,0,1,641.56,945.62Z" />
    <path class="cls-10"
        d="M648.81,959.36c-.72-1.54-1.43-3.08-2.14-4.73.35.66.59,1.32,1,1.87C648,957.49,648.45,958.37,648.81,959.36Z" />
    <path class="cls-11"
        d="M652.37,968.48a13.14,13.14,0,0,1-3.32-5.6,7.27,7.27,0,0,1-.24-3.52c.59,1.21,1.07,2.42,1.54,3.63a25.48,25.48,0,0,1,1.19,3.18A17.8,17.8,0,0,1,652.37,968.48Z" />
    <path class="cls-12"
        d="M653.68,1005.84a7.75,7.75,0,0,1-.6,1.76c-.23.33-.35.77-.59,1.1A20.92,20.92,0,0,0,653.68,1005.84Z" />
    <path class="cls-13" d="M655,1001.56l-.36,1.65a3,3,0,0,0-.47,1.1A20.08,20.08,0,0,0,655,1001.56Z" />
    <path class="cls-121"
        d="M655.82,996.28c-.12,1-.24,2-.36,2.86a9.17,9.17,0,0,1-.36,1.76C655.34,999.36,655.58,997.93,655.82,996.28Z" />
    <path class="cls-15"
        d="M656.17,990.79a35,35,0,0,1-.35,5.16,9,9,0,0,1-2.74-1.75c-3.32-2.86-5.1-7.59-4-10.55.94-2.53,3.56-3,6.53-1.21v.11A64.7,64.7,0,0,1,656.17,990.79Z" />
    <path class="cls-16"
        d="M662.82,991c0,12.62-3.84,22.07-10.41,28a7.42,7.42,0,0,1-1.92,1.59L650,1020a9.59,9.59,0,0,0,1.41-1.59c5.26-6,8.2-14.78,8.2-25.72a57.47,57.47,0,0,0-.41-7.29c-3.23-29.83-26-63.59-53.29-78.27-10.42-5.61-20.33-7.67-28.62-6.45a18.34,18.34,0,0,0-3.13.65H574l-.3-.56c1.11-.37,2.33-.84,3.54-1.21,9-2.15,19.92-.56,32,5.89C638.86,921.24,662.82,959.49,662.82,991Z" />
    <path class="cls-3" d="M578.69,904.85c-.48.11-.83.11-1.19.22l.12-.11Z" />
    <path class="cls-4"
        d="M587.72,904.74a35.28,35.28,0,0,0-5.82-.22,6.23,6.23,0,0,1,1.43-.11h.47c.83,0,1.54.11,2.26.11C586.53,904.63,587.13,904.63,587.72,904.74Z" />
    <path class="cls-5"
        d="M600.2,920c-2.73.66-6.66-2.2-8.79-6.27-1.79-3.51-1.55-7,.59-8.24h.12a28.15,28.15,0,0,1,3.8,1c1,.33,1.9.66,3,1.1a13.09,13.09,0,0,1,2.73,3.74C603.77,915.51,603.05,919.36,600.2,920Z" />
    <path class="cls-6"
        d="M623.73,923.75c-1.19.77-3,.77-4.87-.22a12.93,12.93,0,0,1-6.18-8.68A103.27,103.27,0,0,1,623.73,923.75Z" />
    <path class="cls-8"
        d="M638.71,941.23a10.91,10.91,0,0,1-1.19-1.32,12.08,12.08,0,0,1-1.43-2.31C637,938.81,637.87,940,638.71,941.23Z" />
    <path class="cls-9"
        d="M641.56,945.62c-.95-1.54-1.9-3-2.85-4.39.95,1.32,1.78,2.74,2.73,4.06A.38.38,0,0,1,641.56,945.62Z" />
    <path class="cls-17"
        d="M635.38,969.47c0,7.58-3.81,12.2-9.63,12.75a11.87,11.87,0,0,1-4.75-.33,11.37,11.37,0,0,0,3.92-1c3.33-1.65,5.47-5.39,5.47-10.77,0-10.44-8.08-23.3-17.95-28.57-5.23-2.75-9.86-2.86-13.19-.88a8.08,8.08,0,0,0-2.62,2.52,13,13,0,0,1,1.79-3.84c3.44-4.62,9.86-5.5,17.23-1.54C626.58,943.75,635.38,957.82,635.38,969.47Z" />
    <path class="cls-10"
        d="M648.81,959.36c-.72-1.54-1.43-3.08-2.14-4.73.35.66.59,1.32,1,1.87C648,957.49,648.45,958.37,648.81,959.36Z" />
    <path class="cls-11"
        d="M652.37,968.48a13.14,13.14,0,0,1-3.32-5.6,7.27,7.27,0,0,1-.24-3.52c.59,1.21,1.07,2.42,1.54,3.63a25.48,25.48,0,0,1,1.19,3.18A17.8,17.8,0,0,1,652.37,968.48Z" />
    <path class="cls-12"
        d="M653.68,1005.84a7.75,7.75,0,0,1-.6,1.76c-.23.33-.35.77-.59,1.1A20.92,20.92,0,0,0,653.68,1005.84Z" />
    <path class="cls-13" d="M655,1001.56l-.36,1.65a3,3,0,0,0-.47,1.1A20.08,20.08,0,0,0,655,1001.56Z" />
    <path class="cls-121"
        d="M655.82,996.28c-.12,1-.24,2-.36,2.86a9.17,9.17,0,0,1-.36,1.76C655.34,999.36,655.58,997.93,655.82,996.28Z" />
    <path class="cls-15"
        d="M656.17,990.79a35,35,0,0,1-.35,5.16,9,9,0,0,1-2.74-1.75c-3.32-2.86-5.1-7.59-4-10.55.94-2.53,3.56-3,6.53-1.21v.11A64.7,64.7,0,0,1,656.17,990.79Z" />
    <path class="cls-18"
        d="M662.82,991c0,12.62-3.84,22.07-10.41,28-.41-.28-.61-.37-1-.65,5.26-6,8.2-14.78,8.2-25.72a57.47,57.47,0,0,0-.41-7.29c-3.23-29.83-26-63.59-53.29-78.27-10.42-5.61-20.33-7.67-28.62-6.45a4.19,4.19,0,0,1,0-1.12c9-2.15,19.92-.56,32,5.89C638.86,921.24,662.82,959.49,662.82,991Z" />
    <path class="cls-19" d="M578.69,904.85c-.48.11-.83.11-1.19.22l.12-.11Z" />
    <path class="cls-20"
        d="M587.72,904.74a35.28,35.28,0,0,0-5.82-.22,6.23,6.23,0,0,1,1.43-.11h.47c.83,0,1.54.11,2.26.11C586.53,904.63,587.13,904.63,587.72,904.74Z" />
    <path class="cls-21"
        d="M584.63,957.71c-3.33-.66-6.89-4.5-8-8.57s.83-6.92,4.16-6.26,6.77,4.39,7.84,8.57S588,958.37,584.63,957.71Z" />
    <path class="cls-22"
        d="M601.62,984.53c-2,1.86-5.94.43-8.79-3.3s-3.44-8.13-1.42-10.11,6.06-.44,8.79,3.3S603.65,982.55,601.62,984.53Z" />
    <path class="cls-23"
        d="M600.2,920c-2.73.66-6.66-2.2-8.79-6.27-1.79-3.51-1.55-7,.59-8.24h.12a28.15,28.15,0,0,1,3.8,1c1,.33,1.9.66,3,1.1a13.09,13.09,0,0,1,2.73,3.74C603.77,915.51,603.05,919.36,600.2,920Z" />
    <path class="cls-24"
        d="M623.73,923.75c-1.19.77-3,.77-4.87-.22a12.93,12.93,0,0,1-6.18-8.68A103.27,103.27,0,0,1,623.73,923.75Z" />
    <path class="cls-25"
        d="M638.71,941.23a10.91,10.91,0,0,1-1.19-1.32,12.08,12.08,0,0,1-1.43-2.31C637,938.81,637.87,940,638.71,941.23Z" />
    <path class="cls-26"
        d="M641.56,945.62c-.95-1.54-1.9-3-2.85-4.39.95,1.32,1.78,2.74,2.73,4.06A.38.38,0,0,1,641.56,945.62Z" />
    <path class="cls-27"
        d="M560.15,961.12c.47,1.54,1.07,3.08,1.66,4.61a52.55,52.55,0,0,1-2.13-5.6A4,4,0,0,1,560.15,961.12Z" />
    <path class="cls-28"
        d="M572.15,906.61a7.27,7.27,0,0,1,1.67-.55,11.34,11.34,0,0,0-2.62,1.21l-.12.11a1.37,1.37,0,0,0-.59.11c.36-.22.71-.33,1.07-.55a.43.43,0,0,0,.24-.11.48.48,0,0,0,.24-.11C572.15,906.72,572.15,906.72,572.15,906.61Z" />
    <path class="cls-29" d="M576.67,905.29a1.77,1.77,0,0,1,.71-.22c-.12.22-.35.33-.47.55Z" />
    <path class="cls-30"
        d="M614.82,1021.23a51.33,51.33,0,0,1-5.83-2.42c1,.44,2,.88,3,1.21S613.87,1020.9,614.82,1021.23Z" />
    <path class="cls-31"
        d="M635.38,969.47c0,7.58-3.81,12.2-9.63,12.75a11.87,11.87,0,0,1-4.75-.33,11.37,11.37,0,0,0,3.92-1c3.33-1.65,5.47-5.39,5.47-10.77,0-10.44-8.08-23.3-17.95-28.57-5.23-2.75-9.86-2.86-13.19-.88a8.08,8.08,0,0,0-2.62,2.52,13,13,0,0,1,1.79-3.84c3.44-4.62,9.86-5.5,17.23-1.54C626.58,943.75,635.38,957.82,635.38,969.47Z" />
    <path class="cls-32"
        d="M648.81,959.36c-.72-1.54-1.43-3.08-2.14-4.73.35.66.59,1.32,1,1.87C648,957.49,648.45,958.37,648.81,959.36Z" />
    <path class="cls-33"
        d="M652.37,968.48a13.14,13.14,0,0,1-3.32-5.6,7.27,7.27,0,0,1-.24-3.52c.59,1.21,1.07,2.42,1.54,3.63a25.48,25.48,0,0,1,1.19,3.18A17.8,17.8,0,0,1,652.37,968.48Z" />
    <path class="cls-34"
        d="M653.68,1005.84a7.75,7.75,0,0,1-.6,1.76c-.23.33-.35.77-.59,1.1A20.92,20.92,0,0,0,653.68,1005.84Z" />
    <path class="cls-35" d="M655,1001.56l-.36,1.65a3,3,0,0,0-.47,1.1A20.08,20.08,0,0,0,655,1001.56Z" />
    <path class="cls-36"
        d="M655.82,996.28c-.12,1-.24,2-.36,2.86a9.17,9.17,0,0,1-.36,1.76C655.34,999.36,655.58,997.93,655.82,996.28Z" />
    <path class="cls-37"
        d="M656.17,990.79a35,35,0,0,1-.35,5.16,9,9,0,0,1-2.74-1.75c-3.32-2.86-5.1-7.59-4-10.55.94-2.53,3.56-3,6.53-1.21v.11A64.7,64.7,0,0,1,656.17,990.79Z" />
    <path class="cls-38"
        d="M662.82,991c0,12.62-3.84,22.07-10.41,28a7.42,7.42,0,0,1-1.92,1.59l-.11.19a31.33,31.33,0,0,1-4.75,2.71A25.92,25.92,0,0,0,650,1020a9.59,9.59,0,0,0,1.41-1.59c5.26-6,8.2-14.78,8.2-25.72a57.47,57.47,0,0,0-.41-7.29c-3.23-29.83-26-63.59-53.29-78.27-10.42-5.61-20.33-7.67-28.62-6.45a18.34,18.34,0,0,0-3.13.65H574a25.81,25.81,0,0,0-4.44,1.59,14.11,14.11,0,0,1,4.14-2.15c1.11-.37,2.33-.84,3.54-1.21,9-2.15,19.92-.56,32,5.89C638.86,921.24,662.82,959.49,662.82,991Z" />
    <path class="cls-39" d="M578.69,904.85c-.48.11-.83.11-1.19.22l.12-.11Z" />
    <path class="cls-40"
        d="M587.72,904.74a35.28,35.28,0,0,0-5.82-.22,6.23,6.23,0,0,1,1.43-.11h.47c.83,0,1.54.11,2.26.11C586.53,904.63,587.13,904.63,587.72,904.74Z" />
    <path class="cls-41"
        d="M584.63,957.71c-3.33-.66-6.89-4.5-8-8.57s.83-6.92,4.16-6.26,6.77,4.39,7.84,8.57S588,958.37,584.63,957.71Z" />
    <path class="cls-42"
        d="M601.62,984.53c-2,1.86-5.94.43-8.79-3.3s-3.44-8.13-1.42-10.11,6.06-.44,8.79,3.3S603.65,982.55,601.62,984.53Z" />
    <path class="cls-43"
        d="M600.2,920c-2.73.66-6.66-2.2-8.79-6.27-1.79-3.51-1.55-7,.59-8.24h.12a28.15,28.15,0,0,1,3.8,1c1,.33,1.9.66,3,1.1a13.09,13.09,0,0,1,2.73,3.74C603.77,915.51,603.05,919.36,600.2,920Z" />
    <path class="cls-44"
        d="M623.73,923.75c-1.19.77-3,.77-4.87-.22a12.93,12.93,0,0,1-6.18-8.68A103.27,103.27,0,0,1,623.73,923.75Z" />
    <path class="cls-45"
        d="M638.71,941.23a10.91,10.91,0,0,1-1.19-1.32,12.08,12.08,0,0,1-1.43-2.31C637,938.81,637.87,940,638.71,941.23Z" />
    <path class="cls-46"
        d="M641.56,945.62c-.95-1.54-1.9-3-2.85-4.39.95,1.32,1.78,2.74,2.73,4.06A.38.38,0,0,1,641.56,945.62Z" />
    <path class="cls-47"
        d="M560.15,961.12c.47,1.54,1.07,3.08,1.66,4.61a52.55,52.55,0,0,1-2.13-5.6A4,4,0,0,1,560.15,961.12Z" />
    <path class="cls-48"
        d="M572.15,906.61a7.27,7.27,0,0,1,1.67-.55,11.34,11.34,0,0,0-2.62,1.21l-.12.11a1.37,1.37,0,0,0-.59.11c.36-.22.71-.33,1.07-.55a.43.43,0,0,0,.24-.11.48.48,0,0,0,.24-.11C572.15,906.72,572.15,906.72,572.15,906.61Z" />
    <path class="cls-49" d="M576.67,905.29a1.77,1.77,0,0,1,.71-.22c-.12.22-.35.33-.47.55Z" />
    <path class="cls-50"
        d="M614.82,1021.23a51.33,51.33,0,0,1-5.83-2.42c1,.44,2,.88,3,1.21S613.87,1020.9,614.82,1021.23Z" />
    <path class="cls-51"
        d="M635.38,969.47c0,7.58-3.81,12.2-9.63,12.75a11.87,11.87,0,0,1-4.75-.33,11.37,11.37,0,0,0,3.92-1c3.33-1.65,5.47-5.39,5.47-10.77,0-10.44-8.08-23.3-17.95-28.57-5.23-2.75-9.86-2.86-13.19-.88a8.08,8.08,0,0,0-2.62,2.52,13,13,0,0,1,1.79-3.84c3.44-4.62,9.86-5.5,17.23-1.54C626.58,943.75,635.38,957.82,635.38,969.47Z" />
    <path class="cls-52"
        d="M648.81,959.36c-.72-1.54-1.43-3.08-2.14-4.73.35.66.59,1.32,1,1.87C648,957.49,648.45,958.37,648.81,959.36Z" />
    <path class="cls-53"
        d="M652.37,968.48a13.14,13.14,0,0,1-3.32-5.6,7.27,7.27,0,0,1-.24-3.52c.59,1.21,1.07,2.42,1.54,3.63a25.48,25.48,0,0,1,1.19,3.18A17.8,17.8,0,0,1,652.37,968.48Z" />
    <path class="cls-54"
        d="M653.68,1005.84a7.75,7.75,0,0,1-.6,1.76c-.23.33-.35.77-.59,1.1A20.92,20.92,0,0,0,653.68,1005.84Z" />
    <path class="cls-55" d="M655,1001.56l-.36,1.65a3,3,0,0,0-.47,1.1A20.08,20.08,0,0,0,655,1001.56Z" />
    <path class="cls-56"
        d="M655.82,996.28c-.12,1-.24,2-.36,2.86a9.17,9.17,0,0,1-.36,1.76C655.34,999.36,655.58,997.93,655.82,996.28Z" />
    <path class="cls-57"
        d="M656.17,990.79a35,35,0,0,1-.35,5.16,9,9,0,0,1-2.74-1.75c-3.32-2.86-5.1-7.59-4-10.55.94-2.53,3.56-3,6.53-1.21v.11A64.7,64.7,0,0,1,656.17,990.79Z" />
    <path class="cls-58"
        d="M662.82,991c0,12.62-3.84,22.07-10.41,28a7.42,7.42,0,0,1-1.92,1.59l-.11.19a31.33,31.33,0,0,1-4.75,2.71A25.92,25.92,0,0,0,650,1020a9.59,9.59,0,0,0,1.41-1.59c5.26-6,8.2-14.78,8.2-25.72a57.47,57.47,0,0,0-.41-7.29c-3.23-29.83-26-63.59-53.29-78.27-10.42-5.61-20.33-7.67-28.62-6.45a18.34,18.34,0,0,0-3.13.65H574a25.81,25.81,0,0,0-4.44,1.59,14.11,14.11,0,0,1,4.14-2.15c1.11-.37,2.33-.84,3.54-1.21,9-2.15,19.92-.56,32,5.89C638.86,921.24,662.82,959.49,662.82,991Z" />
    <path class="cls-59"
        d="M584.63,957.71c-3.33-.66-6.89-4.5-8-8.57s.83-6.92,4.16-6.26,6.77,4.39,7.84,8.57S588,958.37,584.63,957.71Z" />
    <path class="cls-59"
        d="M601.62,984.53c-2,1.86-5.94.43-8.79-3.3s-3.44-8.13-1.42-10.11,6.06-.44,8.79,3.3S603.65,982.55,601.62,984.53Z" />
    <path class="cls-59"
        d="M600.2,920c-2.73.66-6.66-2.2-8.79-6.27-1.79-3.51-1.55-7,.59-8.24h.12a28.15,28.15,0,0,1,3.8,1c1,.33,1.9.66,3,1.1a13.09,13.09,0,0,1,2.73,3.74C603.77,915.51,603.05,919.36,600.2,920Z" />
    <path class="cls-59"
        d="M623.73,923.75c-1.19.77-3,.77-4.87-.22a12.93,12.93,0,0,1-6.18-8.68A103.27,103.27,0,0,1,623.73,923.75Z" />
    <path class="cls-59"
        d="M638.71,941.23a10.91,10.91,0,0,1-1.19-1.32,12.08,12.08,0,0,1-1.43-2.31C637,938.81,637.87,940,638.71,941.23Z" />
    <path class="cls-59"
        d="M560.15,961.12c.47,1.54,1.07,3.08,1.66,4.61a52.55,52.55,0,0,1-2.13-5.6A4,4,0,0,1,560.15,961.12Z" />
    <path class="cls-59" d="M576.67,905.29a1.77,1.77,0,0,1,.71-.22c-.12.22-.35.33-.47.55Z" />
    <path class="cls-59"
        d="M614.82,1021.23a51.33,51.33,0,0,1-5.83-2.42c1,.44,2,.88,3,1.21S613.87,1020.9,614.82,1021.23Z" />
    <path class="cls-59"
        d="M635.38,969.47c0,7.58-3.81,12.2-9.63,12.75a11.87,11.87,0,0,1-4.75-.33,11.37,11.37,0,0,0,3.92-1c3.33-1.65,5.47-5.39,5.47-10.77,0-10.44-8.08-23.3-17.95-28.57-5.23-2.75-9.86-2.86-13.19-.88a8.08,8.08,0,0,0-2.62,2.52,13,13,0,0,1,1.79-3.84c3.44-4.62,9.86-5.5,17.23-1.54C626.58,943.75,635.38,957.82,635.38,969.47Z" />
    <path class="cls-59"
        d="M652.37,968.48a13.14,13.14,0,0,1-3.32-5.6,7.27,7.27,0,0,1-.24-3.52c.59,1.21,1.07,2.42,1.54,3.63a25.48,25.48,0,0,1,1.19,3.18A17.8,17.8,0,0,1,652.37,968.48Z" />
    <path class="cls-59"
        d="M656.17,990.79a35,35,0,0,1-.35,5.16,9,9,0,0,1-2.74-1.75c-3.32-2.86-5.1-7.59-4-10.55.94-2.53,3.56-3,6.53-1.21v.11A64.7,64.7,0,0,1,656.17,990.79Z" />
    <path class="cls-59"
        d="M612,1020c-1-.33-2-.77-3-1.21a51.33,51.33,0,0,0,5.83,2.42C613.87,1020.9,612.92,1020.46,612,1020ZM571.08,907.38l.12-.11.36-.33c-.36.22-.71.33-1.07.55A1.37,1.37,0,0,1,571.08,907.38Zm38.15-1.94c-12-6.45-23-8-32-5.89-1.21.37-2.43.84-3.54,1.21a14.11,14.11,0,0,0-4.14,2.15,25.81,25.81,0,0,1,4.44-1.59h.11a18.34,18.34,0,0,1,3.13-.65c8.29-1.22,18.2.84,28.62,6.45,27.3,14.68,50.06,48.44,53.29,78.27a57.47,57.47,0,0,1,.41,7.29c0,10.94-2.94,19.73-8.2,25.72A9.59,9.59,0,0,1,650,1020a25.92,25.92,0,0,1-4.35,3.55,31.33,31.33,0,0,0,4.75-2.71l.11-.19a7.42,7.42,0,0,0,1.92-1.59c6.57-6,10.41-15.43,10.41-28C662.82,959.49,638.86,921.24,609.23,905.44Z" />
    <path class="cls-60"
        d="M584.63,957.71c-3.33-.66-6.89-4.5-8-8.57s.83-6.92,4.16-6.26,6.77,4.39,7.84,8.57S588,958.37,584.63,957.71Z" />
    <path class="cls-60"
        d="M601.62,984.53c-2,1.86-5.94.43-8.79-3.3s-3.44-8.13-1.42-10.11,6.06-.44,8.79,3.3S603.65,982.55,601.62,984.53Z" />
    <path class="cls-60"
        d="M600.2,920c-2.73.66-6.66-2.2-8.79-6.27-1.79-3.51-1.55-7,.59-8.24h.12a28.15,28.15,0,0,1,3.8,1c1,.33,1.9.66,3,1.1a13.09,13.09,0,0,1,2.73,3.74C603.77,915.51,603.05,919.36,600.2,920Z" />
    <path class="cls-60"
        d="M623.73,923.75c-1.19.77-3,.77-4.87-.22a12.93,12.93,0,0,1-6.18-8.68A103.27,103.27,0,0,1,623.73,923.75Z" />
    <path class="cls-60"
        d="M638.71,941.23a10.91,10.91,0,0,1-1.19-1.32,12.08,12.08,0,0,1-1.43-2.31C637,938.81,637.87,940,638.71,941.23Z" />
    <path class="cls-60"
        d="M635.38,969.47c0,7.58-3.81,12.2-9.63,12.75a11.87,11.87,0,0,1-4.75-.33,11.37,11.37,0,0,0,3.92-1c3.33-1.65,5.47-5.39,5.47-10.77,0-10.44-8.08-23.3-17.95-28.57-5.23-2.75-9.86-2.86-13.19-.88a8.08,8.08,0,0,0-2.62,2.52,13,13,0,0,1,1.79-3.84c3.44-4.62,9.86-5.5,17.23-1.54C626.58,943.75,635.38,957.82,635.38,969.47Z" />
    <path class="cls-60"
        d="M652.37,968.48a13.14,13.14,0,0,1-3.32-5.6,7.27,7.27,0,0,1-.24-3.52c.59,1.21,1.07,2.42,1.54,3.63a25.48,25.48,0,0,1,1.19,3.18A17.8,17.8,0,0,1,652.37,968.48Z" />
    <path class="cls-60"
        d="M656.17,990.79a35,35,0,0,1-.35,5.16,9,9,0,0,1-2.74-1.75c-3.32-2.86-5.1-7.59-4-10.55.94-2.53,3.56-3,6.53-1.21v.11A64.7,64.7,0,0,1,656.17,990.79Z" />
    <path class="cls-61"
        d="M560.15,961.12a4,4,0,0,0-.47-1,52.55,52.55,0,0,0,2.13,5.6C561.22,964.2,560.62,962.66,560.15,961.12ZM612,1020c-1-.33-2-.77-3-1.21a51.33,51.33,0,0,0,5.83,2.42C613.87,1020.9,612.92,1020.46,612,1020Z" />
    <path class="cls-61"
        d="M659.18,985.39c-3.23-29.83-26-63.59-53.29-78.27-10.42-5.61-20.33-7.67-28.62-6.45a18.34,18.34,0,0,0-3.13.65H574a25.81,25.81,0,0,0-4.44,1.59c-10.62,4.68-17.3,16-17.3,32.45,0,31.51,24.07,69.76,53.6,85.66,15.77,8.32,29.93,8.69,39.74,2.52A25.92,25.92,0,0,0,650,1020a9.59,9.59,0,0,0,1.41-1.59c5.26-6,8.2-14.78,8.2-25.72A57.47,57.47,0,0,0,659.18,985.39ZM655.84,996v.37a6.85,6.85,0,0,0-.2,1.4,7.82,7.82,0,0,0-.2,1.41,10.91,10.91,0,0,1-.3,1.77,1.52,1.52,0,0,1-.1.66,9.35,9.35,0,0,0-.41,1.68c-.4.94-.61,1.87-.91,2.62s-.4,1.21-.61,1.78c-.1.09-.3.28-.3.46l-.3.56a13,13,0,0,1-.81,1.69c-.41.65-.71,1.21-1.11,1.87,0,.09-.1.09-.1.18a22,22,0,0,0-1.42,2,20.31,20.31,0,0,0-1.42,1.59s0,.09-.2.09v.09h-.1c-.71.75-1.32,1.22-2,1.87a6,6,0,0,1-1.72,1.31c-.31.1-.41.28-.61.38a.09.09,0,0,0-.1.09h-.2a4.24,4.24,0,0,1-1.22.75c-.2.09-.4.28-.5.28s-.1.09-.31.09a6.18,6.18,0,0,1-1.61.75,10.74,10.74,0,0,1-2.53.84,28.46,28.46,0,0,1-3.34.85,10.07,10.07,0,0,1-1.82.18,25.25,25.25,0,0,1-5.36,0,6.92,6.92,0,0,1-1.31-.09,31.4,31.4,0,0,1-4.15-.66c-1.92-.46-3.84-.93-5.76-1.59-.41-.18-.91-.37-1.42-.56a14.48,14.48,0,0,1-2.83-1.21c-.61-.19-1-.47-1.52-.66a31.14,31.14,0,0,1-3.13-1.49,22,22,0,0,0-2.53-1.41c-.1-.09-.2-.28-.3-.37a44.45,44.45,0,0,1-4.76-3,3.21,3.21,0,0,0-.81-.47,36.94,36.94,0,0,0-3-2.34c-2.22-1.77-4.25-3.55-6.27-5.51-1.11-.94-2.12-1.87-3.24-3-.3-.28-.7-.75-1-1-1.31-1.49-2.62-2.89-3.94-4.39a.94.94,0,0,0-.41-.47c-.09-.09-.09-.09-.09-.19a5,5,0,0,1-.92-1.12,12,12,0,0,1-1-1.21l-1.72-2.34c-1.31-1.78-2.73-3.65-3.94-5.52a30.67,30.67,0,0,1-2.12-3.46,49.15,49.15,0,0,1-2.94-5.05A90.74,90.74,0,0,1,562.3,967c-.2-.47-.4-.94-.5-1.22-.3-.93-.71-1.77-1-2.71a17,17,0,0,1-1.12-2.9,3.71,3.71,0,0,0-.4-1.12c-.2-.94-.51-2-.81-3,0-.1-.1-.28-.1-.38-.61-2.15-.91-4-1.32-6-.3-1.5-.6-3.18-.8-4.77s-.41-3.27-.41-4.86v-.75a14.21,14.21,0,0,1-.1-2.06c0-1,.1-2.24.1-3.27,0-.66.2-1.31.2-2a1.07,1.07,0,0,1,.11-.46,6.19,6.19,0,0,1,.1-1.31v-.1c0-.18.1-.46.1-.65a1.46,1.46,0,0,1,.1-.65,19.53,19.53,0,0,1,.5-2.34c0-.1.1-.28.1-.38v-.18c0-.1.1-.19.1-.28a.88.88,0,0,1,.31-.75,3.67,3.67,0,0,1,.3-1.12v-.1c0-.28,0-.37.1-.47.31-.74.51-1.49.91-2.24a4.12,4.12,0,0,1,.41-1.12.51.51,0,0,1,.3-.47c.2-.56.61-1.12.81-1.68.2-.38.51-.75.71-1.22.2-.28.51-.75.71-1a8.79,8.79,0,0,1,1.51-2.05,10.5,10.5,0,0,1,1.12-1.22c.2-.19.3-.37.6-.65l.71-.66a17.88,17.88,0,0,1,1.42-1.21l.2-.19a1.89,1.89,0,0,1,.5-.28h.1s.11,0,.11-.19a7.72,7.72,0,0,1,.91-.37.84.84,0,0,0,.2-.28,1.82,1.82,0,0,1,.51-.28c.09-.1.2-.28.3-.28a.1.1,0,0,0,.1-.1.09.09,0,0,1,.1-.09c.2,0,.3-.1.4-.1.31-.18.71-.37,1.12-.56a848571889238.87,848571889238.87,0,0,0,.4-.18c.1,0,.1,0,.1-.1a.39.39,0,0,1,.3-.09,9.07,9.07,0,0,1,1.42-.47,1.15,1.15,0,0,1,.61-.28l2.12-.56h.1a2.09,2.09,0,0,1,.71-.19h.1l.1-.09h.51a3.88,3.88,0,0,1,.61-.09,8.73,8.73,0,0,1,1.71-.28,6.86,6.86,0,0,1,1.52-.1,7,7,0,0,1,1.42-.09h.5c.81,0,1.52.09,2.23.09a15,15,0,0,1,1.62.28c.4,0,.6.1,1,.1a8.78,8.78,0,0,1,1.41.18,9.39,9.39,0,0,1,1.52.38c.1,0,.2.09.4.09h.11a27.29,27.29,0,0,1,3.74.94c1.41.46,3,1.12,4.65,1.77a15.54,15.54,0,0,0,1.82.75c1.31.56,2.32,1.12,3.54,1.78s2.22,1.21,3.44,2a20.21,20.21,0,0,1,3.33,2.15,94.56,94.56,0,0,1,11,8.89,81.39,81.39,0,0,1,6.47,6.54c1,1.12,2,2.34,3,3.55s1.82,2.44,2.73,3.56c.2.09.2.09.2.19.92,1.21,1.73,2.43,2.63,3.64.51.66.92,1.4,1.42,2.15a12.5,12.5,0,0,0,1.31,1.87.51.51,0,0,1,.11.38c.91,1.4,1.71,2.9,2.63,4.49a2.69,2.69,0,0,1,.4.74c.71,1.22,1.41,2.53,2,3.74.41.66.61,1.31,1,1.87a9.48,9.48,0,0,0,.51,1.5l.61,1.4c.6,1.22,1.11,2.34,1.61,3.56a32.2,32.2,0,0,1,1.12,3.27c.4.75.6,1.5.91,2.24v.28c.4,1,.7,2.25,1,3.37.1.47.3.84.4,1.31v.37a2.1,2.1,0,0,1,.2.75,2.46,2.46,0,0,1,.21.75v.09c.3,1.22.6,2.44.81,3.65s.4,2.34.5,3.37v.18a56.61,56.61,0,0,1,.61,8.23A40.27,40.27,0,0,1,655.84,996Z" />
    <path class="cls-59"
        d="M647.38,1016.18c-.71.76-1.31,1.2-2,1.86a11.43,11.43,0,0,1-1.78,1.32c-.24.11-.36.22-.6.33a.11.11,0,0,0-.11.11h-.12a8.58,8.58,0,0,1-1.31.77.94.94,0,0,1-.48.22c-.12,0-.12.11-.24.11a7.25,7.25,0,0,1-1.66.77,22.43,22.43,0,0,1-2.49.88,29,29,0,0,1-3.33.77,10,10,0,0,1-1.9.22,21.74,21.74,0,0,1-5.35,0,5.77,5.77,0,0,1-1.31-.11,27.26,27.26,0,0,1-4.16-.66,54.75,54.75,0,0,1-5.7-1.54c-1-.33-1.9-.77-2.85-1.21s-2-.77-3-1.21-2-1-3.09-1.54c-.83-.44-1.66-1-2.49-1.42l-.36-.33c-1.54-.88-3.21-1.87-4.75-3a3.84,3.84,0,0,0-.83-.55c-1-.77-1.9-1.54-3-2.31a73.72,73.72,0,0,1-6.3-5.49c-1.07-1-2.14-1.87-3.21-3-.36-.33-.72-.77-1.07-1.1-1.31-1.43-2.62-2.86-3.92-4.4-.12-.11-.24-.33-.36-.44s-.12-.1-.12-.21a4.36,4.36,0,0,1-.95-1.1,8.36,8.36,0,0,1-1-1.21l-1.78-2.31c-1.31-1.76-2.74-3.63-3.93-5.5a36.63,36.63,0,0,1-2.13-3.51c-1.08-1.65-2-3.3-3-5.06a99.5,99.5,0,0,1-4.51-9.45,7.91,7.91,0,0,1-.48-1.21c-.59-1.53-1.19-3.07-1.66-4.61a4,4,0,0,0-.47-1c-.12-.44-.24-.77-.36-1.1-.24-1-.6-2-.83-3,0-.11-.12-.33-.12-.44a58.39,58.39,0,0,1-1.31-5.93c-.36-1.54-.59-3.19-.83-4.84s-.36-3.18-.36-4.83v-.77a11,11,0,0,1-.12-2c0-1.1.12-2.31.12-3.3,0-.66.12-1.31.12-2a.78.78,0,0,1,.12-.44,4.92,4.92,0,0,1,.12-1.32v-.11c0-.22.12-.44.12-.66a1.29,1.29,0,0,1,.12-.66,15.77,15.77,0,0,1,.47-2.31c0-.11.12-.33.12-.44V926c0-.11.12-.22.12-.33a1.49,1.49,0,0,1,.24-.77,3.9,3.9,0,0,1,.35-1.1v-.11c0-.22,0-.33.12-.44a13.24,13.24,0,0,1,.83-2.19,3.74,3.74,0,0,1,.48-1.21.81.81,0,0,1,.24-.44c.24-.55.59-1.1.83-1.65s.47-.77.71-1.21.48-.77.71-1.1a9.52,9.52,0,0,1,1.55-2,4.84,4.84,0,0,1,1.07-1.21c.24-.21.36-.43.59-.65l.72-.66a13.86,13.86,0,0,1,1.42-1.21l.24-.22a1.65,1.65,0,0,1,.48-.33h.11s.12,0,.12-.11a5.36,5.36,0,0,1,.84-.44l.23-.22c.12-.11.36-.22.48-.33s.24-.22.35-.22a.11.11,0,0,0,.12-.11.11.11,0,0,1,.12-.11c.12,0,.24-.11.36-.11a1.37,1.37,0,0,1,.59-.11l.12-.11a11.34,11.34,0,0,1,2.62-1.21c.23-.11.35-.11.59-.22a15.29,15.29,0,0,1,2.14-.55h.12l.24.33c-5.23,5.61-8.21,14-8.21,24.73,0,29.45,22.47,65.16,50.16,80C629.43,1016,639.3,1017.82,647.38,1016.18Z" />
    <path class="cls-60"
        d="M653.08,994.2c-3.32-2.86-5.1-7.59-4-10.55.94-2.53,3.56-3,6.53-1.21-.12-1.1-.35-2.2-.59-3.41s-.48-2.42-.72-3.63v-.11a2.43,2.43,0,0,0-.23-.76,2.62,2.62,0,0,0-.24-.77v-.33l-.36-1.32c-.36-1.1-.59-2.31-1.07-3.41v-.22a13.14,13.14,0,0,1-3.32-5.6,7.27,7.27,0,0,1-.24-3.52c-.72-1.54-1.43-3.08-2.14-4.73-.6-1.21-1.31-2.52-2-3.73a2.71,2.71,0,0,0-.48-.77c-.83-1.54-1.66-3.08-2.61-4.51s-1.9-3-2.85-4.39a10.91,10.91,0,0,1-1.19-1.32,12.08,12.08,0,0,1-1.43-2.31c0-.11,0-.11-.12-.22-1-1.1-1.78-2.31-2.73-3.52s-2-2.41-3.09-3.51a86.9,86.9,0,0,0-6.42-6.6c-1.19.77-3,.77-4.87-.22a12.93,12.93,0,0,1-6.18-8.68,32.85,32.85,0,0,0-3.33-2.09c-1.19-.76-2.26-1.31-3.45-2a33.68,33.68,0,0,0-3.56-1.76c-1.19-.55-2.38-1-3.45-1.43a13.09,13.09,0,0,1,2.73,3.74c2.15,4.17,1.43,8-1.42,8.68s-6.66-2.2-8.79-6.27c-1.79-3.51-1.55-7,.59-8.24-.12,0-.24-.11-.36-.11l-1.54-.33a6.44,6.44,0,0,0-1.43-.22c-.35,0-.59-.11-.95-.11a35.28,35.28,0,0,0-5.82-.22,6.81,6.81,0,0,0-1.55.11,7.5,7.5,0,0,0-1.66.22c-.48.11-.83.11-1.19.22h-.12c-.12.22-.35.33-.47.55-5.23,5.61-8.21,14-8.21,24.73,0,29.45,22.47,65.16,50.16,80,10.57,5.61,20.44,7.47,28.52,5.83h.12v-.11a.11.11,0,0,0,.12-.11c.47-.55,1-1,1.43-1.54l1.42-2c0-.11.12-.11.12-.22.36-.66.71-1.21,1.07-1.87a10.62,10.62,0,0,0,.83-1.65,20.92,20.92,0,0,0,1.19-2.86,5.72,5.72,0,0,0,.48-1.53,20.08,20.08,0,0,0,.83-2.75,1.4,1.4,0,0,0,.11-.66c.24-1.54.48-3,.72-4.62V996A9,9,0,0,1,653.08,994.2Zm-68.45-36.49c-3.33-.66-6.89-4.5-8-8.57s.83-6.92,4.16-6.26,6.77,4.39,7.84,8.57S588,958.37,584.63,957.71Zm4.16-27c-.95,2.19-3.09,2.74-5.46,1.65a10.68,10.68,0,0,1-2.5-1.65c-3.33-2.86-5.23-7.7-4.16-10.66a3.23,3.23,0,0,1,2.85-2.09c1.54-.22,3.45.55,5.23,2.09C588,923,589.86,927.71,588.79,930.68Zm12.83,53.85c-2,1.86-5.94.43-8.79-3.3s-3.44-8.13-1.42-10.11,6.06-.44,8.79,3.3S603.65,982.55,601.62,984.53Zm17.24,19.67c-3.45-1.87-6.3-6.38-6.3-10.11,0-3.19,2-4.73,4.75-3.85a5.39,5.39,0,0,1,1.55.55,13.36,13.36,0,0,1,5.82,7.14,12.85,12.85,0,0,1,.48,2.86C625.16,1004.53,622.31,1006.06,618.86,1004.2Zm9.5-18c-3.56.55-8-.22-12.71-2.74a42.52,42.52,0,0,1-10.22-7.92c-.12-.11-.24-.22-.24-.33A48.85,48.85,0,0,1,595.09,959c-.12-.11-.12-.11-.12-.22a33.49,33.49,0,0,1-2.5-12.31c0-4.72,1.31-8.46,3.45-11.1,4-4.72,11.41-5.49,19.73-1.1,12.84,6.82,23.17,23.3,23.17,36.93C638.82,979.8,634.66,985.07,628.36,986.17Zm16.53,23a5.56,5.56,0,0,1-1.91,0c-2.37-.55-5.35-3.08-6.89-6.26a8.62,8.62,0,0,1-1-6.16,3.39,3.39,0,0,1,2.38-2.41c2.85-.66,6.77,2.08,8.79,6.15S647.74,1008.48,644.89,1009.14Z" />
    <path class="cls-62"
        d="M615.65,934.3c-8.32-4.39-15.69-3.62-19.73,1.1-2.14,2.64-3.45,6.38-3.45,11.1a33.49,33.49,0,0,0,2.5,12.31c0,.11,0,.11.12.22a48.85,48.85,0,0,0,10.1,16.15c0,.11.12.22.24.33a42.52,42.52,0,0,0,10.22,7.92c4.75,2.52,9.15,3.29,12.71,2.74,6.3-1.1,10.46-6.37,10.46-14.94C638.82,957.6,628.49,941.12,615.65,934.3Zm10.1,47.92a11.87,11.87,0,0,1-4.75-.33,16.82,16.82,0,0,1-8.56-2.31,34.06,34.06,0,0,1-10-8.57c-.12-.22-.36-.33-.36-.55a75.51,75.51,0,0,1-4.51-7.14A29.76,29.76,0,0,1,594.5,951a14.11,14.11,0,0,1,2.13-7.81,13,13,0,0,1,1.79-3.84c3.44-4.62,9.86-5.5,17.23-1.54,10.93,5.93,19.73,20,19.73,31.65C635.38,977.05,631.57,981.67,625.75,982.22Z" />
    <path class="cls-62"
        d="M635.38,969.47c0,7.58-3.81,12.2-9.63,12.75a11.87,11.87,0,0,1-4.75-.33,11.37,11.37,0,0,0,3.92-1c3.33-1.65,5.47-5.39,5.47-10.77,0-10.44-8.08-23.3-17.95-28.57-5.23-2.75-9.86-2.86-13.19-.88a8.08,8.08,0,0,0-2.62,2.52,13,13,0,0,1,1.79-3.84c3.44-4.62,9.86-5.5,17.23-1.54C626.58,943.75,635.38,957.82,635.38,969.47Z" />
    <path class="cls-59"
        d="M635.38,969.47c0,7.58-3.81,12.2-9.63,12.75a11.87,11.87,0,0,1-4.75-.33,11.37,11.37,0,0,0,3.92-1c3.33-1.65,5.47-5.39,5.47-10.77,0-10.44-8.08-23.3-17.95-28.57-5.23-2.75-9.86-2.86-13.19-.88a8.08,8.08,0,0,0-2.62,2.52,13,13,0,0,1,1.79-3.84c3.44-4.62,9.86-5.5,17.23-1.54C626.58,943.75,635.38,957.82,635.38,969.47Z" />
    <path class="cls-61"
        d="M630.39,970.13c0,5.38-2.14,9.12-5.47,10.77a11.37,11.37,0,0,1-3.92,1,16.82,16.82,0,0,1-8.56-2.31,34.06,34.06,0,0,1-10-8.57c-.12-.22-.36-.33-.36-.55a75.51,75.51,0,0,1-4.51-7.14A29.76,29.76,0,0,1,594.5,951a14.11,14.11,0,0,1,2.13-7.81,8.08,8.08,0,0,1,2.62-2.52c3.33-2,8-1.87,13.19.88C622.31,946.83,630.39,959.69,630.39,970.13Z" />
    <path class="cls-62"
        d="M623.73,923.75c-1.19.77-3,.77-4.87-.22a12.93,12.93,0,0,1-6.18-8.68A103.27,103.27,0,0,1,623.73,923.75Z" />
    <path class="cls-62"
        d="M638.71,941.23a10.91,10.91,0,0,1-1.19-1.32,12.08,12.08,0,0,1-1.43-2.31C637,938.81,637.87,940,638.71,941.23Z" />
    <path class="cls-62"
        d="M652.37,968.48a13.14,13.14,0,0,1-3.32-5.6,7.27,7.27,0,0,1-.24-3.52c.59,1.21,1.07,2.42,1.54,3.63a25.48,25.48,0,0,1,1.19,3.18A17.8,17.8,0,0,1,652.37,968.48Z" />
    <path class="cls-62"
        d="M656.17,990.79a35,35,0,0,1-.35,5.16,9,9,0,0,1-2.74-1.75c-3.32-2.86-5.1-7.59-4-10.55.94-2.53,3.56-3,6.53-1.21v.11A64.7,64.7,0,0,1,656.17,990.79Z" />
    <path class="cls-62"
        d="M644.89,1009.14a5.56,5.56,0,0,1-1.91,0c-2.37-.55-5.35-3.08-6.89-6.26a8.62,8.62,0,0,1-1-6.16,3.39,3.39,0,0,1,2.38-2.41c2.85-.66,6.77,2.08,8.79,6.15S647.74,1008.48,644.89,1009.14Z" />
    <path class="cls-62"
        d="M625.16,1000.79c0,3.74-2.85,5.27-6.3,3.41s-6.3-6.38-6.3-10.11c0-3.19,2-4.73,4.75-3.85a5.39,5.39,0,0,1,1.55.55,13.36,13.36,0,0,1,5.82,7.14A12.85,12.85,0,0,1,625.16,1000.79Z" />
    <path class="cls-62"
        d="M601.62,984.53c-2,1.86-5.94.43-8.79-3.3s-3.44-8.13-1.42-10.11,6.06-.44,8.79,3.3S603.65,982.55,601.62,984.53Z" />
    <path class="cls-62"
        d="M584.63,957.71c-3.33-.66-6.89-4.5-8-8.57s.83-6.92,4.16-6.26,6.77,4.39,7.84,8.57S588,958.37,584.63,957.71Z" />
    <path class="cls-62"
        d="M588.79,930.68c-.95,2.19-3.09,2.74-5.46,1.65a10.68,10.68,0,0,1-2.5-1.65c-3.33-2.86-5.23-7.7-4.16-10.66a3.23,3.23,0,0,1,2.85-2.09c1.54-.22,3.45.55,5.23,2.09C588,923,589.86,927.71,588.79,930.68Z" />
    <path class="cls-62"
        d="M600.2,920c-2.73.66-6.66-2.2-8.79-6.27-1.79-3.51-1.55-7,.59-8.24h.12a28.15,28.15,0,0,1,3.8,1c1,.33,1.9.66,3,1.1a13.09,13.09,0,0,1,2.73,3.74C603.77,915.51,603.05,919.36,600.2,920Z" />
    <path class="cls-1"
        d="M289.31,722.86c-.06,21-7.77,35.79-20.2,42.75l-36,20.11c.8-.44,1.52-1,2.28-1.52-12.72,8.56-31.08,8.25-51.54-3.12-38.23-21.25-69.14-72.79-69-115.08.06-21.08,7.82-35.89,20.32-42.81l-.12,0L171,603.13c12.59-7,30-6,49.26,4.64C258.54,629,289.44,680.56,289.31,722.86Zm-60.41,6.51C229,702,209,668.68,184.27,654.94s-44.84-2.69-44.92,24.65S159.26,740.28,184,754,228.82,756.72,228.9,729.37Z" />
    <path class="cls-63"
        d="M152.7,650.43c-.12.22-.36.33-.48.55l-.24-.33A1.81,1.81,0,0,1,152.7,650.43Z" />
    <path class="cls-64" d="M154,650.21c-.47.11-.83.11-1.18.22l.11-.11Z" />
    <path class="cls-65"
        d="M163,650.1a35.36,35.36,0,0,0-5.83-.22,6.27,6.27,0,0,1,1.43-.11h.47c.84,0,1.55.11,2.26.11C161.85,650,162.44,650,163,650.1Z" />
    <path class="cls-66"
        d="M175.52,665.37c-2.74.66-6.66-2.19-8.8-6.26-1.78-3.52-1.54-7,.6-8.24h.11a28.27,28.27,0,0,1,3.81,1c.95.33,1.9.66,3,1.1a13,13,0,0,1,2.73,3.73C179.08,660.87,178.37,664.71,175.52,665.37Z" />
    <path class="cls-67"
        d="M199.05,669.11c-1.19.77-3,.77-4.88-.22a13,13,0,0,1-6.18-8.68A101.18,101.18,0,0,1,199.05,669.11Z" />
    <path class="cls-68"
        d="M210.69,714.83c0,7.58-3.8,12.19-9.62,12.74l-.83-1.31c3.32-1.65,5.46-5.39,5.46-10.77,0-10.44-8.08-23.3-17.94-28.58-5.23-2.74-9.87-2.85-13.2-.88l-.83-1.31c3.45-4.62,9.87-5.5,17.24-1.54C201.9,689.11,210.69,703.18,210.69,714.83Z" />
    <path class="cls-69"
        d="M214,686.58a11.82,11.82,0,0,1-1.19-1.32,11.65,11.65,0,0,1-1.42-2.3C212.35,684.17,213.19,685.37,214,686.58Z" />
    <path class="cls-70"
        d="M216.87,691c-1-1.54-1.9-3-2.85-4.4.95,1.32,1.78,2.75,2.73,4.07A.38.38,0,0,1,216.87,691Z" />
    <path class="cls-71"
        d="M224.12,704.72c-.71-1.54-1.42-3.08-2.14-4.73.36.66.6,1.32,1,1.87C223.29,702.85,223.77,703.73,224.12,704.72Z" />
    <path class="cls-72"
        d="M227.69,713.84a13,13,0,0,1-3.33-5.61,7.35,7.35,0,0,1-.24-3.51c.59,1.21,1.07,2.41,1.55,3.62a27.33,27.33,0,0,1,1.19,3.19A19.42,19.42,0,0,1,227.69,713.84Z" />
    <path class="cls-73"
        d="M229,751.2a7.28,7.28,0,0,1-.59,1.76c-.24.33-.36.77-.59,1.1A20.89,20.89,0,0,0,229,751.2Z" />
    <path class="cls-74"
        d="M230.3,746.92c-.12.55-.23,1.1-.35,1.64a3.14,3.14,0,0,0-.48,1.1A17.5,17.5,0,0,0,230.3,746.92Z" />
    <path class="cls-75"
        d="M231.13,741.64c-.12,1-.23,2-.35,2.86a9.17,9.17,0,0,1-.36,1.76C230.66,744.72,230.9,743.29,231.13,741.64Z" />
    <path class="cls-76"
        d="M231.49,736.15a35.13,35.13,0,0,1-.36,5.16,8.85,8.85,0,0,1-2.73-1.76c-3.33-2.85-5.11-7.58-4-10.55.95-2.52,3.56-3,6.54-1.21v.11A66.88,66.88,0,0,1,231.49,736.15Z" />
    <path class="cls-77"
        d="M238.14,736.36c0,12.62-3.85,22.07-10.42,28A7.46,7.46,0,0,1,225.8,766l-.5-.65a10.53,10.53,0,0,0,1.41-1.59c5.26-6,8.19-14.78,8.19-25.72a59.37,59.37,0,0,0-.4-7.29c-3.24-29.83-26-63.59-53.3-78.27-10.41-5.61-20.32-7.67-28.62-6.45a18.34,18.34,0,0,0-3.13.65h-.1l-.3-.56c1.11-.38,2.32-.84,3.53-1.22,9-2.15,19.93-.56,32,5.89C214.17,666.6,238.14,704.84,238.14,736.36Z" />
    <path class="cls-64" d="M154,650.21c-.47.11-.83.11-1.18.22l.11-.11Z" />
    <path class="cls-65"
        d="M163,650.1a35.36,35.36,0,0,0-5.83-.22,6.27,6.27,0,0,1,1.43-.11h.47c.84,0,1.55.11,2.26.11C161.85,650,162.44,650,163,650.1Z" />
    <path class="cls-66"
        d="M175.52,665.37c-2.74.66-6.66-2.19-8.8-6.26-1.78-3.52-1.54-7,.6-8.24h.11a28.27,28.27,0,0,1,3.81,1c.95.33,1.9.66,3,1.1a13,13,0,0,1,2.73,3.73C179.08,660.87,178.37,664.71,175.52,665.37Z" />
    <path class="cls-67"
        d="M199.05,669.11c-1.19.77-3,.77-4.88-.22a13,13,0,0,1-6.18-8.68A101.18,101.18,0,0,1,199.05,669.11Z" />
    <path class="cls-69"
        d="M214,686.58a11.82,11.82,0,0,1-1.19-1.32,11.65,11.65,0,0,1-1.42-2.3C212.35,684.17,213.19,685.37,214,686.58Z" />
    <path class="cls-70"
        d="M216.87,691c-1-1.54-1.9-3-2.85-4.4.95,1.32,1.78,2.75,2.73,4.07A.38.38,0,0,1,216.87,691Z" />
    <path class="cls-78"
        d="M210.69,714.83c0,7.58-3.8,12.19-9.62,12.74a11.92,11.92,0,0,1-4.76-.33,11.36,11.36,0,0,0,3.93-1c3.32-1.65,5.46-5.39,5.46-10.77,0-10.44-8.08-23.3-17.94-28.58-5.23-2.74-9.87-2.85-13.2-.88a8,8,0,0,0-2.61,2.53,13,13,0,0,1,1.78-3.84c3.45-4.62,9.87-5.5,17.24-1.54C201.9,689.11,210.69,703.18,210.69,714.83Z" />
    <path class="cls-71"
        d="M224.12,704.72c-.71-1.54-1.42-3.08-2.14-4.73.36.66.6,1.32,1,1.87C223.29,702.85,223.77,703.73,224.12,704.72Z" />
    <path class="cls-72"
        d="M227.69,713.84a13,13,0,0,1-3.33-5.61,7.35,7.35,0,0,1-.24-3.51c.59,1.21,1.07,2.41,1.55,3.62a27.33,27.33,0,0,1,1.19,3.19A19.42,19.42,0,0,1,227.69,713.84Z" />
    <path class="cls-73"
        d="M229,751.2a7.28,7.28,0,0,1-.59,1.76c-.24.33-.36.77-.59,1.1A20.89,20.89,0,0,0,229,751.2Z" />
    <path class="cls-74"
        d="M230.3,746.92c-.12.55-.23,1.1-.35,1.64a3.14,3.14,0,0,0-.48,1.1A17.5,17.5,0,0,0,230.3,746.92Z" />
    <path class="cls-75"
        d="M231.13,741.64c-.12,1-.23,2-.35,2.86a9.17,9.17,0,0,1-.36,1.76C230.66,744.72,230.9,743.29,231.13,741.64Z" />
    <path class="cls-76"
        d="M231.49,736.15a35.13,35.13,0,0,1-.36,5.16,8.85,8.85,0,0,1-2.73-1.76c-3.33-2.85-5.11-7.58-4-10.55.95-2.52,3.56-3,6.54-1.21v.11A66.88,66.88,0,0,1,231.49,736.15Z" />
    <path class="cls-79"
        d="M238.14,736.36c0,12.62-3.85,22.07-10.42,28-.4-.28-.61-.37-1-.65,5.26-6,8.19-14.78,8.19-25.72a59.37,59.37,0,0,0-.4-7.29c-3.24-29.83-26-63.59-53.3-78.27-10.41-5.61-20.32-7.67-28.62-6.45a4.73,4.73,0,0,1,0-1.13c9-2.15,19.93-.56,32,5.89C214.17,666.6,238.14,704.84,238.14,736.36Z" />
    <path class="cls-80" d="M154,650.21c-.47.11-.83.11-1.18.22l.11-.11Z" />
    <path class="cls-81"
        d="M163,650.1a35.36,35.36,0,0,0-5.83-.22,6.27,6.27,0,0,1,1.43-.11h.47c.84,0,1.55.11,2.26.11C161.85,650,162.44,650,163,650.1Z" />
    <path class="cls-82"
        d="M160,703.07c-3.33-.66-6.9-4.51-8-8.57s.84-6.93,4.16-6.27,6.78,4.4,7.85,8.57S163.27,703.73,160,703.07Z" />
    <path class="cls-83"
        d="M176.94,729.88c-2,1.87-5.94.44-8.79-3.29s-3.45-8.14-1.43-10.11,6.06-.44,8.8,3.29S179,727.9,176.94,729.88Z" />
    <path class="cls-84"
        d="M175.52,665.37c-2.74.66-6.66-2.19-8.8-6.26-1.78-3.52-1.54-7,.6-8.24h.11a28.27,28.27,0,0,1,3.81,1c.95.33,1.9.66,3,1.1a13,13,0,0,1,2.73,3.73C179.08,660.87,178.37,664.71,175.52,665.37Z" />
    <path class="cls-85"
        d="M199.05,669.11c-1.19.77-3,.77-4.88-.22a13,13,0,0,1-6.18-8.68A101.18,101.18,0,0,1,199.05,669.11Z" />
    <path class="cls-86"
        d="M214,686.58a11.82,11.82,0,0,1-1.19-1.32,11.65,11.65,0,0,1-1.42-2.3C212.35,684.17,213.19,685.37,214,686.58Z" />
    <path class="cls-87"
        d="M216.87,691c-1-1.54-1.9-3-2.85-4.4.95,1.32,1.78,2.75,2.73,4.07A.38.38,0,0,1,216.87,691Z" />
    <path class="cls-88"
        d="M135.47,706.47c.47,1.54,1.06,3.08,1.66,4.62a54.33,54.33,0,0,1-2.14-5.6A4.22,4.22,0,0,1,135.47,706.47Z" />
    <path class="cls-89"
        d="M147.47,652a7.19,7.19,0,0,1,1.66-.55,11.08,11.08,0,0,0-2.61,1.21l-.12.11a1.41,1.41,0,0,0-.6.11c.36-.22.72-.33,1.07-.55a608038290832.87,608038290832.87,0,0,0,.48-.22C147.47,652.08,147.47,652.08,147.47,652Z" />
    <path class="cls-90" d="M152,650.65a1.81,1.81,0,0,1,.72-.22c-.12.22-.36.33-.48.55Z" />
    <path class="cls-91"
        d="M190.13,766.59a51.21,51.21,0,0,1-5.82-2.42c.95.44,2,.88,3,1.21S189.18,766.26,190.13,766.59Z" />
    <path class="cls-92"
        d="M210.69,714.83c0,7.58-3.8,12.19-9.62,12.74a11.92,11.92,0,0,1-4.76-.33,11.36,11.36,0,0,0,3.93-1c3.32-1.65,5.46-5.39,5.46-10.77,0-10.44-8.08-23.3-17.94-28.58-5.23-2.74-9.87-2.85-13.2-.88a8,8,0,0,0-2.61,2.53,13,13,0,0,1,1.78-3.84c3.45-4.62,9.87-5.5,17.24-1.54C201.9,689.11,210.69,703.18,210.69,714.83Z" />
    <path class="cls-93"
        d="M224.12,704.72c-.71-1.54-1.42-3.08-2.14-4.73.36.66.6,1.32,1,1.87C223.29,702.85,223.77,703.73,224.12,704.72Z" />
    <path class="cls-94"
        d="M227.69,713.84a13,13,0,0,1-3.33-5.61,7.35,7.35,0,0,1-.24-3.51c.59,1.21,1.07,2.41,1.55,3.62a27.33,27.33,0,0,1,1.19,3.19A19.42,19.42,0,0,1,227.69,713.84Z" />
    <path class="cls-95"
        d="M229,751.2a7.28,7.28,0,0,1-.59,1.76c-.24.33-.36.77-.59,1.1A20.89,20.89,0,0,0,229,751.2Z" />
    <path class="cls-96"
        d="M230.3,746.92c-.12.55-.23,1.1-.35,1.64a3.14,3.14,0,0,0-.48,1.1A17.5,17.5,0,0,0,230.3,746.92Z" />
    <path class="cls-97"
        d="M231.13,741.64c-.12,1-.23,2-.35,2.86a9.17,9.17,0,0,1-.36,1.76C230.66,744.72,230.9,743.29,231.13,741.64Z" />
    <path class="cls-98"
        d="M231.49,736.15a35.13,35.13,0,0,1-.36,5.16,8.85,8.85,0,0,1-2.73-1.76c-3.33-2.85-5.11-7.58-4-10.55.95-2.52,3.56-3,6.54-1.21v.11A66.88,66.88,0,0,1,231.49,736.15Z" />
    <path class="cls-99"
        d="M238.14,736.36c0,12.62-3.85,22.07-10.42,28A7.46,7.46,0,0,1,225.8,766l-.1.19A32.72,32.72,0,0,1,221,768.9a26.84,26.84,0,0,0,4.35-3.55,10.53,10.53,0,0,0,1.41-1.59c5.26-6,8.19-14.78,8.19-25.72a59.37,59.37,0,0,0-.4-7.29c-3.24-29.83-26-63.59-53.3-78.27-10.41-5.61-20.32-7.67-28.62-6.45a18.34,18.34,0,0,0-3.13.65h-.1a24.32,24.32,0,0,0-4.45,1.59,13.93,13.93,0,0,1,4.15-2.15c1.11-.38,2.32-.84,3.53-1.22,9-2.15,19.93-.56,32,5.89C214.17,666.6,238.14,704.84,238.14,736.36Z" />
    <path class="cls-100" d="M154,650.21c-.47.11-.83.11-1.18.22l.11-.11Z" />
    <path class="cls-101"
        d="M163,650.1a35.36,35.36,0,0,0-5.83-.22,6.27,6.27,0,0,1,1.43-.11h.47c.84,0,1.55.11,2.26.11C161.85,650,162.44,650,163,650.1Z" />
    <path class="cls-102"
        d="M160,703.07c-3.33-.66-6.9-4.51-8-8.57s.84-6.93,4.16-6.27,6.78,4.4,7.85,8.57S163.27,703.73,160,703.07Z" />
    <path class="cls-103"
        d="M176.94,729.88c-2,1.87-5.94.44-8.79-3.29s-3.45-8.14-1.43-10.11,6.06-.44,8.8,3.29S179,727.9,176.94,729.88Z" />
    <path class="cls-104"
        d="M175.52,665.37c-2.74.66-6.66-2.19-8.8-6.26-1.78-3.52-1.54-7,.6-8.24h.11a28.27,28.27,0,0,1,3.81,1c.95.33,1.9.66,3,1.1a13,13,0,0,1,2.73,3.73C179.08,660.87,178.37,664.71,175.52,665.37Z" />
    <path class="cls-105"
        d="M199.05,669.11c-1.19.77-3,.77-4.88-.22a13,13,0,0,1-6.18-8.68A101.18,101.18,0,0,1,199.05,669.11Z" />
    <path class="cls-106"
        d="M214,686.58a11.82,11.82,0,0,1-1.19-1.32,11.65,11.65,0,0,1-1.42-2.3C212.35,684.17,213.19,685.37,214,686.58Z" />
    <path class="cls-107"
        d="M216.87,691c-1-1.54-1.9-3-2.85-4.4.95,1.32,1.78,2.75,2.73,4.07A.38.38,0,0,1,216.87,691Z" />
    <path class="cls-108"
        d="M135.47,706.47c.47,1.54,1.06,3.08,1.66,4.62a54.33,54.33,0,0,1-2.14-5.6A4.22,4.22,0,0,1,135.47,706.47Z" />
    <path class="cls-109"
        d="M147.47,652a7.19,7.19,0,0,1,1.66-.55,11.08,11.08,0,0,0-2.61,1.21l-.12.11a1.41,1.41,0,0,0-.6.11c.36-.22.72-.33,1.07-.55a608038290832.87,608038290832.87,0,0,0,.48-.22C147.47,652.08,147.47,652.08,147.47,652Z" />
    <path class="cls-110" d="M152,650.65a1.81,1.81,0,0,1,.72-.22c-.12.22-.36.33-.48.55Z" />
    <path class="cls-111"
        d="M190.13,766.59a51.21,51.21,0,0,1-5.82-2.42c.95.44,2,.88,3,1.21S189.18,766.26,190.13,766.59Z" />
    <path class="cls-112"
        d="M210.69,714.83c0,7.58-3.8,12.19-9.62,12.74a11.92,11.92,0,0,1-4.76-.33,11.36,11.36,0,0,0,3.93-1c3.32-1.65,5.46-5.39,5.46-10.77,0-10.44-8.08-23.3-17.94-28.58-5.23-2.74-9.87-2.85-13.2-.88a8,8,0,0,0-2.61,2.53,13,13,0,0,1,1.78-3.84c3.45-4.62,9.87-5.5,17.24-1.54C201.9,689.11,210.69,703.18,210.69,714.83Z" />
    <path class="cls-113"
        d="M224.12,704.72c-.71-1.54-1.42-3.08-2.14-4.73.36.66.6,1.32,1,1.87C223.29,702.85,223.77,703.73,224.12,704.72Z" />
    <path class="cls-114"
        d="M227.69,713.84a13,13,0,0,1-3.33-5.61,7.35,7.35,0,0,1-.24-3.51c.59,1.21,1.07,2.41,1.55,3.62a27.33,27.33,0,0,1,1.19,3.19A19.42,19.42,0,0,1,227.69,713.84Z" />
    <path class="cls-115"
        d="M229,751.2a7.28,7.28,0,0,1-.59,1.76c-.24.33-.36.77-.59,1.1A20.89,20.89,0,0,0,229,751.2Z" />
    <path class="cls-116"
        d="M230.3,746.92c-.12.55-.23,1.1-.35,1.64a3.14,3.14,0,0,0-.48,1.1A17.5,17.5,0,0,0,230.3,746.92Z" />
    <path class="cls-117"
        d="M231.13,741.64c-.12,1-.23,2-.35,2.86a9.17,9.17,0,0,1-.36,1.76C230.66,744.72,230.9,743.29,231.13,741.64Z" />
    <path class="cls-118"
        d="M231.49,736.15a35.13,35.13,0,0,1-.36,5.16,8.85,8.85,0,0,1-2.73-1.76c-3.33-2.85-5.11-7.58-4-10.55.95-2.52,3.56-3,6.54-1.21v.11A66.88,66.88,0,0,1,231.49,736.15Z" />
    <path class="cls-119"
        d="M238.14,736.36c0,12.62-3.85,22.07-10.42,28A7.46,7.46,0,0,1,225.8,766l-.1.19A32.72,32.72,0,0,1,221,768.9a26.84,26.84,0,0,0,4.35-3.55,10.53,10.53,0,0,0,1.41-1.59c5.26-6,8.19-14.78,8.19-25.72a59.37,59.37,0,0,0-.4-7.29c-3.24-29.83-26-63.59-53.3-78.27-10.41-5.61-20.32-7.67-28.62-6.45a18.34,18.34,0,0,0-3.13.65h-.1a24.32,24.32,0,0,0-4.45,1.59,13.93,13.93,0,0,1,4.15-2.15c1.11-.38,2.32-.84,3.53-1.22,9-2.15,19.93-.56,32,5.89C214.17,666.6,238.14,704.84,238.14,736.36Z" />
    <path class="cls-59"
        d="M160,703.07c-3.33-.66-6.9-4.51-8-8.57s.84-6.93,4.16-6.27,6.78,4.4,7.85,8.57S163.27,703.73,160,703.07Z" />
    <path class="cls-59"
        d="M176.94,729.88c-2,1.87-5.94.44-8.79-3.29s-3.45-8.14-1.43-10.11,6.06-.44,8.8,3.29S179,727.9,176.94,729.88Z" />
    <path class="cls-59"
        d="M175.52,665.37c-2.74.66-6.66-2.19-8.8-6.26-1.78-3.52-1.54-7,.6-8.24h.11a28.27,28.27,0,0,1,3.81,1c.95.33,1.9.66,3,1.1a13,13,0,0,1,2.73,3.73C179.08,660.87,178.37,664.71,175.52,665.37Z" />
    <path class="cls-59"
        d="M199.05,669.11c-1.19.77-3,.77-4.88-.22a13,13,0,0,1-6.18-8.68A101.18,101.18,0,0,1,199.05,669.11Z" />
    <path class="cls-59"
        d="M214,686.58a11.82,11.82,0,0,1-1.19-1.32,11.65,11.65,0,0,1-1.42-2.3C212.35,684.17,213.19,685.37,214,686.58Z" />
    <path class="cls-59"
        d="M135.47,706.47c.47,1.54,1.06,3.08,1.66,4.62a54.33,54.33,0,0,1-2.14-5.6A4.22,4.22,0,0,1,135.47,706.47Z" />
    <path class="cls-59" d="M152,650.65a1.81,1.81,0,0,1,.72-.22c-.12.22-.36.33-.48.55Z" />
    <path class="cls-59"
        d="M190.13,766.59a51.21,51.21,0,0,1-5.82-2.42c.95.44,2,.88,3,1.21S189.18,766.26,190.13,766.59Z" />
    <path class="cls-59"
        d="M210.69,714.83c0,7.58-3.8,12.19-9.62,12.74a11.92,11.92,0,0,1-4.76-.33,11.36,11.36,0,0,0,3.93-1c3.32-1.65,5.46-5.39,5.46-10.77,0-10.44-8.08-23.3-17.94-28.58-5.23-2.74-9.87-2.85-13.2-.88a8,8,0,0,0-2.61,2.53,13,13,0,0,1,1.78-3.84c3.45-4.62,9.87-5.5,17.24-1.54C201.9,689.11,210.69,703.18,210.69,714.83Z" />
    <path class="cls-59"
        d="M227.69,713.84a13,13,0,0,1-3.33-5.61,7.35,7.35,0,0,1-.24-3.51c.59,1.21,1.07,2.41,1.55,3.62a27.33,27.33,0,0,1,1.19,3.19A19.42,19.42,0,0,1,227.69,713.84Z" />
    <path class="cls-59"
        d="M231.49,736.15a35.13,35.13,0,0,1-.36,5.16,8.85,8.85,0,0,1-2.73-1.76c-3.33-2.85-5.11-7.58-4-10.55.95-2.52,3.56-3,6.54-1.21v.11A66.88,66.88,0,0,1,231.49,736.15Z" />
    <path class="cls-59"
        d="M187.28,765.38c-.95-.33-2-.77-3-1.21a51.21,51.21,0,0,0,5.82,2.42C189.18,766.26,188.23,765.82,187.28,765.38ZM146.4,652.74l.12-.11.35-.33c-.35.22-.71.33-1.07.55A1.41,1.41,0,0,1,146.4,652.74Zm38.14-2c-12-6.45-22.95-8-32-5.89-1.21.38-2.42.84-3.53,1.22a13.93,13.93,0,0,0-4.15,2.15,24.32,24.32,0,0,1,4.45-1.59h.1a18.34,18.34,0,0,1,3.13-.65c8.3-1.22,18.21.84,28.62,6.45,27.31,14.68,50.06,48.44,53.3,78.27a59.37,59.37,0,0,1,.4,7.29c0,10.94-2.93,19.73-8.19,25.72a10.53,10.53,0,0,1-1.41,1.59A26.84,26.84,0,0,1,221,768.9a32.72,32.72,0,0,0,4.75-2.71l.1-.19a7.46,7.46,0,0,0,1.92-1.59c6.57-6,10.42-15.43,10.42-28C238.14,704.84,214.17,666.6,184.54,650.79Z" />
    <path class="cls-60"
        d="M160,703.07c-3.33-.66-6.9-4.51-8-8.57s.84-6.93,4.16-6.27,6.78,4.4,7.85,8.57S163.27,703.73,160,703.07Z" />
    <path class="cls-60"
        d="M176.94,729.88c-2,1.87-5.94.44-8.79-3.29s-3.45-8.14-1.43-10.11,6.06-.44,8.8,3.29S179,727.9,176.94,729.88Z" />
    <path class="cls-60"
        d="M175.52,665.37c-2.74.66-6.66-2.19-8.8-6.26-1.78-3.52-1.54-7,.6-8.24h.11a28.27,28.27,0,0,1,3.81,1c.95.33,1.9.66,3,1.1a13,13,0,0,1,2.73,3.73C179.08,660.87,178.37,664.71,175.52,665.37Z" />
    <path class="cls-60"
        d="M199.05,669.11c-1.19.77-3,.77-4.88-.22a13,13,0,0,1-6.18-8.68A101.18,101.18,0,0,1,199.05,669.11Z" />
    <path class="cls-60"
        d="M214,686.58a11.82,11.82,0,0,1-1.19-1.32,11.65,11.65,0,0,1-1.42-2.3C212.35,684.17,213.19,685.37,214,686.58Z" />
    <path class="cls-60"
        d="M210.69,714.83c0,7.58-3.8,12.19-9.62,12.74a11.92,11.92,0,0,1-4.76-.33,11.36,11.36,0,0,0,3.93-1c3.32-1.65,5.46-5.39,5.46-10.77,0-10.44-8.08-23.3-17.94-28.58-5.23-2.74-9.87-2.85-13.2-.88a8,8,0,0,0-2.61,2.53,13,13,0,0,1,1.78-3.84c3.45-4.62,9.87-5.5,17.24-1.54C201.9,689.11,210.69,703.18,210.69,714.83Z" />
    <path class="cls-60"
        d="M227.69,713.84a13,13,0,0,1-3.33-5.61,7.35,7.35,0,0,1-.24-3.51c.59,1.21,1.07,2.41,1.55,3.62a27.33,27.33,0,0,1,1.19,3.19A19.42,19.42,0,0,1,227.69,713.84Z" />
    <path class="cls-60"
        d="M231.49,736.15a35.13,35.13,0,0,1-.36,5.16,8.85,8.85,0,0,1-2.73-1.76c-3.33-2.85-5.11-7.58-4-10.55.95-2.52,3.56-3,6.54-1.21v.11A66.88,66.88,0,0,1,231.49,736.15Z" />
    <path class="cls-61"
        d="M135.47,706.47a4.22,4.22,0,0,0-.48-1,54.33,54.33,0,0,0,2.14,5.6C136.53,709.55,135.94,708,135.47,706.47Zm51.81,58.91c-.95-.33-2-.77-3-1.21a51.21,51.21,0,0,0,5.82,2.42C189.18,766.26,188.23,765.82,187.28,765.38Z" />
    <path class="cls-61"
        d="M234.5,730.75c-3.24-29.83-26-63.59-53.3-78.27-10.41-5.61-20.32-7.67-28.62-6.45a18.34,18.34,0,0,0-3.13.65h-.1a24.32,24.32,0,0,0-4.45,1.59c-10.62,4.67-17.29,16-17.29,32.45,0,31.51,24.07,69.76,53.59,85.65,15.78,8.33,29.94,8.7,39.75,2.53a26.84,26.84,0,0,0,4.35-3.55,10.53,10.53,0,0,0,1.41-1.59c5.26-6,8.19-14.78,8.19-25.72A59.37,59.37,0,0,0,234.5,730.75Zm-3.34,10.56v.38a6.66,6.66,0,0,0-.2,1.4,7.93,7.93,0,0,0-.21,1.4,9.2,9.2,0,0,1-.3,1.78,1.46,1.46,0,0,1-.1.65,10.35,10.35,0,0,0-.4,1.69c-.41.93-.61,1.87-.91,2.62s-.41,1.21-.61,1.77c-.1.1-.3.28-.3.47l-.31.56a11.72,11.72,0,0,1-.81,1.68c-.4.66-.7,1.22-1.11,1.87,0,.1-.1.1-.1.19-.5.66-1,1.31-1.42,2s-1,1-1.41,1.59c0,0,0,.1-.2.1v.09h-.1c-.71.75-1.32,1.22-2,1.87a5.85,5.85,0,0,1-1.72,1.31c-.3.09-.4.28-.6.37a.1.1,0,0,0-.1.1H218a4.43,4.43,0,0,1-1.21.75c-.2.09-.4.28-.51.28s-.1.09-.3.09a6.26,6.26,0,0,1-1.62.75,11.56,11.56,0,0,1-2.53.84,28.85,28.85,0,0,1-3.33.84,9.25,9.25,0,0,1-1.82.19,25.25,25.25,0,0,1-5.36,0,7,7,0,0,1-1.32-.09,33,33,0,0,1-4.14-.66c-1.92-.47-3.85-.93-5.77-1.59-.4-.19-.91-.37-1.41-.56a14.28,14.28,0,0,1-2.84-1.22c-.6-.18-1-.46-1.51-.65a32.52,32.52,0,0,1-3.14-1.5,23.4,23.4,0,0,0-2.52-1.4c-.11-.09-.21-.28-.31-.37a42.94,42.94,0,0,1-4.75-3,3.71,3.71,0,0,0-.81-.46,36.94,36.94,0,0,0-3-2.34,82.72,82.72,0,0,1-6.27-5.52c-1.11-.93-2.13-1.87-3.24-3-.3-.28-.71-.75-1-1-1.32-1.5-2.63-2.9-3.95-4.39a.93.93,0,0,0-.4-.47c-.1-.1-.1-.1-.1-.19a5,5,0,0,1-.91-1.12,9.87,9.87,0,0,1-1-1.22l-1.72-2.33c-1.32-1.78-2.73-3.65-3.94-5.52a32.33,32.33,0,0,1-2.13-3.46,51,51,0,0,1-2.93-5.05,89.85,89.85,0,0,1-4.55-9.45c-.2-.46-.41-.93-.51-1.21-.3-.94-.7-1.78-1-2.71a17.57,17.57,0,0,1-1.11-2.9,3.71,3.71,0,0,0-.4-1.12c-.21-.94-.51-2-.81-3,0-.09-.11-.28-.11-.37-.6-2.15-.91-4-1.31-6-.3-1.5-.61-3.18-.81-4.77s-.4-3.28-.4-4.87v-.74a14.28,14.28,0,0,1-.1-2.06c0-1,.1-2.25.1-3.27,0-.66.2-1.31.2-2a1.2,1.2,0,0,1,.1-.47,6.24,6.24,0,0,1,.1-1.31v-.09c0-.19.1-.47.1-.65a1.52,1.52,0,0,1,.1-.66,21.76,21.76,0,0,1,.51-2.34c0-.09.1-.28.1-.37v-.19c0-.09.1-.18.1-.28a.9.9,0,0,1,.3-.75,3.76,3.76,0,0,1,.31-1.12V669c0-.28,0-.38.1-.47a19.14,19.14,0,0,1,.91-2.24,3.87,3.87,0,0,1,.4-1.13.51.51,0,0,1,.31-.46c.2-.56.6-1.12.81-1.69a13,13,0,0,0,.7-1.21c.21-.28.51-.75.71-1a8.88,8.88,0,0,1,1.52-2.06,10.31,10.31,0,0,1,1.11-1.21c.2-.19.3-.38.61-.66l.71-.65a17.71,17.71,0,0,1,1.41-1.22l.2-.18a2.3,2.3,0,0,1,.51-.29h.1s.1,0,.1-.18a8.38,8.38,0,0,1,.91-.38.67.67,0,0,0,.2-.28,3.23,3.23,0,0,1,.51-.28c.1-.09.2-.28.3-.28a.09.09,0,0,0,.1-.09.1.1,0,0,1,.1-.1c.21,0,.31-.09.41-.09a11.41,11.41,0,0,1,1.11-.56.36.36,0,0,0,.2-.09.35.35,0,0,0,.21-.1c.1,0,.1,0,.1-.09a.39.39,0,0,1,.3-.09,7.87,7.87,0,0,1,1.42-.47,1.12,1.12,0,0,1,.6-.28l2.13-.56h.1a1.88,1.88,0,0,1,.71-.19h.1l.1-.09h.5a3.72,3.72,0,0,1,.61-.1,9.66,9.66,0,0,1,1.72-.28,7.5,7.5,0,0,1,1.52-.09,6.92,6.92,0,0,1,1.41-.09h.51c.81,0,1.51.09,2.22.09a10.82,10.82,0,0,1,1.62.28c.41,0,.61.09,1,.09a9,9,0,0,1,1.42.19,9.6,9.6,0,0,1,1.52.37c.1,0,.2.1.4.1h.1a26.88,26.88,0,0,1,3.74.93c1.42.47,3,1.12,4.65,1.78a16.28,16.28,0,0,0,1.82.75c1.32.56,2.33,1.12,3.54,1.77s2.23,1.22,3.44,2a19.67,19.67,0,0,1,3.34,2.15,96.27,96.27,0,0,1,11,8.88,79.86,79.86,0,0,1,6.47,6.55c1,1.12,2,2.34,3,3.55s1.82,2.43,2.73,3.56c.2.09.2.09.2.18.91,1.22,1.72,2.43,2.63,3.65.51.65.91,1.4,1.42,2.15a12.29,12.29,0,0,0,1.31,1.87.52.52,0,0,1,.1.37c.91,1.41,1.72,2.9,2.63,4.49a3.09,3.09,0,0,1,.41.75c.7,1.22,1.41,2.53,2,3.74.4.66.6,1.31,1,1.87a8.8,8.8,0,0,0,.5,1.5l.61,1.4c.61,1.22,1.11,2.34,1.62,3.55a31.54,31.54,0,0,1,1.11,3.28,18.46,18.46,0,0,1,.91,2.24v.28a31.46,31.46,0,0,1,1,3.37c.1.47.31.84.41,1.31v.37a2.1,2.1,0,0,1,.2.75,2.72,2.72,0,0,1,.2.75v.09c.31,1.22.61,2.43.81,3.65s.4,2.34.51,3.36v.19a57.91,57.91,0,0,1,.6,8.23A41.94,41.94,0,0,1,231.16,741.31Z" />
    <path class="cls-59"
        d="M222.7,761.53c-.72.77-1.31,1.21-2,1.87a11.55,11.55,0,0,1-1.79,1.32c-.23.11-.36.22-.59.33a.11.11,0,0,0-.12.11h-.12a7.72,7.72,0,0,1-1.31.77.92.92,0,0,1-.47.22c-.12,0-.12.11-.24.11a7.66,7.66,0,0,1-1.66.77,23.33,23.33,0,0,1-2.5.88,29,29,0,0,1-3.33.77,10.82,10.82,0,0,1-1.9.21,21.74,21.74,0,0,1-5.35,0,5.69,5.69,0,0,1-1.3-.11,25.87,25.87,0,0,1-4.16-.65,54.92,54.92,0,0,1-5.71-1.54c-.95-.33-1.9-.77-2.85-1.21s-2-.77-3-1.21-2-1-3.09-1.54c-.83-.44-1.66-1-2.5-1.43l-.35-.33c-1.55-.88-3.21-1.87-4.76-3a3.41,3.41,0,0,0-.83-.55c-.95-.77-1.9-1.54-3-2.31a72.11,72.11,0,0,1-6.3-5.5c-1.07-1-2.14-1.86-3.21-3-.35-.33-.71-.77-1.07-1.1-1.3-1.43-2.61-2.86-3.92-4.4-.12-.11-.24-.33-.35-.44s-.12-.11-.12-.22a4.4,4.4,0,0,1-1-1.1,9.12,9.12,0,0,1-.95-1.21l-1.78-2.3c-1.3-1.76-2.73-3.63-3.92-5.5-.83-1.21-1.54-2.42-2.14-3.51-1.07-1.65-2-3.3-3-5.06a100.77,100.77,0,0,1-4.52-9.45,8.91,8.91,0,0,1-.47-1.21c-.6-1.54-1.19-3.08-1.66-4.62a4.22,4.22,0,0,0-.48-1c-.12-.44-.24-.77-.36-1.1-.23-1-.59-2-.83-3,0-.11-.12-.33-.12-.44-.59-2.09-1-4-1.31-5.93-.35-1.54-.59-3.19-.83-4.84s-.35-3.19-.35-4.84v-.76a11,11,0,0,1-.12-2c0-1.1.12-2.31.12-3.3,0-.66.12-1.32.12-2a.83.83,0,0,1,.11-.44,4.92,4.92,0,0,1,.12-1.32v-.11c0-.22.12-.44.12-.66a1.27,1.27,0,0,1,.12-.65,15.81,15.81,0,0,1,.48-2.31c0-.11.11-.33.11-.44v-.11c0-.11.13-.22.13-.33a1.49,1.49,0,0,1,.23-.77,3.93,3.93,0,0,1,.36-1.1V669c0-.22,0-.33.12-.44a11.51,11.51,0,0,1,.83-2.2,4,4,0,0,1,.47-1.21.81.81,0,0,1,.24-.44c.24-.54.59-1.09.83-1.64s.48-.77.72-1.21.47-.77.71-1.1a9.48,9.48,0,0,1,1.54-2,5.05,5.05,0,0,1,1.07-1.21c.24-.22.36-.44.6-.66l.71-.66a13.93,13.93,0,0,1,1.43-1.21l.24-.22a1.46,1.46,0,0,1,.47-.33h.12s.12,0,.12-.11a5.25,5.25,0,0,1,.83-.43l.24-.22c.12-.11.35-.22.47-.33s.24-.22.36-.22a.11.11,0,0,0,.12-.11.11.11,0,0,1,.12-.11c.12,0,.24-.11.35-.11a1.41,1.41,0,0,1,.6-.11l.12-.11a11.08,11.08,0,0,1,2.61-1.21c.24-.11.36-.11.6-.22a15,15,0,0,1,2.14-.55H152l.24.33c-5.23,5.6-8.2,13.95-8.2,24.72,0,29.46,22.46,65.17,50.15,80C204.75,761.31,214.62,763.18,222.7,761.53Z" />
    <path class="cls-60"
        d="M228.4,739.55c-3.33-2.85-5.11-7.58-4-10.55.95-2.52,3.56-3,6.54-1.21-.12-1.09-.36-2.19-.6-3.4s-.47-2.42-.71-3.63v-.11a7783578585406,7783578585406,0,0,1-.48-1.54v-.33c-.12-.44-.23-.88-.35-1.32-.36-1.09-.6-2.3-1.07-3.4v-.22a13,13,0,0,1-3.33-5.61,7.35,7.35,0,0,1-.24-3.51c-.71-1.54-1.42-3.08-2.14-4.73-.59-1.21-1.3-2.53-2-3.74a2.86,2.86,0,0,0-.47-.76c-.83-1.54-1.67-3.08-2.62-4.51s-1.9-3-2.85-4.4a11.82,11.82,0,0,1-1.19-1.32,11.65,11.65,0,0,1-1.42-2.3c0-.11,0-.11-.12-.22-.95-1.1-1.78-2.31-2.74-3.52s-2-2.42-3.09-3.52a90.56,90.56,0,0,0-6.41-6.59c-1.19.77-3,.77-4.88-.22a13,13,0,0,1-6.18-8.68,33.85,33.85,0,0,0-3.32-2.09c-1.19-.77-2.26-1.32-3.45-2a34.83,34.83,0,0,0-3.57-1.76c-1.18-.54-2.37-1-3.44-1.42a13,13,0,0,1,2.73,3.73c2.14,4.18,1.43,8-1.42,8.68s-6.66-2.19-8.8-6.26c-1.78-3.52-1.54-7,.6-8.24-.12,0-.24-.11-.36-.11l-1.55-.33a6.35,6.35,0,0,0-1.42-.22c-.36,0-.6-.11-1-.11a35.36,35.36,0,0,0-5.83-.22,6.72,6.72,0,0,0-1.54.11,7.59,7.59,0,0,0-1.67.22c-.47.11-.83.11-1.18.22h-.12c-.12.22-.36.33-.48.55-5.23,5.6-8.2,13.95-8.2,24.72,0,29.46,22.46,65.17,50.15,80,10.58,5.6,20.45,7.47,28.53,5.82h.11v-.11a.11.11,0,0,0,.12-.11c.48-.55,1-1,1.43-1.54s.95-1.31,1.43-2c0-.11.11-.11.11-.22.36-.66.72-1.21,1.08-1.87a11.59,11.59,0,0,0,.83-1.65A20.89,20.89,0,0,0,229,751.2a5.91,5.91,0,0,0,.48-1.54,17.5,17.5,0,0,0,.83-2.74,1.29,1.29,0,0,0,.12-.66c.24-1.54.48-3,.71-4.62v-.33A8.85,8.85,0,0,1,228.4,739.55ZM160,703.07c-3.33-.66-6.9-4.51-8-8.57s.84-6.93,4.16-6.27,6.78,4.4,7.85,8.57S163.27,703.73,160,703.07Zm4.16-27c-1,2.2-3.09,2.75-5.47,1.65a10.89,10.89,0,0,1-2.5-1.65c-3.32-2.85-5.23-7.69-4.16-10.66a3.26,3.26,0,0,1,2.86-2.08c1.54-.22,3.44.55,5.22,2.08C163.27,668.34,165.18,673.07,164.11,676Zm12.83,53.85c-2,1.87-5.94.44-8.79-3.29s-3.45-8.14-1.43-10.11,6.06-.44,8.8,3.29S179,727.9,176.94,729.88Zm17.23,19.67c-3.44-1.86-6.29-6.37-6.29-10.11,0-3.18,2-4.72,4.75-3.84a5.34,5.34,0,0,1,1.54.55,13.26,13.26,0,0,1,5.83,7.14,12.81,12.81,0,0,1,.47,2.86C200.47,749.88,197.62,751.42,194.17,749.55Zm9.51-18c-3.56.55-8-.22-12.71-2.75a42.08,42.08,0,0,1-10.23-7.91c-.12-.11-.23-.22-.23-.33a48.69,48.69,0,0,1-10.1-16.15c-.12-.11-.12-.11-.12-.22a33.28,33.28,0,0,1-2.5-12.31c0-4.73,1.31-8.46,3.45-11.1,4-4.73,11.4-5.5,19.73-1.1,12.83,6.81,23.17,23.3,23.17,36.92C214.14,725.16,210,730.43,203.68,731.53Zm16.52,23a5.5,5.5,0,0,1-1.9,0c-2.38-.55-5.35-3.08-6.89-6.27a8.65,8.65,0,0,1-1-6.15,3.4,3.4,0,0,1,2.38-2.42c2.86-.66,6.78,2.09,8.8,6.16S223.05,753.84,220.2,754.5Z" />
    <path class="cls-62"
        d="M191,679.66c-8.33-4.4-15.69-3.63-19.73,1.1-2.14,2.64-3.45,6.37-3.45,11.1a33.28,33.28,0,0,0,2.5,12.31c0,.11,0,.11.12.22a48.69,48.69,0,0,0,10.1,16.15c0,.11.11.22.23.33A42.08,42.08,0,0,0,191,728.78c4.75,2.53,9.15,3.3,12.71,2.75,6.3-1.1,10.46-6.37,10.46-14.95C214.14,703,203.8,686.47,191,679.66Zm10.1,47.91a11.92,11.92,0,0,1-4.76-.33,16.79,16.79,0,0,1-8.55-2.3,34.11,34.11,0,0,1-10-8.57c-.12-.22-.35-.33-.35-.55a74.49,74.49,0,0,1-4.52-7.15,29.84,29.84,0,0,1-3.09-12.31,14,14,0,0,1,2.14-7.8,13,13,0,0,1,1.78-3.84c3.45-4.62,9.87-5.5,17.24-1.54,10.93,5.93,19.72,20,19.72,31.65C210.69,722.41,206.89,727,201.07,727.57Z" />
    <path class="cls-62"
        d="M210.69,714.83c0,7.58-3.8,12.19-9.62,12.74a11.92,11.92,0,0,1-4.76-.33,11.36,11.36,0,0,0,3.93-1c3.32-1.65,5.46-5.39,5.46-10.77,0-10.44-8.08-23.3-17.94-28.58-5.23-2.74-9.87-2.85-13.2-.88a8,8,0,0,0-2.61,2.53,13,13,0,0,1,1.78-3.84c3.45-4.62,9.87-5.5,17.24-1.54C201.9,689.11,210.69,703.18,210.69,714.83Z" />
    <path class="cls-59"
        d="M210.69,714.83c0,7.58-3.8,12.19-9.62,12.74a11.92,11.92,0,0,1-4.76-.33,11.36,11.36,0,0,0,3.93-1c3.32-1.65,5.46-5.39,5.46-10.77,0-10.44-8.08-23.3-17.94-28.58-5.23-2.74-9.87-2.85-13.2-.88a8,8,0,0,0-2.61,2.53,13,13,0,0,1,1.78-3.84c3.45-4.62,9.87-5.5,17.24-1.54C201.9,689.11,210.69,703.18,210.69,714.83Z" />
    <path class="cls-61"
        d="M205.7,715.49c0,5.38-2.14,9.12-5.46,10.77a11.36,11.36,0,0,1-3.93,1,16.79,16.79,0,0,1-8.55-2.3,34.11,34.11,0,0,1-10-8.57c-.12-.22-.35-.33-.35-.55a74.49,74.49,0,0,1-4.52-7.15,29.84,29.84,0,0,1-3.09-12.31,14,14,0,0,1,2.14-7.8,8,8,0,0,1,2.61-2.53c3.33-2,8-1.86,13.2.88C197.62,692.19,205.7,705.05,205.7,715.49Z" />
    <path class="cls-62"
        d="M199.05,669.11c-1.19.77-3,.77-4.88-.22a13,13,0,0,1-6.18-8.68A101.18,101.18,0,0,1,199.05,669.11Z" />
    <path class="cls-62"
        d="M214,686.58a11.82,11.82,0,0,1-1.19-1.32,11.65,11.65,0,0,1-1.42-2.3C212.35,684.17,213.19,685.37,214,686.58Z" />
    <path class="cls-62"
        d="M227.69,713.84a13,13,0,0,1-3.33-5.61,7.35,7.35,0,0,1-.24-3.51c.59,1.21,1.07,2.41,1.55,3.62a27.33,27.33,0,0,1,1.19,3.19A19.42,19.42,0,0,1,227.69,713.84Z" />
    <path class="cls-62"
        d="M231.49,736.15a35.13,35.13,0,0,1-.36,5.16,8.85,8.85,0,0,1-2.73-1.76c-3.33-2.85-5.11-7.58-4-10.55.95-2.52,3.56-3,6.54-1.21v.11A66.88,66.88,0,0,1,231.49,736.15Z" />
    <path class="cls-62"
        d="M220.2,754.5a5.5,5.5,0,0,1-1.9,0c-2.38-.55-5.35-3.08-6.89-6.27a8.65,8.65,0,0,1-1-6.15,3.4,3.4,0,0,1,2.38-2.42c2.86-.66,6.78,2.09,8.8,6.16S223.05,753.84,220.2,754.5Z" />
    <path class="cls-62"
        d="M200.47,746.15c0,3.73-2.85,5.27-6.3,3.4s-6.29-6.37-6.29-10.11c0-3.18,2-4.72,4.75-3.84a5.34,5.34,0,0,1,1.54.55,13.26,13.26,0,0,1,5.83,7.14A12.81,12.81,0,0,1,200.47,746.15Z" />
    <path class="cls-62"
        d="M176.94,729.88c-2,1.87-5.94.44-8.79-3.29s-3.45-8.14-1.43-10.11,6.06-.44,8.8,3.29S179,727.9,176.94,729.88Z" />
    <path class="cls-62"
        d="M160,703.07c-3.33-.66-6.9-4.51-8-8.57s.84-6.93,4.16-6.27,6.78,4.4,7.85,8.57S163.27,703.73,160,703.07Z" />
    <path class="cls-62"
        d="M164.11,676c-1,2.2-3.09,2.75-5.47,1.65a10.89,10.89,0,0,1-2.5-1.65c-3.32-2.85-5.23-7.69-4.16-10.66a3.26,3.26,0,0,1,2.86-2.08c1.54-.22,3.44.55,5.22,2.08C163.27,668.34,165.18,673.07,164.11,676Z" />
    <path class="cls-62"
        d="M175.52,665.37c-2.74.66-6.66-2.19-8.8-6.26-1.78-3.52-1.54-7,.6-8.24h.11a28.27,28.27,0,0,1,3.81,1c.95.33,1.9.66,3,1.1a13,13,0,0,1,2.73,3.73C179.08,660.87,178.37,664.71,175.52,665.37Z" />
    <polygon class="cls-120"
        points="541.19 898.64 546.1 895.5 552.29 883.61 555.75 880.55 564.03 876.97 573.82 870.03 601.57 855.2 625.23 854.61 604.6 837.14 588.01 835.34 580.02 835.34 571.32 837.75 561.82 842.08 555.51 848 552.05 853.64 549.45 861.27 545.11 872.54 542.75 883.01 541.19 898.64" />
    <polygon class="cls-120"
        points="116.54 652.85 121.44 649.7 126.17 635.58 130.86 631.22 137.89 626.86 147.26 621.62 170.83 608.43 199.56 604.71 179.95 591.34 163.36 589.54 155.37 589.54 146.66 591.95 137.17 596.28 130.86 602.21 127.39 607.84 124.8 615.47 120.46 626.75 118.1 637.22 116.54 652.85" />
    <path id="BODY" class="cls-14"
        d="M753.65,988.86l-73.58-39s-3.7-21-9.48-33.74-9.47-19.65-9.47-19.65l-10.75-16.06s-15.6-18.15-17.22-19.42-9.25-8.2-11.71-9.74-10.33-6.32-11.4-7.09-7.09-3.85-8.33-4.47a91.84,91.84,0,0,0-10.07-2.94c-1.57-.31-8.4-.91-8.88-1s-7.61.22-10.79,1.26a40,40,0,0,0-9.4,4.35,29.64,29.64,0,0,0-7.31,6.75,48.58,48.58,0,0,0-4.35,6.87,36.54,36.54,0,0,0-2.52,6c-.43,1.61-2.7,11-2.7,11L255.82,704.6s-.68-3.68-.73-4.15-1-5-1-5.22-1.51-6.13-1.68-6.77-2.61-7.89-2.79-8.53-3-8.26-3.13-8.67-5.83-12.47-6.12-13-6.82-12.12-7.77-13.43-6.5-9.43-6.82-9.77-6.15-7.72-6.15-7.72-13.84-14.65-15.22-16-10.87-7.16-12.72-8.55-12.48-7.63-15-8.32-10.8-3.18-12.65-3.24-6.94-.57-8.67-.28-8.15.92-11.5,2.6-7.11,3.81-9.19,5.95a51.55,51.55,0,0,0-6.76,8.14,72.66,72.66,0,0,0-4.56,10.81c-.93,2.77-2,8.49-2,8.49L25.5,571.5l2.31-108.17L319,304.77,472.5,343.26l122.07-70.94L732.4,351.89l.13,157.79,313.65,181.2L1045,819.55Z" />
    <polygon class="cls-122"
        points="441.06 521.18 732.41 351.87 731.96 510.24 440.61 679.55 441.06 521.18" />
    <polyline class="cls-122"
        points="1044.43 820.1 753.08 989.42 753.13 970.67 753.4 877.39 1044.75 708.07" />
    <g class="cls-123">
        <path class="cls-120"
            d="M441.07,521.18l-.45,158.37,312.81,180.6,0,18.26-.08,110.5-72.13-40c-6.13-40.71-34.45-85.13-68.55-104.82s-59.67-5.67-66,27.86L256.92,704c-6.12-40.72-34.44-85.14-68.54-104.83s-62.58-8.06-68.92,25.47L26.77,571.12l.47-107.23,201.22,58.3,74.78-80.58Z" />
    </g>
    <polyline class="cls-122" points="1044.78 708.13 753.43 877.44 753.48 859.19 1044.83 689.87" />
    <polyline class="cls-122"
        points="1044.77 690.84 753.42 860.15 440.61 679.55 731.96 510.24 1044.77 690.84" />
    <polygon class="cls-124"
        points="28.37 540.57 48.13 549.72 46.06 582.82 43.61 588.06 46.06 550.57 28.26 542.55 28.37 540.57" />
    <polygon class="cls-125"
        points="754.73 972.5 754.41 1003.57 1054.5 826.06 1054.5 806.09 754.73 972.5" />
    <polygon class="cls-125"
        points="742.53 968.28 754.73 972.5 754.41 1003.57 742.53 996.91 742.53 968.28" />
    <polygon class="cls-120"
        points="947.54 749.44 754.76 861.48 545.06 740.42 732.94 625.06 947.54 749.44" />
    <polygon class="cls-122"
        points="733.16 626.4 545.06 740.42 441.94 679.7 733.16 511.56 733.16 626.4" />
    <polygon class="cls-122"
        points="947.54 749.44 733.16 626.4 733.16 511.56 1046.17 691.2 947.54 749.44" />
    <path class="cls-126"
        d="M684.51,406.3,460.65,536.41a17.14,17.14,0,0,0-8.54,14.77l-.23,80.32a17.15,17.15,0,0,0,25.77,14.88l223.87-130.1a17.14,17.14,0,0,0,8.53-14.78l.23-80.33A17.15,17.15,0,0,0,684.51,406.3Z" />
    <path class="cls-126"
        d="M420.58,549.43l-98.37-56.79a16.54,16.54,0,0,0-20.42,3.08l-40.74,43.89a16.58,16.58,0,0,0,3.86,25.62l138.91,80.19a16.56,16.56,0,0,0,24.85-14.29l.2-67.31A16.59,16.59,0,0,0,420.58,549.43Z" />
    <path class="cls-127"
        d="M28.1,468s16.58,2.13,16.58,5.6,1,30.41,1,30.41,1.29,19.15-1,19c-5.2-.24-16.58,0-16.58,0Z" />
    <polygon class="cls-128"
        points="28.26 542.55 46.06 550.57 43.61 588.06 28.1 579.11 28.26 542.55" />
    <polygon class="cls-124"
        points="745.3 966.51 742.53 968.28 754.73 972.5 1054.5 806.09 1046.43 803.53 1046.08 804.09 1049.4 806.09 754.91 968.52 745.3 966.51" />
</svg>