<svg id="Capa_1" data-name="Capa 1" data-type="carga.svg" xmlns="http://www.w3.org/2000/svg" viewBox="0 0 94.6 87.58"><defs><style>.cls-1{fill:#525252;}.cls-2{fill:#f1d18c;}.cls-3{fill:#261c00;}.body{fill:#17d244;}.cls-5{fill:#87e5ff;}.cls-6{fill:#d4cece;}.cls-7{fill:#f72d2d;}</style></defs><path class="cls-1" d="M81.07,107l-1.42-.83,0-17.05A1.48,1.48,0,0,0,79,87.74h0L58.54,75.86l0-11.2L81,77.72,81,84v4.76l0,5.59v2.88Z" transform="translate(-32.11 -38.31)"/><polygon class="cls-1" points="48.96 68.67 47.55 69.48 47.54 67.84 48.96 68.67"/><polygon class="cls-1" points="48.97 72.66 47.56 73.48 47.55 69.48 48.96 68.67 48.97 72.66"/><polygon class="cls-1" points="87.89 53.16 87.88 50.2 86.47 51.01 87.89 53.16"/><path class="cls-1" d="M120,88.51l-1.41.81c0-3.13-2.24-4.4-5-2.83A10.89,10.89,0,0,0,108.68,95h0l-.86.5-.54.31a10.08,10.08,0,0,1,.12-1.54,14.64,14.64,0,0,1,5-8.56l0,0a9.67,9.67,0,0,1,1.23-.85,5.21,5.21,0,0,1,3.56-.81,3.08,3.08,0,0,1,1.64.91A5,5,0,0,1,120,88.51Z" transform="translate(-32.11 -38.31)"/><polygon class="cls-1" points="75.16 57.54 75.16 57.54 75.16 57.54 75.16 57.54 75.16 57.54"/><polygon class="cls-1" points="40.53 80.51 40.52 77.54 39.1 78.36 40.53 80.51"/><path class="cls-1" d="M72.63,115.85l-1.42.82c0-3.13-2.24-4.4-5-2.83a10.88,10.88,0,0,0-4.94,8.54l-1.41.82a14,14,0,0,1,6.34-11C69.76,110.19,72.61,111.82,72.63,115.85Z" transform="translate(-32.11 -38.31)"/><path class="cls-2" d="M55.48,118.69a.87.87,0,0,1-.21.17.47.47,0,0,0,0-.1c.66-.53.74-1.83.13-3.06s-1.89-2.12-2.73-1.7a1,1,0,0,0-.27.19h-.08a1.54,1.54,0,0,1,.32-.25c.87-.42,2.11.36,2.79,1.74h0A2.84,2.84,0,0,1,55.48,118.69Z" transform="translate(-32.11 -38.31)"/><path class="cls-2" d="M52.74,114c.83-.4,2,.34,2.68,1.67s.53,2.42-.07,3l0,.08c.66-.53.74-1.82.13-3.06s-1.89-2.11-2.73-1.7a1.31,1.31,0,0,0-.27.19h.1Z" transform="translate(-32.11 -38.31)"/><path class="cls-2" d="M55.42,115.71c-.65-1.33-1.85-2.07-2.68-1.67l-.19.13h.11l.11-.08c.81-.4,2,.33,2.62,1.63a2.67,2.67,0,0,1,0,2.84l0,.11C56,118.13,56,116.89,55.42,115.71Z" transform="translate(-32.11 -38.31)"/><path class="cls-2" d="M55.39,115.72c-.64-1.3-1.81-2-2.62-1.63l-.11.08h.08l0,0c.79-.39,1.94.33,2.57,1.6a2.74,2.74,0,0,1,.07,2.68.78.78,0,0,1,0,.14A2.67,2.67,0,0,0,55.39,115.72Z" transform="translate(-32.11 -38.31)"/><path class="cls-2" d="M55.36,115.74c-.63-1.27-1.78-2-2.57-1.6l0,0h.08c.77-.38,1.9.32,2.51,1.56a2.75,2.75,0,0,1,.11,2.56.41.41,0,0,1,0,.11A2.74,2.74,0,0,0,55.36,115.74Z" transform="translate(-32.11 -38.31)"/><path class="cls-2" d="M55.33,115.75c-.61-1.24-1.74-1.94-2.51-1.56h0l.1,0c.75-.29,1.8.38,2.38,1.56a2.76,2.76,0,0,1,.15,2.45.25.25,0,0,1,0,.09A2.75,2.75,0,0,0,55.33,115.75Z" transform="translate(-32.11 -38.31)"/><path class="cls-2" d="M55.3,115.77c-.58-1.18-1.63-1.85-2.38-1.56l.12,0c.73-.19,1.68.45,2.23,1.56a2.78,2.78,0,0,1,.19,2.29.61.61,0,0,1,0,.14A2.76,2.76,0,0,0,55.3,115.77Z" transform="translate(-32.11 -38.31)"/><path class="cls-2" d="M55.27,115.79c-.55-1.11-1.5-1.75-2.23-1.56l.09,0c.7-.13,1.59.49,2.1,1.54a2.86,2.86,0,0,1,.25,2.13s0,.1,0,.15A2.78,2.78,0,0,0,55.27,115.79Z" transform="translate(-32.11 -38.31)"/><path class="cls-2" d="M55.23,115.8c-.51-1-1.4-1.67-2.1-1.54l.08,0a2.33,2.33,0,0,1,2,1.51,2.92,2.92,0,0,1,.27,2v.13A2.86,2.86,0,0,0,55.23,115.8Z" transform="translate(-32.11 -38.31)"/><path class="cls-2" d="M55.21,115.81a2.33,2.33,0,0,0-2-1.51l.11,0a2.32,2.32,0,0,1,1.85,1.48,2.8,2.8,0,0,1,.29,1.82.77.77,0,0,1,0,.15A2.92,2.92,0,0,0,55.21,115.81Z" transform="translate(-32.11 -38.31)"/><path class="cls-2" d="M55.17,115.83a2.32,2.32,0,0,0-1.85-1.48l.11.05a2.38,2.38,0,0,1,1.71,1.44,2.85,2.85,0,0,1,.31,1.65.81.81,0,0,1,0,.16A2.8,2.8,0,0,0,55.17,115.83Z" transform="translate(-32.11 -38.31)"/><path class="cls-2" d="M55.14,115.84a2.38,2.38,0,0,0-1.71-1.44l.07,0,0,0a2.39,2.39,0,0,1,1.57,1.4,2.88,2.88,0,0,1,.32,1.45c0,.06,0,.12,0,.18A2.85,2.85,0,0,0,55.14,115.84Z" transform="translate(-32.11 -38.31)"/><path class="cls-2" d="M55.11,115.86a2.39,2.39,0,0,0-1.57-1.4l.12.08a2.42,2.42,0,0,1,1.42,1.33,2.89,2.89,0,0,1,.31,1.28c0,.06,0,.11,0,.16A2.88,2.88,0,0,0,55.11,115.86Z" transform="translate(-32.11 -38.31)"/><path class="cls-2" d="M55.08,115.87a2.42,2.42,0,0,0-1.42-1.33l.11.08a2.45,2.45,0,0,1,1.28,1.27,3.15,3.15,0,0,1,.31,1.1l0,.16A2.89,2.89,0,0,0,55.08,115.87Z" transform="translate(-32.11 -38.31)"/><path class="cls-2" d="M53.77,114.62l.17.12A2.51,2.51,0,0,1,55,115.9a2.73,2.73,0,0,1,.27.87,1.42,1.42,0,0,1,.07.22,3.15,3.15,0,0,0-.31-1.1A2.45,2.45,0,0,0,53.77,114.62Z" transform="translate(-32.11 -38.31)"/><path class="cls-2" d="M53.94,114.74a1.14,1.14,0,0,1,.11.11,2.5,2.5,0,0,1,.94,1.07,2.81,2.81,0,0,1,.23.65c0,.07.05.13.07.2a2.73,2.73,0,0,0-.27-.87A2.51,2.51,0,0,0,53.94,114.74Z" transform="translate(-32.11 -38.31)"/><path class="cls-2" d="M54.05,114.85l.23.2a2.79,2.79,0,0,1,.68.88,3.59,3.59,0,0,1,.15.37l.11.27a2.81,2.81,0,0,0-.23-.65A2.5,2.5,0,0,0,54.05,114.85Z" transform="translate(-32.11 -38.31)"/><path class="cls-2" d="M54.28,115.05l.21.26.12.14h0a3.22,3.22,0,0,1,.24.36c.09.16.18.32.25.48a3.59,3.59,0,0,0-.15-.37A2.79,2.79,0,0,0,54.28,115.05Z" transform="translate(-32.11 -38.31)"/><path class="cls-2" d="M54.86,115.82a3.22,3.22,0,0,0-.24-.36C54.71,115.58,54.78,115.7,54.86,115.82Z" transform="translate(-32.11 -38.31)"/><path class="cls-2" d="M54.49,115.31l.12.14Z" transform="translate(-32.11 -38.31)"/><path class="cls-2" d="M55.48,117.81v.12c0,.06,0,.1,0,.15a.76.76,0,0,1,0,.15.28.28,0,0,1,0,.09.34.34,0,0,1,0,.1.78.78,0,0,1,0,.14l0,.12,0,.08a.47.47,0,0,1,0,.1c-.83,1.53-3.9-.7-3.91-3.12,0,0,0,0,0,0h0a1.37,1.37,0,0,1,1-1.51h.45l.1,0,.12,0,.09,0,.08,0,.11,0,.11.06h0l0,0,0,0,.12.07.11.08.17.12a1.14,1.14,0,0,1,.11.11,2.29,2.29,0,0,1,.23.21l.21.25.12.14s0,0,0,0a3.22,3.22,0,0,1,.24.36,4.23,4.23,0,0,1,.25.47l.11.27c0,.07.05.14.07.2s.05.15.07.22l0,.17s0,.1,0,.16,0,.11,0,.17a.92.92,0,0,1,0,.16A.88.88,0,0,1,55.48,117.81Z" transform="translate(-32.11 -38.31)"/><path class="cls-2" d="M38.52,108.67l-.19.16.05-.09a2.33,2.33,0,0,0,.11-2.71c-.59-1.19-1.67-1.86-2.41-1.5a.81.81,0,0,0-.24.17h-.07a1,1,0,0,1,.29-.22c.76-.37,1.86.31,2.45,1.53a0,0,0,0,1,0,0A2.51,2.51,0,0,1,38.52,108.67Z" transform="translate(-32.11 -38.31)"/><path class="cls-2" d="M36.1,104.57c.73-.36,1.79.3,2.36,1.47a2.33,2.33,0,0,1-.06,2.62s0,0,0,.07a2.31,2.31,0,0,0,.11-2.7c-.59-1.19-1.67-1.87-2.41-1.5a.81.81,0,0,0-.24.17h.09A1.77,1.77,0,0,1,36.1,104.57Z" transform="translate(-32.11 -38.31)"/><path class="cls-2" d="M38.46,106c-.57-1.17-1.63-1.83-2.36-1.47a1.77,1.77,0,0,0-.17.12H36l.09-.07c.71-.35,1.75.3,2.31,1.45a2.33,2.33,0,0,1,0,2.5l0,.1A2.33,2.33,0,0,0,38.46,106Z" transform="translate(-32.11 -38.31)"/><path class="cls-2" d="M38.43,106.06c-.56-1.15-1.6-1.8-2.31-1.45l-.09.07h.07l0,0c.7-.35,1.71.29,2.27,1.41a2.41,2.41,0,0,1,.06,2.36s0,.08,0,.13A2.33,2.33,0,0,0,38.43,106.06Z" transform="translate(-32.11 -38.31)"/><path class="cls-2" d="M38.41,106.07c-.56-1.12-1.57-1.76-2.27-1.41l0,0h.06c.69-.34,1.68.28,2.22,1.38a2.4,2.4,0,0,1,.1,2.26.28.28,0,0,1,0,.09A2.41,2.41,0,0,0,38.41,106.07Z" transform="translate(-32.11 -38.31)"/><path class="cls-2" d="M38.38,106.08c-.54-1.1-1.53-1.72-2.22-1.38h0l.1,0c.66-.26,1.58.34,2.09,1.38a2.43,2.43,0,0,1,.14,2.16.19.19,0,0,1,0,.08A2.4,2.4,0,0,0,38.38,106.08Z" transform="translate(-32.11 -38.31)"/><path class="cls-2" d="M38.35,106.1c-.51-1-1.43-1.64-2.09-1.38l.1,0c.64-.17,1.49.4,2,1.37a2.42,2.42,0,0,1,.18,2c0,.05,0,.09,0,.13A2.43,2.43,0,0,0,38.35,106.1Z" transform="translate(-32.11 -38.31)"/><path class="cls-2" d="M38.32,106.11c-.47-1-1.32-1.54-2-1.37l.08,0c.62-.12,1.41.43,1.86,1.35a2.53,2.53,0,0,1,.21,1.88s0,.09,0,.13A2.42,2.42,0,0,0,38.32,106.11Z" transform="translate(-32.11 -38.31)"/><path class="cls-2" d="M38.3,106.12c-.45-.92-1.24-1.47-1.86-1.35l.07,0a2,2,0,0,1,1.76,1.33,2.53,2.53,0,0,1,.24,1.76s0,0,0,0,0,0,0,.06A2.53,2.53,0,0,0,38.3,106.12Z" transform="translate(-32.11 -38.31)"/><path class="cls-2" d="M38.27,106.13a2,2,0,0,0-1.76-1.33l.1,0a2.09,2.09,0,0,1,1.64,1.31,2.5,2.5,0,0,1,.25,1.6.66.66,0,0,1,0,.14A2.53,2.53,0,0,0,38.27,106.13Z" transform="translate(-32.11 -38.31)"/><path class="cls-2" d="M38.25,106.15a2.09,2.09,0,0,0-1.64-1.31l.1,0a2.1,2.1,0,0,1,1.51,1.27,2.57,2.57,0,0,1,.27,1.46.57.57,0,0,1,0,.13A2.5,2.5,0,0,0,38.25,106.15Z" transform="translate(-32.11 -38.31)"/><path class="cls-2" d="M38.22,106.16a2.1,2.1,0,0,0-1.51-1.27l.06,0,0,0a2.13,2.13,0,0,1,1.38,1.24,2.49,2.49,0,0,1,.28,1.28c0,.05,0,.1,0,.16A2.57,2.57,0,0,0,38.22,106.16Z" transform="translate(-32.11 -38.31)"/><path class="cls-2" d="M38.19,106.18a2.13,2.13,0,0,0-1.38-1.24l.1.07a2.12,2.12,0,0,1,1.25,1.18,2.58,2.58,0,0,1,.28,1.13l0,.14A2.49,2.49,0,0,0,38.19,106.18Z" transform="translate(-32.11 -38.31)"/><path class="cls-2" d="M38.16,106.19A2.12,2.12,0,0,0,36.91,105l.1.07a2.13,2.13,0,0,1,1.12,1.12,2.52,2.52,0,0,1,.28,1l0,.15A2.58,2.58,0,0,0,38.16,106.19Z" transform="translate(-32.11 -38.31)"/><path class="cls-2" d="M37,105.08l.14.11a2.18,2.18,0,0,1,1,1,2.63,2.63,0,0,1,.24.77l.06.19a2.52,2.52,0,0,0-.28-1A2.13,2.13,0,0,0,37,105.08Z" transform="translate(-32.11 -38.31)"/><path class="cls-2" d="M37.15,105.19a.87.87,0,0,1,.11.09,2.29,2.29,0,0,1,.82,1,2.71,2.71,0,0,1,.21.58l.06.17a2.63,2.63,0,0,0-.24-.77A2.18,2.18,0,0,0,37.15,105.19Z" transform="translate(-32.11 -38.31)"/><path class="cls-2" d="M37.26,105.28l.2.19a2.37,2.37,0,0,1,.6.77c0,.11.09.22.13.32s.07.16.1.25a2.71,2.71,0,0,0-.21-.58A2.29,2.29,0,0,0,37.26,105.28Z" transform="translate(-32.11 -38.31)"/><path class="cls-2" d="M37.46,105.47l.18.22.11.12v0a3,3,0,0,1,.21.32c.08.13.15.27.22.41,0-.1-.08-.21-.13-.32A2.37,2.37,0,0,0,37.46,105.47Z" transform="translate(-32.11 -38.31)"/><path class="cls-2" d="M38,106.15a3,3,0,0,0-.21-.32Z" transform="translate(-32.11 -38.31)"/><path class="cls-2" d="M37.64,105.69l.11.12Z" transform="translate(-32.11 -38.31)"/><path class="cls-2" d="M38.52,107.94s0,0,0,.06,0,.09,0,.14,0,.08,0,.13a.25.25,0,0,1,0,.08.22.22,0,0,1,0,.08s0,.09,0,.13l0,.1s0,0,0,.08l-.05.09c-.74,1.35-3.45-.63-3.45-2.78,0-.76.37-1.25.89-1.34h.33l.06,0h.1a.38.38,0,0,1,.1,0l.08,0,.07,0,.1,0,.1,0,.06,0,0,0,.1.06.1.07.14.11.11.09c.06.07.13.12.2.19l.18.22a1.27,1.27,0,0,1,.11.13,0,0,0,0,0,0,0l.21.32c.08.14.15.27.22.42l.1.24.06.18.06.19,0,.14,0,.14c0,.06,0,.11,0,.16a.66.66,0,0,1,0,.14.57.57,0,0,1,0,.13A.43.43,0,0,0,38.52,107.94Z" transform="translate(-32.11 -38.31)"/><path class="cls-3" d="M49.33,115.65a.83.83,0,0,1-.1.41l-9.91-5.72a1.5,1.5,0,0,1-.12-.53.9.9,0,0,1,0-.16l10.09,5.82A1.21,1.21,0,0,1,49.33,115.65Z" transform="translate(-32.11 -38.31)"/><path class="cls-3" d="M49.08,116.2s0,0-.07.06a.87.87,0,0,1-.8-.11l-7.9-4.56a2.29,2.29,0,0,1-.82-.87.2.2,0,0,1,0-.08Z" transform="translate(-32.11 -38.31)"/><path class="cls-3" d="M49,114.21l-9.31-5.37a.57.57,0,0,1,.21-.12l.1,0a.6.6,0,0,1,.47.07l7.9,4.56A1.76,1.76,0,0,1,49,114.21Z" transform="translate(-32.11 -38.31)"/><path class="cls-3" d="M49.13,114.5h0a2.76,2.76,0,0,0-.08-.27C49.07,114.31,49.1,114.41,49.13,114.5Z" transform="translate(-32.11 -38.31)"/><path class="cls-3" d="M49.29,115.23l-10-5.78a1.66,1.66,0,0,1,.13-.27.36.36,0,0,1,.07-.1l.09-.1,9.54,5.51h0a.28.28,0,0,1,0,.13h0a.94.94,0,0,1,0,.16s0,0,0,0A3.14,3.14,0,0,1,49.29,115.23Z" transform="translate(-32.11 -38.31)"/><polygon class="cls-7" points="94.59 40.62 92.9 41.6 92.89 37.15 94.57 36.18 94.59 40.62"/><path class="cls-6" d="M113.62,88.92a6.25,6.25,0,0,0-2.82,4.89c0,1.79,1.28,2.51,2.84,1.61a6.21,6.21,0,0,0,2.82-4.88C116.45,88.75,115.18,88,113.62,88.92Z" transform="translate(-32.11 -38.31)"/><polygon class="body" points="75.16 57.54 75.16 57.54 75.16 57.55 75.83 57.15 76.56 56.73 75.16 57.54"/><polygon class="body" points="48.91 47.54 48.91 50.42 48.9 47.54 48.91 47.54"/><path class="body" d="M126.71,84.62,120,88.51A5,5,0,0,0,118.81,85a3.08,3.08,0,0,0-1.64-.91,5.21,5.21,0,0,0-3.56.81,9.67,9.67,0,0,0-1.23.85l0,0a14.64,14.64,0,0,0-5,8.56,10.08,10.08,0,0,0-.12,1.54l-.61.35L81.09,111v-4l0-9.75V94.35l0-5.59V85.85h0V84l0-6.28L58.51,64.66l45.63-26.35,22.48,13.06h0l0,8.13v15l-1.68,1v4.45l1.69-1v5.69Z" transform="translate(-32.11 -38.31)"/><path class="cls-6" d="M66.25,116.27a6.28,6.28,0,0,0-2.82,4.89c0,1.79,1.28,2.51,2.84,1.61a6.23,6.23,0,0,0,2.82-4.88C69.08,116.1,67.81,115.37,66.25,116.27Z" transform="translate(-32.11 -38.31)"/><path class="body" d="M39.43,110.59a1.58,1.58,0,0,1-.13-.26h0A2.72,2.72,0,0,0,39.43,110.59Z" transform="translate(-32.11 -38.31)"/><path class="body" d="M49.13,114.5h0a2.76,2.76,0,0,0-.08-.27C49.07,114.31,49.1,114.41,49.13,114.5Z" transform="translate(-32.11 -38.31)"/><path class="body" d="M79.66,107.79v-1.64l0-17.05A1.48,1.48,0,0,0,79,87.74h0L58.54,75.86l-2-1.18a1.46,1.46,0,0,0-1.51.15l-13.78,8c-1.17.67-1.56,2.1-2.12,3.65L61.58,99.51l-5.34,15.9-.76-.44v-1.19h-2l-7-4.07.1.17-6.11-3.49.11-.11-2-1.17v-.77H37.2l-2-1.16-.14,0a.23.23,0,0,1-.15-.14l-1.15-.66v5.06l-.84.48c-.46.27-.83,2.15-.83,3.07a2.4,2.4,0,0,0,.57,1.76l22.47,13.06s0,0,0,0a.27.27,0,0,0,.3,0l.84-.49,3-1.74.6-.35a14,14,0,0,1,6.34-11c3.52-2,6.37-.39,6.39,3.64l7-4.06Zm-41.14.88-.19.16c-.74,1.35-3.45-.63-3.45-2.78,0-.76.37-1.25.89-1.34a1,1,0,0,1,.29-.22c.76-.37,1.86.31,2.45,1.53a0,0,0,0,1,0,0A2.51,2.51,0,0,1,38.52,108.67Zm10.71,7.39a.64.64,0,0,1-.13.15h0s0,0-.07.06a.87.87,0,0,1-.8-.11l-7.9-4.56a2.29,2.29,0,0,1-.82-.87.2.2,0,0,1,0-.08l0,0a1.58,1.58,0,0,1-.13-.26h0a1.5,1.5,0,0,1-.12-.53.9.9,0,0,1,0-.16h0a.53.53,0,0,1,0-.12.19.19,0,0,1,0-.07,1.66,1.66,0,0,1,.13-.27.36.36,0,0,1,.07-.1l.09-.1a1,1,0,0,1,.15-.14.57.57,0,0,1,.21-.12l.1,0a.6.6,0,0,1,.47.07l7.9,4.56a1.76,1.76,0,0,1,.63.89h0c0,.09.07.19.1.28h0a.28.28,0,0,1,0,.13h0a.32.32,0,0,1,0,.16s0,0,0,0a3.14,3.14,0,0,1,.08.4s0,0,0,0,0,.16,0,.22a1.21,1.21,0,0,1,0,.18A.83.83,0,0,1,49.23,116.06Zm6.25,2.63a.87.87,0,0,1-.21.17c-.83,1.53-3.9-.7-3.91-3.12,0,0,0,0,0,0h0a1.37,1.37,0,0,1,1-1.51,1.54,1.54,0,0,1,.32-.25c.87-.42,2.11.36,2.79,1.74h0A2.84,2.84,0,0,1,55.48,118.69Zm6.33-9.17,3.4-11.65,11.15-6.44,0,9.67Zm14.8-5.27-3,1.76c-.21.12-.39,0-.39-.22a.89.89,0,0,1,.39-.68l3-1.76c.21-.12.38,0,.38.23A.85.85,0,0,1,76.61,104.25Z" transform="translate(-32.11 -38.31)"/><path class="body" d="M49.13,114.5h0L39.57,109a1,1,0,0,1,.15-.14L49,114.21h0C49.07,114.31,49.1,114.41,49.13,114.5Z" transform="translate(-32.11 -38.31)"/><path class="body" d="M49.23,116.06a.64.64,0,0,1-.13.15h0l-9.63-5.56,0,0a1.58,1.58,0,0,1-.13-.26h0Z" transform="translate(-32.11 -38.31)"/><path class="body" d="M49.32,115.47l-10.09-5.82h0a.53.53,0,0,1,0-.12.19.19,0,0,1,0-.07l10,5.78s0,0,0,0S49.31,115.41,49.32,115.47Z" transform="translate(-32.11 -38.31)"/><path class="cls-5" d="M61.58,99.51l-5.34,15.9-.76-.44v-1.19H55c-1-.87-5.48-4.61-10-5.85-2-1.58-6-4.48-9.85-5.24a.24.24,0,0,0-.28.18.22.22,0,0,0,0,.14l-1.15-.66L39.1,86.44Z" transform="translate(-32.11 -38.31)"/><path class="cls-5" d="M38.5,104.34H37.2l-2-1.16A15.77,15.77,0,0,1,38.5,104.34Z" transform="translate(-32.11 -38.31)"/><path class="cls-5" d="M44,107.73a.19.19,0,0,0-.1.08l-3-1.82-.31.29-2-1.17v-.76A31.86,31.86,0,0,1,44,107.73Z" transform="translate(-32.11 -38.31)"/><path class="cls-5" d="M49.36,111.4l4.16,2.38h-.08l-7-4.07-.23-.4.06,0a.23.23,0,0,0,0-.33l-.24-.21a30.39,30.39,0,0,1,7.73,4.62L49.79,111Z" transform="translate(-32.11 -38.31)"/><polygon class="cls-5" points="44.27 62.79 29.7 71.21 33.1 59.56 44.25 53.12 44.27 62.79"/><path d="M118.58,89.32a7.85,7.85,0,0,1-.11,1.26l1.53.89Z" transform="translate(-32.11 -38.31)"/><path d="M71.1,117.92l1.54.9-1.43-2.15A7.64,7.64,0,0,1,71.1,117.92Z" transform="translate(-32.11 -38.31)"/><path d="M46.53,109.88l-6.11-3.49.11-.11.31-.29,3,1.82s0,0,0,.08a.22.22,0,0,0,.18.27l.78.19c.69.56,1.12.93,1.13,1a.25.25,0,0,0,.16.06s.07,0,.11,0l.23.4Z" transform="translate(-32.11 -38.31)"/><path d="M45,107.93c-.3-.09-.61-.17-.91-.23a.27.27,0,0,0-.12,0,31.86,31.86,0,0,0-5.47-3.38h0a15.77,15.77,0,0,0-3.29-1.16l-.14,0a.23.23,0,0,1-.15-.14.22.22,0,0,1,0-.14.24.24,0,0,1,.28-.18C39,103.45,43.05,106.35,45,107.93Z" transform="translate(-32.11 -38.31)"/><path d="M46.09,109.35a.18.18,0,0,0,.11,0l.06,0a.24.24,0,0,0,0-.34l-.24-.21c-.4-.14-.8-.27-1.2-.38.69.55,1.12.93,1.13.94A.25.25,0,0,0,46.09,109.35Z" transform="translate(-32.11 -38.31)"/><path d="M54.25,113.78h-.73l-4.16-2.38.43-.4,3.94,2.36C53.93,113.51,54.1,113.66,54.25,113.78Z" transform="translate(-32.11 -38.31)"/><path d="M55,113.78h-.73c-.15-.12-.32-.27-.52-.42A30.39,30.39,0,0,0,46,108.74q-.6-.22-1.2-.39l-.78-.19a.22.22,0,0,1-.18-.27s0,0,0-.08a.19.19,0,0,1,.1-.08.27.27,0,0,1,.12,0c.3.06.61.14.91.23C49.5,109.17,54,112.91,55,113.78Z" transform="translate(-32.11 -38.31)"/><path d="M110.11,98.2l-3.45-2,.61-.35h0l.54-.32.86-.5h0a4.67,4.67,0,0,0,.39,2h0a2.94,2.94,0,0,0,.44.68l0,0A2.65,2.65,0,0,0,110.11,98.2Z" transform="translate(-32.11 -38.31)"/><path d="M113.61,86.49A10.87,10.87,0,0,0,108.68,95a4.61,4.61,0,0,0,.39,2h0a3,3,0,0,0,.44.69l0,0a2.35,2.35,0,0,0,.58.47,3.45,3.45,0,0,0,3.53-.33,11,11,0,0,0,4.83-7.28,7.85,7.85,0,0,0,.11-1.26C118.57,86.18,116.34,84.91,113.61,86.49Zm2.85,4.05a6.21,6.21,0,0,1-2.82,4.88c-1.56.9-2.83.18-2.84-1.61a6.25,6.25,0,0,1,2.82-4.89C115.18,88,116.45,88.75,116.46,90.54Z" transform="translate(-32.11 -38.31)"/><path d="M62.76,125.56l-3.46-2,.6-.35,1.41-.82a4,4,0,0,0,.84,2.67h0a2.18,2.18,0,0,0,.58.48Z" transform="translate(-32.11 -38.31)"/><path d="M66.25,113.83a10.9,10.9,0,0,0-4.94,8.55,4.07,4.07,0,0,0,.84,2.67h0a2.65,2.65,0,0,0,.58.48,3.49,3.49,0,0,0,3.54-.33,11.07,11.07,0,0,0,4.82-7.29,7.64,7.64,0,0,0,.11-1.25C71.2,113.53,69,112.26,66.25,113.83Zm2.84,4.06a6.23,6.23,0,0,1-2.82,4.88c-1.56.9-2.83.18-2.84-1.61a6.28,6.28,0,0,1,2.82-4.89C67.81,115.37,69.08,116.1,69.09,117.89Z" transform="translate(-32.11 -38.31)"/><path d="M77,103.58a.85.85,0,0,1-.38.67l-3,1.76c-.21.12-.39,0-.39-.22a.89.89,0,0,1,.39-.68l3-1.76C76.82,103.23,77,103.33,77,103.58Z" transform="translate(-32.11 -38.31)"/></svg>