<svg id="Capa_1" data-name="Capa 1" xmlns="http://www.w3.org/2000/svg"
    xmlns:xlink="http://www.w3.org/1999/xlink" viewBox="0 0 1080 1350">
    <defs>
        <style>
            .cls-1{fill:#1e1e1e;}.cls-14{fill:#c4c2c1;}.cls-2{fill:url(#linear-gradient);}.cls-3{fill:url(#linear-gradient-2);}.cls-4{fill:url(#linear-gradient-3);}.cls-5{fill:url(#linear-gradient-4);}.cls-6{fill:url(#linear-gradient-5);}.cls-7{fill:url(#linear-gradient-6);}.cls-8{fill:url(#linear-gradient-7);}.cls-9{fill:url(#linear-gradient-8);}.cls-10{fill:url(#linear-gradient-9);}.cls-11{fill:url(#linear-gradient-10);}.cls-12{fill:url(#linear-gradient-11);}.cls-13{fill:url(#linear-gradient-12);}.cls-120{fill:url(#linear-gradient-13);}.cls-15{fill:url(#linear-gradient-14);}.cls-16{fill:url(#linear-gradient-15);}.cls-17{fill:url(#linear-gradient-22);}.cls-18{fill:url(#linear-gradient-29);}.cls-19{fill:url(#linear-gradient-30);}.cls-20{fill:url(#linear-gradient-31);}.cls-21{fill:url(#linear-gradient-32);}.cls-22{fill:url(#linear-gradient-33);}.cls-23{fill:url(#linear-gradient-34);}.cls-24{fill:url(#linear-gradient-35);}.cls-25{fill:url(#linear-gradient-36);}.cls-26{fill:url(#linear-gradient-37);}.cls-27{fill:url(#linear-gradient-38);}.cls-28{fill:url(#linear-gradient-39);}.cls-29{fill:url(#linear-gradient-40);}.cls-30{fill:url(#linear-gradient-41);}.cls-31{fill:url(#linear-gradient-42);}.cls-32{fill:url(#linear-gradient-43);}.cls-33{fill:url(#linear-gradient-44);}.cls-34{fill:url(#linear-gradient-45);}.cls-35{fill:url(#linear-gradient-46);}.cls-36{fill:url(#linear-gradient-47);}.cls-37{fill:url(#linear-gradient-48);}.cls-38{fill:url(#linear-gradient-49);}.cls-39{fill:url(#linear-gradient-50);}.cls-40{fill:url(#linear-gradient-51);}.cls-41{fill:url(#linear-gradient-52);}.cls-42{fill:url(#linear-gradient-53);}.cls-43{fill:url(#linear-gradient-54);}.cls-44{fill:url(#linear-gradient-55);}.cls-45{fill:url(#linear-gradient-56);}.cls-46{fill:url(#linear-gradient-57);}.cls-47{fill:url(#linear-gradient-58);}.cls-48{fill:url(#linear-gradient-59);}.cls-49{fill:url(#linear-gradient-60);}.cls-50{fill:url(#linear-gradient-61);}.cls-51{fill:url(#linear-gradient-62);}.cls-52{fill:url(#linear-gradient-63);}.cls-53{fill:url(#linear-gradient-64);}.cls-54{fill:url(#linear-gradient-65);}.cls-55{fill:url(#linear-gradient-66);}.cls-56{fill:url(#linear-gradient-67);}.cls-57{fill:url(#linear-gradient-68);}.cls-58{fill:url(#linear-gradient-69);}.cls-59{fill:#908da0;}.cls-60{fill:#868790;}.cls-61{fill:#bebcde;}.cls-62{fill:#131313;}.cls-63{fill:url(#linear-gradient-70);}.cls-64{fill:url(#linear-gradient-71);}.cls-65{fill:url(#linear-gradient-72);}.cls-66{fill:url(#linear-gradient-73);}.cls-67{fill:url(#linear-gradient-74);}.cls-68{fill:url(#linear-gradient-75);}.cls-69{fill:url(#linear-gradient-76);}.cls-70{fill:url(#linear-gradient-77);}.cls-71{fill:url(#linear-gradient-78);}.cls-72{fill:url(#linear-gradient-79);}.cls-73{fill:url(#linear-gradient-80);}.cls-74{fill:url(#linear-gradient-81);}.cls-75{fill:url(#linear-gradient-82);}.cls-76{fill:url(#linear-gradient-83);}.cls-77{fill:url(#linear-gradient-84);}.cls-78{fill:url(#linear-gradient-91);}.cls-79{fill:url(#linear-gradient-98);}.cls-80{fill:url(#linear-gradient-99);}.cls-81{fill:url(#linear-gradient-100);}.cls-82{fill:url(#linear-gradient-101);}.cls-83{fill:url(#linear-gradient-102);}.cls-84{fill:url(#linear-gradient-103);}.cls-85{fill:url(#linear-gradient-104);}.cls-86{fill:url(#linear-gradient-105);}.cls-87{fill:url(#linear-gradient-106);}.cls-88{fill:url(#linear-gradient-107);}.cls-89{fill:url(#linear-gradient-108);}.cls-90{fill:url(#linear-gradient-109);}.cls-91{fill:url(#linear-gradient-110);}.cls-92{fill:url(#linear-gradient-111);}.cls-93{fill:url(#linear-gradient-112);}.cls-94{fill:url(#linear-gradient-113);}.cls-95{fill:url(#linear-gradient-114);}.cls-96{fill:url(#linear-gradient-115);}.cls-97{fill:url(#linear-gradient-116);}.cls-98{fill:url(#linear-gradient-117);}.cls-99{fill:url(#linear-gradient-118);}.cls-100{fill:url(#linear-gradient-119);}.cls-101{fill:url(#linear-gradient-120);}.cls-102{fill:url(#linear-gradient-121);}.cls-103{fill:url(#linear-gradient-122);}.cls-104{fill:url(#linear-gradient-123);}.cls-105{fill:url(#linear-gradient-124);}.cls-106{fill:url(#linear-gradient-125);}.cls-107{fill:url(#linear-gradient-126);}.cls-108{fill:url(#linear-gradient-127);}.cls-109{fill:url(#linear-gradient-128);}.cls-110{fill:url(#linear-gradient-129);}.cls-111{fill:url(#linear-gradient-130);}.cls-112{fill:url(#linear-gradient-131);}.cls-113{fill:url(#linear-gradient-132);}.cls-114{fill:url(#linear-gradient-133);}.cls-115{fill:url(#linear-gradient-134);}.cls-116{fill:url(#linear-gradient-135);}.cls-117{fill:url(#linear-gradient-136);}.cls-118{fill:url(#linear-gradient-137);}.cls-119{fill:url(#linear-gradient-138);}.cls-121{fill:#1d232a;}.cls-122{fill:#fa8d07;}.cls-123{fill:#fa0302;}.cls-124{fill:#394749;}.cls-125{fill:#b3b3b3;}.cls-126{fill:#353535;opacity:0.29;}</style>
        <linearGradient id="linear-gradient" x1="3078.31" y1="829.57" x2="3077.98" y2="829.01"
            gradientTransform="matrix(-0.77, 0, 0, 0.64, 2882.94, 370.33)"
            gradientUnits="userSpaceOnUse">
            <stop offset="0" stop-color="#181818" />
            <stop offset="0.27" stop-color="#262626" />
            <stop offset="0.77" stop-color="#2e2e2e" />
        </linearGradient>
        <linearGradient id="linear-gradient-2" x1="3079.65" y1="828.94" x2="3079.36" y2="828.43"
            xlink:href="#linear-gradient" />
        <linearGradient id="linear-gradient-3" x1="3090.02" y1="830.07" x2="3087.82" y2="826.27"
            xlink:href="#linear-gradient" />
        <linearGradient id="linear-gradient-4" x1="3112.1" y1="853.14" x2="3098.65" y2="829.84"
            xlink:href="#linear-gradient" />
        <linearGradient id="linear-gradient-5" x1="3140.15" y1="862.1" x2="3129.81" y2="844.19"
            xlink:href="#linear-gradient" />
        <linearGradient id="linear-gradient-6" x1="3159.96" y1="951.4" x2="3117.86" y2="878.48"
            xlink:href="#linear-gradient" />
        <linearGradient id="linear-gradient-7" x1="3164.18" y1="889.53" x2="3160.64" y2="883.39"
            xlink:href="#linear-gradient" />
        <linearGradient id="linear-gradient-8" x1="3168.43" y1="896.74" x2="3164.25" y2="889.49"
            xlink:href="#linear-gradient" />
        <linearGradient id="linear-gradient-9" x1="3179.07" y1="919.45" x2="3174.89" y2="912.22"
            xlink:href="#linear-gradient" />
        <linearGradient id="linear-gradient-10" x1="3184.76" y1="934.31" x2="3176.9" y2="920.7"
            xlink:href="#linear-gradient" />
        <linearGradient id="linear-gradient-11" x1="3185.29" y1="1001.44" x2="3183.64" y2="998.57"
            xlink:href="#linear-gradient" />
        <linearGradient id="linear-gradient-12" x1="3187.39" y1="994.21" x2="3185.69" y2="991.27"
            xlink:href="#linear-gradient" />
        <linearGradient id="linear-gradient-13" x1="3189.34" y1="988.15" x2="3186.24" y2="982.79"
            xlink:href="#linear-gradient" />
        <linearGradient id="linear-gradient-14" x1="3192" y1="978.91" x2="3179.89" y2="957.93"
            xlink:href="#linear-gradient" />
        <linearGradient id="linear-gradient-15" x1="2835.15" y1="1006.99" x2="2721.39" y2="809.96"
            gradientTransform="matrix(-0.77, 0, 0, 0.64, 2596.19, 370.33)"
            xlink:href="#linear-gradient" />
        <linearGradient id="linear-gradient-22" x1="3157.58" y1="952.77" x2="3115.48" y2="879.85"
            xlink:href="#linear-gradient" />
        <linearGradient id="linear-gradient-29" x1="2835.99" y1="1005.39" x2="2723.07" y2="809.81"
            gradientTransform="matrix(-0.77, 0, 0, 0.64, 2596.19, 370.33)"
            xlink:href="#linear-gradient" />
        <linearGradient id="linear-gradient-30" x1="3079.24" y1="829.22" x2="3079.81" y2="828.23"
            gradientTransform="matrix(-0.77, 0, 0, 0.64, 2882.94, 370.33)"
            gradientUnits="userSpaceOnUse">
            <stop offset="0" stop-color="#141414" />
            <stop offset="0.44" stop-color="#1e1e1e" />
            <stop offset="0.78" stop-color="#202020" />
            <stop offset="0.98" stop-color="#292929" />
            <stop offset="1" stop-color="#2a2a2a" />
        </linearGradient>
        <linearGradient id="linear-gradient-31" x1="3087.98" y1="829.8" x2="3089.86" y2="826.55"
            xlink:href="#linear-gradient-30" />
        <linearGradient id="linear-gradient-32" x1="3081.13" y1="913.05" x2="3090.87" y2="896.19"
            xlink:href="#linear-gradient-30" />
        <linearGradient id="linear-gradient-33" x1="3100.45" y1="959.11" x2="3110.18" y2="942.26"
            xlink:href="#linear-gradient-30" />
        <linearGradient id="linear-gradient-34" x1="3100.49" y1="849.9" x2="3109.78" y2="833.8"
            xlink:href="#linear-gradient-30" />
        <linearGradient id="linear-gradient-35" x1="3132.81" y1="857.65" x2="3136.95" y2="850.49"
            xlink:href="#linear-gradient-30" />
        <linearGradient id="linear-gradient-36" x1="3161.65" y1="887.88" x2="3163.37" y2="884.92"
            xlink:href="#linear-gradient-30" />
        <linearGradient id="linear-gradient-37" x1="3165.24" y1="895.01" x2="3167.43" y2="891.22"
            xlink:href="#linear-gradient-30" />
        <linearGradient id="linear-gradient-38" x1="3053.59" y1="928.64" x2="3056.9" y2="922.9"
            xlink:href="#linear-gradient-30" />
        <linearGradient id="linear-gradient-39" x1="3070.11" y1="833.66" x2="3072.31" y2="829.85"
            xlink:href="#linear-gradient-30" />
        <linearGradient id="linear-gradient-40" x1="3077.67" y1="829.72" x2="3078.24" y2="828.74"
            xlink:href="#linear-gradient-30" />
        <linearGradient id="linear-gradient-41" x1="3126.7" y1="1021.6" x2="3126.98" y2="1021.1"
            xlink:href="#linear-gradient-30" />
        <linearGradient id="linear-gradient-42" x1="3117.24" y1="944.62" x2="3147.33" y2="892.49"
            xlink:href="#linear-gradient-30" />
        <linearGradient id="linear-gradient-43" x1="3175.64" y1="918.15" x2="3178.32" y2="913.52"
            xlink:href="#linear-gradient-30" />
        <linearGradient id="linear-gradient-44" x1="3178.29" y1="932.07" x2="3183.65" y2="922.78"
            xlink:href="#linear-gradient-30" />
        <linearGradient id="linear-gradient-45" x1="3183.22" y1="1002.16" x2="3185.71" y2="997.85"
            xlink:href="#linear-gradient-30" />
        <linearGradient id="linear-gradient-46" x1="3185.4" y1="994.72" x2="3187.69" y2="990.76"
            xlink:href="#linear-gradient-30" />
        <linearGradient id="linear-gradient-47" x1="3185.99" y1="988.59" x2="3189.59" y2="982.36"
            xlink:href="#linear-gradient-30" />
        <linearGradient id="linear-gradient-48" x1="3180.18" y1="976.41" x2="3189.94" y2="959.5"
            xlink:href="#linear-gradient-30" />
        <linearGradient id="linear-gradient-49" x1="2720.43" y1="980.33" x2="2793.36" y2="854.01"
            gradientTransform="matrix(-0.77, 0, 0, 0.64, 2596.19, 370.33)"
            xlink:href="#linear-gradient-30" />
        <linearGradient id="linear-gradient-50" x1="3079.24" y1="829.22" x2="3079.81" y2="828.23"
            gradientTransform="matrix(-0.77, 0, 0, 0.64, 2882.94, 370.33)"
            gradientUnits="userSpaceOnUse">
            <stop offset="0" stop-color="#161616" />
            <stop offset="0.3" stop-color="#1a1a1a" />
            <stop offset="0.79" stop-color="#1e1e1e" />
            <stop offset="0.8" stop-color="#1e1e1e" />
        </linearGradient>
        <linearGradient id="linear-gradient-51" x1="3087.98" y1="829.8" x2="3089.86" y2="826.55"
            xlink:href="#linear-gradient-50" />
        <linearGradient id="linear-gradient-52" x1="3081.13" y1="913.05" x2="3090.87" y2="896.19"
            xlink:href="#linear-gradient-50" />
        <linearGradient id="linear-gradient-53" x1="3100.45" y1="959.11" x2="3110.18" y2="942.26"
            xlink:href="#linear-gradient-50" />
        <linearGradient id="linear-gradient-54" x1="3100.49" y1="849.9" x2="3109.78" y2="833.8"
            xlink:href="#linear-gradient-50" />
        <linearGradient id="linear-gradient-55" x1="3132.81" y1="857.65" x2="3136.95" y2="850.49"
            xlink:href="#linear-gradient-50" />
        <linearGradient id="linear-gradient-56" x1="3161.65" y1="887.88" x2="3163.37" y2="884.92"
            xlink:href="#linear-gradient-50" />
        <linearGradient id="linear-gradient-57" x1="3165.24" y1="895.01" x2="3167.43" y2="891.22"
            xlink:href="#linear-gradient-50" />
        <linearGradient id="linear-gradient-58" x1="3053.59" y1="928.64" x2="3056.9" y2="922.9"
            xlink:href="#linear-gradient-50" />
        <linearGradient id="linear-gradient-59" x1="3070.11" y1="833.66" x2="3072.31" y2="829.85"
            xlink:href="#linear-gradient-50" />
        <linearGradient id="linear-gradient-60" x1="3077.67" y1="829.72" x2="3078.24" y2="828.74"
            xlink:href="#linear-gradient-50" />
        <linearGradient id="linear-gradient-61" x1="3126.7" y1="1021.6" x2="3126.98" y2="1021.1"
            xlink:href="#linear-gradient-50" />
        <linearGradient id="linear-gradient-62" x1="3117.24" y1="944.62" x2="3147.33" y2="892.49"
            xlink:href="#linear-gradient-50" />
        <linearGradient id="linear-gradient-63" x1="3175.64" y1="918.15" x2="3178.32" y2="913.52"
            xlink:href="#linear-gradient-50" />
        <linearGradient id="linear-gradient-64" x1="3178.29" y1="932.07" x2="3183.65" y2="922.78"
            xlink:href="#linear-gradient-50" />
        <linearGradient id="linear-gradient-65" x1="3183.22" y1="1002.16" x2="3185.71" y2="997.85"
            xlink:href="#linear-gradient-50" />
        <linearGradient id="linear-gradient-66" x1="3185.4" y1="994.72" x2="3187.69" y2="990.76"
            xlink:href="#linear-gradient-50" />
        <linearGradient id="linear-gradient-67" x1="3185.99" y1="988.59" x2="3189.59" y2="982.36"
            xlink:href="#linear-gradient-50" />
        <linearGradient id="linear-gradient-68" x1="3180.18" y1="976.41" x2="3189.94" y2="959.5"
            xlink:href="#linear-gradient-50" />
        <linearGradient id="linear-gradient-69" x1="2720.43" y1="980.33" x2="2793.36" y2="854.01"
            gradientTransform="matrix(-0.77, 0, 0, 0.64, 2596.19, 370.33)"
            xlink:href="#linear-gradient-50" />
        <linearGradient id="linear-gradient-70" x1="2458.42" y1="395.35" x2="2458.1" y2="394.79"
            xlink:href="#linear-gradient" />
        <linearGradient id="linear-gradient-71" x1="2459.77" y1="394.72" x2="2459.48" y2="394.21"
            xlink:href="#linear-gradient" />
        <linearGradient id="linear-gradient-72" x1="2470.14" y1="395.85" x2="2467.94" y2="392.05"
            xlink:href="#linear-gradient" />
        <linearGradient id="linear-gradient-73" x1="2492.22" y1="418.91" x2="2478.77" y2="395.61"
            xlink:href="#linear-gradient" />
        <linearGradient id="linear-gradient-74" x1="2520.27" y1="427.88" x2="2509.93" y2="409.97"
            xlink:href="#linear-gradient" />
        <linearGradient id="linear-gradient-75" x1="2540.07" y1="517.18" x2="2497.98" y2="444.26"
            xlink:href="#linear-gradient" />
        <linearGradient id="linear-gradient-76" x1="2544.3" y1="455.3" x2="2540.76" y2="449.17"
            xlink:href="#linear-gradient" />
        <linearGradient id="linear-gradient-77" x1="2548.55" y1="462.51" x2="2544.37" y2="455.27"
            xlink:href="#linear-gradient" />
        <linearGradient id="linear-gradient-78" x1="2559.19" y1="485.23" x2="2555.01" y2="478"
            xlink:href="#linear-gradient" />
        <linearGradient id="linear-gradient-79" x1="2564.88" y1="500.09" x2="2557.02" y2="486.48"
            xlink:href="#linear-gradient" />
        <linearGradient id="linear-gradient-80" x1="2565.41" y1="567.22" x2="2563.75" y2="564.35"
            xlink:href="#linear-gradient" />
        <linearGradient id="linear-gradient-81" x1="2567.51" y1="559.99" x2="2565.81" y2="557.04"
            xlink:href="#linear-gradient" />
        <linearGradient id="linear-gradient-82" x1="2569.45" y1="553.93" x2="2566.36" y2="548.57"
            xlink:href="#linear-gradient" />
        <linearGradient id="linear-gradient-83" x1="2572.12" y1="544.69" x2="2560" y2="523.71"
            xlink:href="#linear-gradient" />
        <linearGradient id="linear-gradient-84" x1="2215.27" y1="572.77" x2="2101.51" y2="375.73"
            gradientTransform="matrix(-0.77, 0, 0, 0.64, 2596.19, 370.33)"
            xlink:href="#linear-gradient" />
        <linearGradient id="linear-gradient-91" x1="2537.7" y1="518.55" x2="2495.6" y2="445.63"
            xlink:href="#linear-gradient" />
        <linearGradient id="linear-gradient-98" x1="2216.1" y1="571.17" x2="2103.18" y2="375.59"
            gradientTransform="matrix(-0.77, 0, 0, 0.64, 2596.19, 370.33)"
            xlink:href="#linear-gradient" />
        <linearGradient id="linear-gradient-99" x1="2459.36" y1="395" x2="2459.93" y2="394"
            xlink:href="#linear-gradient-30" />
        <linearGradient id="linear-gradient-100" x1="2468.1" y1="395.58" x2="2469.98" y2="392.32"
            xlink:href="#linear-gradient-30" />
        <linearGradient id="linear-gradient-101" x1="2461.25" y1="478.83" x2="2470.99" y2="461.96"
            xlink:href="#linear-gradient-30" />
        <linearGradient id="linear-gradient-102" x1="2480.56" y1="524.89" x2="2490.29" y2="508.04"
            xlink:href="#linear-gradient-30" />
        <linearGradient id="linear-gradient-103" x1="2480.61" y1="415.68" x2="2489.9" y2="399.58"
            xlink:href="#linear-gradient-30" />
        <linearGradient id="linear-gradient-104" x1="2512.93" y1="423.43" x2="2517.07" y2="416.27"
            xlink:href="#linear-gradient-30" />
        <linearGradient id="linear-gradient-105" x1="2541.77" y1="453.66" x2="2543.49" y2="450.69"
            xlink:href="#linear-gradient-30" />
        <linearGradient id="linear-gradient-106" x1="2545.36" y1="460.79" x2="2547.55" y2="457"
            xlink:href="#linear-gradient-30" />
        <linearGradient id="linear-gradient-107" x1="2433.71" y1="494.42" x2="2437.02" y2="488.68"
            xlink:href="#linear-gradient-30" />
        <linearGradient id="linear-gradient-108" x1="2450.23" y1="399.44" x2="2452.43" y2="395.63"
            xlink:href="#linear-gradient-30" />
        <linearGradient id="linear-gradient-109" x1="2457.79" y1="395.49" x2="2458.35" y2="394.52"
            xlink:href="#linear-gradient-30" />
        <linearGradient id="linear-gradient-110" x1="2506.81" y1="587.37" x2="2507.1" y2="586.88"
            xlink:href="#linear-gradient-30" />
        <linearGradient id="linear-gradient-111" x1="2497.36" y1="510.4" x2="2527.45" y2="458.27"
            xlink:href="#linear-gradient-30" />
        <linearGradient id="linear-gradient-112" x1="2555.76" y1="483.93" x2="2558.44" y2="479.3"
            xlink:href="#linear-gradient-30" />
        <linearGradient id="linear-gradient-113" x1="2558.41" y1="497.85" x2="2563.77" y2="488.56"
            xlink:href="#linear-gradient-30" />
        <linearGradient id="linear-gradient-114" x1="2563.34" y1="567.94" x2="2565.83" y2="563.63"
            xlink:href="#linear-gradient-30" />
        <linearGradient id="linear-gradient-115" x1="2565.52" y1="560.49" x2="2567.8" y2="556.54"
            xlink:href="#linear-gradient-30" />
        <linearGradient id="linear-gradient-116" x1="2566.11" y1="554.36" x2="2569.7" y2="548.14"
            xlink:href="#linear-gradient-30" />
        <linearGradient id="linear-gradient-117" x1="2560.29" y1="542.19" x2="2570.05" y2="525.28"
            xlink:href="#linear-gradient-30" />
        <linearGradient id="linear-gradient-118" x1="2100.55" y1="546.11" x2="2173.48" y2="419.79"
            gradientTransform="matrix(-0.77, 0, 0, 0.64, 2596.19, 370.33)"
            xlink:href="#linear-gradient-30" />
        <linearGradient id="linear-gradient-119" x1="2459.36" y1="395" x2="2459.93" y2="394"
            xlink:href="#linear-gradient-50" />
        <linearGradient id="linear-gradient-120" x1="2468.1" y1="395.58" x2="2469.98" y2="392.32"
            xlink:href="#linear-gradient-50" />
        <linearGradient id="linear-gradient-121" x1="2461.25" y1="478.83" x2="2470.99" y2="461.96"
            xlink:href="#linear-gradient-50" />
        <linearGradient id="linear-gradient-122" x1="2480.56" y1="524.89" x2="2490.29" y2="508.04"
            xlink:href="#linear-gradient-50" />
        <linearGradient id="linear-gradient-123" x1="2480.61" y1="415.68" x2="2489.9" y2="399.58"
            xlink:href="#linear-gradient-50" />
        <linearGradient id="linear-gradient-124" x1="2512.93" y1="423.43" x2="2517.07" y2="416.27"
            xlink:href="#linear-gradient-50" />
        <linearGradient id="linear-gradient-125" x1="2541.77" y1="453.66" x2="2543.49" y2="450.69"
            xlink:href="#linear-gradient-50" />
        <linearGradient id="linear-gradient-126" x1="2545.36" y1="460.79" x2="2547.55" y2="457"
            xlink:href="#linear-gradient-50" />
        <linearGradient id="linear-gradient-127" x1="2433.71" y1="494.42" x2="2437.02" y2="488.68"
            xlink:href="#linear-gradient-50" />
        <linearGradient id="linear-gradient-128" x1="2450.23" y1="399.44" x2="2452.43" y2="395.63"
            xlink:href="#linear-gradient-50" />
        <linearGradient id="linear-gradient-129" x1="2457.79" y1="395.49" x2="2458.35" y2="394.52"
            xlink:href="#linear-gradient-50" />
        <linearGradient id="linear-gradient-130" x1="2506.81" y1="587.37" x2="2507.1" y2="586.88"
            xlink:href="#linear-gradient-50" />
        <linearGradient id="linear-gradient-131" x1="2497.36" y1="510.4" x2="2527.45" y2="458.27"
            xlink:href="#linear-gradient-50" />
        <linearGradient id="linear-gradient-132" x1="2555.76" y1="483.93" x2="2558.44" y2="479.3"
            xlink:href="#linear-gradient-50" />
        <linearGradient id="linear-gradient-133" x1="2558.41" y1="497.85" x2="2563.77" y2="488.56"
            xlink:href="#linear-gradient-50" />
        <linearGradient id="linear-gradient-134" x1="2563.34" y1="567.94" x2="2565.83" y2="563.63"
            xlink:href="#linear-gradient-50" />
        <linearGradient id="linear-gradient-135" x1="2565.52" y1="560.49" x2="2567.8" y2="556.54"
            xlink:href="#linear-gradient-50" />
        <linearGradient id="linear-gradient-136" x1="2566.11" y1="554.36" x2="2569.7" y2="548.14"
            xlink:href="#linear-gradient-50" />
        <linearGradient id="linear-gradient-137" x1="2560.29" y1="542.19" x2="2570.05" y2="525.28"
            xlink:href="#linear-gradient-50" />
        <linearGradient id="linear-gradient-138" x1="2100.55" y1="546.11" x2="2173.48" y2="419.79"
            gradientTransform="matrix(-0.77, 0, 0, 0.64, 2596.19, 370.33)"
            xlink:href="#linear-gradient-50" />
    </defs>
    <path class="cls-1"
        d="M439.31,857.93c20.73-11.52,39.52-12.59,53.09-5l38.74,21.68a.75.75,0,0,0-.13-.06c13.47,7.46,21.83,23.41,21.9,46.13.13,45.58-33.17,101.12-74.37,124-22.05,12.26-41.83,12.59-55.54,3.36.81.55,1.59,1.16,2.45,1.65L386.7,1028c-13.39-7.5-21.7-23.43-21.76-46.07C364.8,936.37,398.11,880.84,439.31,857.93Zm39.14,157.61c26.64-14.8,48.19-50.74,48.1-80.21S504.77,894,478.14,908.77,430,959.51,430,989,451.81,1030.35,478.45,1015.54Z" />
    <path class="cls-2" d="M512.16,903.9c.13.24.39.36.51.6l.26-.36A1.91,1.91,0,0,0,512.16,903.9Z" />
    <path class="cls-3" d="M510.75,903.67c.52.12.9.12,1.28.23l-.12-.11Z" />
    <path class="cls-4"
        d="M501,903.55a37.62,37.62,0,0,1,6.28-.24,6.71,6.71,0,0,0-1.54-.12h-.51c-.9,0-1.67.12-2.44.12C502.3,903.43,501.66,903.43,501,903.55Z" />
    <path class="cls-5"
        d="M487.57,920c2.95.71,7.17-2.37,9.48-6.75,1.92-3.79,1.66-7.58-.64-8.88h-.13a31.44,31.44,0,0,0-4.1,1.06c-1,.36-2.05.71-3.2,1.19a14,14,0,0,0-2.94,4C483.73,915.16,484.5,919.3,487.57,920Z" />
    <path class="cls-6"
        d="M462.21,924c1.28.83,3.21.83,5.25-.24a13.94,13.94,0,0,0,6.66-9.36A111,111,0,0,0,462.21,924Z" />
    <path class="cls-7"
        d="M449.66,973.3c0,8.18,4.1,13.15,10.38,13.74l.89-1.42c-3.58-1.78-5.89-5.8-5.89-11.61,0-11.25,8.71-25.1,19.34-30.79,5.63-3,10.63-3.08,14.22-.94l.89-1.43c-3.71-5-10.63-5.92-18.57-1.65C459.14,945.59,449.66,960.75,449.66,973.3Z" />
    <path class="cls-8"
        d="M446.08,942.87a14.78,14.78,0,0,0,1.28-1.42,12.88,12.88,0,0,0,1.53-2.49C447.87,940.26,447,941.56,446.08,942.87Z" />
    <path class="cls-9"
        d="M443,947.6c1-1.65,2.05-3.19,3.08-4.73-1,1.42-1.92,3-2.95,4.38A.41.41,0,0,0,443,947.6Z" />
    <path class="cls-10"
        d="M435.19,962.41c.77-1.66,1.54-3.32,2.31-5.09-.39.71-.64,1.42-1,2C436.09,960.39,435.57,961.34,435.19,962.41Z" />
    <path class="cls-11"
        d="M431.35,972.24a14.07,14.07,0,0,0,3.58-6,7.78,7.78,0,0,0,.26-3.79c-.64,1.3-1.15,2.6-1.66,3.91a27.33,27.33,0,0,0-1.29,3.43A20.64,20.64,0,0,0,431.35,972.24Z" />
    <path class="cls-12"
        d="M429.94,1012.5a8.32,8.32,0,0,0,.64,1.9c.26.35.39.83.64,1.18A22.35,22.35,0,0,1,429.94,1012.5Z" />
    <path class="cls-13"
        d="M428.53,1007.88c.13.6.26,1.19.38,1.78a3.39,3.39,0,0,1,.52,1.19A20.19,20.19,0,0,1,428.53,1007.88Z" />
    <path class="cls-120"
        d="M427.64,1002.2c.12,1.07.25,2.13.38,3.08a10.55,10.55,0,0,0,.38,1.89C428.15,1005.52,427.89,1004,427.64,1002.2Z" />
    <path class="cls-15"
        d="M427.25,996.28a37.52,37.52,0,0,0,.39,5.56,9.49,9.49,0,0,0,2.94-1.89c3.59-3.08,5.51-8.17,4.35-11.37-1-2.72-3.84-3.2-7-1.3v.12A71.39,71.39,0,0,0,427.25,996.28Z" />
    <path class="cls-16"
        d="M420.09,996.51c0,13.6,4.14,23.78,11.22,30.23a8.19,8.19,0,0,0,2.07,1.71l.55-.7a10.75,10.75,0,0,1-1.53-1.72c-5.67-6.45-8.83-15.92-8.83-27.71a62.76,62.76,0,0,1,.44-7.86c3.49-32.15,28-68.53,57.43-84.35,11.23-6,21.91-8.26,30.84-7a20.31,20.31,0,0,1,3.38.7h.11l.33-.6c-1.2-.4-2.51-.91-3.82-1.31-9.7-2.32-21.47-.6-34.44,6.35C445.91,921.33,420.09,962.55,420.09,996.51Z" />
    <path class="cls-3" d="M510.75,903.67c.52.12.9.12,1.28.23l-.12-.11Z" />
    <path class="cls-4"
        d="M501,903.55a37.62,37.62,0,0,1,6.28-.24,6.71,6.71,0,0,0-1.54-.12h-.51c-.9,0-1.67.12-2.44.12C502.3,903.43,501.66,903.43,501,903.55Z" />
    <path class="cls-5"
        d="M487.57,920c2.95.71,7.17-2.37,9.48-6.75,1.92-3.79,1.66-7.58-.64-8.88h-.13a31.44,31.44,0,0,0-4.1,1.06c-1,.36-2.05.71-3.2,1.19a14,14,0,0,0-2.94,4C483.73,915.16,484.5,919.3,487.57,920Z" />
    <path class="cls-6"
        d="M462.21,924c1.28.83,3.21.83,5.25-.24a13.94,13.94,0,0,0,6.66-9.36A111,111,0,0,0,462.21,924Z" />
    <path class="cls-8"
        d="M446.08,942.87a14.78,14.78,0,0,0,1.28-1.42,12.88,12.88,0,0,0,1.53-2.49C447.87,940.26,447,941.56,446.08,942.87Z" />
    <path class="cls-9"
        d="M443,947.6c1-1.65,2.05-3.19,3.08-4.73-1,1.42-1.92,3-2.95,4.38A.41.41,0,0,0,443,947.6Z" />
    <path class="cls-17"
        d="M449.66,973.3c0,8.18,4.1,13.15,10.38,13.74a12.82,12.82,0,0,0,5.12-.35,12.31,12.31,0,0,1-4.23-1.07c-3.58-1.78-5.89-5.8-5.89-11.61,0-11.25,8.71-25.1,19.34-30.79,5.63-3,10.63-3.08,14.22-.94a8.39,8.39,0,0,1,2.81,2.72,14,14,0,0,0-1.92-4.15c-3.71-5-10.63-5.92-18.57-1.65C459.14,945.59,449.66,960.75,449.66,973.3Z" />
    <path class="cls-10"
        d="M435.19,962.41c.77-1.66,1.54-3.32,2.31-5.09-.39.71-.64,1.42-1,2C436.09,960.39,435.57,961.34,435.19,962.41Z" />
    <path class="cls-11"
        d="M431.35,972.24a14.07,14.07,0,0,0,3.58-6,7.78,7.78,0,0,0,.26-3.79c-.64,1.3-1.15,2.6-1.66,3.91a27.33,27.33,0,0,0-1.29,3.43A20.64,20.64,0,0,0,431.35,972.24Z" />
    <path class="cls-12"
        d="M429.94,1012.5a8.32,8.32,0,0,0,.64,1.9c.26.35.39.83.64,1.18A22.35,22.35,0,0,1,429.94,1012.5Z" />
    <path class="cls-13"
        d="M428.53,1007.88c.13.6.26,1.19.38,1.78a3.39,3.39,0,0,1,.52,1.19A20.19,20.19,0,0,1,428.53,1007.88Z" />
    <path class="cls-120"
        d="M427.64,1002.2c.12,1.07.25,2.13.38,3.08a10.55,10.55,0,0,0,.38,1.89C428.15,1005.52,427.89,1004,427.64,1002.2Z" />
    <path class="cls-15"
        d="M427.25,996.28a37.52,37.52,0,0,0,.39,5.56,9.49,9.49,0,0,0,2.94-1.89c3.59-3.08,5.51-8.17,4.35-11.37-1-2.72-3.84-3.2-7-1.3v.12A71.39,71.39,0,0,0,427.25,996.28Z" />
    <path class="cls-18"
        d="M420.09,996.51c0,13.6,4.14,23.78,11.22,30.23.44-.3.66-.41,1.09-.71-5.67-6.45-8.83-15.92-8.83-27.71a62.76,62.76,0,0,1,.44-7.86c3.49-32.15,28-68.53,57.43-84.35,11.23-6,21.91-8.26,30.84-7a4.44,4.44,0,0,0,0-1.21c-9.7-2.32-21.47-.6-34.44,6.35C445.91,921.33,420.09,962.55,420.09,996.51Z" />
    <path class="cls-19" d="M510.75,903.67c.52.12.9.12,1.28.23l-.12-.11Z" />
    <path class="cls-20"
        d="M501,903.55a37.62,37.62,0,0,1,6.28-.24,6.71,6.71,0,0,0-1.54-.12h-.51c-.9,0-1.67.12-2.44.12C502.3,903.43,501.66,903.43,501,903.55Z" />
    <path class="cls-21"
        d="M504.35,960.63c3.59-.71,7.43-4.85,8.58-9.24s-.9-7.46-4.48-6.75-7.3,4.74-8.46,9.24S500.76,961.34,504.35,960.63Z" />
    <path class="cls-22"
        d="M486,989.53c2.17,2,6.4.47,9.47-3.55s3.72-8.77,1.54-10.9-6.53-.47-9.48,3.55S483.86,987.4,486,989.53Z" />
    <path class="cls-23"
        d="M487.57,920c2.95.71,7.17-2.37,9.48-6.75,1.92-3.79,1.66-7.58-.64-8.88h-.13a31.44,31.44,0,0,0-4.1,1.06c-1,.36-2.05.71-3.2,1.19a14,14,0,0,0-2.94,4C483.73,915.16,484.5,919.3,487.57,920Z" />
    <path class="cls-24"
        d="M462.21,924c1.28.83,3.21.83,5.25-.24a13.94,13.94,0,0,0,6.66-9.36A111,111,0,0,0,462.21,924Z" />
    <path class="cls-25"
        d="M446.08,942.87a14.78,14.78,0,0,0,1.28-1.42,12.88,12.88,0,0,0,1.53-2.49C447.87,940.26,447,941.56,446.08,942.87Z" />
    <path class="cls-26"
        d="M443,947.6c1-1.65,2.05-3.19,3.08-4.73-1,1.42-1.92,3-2.95,4.38A.41.41,0,0,0,443,947.6Z" />
    <path class="cls-27"
        d="M530.73,964.3c-.51,1.66-1.15,3.32-1.79,5a56,56,0,0,0,2.3-6A4.28,4.28,0,0,0,530.73,964.3Z" />
    <path class="cls-28"
        d="M517.8,905.56A8.26,8.26,0,0,0,516,905a12.26,12.26,0,0,1,2.82,1.3l.13.12a1.48,1.48,0,0,1,.64.12c-.38-.24-.77-.36-1.15-.59a1792908445838,1792908445838,0,0,1-.52-.24C517.8,905.68,517.8,905.68,517.8,905.56Z" />
    <path class="cls-29" d="M512.93,904.14a1.91,1.91,0,0,0-.77-.24c.13.24.39.36.51.6Z" />
    <path class="cls-30"
        d="M471.82,1029.08a55.39,55.39,0,0,0,6.27-2.6c-1,.47-2.17,1-3.2,1.3S472.84,1028.73,471.82,1029.08Z" />
    <path class="cls-31"
        d="M449.66,973.3c0,8.18,4.1,13.15,10.38,13.74a12.82,12.82,0,0,0,5.12-.35,12.31,12.31,0,0,1-4.23-1.07c-3.58-1.78-5.89-5.8-5.89-11.61,0-11.25,8.71-25.1,19.34-30.79,5.63-3,10.63-3.08,14.22-.94a8.39,8.39,0,0,1,2.81,2.72,14,14,0,0,0-1.92-4.15c-3.71-5-10.63-5.92-18.57-1.65C459.14,945.59,449.66,960.75,449.66,973.3Z" />
    <path class="cls-32"
        d="M435.19,962.41c.77-1.66,1.54-3.32,2.31-5.09-.39.71-.64,1.42-1,2C436.09,960.39,435.57,961.34,435.19,962.41Z" />
    <path class="cls-33"
        d="M431.35,972.24a14.07,14.07,0,0,0,3.58-6,7.78,7.78,0,0,0,.26-3.79c-.64,1.3-1.15,2.6-1.66,3.91a27.33,27.33,0,0,0-1.29,3.43A20.64,20.64,0,0,0,431.35,972.24Z" />
    <path class="cls-34"
        d="M429.94,1012.5a8.32,8.32,0,0,0,.64,1.9c.26.35.39.83.64,1.18A22.35,22.35,0,0,1,429.94,1012.5Z" />
    <path class="cls-35"
        d="M428.53,1007.88c.13.6.26,1.19.38,1.78a3.39,3.39,0,0,1,.52,1.19A20.19,20.19,0,0,1,428.53,1007.88Z" />
    <path class="cls-36"
        d="M427.64,1002.2c.12,1.07.25,2.13.38,3.08a10.55,10.55,0,0,0,.38,1.89C428.15,1005.52,427.89,1004,427.64,1002.2Z" />
    <path class="cls-37"
        d="M427.25,996.28a37.52,37.52,0,0,0,.39,5.56,9.49,9.49,0,0,0,2.94-1.89c3.59-3.08,5.51-8.17,4.35-11.37-1-2.72-3.84-3.2-7-1.3v.12A71.39,71.39,0,0,0,427.25,996.28Z" />
    <path class="cls-38"
        d="M420.09,996.51c0,13.6,4.14,23.78,11.22,30.23a8.19,8.19,0,0,0,2.07,1.71l.11.2a34,34,0,0,0,5.12,2.92,27.19,27.19,0,0,1-4.68-3.82,10.75,10.75,0,0,1-1.53-1.72c-5.67-6.45-8.83-15.92-8.83-27.71a62.76,62.76,0,0,1,.44-7.86c3.49-32.15,28-68.53,57.43-84.35,11.23-6,21.91-8.26,30.84-7a20.31,20.31,0,0,1,3.38.7h.11a26.8,26.8,0,0,1,4.79,1.72,15,15,0,0,0-4.46-2.32c-1.2-.4-2.51-.91-3.82-1.31-9.7-2.32-21.47-.6-34.44,6.35C445.91,921.33,420.09,962.55,420.09,996.51Z" />
    <path class="cls-39" d="M510.75,903.67c.52.12.9.12,1.28.23l-.12-.11Z" />
    <path class="cls-40"
        d="M501,903.55a37.62,37.62,0,0,1,6.28-.24,6.71,6.71,0,0,0-1.54-.12h-.51c-.9,0-1.67.12-2.44.12C502.3,903.43,501.66,903.43,501,903.55Z" />
    <path class="cls-41"
        d="M504.35,960.63c3.59-.71,7.43-4.85,8.58-9.24s-.9-7.46-4.48-6.75-7.3,4.74-8.46,9.24S500.76,961.34,504.35,960.63Z" />
    <path class="cls-42"
        d="M486,989.53c2.17,2,6.4.47,9.47-3.55s3.72-8.77,1.54-10.9-6.53-.47-9.48,3.55S483.86,987.4,486,989.53Z" />
    <path class="cls-43"
        d="M487.57,920c2.95.71,7.17-2.37,9.48-6.75,1.92-3.79,1.66-7.58-.64-8.88h-.13a31.44,31.44,0,0,0-4.1,1.06c-1,.36-2.05.71-3.2,1.19a14,14,0,0,0-2.94,4C483.73,915.16,484.5,919.3,487.57,920Z" />
    <path class="cls-44"
        d="M462.21,924c1.28.83,3.21.83,5.25-.24a13.94,13.94,0,0,0,6.66-9.36A111,111,0,0,0,462.21,924Z" />
    <path class="cls-45"
        d="M446.08,942.87a14.78,14.78,0,0,0,1.28-1.42,12.88,12.88,0,0,0,1.53-2.49C447.87,940.26,447,941.56,446.08,942.87Z" />
    <path class="cls-46"
        d="M443,947.6c1-1.65,2.05-3.19,3.08-4.73-1,1.42-1.92,3-2.95,4.38A.41.41,0,0,0,443,947.6Z" />
    <path class="cls-47"
        d="M530.73,964.3c-.51,1.66-1.15,3.32-1.79,5a56,56,0,0,0,2.3-6A4.28,4.28,0,0,0,530.73,964.3Z" />
    <path class="cls-48"
        d="M517.8,905.56A8.26,8.26,0,0,0,516,905a12.26,12.26,0,0,1,2.82,1.3l.13.12a1.48,1.48,0,0,1,.64.12c-.38-.24-.77-.36-1.15-.59a1792908445838,1792908445838,0,0,1-.52-.24C517.8,905.68,517.8,905.68,517.8,905.56Z" />
    <path class="cls-49" d="M512.93,904.14a1.91,1.91,0,0,0-.77-.24c.13.24.39.36.51.6Z" />
    <path class="cls-50"
        d="M471.82,1029.08a55.39,55.39,0,0,0,6.27-2.6c-1,.47-2.17,1-3.2,1.3S472.84,1028.73,471.82,1029.08Z" />
    <path class="cls-51"
        d="M449.66,973.3c0,8.18,4.1,13.15,10.38,13.74a12.82,12.82,0,0,0,5.12-.35,12.31,12.31,0,0,1-4.23-1.07c-3.58-1.78-5.89-5.8-5.89-11.61,0-11.25,8.71-25.1,19.34-30.79,5.63-3,10.63-3.08,14.22-.94a8.39,8.39,0,0,1,2.81,2.72,14,14,0,0,0-1.92-4.15c-3.71-5-10.63-5.92-18.57-1.65C459.14,945.59,449.66,960.75,449.66,973.3Z" />
    <path class="cls-52"
        d="M435.19,962.41c.77-1.66,1.54-3.32,2.31-5.09-.39.71-.64,1.42-1,2C436.09,960.39,435.57,961.34,435.19,962.41Z" />
    <path class="cls-53"
        d="M431.35,972.24a14.07,14.07,0,0,0,3.58-6,7.78,7.78,0,0,0,.26-3.79c-.64,1.3-1.15,2.6-1.66,3.91a27.33,27.33,0,0,0-1.29,3.43A20.64,20.64,0,0,0,431.35,972.24Z" />
    <path class="cls-54"
        d="M429.94,1012.5a8.32,8.32,0,0,0,.64,1.9c.26.35.39.83.64,1.18A22.35,22.35,0,0,1,429.94,1012.5Z" />
    <path class="cls-55"
        d="M428.53,1007.88c.13.6.26,1.19.38,1.78a3.39,3.39,0,0,1,.52,1.19A20.19,20.19,0,0,1,428.53,1007.88Z" />
    <path class="cls-56"
        d="M427.64,1002.2c.12,1.07.25,2.13.38,3.08a10.55,10.55,0,0,0,.38,1.89C428.15,1005.52,427.89,1004,427.64,1002.2Z" />
    <path class="cls-57"
        d="M427.25,996.28a37.52,37.52,0,0,0,.39,5.56,9.49,9.49,0,0,0,2.94-1.89c3.59-3.08,5.51-8.17,4.35-11.37-1-2.72-3.84-3.2-7-1.3v.12A71.39,71.39,0,0,0,427.25,996.28Z" />
    <path class="cls-58"
        d="M420.09,996.51c0,13.6,4.14,23.78,11.22,30.23a8.19,8.19,0,0,0,2.07,1.71l.11.2a34,34,0,0,0,5.12,2.92,27.19,27.19,0,0,1-4.68-3.82,10.75,10.75,0,0,1-1.53-1.72c-5.67-6.45-8.83-15.92-8.83-27.71a62.76,62.76,0,0,1,.44-7.86c3.49-32.15,28-68.53,57.43-84.35,11.23-6,21.91-8.26,30.84-7a20.31,20.31,0,0,1,3.38.7h.11a26.8,26.8,0,0,1,4.79,1.72,15,15,0,0,0-4.46-2.32c-1.2-.4-2.51-.91-3.82-1.31-9.7-2.32-21.47-.6-34.44,6.35C445.91,921.33,420.09,962.55,420.09,996.51Z" />
    <path class="cls-59"
        d="M504.35,960.63c3.59-.71,7.43-4.85,8.58-9.24s-.9-7.46-4.48-6.75-7.3,4.74-8.46,9.24S500.76,961.34,504.35,960.63Z" />
    <path class="cls-59"
        d="M486,989.53c2.17,2,6.4.47,9.47-3.55s3.72-8.77,1.54-10.9-6.53-.47-9.48,3.55S483.86,987.4,486,989.53Z" />
    <path class="cls-59"
        d="M487.57,920c2.95.71,7.17-2.37,9.48-6.75,1.92-3.79,1.66-7.58-.64-8.88h-.13a31.44,31.44,0,0,0-4.1,1.06c-1,.36-2.05.71-3.2,1.19a14,14,0,0,0-2.94,4C483.73,915.16,484.5,919.3,487.57,920Z" />
    <path class="cls-59"
        d="M462.21,924c1.28.83,3.21.83,5.25-.24a13.94,13.94,0,0,0,6.66-9.36A111,111,0,0,0,462.21,924Z" />
    <path class="cls-59"
        d="M446.08,942.87a14.78,14.78,0,0,0,1.28-1.42,12.88,12.88,0,0,0,1.53-2.49C447.87,940.26,447,941.56,446.08,942.87Z" />
    <path class="cls-59"
        d="M530.73,964.3c-.51,1.66-1.15,3.32-1.79,5a56,56,0,0,0,2.3-6A4.28,4.28,0,0,0,530.73,964.3Z" />
    <path class="cls-59" d="M512.93,904.14a1.91,1.91,0,0,0-.77-.24c.13.24.39.36.51.6Z" />
    <path class="cls-59"
        d="M471.82,1029.08a55.39,55.39,0,0,0,6.27-2.6c-1,.47-2.17,1-3.2,1.3S472.84,1028.73,471.82,1029.08Z" />
    <path class="cls-59"
        d="M449.66,973.3c0,8.18,4.1,13.15,10.38,13.74a12.82,12.82,0,0,0,5.12-.35,12.31,12.31,0,0,1-4.23-1.07c-3.58-1.78-5.89-5.8-5.89-11.61,0-11.25,8.71-25.1,19.34-30.79,5.63-3,10.63-3.08,14.22-.94a8.39,8.39,0,0,1,2.81,2.72,14,14,0,0,0-1.92-4.15c-3.71-5-10.63-5.92-18.57-1.65C459.14,945.59,449.66,960.75,449.66,973.3Z" />
    <path class="cls-59"
        d="M431.35,972.24a14.07,14.07,0,0,0,3.58-6,7.78,7.78,0,0,0,.26-3.79c-.64,1.3-1.15,2.6-1.66,3.91a27.33,27.33,0,0,0-1.29,3.43A20.64,20.64,0,0,0,431.35,972.24Z" />
    <path class="cls-59"
        d="M427.25,996.28a37.52,37.52,0,0,0,.39,5.56,9.49,9.49,0,0,0,2.94-1.89c3.59-3.08,5.51-8.17,4.35-11.37-1-2.72-3.84-3.2-7-1.3v.12A71.39,71.39,0,0,0,427.25,996.28Z" />
    <path class="cls-59"
        d="M471.82,1029.08a55.39,55.39,0,0,0,6.27-2.6c-1,.47-2.17,1-3.2,1.3S472.84,1028.73,471.82,1029.08Zm47.77-122.57c-.38-.24-.77-.36-1.15-.59l.38.35.13.12A1.48,1.48,0,0,1,519.59,906.51Zm-99.5,90c0,13.6,4.14,23.78,11.22,30.23a8.19,8.19,0,0,0,2.07,1.71l.11.2a34,34,0,0,0,5.12,2.92,27.19,27.19,0,0,1-4.68-3.82,10.75,10.75,0,0,1-1.53-1.72c-5.67-6.45-8.83-15.92-8.83-27.71a62.76,62.76,0,0,1,.44-7.86c3.49-32.15,28-68.53,57.43-84.35,11.23-6,21.91-8.26,30.84-7a20.31,20.31,0,0,1,3.38.7h.11a26.8,26.8,0,0,1,4.79,1.72,15,15,0,0,0-4.46-2.32c-1.2-.4-2.51-.91-3.82-1.31-9.7-2.32-21.47-.6-34.44,6.35C445.91,921.33,420.09,962.55,420.09,996.51Z" />
    <path class="cls-60"
        d="M504.35,960.63c3.59-.71,7.43-4.85,8.58-9.24s-.9-7.46-4.48-6.75-7.3,4.74-8.46,9.24S500.76,961.34,504.35,960.63Z" />
    <path class="cls-60"
        d="M486,989.53c2.17,2,6.4.47,9.47-3.55s3.72-8.77,1.54-10.9-6.53-.47-9.48,3.55S483.86,987.4,486,989.53Z" />
    <path class="cls-60"
        d="M487.57,920c2.95.71,7.17-2.37,9.48-6.75,1.92-3.79,1.66-7.58-.64-8.88h-.13a31.44,31.44,0,0,0-4.1,1.06c-1,.36-2.05.71-3.2,1.19a14,14,0,0,0-2.94,4C483.73,915.16,484.5,919.3,487.57,920Z" />
    <path class="cls-60"
        d="M462.21,924c1.28.83,3.21.83,5.25-.24a13.94,13.94,0,0,0,6.66-9.36A111,111,0,0,0,462.21,924Z" />
    <path class="cls-60"
        d="M446.08,942.87a14.78,14.78,0,0,0,1.28-1.42,12.88,12.88,0,0,0,1.53-2.49C447.87,940.26,447,941.56,446.08,942.87Z" />
    <path class="cls-60"
        d="M449.66,973.3c0,8.18,4.1,13.15,10.38,13.74a12.82,12.82,0,0,0,5.12-.35,12.31,12.31,0,0,1-4.23-1.07c-3.58-1.78-5.89-5.8-5.89-11.61,0-11.25,8.71-25.1,19.34-30.79,5.63-3,10.63-3.08,14.22-.94a8.39,8.39,0,0,1,2.81,2.72,14,14,0,0,0-1.92-4.15c-3.71-5-10.63-5.92-18.57-1.65C459.14,945.59,449.66,960.75,449.66,973.3Z" />
    <path class="cls-60"
        d="M431.35,972.24a14.07,14.07,0,0,0,3.58-6,7.78,7.78,0,0,0,.26-3.79c-.64,1.3-1.15,2.6-1.66,3.91a27.33,27.33,0,0,0-1.29,3.43A20.64,20.64,0,0,0,431.35,972.24Z" />
    <path class="cls-60"
        d="M427.25,996.28a37.52,37.52,0,0,0,.39,5.56,9.49,9.49,0,0,0,2.94-1.89c3.59-3.08,5.51-8.17,4.35-11.37-1-2.72-3.84-3.2-7-1.3v.12A71.39,71.39,0,0,0,427.25,996.28Z" />
    <path class="cls-61"
        d="M528.94,969.28a56,56,0,0,0,2.3-6,4.28,4.28,0,0,0-.51,1.06C530.22,966,529.58,967.62,528.94,969.28Zm-57.12,59.8a55.39,55.39,0,0,0,6.27-2.6c-1,.47-2.17,1-3.2,1.3S472.84,1028.73,471.82,1029.08Z" />
    <path class="cls-61"
        d="M423.57,998.32c0,11.79,3.16,21.26,8.83,27.71a10.75,10.75,0,0,0,1.53,1.72,27.19,27.19,0,0,0,4.68,3.82c10.57,6.66,25.83,6.25,42.83-2.72,31.82-17.13,57.76-58.34,57.76-92.3,0-17.74-7.19-29.93-18.64-35a26.8,26.8,0,0,0-4.79-1.72h-.11a20.31,20.31,0,0,0-3.38-.7c-8.93-1.31-19.61.91-30.84,7C452,921.93,427.5,958.31,424,990.46A62.76,62.76,0,0,0,423.57,998.32Zm3.71-2a62.48,62.48,0,0,1,.65-8.86v-.21c.11-1.1.33-2.31.55-3.62s.54-2.62.87-3.93v-.1a2.83,2.83,0,0,1,.22-.81,2.28,2.28,0,0,1,.22-.81v-.4c.11-.5.32-.91.43-1.41a35.72,35.72,0,0,1,1.09-3.63v-.3a24.53,24.53,0,0,1,1-2.42,36.54,36.54,0,0,1,1.2-3.53c.55-1.31,1.09-2.52,1.75-3.83l.65-1.51a10.21,10.21,0,0,0,.55-1.61c.43-.6.65-1.31,1.08-2,.66-1.3,1.42-2.72,2.18-4a2.9,2.9,0,0,1,.44-.8c1-1.72,1.85-3.33,2.83-4.84a.56.56,0,0,1,.11-.4,13.81,13.81,0,0,0,1.42-2c.54-.8,1-1.61,1.52-2.32,1-1.31,1.86-2.62,2.84-3.93,0-.1,0-.1.22-.2,1-1.21,1.85-2.52,2.94-3.83s2.18-2.62,3.27-3.83a90.78,90.78,0,0,1,7-7.05,102.21,102.21,0,0,1,11.88-9.57,20.73,20.73,0,0,1,3.6-2.32c1.3-.81,2.39-1.41,3.7-2.12s2.4-1.31,3.82-1.91a16.93,16.93,0,0,0,2-.81c1.74-.7,3.49-1.41,5-1.91a28.62,28.62,0,0,1,4-1h.11c.22,0,.33-.1.44-.1a9.69,9.69,0,0,1,1.63-.4,8.44,8.44,0,0,1,1.53-.21c.43,0,.65-.1,1.09-.1a13,13,0,0,1,1.74-.3c.76,0,1.53-.1,2.4-.1h.54a7.33,7.33,0,0,1,1.53.1,7.79,7.79,0,0,1,1.63.1,10.19,10.19,0,0,1,1.86.3,4.27,4.27,0,0,1,.65.1H512l.11.11h.1a2.2,2.2,0,0,1,.77.2h.1l2.29.6a1.3,1.3,0,0,1,.66.3,9.05,9.05,0,0,1,1.52.51.43.43,0,0,1,.33.1c0,.1,0,.1.11.1a13.33,13.33,0,0,1,.43.2,9.52,9.52,0,0,1,1.2.61c.11,0,.22.1.44.1a.1.1,0,0,1,.11.1.1.1,0,0,0,.11.1c.11,0,.22.2.32.3a2.46,2.46,0,0,1,.55.3.77.77,0,0,0,.22.3c.43.11.65.31,1,.41,0,.2.11.2.11.2h.11a2.36,2.36,0,0,1,.54.3l.22.2c.54.41,1.09.91,1.53,1.31s.54.51.76.71.43.5.65.7a11.87,11.87,0,0,1,1.2,1.31,9.55,9.55,0,0,1,1.64,2.22c.21.3.54.81.76,1.11.22.5.54.91.76,1.31.22.6.66,1.21.87,1.81a.56.56,0,0,1,.33.51,3.94,3.94,0,0,1,.44,1.21,23.58,23.58,0,0,1,1,2.42c.11.1.11.2.11.5v.1a4.29,4.29,0,0,1,.32,1.21,1,1,0,0,1,.33.81c0,.1.11.2.11.3v.2c0,.1.11.3.11.4a23.15,23.15,0,0,1,.54,2.52,1.6,1.6,0,0,1,.11.71c0,.2.11.5.11.7v.1a6.59,6.59,0,0,1,.11,1.41,1.29,1.29,0,0,1,.11.51c0,.7.22,1.41.22,2.11,0,1.11.1,2.42.1,3.53a16.5,16.5,0,0,1-.1,2.22v.8c0,1.72-.33,3.53-.44,5.24s-.55,3.53-.87,5.14c-.44,2.12-.76,4.14-1.42,6.45,0,.1-.11.31-.11.41-.32,1.1-.65,2.21-.87,3.22a4,4,0,0,0-.43,1.21,18.7,18.7,0,0,1-1.2,3.12c-.33,1-.77,1.92-1.09,2.93-.11.3-.33.8-.55,1.31a99.84,99.84,0,0,1-4.9,10.18,56.08,56.08,0,0,1-3.16,5.44,35.7,35.7,0,0,1-2.29,3.73c-1.31,2-2.83,4-4.25,5.94L512,998.42a12.6,12.6,0,0,1-1.09,1.31,5.52,5.52,0,0,1-1,1.21c0,.1,0,.1-.1.2a1,1,0,0,0-.44.51c-1.42,1.61-2.83,3.12-4.25,4.73-.33.3-.76.81-1.09,1.11-1.2,1.21-2.29,2.22-3.49,3.22a89.12,89.12,0,0,1-6.75,5.95,38.84,38.84,0,0,0-3.27,2.52,3.67,3.67,0,0,0-.87.5,48.28,48.28,0,0,1-5.13,3.23c-.11.1-.21.3-.32.4a22.31,22.31,0,0,0-2.73,1.51,35.24,35.24,0,0,1-3.38,1.62c-.54.2-1,.5-1.63.7a15.22,15.22,0,0,1-3.05,1.31c-.55.2-1.09.4-1.53.61-2.07.7-4.14,1.2-6.21,1.71a34.57,34.57,0,0,1-4.47.7,7.23,7.23,0,0,1-1.41.1,26.57,26.57,0,0,1-5.78,0,10.58,10.58,0,0,1-2-.2,30.51,30.51,0,0,1-3.6-.9,12.79,12.79,0,0,1-2.72-.91,6.46,6.46,0,0,1-1.75-.81c-.21,0-.21-.1-.32-.1s-.33-.2-.55-.3a4.45,4.45,0,0,1-1.31-.81h-.22a.1.1,0,0,0-.1-.1c-.22-.1-.33-.3-.66-.4a6.48,6.48,0,0,1-1.85-1.41c-.76-.71-1.42-1.21-2.18-2h-.11v-.1c-.21,0-.21-.1-.21-.1-.44-.6-1-1.11-1.53-1.71a25.55,25.55,0,0,0-1.53-2.12c0-.1-.11-.1-.11-.2-.43-.7-.76-1.31-1.2-2a15,15,0,0,1-.87-1.82c-.11-.2-.21-.4-.33-.6s-.21-.41-.32-.51c-.22-.6-.44-1.21-.65-1.91s-.55-1.82-1-2.82a10.91,10.91,0,0,0-.43-1.82,1.56,1.56,0,0,1-.11-.7,11.69,11.69,0,0,1-.33-1.92,9.22,9.22,0,0,0-.21-1.51,7.15,7.15,0,0,0-.22-1.51v-.4A44.53,44.53,0,0,1,427.28,996.3Z" />
    <path class="cls-59"
        d="M436.73,1023.64c.77.82,1.4,1.3,2.17,2a12.89,12.89,0,0,0,1.93,1.42c.25.12.38.24.64.36a.11.11,0,0,1,.12.11h.13a8,8,0,0,0,1.41.83,1,1,0,0,0,.51.24c.13,0,.13.12.26.12a8.42,8.42,0,0,0,1.79.83,23.91,23.91,0,0,0,2.69.94,29,29,0,0,0,3.59.83,10.58,10.58,0,0,0,2,.24,23.1,23.1,0,0,0,5.76,0,6.09,6.09,0,0,0,1.41-.12,29,29,0,0,0,4.48-.71,58.42,58.42,0,0,0,6.15-1.66c1-.35,2.05-.83,3.07-1.3s2.18-.83,3.2-1.3,2.18-1.07,3.33-1.66c.9-.47,1.8-1.07,2.69-1.54l.39-.36a59.57,59.57,0,0,0,5.12-3.19,3.56,3.56,0,0,1,.9-.59c1-.83,2.05-1.66,3.2-2.49a80.17,80.17,0,0,0,6.79-5.92c1.15-1.07,2.3-2,3.46-3.2.38-.36.76-.83,1.15-1.19,1.41-1.53,2.82-3.07,4.22-4.73.13-.12.26-.36.39-.48s.13-.11.13-.23a4.66,4.66,0,0,0,1-1.19,9,9,0,0,0,1-1.3l1.92-2.49c1.4-1.89,2.94-3.9,4.22-5.92a39.83,39.83,0,0,0,2.31-3.79c1.15-1.77,2.18-3.55,3.2-5.45a107.65,107.65,0,0,0,4.87-10.18,9.52,9.52,0,0,0,.51-1.3c.64-1.66,1.28-3.32,1.79-5a4.28,4.28,0,0,1,.51-1.06c.13-.48.26-.83.39-1.19.25-1.06.64-2.13.9-3.19,0-.12.12-.36.12-.48a62.61,62.61,0,0,0,1.41-6.39c.39-1.66.64-3.44.9-5.21s.38-3.44.38-5.22v-.82a11.83,11.83,0,0,0,.13-2.14c0-1.18-.13-2.48-.13-3.55,0-.71-.13-1.42-.13-2.13a.86.86,0,0,0-.12-.47A5.33,5.33,0,0,0,535,931v-.11c0-.24-.13-.48-.13-.71a1.42,1.42,0,0,0-.13-.72,17.07,17.07,0,0,0-.51-2.48c0-.12-.13-.36-.13-.48v-.11c0-.12-.13-.24-.13-.36a1.63,1.63,0,0,0-.25-.83,4.19,4.19,0,0,0-.39-1.18v-.12c0-.24,0-.36-.12-.48a14.08,14.08,0,0,0-.9-2.36,4.26,4.26,0,0,0-.51-1.31.89.89,0,0,0-.26-.47c-.26-.59-.64-1.18-.89-1.78s-.52-.82-.77-1.3-.52-.83-.77-1.18a10.1,10.1,0,0,0-1.67-2.13,5.19,5.19,0,0,0-1.15-1.31c-.26-.23-.38-.47-.64-.71l-.77-.71a13.8,13.8,0,0,0-1.54-1.3l-.25-.24a1.67,1.67,0,0,0-.51-.35h-.13s-.13,0-.13-.12a5.64,5.64,0,0,0-.9-.48l-.25-.23c-.13-.12-.39-.24-.51-.36a.67.67,0,0,0-.39-.23.12.12,0,0,1-.13-.12.12.12,0,0,0-.13-.12c-.12,0-.25-.12-.38-.12a1.48,1.48,0,0,0-.64-.12l-.13-.12A12.26,12.26,0,0,0,516,905c-.25-.12-.38-.12-.64-.24a17.26,17.26,0,0,0-2.3-.59h-.13l-.26.36c5.64,6,8.84,15,8.84,26.64,0,31.74-24.2,70.23-54.05,86.22C456.07,1023.4,445.44,1025.41,436.73,1023.64Z" />
    <path class="cls-60"
        d="M427.64,1001.84v.36c.25,1.78.51,3.32.76,5a1.36,1.36,0,0,0,.13.71,20.19,20.19,0,0,0,.9,3,5.9,5.9,0,0,0,.51,1.65,22.35,22.35,0,0,0,1.28,3.08,10.63,10.63,0,0,0,.9,1.78c.38.71.76,1.3,1.15,2,0,.12.13.12.13.24l1.53,2.13c.52.59,1,1.07,1.54,1.66a.12.12,0,0,0,.13.12v.12h.13c8.71,1.77,19.34-.24,30.73-6.28,29.85-16,54.05-54.48,54.05-86.22,0-11.6-3.2-20.6-8.84-26.64-.12-.24-.38-.36-.51-.6H512c-.38-.11-.76-.11-1.28-.23a8,8,0,0,0-1.79-.24,7.16,7.16,0,0,0-1.66-.12,37.62,37.62,0,0,0-6.28.24c-.38,0-.64.12-1,.12a7.36,7.36,0,0,0-1.53.23c-.51.12-1.15.24-1.67.36-.13,0-.25.12-.38.12,2.3,1.3,2.56,5.09.64,8.88-2.31,4.38-6.53,7.46-9.48,6.75s-3.84-4.85-1.53-9.35a14,14,0,0,1,2.94-4c-1.15.47-2.43,1-3.71,1.54a37.19,37.19,0,0,0-3.85,1.89c-1.28.71-2.43,1.31-3.71,2.13a40.33,40.33,0,0,0-3.59,2.25,13.94,13.94,0,0,1-6.66,9.36c-2,1.07-4,1.07-5.25.24a96.42,96.42,0,0,0-6.91,7.1c-1.16,1.19-2.18,2.49-3.33,3.79s-1.92,2.61-3,3.79c-.13.12-.13.12-.13.24a12.88,12.88,0,0,1-1.53,2.49,14.78,14.78,0,0,1-1.28,1.42c-1,1.54-2.05,3.08-3.08,4.73s-1.92,3.2-2.81,4.86a2.92,2.92,0,0,0-.52.83c-.77,1.3-1.54,2.72-2.17,4-.77,1.77-1.54,3.43-2.31,5.09a7.78,7.78,0,0,1-.26,3.79,14.07,14.07,0,0,1-3.58,6v.23c-.51,1.19-.77,2.49-1.15,3.68l-.39,1.42v.35a2.83,2.83,0,0,0-.26.83,3.08,3.08,0,0,0-.25.83v.12c-.26,1.3-.64,2.6-.77,3.91s-.51,2.48-.64,3.67c3.2-1.9,6-1.42,7,1.3,1.16,3.2-.76,8.29-4.35,11.37A9.49,9.49,0,0,1,427.64,1001.84Zm72.35-48c1.16-4.5,5-8.53,8.46-9.24s5.63,2.37,4.48,6.75-5,8.53-8.58,9.24S498.71,958.26,500,953.88ZM504.22,920c1.92-1.66,4-2.49,5.64-2.25a3.49,3.49,0,0,1,3.07,2.25c1.15,3.2-.9,8.41-4.48,11.49a11.74,11.74,0,0,1-2.69,1.77c-2.56,1.19-4.87.6-5.89-1.77C498.71,928.3,500.76,923.21,504.22,920Zm-16.65,58.62c2.95-4,7.3-5.56,9.48-3.55s1.54,7-1.54,10.9-7.3,5.56-9.47,3.55S484.5,982.54,487.57,978.63Zm-26.89,28.43a13.65,13.65,0,0,1,.51-3.08,14.37,14.37,0,0,1,6.27-7.7,5.71,5.71,0,0,1,1.67-.59c2.95-1,5.12.71,5.12,4.14,0,4-3.07,8.88-6.79,10.9S460.68,1011.08,460.68,1007.06ZM446,975.2c0-14.69,11.14-32.45,25-39.79,9-4.74,16.91-3.91,21.26,1.18,2.31,2.84,3.72,6.87,3.72,12a36,36,0,0,1-2.69,13.27c0,.11,0,.11-.13.23a52.73,52.73,0,0,1-10.89,17.41c0,.12-.12.24-.25.36a45.8,45.8,0,0,1-11,8.52c-5.12,2.73-9.86,3.56-13.7,3C450.43,990.12,446,984.44,446,975.2Zm-8.07,31.5c2.18-4.38,6.4-7.34,9.48-6.63a3.66,3.66,0,0,1,2.56,2.6,9.3,9.3,0,0,1-1,6.64c-1.66,3.43-4.86,6.15-7.42,6.75a6.39,6.39,0,0,1-2.05,0C436.34,1015.35,435.7,1011.08,437.88,1006.7Z" />
    <path class="cls-62"
        d="M446,975.2c0,9.24,4.48,14.92,11.27,16.1,3.84.6,8.58-.23,13.7-3a45.8,45.8,0,0,0,11-8.52c.13-.12.25-.24.25-.36a52.73,52.73,0,0,0,10.89-17.41c.13-.12.13-.12.13-.23a36,36,0,0,0,2.69-13.27c0-5.09-1.41-9.12-3.72-12-4.35-5.09-12.29-5.92-21.26-1.18C457.09,942.75,446,960.51,446,975.2Zm3.71-1.9c0-12.55,9.48-27.71,21.26-34.1,7.94-4.27,14.86-3.32,18.57,1.65a14,14,0,0,1,1.92,4.15,15.09,15.09,0,0,1,2.31,8.41,32.14,32.14,0,0,1-3.33,13.26,79.57,79.57,0,0,1-4.87,7.7c0,.24-.25.35-.38.59a36.66,36.66,0,0,1-10.76,9.24,18.19,18.19,0,0,1-9.22,2.49A12.82,12.82,0,0,1,460,987C453.76,986.45,449.66,981.48,449.66,973.3Z" />
    <path class="cls-62"
        d="M449.66,973.3c0,8.18,4.1,13.15,10.38,13.74a12.82,12.82,0,0,0,5.12-.35,12.31,12.31,0,0,1-4.23-1.07c-3.58-1.78-5.89-5.8-5.89-11.61,0-11.25,8.71-25.1,19.34-30.79,5.63-3,10.63-3.08,14.22-.94a8.39,8.39,0,0,1,2.81,2.72,14,14,0,0,0-1.92-4.15c-3.71-5-10.63-5.92-18.57-1.65C459.14,945.59,449.66,960.75,449.66,973.3Z" />
    <path class="cls-59"
        d="M449.66,973.3c0,8.18,4.1,13.15,10.38,13.74a12.82,12.82,0,0,0,5.12-.35,12.31,12.31,0,0,1-4.23-1.07c-3.58-1.78-5.89-5.8-5.89-11.61,0-11.25,8.71-25.1,19.34-30.79,5.63-3,10.63-3.08,14.22-.94a8.39,8.39,0,0,1,2.81,2.72,14,14,0,0,0-1.92-4.15c-3.71-5-10.63-5.92-18.57-1.65C459.14,945.59,449.66,960.75,449.66,973.3Z" />
    <path class="cls-61"
        d="M455,974c0,5.81,2.31,9.83,5.89,11.61a12.31,12.31,0,0,0,4.23,1.07,18.19,18.19,0,0,0,9.22-2.49A36.66,36.66,0,0,0,485.14,975c.13-.24.38-.35.38-.59a79.57,79.57,0,0,0,4.87-7.7,32.14,32.14,0,0,0,3.33-13.26,15.09,15.09,0,0,0-2.31-8.41,8.39,8.39,0,0,0-2.81-2.72c-3.59-2.14-8.59-2-14.22.94C463.75,948.91,455,962.76,455,974Z" />
    <path class="cls-62"
        d="M462.21,924c1.28.83,3.21.83,5.25-.24a13.94,13.94,0,0,0,6.66-9.36A111,111,0,0,0,462.21,924Z" />
    <path class="cls-62"
        d="M446.08,942.87a14.78,14.78,0,0,0,1.28-1.42,12.88,12.88,0,0,0,1.53-2.49C447.87,940.26,447,941.56,446.08,942.87Z" />
    <path class="cls-62"
        d="M431.35,972.24a14.07,14.07,0,0,0,3.58-6,7.78,7.78,0,0,0,.26-3.79c-.64,1.3-1.15,2.6-1.66,3.91a27.33,27.33,0,0,0-1.29,3.43A20.64,20.64,0,0,0,431.35,972.24Z" />
    <path class="cls-62"
        d="M427.25,996.28a37.52,37.52,0,0,0,.39,5.56,9.49,9.49,0,0,0,2.94-1.89c3.59-3.08,5.51-8.17,4.35-11.37-1-2.72-3.84-3.2-7-1.3v.12A71.39,71.39,0,0,0,427.25,996.28Z" />
    <path class="cls-62"
        d="M439.42,1016.06a6.39,6.39,0,0,0,2.05,0c2.56-.6,5.76-3.32,7.42-6.75a9.3,9.3,0,0,0,1-6.64,3.66,3.66,0,0,0-2.56-2.6c-3.08-.71-7.3,2.25-9.48,6.63S436.34,1015.35,439.42,1016.06Z" />
    <path class="cls-62"
        d="M460.68,1007.06c0,4,3.07,5.68,6.78,3.67s6.79-6.87,6.79-10.9c0-3.43-2.17-5.09-5.12-4.14a5.71,5.71,0,0,0-1.67.59,14.37,14.37,0,0,0-6.27,7.7A13.65,13.65,0,0,0,460.68,1007.06Z" />
    <path class="cls-62"
        d="M486,989.53c2.17,2,6.4.47,9.47-3.55s3.72-8.77,1.54-10.9-6.53-.47-9.48,3.55S483.86,987.4,486,989.53Z" />
    <path class="cls-62"
        d="M504.35,960.63c3.59-.71,7.43-4.85,8.58-9.24s-.9-7.46-4.48-6.75-7.3,4.74-8.46,9.24S500.76,961.34,504.35,960.63Z" />
    <path class="cls-62"
        d="M499.87,931.5c1,2.37,3.33,3,5.89,1.77a11.74,11.74,0,0,0,2.69-1.77c3.58-3.08,5.63-8.29,4.48-11.49a3.49,3.49,0,0,0-3.07-2.25c-1.67-.24-3.72.59-5.64,2.25C500.76,923.21,498.71,928.3,499.87,931.5Z" />
    <path class="cls-62"
        d="M487.57,920c2.95.71,7.17-2.37,9.48-6.75,1.92-3.79,1.66-7.58-.64-8.88h-.13a31.44,31.44,0,0,0-4.1,1.06c-1,.36-2.05.71-3.2,1.19a14,14,0,0,0-2.94,4C483.73,915.16,484.5,919.3,487.57,920Z" />
    <polygon class="cls-1"
        points="558.16 918.3 552.87 914.91 549.52 899.64 542.64 886.9 535.87 880.15 531.41 877.21 521.91 871.88 488.36 853.5 495.08 851.45 507.7 850.08 516.5 851.36 525.5 854.53 533.76 859.2 540.89 865.37 544.62 869.99 549.26 878.03 553.93 890.17 556.47 901.46 558.16 918.3" />
    <path class="cls-1"
        d="M916.68,578.42c20.73-11.53,39.52-12.59,53.09-5l38.74,21.67a.75.75,0,0,1-.13-.06c13.47,7.47,21.83,23.42,21.9,46.14.13,45.58-33.17,101.11-74.37,124-22,12.25-41.83,12.59-55.54,3.36.81.55,1.59,1.16,2.45,1.64l-38.74-21.68c-13.4-7.49-21.7-23.42-21.77-46.07C842.17,656.86,875.48,601.32,916.68,578.42ZM955.82,736c26.64-14.81,48.19-50.74,48.1-80.21s-21.77-41.37-48.41-26.56-48.19,50.74-48.1,80.21S929.18,750.84,955.82,736Z" />
    <path class="cls-63"
        d="M989.53,624.39c.13.24.39.35.51.59l.26-.35A1.91,1.91,0,0,0,989.53,624.39Z" />
    <path class="cls-64" d="M988.13,624.15c.51.12.89.12,1.27.24l-.12-.12Z" />
    <path class="cls-65"
        d="M978.39,624a38.67,38.67,0,0,1,6.28-.23,6.71,6.71,0,0,0-1.54-.12h-.51c-.9,0-1.67.12-2.44.12C979.67,623.92,979,623.92,978.39,624Z" />
    <path class="cls-66"
        d="M964.94,640.5c2.95.71,7.18-2.37,9.48-6.75,1.92-3.79,1.66-7.58-.64-8.89h-.13a31,31,0,0,0-4.09,1.07c-1,.35-2.06.71-3.21,1.18a14.11,14.11,0,0,0-2.94,4C961.1,635.64,961.87,639.79,964.94,640.5Z" />
    <path class="cls-67"
        d="M939.59,644.52c1.27.83,3.2.83,5.25-.23a14,14,0,0,0,6.66-9.36A109,109,0,0,0,939.59,644.52Z" />
    <path class="cls-68"
        d="M927,693.79c0,8.17,4.1,13.14,10.38,13.74l.89-1.42c-3.58-1.78-5.89-5.81-5.89-11.61,0-11.25,8.71-25.11,19.34-30.79,5.64-3,10.63-3.08,14.22-1l.9-1.42c-3.72-5-10.63-5.92-18.58-1.66C936.51,666.08,927,681.24,927,693.79Z" />
    <path class="cls-69"
        d="M923.45,663.35a11.81,11.81,0,0,0,1.28-1.42,13.46,13.46,0,0,0,1.54-2.49C925.24,660.75,924.35,662.05,923.45,663.35Z" />
    <path class="cls-70"
        d="M920.37,668.09c1-1.66,2-3.2,3.08-4.74-1,1.42-1.92,3-3,4.38A.42.42,0,0,0,920.37,668.09Z" />
    <path class="cls-71"
        d="M912.56,682.89c.77-1.65,1.54-3.31,2.31-5.09-.39.71-.64,1.42-1,2C913.46,680.88,913,681.83,912.56,682.89Z" />
    <path class="cls-72"
        d="M908.72,692.72a14,14,0,0,0,3.58-6,7.77,7.77,0,0,0,.26-3.79c-.64,1.31-1.15,2.61-1.66,3.91a26,26,0,0,0-1.28,3.44A19,19,0,0,0,908.72,692.72Z" />
    <path class="cls-73"
        d="M907.31,733a8.74,8.74,0,0,0,.64,1.89c.26.36.39.83.64,1.19A24.26,24.26,0,0,1,907.31,733Z" />
    <path class="cls-74"
        d="M905.9,728.37l.39,1.78a3.52,3.52,0,0,1,.51,1.18A20.05,20.05,0,0,1,905.9,728.37Z" />
    <path class="cls-75"
        d="M905,722.69c.12,1.06.25,2.13.38,3.07a9.72,9.72,0,0,0,.39,1.9C905.52,726,905.26,724.46,905,722.69Z" />
    <path class="cls-76"
        d="M904.62,716.76a37.65,37.65,0,0,0,.39,5.57,9.75,9.75,0,0,0,2.94-1.89c3.59-3.08,5.51-8.18,4.35-11.37-1-2.73-3.84-3.2-7-1.31v.12A71.39,71.39,0,0,0,904.62,716.76Z" />
    <path class="cls-77"
        d="M897.46,717c0,13.61,4.14,23.78,11.22,30.23a8.24,8.24,0,0,0,2.07,1.72l.55-.71a10.71,10.71,0,0,1-1.53-1.71c-5.66-6.45-8.83-15.92-8.83-27.72a63,63,0,0,1,.44-7.86c3.49-32.14,28-68.52,57.43-84.34,11.23-6.05,21.91-8.27,30.85-7a21.54,21.54,0,0,1,3.37.71h.11l.33-.6c-1.2-.41-2.51-.91-3.81-1.31-9.71-2.32-21.48-.61-34.44,6.34C923.29,641.81,897.46,683,897.46,717Z" />
    <path class="cls-64" d="M988.13,624.15c.51.12.89.12,1.27.24l-.12-.12Z" />
    <path class="cls-65"
        d="M978.39,624a38.67,38.67,0,0,1,6.28-.23,6.71,6.71,0,0,0-1.54-.12h-.51c-.9,0-1.67.12-2.44.12C979.67,623.92,979,623.92,978.39,624Z" />
    <path class="cls-66"
        d="M964.94,640.5c2.95.71,7.18-2.37,9.48-6.75,1.92-3.79,1.66-7.58-.64-8.89h-.13a31,31,0,0,0-4.09,1.07c-1,.35-2.06.71-3.21,1.18a14.11,14.11,0,0,0-2.94,4C961.1,635.64,961.87,639.79,964.94,640.5Z" />
    <path class="cls-67"
        d="M939.59,644.52c1.27.83,3.2.83,5.25-.23a14,14,0,0,0,6.66-9.36A109,109,0,0,0,939.59,644.52Z" />
    <path class="cls-69"
        d="M923.45,663.35a11.81,11.81,0,0,0,1.28-1.42,13.46,13.46,0,0,0,1.54-2.49C925.24,660.75,924.35,662.05,923.45,663.35Z" />
    <path class="cls-70"
        d="M920.37,668.09c1-1.66,2-3.2,3.08-4.74-1,1.42-1.92,3-3,4.38A.42.42,0,0,0,920.37,668.09Z" />
    <path class="cls-78"
        d="M927,693.79c0,8.17,4.1,13.14,10.38,13.74a13,13,0,0,0,5.12-.36,12.42,12.42,0,0,1-4.23-1.06c-3.58-1.78-5.89-5.81-5.89-11.61,0-11.25,8.71-25.11,19.34-30.79,5.64-3,10.63-3.08,14.22-1a8.61,8.61,0,0,1,2.82,2.72,14.33,14.33,0,0,0-1.92-4.14c-3.72-5-10.63-5.92-18.58-1.66C936.51,666.08,927,681.24,927,693.79Z" />
    <path class="cls-71"
        d="M912.56,682.89c.77-1.65,1.54-3.31,2.31-5.09-.39.71-.64,1.42-1,2C913.46,680.88,913,681.83,912.56,682.89Z" />
    <path class="cls-72"
        d="M908.72,692.72a14,14,0,0,0,3.58-6,7.77,7.77,0,0,0,.26-3.79c-.64,1.31-1.15,2.61-1.66,3.91a26,26,0,0,0-1.28,3.44A19,19,0,0,0,908.72,692.72Z" />
    <path class="cls-73"
        d="M907.31,733a8.74,8.74,0,0,0,.64,1.89c.26.36.39.83.64,1.19A24.26,24.26,0,0,1,907.31,733Z" />
    <path class="cls-74"
        d="M905.9,728.37l.39,1.78a3.52,3.52,0,0,1,.51,1.18A20.05,20.05,0,0,1,905.9,728.37Z" />
    <path class="cls-75"
        d="M905,722.69c.12,1.06.25,2.13.38,3.07a9.72,9.72,0,0,0,.39,1.9C905.52,726,905.26,724.46,905,722.69Z" />
    <path class="cls-76"
        d="M904.62,716.76a37.65,37.65,0,0,0,.39,5.57,9.75,9.75,0,0,0,2.94-1.89c3.59-3.08,5.51-8.18,4.35-11.37-1-2.73-3.84-3.2-7-1.31v.12A71.39,71.39,0,0,0,904.62,716.76Z" />
    <path class="cls-79"
        d="M897.46,717c0,13.61,4.14,23.78,11.22,30.23.44-.3.66-.4,1.09-.7-5.66-6.45-8.83-15.92-8.83-27.72a63,63,0,0,1,.44-7.86c3.49-32.14,28-68.52,57.43-84.34,11.23-6.05,21.91-8.27,30.85-7a4.8,4.8,0,0,0,0-1.2c-9.71-2.32-21.48-.61-34.44,6.34C923.29,641.81,897.46,683,897.46,717Z" />
    <path class="cls-80" d="M988.13,624.15c.51.12.89.12,1.27.24l-.12-.12Z" />
    <path class="cls-81"
        d="M978.39,624a38.67,38.67,0,0,1,6.28-.23,6.71,6.71,0,0,0-1.54-.12h-.51c-.9,0-1.67.12-2.44.12C979.67,623.92,979,623.92,978.39,624Z" />
    <path class="cls-82"
        d="M981.72,681.12c3.59-.71,7.43-4.86,8.58-9.24s-.9-7.46-4.48-6.75-7.3,4.74-8.45,9.24S978.14,681.83,981.72,681.12Z" />
    <path class="cls-83"
        d="M963.41,710c2.17,2,6.4.48,9.47-3.55s3.72-8.76,1.54-10.89-6.53-.48-9.48,3.55S961.23,707.88,963.41,710Z" />
    <path class="cls-84"
        d="M964.94,640.5c2.95.71,7.18-2.37,9.48-6.75,1.92-3.79,1.66-7.58-.64-8.89h-.13a31,31,0,0,0-4.09,1.07c-1,.35-2.06.71-3.21,1.18a14.11,14.11,0,0,0-2.94,4C961.1,635.64,961.87,639.79,964.94,640.5Z" />
    <path class="cls-85"
        d="M939.59,644.52c1.27.83,3.2.83,5.25-.23a14,14,0,0,0,6.66-9.36A109,109,0,0,0,939.59,644.52Z" />
    <path class="cls-86"
        d="M923.45,663.35a11.81,11.81,0,0,0,1.28-1.42,13.46,13.46,0,0,0,1.54-2.49C925.24,660.75,924.35,662.05,923.45,663.35Z" />
    <path class="cls-87"
        d="M920.37,668.09c1-1.66,2-3.2,3.08-4.74-1,1.42-1.92,3-3,4.38A.42.42,0,0,0,920.37,668.09Z" />
    <path class="cls-88"
        d="M1008.1,684.79c-.51,1.66-1.15,3.31-1.79,5a54.46,54.46,0,0,0,2.3-6A4.34,4.34,0,0,0,1008.1,684.79Z" />
    <path class="cls-89"
        d="M995.17,626.05a7.18,7.18,0,0,0-1.8-.59,11.85,11.85,0,0,1,2.82,1.3l.13.12a1.48,1.48,0,0,1,.64.12c-.38-.24-.77-.36-1.15-.6a.47.47,0,0,1-.26-.12.53.53,0,0,1-.26-.11C995.17,626.17,995.17,626.17,995.17,626.05Z" />
    <path class="cls-90" d="M990.3,624.63a1.91,1.91,0,0,0-.77-.24c.13.24.39.35.51.59Z" />
    <path class="cls-91"
        d="M949.19,749.57a54.57,54.57,0,0,0,6.28-2.61c-1,.48-2.18.95-3.21,1.31S950.22,749.21,949.19,749.57Z" />
    <path class="cls-92"
        d="M927,693.79c0,8.17,4.1,13.14,10.38,13.74a13,13,0,0,0,5.12-.36,12.42,12.42,0,0,1-4.23-1.06c-3.58-1.78-5.89-5.81-5.89-11.61,0-11.25,8.71-25.11,19.34-30.79,5.64-3,10.63-3.08,14.22-1a8.61,8.61,0,0,1,2.82,2.72,14.33,14.33,0,0,0-1.92-4.14c-3.72-5-10.63-5.92-18.58-1.66C936.51,666.08,927,681.24,927,693.79Z" />
    <path class="cls-93"
        d="M912.56,682.89c.77-1.65,1.54-3.31,2.31-5.09-.39.71-.64,1.42-1,2C913.46,680.88,913,681.83,912.56,682.89Z" />
    <path class="cls-94"
        d="M908.72,692.72a14,14,0,0,0,3.58-6,7.77,7.77,0,0,0,.26-3.79c-.64,1.31-1.15,2.61-1.66,3.91a26,26,0,0,0-1.28,3.44A19,19,0,0,0,908.72,692.72Z" />
    <path class="cls-95"
        d="M907.31,733a8.74,8.74,0,0,0,.64,1.89c.26.36.39.83.64,1.19A24.26,24.26,0,0,1,907.31,733Z" />
    <path class="cls-96"
        d="M905.9,728.37l.39,1.78a3.52,3.52,0,0,1,.51,1.18A20.05,20.05,0,0,1,905.9,728.37Z" />
    <path class="cls-97"
        d="M905,722.69c.12,1.06.25,2.13.38,3.07a9.72,9.72,0,0,0,.39,1.9C905.52,726,905.26,724.46,905,722.69Z" />
    <path class="cls-98"
        d="M904.62,716.76a37.65,37.65,0,0,0,.39,5.57,9.75,9.75,0,0,0,2.94-1.89c3.59-3.08,5.51-8.18,4.35-11.37-1-2.73-3.84-3.2-7-1.31v.12A71.39,71.39,0,0,0,904.62,716.76Z" />
    <path class="cls-99"
        d="M897.46,717c0,13.61,4.14,23.78,11.22,30.23a8.24,8.24,0,0,0,2.07,1.72l.11.2a34.5,34.5,0,0,0,5.13,2.92,27.79,27.79,0,0,1-4.69-3.83,10.71,10.71,0,0,1-1.53-1.71c-5.66-6.45-8.83-15.92-8.83-27.72a63,63,0,0,1,.44-7.86c3.49-32.14,28-68.52,57.43-84.34,11.23-6.05,21.91-8.27,30.85-7a21.54,21.54,0,0,1,3.37.71h.11a26.77,26.77,0,0,1,4.79,1.71,15.17,15.17,0,0,0-4.46-2.31c-1.2-.41-2.51-.91-3.81-1.31-9.71-2.32-21.48-.61-34.44,6.34C923.29,641.81,897.46,683,897.46,717Z" />
    <path class="cls-100" d="M988.13,624.15c.51.12.89.12,1.27.24l-.12-.12Z" />
    <path class="cls-101"
        d="M978.39,624a38.67,38.67,0,0,1,6.28-.23,6.71,6.71,0,0,0-1.54-.12h-.51c-.9,0-1.67.12-2.44.12C979.67,623.92,979,623.92,978.39,624Z" />
    <path class="cls-102"
        d="M981.72,681.12c3.59-.71,7.43-4.86,8.58-9.24s-.9-7.46-4.48-6.75-7.3,4.74-8.45,9.24S978.14,681.83,981.72,681.12Z" />
    <path class="cls-103"
        d="M963.41,710c2.17,2,6.4.48,9.47-3.55s3.72-8.76,1.54-10.89-6.53-.48-9.48,3.55S961.23,707.88,963.41,710Z" />
    <path class="cls-104"
        d="M964.94,640.5c2.95.71,7.18-2.37,9.48-6.75,1.92-3.79,1.66-7.58-.64-8.89h-.13a31,31,0,0,0-4.09,1.07c-1,.35-2.06.71-3.21,1.18a14.11,14.11,0,0,0-2.94,4C961.1,635.64,961.87,639.79,964.94,640.5Z" />
    <path class="cls-105"
        d="M939.59,644.52c1.27.83,3.2.83,5.25-.23a14,14,0,0,0,6.66-9.36A109,109,0,0,0,939.59,644.52Z" />
    <path class="cls-106"
        d="M923.45,663.35a11.81,11.81,0,0,0,1.28-1.42,13.46,13.46,0,0,0,1.54-2.49C925.24,660.75,924.35,662.05,923.45,663.35Z" />
    <path class="cls-107"
        d="M920.37,668.09c1-1.66,2-3.2,3.08-4.74-1,1.42-1.92,3-3,4.38A.42.42,0,0,0,920.37,668.09Z" />
    <path class="cls-108"
        d="M1008.1,684.79c-.51,1.66-1.15,3.31-1.79,5a54.46,54.46,0,0,0,2.3-6A4.34,4.34,0,0,0,1008.1,684.79Z" />
    <path class="cls-109"
        d="M995.17,626.05a7.18,7.18,0,0,0-1.8-.59,11.85,11.85,0,0,1,2.82,1.3l.13.12a1.48,1.48,0,0,1,.64.12c-.38-.24-.77-.36-1.15-.6a.47.47,0,0,1-.26-.12.53.53,0,0,1-.26-.11C995.17,626.17,995.17,626.17,995.17,626.05Z" />
    <path class="cls-110" d="M990.3,624.63a1.91,1.91,0,0,0-.77-.24c.13.24.39.35.51.59Z" />
    <path class="cls-111"
        d="M949.19,749.57a54.57,54.57,0,0,0,6.28-2.61c-1,.48-2.18.95-3.21,1.31S950.22,749.21,949.19,749.57Z" />
    <path class="cls-112"
        d="M927,693.79c0,8.17,4.1,13.14,10.38,13.74a13,13,0,0,0,5.12-.36,12.42,12.42,0,0,1-4.23-1.06c-3.58-1.78-5.89-5.81-5.89-11.61,0-11.25,8.71-25.11,19.34-30.79,5.64-3,10.63-3.08,14.22-1a8.61,8.61,0,0,1,2.82,2.72,14.33,14.33,0,0,0-1.92-4.14c-3.72-5-10.63-5.92-18.58-1.66C936.51,666.08,927,681.24,927,693.79Z" />
    <path class="cls-113"
        d="M912.56,682.89c.77-1.65,1.54-3.31,2.31-5.09-.39.71-.64,1.42-1,2C913.46,680.88,913,681.83,912.56,682.89Z" />
    <path class="cls-114"
        d="M908.72,692.72a14,14,0,0,0,3.58-6,7.77,7.77,0,0,0,.26-3.79c-.64,1.31-1.15,2.61-1.66,3.91a26,26,0,0,0-1.28,3.44A19,19,0,0,0,908.72,692.72Z" />
    <path class="cls-115"
        d="M907.31,733a8.74,8.74,0,0,0,.64,1.89c.26.36.39.83.64,1.19A24.26,24.26,0,0,1,907.31,733Z" />
    <path class="cls-116"
        d="M905.9,728.37l.39,1.78a3.52,3.52,0,0,1,.51,1.18A20.05,20.05,0,0,1,905.9,728.37Z" />
    <path class="cls-117"
        d="M905,722.69c.12,1.06.25,2.13.38,3.07a9.72,9.72,0,0,0,.39,1.9C905.52,726,905.26,724.46,905,722.69Z" />
    <path class="cls-118"
        d="M904.62,716.76a37.65,37.65,0,0,0,.39,5.57,9.75,9.75,0,0,0,2.94-1.89c3.59-3.08,5.51-8.18,4.35-11.37-1-2.73-3.84-3.2-7-1.31v.12A71.39,71.39,0,0,0,904.62,716.76Z" />
    <path class="cls-119"
        d="M897.46,717c0,13.61,4.14,23.78,11.22,30.23a8.24,8.24,0,0,0,2.07,1.72l.11.2a34.5,34.5,0,0,0,5.13,2.92,27.79,27.79,0,0,1-4.69-3.83,10.71,10.71,0,0,1-1.53-1.71c-5.66-6.45-8.83-15.92-8.83-27.72a63,63,0,0,1,.44-7.86c3.49-32.14,28-68.52,57.43-84.34,11.23-6.05,21.91-8.27,30.85-7a21.54,21.54,0,0,1,3.37.71h.11a26.77,26.77,0,0,1,4.79,1.71,15.17,15.17,0,0,0-4.46-2.31c-1.2-.41-2.51-.91-3.81-1.31-9.71-2.32-21.48-.61-34.44,6.34C923.29,641.81,897.46,683,897.46,717Z" />
    <path class="cls-59"
        d="M981.72,681.12c3.59-.71,7.43-4.86,8.58-9.24s-.9-7.46-4.48-6.75-7.3,4.74-8.45,9.24S978.14,681.83,981.72,681.12Z" />
    <path class="cls-59"
        d="M963.41,710c2.17,2,6.4.48,9.47-3.55s3.72-8.76,1.54-10.89-6.53-.48-9.48,3.55S961.23,707.88,963.41,710Z" />
    <path class="cls-59"
        d="M964.94,640.5c2.95.71,7.18-2.37,9.48-6.75,1.92-3.79,1.66-7.58-.64-8.89h-.13a31,31,0,0,0-4.09,1.07c-1,.35-2.06.71-3.21,1.18a14.11,14.11,0,0,0-2.94,4C961.1,635.64,961.87,639.79,964.94,640.5Z" />
    <path class="cls-59"
        d="M939.59,644.52c1.27.83,3.2.83,5.25-.23a14,14,0,0,0,6.66-9.36A109,109,0,0,0,939.59,644.52Z" />
    <path class="cls-59"
        d="M923.45,663.35a11.81,11.81,0,0,0,1.28-1.42,13.46,13.46,0,0,0,1.54-2.49C925.24,660.75,924.35,662.05,923.45,663.35Z" />
    <path class="cls-59"
        d="M1008.1,684.79c-.51,1.66-1.15,3.31-1.79,5a54.46,54.46,0,0,0,2.3-6A4.34,4.34,0,0,0,1008.1,684.79Z" />
    <path class="cls-59" d="M990.3,624.63a1.91,1.91,0,0,0-.77-.24c.13.24.39.35.51.59Z" />
    <path class="cls-59"
        d="M949.19,749.57a54.57,54.57,0,0,0,6.28-2.61c-1,.48-2.18.95-3.21,1.31S950.22,749.21,949.19,749.57Z" />
    <path class="cls-59"
        d="M927,693.79c0,8.17,4.1,13.14,10.38,13.74a13,13,0,0,0,5.12-.36,12.42,12.42,0,0,1-4.23-1.06c-3.58-1.78-5.89-5.81-5.89-11.61,0-11.25,8.71-25.11,19.34-30.79,5.64-3,10.63-3.08,14.22-1a8.61,8.61,0,0,1,2.82,2.72,14.33,14.33,0,0,0-1.92-4.14c-3.72-5-10.63-5.92-18.58-1.66C936.51,666.08,927,681.24,927,693.79Z" />
    <path class="cls-59"
        d="M908.72,692.72a14,14,0,0,0,3.58-6,7.77,7.77,0,0,0,.26-3.79c-.64,1.31-1.15,2.61-1.66,3.91a26,26,0,0,0-1.28,3.44A19,19,0,0,0,908.72,692.72Z" />
    <path class="cls-59"
        d="M904.62,716.76a37.65,37.65,0,0,0,.39,5.57,9.75,9.75,0,0,0,2.94-1.89c3.59-3.08,5.51-8.18,4.35-11.37-1-2.73-3.84-3.2-7-1.31v.12A71.39,71.39,0,0,0,904.62,716.76Z" />
    <path class="cls-59"
        d="M949.19,749.57a54.57,54.57,0,0,0,6.28-2.61c-1,.48-2.18.95-3.21,1.31S950.22,749.21,949.19,749.57ZM997,627c-.38-.24-.77-.36-1.15-.6l.38.36.13.12A1.48,1.48,0,0,1,997,627Zm-99.5,90c0,13.61,4.14,23.78,11.22,30.23a8.24,8.24,0,0,0,2.07,1.72l.11.2a34.5,34.5,0,0,0,5.13,2.92,27.79,27.79,0,0,1-4.69-3.83,10.71,10.71,0,0,1-1.53-1.71c-5.66-6.45-8.83-15.92-8.83-27.72a63,63,0,0,1,.44-7.86c3.49-32.14,28-68.52,57.43-84.34,11.23-6.05,21.91-8.27,30.85-7a21.54,21.54,0,0,1,3.37.71h.11a26.77,26.77,0,0,1,4.79,1.71,15.17,15.17,0,0,0-4.46-2.31c-1.2-.41-2.51-.91-3.81-1.31-9.71-2.32-21.48-.61-34.44,6.34C923.29,641.81,897.46,683,897.46,717Z" />
    <path class="cls-60"
        d="M981.72,681.12c3.59-.71,7.43-4.86,8.58-9.24s-.9-7.46-4.48-6.75-7.3,4.74-8.45,9.24S978.14,681.83,981.72,681.12Z" />
    <path class="cls-60"
        d="M963.41,710c2.17,2,6.4.48,9.47-3.55s3.72-8.76,1.54-10.89-6.53-.48-9.48,3.55S961.23,707.88,963.41,710Z" />
    <path class="cls-60"
        d="M964.94,640.5c2.95.71,7.18-2.37,9.48-6.75,1.92-3.79,1.66-7.58-.64-8.89h-.13a31,31,0,0,0-4.09,1.07c-1,.35-2.06.71-3.21,1.18a14.11,14.11,0,0,0-2.94,4C961.1,635.64,961.87,639.79,964.94,640.5Z" />
    <path class="cls-60"
        d="M939.59,644.52c1.27.83,3.2.83,5.25-.23a14,14,0,0,0,6.66-9.36A109,109,0,0,0,939.59,644.52Z" />
    <path class="cls-60"
        d="M923.45,663.35a11.81,11.81,0,0,0,1.28-1.42,13.46,13.46,0,0,0,1.54-2.49C925.24,660.75,924.35,662.05,923.45,663.35Z" />
    <path class="cls-60"
        d="M927,693.79c0,8.17,4.1,13.14,10.38,13.74a13,13,0,0,0,5.12-.36,12.42,12.42,0,0,1-4.23-1.06c-3.58-1.78-5.89-5.81-5.89-11.61,0-11.25,8.71-25.11,19.34-30.79,5.64-3,10.63-3.08,14.22-1a8.61,8.61,0,0,1,2.82,2.72,14.33,14.33,0,0,0-1.92-4.14c-3.72-5-10.63-5.92-18.58-1.66C936.51,666.08,927,681.24,927,693.79Z" />
    <path class="cls-60"
        d="M908.72,692.72a14,14,0,0,0,3.58-6,7.77,7.77,0,0,0,.26-3.79c-.64,1.31-1.15,2.61-1.66,3.91a26,26,0,0,0-1.28,3.44A19,19,0,0,0,908.72,692.72Z" />
    <path class="cls-60"
        d="M904.62,716.76a37.65,37.65,0,0,0,.39,5.57,9.75,9.75,0,0,0,2.94-1.89c3.59-3.08,5.51-8.18,4.35-11.37-1-2.73-3.84-3.2-7-1.31v.12A71.39,71.39,0,0,0,904.62,716.76Z" />
    <path class="cls-61"
        d="M1006.31,689.76a54.46,54.46,0,0,0,2.3-6,4.34,4.34,0,0,0-.51,1.07C1007.59,686.45,1007,688.1,1006.31,689.76Zm-57.12,59.81a54.57,54.57,0,0,0,6.28-2.61c-1,.48-2.18.95-3.21,1.31S950.22,749.21,949.19,749.57Z" />
    <path class="cls-61"
        d="M900.94,718.8c0,11.8,3.17,21.27,8.83,27.72a10.71,10.71,0,0,0,1.53,1.71,27.79,27.79,0,0,0,4.69,3.83c10.57,6.65,25.82,6.25,42.82-2.72,31.82-17.13,57.76-58.35,57.76-92.31,0-17.73-7.19-29.93-18.64-35a26.77,26.77,0,0,0-4.79-1.71H993a21.54,21.54,0,0,0-3.37-.71c-8.94-1.31-19.62.91-30.85,7-29.42,15.82-53.94,52.2-57.43,84.34A63,63,0,0,0,900.94,718.8Zm3.71-2a62.62,62.62,0,0,1,.65-8.87v-.2c.11-1.11.33-2.32.55-3.63s.54-2.62.87-3.93v-.1a3,3,0,0,1,.22-.81,2.18,2.18,0,0,1,.22-.8v-.4c.11-.51.32-.91.43-1.41.33-1.21.66-2.52,1.09-3.63v-.31a24.37,24.37,0,0,1,1-2.41,36.54,36.54,0,0,1,1.2-3.53c.55-1.31,1.09-2.52,1.75-3.83l.65-1.51a10.57,10.57,0,0,0,.55-1.61c.43-.61.65-1.31,1.08-2,.66-1.31,1.42-2.72,2.18-4a3.09,3.09,0,0,1,.44-.81c1-1.71,1.85-3.32,2.83-4.83a.58.58,0,0,1,.11-.41,13.71,13.71,0,0,0,1.42-2c.54-.81,1-1.61,1.53-2.32,1-1.31,1.85-2.62,2.83-3.93,0-.1,0-.1.22-.2,1-1.21,1.85-2.52,2.94-3.83s2.18-2.62,3.27-3.83a87.38,87.38,0,0,1,7-7.05A103.16,103.16,0,0,1,951.51,635a22,22,0,0,1,3.6-2.32c1.31-.8,2.39-1.41,3.7-2.11s2.4-1.31,3.82-1.92a16.83,16.83,0,0,0,2-.8c1.74-.71,3.49-1.41,5-1.92a31.67,31.67,0,0,1,4-1h.11c.22,0,.33-.1.44-.1a9.69,9.69,0,0,1,1.63-.4,9.33,9.33,0,0,1,1.53-.2c.44,0,.65-.1,1.09-.1a13,13,0,0,1,1.74-.3c.77,0,1.53-.1,2.4-.1h.55a7.23,7.23,0,0,1,1.52.1,7.94,7.94,0,0,1,1.64.1,10.22,10.22,0,0,1,1.85.3,4.05,4.05,0,0,1,.65.1h.55l.11.1h.11a2.2,2.2,0,0,1,.76.2h.11l2.28.61a1.3,1.3,0,0,1,.66.3,9.41,9.41,0,0,1,1.53.5.42.42,0,0,1,.32.1c0,.1,0,.1.11.1a.38.38,0,0,0,.22.11.4.4,0,0,0,.22.1,13.39,13.39,0,0,1,1.2.6c.1,0,.21.1.43.1a.1.1,0,0,1,.11.1.1.1,0,0,0,.11.1c.11,0,.22.2.32.31a2.46,2.46,0,0,1,.55.3.77.77,0,0,0,.22.3,9.85,9.85,0,0,1,1,.4c0,.2.11.2.11.2h.11a2.77,2.77,0,0,1,.54.31l.22.2c.54.4,1.09.91,1.53,1.31l.76.7c.33.31.43.51.65.71a11,11,0,0,1,1.2,1.31,9.34,9.34,0,0,1,1.64,2.22c.21.3.54.8.76,1.11.22.5.54.9.76,1.31.22.6.66,1.2.87,1.81a.55.55,0,0,1,.33.5,4.14,4.14,0,0,1,.44,1.21,24.53,24.53,0,0,1,1,2.42c.11.1.11.2.11.5v.11a3.91,3.91,0,0,1,.32,1.2,1,1,0,0,1,.33.81c0,.1.11.2.11.3v.2c0,.11.11.31.11.41a20.21,20.21,0,0,1,.54,2.52,1.56,1.56,0,0,1,.11.7c0,.2.11.51.11.71v.1a6.54,6.54,0,0,1,.11,1.41,1.23,1.23,0,0,1,.11.5c0,.71.22,1.41.22,2.12,0,1.11.11,2.42.11,3.53a14.88,14.88,0,0,1-.11,2.21v.81c0,1.71-.33,3.53-.44,5.24s-.54,3.53-.87,5.14c-.44,2.12-.76,4.13-1.42,6.45,0,.1-.11.3-.11.4-.32,1.11-.65,2.22-.87,3.23a3.93,3.93,0,0,0-.43,1.21,19.39,19.39,0,0,1-1.2,3.12c-.33,1-.77,1.91-1.09,2.92-.11.3-.33.81-.55,1.31a96.81,96.81,0,0,1-4.9,10.18,53.79,53.79,0,0,1-3.16,5.44,35.7,35.7,0,0,1-2.29,3.73c-1.31,2-2.83,4-4.25,5.95l-1.85,2.52a13.74,13.74,0,0,1-1.09,1.31,5.71,5.71,0,0,1-1,1.2c0,.11,0,.11-.11.21a1,1,0,0,0-.44.5c-1.42,1.61-2.83,3.12-4.25,4.74-.33.3-.76.8-1.09,1.11-1.2,1.2-2.29,2.21-3.49,3.22a89.39,89.39,0,0,1-6.75,5.95,38.74,38.74,0,0,0-3.27,2.51,4.11,4.11,0,0,0-.87.51,46.6,46.6,0,0,1-5.13,3.22c-.1.1-.21.31-.32.41a22.45,22.45,0,0,0-2.73,1.51,34,34,0,0,1-3.38,1.61c-.54.2-1,.5-1.63.71a16.47,16.47,0,0,1-3,1.31c-.55.2-1.09.4-1.53.6-2.07.71-4.14,1.21-6.21,1.71a33,33,0,0,1-4.47.71,7.23,7.23,0,0,1-1.41.1,27.89,27.89,0,0,1-5.78,0,10.58,10.58,0,0,1-2-.2,30.45,30.45,0,0,1-3.6-.91,11.76,11.76,0,0,1-2.72-.91,6.55,6.55,0,0,1-1.74-.8c-.22,0-.22-.1-.33-.1s-.33-.2-.55-.3a5.07,5.07,0,0,1-1.31-.81h-.21a.1.1,0,0,0-.11-.1c-.22-.1-.33-.3-.66-.4a6.64,6.64,0,0,1-1.85-1.42c-.76-.7-1.42-1.2-2.18-2H914V744c-.21,0-.21-.1-.21-.1-.44-.61-1-1.11-1.53-1.72a25.43,25.43,0,0,0-1.53-2.11c0-.1-.1-.1-.1-.2-.44-.71-.77-1.31-1.2-2a13.66,13.66,0,0,1-.88-1.81l-.32-.61c0-.2-.22-.4-.33-.5-.22-.61-.44-1.21-.65-1.92s-.55-1.81-1-2.82a9.9,9.9,0,0,0-.43-1.81,1.6,1.6,0,0,1-.11-.71,11.57,11.57,0,0,1-.33-1.91,9.07,9.07,0,0,0-.21-1.51,7.06,7.06,0,0,0-.22-1.51v-.41A44.36,44.36,0,0,1,904.65,716.79Z" />
    <path class="cls-59"
        d="M914.1,744.12c.77.83,1.41,1.3,2.18,2a12.28,12.28,0,0,0,1.92,1.43c.25.11.38.23.64.35a.12.12,0,0,1,.12.12h.13a10,10,0,0,0,1.41.83,1,1,0,0,0,.52.23c.12,0,.12.12.25.12a7.55,7.55,0,0,0,1.79.83,24.72,24.72,0,0,0,2.69,1,33.74,33.74,0,0,0,3.59.83,10.58,10.58,0,0,0,2,.24,24.1,24.1,0,0,0,5.76,0,6.09,6.09,0,0,0,1.41-.12,30,30,0,0,0,4.48-.71,61,61,0,0,0,6.15-1.66c1-.36,2-.83,3.07-1.3s2.18-.83,3.21-1.31,2.17-1.06,3.33-1.66c.89-.47,1.79-1.06,2.69-1.53l.38-.36a59.73,59.73,0,0,0,5.12-3.2,4.21,4.21,0,0,1,.9-.59c1-.83,2.05-1.66,3.2-2.49a78.43,78.43,0,0,0,6.79-5.92c1.15-1.06,2.3-2,3.46-3.2.38-.35.77-.82,1.15-1.18,1.41-1.54,2.82-3.08,4.22-4.74.13-.12.26-.35.39-.47s.13-.12.13-.24a4.62,4.62,0,0,0,1-1.18,9.59,9.59,0,0,0,1-1.3l1.92-2.49c1.41-1.9,2.94-3.91,4.23-5.92.89-1.31,1.66-2.61,2.3-3.79,1.15-1.78,2.18-3.56,3.2-5.45a108.84,108.84,0,0,0,4.87-10.18,9.59,9.59,0,0,0,.51-1.31c.64-1.66,1.28-3.31,1.79-5a4.34,4.34,0,0,1,.51-1.07c.13-.47.26-.83.39-1.18.26-1.07.64-2.13.9-3.2,0-.12.12-.35.12-.47a62.89,62.89,0,0,0,1.42-6.4c.38-1.66.63-3.43.89-5.21s.38-3.43.38-5.21v-.83a11.72,11.72,0,0,0,.13-2.13c0-1.18-.13-2.49-.13-3.55,0-.71-.12-1.42-.12-2.13a.85.85,0,0,0-.13-.48,5.26,5.26,0,0,0-.13-1.42v-.12c0-.24-.13-.47-.13-.71a1.38,1.38,0,0,0-.13-.71,16.93,16.93,0,0,0-.51-2.49c0-.11-.12-.35-.12-.47v-.12c0-.12-.14-.24-.14-.35a1.57,1.57,0,0,0-.25-.83,4.57,4.57,0,0,0-.38-1.19v-.12c0-.23,0-.35-.13-.47a13.86,13.86,0,0,0-.9-2.37,4.2,4.2,0,0,0-.51-1.3.83.83,0,0,0-.26-.47c-.26-.6-.64-1.19-.89-1.78s-.52-.83-.77-1.3-.52-.83-.77-1.19a10.07,10.07,0,0,0-1.66-2.13,5.43,5.43,0,0,0-1.16-1.3c-.26-.24-.38-.48-.64-.71l-.77-.71a14.84,14.84,0,0,0-1.53-1.31l-.26-.23a1.86,1.86,0,0,0-.51-.36h-.13s-.13,0-.13-.12a5.68,5.68,0,0,0-.9-.47l-.25-.24c-.13-.12-.38-.23-.51-.35s-.26-.24-.39-.24a.12.12,0,0,1-.13-.12.12.12,0,0,0-.12-.12c-.13,0-.26-.11-.39-.11a1.48,1.48,0,0,0-.64-.12l-.13-.12a11.85,11.85,0,0,0-2.82-1.3c-.25-.12-.38-.12-.64-.24a14.66,14.66,0,0,0-2.3-.59h-.13L990,625c5.64,6,8.84,15,8.84,26.65,0,31.74-24.2,70.23-54,86.21C933.44,743.88,922.81,745.9,914.1,744.12Z" />
    <path class="cls-60"
        d="M905,722.33v.36c.25,1.77.51,3.31.77,5a1.48,1.48,0,0,0,.12.71,20.05,20.05,0,0,0,.9,3,6.33,6.33,0,0,0,.51,1.66,24.26,24.26,0,0,0,1.28,3.08,11.36,11.36,0,0,0,.9,1.77c.38.72.77,1.31,1.15,2,0,.12.13.12.13.23l1.53,2.14c.52.59,1,1.06,1.54,1.65a.12.12,0,0,0,.13.12v.12h.13c8.71,1.78,19.34-.24,30.74-6.28,29.84-16,54-54.47,54-86.21,0-11.61-3.2-20.61-8.84-26.65-.12-.24-.38-.35-.51-.59h-.13c-.38-.12-.76-.12-1.27-.24a8.19,8.19,0,0,0-1.8-.23,7.16,7.16,0,0,0-1.66-.12,38.67,38.67,0,0,0-6.28.23c-.38,0-.64.12-1,.12a6.76,6.76,0,0,0-1.54.24c-.51.12-1.15.24-1.67.35-.12,0-.25.12-.38.12,2.3,1.31,2.56,5.1.64,8.89-2.3,4.38-6.53,7.46-9.48,6.75s-3.84-4.86-1.53-9.36a14.11,14.11,0,0,1,2.94-4c-1.15.48-2.43.95-3.71,1.54a38.1,38.1,0,0,0-3.84,1.9c-1.29.71-2.44,1.3-3.72,2.13a34.93,34.93,0,0,0-3.58,2.25,14,14,0,0,1-6.66,9.36c-2.05,1.06-4,1.06-5.25.23a92.83,92.83,0,0,0-6.92,7.11c-1.15,1.18-2.18,2.49-3.33,3.79s-1.92,2.6-3,3.79c-.12.12-.12.12-.12.23a13.46,13.46,0,0,1-1.54,2.49,11.81,11.81,0,0,1-1.28,1.42c-1,1.54-2.05,3.08-3.08,4.74s-1.92,3.2-2.81,4.86a2.87,2.87,0,0,0-.52.82c-.76,1.31-1.53,2.73-2.17,4-.77,1.78-1.54,3.44-2.31,5.09a7.77,7.77,0,0,1-.26,3.79,14,14,0,0,1-3.58,6V693c-.51,1.18-.77,2.49-1.15,3.67l-.39,1.42v.36a2.68,2.68,0,0,0-.25.83,2.74,2.74,0,0,0-.26.83v.11c-.26,1.31-.64,2.61-.77,3.91s-.51,2.49-.64,3.67c3.2-1.89,6-1.42,7,1.31,1.16,3.19-.76,8.29-4.35,11.37A9.75,9.75,0,0,1,905,722.33Zm72.36-48c1.15-4.5,5-8.53,8.45-9.24s5.64,2.37,4.48,6.75-5,8.53-8.58,9.24S976.08,678.75,977.37,674.37Zm4.22-33.87c1.92-1.66,4-2.49,5.64-2.25a3.46,3.46,0,0,1,3.07,2.25c1.16,3.19-.9,8.4-4.48,11.48a11.58,11.58,0,0,1-2.69,1.78c-2.56,1.18-4.87.59-5.89-1.78C976.08,648.79,978.14,643.69,981.59,640.5Zm-16.65,58.62c2.95-4,7.3-5.57,9.48-3.55s1.54,7-1.54,10.89-7.3,5.57-9.47,3.55S961.87,703,964.94,699.12Zm-26.89,28.42a13.74,13.74,0,0,1,.51-3.08,14.38,14.38,0,0,1,6.28-7.7,6,6,0,0,1,1.66-.59c3-.95,5.12.71,5.12,4.15,0,4-3.07,8.88-6.78,10.89S938.05,731.57,938.05,727.54Zm-14.73-31.86c0-14.68,11.14-32.45,25-39.79,9-4.74,16.91-3.91,21.27,1.19,2.3,2.84,3.71,6.86,3.71,12a36,36,0,0,1-2.69,13.26c0,.12,0,.12-.13.24A52.7,52.7,0,0,1,959.57,700c0,.12-.13.23-.26.35a45.6,45.6,0,0,1-11,8.53c-5.12,2.72-9.86,3.55-13.7,3C927.8,710.61,923.32,704.92,923.32,695.68Zm-8.07,31.51c2.18-4.39,6.4-7.35,9.48-6.64a3.67,3.67,0,0,1,2.56,2.61,9.31,9.31,0,0,1-1,6.63c-1.67,3.44-4.87,6.16-7.43,6.75a5.87,5.87,0,0,1-2.05,0C913.71,735.83,913.07,731.57,915.25,727.19Z" />
    <path class="cls-62"
        d="M923.32,695.68c0,9.24,4.48,14.93,11.27,16.11,3.84.59,8.58-.24,13.7-3a45.6,45.6,0,0,0,11-8.53c.13-.12.26-.23.26-.35a52.7,52.7,0,0,0,10.88-17.41c.13-.12.13-.12.13-.24A36,36,0,0,0,973.27,669c0-5.1-1.41-9.12-3.71-12-4.36-5.1-12.3-5.93-21.27-1.19C934.46,663.23,923.32,681,923.32,695.68Zm3.71-1.89c0-12.55,9.48-27.71,21.26-34.11,8-4.26,14.86-3.31,18.58,1.66a14.33,14.33,0,0,1,1.92,4.14,15.22,15.22,0,0,1,2.3,8.41,32.14,32.14,0,0,1-3.33,13.27,80.72,80.72,0,0,1-4.86,7.7c0,.23-.26.35-.39.59a36.62,36.62,0,0,1-10.76,9.23,18.09,18.09,0,0,1-9.22,2.49,13,13,0,0,1-5.12.36C931.13,706.93,927,702,927,693.79Z" />
    <path class="cls-62"
        d="M927,693.79c0,8.17,4.1,13.14,10.38,13.74a13,13,0,0,0,5.12-.36,12.42,12.42,0,0,1-4.23-1.06c-3.58-1.78-5.89-5.81-5.89-11.61,0-11.25,8.71-25.11,19.34-30.79,5.64-3,10.63-3.08,14.22-1a8.61,8.61,0,0,1,2.82,2.72,14.33,14.33,0,0,0-1.92-4.14c-3.72-5-10.63-5.92-18.58-1.66C936.51,666.08,927,681.24,927,693.79Z" />
    <path class="cls-59"
        d="M927,693.79c0,8.17,4.1,13.14,10.38,13.74a13,13,0,0,0,5.12-.36,12.42,12.42,0,0,1-4.23-1.06c-3.58-1.78-5.89-5.81-5.89-11.61,0-11.25,8.71-25.11,19.34-30.79,5.64-3,10.63-3.08,14.22-1a8.61,8.61,0,0,1,2.82,2.72,14.33,14.33,0,0,0-1.92-4.14c-3.72-5-10.63-5.92-18.58-1.66C936.51,666.08,927,681.24,927,693.79Z" />
    <path class="cls-61"
        d="M932.41,694.5c0,5.8,2.31,9.83,5.89,11.61a12.42,12.42,0,0,0,4.23,1.06,18.09,18.09,0,0,0,9.22-2.49,36.62,36.62,0,0,0,10.76-9.23c.13-.24.39-.36.39-.59a80.72,80.72,0,0,0,4.86-7.7,32.14,32.14,0,0,0,3.33-13.27,15.22,15.22,0,0,0-2.3-8.41,8.61,8.61,0,0,0-2.82-2.72c-3.59-2.13-8.58-2-14.22,1C941.12,669.39,932.41,683.25,932.41,694.5Z" />
    <path class="cls-62"
        d="M939.59,644.52c1.27.83,3.2.83,5.25-.23a14,14,0,0,0,6.66-9.36A109,109,0,0,0,939.59,644.52Z" />
    <path class="cls-62"
        d="M923.45,663.35a11.81,11.81,0,0,0,1.28-1.42,13.46,13.46,0,0,0,1.54-2.49C925.24,660.75,924.35,662.05,923.45,663.35Z" />
    <path class="cls-62"
        d="M908.72,692.72a14,14,0,0,0,3.58-6,7.77,7.77,0,0,0,.26-3.79c-.64,1.31-1.15,2.61-1.66,3.91a26,26,0,0,0-1.28,3.44A19,19,0,0,0,908.72,692.72Z" />
    <path class="cls-62"
        d="M904.62,716.76a37.65,37.65,0,0,0,.39,5.57,9.75,9.75,0,0,0,2.94-1.89c3.59-3.08,5.51-8.18,4.35-11.37-1-2.73-3.84-3.2-7-1.31v.12A71.39,71.39,0,0,0,904.62,716.76Z" />
    <path class="cls-62"
        d="M916.79,736.54a5.87,5.87,0,0,0,2.05,0c2.56-.59,5.76-3.31,7.43-6.75a9.31,9.31,0,0,0,1-6.63,3.67,3.67,0,0,0-2.56-2.61c-3.08-.71-7.3,2.25-9.48,6.64S913.71,735.83,916.79,736.54Z" />
    <path class="cls-62"
        d="M938.05,727.54c0,4,3.07,5.69,6.79,3.67s6.78-6.87,6.78-10.89c0-3.44-2.17-5.1-5.12-4.15a6,6,0,0,0-1.66.59,14.38,14.38,0,0,0-6.28,7.7A13.74,13.74,0,0,0,938.05,727.54Z" />
    <path class="cls-62"
        d="M963.41,710c2.17,2,6.4.48,9.47-3.55s3.72-8.76,1.54-10.89-6.53-.48-9.48,3.55S961.23,707.88,963.41,710Z" />
    <path class="cls-62"
        d="M981.72,681.12c3.59-.71,7.43-4.86,8.58-9.24s-.9-7.46-4.48-6.75-7.3,4.74-8.45,9.24S978.14,681.83,981.72,681.12Z" />
    <path class="cls-62"
        d="M977.24,652c1,2.37,3.33,3,5.89,1.78a11.58,11.58,0,0,0,2.69-1.78c3.58-3.08,5.64-8.29,4.48-11.48a3.46,3.46,0,0,0-3.07-2.25c-1.67-.24-3.72.59-5.64,2.25C978.14,643.69,976.08,648.79,977.24,652Z" />
    <path class="cls-62"
        d="M964.94,640.5c2.95.71,7.18-2.37,9.48-6.75,1.92-3.79,1.66-7.58-.64-8.89h-.13a31,31,0,0,0-4.09,1.07c-1,.35-2.06.71-3.21,1.18a14.11,14.11,0,0,0-2.94,4C961.1,635.64,961.87,639.79,964.94,640.5Z" />
    <path id="BODY" class="cls-14"
        d="M404.4,997.59l-61.09,19.47a33.68,33.68,0,0,1-18.24,1.05c-9.43-2.34-23.15-5.5-23.15-5.5s-14.46-6.91-17.43-8.52-25.94-14.44-25.94-14.44l-72.9-41.82L136.3,919.56,85.76,891.38S58,877,55.82,876.05s-8.17-3.16-8.17-3.16-1.58-.78-2.25.3c0,0-11.14-11.1-15.69-17.41s-8.25-12-9.7-15.6-3.94-9.78-4.08-16.92.74-46.34.74-46.34l1.42-5.29,3.26-8.79,17.79-36.22a68.18,68.18,0,0,1,7.34-7.33c3.32-2.64,26.37-20.37,26.37-20.37l36.63-28.17,86-107.61,4.53-5.09,5.59-4.76,12.9-10.45,18.19-13.51,19.76-13.54,22.23-14.31,18.74-11.64,25.16-15.26,27.73-16.37,31.07-17.83,34.47-19.19,27-14.44,21.63-10.69s10.08-4.82,10.4-5,3.84-1.59,4.17-1.71l3.18-1s5.94-1.18,6.6-1.11a12.52,12.52,0,0,0,1.6,1.76,13.44,13.44,0,0,0,3.55,2.09c1.81.7,8,2.93,8,2.93l20.18,7.32L542.17,410l21.06,10.26L597,417.75a3.39,3.39,0,0,1,.09-2,4.62,4.62,0,0,1,1.28-1.59s1.65-.82,2.86-1.27,104.1-38.55,104.1-38.55l5.44-2.13,6-2.42,8.43-3.65,4.08-2,2-1.26a2.32,2.32,0,0,0,.45-.43c.1-.16.15-.26.13-.32a.61.61,0,0,0-.09-.17l1.62-.56,2.27-.79L746.11,357s6.47-2.18,9.59-2.87,4.8-1,5.06-1.07l5.13-.8s6.32-.66,7.81-.73,5.09-.25,5.27-.23,7.63.08,7.81.09l5.42.2,13.55-.07,7.16-.1a29,29,0,0,1,6,1.11c2.42.84,25.47,10.53,25.47,10.53l36.25,16.68,34.22,16.76,23.45,11.91,21.69,13.48s8.89,6.69,9.65,7.24,15.26,10.82,15.26,10.82l42.27,33.62s4.21,8.4,5.18,13.18,1.54,7,.77,9.23l-2.16,6.5-1.14,3.78a20.32,20.32,0,0,1-1.29,3.29c-.57.93-2.26,2.67-2.35,2.84l.75-.18,1.87,1.15a1.67,1.67,0,0,1,.4.35c.1.15.9,1.76.9,1.76l7.42,15.05,7.06,14.39,4.17,8.51a30.5,30.5,0,0,1-1.49,3.57l2.4-2.11a8,8,0,0,1,2.85,2.69c.78,1.55,3.4,7.3,3.4,7.3l2.49,6.85s1.53,5.89,1.66,6.6,1.38,8.22.87,11.49-1,7.79-3,10.77l-2,3-3.56,2.87c-.09.08-23.76,18.31-23.76,18.31s-1.65-5.17-2.07-7.23-2.07-4.82-3.11-6.61c-.61-1.05-3-4.86-3.6-5.92s-2.32-2.39-3.36-3.73-3.18-2.32-4.15-3.51-3.68-2.55-4.65-3.09-1.87-1-3.17-1.78-5.25-2.84-8.24-4.61-4.44-2.48-10-5.6a23,23,0,0,0-10.27-2.37c-3.89-.14-10.66-.26-15.41,1a84.59,84.59,0,0,0-11.27,3.49c-3.2,1.32-7.29,3.14-9.68,4.46s-9.87,5.92-12,7.53-7.65,6-9.62,7.81-8.25,7.88-9.86,9.56-6.31,6.81-8,8.85-9.38,11.69-11.88,15.37-5.61,8.48-7,10.79-5.67,10.12-6.48,11.74-6.74,14.86-7.55,16.94-2.64,5-3,6.19-2.29,7.32-2.68,8.63-1.91,6.3-2.48,8.37-2.93,11.59-3.4,14.34-.71,4.15-.91,5.9-1,9.14-1,10.27,0,4.3.08,5.1.37,2.53.49,3.05a41.28,41.28,0,0,0,1.63,4.59S854,745.5,853.3,746s-2.75,1.71-3,1.84L846.6,750l-11.14,6.44L554.74,918.2s-1.46-17.45-2.87-22.91-1.52-7.2-3.83-12.39-2.91-6.64-4.39-9.09a58.53,58.53,0,0,0-6.12-8.48c-1.77-1.79-7.3-6.73-11-8.63a74.57,74.57,0,0,0-9.11-4.11c-2-.64-9.38-3-14.9-2.64s-12.55,1.61-16.07,2.91-16.34,7.28-20.44,9.88-15.2,10.55-18.68,13.63-9.48,8.8-11.27,10.67-7.84,8.5-9.13,10.08-6.61,8.77-7.59,10.36a22,22,0,0,0-2.41,4.24c-.33,1.17-4.5,19.13-6,22.94s-3.72,19.64-4,21.64-1,7.74-1.37,11.38-.74,8.5-.89,11.86-.32,8.88-.31,11.47S404.4,997.59,404.4,997.59Z" />
    <path class="cls-121"
        d="M865.67,610.1l-13.06-6.69-98-33.64s-13.31-4.7-26.09,2-74.59,40.5-74.59,40.5l-53,30.38-40.44,23.79-47.13,29.64S506.05,700,503.8,710s-16.86,74.19-16.86,74.19-1.71,23.82-.39,27.87,2.15,2,2.15,2Z" />
    <path class="cls-122"
        d="M1020.34,487c-.62,4.09-1.28,8.16-1.85,12.26-.82,5.9-4.12,10.07-8.93,13.31-7.74,5.2-15.43,10.47-23.14,15.71-2.32,1.58-4.66,3.17-3.89,6.59l6.42,1.78c6.22-3.57,12.36-7.29,18.67-10.68,6.53-3.5,12.69-7.9,19.57-9.44,1.3.88,2.11,1.13,2.38,1.65q9.77,19.76,19.45,39.55c3-4.26,4.54-8.82,3.65-14.15-.26-1.53.43-3.22.69-4.83-4-9.43-7.93-18.89-12.08-28.25a26.85,26.85,0,0,0-4.74-7.79C1031.35,497.25,1025.76,492.19,1020.34,487Z" />
    <path class="cls-121"
        d="M879.93,602.14s-10-16.56-17.35-23.49A39,39,0,0,0,852,563.21c-.83-.74-8.29-11.82-13.31-15.32l-17.84-17.76-27.69-20.26S771.69,496,769.34,494.3c-10.14-7.35-36.4-20.74-36.4-20.74l-37.37-18.95s-30.28-19.33-46.46-20c-2.53-.1-32.09-8.21-32.09-8.21l-20.35-5.17L495.13,392.31l2.26,3.67s33.8,11.56,35.67,13.66,23.47,10.86,25.8,12.49,58.26,32,58.26,32l27.44,15.65L678,488.21l19.38,11.33s17.77,12.07,18.09,12.3,14.26,11.32,16.53,12.82l3.88,2.54s6,7.21,7.67,8.82,5,3.75,6.55,5.14a52.65,52.65,0,0,0,9.15,6.56c3.3,1.67,7.6,3.19,9.23,3.89s30.82,14.24,30.82,14.24Z" />
    <path class="cls-121"
        d="M454.64,722.88s-6.54-3.68-7.87-4.2-32.41-13.86-32.41-13.86l-34.12-16.51-36.1-17.7-45.53-24.08s-35.94-23.39-37-24.17S207,581.15,207,581.15l-10.71-7.32-3.9,3.12-27.09,32-27.4,33.58L112.37,673l5.48,15.52,8.09,7.08L155.6,722.3,167.68,731l29.93,22.57,39,21.54,37.67,18,90.19,36.67L388,836.25Z" />
    <path class="cls-123"
        d="M314.69,1003.42c5.64-3.37,2.17-10.67-7.74-16.31s-22.52-7.47-28.16-4.11-2.18,10.67,7.72,16.31S309,1006.79,314.69,1003.42Z" />
    <path class="cls-123"
        d="M60.57,853.22c5.93-2.85,3.14-10.44-6.23-17s-21.75-9.48-27.67-6.64-3.14,10.43,6.22,16.94S54.65,856.07,60.57,853.22Z" />
    <path class="cls-124"
        d="M891.85,633.88,874.59,625a7,7,0,0,1-3.73-6.19V606.25a6.54,6.54,0,0,1,9.49-6l17.27,8.8a7,7,0,0,1,3.75,6.2v12.64A6.54,6.54,0,0,1,891.85,633.88Z" />
    <path class="cls-125"
        d="M894.17,628.76c-3.79,1.56-10.48-2.75-13.74-4.57-2.34-1.3-4-3.14-4-6.1,0,0-1.34-11.57.82-12.73,3.58-1.9,14.42,5.09,14.42,5.09a8.34,8.34,0,0,1,4.42,6.84C896.28,620.2,896.26,627.9,894.17,628.76Z" />
    <path class="cls-126"
        d="M337.73,897.49c15.86-8.43,31.59-17.12,47.47-25.54,16.19-8.58,478.6-258.64,481.51-260.39,34.57-20.83,69.23-41.51,103.79-62.36,6.48-3.9,12.61-8.37,18.89-12.58,6.22-3.58,12.36-7.3,18.68-10.69,6.52-3.5,12.68-7.89,19.57-9.43,1.29.87,2.11,1.12,2.37,1.65,6.52,13.17,12.53,26.37,19,39.56l1.45-2.32s1.66.56,4.58,7.67c0,0,11.71,23.85,1.49,39.58,0,0-19,15-28,22.05-1.53-11.51-12.14-23.49-15.69-26.42-8.57-1.26-28.43-21.18-36.94-18.68-13.86-.63-29.65,4.72-40.52,11.86-44.91,31.44-57.44,64-68.13,92.25a41.44,41.44,0,0,1-2.41,4.56c-3.71-2-6.71.15-9.66,1.82-10.83,6.12-21.57,12.38-32.37,18.55-17.69,10.11-35.42,20.15-53.1,30.29-15,8.6-29.87,17.34-44.84,26Q693.48,783,662,801q-37.28,21.45-74.52,43c-11.68,6.72-23.45,13.27-35,20.2-4.1,2.45-7.67,5.77-11.48,8.69-6.6-8.47-15.23-13.71-25.48-16.81-12.8-3.87-24.82-.95-36.23,4.33-15.8,7.31-29.67,17.85-41.74,30.23-8.11,8.32-19.89,15.88-19.89,15.88S363.91,935.07,338,946.24a41.45,41.45,0,0,1-11.57,3.28s0-12.12,9.89-46.52Zm718.81-294.85" />
    <path class="cls-126"
        d="M326.47,949.52c1.24-3.87.53-7.75,1.56-11.67,3.52-13.47,4.9-21.35,8.33-34.85-7.73-2.94-51.58-21.24-59.15-24.55-16.44-7.18-32.72-14.71-49.08-22.06-17.31-7.78-34.68-15.4-51.93-23.31-4.66-2.14-10.6-6.4-14.77-9.38C135.34,805,107.21,784,81.29,765.07c-10-9-13.38-11.46-24.12-21.17-1.6-1.76-10.28-10.83-17.28-12.95,0,0-20.38,39.18-21,45,1.73,2.11,10.73,17.52,12.64,19.44l102.28,89.67c3.05,1.46,132,49.41,149,53.7C286.33,939.69,319.78,950.77,326.47,949.52Z" />
    <path class="cls-126"
        d="M864.66,688.27c-3.71-2-6.71.15-9.67,1.82-10.82,6.12-21.56,12.38-32.36,18.55-17.69,10.11-35.43,20.15-53.1,30.3-15,8.59-29.88,17.33-44.84,25.95Q693.27,783,661.8,801q-37.26,21.47-74.52,43c-11.67,6.72-23.44,13.28-35,20.2-4.09,2.45-7.66,5.77-11.47,8.69,10.51,14.9,13.62,32,14.45,49.66q31.82-18.4,63.62-36.79,23.31-13.46,46.65-26.84l63.7-36.66q28.69-16.51,57.41-33,32.75-18.86,65.45-37.76c1.49-.85,2.84-1.94,4.26-2.92-3.42-6.9-2.14-14.12-1.37-21.27C856.42,713.83,860.69,701.09,864.66,688.27Z" />
    <path class="cls-126"
        d="M38.07,869.23l8.09,8.29c.23-10.33,242.27,136.47,256.52,139.42,7.76,1.61,15.45,3.6,23.14,5.51a31.93,31.93,0,0,0,18.24-1.05c20.29-6.71,40.72-13,61.09-19.48a262.75,262.75,0,0,1,9.65-75.45c1.62-6,3.35-11.89,5-17.83l-2.15-2.14c-7.5,3.47-13.95,7.33-21.31,11.06C377.25,927.42,366.82,933,341,944.87c-10.84,5.54-21.71,6.29-32.44-.39-.29-.18-.58-.39-.86-.58-4-1-8.1-1.73-12-3-24.59-8.11-49.17-16.24-73.68-24.58-7.51-2.55-14.87-5.57-22.15-8.71q-29.94-12.93-59.72-26.17a51,51,0,0,1-9.74-5.74C116,864.93,101.9,853.83,87.44,843.21a272.64,272.64,0,0,1-31.22-27.08A378,378,0,0,1,23.77,780c-1.14-1.47-2.94-2.43-4.93-4-2.56,5.33-.93,10.29-1.95,14.88-.1,12.38-.6,24.77-.19,37.13.35,10.58,5,19.89,11,28.42C30.83,860.9,34.59,865,38.07,869.23Z" />
    <polygon class="cls-126"
        points="691.61 706.38 672.15 717.14 624.62 626.92 647.9 617.19 691.61 706.38" />
</svg>