<svg id="Capa_1" data-name="Capa 1" xmlns="http://www.w3.org/2000/svg"
    xmlns:xlink="http://www.w3.org/1999/xlink" viewBox="0 0 1080 1350">
    <defs>
        <style>
            .cls-14{fill:#c4c2c1;}.cls-2{fill:#3d4b4d;}.cls-132,.cls-3{fill:#353535;}.cls-4{fill:#8f1e25;}.cls-5{fill:#292929;}.cls-6{fill:#c9ced1;}.cls-7{fill:#a9afb3;}.cls-8{fill:#383f48;}.cls-9{fill:#c7c3e6;}.cls-10{fill:#5b6060;}.cls-11{fill:#1e1e1e;}.cls-12{fill:#394749;}.cls-13{fill:#b5b5b5;}.cls-1{fill:url(#linear-gradient);}.cls-15{fill:url(#linear-gradient-2);}.cls-16{fill:url(#linear-gradient-3);}.cls-17{fill:url(#linear-gradient-4);}.cls-18{fill:url(#linear-gradient-5);}.cls-19{fill:url(#linear-gradient-6);}.cls-20{fill:url(#linear-gradient-7);}.cls-21{fill:url(#linear-gradient-8);}.cls-22{fill:url(#linear-gradient-9);}.cls-23{fill:url(#linear-gradient-10);}.cls-24{fill:url(#linear-gradient-11);}.cls-25{fill:url(#linear-gradient-12);}.cls-26{fill:url(#linear-gradient-13);}.cls-27{fill:url(#linear-gradient-14);}.cls-28{fill:url(#linear-gradient-15);}.cls-29{fill:url(#linear-gradient-22);}.cls-30{fill:url(#linear-gradient-29);}.cls-31{fill:url(#linear-gradient-30);}.cls-32{fill:url(#linear-gradient-31);}.cls-33{fill:url(#linear-gradient-32);}.cls-34{fill:url(#linear-gradient-33);}.cls-35{fill:url(#linear-gradient-34);}.cls-36{fill:url(#linear-gradient-35);}.cls-37{fill:url(#linear-gradient-36);}.cls-38{fill:url(#linear-gradient-37);}.cls-39{fill:url(#linear-gradient-38);}.cls-40{fill:url(#linear-gradient-39);}.cls-41{fill:url(#linear-gradient-40);}.cls-42{fill:url(#linear-gradient-41);}.cls-43{fill:url(#linear-gradient-42);}.cls-44{fill:url(#linear-gradient-43);}.cls-45{fill:url(#linear-gradient-44);}.cls-46{fill:url(#linear-gradient-45);}.cls-47{fill:url(#linear-gradient-46);}.cls-48{fill:url(#linear-gradient-47);}.cls-49{fill:url(#linear-gradient-48);}.cls-50{fill:url(#linear-gradient-49);}.cls-51{fill:url(#linear-gradient-50);}.cls-52{fill:url(#linear-gradient-51);}.cls-53{fill:url(#linear-gradient-52);}.cls-54{fill:url(#linear-gradient-53);}.cls-55{fill:url(#linear-gradient-54);}.cls-56{fill:url(#linear-gradient-55);}.cls-57{fill:url(#linear-gradient-56);}.cls-58{fill:url(#linear-gradient-57);}.cls-59{fill:url(#linear-gradient-58);}.cls-60{fill:url(#linear-gradient-59);}.cls-61{fill:url(#linear-gradient-60);}.cls-62{fill:url(#linear-gradient-61);}.cls-63{fill:url(#linear-gradient-62);}.cls-64{fill:url(#linear-gradient-63);}.cls-65{fill:url(#linear-gradient-64);}.cls-66{fill:url(#linear-gradient-65);}.cls-67{fill:url(#linear-gradient-66);}.cls-68{fill:url(#linear-gradient-67);}.cls-69{fill:url(#linear-gradient-68);}.cls-70{fill:url(#linear-gradient-69);}.cls-71{fill:#9895a8;}.cls-72{fill:#8e8f98;}.cls-73{fill:#c6c4e6;}.cls-74{fill:#131313;}.cls-75{fill:url(#linear-gradient-70);}.cls-76{fill:url(#linear-gradient-71);}.cls-77{fill:url(#linear-gradient-72);}.cls-78{fill:url(#linear-gradient-73);}.cls-79{fill:url(#linear-gradient-74);}.cls-80{fill:url(#linear-gradient-75);}.cls-81{fill:url(#linear-gradient-76);}.cls-82{fill:url(#linear-gradient-77);}.cls-83{fill:url(#linear-gradient-78);}.cls-84{fill:url(#linear-gradient-79);}.cls-85{fill:url(#linear-gradient-80);}.cls-86{fill:url(#linear-gradient-81);}.cls-87{fill:url(#linear-gradient-82);}.cls-88{fill:url(#linear-gradient-83);}.cls-89{fill:url(#linear-gradient-84);}.cls-90{fill:url(#linear-gradient-91);}.cls-91{fill:url(#linear-gradient-98);}.cls-92{fill:url(#linear-gradient-99);}.cls-93{fill:url(#linear-gradient-100);}.cls-94{fill:url(#linear-gradient-101);}.cls-95{fill:url(#linear-gradient-102);}.cls-96{fill:url(#linear-gradient-103);}.cls-97{fill:url(#linear-gradient-104);}.cls-98{fill:url(#linear-gradient-105);}.cls-99{fill:url(#linear-gradient-106);}.cls-100{fill:url(#linear-gradient-107);}.cls-101{fill:url(#linear-gradient-108);}.cls-102{fill:url(#linear-gradient-109);}.cls-103{fill:url(#linear-gradient-110);}.cls-104{fill:url(#linear-gradient-111);}.cls-105{fill:url(#linear-gradient-112);}.cls-106{fill:url(#linear-gradient-113);}.cls-107{fill:url(#linear-gradient-114);}.cls-108{fill:url(#linear-gradient-115);}.cls-109{fill:url(#linear-gradient-116);}.cls-110{fill:url(#linear-gradient-117);}.cls-111{fill:url(#linear-gradient-118);}.cls-112{fill:url(#linear-gradient-119);}.cls-113{fill:url(#linear-gradient-120);}.cls-114{fill:url(#linear-gradient-121);}.cls-115{fill:url(#linear-gradient-122);}.cls-116{fill:url(#linear-gradient-123);}.cls-117{fill:url(#linear-gradient-124);}.cls-118{fill:url(#linear-gradient-125);}.cls-119{fill:url(#linear-gradient-126);}.cls-120{fill:url(#linear-gradient-127);}.cls-121{fill:url(#linear-gradient-128);}.cls-122{fill:url(#linear-gradient-129);}.cls-123{fill:url(#linear-gradient-130);}.cls-124{fill:url(#linear-gradient-131);}.cls-125{fill:url(#linear-gradient-132);}.cls-126{fill:url(#linear-gradient-133);}.cls-127{fill:url(#linear-gradient-134);}.cls-128{fill:url(#linear-gradient-135);}.cls-129{fill:url(#linear-gradient-136);}.cls-130{fill:url(#linear-gradient-137);}.cls-131{fill:url(#linear-gradient-138);}.cls-132{opacity:0.29;}.cls-133{fill:#fd0101;}</style>
        <linearGradient id="linear-gradient" x1="-6885.97" y1="740.5" x2="-6886.12" y2="740.23"
            gradientTransform="matrix(-1, 0, 0, 1, -5900.3, 0)" gradientUnits="userSpaceOnUse">
            <stop offset="0" stop-color="#181818" />
            <stop offset="0.27" stop-color="#262626" />
            <stop offset="0.77" stop-color="#2e2e2e" />
        </linearGradient>
        <linearGradient id="linear-gradient-2" x1="-6885.25" y1="740.23" x2="-6885.41" y2="739.95"
            xlink:href="#linear-gradient" />
        <linearGradient id="linear-gradient-3" x1="-6879.87" y1="740.83" x2="-6881" y2="738.86"
            xlink:href="#linear-gradient" />
        <linearGradient id="linear-gradient-4" x1="-6868.65" y1="751.71" x2="-6875.13" y2="740.49"
            xlink:href="#linear-gradient" />
        <linearGradient id="linear-gradient-5" x1="-6853.88" y1="755.92" x2="-6858.93" y2="747.18"
            xlink:href="#linear-gradient" />
        <linearGradient id="linear-gradient-6" x1="-6844.19" y1="797.92" x2="-6864.46" y2="762.81"
            xlink:href="#linear-gradient" />
        <linearGradient id="linear-gradient-7" x1="-6841.34" y1="768.71" x2="-6843.05" y2="765.75"
            xlink:href="#linear-gradient" />
        <linearGradient id="linear-gradient-8" x1="-6839.15" y1="772.1" x2="-6841.16" y2="768.61"
            xlink:href="#linear-gradient" />
        <linearGradient id="linear-gradient-9" x1="-6833.65" y1="782.78" x2="-6835.65" y2="779.32"
            xlink:href="#linear-gradient" />
        <linearGradient id="linear-gradient-10" x1="-6830.8" y1="789.81" x2="-6834.56" y2="783.31"
            xlink:href="#linear-gradient" />
        <linearGradient id="linear-gradient-11" x1="-6830.38" y1="821.26" x2="-6831.14" y2="819.95"
            xlink:href="#linear-gradient" />
        <linearGradient id="linear-gradient-12" x1="-6829.28" y1="817.87" x2="-6830.07" y2="816.51"
            xlink:href="#linear-gradient" />
        <linearGradient id="linear-gradient-13" x1="-6828.31" y1="815.03" x2="-6829.75" y2="812.53"
            xlink:href="#linear-gradient" />
        <linearGradient id="linear-gradient-14" x1="-6827.16" y1="810.77" x2="-6832.95" y2="800.76"
            xlink:href="#linear-gradient" />
        <linearGradient id="linear-gradient-15" x1="-7193.11" y1="824.26" x2="-7247.92" y2="729.33"
            gradientTransform="matrix(-1, 0, 0, 1, -6272.66, 0)" xlink:href="#linear-gradient" />
        <linearGradient id="linear-gradient-22" x1="-6845.33" y1="798.58" x2="-6865.6" y2="763.47"
            xlink:href="#linear-gradient" />
        <linearGradient id="linear-gradient-29" x1="-7192.31" y1="823.35" x2="-7246.69" y2="729.15"
            gradientTransform="matrix(-1, 0, 0, 1, -6272.66, 0)" xlink:href="#linear-gradient" />
        <linearGradient id="linear-gradient-30" x1="-6885.46" y1="740.36" x2="-6885.17" y2="739.85"
            gradientTransform="matrix(-1, 0, 0, 1, -5900.3, 0)" gradientUnits="userSpaceOnUse">
            <stop offset="0" stop-color="#141414" />
            <stop offset="0.44" stop-color="#1e1e1e" />
            <stop offset="0.78" stop-color="#202020" />
            <stop offset="0.98" stop-color="#292929" />
            <stop offset="1" stop-color="#2a2a2a" />
        </linearGradient>
        <linearGradient id="linear-gradient-31" x1="-6880.93" y1="740.7" x2="-6879.94" y2="738.99"
            xlink:href="#linear-gradient-30" />
        <linearGradient id="linear-gradient-32" x1="-6884.24" y1="779.74" x2="-6879.67" y2="771.82"
            xlink:href="#linear-gradient-30" />
        <linearGradient id="linear-gradient-33" x1="-6874.2" y1="801.38" x2="-6869.63" y2="793.47"
            xlink:href="#linear-gradient-30" />
        <linearGradient id="linear-gradient-34" x1="-6874.17" y1="750.05" x2="-6869.77" y2="742.42"
            xlink:href="#linear-gradient-30" />
        <linearGradient id="linear-gradient-35" x1="-6857.46" y1="753.68" x2="-6855.62" y2="750.5"
            xlink:href="#linear-gradient-30" />
        <linearGradient id="linear-gradient-36" x1="-6842.55" y1="767.87" x2="-6841.79" y2="766.55"
            xlink:href="#linear-gradient-30" />
        <linearGradient id="linear-gradient-37" x1="-6840.67" y1="771.22" x2="-6839.69" y2="769.52"
            xlink:href="#linear-gradient-30" />
        <linearGradient id="linear-gradient-38" x1="-6898.7" y1="787.03" x2="-6897.18" y2="784.4"
            xlink:href="#linear-gradient-30" />
        <linearGradient id="linear-gradient-39" x1="-6890.19" y1="742.48" x2="-6889.1" y2="740.58"
            xlink:href="#linear-gradient-30" />
        <linearGradient id="linear-gradient-40" x1="-6886.27" y1="740.57" x2="-6885.99" y2="740.1"
            xlink:href="#linear-gradient-30" />
        <linearGradient id="linear-gradient-41" x1="-6860.84" y1="830.84" x2="-6860.6" y2="830.43"
            xlink:href="#linear-gradient-30" />
        <linearGradient id="linear-gradient-42" x1="-6864.87" y1="794.42" x2="-6850.83" y2="770.1"
            xlink:href="#linear-gradient-30" />
        <linearGradient id="linear-gradient-43" x1="-6835.26" y1="782.1" x2="-6834.04" y2="779.99"
            xlink:href="#linear-gradient-30" />
        <linearGradient id="linear-gradient-44" x1="-6833.8" y1="788.63" x2="-6831.34" y2="784.37"
            xlink:href="#linear-gradient-30" />
        <linearGradient id="linear-gradient-45" x1="-6831.35" y1="821.64" x2="-6830.16" y2="819.58"
            xlink:href="#linear-gradient-30" />
        <linearGradient id="linear-gradient-46" x1="-6830.22" y1="818.13" x2="-6829.13" y2="816.25"
            xlink:href="#linear-gradient-30" />
        <linearGradient id="linear-gradient-47" x1="-6829.88" y1="815.25" x2="-6828.18" y2="812.3"
            xlink:href="#linear-gradient-30" />
        <linearGradient id="linear-gradient-48" x1="-6832.76" y1="809.44" x2="-6828.17" y2="801.5"
            xlink:href="#linear-gradient-30" />
        <linearGradient id="linear-gradient-49" x1="-7248.42" y1="810.38" x2="-7214.8" y2="752.15"
            gradientTransform="matrix(-1, 0, 0, 1, -6272.66, 0)" xlink:href="#linear-gradient-30" />
        <linearGradient id="linear-gradient-50" x1="-6885.46" y1="740.36" x2="-6885.17" y2="739.85"
            gradientTransform="matrix(-1, 0, 0, 1, -5900.3, 0)" gradientUnits="userSpaceOnUse">
            <stop offset="0" stop-color="#161616" />
            <stop offset="0.3" stop-color="#1a1a1a" />
            <stop offset="0.79" stop-color="#1e1e1e" />
            <stop offset="0.8" stop-color="#1e1e1e" />
        </linearGradient>
        <linearGradient id="linear-gradient-51" x1="-6880.93" y1="740.7" x2="-6879.94" y2="738.99"
            xlink:href="#linear-gradient-50" />
        <linearGradient id="linear-gradient-52" x1="-6884.24" y1="779.74" x2="-6879.67" y2="771.82"
            xlink:href="#linear-gradient-50" />
        <linearGradient id="linear-gradient-53" x1="-6874.2" y1="801.38" x2="-6869.63" y2="793.47"
            xlink:href="#linear-gradient-50" />
        <linearGradient id="linear-gradient-54" x1="-6874.17" y1="750.05" x2="-6869.77" y2="742.42"
            xlink:href="#linear-gradient-50" />
        <linearGradient id="linear-gradient-55" x1="-6857.46" y1="753.68" x2="-6855.62" y2="750.5"
            xlink:href="#linear-gradient-50" />
        <linearGradient id="linear-gradient-56" x1="-6842.55" y1="767.87" x2="-6841.79" y2="766.55"
            xlink:href="#linear-gradient-50" />
        <linearGradient id="linear-gradient-57" x1="-6840.67" y1="771.22" x2="-6839.69" y2="769.52"
            xlink:href="#linear-gradient-50" />
        <linearGradient id="linear-gradient-58" x1="-6898.7" y1="787.03" x2="-6897.18" y2="784.4"
            xlink:href="#linear-gradient-50" />
        <linearGradient id="linear-gradient-59" x1="-6890.19" y1="742.48" x2="-6889.1" y2="740.58"
            xlink:href="#linear-gradient-50" />
        <linearGradient id="linear-gradient-60" x1="-6886.27" y1="740.57" x2="-6885.99" y2="740.1"
            xlink:href="#linear-gradient-50" />
        <linearGradient id="linear-gradient-61" x1="-6860.84" y1="830.84" x2="-6860.6" y2="830.43"
            xlink:href="#linear-gradient-50" />
        <linearGradient id="linear-gradient-62" x1="-6864.87" y1="794.42" x2="-6850.83" y2="770.1"
            xlink:href="#linear-gradient-50" />
        <linearGradient id="linear-gradient-63" x1="-6835.26" y1="782.1" x2="-6834.04" y2="779.99"
            xlink:href="#linear-gradient-50" />
        <linearGradient id="linear-gradient-64" x1="-6833.8" y1="788.63" x2="-6831.34" y2="784.37"
            xlink:href="#linear-gradient-50" />
        <linearGradient id="linear-gradient-65" x1="-6831.35" y1="821.64" x2="-6830.16" y2="819.58"
            xlink:href="#linear-gradient-50" />
        <linearGradient id="linear-gradient-66" x1="-6830.22" y1="818.13" x2="-6829.13" y2="816.25"
            xlink:href="#linear-gradient-50" />
        <linearGradient id="linear-gradient-67" x1="-6829.88" y1="815.25" x2="-6828.18" y2="812.3"
            xlink:href="#linear-gradient-50" />
        <linearGradient id="linear-gradient-68" x1="-6832.76" y1="809.44" x2="-6828.17" y2="801.5"
            xlink:href="#linear-gradient-50" />
        <linearGradient id="linear-gradient-69" x1="-7248.42" y1="810.38" x2="-7214.8" y2="752.15"
            gradientTransform="matrix(-1, 0, 0, 1, -6272.66, 0)" xlink:href="#linear-gradient-50" />
        <linearGradient id="linear-gradient-70" x1="-6431.68" y1="1014.31" x2="-6431.84"
            y2="1014.04" xlink:href="#linear-gradient" />
        <linearGradient id="linear-gradient-71" x1="-6430.96" y1="1014.04" x2="-6431.12"
            y2="1013.77" xlink:href="#linear-gradient" />
        <linearGradient id="linear-gradient-72" x1="-6425.58" y1="1014.64" x2="-6426.71"
            y2="1012.68" xlink:href="#linear-gradient" />
        <linearGradient id="linear-gradient-73" x1="-6414.36" y1="1025.53" x2="-6420.84"
            y2="1014.31" xlink:href="#linear-gradient" />
        <linearGradient id="linear-gradient-74" x1="-6399.59" y1="1029.74" x2="-6404.64"
            y2="1020.99" xlink:href="#linear-gradient" />
        <linearGradient id="linear-gradient-75" x1="-6389.9" y1="1071.73" x2="-6410.17" y2="1036.62"
            xlink:href="#linear-gradient" />
        <linearGradient id="linear-gradient-76" x1="-6387.05" y1="1042.52" x2="-6388.76"
            y2="1039.56" xlink:href="#linear-gradient" />
        <linearGradient id="linear-gradient-77" x1="-6384.86" y1="1045.91" x2="-6386.87"
            y2="1042.42" xlink:href="#linear-gradient" />
        <linearGradient id="linear-gradient-78" x1="-6379.36" y1="1056.59" x2="-6381.36"
            y2="1053.13" xlink:href="#linear-gradient" />
        <linearGradient id="linear-gradient-79" x1="-6376.52" y1="1063.63" x2="-6380.27"
            y2="1057.12" xlink:href="#linear-gradient" />
        <linearGradient id="linear-gradient-80" x1="-6376.09" y1="1095.08" x2="-6376.85"
            y2="1093.77" xlink:href="#linear-gradient" />
        <linearGradient id="linear-gradient-81" x1="-6374.99" y1="1091.69" x2="-6375.78"
            y2="1090.33" xlink:href="#linear-gradient" />
        <linearGradient id="linear-gradient-82" x1="-6374.02" y1="1088.84" x2="-6375.46"
            y2="1086.34" xlink:href="#linear-gradient" />
        <linearGradient id="linear-gradient-83" x1="-6372.87" y1="1084.59" x2="-6378.66"
            y2="1074.57" xlink:href="#linear-gradient" />
        <linearGradient id="linear-gradient-84" x1="-6738.82" y1="1098.08" x2="-6793.63"
            y2="1003.15" gradientTransform="matrix(-1, 0, 0, 1, -6272.66, 0)"
            xlink:href="#linear-gradient" />
        <linearGradient id="linear-gradient-91" x1="-6391.04" y1="1072.39" x2="-6411.31"
            y2="1037.28" xlink:href="#linear-gradient" />
        <linearGradient id="linear-gradient-98" x1="-6738.02" y1="1097.17" x2="-6792.4" y2="1002.97"
            gradientTransform="matrix(-1, 0, 0, 1, -6272.66, 0)" xlink:href="#linear-gradient" />
        <linearGradient id="linear-gradient-99" x1="-6431.18" y1="1014.17" x2="-6430.88"
            y2="1013.67" xlink:href="#linear-gradient-30" />
        <linearGradient id="linear-gradient-100" x1="-6426.64" y1="1014.51" x2="-6425.65"
            y2="1012.81" xlink:href="#linear-gradient-30" />
        <linearGradient id="linear-gradient-101" x1="-6429.95" y1="1053.55" x2="-6425.38"
            y2="1045.63" xlink:href="#linear-gradient-30" />
        <linearGradient id="linear-gradient-102" x1="-6419.91" y1="1075.2" x2="-6415.34"
            y2="1067.29" xlink:href="#linear-gradient-30" />
        <linearGradient id="linear-gradient-103" x1="-6419.88" y1="1023.86" x2="-6415.48"
            y2="1016.24" xlink:href="#linear-gradient-30" />
        <linearGradient id="linear-gradient-104" x1="-6403.17" y1="1027.49" x2="-6401.34"
            y2="1024.32" xlink:href="#linear-gradient-30" />
        <linearGradient id="linear-gradient-105" x1="-6388.26" y1="1041.69" x2="-6387.5"
            y2="1040.37" xlink:href="#linear-gradient-30" />
        <linearGradient id="linear-gradient-106" x1="-6386.38" y1="1045.03" x2="-6385.4"
            y2="1043.34" xlink:href="#linear-gradient-30" />
        <linearGradient id="linear-gradient-107" x1="-6444.41" y1="1060.85" x2="-6442.89"
            y2="1058.22" xlink:href="#linear-gradient-30" />
        <linearGradient id="linear-gradient-108" x1="-6435.9" y1="1016.29" x2="-6434.81" y2="1014.4"
            xlink:href="#linear-gradient-30" />
        <linearGradient id="linear-gradient-109" x1="-6431.98" y1="1014.39" x2="-6431.71"
            y2="1013.92" xlink:href="#linear-gradient-30" />
        <linearGradient id="linear-gradient-110" x1="-6406.55" y1="1104.66" x2="-6406.31"
            y2="1104.25" xlink:href="#linear-gradient-30" />
        <linearGradient id="linear-gradient-111" x1="-6410.58" y1="1068.23" x2="-6396.54"
            y2="1043.91" xlink:href="#linear-gradient-30" />
        <linearGradient id="linear-gradient-112" x1="-6380.97" y1="1055.92" x2="-6379.75"
            y2="1053.81" xlink:href="#linear-gradient-30" />
        <linearGradient id="linear-gradient-113" x1="-6379.51" y1="1062.44" x2="-6377.05"
            y2="1058.18" xlink:href="#linear-gradient-30" />
        <linearGradient id="linear-gradient-114" x1="-6377.06" y1="1095.45" x2="-6375.87"
            y2="1093.39" xlink:href="#linear-gradient-30" />
        <linearGradient id="linear-gradient-115" x1="-6375.93" y1="1091.95" x2="-6374.84"
            y2="1090.07" xlink:href="#linear-gradient-30" />
        <linearGradient id="linear-gradient-116" x1="-6375.59" y1="1089.07" x2="-6373.89"
            y2="1086.12" xlink:href="#linear-gradient-30" />
        <linearGradient id="linear-gradient-117" x1="-6378.47" y1="1083.26" x2="-6373.89"
            y2="1075.31" xlink:href="#linear-gradient-30" />
        <linearGradient id="linear-gradient-118" x1="-6794.13" y1="1084.2" x2="-6760.51"
            y2="1025.97" gradientTransform="matrix(-1, 0, 0, 1, -6272.66, 0)"
            xlink:href="#linear-gradient-30" />
        <linearGradient id="linear-gradient-119" x1="-6431.18" y1="1014.17" x2="-6430.88"
            y2="1013.67" xlink:href="#linear-gradient-50" />
        <linearGradient id="linear-gradient-120" x1="-6426.64" y1="1014.51" x2="-6425.65"
            y2="1012.81" xlink:href="#linear-gradient-50" />
        <linearGradient id="linear-gradient-121" x1="-6429.95" y1="1053.55" x2="-6425.38"
            y2="1045.63" xlink:href="#linear-gradient-50" />
        <linearGradient id="linear-gradient-122" x1="-6419.91" y1="1075.2" x2="-6415.34"
            y2="1067.29" xlink:href="#linear-gradient-50" />
        <linearGradient id="linear-gradient-123" x1="-6419.88" y1="1023.86" x2="-6415.48"
            y2="1016.24" xlink:href="#linear-gradient-50" />
        <linearGradient id="linear-gradient-124" x1="-6403.17" y1="1027.49" x2="-6401.34"
            y2="1024.32" xlink:href="#linear-gradient-50" />
        <linearGradient id="linear-gradient-125" x1="-6388.26" y1="1041.69" x2="-6387.5"
            y2="1040.37" xlink:href="#linear-gradient-50" />
        <linearGradient id="linear-gradient-126" x1="-6386.38" y1="1045.03" x2="-6385.4"
            y2="1043.34" xlink:href="#linear-gradient-50" />
        <linearGradient id="linear-gradient-127" x1="-6444.41" y1="1060.85" x2="-6442.89"
            y2="1058.22" xlink:href="#linear-gradient-50" />
        <linearGradient id="linear-gradient-128" x1="-6435.9" y1="1016.29" x2="-6434.81" y2="1014.4"
            xlink:href="#linear-gradient-50" />
        <linearGradient id="linear-gradient-129" x1="-6431.98" y1="1014.39" x2="-6431.71"
            y2="1013.92" xlink:href="#linear-gradient-50" />
        <linearGradient id="linear-gradient-130" x1="-6406.55" y1="1104.66" x2="-6406.31"
            y2="1104.25" xlink:href="#linear-gradient-50" />
        <linearGradient id="linear-gradient-131" x1="-6410.58" y1="1068.23" x2="-6396.54"
            y2="1043.91" xlink:href="#linear-gradient-50" />
        <linearGradient id="linear-gradient-132" x1="-6380.97" y1="1055.92" x2="-6379.75"
            y2="1053.81" xlink:href="#linear-gradient-50" />
        <linearGradient id="linear-gradient-133" x1="-6379.51" y1="1062.44" x2="-6377.05"
            y2="1058.18" xlink:href="#linear-gradient-50" />
        <linearGradient id="linear-gradient-134" x1="-6377.06" y1="1095.45" x2="-6375.87"
            y2="1093.39" xlink:href="#linear-gradient-50" />
        <linearGradient id="linear-gradient-135" x1="-6375.93" y1="1091.95" x2="-6374.84"
            y2="1090.07" xlink:href="#linear-gradient-50" />
        <linearGradient id="linear-gradient-136" x1="-6375.59" y1="1089.07" x2="-6373.89"
            y2="1086.12" xlink:href="#linear-gradient-50" />
        <linearGradient id="linear-gradient-137" x1="-6378.47" y1="1083.26" x2="-6373.89"
            y2="1075.31" xlink:href="#linear-gradient-50" />
        <linearGradient id="linear-gradient-138" x1="-6794.13" y1="1084.2" x2="-6760.51"
            y2="1025.97" gradientTransform="matrix(-1, 0, 0, 1, -6272.66, 0)"
            xlink:href="#linear-gradient-50" />
    </defs>
    <path id="body" class="cls-14"
        d="M16,546,576.19,284.07l66.78,27L697.51,285s69.84,13.56,77.44,16S896.9,346,903.3,348.77s24,11.66,25.78,12.75,46.08,33.29,46.08,33.29l72,136.17,7.18,119.85-178,108.78L847,748.85v31.62L290.4,1114.81,16,956.87Z" />
    <path class="cls-2"
        d="M1017,683.2,877.25,766.92V700.14l56-32.74C958,652.9,1017,654.49,1017,683.2Z" />
    <polygon class="cls-3"
        points="424.17 1033.87 424.17 1096.11 369.94 1066.33 402.04 1047.1 402.04 1078.19 418.24 1087.15 418.24 1037.43 424.17 1033.87" />
    <polygon class="cls-4"
        points="418.24 1037.43 418.24 1087.15 402.04 1078.19 402.04 1047.1 418.24 1037.43" />
    <polygon class="cls-5"
        points="845.49 750.14 877.25 766.92 877.25 702.16 845.49 685.78 845.49 750.14" />
    <path class="cls-6"
        d="M1033.92,566.69l-12.43,7.49a24.82,24.82,0,0,1-9.76,3.38l-53,6.56a76.88,76.88,0,0,0-22.34,6.29l-14.81,6.72a7.23,7.23,0,0,1-10.21-6.59V457.07a12,12,0,0,1,6.8-10.85l49.68-25.77a7.82,7.82,0,0,1,10.35,3.44l55.83,106.22a28.85,28.85,0,0,1,3.23,12.44l.49,17.07A8,8,0,0,1,1033.92,566.69Z" />
    <path class="cls-7"
        d="M917.13,621.3c2.15-.36,24.6-11.22,26.07-14.17,1.2-2.43.55-6.92-1.3-10.11a.43.43,0,0,1-.11-.24l-.33-.55s-26.14,15.53-27.08,17.5v.06C913.93,615.55,914.91,621.6,917.13,621.3Z" />
    <path class="cls-8"
        d="M914.38,613.73v.06c0,1.54.94,2.48,2.59,1.62l21.13-10.69a7.9,7.9,0,0,0,3.82-5.86l0-.77a6.46,6.46,0,0,0-.06-1.07.43.43,0,0,1-.11-.24l-.33-.55c-.61-.81-1.67-1-2.89-.34l-15.39,7.79a21.76,21.76,0,0,0-8,7.66A5.34,5.34,0,0,0,914.38,613.73Z" />
    <path class="cls-9"
        d="M935.77,601.59c-.06,1.19.75,1.72,1.83,1.17a4.13,4.13,0,0,0,2-3.14c.06-1.19-.75-1.72-1.82-1.17A4.17,4.17,0,0,0,935.77,601.59Z" />
    <polygon class="cls-2"
        points="1057.84 628.87 1057.84 666.42 1046.27 673.37 1046.27 655.68 1052.2 652.13 1051.08 632.9 1057.84 628.87" />
    <polygon class="cls-5" points="1046.27 655.68 1046.27 673.31 1029.24 665.89 1046.27 655.68" />
    <polygon class="cls-10" points="1057.84 628.87 1051.08 632.9 1050.66 625.78 1057.84 628.87" />
    <path class="cls-11"
        d="M1033.92,566.69l-12.43,7.49a24.82,24.82,0,0,1-9.76,3.38l-53,6.56a76.88,76.88,0,0,0-22.34,6.29l-14.81,6.72a7.23,7.23,0,0,1-10.21-6.59V457.07a12,12,0,0,1,6.8-10.85l49.68-25.77a7.82,7.82,0,0,1,10.35,3.44l55.83,106.22a28.85,28.85,0,0,1,3.23,12.44l.49,17.07A8,8,0,0,1,1033.92,566.69Z" />
    <path class="cls-12"
        d="M1058.1,575.81l-18.19-8.8a6.92,6.92,0,0,1-3.94-6.21V548.14a6.93,6.93,0,0,1,10-6.12l18.2,8.74a6.92,6.92,0,0,1,4,6.22v12.73A6.93,6.93,0,0,1,1058.1,575.81Z" />
    <path class="cls-13"
        d="M1060.54,570.64c-4,1.6-11-2.69-14.48-4.5-2.46-1.3-4.18-3.13-4.18-6.12,0,0-1.42-11.65.87-12.82,3.77-2,15.19,5,15.19,5a8.32,8.32,0,0,1,4.66,6.86C1062.77,562,1062.75,569.76,1060.54,570.64Z" />
    <path class="cls-1" d="M985.54,740.19c.08.17.26.26.34.43l.18-.26A1.38,1.38,0,0,0,985.54,740.19Z" />
    <path class="cls-15" d="M984.59,740c.34.08.6.08.86.17l-.09-.09Z" />
    <path class="cls-16"
        d="M978,739.93a23.75,23.75,0,0,1,4.24-.17,4.07,4.07,0,0,0-1-.09h-.34c-.61,0-1.13.09-1.65.09C978.88,739.84,978.45,739.84,978,739.93Z" />
    <path class="cls-17"
        d="M968.93,752c2,.52,4.85-1.73,6.4-4.93,1.3-2.77,1.13-5.53-.43-6.48h-.09a19.61,19.61,0,0,0-2.76.77c-.69.26-1.39.52-2.16.87a10.21,10.21,0,0,0-2,2.94C966.34,748.41,966.86,751.43,968.93,752Z" />
    <path class="cls-18"
        d="M951.81,754.89a3.3,3.3,0,0,0,3.55-.17,10.2,10.2,0,0,0,4.49-6.83A76.26,76.26,0,0,0,951.81,754.89Z" />
    <path class="cls-19"
        d="M943.34,790.86c0,6,2.77,9.6,7,10l.61-1c-2.42-1.29-4-4.23-4-8.47,0-8.21,5.88-18.33,13.06-22.48,3.8-2.16,7.18-2.25,9.6-.69l.6-1c-2.51-3.63-7.18-4.32-12.54-1.21C949.74,770.63,943.34,781.7,943.34,790.86Z" />
    <path class="cls-20"
        d="M940.92,768.64a10.16,10.16,0,0,0,1.9-2.85C942.13,766.74,941.52,767.69,940.92,768.64Z" />
    <path class="cls-21"
        d="M938.84,772.1c.69-1.21,1.39-2.34,2.08-3.46-.69,1-1.3,2.16-2,3.2A.31.31,0,0,0,938.84,772.1Z" />
    <path class="cls-22"
        d="M933.57,782.91c.52-1.21,1-2.42,1.55-3.72-.25.52-.43,1-.69,1.47C934.17,781.44,933.83,782.13,933.57,782.91Z" />
    <path class="cls-23"
        d="M931,790.08a10.37,10.37,0,0,0,2.42-4.41,6.23,6.23,0,0,0,.18-2.76c-.43,1-.78,1.9-1.13,2.85a22.39,22.39,0,0,0-.86,2.51A16.05,16.05,0,0,0,931,790.08Z" />
    <path class="cls-24"
        d="M930,819.48a6.46,6.46,0,0,0,.44,1.39c.17.26.25.6.43.86A16.68,16.68,0,0,1,930,819.48Z" />
    <path class="cls-25"
        d="M929.07,816.11c.09.43.17.87.26,1.3a2.77,2.77,0,0,1,.35.86A15.13,15.13,0,0,1,929.07,816.11Z" />
    <path class="cls-26"
        d="M928.47,812c.08.78.17,1.56.26,2.25a6.71,6.71,0,0,0,.26,1.38C928.81,814.38,928.64,813.26,928.47,812Z" />
    <path class="cls-27"
        d="M928.21,807.64a29,29,0,0,0,.26,4.06,6.58,6.58,0,0,0,2-1.38c2.42-2.25,3.71-6,2.93-8.3-.69-2-2.59-2.34-4.75-.95v.08A55.53,55.53,0,0,0,928.21,807.64Z" />
    <path class="cls-28"
        d="M923.37,807.8c0,9.94,2.8,17.37,7.58,22.08a5.63,5.63,0,0,0,1.4,1.25l.36-.52a8.72,8.72,0,0,1-1-1.25c-3.82-4.71-6-11.62-6-20.23a50,50,0,0,1,.3-5.74c2.35-23.47,18.91-50,38.78-61.59,7.57-4.41,14.78-6,20.82-5.07a12.46,12.46,0,0,1,2.28.51H988l.22-.44c-.81-.3-1.69-.66-2.57-1-6.55-1.69-14.5-.44-23.25,4.64C940.81,752.91,923.37,783,923.37,807.8Z" />
    <path class="cls-15" d="M984.59,740c.34.08.6.08.86.17l-.09-.09Z" />
    <path class="cls-16"
        d="M978,739.93a23.75,23.75,0,0,1,4.24-.17,4.07,4.07,0,0,0-1-.09h-.34c-.61,0-1.13.09-1.65.09C978.88,739.84,978.45,739.84,978,739.93Z" />
    <path class="cls-17"
        d="M968.93,752c2,.52,4.85-1.73,6.4-4.93,1.3-2.77,1.13-5.53-.43-6.48h-.09a19.61,19.61,0,0,0-2.76.77c-.69.26-1.39.52-2.16.87a10.21,10.21,0,0,0-2,2.94C966.34,748.41,966.86,751.43,968.93,752Z" />
    <path class="cls-18"
        d="M951.81,754.89a3.3,3.3,0,0,0,3.55-.17,10.2,10.2,0,0,0,4.49-6.83A76.26,76.26,0,0,0,951.81,754.89Z" />
    <path class="cls-20"
        d="M940.92,768.64a10.16,10.16,0,0,0,1.9-2.85C942.13,766.74,941.52,767.69,940.92,768.64Z" />
    <path class="cls-21"
        d="M938.84,772.1c.69-1.21,1.39-2.34,2.08-3.46-.69,1-1.3,2.16-2,3.2A.31.31,0,0,0,938.84,772.1Z" />
    <path class="cls-29"
        d="M943.34,790.86c0,6,2.77,9.6,7,10a7.86,7.86,0,0,0,3.46-.26,7.49,7.49,0,0,1-2.85-.78c-2.42-1.29-4-4.23-4-8.47,0-8.21,5.88-18.33,13.06-22.48,3.8-2.16,7.18-2.25,9.6-.69a6,6,0,0,1,1.9,2,10.54,10.54,0,0,0-1.3-3c-2.51-3.63-7.18-4.32-12.54-1.21C949.74,770.63,943.34,781.7,943.34,790.86Z" />
    <path class="cls-22"
        d="M933.57,782.91c.52-1.21,1-2.42,1.55-3.72-.25.52-.43,1-.69,1.47C934.17,781.44,933.83,782.13,933.57,782.91Z" />
    <path class="cls-23"
        d="M931,790.08a10.37,10.37,0,0,0,2.42-4.41,6.23,6.23,0,0,0,.18-2.76c-.43,1-.78,1.9-1.13,2.85a22.39,22.39,0,0,0-.86,2.51A16.05,16.05,0,0,0,931,790.08Z" />
    <path class="cls-24"
        d="M930,819.48a6.46,6.46,0,0,0,.44,1.39c.17.26.25.6.43.86A16.68,16.68,0,0,1,930,819.48Z" />
    <path class="cls-25"
        d="M929.07,816.11c.09.43.17.87.26,1.3a2.77,2.77,0,0,1,.35.86A15.13,15.13,0,0,1,929.07,816.11Z" />
    <path class="cls-26"
        d="M928.47,812c.08.78.17,1.56.26,2.25a6.71,6.71,0,0,0,.26,1.38C928.81,814.38,928.64,813.26,928.47,812Z" />
    <path class="cls-27"
        d="M928.21,807.64a29,29,0,0,0,.26,4.06,6.58,6.58,0,0,0,2-1.38c2.42-2.25,3.71-6,2.93-8.3-.69-2-2.59-2.34-4.75-.95v.08A55.53,55.53,0,0,0,928.21,807.64Z" />
    <path class="cls-30"
        d="M923.37,807.8c0,9.94,2.8,17.37,7.58,22.08.29-.22.44-.3.73-.52-3.82-4.71-6-11.62-6-20.23a50,50,0,0,1,.3-5.74c2.35-23.47,18.91-50,38.78-61.59,7.57-4.41,14.78-6,20.82-5.07a3.77,3.77,0,0,0,0-.89c-6.55-1.69-14.5-.44-23.25,4.64C940.81,752.91,923.37,783,923.37,807.8Z" />
    <path class="cls-31" d="M984.59,740c.34.08.6.08.86.17l-.09-.09Z" />
    <path class="cls-32"
        d="M978,739.93a23.75,23.75,0,0,1,4.24-.17,4.07,4.07,0,0,0-1-.09h-.34c-.61,0-1.13.09-1.65.09C978.88,739.84,978.45,739.84,978,739.93Z" />
    <path class="cls-33"
        d="M980.26,781.61c2.42-.52,5-3.55,5.8-6.74s-.61-5.45-3-4.93-4.93,3.45-5.71,6.74S977.84,782.13,980.26,781.61Z" />
    <path class="cls-34"
        d="M967.9,802.71c1.47,1.47,4.32.34,6.39-2.6s2.51-6.39,1-8-4.41-.35-6.4,2.59S966.43,801.15,967.9,802.71Z" />
    <path class="cls-35"
        d="M968.93,752c2,.52,4.85-1.73,6.4-4.93,1.3-2.77,1.13-5.53-.43-6.48h-.09a19.61,19.61,0,0,0-2.76.77c-.69.26-1.39.52-2.16.87a10.21,10.21,0,0,0-2,2.94C966.34,748.41,966.86,751.43,968.93,752Z" />
    <path class="cls-36"
        d="M951.81,754.89a3.3,3.3,0,0,0,3.55-.17,10.2,10.2,0,0,0,4.49-6.83A76.26,76.26,0,0,0,951.81,754.89Z" />
    <path class="cls-37"
        d="M940.92,768.64a10.16,10.16,0,0,0,1.9-2.85C942.13,766.74,941.52,767.69,940.92,768.64Z" />
    <path class="cls-38"
        d="M938.84,772.1c.69-1.21,1.39-2.34,2.08-3.46-.69,1-1.3,2.16-2,3.2A.31.31,0,0,0,938.84,772.1Z" />
    <path class="cls-39"
        d="M998.07,784.29c-.34,1.21-.77,2.42-1.21,3.63a43,43,0,0,0,1.56-4.41A3.35,3.35,0,0,0,998.07,784.29Z" />
    <path class="cls-40"
        d="M989.34,741.4a4.8,4.8,0,0,0-1.21-.43,7.86,7.86,0,0,1,1.9.95l.09.09a1,1,0,0,1,.43.08c-.26-.17-.52-.26-.78-.43a.31.31,0,0,1-.17-.09.32.32,0,0,1-.17-.08C989.34,741.49,989.34,741.49,989.34,741.4Z" />
    <path class="cls-41" d="M986.06,740.36a1.38,1.38,0,0,0-.52-.17c.08.17.26.26.34.43Z" />
    <path class="cls-42"
        d="M958.3,831.59a35.9,35.9,0,0,0,4.24-1.9c-.7.34-1.47.69-2.17.95S959,831.33,958.3,831.59Z" />
    <path class="cls-43"
        d="M943.34,790.86c0,6,2.77,9.6,7,10a7.86,7.86,0,0,0,3.46-.26,7.49,7.49,0,0,1-2.85-.78c-2.42-1.29-4-4.23-4-8.47,0-8.21,5.88-18.33,13.06-22.48,3.8-2.16,7.18-2.25,9.6-.69a6,6,0,0,1,1.9,2,10.54,10.54,0,0,0-1.3-3c-2.51-3.63-7.18-4.32-12.54-1.21C949.74,770.63,943.34,781.7,943.34,790.86Z" />
    <path class="cls-44"
        d="M933.57,782.91c.52-1.21,1-2.42,1.55-3.72-.25.52-.43,1-.69,1.47C934.17,781.44,933.83,782.13,933.57,782.91Z" />
    <path class="cls-45"
        d="M931,790.08a10.37,10.37,0,0,0,2.42-4.41,6.23,6.23,0,0,0,.18-2.76c-.43,1-.78,1.9-1.13,2.85a22.39,22.39,0,0,0-.86,2.51A16.05,16.05,0,0,0,931,790.08Z" />
    <path class="cls-46"
        d="M930,819.48a6.46,6.46,0,0,0,.44,1.39c.17.26.25.6.43.86A16.68,16.68,0,0,1,930,819.48Z" />
    <path class="cls-47"
        d="M929.07,816.11c.09.43.17.87.26,1.3a2.77,2.77,0,0,1,.35.86A15.13,15.13,0,0,1,929.07,816.11Z" />
    <path class="cls-48"
        d="M928.47,812c.08.78.17,1.56.26,2.25a6.71,6.71,0,0,0,.26,1.38C928.81,814.38,928.64,813.26,928.47,812Z" />
    <path class="cls-49"
        d="M928.21,807.64a29,29,0,0,0,.26,4.06,6.58,6.58,0,0,0,2-1.38c2.42-2.25,3.71-6,2.93-8.3-.69-2-2.59-2.34-4.75-.95v.08A55.53,55.53,0,0,0,928.21,807.64Z" />
    <path class="cls-50"
        d="M923.37,807.8c0,9.94,2.8,17.37,7.58,22.08a5.63,5.63,0,0,0,1.4,1.25l.07.14a22.71,22.71,0,0,0,3.46,2.14,19.26,19.26,0,0,1-3.17-2.8,8.72,8.72,0,0,1-1-1.25c-3.82-4.71-6-11.62-6-20.23a50,50,0,0,1,.3-5.74c2.35-23.47,18.91-50,38.78-61.59,7.57-4.41,14.78-6,20.82-5.07a12.46,12.46,0,0,1,2.28.51H988a17.22,17.22,0,0,1,3.24,1.25,10.06,10.06,0,0,0-3-1.69c-.81-.3-1.69-.66-2.57-1-6.55-1.69-14.5-.44-23.25,4.64C940.81,752.91,923.37,783,923.37,807.8Z" />
    <path class="cls-11"
        d="M920,850.07a3.36,3.36,0,0,0,.74.44c10.22,6,24.35,5.3,40-3.83,31-17.88,56.22-61.29,56.22-96.9,0-11-2.43-20-6.63-26.64a26.93,26.93,0,0,0-9.05-9L983,703.57l-91.35,54.75-8.78,22.8-5.6,30.53-2.3-1.46-18.88-11.7v0a26.08,26.08,0,0,0,12.09,19.13Zm4.12-43.93c0-24.8,17.44-54.89,39-67.32,8.75-5.08,16.7-6.33,23.25-4.64.88.29,1.77.66,2.57,1a9.85,9.85,0,0,1,3,1.69c7.73,3.68,12.58,12.58,12.58,25.53,0,24.8-17.51,54.89-39,67.4-11.48,6.55-21.78,6.84-28.92,2a22.71,22.71,0,0,1-3.46-2.14l-.07-.14a5.48,5.48,0,0,1-1.4-1.26C926.91,823.51,924.11,816.07,924.11,806.14Z" />
    <path class="cls-51" d="M984.59,740c.34.08.6.08.86.17l-.09-.09Z" />
    <path class="cls-52"
        d="M978,739.93a23.75,23.75,0,0,1,4.24-.17,4.07,4.07,0,0,0-1-.09h-.34c-.61,0-1.13.09-1.65.09C978.88,739.84,978.45,739.84,978,739.93Z" />
    <path class="cls-53"
        d="M980.26,781.61c2.42-.52,5-3.55,5.8-6.74s-.61-5.45-3-4.93-4.93,3.45-5.71,6.74S977.84,782.13,980.26,781.61Z" />
    <path class="cls-54"
        d="M967.9,802.71c1.47,1.47,4.32.34,6.39-2.6s2.51-6.39,1-8-4.41-.35-6.4,2.59S966.43,801.15,967.9,802.71Z" />
    <path class="cls-55"
        d="M968.93,752c2,.52,4.85-1.73,6.4-4.93,1.3-2.77,1.13-5.53-.43-6.48h-.09a19.61,19.61,0,0,0-2.76.77c-.69.26-1.39.52-2.16.87a10.21,10.21,0,0,0-2,2.94C966.34,748.41,966.86,751.43,968.93,752Z" />
    <path class="cls-56"
        d="M951.81,754.89a3.3,3.3,0,0,0,3.55-.17,10.2,10.2,0,0,0,4.49-6.83A76.26,76.26,0,0,0,951.81,754.89Z" />
    <path class="cls-57"
        d="M940.92,768.64a10.16,10.16,0,0,0,1.9-2.85C942.13,766.74,941.52,767.69,940.92,768.64Z" />
    <path class="cls-58"
        d="M938.84,772.1c.69-1.21,1.39-2.34,2.08-3.46-.69,1-1.3,2.16-2,3.2A.31.31,0,0,0,938.84,772.1Z" />
    <path class="cls-59"
        d="M998.07,784.29c-.34,1.21-.77,2.42-1.21,3.63a43,43,0,0,0,1.56-4.41A3.35,3.35,0,0,0,998.07,784.29Z" />
    <path class="cls-60"
        d="M989.34,741.4a4.8,4.8,0,0,0-1.21-.43,7.86,7.86,0,0,1,1.9.95l.09.09a1,1,0,0,1,.43.08c-.26-.17-.52-.26-.78-.43a.31.31,0,0,1-.17-.09.32.32,0,0,1-.17-.08C989.34,741.49,989.34,741.49,989.34,741.4Z" />
    <path class="cls-61" d="M986.06,740.36a1.38,1.38,0,0,0-.52-.17c.08.17.26.26.34.43Z" />
    <path class="cls-62"
        d="M958.3,831.59a35.9,35.9,0,0,0,4.24-1.9c-.7.34-1.47.69-2.17.95S959,831.33,958.3,831.59Z" />
    <path class="cls-63"
        d="M943.34,790.86c0,6,2.77,9.6,7,10a7.86,7.86,0,0,0,3.46-.26,7.49,7.49,0,0,1-2.85-.78c-2.42-1.29-4-4.23-4-8.47,0-8.21,5.88-18.33,13.06-22.48,3.8-2.16,7.18-2.25,9.6-.69a6,6,0,0,1,1.9,2,10.54,10.54,0,0,0-1.3-3c-2.51-3.63-7.18-4.32-12.54-1.21C949.74,770.63,943.34,781.7,943.34,790.86Z" />
    <path class="cls-64"
        d="M933.57,782.91c.52-1.21,1-2.42,1.55-3.72-.25.52-.43,1-.69,1.47C934.17,781.44,933.83,782.13,933.57,782.91Z" />
    <path class="cls-65"
        d="M931,790.08a10.37,10.37,0,0,0,2.42-4.41,6.23,6.23,0,0,0,.18-2.76c-.43,1-.78,1.9-1.13,2.85a22.39,22.39,0,0,0-.86,2.51A16.05,16.05,0,0,0,931,790.08Z" />
    <path class="cls-66"
        d="M930,819.48a6.46,6.46,0,0,0,.44,1.39c.17.26.25.6.43.86A16.68,16.68,0,0,1,930,819.48Z" />
    <path class="cls-67"
        d="M929.07,816.11c.09.43.17.87.26,1.3a2.77,2.77,0,0,1,.35.86A15.13,15.13,0,0,1,929.07,816.11Z" />
    <path class="cls-68"
        d="M928.47,812c.08.78.17,1.56.26,2.25a6.71,6.71,0,0,0,.26,1.38C928.81,814.38,928.64,813.26,928.47,812Z" />
    <path class="cls-69"
        d="M928.21,807.64a29,29,0,0,0,.26,4.06,6.58,6.58,0,0,0,2-1.38c2.42-2.25,3.71-6,2.93-8.3-.69-2-2.59-2.34-4.75-.95v.08A55.53,55.53,0,0,0,928.21,807.64Z" />
    <path class="cls-70"
        d="M923.37,807.8c0,9.94,2.8,17.37,7.58,22.08a5.63,5.63,0,0,0,1.4,1.25l.07.14a22.71,22.71,0,0,0,3.46,2.14,19.26,19.26,0,0,1-3.17-2.8,8.72,8.72,0,0,1-1-1.25c-3.82-4.71-6-11.62-6-20.23a50,50,0,0,1,.3-5.74c2.35-23.47,18.91-50,38.78-61.59,7.57-4.41,14.78-6,20.82-5.07a12.46,12.46,0,0,1,2.28.51H988a17.22,17.22,0,0,1,3.24,1.25,10.06,10.06,0,0,0-3-1.69c-.81-.3-1.69-.66-2.57-1-6.55-1.69-14.5-.44-23.25,4.64C940.81,752.91,923.37,783,923.37,807.8Z" />
    <path class="cls-71"
        d="M980.26,781.61c2.42-.52,5-3.55,5.8-6.74s-.61-5.45-3-4.93-4.93,3.45-5.71,6.74S977.84,782.13,980.26,781.61Z" />
    <path class="cls-71"
        d="M967.9,802.71c1.47,1.47,4.32.34,6.39-2.6s2.51-6.39,1-8-4.41-.35-6.4,2.59S966.43,801.15,967.9,802.71Z" />
    <path class="cls-71"
        d="M968.93,752c2,.52,4.85-1.73,6.4-4.93,1.3-2.77,1.13-5.53-.43-6.48h-.09a19.61,19.61,0,0,0-2.76.77c-.69.26-1.39.52-2.16.87a10.21,10.21,0,0,0-2,2.94C966.34,748.41,966.86,751.43,968.93,752Z" />
    <path class="cls-71"
        d="M951.81,754.89a3.3,3.3,0,0,0,3.55-.17,10.2,10.2,0,0,0,4.49-6.83A76.26,76.26,0,0,0,951.81,754.89Z" />
    <path class="cls-71"
        d="M940.92,768.64a10.16,10.16,0,0,0,1.9-2.85C942.13,766.74,941.52,767.69,940.92,768.64Z" />
    <path class="cls-71"
        d="M998.07,784.29c-.34,1.21-.77,2.42-1.21,3.63a43,43,0,0,0,1.56-4.41A3.35,3.35,0,0,0,998.07,784.29Z" />
    <path class="cls-71" d="M986.06,740.36a1.38,1.38,0,0,0-.52-.17c.08.17.26.26.34.43Z" />
    <path class="cls-71"
        d="M958.3,831.59a35.9,35.9,0,0,0,4.24-1.9c-.7.34-1.47.69-2.17.95S959,831.33,958.3,831.59Z" />
    <path class="cls-71"
        d="M943.34,790.86c0,6,2.77,9.6,7,10a7.86,7.86,0,0,0,3.46-.26,7.49,7.49,0,0,1-2.85-.78c-2.42-1.29-4-4.23-4-8.47,0-8.21,5.88-18.33,13.06-22.48,3.8-2.16,7.18-2.25,9.6-.69a6,6,0,0,1,1.9,2,10.54,10.54,0,0,0-1.3-3c-2.51-3.63-7.18-4.32-12.54-1.21C949.74,770.63,943.34,781.7,943.34,790.86Z" />
    <path class="cls-71"
        d="M931,790.08a10.37,10.37,0,0,0,2.42-4.41,6.23,6.23,0,0,0,.18-2.76c-.43,1-.78,1.9-1.13,2.85a22.39,22.39,0,0,0-.86,2.51A16.05,16.05,0,0,0,931,790.08Z" />
    <path class="cls-71"
        d="M928.21,807.64a29,29,0,0,0,.26,4.06,6.58,6.58,0,0,0,2-1.38c2.42-2.25,3.71-6,2.93-8.3-.69-2-2.59-2.34-4.75-.95v.08A55.53,55.53,0,0,0,928.21,807.64Z" />
    <path class="cls-71"
        d="M958.3,831.59a35.9,35.9,0,0,0,4.24-1.9c-.7.34-1.47.69-2.17.95S959,831.33,958.3,831.59Zm32.25-89.5c-.26-.17-.52-.26-.78-.43l.26.26.09.09A1,1,0,0,1,990.55,742.09ZM923.37,807.8c0,9.94,2.8,17.37,7.58,22.08a5.63,5.63,0,0,0,1.4,1.25l.07.14a22.71,22.71,0,0,0,3.46,2.14,19.26,19.26,0,0,1-3.17-2.8,8.72,8.72,0,0,1-1-1.25c-3.82-4.71-6-11.62-6-20.23a50,50,0,0,1,.3-5.74c2.35-23.47,18.91-50,38.78-61.59,7.57-4.41,14.78-6,20.82-5.07a12.46,12.46,0,0,1,2.28.51H988a17.22,17.22,0,0,1,3.24,1.25,10.06,10.06,0,0,0-3-1.69c-.81-.3-1.69-.66-2.57-1-6.55-1.69-14.5-.44-23.25,4.64C940.81,752.91,923.37,783,923.37,807.8Z" />
    <path class="cls-72"
        d="M980.26,781.61c2.42-.52,5-3.55,5.8-6.74s-.61-5.45-3-4.93-4.93,3.45-5.71,6.74S977.84,782.13,980.26,781.61Z" />
    <path class="cls-72"
        d="M967.9,802.71c1.47,1.47,4.32.34,6.39-2.6s2.51-6.39,1-8-4.41-.35-6.4,2.59S966.43,801.15,967.9,802.71Z" />
    <path class="cls-72"
        d="M968.93,752c2,.52,4.85-1.73,6.4-4.93,1.3-2.77,1.13-5.53-.43-6.48h-.09a19.61,19.61,0,0,0-2.76.77c-.69.26-1.39.52-2.16.87a10.21,10.21,0,0,0-2,2.94C966.34,748.41,966.86,751.43,968.93,752Z" />
    <path class="cls-72"
        d="M951.81,754.89a3.3,3.3,0,0,0,3.55-.17,10.2,10.2,0,0,0,4.49-6.83A76.26,76.26,0,0,0,951.81,754.89Z" />
    <path class="cls-72"
        d="M940.92,768.64a10.16,10.16,0,0,0,1.9-2.85C942.13,766.74,941.52,767.69,940.92,768.64Z" />
    <path class="cls-72"
        d="M943.34,790.86c0,6,2.77,9.6,7,10a7.86,7.86,0,0,0,3.46-.26,7.49,7.49,0,0,1-2.85-.78c-2.42-1.29-4-4.23-4-8.47,0-8.21,5.88-18.33,13.06-22.48,3.8-2.16,7.18-2.25,9.6-.69a6,6,0,0,1,1.9,2,10.54,10.54,0,0,0-1.3-3c-2.51-3.63-7.18-4.32-12.54-1.21C949.74,770.63,943.34,781.7,943.34,790.86Z" />
    <path class="cls-72"
        d="M931,790.08a10.37,10.37,0,0,0,2.42-4.41,6.23,6.23,0,0,0,.18-2.76c-.43,1-.78,1.9-1.13,2.85a22.39,22.39,0,0,0-.86,2.51A16.05,16.05,0,0,0,931,790.08Z" />
    <path class="cls-72"
        d="M928.21,807.64a29,29,0,0,0,.26,4.06,6.58,6.58,0,0,0,2-1.38c2.42-2.25,3.71-6,2.93-8.3-.69-2-2.59-2.34-4.75-.95v.08A55.53,55.53,0,0,0,928.21,807.64Z" />
    <path class="cls-73"
        d="M996.86,787.92a43,43,0,0,0,1.56-4.41,3.35,3.35,0,0,0-.35.78C997.73,785.5,997.3,786.71,996.86,787.92ZM958.3,831.59a35.9,35.9,0,0,0,4.24-1.9c-.7.34-1.47.69-2.17.95S959,831.33,958.3,831.59Z" />
    <path class="cls-73"
        d="M925.72,809.13c0,8.61,2.14,15.52,6,20.23a8.72,8.72,0,0,0,1,1.25,19.26,19.26,0,0,0,3.17,2.8c7.14,4.86,17.44,4.56,28.92-2,21.48-12.51,39-42.6,39-67.4,0-12.95-4.85-21.85-12.58-25.53a17.22,17.22,0,0,0-3.24-1.25h-.07a12.46,12.46,0,0,0-2.28-.51c-6-1-13.25.66-20.82,5.07-19.87,11.55-36.43,38.12-38.78,61.59A50,50,0,0,0,925.72,809.13Zm2.51-1.47a47.79,47.79,0,0,1,.44-6.48V801c.07-.81.22-1.69.36-2.64s.37-1.92.59-2.87v-.08a2.42,2.42,0,0,1,.15-.59,1.9,1.9,0,0,1,.15-.59V794c.07-.37.22-.66.29-1a26.33,26.33,0,0,1,.74-2.65v-.22a18.15,18.15,0,0,1,.66-1.77c.22-.88.52-1.76.81-2.57.37-1,.74-1.84,1.18-2.8l.44-1.1a7.64,7.64,0,0,0,.37-1.18c.29-.44.44-.95.73-1.47.44-1,1-2,1.47-2.94a2.35,2.35,0,0,1,.3-.59c.66-1.25,1.25-2.43,1.91-3.53a.43.43,0,0,1,.08-.3,10,10,0,0,0,1-1.47c.37-.59.66-1.18,1-1.69.66-1,1.25-1.91,1.92-2.87,0-.07,0-.07.14-.15.67-.88,1.25-1.84,2-2.79s1.47-1.92,2.21-2.8a60,60,0,0,1,4.71-5.15,69.55,69.55,0,0,1,8-7,13.94,13.94,0,0,1,2.42-1.69c.89-.59,1.62-1,2.51-1.55s1.61-.95,2.57-1.4a10.13,10.13,0,0,0,1.33-.58c1.17-.52,2.35-1,3.38-1.4a18.32,18.32,0,0,1,2.72-.74h.08c.14,0,.22-.07.29-.07a6.69,6.69,0,0,1,1.1-.3,6.13,6.13,0,0,1,1-.14c.3,0,.45-.08.74-.08a10.39,10.39,0,0,1,1.18-.22c.51,0,1-.07,1.62-.07h.36a4.72,4.72,0,0,1,1,.07,4.57,4.57,0,0,1,1.11.08,5.92,5.92,0,0,1,1.25.22,2.64,2.64,0,0,1,.44.07h.37l.07.07h.08a1.47,1.47,0,0,1,.51.15h.07l1.55.44a1,1,0,0,1,.44.22,6.07,6.07,0,0,1,1,.37.28.28,0,0,1,.22.07c0,.08,0,.08.08.08a.24.24,0,0,0,.14.07.24.24,0,0,0,.15.08,6.71,6.71,0,0,1,.81.44c.07,0,.15.07.29.07a.07.07,0,0,1,.08.07s0,.08.07.08.15.14.22.22a1.71,1.71,0,0,1,.37.22.52.52,0,0,0,.14.22,5.57,5.57,0,0,1,.67.29c0,.15.07.15.07.15h.07a1.5,1.5,0,0,1,.37.22l.15.15a10.69,10.69,0,0,1,1,1l.52.51c.22.22.29.37.44.52a9.65,9.65,0,0,1,.81,1,7.06,7.06,0,0,1,1.1,1.62c.15.22.37.59.51.81.15.37.37.66.52,1s.44.88.59,1.32a.42.42,0,0,1,.22.37,2.94,2.94,0,0,1,.29.88,18.25,18.25,0,0,1,.67,1.77c.07.07.07.15.07.37v.07a3.24,3.24,0,0,1,.22.88.73.73,0,0,1,.22.59c0,.07.07.15.07.22v.15c0,.07.08.22.08.29a17.07,17.07,0,0,1,.36,1.84,1.18,1.18,0,0,1,.08.52c0,.15.07.37.07.51V760a4.74,4.74,0,0,1,.08,1,1,1,0,0,1,.07.36c0,.52.15,1,.15,1.55,0,.81.07,1.77.07,2.58a12.39,12.39,0,0,1-.07,1.61v.59c0,1.25-.22,2.58-.3,3.83s-.37,2.57-.59,3.75c-.29,1.55-.51,3-1,4.71,0,.07-.08.22-.08.29-.22.81-.44,1.62-.59,2.36a3.5,3.5,0,0,0-.29.88,13.51,13.51,0,0,1-.81,2.28c-.22.74-.51,1.4-.74,2.14-.07.22-.21.59-.36.95a73.2,73.2,0,0,1-3.31,7.43,43.53,43.53,0,0,1-2.14,4,25,25,0,0,1-1.54,2.72c-.89,1.47-1.91,2.94-2.87,4.34l-1.25,1.84a7.73,7.73,0,0,1-.74,1,3.9,3.9,0,0,1-.66.88c0,.07,0,.07-.07.15a.74.74,0,0,0-.3.37c-1,1.17-1.91,2.28-2.87,3.45-.22.22-.51.59-.73.81-.81.89-1.55,1.62-2.36,2.36-1.47,1.54-2.94,2.94-4.56,4.34a28,28,0,0,0-2.21,1.84,2.59,2.59,0,0,0-.59.37,32,32,0,0,1-3.45,2.35c-.08.07-.15.22-.23.3a13.86,13.86,0,0,0-1.83,1.1,23.93,23.93,0,0,1-2.29,1.18c-.36.14-.66.36-1.1.51a10.4,10.4,0,0,1-2.06,1,10.28,10.28,0,0,0-1,.44c-1.4.51-2.8.88-4.19,1.25a22.71,22.71,0,0,1-3,.52,4.77,4.77,0,0,1-1,.07,16.94,16.94,0,0,1-3.9,0,6.16,6.16,0,0,1-1.32-.15,20.27,20.27,0,0,1-2.43-.66,8.22,8.22,0,0,1-1.84-.66,4.64,4.64,0,0,1-1.18-.59c-.14,0-.14-.08-.22-.08s-.22-.14-.36-.22a3,3,0,0,1-.89-.58h-.15s0-.08-.07-.08-.22-.22-.44-.29a4.39,4.39,0,0,1-1.25-1c-.52-.52-1-.89-1.47-1.47h-.08v-.08c-.14,0-.14-.07-.14-.07-.3-.44-.67-.81-1-1.25s-.67-1-1-1.55c0-.07-.08-.07-.08-.14-.29-.52-.51-1-.81-1.48a10.91,10.91,0,0,1-.59-1.32c-.07-.15-.14-.29-.22-.44a.58.58,0,0,0-.22-.37c-.14-.44-.29-.88-.44-1.4s-.37-1.32-.66-2.06a7.84,7.84,0,0,0-.3-1.32,1.34,1.34,0,0,1-.07-.52,8.32,8.32,0,0,1-.22-1.4,6,6,0,0,0-.15-1.1,5.92,5.92,0,0,0-.14-1.1v-.3A34.56,34.56,0,0,1,928.23,807.66Z" />
    <path class="cls-71"
        d="M934.61,827.61c.51.61.95.95,1.46,1.47a8.69,8.69,0,0,0,1.3,1c.17.09.26.17.44.26s.08.09.08.09H938a5.78,5.78,0,0,0,.95.6.64.64,0,0,0,.35.17c.08,0,.08.09.17.09a5.49,5.49,0,0,0,1.21.61,16.74,16.74,0,0,0,1.81.69,19.18,19.18,0,0,0,2.43.6,6.41,6.41,0,0,0,1.38.18,14.88,14.88,0,0,0,3.89,0,3.7,3.7,0,0,0,1-.09,18.83,18.83,0,0,0,3-.52,38.19,38.19,0,0,0,4.15-1.21c.69-.26,1.38-.61,2.07-1s1.47-.61,2.17-.95,1.46-.78,2.24-1.21c.61-.35,1.21-.78,1.82-1.13l.26-.26c1.12-.69,2.33-1.47,3.46-2.33a2.49,2.49,0,0,1,.6-.43c.7-.61,1.39-1.21,2.16-1.82a53.63,53.63,0,0,0,4.59-4.32c.78-.78,1.55-1.47,2.33-2.34.26-.26.52-.6.78-.86,1-1.13,1.9-2.25,2.85-3.46.09-.09.18-.26.26-.35s.09-.08.09-.17a3.27,3.27,0,0,0,.69-.87,5.85,5.85,0,0,0,.69-.95l1.3-1.81c1-1.39,2-2.86,2.86-4.33.6-.95,1.12-1.9,1.55-2.76.78-1.3,1.47-2.6,2.16-4a80.5,80.5,0,0,0,3.29-7.44,5.85,5.85,0,0,0,.34-1c.44-1.21.87-2.42,1.21-3.63a3.35,3.35,0,0,1,.35-.78c.09-.34.17-.6.26-.86.17-.78.43-1.56.61-2.34,0-.08.08-.26.08-.34.43-1.65.69-3.12,1-4.67.26-1.21.43-2.51.61-3.81s.26-2.5.26-3.8v-.61a10.07,10.07,0,0,0,.08-1.55c0-.87-.08-1.82-.08-2.6,0-.52-.09-1-.09-1.55a.63.63,0,0,0-.09-.35,4.56,4.56,0,0,0-.08-1v-.08c0-.18-.09-.35-.09-.52a1,1,0,0,0-.09-.52,12.93,12.93,0,0,0-.34-1.82c0-.08-.09-.26-.09-.34v-.09c0-.09-.08-.17-.08-.26a1.18,1.18,0,0,0-.18-.6,3.2,3.2,0,0,0-.26-.87v-.09c0-.17,0-.26-.08-.34a9.79,9.79,0,0,0-.61-1.73,3,3,0,0,0-.34-1,.66.66,0,0,0-.18-.35c-.17-.43-.43-.86-.6-1.3s-.35-.6-.52-1-.35-.6-.52-.86a7.25,7.25,0,0,0-1.12-1.56,4.3,4.3,0,0,0-.78-1c-.17-.17-.26-.34-.43-.52s-.35-.34-.52-.52a11.2,11.2,0,0,0-1-.95l-.17-.17a1.32,1.32,0,0,0-.35-.26h-.09a.08.08,0,0,1-.08-.09,4.16,4.16,0,0,0-.61-.34l-.17-.18c-.09-.08-.26-.17-.35-.26s-.17-.17-.26-.17a.08.08,0,0,1-.08-.08.09.09,0,0,0-.09-.09c-.09,0-.17-.09-.26-.09a1,1,0,0,0-.43-.08l-.09-.09a7.86,7.86,0,0,0-1.9-.95c-.17-.09-.26-.09-.43-.17a10.12,10.12,0,0,0-1.56-.44h-.08l-.18.26c3.81,4.41,6,11,6,19.46,0,23.17-16.34,51.28-36.49,62.95C947.66,827.44,940.48,828.91,934.61,827.61Z" />
    <path class="cls-72"
        d="M928.47,811.7V812c.17,1.3.34,2.42.52,3.63a1.16,1.16,0,0,0,.08.52,15.13,15.13,0,0,0,.61,2.16,4.64,4.64,0,0,0,.34,1.21,16.68,16.68,0,0,0,.87,2.25,8.37,8.37,0,0,0,.6,1.3c.26.52.52,1,.78,1.47,0,.09.09.09.09.17l1,1.56c.35.43.7.78,1,1.21a.09.09,0,0,0,.09.09v.08h.09c5.87,1.3,13-.17,20.75-4.58,20.15-11.67,36.49-39.78,36.49-62.95,0-8.48-2.16-15.05-6-19.46-.08-.17-.26-.26-.34-.43h-.09c-.26-.09-.52-.09-.86-.17a5,5,0,0,0-1.22-.18,4.88,4.88,0,0,0-1.12-.08,23.75,23.75,0,0,0-4.24.17c-.26,0-.43.09-.69.09a4.26,4.26,0,0,0-1,.17c-.34.09-.77.17-1.12.26-.09,0-.17.09-.26.09,1.56,1,1.73,3.71.43,6.48-1.55,3.2-4.41,5.45-6.4,4.93s-2.59-3.54-1-6.83a10.21,10.21,0,0,1,2-2.94c-.78.34-1.65.69-2.51,1.12a26.78,26.78,0,0,0-2.6,1.39c-.86.52-1.64.95-2.5,1.55a23,23,0,0,0-2.43,1.65,10.2,10.2,0,0,1-4.49,6.83,3.3,3.3,0,0,1-3.55.17,65.89,65.89,0,0,0-4.67,5.19c-.78.86-1.47,1.81-2.24,2.77s-1.3,1.9-2,2.76c-.09.09-.09.09-.09.18a10.16,10.16,0,0,1-1.9,2.85c-.69,1.12-1.39,2.25-2.08,3.46s-1.3,2.33-1.9,3.54a2.56,2.56,0,0,0-.35.61c-.52,1-1,2-1.47,2.94-.51,1.3-1,2.51-1.55,3.72a6.23,6.23,0,0,1-.18,2.76,10.37,10.37,0,0,1-2.42,4.41v.18c-.34.86-.51,1.81-.77,2.68-.09.34-.18.69-.26,1v.26a2.19,2.19,0,0,0-.18.61,2.38,2.38,0,0,0-.17.61v.08c-.17,1-.43,1.9-.52,2.86s-.34,1.81-.43,2.68c2.16-1.39,4.06-1,4.75.95.78,2.33-.51,6.05-2.93,8.3A6.58,6.58,0,0,1,928.47,811.7Zm48.85-35c.78-3.29,3.38-6.22,5.71-6.74s3.8,1.73,3,4.93-3.38,6.22-5.8,6.74S976.46,779.88,977.32,776.68ZM980.18,752a4.88,4.88,0,0,1,3.8-1.64,2.38,2.38,0,0,1,2.08,1.64c.77,2.34-.61,6.14-3,8.39a7.55,7.55,0,0,1-1.82,1.29c-1.73.87-3.28.44-4-1.29C976.46,758,977.84,754.29,980.18,752Zm-11.25,42.8c2-2.94,4.93-4.06,6.4-2.59s1,5.1-1,8-4.92,4.07-6.39,2.6S966.86,797.61,968.93,794.75Zm-18.15,20.76a11.07,11.07,0,0,1,.34-2.25,10.34,10.34,0,0,1,4.24-5.62,3.53,3.53,0,0,1,1.12-.43c2-.7,3.46.51,3.46,3a10.21,10.21,0,0,1-4.58,8C952.85,819.66,950.78,818.45,950.78,815.51Zm-9.95-23.26c0-10.73,7.52-23.7,16.86-29.06,6.06-3.46,11.42-2.85,14.36.87a14.38,14.38,0,0,1,2.51,8.73,28.12,28.12,0,0,1-1.82,9.68c0,.09,0,.09-.09.18a39,39,0,0,1-7.35,12.71c0,.09-.08.17-.17.26a31.14,31.14,0,0,1-7.44,6.22c-3.46,2-6.66,2.6-9.25,2.17C943.86,803.14,940.83,799,940.83,792.25Zm-5.45,23c1.47-3.2,4.33-5.36,6.4-4.85a2.59,2.59,0,0,1,1.73,1.91,7.22,7.22,0,0,1-.69,4.84c-1.12,2.51-3.29,4.5-5,4.93a4,4,0,0,1-1.39,0C934.35,821.56,933.91,818.45,935.38,815.25Z" />
    <path class="cls-74"
        d="M940.83,792.25c0,6.74,3,10.89,7.61,11.76,2.59.43,5.79-.18,9.25-2.17a31.14,31.14,0,0,0,7.44-6.22c.09-.09.17-.17.17-.26a39,39,0,0,0,7.35-12.71c.09-.09.09-.09.09-.18a28.12,28.12,0,0,0,1.82-9.68,14.38,14.38,0,0,0-2.51-8.73c-2.94-3.72-8.3-4.33-14.36-.87C948.35,768.55,940.83,781.52,940.83,792.25Zm2.51-1.39c0-9.16,6.4-20.23,14.35-24.9,5.36-3.11,10-2.42,12.54,1.21a10.54,10.54,0,0,1,1.3,3,11.7,11.7,0,0,1,1.55,6.14,25.08,25.08,0,0,1-2.24,9.68,60.82,60.82,0,0,1-3.29,5.62c0,.17-.17.26-.26.43a25.39,25.39,0,0,1-7.26,6.75,11.58,11.58,0,0,1-6.23,1.81,7.86,7.86,0,0,1-3.46.26C946.11,800.46,943.34,796.83,943.34,790.86Z" />
    <path class="cls-74"
        d="M943.34,790.86c0,6,2.77,9.6,7,10a7.86,7.86,0,0,0,3.46-.26,7.49,7.49,0,0,1-2.85-.78c-2.42-1.29-4-4.23-4-8.47,0-8.21,5.88-18.33,13.06-22.48,3.8-2.16,7.18-2.25,9.6-.69a6,6,0,0,1,1.9,2,10.54,10.54,0,0,0-1.3-3c-2.51-3.63-7.18-4.32-12.54-1.21C949.74,770.63,943.34,781.7,943.34,790.86Z" />
    <path class="cls-71"
        d="M943.34,790.86c0,6,2.77,9.6,7,10a7.86,7.86,0,0,0,3.46-.26,7.49,7.49,0,0,1-2.85-.78c-2.42-1.29-4-4.23-4-8.47,0-8.21,5.88-18.33,13.06-22.48,3.8-2.16,7.18-2.25,9.6-.69a6,6,0,0,1,1.9,2,10.54,10.54,0,0,0-1.3-3c-2.51-3.63-7.18-4.32-12.54-1.21C949.74,770.63,943.34,781.7,943.34,790.86Z" />
    <path class="cls-73"
        d="M947,791.38c0,4.24,1.56,7.18,4,8.47a7.49,7.49,0,0,0,2.85.78,11.58,11.58,0,0,0,6.23-1.81,25.39,25.39,0,0,0,7.26-6.75c.09-.17.26-.26.26-.43a60.82,60.82,0,0,0,3.29-5.62,25.08,25.08,0,0,0,2.24-9.68,11.7,11.7,0,0,0-1.55-6.14,6,6,0,0,0-1.9-2c-2.42-1.56-5.8-1.47-9.6.69C952.85,773.05,947,783.17,947,791.38Z" />
    <path class="cls-74"
        d="M951.81,754.89a3.3,3.3,0,0,0,3.55-.17,10.2,10.2,0,0,0,4.49-6.83A76.26,76.26,0,0,0,951.81,754.89Z" />
    <path class="cls-74"
        d="M940.92,768.64a10.16,10.16,0,0,0,1.9-2.85C942.13,766.74,941.52,767.69,940.92,768.64Z" />
    <path class="cls-74"
        d="M931,790.08a10.37,10.37,0,0,0,2.42-4.41,6.23,6.23,0,0,0,.18-2.76c-.43,1-.78,1.9-1.13,2.85a22.39,22.39,0,0,0-.86,2.51A16.05,16.05,0,0,0,931,790.08Z" />
    <path class="cls-74"
        d="M928.21,807.64a29,29,0,0,0,.26,4.06,6.58,6.58,0,0,0,2-1.38c2.42-2.25,3.71-6,2.93-8.3-.69-2-2.59-2.34-4.75-.95v.08A55.53,55.53,0,0,0,928.21,807.64Z" />
    <path class="cls-74"
        d="M936.42,822.08a4,4,0,0,0,1.39,0c1.72-.43,3.89-2.42,5-4.93a7.22,7.22,0,0,0,.69-4.84,2.59,2.59,0,0,0-1.73-1.91c-2.07-.51-4.93,1.65-6.4,4.85S934.35,821.56,936.42,822.08Z" />
    <path class="cls-74"
        d="M950.78,815.51c0,2.94,2.07,4.15,4.58,2.68a10.21,10.21,0,0,0,4.58-8c0-2.51-1.47-3.72-3.46-3a3.53,3.53,0,0,0-1.12.43,10.34,10.34,0,0,0-4.24,5.62A11.07,11.07,0,0,0,950.78,815.51Z" />
    <path class="cls-74"
        d="M967.9,802.71c1.47,1.47,4.32.34,6.39-2.6s2.51-6.39,1-8-4.41-.35-6.4,2.59S966.43,801.15,967.9,802.71Z" />
    <path class="cls-74"
        d="M980.26,781.61c2.42-.52,5-3.55,5.8-6.74s-.61-5.45-3-4.93-4.93,3.45-5.71,6.74S977.84,782.13,980.26,781.61Z" />
    <path class="cls-74"
        d="M977.23,760.34c.7,1.73,2.25,2.16,4,1.29a7.55,7.55,0,0,0,1.82-1.29c2.42-2.25,3.8-6.05,3-8.39a2.38,2.38,0,0,0-2.08-1.64,4.88,4.88,0,0,0-3.8,1.64C977.84,754.29,976.46,758,977.23,760.34Z" />
    <path class="cls-74"
        d="M968.93,752c2,.52,4.85-1.73,6.4-4.93,1.3-2.77,1.13-5.53-.43-6.48h-.09a19.61,19.61,0,0,0-2.76.77c-.69.26-1.39.52-2.16.87a10.21,10.21,0,0,0-2,2.94C966.34,748.41,966.86,751.43,968.93,752Z" />
    <path class="cls-75" d="M531.25,1014c.08.17.26.25.34.43l.18-.26A1.22,1.22,0,0,0,531.25,1014Z" />
    <path class="cls-76" d="M530.3,1013.83c.34.09.6.09.86.18l-.08-.09Z" />
    <path class="cls-77"
        d="M523.72,1013.75a23.79,23.79,0,0,1,4.24-.18,4.52,4.52,0,0,0-1-.08h-.34c-.61,0-1.13.08-1.65.08C524.59,1013.66,524.16,1013.66,523.72,1013.75Z" />
    <path class="cls-78"
        d="M514.64,1025.77c2,.51,4.85-1.73,6.4-4.93,1.3-2.77,1.13-5.54-.43-6.49h-.09a18.44,18.44,0,0,0-2.76.78c-.69.26-1.39.52-2.16.86a10.42,10.42,0,0,0-2,2.94C512.05,1022.22,512.57,1025.25,514.64,1025.77Z" />
    <path class="cls-79"
        d="M497.52,1028.71a3.33,3.33,0,0,0,3.55-.18,10.22,10.22,0,0,0,4.5-6.83A75.47,75.47,0,0,0,497.52,1028.71Z" />
    <path class="cls-80"
        d="M489.05,1064.68c0,6,2.77,9.6,7,10l.61-1c-2.42-1.3-4-4.24-4-8.47,0-8.22,5.88-18.34,13.06-22.49,3.8-2.16,7.18-2.24,9.6-.69l.6-1c-2.5-3.63-7.17-4.32-12.54-1.21C495.45,1044.44,489.05,1055.51,489.05,1064.68Z" />
    <path class="cls-81"
        d="M486.63,1042.45a9.78,9.78,0,0,0,.86-1,9.94,9.94,0,0,0,1-1.82C487.84,1040.55,487.23,1041.5,486.63,1042.45Z" />
    <path class="cls-82"
        d="M484.55,1045.91c.7-1.21,1.39-2.33,2.08-3.46-.69,1-1.3,2.17-2,3.2A.32.32,0,0,0,484.55,1045.91Z" />
    <path class="cls-83"
        d="M479.28,1056.72c.52-1.21,1-2.42,1.56-3.72-.26.52-.44,1-.7,1.47C479.88,1055.25,479.54,1055.94,479.28,1056.72Z" />
    <path class="cls-84"
        d="M476.69,1063.9a10.52,10.52,0,0,0,2.41-4.41,6.27,6.27,0,0,0,.18-2.77c-.43,1-.78,1.9-1.13,2.86a22.22,22.22,0,0,0-.86,2.5A14.34,14.34,0,0,0,476.69,1063.9Z" />
    <path class="cls-85"
        d="M475.73,1093.3a6.2,6.2,0,0,0,.44,1.38c.17.26.26.61.43.87A16.68,16.68,0,0,1,475.73,1093.3Z" />
    <path class="cls-86"
        d="M474.78,1089.93c.09.43.17.86.26,1.29a2.73,2.73,0,0,1,.35.87A15.13,15.13,0,0,1,474.78,1089.93Z" />
    <path class="cls-87"
        d="M474.18,1085.78c.08.77.17,1.55.26,2.24a6.68,6.68,0,0,0,.26,1.39C474.52,1088.2,474.35,1087.07,474.18,1085.78Z" />
    <path class="cls-88"
        d="M473.92,1081.45a29.12,29.12,0,0,0,.26,4.07,6.46,6.46,0,0,0,2-1.39c2.42-2.24,3.71-6,2.93-8.3-.69-2-2.59-2.33-4.75-.95v.09A55.5,55.5,0,0,0,473.92,1081.45Z" />
    <path class="cls-89"
        d="M469.08,1081.62c0,9.93,2.8,17.36,7.58,22.07a5.26,5.26,0,0,0,1.4,1.25l.36-.51a8,8,0,0,1-1-1.25c-3.83-4.71-6-11.63-6-20.24a50.27,50.27,0,0,1,.29-5.74c2.35-23.47,18.91-50,38.78-61.58,7.58-4.42,14.79-6,20.82-5.08a12.49,12.49,0,0,1,2.28.52h.07l.22-.45c-.8-.29-1.69-.66-2.57-1-6.55-1.69-14.5-.44-23.25,4.63C486.52,1026.73,469.08,1056.82,469.08,1081.62Z" />
    <path class="cls-76" d="M530.3,1013.83c.34.09.6.09.86.18l-.08-.09Z" />
    <path class="cls-77"
        d="M523.72,1013.75a23.79,23.79,0,0,1,4.24-.18,4.52,4.52,0,0,0-1-.08h-.34c-.61,0-1.13.08-1.65.08C524.59,1013.66,524.16,1013.66,523.72,1013.75Z" />
    <path class="cls-78"
        d="M514.64,1025.77c2,.51,4.85-1.73,6.4-4.93,1.3-2.77,1.13-5.54-.43-6.49h-.09a18.44,18.44,0,0,0-2.76.78c-.69.26-1.39.52-2.16.86a10.42,10.42,0,0,0-2,2.94C512.05,1022.22,512.57,1025.25,514.64,1025.77Z" />
    <path class="cls-79"
        d="M497.52,1028.71a3.33,3.33,0,0,0,3.55-.18,10.22,10.22,0,0,0,4.5-6.83A75.47,75.47,0,0,0,497.52,1028.71Z" />
    <path class="cls-81"
        d="M486.63,1042.45a9.78,9.78,0,0,0,.86-1,9.94,9.94,0,0,0,1-1.82C487.84,1040.55,487.23,1041.5,486.63,1042.45Z" />
    <path class="cls-82"
        d="M484.55,1045.91c.7-1.21,1.39-2.33,2.08-3.46-.69,1-1.3,2.17-2,3.2A.32.32,0,0,0,484.55,1045.91Z" />
    <path class="cls-90"
        d="M489.05,1064.68c0,6,2.77,9.6,7,10a8.17,8.17,0,0,0,3.46-.26,7.87,7.87,0,0,1-2.85-.78c-2.42-1.3-4-4.24-4-8.47,0-8.22,5.88-18.34,13.06-22.49,3.8-2.16,7.18-2.24,9.6-.69a6.15,6.15,0,0,1,1.9,2,10.79,10.79,0,0,0-1.3-3c-2.5-3.63-7.17-4.32-12.54-1.21C495.45,1044.44,489.05,1055.51,489.05,1064.68Z" />
    <path class="cls-83"
        d="M479.28,1056.72c.52-1.21,1-2.42,1.56-3.72-.26.52-.44,1-.7,1.47C479.88,1055.25,479.54,1055.94,479.28,1056.72Z" />
    <path class="cls-84"
        d="M476.69,1063.9a10.52,10.52,0,0,0,2.41-4.41,6.27,6.27,0,0,0,.18-2.77c-.43,1-.78,1.9-1.13,2.86a22.22,22.22,0,0,0-.86,2.5A14.34,14.34,0,0,0,476.69,1063.9Z" />
    <path class="cls-85"
        d="M475.73,1093.3a6.2,6.2,0,0,0,.44,1.38c.17.26.26.61.43.87A16.68,16.68,0,0,1,475.73,1093.3Z" />
    <path class="cls-86"
        d="M474.78,1089.93c.09.43.17.86.26,1.29a2.73,2.73,0,0,1,.35.87A15.13,15.13,0,0,1,474.78,1089.93Z" />
    <path class="cls-87"
        d="M474.18,1085.78c.08.77.17,1.55.26,2.24a6.68,6.68,0,0,0,.26,1.39C474.52,1088.2,474.35,1087.07,474.18,1085.78Z" />
    <path class="cls-88"
        d="M473.92,1081.45a29.12,29.12,0,0,0,.26,4.07,6.46,6.46,0,0,0,2-1.39c2.42-2.24,3.71-6,2.93-8.3-.69-2-2.59-2.33-4.75-.95v.09A55.5,55.5,0,0,0,473.92,1081.45Z" />
    <path class="cls-91"
        d="M469.08,1081.62c0,9.93,2.8,17.36,7.58,22.07.29-.22.44-.29.74-.51-3.83-4.71-6-11.63-6-20.24a50.27,50.27,0,0,1,.29-5.74c2.35-23.47,18.91-50,38.78-61.58,7.58-4.42,14.79-6,20.82-5.08a3.69,3.69,0,0,0,0-.88c-6.55-1.69-14.5-.44-23.25,4.63C486.52,1026.73,469.08,1056.82,469.08,1081.62Z" />
    <path class="cls-92" d="M530.3,1013.83c.34.09.6.09.86.18l-.08-.09Z" />
    <path class="cls-93"
        d="M523.72,1013.75a23.79,23.79,0,0,1,4.24-.18,4.52,4.52,0,0,0-1-.08h-.34c-.61,0-1.13.08-1.65.08C524.59,1013.66,524.16,1013.66,523.72,1013.75Z" />
    <path class="cls-94"
        d="M526,1055.43c2.42-.52,5-3.55,5.8-6.75s-.61-5.45-3-4.93-4.93,3.46-5.71,6.75S523.55,1055.94,526,1055.43Z" />
    <path class="cls-95"
        d="M513.61,1076.52c1.47,1.47,4.32.35,6.4-2.59s2.5-6.4,1-8-4.41-.34-6.4,2.6S512.14,1075,513.61,1076.52Z" />
    <path class="cls-96"
        d="M514.64,1025.77c2,.51,4.85-1.73,6.4-4.93,1.3-2.77,1.13-5.54-.43-6.49h-.09a18.44,18.44,0,0,0-2.76.78c-.69.26-1.39.52-2.16.86a10.42,10.42,0,0,0-2,2.94C512.05,1022.22,512.57,1025.25,514.64,1025.77Z" />
    <path class="cls-97"
        d="M497.52,1028.71a3.33,3.33,0,0,0,3.55-.18,10.22,10.22,0,0,0,4.5-6.83A75.47,75.47,0,0,0,497.52,1028.71Z" />
    <path class="cls-98"
        d="M486.63,1042.45a9.78,9.78,0,0,0,.86-1,9.94,9.94,0,0,0,1-1.82C487.84,1040.55,487.23,1041.5,486.63,1042.45Z" />
    <path class="cls-99"
        d="M484.55,1045.91c.7-1.21,1.39-2.33,2.08-3.46-.69,1-1.3,2.17-2,3.2A.32.32,0,0,0,484.55,1045.91Z" />
    <path class="cls-100"
        d="M543.78,1058.11c-.34,1.21-.77,2.42-1.21,3.63a43,43,0,0,0,1.56-4.41A3.35,3.35,0,0,0,543.78,1058.11Z" />
    <path class="cls-101"
        d="M535.05,1015.22a4.81,4.81,0,0,0-1.21-.44,7.54,7.54,0,0,1,1.9,1l.09.08a.89.89,0,0,1,.43.09c-.26-.17-.52-.26-.78-.43a644059713742.33,644059713742.33,0,0,1-.34-.18C535.05,1015.3,535.05,1015.3,535.05,1015.22Z" />
    <path class="cls-102" d="M531.77,1014.18a1.22,1.22,0,0,0-.52-.17c.08.17.26.25.34.43Z" />
    <path class="cls-103"
        d="M504,1105.41a36,36,0,0,0,4.24-1.91,22.7,22.7,0,0,1-2.17,1A21.27,21.27,0,0,1,504,1105.41Z" />
    <path class="cls-104"
        d="M489.05,1064.68c0,6,2.77,9.6,7,10a8.17,8.17,0,0,0,3.46-.26,7.87,7.87,0,0,1-2.85-.78c-2.42-1.3-4-4.24-4-8.47,0-8.22,5.88-18.34,13.06-22.49,3.8-2.16,7.18-2.24,9.6-.69a6.15,6.15,0,0,1,1.9,2,10.79,10.79,0,0,0-1.3-3c-2.5-3.63-7.17-4.32-12.54-1.21C495.45,1044.44,489.05,1055.51,489.05,1064.68Z" />
    <path class="cls-105"
        d="M479.28,1056.72c.52-1.21,1-2.42,1.56-3.72-.26.52-.44,1-.7,1.47C479.88,1055.25,479.54,1055.94,479.28,1056.72Z" />
    <path class="cls-106"
        d="M476.69,1063.9a10.52,10.52,0,0,0,2.41-4.41,6.27,6.27,0,0,0,.18-2.77c-.43,1-.78,1.9-1.13,2.86a22.22,22.22,0,0,0-.86,2.5A14.34,14.34,0,0,0,476.69,1063.9Z" />
    <path class="cls-107"
        d="M475.73,1093.3a6.2,6.2,0,0,0,.44,1.38c.17.26.26.61.43.87A16.68,16.68,0,0,1,475.73,1093.3Z" />
    <path class="cls-108"
        d="M474.78,1089.93c.09.43.17.86.26,1.29a2.73,2.73,0,0,1,.35.87A15.13,15.13,0,0,1,474.78,1089.93Z" />
    <path class="cls-109"
        d="M474.18,1085.78c.08.77.17,1.55.26,2.24a6.68,6.68,0,0,0,.26,1.39C474.52,1088.2,474.35,1087.07,474.18,1085.78Z" />
    <path class="cls-110"
        d="M473.92,1081.45a29.12,29.12,0,0,0,.26,4.07,6.46,6.46,0,0,0,2-1.39c2.42-2.24,3.71-6,2.93-8.3-.69-2-2.59-2.33-4.75-.95v.09A55.5,55.5,0,0,0,473.92,1081.45Z" />
    <path class="cls-111"
        d="M469.08,1081.62c0,9.93,2.8,17.36,7.58,22.07a5.26,5.26,0,0,0,1.4,1.25l.07.15a21.91,21.91,0,0,0,3.46,2.13,19.2,19.2,0,0,1-3.17-2.79,8,8,0,0,1-1-1.25c-3.83-4.71-6-11.63-6-20.24a50.27,50.27,0,0,1,.29-5.74c2.35-23.47,18.91-50,38.78-61.58,7.58-4.42,14.79-6,20.82-5.08a12.49,12.49,0,0,1,2.28.52h.07a16.56,16.56,0,0,1,3.24,1.25,10.08,10.08,0,0,0-3-1.7c-.8-.29-1.69-.66-2.57-1-6.55-1.69-14.5-.44-23.25,4.63C486.52,1026.73,469.08,1056.82,469.08,1081.62Z" />
    <path class="cls-11"
        d="M462.46,1123.53c10.81,4.92,27.59,7.75,43.26-1.37,31-17.88,56.22-61.29,56.22-96.9,0-11-2.43-20-6.63-26.64a27.05,27.05,0,0,0-9-9l-24.51-14.16-59.82,35.85c-12,6.93-37.76,22.54-37.76,22.54v24.22l-1.83,34.54S462.25,1123.44,462.46,1123.53Zm6.62-41.91c0-24.8,17.44-54.89,39-67.33,8.75-5.07,16.7-6.32,23.25-4.63.88.29,1.77.66,2.57,1a10.08,10.08,0,0,1,3,1.7c7.73,3.68,12.58,12.58,12.58,25.53,0,24.8-17.51,54.89-39,67.4-11.48,6.55-21.78,6.84-28.92,2a21.91,21.91,0,0,1-3.46-2.13l-.07-.15a5.26,5.26,0,0,1-1.4-1.25C471.88,1099,469.08,1091.55,469.08,1081.62Z" />
    <path class="cls-112" d="M530.3,1013.83c.34.09.6.09.86.18l-.08-.09Z" />
    <path class="cls-113"
        d="M523.72,1013.75a23.79,23.79,0,0,1,4.24-.18,4.52,4.52,0,0,0-1-.08h-.34c-.61,0-1.13.08-1.65.08C524.59,1013.66,524.16,1013.66,523.72,1013.75Z" />
    <path class="cls-114"
        d="M526,1055.43c2.42-.52,5-3.55,5.8-6.75s-.61-5.45-3-4.93-4.93,3.46-5.71,6.75S523.55,1055.94,526,1055.43Z" />
    <path class="cls-115"
        d="M513.61,1076.52c1.47,1.47,4.32.35,6.4-2.59s2.5-6.4,1-8-4.41-.34-6.4,2.6S512.14,1075,513.61,1076.52Z" />
    <path class="cls-116"
        d="M514.64,1025.77c2,.51,4.85-1.73,6.4-4.93,1.3-2.77,1.13-5.54-.43-6.49h-.09a18.44,18.44,0,0,0-2.76.78c-.69.26-1.39.52-2.16.86a10.42,10.42,0,0,0-2,2.94C512.05,1022.22,512.57,1025.25,514.64,1025.77Z" />
    <path class="cls-117"
        d="M497.52,1028.71a3.33,3.33,0,0,0,3.55-.18,10.22,10.22,0,0,0,4.5-6.83A75.47,75.47,0,0,0,497.52,1028.71Z" />
    <path class="cls-118"
        d="M486.63,1042.45a9.78,9.78,0,0,0,.86-1,9.94,9.94,0,0,0,1-1.82C487.84,1040.55,487.23,1041.5,486.63,1042.45Z" />
    <path class="cls-119"
        d="M484.55,1045.91c.7-1.21,1.39-2.33,2.08-3.46-.69,1-1.3,2.17-2,3.2A.32.32,0,0,0,484.55,1045.91Z" />
    <path class="cls-120"
        d="M543.78,1058.11c-.34,1.21-.77,2.42-1.21,3.63a43,43,0,0,0,1.56-4.41A3.35,3.35,0,0,0,543.78,1058.11Z" />
    <path class="cls-121"
        d="M535.05,1015.22a4.81,4.81,0,0,0-1.21-.44,7.54,7.54,0,0,1,1.9,1l.09.08a.89.89,0,0,1,.43.09c-.26-.17-.52-.26-.78-.43a644059713742.33,644059713742.33,0,0,1-.34-.18C535.05,1015.3,535.05,1015.3,535.05,1015.22Z" />
    <path class="cls-122" d="M531.77,1014.18a1.22,1.22,0,0,0-.52-.17c.08.17.26.25.34.43Z" />
    <path class="cls-123"
        d="M504,1105.41a36,36,0,0,0,4.24-1.91,22.7,22.7,0,0,1-2.17,1A21.27,21.27,0,0,1,504,1105.41Z" />
    <path class="cls-124"
        d="M489.05,1064.68c0,6,2.77,9.6,7,10a8.17,8.17,0,0,0,3.46-.26,7.87,7.87,0,0,1-2.85-.78c-2.42-1.3-4-4.24-4-8.47,0-8.22,5.88-18.34,13.06-22.49,3.8-2.16,7.18-2.24,9.6-.69a6.15,6.15,0,0,1,1.9,2,10.79,10.79,0,0,0-1.3-3c-2.5-3.63-7.17-4.32-12.54-1.21C495.45,1044.44,489.05,1055.51,489.05,1064.68Z" />
    <path class="cls-125"
        d="M479.28,1056.72c.52-1.21,1-2.42,1.56-3.72-.26.52-.44,1-.7,1.47C479.88,1055.25,479.54,1055.94,479.28,1056.72Z" />
    <path class="cls-126"
        d="M476.69,1063.9a10.52,10.52,0,0,0,2.41-4.41,6.27,6.27,0,0,0,.18-2.77c-.43,1-.78,1.9-1.13,2.86a22.22,22.22,0,0,0-.86,2.5A14.34,14.34,0,0,0,476.69,1063.9Z" />
    <path class="cls-127"
        d="M475.73,1093.3a6.2,6.2,0,0,0,.44,1.38c.17.26.26.61.43.87A16.68,16.68,0,0,1,475.73,1093.3Z" />
    <path class="cls-128"
        d="M474.78,1089.93c.09.43.17.86.26,1.29a2.73,2.73,0,0,1,.35.87A15.13,15.13,0,0,1,474.78,1089.93Z" />
    <path class="cls-129"
        d="M474.18,1085.78c.08.77.17,1.55.26,2.24a6.68,6.68,0,0,0,.26,1.39C474.52,1088.2,474.35,1087.07,474.18,1085.78Z" />
    <path class="cls-130"
        d="M473.92,1081.45a29.12,29.12,0,0,0,.26,4.07,6.46,6.46,0,0,0,2-1.39c2.42-2.24,3.71-6,2.93-8.3-.69-2-2.59-2.33-4.75-.95v.09A55.5,55.5,0,0,0,473.92,1081.45Z" />
    <path class="cls-131"
        d="M469.08,1081.62c0,9.93,2.8,17.36,7.58,22.07a5.26,5.26,0,0,0,1.4,1.25l.07.15a21.91,21.91,0,0,0,3.46,2.13,19.2,19.2,0,0,1-3.17-2.79,8,8,0,0,1-1-1.25c-3.83-4.71-6-11.63-6-20.24a50.27,50.27,0,0,1,.29-5.74c2.35-23.47,18.91-50,38.78-61.58,7.58-4.42,14.79-6,20.82-5.08a12.49,12.49,0,0,1,2.28.52h.07a16.56,16.56,0,0,1,3.24,1.25,10.08,10.08,0,0,0-3-1.7c-.8-.29-1.69-.66-2.57-1-6.55-1.69-14.5-.44-23.25,4.63C486.52,1026.73,469.08,1056.82,469.08,1081.62Z" />
    <path class="cls-71"
        d="M526,1055.43c2.42-.52,5-3.55,5.8-6.75s-.61-5.45-3-4.93-4.93,3.46-5.71,6.75S523.55,1055.94,526,1055.43Z" />
    <path class="cls-71"
        d="M513.61,1076.52c1.47,1.47,4.32.35,6.4-2.59s2.5-6.4,1-8-4.41-.34-6.4,2.6S512.14,1075,513.61,1076.52Z" />
    <path class="cls-71"
        d="M514.64,1025.77c2,.51,4.85-1.73,6.4-4.93,1.3-2.77,1.13-5.54-.43-6.49h-.09a18.44,18.44,0,0,0-2.76.78c-.69.26-1.39.52-2.16.86a10.42,10.42,0,0,0-2,2.94C512.05,1022.22,512.57,1025.25,514.64,1025.77Z" />
    <path class="cls-71"
        d="M497.52,1028.71a3.33,3.33,0,0,0,3.55-.18,10.22,10.22,0,0,0,4.5-6.83A75.47,75.47,0,0,0,497.52,1028.71Z" />
    <path class="cls-71"
        d="M486.63,1042.45a9.78,9.78,0,0,0,.86-1,9.94,9.94,0,0,0,1-1.82C487.84,1040.55,487.23,1041.5,486.63,1042.45Z" />
    <path class="cls-71"
        d="M543.78,1058.11c-.34,1.21-.77,2.42-1.21,3.63a43,43,0,0,0,1.56-4.41A3.35,3.35,0,0,0,543.78,1058.11Z" />
    <path class="cls-71" d="M531.77,1014.18a1.22,1.22,0,0,0-.52-.17c.08.17.26.25.34.43Z" />
    <path class="cls-71"
        d="M504,1105.41a36,36,0,0,0,4.24-1.91,22.7,22.7,0,0,1-2.17,1A21.27,21.27,0,0,1,504,1105.41Z" />
    <path class="cls-71"
        d="M489.05,1064.68c0,6,2.77,9.6,7,10a8.17,8.17,0,0,0,3.46-.26,7.87,7.87,0,0,1-2.85-.78c-2.42-1.3-4-4.24-4-8.47,0-8.22,5.88-18.34,13.06-22.49,3.8-2.16,7.18-2.24,9.6-.69a6.15,6.15,0,0,1,1.9,2,10.79,10.79,0,0,0-1.3-3c-2.5-3.63-7.17-4.32-12.54-1.21C495.45,1044.44,489.05,1055.51,489.05,1064.68Z" />
    <path class="cls-71"
        d="M476.69,1063.9a10.52,10.52,0,0,0,2.41-4.41,6.27,6.27,0,0,0,.18-2.77c-.43,1-.78,1.9-1.13,2.86a22.22,22.22,0,0,0-.86,2.5A14.34,14.34,0,0,0,476.69,1063.9Z" />
    <path class="cls-71"
        d="M473.92,1081.45a29.12,29.12,0,0,0,.26,4.07,6.46,6.46,0,0,0,2-1.39c2.42-2.24,3.71-6,2.93-8.3-.69-2-2.59-2.33-4.75-.95v.09A55.5,55.5,0,0,0,473.92,1081.45Z" />
    <path class="cls-71"
        d="M504,1105.41a36,36,0,0,0,4.24-1.91,22.7,22.7,0,0,1-2.17,1A21.27,21.27,0,0,1,504,1105.41Zm32.25-89.5c-.26-.17-.52-.26-.78-.43l.26.26.09.08A.89.89,0,0,1,536.26,1015.91Zm-67.18,65.71c0,9.93,2.8,17.36,7.58,22.07a5.26,5.26,0,0,0,1.4,1.25l.07.15a21.91,21.91,0,0,0,3.46,2.13,19.2,19.2,0,0,1-3.17-2.79,8,8,0,0,1-1-1.25c-3.83-4.71-6-11.63-6-20.24a50.27,50.27,0,0,1,.29-5.74c2.35-23.47,18.91-50,38.78-61.58,7.58-4.42,14.79-6,20.82-5.08a12.49,12.49,0,0,1,2.28.52h.07a16.56,16.56,0,0,1,3.24,1.25,10.08,10.08,0,0,0-3-1.7c-.8-.29-1.69-.66-2.57-1-6.55-1.69-14.5-.44-23.25,4.63C486.52,1026.73,469.08,1056.82,469.08,1081.62Z" />
    <path class="cls-72"
        d="M526,1055.43c2.42-.52,5-3.55,5.8-6.75s-.61-5.45-3-4.93-4.93,3.46-5.71,6.75S523.55,1055.94,526,1055.43Z" />
    <path class="cls-72"
        d="M513.61,1076.52c1.47,1.47,4.32.35,6.4-2.59s2.5-6.4,1-8-4.41-.34-6.4,2.6S512.14,1075,513.61,1076.52Z" />
    <path class="cls-72"
        d="M514.64,1025.77c2,.51,4.85-1.73,6.4-4.93,1.3-2.77,1.13-5.54-.43-6.49h-.09a18.44,18.44,0,0,0-2.76.78c-.69.26-1.39.52-2.16.86a10.42,10.42,0,0,0-2,2.94C512.05,1022.22,512.57,1025.25,514.64,1025.77Z" />
    <path class="cls-72"
        d="M497.52,1028.71a3.33,3.33,0,0,0,3.55-.18,10.22,10.22,0,0,0,4.5-6.83A75.47,75.47,0,0,0,497.52,1028.71Z" />
    <path class="cls-72"
        d="M486.63,1042.45a9.78,9.78,0,0,0,.86-1,9.94,9.94,0,0,0,1-1.82C487.84,1040.55,487.23,1041.5,486.63,1042.45Z" />
    <path class="cls-72"
        d="M489.05,1064.68c0,6,2.77,9.6,7,10a8.17,8.17,0,0,0,3.46-.26,7.87,7.87,0,0,1-2.85-.78c-2.42-1.3-4-4.24-4-8.47,0-8.22,5.88-18.34,13.06-22.49,3.8-2.16,7.18-2.24,9.6-.69a6.15,6.15,0,0,1,1.9,2,10.79,10.79,0,0,0-1.3-3c-2.5-3.63-7.17-4.32-12.54-1.21C495.45,1044.44,489.05,1055.51,489.05,1064.68Z" />
    <path class="cls-72"
        d="M476.69,1063.9a10.52,10.52,0,0,0,2.41-4.41,6.27,6.27,0,0,0,.18-2.77c-.43,1-.78,1.9-1.13,2.86a22.22,22.22,0,0,0-.86,2.5A14.34,14.34,0,0,0,476.69,1063.9Z" />
    <path class="cls-72"
        d="M473.92,1081.45a29.12,29.12,0,0,0,.26,4.07,6.46,6.46,0,0,0,2-1.39c2.42-2.24,3.71-6,2.93-8.3-.69-2-2.59-2.33-4.75-.95v.09A55.5,55.5,0,0,0,473.92,1081.45Z" />
    <path class="cls-73"
        d="M542.57,1061.74a43,43,0,0,0,1.56-4.41,3.35,3.35,0,0,0-.35.78C543.44,1059.32,543,1060.53,542.57,1061.74ZM504,1105.41a36,36,0,0,0,4.24-1.91,22.7,22.7,0,0,1-2.17,1A21.27,21.27,0,0,1,504,1105.41Z" />
    <path class="cls-73"
        d="M471.44,1082.94c0,8.61,2.13,15.53,6,20.24a8,8,0,0,0,1,1.25,19.2,19.2,0,0,0,3.17,2.79c7.14,4.86,17.44,4.57,28.92-2,21.48-12.51,39-42.6,39-67.4,0-12.95-4.85-21.85-12.58-25.53a16.56,16.56,0,0,0-3.24-1.25h-.07a12.49,12.49,0,0,0-2.28-.52c-6-1-13.24.66-20.82,5.08-19.87,11.55-36.43,38.11-38.78,61.58A50.27,50.27,0,0,0,471.44,1082.94Zm2.5-1.47a47.64,47.64,0,0,1,.44-6.47v-.15c.07-.81.22-1.69.37-2.65s.36-1.91.58-2.87v-.07a2.42,2.42,0,0,1,.15-.59,1.83,1.83,0,0,1,.15-.59v-.29c.07-.37.22-.67.29-1,.23-.89.44-1.84.74-2.65v-.22a18.15,18.15,0,0,1,.66-1.77c.22-.88.52-1.77.81-2.58s.74-1.83,1.18-2.79l.44-1.1a8,8,0,0,0,.37-1.18c.29-.44.44-1,.73-1.47.45-1,1-2,1.47-3a2.53,2.53,0,0,1,.3-.59c.66-1.25,1.25-2.42,1.91-3.53a.4.4,0,0,1,.08-.29,10.57,10.57,0,0,0,.95-1.47c.37-.59.66-1.18,1-1.7.66-1,1.25-1.91,1.92-2.86,0-.08,0-.08.14-.15.67-.89,1.25-1.84,2-2.8s1.47-1.91,2.21-2.79a60.09,60.09,0,0,1,4.71-5.16,71.54,71.54,0,0,1,8-7A14.51,14.51,0,0,1,508,1020c.89-.59,1.62-1,2.51-1.54a26.33,26.33,0,0,1,2.57-1.4,11.78,11.78,0,0,0,1.33-.59c1.17-.51,2.35-1,3.38-1.4a18.27,18.27,0,0,1,2.72-.73h.08c.14,0,.22-.08.29-.08a6.63,6.63,0,0,1,1.1-.29,6.24,6.24,0,0,1,1-.15c.3,0,.45-.07.74-.07a7.29,7.29,0,0,1,1.18-.22c.51,0,1-.08,1.62-.08h.36a4.27,4.27,0,0,1,1,.08,5.11,5.11,0,0,1,1.1.07,6.63,6.63,0,0,1,1.25.22,2.34,2.34,0,0,1,.44.08h.37l.07.07h.08a1.29,1.29,0,0,1,.51.15h.07l1.55.44a.8.8,0,0,1,.44.22,5.32,5.32,0,0,1,1,.37.27.27,0,0,1,.22.07c0,.07,0,.07.08.07a.24.24,0,0,0,.14.08.29.29,0,0,0,.15.07,8.46,8.46,0,0,1,.81.44c.07,0,.15.08.29.08a.07.07,0,0,1,.08.07.07.07,0,0,0,.07.07c.07,0,.15.15.22.22a2.25,2.25,0,0,1,.37.22.54.54,0,0,0,.15.23,6.13,6.13,0,0,1,.66.29c0,.15.07.15.07.15h.08a1.31,1.31,0,0,1,.36.22l.15.14a14,14,0,0,1,1,1l.52.52c.22.22.29.36.44.51a8.45,8.45,0,0,1,.81,1,6.84,6.84,0,0,1,1.1,1.62c.15.22.37.59.51.81s.37.66.52.95c.15.44.44.89.59,1.33a.39.39,0,0,1,.22.36,3,3,0,0,1,.29.89,16.61,16.61,0,0,1,.67,1.76c.07.08.07.15.07.37v.07a3.32,3.32,0,0,1,.22.89.71.71,0,0,1,.22.59c0,.07.08.14.08.22v.14c0,.08.07.23.07.3.14.59.29,1.25.37,1.84a1.31,1.31,0,0,1,.07.51c0,.15.07.37.07.52v.07a4.83,4.83,0,0,1,.08,1,1,1,0,0,1,.07.37c0,.52.15,1,.15,1.55,0,.8.07,1.76.07,2.57a12.55,12.55,0,0,1-.07,1.62v.59c0,1.25-.22,2.57-.3,3.82s-.37,2.58-.58,3.76c-.3,1.54-.52,3-1,4.71,0,.07-.08.22-.08.29-.22.81-.44,1.62-.58,2.35a3.33,3.33,0,0,0-.3.89,14.16,14.16,0,0,1-.81,2.28c-.22.73-.51,1.4-.73,2.13-.08.22-.22.59-.37,1a75.22,75.22,0,0,1-3.31,7.43,39.92,39.92,0,0,1-2.14,4,25.08,25.08,0,0,1-1.54,2.73c-.88,1.47-1.91,2.94-2.87,4.34l-1.25,1.84a7.66,7.66,0,0,1-.74,1,4.2,4.2,0,0,1-.66.89c0,.07,0,.07-.07.14a.79.79,0,0,0-.3.37c-1,1.18-1.91,2.28-2.87,3.46-.22.22-.51.59-.73.81-.81.88-1.55,1.62-2.36,2.35a60.27,60.27,0,0,1-4.56,4.34,28,28,0,0,0-2.21,1.84,3,3,0,0,0-.59.37,32.09,32.09,0,0,1-3.45,2.36c-.08.07-.15.22-.22.29a16.57,16.57,0,0,0-1.84,1.1,20.07,20.07,0,0,1-2.29,1.18c-.36.15-.66.37-1.1.52a10.07,10.07,0,0,1-2.06,1c-.37.15-.74.3-1,.45-1.4.51-2.79.88-4.19,1.25a21.17,21.17,0,0,1-3,.51,4.77,4.77,0,0,1-1,.07,16.94,16.94,0,0,1-3.9,0,6.94,6.94,0,0,1-1.32-.14,18.52,18.52,0,0,1-2.43-.67,7.34,7.34,0,0,1-1.84-.66,3.89,3.89,0,0,1-1.17-.59c-.15,0-.15-.07-.23-.07s-.22-.15-.36-.22a3.05,3.05,0,0,1-.89-.59h-.15a.07.07,0,0,0-.07-.07c-.14-.08-.22-.22-.44-.3a4.36,4.36,0,0,1-1.25-1c-.51-.51-1-.88-1.47-1.47h-.08v-.07c-.14,0-.14-.08-.14-.08a16.19,16.19,0,0,0-1-1.25c-.3-.51-.67-1-1-1.54,0-.08-.08-.08-.08-.15-.29-.51-.51-1-.81-1.47a9.47,9.47,0,0,1-.58-1.32l-.23-.45a.62.62,0,0,0-.21-.36c-.15-.45-.3-.89-.45-1.4s-.37-1.33-.66-2.06a9,9,0,0,0-.29-1.33,1.12,1.12,0,0,1-.08-.51,8.49,8.49,0,0,1-.22-1.4,6.76,6.76,0,0,0-.14-1.1,6,6,0,0,0-.15-1.11v-.29A34.85,34.85,0,0,1,473.94,1081.47Z" />
    <path class="cls-71"
        d="M480.32,1101.43c.52.6.95,1,1.47,1.47a8.68,8.68,0,0,0,1.29,1c.18.08.26.17.44.25s.08.09.08.09h.09a5.85,5.85,0,0,0,.95.61.71.71,0,0,0,.35.17c.08,0,.08.09.17.09a5.25,5.25,0,0,0,1.21.6,14.89,14.89,0,0,0,1.81.69,19.17,19.17,0,0,0,2.43.61,7.13,7.13,0,0,0,1.38.17,14.88,14.88,0,0,0,3.89,0,3.7,3.7,0,0,0,.95-.09,17.76,17.76,0,0,0,3-.51,40.58,40.58,0,0,0,4.15-1.21,21.27,21.27,0,0,0,2.07-1,22.7,22.7,0,0,0,2.17-1c.69-.34,1.47-.78,2.24-1.21.61-.34,1.21-.78,1.82-1.12l.26-.26a40.54,40.54,0,0,0,3.46-2.34,2.8,2.8,0,0,1,.6-.43c.7-.6,1.39-1.21,2.17-1.81a55.15,55.15,0,0,0,4.58-4.33c.78-.78,1.55-1.47,2.33-2.33.26-.26.52-.61.78-.87,1-1.12,1.9-2.25,2.85-3.46.09-.08.18-.26.26-.34s.09-.09.09-.17a3.27,3.27,0,0,0,.69-.87,7.94,7.94,0,0,0,.7-1l1.29-1.82c1-1.38,2-2.85,2.86-4.32a30.71,30.71,0,0,0,1.55-2.77c.78-1.29,1.47-2.59,2.16-4,1.21-2.43,2.34-4.93,3.29-7.44a6.2,6.2,0,0,0,.34-1c.44-1.21.87-2.42,1.21-3.63a3.35,3.35,0,0,1,.35-.78c.09-.35.17-.61.26-.87.17-.78.43-1.55.61-2.33,0-.09.08-.26.08-.35a44.49,44.49,0,0,0,.95-4.67c.26-1.21.44-2.51.61-3.8s.26-2.51.26-3.81v-.6a10.19,10.19,0,0,0,.08-1.56c0-.86-.08-1.81-.08-2.59,0-.52-.09-1-.09-1.56a.67.67,0,0,0-.08-.34,4,4,0,0,0-.09-1v-.09c0-.17-.09-.34-.09-.52a1.2,1.2,0,0,0-.08-.52,14.44,14.44,0,0,0-.35-1.81c0-.09-.09-.26-.09-.35v-.09c0-.08-.08-.17-.08-.25a1.33,1.33,0,0,0-.17-.61,3.53,3.53,0,0,0-.26-.86v-.09c0-.17,0-.26-.09-.35a10.08,10.08,0,0,0-.61-1.73,3.06,3.06,0,0,0-.34-1,.63.63,0,0,0-.18-.34c-.17-.44-.43-.87-.6-1.3s-.35-.61-.52-1-.35-.61-.52-.87a7.09,7.09,0,0,0-1.12-1.55,3.48,3.48,0,0,0-.78-1c-.17-.18-.26-.35-.43-.52l-.52-.52a10,10,0,0,0-1-1l-.17-.18a1.32,1.32,0,0,0-.35-.25h-.09a.08.08,0,0,1-.08-.09,3.66,3.66,0,0,0-.61-.35l-.17-.17c-.09-.09-.26-.17-.34-.26s-.18-.17-.26-.17a.09.09,0,0,1-.09-.09.09.09,0,0,0-.09-.09c-.08,0-.17-.08-.26-.08a.89.89,0,0,0-.43-.09l-.09-.08a7.54,7.54,0,0,0-1.9-1c-.17-.08-.26-.08-.43-.17a10.07,10.07,0,0,0-1.56-.43h-.08l-.18.26c3.81,4.41,6,11,6,19.45,0,23.18-16.34,51.28-36.49,62.95C493.37,1101.25,486.2,1102.72,480.32,1101.43Z" />
    <path class="cls-72"
        d="M474.18,1085.52v.26c.17,1.29.34,2.42.52,3.63a1.2,1.2,0,0,0,.08.52,15.13,15.13,0,0,0,.61,2.16,4.88,4.88,0,0,0,.34,1.21,16.68,16.68,0,0,0,.87,2.25,8.28,8.28,0,0,0,.6,1.29c.26.52.52,1,.78,1.47,0,.09.09.09.09.18l1,1.55c.35.44.7.78,1,1.21a.09.09,0,0,0,.09.09v.09h.09c5.88,1.29,13.05-.18,20.75-4.59,20.15-11.67,36.49-39.77,36.49-62.95,0-8.47-2.16-15-6-19.45-.08-.18-.26-.26-.34-.43h-.09c-.26-.09-.52-.09-.86-.18a5.52,5.52,0,0,0-1.22-.17,4.35,4.35,0,0,0-1.12-.09,23.79,23.79,0,0,0-4.24.18c-.25,0-.43.08-.69.08a4.13,4.13,0,0,0-1,.18l-1.13.25c-.09,0-.17.09-.26.09,1.56.95,1.73,3.72.43,6.49-1.55,3.2-4.41,5.44-6.4,4.93s-2.59-3.55-1-6.84a10.42,10.42,0,0,1,2-2.94c-.78.35-1.65.7-2.51,1.13a24.71,24.71,0,0,0-2.6,1.38c-.86.52-1.64,1-2.5,1.56a23.31,23.31,0,0,0-2.42,1.64,10.22,10.22,0,0,1-4.5,6.83,3.33,3.33,0,0,1-3.55.18,69.73,69.73,0,0,0-4.67,5.18c-.77.87-1.47,1.82-2.24,2.77s-1.3,1.9-2,2.77c-.09.08-.09.08-.09.17a9.94,9.94,0,0,1-1,1.82,9.78,9.78,0,0,1-.86,1c-.69,1.13-1.38,2.25-2.08,3.46s-1.29,2.34-1.9,3.55a2,2,0,0,0-.34.6c-.52,1-1,2-1.47,2.94-.52,1.3-1,2.51-1.56,3.72a6.27,6.27,0,0,1-.18,2.77,10.52,10.52,0,0,1-2.41,4.41v.17c-.35.87-.52,1.82-.78,2.68-.09.35-.18.69-.26,1v.26a2.1,2.1,0,0,0-.18.61,2.33,2.33,0,0,0-.17.6v.09c-.17,1-.43,1.9-.52,2.85s-.34,1.82-.43,2.68c2.16-1.38,4.06-1,4.75.95.78,2.34-.51,6.06-2.93,8.3A6.46,6.46,0,0,1,474.18,1085.52Zm48.85-35c.78-3.29,3.38-6.23,5.71-6.75s3.81,1.73,3,4.93-3.38,6.23-5.8,6.75S522.17,1053.7,523,1050.5Zm2.86-24.73a4.93,4.93,0,0,1,3.8-1.65,2.41,2.41,0,0,1,2.08,1.65c.78,2.33-.61,6.14-3,8.38a7.9,7.9,0,0,1-1.82,1.3c-1.73.87-3.28.43-4-1.3C522.17,1031.82,523.55,1028.1,525.89,1025.77Zm-11.25,42.8c2-2.94,4.93-4.07,6.4-2.6s1,5.11-1,8-4.93,4.06-6.4,2.59S512.57,1071.42,514.64,1068.57Zm-18.15,20.75a11.17,11.17,0,0,1,.34-2.25,10.41,10.41,0,0,1,4.24-5.62,3.79,3.79,0,0,1,1.12-.43c2-.69,3.46.52,3.46,3a10.19,10.19,0,0,1-4.58,8C498.56,1093.47,496.49,1092.26,496.49,1089.32Zm-9.95-23.26c0-10.72,7.52-23.69,16.86-29,6.06-3.46,11.42-2.86,14.36.86a14.42,14.42,0,0,1,2.51,8.73,28.18,28.18,0,0,1-1.82,9.69c0,.09,0,.09-.09.17a38.8,38.8,0,0,1-7.35,12.71.41.41,0,0,1-.17.26,31.42,31.42,0,0,1-7.44,6.23c-3.45,2-6.66,2.59-9.25,2.16C489.57,1077,486.54,1072.81,486.54,1066.06Zm-5.45,23c1.47-3.2,4.33-5.36,6.4-4.84a2.57,2.57,0,0,1,1.73,1.9,7.21,7.21,0,0,1-.69,4.84c-1.12,2.51-3.28,4.5-5,4.93a3.6,3.6,0,0,1-1.39,0C480.06,1095.37,479.62,1092.26,481.09,1089.06Z" />
    <path class="cls-74"
        d="M486.54,1066.06c0,6.75,3,10.9,7.61,11.76,2.59.43,5.8-.17,9.25-2.16a31.42,31.42,0,0,0,7.44-6.23.41.41,0,0,0,.17-.26,38.8,38.8,0,0,0,7.35-12.71c.09-.08.09-.08.09-.17a28.18,28.18,0,0,0,1.82-9.69,14.42,14.42,0,0,0-2.51-8.73c-2.94-3.72-8.3-4.32-14.36-.86C494.06,1042.37,486.54,1055.34,486.54,1066.06Zm2.51-1.38c0-9.17,6.4-20.24,14.35-24.91,5.37-3.11,10-2.42,12.54,1.21a10.79,10.79,0,0,1,1.3,3,11.73,11.73,0,0,1,1.56,6.14,25.14,25.14,0,0,1-2.25,9.69,62.17,62.17,0,0,1-3.29,5.62c0,.17-.17.26-.26.43a25.21,25.21,0,0,1-7.26,6.74,11.51,11.51,0,0,1-6.23,1.82,8.17,8.17,0,0,1-3.46.26C491.82,1074.28,489.05,1070.64,489.05,1064.68Z" />
    <path class="cls-74"
        d="M489.05,1064.68c0,6,2.77,9.6,7,10a8.17,8.17,0,0,0,3.46-.26,7.87,7.87,0,0,1-2.85-.78c-2.42-1.3-4-4.24-4-8.47,0-8.22,5.88-18.34,13.06-22.49,3.8-2.16,7.18-2.24,9.6-.69a6.15,6.15,0,0,1,1.9,2,10.79,10.79,0,0,0-1.3-3c-2.5-3.63-7.17-4.32-12.54-1.21C495.45,1044.44,489.05,1055.51,489.05,1064.68Z" />
    <path class="cls-71"
        d="M489.05,1064.68c0,6,2.77,9.6,7,10a8.17,8.17,0,0,0,3.46-.26,7.87,7.87,0,0,1-2.85-.78c-2.42-1.3-4-4.24-4-8.47,0-8.22,5.88-18.34,13.06-22.49,3.8-2.16,7.18-2.24,9.6-.69a6.15,6.15,0,0,1,1.9,2,10.79,10.79,0,0,0-1.3-3c-2.5-3.63-7.17-4.32-12.54-1.21C495.45,1044.44,489.05,1055.51,489.05,1064.68Z" />
    <path class="cls-73"
        d="M492.68,1065.2c0,4.23,1.56,7.17,4,8.47a7.87,7.87,0,0,0,2.85.78,11.51,11.51,0,0,0,6.23-1.82,25.21,25.21,0,0,0,7.26-6.74c.09-.17.26-.26.26-.43a62.17,62.17,0,0,0,3.29-5.62,25.14,25.14,0,0,0,2.25-9.69,11.73,11.73,0,0,0-1.56-6.14,6.15,6.15,0,0,0-1.9-2c-2.42-1.55-5.8-1.47-9.6.69C498.56,1046.86,492.68,1057,492.68,1065.2Z" />
    <path class="cls-74"
        d="M497.52,1028.71a3.33,3.33,0,0,0,3.55-.18,10.22,10.22,0,0,0,4.5-6.83A75.47,75.47,0,0,0,497.52,1028.71Z" />
    <path class="cls-74"
        d="M486.63,1042.45a9.78,9.78,0,0,0,.86-1,9.94,9.94,0,0,0,1-1.82C487.84,1040.55,487.23,1041.5,486.63,1042.45Z" />
    <path class="cls-74"
        d="M476.69,1063.9a10.52,10.52,0,0,0,2.41-4.41,6.27,6.27,0,0,0,.18-2.77c-.43,1-.78,1.9-1.13,2.86a22.22,22.22,0,0,0-.86,2.5A14.34,14.34,0,0,0,476.69,1063.9Z" />
    <path class="cls-74"
        d="M473.92,1081.45a29.12,29.12,0,0,0,.26,4.07,6.46,6.46,0,0,0,2-1.39c2.42-2.24,3.71-6,2.93-8.3-.69-2-2.59-2.33-4.75-.95v.09A55.5,55.5,0,0,0,473.92,1081.45Z" />
    <path class="cls-74"
        d="M482.13,1095.89a3.6,3.6,0,0,0,1.39,0c1.73-.43,3.89-2.42,5-4.93a7.21,7.21,0,0,0,.69-4.84,2.57,2.57,0,0,0-1.73-1.9c-2.07-.52-4.93,1.64-6.4,4.84S480.06,1095.37,482.13,1095.89Z" />
    <path class="cls-74"
        d="M496.49,1089.32c0,2.94,2.07,4.15,4.58,2.68a10.19,10.19,0,0,0,4.58-8c0-2.51-1.47-3.72-3.46-3a3.79,3.79,0,0,0-1.12.43,10.41,10.41,0,0,0-4.24,5.62A11.17,11.17,0,0,0,496.49,1089.32Z" />
    <path class="cls-74"
        d="M513.61,1076.52c1.47,1.47,4.32.35,6.4-2.59s2.5-6.4,1-8-4.41-.34-6.4,2.6S512.14,1075,513.61,1076.52Z" />
    <path class="cls-74"
        d="M526,1055.43c2.42-.52,5-3.55,5.8-6.75s-.61-5.45-3-4.93-4.93,3.46-5.71,6.75S523.55,1055.94,526,1055.43Z" />
    <path class="cls-74"
        d="M523,1034.15c.69,1.73,2.24,2.17,4,1.3a7.9,7.9,0,0,0,1.82-1.3c2.42-2.24,3.81-6.05,3-8.38a2.41,2.41,0,0,0-2.08-1.65,4.93,4.93,0,0,0-3.8,1.65C523.55,1028.1,522.17,1031.82,523,1034.15Z" />
    <path class="cls-74"
        d="M514.64,1025.77c2,.51,4.85-1.73,6.4-4.93,1.3-2.77,1.13-5.54-.43-6.49h-.09a18.44,18.44,0,0,0-2.76.78c-.69.26-1.39.52-2.16.86a10.42,10.42,0,0,0-2,2.94C512.05,1022.22,512.57,1025.25,514.64,1025.77Z" />
    <polygon class="cls-3"
        points="877.25 766.92 845.49 750.14 845.49 791.51 877.23 811.65 877.25 766.92" />
    <polygon class="cls-4"
        points="865.86 760.9 864.96 789.37 852.21 782.31 851.16 753.14 865.86 760.9" />
    <polygon class="cls-132"
        points="16.02 545.92 289.21 681.83 847.35 391.53 847.35 773.72 290.78 1114.88 16.02 956.8 16.02 545.92" />
    <polygon class="cls-6" points="576.19 284 847.35 391.53 289.21 681.83 16.02 545.92 576.19 284" />
    <polygon class="cls-132"
        points="1054.48 653.94 1048.54 657.5 1031.52 667.7 879.51 758.78 879.51 448.83 975.33 397.92 1047.3 534.09 1052.93 627.6 1053.35 634.72 1054.48 653.94" />
    <path class="cls-133"
        d="M30.14,961.91c0,2.55-3.05,2.85-6.81.67s-6.8-6-6.8-8.56,3-2.84,6.8-.67S30.14,959.37,30.14,961.91Z" />
    <path class="cls-133"
        d="M293,1110.58c0,2.55-3.05,2.85-6.81.67s-6.8-6-6.8-8.56,3-2.85,6.8-.67S293,1108,293,1110.58Z" />
    <polygon class="cls-5"
        points="845.49 750.14 877.25 767.75 579.24 953.31 564.89 962.23 534.52 981.22 534.39 981.27 528.8 984.75 450.66 1033.49 432.62 1044.8 427.54 1047.91 426.26 1048.78 394.37 1068.64 389.93 1071.43 383.83 1075.19 382.3 1076.1 318.26 1116.11 288.91 1116.11 354.48 1075.19 360.45 1071.43 408.35 1041.55 411.78 1039.4 413.81 1038.16 490.94 990.01 496.53 986.53 496.65 986.53 496.65 986.44 496.78 986.44 497.16 986.21 527.28 967.4 545.32 956.1 838.23 779.76 838.23 779.76 845.49 772.1 845.49 760.9 845.49 750.14" />
</svg>