<svg xmlns="http://www.w3.org/2000/svg" xmlns:xlink="http://www.w3.org/1999/xlink"
    viewBox="0 0 1080 1350">
    <defs>
        <style>
            .cls-1{isolation:isolate;}.cls-14{fill:#c4c2c1;}.cls-3{fill:#1e1e1e;}.cls-4{fill:url(#linear-gradient);}.cls-5{fill:url(#linear-gradient-2);}.cls-6{fill:url(#linear-gradient-3);}.cls-7{fill:url(#linear-gradient-4);}.cls-8{fill:url(#linear-gradient-5);}.cls-9{fill:url(#linear-gradient-6);}.cls-10{fill:url(#linear-gradient-7);}.cls-11{fill:url(#linear-gradient-8);}.cls-12{fill:url(#linear-gradient-9);}.cls-13{fill:url(#linear-gradient-10);}.cls-2{fill:url(#linear-gradient-11);}.cls-15{fill:url(#linear-gradient-12);}.cls-16{fill:url(#linear-gradient-13);}.cls-17{fill:url(#linear-gradient-14);}.cls-18{fill:url(#linear-gradient-15);}.cls-19{fill:url(#linear-gradient-16);}.cls-20{fill:url(#linear-gradient-17);}.cls-21{fill:url(#linear-gradient-18);}.cls-22{fill:url(#linear-gradient-19);}.cls-23{fill:url(#linear-gradient-26);}.cls-24{fill:url(#linear-gradient-33);}.cls-25{fill:url(#linear-gradient-34);}.cls-26{fill:url(#linear-gradient-36);}.cls-27{fill:url(#linear-gradient-37);}.cls-28{fill:url(#linear-gradient-38);}.cls-29{fill:url(#linear-gradient-39);}.cls-30{fill:url(#linear-gradient-40);}.cls-31{fill:url(#linear-gradient-41);}.cls-32{fill:url(#linear-gradient-42);}.cls-33{fill:url(#linear-gradient-43);}.cls-34{fill:url(#linear-gradient-44);}.cls-35{fill:url(#linear-gradient-45);}.cls-36{fill:url(#linear-gradient-46);}.cls-37{fill:url(#linear-gradient-47);}.cls-38{fill:url(#linear-gradient-48);}.cls-39{fill:url(#linear-gradient-49);}.cls-40{fill:url(#linear-gradient-50);}.cls-41{fill:url(#linear-gradient-51);}.cls-42{fill:url(#linear-gradient-52);}.cls-43{fill:url(#linear-gradient-53);}.cls-44{fill:url(#linear-gradient-54);}.cls-45{fill:url(#linear-gradient-55);}.cls-46{fill:url(#linear-gradient-56);}.cls-47{fill:url(#linear-gradient-57);}.cls-48{fill:url(#linear-gradient-58);}.cls-49{fill:url(#linear-gradient-59);}.cls-50{fill:url(#linear-gradient-60);}.cls-51{fill:url(#linear-gradient-61);}.cls-52{fill:url(#linear-gradient-62);}.cls-53{fill:url(#linear-gradient-63);}.cls-54{fill:url(#linear-gradient-64);}.cls-55{fill:url(#linear-gradient-65);}.cls-56{fill:url(#linear-gradient-66);}.cls-57{fill:url(#linear-gradient-67);}.cls-58{fill:url(#linear-gradient-68);}.cls-59{fill:url(#linear-gradient-69);}.cls-60{fill:url(#linear-gradient-70);}.cls-61{fill:url(#linear-gradient-71);}.cls-62{fill:url(#linear-gradient-72);}.cls-63{fill:url(#linear-gradient-73);}.cls-64{fill:url(#linear-gradient-74);}.cls-65{fill:url(#linear-gradient-75);}.cls-66{fill:url(#linear-gradient-76);}.cls-67{fill:#9a97aa;}.cls-68{fill:#90919a;}.cls-69{fill:#c8c6e8;}.cls-70{fill:#131313;}.cls-71{fill:url(#linear-gradient-77);}.cls-72{fill:url(#linear-gradient-78);}.cls-73{fill:url(#linear-gradient-79);}.cls-74{fill:url(#linear-gradient-80);}.cls-75{fill:url(#linear-gradient-81);}.cls-76{fill:url(#linear-gradient-82);}.cls-77{fill:url(#linear-gradient-83);}.cls-78{fill:url(#linear-gradient-84);}.cls-79{fill:url(#linear-gradient-85);}.cls-80{fill:url(#linear-gradient-86);}.cls-81{fill:url(#linear-gradient-87);}.cls-82{fill:url(#linear-gradient-88);}.cls-83{fill:url(#linear-gradient-89);}.cls-84{fill:url(#linear-gradient-90);}.cls-85{fill:url(#linear-gradient-91);}.cls-86{fill:url(#linear-gradient-92);}.cls-87{fill:url(#linear-gradient-93);}.cls-88{fill:url(#linear-gradient-94);}.cls-89{fill:url(#linear-gradient-95);}.cls-90{fill:url(#linear-gradient-102);}.cls-91{fill:url(#linear-gradient-109);}.cls-92{fill:url(#linear-gradient-110);}.cls-93{fill:url(#linear-gradient-112);}.cls-94{fill:url(#linear-gradient-113);}.cls-95{fill:url(#linear-gradient-114);}.cls-96{fill:url(#linear-gradient-115);}.cls-97{fill:url(#linear-gradient-116);}.cls-98{fill:url(#linear-gradient-117);}.cls-99{fill:url(#linear-gradient-118);}.cls-100{fill:url(#linear-gradient-119);}.cls-101{fill:url(#linear-gradient-120);}.cls-102{fill:url(#linear-gradient-121);}.cls-103{fill:url(#linear-gradient-122);}.cls-104{fill:url(#linear-gradient-123);}.cls-105{fill:url(#linear-gradient-124);}.cls-106{fill:url(#linear-gradient-125);}.cls-107{fill:url(#linear-gradient-126);}.cls-108{fill:url(#linear-gradient-127);}.cls-109{fill:url(#linear-gradient-128);}.cls-110{fill:url(#linear-gradient-129);}.cls-111{fill:url(#linear-gradient-130);}.cls-112{fill:url(#linear-gradient-131);}.cls-113{fill:url(#linear-gradient-132);}.cls-114{fill:url(#linear-gradient-133);}.cls-115{fill:url(#linear-gradient-134);}.cls-116{fill:url(#linear-gradient-135);}.cls-117{fill:url(#linear-gradient-136);}.cls-118{fill:url(#linear-gradient-137);}.cls-119{fill:url(#linear-gradient-138);}.cls-120{fill:url(#linear-gradient-139);}.cls-121{fill:url(#linear-gradient-140);}.cls-122{fill:url(#linear-gradient-141);}.cls-123{fill:url(#linear-gradient-142);}.cls-124{fill:url(#linear-gradient-143);}.cls-125{fill:url(#linear-gradient-144);}.cls-126{fill:url(#linear-gradient-145);}.cls-127{fill:url(#linear-gradient-146);}.cls-128{fill:url(#linear-gradient-147);}.cls-129{fill:url(#linear-gradient-148);}.cls-130{fill:url(#linear-gradient-149);}.cls-131{fill:url(#linear-gradient-150);}.cls-132{fill:url(#linear-gradient-151);}.cls-133{fill:url(#linear-gradient-152);}.cls-134{fill:#394749;}.cls-135{fill:#ff1436;}.cls-136{fill:#1d232a;}.cls-137{fill:#383f48;}.cls-138,.cls-145{fill:#cbd0d3;}.cls-139{fill:#b7b7b7;}.cls-140{fill:#e2e3e7;}.cls-141{fill:#ff8f08;}.cls-142{fill:#bebebe;}.cls-142,.cls-143,.cls-144,.cls-145,.cls-146,.cls-147{opacity:0.15;}.cls-143{fill:#bac0c4;mix-blend-mode:multiply;}.cls-144{fill:#606060;}.cls-146{fill:#353535;}.cls-147{fill:#161616;}</style>
        <linearGradient id="linear-gradient" x1="-1686.04" y1="1522.08" x2="-1686.16" y2="1521.88"
            gradientTransform="matrix(-0.97, 0.22, 0.22, 0.97, -1499.29, -83.48)"
            gradientUnits="userSpaceOnUse">
            <stop offset="0" stop-color="#181818" />
            <stop offset="0.27" stop-color="#262626" />
            <stop offset="0.77" stop-color="#2e2e2e" />
        </linearGradient>
        <linearGradient id="linear-gradient-2" x1="-1685.44" y1="1521.87" x2="-1685.57" y2="1521.66"
            xlink:href="#linear-gradient" />
        <linearGradient id="linear-gradient-3" x1="-1681.08" y1="1522.29" x2="-1681.97" y2="1520.74"
            xlink:href="#linear-gradient" />
        <linearGradient id="linear-gradient-4" x1="-1672.18" y1="1530.45" x2="-1677.13" y2="1521.89"
            xlink:href="#linear-gradient" />
        <linearGradient id="linear-gradient-5" x1="-1660.16" y1="1533.46" x2="-1664.04" y2="1526.74"
            xlink:href="#linear-gradient" />
        <linearGradient id="linear-gradient-6" x1="-1653.24" y1="1565.41" x2="-1668.71" y2="1538.63"
            xlink:href="#linear-gradient" />
        <linearGradient id="linear-gradient-7" x1="-1650.11" y1="1542.98" x2="-1651.42" y2="1540.72"
            xlink:href="#linear-gradient" />
        <linearGradient id="linear-gradient-8" x1="-1648.38" y1="1545.54" x2="-1649.92" y2="1542.87"
            xlink:href="#linear-gradient" />
        <linearGradient id="linear-gradient-9" x1="-1644.05" y1="1553.59" x2="-1645.57" y2="1550.95"
            xlink:href="#linear-gradient" />
        <linearGradient id="linear-gradient-10" x1="-1641.87" y1="1558.92" x2="-1644.72"
            y2="1553.98" xlink:href="#linear-gradient" />
        <linearGradient id="linear-gradient-11" x1="-1641.87" y1="1582.8" x2="-1642.43" y2="1581.82"
            xlink:href="#linear-gradient" />
        <linearGradient id="linear-gradient-12" x1="-1640.93" y1="1580.2" x2="-1641.52" y2="1579.19"
            xlink:href="#linear-gradient" />
        <linearGradient id="linear-gradient-13" x1="-1640.12" y1="1578.03" x2="-1641.2" y2="1576.15"
            xlink:href="#linear-gradient" />
        <linearGradient id="linear-gradient-14" x1="-1639.22" y1="1574.82" x2="-1643.61"
            y2="1567.21" xlink:href="#linear-gradient" />
        <linearGradient id="linear-gradient-15" x1="-1635.33" y1="1585.45" x2="-1677.15"
            y2="1513.02" xlink:href="#linear-gradient" />
        <linearGradient id="linear-gradient-16" x1="-1670.53" y1="1488.62" x2="-1670.6" y2="1488.51"
            xlink:href="#linear-gradient" />
        <linearGradient id="linear-gradient-17" x1="-1611.34" y1="1561.93" x2="-1613.63"
            y2="1557.97" xlink:href="#linear-gradient" />
        <linearGradient id="linear-gradient-18" x1="-1607.92" y1="1591.84" x2="-1607.98"
            y2="1591.72" xlink:href="#linear-gradient" />
        <linearGradient id="linear-gradient-19" x1="-1606.62" y1="1587.7" x2="-1608.55" y2="1584.35"
            xlink:href="#linear-gradient" />
        <linearGradient id="linear-gradient-26" x1="-1654.16" y1="1565.94" x2="-1669.62"
            y2="1539.15" xlink:href="#linear-gradient" />
        <linearGradient id="linear-gradient-33" x1="-1634.66" y1="1584.72" x2="-1676.13" y2="1512.9"
            xlink:href="#linear-gradient" />
        <linearGradient id="linear-gradient-34" x1="-1651.08" y1="1498.22" x2="-1652.05"
            y2="1496.54" xlink:href="#linear-gradient" />
        <linearGradient id="linear-gradient-36" x1="-1604.97" y1="1589.07" x2="-1607.9" y2="1583.98"
            xlink:href="#linear-gradient" />
        <linearGradient id="linear-gradient-37" x1="-1685.62" y1="1521.98" x2="-1685.38"
            y2="1521.57" gradientTransform="matrix(-0.97, 0.22, 0.22, 0.97, -1499.29, -83.48)"
            gradientUnits="userSpaceOnUse">
            <stop offset="0" stop-color="#141414" />
            <stop offset="0.44" stop-color="#1e1e1e" />
            <stop offset="0.78" stop-color="#202020" />
            <stop offset="0.98" stop-color="#292929" />
            <stop offset="1" stop-color="#2a2a2a" />
        </linearGradient>
        <linearGradient id="linear-gradient-38" x1="-1681.94" y1="1522.23" x2="-1681.11" y2="1520.8"
            xlink:href="#linear-gradient-37" />
        <linearGradient id="linear-gradient-39" x1="-1684.98" y1="1551.91" x2="-1681.47"
            y2="1545.82" xlink:href="#linear-gradient-37" />
        <linearGradient id="linear-gradient-40" x1="-1677.08" y1="1568.24" x2="-1673.58"
            y2="1562.16" xlink:href="#linear-gradient-37" />
        <linearGradient id="linear-gradient-41" x1="-1676.41" y1="1529.2" x2="-1673" y2="1523.29"
            xlink:href="#linear-gradient-37" />
        <linearGradient id="linear-gradient-42" x1="-1662.92" y1="1531.73" x2="-1661.58"
            y2="1529.42" xlink:href="#linear-gradient-37" />
        <linearGradient id="linear-gradient-43" x1="-1651.03" y1="1542.32" x2="-1650.48"
            y2="1541.36" xlink:href="#linear-gradient-37" />
        <linearGradient id="linear-gradient-44" x1="-1649.53" y1="1544.84" x2="-1648.82" y2="1543.6"
            xlink:href="#linear-gradient-37" />
        <linearGradient id="linear-gradient-45" x1="-1696.93" y1="1557.62" x2="-1695.78"
            y2="1555.64" xlink:href="#linear-gradient-37" />
        <linearGradient id="linear-gradient-46" x1="-1689.48" y1="1523.68" x2="-1688.6" y2="1522.15"
            xlink:href="#linear-gradient-37" />
        <linearGradient id="linear-gradient-47" x1="-1686.27" y1="1522.15" x2="-1686.05"
            y2="1521.77" xlink:href="#linear-gradient-37" />
        <linearGradient id="linear-gradient-48" x1="-1666.78" y1="1590.54" x2="-1666.52" y2="1590.1"
            xlink:href="#linear-gradient-37" />
        <linearGradient id="linear-gradient-49" x1="-1669.03" y1="1562.71" x2="-1658.31"
            y2="1544.14" xlink:href="#linear-gradient-37" />
        <linearGradient id="linear-gradient-50" x1="-1645.26" y1="1553.06" x2="-1644.35"
            y2="1551.48" xlink:href="#linear-gradient-37" />
        <linearGradient id="linear-gradient-51" x1="-1644.11" y1="1557.98" x2="-1642.27"
            y2="1554.79" xlink:href="#linear-gradient-37" />
        <linearGradient id="linear-gradient-52" x1="-1642.61" y1="1583.12" x2="-1641.68"
            y2="1581.51" xlink:href="#linear-gradient-37" />
        <linearGradient id="linear-gradient-53" x1="-1641.65" y1="1580.43" x2="-1640.8" y2="1578.97"
            xlink:href="#linear-gradient-37" />
        <linearGradient id="linear-gradient-54" x1="-1641.31" y1="1578.23" x2="-1640" y2="1575.95"
            xlink:href="#linear-gradient-37" />
        <linearGradient id="linear-gradient-55" x1="-1643.5" y1="1573.79" x2="-1639.97" y2="1567.68"
            xlink:href="#linear-gradient-37" />
        <linearGradient id="linear-gradient-56" x1="-1677.37" y1="1574.43" x2="-1651.97"
            y2="1530.44" xlink:href="#linear-gradient-37" />
        <linearGradient id="linear-gradient-57" x1="-1685.62" y1="1521.98" x2="-1685.38"
            y2="1521.57" gradientTransform="matrix(-0.97, 0.22, 0.22, 0.97, -1499.29, -83.48)"
            gradientUnits="userSpaceOnUse">
            <stop offset="0" stop-color="#161616" />
            <stop offset="0.3" stop-color="#1a1a1a" />
            <stop offset="0.79" stop-color="#1e1e1e" />
            <stop offset="0.8" stop-color="#1e1e1e" />
        </linearGradient>
        <linearGradient id="linear-gradient-58" x1="-1681.94" y1="1522.23" x2="-1681.11" y2="1520.8"
            xlink:href="#linear-gradient-57" />
        <linearGradient id="linear-gradient-59" x1="-1684.98" y1="1551.91" x2="-1681.47"
            y2="1545.82" xlink:href="#linear-gradient-57" />
        <linearGradient id="linear-gradient-60" x1="-1677.08" y1="1568.24" x2="-1673.58"
            y2="1562.16" xlink:href="#linear-gradient-57" />
        <linearGradient id="linear-gradient-61" x1="-1676.41" y1="1529.2" x2="-1673" y2="1523.29"
            xlink:href="#linear-gradient-57" />
        <linearGradient id="linear-gradient-62" x1="-1662.92" y1="1531.73" x2="-1661.58"
            y2="1529.42" xlink:href="#linear-gradient-57" />
        <linearGradient id="linear-gradient-63" x1="-1651.03" y1="1542.32" x2="-1650.48"
            y2="1541.36" xlink:href="#linear-gradient-57" />
        <linearGradient id="linear-gradient-64" x1="-1649.53" y1="1544.84" x2="-1648.82" y2="1543.6"
            xlink:href="#linear-gradient-57" />
        <linearGradient id="linear-gradient-65" x1="-1696.93" y1="1557.62" x2="-1695.78"
            y2="1555.64" xlink:href="#linear-gradient-57" />
        <linearGradient id="linear-gradient-66" x1="-1689.48" y1="1523.68" x2="-1688.6" y2="1522.15"
            xlink:href="#linear-gradient-57" />
        <linearGradient id="linear-gradient-67" x1="-1686.27" y1="1522.15" x2="-1686.05"
            y2="1521.77" xlink:href="#linear-gradient-57" />
        <linearGradient id="linear-gradient-68" x1="-1666.78" y1="1590.54" x2="-1666.52" y2="1590.1"
            xlink:href="#linear-gradient-57" />
        <linearGradient id="linear-gradient-69" x1="-1669.03" y1="1562.71" x2="-1658.31"
            y2="1544.14" xlink:href="#linear-gradient-57" />
        <linearGradient id="linear-gradient-70" x1="-1645.26" y1="1553.06" x2="-1644.35"
            y2="1551.48" xlink:href="#linear-gradient-57" />
        <linearGradient id="linear-gradient-71" x1="-1644.11" y1="1557.98" x2="-1642.27"
            y2="1554.79" xlink:href="#linear-gradient-57" />
        <linearGradient id="linear-gradient-72" x1="-1642.61" y1="1583.12" x2="-1641.68"
            y2="1581.51" xlink:href="#linear-gradient-57" />
        <linearGradient id="linear-gradient-73" x1="-1641.65" y1="1580.43" x2="-1640.8" y2="1578.97"
            xlink:href="#linear-gradient-57" />
        <linearGradient id="linear-gradient-74" x1="-1641.31" y1="1578.23" x2="-1640" y2="1575.95"
            xlink:href="#linear-gradient-57" />
        <linearGradient id="linear-gradient-75" x1="-1643.5" y1="1573.79" x2="-1639.97" y2="1567.68"
            xlink:href="#linear-gradient-57" />
        <linearGradient id="linear-gradient-76" x1="-1677.37" y1="1574.43" x2="-1651.97"
            y2="1530.44" xlink:href="#linear-gradient-57" />
        <linearGradient id="linear-gradient-77" x1="-2158.73" y1="1362.67" x2="-2158.85"
            y2="1362.46" xlink:href="#linear-gradient" />
        <linearGradient id="linear-gradient-78" x1="-2158.13" y1="1362.46" x2="-2158.26"
            y2="1362.24" xlink:href="#linear-gradient" />
        <linearGradient id="linear-gradient-79" x1="-2153.77" y1="1362.87" x2="-2154.66"
            y2="1361.32" xlink:href="#linear-gradient" />
        <linearGradient id="linear-gradient-80" x1="-2144.87" y1="1371.03" x2="-2149.81"
            y2="1362.47" xlink:href="#linear-gradient" />
        <linearGradient id="linear-gradient-81" x1="-2132.85" y1="1374.04" x2="-2136.73"
            y2="1367.33" xlink:href="#linear-gradient" />
        <linearGradient id="linear-gradient-82" x1="-2125.93" y1="1405.99" x2="-2141.4" y2="1379.21"
            xlink:href="#linear-gradient" />
        <linearGradient id="linear-gradient-83" x1="-2122.8" y1="1383.57" x2="-2124.11" y2="1381.3"
            xlink:href="#linear-gradient" />
        <linearGradient id="linear-gradient-84" x1="-2121.07" y1="1386.12" x2="-2122.61"
            y2="1383.46" xlink:href="#linear-gradient" />
        <linearGradient id="linear-gradient-85" x1="-2116.74" y1="1394.17" x2="-2118.26"
            y2="1391.54" xlink:href="#linear-gradient" />
        <linearGradient id="linear-gradient-86" x1="-2114.56" y1="1399.5" x2="-2117.41" y2="1394.56"
            xlink:href="#linear-gradient" />
        <linearGradient id="linear-gradient-87" x1="-2114.56" y1="1423.38" x2="-2115.12"
            y2="1422.41" xlink:href="#linear-gradient" />
        <linearGradient id="linear-gradient-88" x1="-2113.62" y1="1420.79" x2="-2114.21"
            y2="1419.77" xlink:href="#linear-gradient" />
        <linearGradient id="linear-gradient-89" x1="-2112.8" y1="1418.61" x2="-2113.89" y2="1416.74"
            xlink:href="#linear-gradient" />
        <linearGradient id="linear-gradient-90" x1="-2111.91" y1="1415.4" x2="-2116.3" y2="1407.79"
            xlink:href="#linear-gradient" />
        <linearGradient id="linear-gradient-91" x1="-2108.02" y1="1426.03" x2="-2149.83" y2="1353.6"
            xlink:href="#linear-gradient" />
        <linearGradient id="linear-gradient-92" x1="-2143.22" y1="1329.2" x2="-2143.28" y2="1329.09"
            xlink:href="#linear-gradient" />
        <linearGradient id="linear-gradient-93" x1="-2084.03" y1="1402.51" x2="-2086.32"
            y2="1398.55" xlink:href="#linear-gradient" />
        <linearGradient id="linear-gradient-94" x1="-2080.6" y1="1432.43" x2="-2080.67" y2="1432.31"
            xlink:href="#linear-gradient" />
        <linearGradient id="linear-gradient-95" x1="-2079.3" y1="1428.28" x2="-2081.24" y2="1424.93"
            xlink:href="#linear-gradient" />
        <linearGradient id="linear-gradient-102" x1="-2126.85" y1="1406.52" x2="-2142.31"
            y2="1379.74" xlink:href="#linear-gradient" />
        <linearGradient id="linear-gradient-109" x1="-2107.35" y1="1425.3" x2="-2148.82"
            y2="1353.48" xlink:href="#linear-gradient" />
        <linearGradient id="linear-gradient-110" x1="-2123.76" y1="1338.81" x2="-2124.74"
            y2="1337.12" xlink:href="#linear-gradient" />
        <linearGradient id="linear-gradient-112" x1="-2077.66" y1="1429.65" x2="-2080.59"
            y2="1424.56" xlink:href="#linear-gradient" />
        <linearGradient id="linear-gradient-113" x1="-2158.31" y1="1362.57" x2="-2158.07"
            y2="1362.15" xlink:href="#linear-gradient-37" />
        <linearGradient id="linear-gradient-114" x1="-2154.63" y1="1362.82" x2="-2153.8"
            y2="1361.38" xlink:href="#linear-gradient-37" />
        <linearGradient id="linear-gradient-115" x1="-2157.67" y1="1392.49" x2="-2154.15"
            y2="1386.41" xlink:href="#linear-gradient-37" />
        <linearGradient id="linear-gradient-116" x1="-2149.77" y1="1408.83" x2="-2146.26"
            y2="1402.75" xlink:href="#linear-gradient-37" />
        <linearGradient id="linear-gradient-117" x1="-2149.1" y1="1369.78" x2="-2145.69"
            y2="1363.87" xlink:href="#linear-gradient-37" />
        <linearGradient id="linear-gradient-118" x1="-2135.61" y1="1372.32" x2="-2134.27"
            y2="1370.01" xlink:href="#linear-gradient-37" />
        <linearGradient id="linear-gradient-119" x1="-2123.72" y1="1382.9" x2="-2123.16"
            y2="1381.95" xlink:href="#linear-gradient-37" />
        <linearGradient id="linear-gradient-120" x1="-2122.22" y1="1385.42" x2="-2121.5"
            y2="1384.18" xlink:href="#linear-gradient-37" />
        <linearGradient id="linear-gradient-121" x1="-2169.61" y1="1398.2" x2="-2168.47"
            y2="1396.23" xlink:href="#linear-gradient-37" />
        <linearGradient id="linear-gradient-122" x1="-2162.17" y1="1364.26" x2="-2161.29"
            y2="1362.74" xlink:href="#linear-gradient-37" />
        <linearGradient id="linear-gradient-123" x1="-2158.96" y1="1362.73" x2="-2158.74"
            y2="1362.36" xlink:href="#linear-gradient-37" />
        <linearGradient id="linear-gradient-124" x1="-2139.47" y1="1431.12" x2="-2139.21"
            y2="1430.69" xlink:href="#linear-gradient-37" />
        <linearGradient id="linear-gradient-125" x1="-2141.72" y1="1403.3" x2="-2130.99"
            y2="1384.73" xlink:href="#linear-gradient-37" />
        <linearGradient id="linear-gradient-126" x1="-2117.95" y1="1393.64" x2="-2117.04"
            y2="1392.06" xlink:href="#linear-gradient-37" />
        <linearGradient id="linear-gradient-127" x1="-2116.8" y1="1398.57" x2="-2114.96"
            y2="1395.37" xlink:href="#linear-gradient-37" />
        <linearGradient id="linear-gradient-128" x1="-2115.3" y1="1423.7" x2="-2114.37" y2="1422.09"
            xlink:href="#linear-gradient-37" />
        <linearGradient id="linear-gradient-129" x1="-2114.34" y1="1421.01" x2="-2113.49"
            y2="1419.55" xlink:href="#linear-gradient-37" />
        <linearGradient id="linear-gradient-130" x1="-2114" y1="1418.82" x2="-2112.69" y2="1416.54"
            xlink:href="#linear-gradient-37" />
        <linearGradient id="linear-gradient-131" x1="-2116.19" y1="1414.38" x2="-2112.66"
            y2="1408.27" xlink:href="#linear-gradient-37" />
        <linearGradient id="linear-gradient-132" x1="-2150.06" y1="1415.01" x2="-2124.66"
            y2="1371.02" xlink:href="#linear-gradient-37" />
        <linearGradient id="linear-gradient-133" x1="-2158.31" y1="1362.57" x2="-2158.07"
            y2="1362.15" xlink:href="#linear-gradient-57" />
        <linearGradient id="linear-gradient-134" x1="-2154.63" y1="1362.82" x2="-2153.8"
            y2="1361.38" xlink:href="#linear-gradient-57" />
        <linearGradient id="linear-gradient-135" x1="-2157.67" y1="1392.49" x2="-2154.15"
            y2="1386.41" xlink:href="#linear-gradient-57" />
        <linearGradient id="linear-gradient-136" x1="-2149.77" y1="1408.83" x2="-2146.26"
            y2="1402.75" xlink:href="#linear-gradient-57" />
        <linearGradient id="linear-gradient-137" x1="-2149.1" y1="1369.78" x2="-2145.69"
            y2="1363.87" xlink:href="#linear-gradient-57" />
        <linearGradient id="linear-gradient-138" x1="-2135.61" y1="1372.32" x2="-2134.27"
            y2="1370.01" xlink:href="#linear-gradient-57" />
        <linearGradient id="linear-gradient-139" x1="-2123.72" y1="1382.9" x2="-2123.16"
            y2="1381.95" xlink:href="#linear-gradient-57" />
        <linearGradient id="linear-gradient-140" x1="-2122.22" y1="1385.42" x2="-2121.5"
            y2="1384.18" xlink:href="#linear-gradient-57" />
        <linearGradient id="linear-gradient-141" x1="-2169.61" y1="1398.2" x2="-2168.47"
            y2="1396.23" xlink:href="#linear-gradient-57" />
        <linearGradient id="linear-gradient-142" x1="-2162.17" y1="1364.26" x2="-2161.29"
            y2="1362.74" xlink:href="#linear-gradient-57" />
        <linearGradient id="linear-gradient-143" x1="-2158.96" y1="1362.73" x2="-2158.74"
            y2="1362.36" xlink:href="#linear-gradient-57" />
        <linearGradient id="linear-gradient-144" x1="-2139.47" y1="1431.12" x2="-2139.21"
            y2="1430.69" xlink:href="#linear-gradient-57" />
        <linearGradient id="linear-gradient-145" x1="-2141.72" y1="1403.3" x2="-2130.99"
            y2="1384.73" xlink:href="#linear-gradient-57" />
        <linearGradient id="linear-gradient-146" x1="-2117.95" y1="1393.64" x2="-2117.04"
            y2="1392.06" xlink:href="#linear-gradient-57" />
        <linearGradient id="linear-gradient-147" x1="-2116.8" y1="1398.57" x2="-2114.96"
            y2="1395.37" xlink:href="#linear-gradient-57" />
        <linearGradient id="linear-gradient-148" x1="-2115.3" y1="1423.7" x2="-2114.37" y2="1422.09"
            xlink:href="#linear-gradient-57" />
        <linearGradient id="linear-gradient-149" x1="-2114.34" y1="1421.01" x2="-2113.49"
            y2="1419.55" xlink:href="#linear-gradient-57" />
        <linearGradient id="linear-gradient-150" x1="-2114" y1="1418.82" x2="-2112.69" y2="1416.54"
            xlink:href="#linear-gradient-57" />
        <linearGradient id="linear-gradient-151" x1="-2116.19" y1="1414.38" x2="-2112.66"
            y2="1408.27" xlink:href="#linear-gradient-57" />
        <linearGradient id="linear-gradient-152" x1="-2150.06" y1="1415.01" x2="-2124.66"
            y2="1371.02" xlink:href="#linear-gradient-57" />
    </defs>
    <g class="cls-1">
        <g id="Capa_1" data-name="Capa 1">
            <path class="cls-14"
                d="M996.43,680c-1.14-8.58-10.73-14.76-23-19.37L793.51,575.65,741.63,562.9,609.86,503.19l-91-43.43a25.22,25.22,0,0,0-9.93-2.32l-.31-.14.23.13a25.12,25.12,0,0,0-12.54,2.73L92.56,670.48c-.42.22-.84.41-1.25.65l-4,2.09.58.32c-8.91,7.12-15.51,20.16-15.51,35V975.4c0,12.48,4.91,23.1,12.95,28L323,1148.93a6.29,6.29,0,0,0,9.28-3.45,11.3,11.3,0,0,0,16.27,5.1l70.08-43.36,82.24-50.83L996,750.21S999.06,699.66,996.43,680ZM727.27,584.09c-1.28.5-2.49,1.17-3.74,1.76l3.32-2Z" />
            <path class="cls-3"
                d="M506.33,1024.06a107.7,107.7,0,0,1-5.43,32.33l-82.24,50.83c-3.6-6.5-5.65-15.25-5.65-25.91,0-34.31,21.11-74.9,47-90.5C485.65,975.28,506.33,990.25,506.33,1024.06Z" />
            <path class="cls-3"
                d="M929.94,762.08a107.46,107.46,0,0,1-5.44,32.33l-82.24,50.82c-3.6-6.49-5.64-15.25-5.64-25.9,0-34.31,21.1-74.9,47-90.5C909.25,713.3,929.94,728.26,929.94,762.08Z" />
            <path class="cls-4"
                d="M484.57,1022.26c.1.12.25.15.35.26l.09-.22A1.13,1.13,0,0,0,484.57,1022.26Z" />
            <path class="cls-5" d="M483.78,1022.3c.29,0,.5,0,.72,0l-.09,0Z" />
            <path class="cls-6"
                d="M478.53,1023.35a20.75,20.75,0,0,1,3.34-.85,4,4,0,0,0-.84.11l-.27.06c-.48.1-.88.26-1.3.34C479.21,1023.14,478.86,1023.21,478.53,1023.35Z" />
            <path class="cls-7"
                d="M473.51,1033.76c1.67,0,3.53-2.1,4.19-4.72.52-2.27-.12-4.28-1.53-4.72l-.07,0a14.75,14.75,0,0,0-2.06,1c-.5.31-1,.62-1.56,1a7.48,7.48,0,0,0-1.05,2.5C470.79,1031.58,471.76,1033.73,473.51,1033.76Z" />
            <path class="cls-8"
                d="M460.42,1038.84a2.85,2.85,0,0,0,2.79-.73,7.44,7.44,0,0,0,2.33-5.81A57.12,57.12,0,0,0,460.42,1038.84Z" />
            <path class="cls-9"
                d="M460.25,1066.84c1.09,4.4,4,6.62,7.41,6.22l.29-.87c-2.16-.55-3.94-2.46-4.71-5.58-1.5-6.07,1.33-14.54,6.28-18.82,2.63-2.24,5.3-2.88,7.51-2.14l.29-.87c-2.66-2.26-6.5-2-10.2,1.23C461.65,1050.81,458.58,1060.07,460.25,1066.84Z" />
            <path class="cls-10"
                d="M454.27,1050.84a6.83,6.83,0,0,0,.49-.91,6.92,6.92,0,0,0,.5-1.52C454.88,1049.23,454.57,1050,454.27,1050.84Z" />
            <path class="cls-11"
                d="M453.25,1053.75c.33-1,.67-2,1-2.91-.37.88-.64,1.82-1,2.7A.23.23,0,0,0,453.25,1053.75Z" />
            <path class="cls-12"
                d="M451,1062.62c.19-1,.38-2,.56-3-.12.43-.16.84-.29,1.2C451.24,1061.43,451.09,1062,451,1062.62Z" />
            <path class="cls-13"
                d="M450.27,1068.36a7.41,7.41,0,0,0,1.12-3.67,4.37,4.37,0,0,0-.36-2.07c-.17.78-.28,1.54-.38,2.3a15.87,15.87,0,0,0-.23,2A12.14,12.14,0,0,0,450.27,1068.36Z" />
            <path class="cls-2"
                d="M454.89,1090.23a4.52,4.52,0,0,0,.6,1c.18.16.31.4.5.57A14.4,14.4,0,0,1,454.89,1090.23Z" />
            <path class="cls-15"
                d="M453.52,1087.9l.44.92a1.83,1.83,0,0,1,.43.58A12,12,0,0,1,453.52,1087.9Z" />
            <path class="cls-16"
                d="M452.28,1084.94c.21.56.42,1.12.62,1.62a5.73,5.73,0,0,0,.45,1C453,1086.67,452.65,1085.87,452.28,1084.94Z" />
            <path class="cls-17"
                d="M451.28,1081.79a22.36,22.36,0,0,0,1,3,5.07,5.07,0,0,0,1.33-1.36c1.52-2.07,1.87-5,.82-6.63-.91-1.35-2.49-1.28-4,.11l0,.06A39.4,39.4,0,0,0,451.28,1081.79Z" />
            <path class="cls-18"
                d="M447.46,1082.74c1.82,7.35,5.38,12.37,10.08,15a5.68,5.68,0,0,0,1.34.73l.18-.44a11.69,11.69,0,0,1-1.06-.79c-3.88-2.8-6.87-7.54-8.45-13.93a30.53,30.53,0,0,1-.76-4.27c-2.45-17.76,5.84-40.17,19.56-52,5.25-4.55,10.66-7,15.65-7.31a10,10,0,0,1,1.89,0l.06,0,.13-.36c-.75-.11-1.5-.22-2.24-.26-5.54-.17-11.63,2.14-17.66,7.32C451.32,1039.23,442.92,1064.42,447.46,1082.74Z" />
            <path class="cls-19" d="M461.57,993.15a6.78,6.78,0,0,1,1.14.23l-1-.32Z" />
            <path class="cls-20"
                d="M421.58,1078.25c-.11-1.6-.14-3.2-.11-4.82a12.52,12.52,0,0,0,0,2.29C421.46,1076.59,421.52,1077.45,421.58,1078.25Z" />
            <path class="cls-21" d="M423.55,1107.6l.12.18,1.24.34A6.6,6.6,0,0,1,423.55,1107.6Z" />
            <polygon class="cls-22"
                points="420.81 1103.55 421.05 1103.9 424.43 1100.9 420.81 1103.55" />
            <path class="cls-5" d="M483.78,1022.3c.29,0,.5,0,.72,0l-.09,0Z" />
            <path class="cls-6"
                d="M478.53,1023.35a20.75,20.75,0,0,1,3.34-.85,4,4,0,0,0-.84.11l-.27.06c-.48.1-.88.26-1.3.34C479.21,1023.14,478.86,1023.21,478.53,1023.35Z" />
            <path class="cls-7"
                d="M473.51,1033.76c1.67,0,3.53-2.1,4.19-4.72.52-2.27-.12-4.28-1.53-4.72l-.07,0a14.75,14.75,0,0,0-2.06,1c-.5.31-1,.62-1.56,1a7.48,7.48,0,0,0-1.05,2.5C470.79,1031.58,471.76,1033.73,473.51,1033.76Z" />
            <path class="cls-8"
                d="M460.42,1038.84a2.85,2.85,0,0,0,2.79-.73,7.44,7.44,0,0,0,2.33-5.81A57.12,57.12,0,0,0,460.42,1038.84Z" />
            <path class="cls-10"
                d="M454.27,1050.84a6.83,6.83,0,0,0,.49-.91,6.92,6.92,0,0,0,.5-1.52C454.88,1049.23,454.57,1050,454.27,1050.84Z" />
            <path class="cls-11"
                d="M453.25,1053.75c.33-1,.67-2,1-2.91-.37.88-.64,1.82-1,2.7A.23.23,0,0,0,453.25,1053.75Z" />
            <path class="cls-23"
                d="M460.25,1066.84c1.09,4.4,4,6.62,7.41,6.22a6.89,6.89,0,0,0,2.7-.78,6.92,6.92,0,0,1-2.41-.09c-2.16-.55-3.94-2.46-4.71-5.58-1.5-6.07,1.33-14.54,6.28-18.82,2.63-2.24,5.3-2.88,7.51-2.14a5.06,5.06,0,0,1,1.88,1.15,8.32,8.32,0,0,0-1.59-2c-2.66-2.26-6.5-2-10.2,1.23C461.65,1050.81,458.58,1060.07,460.25,1066.84Z" />
            <path class="cls-12"
                d="M451,1062.62c.19-1,.38-2,.56-3-.12.43-.16.84-.29,1.2C451.24,1061.43,451.09,1062,451,1062.62Z" />
            <path class="cls-13"
                d="M450.27,1068.36a7.41,7.41,0,0,0,1.12-3.67,4.37,4.37,0,0,0-.36-2.07c-.17.78-.28,1.54-.38,2.3a15.87,15.87,0,0,0-.23,2A12.14,12.14,0,0,0,450.27,1068.36Z" />
            <path class="cls-2"
                d="M454.89,1090.23a4.52,4.52,0,0,0,.6,1c.18.16.31.4.5.57A14.4,14.4,0,0,1,454.89,1090.23Z" />
            <path class="cls-15"
                d="M453.52,1087.9l.44.92a1.83,1.83,0,0,1,.43.58A12,12,0,0,1,453.52,1087.9Z" />
            <path class="cls-16"
                d="M452.28,1084.94c.21.56.42,1.12.62,1.62a5.73,5.73,0,0,0,.45,1C453,1086.67,452.65,1085.87,452.28,1084.94Z" />
            <path class="cls-17"
                d="M451.28,1081.79a22.36,22.36,0,0,0,1,3,5.07,5.07,0,0,0,1.33-1.36c1.52-2.07,1.87-5,.82-6.63-.91-1.35-2.49-1.28-4,.11l0,.06A39.4,39.4,0,0,0,451.28,1081.79Z" />
            <path class="cls-24"
                d="M447.46,1082.74c1.82,7.35,5.38,12.37,10.08,15a2.48,2.48,0,0,0,.46-.5c-3.88-2.8-6.87-7.54-8.45-13.93a30.53,30.53,0,0,1-.76-4.27c-2.45-17.76,5.84-40.17,19.56-52,5.25-4.55,10.66-7,15.65-7.31a2,2,0,0,0-.16-.63c-5.54-.17-11.63,2.14-17.66,7.32C451.32,1039.23,442.92,1064.42,447.46,1082.74Z" />
            <path class="cls-25"
                d="M444.92,1006.92c.44-.57.89-1.07,1.35-1.57l0-.06c-.28.33-.51.58-.73.83A5.75,5.75,0,0,0,444.92,1006.92Z" />
            <path class="cls-20"
                d="M421.58,1078.25c-.11-1.6-.14-3.2-.11-4.82a12.52,12.52,0,0,0,0,2.29C421.46,1076.59,421.52,1077.45,421.58,1078.25Z" />
            <path class="cls-26" d="M418.8,1105.05a1.4,1.4,0,0,0,.53.43l1.72-1.58,3.38-3-3.62,2.65Z" />
            <path class="cls-27" d="M483.78,1022.3c.29,0,.5,0,.72,0l-.09,0Z" />
            <path class="cls-28"
                d="M478.53,1023.35a20.75,20.75,0,0,1,3.34-.85,4,4,0,0,0-.84.11l-.27.06c-.48.1-.88.26-1.3.34C479.21,1023.14,478.86,1023.21,478.53,1023.35Z" />
            <path class="cls-29"
                d="M487.94,1053.74c1.83-.79,3.34-3.47,3.38-6s-1.48-3.92-3.31-3.13-3.29,3.39-3.31,5.95S486.11,1054.54,487.94,1053.74Z" />
            <path class="cls-30"
                d="M482,1071.42c1.44.84,3.5-.48,4.61-3s.83-5.15-.62-6.05-3.58.49-4.62,3S480.5,1070.52,482,1071.42Z" />
            <path class="cls-31"
                d="M473.51,1033.76c1.67,0,3.53-2.1,4.19-4.72.52-2.27-.12-4.28-1.53-4.72l-.07,0a14.75,14.75,0,0,0-2.06,1c-.5.31-1,.62-1.56,1a7.48,7.48,0,0,0-1.05,2.5C470.79,1031.58,471.76,1033.73,473.51,1033.76Z" />
            <path class="cls-32"
                d="M460.42,1038.84a2.85,2.85,0,0,0,2.79-.73,7.44,7.44,0,0,0,2.33-5.81A57.12,57.12,0,0,0,460.42,1038.84Z" />
            <path class="cls-33"
                d="M454.27,1050.84a6.83,6.83,0,0,0,.49-.91,6.92,6.92,0,0,0,.5-1.52C454.88,1049.23,454.57,1050,454.27,1050.84Z" />
            <path class="cls-34"
                d="M453.25,1053.75c.33-1,.67-2,1-2.91-.37.88-.64,1.82-1,2.7A.23.23,0,0,0,453.25,1053.75Z" />
            <path class="cls-35"
                d="M502.6,1052.7c-.05,1-.17,1.92-.3,2.89a28.88,28.88,0,0,0,.43-3.52A2.08,2.08,0,0,0,502.6,1052.7Z" />
            <path class="cls-36"
                d="M487.82,1022.51a4.39,4.39,0,0,0-1.05-.11,6.48,6.48,0,0,1,1.69.38l.08.05a.69.69,0,0,1,.36,0c-.23-.09-.46-.11-.69-.19a.32.32,0,0,1-.16,0,.22.22,0,0,1-.15,0C487.83,1022.57,487.83,1022.57,487.82,1022.51Z" />
            <path class="cls-37" d="M485,1022.3a1.13,1.13,0,0,0-.44,0c.1.12.25.15.35.26Z" />
            <path class="cls-38"
                d="M479.6,1094.38a27.46,27.46,0,0,0,3-2.13,17,17,0,0,1-1.54,1.07C480.59,1093.69,480.1,1094.07,479.6,1094.38Z" />
            <path class="cls-39"
                d="M460.25,1066.84c1.09,4.4,4,6.62,7.41,6.22a6.89,6.89,0,0,0,2.7-.78,6.92,6.92,0,0,1-2.41-.09c-2.16-.55-3.94-2.46-4.71-5.58-1.5-6.07,1.33-14.54,6.28-18.82,2.63-2.24,5.3-2.88,7.51-2.14a5.06,5.06,0,0,1,1.88,1.15,8.32,8.32,0,0,0-1.59-2c-2.66-2.26-6.5-2-10.2,1.23C461.65,1050.81,458.58,1060.07,460.25,1066.84Z" />
            <path class="cls-40"
                d="M451,1062.62c.19-1,.38-2,.56-3-.12.43-.16.84-.29,1.2C451.24,1061.43,451.09,1062,451,1062.62Z" />
            <path class="cls-41"
                d="M450.27,1068.36a7.41,7.41,0,0,0,1.12-3.67,4.37,4.37,0,0,0-.36-2.07c-.17.78-.28,1.54-.38,2.3a15.87,15.87,0,0,0-.23,2A12.14,12.14,0,0,0,450.27,1068.36Z" />
            <path class="cls-42"
                d="M454.89,1090.23a4.52,4.52,0,0,0,.6,1c.18.16.31.4.5.57A14.4,14.4,0,0,1,454.89,1090.23Z" />
            <path class="cls-43"
                d="M453.52,1087.9l.44.92a1.83,1.83,0,0,1,.43.58A12,12,0,0,1,453.52,1087.9Z" />
            <path class="cls-44"
                d="M452.28,1084.94c.21.56.42,1.12.62,1.62a5.73,5.73,0,0,0,.45,1C453,1086.67,452.65,1085.87,452.28,1084.94Z" />
            <path class="cls-45"
                d="M451.28,1081.79a22.36,22.36,0,0,0,1,3,5.07,5.07,0,0,0,1.33-1.36c1.52-2.07,1.87-5,.82-6.63-.91-1.35-2.49-1.28-4,.11l0,.06A39.4,39.4,0,0,0,451.28,1081.79Z" />
            <path class="cls-46"
                d="M447.46,1082.74c1.82,7.35,5.38,12.37,10.08,15a5.68,5.68,0,0,0,1.34.73l.09,0a17.77,17.77,0,0,0,3.14,1,14.18,14.18,0,0,1-3.05-1.5,11.69,11.69,0,0,1-1.06-.79c-3.88-2.8-6.87-7.54-8.45-13.93a30.53,30.53,0,0,1-.76-4.27c-2.45-17.76,5.84-40.17,19.56-52,5.25-4.55,10.66-7,15.65-7.31a10,10,0,0,1,1.89,0l.06,0a12.9,12.9,0,0,1,2.84.34,11,11,0,0,0-2.71-.7c-.75-.11-1.5-.22-2.24-.26-5.54-.17-11.63,2.14-17.66,7.32C451.32,1039.23,442.92,1064.42,447.46,1082.74Z" />
            <path class="cls-3"
                d="M419.33,1105.48a19.86,19.86,0,0,0,4.22,2.12,6.6,6.6,0,0,0,1.36.52l27.28,7.76a2.64,2.64,0,0,0,.69.19c9.23,2.74,20.37-.24,31.16-9.6,21.43-18.48,33.52-54.81,27-81.11-2-8.11-5.57-14.34-10.16-18.54a23.13,23.13,0,0,0-8.8-5.12L464.74,994a2.82,2.82,0,0,0-.78-.23c-.4-.12-.86-.22-1.25-.34a6.78,6.78,0,0,0-1.14-.23,20.7,20.7,0,0,0-2.17-.28c-1.41,1-2.87,2.16-4.3,3.41-.77.7-1.55,1.34-2.3,2.1-.47.44-.88.86-1.35,1.3-1.17,1.12-2.25,2.29-3.32,3.53a4.49,4.49,0,0,0-.63.67,1,1,0,0,0-.28.33c-.35.34-.69.75-1,1.08l0,.06c-.46.5-.91,1-1.35,1.57a5.77,5.77,0,0,1-.62.74c-.7,1-1.42,1.84-2.06,2.79l-.48.7a.07.07,0,0,0-.05.08,96.14,96.14,0,0,0-6.54,10.47c-.4.69-.8,1.45-1.14,2.13-1.78,3.33-3.25,6.74-4.66,10.13-.72,1.77-1.37,3.52-1.94,5.32a1.57,1.57,0,0,0-.16.51l0,.13-.05.08h-.07c0,.14-.09.22-.13.36-.38,1.09-.7,2.17-1,3.24-.16.51-.28.94-.39,1.36-.4,1.3-.73,2.58-1,3.85a2,2,0,0,0-.19.71,2.42,2.42,0,0,0-.2.65c0,.2-.13.36-.09.49a27.38,27.38,0,0,0-.63,2.75,23.56,23.56,0,0,0-.48,2.46c-.05.35-.13.63-.15.84-.35,1.82-.55,3.61-.76,5.4a3.79,3.79,0,0,0-.15,1.18c-.2,1.52-.33,3-.4,4.52a1.35,1.35,0,0,0,0,.48,18.83,18.83,0,0,0-.09,2.57,7.18,7.18,0,0,0-.06,1.22v.07a7.67,7.67,0,0,0,0,1.27c0,1.62,0,3.22.11,4.82a2.92,2.92,0,0,0,0,.6,71.55,71.55,0,0,0,1.88,12.57l2.07,8.37-1.1,1.11-3.38,3Zm28.13-22.74c-4.54-18.32,3.86-43.51,18.72-56.36,6-5.18,12.12-7.49,17.66-7.32.74,0,1.49.15,2.24.26a11,11,0,0,1,2.71.7c6.8,1.44,12.28,7.19,14.66,16.77,4.52,18.26-3.88,43.45-18.72,56.36-8,6.8-16.09,8.74-22.62,6.37a17.77,17.77,0,0,1-3.14-1l-.09,0a5.68,5.68,0,0,1-1.34-.73C452.84,1095.11,449.28,1090.09,447.46,1082.74Z" />
            <path class="cls-47" d="M483.78,1022.3c.29,0,.5,0,.72,0l-.09,0Z" />
            <path class="cls-48"
                d="M478.53,1023.35a20.75,20.75,0,0,1,3.34-.85,4,4,0,0,0-.84.11l-.27.06c-.48.1-.88.26-1.3.34C479.21,1023.14,478.86,1023.21,478.53,1023.35Z" />
            <path class="cls-49"
                d="M487.94,1053.74c1.83-.79,3.34-3.47,3.38-6s-1.48-3.92-3.31-3.13-3.29,3.39-3.31,5.95S486.11,1054.54,487.94,1053.74Z" />
            <path class="cls-50"
                d="M482,1071.42c1.44.84,3.5-.48,4.61-3s.83-5.15-.62-6.05-3.58.49-4.62,3S480.5,1070.52,482,1071.42Z" />
            <path class="cls-51"
                d="M473.51,1033.76c1.67,0,3.53-2.1,4.19-4.72.52-2.27-.12-4.28-1.53-4.72l-.07,0a14.75,14.75,0,0,0-2.06,1c-.5.31-1,.62-1.56,1a7.48,7.48,0,0,0-1.05,2.5C470.79,1031.58,471.76,1033.73,473.51,1033.76Z" />
            <path class="cls-52"
                d="M460.42,1038.84a2.85,2.85,0,0,0,2.79-.73,7.44,7.44,0,0,0,2.33-5.81A57.12,57.12,0,0,0,460.42,1038.84Z" />
            <path class="cls-53"
                d="M454.27,1050.84a6.83,6.83,0,0,0,.49-.91,6.92,6.92,0,0,0,.5-1.52C454.88,1049.23,454.57,1050,454.27,1050.84Z" />
            <path class="cls-54"
                d="M453.25,1053.75c.33-1,.67-2,1-2.91-.37.88-.64,1.82-1,2.7A.23.23,0,0,0,453.25,1053.75Z" />
            <path class="cls-55"
                d="M502.6,1052.7c-.05,1-.17,1.92-.3,2.89a28.88,28.88,0,0,0,.43-3.52A2.08,2.08,0,0,0,502.6,1052.7Z" />
            <path class="cls-56"
                d="M487.82,1022.51a4.39,4.39,0,0,0-1.05-.11,6.48,6.48,0,0,1,1.69.38l.08.05a.69.69,0,0,1,.36,0c-.23-.09-.46-.11-.69-.19a.32.32,0,0,1-.16,0,.22.22,0,0,1-.15,0C487.83,1022.57,487.83,1022.57,487.82,1022.51Z" />
            <path class="cls-57" d="M485,1022.3a1.13,1.13,0,0,0-.44,0c.1.12.25.15.35.26Z" />
            <path class="cls-58"
                d="M479.6,1094.38a27.46,27.46,0,0,0,3-2.13,17,17,0,0,1-1.54,1.07C480.59,1093.69,480.1,1094.07,479.6,1094.38Z" />
            <path class="cls-59"
                d="M460.25,1066.84c1.09,4.4,4,6.62,7.41,6.22a6.89,6.89,0,0,0,2.7-.78,6.92,6.92,0,0,1-2.41-.09c-2.16-.55-3.94-2.46-4.71-5.58-1.5-6.07,1.33-14.54,6.28-18.82,2.63-2.24,5.3-2.88,7.51-2.14a5.06,5.06,0,0,1,1.88,1.15,8.32,8.32,0,0,0-1.59-2c-2.66-2.26-6.5-2-10.2,1.23C461.65,1050.81,458.58,1060.07,460.25,1066.84Z" />
            <path class="cls-60"
                d="M451,1062.62c.19-1,.38-2,.56-3-.12.43-.16.84-.29,1.2C451.24,1061.43,451.09,1062,451,1062.62Z" />
            <path class="cls-61"
                d="M450.27,1068.36a7.41,7.41,0,0,0,1.12-3.67,4.37,4.37,0,0,0-.36-2.07c-.17.78-.28,1.54-.38,2.3a15.87,15.87,0,0,0-.23,2A12.14,12.14,0,0,0,450.27,1068.36Z" />
            <path class="cls-62"
                d="M454.89,1090.23a4.52,4.52,0,0,0,.6,1c.18.16.31.4.5.57A14.4,14.4,0,0,1,454.89,1090.23Z" />
            <path class="cls-63"
                d="M453.52,1087.9l.44.92a1.83,1.83,0,0,1,.43.58A12,12,0,0,1,453.52,1087.9Z" />
            <path class="cls-64"
                d="M452.28,1084.94c.21.56.42,1.12.62,1.62a5.73,5.73,0,0,0,.45,1C453,1086.67,452.65,1085.87,452.28,1084.94Z" />
            <path class="cls-65"
                d="M451.28,1081.79a22.36,22.36,0,0,0,1,3,5.07,5.07,0,0,0,1.33-1.36c1.52-2.07,1.87-5,.82-6.63-.91-1.35-2.49-1.28-4,.11l0,.06A39.4,39.4,0,0,0,451.28,1081.79Z" />
            <path class="cls-66"
                d="M447.46,1082.74c1.82,7.35,5.38,12.37,10.08,15a5.68,5.68,0,0,0,1.34.73l.09,0a17.77,17.77,0,0,0,3.14,1,14.18,14.18,0,0,1-3.05-1.5,11.69,11.69,0,0,1-1.06-.79c-3.88-2.8-6.87-7.54-8.45-13.93a30.53,30.53,0,0,1-.76-4.27c-2.45-17.76,5.84-40.17,19.56-52,5.25-4.55,10.66-7,15.65-7.31a10,10,0,0,1,1.89,0l.06,0a12.9,12.9,0,0,1,2.84.34,11,11,0,0,0-2.71-.7c-.75-.11-1.5-.22-2.24-.26-5.54-.17-11.63,2.14-17.66,7.32C451.32,1039.23,442.92,1064.42,447.46,1082.74Z" />
            <path class="cls-67"
                d="M487.94,1053.74c1.83-.79,3.34-3.47,3.38-6s-1.48-3.92-3.31-3.13-3.29,3.39-3.31,5.95S486.11,1054.54,487.94,1053.74Z" />
            <path class="cls-67"
                d="M482,1071.42c1.44.84,3.5-.48,4.61-3s.83-5.15-.62-6.05-3.58.49-4.62,3S480.5,1070.52,482,1071.42Z" />
            <path class="cls-67"
                d="M473.51,1033.76c1.67,0,3.53-2.1,4.19-4.72.52-2.27-.12-4.28-1.53-4.72l-.07,0a14.75,14.75,0,0,0-2.06,1c-.5.31-1,.62-1.56,1a7.48,7.48,0,0,0-1.05,2.5C470.79,1031.58,471.76,1033.73,473.51,1033.76Z" />
            <path class="cls-67"
                d="M460.42,1038.84a2.85,2.85,0,0,0,2.79-.73,7.44,7.44,0,0,0,2.33-5.81A57.12,57.12,0,0,0,460.42,1038.84Z" />
            <path class="cls-67"
                d="M454.27,1050.84a6.83,6.83,0,0,0,.49-.91,6.92,6.92,0,0,0,.5-1.52C454.88,1049.23,454.57,1050,454.27,1050.84Z" />
            <path class="cls-67"
                d="M502.6,1052.7c-.05,1-.17,1.92-.3,2.89a28.88,28.88,0,0,0,.43-3.52A2.08,2.08,0,0,0,502.6,1052.7Z" />
            <path class="cls-67" d="M485,1022.3a1.13,1.13,0,0,0-.44,0c.1.12.25.15.35.26Z" />
            <path class="cls-67"
                d="M479.6,1094.38a27.46,27.46,0,0,0,3-2.13,17,17,0,0,1-1.54,1.07C480.59,1093.69,480.1,1094.07,479.6,1094.38Z" />
            <path class="cls-67"
                d="M460.25,1066.84c1.09,4.4,4,6.62,7.41,6.22a6.89,6.89,0,0,0,2.7-.78,6.92,6.92,0,0,1-2.41-.09c-2.16-.55-3.94-2.46-4.71-5.58-1.5-6.07,1.33-14.54,6.28-18.82,2.63-2.24,5.3-2.88,7.51-2.14a5.06,5.06,0,0,1,1.88,1.15,8.32,8.32,0,0,0-1.59-2c-2.66-2.26-6.5-2-10.2,1.23C461.65,1050.81,458.58,1060.07,460.25,1066.84Z" />
            <path class="cls-67"
                d="M450.27,1068.36a7.41,7.41,0,0,0,1.12-3.67,4.37,4.37,0,0,0-.36-2.07c-.17.78-.28,1.54-.38,2.3a15.87,15.87,0,0,0-.23,2A12.14,12.14,0,0,0,450.27,1068.36Z" />
            <path class="cls-67"
                d="M451.28,1081.79a22.36,22.36,0,0,0,1,3,5.07,5.07,0,0,0,1.33-1.36c1.52-2.07,1.87-5,.82-6.63-.91-1.35-2.49-1.28-4,.11l0,.06A39.4,39.4,0,0,0,451.28,1081.79Z" />
            <path class="cls-67"
                d="M447.46,1082.74c1.82,7.35,5.38,12.37,10.08,15a5.68,5.68,0,0,0,1.34.73l.09,0a17.77,17.77,0,0,0,3.14,1,14.18,14.18,0,0,1-3.05-1.5,11.69,11.69,0,0,1-1.06-.79c-3.88-2.8-6.87-7.54-8.45-13.93a30.53,30.53,0,0,1-.76-4.27c-2.45-17.76,5.84-40.17,19.56-52,5.25-4.55,10.66-7,15.65-7.31a10,10,0,0,1,1.89,0l.06,0a12.9,12.9,0,0,1,2.84.34,11,11,0,0,0-2.71-.7c-.75-.11-1.5-.22-2.24-.26-5.54-.17-11.63,2.14-17.66,7.32C451.32,1039.23,442.92,1064.42,447.46,1082.74Zm32.14,11.64a27.46,27.46,0,0,0,3-2.13,17,17,0,0,1-1.54,1.07C480.59,1093.69,480.1,1094.07,479.6,1094.38Zm9.3-71.56c-.23-.09-.46-.11-.69-.19l.25.15.08.05A.69.69,0,0,1,488.9,1022.82Z" />
            <path class="cls-68"
                d="M487.94,1053.74c1.83-.79,3.34-3.47,3.38-6s-1.48-3.92-3.31-3.13-3.29,3.39-3.31,5.95S486.11,1054.54,487.94,1053.74Z" />
            <path class="cls-68"
                d="M482,1071.42c1.44.84,3.5-.48,4.61-3s.83-5.15-.62-6.05-3.58.49-4.62,3S480.5,1070.52,482,1071.42Z" />
            <path class="cls-68"
                d="M473.51,1033.76c1.67,0,3.53-2.1,4.19-4.72.52-2.27-.12-4.28-1.53-4.72l-.07,0a14.75,14.75,0,0,0-2.06,1c-.5.31-1,.62-1.56,1a7.48,7.48,0,0,0-1.05,2.5C470.79,1031.58,471.76,1033.73,473.51,1033.76Z" />
            <path class="cls-68"
                d="M460.42,1038.84a2.85,2.85,0,0,0,2.79-.73,7.44,7.44,0,0,0,2.33-5.81A57.12,57.12,0,0,0,460.42,1038.84Z" />
            <path class="cls-68"
                d="M454.27,1050.84a6.83,6.83,0,0,0,.49-.91,6.92,6.92,0,0,0,.5-1.52C454.88,1049.23,454.57,1050,454.27,1050.84Z" />
            <path class="cls-68"
                d="M460.25,1066.84c1.09,4.4,4,6.62,7.41,6.22a6.89,6.89,0,0,0,2.7-.78,6.92,6.92,0,0,1-2.41-.09c-2.16-.55-3.94-2.46-4.71-5.58-1.5-6.07,1.33-14.54,6.28-18.82,2.63-2.24,5.3-2.88,7.51-2.14a5.06,5.06,0,0,1,1.88,1.15,8.32,8.32,0,0,0-1.59-2c-2.66-2.26-6.5-2-10.2,1.23C461.65,1050.81,458.58,1060.07,460.25,1066.84Z" />
            <path class="cls-68"
                d="M450.27,1068.36a7.41,7.41,0,0,0,1.12-3.67,4.37,4.37,0,0,0-.36-2.07c-.17.78-.28,1.54-.38,2.3a15.87,15.87,0,0,0-.23,2A12.14,12.14,0,0,0,450.27,1068.36Z" />
            <path class="cls-68"
                d="M451.28,1081.79a22.36,22.36,0,0,0,1,3,5.07,5.07,0,0,0,1.33-1.36c1.52-2.07,1.87-5,.82-6.63-.91-1.35-2.49-1.28-4,.11l0,.06A39.4,39.4,0,0,0,451.28,1081.79Z" />
            <path class="cls-69"
                d="M502.3,1055.59a28.88,28.88,0,0,0,.43-3.52,2.08,2.08,0,0,0-.13.63C502.55,1053.65,502.43,1054.62,502.3,1055.59Zm-22.7,38.79a27.46,27.46,0,0,0,3-2.13,17,17,0,0,1-1.54,1.07C480.59,1093.69,480.1,1094.07,479.6,1094.38Z" />
            <path class="cls-69"
                d="M449.55,1083.3c1.58,6.39,4.57,11.13,8.45,13.93a11.69,11.69,0,0,0,1.06.79,14.18,14.18,0,0,0,3.05,1.5c6.53,2.37,14.67.43,22.62-6.37,14.84-12.91,23.24-38.1,18.72-56.36-2.38-9.58-7.86-15.33-14.66-16.77a12.9,12.9,0,0,0-2.84-.34l-.06,0a10,10,0,0,0-1.89,0c-5,.33-10.4,2.76-15.65,7.31-13.72,11.86-22,34.27-19.56,52A30.53,30.53,0,0,0,449.55,1083.3Zm1.73-1.51a39.4,39.4,0,0,1-.84-4.86l0-.06c-.09-.66-.11-1.32-.14-2.06a19.83,19.83,0,0,1-.11-2.19l0-.06a1.7,1.7,0,0,1,0-.48,1.7,1.7,0,0,1,0-.48l0-.19c0-.27,0-.54,0-.81a19,19,0,0,1,.13-2.11l0-.13a12.14,12.14,0,0,1,.15-1.44,15.87,15.87,0,0,1,.23-2c.1-.76.21-1.52.38-2.3.06-.62.21-1.19.27-1.81.13-.36.17-.77.29-1.2.16-.77.39-1.63.63-2.42a1.45,1.45,0,0,1,.16-.5,24.39,24.39,0,0,1,.87-2.94.23.23,0,0,1,0-.21c.36-.88.63-1.82,1-2.7s.61-1.61,1-2.43c0-.06,0-.06,0-.14.4-.76.7-1.56,1.08-2.38s.82-1.66,1.28-2.43a51.31,51.31,0,0,1,2.77-4.62,57.12,57.12,0,0,1,5.12-6.54,17.82,17.82,0,0,1,1.63-1.62c.57-.6,1.11-1,1.71-1.58a18.91,18.91,0,0,1,1.81-1.46,32.32,32.32,0,0,1,3.35-2.26,14.75,14.75,0,0,1,2.06-1l.07,0c.07,0,.12-.09.19-.11l.85-.38a3.58,3.58,0,0,1,.79-.3c.21,0,.33-.14.53-.18s.68-.21.93-.34c.42-.08.82-.24,1.3-.34l.27-.06a4,4,0,0,1,.84-.11,4.63,4.63,0,0,1,.91-.13,4.43,4.43,0,0,1,1-.07l.63-.07.09,0,.07,0a1.13,1.13,0,0,1,.44,0h.07a8.42,8.42,0,0,1,1.32.05c.15,0,.22,0,.37.06a4.39,4.39,0,0,1,1.05.11c0,.06,0,.06.08,0a.22.22,0,0,0,.15,0,.32.32,0,0,0,.16,0c.23.08.46.1.69.19.07,0,.16,0,.23,0a.06.06,0,0,1,.08,0,.07.07,0,0,0,.09,0,.42.42,0,0,1,.23.09c.09.05.24.08.33.13l.16.1a3.5,3.5,0,0,1,.55.15.06.06,0,0,0,.08.05h.07a.94.94,0,0,1,.33.13l.17.1a8.6,8.6,0,0,1,1,.52l.51.3c.17.1.27.21.44.31a3.43,3.43,0,0,1,.8.57,5.74,5.74,0,0,1,1.17,1c.19.16.39.39.57.55s.39.39.59.61.5.57.72.86a.58.58,0,0,1,.2.22,2.35,2.35,0,0,1,.45.65,6.45,6.45,0,0,1,.8,1.17c.08,0,.1.12.13.24l0,.07a2.59,2.59,0,0,1,.36.59,1,1,0,0,1,.25.42c0,.06.1.11.11.18l0,.06c0,.06.12.18.13.24a9.94,9.94,0,0,1,.61,1.28.81.81,0,0,1,.16.37c0,.13.13.24.17.37v.06a3,3,0,0,1,.26.76.41.41,0,0,1,.13.24c.1.38.26.75.36,1.13.14.58.38,1.26.54,1.9a6.52,6.52,0,0,1,.21,1.17l.11.44c.24,1,.34,1.95.49,2.86s.2,2,.22,2.91a32.83,32.83,0,0,1,.09,3.61c0,.06,0,.2,0,.27,0,.6-.06,1.22-.06,1.82,0,.21,0,.42,0,.69a28.88,28.88,0,0,1-.43,3.52,4.07,4.07,0,0,1-.1.76,58.54,58.54,0,0,1-1.25,6.05c-.3,1.14-.61,2.21-1,3.3a20.83,20.83,0,0,1-.73,2.31c-.42,1.23-1,2.49-1.48,3.68l-.7,1.56a4.25,4.25,0,0,1-.38.82,2.33,2.33,0,0,1-.39.75c0,.07,0,.07,0,.14s-.09.23-.14.3c-.53,1.06-1.07,2.11-1.64,3-.15.24-.3.54-.46.77-.46.77-.95,1.42-1.43,2.12a40.57,40.57,0,0,1-2.85,4c-.51.58-.95,1.15-1.39,1.71a2.34,2.34,0,0,0-.41.42,29.7,29.7,0,0,1-2.32,2.31l-.16.24c-.42.36-.82.78-1.24,1.14s-1.08.9-1.57,1.27a27.46,27.46,0,0,1-3,2.13,32.07,32.07,0,0,1-3.08,1.59,15.54,15.54,0,0,1-2.31.9,4.07,4.07,0,0,1-.74.23,13.05,13.05,0,0,1-3.1.66,6.57,6.57,0,0,1-1.13.1,17.2,17.2,0,0,1-2,0,14.73,14.73,0,0,1-1.57-.21,4.41,4.41,0,0,1-1.07-.24c-.07,0-.09-.05-.16,0a.63.63,0,0,1-.31-.07,4.59,4.59,0,0,1-.86-.29l-.07,0a.07.07,0,0,0-.09,0c-.15,0-.24-.09-.39-.12a7.38,7.38,0,0,1-1.22-.55c-.51-.29-.91-.47-1.44-.83H460v-.06a.08.08,0,0,1-.09-.05c-.35-.26-.69-.46-1-.72l-1.11-1c0-.07-.09-.05-.1-.11-.31-.34-.59-.62-.89-1a6.24,6.24,0,0,1-.72-.85c-.19-.17-.32-.41-.5-.57a4.52,4.52,0,0,1-.6-1c-.32-.4-.58-.88-.93-1.41l-.44-.92a.91.91,0,0,1-.17-.36,5.73,5.73,0,0,1-.45-1c-.2-.5-.41-1.06-.62-1.62l0-.19A22.36,22.36,0,0,1,451.28,1081.79Z" />
            <path class="cls-67"
                d="M460,1095.46c.53.36.93.54,1.44.83a7.38,7.38,0,0,0,1.22.55c.15,0,.24.08.39.12a.07.07,0,0,1,.09,0l.07,0a4.59,4.59,0,0,0,.86.29.63.63,0,0,0,.31.07c.07,0,.09.05.16,0a4.41,4.41,0,0,0,1.07.24,14.73,14.73,0,0,0,1.57.21,17.2,17.2,0,0,0,2,0,6.57,6.57,0,0,0,1.13-.1,13.05,13.05,0,0,0,3.1-.66,4.07,4.07,0,0,0,.74-.23,15.54,15.54,0,0,0,2.31-.9,32.07,32.07,0,0,0,3.08-1.59c.5-.31,1-.69,1.48-1.06a17,17,0,0,0,1.54-1.07c.49-.37,1-.82,1.57-1.27s.82-.78,1.24-1.14l.16-.24a29.7,29.7,0,0,0,2.32-2.31,2.34,2.34,0,0,1,.41-.42c.44-.56.88-1.13,1.39-1.71a40.57,40.57,0,0,0,2.85-4c.48-.7,1-1.35,1.43-2.12.16-.23.31-.53.46-.77.55-1,1.11-2,1.64-3,.05-.07.09-.22.14-.3s.06-.07,0-.14a2.33,2.33,0,0,0,.39-.75,4.25,4.25,0,0,0,.38-.82l.7-1.56c.5-1.19,1.06-2.45,1.48-3.68a20.83,20.83,0,0,0,.73-2.31c.39-1.09.7-2.16,1-3.3a58.54,58.54,0,0,0,1.25-6.05,4.07,4.07,0,0,0,.1-.76c.13-1,.25-1.94.3-2.89a2.08,2.08,0,0,1,.13-.63c0-.27,0-.48,0-.69,0-.6.06-1.22.06-1.82,0-.07,0-.21,0-.27a32.83,32.83,0,0,0-.09-3.61c0-.94-.12-1.93-.22-2.91s-.25-1.9-.49-2.86l-.11-.44a6.52,6.52,0,0,0-.21-1.17c-.16-.64-.4-1.32-.54-1.9-.1-.38-.26-.75-.36-1.13a.41.41,0,0,0-.13-.24,3,3,0,0,0-.26-.76v-.06c0-.13-.14-.24-.17-.37a.81.81,0,0,0-.16-.37,9.94,9.94,0,0,0-.61-1.28c0-.06-.11-.18-.13-.24l0-.06c0-.07-.1-.12-.11-.18a1,1,0,0,0-.25-.42,2.59,2.59,0,0,0-.36-.59l0-.07c0-.12,0-.19-.13-.24a7.76,7.76,0,0,0-.8-1.17,2.35,2.35,0,0,0-.45-.65.58.58,0,0,0-.2-.22c-.22-.29-.5-.57-.72-.86s-.38-.39-.59-.61-.38-.39-.57-.55a5.74,5.74,0,0,0-1.17-1,3.22,3.22,0,0,0-.8-.57c-.17-.1-.27-.21-.44-.31l-.51-.3a8.6,8.6,0,0,0-1-.52l-.17-.1a.94.94,0,0,0-.33-.13h-.07a.06.06,0,0,1-.08-.05,3.5,3.5,0,0,0-.55-.15l-.16-.1c-.09,0-.24-.08-.33-.13a.42.42,0,0,0-.23-.09.07.07,0,0,1-.09,0,.06.06,0,0,0-.08,0c-.07,0-.16,0-.23,0a.69.69,0,0,0-.36,0l-.08-.05a6.48,6.48,0,0,0-1.69-.38c-.15,0-.22,0-.37-.06a8.42,8.42,0,0,0-1.32-.05H485l-.09.22c3.83,2.61,6.76,7.1,8.3,13.36,4.24,17.11-3.63,40.63-17.52,52.67C470.38,1093.11,464.94,1095.42,460,1095.46Z" />
            <path class="cls-68"
                d="M452.23,1084.75l0,.19c.37.93.72,1.73,1.07,2.6a.91.91,0,0,0,.17.36,12,12,0,0,0,.87,1.5,3.73,3.73,0,0,0,.5.83,14.4,14.4,0,0,0,1.1,1.52,6.24,6.24,0,0,0,.72.85c.3.34.58.62.89,1,0,.06.08,0,.1.11l1.11,1c.35.26.69.46,1,.72a.08.08,0,0,0,.09.05v.06H460c4.92,0,10.36-2.35,15.68-6.91,13.89-12,21.76-35.56,17.52-52.67-1.54-6.26-4.47-10.75-8.3-13.36-.1-.11-.25-.14-.35-.26l-.07,0c-.22,0-.43,0-.72,0a4.43,4.43,0,0,0-1,.07,4.63,4.63,0,0,0-.91.13,20.75,20.75,0,0,0-3.34.85c-.2,0-.32.13-.53.18a3.58,3.58,0,0,0-.79.3l-.85.38c-.07,0-.12.1-.19.11,1.41.44,2.05,2.45,1.53,4.72-.66,2.62-2.52,4.77-4.19,4.72s-2.72-2.18-2.08-4.87a7.48,7.48,0,0,1,1.05-2.5c-.56.38-1.18.79-1.79,1.25a18.91,18.91,0,0,0-1.81,1.46c-.6.53-1.14,1-1.71,1.58a17.82,17.82,0,0,0-1.63,1.62,7.44,7.44,0,0,1-2.33,5.81,2.85,2.85,0,0,1-2.79.73,51.31,51.31,0,0,0-2.77,4.62c-.46.77-.83,1.59-1.28,2.43s-.68,1.62-1.08,2.38c-.05.08-.05.08,0,.14a6.92,6.92,0,0,1-.5,1.52,6.83,6.83,0,0,1-.49.91c-.35,1-.69,1.89-1,2.91a30.34,30.34,0,0,0-.87,2.94,1.45,1.45,0,0,0-.16.5c-.24.79-.47,1.65-.63,2.42-.18,1.05-.37,2-.56,3a4.37,4.37,0,0,1,.36,2.07,7.41,7.41,0,0,1-1.12,3.67l0,.13a19,19,0,0,0-.13,2.11c0,.27,0,.54,0,.81l0,.19a1.7,1.7,0,0,0,0,.48,1.7,1.7,0,0,0,0,.48l0,.06a19.83,19.83,0,0,0,.11,2.19c0,.74.05,1.4.14,2.06,1.47-1.39,3.05-1.46,4-.11,1.05,1.59.7,4.56-.82,6.63A5.07,5.07,0,0,1,452.23,1084.75Zm32.47-34.15c0-2.56,1.55-5.17,3.31-5.95s3.34.63,3.31,3.13-1.55,5.17-3.38,6S484.6,1053.11,484.7,1050.6Zm-2.25-18.74a4,4,0,0,1,2.73-1.86,2,2,0,0,1,1.95.86c1,1.59.64,4.63-.88,6.71a6.05,6.05,0,0,1-1.2,1.26,2.24,2.24,0,0,1-3.41-.28C480.6,1037,481,1034,482.45,1031.86Zm-1.12,33.51c1-2.51,3.18-3.84,4.62-3s1.76,3.59.62,6.05-3.17,3.84-4.61,3S480.2,1067.83,481.33,1065.37Zm-10.65,18.4a7.18,7.18,0,0,1-.14-1.71,7.58,7.58,0,0,1,2.34-4.87,2.92,2.92,0,0,1,.82-.51c1.45-.85,2.85-.21,3.3,1.65a7.36,7.36,0,0,1-2.19,6.65C473.08,1086.49,471.21,1086,470.68,1083.77Zm-12.17-15.48c-2-7.92,1.66-18.78,8.11-24.32,4.18-3.58,8.56-4,11.58-1.8a10.77,10.77,0,0,1,3.59,6,19.66,19.66,0,0,1,.32,7.46c0,.06,0,.06,0,.14a28,28,0,0,1-3.52,10.63c0,.07,0,.15-.09.22a23.75,23.75,0,0,1-4.78,5.86,11.93,11.93,0,0,1-7,3.17C462.91,1075.82,459.74,1073.27,458.51,1068.29Zm-.13,17.9c.59-2.61,2.46-4.69,4.21-4.66a2.14,2.14,0,0,1,1.72,1.11,5.19,5.19,0,0,1,.34,3.7,6.78,6.78,0,0,1-3.09,4.49,3.28,3.28,0,0,1-1.1.23C458.71,1091,457.8,1088.81,458.38,1086.19Z" />
            <path class="cls-70"
                d="M458.51,1068.29c1.23,5,4.4,7.53,8.21,7.39a11.93,11.93,0,0,0,7-3.17,23.75,23.75,0,0,0,4.78-5.86c.05-.07.11-.15.09-.22a28,28,0,0,0,3.52-10.63c.06-.08.06-.08,0-.14a19.66,19.66,0,0,0-.32-7.46,10.77,10.77,0,0,0-3.59-6c-3-2.24-7.4-1.78-11.58,1.8C460.17,1049.51,456.55,1060.37,458.51,1068.29Zm1.74-1.45c-1.67-6.77,1.4-16,6.87-20.83,3.7-3.2,7.54-3.49,10.2-1.23a8.32,8.32,0,0,1,1.59,2,8.63,8.63,0,0,1,2.36,4.27,17.86,17.86,0,0,1,0,7.53,43.42,43.42,0,0,1-1.59,4.71c0,.12-.09.22-.13.36a19.31,19.31,0,0,1-4.54,6.21,9.72,9.72,0,0,1-4.63,2.4,6.89,6.89,0,0,1-2.7.78C464.21,1073.46,461.34,1071.24,460.25,1066.84Z" />
            <path class="cls-70"
                d="M460.25,1066.84c1.09,4.4,4,6.62,7.41,6.22a6.89,6.89,0,0,0,2.7-.78,6.92,6.92,0,0,1-2.41-.09c-2.16-.55-3.94-2.46-4.71-5.58-1.5-6.07,1.33-14.54,6.28-18.82,2.63-2.24,5.3-2.88,7.51-2.14a5.06,5.06,0,0,1,1.88,1.15,8.32,8.32,0,0,0-1.59-2c-2.66-2.26-6.5-2-10.2,1.23C461.65,1050.81,458.58,1060.07,460.25,1066.84Z" />
            <path class="cls-67"
                d="M460.25,1066.84c1.09,4.4,4,6.62,7.41,6.22a6.89,6.89,0,0,0,2.7-.78,6.92,6.92,0,0,1-2.41-.09c-2.16-.55-3.94-2.46-4.71-5.58-1.5-6.07,1.33-14.54,6.28-18.82,2.63-2.24,5.3-2.88,7.51-2.14a5.06,5.06,0,0,1,1.88,1.15,8.32,8.32,0,0,0-1.59-2c-2.66-2.26-6.5-2-10.2,1.23C461.65,1050.81,458.58,1060.07,460.25,1066.84Z" />
            <path class="cls-69"
                d="M463.24,1066.61c.77,3.12,2.55,5,4.71,5.58a6.92,6.92,0,0,0,2.41.09,9.72,9.72,0,0,0,4.63-2.4,19.31,19.31,0,0,0,4.54-6.21c0-.14.16-.24.13-.36a43.42,43.42,0,0,0,1.59-4.71,17.86,17.86,0,0,0,0-7.53,8.63,8.63,0,0,0-2.36-4.27,5.06,5.06,0,0,0-1.88-1.15c-2.21-.74-4.88-.1-7.51,2.14C464.57,1052.07,461.74,1060.54,463.24,1066.61Z" />
            <path class="cls-70"
                d="M460.42,1038.84a2.85,2.85,0,0,0,2.79-.73,7.44,7.44,0,0,0,2.33-5.81A57.12,57.12,0,0,0,460.42,1038.84Z" />
            <path class="cls-70"
                d="M454.27,1050.84a6.83,6.83,0,0,0,.49-.91,6.92,6.92,0,0,0,.5-1.52C454.88,1049.23,454.57,1050,454.27,1050.84Z" />
            <path class="cls-70"
                d="M450.27,1068.36a7.41,7.41,0,0,0,1.12-3.67,4.37,4.37,0,0,0-.36-2.07c-.17.78-.28,1.54-.38,2.3a15.87,15.87,0,0,0-.23,2A12.14,12.14,0,0,0,450.27,1068.36Z" />
            <path class="cls-70"
                d="M451.28,1081.79a22.36,22.36,0,0,0,1,3,5.07,5.07,0,0,0,1.33-1.36c1.52-2.07,1.87-5,.82-6.63-.91-1.35-2.49-1.28-4,.11l0,.06A39.4,39.4,0,0,0,451.28,1081.79Z" />
            <path class="cls-70"
                d="M460.46,1091.06a3.28,3.28,0,0,0,1.1-.23,6.78,6.78,0,0,0,3.09-4.49,5.19,5.19,0,0,0-.34-3.7,2.14,2.14,0,0,0-1.72-1.11c-1.75,0-3.62,2-4.21,4.66S458.71,1091,460.46,1091.06Z" />
            <path class="cls-70"
                d="M470.68,1083.77c.53,2.18,2.4,2.72,4.13,1.21a7.36,7.36,0,0,0,2.19-6.65c-.45-1.86-1.85-2.5-3.3-1.65a2.92,2.92,0,0,0-.82.51,7.58,7.58,0,0,0-2.34,4.87A7.18,7.18,0,0,0,470.68,1083.77Z" />
            <path class="cls-70"
                d="M482,1071.42c1.44.84,3.5-.48,4.61-3s.83-5.15-.62-6.05-3.58.49-4.62,3S480.5,1070.52,482,1071.42Z" />
            <path class="cls-70"
                d="M487.94,1053.74c1.83-.79,3.34-3.47,3.38-6s-1.48-3.92-3.31-3.13-3.29,3.39-3.31,5.95S486.11,1054.54,487.94,1053.74Z" />
            <path class="cls-70"
                d="M481.64,1038.55a2.24,2.24,0,0,0,3.41.28,6.05,6.05,0,0,0,1.2-1.26c1.52-2.08,1.92-5.12.88-6.71a2,2,0,0,0-1.95-.86,4,4,0,0,0-2.73,1.86C481,1034,480.6,1037,481.64,1038.55Z" />
            <path class="cls-70"
                d="M473.51,1033.76c1.67,0,3.53-2.1,4.19-4.72.52-2.27-.12-4.28-1.53-4.72l-.07,0a14.75,14.75,0,0,0-2.06,1c-.5.31-1,.62-1.56,1a7.48,7.48,0,0,0-1.05,2.5C470.79,1031.58,471.76,1033.73,473.51,1033.76Z" />
            <path class="cls-71"
                d="M909.56,761.06c.1.11.26.15.36.26l.09-.22A1.18,1.18,0,0,0,909.56,761.06Z" />
            <path class="cls-72" d="M908.77,761.09c.3,0,.5,0,.72,0l-.08-.05Z" />
            <path class="cls-73"
                d="M903.53,762.14a20.67,20.67,0,0,1,3.34-.84,3.34,3.34,0,0,0-.84.11l-.28.06c-.48.1-.88.25-1.29.34S903.86,762,903.53,762.14Z" />
            <path class="cls-74"
                d="M898.5,772.56c1.68.05,3.54-2.1,4.19-4.72.53-2.27-.12-4.28-1.53-4.72h-.07a16.63,16.63,0,0,0-2.05,1c-.51.31-1,.62-1.57,1a7.52,7.52,0,0,0-1,2.51C895.79,770.38,896.76,772.53,898.5,772.56Z" />
            <path class="cls-75"
                d="M885.42,777.64a2.85,2.85,0,0,0,2.79-.73,7.43,7.43,0,0,0,2.32-5.81A57.06,57.06,0,0,0,885.42,777.64Z" />
            <path class="cls-76"
                d="M885.25,805.64c1.09,4.4,4,6.61,7.41,6.22L893,811c-2.17-.55-3.94-2.46-4.72-5.59-1.5-6.06,1.33-14.53,6.28-18.81,2.63-2.24,5.3-2.88,7.51-2.14l.3-.87c-2.66-2.26-6.5-2-10.2,1.23C886.64,789.61,883.57,798.87,885.25,805.64Z" />
            <path class="cls-77"
                d="M879.26,789.64a7,7,0,0,0,.5-.92,6.8,6.8,0,0,0,.49-1.51C879.88,788,879.57,788.83,879.26,789.64Z" />
            <path class="cls-78"
                d="M878.24,792.54c.33-1,.68-2,1-2.9-.36.88-.63,1.81-1,2.7A.24.24,0,0,0,878.24,792.54Z" />
            <path class="cls-79"
                d="M876,801.42c.19-1,.38-2,.56-3-.11.43-.15.84-.28,1.2C876.23,800.23,876.09,800.8,876,801.42Z" />
            <path class="cls-80"
                d="M875.27,807.16a7.52,7.52,0,0,0,1.12-3.67,4.34,4.34,0,0,0-.37-2.07c-.17.78-.27,1.54-.37,2.3a15.66,15.66,0,0,0-.23,2A10.2,10.2,0,0,0,875.27,807.16Z" />
            <path class="cls-81"
                d="M879.89,829a4.93,4.93,0,0,0,.59,1c.19.16.32.4.51.56A12.19,12.19,0,0,1,879.89,829Z" />
            <path class="cls-82"
                d="M878.51,826.7l.45.92a2,2,0,0,1,.43.58A12.07,12.07,0,0,1,878.51,826.7Z" />
            <path class="cls-83"
                d="M877.27,823.74c.21.56.43,1.12.62,1.62a5.7,5.7,0,0,0,.46,1C878,825.47,877.65,824.67,877.27,823.74Z" />
            <path class="cls-84"
                d="M876.28,820.59a21,21,0,0,0,1,3,5.23,5.23,0,0,0,1.33-1.36c1.51-2.07,1.86-5,.82-6.63-.92-1.35-2.49-1.28-4,.1l0,.07A37.61,37.61,0,0,0,876.28,820.59Z" />
            <path class="cls-85"
                d="M872.45,821.54c1.82,7.34,5.38,12.37,10.09,15a5.13,5.13,0,0,0,1.34.72l.18-.44A10.19,10.19,0,0,1,883,836c-3.88-2.8-6.86-7.54-8.44-13.93a29.15,29.15,0,0,1-.77-4.27c-2.44-17.77,5.85-40.17,19.57-52,5.25-4.54,10.66-7,15.65-7.3a9.09,9.09,0,0,1,1.88,0H911l.13-.36c-.75-.11-1.5-.22-2.24-.27-5.54-.16-11.64,2.15-17.67,7.33C876.32,778,867.92,803.21,872.45,821.54Z" />
            <path class="cls-86" d="M886.57,732a7,7,0,0,1,1.14.23l-1-.32Z" />
            <path class="cls-87"
                d="M846.57,817c-.1-1.59-.14-3.19-.11-4.81a13.37,13.37,0,0,0,0,2.28C846.45,815.39,846.52,816.25,846.57,817Z" />
            <path class="cls-88" d="M848.55,846.4l.12.18,1.24.34A7,7,0,0,1,848.55,846.4Z" />
            <polygon class="cls-89" points="845.81 842.35 846.04 842.7 849.42 839.69 845.81 842.35" />
            <path class="cls-72" d="M908.77,761.09c.3,0,.5,0,.72,0l-.08-.05Z" />
            <path class="cls-73"
                d="M903.53,762.14a20.67,20.67,0,0,1,3.34-.84,3.34,3.34,0,0,0-.84.11l-.28.06c-.48.1-.88.25-1.29.34S903.86,762,903.53,762.14Z" />
            <path class="cls-74"
                d="M898.5,772.56c1.68.05,3.54-2.1,4.19-4.72.53-2.27-.12-4.28-1.53-4.72h-.07a16.63,16.63,0,0,0-2.05,1c-.51.31-1,.62-1.57,1a7.52,7.52,0,0,0-1,2.51C895.79,770.38,896.76,772.53,898.5,772.56Z" />
            <path class="cls-75"
                d="M885.42,777.64a2.85,2.85,0,0,0,2.79-.73,7.43,7.43,0,0,0,2.32-5.81A57.06,57.06,0,0,0,885.42,777.64Z" />
            <path class="cls-77"
                d="M879.26,789.64a7,7,0,0,0,.5-.92,6.8,6.8,0,0,0,.49-1.51C879.88,788,879.57,788.83,879.26,789.64Z" />
            <path class="cls-78"
                d="M878.24,792.54c.33-1,.68-2,1-2.9-.36.88-.63,1.81-1,2.7A.24.24,0,0,0,878.24,792.54Z" />
            <path class="cls-90"
                d="M885.25,805.64c1.09,4.4,4,6.61,7.41,6.22a7,7,0,0,0,2.7-.78A6.91,6.91,0,0,1,893,811c-2.17-.55-3.94-2.46-4.72-5.59-1.5-6.06,1.33-14.53,6.28-18.81,2.63-2.24,5.3-2.88,7.51-2.14a4.88,4.88,0,0,1,1.88,1.14,8.18,8.18,0,0,0-1.58-2c-2.66-2.26-6.5-2-10.2,1.23C886.64,789.61,883.57,798.87,885.25,805.64Z" />
            <path class="cls-79"
                d="M876,801.42c.19-1,.38-2,.56-3-.11.43-.15.84-.28,1.2C876.23,800.23,876.09,800.8,876,801.42Z" />
            <path class="cls-80"
                d="M875.27,807.16a7.52,7.52,0,0,0,1.12-3.67,4.34,4.34,0,0,0-.37-2.07c-.17.78-.27,1.54-.37,2.3a15.66,15.66,0,0,0-.23,2A10.2,10.2,0,0,0,875.27,807.16Z" />
            <path class="cls-81"
                d="M879.89,829a4.93,4.93,0,0,0,.59,1c.19.16.32.4.51.56A12.19,12.19,0,0,1,879.89,829Z" />
            <path class="cls-82"
                d="M878.51,826.7l.45.92a2,2,0,0,1,.43.58A12.07,12.07,0,0,1,878.51,826.7Z" />
            <path class="cls-83"
                d="M877.27,823.74c.21.56.43,1.12.62,1.62a5.7,5.7,0,0,0,.46,1C878,825.47,877.65,824.67,877.27,823.74Z" />
            <path class="cls-84"
                d="M876.28,820.59a21,21,0,0,0,1,3,5.23,5.23,0,0,0,1.33-1.36c1.51-2.07,1.86-5,.82-6.63-.92-1.35-2.49-1.28-4,.1l0,.07A37.61,37.61,0,0,0,876.28,820.59Z" />
            <path class="cls-91"
                d="M872.45,821.54c1.82,7.34,5.38,12.37,10.09,15a2.45,2.45,0,0,0,.45-.5c-3.88-2.8-6.86-7.54-8.44-13.93a29.15,29.15,0,0,1-.77-4.27c-2.44-17.77,5.85-40.17,19.57-52,5.25-4.54,10.66-7,15.65-7.3a2.08,2.08,0,0,0-.16-.64c-5.54-.16-11.64,2.15-17.67,7.33C876.32,778,867.92,803.21,872.45,821.54Z" />
            <path class="cls-92"
                d="M869.91,745.72c.44-.57.9-1.07,1.35-1.57v-.06c-.28.33-.51.58-.74.83A6.67,6.67,0,0,0,869.91,745.72Z" />
            <path class="cls-87"
                d="M846.57,817c-.1-1.59-.14-3.19-.11-4.81a13.37,13.37,0,0,0,0,2.28C846.45,815.39,846.52,816.25,846.57,817Z" />
            <path class="cls-93"
                d="M843.79,843.85a1.53,1.53,0,0,0,.54.43L846,842.7l3.38-3-3.61,2.66Z" />
            <path class="cls-94" d="M908.77,761.09c.3,0,.5,0,.72,0l-.08-.05Z" />
            <path class="cls-95"
                d="M903.53,762.14a20.67,20.67,0,0,1,3.34-.84,3.34,3.34,0,0,0-.84.11l-.28.06c-.48.1-.88.25-1.29.34S903.86,762,903.53,762.14Z" />
            <path class="cls-96"
                d="M912.94,792.54c1.83-.79,3.34-3.47,3.37-6s-1.48-3.92-3.31-3.13-3.29,3.39-3.3,5.95S911.1,793.33,912.94,792.54Z" />
            <path class="cls-97"
                d="M907,810.22c1.44.83,3.51-.48,4.62-3s.83-5.15-.63-6.05-3.57.49-4.61,3S905.5,809.32,907,810.22Z" />
            <path class="cls-98"
                d="M898.5,772.56c1.68.05,3.54-2.1,4.19-4.72.53-2.27-.12-4.28-1.53-4.72h-.07a16.63,16.63,0,0,0-2.05,1c-.51.31-1,.62-1.57,1a7.52,7.52,0,0,0-1,2.51C895.79,770.38,896.76,772.53,898.5,772.56Z" />
            <path class="cls-99"
                d="M885.42,777.64a2.85,2.85,0,0,0,2.79-.73,7.43,7.43,0,0,0,2.32-5.81A57.06,57.06,0,0,0,885.42,777.64Z" />
            <path class="cls-100"
                d="M879.26,789.64a7,7,0,0,0,.5-.92,6.8,6.8,0,0,0,.49-1.51C879.88,788,879.57,788.83,879.26,789.64Z" />
            <path class="cls-101"
                d="M878.24,792.54c.33-1,.68-2,1-2.9-.36.88-.63,1.81-1,2.7A.24.24,0,0,0,878.24,792.54Z" />
            <path class="cls-102"
                d="M927.6,791.5c-.06,1-.18,1.92-.3,2.89a31.28,31.28,0,0,0,.43-3.52A2.08,2.08,0,0,0,927.6,791.5Z" />
            <path class="cls-103"
                d="M912.81,761.31a4.86,4.86,0,0,0-1-.12,7.52,7.52,0,0,1,1.69.38l.08,0a1,1,0,0,1,.36,0c-.24-.08-.46-.1-.7-.18a.27.27,0,0,1-.15,0,.25.25,0,0,1-.16,0C912.83,761.37,912.83,761.37,912.81,761.31Z" />
            <path class="cls-104" d="M910,761.1a1.18,1.18,0,0,0-.45,0c.1.11.26.15.36.26Z" />
            <path class="cls-105"
                d="M904.6,833.17a29.35,29.35,0,0,0,3-2.12c-.49.37-1,.76-1.55,1.07A18,18,0,0,1,904.6,833.17Z" />
            <path class="cls-106"
                d="M885.25,805.64c1.09,4.4,4,6.61,7.41,6.22a7,7,0,0,0,2.7-.78A6.91,6.91,0,0,1,893,811c-2.17-.55-3.94-2.46-4.72-5.59-1.5-6.06,1.33-14.53,6.28-18.81,2.63-2.24,5.3-2.88,7.51-2.14a4.88,4.88,0,0,1,1.88,1.14,8.18,8.18,0,0,0-1.58-2c-2.66-2.26-6.5-2-10.2,1.23C886.64,789.61,883.57,798.87,885.25,805.64Z" />
            <path class="cls-107"
                d="M876,801.42c.19-1,.38-2,.56-3-.11.43-.15.84-.28,1.2C876.23,800.23,876.09,800.8,876,801.42Z" />
            <path class="cls-108"
                d="M875.27,807.16a7.52,7.52,0,0,0,1.12-3.67,4.34,4.34,0,0,0-.37-2.07c-.17.78-.27,1.54-.37,2.3a15.66,15.66,0,0,0-.23,2A10.2,10.2,0,0,0,875.27,807.16Z" />
            <path class="cls-109"
                d="M879.89,829a4.93,4.93,0,0,0,.59,1c.19.16.32.4.51.56A12.19,12.19,0,0,1,879.89,829Z" />
            <path class="cls-110"
                d="M878.51,826.7l.45.92a2,2,0,0,1,.43.58A12.07,12.07,0,0,1,878.51,826.7Z" />
            <path class="cls-111"
                d="M877.27,823.74c.21.56.43,1.12.62,1.62a5.7,5.7,0,0,0,.46,1C878,825.47,877.65,824.67,877.27,823.74Z" />
            <path class="cls-112"
                d="M876.28,820.59a21,21,0,0,0,1,3,5.23,5.23,0,0,0,1.33-1.36c1.51-2.07,1.86-5,.82-6.63-.92-1.35-2.49-1.28-4,.1l0,.07A37.61,37.61,0,0,0,876.28,820.59Z" />
            <path class="cls-113"
                d="M872.45,821.54c1.82,7.34,5.38,12.37,10.09,15a5.13,5.13,0,0,0,1.34.72l.08,0a16.37,16.37,0,0,0,3.15,1,13.31,13.31,0,0,1-3.05-1.5A10.19,10.19,0,0,1,883,836c-3.88-2.8-6.86-7.54-8.44-13.93a29.15,29.15,0,0,1-.77-4.27c-2.44-17.77,5.85-40.17,19.57-52,5.25-4.54,10.66-7,15.65-7.3a9.09,9.09,0,0,1,1.88,0H911a13.6,13.6,0,0,1,2.84.33,11.23,11.23,0,0,0-2.71-.69c-.75-.11-1.5-.22-2.24-.27-5.54-.16-11.64,2.15-17.67,7.33C876.32,778,867.92,803.21,872.45,821.54Z" />
            <path class="cls-3"
                d="M844.33,844.28a19.63,19.63,0,0,0,4.22,2.12,7,7,0,0,0,1.36.52l27.27,7.76a2.82,2.82,0,0,0,.7.19c9.22,2.74,20.36-.24,31.16-9.6,21.43-18.49,33.51-54.81,27-81.12-2-8.11-5.58-14.34-10.17-18.53a23.17,23.17,0,0,0-8.79-5.12l-27.34-7.75a2.51,2.51,0,0,0-.79-.24l-1.24-.33a7,7,0,0,0-1.14-.23,18.91,18.91,0,0,0-2.17-.28c-1.41,1-2.87,2.16-4.3,3.41-.77.7-1.55,1.33-2.31,2.1-.47.44-.87.86-1.34,1.3-1.17,1.12-2.26,2.29-3.33,3.53a5.11,5.11,0,0,0-.63.67,1.18,1.18,0,0,0-.28.33c-.35.34-.68.75-1,1.08v.06c-.45.5-.91,1-1.35,1.57a5.74,5.74,0,0,1-.61.73c-.71,1-1.43,1.85-2.06,2.8l-.48.7a.06.06,0,0,0,0,.08,94.62,94.62,0,0,0-6.54,10.47c-.41.69-.8,1.45-1.14,2.12-1.78,3.34-3.26,6.75-4.66,10.14-.72,1.77-1.37,3.52-1.94,5.32a1.61,1.61,0,0,0-.17.51l0,.13,0,.07-.07,0c0,.14-.09.22-.12.36-.39,1.09-.7,2.17-1,3.24-.17.51-.28.93-.39,1.36-.41,1.3-.74,2.58-1,3.85a1.81,1.81,0,0,0-.18.71,2.42,2.42,0,0,0-.2.65c0,.2-.13.36-.1.49a27.23,27.23,0,0,0-.62,2.75,21.22,21.22,0,0,0-.48,2.46c-.06.34-.13.63-.15.84-.35,1.82-.56,3.61-.77,5.4a3.5,3.5,0,0,0-.14,1.18c-.2,1.52-.34,3-.4,4.52a1.63,1.63,0,0,0,0,.47,19,19,0,0,0-.09,2.58,8.38,8.38,0,0,0-.06,1.22l0,.06a9.07,9.07,0,0,0,0,1.28c0,1.62,0,3.22.11,4.81a2.86,2.86,0,0,0,0,.61,70.62,70.62,0,0,0,1.88,12.57l2.07,8.36-1.11,1.11-3.38,3Zm28.12-22.74c-4.53-18.33,3.87-43.51,18.72-56.36,6-5.18,12.13-7.49,17.67-7.33.74,0,1.49.16,2.24.27a11.23,11.23,0,0,1,2.71.69c6.8,1.45,12.28,7.2,14.65,16.78C933,793.85,924.56,819,909.72,832c-8,6.8-16.08,8.74-22.61,6.36a16.37,16.37,0,0,1-3.15-1l-.08,0a5.13,5.13,0,0,1-1.34-.72C877.83,833.91,874.27,828.88,872.45,821.54Z" />
            <path class="cls-114" d="M908.77,761.09c.3,0,.5,0,.72,0l-.08-.05Z" />
            <path class="cls-115"
                d="M903.53,762.14a20.67,20.67,0,0,1,3.34-.84,3.34,3.34,0,0,0-.84.11l-.28.06c-.48.1-.88.25-1.29.34S903.86,762,903.53,762.14Z" />
            <path class="cls-116"
                d="M912.94,792.54c1.83-.79,3.34-3.47,3.37-6s-1.48-3.92-3.31-3.13-3.29,3.39-3.3,5.95S911.1,793.33,912.94,792.54Z" />
            <path class="cls-117"
                d="M907,810.22c1.44.83,3.51-.48,4.62-3s.83-5.15-.63-6.05-3.57.49-4.61,3S905.5,809.32,907,810.22Z" />
            <path class="cls-118"
                d="M898.5,772.56c1.68.05,3.54-2.1,4.19-4.72.53-2.27-.12-4.28-1.53-4.72h-.07a16.63,16.63,0,0,0-2.05,1c-.51.31-1,.62-1.57,1a7.52,7.52,0,0,0-1,2.51C895.79,770.38,896.76,772.53,898.5,772.56Z" />
            <path class="cls-119"
                d="M885.42,777.64a2.85,2.85,0,0,0,2.79-.73,7.43,7.43,0,0,0,2.32-5.81A57.06,57.06,0,0,0,885.42,777.64Z" />
            <path class="cls-120"
                d="M879.26,789.64a7,7,0,0,0,.5-.92,6.8,6.8,0,0,0,.49-1.51C879.88,788,879.57,788.83,879.26,789.64Z" />
            <path class="cls-121"
                d="M878.24,792.54c.33-1,.68-2,1-2.9-.36.88-.63,1.81-1,2.7A.24.24,0,0,0,878.24,792.54Z" />
            <path class="cls-122"
                d="M927.6,791.5c-.06,1-.18,1.92-.3,2.89a31.28,31.28,0,0,0,.43-3.52A2.08,2.08,0,0,0,927.6,791.5Z" />
            <path class="cls-123"
                d="M912.81,761.31a4.86,4.86,0,0,0-1-.12,7.52,7.52,0,0,1,1.69.38l.08,0a1,1,0,0,1,.36,0c-.24-.08-.46-.1-.7-.18a.27.27,0,0,1-.15,0,.25.25,0,0,1-.16,0C912.83,761.37,912.83,761.37,912.81,761.31Z" />
            <path class="cls-124" d="M910,761.1a1.18,1.18,0,0,0-.45,0c.1.11.26.15.36.26Z" />
            <path class="cls-125"
                d="M904.6,833.17a29.35,29.35,0,0,0,3-2.12c-.49.37-1,.76-1.55,1.07A18,18,0,0,1,904.6,833.17Z" />
            <path class="cls-126"
                d="M885.25,805.64c1.09,4.4,4,6.61,7.41,6.22a7,7,0,0,0,2.7-.78A6.91,6.91,0,0,1,893,811c-2.17-.55-3.94-2.46-4.72-5.59-1.5-6.06,1.33-14.53,6.28-18.81,2.63-2.24,5.3-2.88,7.51-2.14a4.88,4.88,0,0,1,1.88,1.14,8.18,8.18,0,0,0-1.58-2c-2.66-2.26-6.5-2-10.2,1.23C886.64,789.61,883.57,798.87,885.25,805.64Z" />
            <path class="cls-127"
                d="M876,801.42c.19-1,.38-2,.56-3-.11.43-.15.84-.28,1.2C876.23,800.23,876.09,800.8,876,801.42Z" />
            <path class="cls-128"
                d="M875.27,807.16a7.52,7.52,0,0,0,1.12-3.67,4.34,4.34,0,0,0-.37-2.07c-.17.78-.27,1.54-.37,2.3a15.66,15.66,0,0,0-.23,2A10.2,10.2,0,0,0,875.27,807.16Z" />
            <path class="cls-129"
                d="M879.89,829a4.93,4.93,0,0,0,.59,1c.19.16.32.4.51.56A12.19,12.19,0,0,1,879.89,829Z" />
            <path class="cls-130"
                d="M878.51,826.7l.45.92a2,2,0,0,1,.43.58A12.07,12.07,0,0,1,878.51,826.7Z" />
            <path class="cls-131"
                d="M877.27,823.74c.21.56.43,1.12.62,1.62a5.7,5.7,0,0,0,.46,1C878,825.47,877.65,824.67,877.27,823.74Z" />
            <path class="cls-132"
                d="M876.28,820.59a21,21,0,0,0,1,3,5.23,5.23,0,0,0,1.33-1.36c1.51-2.07,1.86-5,.82-6.63-.92-1.35-2.49-1.28-4,.1l0,.07A37.61,37.61,0,0,0,876.28,820.59Z" />
            <path class="cls-133"
                d="M872.45,821.54c1.82,7.34,5.38,12.37,10.09,15a5.13,5.13,0,0,0,1.34.72l.08,0a16.37,16.37,0,0,0,3.15,1,13.31,13.31,0,0,1-3.05-1.5A10.19,10.19,0,0,1,883,836c-3.88-2.8-6.86-7.54-8.44-13.93a29.15,29.15,0,0,1-.77-4.27c-2.44-17.77,5.85-40.17,19.57-52,5.25-4.54,10.66-7,15.65-7.3a9.09,9.09,0,0,1,1.88,0H911a13.6,13.6,0,0,1,2.84.33,11.23,11.23,0,0,0-2.71-.69c-.75-.11-1.5-.22-2.24-.27-5.54-.16-11.64,2.15-17.67,7.33C876.32,778,867.92,803.21,872.45,821.54Z" />
            <path class="cls-67"
                d="M912.94,792.54c1.83-.79,3.34-3.47,3.37-6s-1.48-3.92-3.31-3.13-3.29,3.39-3.3,5.95S911.1,793.33,912.94,792.54Z" />
            <path class="cls-67"
                d="M907,810.22c1.44.83,3.51-.48,4.62-3s.83-5.15-.63-6.05-3.57.49-4.61,3S905.5,809.32,907,810.22Z" />
            <path class="cls-67"
                d="M898.5,772.56c1.68.05,3.54-2.1,4.19-4.72.53-2.27-.12-4.28-1.53-4.72h-.07a16.63,16.63,0,0,0-2.05,1c-.51.31-1,.62-1.57,1a7.52,7.52,0,0,0-1,2.51C895.79,770.38,896.76,772.53,898.5,772.56Z" />
            <path class="cls-67"
                d="M885.42,777.64a2.85,2.85,0,0,0,2.79-.73,7.43,7.43,0,0,0,2.32-5.81A57.06,57.06,0,0,0,885.42,777.64Z" />
            <path class="cls-67"
                d="M879.26,789.64a7,7,0,0,0,.5-.92,6.8,6.8,0,0,0,.49-1.51C879.88,788,879.57,788.83,879.26,789.64Z" />
            <path class="cls-67"
                d="M927.6,791.5c-.06,1-.18,1.92-.3,2.89a31.28,31.28,0,0,0,.43-3.52A2.08,2.08,0,0,0,927.6,791.5Z" />
            <path class="cls-67" d="M910,761.1a1.18,1.18,0,0,0-.45,0c.1.11.26.15.36.26Z" />
            <path class="cls-67"
                d="M904.6,833.17a29.35,29.35,0,0,0,3-2.12c-.49.37-1,.76-1.55,1.07A18,18,0,0,1,904.6,833.17Z" />
            <path class="cls-67"
                d="M885.25,805.64c1.09,4.4,4,6.61,7.41,6.22a7,7,0,0,0,2.7-.78A6.91,6.91,0,0,1,893,811c-2.17-.55-3.94-2.46-4.72-5.59-1.5-6.06,1.33-14.53,6.28-18.81,2.63-2.24,5.3-2.88,7.51-2.14a4.88,4.88,0,0,1,1.88,1.14,8.18,8.18,0,0,0-1.58-2c-2.66-2.26-6.5-2-10.2,1.23C886.64,789.61,883.57,798.87,885.25,805.64Z" />
            <path class="cls-67"
                d="M875.27,807.16a7.52,7.52,0,0,0,1.12-3.67,4.34,4.34,0,0,0-.37-2.07c-.17.78-.27,1.54-.37,2.3a15.66,15.66,0,0,0-.23,2A10.2,10.2,0,0,0,875.27,807.16Z" />
            <path class="cls-67"
                d="M876.28,820.59a21,21,0,0,0,1,3,5.23,5.23,0,0,0,1.33-1.36c1.51-2.07,1.86-5,.82-6.63-.92-1.35-2.49-1.28-4,.1l0,.07A37.61,37.61,0,0,0,876.28,820.59Z" />
            <path class="cls-67"
                d="M872.45,821.54c1.82,7.34,5.38,12.37,10.09,15a5.13,5.13,0,0,0,1.34.72l.08,0a16.37,16.37,0,0,0,3.15,1,13.31,13.31,0,0,1-3.05-1.5A10.19,10.19,0,0,1,883,836c-3.88-2.8-6.86-7.54-8.44-13.93a29.15,29.15,0,0,1-.77-4.27c-2.44-17.77,5.85-40.17,19.57-52,5.25-4.54,10.66-7,15.65-7.3a9.09,9.09,0,0,1,1.88,0H911a13.6,13.6,0,0,1,2.84.33,11.23,11.23,0,0,0-2.71-.69c-.75-.11-1.5-.22-2.24-.27-5.54-.16-11.64,2.15-17.67,7.33C876.32,778,867.92,803.21,872.45,821.54Zm32.15,11.63a29.35,29.35,0,0,0,3-2.12c-.49.37-1,.76-1.55,1.07A18,18,0,0,1,904.6,833.17Zm9.3-71.56c-.24-.08-.46-.1-.7-.18l.26.14.08,0A1,1,0,0,1,913.9,761.61Z" />
            <path class="cls-68"
                d="M912.94,792.54c1.83-.79,3.34-3.47,3.37-6s-1.48-3.92-3.31-3.13-3.29,3.39-3.3,5.95S911.1,793.33,912.94,792.54Z" />
            <path class="cls-68"
                d="M907,810.22c1.44.83,3.51-.48,4.62-3s.83-5.15-.63-6.05-3.57.49-4.61,3S905.5,809.32,907,810.22Z" />
            <path class="cls-68"
                d="M898.5,772.56c1.68.05,3.54-2.1,4.19-4.72.53-2.27-.12-4.28-1.53-4.72h-.07a16.63,16.63,0,0,0-2.05,1c-.51.31-1,.62-1.57,1a7.52,7.52,0,0,0-1,2.51C895.79,770.38,896.76,772.53,898.5,772.56Z" />
            <path class="cls-68"
                d="M885.42,777.64a2.85,2.85,0,0,0,2.79-.73,7.43,7.43,0,0,0,2.32-5.81A57.06,57.06,0,0,0,885.42,777.64Z" />
            <path class="cls-68"
                d="M879.26,789.64a7,7,0,0,0,.5-.92,6.8,6.8,0,0,0,.49-1.51C879.88,788,879.57,788.83,879.26,789.64Z" />
            <path class="cls-68"
                d="M885.25,805.64c1.09,4.4,4,6.61,7.41,6.22a7,7,0,0,0,2.7-.78A6.91,6.91,0,0,1,893,811c-2.17-.55-3.94-2.46-4.72-5.59-1.5-6.06,1.33-14.53,6.28-18.81,2.63-2.24,5.3-2.88,7.51-2.14a4.88,4.88,0,0,1,1.88,1.14,8.18,8.18,0,0,0-1.58-2c-2.66-2.26-6.5-2-10.2,1.23C886.64,789.61,883.57,798.87,885.25,805.64Z" />
            <path class="cls-68"
                d="M875.27,807.16a7.52,7.52,0,0,0,1.12-3.67,4.34,4.34,0,0,0-.37-2.07c-.17.78-.27,1.54-.37,2.3a15.66,15.66,0,0,0-.23,2A10.2,10.2,0,0,0,875.27,807.16Z" />
            <path class="cls-68"
                d="M876.28,820.59a21,21,0,0,0,1,3,5.23,5.23,0,0,0,1.33-1.36c1.51-2.07,1.86-5,.82-6.63-.92-1.35-2.49-1.28-4,.1l0,.07A37.61,37.61,0,0,0,876.28,820.59Z" />
            <path class="cls-69"
                d="M927.3,794.39a31.28,31.28,0,0,0,.43-3.52,2.08,2.08,0,0,0-.13.63C927.54,792.45,927.42,793.42,927.3,794.39Zm-22.7,38.78a29.35,29.35,0,0,0,3-2.12c-.49.37-1,.76-1.55,1.07A18,18,0,0,1,904.6,833.17Z" />
            <path class="cls-69"
                d="M874.55,822.1c1.58,6.39,4.56,11.13,8.44,13.93a10.19,10.19,0,0,0,1.07.78,13.31,13.31,0,0,0,3.05,1.5c6.53,2.38,14.66.44,22.61-6.36,14.84-12.92,23.24-38.1,18.72-56.36-2.37-9.58-7.85-15.33-14.65-16.78a13.6,13.6,0,0,0-2.84-.33h-.07a9.09,9.09,0,0,0-1.88,0c-5,.33-10.4,2.76-15.65,7.3-13.72,11.87-22,34.27-19.57,52A29.15,29.15,0,0,0,874.55,822.1Zm1.73-1.51a37.61,37.61,0,0,1-.84-4.86l0-.07c-.09-.65-.11-1.32-.15-2s-.07-1.46-.11-2.19v-.07a21.52,21.52,0,0,0,.05-1l-.05-.19c0-.27,0-.54,0-.81.05-.68,0-1.42.13-2.11l0-.13a10.2,10.2,0,0,1,.15-1.44,15.66,15.66,0,0,1,.23-2c.1-.76.2-1.52.37-2.3.07-.62.21-1.19.28-1.81.13-.36.17-.77.28-1.2.17-.78.39-1.63.63-2.42a1.61,1.61,0,0,1,.17-.51,25.41,25.41,0,0,1,.86-2.94.24.24,0,0,1,0-.2c.37-.89.64-1.82,1-2.7s.62-1.61,1-2.43c0-.07,0-.07,0-.15.39-.75.7-1.56,1.08-2.38s.82-1.65,1.28-2.42a49.08,49.08,0,0,1,2.77-4.62,57.06,57.06,0,0,1,5.11-6.54,19.18,19.18,0,0,1,1.63-1.62c.58-.6,1.12-1.05,1.71-1.58a20.24,20.24,0,0,1,1.81-1.46,33.52,33.52,0,0,1,3.36-2.26,16.63,16.63,0,0,1,2.05-1h.07c.07,0,.12-.09.19-.11l.85-.38a3.46,3.46,0,0,1,.79-.3c.21-.05.33-.14.54-.19s.67-.21.93-.33.81-.24,1.29-.34l.28-.06a3.34,3.34,0,0,1,.84-.11,3.91,3.91,0,0,1,.91-.13,5,5,0,0,1,1-.08l.64-.06.08.05.07,0a1.18,1.18,0,0,1,.45,0h.06a8.37,8.37,0,0,1,1.32,0c.16,0,.22,0,.38.05a4.86,4.86,0,0,1,1,.12c0,.06,0,.06.08.05a.25.25,0,0,0,.16,0,.27.27,0,0,0,.15,0c.24.08.46.1.7.18.07,0,.15,0,.22,0a.08.08,0,0,1,.09,0,.06.06,0,0,0,.08.05.42.42,0,0,1,.24.09c.08,0,.24.08.32.13l.17.1a4.24,4.24,0,0,1,.55.15c0,.06.08,0,.08,0l.07,0a1.08,1.08,0,0,1,.32.14l.17.1a9.62,9.62,0,0,1,1,.52l.51.3c.17.1.27.21.44.31a3.38,3.38,0,0,1,.79.57,5.72,5.72,0,0,1,1.18,1c.18.16.39.38.57.55s.39.38.59.61.5.57.71.86a.54.54,0,0,1,.21.22,2.67,2.67,0,0,1,.45.65,6,6,0,0,1,.79,1.17c.09,0,.1.11.14.24v.06a2.56,2.56,0,0,1,.37.6,1,1,0,0,1,.24.42c0,.06.1.11.12.17l0,.07c0,.06.11.17.13.24a11.38,11.38,0,0,1,.6,1.28.78.78,0,0,1,.17.37c0,.13.13.24.16.37l0,.06a3.51,3.51,0,0,1,.26.75.57.57,0,0,1,.13.24c.09.39.26.76.35,1.14.14.57.39,1.26.54,1.9a6.59,6.59,0,0,1,.22,1.16l.11.45c.24,1,.34,1.95.49,2.85s.2,2,.21,2.92a35.43,35.43,0,0,1,.1,3.61,2.53,2.53,0,0,1,0,.27c0,.6-.06,1.22-.05,1.82,0,.21,0,.41,0,.69a31.28,31.28,0,0,1-.43,3.52,5.14,5.14,0,0,1-.1.76,58.59,58.59,0,0,1-1.26,6.05c-.3,1.13-.61,2.21-1,3.3-.19.71-.43,1.5-.73,2.31-.42,1.23-1,2.49-1.48,3.67L922,812a5.43,5.43,0,0,1-.38.82,2.38,2.38,0,0,1-.39.76c0,.06,0,.06,0,.14s-.09.22-.14.3c-.54,1.06-1.07,2.11-1.64,3-.16.24-.3.53-.46.77-.46.77-1,1.41-1.43,2.12a42.42,42.42,0,0,1-2.86,4c-.51.58-1,1.14-1.39,1.71a2,2,0,0,0-.4.42c-.74.83-1.56,1.61-2.32,2.31l-.16.24c-.42.36-.82.78-1.24,1.13s-1.08.91-1.57,1.28a29.35,29.35,0,0,1-3,2.12,32.25,32.25,0,0,1-3.08,1.6,15.66,15.66,0,0,1-2.32.9,3.18,3.18,0,0,1-.74.22,12.07,12.07,0,0,1-3.09.66,5.92,5.92,0,0,1-1.14.11,16.94,16.94,0,0,1-2,0,12.41,12.41,0,0,1-1.58-.2,4.52,4.52,0,0,1-1.07-.24c-.07,0-.08,0-.15,0a.63.63,0,0,1-.31-.07,5.54,5.54,0,0,1-.87-.29l-.07,0a.06.06,0,0,0-.08,0c-.15,0-.24-.09-.39-.12a6.69,6.69,0,0,1-1.22-.55c-.51-.29-.92-.48-1.44-.83H885l0-.06a.06.06,0,0,1-.08-.05c-.36-.26-.69-.46-1.05-.72l-1.11-1c0-.07-.08-.05-.1-.12-.3-.34-.59-.61-.89-1a6.88,6.88,0,0,1-.71-.86c-.19-.16-.32-.4-.51-.56a4.93,4.93,0,0,1-.59-1c-.32-.4-.59-.88-.93-1.41l-.45-.92a.76.76,0,0,1-.16-.37,5.7,5.7,0,0,1-.46-1c-.19-.5-.41-1.06-.62-1.62l0-.19A21,21,0,0,1,876.28,820.59Z" />
            <path class="cls-67"
                d="M885,834.26c.52.35.93.54,1.44.83a6.69,6.69,0,0,0,1.22.55c.15,0,.24.08.39.12a.06.06,0,0,1,.08,0l.07,0a5.54,5.54,0,0,0,.87.29.63.63,0,0,0,.31.07c.07,0,.08,0,.15,0a4.52,4.52,0,0,0,1.07.24,12.41,12.41,0,0,0,1.58.2,16.94,16.94,0,0,0,2,0,5.92,5.92,0,0,0,1.14-.11,12.07,12.07,0,0,0,3.09-.66,3.18,3.18,0,0,0,.74-.22,15.66,15.66,0,0,0,2.32-.9,32.25,32.25,0,0,0,3.08-1.6,18,18,0,0,0,1.47-1c.51-.31,1.06-.7,1.55-1.07s1-.82,1.57-1.28.82-.77,1.24-1.13l.16-.24c.76-.7,1.58-1.48,2.32-2.31a2,2,0,0,1,.4-.42c.44-.57.88-1.13,1.39-1.71a42.42,42.42,0,0,0,2.86-4c.47-.71,1-1.35,1.43-2.12.16-.24.3-.53.46-.77.55-1,1.1-2,1.64-3,0-.08.09-.22.14-.3s0-.08,0-.14a2.38,2.38,0,0,0,.39-.76A5.43,5.43,0,0,0,922,812l.7-1.56c.5-1.18,1.06-2.44,1.48-3.67.3-.81.54-1.6.73-2.31.38-1.09.69-2.17,1-3.3a58.59,58.59,0,0,0,1.26-6.05,5.14,5.14,0,0,0,.1-.76c.12-1,.24-1.94.3-2.89a2.08,2.08,0,0,1,.13-.63c0-.28,0-.48,0-.69,0-.6.06-1.22.05-1.82a2.53,2.53,0,0,0,0-.27,35.43,35.43,0,0,0-.1-3.61c0-.94-.11-1.93-.21-2.92s-.25-1.89-.49-2.85l-.11-.45a6.59,6.59,0,0,0-.22-1.16c-.15-.64-.4-1.33-.54-1.9-.09-.38-.26-.75-.35-1.14a.57.57,0,0,0-.13-.24,3.51,3.51,0,0,0-.26-.75l0-.06c0-.13-.13-.24-.16-.37a.78.78,0,0,0-.17-.37,11.38,11.38,0,0,0-.6-1.28c0-.07-.12-.18-.13-.24l0-.07c0-.06-.1-.11-.12-.17a1,1,0,0,0-.24-.42,2.56,2.56,0,0,0-.37-.6v-.06c0-.13-.05-.19-.14-.24a7.72,7.72,0,0,0-.79-1.17,2.67,2.67,0,0,0-.45-.65.54.54,0,0,0-.21-.22c-.21-.29-.5-.57-.71-.86s-.39-.39-.59-.61-.39-.39-.57-.55a5.72,5.72,0,0,0-1.18-1,2.77,2.77,0,0,0-.79-.57c-.17-.1-.27-.21-.44-.31l-.51-.3a9.62,9.62,0,0,0-1-.52l-.17-.1a1.08,1.08,0,0,0-.32-.14l-.07,0s-.07,0-.08,0a4.24,4.24,0,0,0-.55-.15l-.17-.1c-.08-.05-.24-.09-.32-.13a.42.42,0,0,0-.24-.09.06.06,0,0,1-.08-.05.08.08,0,0,0-.09,0c-.07,0-.15,0-.22,0a1,1,0,0,0-.36,0l-.08,0a7.52,7.52,0,0,0-1.69-.38c-.16,0-.22,0-.38-.05a8.37,8.37,0,0,0-1.32,0H910l-.09.22c3.83,2.61,6.75,7.1,8.3,13.36,4.24,17.11-3.63,40.63-17.53,52.67C895.38,831.91,889.93,834.22,885,834.26Z" />
            <path class="cls-68"
                d="M877.23,823.55l0,.19c.38.93.72,1.73,1.08,2.59a.76.76,0,0,0,.16.37,12.07,12.07,0,0,0,.88,1.5,3.73,3.73,0,0,0,.5.83,12.19,12.19,0,0,0,1.1,1.51,6.88,6.88,0,0,0,.71.86c.3.34.59.61.89,1,0,.07.09,0,.1.12l1.11,1c.36.26.69.46,1.05.72a.06.06,0,0,0,.08.05l0,.06H885c4.91,0,10.36-2.35,15.67-6.91,13.9-12,21.77-35.56,17.53-52.67-1.55-6.26-4.47-10.75-8.3-13.36-.1-.11-.26-.15-.36-.26l-.07,0c-.22,0-.42,0-.72,0a5,5,0,0,0-1,.08,3.91,3.91,0,0,0-.91.13,20.67,20.67,0,0,0-3.34.84c-.21.05-.33.14-.54.19a3.46,3.46,0,0,0-.79.3l-.85.38c-.07,0-.12.1-.19.11,1.41.44,2.06,2.45,1.53,4.72-.65,2.62-2.51,4.77-4.19,4.72s-2.71-2.18-2.07-4.87a7.52,7.52,0,0,1,1-2.51c-.55.39-1.18.79-1.79,1.26a20.24,20.24,0,0,0-1.81,1.46c-.59.53-1.13,1-1.71,1.58a19.18,19.18,0,0,0-1.63,1.62,7.43,7.43,0,0,1-2.32,5.81,2.85,2.85,0,0,1-2.79.73,49.08,49.08,0,0,0-2.77,4.62c-.46.77-.84,1.59-1.28,2.42s-.69,1.63-1.08,2.38c0,.08,0,.08,0,.15a6.8,6.8,0,0,1-.49,1.51,7,7,0,0,1-.5.92c-.34.94-.69,1.89-1,2.9s-.6,2-.86,2.94a1.61,1.61,0,0,0-.17.51c-.24.79-.46,1.64-.63,2.42-.18,1.05-.37,2-.56,3a4.34,4.34,0,0,1,.37,2.07,7.52,7.52,0,0,1-1.12,3.67l0,.13c-.12.69-.08,1.43-.13,2.11,0,.27,0,.54,0,.81l.05.19a21.52,21.52,0,0,1-.05,1v.07c0,.73,0,1.47.11,2.19s.06,1.4.15,2c1.47-1.38,3-1.45,4-.1,1,1.59.69,4.56-.82,6.63A5.23,5.23,0,0,1,877.23,823.55ZM909.7,789.4c0-2.56,1.54-5.17,3.3-5.95s3.35.63,3.31,3.13-1.54,5.17-3.37,6S909.59,791.91,909.7,789.4Zm-2.25-18.75a4,4,0,0,1,2.72-1.85,2,2,0,0,1,2,.86c1,1.59.64,4.63-.87,6.7a5.91,5.91,0,0,1-1.21,1.27,2.23,2.23,0,0,1-3.4-.28C905.59,775.75,906,772.77,907.45,770.65Zm-1.12,33.52c1-2.51,3.17-3.84,4.61-3s1.76,3.59.63,6.05-3.18,3.83-4.62,3S905.2,806.63,906.33,804.17Zm-10.66,18.4a8.44,8.44,0,0,1-.14-1.72,7.59,7.59,0,0,1,2.35-4.86,3,3,0,0,1,.81-.51c1.46-.85,2.85-.21,3.31,1.64a7.41,7.41,0,0,1-2.19,6.66C898.08,825.29,896.21,824.74,895.67,822.57Zm-12.16-15.49c-2-7.91,1.65-18.77,8.1-24.31,4.19-3.58,8.56-4,11.58-1.8a10.71,10.71,0,0,1,3.59,6,19.84,19.84,0,0,1,.33,7.46c0,.06,0,.06,0,.14a28.16,28.16,0,0,1-3.52,10.63.4.4,0,0,1-.09.22,23.75,23.75,0,0,1-4.78,5.86,12,12,0,0,1-7,3.17C887.91,814.62,884.74,812.06,883.51,807.08ZM883.38,825c.58-2.61,2.46-4.69,4.2-4.66a2.12,2.12,0,0,1,1.73,1.11,5.19,5.19,0,0,1,.33,3.7,6.74,6.74,0,0,1-3.09,4.49,3.24,3.24,0,0,1-1.1.23C883.71,829.83,882.79,827.6,883.38,825Z" />
            <path class="cls-70"
                d="M883.51,807.08c1.23,5,4.4,7.54,8.2,7.4a12,12,0,0,0,7-3.17,23.75,23.75,0,0,0,4.78-5.86.4.4,0,0,0,.09-.22,28.16,28.16,0,0,0,3.52-10.63c0-.08,0-.08,0-.14a19.84,19.84,0,0,0-.33-7.46,10.71,10.71,0,0,0-3.59-6c-3-2.24-7.39-1.78-11.58,1.8C885.16,788.31,881.55,799.17,883.51,807.08Zm1.74-1.44c-1.68-6.77,1.39-16,6.87-20.83,3.7-3.21,7.54-3.49,10.2-1.23a8.18,8.18,0,0,1,1.58,2,8.72,8.72,0,0,1,2.36,4.27,17.59,17.59,0,0,1,0,7.54,42.5,42.5,0,0,1-1.58,4.7c0,.13-.09.22-.13.37a19.34,19.34,0,0,1-4.55,6.21,9.65,9.65,0,0,1-4.62,2.4,7,7,0,0,1-2.7.78C889.21,812.25,886.34,810,885.25,805.64Z" />
            <path class="cls-70"
                d="M885.25,805.64c1.09,4.4,4,6.61,7.41,6.22a7,7,0,0,0,2.7-.78A6.91,6.91,0,0,1,893,811c-2.17-.55-3.94-2.46-4.72-5.59-1.5-6.06,1.33-14.53,6.28-18.81,2.63-2.24,5.3-2.88,7.51-2.14a4.88,4.88,0,0,1,1.88,1.14,8.18,8.18,0,0,0-1.58-2c-2.66-2.26-6.5-2-10.2,1.23C886.64,789.61,883.57,798.87,885.25,805.64Z" />
            <path class="cls-67"
                d="M885.25,805.64c1.09,4.4,4,6.61,7.41,6.22a7,7,0,0,0,2.7-.78A6.91,6.91,0,0,1,893,811c-2.17-.55-3.94-2.46-4.72-5.59-1.5-6.06,1.33-14.53,6.28-18.81,2.63-2.24,5.3-2.88,7.51-2.14a4.88,4.88,0,0,1,1.88,1.14,8.18,8.18,0,0,0-1.58-2c-2.66-2.26-6.5-2-10.2,1.23C886.64,789.61,883.57,798.87,885.25,805.64Z" />
            <path class="cls-69"
                d="M888.23,805.4c.78,3.13,2.55,5,4.72,5.59a6.91,6.91,0,0,0,2.41.09,9.65,9.65,0,0,0,4.62-2.4,19.34,19.34,0,0,0,4.55-6.21c0-.15.16-.24.13-.37a42.5,42.5,0,0,0,1.58-4.7,17.59,17.59,0,0,0,0-7.54,8.72,8.72,0,0,0-2.36-4.27,4.88,4.88,0,0,0-1.88-1.14c-2.21-.74-4.88-.1-7.51,2.14C889.56,790.87,886.73,799.34,888.23,805.4Z" />
            <path class="cls-70"
                d="M885.42,777.64a2.85,2.85,0,0,0,2.79-.73,7.43,7.43,0,0,0,2.32-5.81A57.06,57.06,0,0,0,885.42,777.64Z" />
            <path class="cls-70"
                d="M879.26,789.64a7,7,0,0,0,.5-.92,6.8,6.8,0,0,0,.49-1.51C879.88,788,879.57,788.83,879.26,789.64Z" />
            <path class="cls-70"
                d="M875.27,807.16a7.52,7.52,0,0,0,1.12-3.67,4.34,4.34,0,0,0-.37-2.07c-.17.78-.27,1.54-.37,2.3a15.66,15.66,0,0,0-.23,2A10.2,10.2,0,0,0,875.27,807.16Z" />
            <path class="cls-70"
                d="M876.28,820.59a21,21,0,0,0,1,3,5.23,5.23,0,0,0,1.33-1.36c1.51-2.07,1.86-5,.82-6.63-.92-1.35-2.49-1.28-4,.1l0,.07A37.61,37.61,0,0,0,876.28,820.59Z" />
            <path class="cls-70"
                d="M885.45,829.86a3.24,3.24,0,0,0,1.1-.23,6.74,6.74,0,0,0,3.09-4.49,5.19,5.19,0,0,0-.33-3.7,2.12,2.12,0,0,0-1.73-1.11c-1.74,0-3.62,2-4.2,4.66S883.71,829.83,885.45,829.86Z" />
            <path class="cls-70"
                d="M895.67,822.57c.54,2.17,2.41,2.72,4.14,1.21a7.41,7.41,0,0,0,2.19-6.66c-.46-1.85-1.85-2.49-3.31-1.64a3,3,0,0,0-.81.51,7.59,7.59,0,0,0-2.35,4.86A8.44,8.44,0,0,0,895.67,822.57Z" />
            <path class="cls-70"
                d="M907,810.22c1.44.83,3.51-.48,4.62-3s.83-5.15-.63-6.05-3.57.49-4.61,3S905.5,809.32,907,810.22Z" />
            <path class="cls-70"
                d="M912.94,792.54c1.83-.79,3.34-3.47,3.37-6s-1.48-3.92-3.31-3.13-3.29,3.39-3.3,5.95S911.1,793.33,912.94,792.54Z" />
            <path class="cls-70"
                d="M906.64,777.35a2.23,2.23,0,0,0,3.4.28,5.91,5.91,0,0,0,1.21-1.27c1.51-2.07,1.92-5.11.87-6.7a2,2,0,0,0-2-.86,4,4,0,0,0-2.72,1.85C906,772.77,905.59,775.75,906.64,777.35Z" />
            <path class="cls-70"
                d="M898.5,772.56c1.68.05,3.54-2.1,4.19-4.72.53-2.27-.12-4.28-1.53-4.72h-.07a16.63,16.63,0,0,0-2.05,1c-.51.31-1,.62-1.57,1a7.52,7.52,0,0,0-1,2.51C895.79,770.38,896.76,772.53,898.5,772.56Z" />
            <path class="cls-134"
                d="M81.88,937.58,72.37,932V786.24L79,790c1.76,1,2.85,3.56,2.85,6.73Z" />
            <path class="cls-134"
                d="M320.86,1076.36l9.36,5.46c.68.4,1.54-.68,1.54-1.93V933a1.87,1.87,0,0,1-.52-.23l-7.52-4.21c-1.51-.84-3.37.47-3.37,3.21v143.33A1.38,1.38,0,0,0,320.86,1076.36Z" />
            <polygon class="cls-135"
                points="78.74 935.69 72.37 931.97 72.37 792.48 78.74 796.13 78.74 935.69" />
            <polygon class="cls-135"
                points="323.27 934.05 331.76 938.87 331.76 1083.69 323.27 1078.74 323.27 934.05" />
            <path class="cls-134"
                d="M343.47,1075l-11.71,7.1V933l8.93-5.2c1.23-.72,2.78,1,2.78,3.09Z" />
            <polygon class="cls-135"
                points="341.18 1077.69 331.76 1083.4 331.76 938.87 341.18 933.37 341.18 1077.69" />
            <path class="cls-136"
                d="M845.83,665.65l-155.49,92a16,16,0,0,1-24-11.79L655.2,654.39a11.83,11.83,0,0,1,5.92-11.74L721,608.71a66.55,66.55,0,0,1,65.9.13l58.81,33.65A13.4,13.4,0,0,1,845.83,665.65Z" />
            <path class="cls-137"
                d="M720.42,768.36a4.55,4.55,0,0,1-2.3,3.93l-36.19,20.83v-9.51a5.93,5.93,0,0,1,3-5.15l35.48-20.34Z" />
            <path class="cls-138"
                d="M687.71,784a4.59,4.59,0,0,1-1.77,3.74c-1,.55-1.78-.24-1.78-1.77a4.6,4.6,0,0,1,1.78-3.74C686.92,781.71,687.71,782.51,687.71,784Z" />
            <path class="cls-134"
                d="M858.83,685.78,840.57,677a6.94,6.94,0,0,1-4-6.24V658a7,7,0,0,1,10-6.14l18.27,8.77a7,7,0,0,1,4,6.25v12.77A7,7,0,0,1,858.83,685.78Z" />
            <path class="cls-139"
                d="M860.79,680.85c-4,1.6-11.08-2.7-14.53-4.52-2.48-1.3-4.2-3.14-4.2-6.14,0,0-1.42-11.7.87-12.88,3.79-1.95,15.26,5,15.26,5a8.33,8.33,0,0,1,4.67,6.88C863,672.17,863,680,860.79,680.85Z" />
            <path class="cls-134"
                d="M993.62,751.77,937.8,786.05s-.5-21.89-3.78-28.2c-4.74-9.12-9.92-18-13.44-24a8.24,8.24,0,0,1,2.81-11.29l69.73-42.26a5.73,5.73,0,0,1,8.7,4.9l-3.1,57.37A10.76,10.76,0,0,1,993.62,751.77Z" />
            <path class="cls-140"
                d="M996,685.4l-18.19,11.07a7.4,7.4,0,0,1-11.24-6.32V673.52a8.75,8.75,0,0,1,9.38-8.73l10,.71a12.44,12.44,0,0,1,11.15,9.34l1.23,4.87A5.17,5.17,0,0,1,996,685.4Z" />
            <path class="cls-141"
                d="M981.48,666.31l-5-.36a8.13,8.13,0,0,0-8.71,8.11v15.45a6.87,6.87,0,0,0,10.44,5.87l5.4-3.34Z" />
            <path class="cls-134"
                d="M323.06,1149l-1.68-1L75.25,1001.72a18.74,18.74,0,0,1-8.74-16.32V937.17A4.92,4.92,0,0,1,73.93,933l258.69,150.22v59.24C332.62,1147.81,327.28,1151.46,323.06,1149Z" />
            <path class="cls-134"
                d="M418.66,1107.22l-69.44,42.94a11.77,11.77,0,0,1-18-10v-57.77l79.67-48.29c3.33-2,13,.67,11.47,4.24a129.15,129.15,0,0,0-8.95,34.14C411,1094.84,418.66,1107.22,418.66,1107.22Z" />
            <path class="cls-134"
                d="M333.41,1151.94c3,.4,10.34.5,12.76-.43s-13.55-9.09-13.55-9.09l-13.48,4.2S324.12,1150.69,333.41,1151.94Z" />
            <path class="cls-142"
                d="M972.31,659.77c-17.79-6.49-41-9.81-53.3-12.21-11.79-2.26-28.87-5.79-43.34-9.32l-133-75.46,50.61,12.42Z" />
            <path class="cls-143"
                d="M875.67,638.24c-9.88-2.47-18.56-4.94-23.37-7.13l-70.87-42.78A61.31,61.31,0,0,0,727,583.6l-7.49-4.23L508.38,456.82l233,105.61,1.27.35Z" />
            <path class="cls-144"
                d="M332.39,1143.1a6.31,6.31,0,0,1-9.53,5.4L85.1,1002.91c-8-4.87-12.92-15.51-12.92-28V708.13c0-14.92,6.57-28,15.51-35a18.42,18.42,0,0,1,3.47-2.51L94,669.13a19.84,19.84,0,0,1,17.65.52L317.54,782.44c8.5,4.58,13.52,13.37,13.52,26.37v2.51Z" />
            <path class="cls-145" d="M91.16,670.61a18.42,18.42,0,0,0-3.47,2.51l-.59-.37Z" />
            <path class="cls-146"
                d="M685.57,777.52l35.51-20.41v10.24a4.55,4.55,0,0,1-2.33,3.95L682.6,792.13v-9.46A5.93,5.93,0,0,1,685.57,777.52Z" />
            <path class="cls-146" d="M840,846.13a22.85,22.85,0,0,1,2.68-1.69Z" />
            <path class="cls-146"
                d="M667,744.9l-11.15-91.48a11.82,11.82,0,0,1,5.93-11.72l59.79-34a66.55,66.55,0,0,1,65.93.14l58.8,33.6a13.44,13.44,0,0,1,.15,23.22L691,756.69A16,16,0,0,1,667,744.9Z" />
            <path class="cls-147"
                d="M995.82,749.77,842.63,844.44c.07-.07.22-.14.29-.22-3.32-6.28-4.17-11.22-5.65-25.9s4.94-30.64,12.78-50.55c5.92-15,18.21-27.81,23.93-33.24a8.6,8.6,0,0,0,2.61-7c-1.48-16.45-6.92-75.75-8.61-80-2-5.08-29.09-16.24-67.14-38.47s-65.58-12.29-72-10c-5,1.84-52.17,28.8-72.71,40.59A17.27,17.27,0,0,0,647.52,656l22.09,275.16a11.85,11.85,0,0,0,17.72,9.32L500.69,1055.93l-82.24,50.82-70.09,43.35a11.35,11.35,0,0,1-17.3-9.68V820.22a25.22,25.22,0,0,1,12.85-22L719.52,587.2a80.26,80.26,0,0,1,7.49-3.6,61.31,61.31,0,0,1,54.42,4.73l70.87,42.78c11.93,5.37,47,12.64,66.71,16.45,12.29,2.4,35.51,5.72,53.3,12.21,12.78,4.66,22.73,10.94,23.93,19.7C998.85,699.16,995.82,749.77,995.82,749.77Z" />
            <polygon class="cls-147"
                points="182.44 724.56 182.44 995.26 199.36 1005.63 199.36 733.76 182.44 724.56" />
            <path class="cls-143"
                d="M868,647.49c-2-5.08-29.09-16.24-67.14-38.47s-65.58-12.29-72-10c-5,1.84-52.17,28.8-72.71,40.59A17.27,17.27,0,0,0,647.52,656l22.09,275.16a11.85,11.85,0,0,0,17.72,9.32.56.56,0,0,0,.29-.14l125.51-77.65c1.62-1.06,3.24-2.05,4.8-3,3.1-1.9,6-3.74,8.61-5.36q3-1.8,5.5-3.39c1.06-.7,2.12-1.34,3.11-1.9a6.64,6.64,0,0,1,1.34-.85c1.34-.85,2.47-1.55,3.46-2.12a22.85,22.85,0,0,1,2.68-1.69c.07-.07.22-.14.29-.22-3.32-6.28-4.17-11.22-5.65-25.9s4.94-30.64,12.78-50.55c5.92-15,18.21-27.81,23.93-33.24a8.6,8.6,0,0,0,2.61-7C875.11,711.09,869.67,651.79,868,647.49ZM721.08,767.35a4.55,4.55,0,0,1-2.33,3.95L682.6,792.13v-9.46a5.93,5.93,0,0,1,3-5.15l35.51-20.41ZM846.45,664.71,691,756.69a16,16,0,0,1-24-11.79l-11.15-91.48a11.82,11.82,0,0,1,5.93-11.72l59.79-34a66.55,66.55,0,0,1,65.93.14l58.8,33.6A13.44,13.44,0,0,1,846.45,664.71Z" />
        </g>
    </g>
</svg>