<svg xmlns="http://www.w3.org/2000/svg" xmlns:xlink="http://www.w3.org/1999/xlink"
    viewBox="0 0 1080 1350">
    <defs>
        <style>
            .cls-1{isolation:isolate;}.cls-2{fill:#1e1e1e;}.cls-3{fill:url(#linear-gradient);}.cls-4{fill:url(#linear-gradient-2);}.cls-5{fill:url(#linear-gradient-3);}.cls-6{fill:#504f59;}.cls-7{fill:#c8c6e8;}.cls-8{fill:#90919a;}.cls-9{fill:#8e8f98;}.cls-10{fill:url(#linear-gradient-4);}.cls-11{fill:#2d2c38;}.cls-12{fill:url(#linear-gradient-5);}.cls-13{fill:url(#linear-gradient-6);}.cls-14{fill:#C4C2C1;stroke:#c3c1c0;stroke-miterlimit:10;}.cls-15{fill:#353535;opacity:0.29;}.cls-16{fill:#3d4b4d;}.cls-17{fill:#cbd0d3;}.cls-18{fill:#1d232a;}.cls-19{fill:#a1a8ac;}.cls-20{fill:#363f47;}.cls-21{fill:#2b1f2c;}.cls-22{fill:#696b6f;}.cls-23{fill:#999ebf;}.cls-24{fill:#f8eee8;}.cls-25{fill:#ed670e;}.cls-26{fill:#e9e4e0;mix-blend-mode:multiply;}.cls-27{fill:#ed6d00;}.cls-28{fill:#fd9101;}</style>
        <linearGradient id="linear-gradient" x1="300.64" y1="823.06" x2="249.23" y2="734.01"
            gradientTransform="matrix(-1, 0, 0, 1, 1080, 0)" gradientUnits="userSpaceOnUse">
            <stop offset="0" stop-color="#181818" />
            <stop offset="0.27" stop-color="#262626" />
            <stop offset="0.77" stop-color="#2e2e2e" />
        </linearGradient>
        <linearGradient id="linear-gradient-2" x1="234.29" y1="822.93" x2="270.53" y2="760.16"
            gradientTransform="matrix(-0.5, -0.86, -0.86, 0.5, 1638.32, 609.96)"
            gradientUnits="userSpaceOnUse">
            <stop offset="0" stop-color="#141414" />
            <stop offset="0.44" stop-color="#1e1e1e" />
            <stop offset="0.78" stop-color="#202020" />
            <stop offset="0.98" stop-color="#292929" />
            <stop offset="1" stop-color="#2a2a2a" />
        </linearGradient>
        <linearGradient id="linear-gradient-3" x1="232.7" y1="822.11" x2="267.57" y2="761.73"
            gradientTransform="matrix(-1, 0, 0, 1, 1080, 0)" gradientUnits="userSpaceOnUse">
            <stop offset="0" stop-color="#161616" />
            <stop offset="0.3" stop-color="#1a1a1a" />
            <stop offset="0.79" stop-color="#1e1e1e" />
            <stop offset="0.8" stop-color="#1e1e1e" />
        </linearGradient>
        <linearGradient id="linear-gradient-4" x1="725.63" y1="1063.18" x2="674.22" y2="974.14"
            xlink:href="#linear-gradient" />
        <linearGradient id="linear-gradient-5" x1="661.89" y1="1061.54" x2="698.13" y2="998.77"
            gradientTransform="matrix(-0.5, -0.86, -0.86, 0.5, 1632.52, 1097.31)"
            xlink:href="#linear-gradient-2" />
        <linearGradient id="linear-gradient-6" x1="661.69" y1="1060.73" x2="696.56" y2="1000.35"
            xlink:href="#linear-gradient-3" />
    </defs>
    <g class="cls-1">
        <g id="Capa_1" data-name="Capa 1">
            <polygon class="cls-2"
                points="869.78 770.69 837.54 750.89 715.11 826.44 441.59 1017.9 412.61 994.96 301.88 1067.16 337.39 881.22 906.19 593.71 869.78 770.69" />
            <path class="cls-3"
                d="M768.6,799.59c0-23.11,16.32-51.27,36.46-62.9,10.65-6.15,20.24-6.44,26.9-1.94l22.8,13.2-15.44,25.17a85.74,85.74,0,0,1-24.7,40.28L801,835.55l-20-11.68a16.86,16.86,0,0,1-3.63-2.11h0C771.91,817.6,768.6,810,768.6,799.59Z" />
            <ellipse class="cls-4" cx="827.59" cy="791.54" rx="51.41" ry="29.68"
                transform="translate(-273.43 1106.51) rotate(-59.69)" />
            <path class="cls-5"
                d="M794.78,812.18c0,22.23,15.71,31.19,35.09,20S865,793.9,865,771.67s-15.71-31.19-35.08-20S794.78,790,794.78,812.18Z" />
            <path class="cls-6"
                d="M802.93,806.68c0,16.06,11.34,22.52,25.34,14.44s25.33-27.64,25.33-43.7S842.26,754.9,828.27,763,802.93,790.62,802.93,806.68Z" />
            <path class="cls-7"
                d="M804.63,804.8c0,14.55,10.28,20.41,23,13.09s23-25,23-39.6-10.28-20.41-23-13.09S804.63,790.25,804.63,804.8Z" />
            <path class="cls-7"
                d="M806.94,803.47c0,13.08,9.25,18.35,20.65,11.77s20.65-22.53,20.65-35.62-9.24-18.36-20.65-11.77a30.7,30.7,0,0,0-3.07,2c-8.9,6.66-15.95,18.78-17.33,29.77A29.28,29.28,0,0,0,806.94,803.47Z" />
            <path class="cls-8"
                d="M820.14,809.91c10.79-6.22,19.55-21.32,19.55-33.71,0-5-1.44-8.81-3.85-11.15,7.3-.56,12.4,4.85,12.4,14.57,0,13.09-9.24,29-20.65,35.62-8.31,4.8-15.47,3.29-18.74-2.93C812,813.06,815.93,812.34,820.14,809.91Z" />
            <path class="cls-9"
                d="M808.15,801.16c0,8,5.67,11.26,12.67,7.23s12.66-13.83,12.66-21.86-5.67-11.26-12.66-7.22S808.15,793.13,808.15,801.16Z" />
            <path class="cls-8"
                d="M807.19,799.65c2.17,3.15,6.29,3.75,11,1,7-4,12.67-13.83,12.67-21.86,0-5.39-2.56-8.62-6.36-8.93C815.62,776.54,808.57,788.66,807.19,799.65Z" />
            <polygon class="cls-8"
                points="827.59 770.94 837.09 776.45 818.37 806.83 809 801.42 815.4 786.14 827.59 770.94" />
            <path class="cls-8"
                d="M814.92,798.86c0,8,5.67,11.26,12.67,7.22s12.67-13.82,12.67-21.85S834.59,773,827.59,777,814.92,790.83,814.92,798.86Z" />
            <path class="cls-7"
                d="M816.15,798.66c0,7.67,5.43,10.77,12.12,6.9s12.11-13.21,12.11-20.89-5.42-10.77-12.11-6.91S816.15,791,816.15,798.66Z" />
            <path class="cls-10"
                d="M341,1038.21c0-23.12,16.33-51.28,36.47-62.91,10-5.79,19.13-6.38,25.72-2.66h0l.15.09,23,13.31v17.84l-51.72,71-21.6-12.55a17.1,17.1,0,0,1-2.9-1.68h0C344.45,1056.55,341,1048.84,341,1038.21Z" />
            <ellipse class="cls-11" cx="399.99" cy="1030.16" rx="51.41" ry="29.68"
                transform="translate(-691.22 855.56) rotate(-59.69)" />
            <ellipse class="cls-12" cx="399.99" cy="1030.16" rx="51.41" ry="29.68"
                transform="translate(-691.22 855.56) rotate(-59.69)" />
            <path class="cls-13"
                d="M365.79,1050.79c0,22.23,15.71,31.19,35.08,20S436,1032.52,436,1010.28s-15.7-31.18-35.08-20S365.79,1028.56,365.79,1050.79Z" />
            <path class="cls-6"
                d="M375.33,1045.29c0,16.06,11.34,22.53,25.33,14.45S426,1032.09,426,1016s-11.34-22.53-25.34-14.45S375.33,1029.24,375.33,1045.29Z" />
            <path class="cls-7"
                d="M377,1043.41c0,14.55,10.28,20.41,23,13.09s22.95-25,22.95-39.6-10.28-20.41-22.95-13.09S377,1028.86,377,1043.41Z" />
            <path class="cls-8"
                d="M379.9,1041.76c0,12.72,9,17.85,20.09,11.45s20.08-21.92,20.08-34.65-9-17.86-20.08-11.45S379.9,1029,379.9,1041.76Z" />
            <path class="cls-7"
                d="M382.38,1040.32c0,11.16,7.88,15.65,17.61,10s17.6-19.21,17.6-30.37-7.88-15.65-17.6-10S382.38,1029.16,382.38,1040.32Z" />
            <path class="cls-8"
                d="M390.93,1037.56c0,6.67,4.71,9.35,10.52,6S412,1032.08,412,1025.41s-4.71-9.36-10.53-6S390.93,1030.89,390.93,1037.56Z" />
            <path class="cls-6"
                d="M410,1030.34a19.93,19.93,0,0,1-4.43,7.85,3.94,3.94,0,0,0-1.1,3.15h0c.26.82,1.46.58,2.56-.71a31.73,31.73,0,0,0,5.88-10.43c.53-1.59.09-2.69-.77-2.46h0A4.06,4.06,0,0,0,410,1030.34Z" />
            <path class="cls-7"
                d="M393.45,1036.9c0,5.88,4.15,8.24,9.26,5.29s9.27-10.12,9.27-16-4.15-8.24-9.27-5.28S393.45,1031,393.45,1036.9Z" />
            <path class="cls-8"
                d="M397.68,1034.46c0,3.19,2.25,4.47,5,2.87a11.1,11.1,0,0,0,5-8.69c0-3.19-2.26-4.47-5-2.87A11.11,11.11,0,0,0,397.68,1034.46Z" />
            <path class="cls-6"
                d="M389.94,1030a20.09,20.09,0,0,1,4.43-7.86,3.91,3.91,0,0,0,1.1-3.14h0c-.26-.82-1.46-.58-2.56.71a31.81,31.81,0,0,0-5.88,10.43c-.53,1.59-.09,2.69.77,2.45h0A4,4,0,0,0,389.94,1030Z" />
            <path class="cls-6"
                d="M394.77,1044.7c-2.37.09-3.4-.45-4.61-2.43-.43-.7-1.34-.78-2.19,0h0a3,3,0,0,0-.67,3.32,6.57,6.57,0,0,0,6.13,3.22,3.11,3.11,0,0,0,2.53-2.34h0C396.19,1045.35,395.62,1044.66,394.77,1044.7Z" />
            <path class="cls-6"
                d="M405.2,1015.62c2.38-.09,3.4.45,4.61,2.42.43.7,1.34.79,2.19,0h0a3,3,0,0,0,.67-3.32,6.57,6.57,0,0,0-6.13-3.21,3.11,3.11,0,0,0-2.53,2.34h0C403.79,1015,404.35,1015.65,405.2,1015.62Z" />
            <path class="cls-8"
                d="M406.25,1039.56a31.65,31.65,0,0,0,5.89-10.43,3.57,3.57,0,0,0,.19-1.37c.74,0,1.1,1,.61,2.44a31.63,31.63,0,0,1-5.88,10.43c-1.1,1.29-2.3,1.53-2.56.71a2.43,2.43,0,0,1,.06-.64A3,3,0,0,0,406.25,1039.56Z" />
            <path class="cls-8"
                d="M387,1031.5a4.07,4.07,0,0,0,2.14-2.59,20,20,0,0,1,4.43-7.86,4.37,4.37,0,0,0,1-2.5.68.68,0,0,1,.86.43,3.91,3.91,0,0,1-1.1,3.14,20.09,20.09,0,0,0-4.43,7.86,4,4,0,0,1-2.14,2.59c-.57.16-.92-.31-1-1.08C386.9,1031.48,386.94,1031.52,387,1031.5Z" />
            <path class="cls-8"
                d="M392.63,1047.74a3.11,3.11,0,0,0,2.53-2.34c0-.24-.07-.37-.08-.57a1.25,1.25,0,0,1,.88,1.64,3.11,3.11,0,0,1-2.53,2.34,6.57,6.57,0,0,1-6.13-3.22l0-.06A6.63,6.63,0,0,0,392.63,1047.74Z" />
            <path class="cls-8"
                d="M411.2,1017a3,3,0,0,0,.69-3.25,6.25,6.25,0,0,1,.78,1A3,3,0,0,1,412,1018c-.85.79-1.76.7-2.19,0a7,7,0,0,0-.73-1C409.53,1017.66,410.39,1017.72,411.2,1017Z" />
            <path class="cls-8"
                d="M404.4,1014.55c2.28-.09,3.32.44,4.47,2.23-.9-.94-1.91-1.23-3.67-1.16-.67,0-1-.49-1.11-1.21C404.21,1014.44,404.27,1014.55,404.4,1014.55Z" />
            <path id="body_bus" data-name="body bus" class="cls-14"
                d="M1055.23,646.14l7.81-100.3V407.6l-1.86-8.61s-9.06-9.39-10.52-10.65-34.28-25.19-34.71-25.47l-33.43-21.39s-43.38-22.4-43.81-22.61-49.14-23.25-49.14-23.25l-14.09-5.28s-7.06-4-11.11-1.67l-50.28,29.11L514.17,491.43,253.83,642.16,26.61,773.71s-3.12,2.12-3.07,4.54,0,15.91,0,15.91l1.61,30.58s-1.62,106.15-1.7,108-.63,14.82-2.52,18.46a18,18,0,0,0-2,6.66l-1.65,38,.07,8.39s1.21,7.57,1.8,10.35,3,9.33,3,9.33,4.81,7.86,5.44,8.21,11.94,11.23,16.5,14.76,29.05,20.48,29.05,20.48,37.13,22.31,42.72,25.37,46.13,23.9,46.13,23.9l33.77,15.21s21.37,7.56,25,7.61,23.52-7.65,23.52-7.65l119.64-69.08v-31.4s.88-8,3.07-12.9,7.9-18.49,10.79-22.14a83.7,83.7,0,0,1,6.65-7.25l33.25-19.59s8.19-5.67,13.79.25l7,7.44s3.07,2.52,3.07,9.36v31.39L792.09,815.52v-31.4a39,39,0,0,1,3.07-12.89c1.89-4,6.7-22.53,20.84-31.76l29.84-17.23s8.7-5.13,13.8.25l7.05,7.44a15,15,0,0,1,3.07,9.36v31.4l126.33-73Z" />
            <path class="cls-15"
                d="M1064.73,406.39,248.62,894.44l-2.74,237.84L363.19,1063l.31-35.21s9.79-26.59,13.5-31.15a64,64,0,0,1,8.36-8.59c.6-.4,25.75-15,26.54-15.42a63.6,63.6,0,0,1,7.37-4.07c1.94-.67,6.15-1.28,7.3-.93a28.09,28.09,0,0,1,4.17,2.34l7.89,8.52,2.22,5.57v34.1L791.38,815.75l.4-35.74s1.27-5.14,1.74-6.32,4-9,4.53-10.21,4-8.84,4.64-10,6.19-10.39,6.19-10.39a19.55,19.55,0,0,0,4-1.77c1.33-.91,7.5-4.53,9.53-5.7s24-14.33,26.62-14.84,7.12-1,9.9,2l7.05,7.44,2.34,4.18.73,36.58L995.38,698l61.18-51.67,7.13-87.26s1.38-34.29.5-47.11S1064.73,406.39,1064.73,406.39Z" />
            <path class="cls-15"
                d="M245.8,891l-19.08,1s-6.26,1.8-11.85-.12-22.85-7.63-33.63-13.1-116.74-67-116.74-67l-22.28-15s-11.4-10.07-12.77-15.73,0,52.6,0,52.6l-4.89,184.17L52.83,1048s66.69,44.73,77.16,48.71,25.12,15.46,42.77,22,32.76,11.28,38,13.31,15.22,7.19,17.91,6.78,17.2-6.66,17.2-6.66Z" />
            <path class="cls-16"
                d="M23.19,831.39c1.94,4.22,6.08,9.91,13.48,15.5s54.26,34,85.14,52.89,67.61,37.68,83.25,42.25c0,0,10.68,1.38,10.95,5s-4.16,93.52-4.11,96.4c0,1-1.17,1.1-2.84.86-3.14-.43-8-2-9.77-.86-2.76,1.73-8.19,9.22-15.44,9.29,4.41,1.8,8.44,3.36,12,4.7l1.18.44,1.14.41,2.22.81,2,.71,1,.33a95.3,95.3,0,0,0,13.12,3.53v-20l5-144.39c-14.89,5.41-61.92-27.72-102.36-51.46-19.57-11.49-67.88-39.51-80.19-49-9.58-7.38-15.53-14.13-15.65-20.2l-.09,15.68C23.18,795.46,23.2,830.67,23.19,831.39Z" />
            <path class="cls-16"
                d="M15.26,1018.29c0,6.33,70.49,55.27,108.36,78.38,42.5,25.93,85.81,38.54,94.61,34.85l-.07-6.26-.24-24.94L15.26,986.1Z" />
            <path class="cls-17"
                d="M192,1109.3c-.57,3.67,1.56,7.8,4.79,9.2a4.67,4.67,0,0,0,5.73-1.3v0a6.11,6.11,0,0,0,1.17-2.82c.58-3.69-1.55-7.82-4.8-9.22a5,5,0,0,0-3.31-.3A5.15,5.15,0,0,0,192,1109.3Z" />
            <path class="cls-17"
                d="M20.36,1008.62A12.88,12.88,0,0,0,26,1019.1c2.25,1.33,4.24,1,5.32-.59v0a5.5,5.5,0,0,0,.8-2.86,12.86,12.86,0,0,0-5.61-10.5,4.76,4.76,0,0,0-3.19-.77C21.59,1004.62,20.45,1006.14,20.36,1008.62Z" />
            <path class="cls-18"
                d="M15.25,985.87c1.53,1.4,1.63,2.65,3.17,4l1.9,1.68c1.28,1.12,2.55,2.22,3.83,3.32q3.75,3.2,7.5,6.26c44.51,36.31,120.37,76,149.4,87.88,7.87,3.2,14.5,5.65,19.54,7.4,1.47.51,2.8,1,4,1.36,4.41,1.48,11.89,2.16,11.89,2.16V1073l1.37-92,1.37-53.42c-14.91,5.41-62.51-9.1-103-32.84-19.6-11.49-68-39.51-80.31-49-9.59-7.39-15.55-14.14-15.67-20.21l-.09,5.06L16.84,958.91,15.8,977Z" />
            <polygon class="cls-19"
                points="791.76 806.44 441.23 1008.59 441.23 1018.32 791.76 815.94 791.76 806.44" />
            <path class="cls-19"
                d="M978.42,698.8l-109,62.86v9.45l126.33-73L1057,646.49s7.8-88.36,7.8-100.29V408l-3.1-3V557.69L1053,640.3Z" />
            <polygon class="cls-19"
                points="241.26 1133.27 243.93 1132.24 363.57 1063.16 363.57 1053.36 242.03 1123.46 241.26 1133.27" />
            <polygon class="cls-20"
                points="247.64 1045.08 247.64 886.4 1040.35 428.73 1040.35 587.41 247.64 1045.08" />
            <polygon class="cls-20"
                points="560.49 949.47 656.6 893.98 656.6 657.73 560.49 713.22 560.49 949.47" />
            <path class="cls-21"
                d="M559.11,712.43,658,655.35V894.77l-98.86,57.08Zm96.12-52.33L561.86,714V947.1l93.37-53.91Z" />
            <polygon class="cls-20"
                points="882.3 763.67 978.42 708.18 978.42 471.92 882.3 527.42 882.3 763.67" />
            <path class="cls-21"
                d="M880.93,526.62l98.86-57.07V709L880.93,766Zm96.12-52.32-93.37,53.91V761.3l93.37-53.91Z" />
            <polygon class="cls-20"
                points="247.64 1130.1 343.76 1074.6 343.76 838.35 247.64 893.84 247.64 1130.1" />
            <path class="cls-21"
                d="M246.27,893.05,345.13,836v239.41l-98.86,57.08Zm96.11-52.33L249,894.63v233.09l93.37-53.91Z" />
            <polygon class="cls-18"
                points="458.33 915.9 550.85 862.48 550.85 726.49 458.33 779.9 458.33 915.9" />
            <polygon class="cls-18"
                points="354.78 975.68 447.3 922.26 447.3 786.27 354.78 839.69 354.78 975.68" />
            <polygon class="cls-18"
                points="766.99 737.69 859.51 684.27 859.51 548.28 766.99 601.7 766.99 737.69" />
            <polygon class="cls-18"
                points="986.04 611.23 1032.3 584.52 1032.3 448.52 986.04 475.23 986.04 611.23" />
            <polygon class="cls-18"
                points="663.44 797.48 755.97 744.06 755.97 608.06 663.44 661.48 663.44 797.48" />
            <polygon class="cls-18"
                points="301.52 1023.06 339.42 1001.18 339.42 854.81 301.52 876.69 301.52 1023.06" />
            <polygon class="cls-18"
                points="301.52 1084.83 339.42 1062.94 339.42 1010.18 301.52 1032.06 301.52 1084.83" />
            <polygon class="cls-18"
                points="252.47 1051.38 290.37 1029.5 290.37 883.13 252.47 905.01 252.47 1051.38" />
            <polygon class="cls-18"
                points="252.47 1113.14 290.37 1091.26 290.37 1038.5 252.47 1060.38 252.47 1113.14" />
            <polygon class="cls-18"
                points="614.12 842.58 652.02 820.7 652.02 674.33 614.12 696.22 614.12 842.58" />
            <polygon class="cls-18"
                points="614.12 904.35 652.02 882.47 652.02 829.7 614.12 851.59 614.12 904.35" />
            <polygon class="cls-18"
                points="565.07 870.9 602.97 849.02 602.97 702.65 565.07 724.53 565.07 870.9" />
            <polygon class="cls-18"
                points="565.07 932.67 602.97 910.78 602.97 858.02 565.07 879.9 565.07 932.67" />
            <polygon class="cls-18"
                points="935.94 649.07 973.84 627.19 973.84 480.82 935.94 502.7 935.94 649.07" />
            <polygon class="cls-18"
                points="935.94 718.54 973.84 696.66 973.84 643.9 935.94 665.78 935.94 718.54" />
            <polygon class="cls-18"
                points="886.89 677.39 924.79 655.51 924.79 509.14 886.89 531.02 886.89 677.39" />
            <polygon class="cls-18"
                points="886.89 746.86 924.79 724.98 924.79 672.22 886.89 694.1 886.89 746.86" />
            <polygon class="cls-22"
                points="565.07 942.09 652.02 891.89 652.02 896.63 565.07 946.83 565.07 942.09" />
            <polygon class="cls-22"
                points="252.22 1122.71 339.17 1072.51 339.17 1077.25 252.22 1127.45 252.22 1122.71" />
            <polygon class="cls-22"
                points="886.89 756.28 973.84 706.08 973.84 710.82 886.89 761.02 886.89 756.28" />
            <path class="cls-19"
                d="M446.3,982.44c0,1.81,1.27,2.53,2.85,1.62a6.27,6.27,0,0,0,2.85-4.92c0-1.81-1.27-2.53-2.85-1.62A6.27,6.27,0,0,0,446.3,982.44Z" />
            <path class="cls-23"
                d="M446,981c0,1.81,1.28,2.54,2.85,1.63a6.27,6.27,0,0,0,2.85-4.92c0-1.81-1.27-2.54-2.85-1.63A6.31,6.31,0,0,0,446,981Z" />
            <path class="cls-24"
                d="M446.61,981.27c0,1.81,1.28,2.53,2.85,1.62a6.27,6.27,0,0,0,2.85-4.92c0-1.8-1.27-2.53-2.85-1.62A6.29,6.29,0,0,0,446.61,981.27Z" />
            <path class="cls-25"
                d="M447,981c0,1.53,1.09,2.15,2.42,1.38a5.32,5.32,0,0,0,2.42-4.18c0-1.53-1.08-2.15-2.42-1.38A5.36,5.36,0,0,0,447,981Z" />
            <path class="cls-19"
                d="M517.36,942.87c0,1.81,1.27,2.54,2.85,1.63a6.28,6.28,0,0,0,2.85-4.92c0-1.81-1.27-2.54-2.85-1.63A6.27,6.27,0,0,0,517.36,942.87Z" />
            <path class="cls-23"
                d="M517.05,941.43c0,1.81,1.27,2.53,2.85,1.63a6.29,6.29,0,0,0,2.85-4.93c0-1.8-1.27-2.53-2.85-1.62A6.27,6.27,0,0,0,517.05,941.43Z" />
            <path class="cls-24"
                d="M517.67,941.7c0,1.81,1.28,2.54,2.85,1.63a6.27,6.27,0,0,0,2.85-4.92c0-1.81-1.27-2.54-2.85-1.63A6.29,6.29,0,0,0,517.67,941.7Z" />
            <path class="cls-25"
                d="M518.1,941.45c0,1.53,1.08,2.15,2.42,1.38a5.32,5.32,0,0,0,2.42-4.17c0-1.54-1.08-2.16-2.42-1.38A5.32,5.32,0,0,0,518.1,941.45Z" />
            <path class="cls-19"
                d="M690.21,835.9c0,1.8,1.28,2.53,2.85,1.62a6.28,6.28,0,0,0,2.86-4.92c0-1.81-1.28-2.53-2.86-1.62A6.29,6.29,0,0,0,690.21,835.9Z" />
            <path class="cls-23"
                d="M689.9,834.45c0,1.81,1.28,2.54,2.86,1.63a6.29,6.29,0,0,0,2.85-4.92c0-1.81-1.28-2.54-2.85-1.63A6.29,6.29,0,0,0,689.9,834.45Z" />
            <path class="cls-24"
                d="M690.52,834.73c0,1.81,1.28,2.53,2.86,1.62a6.29,6.29,0,0,0,2.85-4.92c0-1.81-1.28-2.53-2.85-1.62A6.28,6.28,0,0,0,690.52,834.73Z" />
            <path class="cls-25"
                d="M691,834.48c0,1.53,1.08,2.15,2.42,1.38a5.35,5.35,0,0,0,2.42-4.18c0-1.53-1.09-2.15-2.42-1.38A5.32,5.32,0,0,0,691,834.48Z" />
            <path class="cls-19"
                d="M725.15,815.18c0,1.8,1.28,2.53,2.85,1.62a6.27,6.27,0,0,0,2.85-4.92c0-1.81-1.27-2.53-2.85-1.63A6.31,6.31,0,0,0,725.15,815.18Z" />
            <path class="cls-23"
                d="M724.84,813.73c0,1.81,1.28,2.54,2.85,1.63a6.28,6.28,0,0,0,2.86-4.92c0-1.81-1.28-2.54-2.86-1.63A6.31,6.31,0,0,0,724.84,813.73Z" />
            <path class="cls-24"
                d="M725.46,814c0,1.8,1.28,2.53,2.85,1.62a6.28,6.28,0,0,0,2.86-4.92c0-1.81-1.28-2.53-2.86-1.63A6.31,6.31,0,0,0,725.46,814Z" />
            <path class="cls-25"
                d="M725.89,813.76c0,1.53,1.09,2.15,2.42,1.38a5.34,5.34,0,0,0,2.42-4.18c0-1.53-1.08-2.15-2.42-1.38A5.35,5.35,0,0,0,725.89,813.76Z" />
            <path class="cls-19"
                d="M1014.22,651.44c0,1.81,1.28,2.54,2.85,1.63a6.27,6.27,0,0,0,2.85-4.92c0-1.81-1.27-2.54-2.85-1.63A6.29,6.29,0,0,0,1014.22,651.44Z" />
            <path class="cls-23"
                d="M1013.91,650c0,1.81,1.28,2.54,2.85,1.63a6.29,6.29,0,0,0,2.86-4.92c0-1.81-1.28-2.54-2.86-1.63A6.29,6.29,0,0,0,1013.91,650Z" />
            <path class="cls-24"
                d="M1014.53,650.27c0,1.81,1.28,2.54,2.85,1.63a6.28,6.28,0,0,0,2.86-4.92c0-1.81-1.28-2.54-2.86-1.63A6.29,6.29,0,0,0,1014.53,650.27Z" />
            <path class="cls-25"
                d="M1015,650c0,1.54,1.09,2.15,2.42,1.38a5.32,5.32,0,0,0,2.42-4.17c0-1.54-1.08-2.15-2.42-1.38A5.35,5.35,0,0,0,1015,650Z" />
            <polygon class="cls-26"
                points="173.92 826.97 180.54 823.18 175.31 820.07 170.16 826.97 173.92 826.97" />
            <polygon class="cls-27"
                points="170.16 826.97 164.92 823.86 164.92 821.26 170.16 824.38 170.16 826.97" />
            <polygon class="cls-28"
                points="170.16 824.38 176.78 820.59 171.54 817.47 164.92 821.26 170.16 824.38" />
            <polygon class="cls-25"
                points="170.16 824.38 176.78 820.59 176.78 823.18 170.16 826.97 170.16 824.38" />
            <polygon class="cls-26"
                points="147.73 811.39 154.36 807.6 149.12 804.48 143.97 811.39 147.73 811.39" />
            <polygon class="cls-27"
                points="143.97 811.39 138.73 808.27 138.73 805.68 143.97 808.79 143.97 811.39" />
            <polygon class="cls-28"
                points="143.97 808.79 150.59 805 145.36 801.89 138.73 805.68 143.97 808.79" />
            <polygon class="cls-25"
                points="143.97 808.79 150.59 805 150.59 807.6 143.97 811.39 143.97 808.79" />
            <polygon class="cls-26"
                points="121.54 795.81 128.17 792.01 122.93 788.9 117.78 795.81 121.54 795.81" />
            <polygon class="cls-27"
                points="117.78 795.81 112.54 792.69 112.54 790.09 117.78 793.21 117.78 795.81" />
            <polygon class="cls-28"
                points="117.78 793.21 124.41 789.42 119.17 786.3 112.54 790.09 117.78 793.21" />
            <polygon class="cls-25"
                points="117.78 793.21 124.41 789.42 124.41 792.01 117.78 795.81 117.78 793.21" />
        </g>
    </g>
</svg>