<svg id="Capa_1" data-name="Capa 1" xmlns="http://www.w3.org/2000/svg" xmlns:xlink="http://www.w3.org/1999/xlink" viewBox="0 0 166.4 113.9"><defs><style>.cls-1{fill:none;}.cls-2{fill:#b1b1b1;}.cls-3{fill:#838485;}.cls-4{fill:#5b5954;}.cls-5{clip-path:url(#clip-path);}.cls-6{fill:url(#Degradado_sin_nombre_295);}.cls-7{fill:#4a4752;}.cls-8{clip-path:url(#clip-path-2);}.cls-9{fill:url(#Degradado_sin_nombre_295-2);}.cls-10{clip-path:url(#clip-path-3);}.cls-11{fill:url(#Degradado_sin_nombre_296);}.cls-12{fill:#d5d3d4;}.cls-13{clip-path:url(#clip-path-4);}.cls-14{fill:url(#Degradado_sin_nombre_299);}.cls-15{fill:#e0dfe0;}.cls-16{clip-path:url(#clip-path-5);}.cls-17{fill:url(#Degradado_sin_nombre_299-2);}.cls-18{fill:#d6d4d6;}.cls-19{clip-path:url(#clip-path-6);}.cls-20{fill:url(#Degradado_sin_nombre_299-3);}.cls-21{clip-path:url(#clip-path-7);}.cls-22{fill:url(#Degradado_sin_nombre_295-3);}.cls-23{clip-path:url(#clip-path-8);}.cls-24{fill:url(#Degradado_sin_nombre_295-4);}.cls-25{clip-path:url(#clip-path-9);}.cls-26{fill:url(#Degradado_sin_nombre_296-2);}.cls-27{clip-path:url(#clip-path-10);}.cls-28{fill:url(#Degradado_sin_nombre_299-4);}.cls-29{clip-path:url(#clip-path-11);}.cls-30{fill:url(#Degradado_sin_nombre_299-5);}.cls-31{clip-path:url(#clip-path-12);}.cls-32{fill:url(#Degradado_sin_nombre_299-6);}.cls-33{fill:#66537d;}.cls-34{fill:#bbccb6;}.cls-35{fill:#828384;}.cls-36{fill:#717071;}.cls-37{fill:#a1a2a2;}.cls-38{fill:#524e51;}.cls-39{clip-path:url(#clip-path-13);}.cls-40{fill:url(#Degradado_sin_nombre_295-5);}.cls-41{clip-path:url(#clip-path-14);}.cls-42{fill:url(#Degradado_sin_nombre_295-6);}.cls-43{clip-path:url(#clip-path-15);}.cls-44{fill:url(#Degradado_sin_nombre_296-3);}.cls-45{clip-path:url(#clip-path-16);}.cls-46{fill:url(#Degradado_sin_nombre_299-7);}.cls-47{clip-path:url(#clip-path-17);}.cls-48{fill:url(#Degradado_sin_nombre_298);}.cls-49{clip-path:url(#clip-path-18);}.cls-50{fill:url(#Degradado_sin_nombre_299-8);}.cls-51{clip-path:url(#clip-path-19);}.cls-52{fill:url(#Degradado_sin_nombre_295-7);}.cls-53{clip-path:url(#clip-path-20);}.cls-54{fill:url(#Degradado_sin_nombre_295-8);}.cls-55{clip-path:url(#clip-path-21);}.cls-56{fill:url(#Degradado_sin_nombre_296-4);}.cls-57{clip-path:url(#clip-path-22);}.cls-58{fill:url(#Degradado_sin_nombre_299-9);}.cls-59{clip-path:url(#clip-path-23);}.cls-60{fill:url(#Degradado_sin_nombre_298-2);}.cls-61{clip-path:url(#clip-path-24);}.cls-62{fill:url(#Degradado_sin_nombre_299-10);}.cls-63{fill:#802523;}.cls-64{fill:#a52822;}.cls-65{fill:#bcbdbf;}.cls-66{clip-path:url(#clip-path-25);}.cls-67{fill:url(#Degradado_sin_nombre_285);}.cls-68{clip-path:url(#clip-path-26);}.cls-69{fill:url(#Degradado_sin_nombre_299-11);}.cls-70{fill:#b7b7b7;}.cls-71{clip-path:url(#clip-path-27);}.cls-72{fill:url(#Degradado_sin_nombre_306);}.cls-73{fill:#e4eded;}.cls-74{fill:#bcc2c2;}.cls-75{fill:#dadce0;}.cls-76{fill:#a3a6a7;}.cls-77{clip-path:url(#clip-path-28);}.cls-78{fill:url(#Degradado_sin_nombre_306-2);}.cls-79{clip-path:url(#clip-path-29);}.cls-80{fill:url(#Degradado_sin_nombre_303);}.cls-81{fill:#c1c7c6;}.cls-82{clip-path:url(#clip-path-30);}.cls-83{fill:url(#Degradado_sin_nombre_306-3);}.cls-84{clip-path:url(#clip-path-31);}.cls-85{fill:url(#Degradado_sin_nombre_303-2);}.cls-86{clip-path:url(#clip-path-32);}.cls-87{fill:url(#Degradado_sin_nombre_306-4);}.cls-88{fill:#933531;}.cls-89{clip-path:url(#clip-path-33);}.cls-90{fill:url(#Degradado_sin_nombre_305);}.cls-91{fill:#7f7e7f;}.cls-92{fill:#c1c8d8;}.cls-93{fill:#e0e3e7;}.cls-94{fill:#8e622d;}.cls-95{fill:#9ec5ab;}.cls-96{fill:#87352e;}.cls-97{fill:#cb5252;}.cls-98{clip-path:url(#clip-path-34);}.cls-99{fill:url(#Degradado_sin_nombre_306-5);}.cls-100{fill:#8c9093;}.cls-101{fill:#818587;}.cls-102{fill:#a0a6a8;}.cls-103{fill:#454248;}.cls-104{clip-path:url(#clip-path-35);}.cls-105{fill:url(#Degradado_sin_nombre_295-9);}.cls-106{clip-path:url(#clip-path-36);}.cls-107{fill:url(#Degradado_sin_nombre_296-5);}.cls-108{clip-path:url(#clip-path-37);}.cls-109{fill:url(#Degradado_sin_nombre_299-12);}.cls-110{clip-path:url(#clip-path-38);}.cls-111{fill:url(#Degradado_sin_nombre_298-3);}.cls-112{clip-path:url(#clip-path-39);}.cls-113{fill:url(#Degradado_sin_nombre_299-13);}.cls-114{fill:#9dcdea;}.cls-115{fill:#d5bf46;}.cls-116{fill:#c9cece;}.cls-117{fill:#d1d5d5;}.cls-118{fill:#a0acb5;}.cls-119{fill:#a44242;}.cls-120{clip-path:url(#clip-path-40);}.cls-121{fill:url(#Degradado_sin_nombre_306-6);}.cls-122{clip-path:url(#clip-path-41);}.cls-123{fill:url(#Degradado_sin_nombre_303-3);}.cls-124{clip-path:url(#clip-path-42);}.cls-125{fill:url(#Degradado_sin_nombre_306-7);}.cls-126{clip-path:url(#clip-path-43);}.cls-127{fill:url(#Degradado_sin_nombre_303-4);}.cls-128{clip-path:url(#clip-path-44);}.cls-129{fill:url(#Degradado_sin_nombre_306-8);}.cls-130{fill:#853830;}.cls-131{fill:#a43e3f;}.cls-132{fill:#b08c39;}.cls-133{fill:#8f632e;}.cls-134{clip-path:url(#clip-path-45);}.cls-135{fill:url(#Degradado_sin_nombre_305-2);}.cls-136{clip-path:url(#clip-path-46);}.cls-137{fill:url(#Degradado_sin_nombre_306-9);}.cls-138{fill:#803939;}.cls-139{fill:#82393b;}.cls-140{fill:#bf793e;}.cls-141{fill:#d4b65a;}.cls-142{fill:#9e4b39;}.cls-143{fill:#8292a0;}.cls-144{fill:#777f8a;}.cls-145{fill:#878788;}.cls-146{fill:#fafbfb;}.cls-147{fill:#dcd9d9;}.cls-148{fill:#f9fcfd;}.cls-149{fill:#8ea5d5;}.cls-150{fill:#4c4249;}.cls-151{fill:#cf826d;}</style><clipPath id="clip-path" transform="translate(-5.96 -25)"><path class="cls-1" d="M105.09,47.18c0,2.32.79,4,2.12,4.84,1.78,1.19,5.62,3.24,5.62,3.24,5.37-3.11,16-13.9,16-19.27,0-2.31-5-4.1-6.42-5-1.79-1.13-4.5-1-7.55.79-5.43,3.11-9.73,10-9.73,15.36"/></clipPath><linearGradient id="Degradado_sin_nombre_295" x1="-8920.8" y1="15925.94" x2="-8933.38" y2="15948.1" gradientUnits="userSpaceOnUse"><stop offset="0" stop-color="#70757f"/><stop offset="0.13" stop-color="#70757f"/><stop offset="0.44" stop-color="#56555d"/><stop offset="0.84" stop-color="#56555d"/><stop offset="1" stop-color="#45434a"/></linearGradient><clipPath id="clip-path-2" transform="translate(-5.96 -25)"><path class="cls-1" d="M111.24,50.69c0,2.32.8,4,2.12,4.84,1.79,1.19,5.63,3.24,5.63,3.24,5.36-3.11,16-13.9,16-19.27,0-2.32-5-4.1-6.42-5-1.79-1.13-4.51-1-7.55.79-5.37,3.11-9.74,10-9.74,15.36"/></clipPath><linearGradient id="Degradado_sin_nombre_295-2" x1="-9145.79" y1="15520.8" x2="-9159.03" y2="15542.96" xlink:href="#Degradado_sin_nombre_295"/><clipPath id="clip-path-3" transform="translate(-5.96 -25)"><path class="cls-1" d="M119.39,51.62c0,3.57,2.91,4.77,6.49,2.71s6.49-6.62,6.49-10.19-2.92-4.77-6.49-2.72-6.49,6.62-6.49,10.2"/></clipPath><linearGradient id="Degradado_sin_nombre_296" x1="9486.62" y1="9877.44" x2="9480" y2="9870.47" gradientUnits="userSpaceOnUse"><stop offset="0" stop-color="#dddee2"/><stop offset="0.13" stop-color="#dddee2"/><stop offset="0.44" stop-color="#bfc0c1"/><stop offset="0.84" stop-color="#bfc0c1"/><stop offset="1" stop-color="#a4a7a9"/></linearGradient><clipPath id="clip-path-4" transform="translate(-5.96 -25)"><path class="cls-1" d="M132,44.8c0,3.18-2.59,7.28-5.83,9.14s-5.83.72-5.83-2.45a6.39,6.39,0,0,1,.13-1.06,12.52,12.52,0,0,1,5.7-8.08,5,5,0,0,1,.66-.33c3-1.33,5.17-.2,5.17,2.78"/></clipPath><linearGradient id="Degradado_sin_nombre_299" x1="-8365.95" y1="13672.67" x2="-8373.23" y2="13684.39" gradientUnits="userSpaceOnUse"><stop offset="0" stop-color="#78787a"/><stop offset="0.16" stop-color="#78787a"/><stop offset="0.56" stop-color="#b0b2b3"/><stop offset="0.87" stop-color="#aaadae"/><stop offset="1" stop-color="#aaadae"/></linearGradient><clipPath id="clip-path-5" transform="translate(-5.96 -25)"><path class="cls-1" d="M128.86,43.87c0,2.39-3,6.69-5.37,8.15h-.06a.19.19,0,0,1-.13-.07c-.14,0-.2-.07-.34-.13s-.06,0-.13-.07a14.64,14.64,0,0,1-2.18-1,.93.93,0,0,1-.14-.47,9.15,9.15,0,0,1,.34-1.32,12.73,12.73,0,0,1,4.56-6.22,5.27,5.27,0,0,1,.8-.53c.2-.14.4-.2.59-.33a10.33,10.33,0,0,1,1.73,1.52,2.94,2.94,0,0,0,.33.46"/></clipPath><linearGradient id="Degradado_sin_nombre_299-2" x1="-9092.56" y1="16141.69" x2="-9097.86" y2="16150.96" xlink:href="#Degradado_sin_nombre_299"/><clipPath id="clip-path-6" transform="translate(-5.96 -25)"><path class="cls-1" d="M127.6,46.72a3.8,3.8,0,0,1-1.85,2.91c-1,.6-1.86.27-1.86-.79v-.33a4.14,4.14,0,0,1,1.79-2.59c.07-.06.13-.06.2-.13,1-.4,1.72,0,1.72.93"/></clipPath><linearGradient id="Degradado_sin_nombre_299-3" x1="-8993.78" y1="12144.56" x2="-8996.43" y2="12148.08" xlink:href="#Degradado_sin_nombre_299"/><clipPath id="clip-path-7" transform="translate(-5.96 -25)"><path class="cls-1" d="M82.71,60.09c0,2.32.79,4,2.11,4.84,1.79,1.19,5.63,3.24,5.63,3.24,5.37-3.11,16-13.9,16-19.27,0-2.31-5-4.1-6.42-5-1.79-1.13-4.5-1-7.55.79-5.36,3.11-9.73,10-9.73,15.36"/></clipPath><linearGradient id="Degradado_sin_nombre_295-3" x1="-8944.88" y1="15935.64" x2="-8957.46" y2="15957.79" xlink:href="#Degradado_sin_nombre_295"/><clipPath id="clip-path-8" transform="translate(-5.96 -25)"><path class="cls-1" d="M88.93,63.6c0,2.32.79,4,2.12,4.84,1.79,1.19,5.63,3.24,5.63,3.24,5.36-3.11,16-13.9,16-19.27,0-2.31-5-4.1-6.43-5-1.79-1.13-4.5-1-7.55.79-5.36,3.11-9.73,10-9.73,15.36"/></clipPath><linearGradient id="Degradado_sin_nombre_295-4" x1="-9169.72" y1="15530.39" x2="-9182.96" y2="15552.54" xlink:href="#Degradado_sin_nombre_295"/><clipPath id="clip-path-9" transform="translate(-5.96 -25)"><path class="cls-1" d="M97.07,64.53c0,3.58,2.92,4.77,6.49,2.72s6.49-6.63,6.49-10.2-2.91-4.77-6.49-2.72S97.07,61,97.07,64.53"/></clipPath><linearGradient id="Degradado_sin_nombre_296-2" x1="9363.15" y1="10867.04" x2="9357.19" y2="10860.08" xlink:href="#Degradado_sin_nombre_296"/><clipPath id="clip-path-10" transform="translate(-5.96 -25)"><path class="cls-1" d="M109.72,57.71c0,3.18-2.58,7.28-5.83,9.14s-5.82.73-5.82-2.45a5.48,5.48,0,0,1,.13-1.06,12.53,12.53,0,0,1,5.69-8.08c.27-.13.47-.26.67-.33,2.91-1.32,5.16-.2,5.16,2.78"/></clipPath><linearGradient id="Degradado_sin_nombre_299-4" x1="-8690.6" y1="13005.35" x2="-8698.55" y2="13017.07" xlink:href="#Degradado_sin_nombre_299"/><clipPath id="clip-path-11" transform="translate(-5.96 -25)"><path class="cls-1" d="M106.48,56.78c0,2.39-3,6.69-5.37,8.15h-.06a.19.19,0,0,1-.13-.07c-.14,0-.2-.06-.34-.13s-.06,0-.13-.07a14.64,14.64,0,0,1-2.18-1,.89.89,0,0,1-.14-.46,9.27,9.27,0,0,1,.34-1.33A12.73,12.73,0,0,1,103,55.66a5.27,5.27,0,0,1,.8-.53c.2-.13.4-.2.59-.33a11.28,11.28,0,0,1,1.73,1.52,3.91,3.91,0,0,1,.33.46"/></clipPath><linearGradient id="Degradado_sin_nombre_299-5" x1="-9114.83" y1="16154.41" x2="-9120.13" y2="16163.68" xlink:href="#Degradado_sin_nombre_299"/><clipPath id="clip-path-12" transform="translate(-5.96 -25)"><path class="cls-1" d="M105.29,59.63a3.79,3.79,0,0,1-1.86,2.91c-1,.6-1.85.27-1.85-.79v-.33a4.09,4.09,0,0,1,1.79-2.58c.06-.07.13-.07.19-.14,1-.39,1.73,0,1.73.93"/></clipPath><linearGradient id="Degradado_sin_nombre_299-6" x1="-8538.17" y1="13450.19" x2="-8540.82" y2="13454.31" xlink:href="#Degradado_sin_nombre_299"/><clipPath id="clip-path-13" transform="translate(-5.96 -25)"><path class="cls-1" d="M137.93,66.32c0,2.32.79,4,2.12,4.83,1.79,1.19,5.63,3.25,5.63,3.25,5.36-3.12,15.95-13.91,15.95-19.27,0-2.32-5-4.11-6.42-5-1.79-1.12-4.5-1-7.55.8-5.43,3.11-9.73,10-9.73,15.36"/></clipPath><linearGradient id="Degradado_sin_nombre_295-5" x1="-9248.22" y1="15288.99" x2="-9261.46" y2="15310.49" xlink:href="#Degradado_sin_nombre_295"/><clipPath id="clip-path-14" transform="translate(-5.96 -25)"><path class="cls-1" d="M144.15,69.83c0,2.32.8,4,2.12,4.83,1.79,1.19,5.63,3.25,5.63,3.25,5.36-3.12,16-13.91,16-19.27,0-2.32-5-4.11-6.42-5-1.79-1.12-4.51-1-7.55.8-5.43,3.11-9.74,10-9.74,15.36"/></clipPath><linearGradient id="Degradado_sin_nombre_295-6" x1="-8881.68" y1="15948.48" x2="-8894.26" y2="15970.64" xlink:href="#Degradado_sin_nombre_295"/><clipPath id="clip-path-15" transform="translate(-5.96 -25)"><path class="cls-1" d="M152.23,70.69c0,3.57,2.91,4.77,6.49,2.71s6.49-6.62,6.49-10.19-2.91-4.77-6.49-2.72-6.49,6.62-6.49,10.2"/></clipPath><linearGradient id="Degradado_sin_nombre_296-3" x1="-8534.8" y1="12927.1" x2="-8543.41" y2="12939.87" xlink:href="#Degradado_sin_nombre_296"/><clipPath id="clip-path-16" transform="translate(-5.96 -25)"><path class="cls-1" d="M164.94,63.93c0,3.18-2.58,7.29-5.82,9.14s-5.83.73-5.83-2.45a6.39,6.39,0,0,1,.13-1.06,12.5,12.5,0,0,1,5.7-8.07,5.25,5.25,0,0,1,.66-.34c2.91-1.39,5.16-.19,5.16,2.78"/></clipPath><linearGradient id="Degradado_sin_nombre_299-7" x1="-8319.78" y1="13650.38" x2="-8327.06" y2="13662.08" xlink:href="#Degradado_sin_nombre_299"/><clipPath id="clip-path-17" transform="translate(-5.96 -25)"><path class="cls-1" d="M161.7,63c0,2.38-3,6.69-5.36,8.14h-.07a.2.2,0,0,1-.13-.06c-.13,0-.2-.07-.33-.14s-.07,0-.14-.06a13.86,13.86,0,0,1-2.18-1,.89.89,0,0,1-.13-.46,9.1,9.1,0,0,1,.33-1.32,12.82,12.82,0,0,1,4.57-6.23,5.2,5.2,0,0,1,.79-.53c.2-.13.4-.2.6-.33a11.1,11.1,0,0,1,1.72,1.52,4.35,4.35,0,0,1,.33.47"/></clipPath><linearGradient id="Degradado_sin_nombre_298" x1="-9059.84" y1="16161.05" x2="-9065.14" y2="16170.32" gradientUnits="userSpaceOnUse"><stop offset="0" stop-color="#b0b2b3"/><stop offset="0.13" stop-color="#b0b2b3"/><stop offset="0.44" stop-color="#8e9193"/><stop offset="0.84" stop-color="#8e9193"/><stop offset="1" stop-color="#78787a"/></linearGradient><clipPath id="clip-path-18" transform="translate(-5.96 -25)"><path class="cls-1" d="M160.44,65.79a3.77,3.77,0,0,1-1.85,2.91c-1,.6-1.86.27-1.86-.79v-.33A4.18,4.18,0,0,1,158.52,65c.07-.06.13-.06.2-.13,1.06-.33,1.72,0,1.72.93"/></clipPath><linearGradient id="Degradado_sin_nombre_299-8" x1="-7992.95" y1="14593.63" x2="-7994.93" y2="14597.18" xlink:href="#Degradado_sin_nombre_299"/><clipPath id="clip-path-19" transform="translate(-5.96 -25)"><path class="cls-1" d="M115.55,79.23c0,2.32.79,4,2.12,4.83,1.79,1.2,5.63,3.25,5.63,3.25,5.36-3.11,16-13.91,16-19.27,0-2.32-5-4.1-6.42-5-1.79-1.12-4.5-1-7.55.8-5.36,3.11-9.73,9.93-9.73,15.36"/></clipPath><linearGradient id="Degradado_sin_nombre_295-7" x1="-9141.54" y1="15549.44" x2="-9154.79" y2="15571.59" xlink:href="#Degradado_sin_nombre_295"/><clipPath id="clip-path-20" transform="translate(-5.96 -25)"><path class="cls-1" d="M121.77,82.74c0,2.32.8,4,2.12,4.83,1.79,1.2,5.63,3.25,5.63,3.25,5.36-3.11,16-13.91,16-19.27,0-2.32-5-4.11-6.43-5-1.78-1.12-4.5-1-7.54.8-5.37,3.11-9.74,9.93-9.74,15.36"/></clipPath><linearGradient id="Degradado_sin_nombre_295-8" x1="-8905.75" y1="15958.19" x2="-8918.33" y2="15980.34" xlink:href="#Degradado_sin_nombre_295"/><clipPath id="clip-path-21" transform="translate(-5.96 -25)"><path class="cls-1" d="M129.92,83.6c0,3.58,2.91,4.77,6.49,2.72s6.48-6.63,6.48-10.2-2.91-4.77-6.48-2.72-6.49,6.62-6.49,10.2"/></clipPath><linearGradient id="Degradado_sin_nombre_296-4" x1="-8107.46" y1="13893.75" x2="-8115.41" y2="13907.1" xlink:href="#Degradado_sin_nombre_296"/><clipPath id="clip-path-22" transform="translate(-5.96 -25)"><path class="cls-1" d="M142.56,76.85c0,3.17-2.58,7.28-5.82,9.13s-5.83.73-5.83-2.45a6.53,6.53,0,0,1,.13-1.06,12.53,12.53,0,0,1,5.7-8.07,4,4,0,0,1,.66-.33c2.91-1.39,5.16-.2,5.16,2.78"/></clipPath><linearGradient id="Degradado_sin_nombre_299-9" x1="-8342.06" y1="13663.14" x2="-8349.35" y2="13674.84" xlink:href="#Degradado_sin_nombre_299"/><clipPath id="clip-path-23" transform="translate(-5.96 -25)"><path class="cls-1" d="M139.32,75.85c0,2.39-3,6.69-5.36,8.15h-.07a.19.19,0,0,1-.13-.07.62.62,0,0,1-.33-.13c-.07,0-.07,0-.14-.07a14.64,14.64,0,0,1-2.18-1,.92.92,0,0,1-.13-.46,9.22,9.22,0,0,1,.33-1.33,12.75,12.75,0,0,1,4.57-6.22,5.2,5.2,0,0,1,.79-.53c.2-.13.4-.2.6-.33A11.1,11.1,0,0,1,139,75.39a2.94,2.94,0,0,0,.33.46"/></clipPath><linearGradient id="Degradado_sin_nombre_298-2" x1="-9082.14" y1="16173.75" x2="-9087.44" y2="16183.02" xlink:href="#Degradado_sin_nombre_298"/><clipPath id="clip-path-24" transform="translate(-5.96 -25)"><path class="cls-1" d="M138.13,78.7a3.79,3.79,0,0,1-1.86,2.91c-1,.6-1.85.27-1.85-.79v-.33a4.12,4.12,0,0,1,1.79-2.58c.06-.07.13-.07.2-.14,1-.39,1.72,0,1.72.93"/></clipPath><linearGradient id="Degradado_sin_nombre_299-10" x1="-8506.8" y1="13465.93" x2="-8509.45" y2="13470.04" xlink:href="#Degradado_sin_nombre_299"/><clipPath id="clip-path-25" transform="translate(-5.96 -25)"><path class="cls-1" d="M121,48.77v2.39c0,1.58,2,2.91,4.44,2.91s4.44-1.33,4.44-2.91V48.64Z"/></clipPath><linearGradient id="Degradado_sin_nombre_285" x1="114.82" y1="26.35" x2="123.43" y2="26.35" gradientUnits="userSpaceOnUse"><stop offset="0" stop-color="#504d51"/><stop offset="0.16" stop-color="#504d51"/><stop offset="0.56" stop-color="#828587"/><stop offset="0.87" stop-color="#7e7f82"/><stop offset="1" stop-color="#7e7f82"/></linearGradient><clipPath id="clip-path-26" transform="translate(-5.96 -25)"><path class="cls-1" d="M117.27,46.52v1.06c0,3,3.71,5.36,8.21,5.36s8.21-2.38,8.21-5.36V46.26Z"/></clipPath><linearGradient id="Degradado_sin_nombre_299-11" x1="110.84" y1="24.6" x2="127.4" y2="24.6" xlink:href="#Degradado_sin_nombre_299"/><clipPath id="clip-path-27" transform="translate(-5.96 -25)"><path class="cls-1" d="M50.72,44.67V73.54c0,.79,1,1.52,2.32,1.52s2.32-.66,2.32-1.52V44.6Z"/></clipPath><linearGradient id="Degradado_sin_nombre_306" x1="44.63" y1="34.83" x2="49.27" y2="34.83" gradientUnits="userSpaceOnUse"><stop offset="0" stop-color="#a4a6a7"/><stop offset="0.16" stop-color="#a4a6a7"/><stop offset="0.56" stop-color="#dcdce1"/><stop offset="0.87" stop-color="#d6d8db"/><stop offset="1" stop-color="#d6d8db"/></linearGradient><clipPath id="clip-path-28" transform="translate(-5.96 -25)"><path class="cls-1" d="M28.81,82.87V84c0,1.26,1.59,2.32,3.51,2.32s3.51-1,3.51-2.32V82.74Z"/></clipPath><linearGradient id="Degradado_sin_nombre_306-2" x1="22.78" y1="59.53" x2="29.4" y2="59.53" xlink:href="#Degradado_sin_nombre_306"/><clipPath id="clip-path-29" transform="translate(-5.96 -25)"><path class="cls-1" d="M28.41,81v1.26c0,1.39,1.72,2.51,3.91,2.51s3.9-1.12,3.9-2.51V80.89Z"/></clipPath><linearGradient id="Degradado_sin_nombre_303" x1="22.12" y1="57.84" x2="30.06" y2="57.84" gradientUnits="userSpaceOnUse"><stop offset="0" stop-color="#bbbcbd"/><stop offset="0.16" stop-color="#bbbcbd"/><stop offset="0.56" stop-color="#f1f4fb"/><stop offset="0.87" stop-color="#eceff6"/><stop offset="1" stop-color="#eceff6"/></linearGradient><clipPath id="clip-path-30" transform="translate(-5.96 -25)"><path class="cls-1" d="M28.81,77.44v3.18c0,1.26,1.59,2.32,3.51,2.32s3.51-1,3.51-2.32V77.38Z"/></clipPath><linearGradient id="Degradado_sin_nombre_306-3" x1="22.78" y1="55.16" x2="29.4" y2="55.16" xlink:href="#Degradado_sin_nombre_306"/><clipPath id="clip-path-31" transform="translate(-5.96 -25)"><path class="cls-1" d="M28.41,75.19v1.26c0,1.39,1.72,2.52,3.91,2.52s3.9-1.13,3.9-2.52V75.06Z"/></clipPath><linearGradient id="Degradado_sin_nombre_303-2" x1="22.12" y1="52.01" x2="30.06" y2="52.01" xlink:href="#Degradado_sin_nombre_303"/><clipPath id="clip-path-32" transform="translate(-5.96 -25)"><path class="cls-1" d="M28.81,73.8v1.13c0,1.25,1.59,2.31,3.51,2.31s3.51-1,3.51-2.31V73.67Z"/></clipPath><linearGradient id="Degradado_sin_nombre_306-4" x1="22.78" y1="50.46" x2="29.4" y2="50.46" xlink:href="#Degradado_sin_nombre_306"/><clipPath id="clip-path-33" transform="translate(-5.96 -25)"><path class="cls-1" d="M15.43,103.73v1.46a.68.68,0,0,1-.33.59c-.2.07-1.19.86-1.39.73l-3.31-4A1.75,1.75,0,0,1,9.54,101l-1.72-.72c0-.2,1.06-.67,1.19-.8s.07,0,.07-.06a.57.57,0,0,1,.66,0l4.83,2.78a1.82,1.82,0,0,1,.86,1.52"/></clipPath><linearGradient id="Degradado_sin_nombre_305" x1="9125.72" y1="15705.56" x2="9128.37" y2="15710.1" gradientUnits="userSpaceOnUse"><stop offset="0" stop-color="#dcdce1"/><stop offset="0.13" stop-color="#dcdce1"/><stop offset="0.44" stop-color="#bdbec0"/><stop offset="0.84" stop-color="#bdbec0"/><stop offset="1" stop-color="#a4a6a7"/></linearGradient><clipPath id="clip-path-34" transform="translate(-5.96 -25)"><path class="cls-1" d="M96.48,104.79l14.57-8.61c1.92-1.12,2.11-4.44.39-7.41s-4.7-4.51-6.62-3.38L90.06,94.13Z"/></clipPath><linearGradient id="Degradado_sin_nombre_306-5" x1="8963.63" y1="15623.7" x2="8957.81" y2="15613.5" xlink:href="#Degradado_sin_nombre_306"/><clipPath id="clip-path-35" transform="translate(-5.96 -25)"><path class="cls-1" d="M48.74,126.24c0,2.32.79,4,2.12,4.84,1.79,1.19,5.63,3.24,5.63,3.24,5.36-3.11,15.95-13.9,15.95-19.27,0-2.32-5-4.1-6.42-5-1.79-1.13-4.5-1-7.55.79-5.43,3.11-9.73,9.93-9.73,15.36"/></clipPath><linearGradient id="Degradado_sin_nombre_295-9" x1="-9208.37" y1="15596.48" x2="-9221.61" y2="15618.64" xlink:href="#Degradado_sin_nombre_295"/><clipPath id="clip-path-36" transform="translate(-5.96 -25)"><path class="cls-1" d="M56.82,127.1c0,3.58,2.91,4.77,6.49,2.72s6.48-6.62,6.48-10.2-2.91-4.77-6.48-2.71-6.49,6.62-6.49,10.19"/></clipPath><linearGradient id="Degradado_sin_nombre_296-5" x1="-8627.94" y1="12988.83" x2="-8636.55" y2="13001.61" xlink:href="#Degradado_sin_nombre_296"/><clipPath id="clip-path-37" transform="translate(-5.96 -25)"><path class="cls-1" d="M69.53,120.28c0,3.18-2.58,7.29-5.83,9.14s-5.82.73-5.82-2.45a5.48,5.48,0,0,1,.13-1.06,12.53,12.53,0,0,1,5.69-8.08c.27-.13.47-.26.66-.33,2.92-1.32,5.17-.13,5.17,2.78"/></clipPath><linearGradient id="Degradado_sin_nombre_299-12" x1="-8729.01" y1="13044.31" x2="-8736.96" y2="13056.02" xlink:href="#Degradado_sin_nombre_299"/><clipPath id="clip-path-38" transform="translate(-5.96 -25)"><path class="cls-1" d="M66.29,119.36c0,2.38-3,6.68-5.37,8.14h-.06a.22.22,0,0,1-.14-.07.65.65,0,0,1-.33-.13c-.06,0-.06,0-.13-.06a14.32,14.32,0,0,1-2.19-1,1,1,0,0,1-.13-.46,11.22,11.22,0,0,1,.33-1.33,12.8,12.8,0,0,1,4.57-6.22,5.27,5.27,0,0,1,.8-.53c.2-.13.39-.2.59-.33A10.64,10.64,0,0,1,66,118.89a4.38,4.38,0,0,0,.34.47"/></clipPath><linearGradient id="Degradado_sin_nombre_298-3" x1="-9155.21" y1="16217.32" x2="-9160.51" y2="16226.59" xlink:href="#Degradado_sin_nombre_298"/><clipPath id="clip-path-39" transform="translate(-5.96 -25)"><path class="cls-1" d="M65,122.2a3.8,3.8,0,0,1-1.86,2.92c-1,.59-1.85.26-1.85-.8V124a4.12,4.12,0,0,1,1.79-2.58c.06-.07.13-.07.2-.13,1-.4,1.72,0,1.72.92"/></clipPath><linearGradient id="Degradado_sin_nombre_299-13" x1="-8060.66" y1="14494.84" x2="-8062.65" y2="14498.36" xlink:href="#Degradado_sin_nombre_299"/><clipPath id="clip-path-40" transform="translate(-5.96 -25)"><path class="cls-1" d="M64.83,105.12v1.13c0,1.25,1.59,2.31,3.51,2.31s3.51-1,3.51-2.31V105Z"/></clipPath><linearGradient id="Degradado_sin_nombre_306-6" x1="58.54" y1="81.77" x2="65.82" y2="81.77" xlink:href="#Degradado_sin_nombre_306"/><clipPath id="clip-path-41" transform="translate(-5.96 -25)"><path class="cls-1" d="M64.43,103.27v1.25c0,1.39,1.72,2.52,3.91,2.52s3.9-1.13,3.9-2.52v-1.39Z"/></clipPath><linearGradient id="Degradado_sin_nombre_303-3" x1="57.87" y1="80.09" x2="65.82" y2="80.09" xlink:href="#Degradado_sin_nombre_303"/><clipPath id="clip-path-42" transform="translate(-5.96 -25)"><path class="cls-1" d="M64.83,99.69v3.18c0,1.26,1.59,2.32,3.51,2.32s3.51-1,3.51-2.32V99.62Z"/></clipPath><linearGradient id="Degradado_sin_nombre_306-7" x1="58.54" y1="77.4" x2="65.82" y2="77.4" xlink:href="#Degradado_sin_nombre_306"/><clipPath id="clip-path-43" transform="translate(-5.96 -25)"><path class="cls-1" d="M64.43,97.44V98.7c0,1.39,1.72,2.51,3.91,2.51s3.9-1.12,3.9-2.51V97.31Z"/></clipPath><linearGradient id="Degradado_sin_nombre_303-4" x1="57.87" y1="74.26" x2="65.82" y2="74.26" xlink:href="#Degradado_sin_nombre_303"/><clipPath id="clip-path-44" transform="translate(-5.96 -25)"><path class="cls-1" d="M64.83,96.05v1.12c0,1.26,1.59,2.32,3.51,2.32s3.51-1,3.51-2.32V95.92Z"/></clipPath><linearGradient id="Degradado_sin_nombre_306-8" x1="58.54" y1="72.7" x2="65.82" y2="72.7" xlink:href="#Degradado_sin_nombre_306"/><clipPath id="clip-path-45" transform="translate(-5.96 -25)"><path class="cls-1" d="M49.47,123.4v1.45a.71.71,0,0,1-.33.6c-.2.06-1.2.86-1.39.73l-3.32-4a1.75,1.75,0,0,1-.86-1.52L41.85,120c0-.2,1.06-.66,1.19-.79a.07.07,0,0,0,.07-.07.61.61,0,0,1,.66,0l4.84,2.78a1.75,1.75,0,0,1,.86,1.53"/></clipPath><linearGradient id="Degradado_sin_nombre_305-2" x1="9782.5" y1="14420.06" x2="9785.15" y2="14423.95" xlink:href="#Degradado_sin_nombre_305"/><clipPath id="clip-path-46" transform="translate(-5.96 -25)"><path class="cls-1" d="M84.76,64.73V97.17c0,.8,1,1.53,2.32,1.53s2.31-.66,2.31-1.53V64.66Z"/></clipPath><linearGradient id="Degradado_sin_nombre_306-9" x1="78.4" y1="56.68" x2="83.04" y2="56.68" xlink:href="#Degradado_sin_nombre_306"/></defs><polygon class="cls-2" points="164.41 26.42 166.4 25.36 130.51 4.63 128.52 5.69 164.41 26.42"/><polygon class="cls-3" points="164.41 32.05 166.4 31.05 166.4 25.36 164.41 26.42 164.41 32.05"/><polygon class="cls-4" points="128.52 5.69 164.41 26.42 164.41 32.05 128.52 11.39 128.52 5.69"/><g class="cls-5"><rect class="cls-6" x="99.12" y="4.9" width="23.7" height="25.36"/></g><path class="cls-7" d="M127.8,34.31c-3.24-2.44-9.35.2-13.63,5.9S109,52.51,112.28,55s9.35-.2,13.63-5.9,5.14-12.3,1.89-14.74" transform="translate(-5.96 -25)"/><g class="cls-8"><rect class="cls-9" x="105.28" y="8.41" width="23.71" height="25.36"/></g><path class="cls-7" d="M134,37.82c-3.25-2.44-9.35.2-13.64,5.9S115.26,56,118.5,58.46s9.35-.21,13.64-5.91,5.13-12.29,1.89-14.73" transform="translate(-5.96 -25)"/><g class="cls-10"><rect class="cls-11" x="113.43" y="14.37" width="12.98" height="17.02"/></g><path class="cls-12" d="M131.44,41.25c-2.14-1.6-6.18.18-9,4S119,53.41,121.09,55s6.18-.17,9-4,3.44-8.18,1.31-9.79" transform="translate(-5.96 -25)"/><g class="cls-13"><rect class="cls-14" x="114.42" y="15.69" width="11.65" height="15.1"/></g><path class="cls-15" d="M129.25,44.47h0c0,2.45-2,5.56-4.37,7a4.17,4.17,0,0,1-1.25.53,2.15,2.15,0,0,1-2.85-1.13.89.89,0,0,1-.13-.46A9.1,9.1,0,0,1,121,49a12.82,12.82,0,0,1,4.57-6.23,5.2,5.2,0,0,1,.79-.53c.2-.13.4-.2.6-.33s.06-.06.13-.06a2.31,2.31,0,0,1,2.18,2.58" transform="translate(-5.96 -25)"/><g class="cls-16"><rect class="cls-17" x="114.55" y="16.88" width="8.34" height="10.13"/></g><path class="cls-18" d="M129.39,45.46a7.83,7.83,0,0,1-3.78,6c-2,1.19-3.77.46-3.77-1.59a2.84,2.84,0,0,1,.07-.73,8.2,8.2,0,0,1,3.7-5.23,1.58,1.58,0,0,1,.47-.2c1.85-.92,3.31-.13,3.31,1.79" transform="translate(-5.96 -25)"/><g class="cls-19"><rect class="cls-20" x="117.93" y="20.39" width="3.71" height="4.83"/></g><path class="cls-15" d="M126,47a1.68,1.68,0,0,1-.73,1.2c-.4.26-.73.06-.73-.34v-.13a1.4,1.4,0,0,1,.73-1,.07.07,0,0,0,.07-.07c.4-.2.66-.06.66.33" transform="translate(-5.96 -25)"/><g class="cls-21"><rect class="cls-22" x="76.74" y="17.81" width="23.7" height="25.36"/></g><path class="cls-7" d="M105.44,47.24c-3.25-2.44-9.35.2-13.64,5.9s-5.13,12.3-1.88,14.74,9.34-.2,13.63-5.9,5.13-12.3,1.89-14.74" transform="translate(-5.96 -25)"/><g class="cls-23"><rect class="cls-24" x="82.97" y="21.32" width="23.71" height="25.36"/></g><path class="cls-7" d="M111.66,50.75c-3.24-2.44-9.35.2-13.63,5.9S92.9,68.94,96.14,71.38s9.35-.2,13.64-5.9,5.13-12.29,1.88-14.73" transform="translate(-5.96 -25)"/><g class="cls-25"><rect class="cls-26" x="91.11" y="27.28" width="12.98" height="17.02"/></g><path class="cls-12" d="M97.47,64.8c0,3.57,2.92,4.76,6.49,2.71s6.49-6.62,6.49-10.2-2.91-4.76-6.49-2.71-6.49,6.62-6.49,10.2" transform="translate(-5.96 -25)"/><g class="cls-27"><rect class="cls-28" x="92.1" y="28.6" width="11.65" height="15.1"/></g><path class="cls-15" d="M106.87,57.38h0c0,2.45-2,5.56-4.37,6.95a3.71,3.71,0,0,1-1.25.53,2.15,2.15,0,0,1-2.85-1.12,1,1,0,0,1-.13-.47A9.1,9.1,0,0,1,98.6,62a12.82,12.82,0,0,1,4.57-6.23,7.27,7.27,0,0,1,.79-.53c.2-.13.4-.19.6-.33s.06-.06.13-.06a2.27,2.27,0,0,1,2.18,2.58" transform="translate(-5.96 -25)"/><g class="cls-29"><rect class="cls-30" x="92.17" y="29.8" width="8.34" height="10.13"/></g><path class="cls-18" d="M107.07,58.37a7.85,7.85,0,0,1-3.77,6c-2,1.19-3.78.47-3.78-1.59a2.84,2.84,0,0,1,.07-.73,8.18,8.18,0,0,1,3.71-5.23,1.5,1.5,0,0,1,.46-.19c1.86-.93,3.31-.14,3.31,1.78" transform="translate(-5.96 -25)"/><g class="cls-31"><rect class="cls-32" x="95.61" y="33.31" width="3.71" height="4.83"/></g><path class="cls-15" d="M103.7,59.9a1.71,1.71,0,0,1-.73,1.19c-.4.26-.73.06-.73-.33v-.14a1.4,1.4,0,0,1,.73-1,.06.06,0,0,0,.06-.07c.33-.19.67-.06.67.34" transform="translate(-5.96 -25)"/><polygon class="cls-33" points="132.69 23.97 131.17 24.83 131.17 14.96 132.69 14.04 132.69 23.97"/><path class="cls-34" d="M130.69,42.39c-1.84-1.39-5.31.12-7.75,3.36s-2.93,7-1.09,8.38,5.31-.12,7.75-3.36,2.93-7,1.09-8.38" transform="translate(-5.96 -25)"/><polygon class="cls-35" points="157.13 22.91 97.93 53.57 77.34 40.39 127.06 11.65 134.88 10.06 157.13 22.91"/><polygon class="cls-36" points="157.13 22.91 147.72 24.83 127.06 11.65 134.88 10.06 157.13 22.91"/><polygon class="cls-37" points="99.39 29.4 123.56 15.43 137.33 23.31 113.23 37.21 99.39 29.4"/><path class="cls-35" d="M133.69,49.63c0-3-3.68-5.36-8.21-5.36s-8.21,2.4-8.21,5.36S121,55,125.48,55s8.21-2.41,8.21-5.37" transform="translate(-5.96 -25)"/><polygon class="cls-38" points="157.13 27.48 97.93 61.58 97.93 53.57 147.72 24.83 157.13 22.91 157.13 27.48"/><polygon class="cls-36" points="113.23 37.21 137.33 23.31 138.78 26.15 111.77 41.78 113.23 37.21"/><g class="cls-39"><rect class="cls-40" x="131.97" y="24.04" width="23.71" height="25.36"/></g><path class="cls-7" d="M160.63,53.39c-3.25-2.44-9.35.21-13.64,5.91S141.86,71.59,145.11,74s9.34-.2,13.63-5.9,5.13-12.3,1.89-14.74" transform="translate(-5.96 -25)"/><g class="cls-41"><rect class="cls-42" x="138.19" y="27.55" width="23.7" height="25.36"/></g><path class="cls-7" d="M166.85,56.9c-3.25-2.44-9.35.2-13.64,5.9s-5.13,12.3-1.88,14.74,9.35-.21,13.63-5.91,5.13-12.29,1.89-14.73" transform="translate(-5.96 -25)"/><g class="cls-43"><rect class="cls-44" x="146.27" y="33.44" width="12.98" height="17.02"/></g><path class="cls-12" d="M164.26,60.34c-2.13-1.61-6.18.17-9,4s-3.45,8.18-1.32,9.79,6.18-.18,9-4,3.45-8.18,1.31-9.78" transform="translate(-5.96 -25)"/><g class="cls-45"><rect class="cls-46" x="147.33" y="34.76" width="11.65" height="15.16"/></g><path class="cls-15" d="M162.1,63.6h0c0,2.45-2,5.57-4.37,7a4.21,4.21,0,0,1-1.26.53A2.16,2.16,0,0,1,153.62,70a1,1,0,0,1-.13-.46,10.76,10.76,0,0,1,.33-1.33A12.8,12.8,0,0,1,158.39,62a5.2,5.2,0,0,1,.79-.53c.2-.13.4-.2.6-.33s.07-.07.13-.07a2.29,2.29,0,0,1,2.19,2.58" transform="translate(-5.96 -25)"/><g class="cls-47"><rect class="cls-48" x="147.39" y="36.02" width="8.34" height="10.13"/></g><path class="cls-18" d="M162.23,64.6a7.86,7.86,0,0,1-3.77,6c-2.06,1.19-3.78.46-3.78-1.59a2.8,2.8,0,0,1,.07-.73A8.18,8.18,0,0,1,158.46,63a1.32,1.32,0,0,1,.46-.2c1.85-.93,3.31-.2,3.31,1.79" transform="translate(-5.96 -25)"/><g class="cls-49"><rect class="cls-50" x="150.77" y="39.53" width="3.71" height="4.77"/></g><path class="cls-15" d="M158.85,66.05a1.68,1.68,0,0,1-.73,1.2c-.39.26-.72.06-.72-.34v-.13a1.37,1.37,0,0,1,.72-1,.07.07,0,0,0,.07-.07c.4-.2.66-.06.66.33" transform="translate(-5.96 -25)"/><g class="cls-51"><rect class="cls-52" x="109.58" y="36.95" width="23.7" height="25.36"/></g><path class="cls-7" d="M138.31,66.27c-3.25-2.44-9.35.21-13.64,5.9s-5.13,12.3-1.89,14.74,9.35-.2,13.64-5.9,5.13-12.3,1.89-14.74" transform="translate(-5.96 -25)"/><g class="cls-53"><rect class="cls-54" x="115.81" y="40.46" width="23.7" height="25.36"/></g><path class="cls-7" d="M144.49,69.83c-3.25-2.44-9.35.2-13.64,5.9S125.72,88,129,90.47s9.35-.21,13.64-5.91,5.13-12.29,1.89-14.73" transform="translate(-5.96 -25)"/><g class="cls-55"><rect class="cls-56" x="123.95" y="46.35" width="12.98" height="17.02"/></g><path class="cls-12" d="M130.31,83.87c0,3.57,2.92,4.76,6.49,2.71s6.49-6.62,6.49-10.2-2.91-4.76-6.49-2.71-6.49,6.69-6.49,10.2" transform="translate(-5.96 -25)"/><g class="cls-57"><rect class="cls-58" x="124.95" y="47.67" width="11.65" height="15.16"/></g><path class="cls-15" d="M139.72,76.52h0c0,2.45-2,5.56-4.37,7a4.21,4.21,0,0,1-1.26.53,2.15,2.15,0,0,1-2.85-1.13.89.89,0,0,1-.13-.46,11.22,11.22,0,0,1,.33-1.33A12.8,12.8,0,0,1,136,74.86a5.2,5.2,0,0,1,.79-.53c.2-.13.4-.2.6-.33s.07-.07.13-.07c1.26,0,2.19.93,2.19,2.59" transform="translate(-5.96 -25)"/><g class="cls-59"><rect class="cls-60" x="125.01" y="48.87" width="8.34" height="10.13"/></g><path class="cls-18" d="M139.91,77.44a7.85,7.85,0,0,1-3.77,6c-2,1.19-3.77.47-3.77-1.59a3.3,3.3,0,0,1,.06-.73,8.21,8.21,0,0,1,3.71-5.23,1.53,1.53,0,0,1,.46-.2c1.86-.86,3.31-.13,3.31,1.79" transform="translate(-5.96 -25)"/><g class="cls-61"><rect class="cls-62" x="128.46" y="52.38" width="3.71" height="4.83"/></g><path class="cls-15" d="M136.54,79a1.68,1.68,0,0,1-.73,1.19c-.4.26-.73.06-.73-.33v-.14a1.4,1.4,0,0,1,.73-1,.07.07,0,0,0,.07-.07c.39-.19.66-.06.66.34" transform="translate(-5.96 -25)"/><path class="cls-63" d="M132.37,70c0,.53-3.58,4.17-6.69,9.8a38.25,38.25,0,0,0-3.58,8.34l-8.6-5.49a21.63,21.63,0,0,1,2.64-8.41,34.31,34.31,0,0,1,7.68-9.74Z" transform="translate(-5.96 -25)"/><path class="cls-64" d="M132.37,70c0,.53-3.58,4.17-6.69,9.8l-9.54-5.56a34.07,34.07,0,0,1,7.69-9.74Z" transform="translate(-5.96 -25)"/><path class="cls-63" d="M123.16,87.71,122,88.1C123,77.91,132,70.29,132.37,70l.53.73c-.07.06-8.88,7.48-9.74,17" transform="translate(-5.96 -25)"/><polygon class="cls-38" points="99.39 29.4 113.23 37.21 111.77 41.78 97.93 33.9 99.39 29.4"/><polygon class="cls-65" points="99.45 27.21 101.31 36.28 101.31 46.02 104.35 44.3 104.35 49.66 101.31 51.45 100.45 51.91 97.67 53.57 97.67 28.27 99.45 27.21"/><g class="cls-66"><rect class="cls-67" x="115.08" y="23.64" width="8.87" height="5.43"/></g><g class="cls-68"><rect class="cls-69" x="111.31" y="21.25" width="16.42" height="6.69"/></g><path class="cls-70" d="M133.69,46.52c0-3-3.68-5.36-8.21-5.36s-8.21,2.4-8.21,5.36,3.68,5.36,8.21,5.36,8.21-2.4,8.21-5.36" transform="translate(-5.96 -25)"/><g class="cls-71"><rect class="cls-72" x="44.76" y="19.6" width="4.63" height="30.46"/></g><path class="cls-73" d="M55.29,44.67c0,.79-1,1.52-2.31,1.52s-2.32-.66-2.32-1.52,1-1.53,2.32-1.53,2.31.73,2.31,1.53" transform="translate(-5.96 -25)"/><path class="cls-74" d="M56.82,32.15a2.89,2.89,0,0,1-1.13,2.52l-.6.53a2.23,2.23,0,0,0-.86,1.72v7.42a1.24,1.24,0,0,1-1.19.59,1.4,1.4,0,0,1-1.19-.59v-8a3.85,3.85,0,0,1,1.46-3L55.82,31c0-.07.86-.27,1,1.12" transform="translate(-5.96 -25)"/><path class="cls-75" d="M52.31,44.73v-8a3.87,3.87,0,0,1,1.46-3l2.52-2.25h.26a.69.69,0,0,0-.79-.39l-2.52,2.25a3.85,3.85,0,0,0-1.46,3v8c.14.19.34.39.53.39s.07,0,0,0" transform="translate(-5.96 -25)"/><path class="cls-76" d="M56.42,33.81,55.09,35a3.87,3.87,0,0,0-1.45,3V44.8c.33-.13.53-.27.59-.53V36.92a2.23,2.23,0,0,1,.86-1.72l.6-.53a3.88,3.88,0,0,0,.73-.86" transform="translate(-5.96 -25)"/><g class="cls-77"><rect class="cls-78" x="22.84" y="57.74" width="7.02" height="3.58"/></g><g class="cls-79"><rect class="cls-80" x="22.45" y="55.88" width="7.81" height="3.91"/></g><path class="cls-81" d="M36.22,81c0,1.39-1.72,2.51-3.9,2.51S28.41,82.41,28.41,81s1.72-2.52,3.91-2.52,3.9,1.13,3.9,2.52" transform="translate(-5.96 -25)"/><g class="cls-82"><rect class="cls-83" x="22.84" y="52.38" width="7.02" height="5.56"/></g><g class="cls-84"><rect class="cls-85" x="22.45" y="50.06" width="7.81" height="3.91"/></g><path class="cls-81" d="M36.22,75.19c0,1.39-1.72,2.52-3.9,2.52s-3.91-1.13-3.91-2.52,1.72-2.51,3.91-2.51,3.9,1.12,3.9,2.51" transform="translate(-5.96 -25)"/><g class="cls-86"><rect class="cls-87" x="22.84" y="48.67" width="7.02" height="3.58"/></g><path class="cls-73" d="M35.83,73.8c0,1.26-1.59,2.32-3.51,2.32s-5.7-.73-5.7-2,3.78-2.58,5.7-2.58,3.51,1,3.51,2.25" transform="translate(-5.96 -25)"/><path class="cls-34" d="M16,112.2c0,3.25,2.65,4.31,5.83,2.45s5.83-7.54,5.83-10.79S25,101.08,21.79,103c1-.59-5.83,11.19-5.83,9.2" transform="translate(-5.96 -25)"/><path class="cls-88" d="M38.81,98.3c-1-5.43-3.18-8.21-6.49-8.28a1.76,1.76,0,0,0-.6.07c-.33-.6-3.91.13-4.37.46-.26.14-4.44,5.56-11.59,18.28l-6.55-3.64C10.47,98.5,19.14,85.52,27,85.52h.07a6.4,6.4,0,0,1,2.84.66c1.13.53,6.36,2.85,7.29,4.37s1.12,5.17,1.59,7.75" transform="translate(-5.96 -25)"/><g class="cls-89"><rect class="cls-90" x="1.85" y="74.29" width="7.61" height="7.35"/></g><path class="cls-91" d="M14.24,104.46v1.45a.68.68,0,0,1-1,.6l-4.84-2.78a1.75,1.75,0,0,1-.86-1.52v-1.46a.69.69,0,0,1,1-.6l4.83,2.79a1.75,1.75,0,0,1,.86,1.52" transform="translate(-5.96 -25)"/><path class="cls-92" d="M10.53,103.27a.92.92,0,0,1-.13.46c-.2.33-.66.4-1.19.13a2.57,2.57,0,0,1-1.26-2c0-.53.27-.8.73-.73a.84.84,0,0,1,.53.2,2.14,2.14,0,0,1,1.32,1.92" transform="translate(-5.96 -25)"/><path class="cls-92" d="M13.38,104.92a1,1,0,0,1-.13.46c-.2.34-.66.4-1.19.14a2.58,2.58,0,0,1-1.26-2c0-.53.26-.79.73-.73a.92.92,0,0,1,.53.2,2.46,2.46,0,0,1,1.32,1.92" transform="translate(-5.96 -25)"/><path class="cls-93" d="M10.53,103.27a.92.92,0,0,1-.13.46.9.9,0,0,1-.53-.2,2.57,2.57,0,0,1-1.26-2,.93.93,0,0,1,.14-.46.87.87,0,0,1,.52.2,2.38,2.38,0,0,1,1.26,2" transform="translate(-5.96 -25)"/><path class="cls-93" d="M13.38,104.92a1,1,0,0,1-.13.46.88.88,0,0,1-.53-.19,2.58,2.58,0,0,1-1.26-2,1,1,0,0,1,.13-.46.88.88,0,0,1,.53.19,2.78,2.78,0,0,1,1.26,2" transform="translate(-5.96 -25)"/><polygon class="cls-94" points="9.67 84.36 76.41 42.51 76.41 32.18 9.67 74.03 9.67 84.36"/><polygon class="cls-95" points="29 69.72 47.94 60.39 47.94 53.57 29 64.49 29 69.72"/><polygon class="cls-95" points="48.34 64.82 76.41 48.6 76.41 37.94 48.34 54.16 48.34 64.82"/><polygon class="cls-95" points="76.41 32.58 49.59 48.07 49.59 51.05 76.41 35.56 76.41 32.58"/><path class="cls-64" d="M104.69,44,88.27,66.85,55.56,73.07V45.33c0-2.25,2-6.95,3.44-8.74,5.17-6.76,7.55-9,12.85-11.59Z" transform="translate(-5.96 -25)"/><path class="cls-96" d="M80.32,61.88c0-2.25,2.12-7.74,3.38-9.66,4.7-7.29,8.61-9.67,13.9-12.19V38.77L77.08,28.11c-5.3,2.52-9.47,7.55-12.32,14.7-.86,2.12-2.32,6-2.32,8.35l-1.72,25,20.66-4Z" transform="translate(-5.96 -25)"/><path class="cls-97" d="M80.32,60.62c0-2.25,2.12-7.74,3.38-9.66,4.7-7.29,8.61-9.67,13.9-12.19L77.08,26.92c-5.3,2.52-9.47,7.55-12.32,14.7-.86,2.12-2.32,6-2.32,8.34L60.72,75l20.66-4Z" transform="translate(-5.96 -25)"/><polygon class="cls-38" points="37.68 105.02 99.39 68.86 99.39 62.04 37.68 95.22 37.68 105.02"/><g class="cls-98"><rect class="cls-99" x="84.09" y="59.26" width="23.11" height="20.53"/></g><path class="cls-100" d="M90.25,93.93c1.92-1.13,4.9.4,6.63,3.38s1.52,6.29-.4,7.41-4.9-.39-6.62-3.37-1.53-6.29.39-7.42" transform="translate(-5.96 -25)"/><path class="cls-101" d="M90.19,95.45c1.52-.92,3.9.33,5.3,2.72s1.25,5-.34,6-3.9-.33-5.29-2.72-1.19-5.1.33-6" transform="translate(-5.96 -25)"/><polygon class="cls-102" points="61.84 93.83 80.78 82.9 80.78 76.15 61.84 87.07 61.84 93.83"/><polygon class="cls-101" points="79.72 80.58 79.72 77.47 77.47 78.66 77.47 79.39 77.47 82.37 79.72 83.23 79.72 80.58"/><polygon class="cls-75" points="80.78 82.64 63.1 92.83 65.29 94.09 82.97 83.89 80.78 82.64"/><polygon class="cls-65" points="78.6 74.89 60.92 85.08 63.04 86.34 80.78 76.08 78.6 74.89"/><polygon class="cls-3" points="63.1 92.83 63.1 93.36 65.29 94.55 65.29 94.09 63.1 92.83"/><polygon class="cls-2" points="82.97 84.36 65.29 94.55 65.29 94.09 82.97 83.89 82.97 84.36"/><polygon class="cls-75" points="77.54 79.39 59.86 89.59 62.04 90.85 79.72 80.58 77.54 79.39"/><polygon class="cls-2" points="79.72 81.11 62.04 91.31 62.04 90.85 79.72 80.58 79.72 81.11"/><polygon class="cls-63" points="64.49 83.96 82.44 73.56 82.44 38.93 65.29 49.13 65.82 54.69 66.74 53.04 64.49 67.41 64.49 83.96"/><path class="cls-63" d="M41.72,121,70.46,109V92.41c-6.56-3.51-28.74,12.91-28.74,12.91Z" transform="translate(-5.96 -25)"/><path class="cls-103" d="M75.62,119.62l-5.3-2.91a15.87,15.87,0,0,0-1.78-5.3c.19,0,.39-.07.59-.07,3.31,0,5.5,2.79,6.49,8.28" transform="translate(-5.96 -25)"/><g class="cls-104"><rect class="cls-105" x="42.77" y="83.96" width="23.7" height="25.36"/></g><path class="cls-7" d="M71.46,113.31c-3.25-2.44-9.35.2-13.64,5.9s-5.13,12.3-1.89,14.74,9.35-.2,13.64-5.9,5.13-12.3,1.89-14.74" transform="translate(-5.96 -25)"/><g class="cls-106"><rect class="cls-107" x="50.85" y="89.85" width="12.98" height="17.02"/></g><path class="cls-12" d="M68.87,116.75c-2.14-1.61-6.18.17-9,4s-3.45,8.18-1.31,9.79,6.18-.18,9-4,3.45-8.18,1.32-9.78" transform="translate(-5.96 -25)"/><g class="cls-108"><rect class="cls-109" x="51.91" y="91.18" width="11.65" height="15.1"/></g><path class="cls-15" d="M66.68,120h0c0,2.45-2,5.56-4.37,7a3.67,3.67,0,0,1-1.26.53,2.14,2.14,0,0,1-2.84-1.12.93.93,0,0,1-.14-.47,9.15,9.15,0,0,1,.34-1.32A12.73,12.73,0,0,1,63,118.3a5.27,5.27,0,0,1,.8-.53c.2-.14.4-.2.59-.33s.07-.07.14-.07A2.31,2.31,0,0,1,66.68,120" transform="translate(-5.96 -25)"/><g class="cls-110"><rect class="cls-111" x="51.98" y="92.37" width="8.34" height="10.13"/></g><path class="cls-18" d="M66.81,121a7.85,7.85,0,0,1-3.77,6c-2,1.2-3.77.47-3.77-1.58a3.25,3.25,0,0,1,.06-.73A8.21,8.21,0,0,1,63,119.36a1.32,1.32,0,0,1,.46-.2c1.86-.86,3.31-.14,3.31,1.79" transform="translate(-5.96 -25)"/><g class="cls-112"><rect class="cls-113" x="55.36" y="95.88" width="3.71" height="4.83"/></g><path class="cls-15" d="M63.44,122.47a1.64,1.64,0,0,1-.73,1.19c-.4.26-.73.07-.73-.33v-.13a1.4,1.4,0,0,1,.73-1s.07,0,.07-.06c.39-.2.66-.07.66.33" transform="translate(-5.96 -25)"/><path class="cls-75" d="M73.7,89a1.39,1.39,0,0,1-1.06-.53,1.37,1.37,0,0,1-.26-1.12l1.39-9.4A4.82,4.82,0,0,1,76,74.73l4.77-3a1.89,1.89,0,0,1,.79-.26,1.49,1.49,0,0,1,1.52,1.52v8.48a4,4,0,0,1-2,3.44l-6.82,4A1.56,1.56,0,0,1,73.7,89Z" transform="translate(-5.96 -25)"/><path class="cls-114" d="M74.1,88.43l6.82-4a3.49,3.49,0,0,0,1.72-3V73A1.08,1.08,0,0,0,81,72.08l-4.76,3A4.63,4.63,0,0,0,74.16,78l-1.39,9.4a.91.91,0,0,0,1.33,1" transform="translate(-5.96 -25)"/><path class="cls-75" d="M74,101.54a1.25,1.25,0,0,1-1.26-1.25V93.8a1.8,1.8,0,0,1,.93-1.59l2.58-1.52a1,1,0,0,1,.6-.2,1.25,1.25,0,0,1,1.26,1.25v6.49a1.77,1.77,0,0,1-.93,1.59l-2.58,1.53c-.13.19-.4.19-.6.19" transform="translate(-5.96 -25)"/><path class="cls-114" d="M77.08,99.49,74.5,101a.83.83,0,0,1-1.26-.72V93.8A1.23,1.23,0,0,1,74,92.61l2.58-1.53a.84.84,0,0,1,1.26.73V98.3a1.63,1.63,0,0,1-.73,1.19" transform="translate(-5.96 -25)"/><path class="cls-63" d="M104.69,86.25,88.4,95.65V68.11a20.84,20.84,0,0,1,1.39-7.55c1.85-4.5,9.73-15.17,14.9-16.56Z" transform="translate(-5.96 -25)"/><polygon class="cls-75" points="98.73 60.32 78.8 71.84 78.8 74.82 79.52 75.28 99.39 60.72 98.73 60.32"/><polygon class="cls-76" points="99.39 60.72 79.52 72.31 79.52 75.28 99.39 63.7 99.39 60.72"/><path class="cls-101" d="M90.19,96v.47a.7.7,0,0,1-.33.53l-2,1.19a.23.23,0,0,1-.33-.2v-.13l1.72-1a.67.67,0,0,0,.33-.53V96l.33-.2c.07-.13.27,0,.27.2" transform="translate(-5.96 -25)"/><path class="cls-115" d="M89.53,96v.33a.68.68,0,0,1-.34.53l-1.72,1v-.33A.69.69,0,0,1,87.8,97Z" transform="translate(-5.96 -25)"/><path class="cls-101" d="M104.42,87.57V88a.68.68,0,0,1-.33.53l-2,1.19a.22.22,0,0,1-.33-.2v-.13l1.72-1a.67.67,0,0,0,.33-.53v-.33l.33-.2c.07-.13.26,0,.26.2" transform="translate(-5.96 -25)"/><path class="cls-115" d="M103.76,87.57v.33a.67.67,0,0,1-.33.53l-1.72,1V89.1a.67.67,0,0,1,.33-.53Z" transform="translate(-5.96 -25)"/><path class="cls-101" d="M99.66,90.35v.47a.69.69,0,0,1-.33.53l-2,1.19a.22.22,0,0,1-.33-.2v-.13l1.72-1a.7.7,0,0,0,.33-.53v-.34l.33-.19c.07-.07.27.06.27.19" transform="translate(-5.96 -25)"/><path class="cls-115" d="M99,90.35v.34a.7.7,0,0,1-.33.53l-1.72,1v-.33a.67.67,0,0,1,.33-.53Z" transform="translate(-5.96 -25)"/><path class="cls-101" d="M95,93.2v.46a.68.68,0,0,1-.34.53l-2,1.2a.23.23,0,0,1-.33-.2v-.13l1.72-1a.67.67,0,0,0,.33-.53V93.2l.33-.2c.07-.13.27,0,.27.2" transform="translate(-5.96 -25)"/><path class="cls-115" d="M94.23,93.14v.33a.7.7,0,0,1-.33.53l-1.73,1v-.33a.68.68,0,0,1,.34-.53Z" transform="translate(-5.96 -25)"/><path class="cls-64" d="M38.94,57.18c.46,9.47,35.36,28.14,32.84,19C71.05,73.47,88.4,64.46,88.4,64.46S69.6,58,55.56,45.46c0,0-16.89,6.62-16.62,11.72" transform="translate(-5.96 -25)"/><path class="cls-96" d="M81.18,61.48C75,58.7,65.89,54.6,57.88,48,52,50.89,40.59,57.05,40.79,60.82a6.33,6.33,0,0,0,.27,1.53c3.9,5,12.58,10.79,19.73,14.1,3.24.59,5.36-.13,4.57-3C64.63,71,78.27,63.93,81.18,61.48" transform="translate(-5.96 -25)"/><path class="cls-97" d="M81.18,61.48a108,108,0,0,1-23.3-14C52,50.36,40.59,56.52,40.79,60.29a6.33,6.33,0,0,0,.27,1.53c3.9,5,12.58,10.79,19.73,14.1,3.24.6,5.36-.13,4.57-3-.73-2.38,12.51-9.66,15.82-11.39" transform="translate(-5.96 -25)"/><path class="cls-64" d="M70.13,92.47C63.5,94.33,44,103.53,44,103.53L18.74,88.37s9.27-6.82,18.94-15C44.9,67.31,69.07,91,70.46,92.34a.39.39,0,0,0-.33.13" transform="translate(-5.96 -25)"/><polygon class="cls-96" points="57.41 63.96 32.98 78.93 14.77 65.16 37.94 46.42 57.41 63.96"/><polygon class="cls-97" points="59.92 62.37 32.98 78 14.77 64.23 37.94 45.49 59.92 62.37"/><polygon class="cls-97" points="57.61 57.14 30.52 75.42 14.7 68.27 41.38 48.01 57.61 57.14"/><path class="cls-116" d="M27.62,94.86l4.1-3.18A27.27,27.27,0,0,0,21.26,87.9a3.78,3.78,0,0,0-3.51,1.33L16.23,91Z" transform="translate(-5.96 -25)"/><path class="cls-73" d="M45.16,105.45V119l-3.44,2-.6-15.23v-.6L27.68,94.79l4.11-3.18c2.91,1.26,8.34,6.16,11.32,8.94A6.27,6.27,0,0,1,45,103.86a14.48,14.48,0,0,1,.13,1.59" transform="translate(-5.96 -25)"/><path class="cls-117" d="M45.16,105.45V119l-3.44,2-.6-15.23L45,103.86a7,7,0,0,1,.2,1.59" transform="translate(-5.96 -25)"/><path class="cls-118" d="M18.08,90.42l3.18.6A45.07,45.07,0,0,1,34.63,98.3l5.83,5.43a4.17,4.17,0,0,1,1.33,3v22.31l-26.09-15V92.47a2,2,0,0,1,2.38-2" transform="translate(-5.96 -25)"/><polygon class="cls-73" points="1.52 78.93 43.04 102.9 45.62 102.43 46.88 103.16 43.9 105.02 0.07 79.79 1.52 78.93"/><path class="cls-118" d="M52.84,128.16l-.92,9.8-.8.47a3,3,0,0,1-1.45.39,2.48,2.48,0,0,1-1.2-.33L7,114.52a1.94,1.94,0,0,1-1-1.65v-8.15l42.45,24.5a2.64,2.64,0,0,0,1.19.33,2.34,2.34,0,0,0,1.46-.39Z" transform="translate(-5.96 -25)"/><path class="cls-117" d="M52.84,128.16l-.92,9.8-.8.47a3,3,0,0,1-1.45.39v-9.2a2.26,2.26,0,0,0,1.45-.4Z" transform="translate(-5.96 -25)"/><path class="cls-119" d="M51.92,136.51l-.8.46a2.66,2.66,0,0,1-2.71.07L6,112.54v.39a2,2,0,0,0,.93,1.66l41.52,24a2.66,2.66,0,0,0,2.71-.07l.8-.46.13-1.59Z" transform="translate(-5.96 -25)"/><polygon class="cls-73" points="7.28 93.16 3.25 90.78 3.25 89.32 7.28 91.64 7.28 93.16"/><g class="cls-120"><rect class="cls-121" x="58.86" y="79.99" width="7.02" height="3.58"/></g><g class="cls-122"><rect class="cls-123" x="58.47" y="78.13" width="7.81" height="3.91"/></g><path class="cls-81" d="M72.24,103.27c0,1.39-1.72,2.51-3.9,2.51s-3.91-1.12-3.91-2.51,1.72-2.52,3.91-2.52,3.9,1.13,3.9,2.52" transform="translate(-5.96 -25)"/><g class="cls-124"><rect class="cls-125" x="58.86" y="74.62" width="7.02" height="5.56"/></g><g class="cls-126"><rect class="cls-127" x="58.47" y="72.31" width="7.81" height="3.91"/></g><path class="cls-81" d="M72.24,97.44c0,1.39-1.72,2.52-3.9,2.52s-3.91-1.13-3.91-2.52,1.72-2.52,3.91-2.52,3.9,1.13,3.9,2.52" transform="translate(-5.96 -25)"/><g class="cls-128"><rect class="cls-129" x="58.86" y="70.92" width="7.02" height="3.58"/></g><path class="cls-73" d="M71.85,96.05c0-1.28-1.57-2.32-3.51-2.32s-3.51,1-3.51,2.32,1.57,2.32,3.51,2.32,3.51-1,3.51-2.32" transform="translate(-5.96 -25)"/><path class="cls-63" d="M75.62,119.62a16.28,16.28,0,0,0-1.72-5.23,5.39,5.39,0,0,0-4.77-3,1.68,1.68,0,0,0-.59.07c-.33-.6-3.91.2-4.37.53-.2.13-3.51,1.79-7.88,6.89a60.08,60.08,0,0,0-6.62,9.53l-8.35-4.63c.53-2.92,3.31-6.43,7-9.54,4.77-4,11-7.35,15.5-7.35h.07a6.4,6.4,0,0,1,2.84.66c1.13.53,6.36,2.85,7.29,4.37a7,7,0,0,1,.59,1.53c.47,1.72.73,4.3,1.06,6.22" transform="translate(-5.96 -25)"/><path class="cls-97" d="M74.63,113.4c-.27.33-.47.66-.73,1a5.39,5.39,0,0,0-4.77-3,1.68,1.68,0,0,0-.59.07c-.33-.6-3.91.2-4.37.53-.2.13-3.51,1.79-7.88,6.89l-7.95-4.64c4.77-4,11-7.35,15.5-7.35h.06a6.45,6.45,0,0,1,2.85.66c1.12.53,6.36,2.85,7.28,4.37a3.54,3.54,0,0,1,.6,1.53" transform="translate(-5.96 -25)"/><polygon class="cls-130" points="55.82 84.09 54.1 85.08 52.71 84.29 54.43 83.3 55.82 84.09"/><path class="cls-64" d="M77.28,119.29l-1.66.26c-1-5.42-3.18-8.21-6.49-8.27a1.94,1.94,0,0,0-.59.06c-6.76.6-15.83,10.2-17,16.09l-1.92.87c1.19-6.23,10.13-17,17.67-18.48a8.36,8.36,0,0,1,1.73-.2h.06a6.5,6.5,0,0,1,4.9,2.12c1.39,1.52,2.58,3.84,3.25,7.55" transform="translate(-5.96 -25)"/><polygon class="cls-131" points="66.74 53.04 64.49 67.41 45.89 58.4 43.97 57.47 43.63 57.34 31.65 48.4 34.23 33.37 46.88 42.44 48.73 43.5 66.74 53.04"/><polygon class="cls-114" points="65.82 53.37 63.7 65.82 45.89 57.21 43.97 56.28 43.9 56.28 32.84 48.01 34.96 35.56 36.55 36.42 43.57 40.46 46.88 42.38 48.73 43.5 65.82 53.37"/><polygon class="cls-114" points="48.14 54.63 46.15 53.7 35.09 45.36 33.11 46.55 32.84 48.01 43.9 56.28 43.97 56.28 45.89 57.21 63.7 65.82 64.29 62.44 48.14 54.63"/><path class="cls-114" d="M49.53,65.46c-.2.13-.33.26-.53.4l-6.82,4a.9.9,0,0,1-1.32-1l1.46-6.55a3.1,3.1,0,0,1,.26-.86Z" transform="translate(-5.96 -25)"/><polygon class="cls-132" points="56.61 83.63 54.96 84.62 53.57 83.83 55.29 82.83 56.61 83.63"/><polygon class="cls-115" points="56.61 83.63 56.61 84.56 54.96 85.55 54.96 84.62 56.61 83.63"/><polygon class="cls-133" points="54.96 84.62 54.96 85.55 53.57 84.75 53.57 83.83 54.96 84.62"/><g class="cls-134"><rect class="cls-135" x="35.89" y="93.96" width="7.61" height="7.35"/></g><path class="cls-91" d="M48.21,124.06v1.45a.68.68,0,0,1-1,.6l-4.84-2.78a1.75,1.75,0,0,1-.86-1.52v-1.46a.68.68,0,0,1,1-.6l4.84,2.78a1.85,1.85,0,0,1,.86,1.53" transform="translate(-5.96 -25)"/><path class="cls-92" d="M44.5,122.87a1,1,0,0,1-.13.46c-.2.33-.66.4-1.19.13a2.57,2.57,0,0,1-1.26-2c0-.53.26-.79.73-.72a.84.84,0,0,1,.53.2,2.22,2.22,0,0,1,1.32,1.92" transform="translate(-5.96 -25)"/><path class="cls-92" d="M47.35,124.59a1,1,0,0,1-.13.46c-.2.33-.67.4-1.2.13a2.56,2.56,0,0,1-1.25-2c0-.53.26-.8.72-.73a.84.84,0,0,1,.53.2,2.22,2.22,0,0,1,1.33,1.92" transform="translate(-5.96 -25)"/><path class="cls-93" d="M44.5,122.87a1,1,0,0,1-.13.46.9.9,0,0,1-.53-.2,2.57,2.57,0,0,1-1.26-2,1,1,0,0,1,.13-.46.9.9,0,0,1,.53.2,2.48,2.48,0,0,1,1.26,2" transform="translate(-5.96 -25)"/><path class="cls-93" d="M47.35,124.59a1,1,0,0,1-.13.46.88.88,0,0,1-.53-.2,2.57,2.57,0,0,1-1.26-2,.93.93,0,0,1,.13-.47.9.9,0,0,1,.53.2,2.48,2.48,0,0,1,1.26,2" transform="translate(-5.96 -25)"/><polygon class="cls-131" points="48.73 43.5 48.73 43.5 45.89 57.21 45.62 58.27 43.63 57.34 43.97 56.28 46.88 42.44 46.88 42.38 48.73 43.5"/><g class="cls-136"><rect class="cls-137" x="78.79" y="39.66" width="4.63" height="34.03"/></g><path class="cls-73" d="M89.39,64.73c0,.79-1,1.52-2.31,1.52s-2.32-.66-2.32-1.52,1-1.52,2.32-1.52,2.31.66,2.31,1.52" transform="translate(-5.96 -25)"/><path class="cls-74" d="M90.85,52.15a2.88,2.88,0,0,1-1.13,2.51l-.59.53a2.2,2.2,0,0,0-.86,1.73v7.41a1.25,1.25,0,0,1-1.19.6,1.43,1.43,0,0,1-1.2-.6v-8a3.87,3.87,0,0,1,1.46-3L89.86,51s.86-.2,1,1.13" transform="translate(-5.96 -25)"/><path class="cls-75" d="M86.41,64.8V56.72a3.87,3.87,0,0,1,1.46-3l2.52-2.25h.26a.71.71,0,0,0-.79-.4l-2.52,2.25a3.87,3.87,0,0,0-1.46,3V64.4a1.12,1.12,0,0,0,.53.4" transform="translate(-5.96 -25)"/><path class="cls-76" d="M90.45,53.87l-1.32,1.19a3.87,3.87,0,0,0-1.46,3v6.75c.33-.13.53-.26.6-.53V56.92a2.2,2.2,0,0,1,.86-1.73l.59-.53a2.72,2.72,0,0,0,.73-.79" transform="translate(-5.96 -25)"/><path class="cls-138" d="M38.94,57.18A7.25,7.25,0,0,0,39.87,59c6,7.35,32.84,19,32.84,19l-.93-1.86s-25.69-11.78-32.84-19" transform="translate(-5.96 -25)"/><path class="cls-139" d="M50.26,55.33l-.86.59c-.26.14-.26.4-.53.27l-.4-.33c-.26-.14-.59-.73-.33-.93l.86-.6c.27-.13,1.19-.59,1.46-.39l.13.06c.33.14-.06,1.13-.33,1.33" transform="translate(-5.96 -25)"/><path class="cls-140" d="M51.52,55.46l-1.39.93a.83.83,0,0,1-.93,0l-.33-.2c-.33-.2.07-1.46.4-1.59l1-.07c.27-.2.66-.59,1-.46l.27.2c.26.06.33,1,0,1.19" transform="translate(-5.96 -25)"/><path class="cls-141" d="M51.19,54.66l-.86.6a.87.87,0,0,1-.8,0l-.13-.07a.43.43,0,0,1,0-.72l.86-.6a.87.87,0,0,1,.8,0l.13.07a.43.43,0,0,1,0,.72" transform="translate(-5.96 -25)"/><path class="cls-139" d="M58.41,60l-.87.59c-.26.14-.26.4-.53.27l-.39-.33c-.27-.13-.6-.73-.33-.93l.86-.6c.26-.13,1.19-.59,1.45-.39l.14.06c.26.14-.07,1.13-.33,1.33" transform="translate(-5.96 -25)"/><path class="cls-140" d="M59.66,60.16l-1.39.93a.78.78,0,0,1-.92,0l-.33-.2c-.34-.2.06-1.46.39-1.59l1-.07c.26-.2.66-.59,1-.46l.26.2c.27.06.27,1,0,1.19" transform="translate(-5.96 -25)"/><path class="cls-141" d="M59.27,59.37l-.86.59a.87.87,0,0,1-.8,0l-.13-.06a.43.43,0,0,1,0-.73l.86-.6a.85.85,0,0,1,.79,0l.14.07a.44.44,0,0,1,0,.73" transform="translate(-5.96 -25)"/><path class="cls-139" d="M66.48,64.73l-.86.6c-.26.13-.26.39-.53.26l-.39-.33c-.27-.13-.6-.73-.34-.93l.87-.59c.26-.14,1.19-.6,1.45-.4l.13.07c.34.13-.06,1.12-.33,1.32" transform="translate(-5.96 -25)"/><path class="cls-140" d="M67.74,64.8l-1.39.92a.79.79,0,0,1-.93,0l-.33-.2c-.33-.19.07-1.45.4-1.59l1-.06c.27-.2.67-.6,1-.46l.26.19c.27.14.33,1.06,0,1.2" transform="translate(-5.96 -25)"/><path class="cls-141" d="M67.41,64.07l-.86.59a.8.8,0,0,1-.79,0l-.14-.06a.44.44,0,0,1,0-.73l.86-.6a.87.87,0,0,1,.8,0l.13.07a.43.43,0,0,1,0,.73" transform="translate(-5.96 -25)"/><path class="cls-142" d="M30.13,97.51a.53.53,0,0,1-.13.39c-.33.33-1,.27-1.85-.13a3.32,3.32,0,0,1-2-2.25c0-.53.46-.73,1.12-.6a3.29,3.29,0,0,1,.87.33c1.06.53,2,1.53,2,2.26" transform="translate(-5.96 -25)"/><path class="cls-143" d="M18.74,109.16,38,120.22a.93.93,0,0,0,1.39-.8V107.5a2.16,2.16,0,0,0-1.13-1.92L19,94.53a.92.92,0,0,0-1.39.79v11.92a2.29,2.29,0,0,0,1.12,1.92" transform="translate(-5.96 -25)"/><path class="cls-117" d="M38.41,120l-19.2-11.06A2.13,2.13,0,0,1,18.08,107V95.06a.83.83,0,0,1,.33-.67.93.93,0,0,0-.79.93v11.92a2.17,2.17,0,0,0,1.12,1.92L38,120.22a.88.88,0,0,0,1-.14,1,1,0,0,1-.59-.13" transform="translate(-5.96 -25)"/><path class="cls-144" d="M39.34,117.77v1a232.74,232.74,0,0,1-21.66-11.92v-1a240.46,240.46,0,0,0,21.66,11.92" transform="translate(-5.96 -25)"/><path class="cls-144" d="M39.34,115.91v1C34.9,114.79,24,109.09,17.68,105v-1c6.29,4.11,17.22,9.74,21.66,11.92" transform="translate(-5.96 -25)"/><path class="cls-144" d="M39.34,114v1a232.74,232.74,0,0,1-21.66-11.92v-1A222,222,0,0,0,39.34,114" transform="translate(-5.96 -25)"/><path class="cls-144" d="M39.34,112.07v1a232.74,232.74,0,0,1-21.66-11.92v-.93a235.56,235.56,0,0,0,21.66,11.85" transform="translate(-5.96 -25)"/><path class="cls-118" d="M39.34,118.3v1c-4.9-2.38-15.7-8.08-21.66-12v-1c6,3.84,16.76,9.54,21.66,12" transform="translate(-5.96 -25)"/><path class="cls-118" d="M39.34,116.38v1c-4.44-2.12-15.3-7.81-21.66-11.92v-1a224.13,224.13,0,0,0,21.66,11.92" transform="translate(-5.96 -25)"/><path class="cls-118" d="M39.34,114.52v1c-4.9-2.39-15.7-8.08-21.66-12v-.93c6,3.84,16.76,9.54,21.66,11.92" transform="translate(-5.96 -25)"/><path class="cls-118" d="M39.34,112.6v1a232.74,232.74,0,0,1-21.66-11.92v-1A238,238,0,0,0,39.34,112.6" transform="translate(-5.96 -25)"/><path class="cls-144" d="M39.34,110.15v1A232.74,232.74,0,0,1,17.68,99.23v-1a238,238,0,0,0,21.66,11.92" transform="translate(-5.96 -25)"/><path class="cls-144" d="M39.34,108.3v1c-4.44-2.12-15.3-7.81-21.66-11.92v-1c6.29,4.11,17.22,9.73,21.66,11.92" transform="translate(-5.96 -25)"/><path class="cls-144" d="M39.27,107.37C34.83,105.25,24,99.62,17.68,95.52a1.57,1.57,0,0,1,.27-.4.57.57,0,0,1,.4-.2c.33.2,3.11,1.92,4.5,2.85.07,0,.07.07.13.07,2.19,1.25,4.44,2.51,6.56,3.57.06,0,.13.07.2.07,2.84,1.39,8.67,4.7,8.67,4.7a1.91,1.91,0,0,1,.53.53,2.27,2.27,0,0,1,.33.66" transform="translate(-5.96 -25)"/><path class="cls-118" d="M39.34,110.68v1c-4.9-2.39-15.7-8.08-21.66-12v-1c6,3.84,16.76,9.53,21.66,12" transform="translate(-5.96 -25)"/><path class="cls-118" d="M39.34,108.76v1c-4.44-2.12-15.3-7.82-21.66-11.92v-1a224.13,224.13,0,0,0,21.66,11.92" transform="translate(-5.96 -25)"/><path class="cls-118" d="M39.34,107.83h0A230.33,230.33,0,0,1,17.68,95.92v-.2a.5.5,0,0,1,.07-.27,1.47,1.47,0,0,1,.26-.39c1.59,1,3.25,2.11,5,3.11.07,0,.07.06.13.06,2.19,1.26,4.44,2.52,6.56,3.58.06,0,.13.07.2.07,2.05,1.06,7.55,3.9,9.27,4.76a3,3,0,0,1,.33.6.73.73,0,0,0-.13.59" transform="translate(-5.96 -25)"/><polygon class="cls-76" points="104.35 44.3 101.31 41.85 101.31 46.02 104.35 44.3"/><polygon class="cls-76" points="99.45 27.21 98.73 26.22 98.73 27.68 99.45 27.21"/><polygon class="cls-73" points="15.43 97.8 11.39 95.48 11.39 94.02 15.43 96.34 15.43 97.8"/><polygon class="cls-73" points="23.57 102.5 19.47 100.12 19.47 98.66 23.57 100.98 23.57 102.5"/><polygon class="cls-73" points="31.65 107.13 27.61 104.82 27.61 103.36 31.65 105.68 31.65 107.13"/><polygon class="cls-73" points="39.8 111.84 35.76 109.45 35.76 108 39.8 110.31 39.8 111.84"/><path class="cls-145" d="M20.86,121.87a2.25,2.25,0,0,1-1.06-1.79v-3.31c0-.66.47-.86,1.06-.53l8,4.64a2.25,2.25,0,0,1,1.06,1.79V126c0,.66-.47.86-1.06.53Z" transform="translate(-5.96 -25)"/><path class="cls-146" d="M21.19,121.28a2.26,2.26,0,0,1-1.06-1.79v-3.31c0-.66.47-.86,1.06-.53l8,4.63a2.26,2.26,0,0,1,1.06,1.79v3.31c0,.66-.47.86-1.06.53Z" transform="translate(-5.96 -25)"/><path class="cls-147" d="M20.86,121.41a2.26,2.26,0,0,1-1.06-1.79v-3.31c0-.66.47-.86,1.06-.53l8,4.64a2.24,2.24,0,0,1,1.06,1.78v3.31c0,.67-.47.86-1.06.53Z" transform="translate(-5.96 -25)"/><path class="cls-148" d="M28.81,125.84l-7.95-4.63a1.89,1.89,0,0,1-.86-1.46v-3.31c0-.53.4-.73.86-.46l8,4.63a1.91,1.91,0,0,1,.86,1.46v3.31c0,.53-.4.73-.86.46" transform="translate(-5.96 -25)"/><path class="cls-149" d="M29.67,122.07a1.91,1.91,0,0,0-.86-1.46L20.86,116c-.46-.27-.86-.07-.86.4Z" transform="translate(-5.96 -25)"/><path class="cls-149" d="M20,119.75a1.89,1.89,0,0,0,.86,1.46l8,4.64c.46.26.86.06.86-.4Z" transform="translate(-5.96 -25)"/><path class="cls-63" d="M95.09,81a1.26,1.26,0,0,1-1.26-1.26V66.52a1.77,1.77,0,0,1,.93-1.59l2.58-1.52a1,1,0,0,1,.6-.2,1.25,1.25,0,0,1,1.25,1.25V77.71a1.79,1.79,0,0,1-.92,1.59l-2.59,1.52a.92.92,0,0,1-.59.2" transform="translate(-5.96 -25)"/><path class="cls-63" d="M98.2,79l-2.58,1.52a.84.84,0,0,1-1.26-.73V66.52a1.25,1.25,0,0,1,.73-1.2l2.58-1.52a.84.84,0,0,1,1.26.73V77.77A1.56,1.56,0,0,1,98.2,79" transform="translate(-5.96 -25)"/><path class="cls-140" d="M50.59,103.2l-.79.33a.53.53,0,0,0-.33.53v.33a.42.42,0,0,0,.53.4l.79-.33a.53.53,0,0,0,.33-.53v-.27a.43.43,0,0,0-.53-.46" transform="translate(-5.96 -25)"/><path class="cls-141" d="M50.79,103.46l-.79.34a.51.51,0,0,0-.33.53v.33a.41.41,0,0,0,.52.39l.8-.33a.51.51,0,0,0,.33-.53v-.26c0-.33-.26-.6-.53-.47" transform="translate(-5.96 -25)"/><path class="cls-150" d="M59.66,89.29l-.53.34a1.43,1.43,0,0,1-1.25,0L52.11,87c-.72-.33-.79-.86-.13-1.12l.53-.27a1.69,1.69,0,0,1,1.13,0l5.69,2.52c.6.33.8.79.33,1.12" transform="translate(-5.96 -25)"/><polygon class="cls-151" points="51.18 64.56 51.65 64.69 54.03 63.3 53.7 63.1 51.18 64.56"/><polygon class="cls-151" points="49.99 64.09 50.39 64.23 52.84 62.84 52.44 62.64 49.99 64.09"/><polygon class="cls-151" points="48.73 63.63 49.2 63.76 51.65 62.37 51.25 62.17 48.73 63.63"/><polygon class="cls-151" points="47.54 63.17 48.01 63.3 50.39 61.91 49.99 61.71 47.54 63.17"/><polygon class="cls-151" points="46.35 62.64 46.81 62.77 49.26 61.45 48.87 61.18 46.35 62.64"/><polygon class="cls-151" points="45.42 62.04 45.89 62.17 48.27 60.78 47.87 60.59 45.42 62.04"/><path class="cls-150" d="M39.34,77.77l.53-.33a1,1,0,0,1,1.05.07l4.31,3.18A.69.69,0,0,1,45.1,82l-.53.19a.91.91,0,0,1-.93-.13L39.4,78.9a.63.63,0,0,1-.06-1.13" transform="translate(-5.96 -25)"/><polygon class="cls-151" points="35.56 52.71 35.23 52.51 32.84 53.83 33.11 54.1 35.56 52.71"/><polygon class="cls-151" points="36.55 53.3 36.15 53.1 33.77 54.43 34.03 54.69 36.55 53.3"/><polygon class="cls-151" points="37.48 53.9 37.08 53.7 34.7 55.02 34.96 55.22 37.48 53.9"/><polygon class="cls-151" points="38.41 54.49 38.01 54.3 35.62 55.62 35.89 55.82 38.41 54.49"/><polygon class="cls-151" points="39.27 55.09 38.87 54.96 36.48 56.22 36.75 56.48 39.27 55.09"/><polygon class="cls-151" points="39.93 55.88 39.53 55.69 37.15 56.94 37.41 57.21 39.93 55.88"/></svg>