<svg id="Capa_1" data-name="Capa 1" xmlns="http://www.w3.org/2000/svg" viewBox="0 0 44.55 37.73"><defs><style>.cls-1{fill:#524c4f;}.cls-2,.cls-24{fill:#3d383c;}.cls-3{fill:#9d9e9e;}.cls-4{fill:#413c40;}.cls-5{fill:#524e51;}.cls-6{fill:#2f2c2e;}.cls-7{fill:#bebebd;}.cls-8{fill:#e2e0e0;}.cls-9{fill:#666465;}.cls-10{fill:#a52822;}.cls-11{fill:#802523;}.cls-12{fill:#494547;}.cls-13{fill:#353133;}.cls-14{fill:#747270;}.cls-15{fill:#5e5b5b;}.cls-16{fill:#cb5252;}.cls-17{fill:#b4b4b3;}.cls-18{fill:#332f32;}.cls-19,.cls-25{fill:#524d51;}.cls-20{fill:#b86933;}.cls-21{fill:#a9a9a9;}.cls-22{fill:#2d292b;}.cls-23{fill:#f2f8fd;}.cls-24,.cls-25{opacity:0.8;}</style></defs><path class="cls-1" d="M104.71,88.33l.37-.37-1.57,5.7-.83-.6L113,86.46l-.15.22-.07-.37Zm8.39-2.7h.08a.35.35,0,0,1,.3.38l-.08.82c0,.08-.07.15-.15.23l-10.12,7a.5.5,0,0,1-.45.08.55.55,0,0,1-.38-.68l1.58-5.7a.83.83,0,0,1,.37-.37Z" transform="translate(-76.46 -74.4)"/><path class="cls-2" d="M88.51,83.46,82,103.78a.29.29,0,0,0,.23.38.25.25,0,0,0,.37-.23l7-20.1a.62.62,0,0,0-.37-.75.56.56,0,0,0-.75.38" transform="translate(-76.46 -74.4)"/><path class="cls-2" d="M113,76.48c.53,0,1.13,1,.76,1.43s-1.51.45-1.58-.45a1.13,1.13,0,0,1,.53-.9.52.52,0,0,1,.29-.08" transform="translate(-76.46 -74.4)"/><path class="cls-3" d="M112.88,85.48a.75.75,0,0,1,.68-.07l.52.3a.66.66,0,0,1,.3.6,2.13,2.13,0,0,1-1,1.65.6.6,0,0,1-.6.07l-.67-.37a.68.68,0,0,1-.3-.6,3.07,3.07,0,0,1,1-1.58" transform="translate(-76.46 -74.4)"/><path class="cls-4" d="M109.35,82h0c1.2-1.43,4.21-4.5,7.66-3.08a4.79,4.79,0,0,0-3.9.68,10,10,0,0,0-3,2.7c-2.93,3.6-3.9,8.47-2.18,10.87a1.68,1.68,0,0,0,.53.53c-3.23-2.4-2.1-7.73.89-11.7" transform="translate(-76.46 -74.4)"/><path class="cls-5" d="M108.16,85.48a13.84,13.84,0,0,1,2-3.22c.14-.15.22-.3.37-.45a10,10,0,0,1,2.62-2.25c1.58-.9,3.16-1.13,4.35-.45l.23.15c-1.12-.68-2.7-.53-4.35.45A10,10,0,0,0,110.71,82c-.15.15-.23.3-.38.45a12.06,12.06,0,0,0-2,3.22c-1.27,2.93-1.42,5.93-.22,7.58a3.74,3.74,0,0,0,1,.9l-.22-.15a3.78,3.78,0,0,1-1-.9c-1.28-1.65-1.05-4.65.23-7.58" transform="translate(-76.46 -74.4)"/><path class="cls-4" d="M111.61,83.46a7.67,7.67,0,0,1,2.7-2.33c1.87-1,3.67-1,4.65.38,1.5,2.1.6,6.37-1.95,9.52a9,9,0,0,1-2.7,2.4c-1.88,1-3.68,1-4.65-.37-1.5-2.18-.6-6.45,2-9.6m-3.53,9.75a3.78,3.78,0,0,0,1,.9c3.37,1.87,6.45-1,7.65-2.33,2.55-2.85,3.82-6.9,3.07-9.67a4.63,4.63,0,0,0-2.1-2.78c-1.12-.67-2.7-.52-4.35.45a10,10,0,0,0-3,2.7C107.41,86,106.43,90.88,108.08,93.21Z" transform="translate(-76.46 -74.4)"/><path class="cls-6" d="M110.71,85c2-3.45,4.72-4.57,5.92-4.27.08,0,.08,0,.15.07a1.81,1.81,0,0,1,.75.75c1.35,1.88.53,5.7-1.72,8.63a7.8,7.8,0,0,1-2.4,2.1,3.45,3.45,0,0,1-3.45.37c-.08-.07-.15-.07-.23-.22s-1.88-2.78,1-7.43m-1.36,8.25c1.05,1.5,3,1.58,5,.45a9.77,9.77,0,0,0,2.85-2.55c2.7-3.37,3.6-7.87,2-10.12-1.05-1.5-3-1.58-5-.45a9.65,9.65,0,0,0-2.85,2.55C108.68,86.53,107.78,91.11,109.35,93.28Z" transform="translate(-76.46 -74.4)"/><path class="cls-7" d="M114.08,92.46,113,91.78a3,3,0,0,1-3.22.3l1.13.68A3,3,0,0,0,114.08,92.46Z" transform="translate(-76.46 -74.4)"/><path class="cls-7" d="M117.31,81.66,116.18,81a3.18,3.18,0,0,1,1.35,2.93,8.41,8.41,0,0,1-.82,3.45l1.12.67a8.2,8.2,0,0,0,.83-3.45A3.35,3.35,0,0,0,117.31,81.66Z" transform="translate(-76.46 -74.4)"/><path class="cls-8" d="M117.83,88l-1.13-.68a11,11,0,0,1-1.8,2.78l1.13.67A8.84,8.84,0,0,0,117.83,88Z" transform="translate(-76.46 -74.4)"/><path class="cls-7" d="M116,90.73l-1.13-.67a7.16,7.16,0,0,1-2,1.65l1.12.67A5.92,5.92,0,0,0,116,90.73Z" transform="translate(-76.46 -74.4)"/><path class="cls-3" d="M111.83,87.66l.6-.38h.15l-.23.23Zm.3.82.3-.45.15-.07-.08.22Zm.22.23.3-.53.15-.15-.07.15Zm.46-2.33h-.23L112.2,86l.46.22Zm0-.3-.3-.52.37.37.08.23Zm.14-.75.15.3V86l-.07-.08Zm.15,3.53.08-.6.08-.15v.22Zm.08-3.3v-.45l.15.52v.08Zm-.6.9.08.07h-.23l-.38-.22Zm-.15.3.15.07-.23.08-.45-.08Zm-.08.3h.15l-.15.07-.52.08Zm1.06,1.27.07-.3v.08l-.07.67Zm.07-2.62v-.08l.08-.67v.45Zm.15,2.4V88l.15.23v.37Zm.15-2.63-.07.15v-.22l.14-.53Zm.07,2.33h0l.15.67-.15-.3Zm.15,0-.07-.23.15.08.3.52Zm.23-.3-.08-.23h.23l.37.38Zm.15-.3-.08-.08h.23l.37.23Zm.15-.23-.15-.07.23-.08.44.08Zm.08-.3-.15-.07.15-.08.52-.07Zm0-.3h-.15l.22-.22.45-.15Zm.22-1.12-.3.45-.15.07.08-.22Zm-.22-.23-.3.53-.15.15.07-.15Zm-5.48,4.2h0L111.3,88l.68-.23-.68.6-2.17,1.28v.15l1.65-.9-1.57,1.35v.15l2.17-1.88.6-.37-.6.67-2.17,1.73v.15l1.65-1.28-1.58,1.73v.15l2.18-2.33.75-.6-.6.83-2.18,2.25v.07h.15l1.58-1.65s-1.43,2-1.43,2h.08l1.87-2.63.6-.67-.52.9s-2,2.62-2,2.7h.07l1.43-2s-1.13,2.1-1.13,2.17h.08l.07-.07,1.58-2.93.6-.9-.38,1s-1.57,2.85-1.57,2.92h.07l.08-.07,1.12-2.1L111,92.38v.08h.07l.08-.08,1.12-3,.3-.6-.15.6-1.27,3v.08h.07l.08-.08,1-2.17-.6,2.17v.08h.08a.07.07,0,0,0,.07-.08l.83-3,.45-1-.08,1-.82,3v.07h.07s.08,0,.08-.07l.6-2.25-.23,2.1h.08l.07-.08.3-2.92.23-.9.07.75-.37,2.92h.07l.08-.07.3-2.25.15,2h.15l.07-.08-.15-2.7-.22-.37.22.82.15,2.7h.15l.08-.07-.15-2.1s.52,1.72.52,1.8h.08l.07-.08L114,89.16l-.08-.68.23.45.52,2.4h.08l.07-.07-.45-2,.83,1.5h.15c.07,0,.07-.08.07-.08l-1.05-2-.22-.9.52.53,1,2h.15a.07.07,0,0,0,.08-.07l-.83-1.65,1.2,1.12h.08l.07-.07L115,88.33l-.37-.75.6.3,1.42,1.5h.08l.07-.07L115.58,88l1.5.75v-.07H117l-1.8-.83-.53-.52.75.07,1.8.9v-.07h-.07l-1.5-.75,1.72.22.08-.07v-.08h-.08l-2.1-.3-.52-.3.67-.07,2,.37.07-.07v-.08h-.07l-1.65-.3,1.87-.22a.08.08,0,0,0,.08-.08v-.07h-.08l-2.25.3-.6-.15.83-.3,2.25-.15a.07.07,0,0,0,.07-.08V86h-.07l-1.73.15,1.88-.68.07-.07s0-.08-.07,0H118l-2.4.82-.75.08.9-.53,2.4-.82.08-.08s0-.07-.08,0h-.07l-1.8.68,1.87-1.13.08-.07h-.08l-2.4,1.42-.67.23.67-.6,2.4-1.35.08-.08h-.08l-1.8,1,1.73-1.5v-.07H118l-2.32,2-.6.37.6-.67L118,83.23s.08-.07,0-.07h-.07l-1.73,1.35,1.65-1.73v-.07h-.07L115.58,85l-.75.6.6-.82,2.18-2.25v-.08h-.08L116,84.13l1.42-1.95v-.07h-.15l-1.87,2.62-.6.67.52-.9,2-2.62V81.8h-.15l-1.42,2,1.12-2.09v-.08h-.07l-.08.08-1.57,2.92-.6.9.37-1,1.58-2.84v-.08h-.08l-.07.08-1.13,2.09.82-2.17V81.5h-.07l-.08.08-1.12,3-.3.6.15-.6,1.27-3h-.15l-.9,2.17.53-2h-.15l-.75,2.85-.45,1,.07-1,.75-2.85h-.15l-.52,2,.15-1.88c-.08,0-.08.08-.15.08l-.23,2.55-.22.9-.08-.75.3-2.55c-.07,0-.07.07-.15.07L113.48,84l-.08-1.5c-.07,0-.07.07-.15.07l.15,2.1-.15,1-.22-.82-.15-2-.15.15.07,1.35-.3-1.12-.07.07.45,1.58.07.67-.22-.45-.38-1.72c-.07.07-.07.07-.07.15l.22,1.2-.45-.9-.07.07.67,1.28.23.9-.53-.53-.67-1.27c0,.07-.08.07-.08.15l.45.9-.67-.68-.08.08.9.9.38.75-.6-.3-1-1-.07.08.75.75-1-.45-.07.07,1.27.61.53.52-.75-.08-1.28-.67-.07.08,1,.15L110.11,86c0,.07-.08.07-.08.15l1.65.22.52.3-.67.08-1.57-.3c0,.07,0,.07-.08.15l1.2.22-1.35.15c0,.08,0,.08-.08.15l1.88-.22.6.15-.83.3-1.8.15c0,.07,0,.07-.07.15l1.35-.08-1.43.53c0,.07,0,.07-.07.15l2-.68.75-.07-.9.52-2,.68v.15l1.5-.53-1.57,1C109.13,89.16,109.13,89.23,109.13,89.23Z" transform="translate(-76.46 -74.4)"/><path class="cls-9" d="M109.5,89.83A9.9,9.9,0,0,1,114.08,82c2.55-1.43,4.58-.3,4.58,2.62a9.91,9.91,0,0,1-4.58,7.88c-2.55,1.42-4.58.3-4.58-2.63m-.59.3c0,3.23,2.32,4.58,5.17,2.93a11.3,11.3,0,0,0,5.1-8.85c0-3.23-2.32-4.58-5.17-2.93A11.49,11.49,0,0,0,108.91,90.13Z" transform="translate(-76.46 -74.4)"/><path class="cls-9" d="M113.63,85.93a.73.73,0,0,1,.67-.07l.53.3a.66.66,0,0,1,.3.6,2.13,2.13,0,0,1-1,1.65.6.6,0,0,1-.6.07l-.67-.37a.68.68,0,0,1-.3-.6,2.79,2.79,0,0,1,1-1.58" transform="translate(-76.46 -74.4)"/><path class="cls-10" d="M106,85a18.47,18.47,0,0,1,2.62-4.2,13.43,13.43,0,0,1,3-2.55c1.88-1.13,3.6-1.2,4.88-.45l2.77,1.65-10.5,7.12v.08L106,85" transform="translate(-76.46 -74.4)"/><path class="cls-11" d="M114.38,79.86a5.29,5.29,0,0,1,4.2-.75,2.91,2.91,0,0,1,1.13.67v.53l-11,6.37a15.21,15.21,0,0,1,5.7-6.82" transform="translate(-76.46 -74.4)"/><path class="cls-10" d="M108.91,86.08c.15-.3.3-.82.6-1.35a6,6,0,0,1,.52-.9c.23-.3.38-.6.68-1s.52-.68.75-1l.9-.9a8.94,8.94,0,0,1,2-1.42,10.31,10.31,0,0,1,1.05-.45,2.65,2.65,0,0,1,1-.23A4.93,4.93,0,0,1,118,79a.57.57,0,0,1,.38.15.29.29,0,0,1,.15.07,2.26,2.26,0,0,0-.6-.07,5.89,5.89,0,0,0-1.5.15,4,4,0,0,0-.9.3,6.64,6.64,0,0,0-1,.52c-.3.23-.68.45-1,.68s-.67.52-1,.75-.6.52-.9.82-.53.6-.83.9A19.28,19.28,0,0,0,109.58,85c-.38.52-.6,1-.83,1.27a6,6,0,0,1-.3.53,1.4,1.4,0,0,0,.46-.68" transform="translate(-76.46 -74.4)"/><path class="cls-10" d="M107.11,92.76c-.23.3-11.78,7-12.53,7l-3.07-2.25a1.83,1.83,0,0,1-.75-1.2,50.72,50.72,0,0,1-.9-7.13,5.25,5.25,0,0,1,.22-1.87A4.55,4.55,0,0,1,92.41,85a13.21,13.21,0,0,1,3.22-1c.9-.22,1.73-.37,2.63-.6s1.57-.37,2.4-.52c1.57-.3,3.07-.6,4.65-.83.75-.15,1.57-.22,2.32-.3a5.41,5.41,0,0,1,2.4,1,.5.5,0,0,1,.08.75c-3.38,3.45-2.85,8.93-3,9.23" transform="translate(-76.46 -74.4)"/><path class="cls-10" d="M90.6,90.43a18.62,18.62,0,0,1,1-3.52l3.68,2.17a53.11,53.11,0,0,0-2.63,5.1,34.68,34.68,0,0,0,.3,4.5l-1.57-1.12a1.83,1.83,0,0,1-.75-1.2c-.23-1-.45-2.33-.6-3.6.22-.75.37-1.5.59-2.33" transform="translate(-76.46 -74.4)"/><path class="cls-3" d="M82.88,102.88a.73.73,0,0,1,.67-.07l.53.3a.66.66,0,0,1,.3.6,2.13,2.13,0,0,1-1,1.65.6.6,0,0,1-.6.07l-.67-.37a.68.68,0,0,1-.3-.6,2.48,2.48,0,0,1,1-1.58" transform="translate(-76.46 -74.4)"/><path class="cls-4" d="M79.36,99.36h0c1.19-1.43,4.2-4.5,7.65-3.08a4.79,4.79,0,0,0-3.9.68,10,10,0,0,0-3,2.7c-2.93,3.6-3.9,8.47-2.18,10.87a1.68,1.68,0,0,0,.53.53c-3.31-2.48-2.18-7.8.9-11.7" transform="translate(-76.46 -74.4)"/><path class="cls-5" d="M78.08,102.88a14.56,14.56,0,0,1,2-3.22c.15-.15.23-.3.38-.45A10,10,0,0,1,83,97c1.57-.9,3.15-1.13,4.35-.45l.23.15c-1.13-.68-2.7-.53-4.36.45a10,10,0,0,0-2.62,2.25c-.15.15-.22.3-.37.45a11.56,11.56,0,0,0-2,3.22C77,106,76.88,109,78.08,110.61a3.78,3.78,0,0,0,1,.9l-.23-.15a4.13,4.13,0,0,1-1-.9c-1.27-1.73-1-4.73.23-7.58" transform="translate(-76.46 -74.4)"/><path class="cls-4" d="M81.53,100.78a7.63,7.63,0,0,1,2.7-2.32c1.88-1,3.68-1,4.65.37,1.5,2.1.6,6.38-1.95,9.53a8.86,8.86,0,0,1-2.7,2.4c-1.88,1-3.68,1-4.65-.38-1.5-2.17-.6-6.45,2-9.6m-3.45,9.83a3.78,3.78,0,0,0,1,.9c3.37,1.87,6.45-1,7.65-2.33,2.55-2.85,3.82-6.9,3.07-9.67a4.63,4.63,0,0,0-2.1-2.78c-1.12-.67-2.7-.52-4.35.45a10,10,0,0,0-3,2.7C77.33,103.33,76.35,108.21,78.08,110.61Z" transform="translate(-76.46 -74.4)"/><path class="cls-6" d="M80.63,102.36c2-3.45,4.73-4.58,5.93-4.28.07,0,.07,0,.15.08a1.87,1.87,0,0,1,.75.75c1.35,1.87.52,5.7-1.73,8.62a7.56,7.56,0,0,1-2.4,2.1,3.48,3.48,0,0,1-3.45.38c-.08-.08-.15-.08-.23-.23s-1.87-2.77,1-7.42m-1.35,8.32c1,1.5,3,1.58,5,.45a9.65,9.65,0,0,0,2.85-2.55c2.7-3.37,3.6-7.87,2-10.12-1-1.5-3-1.58-5-.45a9.75,9.75,0,0,0-2.84,2.55C78.61,103.93,77.71,108.43,79.28,110.68Z" transform="translate(-76.46 -74.4)"/><path class="cls-7" d="M84,109.78l-1.13-.67a3.06,3.06,0,0,1-3.23.3l1.13.67A3,3,0,0,0,84,109.78Z" transform="translate(-76.46 -74.4)"/><path class="cls-7" d="M87.23,99l-1.13-.67a3.16,3.16,0,0,1,1.36,2.92,8.2,8.2,0,0,1-.83,3.45l1.13.68a8.41,8.41,0,0,0,.82-3.45A3.33,3.33,0,0,0,87.23,99Z" transform="translate(-76.46 -74.4)"/><path class="cls-8" d="M87.75,105.36l-1.12-.68a11,11,0,0,1-1.8,2.78l1.12.67A10.46,10.46,0,0,0,87.75,105.36Z" transform="translate(-76.46 -74.4)"/><path class="cls-7" d="M86,108.13l-1.12-.67a7.19,7.19,0,0,1-2,1.65l1.13.67A6.83,6.83,0,0,0,86,108.13Z" transform="translate(-76.46 -74.4)"/><path class="cls-3" d="M81.75,105.06l.6-.38h.15l-.22.23Zm.31.82.29-.45.15-.07-.07.22Zm.22.15.3-.52.15-.15-.08.15Zm.45-2.25H82.5l-.37-.37.45.22Zm.08-.3-.3-.52.37.37.08.23Zm.07-.82.15.3v.37l-.08-.07Zm.15,3.52.08-.6.07-.15v.23Zm.08-3.3v-.45l.14.53V103Zm-.61,1,.08.07h-.23l-.37-.22Zm-.15.22.15.08-.22.07-.45-.07Zm-.07.3h.15l-.15.08-.52.07Zm1,1.28.08-.3v.07l-.08.68ZM83.4,103V103l.08-.68v.45Zm.15,2.4v-.07l.15.22V106Zm.16-2.62-.08.15v-.23l.15-.52Zm.07,2.32h0l.15.68-.15-.3Zm.15,0-.08-.22L84,105l.3.53Zm.22-.22-.07-.23h.22l.38.38Zm.15-.3-.07-.08h.22l.38.23Zm.15-.3-.15-.08.23-.07.45.07Zm.08-.23-.15-.07.15-.08.52-.07Zm0-.3h-.15l.23-.22.44-.15Zm.23-1.2-.3.45-.15.08.07-.23Zm-.15-.15-.3.53-.15.15.07-.15Zm-5.56,4.2h0l2.18-1.27.67-.23-.67.6L79.05,107v.15l1.65-.9-1.57,1.35v.15l2.18-1.88.6-.37-.6.67-2.18,1.73v.15l1.65-1.28-1.57,1.73v.15l2.17-2.33.75-.6-.6.83-2.17,2.25v.07h.15l1.57-1.65s-1.42,2-1.42,2h.07l1.88-2.63.6-.67-.53.9s-2,2.62-2,2.7h.08l1.42-2s-1.12,2.1-1.12,2.17h.07l.08-.07,1.57-2.93.6-.9-.37,1s-1.58,2.85-1.58,2.92h.08l.07-.07,1.13-2.1-.83,2.17v.08H81l.07-.08,1.13-3,.3-.6-.15.6-1.28,3v.08h.08l.07-.08,1-2.17-.6,2.17v.08h.07a.08.08,0,0,0,.08-.08l.82-3,.45-1-.07,1-.83,3v.07h.08a.07.07,0,0,0,.07-.07l.6-2.25-.22,2.1h.07l.08-.08.3-2.92.22-.9.08.75L83,109.33h.08l.07-.07.3-2.25.15,1.95h.15l.08-.08-.15-2.7.15-1.05.22.83.15,2.7h.15l.08-.08-.15-2.1s.52,1.73.52,1.8h.08l.07-.07-.67-2.33-.08-.67.23.45.52,2.4h.08l.07-.08-.45-2,.83,1.5h.15a.07.07,0,0,0,.07-.07l-1-1.95-.22-.9.52.52,1,2h.15a.08.08,0,0,0,.08-.08l-.83-1.65,1.2,1.13h.08l.07-.08-1.5-1.42-.37-.75.6.3,1.42,1.5H87l.07-.08-1.2-1.27,1.51.75v-.08h-.08l-1.8-.82-.53-.53.76.08,1.8.9V105h-.08l-1.5-.75,1.72.23.08-.08v-.07h-.08l-2.1-.3-.52-.3.67-.08,2,.38.07-.08v-.07h-.07l-1.65-.3,1.87-.23s.08,0,.08-.07v-.08H88l-2.25.3-.6-.15L86,103l2.25-.15a.07.07,0,0,0,.07-.07v-.08h-.07l-1.73.15,1.88-.67.08-.08s0-.07-.08,0h-.08l-2.4.83-.75.07.9-.52,2.4-.83.08-.07s0-.08-.08,0h-.07l-1.8.67,1.87-1.12.08-.08h-.08L86,102.51l-.67.22.67-.6,2.4-1.35.08-.08h-.08l-1.8,1,1.73-1.5v-.07h-.08L86,102.13l-.6.37.6-.67L88.28,100s.08-.07,0-.07h-.07l-1.73,1.35,1.65-1.73v-.07h-.07l-2.18,2.32-.75.6.6-.82,2.18-2.25V99.2h-.08l-1.57,1.65,1.42-1.95v-.07h-.15l-1.87,2.62-.6.68.52-.9,2-2.63v-.07h-.15l-1.42,2,1.12-2.1V98.3H87l-.08.08-1.57,2.92-.6.9.37-1,1.58-2.85V98.3h-.08l-.07.08-1.13,2.1.83-2.18v-.07h-.08l-.07.07-1.13,3-.3.6.15-.6,1.28-3H86l-.9,2.18.52-2h-.15l-.75,2.85-.45,1,.08-1,.75-2.85h-.15l-.53,2,.15-1.87c-.07,0-.07.07-.15.07l-.22,2.55-.23.9-.07-.75.3-2.55c-.08,0-.08.08-.15.08l-.23,1.72-.07-1.5c-.08,0-.08.08-.15.08l.15,2.1-.15,1.05-.23-.83-.15-2-.15.15.08,1.35-.3-1.13-.08.08.45,1.57.08.68-.23-.45-.37-1.73c-.08.08-.08.08-.08.15l.23,1.2-.45-.9-.08.08L83,101.9l.22.9-.52-.52L82,101c0,.08-.07.08-.07.15l.45.9-.68-.67-.07.07.9.9.37.75-.6-.3-1-1-.08.07.75.75-1-.45-.08.08,1.28.6.52.52-.75-.07-1.27-.68-.08.08,1,.52-1.2-.15c0,.08-.08.08-.08.15l1.65.23.53.3-.68.07-1.57-.3c0,.08,0,.08-.08.15l1.2.23-1.35.15c0,.07,0,.07-.07.15l1.87-.23.6.15-.82.3-1.8.15c0,.08,0,.08-.08.15l1.35-.07-1.42.52c0,.08,0,.08-.08.15l2-.67.75-.08-.9.53-2,.67V106l1.5-.52-1.57,1C79.05,106.56,79.05,106.56,79.05,106.63Z" transform="translate(-76.46 -74.4)"/><path class="cls-9" d="M79.43,107.16A9.89,9.89,0,0,1,84,99.28c2.55-1.42,4.57-.3,4.57,2.63A9.89,9.89,0,0,1,84,109.78c-2.56,1.43-4.58.3-4.58-2.62m-.6.37c0,3.23,2.33,4.58,5.18,2.93a11.33,11.33,0,0,0,5.1-8.85c0-3.23-2.33-4.58-5.18-2.93A11.39,11.39,0,0,0,78.83,107.53Z" transform="translate(-76.46 -74.4)"/><path class="cls-9" d="M83.55,103.33a.75.75,0,0,1,.68-.07l.52.3a.66.66,0,0,1,.3.6,2.15,2.15,0,0,1-1,1.65.6.6,0,0,1-.6.07l-.68-.37a.68.68,0,0,1-.3-.6,2.84,2.84,0,0,1,1-1.58" transform="translate(-76.46 -74.4)"/><path class="cls-2" d="M98.33,81.81a.28.28,0,0,1,.15-.08,9.68,9.68,0,0,0,2.7-.9,24.09,24.09,0,0,0,3.45-2.1,15.16,15.16,0,0,1,2.55-1.8,1,1,0,0,1,.9,0l-3.6,3.75-6.07,2.18a.63.63,0,0,1-.08-1" transform="translate(-76.46 -74.4)"/><path class="cls-12" d="M98.85,81.88a13,13,0,0,0,3.83-1.42.57.57,0,0,1,.3-.15c1.12-.68,2.1-1.35,2.85-1.88a18.41,18.41,0,0,1,1.72-1.27c.23-.15.45-.23.53-.15L113,79.86c-3,2.55-6.07,4.8-9.6,5.92l-4.87-2.85H98.4c-.22-.22.08-1,.45-1.05" transform="translate(-76.46 -74.4)"/><path class="cls-2" d="M103.66,84.81c.6-.3,2.47-.15,7-3.6a21.17,21.17,0,0,1,1.72-1.28c.23-.15.45-.22.52-.15a1.09,1.09,0,0,1,.38.53c.38,1.35-4.5,4.12-4.73,4.2-1.72,1-4,1.95-5.17,1.27h-.08c-.3-.22,0-.82.31-1" transform="translate(-76.46 -74.4)"/><path class="cls-13" d="M104.85,85.26a20.68,20.68,0,0,0,6.45-3.45,9.28,9.28,0,0,1,1.73-1.2c.3-.15.37-.15.37.07.08.45-1.8,2.1-4.05,3.38-3.82,2.25-5.55,1.87-5.1,1.42,0-.15.38-.22.6-.22" transform="translate(-76.46 -74.4)"/><path class="cls-14" d="M95.33,98a8.12,8.12,0,0,1,.6-.9,15.3,15.3,0,0,1,3.83-2.93c2-1.2,3.75-1.65,4.35-1.35l1,.53c-.6-.3-2.32.15-4.35,1.35a16.86,16.86,0,0,0-3.82,2.92,2.06,2.06,0,0,0-.6.9.78.78,0,0,0-.08.38.4.4,0,0,0,.23.37l-1-.52a.43.43,0,0,1-.23-.38.76.76,0,0,1,.08-.37" transform="translate(-76.46 -74.4)"/><path class="cls-15" d="M100.73,94.71c2.47-1.43,4.5-1.88,4.5-1s-2,2.78-4.5,4.28-4.5,1.87-4.5,1,2-2.77,4.5-4.27" transform="translate(-76.46 -74.4)"/><path class="cls-10" d="M102,83.23c2.09,2.55-2.93,5.78-7.28,6.38-2.85.37-4.5-.68-5-3.53a4.33,4.33,0,0,1,0-1.72c1-3.9,10.13-3.6,12.23-1.13" transform="translate(-76.46 -74.4)"/><path class="cls-16" d="M91.21,83.23c-.08-.52,1.5-1.2,3.45-1.5s3.67-.07,3.75.53-1.51,1.2-3.46,1.5-3.67,0-3.74-.53" transform="translate(-76.46 -74.4)"/><path class="cls-17" d="M107.7,92s.75-.6,1.88-1.35c.6-.38,1.2-.83,2-1.28s1.5-.9,2.32-1.35a43.07,43.07,0,0,1,4.43-2.32,17.84,17.84,0,0,1,2.1-.9.42.42,0,0,1,.52.15.47.47,0,0,1-.07.67s-.75.6-1.88,1.35-2.7,1.73-4.27,2.63c-.83.45-1.58.9-2.33,1.27l-2.1,1.05a17.84,17.84,0,0,1-2.1.9.58.58,0,0,1-.6-.15.63.63,0,0,1,.15-.67" transform="translate(-76.46 -74.4)"/><path class="cls-2" d="M101.55,96.21c.15-.08.23-.08.3,0l2.93,1.65-.6,1-2.93-1.65a.42.42,0,0,1-.15-.3,1.19,1.19,0,0,1,.45-.75" transform="translate(-76.46 -74.4)"/><path class="cls-18" d="M104,98.61c0,.3.23.37.45.22a1,1,0,0,0,.45-.75c0-.3-.22-.37-.45-.22a1.11,1.11,0,0,0-.45.75" transform="translate(-76.46 -74.4)"/><path class="cls-2" d="M87.31,78.28a.28.28,0,0,0,.22-.07.4.4,0,0,0,.15-.6l-1.42-2.55a.44.44,0,0,0-.75.45l1.42,2.55a.4.4,0,0,0,.38.22" transform="translate(-76.46 -74.4)"/><path class="cls-19" d="M89.41,83.46a.35.35,0,0,0,.14-.68l-1-.6a.39.39,0,0,1-.23-.3L87.75,78c0-.22-.22-.3-.45-.3a.34.34,0,0,0-.3.45l.53,3.9a1.49,1.49,0,0,0,.6.9l1.05.6a.3.3,0,0,1,.23-.07" transform="translate(-76.46 -74.4)"/><path class="cls-2" d="M86.41,82.48c-.23.45.52,1.43,1,1.2s1-1.2.15-1.57a1,1,0,0,0-1,.22.16.16,0,0,0-.15.15" transform="translate(-76.46 -74.4)"/><path class="cls-20" d="M86.56,82.56c.15-.08.45,0,.67.3s.3.6.15.67-.45,0-.67-.3-.3-.6-.15-.67" transform="translate(-76.46 -74.4)"/><path class="cls-21" d="M89.93,82.56l.67-1.13c-.07,0-.07,0-.07-.07l-.68,1.12C89.85,82.56,89.85,82.56,89.93,82.56Z" transform="translate(-76.46 -74.4)"/><path class="cls-19" d="M89.78,82.56l.67-1.13c-.22-.07-.37-.15-.37-.07l-.67,1.12C89.41,82.41,89.55,82.41,89.78,82.56Z" transform="translate(-76.46 -74.4)"/><path class="cls-19" d="M91.28,83.53,92,82.41a.22.22,0,0,0-.08-.15,3.23,3.23,0,0,0-.75-.53l-.68,1.13a3.32,3.32,0,0,1,.76.52A.25.25,0,0,1,91.28,83.53Z" transform="translate(-76.46 -74.4)"/><path class="cls-21" d="M90.38,82.86l.68-1.13c-.15-.07-.38-.22-.53-.3l-.67,1.13A2.75,2.75,0,0,1,90.38,82.86Z" transform="translate(-76.46 -74.4)"/><path class="cls-22" d="M89.93,82.56c-.45-.23-.6-.23-.38,0a6.46,6.46,0,0,0,1.28.82c.45.23.6.23.38,0a9.5,9.5,0,0,0-1.28-.82" transform="translate(-76.46 -74.4)"/><path class="cls-21" d="M92,83.83l.75-1-.08-.07-.75,1.05Z" transform="translate(-76.46 -74.4)"/><path class="cls-19" d="M91.88,83.76l.75-1.05c-.23-.15-.3-.15-.38-.15l-.75,1A.78.78,0,0,1,91.88,83.76Z" transform="translate(-76.46 -74.4)"/><path class="cls-19" d="M93.23,84.88l.75-1a.25.25,0,0,0-.07-.15c-.15-.15-.46-.37-.68-.6l-.75,1a2.79,2.79,0,0,1,.67.6A.24.24,0,0,1,93.23,84.88Z" transform="translate(-76.46 -74.4)"/><path class="cls-21" d="M92.4,84.13l.75-1a1.42,1.42,0,0,0-.45-.3l-.75,1A1.54,1.54,0,0,1,92.4,84.13Z" transform="translate(-76.46 -74.4)"/><path class="cls-22" d="M92,83.83c-.46-.22-.61-.22-.38,0a5.35,5.35,0,0,0,1.2.9c.45.23.6.23.37,0a5.92,5.92,0,0,0-1.19-.9" transform="translate(-76.46 -74.4)"/><polygon class="cls-10" points="12.57 9.21 15.8 11.08 13.03 18.06 10.25 16.48 12.57 9.21"/><path class="cls-2" d="M91.73,86.31l-.82,2.1-2.78-1.58.67-2.17c1,.52,2,1,2.93,1.65" transform="translate(-76.46 -74.4)"/><path class="cls-2" d="M91.65,85.26,84.23,105a.35.35,0,0,0,.15.45c.15.08.37,0,.37-.15l8-19.57a.64.64,0,0,0-.3-.83.78.78,0,0,0-.83.38" transform="translate(-76.46 -74.4)"/><path class="cls-2" d="M90,82l2.92,1.65a1,1,0,0,1,.45,1.2L93,86a.74.74,0,0,1-.3.37l-.9.53-3.75-2.18a.61.61,0,0,1-.3-.45v-.9a1.15,1.15,0,0,1,.52-.9l.9-.52A.82.82,0,0,1,90,82" transform="translate(-76.46 -74.4)"/><path class="cls-2" d="M92.18,85.78c-.22.45.53,1.43,1,1.2s1-1.2.15-1.57a1,1,0,0,0-1,.22l-.15.15" transform="translate(-76.46 -74.4)"/><path class="cls-20" d="M92.33,85.86c.15-.08.45,0,.68.3s.29.6.14.67-.45,0-.67-.3-.3-.52-.15-.67" transform="translate(-76.46 -74.4)"/><path class="cls-19" d="M94,85.93a2.32,2.32,0,0,0,1-.22c1-.53,2.62-1.35,2.7-1.35a.39.39,0,1,0-.38-.68s-1.72.83-2.7,1.35a1.26,1.26,0,0,1-1.27,0l-.38-.22a.38.38,0,1,0-.37.67l.37.23a2.41,2.41,0,0,0,1,.22" transform="translate(-76.46 -74.4)"/><path class="cls-2" d="M101.48,85.86a.46.46,0,0,0,.15-.9l-4-1.35a.5.5,0,0,0-.6.3.52.52,0,0,0,.3.6l4,1.35h.15" transform="translate(-76.46 -74.4)"/><path class="cls-19" d="M86.25,86.16c-.52,1.2,1.43,3.6,2.78,3.07s2.4-3.07.3-4a2.65,2.65,0,0,0-2.62.53.88.88,0,0,0-.46.45" transform="translate(-76.46 -74.4)"/><path class="cls-23" d="M86.63,86.16c.37-.3,1.2.07,1.88.82s.75,1.65.37,2-1.2-.07-1.88-.82-.75-1.65-.37-2" transform="translate(-76.46 -74.4)"/><path class="cls-2" d="M85.05,75.51a.78.78,0,0,0,1,.15.8.8,0,0,0,.38-1,.78.78,0,0,0-1-.15.75.75,0,0,0-.38,1" transform="translate(-76.46 -74.4)"/><path class="cls-2" d="M101.48,86.23c.38.15.75-.15.9-.6a.79.79,0,0,0-.37-1c-.38-.15-.76.15-.9.6s0,.9.37,1" transform="translate(-76.46 -74.4)"/><path class="cls-24" d="M88.8,82.63c-.07.15.61.75,1.58,1.35s1.8.83,2,.68-3.38-2.25-3.53-2" transform="translate(-76.46 -74.4)"/><path class="cls-25" d="M88.13,85.33c.3.08.38.3.3.45a.67.67,0,0,1-.68.15c-.29-.07-.37-.3-.29-.45a.72.72,0,0,1,.67-.15" transform="translate(-76.46 -74.4)"/><path class="cls-2" d="M116.48,78.51c.53,0,1.13,1,.75,1.42s-1.5.45-1.57-.45a1.15,1.15,0,0,1,.52-.9c.23,0,.3-.07.3-.07" transform="translate(-76.46 -74.4)"/></svg>