<svg id="Capa_1" data-name="Capa 1" xmlns="http://www.w3.org/2000/svg" xmlns:xlink="http://www.w3.org/1999/xlink" viewBox="0 0 73.5 53.09"><defs><style>.cls-1{fill:none;}.cls-2{fill:#1e1b1a;}.cls-3{fill:#edecec;}.cls-4{fill:#464245;}.cls-5{fill:#534f52;}.cls-6{fill:#2e2a2c;}.cls-7{fill:#c31b27;}.cls-8{fill:#393538;}.cls-9{fill:#524c51;}.cls-10{fill:#c6c6c8;}.cls-11{fill:#802523;}.cls-12{fill:#cb5252;}.cls-13{fill:#737273;}.cls-14{fill:#9dcdea;}.cls-15{fill:#a52822;}.cls-16{clip-path:url(#clip-path);}.cls-17{fill:url(#Degradado_sin_nombre_259);}.cls-18{clip-path:url(#clip-path-2);}.cls-19{fill:url(#Degradado_sin_nombre_259-2);}.cls-20{clip-path:url(#clip-path-3);}.cls-21{fill:url(#Degradado_sin_nombre_260);}.cls-22{fill:#30281f;}.cls-23{fill:#858586;}.cls-24{fill:#faefdd;}.cls-25{fill:#342f31;}</style><clipPath id="clip-path" transform="translate(-56.48 -58.1)"><path class="cls-1" d="M76.43,110.9c-5.7-3.3-13.8-8.33-19.5-11.63-.37-.22-.45-1-.45-1.8,0-1.35.15-2.55,1.35-3.22l19.2,12c-1.2.67-1,1.5-1,2.85,0,.82.08,1.57.45,1.8"/></clipPath><linearGradient id="Degradado_sin_nombre_259" x1="11.7" y1="42.58" x2="9.45" y2="45.58" gradientUnits="userSpaceOnUse"><stop offset="0" stop-color="#d6d4d4"/><stop offset="0.07" stop-color="#bebdbc"/><stop offset="0.83" stop-color="#a1a4a5"/><stop offset="1" stop-color="#6d6c6d"/></linearGradient><clipPath id="clip-path-2" transform="translate(-56.48 -58.1)"><path class="cls-1" d="M78,105.65a8.49,8.49,0,0,0-.08,2.4,6.14,6.14,0,0,0,.38,2.17l-.9.53a1.71,1.71,0,0,1-.68.22c-.6,0-.75-.82-.75-1.87,0-1.35-.15-2.18,1-2.85l.15-.08Z"/></clipPath><linearGradient id="Degradado_sin_nombre_259-2" x1="19" y1="50.21" x2="23.95" y2="50.21" xlink:href="#Degradado_sin_nombre_259"/><clipPath id="clip-path-3" transform="translate(-56.48 -58.1)"><path class="cls-1" d="M78.61,101.45c1.2-.68,1.65-.6,1.42.75s-1,2.1-2.7,3.3a39.57,39.57,0,0,1,1.13-4,.23.23,0,0,1,.15-.07"/></clipPath><linearGradient id="Degradado_sin_nombre_260" x1="21.08" y1="44.63" x2="23.2" y2="45.33" gradientUnits="userSpaceOnUse"><stop offset="0" stop-color="#faefdd"/><stop offset="0.08" stop-color="#e2d7c3"/><stop offset="0.18" stop-color="#cec3ae"/><stop offset="0.29" stop-color="#bfb29c"/><stop offset="0.43" stop-color="#b3a88f"/><stop offset="0.61" stop-color="#aca087"/><stop offset="1" stop-color="#aa9f86"/></linearGradient></defs><path class="cls-2" d="M105.08,75.12a2,2,0,0,0-.67-1.57l17.17,10a1.69,1.69,0,0,1,.68,1.58,5.24,5.24,0,0,1-2.4,4.2l-17.18-10a5.22,5.22,0,0,0,2.4-4.2" transform="translate(-56.48 -58.1)"/><path class="cls-2" d="M101,79.55a1.83,1.83,0,0,0,1.72-.15l17.18,10a1.63,1.63,0,0,1-1.73.15c-5.17-3-12.07-7-17.17-10" transform="translate(-56.48 -58.1)"/><path class="cls-3" d="M104.41,73.55l17.17,10a1.83,1.83,0,0,0-1.72.15l-17.18-10a1.8,1.8,0,0,1,1.73-.15" transform="translate(-56.48 -58.1)"/><path class="cls-3" d="M118.13,89.52c-4.87-2.85-9.75-5.7-14.62-8.47-.83-.53-1.73-1-2.55-1.5a1.88,1.88,0,0,1-.75-1.58,5.24,5.24,0,0,1,2.4-4.2l17.17,10a5.34,5.34,0,0,0-2.4,4.2,1.78,1.78,0,0,0,.75,1.57" transform="translate(-56.48 -58.1)"/><path class="cls-4" d="M116.86,91.7l-17.18-10A3,3,0,0,1,98.41,79a9.26,9.26,0,0,1,4.27-7.35l17.18,10A9.46,9.46,0,0,0,115.58,89a2.74,2.74,0,0,0,1.28,2.7" transform="translate(-56.48 -58.1)"/><path class="cls-5" d="M114.38,89.67l-17.17-10v-.15l17.17,10v.15" transform="translate(-56.48 -58.1)"/><path class="cls-6" d="M128.63,76.4c.15-.08.23-.15.3-.15.9-.3,1,.6,1,1.8a3.7,3.7,0,0,1-1,3.07c-.07.08-.22.15-.3.23l-.9.52a8.92,8.92,0,0,0,.3-2.4,6.06,6.06,0,0,0-.45-2.47Z" transform="translate(-56.48 -58.1)"/><path class="cls-7" d="M128.93,71.6V75c-1,.6-1.8.3-1.8-.6a3.77,3.77,0,0,1,1.8-2.77" transform="translate(-56.48 -58.1)"/><path class="cls-8" d="M119.86,80.22c3-1.72,5.4-.37,5.47,3v.15l-1.2.68c0-2.7-1.95-3.83-4.27-2.4A9.46,9.46,0,0,0,115.58,89l-1.2.67v-.15a12.1,12.1,0,0,1,5.48-9.3" transform="translate(-56.48 -58.1)"/><path class="cls-9" d="M119.86,89.37a5.16,5.16,0,0,0,2.4-4.2c0-1.57-1.13-2.17-2.48-1.42a5.34,5.34,0,0,0-2.4,4.2C117.46,89.52,118.51,90.12,119.86,89.37Zm0-7.72c2.32-1.35,4.27-.3,4.27,2.4a9.26,9.26,0,0,1-4.27,7.35c-2.33,1.35-4.28.22-4.28-2.48A9.25,9.25,0,0,1,119.86,81.65Z" transform="translate(-56.48 -58.1)"/><path class="cls-10" d="M119.86,83.75c1.35-.75,2.47-.15,2.47,1.42a5.22,5.22,0,0,1-2.4,4.2c-1.35.75-2.47.15-2.47-1.42a5,5,0,0,1,2.4-4.2" transform="translate(-56.48 -58.1)"/><polygon class="cls-2" points="32.1 11.63 34.8 24.9 40.73 21.45 34.8 24.9 32.1 11.63"/><polygon class="cls-11" points="51.3 23.63 32.1 11.63 52.27 0 72.45 11.4 51.3 23.63"/><polygon class="cls-12" points="52.27 0.6 52.65 11.4 46.58 14.7 37.42 9.3 52.27 0.6"/><path class="cls-6" d="M86.93,62l19.95,10.72a.83.83,0,0,0-.82.08l-20-10.73a1,1,0,0,1,.82-.07" transform="translate(-56.48 -58.1)"/><path class="cls-10" d="M86.63,102.87c1.35-.75,2.48-.15,2.48,1.43a5.24,5.24,0,0,1-2.4,4.2c-1.35.75-2.48.15-2.48-1.43a5.47,5.47,0,0,1,2.4-4.2" transform="translate(-56.48 -58.1)"/><polygon class="cls-13" points="40.73 21.98 21 11.03 29.18 6.15 48.6 17.4 40.73 21.98"/><path class="cls-4" d="M83.93,110.52l-17.17-10c-1.05-.08-1.58-1-1.58-2.33a9.27,9.27,0,0,1,4.28-7.35l17.17,10a9.48,9.48,0,0,0-4.27,7.35c.07,1.27.52,2.25,1.57,2.32" transform="translate(-56.48 -58.1)"/><polygon class="cls-14" points="34.2 32.85 14.55 21.07 18.82 11.4 38.55 22.35 34.2 32.85"/><path class="cls-6" d="M71.11,79.17l.07-.07c5.7,3.3,13.88,8.4,19.65,11.77l-.07.08c-5.78-3.3-14-8.4-19.65-11.78" transform="translate(-56.48 -58.1)"/><path class="cls-6" d="M71,79.32c.07,0,.07-.07.15-.07C76.81,82.55,85,87.65,90.76,91c-.08,0-.08.08-.15.08C85.43,88,76.13,82.25,71,79.32" transform="translate(-56.48 -58.1)"/><path class="cls-6" d="M58.73,98.6a5.94,5.94,0,0,1-.3-1.73c7.05,3.9,12,7,19.5,11.18a5,5,0,0,0,.3,1.87c-9.67-5.4-19.5-11.32-19.5-11.32" transform="translate(-56.48 -58.1)"/><polygon class="cls-11" points="52.65 11.4 63.38 18.07 70.65 18.68 71.85 12.07 52.27 0.6 52.65 11.4"/><path class="cls-6" d="M62.33,89.15a.51.51,0,0,0-.22-.6l19.2,12c.15.07.22.3.22.6-5.1-3-14-9-19.2-12" transform="translate(-56.48 -58.1)"/><polygon class="cls-6" points="20.7 48 1.5 36 2.33 35.55 21.52 47.55 20.7 48"/><polygon class="cls-6" points="20.55 48.08 1.35 36.08 1.5 36 20.7 48 20.55 48.08"/><path class="cls-6" d="M58.51,96.5l1,.52,1,.53,1,.52,1.05.6,1,.6,1.12.6,3.15,2.63,1.13.6,1.12.6,1.13.6,1.12.6,1.05.6,1,.6,1,.52,1,.53,1,.52-1-.52-1-.53-1-.52-1-.6-1.05-.6-1.12-.6-1.13-.6L69,103.1l-1.13-.6-3.15-2.63-1.12-.6-1-.6-1.05-.6-1-.52-1-.53Zm-.08-.08a12.71,12.71,0,0,1,.38-2.85l19.2,12a8.5,8.5,0,0,0-.08,2.4C72.16,104.75,64.13,99.8,58.43,96.42Z" transform="translate(-56.48 -58.1)"/><path class="cls-6" d="M58.13,93.42c5.7,3.3,13.5,8.63,19.2,12-.07.23-.07.45-.15.68L58,94.1a2.08,2.08,0,0,0,.15-.68" transform="translate(-56.48 -58.1)"/><path class="cls-6" d="M58.13,93.42c1.8-1.2,4-2.85,4.2-4.27l19.2,12c-.15,1.42-2.4,3.07-4.2,4.27-5.17-3-14-9-19.2-12" transform="translate(-56.48 -58.1)"/><path class="cls-11" d="M77.33,105.42l-19.2-12a31.62,31.62,0,0,1,1.2-4l19.2,12.08a30.6,30.6,0,0,0-1.2,4" transform="translate(-56.48 -58.1)"/><path class="cls-11" d="M94.58,89.37l2.63-9.3,7.87-4.57v7.72ZM127.51,77l1.12-.6c.15-.08.23-.15.3-.15V75c-1,.6-1.8.3-1.8-.6a3.89,3.89,0,0,1,1.8-2.77V69.5L107.78,81.72l-.52-8.25c0-.75-.53-1-1.13-.67l-9.45,5.47a4.31,4.31,0,0,0-1.57,2.18l-.3.45h.07c.23-.08.45.07.15,1-.45,1.5-3.3,7.43-3.45,7.73a2.28,2.28,0,0,1-1,1.42c-.08,0-.15.08-.23.08-1,.67-4.5,3.07-8.4,5.32-2.4,1.43-3.82,5.4-4.65,9a39.39,39.39,0,0,1,1.13-4l.07-.08c1.2-.67,3.08-1.57,2.93-.22s-2.4,3.07-4.2,4.27c-.08.23-.08.45-.15.68l.82-.45a8.86,8.86,0,0,0-.07,2.4,6.39,6.39,0,0,0,.37,2.17l2.93-1.5a12.06,12.06,0,0,1,5.47-9.3c3-1.72,5.4-.37,5.48,3l16.27-9.37,5.93-3.45a12,12,0,0,1,5.47-9.3c3-1.73,5.4-.38,5.48,3l2.4-1.43a13.07,13.07,0,0,0,.3-2.32A6.2,6.2,0,0,0,127.51,77Z" transform="translate(-56.48 -58.1)"/><path class="cls-11" d="M127.73,81.87h0l.9-.52a1,1,0,0,0,.3-.23Z" transform="translate(-56.48 -58.1)"/><polygon class="cls-14" points="40.42 21.75 48.98 16.8 48.98 25.35 37.58 31.95 40.42 21.75"/><polygon class="cls-14" points="48.6 17.4 48.6 25.13 38.1 31.27 40.73 21.98 48.6 17.4"/><path class="cls-9" d="M86.71,108.5a5.34,5.34,0,0,0,2.4-4.2c0-1.58-1.13-2.18-2.48-1.43a5.16,5.16,0,0,0-2.4,4.2C84.23,108.65,85.36,109.25,86.71,108.5Zm-.08-7.73c2.33-1.35,4.28-.22,4.28,2.48a9.27,9.27,0,0,1-4.28,7.35c-2.32,1.35-4.27.3-4.27-2.48A9.67,9.67,0,0,1,86.63,100.77Z" transform="translate(-56.48 -58.1)"/><path class="cls-6" d="M70.73,79.4c.08,0,.15-.08.23-.08L90.61,91.1c-.08,0-.15.07-.23.07h0L70.73,79.4" transform="translate(-56.48 -58.1)"/><path class="cls-8" d="M86.63,99.42c3-1.72,5.4-.37,5.48,3v.15l-1.2.68c0-2.7-2-3.83-4.28-2.48a9.48,9.48,0,0,0-4.27,7.35l-1.2.68v-.15a12,12,0,0,1,5.47-9.23" transform="translate(-56.48 -58.1)"/><polygon class="cls-15" points="40.13 20.18 20.4 9.3 29.63 3.98 49.58 14.7 40.13 20.18"/><path class="cls-6" d="M78.23,110.22c-5.17-3-14.32-8.62-19.5-11.62,4.58,2.62,6.53,4.57,10.58,6.9,2.85,1.65,6,2.85,8.85,4.5a.28.28,0,0,1,.07.22" transform="translate(-56.48 -58.1)"/><path class="cls-14" d="M95,80.45c.23-.08.3.6,0,1.42-.45,1.5-3.3,7.43-3.45,7.73a2.28,2.28,0,0,1-1,1.42c-.08,0-.15.08-.23.08s-.07,0-.15.07c.3-.15.38-.22.45-.22Z" transform="translate(-56.48 -58.1)"/><path class="cls-15" d="M95,80.45l-19.72-11a4.31,4.31,0,0,1,1.57-2.18l19.73,11A4,4,0,0,0,95,80.45" transform="translate(-56.48 -58.1)"/><path class="cls-6" d="M58.43,96.87v-.45c5.7,3.3,13.8,8.33,19.5,11.63-7.5-4.13-12.45-7.2-19.5-11.18" transform="translate(-56.48 -58.1)"/><g class="cls-16"><rect class="cls-17" y="36.15" width="20.55" height="16.65"/></g><g class="cls-18"><rect class="cls-19" x="19.35" y="47.55" width="2.47" height="5.33"/></g><g class="cls-20"><rect class="cls-21" x="20.85" y="42.68" width="2.93" height="4.73"/></g><path class="cls-15" d="M90.68,91,71,79.17l-.45.23c-1.12.75-4,2.85-7.87,5-1.5.9-2.63,2.78-3.45,5,5.55,3.53,13.5,8.7,19.2,12,.82-2.17,2-4.12,3.45-5,3.9-2.25,7.35-4.65,8.4-5.32l.37-.15" transform="translate(-56.48 -58.1)"/><path class="cls-22" d="M71.63,98.52a3.14,3.14,0,0,1,.75,2.1c0,.53-.52.75-1,.38l-6.82-4.43a2.15,2.15,0,0,1-.9-1.65c0-.52.67-1.2,1.2-.9Z" transform="translate(-56.48 -58.1)"/><path class="cls-23" d="M64.13,94.17c-.07,0-.07.08-.15.15l8.25,5.4c0-.07-.07-.15-.07-.22Z" transform="translate(-56.48 -58.1)"/><path class="cls-23" d="M63.68,95.45a.65.65,0,0,0,.15.3l8.33,5.4c.07,0,.07-.08.15-.15Z" transform="translate(-56.48 -58.1)"/><path class="cls-23" d="M63.68,94.7a.29.29,0,0,1-.07.15l8.7,5.7v-.23Z" transform="translate(-56.48 -58.1)"/><path class="cls-24" d="M58.13,93.42h0l.15.08L62.86,96c1.27.75,2.4.45,2.4-.67s-.6-2.1-2-3.3l-3.75-2.55-.15-.08a27.46,27.46,0,0,0-1.28,4" transform="translate(-56.48 -58.1)"/><path class="cls-24" d="M78.53,101.45l-1.2,3.9-3.67-2.1A5.09,5.09,0,0,1,71,99.5c0-1.28,1.2-1.58,2.63-.75Z" transform="translate(-56.48 -58.1)"/><path class="cls-25" d="M104.86,87.42c.15-.07.22,0,.22.15a.52.52,0,0,1-.22.45l-2,1.13c-.15.07-.23,0-.23-.15a.53.53,0,0,1,.23-.45Z" transform="translate(-56.48 -58.1)"/><polygon class="cls-8" points="24.68 27.15 24.38 26.63 20.85 24.52 20.63 24.82 24.68 27.15"/><path class="cls-8" d="M80.86,84.87c-.08,0-.08,0-.08-.07S77,81.35,73.51,80.67a.15.15,0,0,1-.15-.15.16.16,0,0,1,.15-.15c3.52.68,7.27,4,7.42,4.2a.14.14,0,0,1,0,.23c0,.07,0,.07-.07.07" transform="translate(-56.48 -58.1)"/><polygon class="cls-8" points="30.68 30.52 30.38 30 26.85 27.9 26.63 28.13 30.68 30.52"/><path class="cls-8" d="M86.86,88.25c-.08,0-.08,0-.08-.08S83,84.72,79.51,84.05a.16.16,0,0,1-.15-.15.15.15,0,0,1,.15-.15c3.52.67,7.27,4,7.42,4.2a.13.13,0,0,1,0,.22c0,.08,0,.08-.07.08" transform="translate(-56.48 -58.1)"/></svg>