<svg xmlns="http://www.w3.org/2000/svg" xmlns:xlink="http://www.w3.org/1999/xlink" viewBox="0 0 1080 1350"><defs><style>.cls-1{isolation:isolate;}.cls-2{fill:#c3c1c0;}.cls-3{fill:#1e1e1e;}.cls-4{fill:url(#linear-gradient);}.cls-5{fill:url(#linear-gradient-2);}.cls-6{fill:url(#linear-gradient-3);}.cls-7{fill:url(#linear-gradient-4);}.cls-8{fill:url(#linear-gradient-5);}.cls-9{fill:url(#linear-gradient-6);}.cls-10{fill:url(#linear-gradient-7);}.cls-11{fill:url(#linear-gradient-8);}.cls-12{fill:url(#linear-gradient-9);}.cls-13{fill:url(#linear-gradient-10);}.cls-14{fill:url(#linear-gradient-11);}.cls-15{fill:url(#linear-gradient-12);}.cls-16{fill:url(#linear-gradient-13);}.cls-17{fill:url(#linear-gradient-14);}.cls-18{fill:url(#linear-gradient-15);}.cls-19{fill:url(#linear-gradient-16);}.cls-20{fill:url(#linear-gradient-17);}.cls-21{fill:url(#linear-gradient-18);}.cls-22{fill:url(#linear-gradient-19);}.cls-23{fill:url(#linear-gradient-26);}.cls-24{fill:url(#linear-gradient-33);}.cls-25{fill:url(#linear-gradient-34);}.cls-26{fill:url(#linear-gradient-36);}.cls-27{fill:url(#linear-gradient-37);}.cls-28{fill:url(#linear-gradient-38);}.cls-29{fill:url(#linear-gradient-39);}.cls-30{fill:url(#linear-gradient-40);}.cls-31{fill:url(#linear-gradient-41);}.cls-32{fill:url(#linear-gradient-42);}.cls-33{fill:url(#linear-gradient-43);}.cls-34{fill:url(#linear-gradient-44);}.cls-35{fill:url(#linear-gradient-45);}.cls-36{fill:url(#linear-gradient-46);}.cls-37{fill:url(#linear-gradient-47);}.cls-38{fill:url(#linear-gradient-48);}.cls-39{fill:url(#linear-gradient-49);}.cls-40{fill:url(#linear-gradient-50);}.cls-41{fill:url(#linear-gradient-51);}.cls-42{fill:url(#linear-gradient-52);}.cls-43{fill:url(#linear-gradient-53);}.cls-44{fill:url(#linear-gradient-54);}.cls-45{fill:url(#linear-gradient-55);}.cls-46{fill:url(#linear-gradient-56);}.cls-47{fill:url(#linear-gradient-57);}.cls-48{fill:url(#linear-gradient-58);}.cls-49{fill:url(#linear-gradient-59);}.cls-50{fill:url(#linear-gradient-60);}.cls-51{fill:url(#linear-gradient-61);}.cls-52{fill:url(#linear-gradient-62);}.cls-53{fill:url(#linear-gradient-63);}.cls-54{fill:url(#linear-gradient-64);}.cls-55{fill:url(#linear-gradient-65);}.cls-56{fill:url(#linear-gradient-66);}.cls-57{fill:url(#linear-gradient-67);}.cls-58{fill:url(#linear-gradient-68);}.cls-59{fill:url(#linear-gradient-69);}.cls-60{fill:url(#linear-gradient-70);}.cls-61{fill:url(#linear-gradient-71);}.cls-62{fill:url(#linear-gradient-72);}.cls-63{fill:url(#linear-gradient-73);}.cls-64{fill:url(#linear-gradient-74);}.cls-65{fill:url(#linear-gradient-75);}.cls-66{fill:url(#linear-gradient-76);}.cls-67{fill:#9a97aa;}.cls-68{fill:#90919a;}.cls-69{fill:#c8c6e8;}.cls-70{fill:#131313;}.cls-71{fill:url(#linear-gradient-77);}.cls-72{fill:url(#linear-gradient-78);}.cls-73{fill:url(#linear-gradient-79);}.cls-74{fill:url(#linear-gradient-80);}.cls-75{fill:url(#linear-gradient-81);}.cls-76{fill:url(#linear-gradient-82);}.cls-77{fill:url(#linear-gradient-83);}.cls-78{fill:url(#linear-gradient-84);}.cls-79{fill:url(#linear-gradient-85);}.cls-80{fill:url(#linear-gradient-86);}.cls-81{fill:url(#linear-gradient-87);}.cls-82{fill:url(#linear-gradient-88);}.cls-83{fill:url(#linear-gradient-89);}.cls-84{fill:url(#linear-gradient-90);}.cls-85{fill:url(#linear-gradient-91);}.cls-86{fill:url(#linear-gradient-92);}.cls-87{fill:url(#linear-gradient-93);}.cls-88{fill:url(#linear-gradient-94);}.cls-89{fill:url(#linear-gradient-95);}.cls-90{fill:url(#linear-gradient-102);}.cls-91{fill:url(#linear-gradient-109);}.cls-92{fill:url(#linear-gradient-110);}.cls-93{fill:url(#linear-gradient-112);}.cls-94{fill:url(#linear-gradient-113);}.cls-95{fill:url(#linear-gradient-114);}.cls-96{fill:url(#linear-gradient-115);}.cls-97{fill:url(#linear-gradient-116);}.cls-98{fill:url(#linear-gradient-117);}.cls-99{fill:url(#linear-gradient-118);}.cls-100{fill:url(#linear-gradient-119);}.cls-101{fill:url(#linear-gradient-120);}.cls-102{fill:url(#linear-gradient-121);}.cls-103{fill:url(#linear-gradient-122);}.cls-104{fill:url(#linear-gradient-123);}.cls-105{fill:url(#linear-gradient-124);}.cls-106{fill:url(#linear-gradient-125);}.cls-107{fill:url(#linear-gradient-126);}.cls-108{fill:url(#linear-gradient-127);}.cls-109{fill:url(#linear-gradient-128);}.cls-110{fill:url(#linear-gradient-129);}.cls-111{fill:url(#linear-gradient-130);}.cls-112{fill:url(#linear-gradient-131);}.cls-113{fill:url(#linear-gradient-132);}.cls-114{fill:url(#linear-gradient-133);}.cls-115{fill:url(#linear-gradient-134);}.cls-116{fill:url(#linear-gradient-135);}.cls-117{fill:url(#linear-gradient-136);}.cls-118{fill:url(#linear-gradient-137);}.cls-119{fill:url(#linear-gradient-138);}.cls-120{fill:url(#linear-gradient-139);}.cls-121{fill:url(#linear-gradient-140);}.cls-122{fill:url(#linear-gradient-141);}.cls-123{fill:url(#linear-gradient-142);}.cls-124{fill:url(#linear-gradient-143);}.cls-125{fill:url(#linear-gradient-144);}.cls-126{fill:url(#linear-gradient-145);}.cls-127{fill:url(#linear-gradient-146);}.cls-128{fill:url(#linear-gradient-147);}.cls-129{fill:url(#linear-gradient-148);}.cls-130{fill:url(#linear-gradient-149);}.cls-131{fill:url(#linear-gradient-150);}.cls-132{fill:url(#linear-gradient-151);}.cls-133{fill:url(#linear-gradient-152);}.cls-134{fill:#394749;}.cls-135{fill:#ff1436;}.cls-136{fill:#1d232a;}.cls-137{fill:#383f48;}.cls-138,.cls-145{fill:#cbd0d3;}.cls-139{fill:#b7b7b7;}.cls-140{fill:#e2e3e7;}.cls-141{fill:#ff8f08;}.cls-142{fill:#bebebe;}.cls-142,.cls-143,.cls-144,.cls-145,.cls-146,.cls-147{opacity:0.15;}.cls-143{fill:#bac0c4;mix-blend-mode:multiply;}.cls-144{fill:#606060;}.cls-146{fill:#353535;}.cls-147{fill:#161616;}</style><linearGradient id="linear-gradient" x1="-3945.04" y1="1801.65" x2="-3945.16" y2="1801.44" gradientTransform="translate(4837.7 162.81) rotate(12.94)" gradientUnits="userSpaceOnUse"><stop offset="0" stop-color="#181818"/><stop offset="0.27" stop-color="#262626"/><stop offset="0.77" stop-color="#2e2e2e"/></linearGradient><linearGradient id="linear-gradient-2" x1="-3944.44" y1="1801.44" x2="-3944.57" y2="1801.22" xlink:href="#linear-gradient"/><linearGradient id="linear-gradient-3" x1="-3940.07" y1="1801.85" x2="-3940.97" y2="1800.31" xlink:href="#linear-gradient"/><linearGradient id="linear-gradient-4" x1="-3931.18" y1="1810.01" x2="-3936.12" y2="1801.45" xlink:href="#linear-gradient"/><linearGradient id="linear-gradient-5" x1="-3919.16" y1="1813.02" x2="-3923.04" y2="1806.31" xlink:href="#linear-gradient"/><linearGradient id="linear-gradient-6" x1="-3912.24" y1="1844.98" x2="-3927.71" y2="1818.19" xlink:href="#linear-gradient"/><linearGradient id="linear-gradient-7" x1="-3909.11" y1="1822.55" x2="-3910.42" y2="1820.28" xlink:href="#linear-gradient"/><linearGradient id="linear-gradient-8" x1="-3907.38" y1="1825.1" x2="-3908.92" y2="1822.44" xlink:href="#linear-gradient"/><linearGradient id="linear-gradient-9" x1="-3903.05" y1="1833.15" x2="-3904.57" y2="1830.52" xlink:href="#linear-gradient"/><linearGradient id="linear-gradient-10" x1="-3900.87" y1="1838.48" x2="-3903.72" y2="1833.54" xlink:href="#linear-gradient"/><linearGradient id="linear-gradient-11" x1="-3900.87" y1="1862.36" x2="-3901.43" y2="1861.39" xlink:href="#linear-gradient"/><linearGradient id="linear-gradient-12" x1="-3899.93" y1="1859.77" x2="-3900.52" y2="1858.76" xlink:href="#linear-gradient"/><linearGradient id="linear-gradient-13" x1="-3899.11" y1="1857.59" x2="-3900.19" y2="1855.72" xlink:href="#linear-gradient"/><linearGradient id="linear-gradient-14" x1="-3898.22" y1="1854.38" x2="-3902.61" y2="1846.77" xlink:href="#linear-gradient"/><linearGradient id="linear-gradient-15" x1="-3894.32" y1="1865.01" x2="-3936.14" y2="1792.58" xlink:href="#linear-gradient"/><linearGradient id="linear-gradient-16" x1="-3929.53" y1="1768.18" x2="-3929.59" y2="1768.07" xlink:href="#linear-gradient"/><linearGradient id="linear-gradient-17" x1="-3870.34" y1="1841.49" x2="-3872.63" y2="1837.53" xlink:href="#linear-gradient"/><linearGradient id="linear-gradient-18" x1="-3866.91" y1="1871.41" x2="-3866.98" y2="1871.29" xlink:href="#linear-gradient"/><linearGradient id="linear-gradient-19" x1="-3865.61" y1="1867.26" x2="-3867.55" y2="1863.92" xlink:href="#linear-gradient"/><linearGradient id="linear-gradient-26" x1="-3913.15" y1="1845.5" x2="-3928.62" y2="1818.72" xlink:href="#linear-gradient"/><linearGradient id="linear-gradient-33" x1="-3893.66" y1="1864.28" x2="-3935.13" y2="1792.46" xlink:href="#linear-gradient"/><linearGradient id="linear-gradient-34" x1="-3910.07" y1="1777.79" x2="-3911.05" y2="1776.1" xlink:href="#linear-gradient"/><linearGradient id="linear-gradient-36" x1="-3863.96" y1="1868.63" x2="-3866.9" y2="1863.54" xlink:href="#linear-gradient"/><linearGradient id="linear-gradient-37" x1="-3944.62" y1="1801.55" x2="-3944.38" y2="1801.13" gradientTransform="translate(4837.7 162.81) rotate(12.94)" gradientUnits="userSpaceOnUse"><stop offset="0" stop-color="#141414"/><stop offset="0.44" stop-color="#1e1e1e"/><stop offset="0.78" stop-color="#202020"/><stop offset="0.98" stop-color="#292929"/><stop offset="1" stop-color="#2a2a2a"/></linearGradient><linearGradient id="linear-gradient-38" x1="-3940.94" y1="1801.8" x2="-3940.11" y2="1800.36" xlink:href="#linear-gradient-37"/><linearGradient id="linear-gradient-39" x1="-3943.98" y1="1831.47" x2="-3940.46" y2="1825.39" xlink:href="#linear-gradient-37"/><linearGradient id="linear-gradient-40" x1="-3936.08" y1="1847.81" x2="-3932.57" y2="1841.73" xlink:href="#linear-gradient-37"/><linearGradient id="linear-gradient-41" x1="-3935.41" y1="1808.76" x2="-3931.99" y2="1802.85" xlink:href="#linear-gradient-37"/><linearGradient id="linear-gradient-42" x1="-3921.91" y1="1811.3" x2="-3920.58" y2="1808.99" xlink:href="#linear-gradient-37"/><linearGradient id="linear-gradient-43" x1="-3910.02" y1="1821.88" x2="-3909.47" y2="1820.93" xlink:href="#linear-gradient-37"/><linearGradient id="linear-gradient-44" x1="-3908.53" y1="1824.4" x2="-3907.81" y2="1823.16" xlink:href="#linear-gradient-37"/><linearGradient id="linear-gradient-45" x1="-3955.92" y1="1837.18" x2="-3954.78" y2="1835.21" xlink:href="#linear-gradient-37"/><linearGradient id="linear-gradient-46" x1="-3948.47" y1="1803.24" x2="-3947.59" y2="1801.72" xlink:href="#linear-gradient-37"/><linearGradient id="linear-gradient-47" x1="-3945.27" y1="1801.71" x2="-3945.05" y2="1801.34" xlink:href="#linear-gradient-37"/><linearGradient id="linear-gradient-48" x1="-3925.77" y1="1870.11" x2="-3925.52" y2="1869.67" xlink:href="#linear-gradient-37"/><linearGradient id="linear-gradient-49" x1="-3928.03" y1="1842.28" x2="-3917.3" y2="1823.71" xlink:href="#linear-gradient-37"/><linearGradient id="linear-gradient-50" x1="-3904.26" y1="1832.62" x2="-3903.35" y2="1831.04" xlink:href="#linear-gradient-37"/><linearGradient id="linear-gradient-51" x1="-3903.11" y1="1837.55" x2="-3901.27" y2="1834.35" xlink:href="#linear-gradient-37"/><linearGradient id="linear-gradient-52" x1="-3901.61" y1="1862.68" x2="-3900.68" y2="1861.07" xlink:href="#linear-gradient-37"/><linearGradient id="linear-gradient-53" x1="-3900.65" y1="1859.99" x2="-3899.8" y2="1858.53" xlink:href="#linear-gradient-37"/><linearGradient id="linear-gradient-54" x1="-3900.31" y1="1857.8" x2="-3899" y2="1855.52" xlink:href="#linear-gradient-37"/><linearGradient id="linear-gradient-55" x1="-3902.49" y1="1853.36" x2="-3898.97" y2="1847.25" xlink:href="#linear-gradient-37"/><linearGradient id="linear-gradient-56" x1="-3936.37" y1="1853.99" x2="-3910.97" y2="1810" xlink:href="#linear-gradient-37"/><linearGradient id="linear-gradient-57" x1="-3944.62" y1="1801.55" x2="-3944.38" y2="1801.13" gradientTransform="translate(4837.7 162.81) rotate(12.94)" gradientUnits="userSpaceOnUse"><stop offset="0" stop-color="#161616"/><stop offset="0.3" stop-color="#1a1a1a"/><stop offset="0.79" stop-color="#1e1e1e"/><stop offset="0.8" stop-color="#1e1e1e"/></linearGradient><linearGradient id="linear-gradient-58" x1="-3940.94" y1="1801.8" x2="-3940.11" y2="1800.36" xlink:href="#linear-gradient-57"/><linearGradient id="linear-gradient-59" x1="-3943.98" y1="1831.47" x2="-3940.46" y2="1825.39" xlink:href="#linear-gradient-57"/><linearGradient id="linear-gradient-60" x1="-3936.08" y1="1847.81" x2="-3932.57" y2="1841.73" xlink:href="#linear-gradient-57"/><linearGradient id="linear-gradient-61" x1="-3935.41" y1="1808.76" x2="-3931.99" y2="1802.85" xlink:href="#linear-gradient-57"/><linearGradient id="linear-gradient-62" x1="-3921.91" y1="1811.3" x2="-3920.58" y2="1808.99" xlink:href="#linear-gradient-57"/><linearGradient id="linear-gradient-63" x1="-3910.02" y1="1821.88" x2="-3909.47" y2="1820.93" xlink:href="#linear-gradient-57"/><linearGradient id="linear-gradient-64" x1="-3908.53" y1="1824.4" x2="-3907.81" y2="1823.16" xlink:href="#linear-gradient-57"/><linearGradient id="linear-gradient-65" x1="-3955.92" y1="1837.18" x2="-3954.78" y2="1835.21" xlink:href="#linear-gradient-57"/><linearGradient id="linear-gradient-66" x1="-3948.47" y1="1803.24" x2="-3947.59" y2="1801.72" xlink:href="#linear-gradient-57"/><linearGradient id="linear-gradient-67" x1="-3945.27" y1="1801.71" x2="-3945.05" y2="1801.34" xlink:href="#linear-gradient-57"/><linearGradient id="linear-gradient-68" x1="-3925.77" y1="1870.11" x2="-3925.52" y2="1869.67" xlink:href="#linear-gradient-57"/><linearGradient id="linear-gradient-69" x1="-3928.03" y1="1842.28" x2="-3917.3" y2="1823.71" xlink:href="#linear-gradient-57"/><linearGradient id="linear-gradient-70" x1="-3904.26" y1="1832.62" x2="-3903.35" y2="1831.04" xlink:href="#linear-gradient-57"/><linearGradient id="linear-gradient-71" x1="-3903.11" y1="1837.55" x2="-3901.27" y2="1834.35" xlink:href="#linear-gradient-57"/><linearGradient id="linear-gradient-72" x1="-3901.61" y1="1862.68" x2="-3900.68" y2="1861.07" xlink:href="#linear-gradient-57"/><linearGradient id="linear-gradient-73" x1="-3900.65" y1="1859.99" x2="-3899.8" y2="1858.53" xlink:href="#linear-gradient-57"/><linearGradient id="linear-gradient-74" x1="-3900.31" y1="1857.8" x2="-3899" y2="1855.52" xlink:href="#linear-gradient-57"/><linearGradient id="linear-gradient-75" x1="-3902.49" y1="1853.36" x2="-3898.97" y2="1847.25" xlink:href="#linear-gradient-57"/><linearGradient id="linear-gradient-76" x1="-3936.37" y1="1853.99" x2="-3910.97" y2="1810" xlink:href="#linear-gradient-57"/><linearGradient id="linear-gradient-77" x1="-4417.73" y1="1642.23" x2="-4417.85" y2="1642.02" xlink:href="#linear-gradient"/><linearGradient id="linear-gradient-78" x1="-4417.13" y1="1642.02" x2="-4417.26" y2="1641.8" xlink:href="#linear-gradient"/><linearGradient id="linear-gradient-79" x1="-4412.76" y1="1642.44" x2="-4413.66" y2="1640.89" xlink:href="#linear-gradient"/><linearGradient id="linear-gradient-80" x1="-4403.87" y1="1650.6" x2="-4408.81" y2="1642.04" xlink:href="#linear-gradient"/><linearGradient id="linear-gradient-81" x1="-4391.85" y1="1653.6" x2="-4395.73" y2="1646.89" xlink:href="#linear-gradient"/><linearGradient id="linear-gradient-82" x1="-4384.93" y1="1685.56" x2="-4400.39" y2="1658.78" xlink:href="#linear-gradient"/><linearGradient id="linear-gradient-83" x1="-4381.8" y1="1663.13" x2="-4383.1" y2="1660.87" xlink:href="#linear-gradient"/><linearGradient id="linear-gradient-84" x1="-4380.07" y1="1665.69" x2="-4381.61" y2="1663.02" xlink:href="#linear-gradient"/><linearGradient id="linear-gradient-85" x1="-4375.73" y1="1673.73" x2="-4377.25" y2="1671.1" xlink:href="#linear-gradient"/><linearGradient id="linear-gradient-86" x1="-4373.56" y1="1679.07" x2="-4376.41" y2="1674.12" xlink:href="#linear-gradient"/><linearGradient id="linear-gradient-87" x1="-4373.56" y1="1702.94" x2="-4374.12" y2="1701.97" xlink:href="#linear-gradient"/><linearGradient id="linear-gradient-88" x1="-4372.62" y1="1700.35" x2="-4373.2" y2="1699.34" xlink:href="#linear-gradient"/><linearGradient id="linear-gradient-89" x1="-4371.8" y1="1698.18" x2="-4372.88" y2="1696.3" xlink:href="#linear-gradient"/><linearGradient id="linear-gradient-90" x1="-4370.91" y1="1694.97" x2="-4375.3" y2="1687.36" xlink:href="#linear-gradient"/><linearGradient id="linear-gradient-91" x1="-4367.01" y1="1705.6" x2="-4408.83" y2="1633.16" xlink:href="#linear-gradient"/><linearGradient id="linear-gradient-92" x1="-4402.22" y1="1608.76" x2="-4402.28" y2="1608.66" xlink:href="#linear-gradient"/><linearGradient id="linear-gradient-93" x1="-4343.03" y1="1682.08" x2="-4345.32" y2="1678.11" xlink:href="#linear-gradient"/><linearGradient id="linear-gradient-94" x1="-4339.6" y1="1711.99" x2="-4339.67" y2="1711.87" xlink:href="#linear-gradient"/><linearGradient id="linear-gradient-95" x1="-4338.3" y1="1707.85" x2="-4340.23" y2="1704.5" xlink:href="#linear-gradient"/><linearGradient id="linear-gradient-102" x1="-4385.84" y1="1686.09" x2="-4401.31" y2="1659.3" xlink:href="#linear-gradient"/><linearGradient id="linear-gradient-109" x1="-4366.35" y1="1704.87" x2="-4407.82" y2="1633.05" xlink:href="#linear-gradient"/><linearGradient id="linear-gradient-110" x1="-4382.76" y1="1618.37" x2="-4383.74" y2="1616.68" xlink:href="#linear-gradient"/><linearGradient id="linear-gradient-112" x1="-4336.65" y1="1709.21" x2="-4339.59" y2="1704.13" xlink:href="#linear-gradient"/><linearGradient id="linear-gradient-113" x1="-4417.31" y1="1642.13" x2="-4417.07" y2="1641.72" xlink:href="#linear-gradient-37"/><linearGradient id="linear-gradient-114" x1="-4413.62" y1="1642.38" x2="-4412.8" y2="1640.95" xlink:href="#linear-gradient-37"/><linearGradient id="linear-gradient-115" x1="-4416.66" y1="1672.06" x2="-4413.15" y2="1665.97" xlink:href="#linear-gradient-37"/><linearGradient id="linear-gradient-116" x1="-4408.77" y1="1688.39" x2="-4405.26" y2="1682.31" xlink:href="#linear-gradient-37"/><linearGradient id="linear-gradient-117" x1="-4408.09" y1="1649.35" x2="-4404.68" y2="1643.44" xlink:href="#linear-gradient-37"/><linearGradient id="linear-gradient-118" x1="-4394.6" y1="1651.88" x2="-4393.27" y2="1649.57" xlink:href="#linear-gradient-37"/><linearGradient id="linear-gradient-119" x1="-4382.71" y1="1662.47" x2="-4382.16" y2="1661.51" xlink:href="#linear-gradient-37"/><linearGradient id="linear-gradient-120" x1="-4381.22" y1="1664.99" x2="-4380.5" y2="1663.74" xlink:href="#linear-gradient-37"/><linearGradient id="linear-gradient-121" x1="-4428.61" y1="1677.77" x2="-4427.47" y2="1675.79" xlink:href="#linear-gradient-37"/><linearGradient id="linear-gradient-122" x1="-4421.16" y1="1643.83" x2="-4420.28" y2="1642.3" xlink:href="#linear-gradient-37"/><linearGradient id="linear-gradient-123" x1="-4417.96" y1="1642.3" x2="-4417.74" y2="1641.92" xlink:href="#linear-gradient-37"/><linearGradient id="linear-gradient-124" x1="-4398.46" y1="1710.69" x2="-4398.21" y2="1710.25" xlink:href="#linear-gradient-37"/><linearGradient id="linear-gradient-125" x1="-4400.71" y1="1682.86" x2="-4389.99" y2="1664.29" xlink:href="#linear-gradient-37"/><linearGradient id="linear-gradient-126" x1="-4376.95" y1="1673.21" x2="-4376.04" y2="1671.63" xlink:href="#linear-gradient-37"/><linearGradient id="linear-gradient-127" x1="-4375.8" y1="1678.13" x2="-4373.95" y2="1674.94" xlink:href="#linear-gradient-37"/><linearGradient id="linear-gradient-128" x1="-4374.3" y1="1703.26" x2="-4373.37" y2="1701.65" xlink:href="#linear-gradient-37"/><linearGradient id="linear-gradient-129" x1="-4373.34" y1="1700.58" x2="-4372.49" y2="1699.11" xlink:href="#linear-gradient-37"/><linearGradient id="linear-gradient-130" x1="-4373" y1="1698.38" x2="-4371.68" y2="1696.1" xlink:href="#linear-gradient-37"/><linearGradient id="linear-gradient-131" x1="-4375.18" y1="1693.94" x2="-4371.66" y2="1687.83" xlink:href="#linear-gradient-37"/><linearGradient id="linear-gradient-132" x1="-4409.06" y1="1694.58" x2="-4383.66" y2="1650.58" xlink:href="#linear-gradient-37"/><linearGradient id="linear-gradient-133" x1="-4417.31" y1="1642.13" x2="-4417.07" y2="1641.72" xlink:href="#linear-gradient-57"/><linearGradient id="linear-gradient-134" x1="-4413.62" y1="1642.38" x2="-4412.8" y2="1640.95" xlink:href="#linear-gradient-57"/><linearGradient id="linear-gradient-135" x1="-4416.66" y1="1672.06" x2="-4413.15" y2="1665.97" xlink:href="#linear-gradient-57"/><linearGradient id="linear-gradient-136" x1="-4408.77" y1="1688.39" x2="-4405.26" y2="1682.31" xlink:href="#linear-gradient-57"/><linearGradient id="linear-gradient-137" x1="-4408.09" y1="1649.35" x2="-4404.68" y2="1643.44" xlink:href="#linear-gradient-57"/><linearGradient id="linear-gradient-138" x1="-4394.6" y1="1651.88" x2="-4393.27" y2="1649.57" xlink:href="#linear-gradient-57"/><linearGradient id="linear-gradient-139" x1="-4382.71" y1="1662.47" x2="-4382.16" y2="1661.51" xlink:href="#linear-gradient-57"/><linearGradient id="linear-gradient-140" x1="-4381.22" y1="1664.99" x2="-4380.5" y2="1663.74" xlink:href="#linear-gradient-57"/><linearGradient id="linear-gradient-141" x1="-4428.61" y1="1677.77" x2="-4427.47" y2="1675.79" xlink:href="#linear-gradient-57"/><linearGradient id="linear-gradient-142" x1="-4421.16" y1="1643.83" x2="-4420.28" y2="1642.3" xlink:href="#linear-gradient-57"/><linearGradient id="linear-gradient-143" x1="-4417.96" y1="1642.3" x2="-4417.74" y2="1641.92" xlink:href="#linear-gradient-57"/><linearGradient id="linear-gradient-144" x1="-4398.46" y1="1710.69" x2="-4398.21" y2="1710.25" xlink:href="#linear-gradient-57"/><linearGradient id="linear-gradient-145" x1="-4400.71" y1="1682.86" x2="-4389.99" y2="1664.29" xlink:href="#linear-gradient-57"/><linearGradient id="linear-gradient-146" x1="-4376.95" y1="1673.21" x2="-4376.04" y2="1671.63" xlink:href="#linear-gradient-57"/><linearGradient id="linear-gradient-147" x1="-4375.8" y1="1678.13" x2="-4373.95" y2="1674.94" xlink:href="#linear-gradient-57"/><linearGradient id="linear-gradient-148" x1="-4374.3" y1="1703.26" x2="-4373.37" y2="1701.65" xlink:href="#linear-gradient-57"/><linearGradient id="linear-gradient-149" x1="-4373.34" y1="1700.58" x2="-4372.49" y2="1699.11" xlink:href="#linear-gradient-57"/><linearGradient id="linear-gradient-150" x1="-4373" y1="1698.38" x2="-4371.68" y2="1696.1" xlink:href="#linear-gradient-57"/><linearGradient id="linear-gradient-151" x1="-4375.18" y1="1693.94" x2="-4371.66" y2="1687.83" xlink:href="#linear-gradient-57"/><linearGradient id="linear-gradient-152" x1="-4409.06" y1="1694.58" x2="-4383.66" y2="1650.58" xlink:href="#linear-gradient-57"/></defs><g class="cls-1"><g id="Capa_1" data-name="Capa 1"><path class="cls-2" d="M78.14,763.18l495.13,306.19,82.24,50.82,70.08,43.36a11.29,11.29,0,0,0,16.27-5.1,6.3,6.3,0,0,0,9.27,3.46l237.71-145.54c8-4.9,13-15.52,13-28V721.55c0-14.88-6.6-27.91-15.51-35l.58-.31-4-2.09c-.41-.25-.83-.44-1.25-.65L577.88,473.13a25.13,25.13,0,0,0-12.54-2.72l.23-.14-.31.14a25.06,25.06,0,0,0-9.93,2.33l-91,43.42L332.54,575.87l-51.88,12.76L100.79,673.56c-12.33,4.62-21.91,10.79-23.06,19.37C75.1,712.63,78.14,763.18,78.14,763.18ZM347.31,596.83l3.33,2c-1.25-.59-2.47-1.26-3.74-1.76Z"/><path class="cls-3" d="M567.84,1037a107.5,107.5,0,0,0,5.43,32.34l82.24,50.82c3.6-6.49,5.65-15.25,5.65-25.91,0-34.3-21.11-74.89-47-90.49C588.52,988.26,567.84,1003.22,567.84,1037Z"/><path class="cls-3" d="M144.23,775.05a107.38,107.38,0,0,0,5.43,32.33l82.24,50.83c3.6-6.5,5.65-15.25,5.65-25.91,0-34.31-21.11-74.9-47-90.5C164.91,726.27,144.23,741.24,144.23,775.05Z"/><path class="cls-4" d="M589.6,1035.24c-.1.11-.25.14-.35.26l-.09-.23A1.11,1.11,0,0,1,589.6,1035.24Z"/><path class="cls-5" d="M590.39,1035.27c-.29,0-.5,0-.72,0l.08,0Z"/><path class="cls-6" d="M595.63,1036.32a20.48,20.48,0,0,0-3.34-.85,4,4,0,0,1,.85.12l.27.05c.48.11.88.26,1.29.35C595,1036.11,595.3,1036.18,595.63,1036.32Z"/><path class="cls-7" d="M600.66,1046.74c-1.68,0-3.54-2.1-4.19-4.73-.52-2.26.12-4.28,1.53-4.72l.07,0a17.33,17.33,0,0,1,2.06,1c.5.31,1,.62,1.56,1a7.32,7.32,0,0,1,1,2.51C603.37,1044.56,602.41,1046.7,600.66,1046.74Z"/><path class="cls-8" d="M613.75,1051.81a2.84,2.84,0,0,1-2.79-.73,7.42,7.42,0,0,1-2.33-5.81A58,58,0,0,1,613.75,1051.81Z"/><path class="cls-9" d="M613.91,1079.81c-1.09,4.41-3.95,6.62-7.4,6.22l-.29-.87c2.16-.55,3.93-2.45,4.71-5.58,1.5-6.07-1.33-14.54-6.28-18.82-2.63-2.24-5.3-2.88-7.51-2.14l-.29-.87c2.66-2.25,6.5-2,10.19,1.24C612.52,1063.78,615.59,1073,613.91,1079.81Z"/><path class="cls-10" d="M619.9,1063.81a7.53,7.53,0,0,1-.5-.91,7.44,7.44,0,0,1-.49-1.52C619.28,1062.2,619.59,1063,619.9,1063.81Z"/><path class="cls-11" d="M620.92,1066.72c-.33-1-.67-2-1-2.91.36.89.64,1.82,1,2.7A.23.23,0,0,1,620.92,1066.72Z"/><path class="cls-12" d="M623.14,1075.59c-.19-1-.38-2-.56-3,.11.43.16.84.28,1.21C622.93,1074.41,623.08,1075,623.14,1075.59Z"/><path class="cls-13" d="M623.89,1081.33a7.62,7.62,0,0,1-1.12-3.66,4.53,4.53,0,0,1,.37-2.08c.17.78.27,1.54.37,2.3a13,13,0,0,1,.23,2A9,9,0,0,1,623.89,1081.33Z"/><path class="cls-14" d="M619.28,1103.21a5.21,5.21,0,0,1-.6.94c-.19.17-.32.41-.5.57A13.31,13.31,0,0,0,619.28,1103.21Z"/><path class="cls-15" d="M620.65,1100.88c-.15.3-.3.61-.44.91a2,2,0,0,0-.44.58A11.45,11.45,0,0,0,620.65,1100.88Z"/><path class="cls-16" d="M621.89,1097.91c-.21.56-.42,1.12-.62,1.62a5.45,5.45,0,0,1-.46,1C621.17,1099.64,621.51,1098.84,621.89,1097.91Z"/><path class="cls-17" d="M622.89,1094.77a22.69,22.69,0,0,1-.95,3,4.79,4.79,0,0,1-1.33-1.36c-1.52-2.07-1.87-5-.82-6.62.91-1.36,2.49-1.29,4,.1v.06A39.89,39.89,0,0,1,622.89,1094.77Z"/><path class="cls-18" d="M626.71,1095.72c-1.82,7.34-5.38,12.36-10.09,15a5.57,5.57,0,0,1-1.33.72l-.19-.44a11.85,11.85,0,0,0,1.07-.78c3.88-2.81,6.86-7.55,8.44-13.93a29.53,29.53,0,0,0,.77-4.28c2.44-17.76-5.85-40.17-19.57-52-5.25-4.55-10.66-7-15.65-7.3a9.08,9.08,0,0,0-1.88,0l-.07,0-.13-.36c.75-.11,1.51-.22,2.24-.26,5.55-.16,11.64,2.14,17.67,7.33C622.85,1052.21,631.24,1077.39,626.71,1095.72Z"/><path class="cls-19" d="M612.6,1006.12a8.07,8.07,0,0,0-1.15.23l1-.32Z"/><path class="cls-20" d="M652.59,1091.22c.11-1.59.14-3.2.11-4.82a12.52,12.52,0,0,1,0,2.29C652.71,1089.56,652.64,1090.42,652.59,1091.22Z"/><path class="cls-21" d="M650.61,1120.58l-.11.17-1.25.34A6.34,6.34,0,0,0,650.61,1120.58Z"/><polygon class="cls-22" points="653.35 1116.52 653.12 1116.88 649.74 1113.87 653.35 1116.52"/><path class="cls-5" d="M590.39,1035.27c-.29,0-.5,0-.72,0l.08,0Z"/><path class="cls-6" d="M595.63,1036.32a20.48,20.48,0,0,0-3.34-.85,4,4,0,0,1,.85.12l.27.05c.48.11.88.26,1.29.35C595,1036.11,595.3,1036.18,595.63,1036.32Z"/><path class="cls-7" d="M600.66,1046.74c-1.68,0-3.54-2.1-4.19-4.73-.52-2.26.12-4.28,1.53-4.72l.07,0a17.33,17.33,0,0,1,2.06,1c.5.31,1,.62,1.56,1a7.32,7.32,0,0,1,1,2.51C603.37,1044.56,602.41,1046.7,600.66,1046.74Z"/><path class="cls-8" d="M613.75,1051.81a2.84,2.84,0,0,1-2.79-.73,7.42,7.42,0,0,1-2.33-5.81A58,58,0,0,1,613.75,1051.81Z"/><path class="cls-10" d="M619.9,1063.81a7.53,7.53,0,0,1-.5-.91,7.44,7.44,0,0,1-.49-1.52C619.28,1062.2,619.59,1063,619.9,1063.81Z"/><path class="cls-11" d="M620.92,1066.72c-.33-1-.67-2-1-2.91.36.89.64,1.82,1,2.7A.23.23,0,0,1,620.92,1066.72Z"/><path class="cls-23" d="M613.91,1079.81c-1.09,4.41-3.95,6.62-7.4,6.22a7,7,0,0,1-2.71-.78,7,7,0,0,0,2.42-.09c2.16-.55,3.93-2.45,4.71-5.58,1.5-6.07-1.33-14.54-6.28-18.82-2.63-2.24-5.3-2.88-7.51-2.14a5,5,0,0,0-1.88,1.15,8.08,8.08,0,0,1,1.59-2c2.66-2.25,6.5-2,10.19,1.24C612.52,1063.78,615.59,1073,613.91,1079.81Z"/><path class="cls-12" d="M623.14,1075.59c-.19-1-.38-2-.56-3,.11.43.16.84.28,1.21C622.93,1074.41,623.08,1075,623.14,1075.59Z"/><path class="cls-13" d="M623.89,1081.33a7.62,7.62,0,0,1-1.12-3.66,4.53,4.53,0,0,1,.37-2.08c.17.78.27,1.54.37,2.3a13,13,0,0,1,.23,2A9,9,0,0,1,623.89,1081.33Z"/><path class="cls-14" d="M619.28,1103.21a5.21,5.21,0,0,1-.6.94c-.19.17-.32.41-.5.57A13.31,13.31,0,0,0,619.28,1103.21Z"/><path class="cls-15" d="M620.65,1100.88c-.15.3-.3.61-.44.91a2,2,0,0,0-.44.58A11.45,11.45,0,0,0,620.65,1100.88Z"/><path class="cls-16" d="M621.89,1097.91c-.21.56-.42,1.12-.62,1.62a5.45,5.45,0,0,1-.46,1C621.17,1099.64,621.51,1098.84,621.89,1097.91Z"/><path class="cls-17" d="M622.89,1094.77a22.69,22.69,0,0,1-.95,3,4.79,4.79,0,0,1-1.33-1.36c-1.52-2.07-1.87-5-.82-6.62.91-1.36,2.49-1.29,4,.1v.06A39.89,39.89,0,0,1,622.89,1094.77Z"/><path class="cls-24" d="M626.71,1095.72c-1.82,7.34-5.38,12.36-10.09,15a3.17,3.17,0,0,1-.45-.5c3.88-2.81,6.86-7.55,8.44-13.93a29.53,29.53,0,0,0,.77-4.28c2.44-17.76-5.85-40.17-19.57-52-5.25-4.55-10.66-7-15.65-7.3a2.23,2.23,0,0,1,.16-.64c5.55-.16,11.64,2.14,17.67,7.33C622.85,1052.21,631.24,1077.39,626.71,1095.72Z"/><path class="cls-25" d="M629.25,1019.89c-.44-.56-.9-1.06-1.35-1.56l0-.07c.28.33.51.58.73.83A7.57,7.57,0,0,1,629.25,1019.89Z"/><path class="cls-20" d="M652.59,1091.22c.11-1.59.14-3.2.11-4.82a12.52,12.52,0,0,1,0,2.29C652.71,1089.56,652.64,1090.42,652.59,1091.22Z"/><path class="cls-26" d="M655.37,1118a1.45,1.45,0,0,1-.54.42l-1.71-1.57-3.38-3,3.61,2.65Z"/><path class="cls-27" d="M590.39,1035.27c-.29,0-.5,0-.72,0l.08,0Z"/><path class="cls-28" d="M595.63,1036.32a20.48,20.48,0,0,0-3.34-.85,4,4,0,0,1,.85.12l.27.05c.48.11.88.26,1.29.35C595,1036.11,595.3,1036.18,595.63,1036.32Z"/><path class="cls-29" d="M586.23,1066.72c-1.84-.8-3.34-3.47-3.38-6s1.48-3.92,3.31-3.12,3.29,3.39,3.31,5.94S588.06,1067.51,586.23,1066.72Z"/><path class="cls-30" d="M592.21,1084.39c-1.44.84-3.51-.48-4.62-3s-.82-5.15.63-6.05,3.57.49,4.62,3S593.66,1083.49,592.21,1084.39Z"/><path class="cls-31" d="M600.66,1046.74c-1.68,0-3.54-2.1-4.19-4.73-.52-2.26.12-4.28,1.53-4.72l.07,0a17.33,17.33,0,0,1,2.06,1c.5.31,1,.62,1.56,1a7.32,7.32,0,0,1,1,2.51C603.37,1044.56,602.41,1046.7,600.66,1046.74Z"/><path class="cls-32" d="M613.75,1051.81a2.84,2.84,0,0,1-2.79-.73,7.42,7.42,0,0,1-2.33-5.81A58,58,0,0,1,613.75,1051.81Z"/><path class="cls-33" d="M619.9,1063.81a7.53,7.53,0,0,1-.5-.91,7.44,7.44,0,0,1-.49-1.52C619.28,1062.2,619.59,1063,619.9,1063.81Z"/><path class="cls-34" d="M620.92,1066.72c-.33-1-.67-2-1-2.91.36.89.64,1.82,1,2.7A.23.23,0,0,1,620.92,1066.72Z"/><path class="cls-35" d="M571.57,1065.67c0,1,.17,1.92.29,2.89a33.45,33.45,0,0,1-.43-3.52A2.57,2.57,0,0,1,571.57,1065.67Z"/><path class="cls-36" d="M586.35,1035.48a4.31,4.31,0,0,1,1-.11,6.5,6.5,0,0,0-1.68.38l-.09,0a.68.68,0,0,0-.36,0c.24-.08.46-.1.7-.19a.25.25,0,0,0,.16,0,.3.3,0,0,0,.15,0C586.34,1035.55,586.34,1035.55,586.35,1035.48Z"/><path class="cls-37" d="M589.16,1035.27a1.11,1.11,0,0,1,.44,0c-.1.11-.25.14-.35.26Z"/><path class="cls-38" d="M594.57,1107.35a28.53,28.53,0,0,1-3-2.13,16.54,16.54,0,0,0,1.55,1.07A16.12,16.12,0,0,0,594.57,1107.35Z"/><path class="cls-39" d="M613.91,1079.81c-1.09,4.41-3.95,6.62-7.4,6.22a7,7,0,0,1-2.71-.78,7,7,0,0,0,2.42-.09c2.16-.55,3.93-2.45,4.71-5.58,1.5-6.07-1.33-14.54-6.28-18.82-2.63-2.24-5.3-2.88-7.51-2.14a5,5,0,0,0-1.88,1.15,8.08,8.08,0,0,1,1.59-2c2.66-2.25,6.5-2,10.19,1.24C612.52,1063.78,615.59,1073,613.91,1079.81Z"/><path class="cls-40" d="M623.14,1075.59c-.19-1-.38-2-.56-3,.11.43.16.84.28,1.21C622.93,1074.41,623.08,1075,623.14,1075.59Z"/><path class="cls-41" d="M623.89,1081.33a7.62,7.62,0,0,1-1.12-3.66,4.53,4.53,0,0,1,.37-2.08c.17.78.27,1.54.37,2.3a13,13,0,0,1,.23,2A9,9,0,0,1,623.89,1081.33Z"/><path class="cls-42" d="M619.28,1103.21a5.21,5.21,0,0,1-.6.94c-.19.17-.32.41-.5.57A13.31,13.31,0,0,0,619.28,1103.21Z"/><path class="cls-43" d="M620.65,1100.88c-.15.3-.3.61-.44.91a2,2,0,0,0-.44.58A11.45,11.45,0,0,0,620.65,1100.88Z"/><path class="cls-44" d="M621.89,1097.91c-.21.56-.42,1.12-.62,1.62a5.45,5.45,0,0,1-.46,1C621.17,1099.64,621.51,1098.84,621.89,1097.91Z"/><path class="cls-45" d="M622.89,1094.77a22.69,22.69,0,0,1-.95,3,4.79,4.79,0,0,1-1.33-1.36c-1.52-2.07-1.87-5-.82-6.62.91-1.36,2.49-1.29,4,.1v.06A39.89,39.89,0,0,1,622.89,1094.77Z"/><path class="cls-46" d="M626.71,1095.72c-1.82,7.34-5.38,12.36-10.09,15a5.57,5.57,0,0,1-1.33.72l-.09,0a16.85,16.85,0,0,1-3.15,1,13.73,13.73,0,0,0,3.05-1.5,11.85,11.85,0,0,0,1.07-.78c3.88-2.81,6.86-7.55,8.44-13.93a29.53,29.53,0,0,0,.77-4.28c2.44-17.76-5.85-40.17-19.57-52-5.25-4.55-10.66-7-15.65-7.3a9.08,9.08,0,0,0-1.88,0l-.07,0a12.88,12.88,0,0,0-2.83.34,11.05,11.05,0,0,1,2.7-.7c.75-.11,1.51-.22,2.24-.26,5.55-.16,11.64,2.14,17.67,7.33C622.85,1052.21,631.24,1077.39,626.71,1095.72Z"/><path class="cls-3" d="M653.12,1116.88l-3.38-3-1.1-1.11,2.07-8.37a72.35,72.35,0,0,0,1.88-12.57,2.92,2.92,0,0,0,0-.6c.11-1.59.14-3.2.11-4.82a7.68,7.68,0,0,0,0-1.27l0-.07a8.45,8.45,0,0,0-.06-1.22,18.94,18.94,0,0,0-.09-2.57,1.63,1.63,0,0,0,0-.48c-.07-1.49-.2-3-.41-4.52a3.41,3.41,0,0,0-.14-1.17c-.21-1.8-.42-3.59-.76-5.41,0-.21-.1-.49-.16-.84a18.84,18.84,0,0,0-.48-2.45,24.9,24.9,0,0,0-.62-2.76c0-.13-.07-.28-.09-.49a2.89,2.89,0,0,0-.21-.65,1.81,1.81,0,0,0-.18-.71c-.27-1.27-.6-2.55-1-3.84-.11-.43-.22-.86-.38-1.36-.32-1.08-.63-2.15-1-3.24,0-.15-.09-.22-.13-.37h-.07l0-.08,0-.13a1.71,1.71,0,0,0-.16-.5c-.57-1.81-1.23-3.56-2-5.32-1.4-3.4-2.88-6.8-4.66-10.14-.34-.68-.73-1.43-1.14-2.13a94.41,94.41,0,0,0-6.53-10.46.07.07,0,0,0-.06-.08c-.15-.24-.31-.47-.47-.71-.64-.94-1.36-1.84-2.06-2.79a5.77,5.77,0,0,1-.62-.74c-.44-.56-.9-1.06-1.35-1.56l0-.07c-.28-.33-.62-.73-1-1.08a1.32,1.32,0,0,0-.28-.33,5.83,5.83,0,0,0-.63-.67c-1.07-1.23-2.15-2.41-3.32-3.53-.48-.44-.88-.86-1.35-1.3-.75-.76-1.54-1.4-2.3-2.1-1.43-1.25-2.9-2.36-4.3-3.4a18.38,18.38,0,0,0-2.17.27,8.07,8.07,0,0,0-1.15.23c-.39.12-.85.22-1.24.34a2.37,2.37,0,0,0-.78.24l-27.34,7.75a23,23,0,0,0-8.8,5.11c-4.59,4.2-8.16,10.43-10.17,18.54-6.51,26.31,5.58,62.63,27,81.11,10.8,9.36,21.94,12.34,31.16,9.6a3.28,3.28,0,0,0,.7-.18l27.27-7.77a6.34,6.34,0,0,0,1.36-.51,19.67,19.67,0,0,0,4.22-2.13Zm-36.5-6.17a5.57,5.57,0,0,1-1.33.72l-.09,0a16.85,16.85,0,0,1-3.15,1c-6.52,2.37-14.66.43-22.61-6.37-14.84-12.91-23.24-38.09-18.72-56.36,2.37-9.57,7.85-15.33,14.66-16.77a11.05,11.05,0,0,1,2.7-.7c.75-.11,1.51-.22,2.24-.26,5.55-.16,11.64,2.14,17.67,7.33,14.86,12.85,23.25,38,18.72,56.36C624.89,1103.06,621.33,1108.08,616.62,1110.71Z"/><path class="cls-47" d="M590.39,1035.27c-.29,0-.5,0-.72,0l.08,0Z"/><path class="cls-48" d="M595.63,1036.32a20.48,20.48,0,0,0-3.34-.85,4,4,0,0,1,.85.12l.27.05c.48.11.88.26,1.29.35C595,1036.11,595.3,1036.18,595.63,1036.32Z"/><path class="cls-49" d="M586.23,1066.72c-1.84-.8-3.34-3.47-3.38-6s1.48-3.92,3.31-3.12,3.29,3.39,3.31,5.94S588.06,1067.51,586.23,1066.72Z"/><path class="cls-50" d="M592.21,1084.39c-1.44.84-3.51-.48-4.62-3s-.82-5.15.63-6.05,3.57.49,4.62,3S593.66,1083.49,592.21,1084.39Z"/><path class="cls-51" d="M600.66,1046.74c-1.68,0-3.54-2.1-4.19-4.73-.52-2.26.12-4.28,1.53-4.72l.07,0a17.33,17.33,0,0,1,2.06,1c.5.31,1,.62,1.56,1a7.32,7.32,0,0,1,1,2.51C603.37,1044.56,602.41,1046.7,600.66,1046.74Z"/><path class="cls-52" d="M613.75,1051.81a2.84,2.84,0,0,1-2.79-.73,7.42,7.42,0,0,1-2.33-5.81A58,58,0,0,1,613.75,1051.81Z"/><path class="cls-53" d="M619.9,1063.81a7.53,7.53,0,0,1-.5-.91,7.44,7.44,0,0,1-.49-1.52C619.28,1062.2,619.59,1063,619.9,1063.81Z"/><path class="cls-54" d="M620.92,1066.72c-.33-1-.67-2-1-2.91.36.89.64,1.82,1,2.7A.23.23,0,0,1,620.92,1066.72Z"/><path class="cls-55" d="M571.57,1065.67c0,1,.17,1.92.29,2.89a33.45,33.45,0,0,1-.43-3.52A2.57,2.57,0,0,1,571.57,1065.67Z"/><path class="cls-56" d="M586.35,1035.48a4.31,4.31,0,0,1,1-.11,6.5,6.5,0,0,0-1.68.38l-.09,0a.68.68,0,0,0-.36,0c.24-.08.46-.1.7-.19a.25.25,0,0,0,.16,0,.3.3,0,0,0,.15,0C586.34,1035.55,586.34,1035.55,586.35,1035.48Z"/><path class="cls-57" d="M589.16,1035.27a1.11,1.11,0,0,1,.44,0c-.1.11-.25.14-.35.26Z"/><path class="cls-58" d="M594.57,1107.35a28.53,28.53,0,0,1-3-2.13,16.54,16.54,0,0,0,1.55,1.07A16.12,16.12,0,0,0,594.57,1107.35Z"/><path class="cls-59" d="M613.91,1079.81c-1.09,4.41-3.95,6.62-7.4,6.22a7,7,0,0,1-2.71-.78,7,7,0,0,0,2.42-.09c2.16-.55,3.93-2.45,4.71-5.58,1.5-6.07-1.33-14.54-6.28-18.82-2.63-2.24-5.3-2.88-7.51-2.14a5,5,0,0,0-1.88,1.15,8.08,8.08,0,0,1,1.59-2c2.66-2.25,6.5-2,10.19,1.24C612.52,1063.78,615.59,1073,613.91,1079.81Z"/><path class="cls-60" d="M623.14,1075.59c-.19-1-.38-2-.56-3,.11.43.16.84.28,1.21C622.93,1074.41,623.08,1075,623.14,1075.59Z"/><path class="cls-61" d="M623.89,1081.33a7.62,7.62,0,0,1-1.12-3.66,4.53,4.53,0,0,1,.37-2.08c.17.78.27,1.54.37,2.3a13,13,0,0,1,.23,2A9,9,0,0,1,623.89,1081.33Z"/><path class="cls-62" d="M619.28,1103.21a5.21,5.21,0,0,1-.6.94c-.19.17-.32.41-.5.57A13.31,13.31,0,0,0,619.28,1103.21Z"/><path class="cls-63" d="M620.65,1100.88c-.15.3-.3.61-.44.91a2,2,0,0,0-.44.58A11.45,11.45,0,0,0,620.65,1100.88Z"/><path class="cls-64" d="M621.89,1097.91c-.21.56-.42,1.12-.62,1.62a5.45,5.45,0,0,1-.46,1C621.17,1099.64,621.51,1098.84,621.89,1097.91Z"/><path class="cls-65" d="M622.89,1094.77a22.69,22.69,0,0,1-.95,3,4.79,4.79,0,0,1-1.33-1.36c-1.52-2.07-1.87-5-.82-6.62.91-1.36,2.49-1.29,4,.1v.06A39.89,39.89,0,0,1,622.89,1094.77Z"/><path class="cls-66" d="M626.71,1095.72c-1.82,7.34-5.38,12.36-10.09,15a5.57,5.57,0,0,1-1.33.72l-.09,0a16.85,16.85,0,0,1-3.15,1,13.73,13.73,0,0,0,3.05-1.5,11.85,11.85,0,0,0,1.07-.78c3.88-2.81,6.86-7.55,8.44-13.93a29.53,29.53,0,0,0,.77-4.28c2.44-17.76-5.85-40.17-19.57-52-5.25-4.55-10.66-7-15.65-7.3a9.08,9.08,0,0,0-1.88,0l-.07,0a12.88,12.88,0,0,0-2.83.34,11.05,11.05,0,0,1,2.7-.7c.75-.11,1.51-.22,2.24-.26,5.55-.16,11.64,2.14,17.67,7.33C622.85,1052.21,631.24,1077.39,626.71,1095.72Z"/><path class="cls-67" d="M586.23,1066.72c-1.84-.8-3.34-3.47-3.38-6s1.48-3.92,3.31-3.12,3.29,3.39,3.31,5.94S588.06,1067.51,586.23,1066.72Z"/><path class="cls-67" d="M592.21,1084.39c-1.44.84-3.51-.48-4.62-3s-.82-5.15.63-6.05,3.57.49,4.62,3S593.66,1083.49,592.21,1084.39Z"/><path class="cls-67" d="M600.66,1046.74c-1.68,0-3.54-2.1-4.19-4.73-.52-2.26.12-4.28,1.53-4.72l.07,0a17.33,17.33,0,0,1,2.06,1c.5.31,1,.62,1.56,1a7.32,7.32,0,0,1,1,2.51C603.37,1044.56,602.41,1046.7,600.66,1046.74Z"/><path class="cls-67" d="M613.75,1051.81a2.84,2.84,0,0,1-2.79-.73,7.42,7.42,0,0,1-2.33-5.81A58,58,0,0,1,613.75,1051.81Z"/><path class="cls-67" d="M619.9,1063.81a7.53,7.53,0,0,1-.5-.91,7.44,7.44,0,0,1-.49-1.52C619.28,1062.2,619.59,1063,619.9,1063.81Z"/><path class="cls-67" d="M571.57,1065.67c0,1,.17,1.92.29,2.89a33.45,33.45,0,0,1-.43-3.52A2.57,2.57,0,0,1,571.57,1065.67Z"/><path class="cls-67" d="M589.16,1035.27a1.11,1.11,0,0,1,.44,0c-.1.11-.25.14-.35.26Z"/><path class="cls-67" d="M594.57,1107.35a28.53,28.53,0,0,1-3-2.13,16.54,16.54,0,0,0,1.55,1.07A16.12,16.12,0,0,0,594.57,1107.35Z"/><path class="cls-67" d="M613.91,1079.81c-1.09,4.41-3.95,6.62-7.4,6.22a7,7,0,0,1-2.71-.78,7,7,0,0,0,2.42-.09c2.16-.55,3.93-2.45,4.71-5.58,1.5-6.07-1.33-14.54-6.28-18.82-2.63-2.24-5.3-2.88-7.51-2.14a5,5,0,0,0-1.88,1.15,8.08,8.08,0,0,1,1.59-2c2.66-2.25,6.5-2,10.19,1.24C612.52,1063.78,615.59,1073,613.91,1079.81Z"/><path class="cls-67" d="M623.89,1081.33a7.62,7.62,0,0,1-1.12-3.66,4.53,4.53,0,0,1,.37-2.08c.17.78.27,1.54.37,2.3a13,13,0,0,1,.23,2A9,9,0,0,1,623.89,1081.33Z"/><path class="cls-67" d="M622.89,1094.77a22.69,22.69,0,0,1-.95,3,4.79,4.79,0,0,1-1.33-1.36c-1.52-2.07-1.87-5-.82-6.62.91-1.36,2.49-1.29,4,.1v.06A39.89,39.89,0,0,1,622.89,1094.77Z"/><path class="cls-67" d="M608,1039.36c-6-5.19-12.12-7.49-17.67-7.33-.73,0-1.49.15-2.24.26a11.05,11.05,0,0,0-2.7.7,12.88,12.88,0,0,1,2.83-.34l.07,0a9.08,9.08,0,0,1,1.88,0c5,.32,10.4,2.75,15.65,7.3,13.72,11.86,22,34.27,19.57,52a29.53,29.53,0,0,1-.77,4.28c-1.58,6.38-4.56,11.12-8.44,13.93a11.85,11.85,0,0,1-1.07.78,13.73,13.73,0,0,1-3.05,1.5,16.85,16.85,0,0,0,3.15-1l.09,0a5.57,5.57,0,0,0,1.33-.72c4.71-2.63,8.27-7.65,10.09-15C631.24,1077.39,622.85,1052.21,608,1039.36Zm-14.9,66.93a16.54,16.54,0,0,1-1.55-1.07,28.53,28.53,0,0,0,3,2.13A16.12,16.12,0,0,1,593.09,1106.29Zm-7.47-70.49.09,0,.25-.15c-.24.09-.46.11-.7.19A.68.68,0,0,1,585.62,1035.8Z"/><path class="cls-68" d="M586.23,1066.72c-1.84-.8-3.34-3.47-3.38-6s1.48-3.92,3.31-3.12,3.29,3.39,3.31,5.94S588.06,1067.51,586.23,1066.72Z"/><path class="cls-68" d="M592.21,1084.39c-1.44.84-3.51-.48-4.62-3s-.82-5.15.63-6.05,3.57.49,4.62,3S593.66,1083.49,592.21,1084.39Z"/><path class="cls-68" d="M600.66,1046.74c-1.68,0-3.54-2.1-4.19-4.73-.52-2.26.12-4.28,1.53-4.72l.07,0a17.33,17.33,0,0,1,2.06,1c.5.31,1,.62,1.56,1a7.32,7.32,0,0,1,1,2.51C603.37,1044.56,602.41,1046.7,600.66,1046.74Z"/><path class="cls-68" d="M613.75,1051.81a2.84,2.84,0,0,1-2.79-.73,7.42,7.42,0,0,1-2.33-5.81A58,58,0,0,1,613.75,1051.81Z"/><path class="cls-68" d="M619.9,1063.81a7.53,7.53,0,0,1-.5-.91,7.44,7.44,0,0,1-.49-1.52C619.28,1062.2,619.59,1063,619.9,1063.81Z"/><path class="cls-68" d="M613.91,1079.81c-1.09,4.41-3.95,6.62-7.4,6.22a7,7,0,0,1-2.71-.78,7,7,0,0,0,2.42-.09c2.16-.55,3.93-2.45,4.71-5.58,1.5-6.07-1.33-14.54-6.28-18.82-2.63-2.24-5.3-2.88-7.51-2.14a5,5,0,0,0-1.88,1.15,8.08,8.08,0,0,1,1.59-2c2.66-2.25,6.5-2,10.19,1.24C612.52,1063.78,615.59,1073,613.91,1079.81Z"/><path class="cls-68" d="M623.89,1081.33a7.62,7.62,0,0,1-1.12-3.66,4.53,4.53,0,0,1,.37-2.08c.17.78.27,1.54.37,2.3a13,13,0,0,1,.23,2A9,9,0,0,1,623.89,1081.33Z"/><path class="cls-68" d="M622.89,1094.77a22.69,22.69,0,0,1-.95,3,4.79,4.79,0,0,1-1.33-1.36c-1.52-2.07-1.87-5-.82-6.62.91-1.36,2.49-1.29,4,.1v.06A39.89,39.89,0,0,1,622.89,1094.77Z"/><path class="cls-69" d="M571.57,1065.67a2.57,2.57,0,0,0-.14-.63,33.45,33.45,0,0,0,.43,3.52C571.74,1067.59,571.62,1066.63,571.57,1065.67Zm21.52,40.62a16.54,16.54,0,0,1-1.55-1.07,28.53,28.53,0,0,0,3,2.13A16.12,16.12,0,0,1,593.09,1106.29Z"/><path class="cls-69" d="M625.38,1092c2.44-17.76-5.85-40.17-19.57-52-5.25-4.55-10.66-7-15.65-7.3a9.08,9.08,0,0,0-1.88,0l-.07,0a12.88,12.88,0,0,0-2.83.34c-6.81,1.44-12.29,7.2-14.66,16.77-4.52,18.27,3.88,43.45,18.72,56.36,7.95,6.8,16.09,8.74,22.61,6.37a13.73,13.73,0,0,0,3.05-1.5,11.85,11.85,0,0,0,1.07-.78c3.88-2.81,6.86-7.55,8.44-13.93A29.53,29.53,0,0,0,625.38,1092Zm-3.44,5.72-.05.19c-.21.56-.42,1.12-.62,1.62a5.45,5.45,0,0,1-.46,1,.81.81,0,0,1-.16.37c-.15.3-.3.61-.44.91-.35.53-.62,1-.93,1.42a5.21,5.21,0,0,1-.6.94c-.19.17-.32.41-.5.57a6.24,6.24,0,0,1-.72.85c-.3.34-.59.62-.89,1,0,.06-.08,0-.1.11l-1.11,1c-.35.26-.69.46-1.05.72a.06.06,0,0,1-.08.05l0,.07-.07,0c-.52.36-.93.54-1.43.84a7.17,7.17,0,0,1-1.23.54c-.15,0-.23.09-.39.12a.06.06,0,0,0-.08,0h-.07a5.16,5.16,0,0,1-.87.28.59.59,0,0,1-.3.07c-.07,0-.09,0-.16,0a4.52,4.52,0,0,1-1.07.25,14.66,14.66,0,0,1-1.57.2,19.56,19.56,0,0,1-2,0,5.75,5.75,0,0,1-1.13-.11,13,13,0,0,1-3.1-.66,3.25,3.25,0,0,1-.74-.23,16.66,16.66,0,0,1-2.31-.89,30,30,0,0,1-3.08-1.6,28.53,28.53,0,0,1-3-2.13c-.48-.37-1-.82-1.56-1.27s-.82-.78-1.24-1.14l-.16-.23c-.77-.71-1.59-1.49-2.33-2.31a2.08,2.08,0,0,0-.4-.43c-.44-.56-.88-1.13-1.39-1.7a41.81,41.81,0,0,1-2.85-4c-.48-.71-1-1.35-1.44-2.12-.15-.24-.3-.54-.46-.78-.56-.92-1.1-2-1.63-3-.06-.08-.09-.22-.15-.3s0-.08,0-.15a2.81,2.81,0,0,1-.39-.75,5.92,5.92,0,0,1-.38-.82l-.69-1.56c-.51-1.18-1.07-2.45-1.49-3.68a24.21,24.21,0,0,1-.73-2.31c-.38-1.09-.69-2.16-1-3.3a55.53,55.53,0,0,1-1.25-6,5,5,0,0,1-.11-.76,33.45,33.45,0,0,1-.43-3.52,6.15,6.15,0,0,0,0-.68c0-.61-.06-1.23,0-1.83,0-.06,0-.21,0-.27a35.43,35.43,0,0,1,.1-3.61c0-.94.11-1.92.21-2.91s.26-1.9.49-2.85l.11-.45a6.7,6.7,0,0,1,.22-1.17c.16-.63.4-1.32.54-1.9.1-.38.26-.75.35-1.13a.51.51,0,0,1,.14-.24,2.57,2.57,0,0,1,.26-.75v-.07c0-.13.13-.24.17-.37a.77.77,0,0,1,.16-.36,9.46,9.46,0,0,1,.61-1.29c0-.06.11-.17.13-.24v-.06c0-.07.1-.11.12-.18a1,1,0,0,1,.25-.42,2.46,2.46,0,0,1,.36-.59l0-.06c0-.13,0-.2.13-.25a6,6,0,0,1,.8-1.17,2.16,2.16,0,0,1,.45-.64.43.43,0,0,1,.2-.23c.21-.29.5-.56.72-.85s.38-.39.58-.62.39-.39.57-.55a6.07,6.07,0,0,1,1.18-1,3.24,3.24,0,0,1,.8-.57c.16-.1.27-.21.43-.31l.51-.29a8.14,8.14,0,0,1,1-.53l.17-.1a1,1,0,0,1,.32-.13h.07a.07.07,0,0,0,.09-.05,3.67,3.67,0,0,1,.54-.15l.17-.1c.08,0,.24-.08.32-.13s.17-.1.24-.08a.08.08,0,0,0,.09-.05.06.06,0,0,1,.08,0c.07,0,.15,0,.22,0,.24-.08.46-.1.7-.19a.25.25,0,0,0,.16,0,.3.3,0,0,0,.15,0c.07,0,.07,0,.08,0a4.31,4.31,0,0,1,1-.11c.16,0,.23,0,.38,0a9.79,9.79,0,0,1,1.32-.06h.07a1.11,1.11,0,0,1,.44,0h.07l.08,0,.64.07a18.93,18.93,0,0,1,1.9.2,4,4,0,0,1,.85.12l.27.05c.48.11.88.26,1.29.35.26.12.6.19.93.33s.33.14.54.18a4,4,0,0,1,.79.3c.26.13.59.26.85.39.07,0,.12.09.19.1l.07,0a17.33,17.33,0,0,1,2.06,1,38.68,38.68,0,0,1,3.35,2.26,19,19,0,0,1,1.81,1.47c.59.53,1.13,1,1.71,1.57a20.78,20.78,0,0,1,1.63,1.62,58,58,0,0,1,5.12,6.54,51.21,51.21,0,0,1,2.76,4.62c.46.77.84,1.59,1.29,2.43s.68,1.62,1.07,2.38c.06.08.06.08,0,.14.37.82.68,1.63,1,2.43s.64,1.82,1,2.7a.23.23,0,0,1,0,.21,24.39,24.39,0,0,1,.87,2.94,1.8,1.8,0,0,1,.16.5c.24.79.46,1.65.63,2.42.11.43.16.84.28,1.21.07.62.22,1.19.28,1.8.17.78.27,1.54.37,2.3a13,13,0,0,1,.23,2,9,9,0,0,1,.15,1.44l0,.13c.12.7.08,1.43.13,2.11,0,.27,0,.54,0,.81l0,.2a1.61,1.61,0,0,1,0,.47,1.35,1.35,0,0,1,0,.48v.06c0,.73,0,1.48-.11,2.2s-.06,1.4-.15,2v.06a39.89,39.89,0,0,1-.84,4.87A22.69,22.69,0,0,1,621.94,1097.72Z"/><path class="cls-67" d="M614.14,1108.43c-.52.36-.93.54-1.43.84a7.17,7.17,0,0,1-1.23.54c-.15,0-.23.09-.39.12a.06.06,0,0,0-.08,0h-.07a5.16,5.16,0,0,1-.87.28.59.59,0,0,1-.3.07c-.07,0-.09,0-.16,0a4.52,4.52,0,0,1-1.07.25,14.66,14.66,0,0,1-1.57.2,19.56,19.56,0,0,1-2,0,5.75,5.75,0,0,1-1.13-.11,13,13,0,0,1-3.1-.66,3.25,3.25,0,0,1-.74-.23,16.66,16.66,0,0,1-2.31-.89,30,30,0,0,1-3.08-1.6,16.12,16.12,0,0,1-1.48-1.06,16.54,16.54,0,0,1-1.55-1.07c-.48-.37-1-.82-1.56-1.27s-.82-.78-1.24-1.14l-.16-.23c-.77-.71-1.59-1.49-2.33-2.31a2.08,2.08,0,0,0-.4-.43c-.44-.56-.88-1.13-1.39-1.7a41.81,41.81,0,0,1-2.85-4c-.48-.71-1-1.35-1.44-2.12-.15-.24-.3-.54-.46-.78-.55-1-1.1-2-1.63-3-.06-.08-.09-.22-.15-.3s0-.08,0-.15a2.81,2.81,0,0,1-.39-.75,5.92,5.92,0,0,1-.38-.82l-.69-1.56c-.51-1.18-1.07-2.45-1.49-3.68a24.21,24.21,0,0,1-.73-2.31c-.38-1.09-.69-2.16-1-3.3a55.53,55.53,0,0,1-1.25-6,5,5,0,0,1-.11-.76c-.12-1-.24-1.93-.29-2.89a2.57,2.57,0,0,0-.14-.63,6.15,6.15,0,0,0,0-.68c0-.61-.06-1.23,0-1.83,0-.06,0-.21,0-.27a35.43,35.43,0,0,1,.1-3.61c0-.94.11-1.92.21-2.91s.26-1.9.49-2.85l.11-.45a6.7,6.7,0,0,1,.22-1.17c.16-.63.4-1.32.54-1.9.1-.38.26-.75.35-1.13a.51.51,0,0,1,.14-.24,2.57,2.57,0,0,1,.26-.75v-.07c0-.13.13-.24.17-.37a.77.77,0,0,1,.16-.36,9.46,9.46,0,0,1,.61-1.29c0-.06.11-.17.13-.24v-.06c0-.07.1-.11.12-.18a1,1,0,0,1,.25-.42,2.46,2.46,0,0,1,.36-.59l0-.06c0-.13,0-.2.13-.25a8.3,8.3,0,0,1,.8-1.17,2.16,2.16,0,0,1,.45-.64.43.43,0,0,1,.2-.23c.21-.29.5-.56.72-.85s.38-.39.58-.62.39-.39.57-.55a6.07,6.07,0,0,1,1.18-1,3.3,3.3,0,0,1,.8-.57c.16-.1.27-.21.43-.31l.51-.29a8.14,8.14,0,0,1,1-.53l.17-.1a1,1,0,0,1,.32-.13h.07a.07.07,0,0,0,.09-.05,3.67,3.67,0,0,1,.54-.15l.17-.1c.08,0,.24-.08.32-.13s.17-.1.24-.08a.08.08,0,0,0,.09-.05.06.06,0,0,1,.08,0c.07,0,.15,0,.22,0a.68.68,0,0,1,.36,0l.09,0a6.5,6.5,0,0,1,1.68-.38c.16,0,.23,0,.38,0a9.79,9.79,0,0,1,1.32-.06h.07l.09.23c-3.84,2.61-6.76,7.09-8.31,13.35-4.23,17.11,3.63,40.64,17.53,52.68C603.79,1106.09,609.23,1108.39,614.14,1108.43Z"/><path class="cls-68" d="M620.61,1096.36c-1.52-2.07-1.87-5-.82-6.62.91-1.36,2.49-1.29,4,.1.09-.65.11-1.32.15-2s.07-1.47.11-2.2v-.06a1.35,1.35,0,0,0,0-.48,1.61,1.61,0,0,0,0-.47l0-.2c0-.27,0-.54,0-.81,0-.68,0-1.41-.13-2.11l0-.13a7.62,7.62,0,0,1-1.12-3.66,4.53,4.53,0,0,1,.37-2.08c-.19-1-.38-2-.56-3-.17-.77-.39-1.63-.63-2.42a1.8,1.8,0,0,0-.16-.5c-.26-1-.52-2-.87-2.94s-.67-2-1-2.91a7.53,7.53,0,0,1-.5-.91,7.44,7.44,0,0,1-.49-1.52c0-.06,0-.06,0-.14-.39-.76-.7-1.56-1.07-2.38s-.83-1.66-1.29-2.43a51.21,51.21,0,0,0-2.76-4.62,2.84,2.84,0,0,1-2.79-.73,7.42,7.42,0,0,1-2.33-5.81,20.78,20.78,0,0,0-1.63-1.62c-.58-.59-1.12-1-1.71-1.57a19,19,0,0,0-1.81-1.47c-.61-.46-1.23-.86-1.79-1.25a7.32,7.32,0,0,1,1,2.51c.64,2.69-.32,4.83-2.07,4.87s-3.54-2.1-4.19-4.73c-.52-2.26.12-4.28,1.53-4.72-.07,0-.12-.09-.19-.1-.26-.13-.59-.26-.85-.39a4,4,0,0,0-.79-.3c-.21,0-.33-.14-.54-.18a20.48,20.48,0,0,0-3.34-.85,18.93,18.93,0,0,0-1.9-.2c-.29,0-.5,0-.72,0h-.07c-.1.11-.25.14-.35.26-3.84,2.61-6.76,7.09-8.31,13.35-4.23,17.11,3.63,40.64,17.53,52.68,5.32,4.56,10.76,6.86,15.67,6.9l.07,0,0-.07a.06.06,0,0,0,.08-.05c.36-.26.7-.46,1.05-.72l1.11-1c0-.06.09-.05.1-.11.3-.34.59-.62.89-1a6.24,6.24,0,0,0,.72-.85,13.31,13.31,0,0,0,1.1-1.51,3.44,3.44,0,0,0,.49-.84,11.45,11.45,0,0,0,.88-1.49.81.81,0,0,0,.16-.37c.36-.87.7-1.67,1.08-2.6l.05-.19A4.79,4.79,0,0,1,620.61,1096.36Zm-34.38-29.64c-1.84-.8-3.34-3.47-3.38-6s1.48-3.92,3.31-3.12,3.29,3.39,3.31,5.94S588.06,1067.51,586.23,1066.72Zm6.29-15.2a2.22,2.22,0,0,1-3.4.28,6.36,6.36,0,0,1-1.21-1.26c-1.51-2.07-1.92-5.12-.87-6.71a2,2,0,0,1,2-.86,4,4,0,0,1,2.73,1.86C593.15,1047,593.57,1049.93,592.52,1051.52Zm-.31,32.87c-1.44.84-3.51-.48-4.62-3s-.82-5.15.63-6.05,3.57.49,4.62,3S593.66,1083.49,592.21,1084.39Zm7.15,13.56a7.39,7.39,0,0,1-2.2-6.65c.46-1.85,1.85-2.5,3.31-1.65a2.75,2.75,0,0,1,.81.51,7.59,7.59,0,0,1,2.35,4.87,7.84,7.84,0,0,1-.14,1.72C603,1098.92,601.08,1099.46,599.36,1098Zm8.09-9.3a12,12,0,0,1-7-3.16,24.13,24.13,0,0,1-4.78-5.86c-.06-.08-.11-.16-.09-.22a28,28,0,0,1-3.53-10.64c-.05-.08-.05-.08,0-.14a19.86,19.86,0,0,1,.33-7.46,10.68,10.68,0,0,1,3.59-6c3-2.25,7.4-1.79,11.58,1.79,6.45,5.55,10.07,16.4,8.11,24.32C614.42,1086.24,611.26,1088.79,607.45,1088.65Zm6.26,15.39a3.31,3.31,0,0,1-1.1-.24,6.75,6.75,0,0,1-3.09-4.49,5.1,5.1,0,0,1,.34-3.69,2.08,2.08,0,0,1,1.72-1.11c1.75,0,3.62,2,4.21,4.66S615.46,1104,613.71,1104Z"/><path class="cls-70" d="M607.55,1056.94c-4.18-3.58-8.56-4-11.58-1.79a10.68,10.68,0,0,0-3.59,6,19.86,19.86,0,0,0-.33,7.46c0,.06,0,.06,0,.14a28,28,0,0,0,3.53,10.64c0,.06,0,.14.09.22a24.13,24.13,0,0,0,4.78,5.86,12,12,0,0,0,7,3.16c3.81.14,7-2.41,8.21-7.39C617.62,1073.34,614,1062.49,607.55,1056.94Zm-1,29.09a7,7,0,0,1-2.71-.78,9.65,9.65,0,0,1-4.62-2.4,19.23,19.23,0,0,1-4.55-6.21c0-.14-.16-.23-.12-.36a42.7,42.7,0,0,1-1.59-4.71,17.54,17.54,0,0,1,0-7.53,8.72,8.72,0,0,1,2.36-4.27,8.08,8.08,0,0,1,1.59-2c2.66-2.25,6.5-2,10.19,1.24,5.48,4.79,8.55,14,6.87,20.82C612.82,1084.22,610,1086.43,606.51,1086Z"/><path class="cls-70" d="M613.91,1079.81c-1.09,4.41-3.95,6.62-7.4,6.22a7,7,0,0,1-2.71-.78,7,7,0,0,0,2.42-.09c2.16-.55,3.93-2.45,4.71-5.58,1.5-6.07-1.33-14.54-6.28-18.82-2.63-2.24-5.3-2.88-7.51-2.14a5,5,0,0,0-1.88,1.15,8.08,8.08,0,0,1,1.59-2c2.66-2.25,6.5-2,10.19,1.24C612.52,1063.78,615.59,1073,613.91,1079.81Z"/><path class="cls-67" d="M613.91,1079.81c-1.09,4.41-3.95,6.62-7.4,6.22a7,7,0,0,1-2.71-.78,7,7,0,0,0,2.42-.09c2.16-.55,3.93-2.45,4.71-5.58,1.5-6.07-1.33-14.54-6.28-18.82-2.63-2.24-5.3-2.88-7.51-2.14a5,5,0,0,0-1.88,1.15,8.08,8.08,0,0,1,1.59-2c2.66-2.25,6.5-2,10.19,1.24C612.52,1063.78,615.59,1073,613.91,1079.81Z"/><path class="cls-69" d="M610.93,1079.58c-.78,3.13-2.55,5-4.71,5.58a7,7,0,0,1-2.42.09,9.65,9.65,0,0,1-4.62-2.4,19.23,19.23,0,0,1-4.55-6.21c0-.14-.16-.23-.12-.36a42.7,42.7,0,0,1-1.59-4.71,17.54,17.54,0,0,1,0-7.53,8.72,8.72,0,0,1,2.36-4.27,5,5,0,0,1,1.88-1.15c2.21-.74,4.88-.1,7.51,2.14C609.6,1065,612.43,1073.51,610.93,1079.58Z"/><path class="cls-70" d="M613.75,1051.81a2.84,2.84,0,0,1-2.79-.73,7.42,7.42,0,0,1-2.33-5.81A58,58,0,0,1,613.75,1051.81Z"/><path class="cls-70" d="M619.9,1063.81a7.53,7.53,0,0,1-.5-.91,7.44,7.44,0,0,1-.49-1.52C619.28,1062.2,619.59,1063,619.9,1063.81Z"/><path class="cls-70" d="M623.89,1081.33a7.62,7.62,0,0,1-1.12-3.66,4.53,4.53,0,0,1,.37-2.08c.17.78.27,1.54.37,2.3a13,13,0,0,1,.23,2A9,9,0,0,1,623.89,1081.33Z"/><path class="cls-70" d="M622.89,1094.77a22.69,22.69,0,0,1-.95,3,4.79,4.79,0,0,1-1.33-1.36c-1.52-2.07-1.87-5-.82-6.62.91-1.36,2.49-1.29,4,.1v.06A39.89,39.89,0,0,1,622.89,1094.77Z"/><path class="cls-70" d="M613.71,1104a3.31,3.31,0,0,1-1.1-.24,6.75,6.75,0,0,1-3.09-4.49,5.1,5.1,0,0,1,.34-3.69,2.08,2.08,0,0,1,1.72-1.11c1.75,0,3.62,2,4.21,4.66S615.46,1104,613.71,1104Z"/><path class="cls-70" d="M603.49,1096.75c-.54,2.17-2.41,2.71-4.13,1.2a7.39,7.39,0,0,1-2.2-6.65c.46-1.85,1.85-2.5,3.31-1.65a2.75,2.75,0,0,1,.81.51,7.59,7.59,0,0,1,2.35,4.87A7.84,7.84,0,0,1,603.49,1096.75Z"/><path class="cls-70" d="M592.21,1084.39c-1.44.84-3.51-.48-4.62-3s-.82-5.15.63-6.05,3.57.49,4.62,3S593.66,1083.49,592.21,1084.39Z"/><path class="cls-70" d="M586.23,1066.72c-1.84-.8-3.34-3.47-3.38-6s1.48-3.92,3.31-3.12,3.29,3.39,3.31,5.94S588.06,1067.51,586.23,1066.72Z"/><path class="cls-70" d="M592.52,1051.52a2.22,2.22,0,0,1-3.4.28,6.36,6.36,0,0,1-1.21-1.26c-1.51-2.07-1.92-5.12-.87-6.71a2,2,0,0,1,2-.86,4,4,0,0,1,2.73,1.86C593.15,1047,593.57,1049.93,592.52,1051.52Z"/><path class="cls-70" d="M600.66,1046.74c-1.68,0-3.54-2.1-4.19-4.73-.52-2.26.12-4.28,1.53-4.72l.07,0a17.33,17.33,0,0,1,2.06,1c.5.31,1,.62,1.56,1a7.32,7.32,0,0,1,1,2.51C603.37,1044.56,602.41,1046.7,600.66,1046.74Z"/><path class="cls-71" d="M164.61,774c-.1.12-.26.15-.36.26l-.09-.22A1.17,1.17,0,0,1,164.61,774Z"/><path class="cls-72" d="M165.39,774.07c-.29,0-.49,0-.72,0l.09,0Z"/><path class="cls-73" d="M170.64,775.12a20.75,20.75,0,0,0-3.34-.85,4,4,0,0,1,.84.11l.27.06c.49.1.88.26,1.3.34C170,774.91,170.31,775,170.64,775.12Z"/><path class="cls-74" d="M175.66,785.53c-1.67.05-3.53-2.1-4.19-4.72-.52-2.27.12-4.28,1.53-4.72l.07,0a14.75,14.75,0,0,1,2.06,1c.51.31,1,.62,1.56,1a7.48,7.48,0,0,1,1.05,2.5C178.38,783.36,177.41,785.5,175.66,785.53Z"/><path class="cls-75" d="M188.75,790.61a2.85,2.85,0,0,1-2.79-.73,7.42,7.42,0,0,1-2.33-5.81A57.12,57.12,0,0,1,188.75,790.61Z"/><path class="cls-76" d="M188.92,818.61c-1.09,4.41-4,6.62-7.41,6.22l-.29-.87c2.16-.55,3.94-2.45,4.71-5.58,1.5-6.07-1.32-14.54-6.28-18.82-2.63-2.24-5.3-2.88-7.51-2.14l-.29-.87c2.66-2.25,6.5-2,10.2,1.23C187.52,802.58,190.59,811.84,188.92,818.61Z"/><path class="cls-77" d="M194.91,802.61a5.51,5.51,0,0,1-.5-.91,6.92,6.92,0,0,1-.5-1.52C194.29,801,194.6,801.8,194.91,802.61Z"/><path class="cls-78" d="M195.92,805.52c-.33-1-.67-2-1-2.91.36.88.63,1.82,1,2.7A.2.2,0,0,1,195.92,805.52Z"/><path class="cls-79" d="M198.15,814.39c-.2-1-.39-2-.56-3,.11.43.15.84.28,1.21C197.93,813.2,198.08,813.77,198.15,814.39Z"/><path class="cls-80" d="M198.9,820.13a7.41,7.41,0,0,1-1.12-3.66,4.41,4.41,0,0,1,.37-2.08c.16.78.27,1.54.37,2.3a15.87,15.87,0,0,1,.23,2A12.14,12.14,0,0,1,198.9,820.13Z"/><path class="cls-81" d="M194.28,842a4.52,4.52,0,0,1-.6,1c-.18.16-.31.4-.5.57A14.4,14.4,0,0,0,194.28,842Z"/><path class="cls-82" d="M195.65,839.67c-.14.31-.29.61-.44.92a2,2,0,0,0-.43.58A12,12,0,0,0,195.65,839.67Z"/><path class="cls-83" d="M196.89,836.71l-.61,1.62a6.68,6.68,0,0,1-.46,1C196.18,838.44,196.52,837.64,196.89,836.71Z"/><path class="cls-84" d="M197.89,833.56a21,21,0,0,1-.95,3,5.07,5.07,0,0,1-1.33-1.36c-1.51-2.07-1.87-5-.82-6.63.91-1.35,2.49-1.28,4,.11l0,.06A39.4,39.4,0,0,1,197.89,833.56Z"/><path class="cls-85" d="M201.71,834.51c-1.82,7.35-5.38,12.37-10.08,15a5.49,5.49,0,0,1-1.34.73l-.18-.44a10.07,10.07,0,0,0,1.06-.79c3.88-2.8,6.87-7.54,8.45-13.93a30.53,30.53,0,0,0,.76-4.27c2.45-17.76-5.84-40.17-19.56-52-5.25-4.55-10.66-7-15.65-7.31a9.85,9.85,0,0,0-1.88,0l-.07,0-.13-.36c.75-.11,1.5-.22,2.24-.26,5.54-.17,11.63,2.14,17.67,7.33C197.85,791,206.25,816.19,201.71,834.51Z"/><path class="cls-86" d="M187.6,744.92a7.94,7.94,0,0,0-1.14.23l1-.32Z"/><path class="cls-87" d="M227.6,830c.1-1.6.13-3.2.1-4.82a12.52,12.52,0,0,1,0,2.29C227.72,828.36,227.65,829.22,227.6,830Z"/><path class="cls-88" d="M225.62,859.37l-.12.18-1.24.34A6.39,6.39,0,0,0,225.62,859.37Z"/><polygon class="cls-89" points="228.36 855.32 228.13 855.67 224.74 852.67 228.36 855.32"/><path class="cls-72" d="M165.39,774.07c-.29,0-.49,0-.72,0l.09,0Z"/><path class="cls-73" d="M170.64,775.12a20.75,20.75,0,0,0-3.34-.85,4,4,0,0,1,.84.11l.27.06c.49.1.88.26,1.3.34C170,774.91,170.31,775,170.64,775.12Z"/><path class="cls-74" d="M175.66,785.53c-1.67.05-3.53-2.1-4.19-4.72-.52-2.27.12-4.28,1.53-4.72l.07,0a14.75,14.75,0,0,1,2.06,1c.51.31,1,.62,1.56,1a7.48,7.48,0,0,1,1.05,2.5C178.38,783.36,177.41,785.5,175.66,785.53Z"/><path class="cls-75" d="M188.75,790.61a2.85,2.85,0,0,1-2.79-.73,7.42,7.42,0,0,1-2.33-5.81A57.12,57.12,0,0,1,188.75,790.61Z"/><path class="cls-77" d="M194.91,802.61a5.51,5.51,0,0,1-.5-.91,6.92,6.92,0,0,1-.5-1.52C194.29,801,194.6,801.8,194.91,802.61Z"/><path class="cls-78" d="M195.92,805.52c-.33-1-.67-2-1-2.91.36.88.63,1.82,1,2.7A.2.2,0,0,1,195.92,805.52Z"/><path class="cls-90" d="M188.92,818.61c-1.09,4.41-4,6.62-7.41,6.22a6.94,6.94,0,0,1-2.7-.78,6.92,6.92,0,0,0,2.41-.09c2.16-.55,3.94-2.45,4.71-5.58,1.5-6.07-1.32-14.54-6.28-18.82-2.63-2.24-5.3-2.88-7.51-2.14a5,5,0,0,0-1.87,1.15,8,8,0,0,1,1.58-2c2.66-2.25,6.5-2,10.2,1.23C187.52,802.58,190.59,811.84,188.92,818.61Z"/><path class="cls-79" d="M198.15,814.39c-.2-1-.39-2-.56-3,.11.43.15.84.28,1.21C197.93,813.2,198.08,813.77,198.15,814.39Z"/><path class="cls-80" d="M198.9,820.13a7.41,7.41,0,0,1-1.12-3.66,4.41,4.41,0,0,1,.37-2.08c.16.78.27,1.54.37,2.3a15.87,15.87,0,0,1,.23,2A12.14,12.14,0,0,1,198.9,820.13Z"/><path class="cls-81" d="M194.28,842a4.52,4.52,0,0,1-.6,1c-.18.16-.31.4-.5.57A14.4,14.4,0,0,0,194.28,842Z"/><path class="cls-82" d="M195.65,839.67c-.14.31-.29.61-.44.92a2,2,0,0,0-.43.58A12,12,0,0,0,195.65,839.67Z"/><path class="cls-83" d="M196.89,836.71l-.61,1.62a6.68,6.68,0,0,1-.46,1C196.18,838.44,196.52,837.64,196.89,836.71Z"/><path class="cls-84" d="M197.89,833.56a21,21,0,0,1-.95,3,5.07,5.07,0,0,1-1.33-1.36c-1.51-2.07-1.87-5-.82-6.63.91-1.35,2.49-1.28,4,.11l0,.06A39.4,39.4,0,0,1,197.89,833.56Z"/><path class="cls-91" d="M201.71,834.51c-1.82,7.35-5.38,12.37-10.08,15a2.48,2.48,0,0,1-.46-.5c3.88-2.8,6.87-7.54,8.45-13.93a30.53,30.53,0,0,0,.76-4.27c2.45-17.76-5.84-40.17-19.56-52-5.25-4.55-10.66-7-15.65-7.31a2,2,0,0,1,.16-.63c5.54-.17,11.63,2.14,17.67,7.33C197.85,791,206.25,816.19,201.71,834.51Z"/><path class="cls-92" d="M204.26,758.69c-.44-.56-.9-1.06-1.36-1.57l0-.06c.28.33.51.58.74.83A7.94,7.94,0,0,1,204.26,758.69Z"/><path class="cls-87" d="M227.6,830c.1-1.6.13-3.2.1-4.82a12.52,12.52,0,0,1,0,2.29C227.72,828.36,227.65,829.22,227.6,830Z"/><path class="cls-93" d="M230.38,856.83a1.63,1.63,0,0,1-.54.42l-1.71-1.58-3.39-3,3.62,2.65Z"/><path class="cls-94" d="M165.39,774.07c-.29,0-.49,0-.72,0l.09,0Z"/><path class="cls-95" d="M170.64,775.12a20.75,20.75,0,0,0-3.34-.85,4,4,0,0,1,.84.11l.27.06c.49.1.88.26,1.3.34C170,774.91,170.31,775,170.64,775.12Z"/><path class="cls-96" d="M161.23,805.51c-1.83-.79-3.34-3.47-3.38-6s1.48-3.92,3.31-3.13,3.29,3.39,3.31,6S163.06,806.31,161.23,805.51Z"/><path class="cls-97" d="M167.21,823.19c-1.44.84-3.5-.48-4.61-3s-.83-5.15.62-6.05,3.58.49,4.62,3S168.67,822.29,167.21,823.19Z"/><path class="cls-98" d="M175.66,785.53c-1.67.05-3.53-2.1-4.19-4.72-.52-2.27.12-4.28,1.53-4.72l.07,0a14.75,14.75,0,0,1,2.06,1c.51.31,1,.62,1.56,1a7.48,7.48,0,0,1,1.05,2.5C178.38,783.36,177.41,785.5,175.66,785.53Z"/><path class="cls-99" d="M188.75,790.61a2.85,2.85,0,0,1-2.79-.73,7.42,7.42,0,0,1-2.33-5.81A57.12,57.12,0,0,1,188.75,790.61Z"/><path class="cls-100" d="M194.91,802.61a5.51,5.51,0,0,1-.5-.91,6.92,6.92,0,0,1-.5-1.52C194.29,801,194.6,801.8,194.91,802.61Z"/><path class="cls-101" d="M195.92,805.52c-.33-1-.67-2-1-2.91.36.88.63,1.82,1,2.7A.2.2,0,0,1,195.92,805.52Z"/><path class="cls-102" d="M146.57,804.47c.05.95.18,1.92.3,2.89a28.88,28.88,0,0,1-.43-3.52A2.08,2.08,0,0,1,146.57,804.47Z"/><path class="cls-103" d="M161.36,774.28a4.26,4.26,0,0,1,1-.11,6.48,6.48,0,0,0-1.69.38l-.08.05a.69.69,0,0,0-.36,0c.24-.09.46-.11.7-.19a.34.34,0,0,0,.15,0,.27.27,0,0,0,.15,0C161.34,774.34,161.34,774.34,161.36,774.28Z"/><path class="cls-104" d="M164.16,774.07a1.17,1.17,0,0,1,.45,0c-.1.12-.26.15-.36.26Z"/><path class="cls-105" d="M169.57,846.15a28.45,28.45,0,0,1-3-2.13,17,17,0,0,0,1.54,1.07C168.58,845.46,169.07,845.84,169.57,846.15Z"/><path class="cls-106" d="M188.92,818.61c-1.09,4.41-4,6.62-7.41,6.22a6.94,6.94,0,0,1-2.7-.78,6.92,6.92,0,0,0,2.41-.09c2.16-.55,3.94-2.45,4.71-5.58,1.5-6.07-1.32-14.54-6.28-18.82-2.63-2.24-5.3-2.88-7.51-2.14a5,5,0,0,0-1.87,1.15,8,8,0,0,1,1.58-2c2.66-2.25,6.5-2,10.2,1.23C187.52,802.58,190.59,811.84,188.92,818.61Z"/><path class="cls-107" d="M198.15,814.39c-.2-1-.39-2-.56-3,.11.43.15.84.28,1.21C197.93,813.2,198.08,813.77,198.15,814.39Z"/><path class="cls-108" d="M198.9,820.13a7.41,7.41,0,0,1-1.12-3.66,4.41,4.41,0,0,1,.37-2.08c.16.78.27,1.54.37,2.3a15.87,15.87,0,0,1,.23,2A12.14,12.14,0,0,1,198.9,820.13Z"/><path class="cls-109" d="M194.28,842a4.52,4.52,0,0,1-.6,1c-.18.16-.31.4-.5.57A14.4,14.4,0,0,0,194.28,842Z"/><path class="cls-110" d="M195.65,839.67c-.14.31-.29.61-.44.92a2,2,0,0,0-.43.58A12,12,0,0,0,195.65,839.67Z"/><path class="cls-111" d="M196.89,836.71l-.61,1.62a6.68,6.68,0,0,1-.46,1C196.18,838.44,196.52,837.64,196.89,836.71Z"/><path class="cls-112" d="M197.89,833.56a21,21,0,0,1-.95,3,5.07,5.07,0,0,1-1.33-1.36c-1.51-2.07-1.87-5-.82-6.63.91-1.35,2.49-1.28,4,.11l0,.06A39.4,39.4,0,0,1,197.89,833.56Z"/><path class="cls-113" d="M201.71,834.51c-1.82,7.35-5.38,12.37-10.08,15a5.49,5.49,0,0,1-1.34.73l-.09,0a16.74,16.74,0,0,1-3.14,1,14.18,14.18,0,0,0,3.05-1.5,10.07,10.07,0,0,0,1.06-.79c3.88-2.8,6.87-7.54,8.45-13.93a30.53,30.53,0,0,0,.76-4.27c2.45-17.76-5.84-40.17-19.56-52-5.25-4.55-10.66-7-15.65-7.31a9.85,9.85,0,0,0-1.88,0l-.07,0a12.9,12.9,0,0,0-2.84.34,11,11,0,0,1,2.71-.7c.75-.11,1.5-.22,2.24-.26,5.54-.17,11.63,2.14,17.67,7.33C197.85,791,206.25,816.19,201.71,834.51Z"/><path class="cls-3" d="M228.13,855.67l-3.39-3-1.1-1.11,2.07-8.37a70.49,70.49,0,0,0,1.88-12.57,3.61,3.61,0,0,0,0-.6c.1-1.6.13-3.2.1-4.82a7.67,7.67,0,0,0,0-1.27v-.07a6.28,6.28,0,0,0-.06-1.22,17.34,17.34,0,0,0-.08-2.57,1.7,1.7,0,0,0,0-.48c-.07-1.49-.2-3-.4-4.52a3.51,3.51,0,0,0-.15-1.18c-.21-1.79-.41-3.58-.76-5.4,0-.21-.09-.49-.15-.84a23.56,23.56,0,0,0-.48-2.46c-.16-.84-.35-1.82-.62-2.75,0-.13-.08-.29-.1-.49a2.42,2.42,0,0,0-.2-.65,2,2,0,0,0-.19-.71c-.26-1.27-.6-2.55-1-3.85-.11-.42-.23-.85-.39-1.36-.31-1.07-.63-2.15-1-3.24,0-.14-.09-.22-.12-.36h-.08l0-.08,0-.13a1.36,1.36,0,0,0-.16-.51c-.57-1.8-1.22-3.55-1.94-5.32-1.41-3.39-2.88-6.8-4.66-10.13-.34-.68-.74-1.44-1.14-2.13A96.14,96.14,0,0,0,207.46,763a.05.05,0,0,0-.05-.07l-.48-.71c-.64-.94-1.36-1.84-2.06-2.79a5.73,5.73,0,0,1-.61-.74c-.44-.56-.9-1.06-1.36-1.57l0-.06c-.28-.33-.61-.74-1-1.08a1.35,1.35,0,0,0-.28-.33A5.13,5.13,0,0,0,201,755a48.25,48.25,0,0,0-3.32-3.53c-.47-.44-.88-.86-1.35-1.3-.75-.76-1.53-1.4-2.3-2.1-1.43-1.25-2.89-2.37-4.3-3.41a20.7,20.7,0,0,0-2.17.28,7.94,7.94,0,0,0-1.14.23c-.39.12-.85.22-1.25.34a2.82,2.82,0,0,0-.78.23l-27.34,7.75a23.13,23.13,0,0,0-8.8,5.12c-4.59,4.2-8.16,10.43-10.16,18.54-6.51,26.3,5.57,62.63,27,81.11,10.79,9.36,21.93,12.34,31.16,9.6a2.82,2.82,0,0,0,.7-.19l27.27-7.76a6.39,6.39,0,0,0,1.36-.52,19.86,19.86,0,0,0,4.22-2.12Zm-36.5-6.17a5.49,5.49,0,0,1-1.34.73l-.09,0a16.74,16.74,0,0,1-3.14,1c-6.53,2.37-14.67.43-22.62-6.37-14.84-12.91-23.23-38.1-18.71-56.36,2.37-9.58,7.85-15.33,14.65-16.77a11,11,0,0,1,2.71-.7c.75-.11,1.5-.22,2.24-.26,5.54-.17,11.63,2.14,17.67,7.33,14.85,12.84,23.25,38,18.71,56.35C199.89,841.86,196.33,846.88,191.63,849.5Z"/><path class="cls-114" d="M165.39,774.07c-.29,0-.49,0-.72,0l.09,0Z"/><path class="cls-115" d="M170.64,775.12a20.75,20.75,0,0,0-3.34-.85,4,4,0,0,1,.84.11l.27.06c.49.1.88.26,1.3.34C170,774.91,170.31,775,170.64,775.12Z"/><path class="cls-116" d="M161.23,805.51c-1.83-.79-3.34-3.47-3.38-6s1.48-3.92,3.31-3.13,3.29,3.39,3.31,6S163.06,806.31,161.23,805.51Z"/><path class="cls-117" d="M167.21,823.19c-1.44.84-3.5-.48-4.61-3s-.83-5.15.62-6.05,3.58.49,4.62,3S168.67,822.29,167.21,823.19Z"/><path class="cls-118" d="M175.66,785.53c-1.67.05-3.53-2.1-4.19-4.72-.52-2.27.12-4.28,1.53-4.72l.07,0a14.75,14.75,0,0,1,2.06,1c.51.31,1,.62,1.56,1a7.48,7.48,0,0,1,1.05,2.5C178.38,783.36,177.41,785.5,175.66,785.53Z"/><path class="cls-119" d="M188.75,790.61a2.85,2.85,0,0,1-2.79-.73,7.42,7.42,0,0,1-2.33-5.81A57.12,57.12,0,0,1,188.75,790.61Z"/><path class="cls-120" d="M194.91,802.61a5.51,5.51,0,0,1-.5-.91,6.92,6.92,0,0,1-.5-1.52C194.29,801,194.6,801.8,194.91,802.61Z"/><path class="cls-121" d="M195.92,805.52c-.33-1-.67-2-1-2.91.36.88.63,1.82,1,2.7A.2.2,0,0,1,195.92,805.52Z"/><path class="cls-122" d="M146.57,804.47c.05.95.18,1.92.3,2.89a28.88,28.88,0,0,1-.43-3.52A2.08,2.08,0,0,1,146.57,804.47Z"/><path class="cls-123" d="M161.36,774.28a4.26,4.26,0,0,1,1-.11,6.48,6.48,0,0,0-1.69.38l-.08.05a.69.69,0,0,0-.36,0c.24-.09.46-.11.7-.19a.34.34,0,0,0,.15,0,.27.27,0,0,0,.15,0C161.34,774.34,161.34,774.34,161.36,774.28Z"/><path class="cls-124" d="M164.16,774.07a1.17,1.17,0,0,1,.45,0c-.1.12-.26.15-.36.26Z"/><path class="cls-125" d="M169.57,846.15a28.45,28.45,0,0,1-3-2.13,17,17,0,0,0,1.54,1.07C168.58,845.46,169.07,845.84,169.57,846.15Z"/><path class="cls-126" d="M188.92,818.61c-1.09,4.41-4,6.62-7.41,6.22a6.94,6.94,0,0,1-2.7-.78,6.92,6.92,0,0,0,2.41-.09c2.16-.55,3.94-2.45,4.71-5.58,1.5-6.07-1.32-14.54-6.28-18.82-2.63-2.24-5.3-2.88-7.51-2.14a5,5,0,0,0-1.87,1.15,8,8,0,0,1,1.58-2c2.66-2.25,6.5-2,10.2,1.23C187.52,802.58,190.59,811.84,188.92,818.61Z"/><path class="cls-127" d="M198.15,814.39c-.2-1-.39-2-.56-3,.11.43.15.84.28,1.21C197.93,813.2,198.08,813.77,198.15,814.39Z"/><path class="cls-128" d="M198.9,820.13a7.41,7.41,0,0,1-1.12-3.66,4.41,4.41,0,0,1,.37-2.08c.16.78.27,1.54.37,2.3a15.87,15.87,0,0,1,.23,2A12.14,12.14,0,0,1,198.9,820.13Z"/><path class="cls-129" d="M194.28,842a4.52,4.52,0,0,1-.6,1c-.18.16-.31.4-.5.57A14.4,14.4,0,0,0,194.28,842Z"/><path class="cls-130" d="M195.65,839.67c-.14.31-.29.61-.44.92a2,2,0,0,0-.43.58A12,12,0,0,0,195.65,839.67Z"/><path class="cls-131" d="M196.89,836.71l-.61,1.62a6.68,6.68,0,0,1-.46,1C196.18,838.44,196.52,837.64,196.89,836.71Z"/><path class="cls-132" d="M197.89,833.56a21,21,0,0,1-.95,3,5.07,5.07,0,0,1-1.33-1.36c-1.51-2.07-1.87-5-.82-6.63.91-1.35,2.49-1.28,4,.11l0,.06A39.4,39.4,0,0,1,197.89,833.56Z"/><path class="cls-133" d="M201.71,834.51c-1.82,7.35-5.38,12.37-10.08,15a5.49,5.49,0,0,1-1.34.73l-.09,0a16.74,16.74,0,0,1-3.14,1,14.18,14.18,0,0,0,3.05-1.5,10.07,10.07,0,0,0,1.06-.79c3.88-2.8,6.87-7.54,8.45-13.93a30.53,30.53,0,0,0,.76-4.27c2.45-17.76-5.84-40.17-19.56-52-5.25-4.55-10.66-7-15.65-7.31a9.85,9.85,0,0,0-1.88,0l-.07,0a12.9,12.9,0,0,0-2.84.34,11,11,0,0,1,2.71-.7c.75-.11,1.5-.22,2.24-.26,5.54-.17,11.63,2.14,17.67,7.33C197.85,791,206.25,816.19,201.71,834.51Z"/><path class="cls-67" d="M161.23,805.51c-1.83-.79-3.34-3.47-3.38-6s1.48-3.92,3.31-3.13,3.29,3.39,3.31,6S163.06,806.31,161.23,805.51Z"/><path class="cls-67" d="M167.21,823.19c-1.44.84-3.5-.48-4.61-3s-.83-5.15.62-6.05,3.58.49,4.62,3S168.67,822.29,167.21,823.19Z"/><path class="cls-67" d="M175.66,785.53c-1.67.05-3.53-2.1-4.19-4.72-.52-2.27.12-4.28,1.53-4.72l.07,0a14.75,14.75,0,0,1,2.06,1c.51.31,1,.62,1.56,1a7.48,7.48,0,0,1,1.05,2.5C178.38,783.36,177.41,785.5,175.66,785.53Z"/><path class="cls-67" d="M188.75,790.61a2.85,2.85,0,0,1-2.79-.73,7.42,7.42,0,0,1-2.33-5.81A57.12,57.12,0,0,1,188.75,790.61Z"/><path class="cls-67" d="M194.91,802.61a5.51,5.51,0,0,1-.5-.91,6.92,6.92,0,0,1-.5-1.52C194.29,801,194.6,801.8,194.91,802.61Z"/><path class="cls-67" d="M146.57,804.47c.05.95.18,1.92.3,2.89a28.88,28.88,0,0,1-.43-3.52A2.08,2.08,0,0,1,146.57,804.47Z"/><path class="cls-67" d="M164.16,774.07a1.17,1.17,0,0,1,.45,0c-.1.12-.26.15-.36.26Z"/><path class="cls-67" d="M169.57,846.15a28.45,28.45,0,0,1-3-2.13,17,17,0,0,0,1.54,1.07C168.58,845.46,169.07,845.84,169.57,846.15Z"/><path class="cls-67" d="M188.92,818.61c-1.09,4.41-4,6.62-7.41,6.22a6.94,6.94,0,0,1-2.7-.78,6.92,6.92,0,0,0,2.41-.09c2.16-.55,3.94-2.45,4.71-5.58,1.5-6.07-1.32-14.54-6.28-18.82-2.63-2.24-5.3-2.88-7.51-2.14a5,5,0,0,0-1.87,1.15,8,8,0,0,1,1.58-2c2.66-2.25,6.5-2,10.2,1.23C187.52,802.58,190.59,811.84,188.92,818.61Z"/><path class="cls-67" d="M198.9,820.13a7.41,7.41,0,0,1-1.12-3.66,4.41,4.41,0,0,1,.37-2.08c.16.78.27,1.54.37,2.3a15.87,15.87,0,0,1,.23,2A12.14,12.14,0,0,1,198.9,820.13Z"/><path class="cls-67" d="M197.89,833.56a21,21,0,0,1-.95,3,5.07,5.07,0,0,1-1.33-1.36c-1.51-2.07-1.87-5-.82-6.63.91-1.35,2.49-1.28,4,.11l0,.06A39.4,39.4,0,0,1,197.89,833.56Z"/><path class="cls-67" d="M183,778.16c-6-5.19-12.13-7.5-17.67-7.33-.74,0-1.49.15-2.24.26a11,11,0,0,0-2.71.7,12.9,12.9,0,0,1,2.84-.34l.07,0a9.85,9.85,0,0,1,1.88,0c5,.33,10.4,2.76,15.65,7.31,13.72,11.86,22,34.27,19.56,52a30.53,30.53,0,0,1-.76,4.27c-1.58,6.39-4.57,11.13-8.45,13.93a10.07,10.07,0,0,1-1.06.79,14.18,14.18,0,0,1-3.05,1.5,16.74,16.74,0,0,0,3.14-1l.09,0a5.49,5.49,0,0,0,1.34-.73c4.7-2.62,8.26-7.64,10.08-15C206.25,816.19,197.85,791,183,778.16Zm-14.91,66.93a17,17,0,0,1-1.54-1.07,28.45,28.45,0,0,0,3,2.13C169.07,845.84,168.58,845.46,168.09,845.09Zm-7.46-70.49.08-.05.26-.15c-.24.08-.46.1-.7.19A.69.69,0,0,1,160.63,774.6Z"/><path class="cls-68" d="M161.23,805.51c-1.83-.79-3.34-3.47-3.38-6s1.48-3.92,3.31-3.13,3.29,3.39,3.31,6S163.06,806.31,161.23,805.51Z"/><path class="cls-68" d="M167.21,823.19c-1.44.84-3.5-.48-4.61-3s-.83-5.15.62-6.05,3.58.49,4.62,3S168.67,822.29,167.21,823.19Z"/><path class="cls-68" d="M175.66,785.53c-1.67.05-3.53-2.1-4.19-4.72-.52-2.27.12-4.28,1.53-4.72l.07,0a14.75,14.75,0,0,1,2.06,1c.51.31,1,.62,1.56,1a7.48,7.48,0,0,1,1.05,2.5C178.38,783.36,177.41,785.5,175.66,785.53Z"/><path class="cls-68" d="M188.75,790.61a2.85,2.85,0,0,1-2.79-.73,7.42,7.42,0,0,1-2.33-5.81A57.12,57.12,0,0,1,188.75,790.61Z"/><path class="cls-68" d="M194.91,802.61a5.51,5.51,0,0,1-.5-.91,6.92,6.92,0,0,1-.5-1.52C194.29,801,194.6,801.8,194.91,802.61Z"/><path class="cls-68" d="M188.92,818.61c-1.09,4.41-4,6.62-7.41,6.22a6.94,6.94,0,0,1-2.7-.78,6.92,6.92,0,0,0,2.41-.09c2.16-.55,3.94-2.45,4.71-5.58,1.5-6.07-1.32-14.54-6.28-18.82-2.63-2.24-5.3-2.88-7.51-2.14a5,5,0,0,0-1.87,1.15,8,8,0,0,1,1.58-2c2.66-2.25,6.5-2,10.2,1.23C187.52,802.58,190.59,811.84,188.92,818.61Z"/><path class="cls-68" d="M198.9,820.13a7.41,7.41,0,0,1-1.12-3.66,4.41,4.41,0,0,1,.37-2.08c.16.78.27,1.54.37,2.3a15.87,15.87,0,0,1,.23,2A12.14,12.14,0,0,1,198.9,820.13Z"/><path class="cls-68" d="M197.89,833.56a21,21,0,0,1-.95,3,5.07,5.07,0,0,1-1.33-1.36c-1.51-2.07-1.87-5-.82-6.63.91-1.35,2.49-1.28,4,.11l0,.06A39.4,39.4,0,0,1,197.89,833.56Z"/><path class="cls-69" d="M146.57,804.47a2.08,2.08,0,0,0-.13-.63,28.88,28.88,0,0,0,.43,3.52C146.75,806.39,146.62,805.42,146.57,804.47Zm21.52,40.62a17,17,0,0,1-1.54-1.07,28.45,28.45,0,0,0,3,2.13C169.07,845.84,168.58,845.46,168.09,845.09Z"/><path class="cls-69" d="M200.38,830.8c2.45-17.76-5.84-40.17-19.56-52-5.25-4.55-10.66-7-15.65-7.31a9.85,9.85,0,0,0-1.88,0l-.07,0a12.9,12.9,0,0,0-2.84.34c-6.8,1.44-12.28,7.19-14.65,16.77-4.52,18.26,3.87,43.45,18.71,56.36,7.95,6.8,16.09,8.74,22.62,6.37a14.18,14.18,0,0,0,3.05-1.5,10.07,10.07,0,0,0,1.06-.79c3.88-2.8,6.87-7.54,8.45-13.93A30.53,30.53,0,0,0,200.38,830.8Zm-3.44,5.72-.05.19-.61,1.62a6.68,6.68,0,0,1-.46,1,.79.79,0,0,1-.17.36c-.14.31-.29.61-.44.92-.35.53-.61,1-.93,1.41a4.52,4.52,0,0,1-.6,1c-.18.16-.31.4-.5.57a5.6,5.6,0,0,1-.72.85c-.3.34-.58.62-.88,1,0,.06-.09,0-.11.11l-1.1,1c-.36.26-.7.46-1.05.72a.08.08,0,0,1-.09,0v.06h-.07c-.53.36-.93.54-1.44.83a7.38,7.38,0,0,1-1.22.55l-.39.12a.07.07,0,0,0-.09,0l-.07,0a4.59,4.59,0,0,1-.86.29.63.63,0,0,1-.31.07c-.07,0-.09,0-.15,0a4.15,4.15,0,0,1-1.08.24,14.39,14.39,0,0,1-1.57.21,17.2,17.2,0,0,1-2,0,6.57,6.57,0,0,1-1.13-.1,13,13,0,0,1-3.09-.66,3.64,3.64,0,0,1-.74-.23,15.24,15.24,0,0,1-2.32-.9,33.29,33.29,0,0,1-3.08-1.59,28.45,28.45,0,0,1-3-2.13c-.49-.37-1-.82-1.57-1.27s-.82-.78-1.24-1.14l-.16-.24a29.7,29.7,0,0,1-2.32-2.31,2.05,2.05,0,0,0-.41-.42c-.44-.56-.87-1.13-1.38-1.71a39.06,39.06,0,0,1-2.86-4c-.48-.7-1-1.35-1.43-2.12-.16-.23-.3-.53-.46-.77-.57-.92-1.11-2-1.64-3-.05-.07-.09-.22-.14-.3s-.06-.07,0-.14a2.33,2.33,0,0,1-.39-.75,4.25,4.25,0,0,1-.38-.82l-.7-1.56c-.5-1.19-1.06-2.45-1.48-3.68a20.83,20.83,0,0,1-.73-2.31c-.39-1.09-.7-2.16-1-3.3a58.54,58.54,0,0,1-1.25-6,5.14,5.14,0,0,1-.1-.76,28.88,28.88,0,0,1-.43-3.52c0-.27,0-.48-.05-.68,0-.61-.06-1.23-.06-1.83,0-.07,0-.21,0-.27a32.83,32.83,0,0,1,.09-3.61c0-.94.12-1.93.22-2.91s.25-1.9.49-2.86l.11-.44a6.68,6.68,0,0,1,.21-1.17c.16-.64.4-1.32.55-1.9.09-.38.25-.75.35-1.13a.47.47,0,0,1,.13-.24,3.11,3.11,0,0,1,.26-.76l0-.06c0-.13.13-.24.16-.37a.81.81,0,0,1,.16-.37,9.94,9.94,0,0,1,.61-1.28c0-.06.12-.18.13-.24l0-.06c0-.07.1-.12.11-.18a1,1,0,0,1,.25-.42,2.32,2.32,0,0,1,.37-.59v-.07c0-.12,0-.19.13-.24a6.45,6.45,0,0,1,.8-1.17,2.59,2.59,0,0,1,.45-.65.58.58,0,0,1,.2-.22c.22-.29.5-.57.72-.86s.39-.38.59-.61.38-.39.57-.55a5.53,5.53,0,0,1,1.18-1,3.38,3.38,0,0,1,.79-.57c.17-.1.27-.21.44-.31l.51-.3a8.71,8.71,0,0,1,1-.52l.16-.1a.94.94,0,0,1,.33-.13h.07a.06.06,0,0,0,.08-.05,3.5,3.5,0,0,1,.55-.15l.17-.1c.08,0,.23-.08.32-.13a.35.35,0,0,1,.24-.08.07.07,0,0,0,.08-.05s0-.07.08,0,.16,0,.23,0c.24-.09.46-.11.7-.19a.34.34,0,0,0,.15,0,.27.27,0,0,0,.15,0c.07,0,.07,0,.09-.05a4.26,4.26,0,0,1,1-.11c.15,0,.22,0,.37-.06a8.42,8.42,0,0,1,1.32-.05h.07a1.17,1.17,0,0,1,.45,0l.06,0,.09,0,.63.07a4.43,4.43,0,0,1,1,.07,4.63,4.63,0,0,1,.91.13,4,4,0,0,1,.84.11l.27.06c.49.1.88.26,1.3.34.25.13.6.2.93.34s.33.13.53.18a3.86,3.86,0,0,1,.8.3c.26.13.58.26.84.38.07,0,.13.1.19.11l.07,0a14.75,14.75,0,0,1,2.06,1,32.32,32.32,0,0,1,3.35,2.26,18.91,18.91,0,0,1,1.81,1.46c.6.53,1.14,1,1.72,1.58a19,19,0,0,1,1.62,1.62,57.12,57.12,0,0,1,5.12,6.54,49.08,49.08,0,0,1,2.77,4.62c.46.77.83,1.59,1.28,2.43s.68,1.62,1.08,2.38c.05.08.05.08,0,.14.38.82.69,1.62,1,2.43s.63,1.82,1,2.7a.2.2,0,0,1,0,.21,24.39,24.39,0,0,1,.87,2.94,1.27,1.27,0,0,1,.16.5c.24.79.47,1.65.64,2.42.11.43.15.84.28,1.21.06.61.21,1.18.28,1.8.16.78.27,1.54.37,2.3a15.87,15.87,0,0,1,.23,2,12.14,12.14,0,0,1,.15,1.44l0,.13c.11.7.08,1.43.13,2.11,0,.27,0,.54,0,.81l0,.19a1.39,1.39,0,0,1,0,.48,1.7,1.7,0,0,1,0,.48l0,.06a19.83,19.83,0,0,1-.11,2.19c0,.74,0,1.4-.14,2.06l0,.06a39.4,39.4,0,0,1-.84,4.86A21,21,0,0,1,196.94,836.52Z"/><path class="cls-67" d="M189.15,847.23c-.53.36-.93.54-1.44.83a7.38,7.38,0,0,1-1.22.55l-.39.12a.07.07,0,0,0-.09,0l-.07,0a4.59,4.59,0,0,1-.86.29.63.63,0,0,1-.31.07c-.07,0-.09,0-.15,0a4.15,4.15,0,0,1-1.08.24,14.39,14.39,0,0,1-1.57.21,17.2,17.2,0,0,1-2,0,6.57,6.57,0,0,1-1.13-.1,13,13,0,0,1-3.09-.66,3.64,3.64,0,0,1-.74-.23,15.24,15.24,0,0,1-2.32-.9,33.29,33.29,0,0,1-3.08-1.59c-.5-.31-1-.69-1.48-1.06a17,17,0,0,1-1.54-1.07c-.49-.37-1-.82-1.57-1.27s-.82-.78-1.24-1.14l-.16-.24a29.7,29.7,0,0,1-2.32-2.31,2.05,2.05,0,0,0-.41-.42c-.44-.56-.87-1.13-1.38-1.71a39.06,39.06,0,0,1-2.86-4c-.48-.7-1-1.35-1.43-2.12-.16-.23-.3-.53-.46-.77-.55-1-1.11-2-1.64-3-.05-.07-.09-.22-.14-.3s-.06-.07,0-.14a2.33,2.33,0,0,1-.39-.75,4.25,4.25,0,0,1-.38-.82l-.7-1.56c-.5-1.19-1.06-2.45-1.48-3.68a20.83,20.83,0,0,1-.73-2.31c-.39-1.09-.7-2.16-1-3.3a58.54,58.54,0,0,1-1.25-6,5.14,5.14,0,0,1-.1-.76c-.12-1-.25-1.94-.3-2.89a2.08,2.08,0,0,0-.13-.63c0-.27,0-.48-.05-.68,0-.61-.06-1.23-.06-1.83,0-.07,0-.21,0-.27a32.83,32.83,0,0,1,.09-3.61c0-.94.12-1.93.22-2.91s.25-1.9.49-2.86l.11-.44a6.68,6.68,0,0,1,.21-1.17c.16-.64.4-1.32.55-1.9.09-.38.25-.75.35-1.13a.47.47,0,0,1,.13-.24,3.11,3.11,0,0,1,.26-.76l0-.06c0-.13.13-.24.16-.37a.81.81,0,0,1,.16-.37,9.94,9.94,0,0,1,.61-1.28c0-.06.12-.18.13-.24l0-.06c0-.07.1-.12.11-.18a1,1,0,0,1,.25-.42,2.32,2.32,0,0,1,.37-.59v-.07c0-.12,0-.19.13-.24a8.3,8.3,0,0,1,.8-1.17,2.59,2.59,0,0,1,.45-.65.58.58,0,0,1,.2-.22c.22-.29.5-.57.72-.86s.39-.38.59-.61.38-.39.57-.55a5.53,5.53,0,0,1,1.18-1,3,3,0,0,1,.79-.57c.17-.1.27-.21.44-.31l.51-.3a8.71,8.71,0,0,1,1-.52l.16-.1a.94.94,0,0,1,.33-.13h.07a.06.06,0,0,0,.08-.05,3.5,3.5,0,0,1,.55-.15l.17-.1c.08,0,.23-.08.32-.13a.35.35,0,0,1,.24-.08.07.07,0,0,0,.08-.05s0-.07.08,0,.16,0,.23,0a.69.69,0,0,1,.36,0l.08-.05a6.48,6.48,0,0,1,1.69-.38c.15,0,.22,0,.37-.06a8.42,8.42,0,0,1,1.32-.05h.07l.09.22c-3.83,2.61-6.75,7.1-8.3,13.36-4.24,17.11,3.63,40.64,17.53,52.67C178.79,844.89,184.23,847.19,189.15,847.23Z"/><path class="cls-68" d="M195.61,835.16c-1.51-2.07-1.87-5-.82-6.63.91-1.35,2.49-1.28,4,.11.09-.66.11-1.32.14-2.06a19.83,19.83,0,0,0,.11-2.19l0-.06a1.7,1.7,0,0,0,0-.48,1.39,1.39,0,0,0,0-.48l0-.19c0-.27,0-.54,0-.81-.05-.68,0-1.41-.13-2.11l0-.13a7.41,7.41,0,0,1-1.12-3.66,4.41,4.41,0,0,1,.37-2.08c-.2-1-.39-2-.56-3-.17-.77-.4-1.63-.64-2.42a1.27,1.27,0,0,0-.16-.5,30.34,30.34,0,0,0-.87-2.94c-.33-1-.67-2-1-2.91a5.51,5.51,0,0,1-.5-.91,6.92,6.92,0,0,1-.5-1.52c0-.06,0-.06,0-.14-.4-.76-.7-1.56-1.08-2.38s-.82-1.66-1.28-2.43a49.08,49.08,0,0,0-2.77-4.62,2.85,2.85,0,0,1-2.79-.73,7.42,7.42,0,0,1-2.33-5.81,19,19,0,0,0-1.62-1.62c-.58-.6-1.12-1.05-1.72-1.58a18.91,18.91,0,0,0-1.81-1.46c-.6-.46-1.23-.87-1.79-1.25a7.48,7.48,0,0,1,1.05,2.5c.64,2.7-.33,4.84-2.08,4.87s-3.53-2.1-4.19-4.72c-.52-2.27.12-4.28,1.53-4.72-.06,0-.12-.09-.19-.11-.26-.12-.58-.25-.84-.38a3.86,3.86,0,0,0-.8-.3c-.2,0-.33-.14-.53-.18a20.75,20.75,0,0,0-3.34-.85,4.63,4.63,0,0,0-.91-.13,4.43,4.43,0,0,0-1-.07c-.29,0-.49,0-.72,0l-.06,0c-.1.12-.26.15-.36.26-3.83,2.61-6.75,7.1-8.3,13.36-4.24,17.11,3.63,40.64,17.53,52.67,5.31,4.57,10.75,6.87,15.67,6.91h.07v-.06a.08.08,0,0,0,.09,0c.35-.26.69-.46,1.05-.72l1.1-1c0-.06.09-.05.11-.11.3-.34.58-.62.88-1a5.6,5.6,0,0,0,.72-.85,14.4,14.4,0,0,0,1.1-1.52,3.73,3.73,0,0,0,.5-.83,12,12,0,0,0,.87-1.5.79.79,0,0,0,.17-.36c.36-.87.7-1.67,1.07-2.6l.05-.19A5.07,5.07,0,0,1,195.61,835.16Zm-34.38-29.65c-1.83-.79-3.34-3.47-3.38-6s1.48-3.92,3.31-3.13,3.29,3.39,3.31,6S163.06,806.31,161.23,805.51Zm6.3-15.19a2.23,2.23,0,0,1-3.4.28,5.84,5.84,0,0,1-1.21-1.26c-1.52-2.07-1.92-5.12-.88-6.71a2,2,0,0,1,2-.86,4,4,0,0,1,2.73,1.86C168.15,785.75,168.57,788.73,167.53,790.32Zm-.32,32.87c-1.44.84-3.5-.48-4.61-3s-.83-5.15.62-6.05,3.58.49,4.62,3S168.67,822.29,167.21,823.19Zm7.15,13.56a7.36,7.36,0,0,1-2.19-6.65c.46-1.86,1.85-2.5,3.3-1.65a2.92,2.92,0,0,1,.82.51,7.58,7.58,0,0,1,2.34,4.87,7.86,7.86,0,0,1-.13,1.72C178,837.72,176.09,838.26,174.36,836.75Zm8.09-9.3a11.93,11.93,0,0,1-7-3.17,23.75,23.75,0,0,1-4.78-5.86c-.05-.07-.11-.15-.09-.22a27.93,27.93,0,0,1-3.52-10.63c-.06-.08-.06-.08,0-.14a19.86,19.86,0,0,1,.32-7.46,10.77,10.77,0,0,1,3.59-6c3-2.24,7.4-1.78,11.58,1.8,6.46,5.54,10.07,16.4,8.11,24.32C189.43,825,186.26,827.59,182.45,827.45Zm6.27,15.38a3.34,3.34,0,0,1-1.11-.23,6.74,6.74,0,0,1-3.08-4.49,5.11,5.11,0,0,1,.33-3.69,2.13,2.13,0,0,1,1.72-1.12c1.75,0,3.62,2.05,4.21,4.67S190.46,842.8,188.72,842.83Z"/><path class="cls-70" d="M182.55,795.74c-4.18-3.58-8.56-4-11.58-1.8a10.77,10.77,0,0,0-3.59,6,19.86,19.86,0,0,0-.32,7.46c0,.06,0,.06,0,.14a27.93,27.93,0,0,0,3.52,10.63c0,.07,0,.15.09.22a23.75,23.75,0,0,0,4.78,5.86,11.93,11.93,0,0,0,7,3.17c3.81.14,7-2.41,8.21-7.39C192.62,812.14,189,801.28,182.55,795.74Zm-1,29.09a6.94,6.94,0,0,1-2.7-.78,9.65,9.65,0,0,1-4.62-2.4,19.08,19.08,0,0,1-4.55-6.21c0-.14-.16-.24-.13-.36a45.7,45.7,0,0,1-1.59-4.71,17.69,17.69,0,0,1,0-7.53,8.55,8.55,0,0,1,2.36-4.27,8,8,0,0,1,1.58-2c2.66-2.25,6.5-2,10.2,1.23,5.47,4.8,8.54,14.06,6.87,20.83C187.83,823,185,825.23,181.51,824.83Z"/><path class="cls-70" d="M188.92,818.61c-1.09,4.41-4,6.62-7.41,6.22a6.94,6.94,0,0,1-2.7-.78,6.92,6.92,0,0,0,2.41-.09c2.16-.55,3.94-2.45,4.71-5.58,1.5-6.07-1.32-14.54-6.28-18.82-2.63-2.24-5.3-2.88-7.51-2.14a5,5,0,0,0-1.87,1.15,8,8,0,0,1,1.58-2c2.66-2.25,6.5-2,10.2,1.23C187.52,802.58,190.59,811.84,188.92,818.61Z"/><path class="cls-67" d="M188.92,818.61c-1.09,4.41-4,6.62-7.41,6.22a6.94,6.94,0,0,1-2.7-.78,6.92,6.92,0,0,0,2.41-.09c2.16-.55,3.94-2.45,4.71-5.58,1.5-6.07-1.32-14.54-6.28-18.82-2.63-2.24-5.3-2.88-7.51-2.14a5,5,0,0,0-1.87,1.15,8,8,0,0,1,1.58-2c2.66-2.25,6.5-2,10.2,1.23C187.52,802.58,190.59,811.84,188.92,818.61Z"/><path class="cls-69" d="M185.93,818.38c-.77,3.13-2.55,5-4.71,5.58a6.92,6.92,0,0,1-2.41.09,9.65,9.65,0,0,1-4.62-2.4,19.08,19.08,0,0,1-4.55-6.21c0-.14-.16-.24-.13-.36a45.7,45.7,0,0,1-1.59-4.71,17.69,17.69,0,0,1,0-7.53,8.55,8.55,0,0,1,2.36-4.27,5,5,0,0,1,1.87-1.15c2.21-.74,4.88-.1,7.51,2.14C184.61,803.84,187.43,812.31,185.93,818.38Z"/><path class="cls-70" d="M188.75,790.61a2.85,2.85,0,0,1-2.79-.73,7.42,7.42,0,0,1-2.33-5.81A57.12,57.12,0,0,1,188.75,790.61Z"/><path class="cls-70" d="M194.91,802.61a5.51,5.51,0,0,1-.5-.91,6.92,6.92,0,0,1-.5-1.52C194.29,801,194.6,801.8,194.91,802.61Z"/><path class="cls-70" d="M198.9,820.13a7.41,7.41,0,0,1-1.12-3.66,4.41,4.41,0,0,1,.37-2.08c.16.78.27,1.54.37,2.3a15.87,15.87,0,0,1,.23,2A12.14,12.14,0,0,1,198.9,820.13Z"/><path class="cls-70" d="M197.89,833.56a21,21,0,0,1-.95,3,5.07,5.07,0,0,1-1.33-1.36c-1.51-2.07-1.87-5-.82-6.63.91-1.35,2.49-1.28,4,.11l0,.06A39.4,39.4,0,0,1,197.89,833.56Z"/><path class="cls-70" d="M188.72,842.83a3.34,3.34,0,0,1-1.11-.23,6.74,6.74,0,0,1-3.08-4.49,5.11,5.11,0,0,1,.33-3.69,2.13,2.13,0,0,1,1.72-1.12c1.75,0,3.62,2.05,4.21,4.67S190.46,842.8,188.72,842.83Z"/><path class="cls-70" d="M178.5,835.55c-.54,2.17-2.41,2.71-4.14,1.2a7.36,7.36,0,0,1-2.19-6.65c.46-1.86,1.85-2.5,3.3-1.65a2.92,2.92,0,0,1,.82.51,7.58,7.58,0,0,1,2.34,4.87A7.86,7.86,0,0,1,178.5,835.55Z"/><path class="cls-70" d="M167.21,823.19c-1.44.84-3.5-.48-4.61-3s-.83-5.15.62-6.05,3.58.49,4.62,3S168.67,822.29,167.21,823.19Z"/><path class="cls-70" d="M161.23,805.51c-1.83-.79-3.34-3.47-3.38-6s1.48-3.92,3.31-3.13,3.29,3.39,3.31,6S163.06,806.31,161.23,805.51Z"/><path class="cls-70" d="M167.53,790.32a2.23,2.23,0,0,1-3.4.28,5.84,5.84,0,0,1-1.21-1.26c-1.52-2.07-1.92-5.12-.88-6.71a2,2,0,0,1,2-.86,4,4,0,0,1,2.73,1.86C168.15,785.75,168.57,788.73,167.53,790.32Z"/><path class="cls-70" d="M175.66,785.53c-1.67.05-3.53-2.1-4.19-4.72-.52-2.27.12-4.28,1.53-4.72l.07,0a14.75,14.75,0,0,1,2.06,1c.51.31,1,.62,1.56,1a7.48,7.48,0,0,1,1.05,2.5C178.38,783.36,177.41,785.5,175.66,785.53Z"/><path class="cls-134" d="M992.29,950.56l9.51-5.55V799.21l-6.66,3.73c-1.76,1-2.85,3.56-2.85,6.73Z"/><path class="cls-134" d="M753.31,1089.34l-9.36,5.45c-.69.4-1.55-.67-1.55-1.93V946a2.12,2.12,0,0,0,.53-.22l7.52-4.21c1.51-.85,3.37.46,3.37,3.21V1088.1A1.41,1.41,0,0,1,753.31,1089.34Z"/><polygon class="cls-135" points="995.43 948.66 1001.8 944.95 1001.8 805.46 995.43 809.1 995.43 948.66"/><polygon class="cls-135" points="750.9 947.03 742.4 951.84 742.4 1096.67 750.9 1091.71 750.9 947.03"/><path class="cls-134" d="M730.69,1088l11.71,7.1V946l-8.92-5.2c-1.24-.72-2.79,1-2.79,3.09Z"/><polygon class="cls-135" points="732.99 1090.66 742.4 1096.37 742.4 951.84 732.99 946.34 732.99 1090.66"/><path class="cls-136" d="M228.33,678.63l155.49,92a16,16,0,0,0,23.95-11.79L419,667.36a11.85,11.85,0,0,0-5.92-11.74l-59.84-33.94a66.6,66.6,0,0,0-65.9.13L228.5,655.47A13.4,13.4,0,0,0,228.33,678.63Z"/><path class="cls-137" d="M353.75,781.33a4.54,4.54,0,0,0,2.3,3.94l36.19,20.82v-9.51a6,6,0,0,0-3-5.14l-35.48-20.35Z"/><path class="cls-138" d="M386.46,797a4.6,4.6,0,0,0,1.77,3.74c1,.54,1.78-.25,1.78-1.77a4.6,4.6,0,0,0-1.78-3.75C387.25,794.68,386.46,795.48,386.46,797Z"/><path class="cls-134" d="M215.34,698.76l18.26-8.84a7,7,0,0,0,4-6.23V671a7,7,0,0,0-10-6.15l-18.27,8.77a7,7,0,0,0-4,6.25v12.78A7,7,0,0,0,215.34,698.76Z"/><path class="cls-139" d="M213.37,693.82c4,1.6,11.09-2.7,14.54-4.52,2.47-1.3,4.19-3.14,4.19-6.14,0,0,1.43-11.69-.86-12.87-3.79-2-15.26,5-15.26,5a8.36,8.36,0,0,0-4.68,6.88C211.14,685.14,211.16,692.93,213.37,693.82Z"/><path class="cls-134" d="M80.55,764.74,136.36,799s.51-21.89,3.79-28.2c4.74-9.11,9.91-18,13.44-23.94a8.25,8.25,0,0,0-2.81-11.3L81,693.32a5.73,5.73,0,0,0-8.7,4.9l3.11,57.37A10.76,10.76,0,0,0,80.55,764.74Z"/><path class="cls-140" d="M78.16,698.37l18.19,11.07a7.4,7.4,0,0,0,11.24-6.32V686.49a8.76,8.76,0,0,0-9.39-8.73l-10,.72a12.4,12.4,0,0,0-11.15,9.33l-1.24,4.87A5.17,5.17,0,0,0,78.16,698.37Z"/><path class="cls-141" d="M92.69,679.28l5-.36a8.15,8.15,0,0,1,8.72,8.12v15.44A6.87,6.87,0,0,1,96,708.35L90.56,705Z"/><path class="cls-134" d="M751.1,1161.92l1.68-1,246.13-146.24a18.75,18.75,0,0,0,8.75-16.32V950.15a4.92,4.92,0,0,0-7.42-4.21l-258.7,150.21v59.24C741.54,1160.78,746.89,1164.43,751.1,1161.92Z"/><path class="cls-134" d="M655.51,1120.19l69.44,43a11.76,11.76,0,0,0,17.95-10v-57.77l-79.66-48.29c-3.33-2-13,.67-11.47,4.24a129.16,129.16,0,0,1,8.94,34.14C663.16,1107.82,655.51,1120.19,655.51,1120.19Z"/><path class="cls-134" d="M740.75,1164.91c-3,.4-10.33.51-12.75-.43s13.54-9.09,13.54-9.09l13.49,4.2S750.05,1163.66,740.75,1164.91Z"/><path class="cls-142" d="M101.86,672.74c17.79-6.49,41-9.81,53.29-12.21,11.79-2.26,28.88-5.79,43.35-9.32l133-75.46-50.61,12.43Z"/><path class="cls-143" d="M198.5,651.21c9.88-2.47,18.56-4.94,23.36-7.13l70.88-42.77a61.27,61.27,0,0,1,54.42-4.73l7.48-4.24L565.78,469.79l-233,105.61-1.27.35Z"/><path class="cls-144" d="M741.78,1156.08a6.3,6.3,0,0,0,9.52,5.39l237.76-145.58c8.05-4.88,12.93-15.51,12.93-28V721.11c0-14.92-6.57-28-15.51-35a18.05,18.05,0,0,0-3.47-2.52l-2.88-1.47a19.83,19.83,0,0,0-17.66.51L756.62,795.41c-8.49,4.58-13.51,13.37-13.51,26.37v2.51Z"/><path class="cls-145" d="M983,683.58a18.05,18.05,0,0,1,3.47,2.52l.59-.37Z"/><path class="cls-146" d="M388.6,790.49l-35.51-20.4v10.23a4.58,4.58,0,0,0,2.33,4l36.14,20.82v-9.46A6,6,0,0,0,388.6,790.49Z"/><path class="cls-146" d="M234.22,859.1a23.29,23.29,0,0,0-2.69-1.69Z"/><path class="cls-146" d="M407.16,757.88l11.16-91.49a11.85,11.85,0,0,0-5.93-11.72L352.6,620.72a66.55,66.55,0,0,0-65.93.14l-58.81,33.6a13.44,13.44,0,0,0-.14,23.22l155.44,92A16,16,0,0,0,407.16,757.88Z"/><path class="cls-147" d="M78.35,762.75l153.18,94.66c-.07-.07-.21-.14-.28-.21,3.32-6.29,4.17-11.23,5.65-25.91s-4.94-30.64-12.78-50.54c-5.93-15-18.21-27.82-23.93-33.25a8.6,8.6,0,0,1-2.61-7c1.48-16.45,6.92-75.74,8.61-80,2-5.08,29.08-16.24,67.13-38.47s65.58-12.28,72-10c5,1.83,52.16,28.8,72.71,40.58A17.3,17.3,0,0,1,426.65,669l-22.1,275.17a11.85,11.85,0,0,1-17.72,9.31L573.48,1068.9l82.24,50.82,70.09,43.35a11.35,11.35,0,0,0,17.3-9.67V833.2a25.25,25.25,0,0,0-12.85-22L354.64,600.18a76.45,76.45,0,0,0-7.48-3.6,61.27,61.27,0,0,0-54.42,4.73l-70.88,42.77c-11.93,5.37-46.94,12.64-66.71,16.45-12.28,2.4-35.5,5.72-53.29,12.21-12.78,4.66-22.73,10.94-23.93,19.7C75.32,712.13,78.35,762.75,78.35,762.75Z"/><polygon class="cls-147" points="891.73 737.53 891.73 1008.24 874.8 1018.6 874.8 746.73 891.73 737.53"/><path class="cls-143" d="M197.58,740.51a8.6,8.6,0,0,0,2.61,7c5.72,5.43,18,18.28,23.93,33.25,7.84,19.9,14.26,35.93,12.78,50.54s-2.33,19.62-5.65,25.91c.07.07.21.14.28.21a23.29,23.29,0,0,1,2.69,1.69c1,.57,2.11,1.27,3.45,2.12a7.17,7.17,0,0,1,1.35.85c1,.56,2,1.2,3.1,1.9,1.7,1.06,3.53,2.19,5.51,3.39,2.61,1.63,5.5,3.46,8.61,5.37,1.55.92,3.18,1.9,4.8,3l125.51,77.65a.53.53,0,0,0,.28.14,11.85,11.85,0,0,0,17.72-9.31L426.65,669A17.3,17.3,0,0,0,418,652.62c-20.55-11.78-67.7-38.75-72.71-40.58-6.43-2.33-34-12.29-72,10s-65.15,33.39-67.13,38.47C204.5,664.77,199.06,724.06,197.58,740.51Zm155.51,29.58,35.51,20.4a6,6,0,0,1,3,5.15v9.46l-36.14-20.82a4.58,4.58,0,0,1-2.33-4ZM227.86,654.46l58.81-33.6a66.55,66.55,0,0,1,65.93-.14l59.79,33.95a11.85,11.85,0,0,1,5.93,11.72l-11.16,91.49a16,16,0,0,1-24,11.78l-155.44-92A13.44,13.44,0,0,1,227.86,654.46Z"/></g></g></svg>