<svg id="Capa_1" data-name="Capa 1" xmlns="http://www.w3.org/2000/svg" viewBox="0 0 1080 1350">
    <defs>
        <style>
            .cls-1{fill:#434342;}.cls-2{fill:#413d49;}.cls-3{fill:#18161c;}.cls-4{fill:#898b8d;}.cls-5{fill:#9fa1a2;}.cls-6{fill:#646669;}.cls-7{fill:#c1c3c4;}.cls-8{fill:#808487;}.cls-9{fill:#aaacae;}.cls-10{fill:#abadaf;}.cls-11{fill:#b455b4;}.cls-12{fill:#36323e;}.cls-13{fill:#d566d6;}.cls-14{fill:#ffff00;}.cls-15{fill:#1d232a;}.cls-16{fill:#fff;}</style>
    </defs>
    <polygon class="cls-1"
        points="213.88 764.64 228.64 771.04 145.03 928.21 130.27 921.81 213.88 764.64" />
    <path class="cls-1"
        d="M172.14,828.11l41.13-78.59,28.08,14.05-41.13,78.58c-1,1.92-8,.33-15.78-3.54S171.18,830,172.14,828.11Z" />
    <path class="cls-1"
        d="M224,756.42a17.21,17.21,0,0,0,3.76,2.19c2.47,1,3.87,1.12,5.08-1.16l1.51-2.84,3.41-6.4,8.15-15.34q10.11-19,20.21-38l22.57-42.41q10.74-20.22,21.5-40.43l17-32q4.57-8.62,9.17-17.24l.72-1.35-9.8-4.25-5.67,10.67-14.74,27.7q-10.18,19.15-20.38,38.32-11.31,21.24-22.61,42.5l-21.41,40.26-16.81,31.58c-.73,1.39-1.48,2.77-2.21,4.16-.49.93-1.08,1.65-.67,2.7A4,4,0,0,0,224,756.42Z" />
    <path class="cls-2"
        d="M792.39,581.88c0,67.92,48,95.29,107.17,61.11s107.19-116.94,107.19-184.88-48-95.28-107.19-61.1S792.39,514,792.39,581.88Zm21.37-12.34c0-54.39,38.41-120.65,85.8-148s85.82-5.46,85.82,48.92-38.43,120.66-85.82,148S813.76,623.92,813.76,569.54Z" />
    <path class="cls-3"
        d="M975.36,417.13c40.62,4.93,52.92,21.24,54,79.88s-30.94,97.51-64,132.75-88.25,34.63-103.72,24.39,19.69-21.36,19.69-21.36,23.6,4,60.88-36.46,50.31-75.83,55.19-101.49-9.19-66.1-9.19-66.1Z" />
    <path class="cls-4"
        d="M818.14,572.1c0,54.39,61.1,94.32,108.5,66.95s85.81-93.62,85.81-148S951.35,396.74,904,424.1,818.14,517.72,818.14,572.1Zm14.43-8.33c0-45.23,32-100.36,71.39-123.12s71.38-4.54,71.38,40.7-32,100.36-71.38,123.12S832.57,609,832.57,563.77Z" />
    <path class="cls-5"
        d="M858,612.33a35.22,35.22,0,0,0,5.2,5c19.88-11.46,33.74-34.63,48.44-58.85,8.56,7.1,19.29,35.08,16.06,53.89q2.84-1.85,5.61-3.91c9.07-26.81,2.82-61.32.35-84,7.57-7.08,15.07-6.85,21.29-5.85a63.82,63.82,0,0,1,19.19,6.76c.85-2.47,1.62-4.94,2.33-7.42-10.75-13.64-23.53-25.5-42.08-24.26,7.62-18,31-27.49,44.69-40.57a35.49,35.49,0,0,0-5.23-5c-19.92,11.45-49.9,22.08-64.23,46.25-8.55-7.1-6.74-27.44-3.5-46.25-1.9,1.23-3.79,2.55-5.64,3.93-9.11,26.82-15.59,54-12.88,76.38-7.56,7.08-15.06,6.85-21.28,5.86a64,64,0,0,1-19.19-6.77c-.84,2.45-1.62,4.91-2.31,7.37,10.78,13.56,23.48,25.14,42.06,24.31C879.25,577.11,871.72,599.26,858,612.33Z" />
    <path class="cls-6"
        d="M890.75,537.85c0,12.6,8.9,17.67,19.87,11.33s19.87-21.68,19.87-34.27-8.89-17.67-19.87-11.33S890.75,525.26,890.75,537.85Z" />
    <path class="cls-7"
        d="M858,612.33a35.22,35.22,0,0,0,5.2,5c19.88-11.46,51.52-24.36,66.22-48.58,8.56,7.1,1.51,24.81-1.72,43.62q2.84-1.85,5.61-3.91c9.07-26.81,20.6-51,18.14-73.78,7.56-7.07,15.06-6.84,21.28-5.85a63.84,63.84,0,0,1,19.19,6.77c.85-2.47,1.63-4.95,2.33-7.42-10.75-13.64-23.53-25.51-42.08-24.26,7.62-18,13.17-37.76,26.91-50.84a35.49,35.49,0,0,0-5.23-5c-19.92,11.45-32.12,32.35-46.45,56.51-8.55-7.09-20-30.19-16.77-49-1.9,1.23-3.79,2.55-5.64,3.93-9.11,26.82-2.32,56.76.39,79.14-7.56,7.08-15.06,6.85-21.28,5.85-6.9-1.1-23.29-10.23-29.28-13.32-.84,2.45-1.62,4.91-2.32,7.37,10.79,13.56,33.58,31.7,52.16,30.87C897,587.38,871.72,599.26,858,612.33Z" />
    <path class="cls-8"
        d="M908.53,548.12c0,12.59,8.9,17.66,19.87,11.33s19.87-21.68,19.87-34.28-8.89-17.66-19.87-11.33S908.53,535.53,908.53,548.12Z" />
    <ellipse class="cls-9" cx="931.51" cy="538.69" rx="28.02" ry="16.17"
        transform="translate(-3.66 1070.99) rotate(-59.69)" />
    <path class="cls-10"
        d="M849.23,590c0,54.38,38.42,76.29,85.82,48.92s85.8-93.62,85.8-148-38.41-76.28-85.8-48.92S849.23,535.65,849.23,590Zm14.43-8.33c0-45.23,32-100.36,71.38-123.12s71.39-4.54,71.39,40.7S974.47,599.64,935,622.4,863.66,626.94,863.66,581.7Z" />
    <path class="cls-2"
        d="M966.86,385.42c26.09,8.86,58.34,27.75,67.86,46.19s-26.74-5.69-51-7.27-44.3.54-69.61,23-69.23,71.85-72,140.54,44.33,93.52,30.34,89.87-45.87-21.77-56.86-32.78-15.78-37.49-13.07-83.19,34.84-98.12,57-122S954.92,389,954.92,389Z" />
    <path class="cls-11" d="M949,433.85c-.11-.08-.2-.16-.31-.23.25.18.49.36.72.56Z" />
    <path class="cls-11" d="M900.59,595.16c-.6.4-1.19.79-1.8,1.17l.88-.56Z" />
    <path class="cls-11"
        d="M890.65,439.14l-.93.62q.9-.61,1.8-1.17C891.23,438.76,890.93,439,890.65,439.14Z" />
    <path class="cls-12"
        d="M832.28,604.91c0,67.92,48,95.28,107.18,61.11s107.18-116.94,107.18-184.87-48-95.29-107.18-61.1S832.28,537,832.28,604.91Zm21.37-12.34c0-54.38,38.42-120.65,85.81-148s85.81-5.46,85.81,48.91-38.41,120.66-85.81,148S853.65,647,853.65,592.57Z" />
    <path class="cls-13" d="M997.69,462l-.3-.22c.24.18.49.36.72.55Z" />
    <path class="cls-13" d="M949.3,623.28q-.9.6-1.8,1.17l.87-.56Z" />
    <path class="cls-13" d="M939.35,467.26l-.93.62c.61-.41,1.2-.79,1.8-1.17Z" />
    <path class="cls-2"
        d="M33.36,998.39c0,67.93,48,95.29,107.18,61.12s107.18-117,107.18-184.87-48-95.29-107.18-61.12S33.36,930.47,33.36,998.39Zm21.37-12.34c0-54.37,38.41-120.63,85.81-148s85.81-5.47,85.81,48.92-38.43,120.65-85.81,148S54.73,1040.45,54.73,986.05Z" />
    <path class="cls-3"
        d="M221.61,839.7c36.76,14.91,59.6,25.84,48,94.93s-49.31,112.86-82.8,130-61.44,19.84-78.58,5.17.94-10.47,30-22.46,57.76-47,72.55-79.75,20.06-48,21.91-61.44,0-50.16,0-50.16Z" />
    <path class="cls-4"
        d="M59.12,988.62c0,54.38,58.34,89.39,105.74,62s85.81-93.62,85.81-148-58.34-89.38-105.73-62S59.12,934.23,59.12,988.62Zm14.43-8.33c0-45.24,32-100.36,71.39-123.12s71.38-4.54,71.38,40.69-32,100.36-71.38,123.13S73.55,1025.52,73.55,980.29Z" />
    <path class="cls-5"
        d="M89.65,956a2.61,2.61,0,0,0,.22-.51c.68-3.2,1.52-6.36,2.34-9.51a58.35,58.35,0,0,0,15.07,4.76c6.22,1,13.72,1.23,21.28-5.85-2.71-22.38,3.77-49.56,12.88-76.38,1.85-1.38,3.74-2.7,5.64-3.93-3.23,18.81-5.05,39.15,3.5,46.25,14.33-24.17,42.78-36.36,62.71-47.81a35.43,35.43,0,0,1,5.22,5c-13.74,13.08-35.54,24.16-43.16,42.13,18.55-1.25,31.33,10.62,42.08,24.26-.7,2.47-1.48,5-2.33,7.42A64.11,64.11,0,0,0,195.91,935c-6.22-1-13.72-1.22-21.28,5.86,2.46,22.72,6.62,59.7-2.45,86.51-1.84,1.37-3.72,2.68-5.61,3.91,3.23-18.82-5.41-49.26-14-56.36-8.46,24.38-26.56,45.42-46.44,56.88a35.72,35.72,0,0,1-5.21-4.95c13.74-13.08,19.27-33.26,26.89-51.22C111.44,976.4,99.62,967.45,89.65,956Z" />
    <path class="cls-7"
        d="M103.56,1025a35.68,35.68,0,0,0,5.2,5c19.88-11.46,46.93-20.5,61.63-44.71,8.55,7.1-.59,27.27-3.82,46.09,1.89-1.23,3.77-2.54,5.61-3.91,9.07-26.81,22.69-53.52,20.23-76.25,7.56-7.08,15.06-6.85,21.28-5.85,6.9,1.1,8.17-.83,14.17,2.26.85-2.47,1.62-4.94,2.33-7.41-10.75-13.65-18.51-21-37.06-19.77,7.62-18,14.26-39.31,28-52.39a35.43,35.43,0,0,0-5.22-5c-19.93,11.45-33.21,33.91-47.54,58.07-8.55-7.1-6.73-27.43-3.5-46.25-1.9,1.24-3.79,2.55-5.64,3.93-9.11,26.83-15.59,54-12.88,76.39-7.56,7.07-15.06,6.84-21.28,5.85a63.84,63.84,0,0,1-19.19-6.77q-1.26,3.68-2.31,7.37c10.78,13.56,23.48,25.14,42.06,24.31C138,1003.9,117.29,1011.91,103.56,1025Z" />
    <path class="cls-2"
        d="M55.94,1060.88c17.21,16.53,56.5,33,56.5,33s-14.63-33.6-20.56-46.66.46-75.62,7-100.63,38.05-67.87,66.35-85.8,123.2,5.06,109-15-54.54-41.19-68.85-44.64-72.67,16.64-103.26,54-41,57.53-48.43,83.95-7.91,58.5-3.16,83.6S55.94,1060.88,55.94,1060.88Z" />
    <path class="cls-10"
        d="M90.21,1006.55c0,54.38,38.42,76.29,85.82,48.92s85.8-93.63,85.8-148-38.41-76.28-85.8-48.92S90.21,952.16,90.21,1006.55Zm14.43-8.33c0-45.24,32-100.36,71.39-123.12s71.38-4.54,71.38,40.69-32,100.36-71.38,123.12S104.64,1043.45,104.64,998.22Z" />
    <path class="cls-12"
        d="M73.25,1021.42c0,67.94,48,95.29,107.19,61.11S287.61,965.6,287.61,897.66s-48-95.27-107.17-61.1S73.25,953.5,73.25,1021.42Zm21.37-12.33c0-54.38,38.41-120.64,85.82-148s85.81-5.46,85.81,48.91-38.43,120.66-85.81,148S94.62,1063.47,94.62,1009.09Z" />
    <path id="BODY" class="cls-14"
        d="M849.26,535.84l-16.37-4.1s-6.43,34.17-7.61,43-6.73,49.77-7.44,54.09l-.72,4.33-.41,2.44s0-1.79,0-3.43-.12-5.76-.12-5.76-.51-6-.58-6.55-1.68-9.63-2-10.84a24.42,24.42,0,0,0-2.34-6.16,20.28,20.28,0,0,0-3.42-4.27,25.82,25.82,0,0,0-4-1.91c-.45-.08-2.92.49-3.62.12s-5.43.23-5.43.23l-4.81,1-3.89,1.47.62-4.11,1.81-12.89L772.15,580l-.26,1.94L769,601.74l-1.1,6.5s.13-6.76.11-7.58-.38-6.26-.44-6.8-1.15-8-1.32-8.86-1.52-6.24-2.07-7.58-2.11-4.73-3.58-6-2.29-2.21-4.23-2.63a41,41,0,0,0-5.35-.53s-5.06.74-5.48.82a51.28,51.28,0,0,0-6.38,1.72c-1.75.72-7.69,3.42-7.69,3.42l-19.69,10.1s1.76-3.14,2.25-4.23,2.21-5.77,2.41-6.54.48-1.85.62-2.62.41-2.6.45-3a34.64,34.64,0,0,0,.11-4,31.55,31.55,0,0,0-.71-4.35,17,17,0,0,0-1.69-3.66,15.27,15.27,0,0,0-1.49-1.73,15,15,0,0,0-2.29-1.53,10.47,10.47,0,0,0-3-.84,15.93,15.93,0,0,0-4.6.38,32,32,0,0,0-4.13,1.61c-.65.34-2.56,1.52-2.56,1.52l-2.81,2.13-4.88,5-9.17-5.29s.5-1.28.54-1.37.5-1.5.57-1.76.52-2,.57-2.27.3-1.68.35-2.15.13-1.13.13-1.13a3.58,3.58,0,0,0,.18-.42c0-.13.69-1.19-1.11-3.72a24.83,24.83,0,0,0-4.63-5.46,87.42,87.42,0,0,0-7.52-5.38c-1.21-.7-10.29-5.17-13.07-6.25s-12.9-4.48-13.74-4.73-10.85-3-11.71-3.23S617,516,617,516s-16-2.68-17.21-2.83-25.54-2.21-28.22-2.31-34.25,0-36.54.14-42.57,4-56.66,6.51a287.58,287.58,0,0,0-28.29,6.75s-30.2,8.88-33.36,10-23,9.18-28.5,12.17-16.59,8.81-25.07,16.29S345.36,580.22,345,580.6,333.16,595.38,331.63,600s-5.43,19.23-5.43,19.23-2.82,14-3.2,19.47a134.39,134.39,0,0,0-.33,14.82c.21,2.5.74,9.82,2.81,14.34s3,6.22,3.87,7.32a32.74,32.74,0,0,0,4.18,4.42c1.21.91,2.7,1.89,2.7,1.89l7.82,5s-2.52,15.89-1.3,21.85,1.53,7.36,2.6,10.2,5.06,12.1,6.5,15,23.75,41.69,30,50.79,14,20.24,20.47,28.3,21.69,25.92,28,30.85,10,7.57,12.92,8.65a27.79,27.79,0,0,0,6.87,1.85,66,66,0,0,0,7.65-1.23l2.24-.92S473.9,867,476.45,869.32s7.41,6.2,8.18,6.74a79.24,79.24,0,0,0,6.92,4.06,26.33,26.33,0,0,0,4.63,1.61,25.79,25.79,0,0,0,4.71.49c.92-.06,2.76,0,7.1-1.88s30.8-15,30.8-15l85.5-46,58.38-33.11,50.2-29.84L774,730.23l27.66-20s9.27-7.88,11.16-10.54a110.16,110.16,0,0,0,7.36-12.77c1.24-2.85,5.3-14.13,5.3-14.13s5.15-19,6.67-27.5,6.79-44.78,6.79-44.78l4.55-33.7Z" />
    <path class="cls-14"
        d="M888.23,373.22c23.23-2.82,51.68,18.63,51.09,28.43-.57,9.28-52,27.42-75,57.74s-72.65,103.06-72.65,103.06-20,20.73-33.14,21.46S708,561.22,709.86,555.79C731.2,546.14,753.61,510,753.61,510s43.25-69.61,73.31-92.82S888.23,373.22,888.23,373.22Z" />
    <path class="cls-14"
        d="M823.52,411.91C852,388.23,869.57,379,885,373.73s-4.38,18.58-19.82,27.83-38.47,20.21-64.7,63.78-37.89,62.34-53.34,77.94-37.3,12.51-37.3,12.51,46.92-65.21,53.62-76.44S789.42,440.29,823.52,411.91Z" />
    <path class="cls-14"
        d="M872.23,440c28.45-23.68,46-32.94,61.49-38.18s-4.37,18.58-19.82,27.83-38.47,20.21-64.7,63.78-37.88,62.34-53.33,77.94-37.3,12.51-37.3,12.51,46.92-65.21,53.62-76.44S838.13,468.41,872.23,440Z" />
    <path class="cls-14"
        d="M120.8,809.15c-18.13,15.42,29.07,32.82,49.46,29.46,25.25-4.17,124.5,25.18,114.24-.08s-48.57-54.46-87.58-55.44S120.8,809.15,120.8,809.15Z" />
    <path class="cls-14"
        d="M169.51,837.27c-4.66,3.06,24.19,1.42,34.68,5.06s16.61,21.18,27.1,25.15,35-4.14,41.68,11.06,11.07,33.4,17.77,37.89,10.21-35.32-3.49-71.56-44.3-34.62-57.42-33.73S194.28,821,169.51,837.27Z" />
    <path class="cls-15"
        d="M657.84,547a11.93,11.93,0,0,1,1.51-3.12c2-3,5.24-5,8.51-6.51,9-4.22,18.71-5.14,28.13-7.8,8.94-2.51,18-3,26.39-7.62,14.48-8,30.89-32.22,31.53-41.28s21.88-35.71,27-37.35a20.6,20.6,0,0,1,10.3-.26S844.35,460.2,840,471.18c-12.17,7.12-26.34,49.13-40.82,66.19S762.85,564.63,737.42,571s-46.14-2.23-51.94-2.56c-2-.12-4.12-1.45-5.84-2.32-3.4-1.69-6.7-3.58-10-5.48-2-1.16-4-2.33-5.95-3.52-1.5-.89-4.16-1.86-5.3-3.13C656.86,552.23,657,549.41,657.84,547Z" />
    <path class="cls-1"
        d="M261.33,626.31c7.63-4.41,17.17-4.52,19.55-3.67,6.62,2.37,12.07,14.86,9,22.09A21.31,21.31,0,0,1,277,655C272.92,656.12,261.33,626.31,261.33,626.31Z" />
    <path class="cls-1"
        d="M281.64,647c0,7.38-5.22,10.35-11.65,6.64s-11.65-12.71-11.65-20.09,5.21-10.36,11.65-6.64S281.64,639.59,281.64,647Z" />
    <path class="cls-1"
        d="M278.93,646.46c0,6.22-4.39,8.72-9.81,5.59s-9.81-10.7-9.81-16.92,4.39-8.71,9.81-5.59S278.93,640.25,278.93,646.46Z" />
    <path class="cls-1"
        d="M277,642.28c0,2.87-2,4-4.53,2.58a10,10,0,0,1-4.53-7.81c0-2.87,2-4,4.53-2.59A10,10,0,0,1,277,642.28Z" />
    <path class="cls-1"
        d="M334.83,309.18l16.92-11.07-36.56-43h0c-.7-1.36-2.3-2.25-4.63-2.35-4.63-.2-9.09,4.52-11.56,8.4-1.22,1.91-1.41,3.68-.74,5h0l0,.06h0Z" />
    <path class="cls-1"
        d="M335.53,304.09c-2.47,3.88-.72,7.19,3.9,7.39s9.09-4.53,11.56-8.41.72-7.18-3.9-7.39S338,300.21,335.53,304.09Z" />
    <path class="cls-1"
        d="M156.58,964.28c0,13.38,9.46,18.77,21.12,12s21.11-23,21.11-36.42-9.45-18.77-21.11-12S156.58,950.9,156.58,964.28Z" />
    <path class="cls-1"
        d="M283.86,617.27c21.85-12.62,71.18-27.34,79.62,1.55,8.56,29.31-33.32,65.76-43.15,65.16S283.86,617.27,283.86,617.27Z" />
    <path class="cls-1"
        d="M331.13,665.37c0,17.18-12.14,24.1-27.11,15.46s-27.12-29.59-27.12-46.77S289,610,304,618.6,331.13,648.18,331.13,665.37Z" />
    <path class="cls-16"
        d="M322.86,663c0,13.22-9.34,18.54-20.86,11.89s-20.85-22.75-20.85-36,9.34-18.54,20.85-11.89S322.86,649.83,322.86,663Z" />
    <polygon class="cls-1"
        points="263.46 797.41 278.22 803.81 194.62 960.98 179.85 954.58 263.46 797.41" />
    <path class="cls-1"
        d="M216,872.05l41.13-78.59,28.08,14L244,886.09c-1,1.92-8,.33-15.78-3.55S215,874,216,872.05Z" />
    <polygon class="cls-1"
        points="265.95 798.49 275.74 802.74 386.68 594.18 376.89 589.93 265.95 798.49" />
    <path class="cls-1"
        d="M411.17,609.3a60.28,60.28,0,0,0,48.55-24.48l95.59-129.25a15.42,15.42,0,0,1,21.34-3.32l9.27-12.83a31.32,31.32,0,0,0-43.33,6.74L447,575.41a44.51,44.51,0,0,1-58.08,12.08L319.4,547.36a44.58,44.58,0,0,1-19.77-53.28l56.6-161.93a33.25,33.25,0,0,0-11-37.21l-5.45,5.78L335,307c6.48,5,8.79,12.89,6.32,20L284.69,488.86a60.42,60.42,0,0,0,26.8,72.2L381,601.19A60.1,60.1,0,0,0,411.17,609.3Z" />
    <path class="cls-1"
        d="M631.49,478.5,636.13,460l-53.21-25.5h0c-1.5-.31-3.2.38-4.74,2.13-3,3.49-4.85,8.3-3.36,12.66.72,2.14,2,3.39,3.44,3.71h.07Z" />
    <path class="cls-1"
        d="M628,474.77c1.48,4.36,5.15,5.06,8.2,1.58s4.85-8.29,3.37-12.65-5.16-5.06-8.21-1.58S626.48,470.41,628,474.77Z" />
    <path class="cls-1"
        d="M335.32,664c7.63-4.4,17.17-4.52,19.55-3.67,6.62,2.37,12.06,14.87,9,22.1A21.34,21.34,0,0,1,351,692.68C346.91,693.83,335.32,664,335.32,664Z" />
    <path class="cls-1"
        d="M355.63,684.68c0,7.39-5.22,10.36-11.65,6.65s-11.65-12.71-11.65-20.1,5.21-10.35,11.65-6.64S355.63,677.3,355.63,684.68Z" />
    <path class="cls-1"
        d="M352.92,684.18c0,6.21-4.39,8.72-9.81,5.59s-9.81-10.7-9.81-16.92,4.4-8.72,9.81-5.59S352.92,678,352.92,684.18Z" />
    <path class="cls-1"
        d="M351,680c0,2.87-2,4-4.53,2.58a10,10,0,0,1-4.53-7.81c0-2.87,2-4,4.53-2.58A10,10,0,0,1,351,680Z" />
</svg>