<svg id="Capa_1" data-name="Capa 1" xmlns="http://www.w3.org/2000/svg" viewBox="0 0 141.9 110.4"><defs><style>.cls-1{fill:#5fa343;}.cls-2{fill:#477a40;}.cls-3{fill:#4a4545;}.cls-4{fill:#332e2e;}.cls-5{fill:#443e3b;}.cls-6{fill:#a4a5a4;}.cls-7{fill:#92bb67;}.cls-8{fill:#9dcdea;}.cls-9{fill:#fcfbee;}</style></defs><path class="cls-1" d="M13,92.74a.22.22,0,0,1,.3,0l1.28.75a1,1,0,0,1,.45.75V99a.4.4,0,0,1-.15.3l-.38.23L12.61,93Z" transform="translate(-12.53 -22.09)"/><path class="cls-2" d="M12.53,93.26c0-.3.23-.37.45-.22l1.28.75a1,1,0,0,1,.45.75v4.72c0,.3-.23.38-.45.23L13,98.74a1,1,0,0,1-.45-.75Z" transform="translate(-12.53 -22.09)"/><path class="cls-3" d="M14,93.56a.15.15,0,0,0,.15-.15v-3l4-2.32a4.42,4.42,0,0,1,4.12,0L25,89.66c.08.08.15,0,.23-.07s0-.15-.08-.23l-2.7-1.57a5,5,0,0,0-4.42,0L14,90.11c-.08,0-.08.08-.08.15v3.08c0,.15.08.22.15.22" transform="translate(-12.53 -22.09)"/><path class="cls-3" d="M13.51,93.26a.16.16,0,0,0,.15-.15V90.94l.45-.45a.16.16,0,1,0-.23-.23l-.45.45-.07.08V93c0,.15.07.22.15.22" transform="translate(-12.53 -22.09)"/><polygon class="cls-4" points="61.95 81.3 68.33 83.25 67.8 88.65 65.92 92.47 54.08 85.65 61.95 81.3"/><polygon class="cls-4" points="118.65 48.6 124.95 50.55 124.42 55.95 122.55 59.77 110.7 52.95 118.65 48.6"/><path class="cls-4" d="M68.78,108.41a3.85,3.85,0,0,1,3.75-.37l3.3,1.87-7.42,12.75-3.3-1.87a3.75,3.75,0,0,1-1.5-3.38,11.31,11.31,0,0,1,5.17-9" transform="translate(-12.53 -22.09)"/><path class="cls-5" d="M75.79,109.91c-2-1.18-5.36.75-7.41,4.3s-2.06,7.38,0,8.56,5.36-.74,7.41-4.29,2.06-7.39,0-8.57" transform="translate(-12.53 -22.09)"/><path class="cls-6" d="M72.08,120.86a8.11,8.11,0,0,0,3.83-6.52c0-2.4-1.65-3.45-3.68-2.33a8.12,8.12,0,0,0-3.82,6.53c-.08,2.4,1.57,3.45,3.67,2.32" transform="translate(-12.53 -22.09)"/><path class="cls-4" d="M125.63,75.64a3.85,3.85,0,0,1,3.75-.38l3.3,1.88-7.42,12.75L122,88a3.72,3.72,0,0,1-1.5-3.37,11.13,11.13,0,0,1,5.17-9" transform="translate(-12.53 -22.09)"/><path class="cls-5" d="M132.55,77.13c-2.05-1.18-5.37.74-7.42,4.29s-2,7.39,0,8.57,5.37-.74,7.42-4.3,2.05-7.38,0-8.56" transform="translate(-12.53 -22.09)"/><path class="cls-6" d="M131.57,79.06c-1.47-.85-3.85.54-5.31,3.09s-1.46,5.3,0,6.15,3.85-.54,5.31-3.09,1.46-5.31,0-6.15" transform="translate(-12.53 -22.09)"/><path class="cls-2" d="M24.31,92.14l7.35,4.27L25,100.24a.47.47,0,0,1-.67-.38Zm-3,25.2,26.1,15.15v-7.13a1.28,1.28,0,0,0,.52-.15l2-1.12a.56.56,0,0,0,.3-.53V104l-.07-.08-2.25,1.35a.78.78,0,0,1-.38.08v-5.4L21.31,84.86v5.33a.4.4,0,0,0,.22.37l.23.15-.08,19.5-.15.08a.44.44,0,0,0-.22.45Z" transform="translate(-12.53 -22.09)"/><path class="cls-1" d="M21.76,110.21l.07-19.5,2.55,1.5v7.73a.42.42,0,0,0,.68.37l6.67-3.82,15.38,8.85a1,1,0,0,0,.45.07c.15,0,.3,0,.37-.07L50.18,104s.08,0,.08.07v19.58a.62.62,0,0,1-.3.52l-2,1.13a.3.3,0,0,1-.23.07h-.3a1.28,1.28,0,0,1-.52-.15L21.83,110.74c-.07,0-.07-.08-.07-.15Z" transform="translate(-12.53 -22.09)"/><polygon class="cls-7" points="141.9 15.15 115.8 0 9.68 61.2 35.85 76.42 141.9 15.15"/><path class="cls-7" d="M21.46,84.19a1.27,1.27,0,0,1,.37-.53,1.43,1.43,0,0,1,.38-.3l26.1,15.15a2.19,2.19,0,0,0-.38.3c-.15.15-.22.38-.37.53a2,2,0,0,0-.15.67L21.31,84.86a2,2,0,0,1,.15-.67" transform="translate(-12.53 -22.09)"/><path class="cls-1" d="M140.26,51.94l.45-.3c.22-.15.45,0,.45.3v.52Zm1.87-.68a.82.82,0,0,1,.45-.75l9.08-5.25c.22-.15.45,13.43.45,13.43l-9.9-5.7V51.26Zm-94.72,74.1v7.13l18.75-10.88v-2.1a13.32,13.32,0,0,1,6.15-10.57c3.37-2,6.15-.38,6.15,3.52v2.1L122.78,89v-2.1a13.34,13.34,0,0,1,6.15-10.58c3.38-2,6.15-.37,6.15,3.53v2.1l12.15-7,6.45-5.7a1.9,1.9,0,0,0,.68-1.5V37.31L48.23,98.59a2.12,2.12,0,0,0-.9,1.5v5.4a.55.55,0,0,0,.38-.08L50,104.06a.07.07,0,0,1,.07.08v19.57a.64.64,0,0,1-.3.53l-1.95,1.12Z" transform="translate(-12.53 -22.09)"/><polygon class="cls-1" points="93.45 33.08 134.7 9.3 134.7 11.03 93.45 34.88 93.45 33.08"/><polygon class="cls-1" points="80.55 27.45 93.45 34.88 93.45 33.08 80.55 25.65 80.55 27.45"/><polygon class="cls-7" points="93.45 33.08 134.7 9.3 121.8 1.88 80.55 25.65 93.45 33.08"/><path class="cls-1" d="M140.26,51.94l.45-.3c.22-.15.45,0,.45.3v.52ZM52.73,100.16v17.48L153.46,59.51V42Z" transform="translate(-12.53 -22.09)"/><polygon class="cls-1" points="38.7 108.22 52.42 100.28 52.42 71.03 38.7 78.97 38.7 108.22"/><polygon class="cls-1" points="83.85 82.13 97.5 74.25 97.5 45 83.85 52.95 83.85 82.13"/><path class="cls-8" d="M47.86,105.26l2.25-1.35a.07.07,0,0,1,.07.08v19.57a.64.64,0,0,1-.3.53l-2,1.12a1.28,1.28,0,0,1-1,0L21.76,110.74c-.08,0-.08-.08-.08-.15l.08-19.88L47,105.34a1.07,1.07,0,0,0,.83-.08" transform="translate(-12.53 -22.09)"/><path class="cls-8" d="M111.16,82.76l13.8-8a.76.76,0,0,0,.37-.6V61.09a.33.33,0,0,0-.45-.3l-13.95,8.1a1,1,0,0,0-.45.75V82.46a.42.42,0,0,0,.68.3M127,73.61l13.8-8a.75.75,0,0,0,.38-.6V51.94a.33.33,0,0,0-.45-.3l-14,8a1,1,0,0,0-.45.75V73.24A.42.42,0,0,0,127,73.61ZM66,108.86l13.8-8a.76.76,0,0,0,.37-.6V87.19a.33.33,0,0,0-.45-.3l-14,8a1,1,0,0,0-.45.75v12.75A.55.55,0,0,0,66,108.86ZM52.28,123.94l5.48-3.15V99.64l-5.48,3.15Zm6.3-24.83L64.06,96v21.15l-5.48,3.15Zm38.78-1.2,5.47-3.15V73.61l-5.47,3.15Zm6.3-24.82,5.47-3.15V91.09l-5.47,3.15Z" transform="translate(-12.53 -22.09)"/><path class="cls-1" d="M47.18,112.46a.24.24,0,0,1,.3,0l1.28.75a1,1,0,0,1,.45.75v4.73a.42.42,0,0,1-.15.3l-.38.22-1.87-6.52Z" transform="translate(-12.53 -22.09)"/><path class="cls-2" d="M46.66,113c0-.3.22-.38.45-.23l1.27.75a1,1,0,0,1,.45.75V119c0,.3-.22.37-.45.22l-1.27-.75a1,1,0,0,1-.45-.75Z" transform="translate(-12.53 -22.09)"/><path class="cls-3" d="M47.71,113a.17.17,0,0,0,.15-.15v-2.93l4-2.32a1.72,1.72,0,0,0,1-1.35,1.7,1.7,0,0,0-1-1.35l-2.7-1.58c-.07-.07-.15,0-.22.08s0,.15.07.22l2.7,1.58a1.34,1.34,0,0,1,.83,1.12,1.45,1.45,0,0,1-.83,1.13l-4,2.32c-.07,0-.07.08-.07.15v3a.24.24,0,0,0,.15.08" transform="translate(-12.53 -22.09)"/><path class="cls-3" d="M48.16,113.21a.16.16,0,0,0,.15-.15v-2.47l-.53-.9a.26.26,0,0,0-.22-.08.27.27,0,0,0-.08.23l.53.9v2.4c.07,0,.07.07.15.07" transform="translate(-12.53 -22.09)"/><polygon class="cls-9" points="28.73 102.83 33.52 105.67 33.52 104.1 28.73 101.25 28.73 102.83"/><polygon class="cls-7" points="33.38 105.53 34.88 106.42 34.88 104.85 33.38 103.95 33.38 105.53"/><polygon class="cls-7" points="35.55 106.05 34.88 106.42 34.88 104.85 35.55 104.47 35.55 106.05"/><polygon class="cls-9" points="15 94.95 10.13 92.1 10.13 90.53 15 93.38 15 94.95"/><polygon class="cls-7" points="10.28 92.25 8.78 91.35 8.78 89.78 10.28 90.67 10.28 92.25"/><path class="cls-1" d="M28.66,119.44,40.13,126v-.3l-11.47-6.6Zm0-.6,11.47,6.6v-.3l-11.47-6.6Zm0-.6,11.47,6.6v-.3l-11.47-6.6Zm0-.6,11.47,6.6v-.3l-11.47-6.6Zm0-.6,11.47,6.6v-.3l-11.47-6.6Zm0-1,11.47,6.6v.3l-11.47-6.6Z" transform="translate(-12.53 -22.09)"/><polygon class="cls-1" points="10.72 69.45 32.85 82.2 32.85 77.7 10.72 64.95 10.72 69.45"/><path class="cls-7" d="M24.31,90.56l2.17,1.28V90.56l-2.17-1.27Zm7.05,4.13,3,1.72V95.14l-3-1.73Zm4.27,2.47,4.5,2.55V98.44l-4.5-2.55Zm5.78,2,2.85,1.65v1.27l-2.85-1.65Z" transform="translate(-12.53 -22.09)"/><path class="cls-1" d="M151.06,67.24l1-.6a.63.63,0,0,0,.3-.45V66c0-.15-.15-.23-.3-.08l-1,.6a.63.63,0,0,0-.3.45v.15c0,.08.15.15.3.08M79.13,108.49v-.15c0-.15.15-.3.3-.45l1-.6c.15-.08.3,0,.3.07v.15c0,.15-.15.3-.3.45l-1,.6C79.28,108.64,79.13,108.64,79.13,108.49Z" transform="translate(-12.53 -22.09)"/><path class="cls-1" d="M124.81,60.79c.22-.15.45,0,.45.3v2.55l-14.85,8.55V69.56a.82.82,0,0,1,.45-.75Z" transform="translate(-12.53 -22.09)"/><path class="cls-7" d="M110.86,70.84l1.5-.9V69l-1.5.9Zm5-2.85,2.1-1.2v-.9l-2.1,1.2Zm3-1.73,3.15-1.8v-.9l-3.15,1.8Zm4-3.22,2-1.2v.9l-2,1.2Z" transform="translate(-12.53 -22.09)"/></svg>