<svg id="Capa_1" data-name="Capa 1" xmlns="http://www.w3.org/2000/svg" xmlns:xlink="http://www.w3.org/1999/xlink" viewBox="0 0 80.08 70.71"><defs><style>.cls-1{fill:none;}.cls-2{fill:#c31b27;}.cls-3{fill:#c6c6c8;}.cls-4{fill:#1e1b1a;}.cls-5{fill:#5c595b;}.cls-6{fill:#afb0b0;}.cls-7{fill:#5f5e60;}.cls-8{fill:#92bb67;}.cls-9{fill:#477a40;}.cls-10{fill:#5fa343;}.cls-11{fill:#352f76;}.cls-12{clip-path:url(#clip-path);}.cls-13{fill:url(#Degradado_sin_nombre_256);}.cls-14{fill:#9dcdea;}.cls-15{fill:#30281f;}.cls-16{fill:#858586;}.cls-17{clip-path:url(#clip-path-2);}.cls-18{fill:url(#Degradado_sin_nombre_257);}.cls-19{fill:#fff;}.cls-20{fill:#e3e1e2;}.cls-21{fill:#2e2a2c;}</style><clipPath id="clip-path" transform="translate(-62.5 -50.45)"><path class="cls-1" d="M90.53,100.83l-.37-.23-5.25-3,.37-.37,3.6,2.17a28.16,28.16,0,0,0-7-4.2c.15.08.23.15.23.23a.24.24,0,0,1,0,.3H82l.15.22-5.32-3.07.22-.23,2.78,1.65.07-.07A23,23,0,0,0,72,90.1l-.45-.3.07-.15a.3.3,0,0,1,.23-.07c3.52.67,7.2,3.37,9,4.8,4.57,1.27,9.07,5.32,9.3,5.55a.24.24,0,0,1,0,.3h-.08Z"/></clipPath><linearGradient id="Degradado_sin_nombre_256" x1="8.83" y1="44.76" x2="27.58" y2="44.76" gradientUnits="userSpaceOnUse"><stop offset="0" stop-color="#59afcc"/><stop offset="1" stop-color="#446a70"/></linearGradient><clipPath id="clip-path-2" transform="translate(-62.5 -50.45)"><path class="cls-1" d="M82.66,117.55a1.23,1.23,0,0,1-.45.38,1.81,1.81,0,0,1-1.95-.08c-.83-.52-6.23-3.6-6.53-3.75a1.54,1.54,0,0,1,.08-.45,3.1,3.1,0,0,0,.07-.37c0-.08,0-.15.08-.15l.22-.45c0-.08.08-.08.08-.15a1.47,1.47,0,0,1,.45-.3c.07,0,.15-.08.3-.08a2.66,2.66,0,0,1,.75.08,4.41,4.41,0,0,1,.67.3c2.33,1.35,2.4,1.42,2.4,1.42l2,1.13s.83.67,1.43.37.45,2.1.45,2.1"/></clipPath><linearGradient id="Degradado_sin_nombre_257" x1="11.06" y1="62.26" x2="19.14" y2="66.62" gradientUnits="userSpaceOnUse"><stop offset="0" stop-color="#fff"/><stop offset="0.74" stop-color="#fff"/><stop offset="0.82" stop-color="#e3e1e2"/><stop offset="1" stop-color="#e3e1e2"/></linearGradient></defs><path class="cls-2" d="M142.58,79.53l-1.05.6c-.75.45-1.42.07-1.42-.83a3,3,0,0,1,1.42-2.4l1.05-.6v3.23" transform="translate(-62.5 -50.45)"/><path class="cls-3" d="M131.86,88.6c1.72-1,3.15-.22,3.15,1.8a7.1,7.1,0,0,1-3.15,5.48c-1.73,1-3.15.22-3.15-1.8a7.07,7.07,0,0,1,3.15-5.48" transform="translate(-62.5 -50.45)"/><path class="cls-4" d="M131.86,85.9c-.15.08-.38.23-.6.38a1.53,1.53,0,0,0-.38.3,1.3,1.3,0,0,0-.37.3,12.18,12.18,0,0,0-4.13,8.4v.3a1.58,1.58,0,0,0,.08.6v.07c0,.15.07.38.07.53a1.46,1.46,0,0,0,.15.52,1,1,0,0,1,.15.45,2.54,2.54,0,0,0,.53.75c.07.08.22.23.3.3a1,1,0,0,0,.3.23l-3.68-2.1-1.5-.9a7.57,7.57,0,0,0,.6-3c0-2.18.6-2.78,1.73-5.1.82-1.5,1.57-3.08,2.25-4.65l3.07,1.8Z" transform="translate(-62.5 -50.45)"/><path class="cls-5" d="M131.86,95.88c-1.73,1-3.15.22-3.15-1.8a7.07,7.07,0,0,1,3.15-5.48c1.72-1,3.15-.22,3.15,1.8a6.78,6.78,0,0,1-3.15,5.48m0-10c-.15.08-.38.23-.6.38a1.53,1.53,0,0,0-.38.3,1.3,1.3,0,0,0-.37.3,12.18,12.18,0,0,0-4.13,8.4v.3a1.58,1.58,0,0,0,.08.6v.07c0,.15.07.38.07.53a1.46,1.46,0,0,0,.15.52,1,1,0,0,1,.15.45,2.54,2.54,0,0,0,.53.75c.07.08.22.23.3.3a1,1,0,0,0,.3.23c1,.6,2.4.52,4-.38a12.48,12.48,0,0,0,5.55-9.37v-.23C137.41,85.53,134.93,84.1,131.86,85.9Z" transform="translate(-62.5 -50.45)"/><path class="cls-4" d="M139,88.15l-1.57.9c0-3.52-2.48-5-5.55-3.15-.15.08-.38.23-.6.38a1.53,1.53,0,0,0-.38.3,1.3,1.3,0,0,0-.37.3,12.83,12.83,0,0,0-4.13,8.4v.3l-1.5.9h-.07v-.9a17,17,0,0,1,5.62-10.65c.08-.08.23-.15.3-.3a2.19,2.19,0,0,0,.38-.3c.07-.08.22-.15.3-.23s.22-.15.37-.22c4-2.1,7.2-.23,7.2,4.27" transform="translate(-62.5 -50.45)"/><path class="cls-4" d="M131.86,81.93a1.53,1.53,0,0,1-.68,1.2c-.37.22-.67.07-.67-.38V81a1.54,1.54,0,0,1,.67-1.2.42.42,0,0,1,.68.38Z" transform="translate(-62.5 -50.45)"/><polygon class="cls-6" points="45.43 44.83 42.88 46.26 42.51 46.03 40.1 44.61 40.03 44.61 35.3 41.83 35.6 41.01 36.2 39.51 42.58 43.18 44.6 44.31 45.43 44.83"/><path class="cls-7" d="M107.93,94.3l-.82.45-1.65,1-2-1.13-5.25-3.07.6-1.58.15-.45a1.2,1.2,0,0,1,.08-.37l6.9,4Z" transform="translate(-62.5 -50.45)"/><path class="cls-6" d="M108.31,94.53a.82.82,0,0,1-.45.75l-.83-.53-2-1.2-6.3-3.67.15-.45a1.45,1.45,0,0,1,.07-.38A.28.28,0,0,1,99,88.9l7,4,2.1,1.28v.07c.23.08.23.15.23.23" transform="translate(-62.5 -50.45)"/><path class="cls-6" d="M105.38,96.7a.28.28,0,0,0-.15.08h-.15l-2.7-1.58-.75-.45-2.47-1.42c-.45-.3-.9-.53-1.35-.83l.07-.15,4.73,2.78h0l2.4,1.42Z" transform="translate(-62.5 -50.45)"/><path class="cls-6" d="M108.31,91.68,106.06,93l-.15.15-.83.45-1.65,1-.82.45h0l-.15.07L95,99.33l2.78-7,.07-.15.3-.82.6-1.58.15-.45A1.2,1.2,0,0,1,99,89a.25.25,0,0,1,.07-.15,4.23,4.23,0,0,1,1.5-1.73h0Z" transform="translate(-62.5 -50.45)"/><path class="cls-7" d="M108.23,94.23a.13.13,0,0,0-.22,0h-.08l-2-1.13-6.9-4a.25.25,0,0,1,.07-.15l7,4Z" transform="translate(-62.5 -50.45)"/><path class="cls-8" d="M138.23,62.5,99.38,85,79.73,73.6l38.85-22.5c1,.6,2.1,1.2,3.23,1.88.3.15.6.37.9.52,3.67,2.18,7.72,4.5,11.47,6.68.3.15.6.37.9.52l3.15,1.8" transform="translate(-62.5 -50.45)"/><path class="cls-9" d="M141.31,72.63l-4.95,2.85v-9c.07,0,1.12-.6,2.47-1.43s2.48.6,2.48,3.08Z" transform="translate(-62.5 -50.45)"/><path class="cls-10" d="M141.46,62.13h-.08c-.07-.08-.15-.08-.3-.15H141c-.08,0-.15-.08-.3-.08a1.36,1.36,0,0,0-.75,0,.42.42,0,0,0-.3.08.59.59,0,0,0-.3.07c-.08,0-.23.08-.3.08s-.15,0-.15.07-.08,0-.15.08-.08.07-.15.07-.23.08-.3.15h-.15c-1-.6-2.1-1.2-3.23-1.87-.3-.15-.6-.38-.9-.53-3.67-2.17-7.72-4.5-11.47-6.67-.3-.15-.6-.38-.9-.53-1.13-.67-2.18-1.27-3.23-1.87.15-.08,1.95-1.05,3.23-.3Z" transform="translate(-62.5 -50.45)"/><path class="cls-7" d="M105,96.48v.22l-2.7-1.57-.75-.45-2.48-1.43-1.35-.82.08-.15.3-.83,5.25,3.08,2,1.12a1.24,1.24,0,0,0-.37.83" transform="translate(-62.5 -50.45)"/><path class="cls-4" d="M108.31,94.53a.82.82,0,0,1-.45.75l-2.48,1.42a.28.28,0,0,0-.15.08h-.15v-.23a1,1,0,0,1,.45-.75l1.65-1,.83-.45h.3v.15" transform="translate(-62.5 -50.45)"/><path class="cls-3" d="M96.46,109.08c1.72-1,3.15-.23,3.15,1.8a7.1,7.1,0,0,1-3.15,5.47c-1.73,1-3.15.23-3.15-1.8a6.94,6.94,0,0,1,3.15-5.47" transform="translate(-62.5 -50.45)"/><path class="cls-4" d="M91,115.9v.15a1.53,1.53,0,0,0,.08.6.74.74,0,0,0,.07.38.55.55,0,0,0,.08.3,3.34,3.34,0,0,0,.15.52c0,.08.07.15.07.3a.08.08,0,0,0,.08.08c.15.22.22.45.45.6,0,.07.07.07.07.15a1.11,1.11,0,0,0,.3.22c.08.08.23.15.3.23L89,117.25l-2.48-1.42a8.25,8.25,0,0,0,1.58-2.7c.52-1.58.75-3,1.87-4.13,1.35-1.35,2.63-2.77,4-4.2l1.27.75,1.43.83A11.56,11.56,0,0,0,91,115.9" transform="translate(-62.5 -50.45)"/><path class="cls-11" d="M80,94.3c-.07,0-.07.08-.07.08l-2.78-1.65L77,93l-4.73-2.77A23.31,23.31,0,0,1,80,94.3" transform="translate(-62.5 -50.45)"/><path class="cls-11" d="M89,99.4l-3.6-2.17L85,97.6,82.21,96l-.15-.22h.07a.22.22,0,0,0,0-.3l-.22-.23a28.34,28.34,0,0,1,7,4.2" transform="translate(-62.5 -50.45)"/><g class="cls-12"><rect class="cls-13" x="9.06" y="39.13" width="18.97" height="11.25"/></g><path class="cls-9" d="M124.81,95.65A16.11,16.11,0,0,1,130.43,85l-3.07-1.8c-.68,1.58-1.5,3.15-2.25,4.65-1.2,2.25-1.73,2.93-1.73,5.1a7.54,7.54,0,0,1-.6,3l1.5.9.53-.3h.07v-.22h-.07V96.1a.45.45,0,0,1,0-.45m-16.58-1.42L106.13,93l-.15.15-.82.45-1.65,1-.83.45h0l-.15.07,2.7,1.58V96.4a1,1,0,0,1,.45-.75l1.65-1,.83-.45Zm-14.47,10.5-4,4.2a9.09,9.09,0,0,0-1.87,4.12,7,7,0,0,1-1.58,2.7l2.48,1.43.52-.3v-1.13a1.58,1.58,0,0,1,.08-.6v-.07c0-.23.07-.38.07-.6v-.15a1.83,1.83,0,0,1,.15-.6c.15-.53.3-1,.45-1.5.08-.15.08-.3.15-.38s.15-.37.23-.52a3.07,3.07,0,0,1,.37-.75c.15-.23.23-.53.38-.75a2.27,2.27,0,0,1,.37-.6c.08-.15.15-.23.23-.38s.15-.22.22-.37a1.11,1.11,0,0,0,.23-.3,3,3,0,0,0,.37-.53c.15-.22.3-.37.45-.6a10.11,10.11,0,0,1,1.8-1.72ZM82.28,115.45h0V118a1.27,1.27,0,0,0,.45-.37S82.88,115.15,82.28,115.45Z" transform="translate(-62.5 -50.45)"/><path class="cls-9" d="M136.43,75.48v-9a27.21,27.21,0,0,0,2.48-1.43c1.35-.82,2.47.6,2.47,3.08v4.5ZM109.88,90.85v-9L135,67.38v9Zm21.3-7.72c-.37.22-.67.07-.67-.38V81a1.54,1.54,0,0,1,.67-1.2.42.42,0,0,1,.68.38v1.8A1.53,1.53,0,0,1,131.18,83.13ZM107.93,95.28l-2.47,1.42a.24.24,0,0,0-.15.08h-.15l-2.7-1.58L95,99.48l2.78-7,.07-.15.3-.82.6-1.58.15-.45a1.2,1.2,0,0,1,.08-.37.25.25,0,0,1,.07-.15,4.23,4.23,0,0,1,1.5-1.73h0l.68-.45c2-1.2,6.75-3.9,7-4v9L106.06,93l2.1,1.2h.07v.22A.82.82,0,0,1,107.93,95.28Zm34.65-15.75-1.05.6c-.75.45-1.42.07-1.42-.83a3,3,0,0,1,1.42-2.4l1.05-.6V65c0-1.65-.52-2.48-1.2-2.85-.07-.08-.15-.08-.3-.15H141c-.08,0-.15-.08-.3-.08H140a.42.42,0,0,0-.3.08.59.59,0,0,0-.3.07c-.08,0-.15.08-.3.08s-.15,0-.15.07-.08,0-.15.08-.08.07-.15.07-.23.08-.3.15h-.15L99.31,85a5.73,5.73,0,0,0-1,.9,6.88,6.88,0,0,0-1.12,1.88.16.16,0,0,1,.15.15.28.28,0,0,1,.07.22v.38c0,.15-.07.3-.07.52a7.39,7.39,0,0,1-.45,1.28c-.08.07-.08.22-.15.37a7.8,7.8,0,0,0-.3.83.28.28,0,0,1-.08.15c-.9,2.25-1.87,4.87-2.92,6.9a8.78,8.78,0,0,1-2.18,3c-.07.07-.15.07-.3.15l-.07.07a6.63,6.63,0,0,0-.75.75l-1.35,1.35a43,43,0,0,0-5.1,6.45c-.15.3-.3.53-.45.83a7.6,7.6,0,0,0-.38.75c-.07.15-.15.37-.22.52a1,1,0,0,0-.15.45,5.62,5.62,0,0,0-.38,1.58v1c.6-.3.38,2.1.38,2.1a1.27,1.27,0,0,1-.45.37v3.15l6.6-3.82-2.48-1.43a8.06,8.06,0,0,0,1.58-2.7c.52-1.57.75-3,1.87-4.12,1.35-1.35,2.63-2.78,4-4.2l1.27.75c.23-.15.45-.38.68-.53a6.18,6.18,0,0,1,.75-.45c3.9-2.25,7.12-.45,7.12,4l-1.57.9v.23L124.06,97l-1.5-.9a7.71,7.71,0,0,0,.6-3c0-2.17.6-2.77,1.72-5.1a49.76,49.76,0,0,0,2.25-4.65l3.08,1.8c.07-.07.22-.15.37-.3a1.53,1.53,0,0,0,.38-.3c.07-.07.22-.15.3-.22s.22-.15.37-.23c3.9-2.25,7.13-.45,7.13,4.05l-1.58.9v.23L140,87.71a5.22,5.22,0,0,0,2.4-4.13A23.68,23.68,0,0,0,142.58,79.53Z" transform="translate(-62.5 -50.45)"/><polygon class="cls-9" points="72.5 25.86 47.38 40.41 47.3 31.41 72.43 16.86 72.5 25.86"/><path class="cls-5" d="M96.46,116.28c-1.73,1-3.15.22-3.15-1.8A7.07,7.07,0,0,1,96.46,109c1.72-1,3.15-.22,3.15,1.8a6.61,6.61,0,0,1-3.15,5.48m0-10A11.9,11.9,0,0,0,91,115.83V116a1.58,1.58,0,0,0,.08.6.7.7,0,0,0,.07.37.53.53,0,0,0,.08.3,3.19,3.19,0,0,0,.15.53c0,.07.07.15.07.3a.07.07,0,0,0,.08.07c.15.23.22.45.45.6,0,.08.07.08.07.15a1.11,1.11,0,0,0,.3.23c.08.07.23.15.3.22a3.76,3.76,0,0,0,3.9-.37,12.52,12.52,0,0,0,5.55-9.38v-.22C102,106,99.53,104.58,96.46,106.3Z" transform="translate(-62.5 -50.45)"/><path class="cls-4" d="M103.58,108.55l-1.57.9c0-3.52-2.48-5-5.55-3.15A11.9,11.9,0,0,0,91,115.83l-1.57.9v-1a1.79,1.79,0,0,1,.07-.6v-.07c0-.23.08-.38.08-.6v-.15a1.61,1.61,0,0,1,.15-.6c.15-.53.3-1,.45-1.5.07-.15.07-.3.15-.38s.15-.37.22-.52a3.53,3.53,0,0,1,.38-.75c.15-.23.22-.53.37-.75a2.62,2.62,0,0,1,.38-.6c.07-.15.15-.23.22-.38s.15-.22.23-.37a1.11,1.11,0,0,0,.22-.3,3,3,0,0,0,.38-.53c.15-.22.3-.37.45-.6a9.48,9.48,0,0,1,1.8-1.72c.22-.15.45-.38.67-.53a7.07,7.07,0,0,1,.75-.45c4-2.1,7.2-.3,7.2,4.2" transform="translate(-62.5 -50.45)"/><path class="cls-14" d="M108.31,91.68,106.06,93l-.15.15-.83.45-1.65,1-.82.45h0l-.15.07L95,99.33l2.78-7,.07-.15.3-.82.6-1.58.15-.45A1.2,1.2,0,0,1,99,89a.25.25,0,0,1,.07-.15,4.23,4.23,0,0,1,1.5-1.73h0l.68-.45c2-1.2,6.75-3.9,7-4.05Z" transform="translate(-62.5 -50.45)"/><path class="cls-8" d="M91.36,101.35l-.3.3-.08.08a7.57,7.57,0,0,0-.75.75l-1.35,1.35a43.11,43.11,0,0,0-5.1,6.45c-.15.3-.3.52-.45.82a6.36,6.36,0,0,0-.37.75c-.08.15-.15.38-.23.53a1.14,1.14,0,0,0-.15.45,5.85,5.85,0,0,0-.37,1.57v.9L62.56,103.9c-.08-.22-1-4.12,8.7-13.5l.37-.37.45.3,4.73,2.77,5.32,3.08,2.78,1.65,5.25,3,.37.22Z" transform="translate(-62.5 -50.45)"/><polygon class="cls-10" points="19.78 70.63 0.13 59.16 0.06 56.53 0.06 53.98 0.06 53.38 19.78 64.78 19.78 65.01 19.78 67.48 19.78 70.63"/><path class="cls-10" d="M99.38,85a5.69,5.69,0,0,0-1,.9,7.18,7.18,0,0,0-1.13,1.88l-.67-.38L86.48,81.55l-8.85-5.17a6,6,0,0,1,2.1-2.85Z" transform="translate(-62.5 -50.45)"/><path class="cls-15" d="M75.53,111.93c.53.3.83,1.57.83,2.1s-.45.75-1,.45l-7.2-4.2a2.21,2.21,0,0,1-1-1.65c0-.6.6-1.28,1.2-1Z" transform="translate(-62.5 -50.45)"/><path class="cls-16" d="M67.58,107.88c-.07,0-.07.07-.15.15l8.78,5c0-.07-.08-.15-.08-.22Z" transform="translate(-62.5 -50.45)"/><path class="cls-16" d="M67.21,109.23a.57.57,0,0,0,.15.3l8.85,5.1c.07,0,.07-.08.15-.15Z" transform="translate(-62.5 -50.45)"/><path class="cls-16" d="M67.13,108.4a.25.25,0,0,1-.07.15l9.22,5.33v-.23Z" transform="translate(-62.5 -50.45)"/><g class="cls-17"><rect class="cls-18" x="11.23" y="61.71" width="9.15" height="6.23"/></g><path class="cls-19" d="M67.06,107c-2.18-1.28-2.25-1.35-2.25-1.35l-1.8-1-.3-.15c-.08.45,0,1.87,0,2.55a1.67,1.67,0,0,0,.82.82c.83.45,5.93,3.38,6.15,3.53-.15-.15-.3-3-2.62-4.35" transform="translate(-62.5 -50.45)"/><path class="cls-20" d="M79.58,116a4.1,4.1,0,0,1-1.57-.75c-.83-.45-1.43-.9-1.43-1a3.78,3.78,0,0,1,1.58.75c.82.52,1.5,1,1.42,1" transform="translate(-62.5 -50.45)"/><path class="cls-20" d="M67.51,108.78a4.11,4.11,0,0,1-1.58-.75c-.82-.45-1.42-.9-1.42-1a3.77,3.77,0,0,1,1.57.75,6.53,6.53,0,0,1,1.43,1" transform="translate(-62.5 -50.45)"/><path class="cls-14" d="M97.51,88.23v.37c0,.15-.08.3-.08.53A6,6,0,0,1,97,90.4c-.07.08-.07.23-.15.38s-.22.52-.3.82a.25.25,0,0,1-.07.15c-.9,2.25-1.88,4.88-2.93,6.9a8.81,8.81,0,0,1-2.17,3c-.08.08-.15.08-.3.15l.3-.3-.83-.52-.3-.53h.08a.24.24,0,0,0,0-.3c-.23-.15-4.8-4.27-9.3-5.55-1.8-1.42-5.48-4-9-4.8a.27.27,0,0,0-.23.08l.6-1.43,5.18-12,8.85,5.18,10.12,5.85.68.37a.17.17,0,0,1,.15.15c.15.08.15.15.15.23" transform="translate(-62.5 -50.45)"/><polygon class="cls-21" points="19.86 45.81 14.23 42.58 14.38 42.43 14.61 42.21 17.38 43.86 18.2 44.38 18.2 44.38 19.41 45.06 19.48 45.21 19.63 45.43 19.86 45.81"/><polygon class="cls-21" points="28.03 50.38 27.73 50.16 22.48 47.16 22.86 46.86 26.45 48.96 27.66 49.71 27.73 49.86 28.03 50.38"/><path class="cls-21" d="M82.13,95.73h0a.23.23,0,0,1-.15.07c-.07,0-.07,0-.15-.07a10.5,10.5,0,0,0-1-.9h0c-.22-.15-.45-.38-.75-.6a23,23,0,0,0-7.87-4.13c-.08,0-.23-.07-.3-.07s-.15-.15-.15-.23v-.07s0-.08.07-.08a.3.3,0,0,1,.23-.07c3.52.67,7.2,3.37,9,4.8.37.3.67.6.9.75s.22.15.22.22a.33.33,0,0,1,0,.38" transform="translate(-62.5 -50.45)"/><path class="cls-21" d="M90.31,100.3h0a.24.24,0,0,1-.15.08c-.08,0-.08,0-.15-.08s-.38-.37-1.05-.9a28.34,28.34,0,0,0-7-4.2c-.38-.15-.75-.22-1.13-.37h0a2,2,0,0,0-.67-.15c-.15,0-.23-.15-.15-.23a.07.07,0,0,1,.07-.07l.08-.08h.15l.82.23c4.58,1.27,9.08,5.32,9.3,5.55a.37.37,0,0,1-.07.22" transform="translate(-62.5 -50.45)"/></svg>