<?xml version="1.0" encoding="UTF-8"?>
<!DOCTYPE svg PUBLIC "-//W3C//DTD SVG 1.1//EN" "http://www.w3.org/Graphics/SVG/1.1/DTD/svg11.dtd">
<!-- Creator: CorelDRAW X7 -->
<svg xmlns="http://www.w3.org/2000/svg" xml:space="preserve" width="149.364mm" height="38.7754mm" version="1.1" style="shape-rendering:geometricPrecision; text-rendering:geometricPrecision; image-rendering:optimizeQuality; fill-rule:evenodd; clip-rule:evenodd"
viewBox="0 0 14936 3878"
 xmlns:xlink="http://www.w3.org/1999/xlink">
 <defs>
  <style type="text/css">
   <![CDATA[
    .fil5 {fill:#848688;fill-rule:nonzero}
    .fil3 {fill:#00B4EB;fill-rule:nonzero}
    .fil2 {fill:#2F5383;fill-rule:nonzero}
    .fil0 {fill:#E6C414;fill-rule:nonzero}
    .fil4 {fill:url(#id0)}
    .fil1 {fill:url(#id1)}
   ]]>
  </style>
  <linearGradient id="id0" gradientUnits="userSpaceOnUse" x1="-0" y1="1005.3" x2="3048.01" y2="1005.3">
   <stop offset="0" style="stop-opacity:1; stop-color:#2F5383"/>
   <stop offset="0.160784" style="stop-opacity:1; stop-color:#1883B7"/>
   <stop offset="0.980392" style="stop-opacity:1; stop-color:#00B4EB"/>
   <stop offset="1" style="stop-opacity:1; stop-color:#00B4EB"/>
  </linearGradient>
  <linearGradient id="id1" gradientUnits="userSpaceOnUse" x1="664.4" y1="729.31" x2="1991.34" y2="2439.6">
   <stop offset="0" style="stop-opacity:1; stop-color:#2F5383"/>
   <stop offset="0.160784" style="stop-opacity:1; stop-color:#1883B7"/>
   <stop offset="1" style="stop-opacity:1; stop-color:#00B4EB"/>
  </linearGradient>
 </defs>
 <g id="Capa_x0020_1">
  <metadata id="CorelCorpID_0Corel-Layer"/>
  <g id="_2689282526224">
   <path class="fil0" d="M3789 0l-524 0c2,29 3,59 3,88 0,152 -26,300 -76,440l531 0c54,-172 76,-351 66,-528z"/>
   <path class="fil1" d="M121 1993c-1,4 -1,8 -1,13l0 0c40,84 92,161 154,229l0 0c108,119 242,210 405,274l0 0c163,63 346,95 548,95l0 0c191,0 381,-19 570,-59l0 0c188,-39 374,-103 557,-191l0 0 182 -1297 -1016 0 -68 468 466 0 -59 423c-56,28 -132,58 -227,85l0 0c-97,28 -206,42 -331,42l0 0c-123,0 -230,-20 -322,-62l0 0c-94,-41 -171,-100 -230,-174l0 0c-60,-75 -102,-163 -127,-264l0 0c-21,-90 -26,-187 -15,-292l0 0c41,-364 336,-627 727,-718 -560,111 -1129,517 -1213,1428l0 0z"/>
   <path class="fil2" d="M5472 685l-457 0 -61 438 -293 0 -51 366 292 0 -100 703c-11,82 -6,151 14,208 18,57 50,103 94,139 44,35 97,61 160,77 63,16 133,24 210,24 53,0 107,-3 163,-9 56,-6 110,-18 163,-36l52 -381c-22,18 -54,30 -93,35 -39,5 -72,8 -96,8 -49,0 -87,-7 -114,-21 -28,-12 -47,-32 -58,-56 -12,-24 -17,-53 -17,-86 0,-34 3,-71 9,-112l70 -493 403 0 51 -366 -402 0 61 -438z"/>
   <path class="fil2" d="M7017 1090c-27,-2 -53,-3 -79,-3 -102,0 -189,22 -262,68 -74,46 -141,114 -202,206l-6 0 34 -238 -457 0 -208 1481 458 0 85 -619c10,-73 24,-139 41,-201 17,-61 42,-113 75,-156 32,-45 76,-78 131,-103 55,-24 125,-36 213,-36 35,0 67,2 98,7 30,6 61,13 94,23l58 -417c-23,-6 -47,-10 -73,-12z"/>
   <path class="fil2" d="M8083 2052c-6,47 -21,88 -45,122 -25,35 -55,63 -91,86 -35,22 -75,39 -118,52 -44,12 -88,18 -133,18 -24,0 -49,-3 -74,-9 -26,-6 -48,-17 -66,-31 -18,-14 -33,-31 -43,-50 -10,-20 -13,-43 -9,-72 6,-51 28,-90 66,-119 37,-28 81,-49 131,-64 50,-14 100,-23 152,-26 52,-3 95,-4 129,-4l113 0 -12 97zm390 -768c-43,-64 -105,-113 -187,-147 -83,-34 -191,-50 -325,-50 -122,0 -242,19 -361,59 -119,40 -226,99 -322,178l208 250c57,-55 118,-98 184,-129 66,-32 137,-47 212,-47 79,0 144,23 195,71 51,48 71,112 61,193 -96,0 -202,3 -318,10 -117,6 -229,25 -336,59 -106,33 -199,85 -277,155 -78,70 -126,170 -145,297 -10,75 -4,142 16,198 20,57 52,105 96,144 43,38 95,67 156,86 62,20 126,29 195,29 94,0 185,-17 275,-51 89,-35 164,-92 225,-171l6 0 -24 186 420 0 104 -752c18,-125 24,-234 17,-329 -8,-94 -32,-173 -75,-239z"/>
   <path class="fil2" d="M9362 1593c74,-70 168,-104 284,-104 47,0 89,10 126,31 38,22 66,49 84,82l345 -317c-61,-74 -138,-125 -230,-154 -93,-30 -183,-45 -270,-45 -114,0 -224,19 -329,56 -106,36 -200,89 -284,156 -83,68 -152,150 -208,246 -56,95 -92,202 -108,320 -17,117 -10,224 20,319 29,96 75,178 139,245 65,69 144,121 240,158 95,36 200,54 314,54 87,0 180,-14 280,-44 99,-29 190,-80 274,-154l-256 -316c-30,30 -66,57 -107,79 -40,22 -86,33 -137,33 -115,0 -200,-34 -254,-103 -54,-69 -73,-160 -56,-271 16,-112 61,-202 133,-271z"/>
   <path class="fil2" d="M13075 1696l-603 0c8,-37 22,-72 43,-105 20,-34 45,-63 75,-89 31,-25 66,-46 107,-62 41,-16 86,-24 137,-24 84,0 147,27 192,82 45,55 61,121 49,198zm326 -398c-51,-67 -117,-120 -198,-156 -81,-37 -174,-55 -281,-55 -113,0 -223,18 -329,55 -105,36 -199,89 -283,156 -83,68 -152,150 -208,245 -56,96 -92,203 -108,321 -17,117 -10,224 19,319 30,96 76,178 140,245 64,69 144,121 239,158 96,36 201,54 315,54 119,0 239,-25 357,-76 119,-50 221,-123 307,-216l-287 -235c-46,53 -98,96 -154,130 -56,34 -121,50 -196,50 -90,0 -161,-26 -215,-78 -54,-51 -84,-121 -90,-209l1060 0 22 -142c16,-118 14,-225 -5,-321 -19,-95 -54,-177 -105,-245z"/>
   <path class="fil2" d="M14864 1090c-27,-2 -54,-3 -80,-3 -101,0 -189,22 -262,68 -73,46 -140,114 -201,206l-6 0 34 -238 -457 0 -208 1481 458 0 85 -619c10,-73 23,-140 41,-201 17,-61 42,-113 75,-156 32,-45 76,-78 130,-103 55,-24 126,-36 214,-36 34,0 67,2 97,7 31,6 62,13 95,23l57 -417c-22,-6 -46,-11 -72,-12z"/>
   <polygon class="fil2" points="11411,1123 10823,1708 10985,559 10528,559 10241,2604 10698,2604 10802,1855 10808,1855 11204,2604 11780,2604 11289,1790 11972,1123 "/>
   <path class="fil3" d="M3672 1057l-572 0 -216 1541 1293 0c62,-171 97,-349 105,-529l-752 0 142 -1012z"/>
   <path class="fil3" d="M4416 0l-406 0c1,29 2,59 2,88 0,151 -20,298 -60,440l399 0c54,-172 76,-351 65,-528z"/>
   <path class="fil4" d="M3045 0l-587 0c-333,0 -707,1 -908,3l0 0c-648,0 -1474,368 -1550,1478l0 0c2,178 32,350 119,529l0 0c0,-1 0,-2 1,-4l0 0c0,-5 0,-9 1,-13l0 0c84,-911 653,-1317 1213,-1428l0 0c113,-23 226,-33 335,-33l0 0c137,-3 704,-3 1289,-4l0 0c71,-169 100,-349 87,-528z"/>
   <path class="fil5" d="M562 3434l0 231c-30,22 -62,38 -97,49 -34,11 -72,16 -113,16 -48,0 -92,-7 -131,-22 -39,-15 -72,-36 -100,-63 -28,-27 -49,-60 -64,-98 -15,-38 -22,-79 -22,-125 0,-46 7,-88 21,-126 15,-38 35,-70 62,-97 27,-27 59,-48 97,-63 39,-15 81,-22 128,-22 24,0 47,1 67,5 20,3 39,8 57,15 17,7 33,15 48,24 15,9 29,20 42,32l-23 37c-4,5 -9,9 -14,11 -6,1 -12,0 -20,-5 -6,-3 -14,-8 -23,-14 -8,-5 -19,-11 -31,-16 -13,-5 -28,-10 -45,-13 -17,-4 -37,-6 -60,-6 -34,0 -65,6 -92,17 -28,11 -51,27 -71,48 -19,20 -34,45 -44,74 -11,30 -16,63 -16,99 0,38 6,72 16,102 11,30 27,55 47,76 20,21 44,37 73,48 28,11 61,16 96,16 28,0 53,-3 75,-9 22,-6 43,-15 64,-26l0 -133 -94 0c-5,0 -10,-2 -13,-5 -3,-3 -5,-7 -5,-11l0 -46 185 0z"/>
   <path class="fil5" d="M1076 3433c24,0 44,-3 62,-9 18,-6 33,-15 45,-26 12,-11 21,-24 28,-40 6,-15 9,-32 9,-51 0,-38 -12,-68 -36,-90 -23,-22 -59,-32 -108,-32l-97 0 0 248 97 0zm0 -313c38,0 72,5 100,13 28,9 51,22 70,38 19,17 32,36 42,59 8,23 13,49 13,77 0,28 -5,54 -15,77 -9,24 -24,44 -43,61 -19,16 -42,29 -70,39 -28,9 -60,14 -97,14l-97 0 0 226 -81 0 0 -604 178 0z"/>
   <path class="fil5" d="M1920 3215c-2,4 -5,7 -8,9 -3,2 -7,3 -11,3 -5,0 -10,-2 -17,-7 -6,-5 -14,-10 -24,-16 -10,-5 -21,-11 -35,-16 -14,-4 -30,-7 -50,-7 -18,0 -34,3 -48,8 -14,5 -25,11 -35,20 -9,8 -16,18 -21,29 -5,12 -7,24 -7,37 0,17 4,31 12,42 9,11 19,21 33,29 14,7 29,14 47,20 17,6 35,12 53,18 18,6 35,13 53,21 17,7 32,17 46,29 14,12 25,26 33,43 8,18 12,39 12,64 0,26 -4,51 -13,74 -9,23 -22,43 -40,60 -17,17 -38,31 -63,41 -25,10 -54,14 -86,14 -39,0 -75,-7 -107,-21 -32,-14 -59,-33 -82,-57l23 -39c3,-3 6,-6 9,-8 3,-2 7,-3 10,-3 4,0 8,1 13,5 4,2 10,6 16,11 6,4 12,9 20,14 7,6 16,11 26,15 10,5 20,8 33,11 12,3 26,5 42,5 19,0 36,-3 51,-8 16,-6 28,-13 39,-23 11,-9 18,-21 24,-35 6,-13 8,-28 8,-45 0,-18 -4,-33 -12,-44 -8,-12 -19,-22 -32,-30 -14,-8 -29,-14 -47,-20 -17,-5 -35,-11 -53,-17 -18,-5 -36,-12 -53,-20 -17,-7 -33,-17 -46,-29 -14,-12 -25,-27 -33,-45 -8,-18 -12,-41 -12,-68 0,-21 4,-41 12,-62 8,-19 20,-37 36,-53 16,-15 36,-27 59,-37 23,-9 50,-14 80,-14 33,0 64,6 92,16 27,11 52,27 73,47l-20 39z"/>
   <path class="fil5" d="M3055 3297l-238 553c-2,5 -5,10 -9,13 -4,4 -10,5 -18,5l-55 0 78 -169 -176 -402 65 0c6,0 11,2 15,5 4,3 6,7 8,11l114 268c4,12 8,25 11,38 4,-14 8,-26 13,-38l111 -268c1,-5 4,-9 8,-11 4,-3 9,-5 14,-5l59 0z"/>
   <path class="fil5" d="M4085 3215c-3,4 -6,7 -8,9 -3,2 -7,3 -11,3 -5,0 -11,-2 -17,-7 -7,-5 -15,-10 -24,-16 -10,-5 -22,-11 -35,-16 -14,-4 -30,-7 -50,-7 -18,0 -34,3 -48,8 -14,5 -26,11 -35,20 -9,8 -17,18 -21,29 -5,12 -7,24 -7,37 0,17 4,31 12,42 8,11 19,21 33,29 13,7 29,14 46,20 17,6 35,12 53,18 18,6 36,13 53,21 18,7 33,17 47,29 13,12 24,26 33,43 8,18 12,39 12,64 0,26 -4,51 -14,74 -9,23 -22,43 -39,60 -17,17 -38,31 -63,41 -26,10 -54,14 -86,14 -40,0 -75,-7 -107,-21 -32,-14 -60,-33 -82,-57l23 -39c2,-3 5,-6 9,-8 3,-2 6,-3 10,-3 4,0 8,1 13,5 4,2 9,6 15,11 6,4 13,9 21,14 7,6 16,11 25,15 10,5 21,8 34,11 12,3 26,5 41,5 20,0 37,-3 52,-8 15,-6 28,-13 39,-23 10,-9 18,-21 24,-35 6,-13 8,-28 8,-45 0,-18 -4,-33 -12,-44 -8,-12 -19,-22 -33,-30 -13,-8 -29,-14 -46,-20 -17,-5 -35,-11 -53,-17 -18,-5 -36,-12 -53,-20 -18,-7 -33,-17 -47,-29 -13,-12 -24,-27 -32,-45 -8,-18 -13,-41 -13,-68 0,-21 5,-41 13,-62 8,-19 20,-37 36,-53 16,-15 35,-27 59,-37 23,-9 49,-14 79,-14 34,0 65,6 92,16 28,11 52,27 73,47l-19 39z"/>
   <path class="fil5" d="M4709 3464c0,-18 -2,-33 -7,-48 -5,-14 -12,-27 -22,-37 -9,-11 -20,-19 -34,-25 -13,-6 -29,-8 -46,-8 -36,0 -64,10 -85,31 -21,21 -34,50 -39,87l233 0zm61 200c-9,11 -20,21 -33,29 -13,9 -27,15 -42,21 -15,5 -30,9 -45,12 -16,2 -32,4 -47,4 -30,0 -57,-5 -82,-15 -25,-10 -46,-25 -64,-44 -18,-19 -32,-43 -42,-71 -11,-29 -16,-61 -16,-98 0,-30 5,-58 14,-84 9,-25 22,-48 40,-67 17,-19 37,-34 62,-44 25,-11 53,-17 84,-17 25,0 49,5 70,13 22,9 41,21 57,37 16,16 28,36 37,60 9,24 14,51 14,81 0,12 -2,20 -4,24 -2,4 -7,6 -14,6l-286 0c1,27 5,50 12,70 6,20 15,37 27,50 12,13 26,23 42,30 17,6 35,10 55,10 19,0 35,-2 49,-7 13,-4 25,-9 35,-14 10,-5 18,-10 24,-14 7,-4 13,-7 18,-7 6,0 11,3 14,8l21 27z"/>
   <path class="fil5" d="M5220 3515c15,0 29,-2 40,-6 12,-4 21,-10 29,-18 8,-7 14,-16 18,-27 4,-10 6,-22 6,-35 0,-26 -8,-47 -24,-62 -16,-15 -39,-23 -69,-23 -30,0 -53,8 -69,23 -16,15 -24,36 -24,62 0,13 2,25 6,35 4,11 10,20 18,27 8,8 18,14 29,18 12,4 25,6 40,6zm135 232c0,-10 -3,-19 -8,-25 -6,-7 -14,-12 -24,-16 -10,-3 -22,-6 -35,-7 -13,-2 -27,-3 -42,-4 -15,-1 -30,-2 -45,-2 -15,-1 -30,-3 -44,-5 -15,8 -28,17 -38,28 -10,11 -15,24 -15,39 0,9 2,18 7,27 5,8 13,15 23,21 10,6 23,11 38,14 15,4 33,6 54,6 20,0 38,-2 54,-6 16,-3 30,-9 41,-15 11,-7 20,-15 26,-24 5,-10 8,-20 8,-31zm76 -433l0 28c0,9 -5,15 -17,17l-49 7c10,18 15,39 15,61 0,21 -4,40 -12,57 -8,17 -19,32 -33,43 -14,13 -31,22 -51,28 -20,7 -41,10 -64,10 -20,0 -39,-2 -56,-7 -9,5 -16,11 -21,18 -5,6 -7,12 -7,19 0,10 4,18 12,23 9,5 20,9 33,11 13,2 29,4 46,4 17,1 35,2 53,3 18,1 36,3 53,6 17,4 33,9 46,16 14,7 25,16 33,29 8,12 12,28 12,48 0,18 -4,36 -13,53 -9,17 -23,32 -40,45 -17,14 -38,24 -63,33 -24,8 -52,12 -84,12 -31,0 -58,-4 -81,-10 -24,-6 -43,-14 -58,-25 -16,-10 -28,-22 -35,-36 -8,-13 -12,-28 -12,-42 0,-22 7,-39 20,-54 13,-14 31,-26 54,-35 -12,-5 -22,-13 -30,-22 -7,-10 -11,-23 -11,-39 0,-6 1,-12 3,-19 3,-6 6,-13 11,-19 4,-7 10,-13 17,-19 7,-6 14,-11 23,-16 -21,-11 -37,-27 -49,-47 -12,-19 -18,-42 -18,-68 0,-20 4,-39 12,-56 8,-17 20,-32 34,-44 14,-12 31,-21 51,-27 20,-7 42,-10 65,-10 19,0 36,2 52,6 16,4 31,10 44,18l115 0z"/>
   <path class="fil5" d="M6066 3297l0 427 -44 0c-11,0 -17,-5 -20,-16l-6 -46c-19,21 -40,37 -63,50 -23,12 -49,19 -79,19 -23,0 -44,-4 -61,-12 -18,-8 -33,-19 -45,-33 -13,-14 -21,-31 -28,-51 -6,-20 -8,-42 -8,-66l0 -272 75 0 0 272c0,32 7,57 21,75 15,18 38,27 68,27 22,0 43,-6 62,-16 19,-11 37,-25 53,-44l0 -314 75 0z"/>
   <path class="fil5" d="M6460 3383c14,-30 30,-52 50,-69 20,-16 44,-24 72,-24 9,0 18,1 26,2 8,2 16,6 22,10l-6 56c-1,7 -5,10 -12,10 -4,0 -10,-1 -17,-2 -8,-2 -16,-3 -26,-3 -14,0 -26,2 -36,6 -11,4 -20,10 -28,18 -8,7 -16,17 -23,28 -6,12 -12,25 -17,39l0 270 -76 0 0 -427 43 0c8,0 14,2 17,5 3,3 5,8 6,16l5 65z"/>
   <path class="fil5" d="M6983 3724l-75 0 0 -427 75 0 0 427zm16 -561c0,8 -2,14 -5,21 -2,6 -7,12 -11,16 -5,5 -11,9 -18,12 -6,3 -13,4 -21,4 -7,0 -14,-1 -20,-4 -6,-3 -12,-7 -17,-12 -4,-4 -8,-10 -11,-16 -3,-7 -4,-13 -4,-21 0,-7 1,-14 4,-21 3,-6 7,-12 11,-17 5,-5 11,-9 17,-12 6,-2 13,-4 20,-4 8,0 15,2 21,4 7,3 13,7 18,12 4,5 9,11 11,17 3,7 5,14 5,21z"/>
   <path class="fil5" d="M7586 3399c-14,-19 -29,-32 -45,-40 -16,-7 -35,-11 -55,-11 -39,0 -70,14 -91,43 -22,28 -32,68 -32,121 0,28 2,51 7,71 5,20 12,36 21,49 9,13 21,22 34,28 13,6 29,9 46,9 25,0 46,-6 65,-17 18,-11 35,-27 50,-47l0 -206zm75 -296l0 621 -44 0c-11,0 -18,-5 -21,-16l-6 -52c-19,22 -39,40 -63,53 -23,14 -50,21 -80,21 -25,0 -47,-5 -67,-14 -20,-10 -37,-24 -51,-42 -14,-18 -25,-41 -32,-68 -8,-27 -12,-59 -12,-94 0,-32 4,-61 13,-88 8,-27 20,-51 36,-70 16,-20 35,-36 58,-47 23,-12 49,-17 77,-17 26,0 49,4 67,13 19,9 36,21 50,37l0 -237 75 0z"/>
   <path class="fil5" d="M8216 3532c-35,1 -64,4 -88,8 -25,4 -44,10 -60,17 -15,7 -26,15 -33,25 -7,9 -10,20 -10,32 0,11 1,21 5,29 4,8 9,15 15,20 6,5 14,9 22,11 9,3 18,4 28,4 13,0 25,-1 36,-4 11,-3 21,-7 31,-12 10,-5 19,-11 28,-18 9,-7 18,-15 26,-24l0 -88zm-242 -175c23,-22 49,-39 76,-51 27,-11 57,-16 90,-16 24,0 46,3 64,11 19,8 34,19 47,33 12,14 22,31 28,51 7,20 10,42 10,66l0 273 -33 0c-7,0 -13,-2 -17,-4 -4,-2 -7,-7 -9,-14l-9 -40c-11,10 -22,19 -33,27 -10,8 -22,15 -33,20 -12,6 -25,10 -38,13 -13,3 -28,4 -44,4 -17,0 -33,-2 -47,-6 -15,-5 -27,-12 -38,-21 -11,-10 -20,-21 -26,-35 -6,-15 -10,-31 -10,-51 0,-17 5,-33 15,-49 9,-15 24,-29 45,-41 20,-12 47,-22 81,-30 33,-7 74,-12 123,-13l0 -33c0,-33 -7,-58 -22,-75 -14,-17 -35,-26 -63,-26 -18,0 -33,3 -46,7 -12,5 -23,10 -32,16 -9,6 -17,11 -24,15 -7,5 -13,7 -20,7 -5,0 -9,-1 -13,-4 -3,-2 -6,-6 -9,-10l-13 -24z"/>
   <path class="fil5" d="M8889 3399c-14,-19 -29,-32 -45,-40 -17,-7 -35,-11 -55,-11 -40,0 -70,14 -92,43 -21,28 -32,68 -32,121 0,28 3,51 8,71 4,20 11,36 21,49 9,13 20,22 34,28 13,6 29,9 46,9 24,0 46,-6 64,-17 19,-11 36,-27 51,-47l0 -206zm75 -296l0 621 -45 0c-10,0 -17,-5 -20,-16l-6 -52c-19,22 -39,40 -63,53 -23,14 -50,21 -81,21 -24,0 -46,-5 -66,-14 -20,-10 -37,-24 -51,-42 -14,-18 -25,-41 -33,-68 -7,-27 -11,-59 -11,-94 0,-32 4,-61 13,-88 8,-27 20,-51 36,-70 16,-20 35,-36 58,-47 23,-12 48,-17 77,-17 26,0 49,4 67,13 19,9 35,21 50,37l0 -237 75 0z"/>
   <path class="fil5" d="M10228 3120l-246 604 -73 0 -246 -604 65 0c7,0 13,2 18,6 4,3 8,8 10,14l170 425c4,10 7,20 11,31 3,12 7,24 9,36 3,-12 6,-24 9,-36 3,-11 7,-21 10,-31l170 -425c2,-5 5,-10 10,-14 5,-4 11,-6 18,-6l65 0z"/>
   <path class="fil5" d="M10738 3464c0,-18 -2,-33 -7,-48 -5,-14 -12,-27 -22,-37 -9,-11 -21,-19 -34,-25 -13,-6 -29,-8 -46,-8 -36,0 -64,10 -85,31 -21,21 -34,50 -39,87l233 0zm61 200c-9,11 -21,21 -33,29 -13,9 -27,15 -42,21 -15,5 -30,9 -46,12 -15,2 -31,4 -46,4 -30,0 -57,-5 -82,-15 -25,-10 -46,-25 -64,-44 -18,-19 -32,-43 -43,-71 -10,-29 -15,-61 -15,-98 0,-30 5,-58 14,-84 9,-25 22,-48 39,-67 18,-19 38,-34 63,-44 25,-11 53,-17 84,-17 25,0 49,5 70,13 22,9 41,21 57,37 16,16 28,36 37,60 9,24 14,51 14,81 0,12 -2,20 -4,24 -3,4 -7,6 -14,6l-286 0c1,27 5,50 12,70 6,20 15,37 27,50 12,13 26,23 42,30 16,6 35,10 55,10 19,0 35,-2 49,-7 13,-4 25,-9 35,-14 10,-5 18,-10 24,-14 7,-4 13,-7 17,-7 7,0 11,3 15,8l21 27z"/>
   <path class="fil5" d="M11179 3354c19,-19 39,-35 61,-46 22,-12 48,-18 77,-18 23,0 44,4 61,12 18,8 33,19 45,33 12,14 21,31 27,51 6,20 9,42 9,66l0 272 -75 0 0 -272c0,-32 -7,-57 -22,-75 -15,-18 -37,-27 -67,-27 -22,0 -43,6 -62,16 -20,11 -37,25 -54,44l0 314 -75 0 0 -621 75 0 0 251z"/>
   <path class="fil5" d="M11856 3724l-75 0 0 -427 75 0 0 427zm16 -561c0,8 -2,14 -5,21 -3,6 -7,12 -12,16 -5,5 -10,9 -17,12 -7,3 -14,4 -21,4 -7,0 -14,-1 -20,-4 -7,-3 -12,-7 -17,-12 -5,-4 -8,-10 -11,-16 -3,-7 -4,-13 -4,-21 0,-7 1,-14 4,-21 3,-6 6,-12 11,-17 5,-5 10,-9 17,-12 6,-2 13,-4 20,-4 7,0 14,2 21,4 7,3 12,7 17,12 5,5 9,11 12,17 3,7 5,14 5,21z"/>
   <path class="fil5" d="M12478 3373c-2,3 -4,5 -6,7 -3,2 -6,3 -10,3 -4,0 -8,-2 -14,-6 -5,-3 -11,-7 -18,-11 -8,-4 -17,-8 -28,-12 -10,-3 -24,-5 -39,-5 -22,0 -40,4 -56,11 -16,7 -29,18 -40,32 -11,14 -19,31 -25,51 -5,20 -8,42 -8,67 0,26 3,49 9,69 6,20 14,37 25,51 11,13 24,24 39,31 15,7 33,11 52,11 18,0 33,-3 45,-7 12,-4 21,-9 29,-15 8,-5 14,-10 19,-14 6,-4 11,-7 16,-7 6,0 11,3 14,8l21 27c-9,11 -20,21 -31,30 -12,8 -25,14 -39,20 -13,5 -27,9 -42,12 -15,2 -30,4 -46,4 -26,0 -51,-5 -74,-15 -23,-10 -43,-24 -60,-43 -17,-19 -30,-41 -39,-69 -10,-27 -15,-58 -15,-93 0,-31 5,-61 14,-88 8,-27 21,-50 38,-70 17,-19 38,-34 63,-45 25,-11 54,-17 86,-17 30,0 56,5 79,15 23,10 43,23 61,41l-20 27z"/>
   <path class="fil5" d="M13137 3297l0 427 -45 0c-11,0 -18,-5 -20,-16l-6 -46c-19,21 -40,37 -63,50 -23,12 -49,19 -79,19 -23,0 -44,-4 -62,-12 -17,-8 -32,-19 -44,-33 -12,-14 -21,-31 -28,-51 -6,-20 -9,-42 -9,-66l0 -272 76 0 0 272c0,32 7,57 21,75 15,18 38,27 68,27 22,0 43,-6 62,-16 19,-11 37,-25 54,-44l0 -314 75 0z"/>
   <polygon class="fil5" points="13535,3724 13460,3724 13460,3103 13535,3103 "/>
   <path class="fil5" d="M14091 3532c-35,1 -64,4 -88,8 -25,4 -44,10 -60,17 -15,7 -26,15 -33,25 -7,9 -10,20 -10,32 0,11 1,21 5,29 4,8 9,15 15,20 6,5 14,9 22,11 9,3 18,4 28,4 13,0 25,-1 36,-4 11,-3 21,-7 31,-12 10,-5 19,-11 28,-18 9,-7 17,-15 26,-24l0 -88zm-242 -175c23,-22 49,-39 76,-51 27,-11 57,-16 90,-16 24,0 46,3 64,11 19,8 34,19 47,33 12,14 22,31 28,51 7,20 10,42 10,66l0 273 -33 0c-7,0 -13,-2 -17,-4 -4,-2 -7,-7 -9,-14l-9 -40c-11,10 -22,19 -33,27 -10,8 -22,15 -33,20 -12,6 -25,10 -38,13 -13,3 -28,4 -44,4 -17,0 -32,-2 -47,-6 -15,-5 -27,-12 -38,-21 -11,-10 -20,-21 -26,-35 -6,-15 -9,-31 -9,-51 0,-17 4,-33 14,-49 9,-15 24,-29 45,-41 20,-12 47,-22 81,-30 33,-7 74,-12 123,-13l0 -33c0,-33 -7,-58 -22,-75 -14,-17 -35,-26 -62,-26 -19,0 -34,3 -47,7 -12,5 -23,10 -32,16 -9,6 -17,11 -24,15 -7,5 -13,7 -20,7 -5,0 -9,-1 -13,-4 -3,-2 -6,-6 -9,-10l-13 -24z"/>
   <path class="fil5" d="M14555 3383c13,-30 30,-52 49,-69 20,-16 44,-24 72,-24 9,0 18,1 26,2 8,2 16,6 22,10l-5 56c-2,7 -6,10 -13,10 -4,0 -9,-1 -17,-2 -8,-2 -16,-3 -26,-3 -13,0 -25,2 -36,6 -10,4 -20,10 -28,18 -8,7 -16,17 -22,28 -7,12 -13,25 -18,39l0 270 -75 0 0 -427 42 0c8,0 14,2 17,5 3,3 6,8 7,16l5 65z"/>
  </g>
 </g>
</svg>
