<svg id="Capa_1" data-name="Capa 1" data-type="trailer.svg" xmlns="http://www.w3.org/2000/svg" viewBox="0 0 128.39 109.01"><defs><style>.cls-1{fill:#424242;}.cls-2{fill:red;}.cls-3{fill:#3d3d3d;}.cls-4{fill:#525252;}.cls-5{fill:#504e51;}.cls-6{fill:#616161;}.cls-7{fill:#606060;}.body{fill:#c4c2c1;}.cls-10{fill:#87e5ff;}.cls-11{fill:#fff3e0;}.cls-12{fill:#303030;}.cls-13{fill:#2e2e2e;}.cls-14{fill:#b5b5b5;}</style></defs><polygon class="cls-1" points="70.99 73.74 65.53 76.9 65.52 76.9 64.58 76.35 64.58 75.44 69.26 72.73 70.99 73.74"/><polygon class="cls-1" points="41.46 90.79 41.42 90.82 41.24 90.92 41.24 90.67 41.46 90.79"/><polygon class="cls-2" points="127.33 43.94 128.37 43.33 127.27 42.69 127.27 43.98 127.33 43.94"/><polygon class="cls-2" points="127.27 43.98 127.28 47.77 127.28 47.77 127.28 47.77 128.39 47.13 128.38 43.34 127.33 43.94 127.27 43.98 127.27 43.98"/><path class="cls-1" d="M140.19,72.14l-2.54,1.46-.19.11a2.48,2.48,0,0,0-.74-.46.31.31,0,0,1,.12,0,.8.8,0,0,1,.16.08l-3.63-2.11.77-.44,1.9-1.1Z" transform="translate(-14.22 -27.34)"/><polygon class="cls-1" points="125.97 44.8 125.97 44.8 125.97 44.8 125.97 44.8"/><path d="M119,90.63c-.06-.07-.12-.13-.17-.2a1.71,1.71,0,0,1-.14-.27h0l0-.08a.08.08,0,0,1,0,0,1.08,1.08,0,0,1-.08-.19l0-.08a.75.75,0,0,1,0-.16.94.94,0,0,1,0-.16.52.52,0,0,1,0-.11.29.29,0,0,1,0-.09l0-.18,0-.26c0-.11,0-.22,0-.34h0l-1.69,1,2.87,1.66a2,2,0,0,1-.42-.34Z" transform="translate(-14.22 -27.34)"/><path class="cls-1" d="M136.47,73.15a4.15,4.15,0,0,0-3.27.6A11.27,11.27,0,0,0,129,78.63l-1.31.75-.87.5a2.66,2.66,0,0,0-1.87-.7,4.84,4.84,0,0,0-2.4.73,11.36,11.36,0,0,0-4.25,4.89l-3.09,1.79-.76.44-.43.24-.28.17-.23.12h0l-6,3.44V86.22l1.84-1.06.5-.29,1.19-.69.81-.47h0l1-.57,4.71-2.72h0l1-.56.77-.45,0,0h0L120,79l1-.58,1.48-.87h0l1-.57,4.71-2.72,1-.57.78-.45,0,0,1.14-.66,0,0,.5-.29,1.13-.66.48-.28h0l1.65,1,.75.44.16.1.12.07.16.09Z" transform="translate(-14.22 -27.34)"/><polygon class="cls-1" points="72.31 73.83 72.31 72.98 71.58 73.41 71.57 73.41 69.84 72.4 71.28 71.57 72.31 72.17 75.75 70.18 75.76 75.84 72.31 73.83"/><polygon class="cls-3" points="75.75 70.18 72.31 72.17 72.3 70.98 74.72 69.58 75.74 68.99 75.75 70.18"/><polygon class="cls-3" points="72.31 72.17 71.28 71.57 72.3 70.98 72.31 72.17"/><path d="M74.31,116.46l0,0a.4.4,0,0,1-.1-.12L74,116.1,74,116l0-.06s0,0,0,0a2.12,2.12,0,0,1-.14-.31l-.06-.26a.75.75,0,0,1,0-.16,4,4,0,0,1-.11-.8l-1.56.9,2.63,1.52,0,0a1.71,1.71,0,0,1-.2-.18A.46.46,0,0,0,74.31,116.46Z" transform="translate(-14.22 -27.34)"/><polygon points="58.15 87.52 58.15 87.52 58.15 87.52 58.15 87.52 58.15 87.52"/><path d="M63.62,122.64h0s0,0,0,0,0,0,0,0l-.16-.21a.7.7,0,0,1-.08-.14.31.31,0,0,1-.05-.1l0,0v0a1.26,1.26,0,0,1-.12-.29.85.85,0,0,1-.06-.17,1.17,1.17,0,0,1,0-.2v0s0-.08,0-.13a1.35,1.35,0,0,0,0-.18s0-.1,0-.15a1.11,1.11,0,0,1,0-.19,1.48,1.48,0,0,1,0-.21l-1.56.9L64,122.93l-.14-.1c-.05,0-.1-.1-.15-.15Z" transform="translate(-14.22 -27.34)"/><polygon points="41.96 90.51 41.46 90.79 41.24 90.67 41.25 90.09 41.96 90.51"/><path d="M41.68,135.7l-2.57-1.48,1.57-.9a2.6,2.6,0,0,0,0,.4s0,.06,0,.09a1.87,1.87,0,0,0,0,.25,1.16,1.16,0,0,0,0,.18,2,2,0,0,0,.11.35,1.86,1.86,0,0,0,.1.25l0,.07a2,2,0,0,1,.11.2l.09.12a1.66,1.66,0,0,0,.16.21,2.5,2.5,0,0,0,.24.22Z" transform="translate(-14.22 -27.34)"/><path class="cls-4" d="M137,73.38a.8.8,0,0,0-.16-.08.31.31,0,0,0-.12,0l-.18-.08h0l-.06,0-.3-.18-.16-.09-.12-.07-.16-.1-.75-.44-1.65-1,0,0Z" transform="translate(-14.22 -27.34)"/><path class="cls-5" d="M122.51,81.27a6.62,6.62,0,0,0-.84.58,8.87,8.87,0,0,0-1.75,2,9.44,9.44,0,0,0-.83,1.49,1.17,1.17,0,0,0,0,.11c-.13.29-.23.59-.33.89a1,1,0,0,1,0,.16c-.08.3-.15.6-.2.9,0,0,0,.07,0,.1v.06a5.8,5.8,0,0,0-.08.91,4.65,4.65,0,0,0,.09.87.52.52,0,0,0,0,.11,2.91,2.91,0,0,0,.21.63l0,.08a2.36,2.36,0,0,0,.32.48l.09.12c.76.8,2,.89,3.41.08a9.15,9.15,0,0,0,4.15-7.18C126.67,81,124.8,80,122.51,81.27Zm0,7.51c-1.31.75-2.38.15-2.39-1.36a5.25,5.25,0,0,1,2.37-4.1c1.31-.76,2.38-.14,2.38,1.36A5.21,5.21,0,0,1,122.53,88.78Z" transform="translate(-14.22 -27.34)"/><path class="cls-5" d="M133.2,75.11a9.13,9.13,0,0,0-4.14,7.18,4.79,4.79,0,0,0,.08.88v.06a2.82,2.82,0,0,0,.21.62l0,.14a2.56,2.56,0,0,0,.35.53l0,0c.75.82,2,.92,3.43.1a9.16,9.16,0,0,0,4.14-7.18C137.37,74.85,135.5,73.78,133.2,75.11Zm0,7.51a2.21,2.21,0,0,1-.92.32h-.09a1.37,1.37,0,0,1-.29,0h0l-.16,0-.19-.08a2.43,2.43,0,0,1-.25-.2l0,0a1.56,1.56,0,0,1-.17-.25.61.61,0,0,1-.05-.12,1.6,1.6,0,0,1-.11-.33s0,0,0-.08a2.49,2.49,0,0,1,0-.49,5.2,5.2,0,0,1,2.37-4.1c1.31-.76,2.38-.15,2.38,1.36A5.19,5.19,0,0,1,133.22,82.62Z" transform="translate(-14.22 -27.34)"/><path class="cls-4" d="M77.43,105.8l-.19.12c.15-.1.3-.2.46-.29Z" transform="translate(-14.22 -27.34)"/><polygon class="cls-4" points="61.34 79.32 61.34 79.31 60.35 79.88 61.34 79.32"/><polygon class="cls-4" points="56.94 84.34 56.93 84.34 56.93 84.34 56.94 84.34"/><path class="cls-4" d="M71.13,111.65l0,0-.07,0,.09.07Z" transform="translate(-14.22 -27.34)"/><path class="cls-4" d="M71.53,112.05a0,0,0,0,1,0,0l0,0h0Z" transform="translate(-14.22 -27.34)"/><polygon class="cls-4" points="59.74 80.24 55.64 82.6 54.83 83.07 53.1 82.07 53.91 81.6 58.01 79.23 59.74 80.24"/><polygon class="cls-4" points="60.35 79.89 60.35 79.88 59.73 80.24 60.35 79.89"/><path class="cls-4" d="M72.31,114a.31.31,0,0,0,0-.1h0a.42.42,0,0,0,0-.12v0s0,.06,0,.09S72.31,113.94,72.31,114Z" transform="translate(-14.22 -27.34)"/><path class="cls-4" d="M72.25,113.65v0Z" transform="translate(-14.22 -27.34)"/><polygon class="cls-4" points="49.66 86.06 49.69 86.05 50.41 85.62 49.68 86.04 49.66 86.06"/><polygon class="cls-4" points="47.99 87.02 44.95 88.78 44.94 88.78 43.96 89.35 43.14 89.82 41.96 90.51 41.25 90.09 41.26 88.72 41.27 87.79 41.27 87.78 41.28 86.65 41.31 83.49 45.95 86.19 46.26 86.01 47.99 87.02"/><polygon class="cls-4" points="52.6 84.36 52.15 84.62 51.47 85.02 51.46 85.02 51.42 85.04 51.33 85.09 50.65 85.49 50.41 85.62 50.41 83.62 50.42 83.61 50.86 83.35 52.6 84.36"/><path class="cls-4" d="M80.79,105h0Z" transform="translate(-14.22 -27.34)"/><path class="cls-4" d="M79.56,105h-.1l.2,0Z" transform="translate(-14.22 -27.34)"/><path class="cls-4" d="M78.44,105.26l0,0-.11,0,.24-.1Z" transform="translate(-14.22 -27.34)"/><polygon class="cls-4" points="64.58 76.35 64.58 77.44 65.52 76.9 65.52 76.9 64.58 76.35"/><path class="cls-5" d="M81.88,109.52v-.14h0c0-2.63-1.88-3.7-4.17-2.37a9.16,9.16,0,0,0-4.15,7.18.76.76,0,0,0,0,.15,3.37,3.37,0,0,0,.1.8.75.75,0,0,0,0,.16,3.36,3.36,0,0,0,.21.61l0,.06a2.24,2.24,0,0,0,.35.5.46.46,0,0,1,.07.07c.76.75,2,.82,3.36,0a9.22,9.22,0,0,0,4.14-7h0Zm-4.15,5c-1.31.76-2.38.15-2.38-1.36v0a3.6,3.6,0,0,1,0-.56h0a4.07,4.07,0,0,1,.14-.58v0a5.55,5.55,0,0,1,.2-.52.61.61,0,0,1,0-.12c.06-.14.14-.29.21-.43s.26-.43.4-.62a4.37,4.37,0,0,1,1.32-1.23c1.31-.76,2.38-.15,2.39,1.35A5.25,5.25,0,0,1,77.73,114.51Z" transform="translate(-14.22 -27.34)"/><path class="cls-4" d="M69.44,111.07h0Z" transform="translate(-14.22 -27.34)"/><path class="cls-4" d="M68.87,111.12H68.8a.22.22,0,0,0-.11,0l.27,0Z" transform="translate(-14.22 -27.34)"/><path class="cls-4" d="M70.38,111.24l0,0a.06.06,0,0,0,0,0l-.07,0,.14,0Z" transform="translate(-14.22 -27.34)"/><path class="cls-4" d="M70,111.12h0Z" transform="translate(-14.22 -27.34)"/><path class="cls-4" d="M70.12,111.16l-.1,0h0l.06,0Z" transform="translate(-14.22 -27.34)"/><path class="cls-4" d="M70.64,111.34l0,0-.16-.06h0Z" transform="translate(-14.22 -27.34)"/><polygon class="cls-4" points="54.83 83.07 54.66 83.18 53.85 83.65 53.15 84.04 52.66 84.33 52.65 84.33 52.6 84.36 50.86 83.35 50.92 83.32 50.93 83.32 51.42 83.04 52.11 82.64 52.93 82.17 53.1 82.07 54.83 83.07"/><path class="cls-4" d="M68.45,111.2l-.34.1.27-.07Z" transform="translate(-14.22 -27.34)"/><path class="cls-4" d="M68,111.32l-.33.14-.09,0c.16-.07.31-.14.46-.19Z" transform="translate(-14.22 -27.34)"/><path class="cls-4" d="M67.49,111.56l-.15.07h0l-.06,0,0,0-.12.07.19-.1Z" transform="translate(-14.22 -27.34)"/><path class="cls-5" d="M71.18,115.63v-.08h0c0-2.63-1.87-3.7-4.17-2.38a9.15,9.15,0,0,0-4.14,7.18v.15a4.48,4.48,0,0,0,.11.86v0a3.4,3.4,0,0,0,.24.68l0,0a2,2,0,0,0,.36.52l0,0c.75.77,2,.86,3.38,0a9.16,9.16,0,0,0,4.14-7h0ZM67,120.69c-1.31.75-2.38.14-2.38-1.37a5.25,5.25,0,0,1,2.37-4.1c1.31-.76,2.38-.15,2.39,1.36A5.24,5.24,0,0,1,67,120.69Z" transform="translate(-14.22 -27.34)"/><path class="cls-5" d="M44.82,126a9.12,9.12,0,0,0-4.14,7.18v.15a2.6,2.6,0,0,0,0,.4s0,.06,0,.09a1.87,1.87,0,0,0,0,.25,1.16,1.16,0,0,0,0,.18,2,2,0,0,0,.11.35,1.86,1.86,0,0,0,.1.25l0,.07a2,2,0,0,1,.11.2l.09.12a1.66,1.66,0,0,0,.16.21,2.5,2.5,0,0,0,.24.22l0,0,0,0s0,0,0,0l.07.05.06,0a2.93,2.93,0,0,0,3-.29,9.2,9.2,0,0,0,4.14-7v-.16C49,125.74,47.11,124.66,44.82,126Zm2,5.17a5.14,5.14,0,0,1-2,2.34,2,2,0,0,1-1.12.31,1.25,1.25,0,0,1-.56-.14,1.67,1.67,0,0,1-.71-1.53,5.23,5.23,0,0,1,2.38-4.1,2.31,2.31,0,0,1,.92-.32,1.17,1.17,0,0,1,1,.36,1.4,1.4,0,0,1,.33.6,1.07,1.07,0,0,1,.07.19v0a2.46,2.46,0,0,1,.05.49A4.62,4.62,0,0,1,46.81,131.16Z" transform="translate(-14.22 -27.34)"/><path class="cls-6" d="M140.19,74.34v-2.2h0l-2.54,1.47-.19.11a4.09,4.09,0,0,1,1.1,3.09l1.64-.94h0Z" transform="translate(-14.22 -27.34)"/><polygon class="cls-6" points="127.28 47.76 127.28 47.77 125.98 48.52 125.97 47 125.97 44.8 125.96 43.21 125.96 40 127.26 39.25 127.27 42.69 127.27 43.98 127.28 47.76"/><path class="cls-6" d="M129,78.62l-1.31.76-.87.5h0a4.16,4.16,0,0,1,1.1,3.08l-1.19.69h0l.69-.4.5-.28A10.12,10.12,0,0,1,129,78.62Z" transform="translate(-14.22 -27.34)"/><path class="cls-6" d="M118.25,84.8a10.36,10.36,0,0,0-1.08,4.34l-.5.29-9.17,5.31V91h0l6-3.44.23-.13.28-.17.43-.24.76-.44Z" transform="translate(-14.22 -27.34)"/><path class="cls-6" d="M90.41,104.11l-3.87-2.26v-.68l3.45,2a1.64,1.64,0,0,0,0,.23,1.29,1.29,0,0,0,.1.35A.81.81,0,0,0,90.41,104.11Z" transform="translate(-14.22 -27.34)"/><polygon class="cls-6" points="71.57 73.41 70.99 73.74 69.26 72.73 69.84 72.4 71.57 73.41"/><polygon class="cls-6" points="67.66 82.19 67.66 82.19 67.66 82.19 67.66 82.19 67.66 82.19"/><polygon class="cls-6" points="67.66 82.04 68.67 81.45 67.66 82.04 67.66 82.04"/><path class="cls-6" d="M78.78,105.14h0l-.23.09-.24.1h0C78.46,105.26,78.62,105.19,78.78,105.14Z" transform="translate(-14.22 -27.34)"/><path class="cls-6" d="M81,105.05h0a.42.42,0,0,0-.16,0l0,0h0Z" transform="translate(-14.22 -27.34)"/><path class="cls-6" d="M81.81,105.47l-.3-.21h0a2.27,2.27,0,0,1,.32.22Z" transform="translate(-14.22 -27.34)"/><path class="cls-6" d="M79.66,104.93l-.2,0h0l.25,0Z" transform="translate(-14.22 -27.34)"/><path class="cls-6" d="M79,105.07l-.2.06.29-.08Z" transform="translate(-14.22 -27.34)"/><path class="cls-6" d="M82,105.67a.52.52,0,0,0-.11-.1l.14.13Z" transform="translate(-14.22 -27.34)"/><path class="cls-6" d="M82.61,106.49h0l-.1-.18,0,0Z" transform="translate(-14.22 -27.34)"/><path class="cls-6" d="M81.3,105.16l-.09,0,.24.11Z" transform="translate(-14.22 -27.34)"/><path class="cls-6" d="M83.05,108.39v-.2A1.41,1.41,0,0,1,83.05,108.39Z" transform="translate(-14.22 -27.34)"/><polygon class="cls-6" points="56.96 88.22 57.15 88.11 56.96 88.21 56.96 88.22"/><path class="cls-6" d="M71.18,115.7h0v0Z" transform="translate(-14.22 -27.34)"/><path class="cls-6" d="M69,111.11l-.27,0h0l.34,0Z" transform="translate(-14.22 -27.34)"/><path class="cls-6" d="M69.49,111.08h0Z" transform="translate(-14.22 -27.34)"/><path class="cls-6" d="M72,112.85l0-.06c0,.09.07.18.11.28C72.06,113,72,112.92,72,112.85Z" transform="translate(-14.22 -27.34)"/><path class="cls-6" d="M71.74,112.35a2.07,2.07,0,0,1,.15.25A2.07,2.07,0,0,0,71.74,112.35Z" transform="translate(-14.22 -27.34)"/><path class="cls-6" d="M71.5,112l.17.22-.12-.17h0a0,0,0,0,0,0,0Z" transform="translate(-14.22 -27.34)"/><path class="cls-6" d="M70.35,111.23l-.14,0h-.14Z" transform="translate(-14.22 -27.34)"/><path class="cls-6" d="M69.94,111.12h0l-.15,0Z" transform="translate(-14.22 -27.34)"/><path class="cls-6" d="M71,111.56l-.16-.1.25.17Z" transform="translate(-14.22 -27.34)"/><path class="cls-6" d="M70.74,111.4l-.1-.06-.17-.07Z" transform="translate(-14.22 -27.34)"/><polygon class="cls-6" points="56.94 84.34 56.94 84.34 56.93 84.34 56.94 84.34"/><path class="cls-6" d="M72.34,114.2h0a1.2,1.2,0,0,0,0-.2s0-.11,0-.16C72.31,114,72.33,114.07,72.34,114.2Z" transform="translate(-14.22 -27.34)"/><path class="cls-6" d="M72.25,113.65v0l-.06-.25h0C72.21,113.46,72.23,113.55,72.25,113.65Z" transform="translate(-14.22 -27.34)"/><path class="cls-6" d="M72.38,114.86h0v-.06a2.83,2.83,0,0,0,0-.29v-.22c0,.18,0,.37,0,.57Z" transform="translate(-14.22 -27.34)"/><path class="cls-6" d="M68.55,111.18l-.1,0-.07,0Z" transform="translate(-14.22 -27.34)"/><path class="cls-6" d="M73.56,114.18h0l-1.18.69h0l-1,.58-.19.11v.15l.82-.47,1.56-.9Z" transform="translate(-14.22 -27.34)"/><path class="cls-6" d="M86.55,105.83a1.93,1.93,0,0,1-.88,1.51l-3.79,2.19v-.15l1-.59.17-.1a2.81,2.81,0,0,0,0-.29v-.18s0,0,0,0h0a1.49,1.49,0,0,0,0-.21l0-.23v0a.22.22,0,0,1,0-.08s0,0,0,0a.08.08,0,0,0,0,0,.43.43,0,0,0,0-.12c0-.13-.06-.25-.1-.37a1.42,1.42,0,0,0-.07-.22s0,0,0-.06l0-.09a1.6,1.6,0,0,0-.1-.23c0-.07-.07-.13-.1-.19l0,0s0,0,0,0l0-.09-.09-.12a1.33,1.33,0,0,0-.14-.19,1,1,0,0,0-.14-.15l0,0-.11-.1-.1-.09h0l-.13-.09-.06,0-.06,0,0,0h0l0,0-.15-.08-.09,0-.18-.07h0l-.16,0h-.09l0,0h-.16l-.23,0a3.23,3.23,0,0,0-.44,0h-.31l-.1,0h0l-.36.08-.09,0a1.17,1.17,0,0,0-.2.06h0l-.23.09h0s0,0,0,0h0l0,0-.11,0h0a0,0,0,0,1,0,0l-.21.1,0,0-.12.06-.12.06h0l0,0-.23.15,0,0-.19.13-.08,0-.44.33,0,0,0,0h0l-.06,0a0,0,0,0,0,0,0,2.61,2.61,0,0,0-.31.27.69.69,0,0,0-.13.11l-.24.24-.48.51-.07.08-.06.07L75,108l-.07.09-.06.08q-.16.21-.33.45l0,0,0,0c-.13.2-.27.4-.39.61a.25.25,0,0,0,0,.07c-.14.23-.28.47-.4.71a2.44,2.44,0,0,0-.14.28l-.05.09a.42.42,0,0,0,0,.1s0,0,0,0a.61.61,0,0,0-.07.14l0,.1a0,0,0,0,1,0,0c-.06.13-.11.27-.16.4a3.39,3.39,0,0,0-.15.41h0a0,0,0,0,1,0,0c0,.15-.1.3-.14.45s-.1.33-.14.49h0c0,.11,0,.21-.08.32a.44.44,0,0,1,0,.1c0,.14-.06.28-.08.41s0,.12,0,.19l-.06.48v.07c0,.17,0,.35,0,.52a2.85,2.85,0,0,0,0-.33v-.1a.28.28,0,0,1,0-.09s0-.06,0-.09a1.52,1.52,0,0,0,0-.21.22.22,0,0,0,0-.08s0,0,0-.08,0,0,0-.08a.44.44,0,0,0,0-.1v0c0-.09,0-.18-.06-.25h0l-.09-.3c0-.1-.07-.19-.11-.28l-.09-.19c0-.08-.09-.17-.15-.25l-.07-.11-.12-.17h0l0,0a2.73,2.73,0,0,0-.34-.34l0,0,0,0s0,0,0,0l-.07,0-.16-.1-.11-.06-.11-.06h0a.15.15,0,0,0-.07,0l-.07,0h0l-.07,0h0l-.28-.08h-.3l-.28,0h-.23l-.28,0H68.8l-.11,0h0l-.09,0-.17,0-.27.08h0l-.46.18-.13.06-.15.07h0l-.06,0a0,0,0,0,0,0,0h0l-.12.06-.09,0a4,4,0,0,0-.44.27s0,0,0,0l-.3.21-.29.22c-.15.12-.29.25-.43.38l-.11.09a.27.27,0,0,1-.08.07l0,0a4,4,0,0,0-.35.36l-.17.19-.18.2c-.25.3-.49.6-.72.93-.06.07-.11.15-.17.23-.25.37-.48.76-.69,1.15,0,.08-.08.15-.11.22a.2.2,0,0,0,0,.08c0,.07-.07.13-.1.2a.47.47,0,0,0-.05.1c0,.1-.09.2-.13.3a.36.36,0,0,0,0,.09c0,.11-.1.22-.14.33a.56.56,0,0,0,0,.12c0,.08-.07.16-.1.25l-.12.37c-.07.22-.13.43-.18.65h0l0,.12,0,.15,0,.15a2.7,2.7,0,0,0-.08.41,8.6,8.6,0,0,0-.11,1.32l1.19-.68v.15l-1.56.9-5.53,3.19-1.64,1,0-6.52,1.34-.77.18-.1,0,0,.5-.28,1.18-.69.82-.47,1-.57h0l3-1.76,1.67-1,0,0,.73-.42.24-.13.68-.4.09-.05,0,0h0l.68-.4.45-.26.05,0h0l.49-.29.7-.39.81-.47.17-.11.81-.47,4.1-2.36.61-.35h0l1-.56h0l.68-.39h0l.09-.05,0,0h0l1.13-.65h0l0,0h0l.5-.3.74-.42.93-.54h0l5.46-3.16.58-.33h0l.73-.43v5.51Z" transform="translate(-14.22 -27.34)"/><polygon class="cls-7" points="45.95 85.84 45.95 86.19 41.31 83.49 41.32 83.14 41.34 81.23 41.34 80.08 41.35 79.3 41.35 79.14 41.36 78.36 41.36 78.35 41.37 77.84 41.37 77.2 41.38 76.4 41.39 75.46 41.39 75.17 41.41 73.85 41.42 71.39 41.44 70.08 41.44 69.61 41.45 69.29 41.46 67.92 41.46 67.62 41.47 66.98 41.15 66.79 39.1 65.59 30.7 60.71 28.55 59.47 26.73 58.41 24.71 57.23 24.71 57.1 24.7 54.99 24.69 52.51 24.68 47.58 28.95 50.06 31.09 51.3 32.91 52.36 35.05 53.6 36.87 54.66 39.02 55.91 45.87 59.89 45.89 64.57 45.89 67.43 45.9 67.66 45.9 69.44 45.91 70.2 45.91 74 45.92 76.48 45.92 78.1 45.93 79.04 45.93 80.49 45.94 81.01 45.94 83.91 45.95 85.84"/><polygon class="cls-7" points="0 92.85 0.01 93.88 0 92.85 0 92.85"/><path class="cls-14" d="M133.21,77.16a5.2,5.2,0,0,0-2.37,4.1,2.49,2.49,0,0,0,0,.49s0,0,0,.08a1.6,1.6,0,0,0,.11.33.37.37,0,0,0,.05.11,1.3,1.3,0,0,0,.17.26l0,0a2.43,2.43,0,0,0,.25.2l.19.08.16,0h0a1.37,1.37,0,0,0,.29,0h.09a2.21,2.21,0,0,0,.92-.32,5.19,5.19,0,0,0,2.37-4.1C135.59,77,134.52,76.4,133.21,77.16Z" transform="translate(-14.22 -27.34)"/><path class="cls-14" d="M122.51,83.32a5.25,5.25,0,0,0-2.37,4.1c0,1.51,1.08,2.11,2.39,1.36a5.21,5.21,0,0,0,2.36-4.1C124.89,83.18,123.82,82.56,122.51,83.32Z" transform="translate(-14.22 -27.34)"/><path class="cls-14" d="M77.71,109.05a4.37,4.37,0,0,0-1.32,1.23,5.44,5.44,0,0,0-.39.62c-.08.14-.16.29-.23.44s0,.07,0,.11a5.55,5.55,0,0,0-.2.52v0a4.07,4.07,0,0,0-.14.58h0a3.6,3.6,0,0,0,0,.56v0c0,1.51,1.07,2.12,2.38,1.36a5.25,5.25,0,0,0,2.37-4.11C80.09,108.9,79,108.29,77.71,109.05Z" transform="translate(-14.22 -27.34)"/><path class="cls-14" d="M69.41,116.58c0-1.51-1.08-2.12-2.39-1.36a5.25,5.25,0,0,0-2.37,4.1c0,1.51,1.07,2.12,2.38,1.37A5.24,5.24,0,0,0,69.41,116.58Z" transform="translate(-14.22 -27.34)"/><path class="body" d="M142.56,56.23V44.59l0-4.93-4.26,2.45-2.12,1.23-1.82,1-2.14,1.23-1.81,1.05-2.14,1.24L60.09,87.23l0,4.68v2.74h0v2.11h0v4.58h0v12.19l.31-.18,1.66-1h0l0,0,.93-.54h0l.68-.39.09-.06,0,0,.68-.39h0l.44-.26.06,0h0l.49-.28.69-.4.82-.47.17-.1.81-.47,4.1-2.37.61-.35,1-.57.12-.07.57-.33.09,0,0,0-.18-.11.18.1,1.13-.65.06,0,.5-.29,1.67-1,.79-.46,4.68-2.71.58-.33,1.44-.83,1-.59,2.42-1.4,1-.59v6.85a1.64,1.64,0,0,0,0,.23,1.29,1.29,0,0,0,.1.35.81.81,0,0,0,.31.35,1,1,0,0,0,1-.1l16.06-9.27V91h0V86.22l1.84-1.06.5-.29,1.19-.69.81-.47h0l1-.57,4.71-2.72h0l1-.56.77-.45,0,0h0L120,79l1-.58,1.48-.87h0l1-.57,4.71-2.72,1-.57.78-.45,0,0,1.14-.66,0,0,.5-.29,1.13-.66.48-.28h0l0,0,.77-.44,1.9-1.1,1.37-.79,1.1-.64,1.67-1,1.3-.75,1.1-.64ZM61.84,95.78h0Z" transform="translate(-14.22 -27.34)"/><path class="body" d="M64,111.34l-.49-.28.49.29h0Z" transform="translate(-14.22 -27.34)"/><path class="body" d="M74.65,105.17h0l-.18-.11Z" transform="translate(-14.22 -27.34)"/><path class="cls-14" d="M47.16,128.9v0a1.59,1.59,0,0,0-.07-.2,1.46,1.46,0,0,0-.33-.6,1.2,1.2,0,0,0-1-.35,2.28,2.28,0,0,0-.92.31,5.24,5.24,0,0,0-2.38,4.11,1.69,1.69,0,0,0,.71,1.53,1.25,1.25,0,0,0,.56.14,2.17,2.17,0,0,0,1.12-.31,5.11,5.11,0,0,0,2-2.35,4.54,4.54,0,0,0,.4-1.76A2.46,2.46,0,0,0,47.16,128.9Z" transform="translate(-14.22 -27.34)"/><path class="body" d="M55.57,106.48h0l-.24-.15Z" transform="translate(-14.22 -27.34)"/><path class="body" d="M42,109.59h0s0,0,0,0Z" transform="translate(-14.22 -27.34)"/><path class="body" d="M55.37,94.13l-2-1.2-8.4-4.88-2.15-1.24L41,85.75l-2-1.18L34.5,82l-.41.23c-2,1.15-10.74,6.51-15.48,14.59-.11.18-.12.27-.07.29l.71.41,1.55.9,6.92,4,12,7h0c.13.08.68-.24.84-.15s0,0,0,0a.06.06,0,0,1,0,.05.45.45,0,0,1-.06.19c-.1.21-.18.41-.27.61s-.21.52-.31.77-.2.51-.3.76-.12.35-.19.52l-.21.61s0,0,0,.07c-.1.28-.19.55-.27.83v0c-.14.47-.27.93-.38,1.37s-.19.73-.27,1.08-.1.49-.16.73a2,2,0,0,1,0,.24c0,.18-.06.35-.1.52s0,.32-.08.47c-.06.3-.1.59-.14.87,0,.09,0,.17,0,.25h0c0,.23-.06.45-.09.65-.07.64-.12,1.18-.15,1.59a1.55,1.55,0,0,1,0,.22s0,.1,0,.13,0,.17,0,.24,0,.27,0,.3l-2.12-1.23,0,.09-5.49-3.14.07-.07-2.81-1.63.2.33-5.49-3.13.18-.17-.86-.5-3.66-2.13-.46-.11a.21.21,0,0,1-.16-.24h0l-.65-.37-.47,3.46-1.19,3.16a4.56,4.56,0,0,0-.17.81,2.91,2.91,0,0,1,1.43.5c.7.41,1.54,1,2.43,1.6a7.52,7.52,0,0,1,1.8,1.71,10.14,10.14,0,0,1,.73,1.07l.23.4a9.27,9.27,0,0,1,.48,1.05c.05.12.1.24.14.35s.09.29.12.41a.56.56,0,0,1,0,.4.33.33,0,0,1-.22.14,2.9,2.9,0,0,1-1.49-.32A26.44,26.44,0,0,1,17,123.28c-.57-.33-1.1-.65-1.52-.91l-.07,0-.15-.09-.09,0a2.39,2.39,0,0,1-.95-.87V124l21.19,12.32,3.68-2.13,1.57-.9v-.15l-1.2.68v0a1.62,1.62,0,0,1,0-.22c0-.08,0-.16,0-.23a4.07,4.07,0,0,1,0-.49,1.45,1.45,0,0,1,0-.29,9.38,9.38,0,0,1,.33-1.42l0-.09.06-.19c0-.07.05-.15.08-.23a.42.42,0,0,1,0-.1c0-.15.11-.3.17-.44s.18-.43.28-.64l.05-.08a3.59,3.59,0,0,1,.17-.34,4.91,4.91,0,0,1,.25-.44c.05-.1.12-.21.18-.31l.33-.51.06-.09c.12-.18.24-.34.37-.51l.06-.07c.13-.17.27-.33.4-.48a3.33,3.33,0,0,1,.25-.28c.1-.12.22-.23.33-.34s.3-.29.45-.42l.26-.23.26-.19a2.22,2.22,0,0,1,.27-.19l.27-.19.28-.16c3-1.71,5.35-.34,5.36,3.05l-1.19.68v.16l5.15-3,0-6.52,1.34-.77v-3.13h0V114l0-3.16v-.35l0-1.91v-2.08l-.24-.15.24.14v-.78h0v-3.18l0-1.32V98.73l0-1.31v-3.1ZM35.22,132.39c-.21,1.42-.93,1.09-1.52.75l-.1-.06-.16-.09-.07,0c-.46-.25-1-.56-1.65-.92a27.71,27.71,0,0,1-4.14-2.81,4.28,4.28,0,0,1-.93-1.09,1.26,1.26,0,0,1-.12-.34.57.57,0,0,1,0-.29,2.31,2.31,0,0,1,.17-.36,2.43,2.43,0,0,1,.14-.2,2.06,2.06,0,0,1,.5-.47l.23-.14a2.59,2.59,0,0,1,.68-.24,3.44,3.44,0,0,1,2.07.39c1,.47,1.86.87,2.62,1.31a3.87,3.87,0,0,1,2.34,3.66A7.57,7.57,0,0,1,35.22,132.39Zm12.1-32.07s0,0,0,0l0,0ZM42,109.59h0s0,0,0,0Zm6.58.42a3.54,3.54,0,0,1-.17,1,3.44,3.44,0,0,1-.14.42l-.11.37L47.79,113l-.14.5-.89,3.08a2.52,2.52,0,0,1-.9,1.07l-5.25,3a.58.58,0,0,1-.26.09l-.08,0-.07,0a0,0,0,0,1,0,0s0,0,0,0,0,0,0,0a.18.18,0,0,1-.05-.07h0a.14.14,0,0,1,0-.06.43.43,0,0,1,0-.17l.5-4.08a4.4,4.4,0,0,1,.32-1.41l1.3-4.65a.24.24,0,0,1,.06-.11,2.15,2.15,0,0,1,.14-.26,2.54,2.54,0,0,1,.7-.72l.22-.12.82-.48,3.49-2h0l.23-.12.15-.09a0,0,0,0,0,0,0h0l.14-.06h0a.14.14,0,0,1,.11,0h.07a0,0,0,0,1,0,0l0,0a.13.13,0,0,1,.07.06.4.4,0,0,1,.07.13h0a.43.43,0,0,1,0,.17Z" transform="translate(-14.22 -27.34)"/><polygon class="body" points="128.29 12.32 124.03 14.77 121.91 16 120.09 17.05 117.95 18.28 116.14 19.33 114 20.57 45.87 59.89 39.02 55.91 36.87 54.66 35.05 53.6 32.91 52.36 31.09 51.3 28.95 50.06 24.68 47.58 107.09 0 128.29 12.32"/><path class="body" d="M47.32,100.32s0,0,0,0l0,0Z" transform="translate(-14.22 -27.34)"/><path class="body" d="M14.23,120.18c0-.2,0-.62.06-1.11v.05l0,.21c0,.38,0,.69,0,.86h0Z" transform="translate(-14.22 -27.34)"/><path class="body" d="M14.34,118.57v0Z" transform="translate(-14.22 -27.34)"/><path class="cls-10" d="M25.12,114.84a.18.18,0,0,0-.09.08l-2.74-1.64-.2.19-.86-.5-3.66-2.13A23.08,23.08,0,0,1,25.12,114.84Z" transform="translate(-14.22 -27.34)"/><path class="cls-10" d="M40.63,109.37a.45.45,0,0,1-.06.19c-.1.21-.18.41-.27.61s-.21.52-.31.77-.2.51-.3.76-.12.35-.19.52l-.21.61s0,0,0,.07c-.1.28-.19.55-.27.83v0c-.14.47-.27.93-.38,1.37s-.19.73-.27,1.08-.1.49-.16.73a2,2,0,0,1,0,.24c0,.18-.06.35-.1.52s0,.32-.08.47c-.06.3-.1.59-.14.87,0,.09,0,.17,0,.25h0c0,.23-.06.45-.09.65-.07.64-.12,1.18-.15,1.59a1.55,1.55,0,0,1,0,.22s0,.1,0,.13,0,.17,0,.24,0,.27,0,.3l-2.12-1.23-.25-.43.06,0a.21.21,0,0,0,0-.3c-.2-.18-4.67-4.18-9.13-5.42-1.76-1.41-5.39-4-8.84-4.7a.21.21,0,0,0-.25.16l-.65-.37a35.63,35.63,0,0,1,2.95-12.59l1.55.9,6.92,4,12,7h0c.13.08.68-.24.84-.15s0,0,0,0A.06.06,0,0,1,40.63,109.37Z" transform="translate(-14.22 -27.34)"/><path class="cls-10" d="M33.86,119.9l-3.54-2.12-.31.29-2.81-1.63-.1-.18.06,0a.22.22,0,0,0,0-.3l-.22-.19A27,27,0,0,1,33.86,119.9Z" transform="translate(-14.22 -27.34)"/><path class="cls-10" d="M48.34,106.2h0A0,0,0,0,1,48.34,106.2Z" transform="translate(-14.22 -27.34)"/><path class="cls-10" d="M48.55,106.59V110a3.54,3.54,0,0,1-.17,1,3.44,3.44,0,0,1-.14.42l-.11.37L47.79,113l-.14.5-.89,3.08a2.52,2.52,0,0,1-.9,1.07l-5.25,3a.58.58,0,0,1-.26.09l-.08,0-.07,0a0,0,0,0,1,0,0s0,0,0,0,0,0,0,0a.18.18,0,0,1-.05-.07h0a.14.14,0,0,1,0-.06.43.43,0,0,1,0-.17l.5-4.08a4.4,4.4,0,0,1,.32-1.41l1.3-4.65a.24.24,0,0,1,.06-.11,2.15,2.15,0,0,1,.14-.26,2.54,2.54,0,0,1,.7-.72l.22-.12.82-.48,3.49-2h0l.23-.12.15-.09a0,0,0,0,0,0,0h0l.14-.06h0a.14.14,0,0,1,.11,0h.08l0,0a.13.13,0,0,1,.07.06.4.4,0,0,1,.07.13h0A.43.43,0,0,1,48.55,106.59Z" transform="translate(-14.22 -27.34)"/><path class="cls-11" d="M35.29,131.45a7.57,7.57,0,0,1-.07.94c-.21,1.42-.93,1.09-1.52.75l-.1-.06-.16-.09-.07,0c-.46-.25-1-.56-1.65-.92a27.71,27.71,0,0,1-4.14-2.81,4.28,4.28,0,0,1-.93-1.09,1.26,1.26,0,0,1-.12-.34.57.57,0,0,1,0-.29,2.31,2.31,0,0,1,.17-.36,2.43,2.43,0,0,1,.14-.2,2.06,2.06,0,0,1,.5-.47l.23-.14a2.59,2.59,0,0,1,.68-.24,3.44,3.44,0,0,1,2.07.39c1,.47,1.86.87,2.62,1.31A3.87,3.87,0,0,1,35.29,131.45Z" transform="translate(-14.22 -27.34)"/><path class="cls-11" d="M21.8,125a.33.33,0,0,1-.22.14,2.9,2.9,0,0,1-1.49-.32A26.44,26.44,0,0,1,17,123.28c-.57-.33-1.1-.65-1.52-.91l-.07,0-.15-.09-.09,0a2.39,2.39,0,0,1-.95-.87v-1.13a3.58,3.58,0,0,1,0-.53c0-.18,0-.38,0-.59s0-.32.05-.49v0c0-.34.08-.69.13-1a2.91,2.91,0,0,1,1.43.5c.7.41,1.54,1,2.43,1.6a7.52,7.52,0,0,1,1.8,1.71,10.14,10.14,0,0,1,.73,1.07l.23.4a9.27,9.27,0,0,1,.48,1.05c.05.12.1.24.14.35s.09.29.12.41A.56.56,0,0,1,21.8,125Z" transform="translate(-14.22 -27.34)"/><polygon class="cls-12" points="123.23 46.37 123.43 46.26 123.23 46.37 123.23 46.37"/><polygon class="cls-12" points="125.97 45.65 125.97 44.8 125.97 44.8 125.97 45.65"/><polygon class="cls-12" points="125.97 44.8 121.82 42.39 123.19 41.6 124.29 40.96 125.96 40 125.96 43.21 125.97 44.8"/><path class="cls-12" d="M129.76,84.52a1.15,1.15,0,0,1-.14-.17,1.76,1.76,0,0,1-.14-.23.83.83,0,0,1-.07-.13l0-.14a2.78,2.78,0,0,1-.16-.4s0-.06,0-.09,0-.07,0-.11v-.08a.36.36,0,0,0,0-.1.17.17,0,0,1,0-.07s0-.08,0-.13a.65.65,0,0,1,0-.2,2.36,2.36,0,0,1,0-.38l-1.19.69-.5.28h0l2.8,1.63a1.37,1.37,0,0,1-.29-.24l-.08-.08Z" transform="translate(-14.22 -27.34)"/><path class="cls-12" d="M127.87,83A10.12,10.12,0,0,1,129,78.62h0A10.12,10.12,0,0,0,127.87,83Z" transform="translate(-14.22 -27.34)"/><polygon class="cls-12" points="59.74 79.53 59.74 80.24 58.01 79.23 58.62 78.88 59.61 78.31 59.73 78.24 59.73 78.38 59.74 79.53"/><polygon class="cls-12" points="47.99 87.02 46.26 86.01 47.92 85.05 47.96 85.04 47.98 85.02 47.98 85.09 47.99 87.02"/><path class="cls-12" d="M127.87,83a4.16,4.16,0,0,0-1.1-3.08h0c-1-.91-2.53-1-4.27,0a11.3,11.3,0,0,0-4.25,4.89h0a10.29,10.29,0,0,0-1.08,4.34l1.19-.69h0a6.8,6.8,0,0,1,.07-.89.08.08,0,0,0,0,0c0-.05,0-.11,0-.16a7.91,7.91,0,0,1,.19-.81h0v0l.06-.21c.09-.28.19-.56.31-.84a1,1,0,0,1,.07-.15,9.65,9.65,0,0,1,.82-1.47,8.87,8.87,0,0,1,1.75-2,6.62,6.62,0,0,1,.84-.58c2.29-1.32,4.16-.26,4.17,2.38Z" transform="translate(-14.22 -27.34)"/><path class="cls-12" d="M137.46,73.71h0a2.73,2.73,0,0,0-.74-.47l-.18-.07h0a4.11,4.11,0,0,0-3.33.57A11.39,11.39,0,0,0,129,78.62h0A10.12,10.12,0,0,0,127.87,83l1.19-.69h0a9.13,9.13,0,0,1,4.14-7.18c2.3-1.33,4.17-.26,4.17,2.38l1.19-.69A4.09,4.09,0,0,0,137.46,73.71Z" transform="translate(-14.22 -27.34)"/><path class="cls-12" d="M72.38,114.86h0l1.18-.69h0A9.16,9.16,0,0,1,77.71,107c2.29-1.33,4.16-.26,4.17,2.37l1-.58.17-.1c0-.1,0-.2,0-.3a1.41,1.41,0,0,0,0-.2h0a1.8,1.8,0,0,0,0-.22l0-.23h0s0-.08,0-.11a.06.06,0,0,0,0,0,.59.59,0,0,0,0-.13c0-.12-.06-.24-.1-.37a1.72,1.72,0,0,0-.07-.21l-.06-.15a1.6,1.6,0,0,0-.1-.23h0l-.12-.21v0a.56.56,0,0,1,0-.08l-.09-.13-.14-.18a1.07,1.07,0,0,0-.14-.16l-.14-.13-.1-.09a2.27,2.27,0,0,0-.32-.22l0,0-.24-.11-.18-.07-.24-.07h-.25l-.23,0h-.44l-.18,0-.25,0a3,3,0,0,0-.36.08l-.29.08h0c-.16,0-.32.12-.49.19l0,0h0l-.48.25h0l-.06,0a9.6,9.6,0,0,0-1,.72h0l0,0h0a9.59,9.59,0,0,0-.75.68l-.48.51-.13.15L75,108l-.13.17-.33.44-.07.11c-.13.19-.27.4-.39.61a.21.21,0,0,0,0,.06c-.14.24-.28.47-.4.71s-.1.19-.14.28-.13.26-.18.39l0,.09a0,0,0,0,1,0,0c-.06.14-.11.27-.16.41a2.74,2.74,0,0,0-.15.4l0,0c0,.15-.1.29-.14.45a4.5,4.5,0,0,0-.14.49h0c0,.11,0,.22-.08.33s-.07.34-.1.51,0,.12,0,.18l-.06.48v.08c0,.19,0,.38,0,.57Z" transform="translate(-14.22 -27.34)"/><polygon class="cls-13" points="64.59 77.44 63.85 77.86 63.35 78.16 63.34 78.16 63.3 78.19 63.29 78.19 62.16 78.84 62.15 78.84 62.12 78.87 62.03 78.92 62.02 78.92 61.34 79.31 60.35 79.88 59.74 80.24 59.74 79.53 59.73 78.38 59.73 78.24 60.3 77.91 60.39 77.86 60.43 77.84 60.43 77.83 61.56 77.18 61.62 77.15 62.12 76.86 63.79 75.9 64.58 75.44 64.58 76.35 64.59 77.44"/><path class="cls-12" d="M67,113.17c2.3-1.32,4.17-.25,4.17,2.38l.19-.11,1-.58h0c0-.2,0-.39,0-.57s0-.06,0-.09,0-.25,0-.37,0-.06,0-.09a.29.29,0,0,0,0-.09h0c0-.1,0-.19-.07-.29l-.09-.29c0-.1-.07-.19-.11-.28l-.09-.19a2.07,2.07,0,0,0-.15-.25l-.07-.11L71.5,112h0a3.51,3.51,0,0,0-.34-.33h0l0,0,0,0-.25-.17-.11-.06-.27-.13h0l-.07,0h0l-.28-.08-.06,0h-.07l-.17,0-.28,0h-.23l-.28,0-.34,0-.09,0-.17,0-.27.07h0c-.15,0-.3.12-.46.19l-.13.06-.2.1c-.09,0-.19.09-.28.15s-.32.19-.48.3l-.3.22-.29.22h0c-.15.12-.29.25-.43.38l-.11.09a12.83,12.83,0,0,0-1.52,1.77l-.17.24a12.06,12.06,0,0,0-.69,1.15,2.12,2.12,0,0,0-.11.21l0,.08c-.1.2-.2.4-.28.6a.3.3,0,0,0,0,.1,3.38,3.38,0,0,0-.18.44c0,.09-.07.17-.1.25l-.12.38c-.07.21-.13.43-.18.64a.93.93,0,0,0,0,.13l0,.14c0,.19-.08.38-.11.57a8.5,8.5,0,0,0-.11,1.32l1.19-.69A9.15,9.15,0,0,1,67,113.17Z" transform="translate(-14.22 -27.34)"/><polygon class="cls-13" points="50.41 83.62 50.41 85.62 49.68 86.04 49.66 86.06 47.99 87.02 47.98 85.09 47.98 85.02 48.91 84.48 48.92 84.48 49.6 84.09 49.69 84.03 49.73 84.01 50.41 83.62"/><path class="cls-12" d="M50.18,127.68l-1.19.68c0-2.62-1.88-3.7-4.17-2.37a9.12,9.12,0,0,0-4.14,7.18l-1.2.68v0a1.62,1.62,0,0,1,0-.22c0-.08,0-.16,0-.23a4.07,4.07,0,0,1,0-.49,1.45,1.45,0,0,1,0-.29,9.38,9.38,0,0,1,.33-1.42l0-.09.06-.19c0-.07.05-.15.08-.23a.42.42,0,0,1,0-.1c0-.15.11-.3.17-.44s.18-.43.28-.64l.05-.08a3.59,3.59,0,0,1,.17-.34,4.91,4.91,0,0,1,.25-.44c.05-.1.12-.21.18-.31l.33-.51.06-.09c.12-.18.24-.34.37-.51l.06-.07c.13-.17.27-.33.4-.48a3.33,3.33,0,0,1,.25-.28c.1-.12.22-.23.33-.34s.3-.29.45-.42l.26-.23.26-.19a2.22,2.22,0,0,1,.27-.19l.27-.19.28-.16C47.77,122.92,50.17,124.29,50.18,127.68Z" transform="translate(-14.22 -27.34)"/><path class="cls-12" d="M27.4,116.77l-5.49-3.13.18-.17.2-.19L25,114.92A.18.18,0,0,0,25,115a.2.2,0,0,0,.17.24l.69.17c.63.5,1,.84,1,.85a.19.19,0,0,0,.14,0,.18.18,0,0,0,.1,0l.1.18Z" transform="translate(-14.22 -27.34)"/><path class="cls-12" d="M26,115a8,8,0,0,0-.81-.2.2.2,0,0,0-.11,0,23.08,23.08,0,0,0-7.55-4l-.46-.11a.21.21,0,0,1-.16-.24h0a.21.21,0,0,1,.25-.16C20.65,111,24.28,113.61,26,115Z" transform="translate(-14.22 -27.34)"/><path class="cls-12" d="M25.84,115.4c.63.5,1,.83,1,.85a.24.24,0,0,0,.14,0,.18.18,0,0,0,.1,0l.06,0a.22.22,0,0,0,0-.3l-.22-.19C26.56,115.61,26.2,115.5,25.84,115.4Z" transform="translate(-14.22 -27.34)"/><path class="cls-12" d="M35.43,121.28l-5.49-3.14.07-.07.31-.29,3.54,2.12c.63.5,1,.84,1,.85a.2.2,0,0,0,.14.06.19.19,0,0,0,.1,0l.25.43Z" transform="translate(-14.22 -27.34)"/><path class="cls-12" d="M25.12,114.84a.16.16,0,0,0-.09.07A.18.18,0,0,0,25,115a.21.21,0,0,0,.17.25l.69.17c.36.1.72.21,1.08.34a27.59,27.59,0,0,1,6.94,4.15c.63.5,1,.85,1,.86a.24.24,0,0,0,.14,0,.18.18,0,0,0,.1,0l.06,0a.2.2,0,0,0,0-.29c-.2-.18-4.67-4.18-9.13-5.43-.27-.07-.54-.14-.81-.19A.2.2,0,0,0,25.12,114.84Z" transform="translate(-14.22 -27.34)"/></svg>