<svg id="Capa_1" data-name="Capa 1" xmlns="http://www.w3.org/2000/svg"
    xmlns:xlink="http://www.w3.org/1999/xlink" viewBox="0 0 1080 1350">
    <defs>
        <style>
            .cls-1{fill:url(#linear-gradient);}.cls-2,.cls-3,.cls-4{fill:#353535;}.cls-2{opacity:0.2;}.cls-3{opacity:0.29;}.cls-4{opacity:0.12;}.cls-5{fill:#292929;}.cls-6{fill:#682427;}.cls-7{fill:#1a1a1a;}.cls-8{fill:#222;}.cls-9{fill:#3d4b4d;}.cls-10{fill:#5b6060;}.cls-11{fill:#cdd2d5;}.cls-12{fill:#1d1d1d;}.cls-13{fill:#911d25;}.cls-14{fill:#1da80e;}.cls-15{fill:url(#linear-gradient-2);}.cls-16{fill:url(#linear-gradient-3);}.cls-17{fill:url(#linear-gradient-4);}.cls-18{fill:url(#linear-gradient-5);}.cls-19{fill:url(#linear-gradient-6);}.cls-20{fill:url(#linear-gradient-7);}.cls-21{fill:url(#linear-gradient-8);}.cls-22{fill:url(#linear-gradient-9);}.cls-23{fill:url(#linear-gradient-10);}.cls-24{fill:url(#linear-gradient-11);}.cls-25{fill:url(#linear-gradient-12);}.cls-26{fill:url(#linear-gradient-13);}.cls-27{fill:url(#linear-gradient-14);}.cls-28{fill:url(#linear-gradient-15);}.cls-29{fill:url(#linear-gradient-22);}.cls-30{fill:url(#linear-gradient-29);}.cls-31{fill:url(#linear-gradient-30);}.cls-32{fill:url(#linear-gradient-31);}.cls-33{fill:url(#linear-gradient-32);}.cls-34{fill:url(#linear-gradient-33);}.cls-35{fill:url(#linear-gradient-34);}.cls-36{fill:url(#linear-gradient-35);}.cls-37{fill:url(#linear-gradient-36);}.cls-38{fill:url(#linear-gradient-37);}.cls-39{fill:url(#linear-gradient-38);}.cls-40{fill:url(#linear-gradient-39);}.cls-41{fill:url(#linear-gradient-40);}.cls-42{fill:url(#linear-gradient-41);}.cls-43{fill:url(#linear-gradient-42);}.cls-44{fill:url(#linear-gradient-43);}.cls-45{fill:url(#linear-gradient-44);}.cls-46{fill:url(#linear-gradient-45);}.cls-47{fill:url(#linear-gradient-46);}.cls-48{fill:url(#linear-gradient-47);}.cls-49{fill:url(#linear-gradient-48);}.cls-50{fill:url(#linear-gradient-49);}.cls-51{fill:#1e1e1e;}.cls-52{fill:url(#linear-gradient-50);}.cls-53{fill:url(#linear-gradient-51);}.cls-54{fill:url(#linear-gradient-52);}.cls-55{fill:url(#linear-gradient-53);}.cls-56{fill:url(#linear-gradient-54);}.cls-57{fill:url(#linear-gradient-55);}.cls-58{fill:url(#linear-gradient-56);}.cls-59{fill:url(#linear-gradient-57);}.cls-60{fill:url(#linear-gradient-58);}.cls-61{fill:url(#linear-gradient-59);}.cls-62{fill:url(#linear-gradient-60);}.cls-63{fill:url(#linear-gradient-61);}.cls-64{fill:url(#linear-gradient-62);}.cls-65{fill:url(#linear-gradient-63);}.cls-66{fill:url(#linear-gradient-64);}.cls-67{fill:url(#linear-gradient-65);}.cls-68{fill:url(#linear-gradient-66);}.cls-69{fill:url(#linear-gradient-67);}.cls-70{fill:url(#linear-gradient-68);}.cls-71{fill:url(#linear-gradient-69);}.cls-72{fill:#9a97aa;}.cls-73{fill:#90919a;}.cls-74{fill:#c8c6e8;}.cls-75{fill:#131313;}.cls-76{fill:url(#linear-gradient-70);}.cls-77{fill:url(#linear-gradient-71);}.cls-78{fill:url(#linear-gradient-72);}.cls-79{fill:url(#linear-gradient-73);}.cls-80{fill:url(#linear-gradient-74);}.cls-81{fill:url(#linear-gradient-75);}.cls-82{fill:url(#linear-gradient-76);}.cls-83{fill:url(#linear-gradient-77);}.cls-84{fill:url(#linear-gradient-78);}.cls-85{fill:url(#linear-gradient-79);}.cls-86{fill:url(#linear-gradient-80);}.cls-87{fill:url(#linear-gradient-81);}.cls-88{fill:url(#linear-gradient-82);}.cls-89{fill:url(#linear-gradient-83);}.cls-90{fill:url(#linear-gradient-84);}.cls-91{fill:url(#linear-gradient-91);}.cls-92{fill:url(#linear-gradient-98);}.cls-93{fill:url(#linear-gradient-99);}.cls-94{fill:url(#linear-gradient-100);}.cls-95{fill:url(#linear-gradient-101);}.cls-96{fill:url(#linear-gradient-102);}.cls-97{fill:url(#linear-gradient-103);}.cls-98{fill:url(#linear-gradient-104);}.cls-99{fill:url(#linear-gradient-105);}.cls-100{fill:url(#linear-gradient-106);}.cls-101{fill:url(#linear-gradient-107);}.cls-102{fill:url(#linear-gradient-108);}.cls-103{fill:url(#linear-gradient-109);}.cls-104{fill:url(#linear-gradient-110);}.cls-105{fill:url(#linear-gradient-111);}.cls-106{fill:url(#linear-gradient-112);}.cls-107{fill:url(#linear-gradient-113);}.cls-108{fill:url(#linear-gradient-114);}.cls-109{fill:url(#linear-gradient-115);}.cls-110{fill:url(#linear-gradient-116);}.cls-111{fill:url(#linear-gradient-117);}.cls-112{fill:url(#linear-gradient-118);}.cls-113{fill:url(#linear-gradient-119);}.cls-114{fill:url(#linear-gradient-120);}.cls-115{fill:url(#linear-gradient-121);}.cls-116{fill:url(#linear-gradient-122);}.cls-117{fill:url(#linear-gradient-123);}.cls-118{fill:url(#linear-gradient-124);}.cls-119{fill:url(#linear-gradient-125);}.cls-120{fill:url(#linear-gradient-126);}.cls-121{fill:url(#linear-gradient-127);}.cls-122{fill:url(#linear-gradient-128);}.cls-123{fill:url(#linear-gradient-129);}.cls-124{fill:url(#linear-gradient-130);}.cls-125{fill:url(#linear-gradient-131);}.cls-126{fill:url(#linear-gradient-132);}.cls-127{fill:url(#linear-gradient-133);}.cls-128{fill:url(#linear-gradient-134);}.cls-129{fill:url(#linear-gradient-135);}.cls-130{fill:url(#linear-gradient-136);}.cls-131{fill:url(#linear-gradient-137);}.cls-132{fill:url(#linear-gradient-138);}.cls-133{fill:url(#linear-gradient-139);}.cls-134{fill:#4a4a56;}.cls-135{fill:#abb1b5;}.cls-136{fill:#383f48;}.cls-137{fill:#c9c5e8;}.cls-138{fill:#ff9104;}.cls-139{fill:#e4e5e9;}.cls-140{fill:#bac0c4;}.cls-141{fill:url(#linear-gradient-140);}.cls-142{fill:url(#linear-gradient-141);}</style>
        <linearGradient id="linear-gradient" x1="595.22" y1="869.59" x2="595.08" y2="869.34"
            gradientTransform="matrix(-1, 0, 0, 1, 1500.36, 0)" gradientUnits="userSpaceOnUse">
            <stop offset="0" stop-color="#181818" />
            <stop offset="0.27" stop-color="#262626" />
            <stop offset="0.77" stop-color="#2e2e2e" />
        </linearGradient>
        <linearGradient id="linear-gradient-2" x1="595.87" y1="869.34" x2="595.73" y2="869.09"
            xlink:href="#linear-gradient" />
        <linearGradient id="linear-gradient-3" x1="600.74" y1="869.88" x2="599.72" y2="868.11"
            xlink:href="#linear-gradient" />
        <linearGradient id="linear-gradient-4" x1="610.89" y1="879.73" x2="605.03" y2="869.58"
            xlink:href="#linear-gradient" />
        <linearGradient id="linear-gradient-5" x1="624.25" y1="883.54" x2="619.69" y2="875.63"
            xlink:href="#linear-gradient" />
        <linearGradient id="linear-gradient-6" x1="633.02" y1="921.53" x2="614.68" y2="889.77"
            xlink:href="#linear-gradient" />
        <linearGradient id="linear-gradient-7" x1="635.6" y1="895.11" x2="634.05" y2="892.43"
            xlink:href="#linear-gradient" />
        <linearGradient id="linear-gradient-8" x1="637.58" y1="898.17" x2="635.76" y2="895.01"
            xlink:href="#linear-gradient" />
        <linearGradient id="linear-gradient-9" x1="642.56" y1="907.84" x2="640.75" y2="904.7"
            xlink:href="#linear-gradient" />
        <linearGradient id="linear-gradient-10" x1="645.13" y1="914.2" x2="641.73" y2="908.31"
            xlink:href="#linear-gradient" />
        <linearGradient id="linear-gradient-11" x1="645.51" y1="942.65" x2="644.83" y2="941.47"
            xlink:href="#linear-gradient" />
        <linearGradient id="linear-gradient-12" x1="646.51" y1="939.58" x2="645.8" y2="938.35"
            xlink:href="#linear-gradient" />
        <linearGradient id="linear-gradient-13" x1="647.39" y1="937.01" x2="646.08" y2="934.75"
            xlink:href="#linear-gradient" />
        <linearGradient id="linear-gradient-14" x1="648.42" y1="933.16" x2="643.19" y2="924.1"
            xlink:href="#linear-gradient" />
        <linearGradient id="linear-gradient-15" x1="281.87" y1="945.36" x2="232.28" y2="859.48"
            gradientTransform="matrix(-1, 0, 0, 1, 1128, 0)" xlink:href="#linear-gradient" />
        <linearGradient id="linear-gradient-22" x1="631.99" y1="922.13" x2="613.65" y2="890.37"
            xlink:href="#linear-gradient" />
        <linearGradient id="linear-gradient-29" x1="282.59" y1="944.54" x2="233.39" y2="859.32"
            gradientTransform="matrix(-1, 0, 0, 1, 1128, 0)" xlink:href="#linear-gradient" />
        <linearGradient id="linear-gradient-30" x1="595.68" y1="869.46" x2="595.94" y2="869"
            gradientTransform="matrix(-1, 0, 0, 1, 1500.36, 0)" gradientUnits="userSpaceOnUse">
            <stop offset="0" stop-color="#141414" />
            <stop offset="0.44" stop-color="#1e1e1e" />
            <stop offset="0.78" stop-color="#202020" />
            <stop offset="0.98" stop-color="#292929" />
            <stop offset="1" stop-color="#2a2a2a" />
        </linearGradient>
        <linearGradient id="linear-gradient-31" x1="599.78" y1="869.77" x2="600.68" y2="868.22"
            xlink:href="#linear-gradient-30" />
        <linearGradient id="linear-gradient-32" x1="596.79" y1="905.08" x2="600.92" y2="897.92"
            xlink:href="#linear-gradient-30" />
        <linearGradient id="linear-gradient-33" x1="605.87" y1="924.66" x2="610.01" y2="917.51"
            xlink:href="#linear-gradient-30" />
        <linearGradient id="linear-gradient-34" x1="605.89" y1="878.23" x2="609.88" y2="871.33"
            xlink:href="#linear-gradient-30" />
        <linearGradient id="linear-gradient-35" x1="621.02" y1="881.51" x2="622.68" y2="878.64"
            xlink:href="#linear-gradient-30" />
        <linearGradient id="linear-gradient-36" x1="634.5" y1="894.35" x2="635.19" y2="893.16"
            xlink:href="#linear-gradient-30" />
        <linearGradient id="linear-gradient-37" x1="636.2" y1="897.38" x2="637.09" y2="895.84"
            xlink:href="#linear-gradient-30" />
        <linearGradient id="linear-gradient-38" x1="583.7" y1="911.69" x2="585.08" y2="909.3"
            xlink:href="#linear-gradient-30" />
        <linearGradient id="linear-gradient-39" x1="591.41" y1="871.38" x2="592.39" y2="869.66"
            xlink:href="#linear-gradient-30" />
        <linearGradient id="linear-gradient-40" x1="594.95" y1="869.66" x2="595.2" y2="869.23"
            xlink:href="#linear-gradient-30" />
        <linearGradient id="linear-gradient-41" x1="617.96" y1="951.32" x2="618.17" y2="950.95"
            xlink:href="#linear-gradient-30" />
        <linearGradient id="linear-gradient-42" x1="614.31" y1="918.37" x2="627.01" y2="896.36"
            xlink:href="#linear-gradient-30" />
        <linearGradient id="linear-gradient-43" x1="641.1" y1="907.23" x2="642.2" y2="905.31"
            xlink:href="#linear-gradient-30" />
        <linearGradient id="linear-gradient-44" x1="642.42" y1="913.13" x2="644.64" y2="909.27"
            xlink:href="#linear-gradient-30" />
        <linearGradient id="linear-gradient-45" x1="644.63" y1="942.99" x2="645.71" y2="941.13"
            xlink:href="#linear-gradient-30" />
        <linearGradient id="linear-gradient-46" x1="645.66" y1="939.82" x2="646.64" y2="938.12"
            xlink:href="#linear-gradient-30" />
        <linearGradient id="linear-gradient-47" x1="645.97" y1="937.21" x2="647.51" y2="934.55"
            xlink:href="#linear-gradient-30" />
        <linearGradient id="linear-gradient-48" x1="643.36" y1="931.96" x2="647.51" y2="924.77"
            xlink:href="#linear-gradient-30" />
        <linearGradient id="linear-gradient-49" x1="231.83" y1="932.81" x2="262.24" y2="880.13"
            gradientTransform="matrix(-1, 0, 0, 1, 1128, 0)" xlink:href="#linear-gradient-30" />
        <linearGradient id="linear-gradient-50" x1="595.68" y1="869.46" x2="595.94" y2="869"
            gradientTransform="matrix(-1, 0, 0, 1, 1500.36, 0)" gradientUnits="userSpaceOnUse">
            <stop offset="0" stop-color="#161616" />
            <stop offset="0.3" stop-color="#1a1a1a" />
            <stop offset="0.79" stop-color="#1e1e1e" />
            <stop offset="0.8" stop-color="#1e1e1e" />
        </linearGradient>
        <linearGradient id="linear-gradient-51" x1="599.78" y1="869.77" x2="600.68" y2="868.22"
            xlink:href="#linear-gradient-50" />
        <linearGradient id="linear-gradient-52" x1="596.79" y1="905.08" x2="600.92" y2="897.92"
            xlink:href="#linear-gradient-50" />
        <linearGradient id="linear-gradient-53" x1="605.87" y1="924.66" x2="610.01" y2="917.51"
            xlink:href="#linear-gradient-50" />
        <linearGradient id="linear-gradient-54" x1="605.89" y1="878.23" x2="609.88" y2="871.33"
            xlink:href="#linear-gradient-50" />
        <linearGradient id="linear-gradient-55" x1="621.02" y1="881.51" x2="622.68" y2="878.64"
            xlink:href="#linear-gradient-50" />
        <linearGradient id="linear-gradient-56" x1="634.5" y1="894.35" x2="635.19" y2="893.16"
            xlink:href="#linear-gradient-50" />
        <linearGradient id="linear-gradient-57" x1="636.2" y1="897.38" x2="637.09" y2="895.84"
            xlink:href="#linear-gradient-50" />
        <linearGradient id="linear-gradient-58" x1="583.7" y1="911.69" x2="585.08" y2="909.3"
            xlink:href="#linear-gradient-50" />
        <linearGradient id="linear-gradient-59" x1="591.41" y1="871.38" x2="592.39" y2="869.66"
            xlink:href="#linear-gradient-50" />
        <linearGradient id="linear-gradient-60" x1="594.95" y1="869.66" x2="595.2" y2="869.23"
            xlink:href="#linear-gradient-50" />
        <linearGradient id="linear-gradient-61" x1="617.96" y1="951.32" x2="618.17" y2="950.95"
            xlink:href="#linear-gradient-50" />
        <linearGradient id="linear-gradient-62" x1="614.31" y1="918.37" x2="627.01" y2="896.36"
            xlink:href="#linear-gradient-50" />
        <linearGradient id="linear-gradient-63" x1="641.1" y1="907.23" x2="642.2" y2="905.31"
            xlink:href="#linear-gradient-50" />
        <linearGradient id="linear-gradient-64" x1="642.42" y1="913.13" x2="644.64" y2="909.27"
            xlink:href="#linear-gradient-50" />
        <linearGradient id="linear-gradient-65" x1="644.63" y1="942.99" x2="645.71" y2="941.13"
            xlink:href="#linear-gradient-50" />
        <linearGradient id="linear-gradient-66" x1="645.66" y1="939.82" x2="646.64" y2="938.12"
            xlink:href="#linear-gradient-50" />
        <linearGradient id="linear-gradient-67" x1="645.97" y1="937.21" x2="647.51" y2="934.55"
            xlink:href="#linear-gradient-50" />
        <linearGradient id="linear-gradient-68" x1="643.36" y1="931.96" x2="647.51" y2="924.77"
            xlink:href="#linear-gradient-50" />
        <linearGradient id="linear-gradient-69" x1="231.83" y1="932.81" x2="262.24" y2="880.13"
            gradientTransform="matrix(-1, 0, 0, 1, 1128, 0)" xlink:href="#linear-gradient-50" />
        <linearGradient id="linear-gradient-70" x1="1027.79" y1="1107.88" x2="1027.65" y2="1107.64"
            xlink:href="#linear-gradient" />
        <linearGradient id="linear-gradient-71" x1="1028.45" y1="1107.63" x2="1028.3" y2="1107.39"
            xlink:href="#linear-gradient" />
        <linearGradient id="linear-gradient-72" x1="1033.31" y1="1108.18" x2="1032.29" y2="1106.4"
            xlink:href="#linear-gradient" />
        <linearGradient id="linear-gradient-73" x1="1043.46" y1="1118.03" x2="1037.6" y2="1107.87"
            xlink:href="#linear-gradient" />
        <linearGradient id="linear-gradient-74" x1="1056.82" y1="1121.83" x2="1052.26" y2="1113.92"
            xlink:href="#linear-gradient" />
        <linearGradient id="linear-gradient-75" x1="1065.59" y1="1159.82" x2="1047.25" y2="1128.06"
            xlink:href="#linear-gradient" />
        <linearGradient id="linear-gradient-76" x1="1068.17" y1="1133.4" x2="1066.62" y2="1130.72"
            xlink:href="#linear-gradient" />
        <linearGradient id="linear-gradient-77" x1="1070.15" y1="1136.47" x2="1068.33" y2="1133.31"
            xlink:href="#linear-gradient" />
        <linearGradient id="linear-gradient-78" x1="1075.13" y1="1146.13" x2="1073.32" y2="1143"
            xlink:href="#linear-gradient" />
        <linearGradient id="linear-gradient-79" x1="1077.7" y1="1152.49" x2="1074.3" y2="1146.61"
            xlink:href="#linear-gradient" />
        <linearGradient id="linear-gradient-80" x1="1078.08" y1="1180.94" x2="1077.4" y2="1179.76"
            xlink:href="#linear-gradient" />
        <linearGradient id="linear-gradient-81" x1="1079.08" y1="1177.88" x2="1078.37" y2="1176.65"
            xlink:href="#linear-gradient" />
        <linearGradient id="linear-gradient-82" x1="1079.96" y1="1175.3" x2="1078.65" y2="1173.04"
            xlink:href="#linear-gradient" />
        <linearGradient id="linear-gradient-83" x1="1080.99" y1="1171.46" x2="1075.76" y2="1162.39"
            xlink:href="#linear-gradient" />
        <linearGradient id="linear-gradient-84" x1="714.44" y1="1183.66" x2="664.85" y2="1097.78"
            gradientTransform="matrix(-1, 0, 0, 1, 1128, 0)" xlink:href="#linear-gradient" />
        <linearGradient id="linear-gradient-91" x1="1064.56" y1="1160.42" x2="1046.22" y2="1128.66"
            xlink:href="#linear-gradient" />
        <linearGradient id="linear-gradient-98" x1="715.16" y1="1182.84" x2="665.96" y2="1097.62"
            gradientTransform="matrix(-1, 0, 0, 1, 1128, 0)" xlink:href="#linear-gradient" />
        <linearGradient id="linear-gradient-99" x1="1028.25" y1="1107.75" x2="1028.51" y2="1107.29"
            xlink:href="#linear-gradient-30" />
        <linearGradient id="linear-gradient-100" x1="1032.36" y1="1108.06" x2="1033.25" y2="1106.52"
            xlink:href="#linear-gradient-30" />
        <linearGradient id="linear-gradient-101" x1="1029.36" y1="1143.38" x2="1033.49" y2="1136.21"
            xlink:href="#linear-gradient-30" />
        <linearGradient id="linear-gradient-102" x1="1038.45" y1="1162.96" x2="1042.58" y2="1155.8"
            xlink:href="#linear-gradient-30" />
        <linearGradient id="linear-gradient-103" x1="1038.47" y1="1116.52" x2="1042.45" y2="1109.62"
            xlink:href="#linear-gradient-30" />
        <linearGradient id="linear-gradient-104" x1="1053.59" y1="1119.8" x2="1055.25" y2="1116.93"
            xlink:href="#linear-gradient-30" />
        <linearGradient id="linear-gradient-105" x1="1067.07" y1="1132.64" x2="1067.76" y2="1131.45"
            xlink:href="#linear-gradient-30" />
        <linearGradient id="linear-gradient-106" x1="1068.77" y1="1135.67" x2="1069.66" y2="1134.13"
            xlink:href="#linear-gradient-30" />
        <linearGradient id="linear-gradient-107" x1="1016.27" y1="1149.98" x2="1017.65" y2="1147.6"
            xlink:href="#linear-gradient-30" />
        <linearGradient id="linear-gradient-108" x1="1023.98" y1="1109.67" x2="1024.96" y2="1107.96"
            xlink:href="#linear-gradient-30" />
        <linearGradient id="linear-gradient-109" x1="1027.52" y1="1107.95" x2="1027.77" y2="1107.52"
            xlink:href="#linear-gradient-30" />
        <linearGradient id="linear-gradient-110" x1="1050.53" y1="1189.61" x2="1050.74" y2="1189.24"
            xlink:href="#linear-gradient-30" />
        <linearGradient id="linear-gradient-111" x1="1046.88" y1="1156.66" x2="1059.59" y2="1134.66"
            xlink:href="#linear-gradient-30" />
        <linearGradient id="linear-gradient-112" x1="1073.67" y1="1145.52" x2="1074.77" y2="1143.61"
            xlink:href="#linear-gradient-30" />
        <linearGradient id="linear-gradient-113" x1="1074.99" y1="1151.42" x2="1077.21" y2="1147.56"
            xlink:href="#linear-gradient-30" />
        <linearGradient id="linear-gradient-114" x1="1077.21" y1="1181.28" x2="1078.28" y2="1179.42"
            xlink:href="#linear-gradient-30" />
        <linearGradient id="linear-gradient-115" x1="1078.23" y1="1178.11" x2="1079.21" y2="1176.41"
            xlink:href="#linear-gradient-30" />
        <linearGradient id="linear-gradient-116" x1="1078.54" y1="1175.51" x2="1080.08" y2="1172.84"
            xlink:href="#linear-gradient-30" />
        <linearGradient id="linear-gradient-117" x1="1075.93" y1="1170.25" x2="1080.08" y2="1163.06"
            xlink:href="#linear-gradient-30" />
        <linearGradient id="linear-gradient-118" x1="664.4" y1="1171.1" x2="694.81" y2="1118.42"
            gradientTransform="matrix(-1, 0, 0, 1, 1128, 0)" xlink:href="#linear-gradient-30" />
        <linearGradient id="linear-gradient-119" x1="1028.25" y1="1107.75" x2="1028.51" y2="1107.29"
            xlink:href="#linear-gradient-50" />
        <linearGradient id="linear-gradient-120" x1="1032.36" y1="1108.06" x2="1033.25" y2="1106.52"
            xlink:href="#linear-gradient-50" />
        <linearGradient id="linear-gradient-121" x1="1029.36" y1="1143.38" x2="1033.49" y2="1136.21"
            xlink:href="#linear-gradient-50" />
        <linearGradient id="linear-gradient-122" x1="1038.45" y1="1162.96" x2="1042.58" y2="1155.8"
            xlink:href="#linear-gradient-50" />
        <linearGradient id="linear-gradient-123" x1="1038.47" y1="1116.52" x2="1042.45" y2="1109.62"
            xlink:href="#linear-gradient-50" />
        <linearGradient id="linear-gradient-124" x1="1053.59" y1="1119.8" x2="1055.25" y2="1116.93"
            xlink:href="#linear-gradient-50" />
        <linearGradient id="linear-gradient-125" x1="1067.07" y1="1132.64" x2="1067.76" y2="1131.45"
            xlink:href="#linear-gradient-50" />
        <linearGradient id="linear-gradient-126" x1="1068.77" y1="1135.67" x2="1069.66" y2="1134.13"
            xlink:href="#linear-gradient-50" />
        <linearGradient id="linear-gradient-127" x1="1016.27" y1="1149.98" x2="1017.65" y2="1147.6"
            xlink:href="#linear-gradient-50" />
        <linearGradient id="linear-gradient-128" x1="1023.98" y1="1109.67" x2="1024.96" y2="1107.96"
            xlink:href="#linear-gradient-50" />
        <linearGradient id="linear-gradient-129" x1="1027.52" y1="1107.95" x2="1027.77" y2="1107.52"
            xlink:href="#linear-gradient-50" />
        <linearGradient id="linear-gradient-130" x1="1050.53" y1="1189.61" x2="1050.74" y2="1189.24"
            xlink:href="#linear-gradient-50" />
        <linearGradient id="linear-gradient-131" x1="1046.88" y1="1156.66" x2="1059.59" y2="1134.66"
            xlink:href="#linear-gradient-50" />
        <linearGradient id="linear-gradient-132" x1="1073.67" y1="1145.52" x2="1074.77" y2="1143.61"
            xlink:href="#linear-gradient-50" />
        <linearGradient id="linear-gradient-133" x1="1074.99" y1="1151.42" x2="1077.21" y2="1147.56"
            xlink:href="#linear-gradient-50" />
        <linearGradient id="linear-gradient-134" x1="1077.21" y1="1181.28" x2="1078.28" y2="1179.42"
            xlink:href="#linear-gradient-50" />
        <linearGradient id="linear-gradient-135" x1="1078.23" y1="1178.11" x2="1079.21" y2="1176.41"
            xlink:href="#linear-gradient-50" />
        <linearGradient id="linear-gradient-136" x1="1078.54" y1="1175.51" x2="1080.08" y2="1172.84"
            xlink:href="#linear-gradient-50" />
        <linearGradient id="linear-gradient-137" x1="1075.93" y1="1170.25" x2="1080.08" y2="1163.06"
            xlink:href="#linear-gradient-50" />
        <linearGradient id="linear-gradient-138" x1="664.4" y1="1171.1" x2="694.81" y2="1118.42"
            gradientTransform="matrix(-1, 0, 0, 1, 1128, 0)" xlink:href="#linear-gradient-50" />
        <linearGradient id="linear-gradient-139" x1="1420.15" y1="-121.36" x2="1437.9" y2="-152.11"
            gradientTransform="matrix(-0.96, 0.29, 0.29, 0.96, 1487.31, 609.56)"
            xlink:href="#linear-gradient-50" />
        <linearGradient id="linear-gradient-140" x1="892.08" y1="1035.68" x2="902.72" y2="1017.24"
            gradientTransform="matrix(-1, 0, 0, 1, 1225.6, 0)" xlink:href="#linear-gradient-50" />
        <linearGradient id="linear-gradient-141" x1="865.32" y1="1044.32" x2="889" y2="1003.31"
            gradientTransform="matrix(-1, 0, 0, 1, 1225.6, 0)" xlink:href="#linear-gradient-50" />
    </defs>
    <g id="body">
        <path class="cls-14"
            d="M78.09,945.25v56.52l.33.13v.13l-.33-.26.33,26.56v12.11l.67.67,2.66,2.79,5.19,5.39,11.72,10.59,7,6.32,6.85,4.86,9.65,6.79,50.06,28.36h.07L203,1123.65,237,1142.88l19.17,10,43.2,15.71h13.38l4.53-2.6,1.06-.66h.13l1.73-1.07h.07l35.61-20.57,14.05-8.12c.13-.4.26-.8.4-1.26a21.83,21.83,0,0,1,.93-2.47c7.92-21.23,27.36-47.66,41.74-59.64,10.85-9,47.12-29.89,69-42.2,9.26-5.26,15.91-8.92,17.18-9.59a.75.75,0,0,0,.2-.13v-10.72l20,11.59,4.26,2.46h.07l7.85,4.59L782.54,883.28l44.14-25.43v-.06h.13v-.07l5.06-2.93,70-40.4,1.8-1.07,3.13-1.8,43.47-25.09,5.45-3.13L1015.25,749l47-27.15V368.2L793,212.78,262.34,519.11V696.43l-116.22,67.1-4.53,2.6-5.19,6.45-24.5,58.91-26,90.07-1.73,7.25-2.59,10.52Z" />
    </g>
    <polygon class="cls-2"
        points="262.09 519.44 262.09 696.63 271.34 691.31 283.79 695.77 480.22 796.01 483.28 799.28 485.61 806.13 499.13 941.46 499.13 1009.89 519.16 1021.47 531.34 1028.53 531.34 674.87 262.09 519.44" />
    <polygon class="cls-3"
        points="303.09 1067.86 305.62 1168.58 312.61 1168.58 369.79 1135.63 373.25 1128 405.07 1082.04 499.13 1018.27 499.13 941.46 485.61 806.13 347.29 884.38 303.09 1067.86" />
    <polygon class="cls-3"
        points="1062.03 368.52 531.37 674.89 531.37 1028.5 1062.03 722.12 1062.03 368.52" />
    <path class="cls-4"
        d="M303.09,1067.88l-8.52,4.08S158.74,1028.13,82,953.59c-4-8.34-1.93-5-1.93-5l-1.76,91.82s14.75,20.29,43.74,37.41c18,10.63,68.36,39.77,109.76,62.16,25.28,13.68,48.48,22.71,57.31,24.88,3.58.85,6.64,2.77,9.12,3.32,4.77,1.06,7.39.37,7.39.37Z" />
    <polygon class="cls-5"
        points="506.23 1033.72 509.16 1056.55 778.48 901.05 791.46 893.53 819.09 877.62 819.15 877.56 824.21 874.63 895.1 833.69 911.54 824.24 916.07 821.58 917.34 820.91 946.23 804.2 950.29 801.87 955.74 798.68 957.07 797.88 1015.25 764.33 1015.25 748.95 955.74 783.3 950.29 786.43 906.82 811.52 903.69 813.32 901.89 814.39 831.87 854.79 826.81 857.72 826.81 857.79 826.67 857.79 826.67 857.85 826.34 858.05 798.98 873.83 782.54 883.28 531.59 1028.19 531.46 1028.13 523.74 1023.6 523.67 1023.6 506.23 1033.72" />
    <polygon class="cls-6"
        points="955.74 798.68 955.74 809.26 966.66 802.94 957.07 797.88 955.74 798.68" />
    <polygon class="cls-7"
        points="917.34 820.91 924.46 827.23 950.29 844.47 950.29 801.87 946.23 804.2 917.34 820.91" />
    <polygon class="cls-7" points="916.07 821.58 924.46 827.23 917.34 820.91 916.07 821.58" />
    <polygon class="cls-5"
        points="950.29 801.87 950.29 844.47 955.74 841.35 955.74 798.68 950.29 801.87" />
    <polygon class="cls-5"
        points="911.54 824.24 914.34 848.8 937.37 862.11 934.44 836.09 924.46 827.23 916.07 821.58 911.54 824.24" />
    <polygon class="cls-5" points="916.07 821.58 924.46 827.23 917.34 820.91 916.07 821.58" />
    <path class="cls-8"
        d="M395.14,1116.26l64.5-42.14,32.61,22.37-8.78-18.91-17.11-14.51-49.52,28.56S406.52,1098.28,395.14,1116.26Z" />
    <polygon class="cls-8"
        points="320.25 1164.25 320.52 1164.32 323.65 1166.58 326.38 1168.58 326.38 1179.09 355.86 1162.12 355.86 1143.68 320.25 1164.25" />
    <path class="cls-5"
        d="M320.25,1164.25l.27.07,3.13,2.26L355.86,1148l12.58-7.32h.07c.13-.74.33-1.47.53-2.2.27-.93.54-1.86.87-2.86l-14.05,8v.07Z" />
    <path class="cls-9"
        d="M66.37,1046.23v25.16a5.54,5.54,0,0,0,.14,1.13,9.65,9.65,0,0,0,1.46,4.26s10.85,10.06,14.11,12.65l.8.6,2.6,2.8s15.11,12.84,17.7,14.51c41.94,27.29,118,74.15,162.69,92,8.39,3.33,39.87,11.85,39.87,11.85l17.84-8.39,2.79-9v-25.16l-14,7.92c-4.8,2.73-11.45,3.93-17.84,3.39a25.68,25.68,0,0,1-3.26-.4,30.8,30.8,0,0,1-5.06-1.33s-14.25-5-18.91-6.92c-49.12-20.5-128.53-68.16-166.94-94-6.06-4-11.12-7.52-14.85-10.32-1.33-1-2.46-1.86-3.46-2.66s-2.33-1.93-4-3.39c-.4-.34-.8-.74-1.2-1.14-4.19-3.66-8.92-8-8.92-8A11.49,11.49,0,0,1,66.37,1046.23Z" />
    <path class="cls-9" d="M66.37,1071.39v1l.14.13A5.54,5.54,0,0,1,66.37,1071.39Z" />
    <path class="cls-10"
        d="M66.37,1044.83v1.4a11.49,11.49,0,0,0,1.6,5.46s4.73,4.39,8.92,8c.4.4.8.8,1.2,1.14,1.66,1.46,3.06,2.72,4,3.39s2.13,1.66,3.46,2.66c3.73,2.8,8.79,6.33,14.85,10.32,38.41,25.83,117.82,73.49,166.94,94,4.66,1.93,18.91,6.92,18.91,6.92a30.8,30.8,0,0,0,5.06,1.33,25.68,25.68,0,0,0,3.26.4c6.39.54,13-.66,17.84-3.39l14-7.92-2.72-2-3.13-2.26-.27-.07h-.07l-1.73,1.07h-.13l-1.06.66-4.53,2.6H299.35l-43.2-15.71-19.17-10L203,1123.65l-30.75-17.44h-.07l-50.06-28.36-9.65-6.79-6.85-4.86-7-6.32-11.72-10.59-5.19-5.39-2.66-2.79-.67-.67v-8.25l-7.59,4.32C67.44,1038.44,66.44,1041.84,66.37,1044.83Z" />
    <polygon class="cls-11" points="78.09 1001.77 78.42 1002.03 78.42 1001.9 78.09 1001.77" />
    <polygon class="cls-5" points="355.86 1143.68 369.91 1135.63 369.91 1135.56 355.86 1143.68" />
    <polygon class="cls-5" points="320.25 1164.25 355.86 1143.75 355.86 1143.68 320.25 1164.25" />
    <polygon class="cls-5"
        points="804.77 933.67 808.5 934.14 811.43 907.84 824.21 874.63 819.15 877.56 819.09 877.62 807.7 907.31 804.77 933.67" />
    <polygon class="cls-12"
        points="776.62 917.43 787.2 923.55 804.77 933.67 807.64 907.44 807.7 907.31 819.09 877.62 791.46 893.53 778.48 901.05 776.62 917.43" />
    <polygon class="cls-13"
        points="955.74 809.26 955.74 841.35 966.66 835.02 966.66 802.94 955.74 809.26" />
    <path class="cls-10"
        d="M364.05,1171.77l5.59,3.26s-.86-11.31,5.06-33.35a86.59,86.59,0,0,1,6.39-16.3c9.32-19,25.23-39.74,37.54-50q1.5-1.2,3.6-2.8c.66-.47,1.46-1,2.2-1.53l5.19-3.53,2.86-1.86c14.38-9.19,34.88-21,50.45-29.82,12.72-7.19,22-12.32,22-12.32l-5.59-3.26a.75.75,0,0,1-.2.13c-1.27.67-7.92,4.33-17.18,9.59-21.9,12.31-58.17,33.15-69,42.2-14.38,12-33.82,38.41-41.74,59.64a21.83,21.83,0,0,0-.93,2.47c-.14.46-.27.86-.4,1.26v.07c-.33,1-.6,1.93-.87,2.86-.2.73-.4,1.46-.53,2.2h-.07C363.25,1161.19,364.05,1171.77,364.05,1171.77Z" />
    <path class="cls-9"
        d="M369.64,1175l3.6.67s4.72-23.37,8.78-33.48a153.09,153.09,0,0,1,13.12-26c11.38-18,21.7-24.63,21.7-24.63l49.52-28.56,17.11,14.51,8.78,18.91,17.44-10v-25.5l-.53-4.39-2.93-22.83L505,1023.53s-9.32,5.13-22,12.32c-15.57,8.78-36.07,20.63-50.45,29.82l-2.86,1.86-5.19,3.53c-.74.53-1.54,1.06-2.2,1.53q-2.1,1.61-3.6,2.8c-12.31,10.25-28.22,30.95-37.54,50a86.59,86.59,0,0,0-6.39,16.3C368.78,1163.72,369.64,1175,369.64,1175Z" />
    <polygon class="cls-11" points="78.09 1001.77 78.42 1002.03 78.42 1001.9 78.09 1001.77" />
    <path class="cls-14" d="M905,869.31c.08.15.24.23.32.39l.15-.24A1.18,1.18,0,0,0,905,869.31Z" />
    <path class="cls-15" d="M904.15,869.15c.32.08.55.08.79.16l-.08-.08Z" />
    <path class="cls-16"
        d="M898.21,869.07a21.92,21.92,0,0,1,3.83-.15,3.7,3.7,0,0,0-.94-.08h-.31c-.55,0-1,.08-1.49.08C899,869,898.6,869,898.21,869.07Z" />
    <path class="cls-17"
        d="M890,880c1.8.47,4.39-1.57,5.79-4.46,1.18-2.51,1-5-.39-5.87h-.08a17.05,17.05,0,0,0-2.5.71c-.62.23-1.25.46-1.95.78a9,9,0,0,0-1.8,2.66C887.65,876.74,888.12,879.48,890,880Z" />
    <path class="cls-18"
        d="M874.51,882.61a3,3,0,0,0,3.2-.16,9.2,9.2,0,0,0,4.07-6.18A67.59,67.59,0,0,0,874.51,882.61Z" />
    <path class="cls-19"
        d="M866.84,915.15c0,5.4,2.5,8.68,6.34,9.07l.54-.94c-2.19-1.17-3.6-3.83-3.6-7.66,0-7.43,5.32-16.59,11.82-20.34,3.44-2,6.49-2,8.68-.63l.55-.94c-2.27-3.28-6.49-3.91-11.35-1.09C872.63,896.84,866.84,906.86,866.84,915.15Z" />
    <path class="cls-20"
        d="M864.65,895a8,8,0,0,0,.78-.93,8.66,8.66,0,0,0,.94-1.65C865.75,893.32,865.2,894.18,864.65,895Z" />
    <path class="cls-21"
        d="M862.77,898.17c.63-1.09,1.25-2.11,1.88-3.13-.63.94-1.17,2-1.8,2.9A.28.28,0,0,0,862.77,898.17Z" />
    <path class="cls-22"
        d="M858,908c.47-1.09.94-2.19,1.41-3.36-.24.47-.39.94-.63,1.33C858.55,906.62,858.23,907.25,858,908Z" />
    <path class="cls-23"
        d="M855.65,914.44a9.43,9.43,0,0,0,2.19-4A5.52,5.52,0,0,0,858,908c-.39.86-.7,1.72-1,2.58a19.53,19.53,0,0,0-.78,2.27A15.79,15.79,0,0,0,855.65,914.44Z" />
    <path class="cls-24"
        d="M854.79,941a6.32,6.32,0,0,0,.39,1.25c.16.24.24.55.4.79A15.43,15.43,0,0,1,854.79,941Z" />
    <path class="cls-25" d="M853.93,938l.24,1.17a2.56,2.56,0,0,1,.31.79A14,14,0,0,1,853.93,938Z" />
    <path class="cls-26"
        d="M853.38,934.24c.08.7.16,1.4.24,2a7.83,7.83,0,0,0,.23,1.25C853.7,936.43,853.54,935.41,853.38,934.24Z" />
    <path class="cls-27"
        d="M853.15,930.33a28.34,28.34,0,0,0,.23,3.67,5.55,5.55,0,0,0,1.8-1.25c2.19-2,3.37-5.4,2.66-7.51-.62-1.8-2.34-2.11-4.3-.86v.08A51.34,51.34,0,0,0,853.15,930.33Z" />
    <path class="cls-28"
        d="M848.78,930.47c0,9,2.52,15.71,6.85,20a5.13,5.13,0,0,0,1.26,1.14l.34-.47a6.61,6.61,0,0,1-.93-1.13c-3.47-4.26-5.4-10.52-5.4-18.31a45.11,45.11,0,0,1,.27-5.19c2.13-21.23,17.11-45.26,35.08-55.71,6.86-4,13.38-5.46,18.84-4.6a11.76,11.76,0,0,1,2.06.47h.07l.2-.4c-.73-.27-1.53-.6-2.33-.86-5.93-1.54-13.12-.4-21,4.19C864.55,880.82,848.78,908,848.78,930.47Z" />
    <path class="cls-15" d="M904.15,869.15c.32.08.55.08.79.16l-.08-.08Z" />
    <path class="cls-16"
        d="M898.21,869.07a21.92,21.92,0,0,1,3.83-.15,3.7,3.7,0,0,0-.94-.08h-.31c-.55,0-1,.08-1.49.08C899,869,898.6,869,898.21,869.07Z" />
    <path class="cls-17"
        d="M890,880c1.8.47,4.39-1.57,5.79-4.46,1.18-2.51,1-5-.39-5.87h-.08a17.05,17.05,0,0,0-2.5.71c-.62.23-1.25.46-1.95.78a9,9,0,0,0-1.8,2.66C887.65,876.74,888.12,879.48,890,880Z" />
    <path class="cls-18"
        d="M874.51,882.61a3,3,0,0,0,3.2-.16,9.2,9.2,0,0,0,4.07-6.18A67.59,67.59,0,0,0,874.51,882.61Z" />
    <path class="cls-20"
        d="M864.65,895a8,8,0,0,0,.78-.93,8.66,8.66,0,0,0,.94-1.65C865.75,893.32,865.2,894.18,864.65,895Z" />
    <path class="cls-21"
        d="M862.77,898.17c.63-1.09,1.25-2.11,1.88-3.13-.63.94-1.17,2-1.8,2.9A.28.28,0,0,0,862.77,898.17Z" />
    <path class="cls-29"
        d="M866.84,915.15c0,5.4,2.5,8.68,6.34,9.07a7.21,7.21,0,0,0,3.12-.23,7,7,0,0,1-2.58-.71c-2.19-1.17-3.6-3.83-3.6-7.66,0-7.43,5.32-16.59,11.82-20.34,3.44-2,6.49-2,8.68-.63a5.5,5.5,0,0,1,1.72,1.8,9.68,9.68,0,0,0-1.17-2.74c-2.27-3.28-6.49-3.91-11.35-1.09C872.63,896.84,866.84,906.86,866.84,915.15Z" />
    <path class="cls-22"
        d="M858,908c.47-1.09.94-2.19,1.41-3.36-.24.47-.39.94-.63,1.33C858.55,906.62,858.23,907.25,858,908Z" />
    <path class="cls-23"
        d="M855.65,914.44a9.43,9.43,0,0,0,2.19-4A5.52,5.52,0,0,0,858,908c-.39.86-.7,1.72-1,2.58a19.53,19.53,0,0,0-.78,2.27A15.79,15.79,0,0,0,855.65,914.44Z" />
    <path class="cls-24"
        d="M854.79,941a6.32,6.32,0,0,0,.39,1.25c.16.24.24.55.4.79A15.43,15.43,0,0,1,854.79,941Z" />
    <path class="cls-25" d="M853.93,938l.24,1.17a2.56,2.56,0,0,1,.31.79A14,14,0,0,1,853.93,938Z" />
    <path class="cls-26"
        d="M853.38,934.24c.08.7.16,1.4.24,2a7.83,7.83,0,0,0,.23,1.25C853.7,936.43,853.54,935.41,853.38,934.24Z" />
    <path class="cls-27"
        d="M853.15,930.33a28.34,28.34,0,0,0,.23,3.67,5.55,5.55,0,0,0,1.8-1.25c2.19-2,3.37-5.4,2.66-7.51-.62-1.8-2.34-2.11-4.3-.86v.08A51.34,51.34,0,0,0,853.15,930.33Z" />
    <path class="cls-30"
        d="M848.78,930.47c0,9,2.52,15.71,6.85,20,.27-.2.4-.26.67-.46-3.47-4.26-5.4-10.52-5.4-18.31a45.11,45.11,0,0,1,.27-5.19c2.13-21.23,17.11-45.26,35.08-55.71,6.86-4,13.38-5.46,18.84-4.6a3.47,3.47,0,0,0,0-.79c-5.93-1.54-13.12-.4-21,4.19C864.55,880.82,848.78,908,848.78,930.47Z" />
    <path class="cls-31" d="M904.15,869.15c.32.08.55.08.79.16l-.08-.08Z" />
    <path class="cls-32"
        d="M898.21,869.07a21.92,21.92,0,0,1,3.83-.15,3.7,3.7,0,0,0-.94-.08h-.31c-.55,0-1,.08-1.49.08C899,869,898.6,869,898.21,869.07Z" />
    <path class="cls-33"
        d="M900.24,906.78c2.19-.47,4.54-3.21,5.24-6.1s-.54-4.93-2.73-4.46-4.46,3.13-5.17,6.1S898.05,907.25,900.24,906.78Z" />
    <path class="cls-34"
        d="M889.06,925.87c1.33,1.33,3.91.31,5.78-2.35s2.27-5.79.94-7.2-4-.31-5.79,2.35S887.73,924.46,889.06,925.87Z" />
    <path class="cls-35"
        d="M890,880c1.8.47,4.39-1.57,5.79-4.46,1.18-2.51,1-5-.39-5.87h-.08a17.05,17.05,0,0,0-2.5.71c-.62.23-1.25.46-1.95.78a9,9,0,0,0-1.8,2.66C887.65,876.74,888.12,879.48,890,880Z" />
    <path class="cls-36"
        d="M874.51,882.61a3,3,0,0,0,3.2-.16,9.2,9.2,0,0,0,4.07-6.18A67.59,67.59,0,0,0,874.51,882.61Z" />
    <path class="cls-37"
        d="M864.65,895a8,8,0,0,0,.78-.93,8.66,8.66,0,0,0,.94-1.65C865.75,893.32,865.2,894.18,864.65,895Z" />
    <path class="cls-38"
        d="M862.77,898.17c.63-1.09,1.25-2.11,1.88-3.13-.63.94-1.17,2-1.8,2.9A.28.28,0,0,0,862.77,898.17Z" />
    <path class="cls-39"
        d="M916.36,909.2c-.32,1.1-.71,2.19-1.1,3.29a39.59,39.59,0,0,0,1.41-4A2.68,2.68,0,0,0,916.36,909.2Z" />
    <path class="cls-40"
        d="M908.46,870.4a5.09,5.09,0,0,0-1.1-.39,7.29,7.29,0,0,1,1.72.86l.08.08a.83.83,0,0,1,.39.08c-.23-.16-.47-.24-.7-.39a218540688071.5,218540688071.5,0,0,0-.32-.16C908.46,870.48,908.46,870.48,908.46,870.4Z" />
    <path class="cls-41" d="M905.48,869.46a1.18,1.18,0,0,0-.47-.15c.08.15.24.23.32.39Z" />
    <path class="cls-42"
        d="M880.37,952a31.68,31.68,0,0,0,3.84-1.72,18.54,18.54,0,0,1-2,.86A17.42,17.42,0,0,1,880.37,952Z" />
    <path class="cls-43"
        d="M866.84,915.15c0,5.4,2.5,8.68,6.34,9.07a7.21,7.21,0,0,0,3.12-.23,7,7,0,0,1-2.58-.71c-2.19-1.17-3.6-3.83-3.6-7.66,0-7.43,5.32-16.59,11.82-20.34,3.44-2,6.49-2,8.68-.63a5.5,5.5,0,0,1,1.72,1.8,9.68,9.68,0,0,0-1.17-2.74c-2.27-3.28-6.49-3.91-11.35-1.09C872.63,896.84,866.84,906.86,866.84,915.15Z" />
    <path class="cls-44"
        d="M858,908c.47-1.09.94-2.19,1.41-3.36-.24.47-.39.94-.63,1.33C858.55,906.62,858.23,907.25,858,908Z" />
    <path class="cls-45"
        d="M855.65,914.44a9.43,9.43,0,0,0,2.19-4A5.52,5.52,0,0,0,858,908c-.39.86-.7,1.72-1,2.58a19.53,19.53,0,0,0-.78,2.27A15.79,15.79,0,0,0,855.65,914.44Z" />
    <path class="cls-46"
        d="M854.79,941a6.32,6.32,0,0,0,.39,1.25c.16.24.24.55.4.79A15.43,15.43,0,0,1,854.79,941Z" />
    <path class="cls-47" d="M853.93,938l.24,1.17a2.56,2.56,0,0,1,.31.79A14,14,0,0,1,853.93,938Z" />
    <path class="cls-48"
        d="M853.38,934.24c.08.7.16,1.4.24,2a7.83,7.83,0,0,0,.23,1.25C853.7,936.43,853.54,935.41,853.38,934.24Z" />
    <path class="cls-49"
        d="M853.15,930.33a28.34,28.34,0,0,0,.23,3.67,5.55,5.55,0,0,0,1.8-1.25c2.19-2,3.37-5.4,2.66-7.51-.62-1.8-2.34-2.11-4.3-.86v.08A51.34,51.34,0,0,0,853.15,930.33Z" />
    <path class="cls-50"
        d="M848.78,930.47c0,9,2.52,15.71,6.85,20a5.13,5.13,0,0,0,1.26,1.14l.07.13a20.14,20.14,0,0,0,3.13,1.93,16.87,16.87,0,0,1-2.86-2.53,6.61,6.61,0,0,1-.93-1.13c-3.47-4.26-5.4-10.52-5.4-18.31a45.11,45.11,0,0,1,.27-5.19c2.13-21.23,17.11-45.26,35.08-55.71,6.86-4,13.38-5.46,18.84-4.6a11.76,11.76,0,0,1,2.06.47h.07a16.57,16.57,0,0,1,2.93,1.13,9.29,9.29,0,0,0-2.73-1.53c-.73-.27-1.53-.6-2.33-.86-5.93-1.54-13.12-.4-21,4.19C864.55,880.82,848.78,908,848.78,930.47Z" />
    <path class="cls-51"
        d="M845.05,970.21a2.91,2.91,0,0,0,.66.4c9.26,5.46,22,4.8,36.21-3.46C910,951,932.78,911.7,932.78,879.49c0-9.92-2.2-18.11-6-24.1a24.52,24.52,0,0,0-8.19-8.12l-23.5-13.58-70.89,40.94-12.78,33.21-2.93,26.3-3.72-.47L787.2,923.55v.05a23.61,23.61,0,0,0,10.94,17.31Zm3.73-39.74c0-22.43,15.77-49.65,35.27-60.9,7.92-4.59,15.11-5.73,21-4.19.8.26,1.6.59,2.33.86a9.29,9.29,0,0,1,2.73,1.53c7,3.33,11.38,11.38,11.38,23.1,0,22.43-15.84,49.66-35.28,61-10.38,5.93-19.7,6.19-26.16,1.8a20.14,20.14,0,0,1-3.13-1.93l-.07-.13a5.13,5.13,0,0,1-1.26-1.14C851.3,946.18,848.78,939.46,848.78,930.47Z" />
    <path class="cls-52" d="M904.15,869.15c.32.08.55.08.79.16l-.08-.08Z" />
    <path class="cls-53"
        d="M898.21,869.07a21.92,21.92,0,0,1,3.83-.15,3.7,3.7,0,0,0-.94-.08h-.31c-.55,0-1,.08-1.49.08C899,869,898.6,869,898.21,869.07Z" />
    <path class="cls-54"
        d="M900.24,906.78c2.19-.47,4.54-3.21,5.24-6.1s-.54-4.93-2.73-4.46-4.46,3.13-5.17,6.1S898.05,907.25,900.24,906.78Z" />
    <path class="cls-55"
        d="M889.06,925.87c1.33,1.33,3.91.31,5.78-2.35s2.27-5.79.94-7.2-4-.31-5.79,2.35S887.73,924.46,889.06,925.87Z" />
    <path class="cls-56"
        d="M890,880c1.8.47,4.39-1.57,5.79-4.46,1.18-2.51,1-5-.39-5.87h-.08a17.05,17.05,0,0,0-2.5.71c-.62.23-1.25.46-1.95.78a9,9,0,0,0-1.8,2.66C887.65,876.74,888.12,879.48,890,880Z" />
    <path class="cls-57"
        d="M874.51,882.61a3,3,0,0,0,3.2-.16,9.2,9.2,0,0,0,4.07-6.18A67.59,67.59,0,0,0,874.51,882.61Z" />
    <path class="cls-58"
        d="M864.65,895a8,8,0,0,0,.78-.93,8.66,8.66,0,0,0,.94-1.65C865.75,893.32,865.2,894.18,864.65,895Z" />
    <path class="cls-59"
        d="M862.77,898.17c.63-1.09,1.25-2.11,1.88-3.13-.63.94-1.17,2-1.8,2.9A.28.28,0,0,0,862.77,898.17Z" />
    <path class="cls-60"
        d="M916.36,909.2c-.32,1.1-.71,2.19-1.1,3.29a39.59,39.59,0,0,0,1.41-4A2.68,2.68,0,0,0,916.36,909.2Z" />
    <path class="cls-61"
        d="M908.46,870.4a5.09,5.09,0,0,0-1.1-.39,7.29,7.29,0,0,1,1.72.86l.08.08a.83.83,0,0,1,.39.08c-.23-.16-.47-.24-.7-.39a218540688071.5,218540688071.5,0,0,0-.32-.16C908.46,870.48,908.46,870.48,908.46,870.4Z" />
    <path class="cls-62" d="M905.48,869.46a1.18,1.18,0,0,0-.47-.15c.08.15.24.23.32.39Z" />
    <path class="cls-63"
        d="M880.37,952a31.68,31.68,0,0,0,3.84-1.72,18.54,18.54,0,0,1-2,.86A17.42,17.42,0,0,1,880.37,952Z" />
    <path class="cls-64"
        d="M866.84,915.15c0,5.4,2.5,8.68,6.34,9.07a7.21,7.21,0,0,0,3.12-.23,7,7,0,0,1-2.58-.71c-2.19-1.17-3.6-3.83-3.6-7.66,0-7.43,5.32-16.59,11.82-20.34,3.44-2,6.49-2,8.68-.63a5.5,5.5,0,0,1,1.72,1.8,9.68,9.68,0,0,0-1.17-2.74c-2.27-3.28-6.49-3.91-11.35-1.09C872.63,896.84,866.84,906.86,866.84,915.15Z" />
    <path class="cls-65"
        d="M858,908c.47-1.09.94-2.19,1.41-3.36-.24.47-.39.94-.63,1.33C858.55,906.62,858.23,907.25,858,908Z" />
    <path class="cls-66"
        d="M855.65,914.44a9.43,9.43,0,0,0,2.19-4A5.52,5.52,0,0,0,858,908c-.39.86-.7,1.72-1,2.58a19.53,19.53,0,0,0-.78,2.27A15.79,15.79,0,0,0,855.65,914.44Z" />
    <path class="cls-67"
        d="M854.79,941a6.32,6.32,0,0,0,.39,1.25c.16.24.24.55.4.79A15.43,15.43,0,0,1,854.79,941Z" />
    <path class="cls-68" d="M853.93,938l.24,1.17a2.56,2.56,0,0,1,.31.79A14,14,0,0,1,853.93,938Z" />
    <path class="cls-69"
        d="M853.38,934.24c.08.7.16,1.4.24,2a7.83,7.83,0,0,0,.23,1.25C853.7,936.43,853.54,935.41,853.38,934.24Z" />
    <path class="cls-70"
        d="M853.15,930.33a28.34,28.34,0,0,0,.23,3.67,5.55,5.55,0,0,0,1.8-1.25c2.19-2,3.37-5.4,2.66-7.51-.62-1.8-2.34-2.11-4.3-.86v.08A51.34,51.34,0,0,0,853.15,930.33Z" />
    <path class="cls-71"
        d="M848.78,930.47c0,9,2.52,15.71,6.85,20a5.13,5.13,0,0,0,1.26,1.14l.07.13a20.14,20.14,0,0,0,3.13,1.93,16.87,16.87,0,0,1-2.86-2.53,6.61,6.61,0,0,1-.93-1.13c-3.47-4.26-5.4-10.52-5.4-18.31a45.11,45.11,0,0,1,.27-5.19c2.13-21.23,17.11-45.26,35.08-55.71,6.86-4,13.38-5.46,18.84-4.6a11.76,11.76,0,0,1,2.06.47h.07a16.57,16.57,0,0,1,2.93,1.13,9.29,9.29,0,0,0-2.73-1.53c-.73-.27-1.53-.6-2.33-.86-5.93-1.54-13.12-.4-21,4.19C864.55,880.82,848.78,908,848.78,930.47Z" />
    <path class="cls-72"
        d="M900.24,906.78c2.19-.47,4.54-3.21,5.24-6.1s-.54-4.93-2.73-4.46-4.46,3.13-5.17,6.1S898.05,907.25,900.24,906.78Z" />
    <path class="cls-72"
        d="M889.06,925.87c1.33,1.33,3.91.31,5.78-2.35s2.27-5.79.94-7.2-4-.31-5.79,2.35S887.73,924.46,889.06,925.87Z" />
    <path class="cls-72"
        d="M890,880c1.8.47,4.39-1.57,5.79-4.46,1.18-2.51,1-5-.39-5.87h-.08a17.05,17.05,0,0,0-2.5.71c-.62.23-1.25.46-1.95.78a9,9,0,0,0-1.8,2.66C887.65,876.74,888.12,879.48,890,880Z" />
    <path class="cls-72"
        d="M874.51,882.61a3,3,0,0,0,3.2-.16,9.2,9.2,0,0,0,4.07-6.18A67.59,67.59,0,0,0,874.51,882.61Z" />
    <path class="cls-72"
        d="M864.65,895a8,8,0,0,0,.78-.93,8.66,8.66,0,0,0,.94-1.65C865.75,893.32,865.2,894.18,864.65,895Z" />
    <path class="cls-72"
        d="M916.36,909.2c-.32,1.1-.71,2.19-1.1,3.29a39.59,39.59,0,0,0,1.41-4A2.68,2.68,0,0,0,916.36,909.2Z" />
    <path class="cls-72" d="M905.48,869.46a1.18,1.18,0,0,0-.47-.15c.08.15.24.23.32.39Z" />
    <path class="cls-72"
        d="M880.37,952a31.68,31.68,0,0,0,3.84-1.72,18.54,18.54,0,0,1-2,.86A17.42,17.42,0,0,1,880.37,952Z" />
    <path class="cls-72"
        d="M866.84,915.15c0,5.4,2.5,8.68,6.34,9.07a7.21,7.21,0,0,0,3.12-.23,7,7,0,0,1-2.58-.71c-2.19-1.17-3.6-3.83-3.6-7.66,0-7.43,5.32-16.59,11.82-20.34,3.44-2,6.49-2,8.68-.63a5.5,5.5,0,0,1,1.72,1.8,9.68,9.68,0,0,0-1.17-2.74c-2.27-3.28-6.49-3.91-11.35-1.09C872.63,896.84,866.84,906.86,866.84,915.15Z" />
    <path class="cls-72"
        d="M855.65,914.44a9.43,9.43,0,0,0,2.19-4A5.52,5.52,0,0,0,858,908c-.39.86-.7,1.72-1,2.58a19.53,19.53,0,0,0-.78,2.27A15.79,15.79,0,0,0,855.65,914.44Z" />
    <path class="cls-72"
        d="M853.15,930.33a28.34,28.34,0,0,0,.23,3.67,5.55,5.55,0,0,0,1.8-1.25c2.19-2,3.37-5.4,2.66-7.51-.62-1.8-2.34-2.11-4.3-.86v.08A51.34,51.34,0,0,0,853.15,930.33Z" />
    <path class="cls-72"
        d="M880.37,952a31.68,31.68,0,0,0,3.84-1.72,18.54,18.54,0,0,1-2,.86A17.42,17.42,0,0,1,880.37,952Zm29.18-81c-.23-.16-.47-.24-.7-.39l.23.23.08.08A.83.83,0,0,1,909.55,871Zm-60.77,59.44c0,9,2.52,15.71,6.85,20a5.13,5.13,0,0,0,1.26,1.14l.07.13a20.14,20.14,0,0,0,3.13,1.93,16.87,16.87,0,0,1-2.86-2.53,6.61,6.61,0,0,1-.93-1.13c-3.47-4.26-5.4-10.52-5.4-18.31a45.11,45.11,0,0,1,.27-5.19c2.13-21.23,17.11-45.26,35.08-55.71,6.86-4,13.38-5.46,18.84-4.6a11.76,11.76,0,0,1,2.06.47h.07a16.57,16.57,0,0,1,2.93,1.13,9.29,9.29,0,0,0-2.73-1.53c-.73-.27-1.53-.6-2.33-.86-5.93-1.54-13.12-.4-21,4.19C864.55,880.82,848.78,908,848.78,930.47Z" />
    <path class="cls-73"
        d="M900.24,906.78c2.19-.47,4.54-3.21,5.24-6.1s-.54-4.93-2.73-4.46-4.46,3.13-5.17,6.1S898.05,907.25,900.24,906.78Z" />
    <path class="cls-73"
        d="M889.06,925.87c1.33,1.33,3.91.31,5.78-2.35s2.27-5.79.94-7.2-4-.31-5.79,2.35S887.73,924.46,889.06,925.87Z" />
    <path class="cls-73"
        d="M890,880c1.8.47,4.39-1.57,5.79-4.46,1.18-2.51,1-5-.39-5.87h-.08a17.05,17.05,0,0,0-2.5.71c-.62.23-1.25.46-1.95.78a9,9,0,0,0-1.8,2.66C887.65,876.74,888.12,879.48,890,880Z" />
    <path class="cls-73"
        d="M874.51,882.61a3,3,0,0,0,3.2-.16,9.2,9.2,0,0,0,4.07-6.18A67.59,67.59,0,0,0,874.51,882.61Z" />
    <path class="cls-73"
        d="M864.65,895a8,8,0,0,0,.78-.93,8.66,8.66,0,0,0,.94-1.65C865.75,893.32,865.2,894.18,864.65,895Z" />
    <path class="cls-73"
        d="M866.84,915.15c0,5.4,2.5,8.68,6.34,9.07a7.21,7.21,0,0,0,3.12-.23,7,7,0,0,1-2.58-.71c-2.19-1.17-3.6-3.83-3.6-7.66,0-7.43,5.32-16.59,11.82-20.34,3.44-2,6.49-2,8.68-.63a5.5,5.5,0,0,1,1.72,1.8,9.68,9.68,0,0,0-1.17-2.74c-2.27-3.28-6.49-3.91-11.35-1.09C872.63,896.84,866.84,906.86,866.84,915.15Z" />
    <path class="cls-73"
        d="M855.65,914.44a9.43,9.43,0,0,0,2.19-4A5.52,5.52,0,0,0,858,908c-.39.86-.7,1.72-1,2.58a19.53,19.53,0,0,0-.78,2.27A15.79,15.79,0,0,0,855.65,914.44Z" />
    <path class="cls-73"
        d="M853.15,930.33a28.34,28.34,0,0,0,.23,3.67,5.55,5.55,0,0,0,1.8-1.25c2.19-2,3.37-5.4,2.66-7.51-.62-1.8-2.34-2.11-4.3-.86v.08A51.34,51.34,0,0,0,853.15,930.33Z" />
    <path class="cls-74"
        d="M915.26,912.49a39.59,39.59,0,0,0,1.41-4,2.68,2.68,0,0,0-.31.7C916,910.3,915.65,911.39,915.26,912.49ZM880.37,952a31.68,31.68,0,0,0,3.84-1.72,18.54,18.54,0,0,1-2,.86A17.42,17.42,0,0,1,880.37,952Z" />
    <path class="cls-74"
        d="M850.9,931.67c0,7.79,1.93,14.05,5.4,18.31a6.61,6.61,0,0,0,.93,1.13,16.87,16.87,0,0,0,2.86,2.53c6.46,4.39,15.78,4.13,26.16-1.8,19.44-11.31,35.28-38.54,35.28-61,0-11.72-4.39-19.77-11.38-23.1a16.57,16.57,0,0,0-2.93-1.13h-.07a11.76,11.76,0,0,0-2.06-.47c-5.46-.86-12,.6-18.84,4.6-18,10.45-33,34.48-35.08,55.71A45.11,45.11,0,0,0,850.9,931.67Zm2.27-1.33a43.5,43.5,0,0,1,.4-5.86v-.13c.06-.73.2-1.53.33-2.4s.33-1.73.53-2.59v-.07a2,2,0,0,1,.14-.53,1.47,1.47,0,0,1,.13-.53V918c.07-.33.2-.6.27-.93a24.77,24.77,0,0,1,.66-2.4v-.2a14.71,14.71,0,0,1,.6-1.59c.2-.8.47-1.6.73-2.33s.67-1.67,1.07-2.53l.4-1a7.3,7.3,0,0,0,.33-1.07c.26-.4.4-.86.66-1.33.4-.86.87-1.8,1.34-2.66a1.86,1.86,0,0,1,.26-.53c.6-1.14,1.13-2.2,1.73-3.2a.39.39,0,0,1,.07-.27,8.2,8.2,0,0,0,.86-1.33c.34-.53.6-1.06.94-1.53.59-.86,1.13-1.73,1.73-2.59,0-.07,0-.07.13-.14.6-.8,1.13-1.66,1.8-2.53s1.33-1.73,2-2.53a56.25,56.25,0,0,1,4.25-4.65,64.76,64.76,0,0,1,7.26-6.33,13.26,13.26,0,0,1,2.2-1.53c.8-.53,1.46-.93,2.26-1.4s1.46-.86,2.33-1.26a12.55,12.55,0,0,0,1.2-.53c1.06-.47,2.13-.94,3.06-1.27a17.3,17.3,0,0,1,2.46-.67h.07c.13,0,.2-.06.27-.06a6.07,6.07,0,0,1,1-.27,6,6,0,0,1,.94-.13c.26,0,.4-.07.66-.07a8.23,8.23,0,0,1,1.07-.2c.46,0,.93-.06,1.46-.06h.33a4.6,4.6,0,0,1,.94.06,4.09,4.09,0,0,1,1,.07,5.64,5.64,0,0,1,1.14.2,2.32,2.32,0,0,1,.4.07h.33l.07.06H905a1.21,1.21,0,0,1,.47.14h.06l1.4.39a.8.8,0,0,1,.4.2,5,5,0,0,1,.93.34.25.25,0,0,1,.2.06c0,.07,0,.07.07.07a.24.24,0,0,0,.13.07.26.26,0,0,0,.14.06c.26.14.53.27.73.4s.13.07.26.07a.07.07,0,0,1,.07.07.06.06,0,0,0,.07.06c.06,0,.13.14.2.2a2.18,2.18,0,0,1,.33.2.76.76,0,0,0,.13.2,5,5,0,0,1,.6.27c0,.13.07.13.07.13h.07a1.59,1.59,0,0,1,.33.2l.13.13a11.3,11.3,0,0,1,.93.87l.47.47c.2.19.26.33.4.46a7,7,0,0,1,.73.87,6.13,6.13,0,0,1,1,1.46l.46.73c.14.34.34.6.47.87s.4.8.53,1.2a.35.35,0,0,1,.2.33,2.69,2.69,0,0,1,.27.8,14.11,14.11,0,0,1,.6,1.6c.07.06.07.13.07.33v.07a3,3,0,0,1,.2.79.68.68,0,0,1,.19.54c0,.06.07.13.07.2v.13c0,.07.07.2.07.27a16.24,16.24,0,0,1,.33,1.66,1.08,1.08,0,0,1,.07.47c0,.13.06.33.06.46v.07a4.44,4.44,0,0,1,.07.93.86.86,0,0,1,.07.33c0,.47.13.93.13,1.4,0,.73.07,1.6.07,2.33a10.13,10.13,0,0,1-.07,1.46v.54c0,1.13-.2,2.33-.27,3.46s-.33,2.33-.53,3.39c-.26,1.4-.46,2.73-.86,4.26,0,.07-.07.2-.07.27-.2.73-.4,1.46-.53,2.13a2.79,2.79,0,0,0-.27.8,13,13,0,0,1-.73,2.06c-.2.67-.47,1.27-.67,1.93-.06.2-.2.54-.33.87a66.66,66.66,0,0,1-3,6.72,33.68,33.68,0,0,1-1.93,3.6,24.59,24.59,0,0,1-1.39,2.46c-.8,1.33-1.73,2.66-2.6,3.93l-1.13,1.66a8.14,8.14,0,0,1-.67.87,3.36,3.36,0,0,1-.6.79c0,.07,0,.07-.06.14a.63.63,0,0,0-.27.33c-.86,1.07-1.73,2.06-2.6,3.13-.2.2-.46.53-.66.73-.73.8-1.4,1.46-2.13,2.13a56.85,56.85,0,0,1-4.13,3.93,22.72,22.72,0,0,0-2,1.66,2.61,2.61,0,0,0-.54.33,27.54,27.54,0,0,1-3.13,2.13c-.06.07-.13.2-.2.27a14.32,14.32,0,0,0-1.66,1,19.34,19.34,0,0,1-2.06,1.06c-.34.14-.6.34-1,.47a9.34,9.34,0,0,1-1.87.87c-.33.13-.66.26-.93.4-1.26.46-2.53.79-3.79,1.13a18.53,18.53,0,0,1-2.73.46,3.91,3.91,0,0,1-.87.07,15.92,15.92,0,0,1-3.52,0,6.47,6.47,0,0,1-1.2-.13,18.81,18.81,0,0,1-2.2-.6,7.62,7.62,0,0,1-1.66-.6,4,4,0,0,1-1.07-.53c-.13,0-.13-.07-.2-.07s-.2-.13-.33-.2a2.84,2.84,0,0,1-.8-.53h-.13a.07.07,0,0,0-.07-.07c-.13-.07-.2-.2-.4-.27a4.11,4.11,0,0,1-1.13-.93c-.47-.46-.87-.8-1.33-1.33h-.07v-.07c-.13,0-.13-.06-.13-.06-.27-.4-.6-.73-.93-1.13a14.89,14.89,0,0,0-.94-1.4c0-.07-.06-.07-.06-.13-.27-.47-.47-.87-.73-1.34a10.43,10.43,0,0,1-.54-1.19c-.06-.14-.13-.27-.2-.4a.6.6,0,0,0-.19-.34c-.14-.4-.27-.8-.4-1.26s-.34-1.2-.6-1.87a8.82,8.82,0,0,0-.27-1.19,1.12,1.12,0,0,1-.07-.47,9.17,9.17,0,0,1-.2-1.26,5.49,5.49,0,0,0-.13-1,5.71,5.71,0,0,0-.13-1V934A30.5,30.5,0,0,1,853.17,930.34Z" />
    <path class="cls-72"
        d="M858.94,948.4c.47.54.86.86,1.33,1.33a7.47,7.47,0,0,0,1.17.93c.16.08.24.16.39.24a.08.08,0,0,1,.08.08H862a5.08,5.08,0,0,0,.86.54.62.62,0,0,0,.31.16c.08,0,.08.08.16.08a5.06,5.06,0,0,0,1.09.55,13.84,13.84,0,0,0,1.65.62,17.09,17.09,0,0,0,2.19.55,5.92,5.92,0,0,0,1.25.16,13.81,13.81,0,0,0,3.52,0,3.44,3.44,0,0,0,.86-.08,17.45,17.45,0,0,0,2.74-.47,33.18,33.18,0,0,0,3.75-1.1,17.42,17.42,0,0,0,1.88-.86,18.54,18.54,0,0,0,2-.86c.62-.31,1.33-.7,2-1.09.55-.32,1.09-.71,1.64-1l.24-.23a37.56,37.56,0,0,0,3.13-2.12,2.61,2.61,0,0,1,.54-.39c.63-.54,1.25-1.09,2-1.64a48,48,0,0,0,4.15-3.91c.7-.71,1.4-1.33,2.11-2.11.23-.24.47-.55.7-.79.86-1,1.72-2,2.58-3.12.08-.08.16-.24.24-.32s.08-.08.08-.15a3,3,0,0,0,.62-.79,5.39,5.39,0,0,0,.63-.86l1.17-1.64c.86-1.25,1.8-2.58,2.58-3.91a27.42,27.42,0,0,0,1.41-2.5c.71-1.18,1.33-2.35,2-3.6,1.09-2.19,2.11-4.46,3-6.73a5.76,5.76,0,0,0,.31-.86c.39-1.1.78-2.19,1.1-3.29a2.68,2.68,0,0,1,.31-.7c.08-.31.16-.55.23-.78.16-.71.4-1.41.55-2.11,0-.08.08-.24.08-.32.39-1.48.63-2.81.86-4.22.23-1.1.39-2.27.55-3.44s.23-2.27.23-3.45v-.54a8.34,8.34,0,0,0,.08-1.41c0-.78-.08-1.64-.08-2.35,0-.47-.08-.94-.08-1.41a.66.66,0,0,0-.07-.31,3.78,3.78,0,0,0-.08-.94v-.08c0-.15-.08-.31-.08-.47a1,1,0,0,0-.08-.47,13.89,13.89,0,0,0-.31-1.64c0-.08-.08-.23-.08-.31v-.08c0-.08-.08-.16-.08-.23a1.12,1.12,0,0,0-.15-.55,2.81,2.81,0,0,0-.24-.78v-.08c0-.16,0-.24-.08-.31a9.05,9.05,0,0,0-.54-1.57,2.84,2.84,0,0,0-.32-.86.64.64,0,0,0-.15-.31c-.16-.39-.39-.78-.55-1.18s-.31-.54-.47-.86-.31-.54-.47-.78a6.39,6.39,0,0,0-1-1.41,3.48,3.48,0,0,0-.7-.86c-.16-.15-.24-.31-.39-.47l-.47-.47a12,12,0,0,0-.94-.86l-.16-.15a.92.92,0,0,0-.31-.24h-.08a.08.08,0,0,1-.08-.08,4.12,4.12,0,0,0-.54-.31l-.16-.16c-.08-.07-.23-.15-.31-.23s-.16-.16-.24-.16a.07.07,0,0,1-.08-.07s0-.08-.07-.08-.16-.08-.24-.08a.83.83,0,0,0-.39-.08l-.08-.08a7.29,7.29,0,0,0-1.72-.86c-.16-.08-.23-.08-.39-.15a9.32,9.32,0,0,0-1.41-.4h-.08l-.15.24c3.44,4,5.4,9.93,5.4,17.6,0,21-14.79,46.39-33,57C870.75,948.24,864.26,949.57,858.94,948.4Z" />
    <path class="cls-73"
        d="M853.38,934v.24c.16,1.17.32,2.19.47,3.28a1,1,0,0,0,.08.47,14,14,0,0,0,.55,2,4.81,4.81,0,0,0,.31,1.09,15.43,15.43,0,0,0,.79,2,7.63,7.63,0,0,0,.54,1.17c.24.47.47.86.71,1.33,0,.08.07.08.07.16l.94,1.4c.32.4.63.71.94,1.1a.08.08,0,0,0,.08.08v.08h.08c5.32,1.17,11.81-.16,18.77-4.15,18.23-10.56,33-36,33-57,0-7.67-2-13.61-5.4-17.6-.08-.16-.24-.24-.32-.39h-.07c-.24-.08-.47-.08-.79-.16a4.46,4.46,0,0,0-1.09-.16,4.63,4.63,0,0,0-1-.07,21.92,21.92,0,0,0-3.83.15c-.24,0-.39.08-.63.08a3.94,3.94,0,0,0-.94.16l-1,.23c-.08,0-.16.08-.24.08,1.41.86,1.57,3.36.39,5.87-1.4,2.89-4,4.93-5.79,4.46s-2.34-3.21-.93-6.18a9,9,0,0,1,1.8-2.66c-.71.31-1.49.62-2.27,1a23.84,23.84,0,0,0-2.35,1.26c-.78.47-1.49.86-2.27,1.4a22.18,22.18,0,0,0-2.19,1.49,9.2,9.2,0,0,1-4.07,6.18,3,3,0,0,1-3.2.16,58.88,58.88,0,0,0-4.23,4.69c-.7.78-1.33,1.64-2,2.5s-1.18,1.72-1.8,2.51c-.08.08-.08.08-.08.15a8.66,8.66,0,0,1-.94,1.65,8,8,0,0,1-.78.93c-.63,1-1.25,2-1.88,3.13s-1.17,2.12-1.72,3.21a1.92,1.92,0,0,0-.31.55c-.47.86-.94,1.8-1.33,2.66-.47,1.17-.94,2.27-1.41,3.36a5.52,5.52,0,0,1-.16,2.51,9.43,9.43,0,0,1-2.19,4v.16c-.31.78-.47,1.64-.7,2.43l-.24.94v.23a2.19,2.19,0,0,0-.15.55,1.89,1.89,0,0,0-.16.55v.07c-.16.86-.39,1.72-.47,2.58s-.31,1.65-.39,2.43c2-1.25,3.68-.94,4.3.86.71,2.11-.47,5.48-2.66,7.51A5.55,5.55,0,0,1,853.38,934Zm44.2-31.68c.71-3,3-5.63,5.17-6.1s3.44,1.56,2.73,4.46-3.05,5.63-5.24,6.1S896.8,905.21,897.58,902.32ZM900.16,880a4.45,4.45,0,0,1,3.45-1.49,2.15,2.15,0,0,1,1.87,1.49c.71,2.11-.54,5.55-2.73,7.59a7.62,7.62,0,0,1-1.65,1.17c-1.56.78-3,.39-3.6-1.17C896.8,885.42,898.05,882.06,900.16,880ZM890,918.67c1.8-2.66,4.46-3.68,5.79-2.35s.94,4.62-.94,7.2-4.45,3.68-5.78,2.35S888.12,921.25,890,918.67Zm-16.42,18.77a9.64,9.64,0,0,1,.31-2,9.36,9.36,0,0,1,3.83-5.08,3.34,3.34,0,0,1,1-.4c1.8-.62,3.13.47,3.13,2.74a9.24,9.24,0,0,1-4.15,7.2C875.44,941.2,873.57,940.1,873.57,937.44Zm-9-21c0-9.7,6.81-21.43,15.25-26.28,5.48-3.13,10.33-2.58,13,.78a13,13,0,0,1,2.27,7.9,25.54,25.54,0,0,1-1.64,8.76c0,.08,0,.08-.08.16a35.61,35.61,0,0,1-6.65,11.5c0,.08-.08.15-.16.23a27.94,27.94,0,0,1-6.73,5.63,12.8,12.8,0,0,1-8.36,2C867.31,926.26,864.57,922.5,864.57,916.4Zm-4.93,20.81c1.33-2.9,3.91-4.85,5.79-4.38a2.35,2.35,0,0,1,1.57,1.72,6.62,6.62,0,0,1-.63,4.38c-1,2.27-3,4.07-4.54,4.46a3.28,3.28,0,0,1-1.25,0C858.7,942.92,858.31,940.1,859.64,937.21Z" />
    <path class="cls-75"
        d="M864.57,916.4c0,6.1,2.74,9.86,6.89,10.64a12.8,12.8,0,0,0,8.36-2,27.94,27.94,0,0,0,6.73-5.63c.08-.08.16-.15.16-.23a35.61,35.61,0,0,0,6.65-11.5c.08-.08.08-.08.08-.16a25.54,25.54,0,0,0,1.64-8.76,13,13,0,0,0-2.27-7.9c-2.66-3.36-7.51-3.91-13-.78C871.38,895,864.57,906.7,864.57,916.4Zm2.27-1.25c0-8.29,5.79-18.31,13-22.53,4.86-2.82,9.08-2.19,11.35,1.09a9.68,9.68,0,0,1,1.17,2.74,10.62,10.62,0,0,1,1.41,5.56,22.71,22.71,0,0,1-2,8.76,52.84,52.84,0,0,1-3,5.08c0,.16-.15.24-.23.39a23.07,23.07,0,0,1-6.57,6.11A10.47,10.47,0,0,1,876.3,924a7.21,7.21,0,0,1-3.12.23C869.34,923.83,866.84,920.55,866.84,915.15Z" />
    <path class="cls-75"
        d="M866.84,915.15c0,5.4,2.5,8.68,6.34,9.07a7.21,7.21,0,0,0,3.12-.23,7,7,0,0,1-2.58-.71c-2.19-1.17-3.6-3.83-3.6-7.66,0-7.43,5.32-16.59,11.82-20.34,3.44-2,6.49-2,8.68-.63a5.5,5.5,0,0,1,1.72,1.8,9.68,9.68,0,0,0-1.17-2.74c-2.27-3.28-6.49-3.91-11.35-1.09C872.63,896.84,866.84,906.86,866.84,915.15Z" />
    <path class="cls-72"
        d="M866.84,915.15c0,5.4,2.5,8.68,6.34,9.07a7.21,7.21,0,0,0,3.12-.23,7,7,0,0,1-2.58-.71c-2.19-1.17-3.6-3.83-3.6-7.66,0-7.43,5.32-16.59,11.82-20.34,3.44-2,6.49-2,8.68-.63a5.5,5.5,0,0,1,1.72,1.8,9.68,9.68,0,0,0-1.17-2.74c-2.27-3.28-6.49-3.91-11.35-1.09C872.63,896.84,866.84,906.86,866.84,915.15Z" />
    <path class="cls-74"
        d="M870.12,915.62c0,3.83,1.41,6.49,3.6,7.66a7,7,0,0,0,2.58.71,10.47,10.47,0,0,0,5.64-1.64,23.07,23.07,0,0,0,6.57-6.11c.08-.15.23-.23.23-.39a52.84,52.84,0,0,0,3-5.08,22.71,22.71,0,0,0,2-8.76,10.62,10.62,0,0,0-1.41-5.56,5.5,5.5,0,0,0-1.72-1.8c-2.19-1.4-5.24-1.33-8.68.63C875.44,899,870.12,908.19,870.12,915.62Z" />
    <path class="cls-75"
        d="M874.51,882.61a3,3,0,0,0,3.2-.16,9.2,9.2,0,0,0,4.07-6.18A67.59,67.59,0,0,0,874.51,882.61Z" />
    <path class="cls-75"
        d="M864.65,895a8,8,0,0,0,.78-.93,8.66,8.66,0,0,0,.94-1.65C865.75,893.32,865.2,894.18,864.65,895Z" />
    <path class="cls-75"
        d="M855.65,914.44a9.43,9.43,0,0,0,2.19-4A5.52,5.52,0,0,0,858,908c-.39.86-.7,1.72-1,2.58a19.53,19.53,0,0,0-.78,2.27A15.79,15.79,0,0,0,855.65,914.44Z" />
    <path class="cls-75"
        d="M853.15,930.33a28.34,28.34,0,0,0,.23,3.67,5.55,5.55,0,0,0,1.8-1.25c2.19-2,3.37-5.4,2.66-7.51-.62-1.8-2.34-2.11-4.3-.86v.08A51.34,51.34,0,0,0,853.15,930.33Z" />
    <path class="cls-75"
        d="M860.58,943.39a3.28,3.28,0,0,0,1.25,0c1.57-.39,3.52-2.19,4.54-4.46a6.62,6.62,0,0,0,.63-4.38,2.35,2.35,0,0,0-1.57-1.72c-1.88-.47-4.46,1.48-5.79,4.38S858.7,942.92,860.58,943.39Z" />
    <path class="cls-75"
        d="M873.57,937.44c0,2.66,1.87,3.76,4.14,2.43a9.24,9.24,0,0,0,4.15-7.2c0-2.27-1.33-3.36-3.13-2.74a3.34,3.34,0,0,0-1,.4,9.36,9.36,0,0,0-3.83,5.08A9.64,9.64,0,0,0,873.57,937.44Z" />
    <path class="cls-75"
        d="M889.06,925.87c1.33,1.33,3.91.31,5.78-2.35s2.27-5.79.94-7.2-4-.31-5.79,2.35S887.73,924.46,889.06,925.87Z" />
    <path class="cls-75"
        d="M900.24,906.78c2.19-.47,4.54-3.21,5.24-6.1s-.54-4.93-2.73-4.46-4.46,3.13-5.17,6.1S898.05,907.25,900.24,906.78Z" />
    <path class="cls-75"
        d="M897.5,887.54c.63,1.56,2,2,3.6,1.17a7.62,7.62,0,0,0,1.65-1.17c2.19-2,3.44-5.48,2.73-7.59a2.15,2.15,0,0,0-1.87-1.49,4.45,4.45,0,0,0-3.45,1.49C898.05,882.06,896.8,885.42,897.5,887.54Z" />
    <path class="cls-75"
        d="M890,880c1.8.47,4.39-1.57,5.79-4.46,1.18-2.51,1-5-.39-5.87h-.08a17.05,17.05,0,0,0-2.5.71c-.62.23-1.25.46-1.95.78a9,9,0,0,0-1.8,2.66C887.65,876.74,888.12,879.48,890,880Z" />
    <path class="cls-76"
        d="M472.44,1107.6c.08.16.24.23.32.39l.15-.23A1.05,1.05,0,0,0,472.44,1107.6Z" />
    <path class="cls-77" d="M471.58,1107.44c.32.08.55.08.78.16l-.07-.08Z" />
    <path class="cls-78"
        d="M465.64,1107.37a21,21,0,0,1,3.83-.16,3.74,3.74,0,0,0-.94-.08h-.31c-.55,0-1,.08-1.49.08C466.42,1107.29,466,1107.29,465.64,1107.37Z" />
    <path class="cls-79"
        d="M457.42,1118.24c1.8.47,4.38-1.57,5.79-4.46,1.18-2.5,1-5-.39-5.87h-.08a17.05,17.05,0,0,0-2.5.71c-.63.23-1.25.47-1.95.78a9,9,0,0,0-1.8,2.66C455.08,1115,455.55,1117.77,457.42,1118.24Z" />
    <path class="cls-80"
        d="M441.94,1120.9a3,3,0,0,0,3.2-.16,9.2,9.2,0,0,0,4.07-6.18A67.59,67.59,0,0,0,441.94,1120.9Z" />
    <path class="cls-81"
        d="M434.27,1153.44c0,5.4,2.5,8.68,6.34,9.08l.54-.94c-2.19-1.18-3.6-3.84-3.6-7.67,0-7.43,5.32-16.58,11.82-20.34,3.44-2,6.49-2,8.68-.62l.55-.94c-2.27-3.29-6.5-3.91-11.35-1.1C440.06,1135.14,434.27,1145.15,434.27,1153.44Z" />
    <path class="cls-82"
        d="M432.08,1133.34a9,9,0,0,0,.78-.94,9.53,9.53,0,0,0,.94-1.64C433.17,1131.62,432.63,1132.48,432.08,1133.34Z" />
    <path class="cls-83"
        d="M430.2,1136.47c.63-1.1,1.25-2.12,1.88-3.13-.63.94-1.17,2-1.8,2.89A.29.29,0,0,0,430.2,1136.47Z" />
    <path class="cls-84"
        d="M425.43,1146.24c.47-1.09.94-2.19,1.41-3.36-.24.47-.39.94-.63,1.33C426,1144.91,425.66,1145.54,425.43,1146.24Z" />
    <path class="cls-85"
        d="M423.08,1152.74a9.53,9.53,0,0,0,2.19-4,5.67,5.67,0,0,0,.16-2.51c-.39.86-.7,1.73-1,2.59a18.75,18.75,0,0,0-.78,2.26A15.2,15.2,0,0,0,423.08,1152.74Z" />
    <path class="cls-86"
        d="M422.22,1179.33a6.63,6.63,0,0,0,.39,1.26c.16.23.24.54.39.78A16.94,16.94,0,0,1,422.22,1179.33Z" />
    <path class="cls-87"
        d="M421.36,1176.28l.24,1.18a2.5,2.5,0,0,1,.31.78A14,14,0,0,1,421.36,1176.28Z" />
    <path class="cls-88"
        d="M420.81,1172.53c.08.7.16,1.41.24,2a7.83,7.83,0,0,0,.23,1.25C421.13,1174.72,421,1173.7,420.81,1172.53Z" />
    <path class="cls-89"
        d="M420.58,1168.62a28.22,28.22,0,0,0,.23,3.67,5.55,5.55,0,0,0,1.8-1.25c2.19-2,3.37-5.4,2.66-7.51-.62-1.8-2.34-2.11-4.3-.86v.08A51.49,51.49,0,0,0,420.58,1168.62Z" />
    <path class="cls-90"
        d="M416.2,1168.77c0,9,2.53,15.71,6.86,20a5.29,5.29,0,0,0,1.26,1.13l.34-.47a6.61,6.61,0,0,1-.93-1.13c-3.47-4.26-5.4-10.52-5.4-18.3a45.29,45.29,0,0,1,.27-5.2c2.13-21.23,17.11-45.26,35.08-55.71,6.86-4,13.38-5.46,18.84-4.59a10.89,10.89,0,0,1,2.06.46h.07l.2-.4c-.73-.26-1.53-.6-2.33-.86-5.93-1.53-13.12-.4-21,4.19C432,1119.11,416.2,1146.33,416.2,1168.77Z" />
    <path class="cls-77" d="M471.58,1107.44c.32.08.55.08.78.16l-.07-.08Z" />
    <path class="cls-78"
        d="M465.64,1107.37a21,21,0,0,1,3.83-.16,3.74,3.74,0,0,0-.94-.08h-.31c-.55,0-1,.08-1.49.08C466.42,1107.29,466,1107.29,465.64,1107.37Z" />
    <path class="cls-79"
        d="M457.42,1118.24c1.8.47,4.38-1.57,5.79-4.46,1.18-2.5,1-5-.39-5.87h-.08a17.05,17.05,0,0,0-2.5.71c-.63.23-1.25.47-1.95.78a9,9,0,0,0-1.8,2.66C455.08,1115,455.55,1117.77,457.42,1118.24Z" />
    <path class="cls-80"
        d="M441.94,1120.9a3,3,0,0,0,3.2-.16,9.2,9.2,0,0,0,4.07-6.18A67.59,67.59,0,0,0,441.94,1120.9Z" />
    <path class="cls-82"
        d="M432.08,1133.34a9,9,0,0,0,.78-.94,9.53,9.53,0,0,0,.94-1.64C433.17,1131.62,432.63,1132.48,432.08,1133.34Z" />
    <path class="cls-83"
        d="M430.2,1136.47c.63-1.1,1.25-2.12,1.88-3.13-.63.94-1.17,2-1.8,2.89A.29.29,0,0,0,430.2,1136.47Z" />
    <path class="cls-91"
        d="M434.27,1153.44c0,5.4,2.5,8.68,6.34,9.08a7.38,7.38,0,0,0,3.12-.24,7.15,7.15,0,0,1-2.58-.7c-2.19-1.18-3.6-3.84-3.6-7.67,0-7.43,5.32-16.58,11.82-20.34,3.44-2,6.49-2,8.68-.62a5.47,5.47,0,0,1,1.72,1.79,9.5,9.5,0,0,0-1.17-2.73c-2.27-3.29-6.5-3.91-11.35-1.1C440.06,1135.14,434.27,1145.15,434.27,1153.44Z" />
    <path class="cls-84"
        d="M425.43,1146.24c.47-1.09.94-2.19,1.41-3.36-.24.47-.39.94-.63,1.33C426,1144.91,425.66,1145.54,425.43,1146.24Z" />
    <path class="cls-85"
        d="M423.08,1152.74a9.53,9.53,0,0,0,2.19-4,5.67,5.67,0,0,0,.16-2.51c-.39.86-.7,1.73-1,2.59a18.75,18.75,0,0,0-.78,2.26A15.2,15.2,0,0,0,423.08,1152.74Z" />
    <path class="cls-86"
        d="M422.22,1179.33a6.63,6.63,0,0,0,.39,1.26c.16.23.24.54.39.78A16.94,16.94,0,0,1,422.22,1179.33Z" />
    <path class="cls-87"
        d="M421.36,1176.28l.24,1.18a2.5,2.5,0,0,1,.31.78A14,14,0,0,1,421.36,1176.28Z" />
    <path class="cls-88"
        d="M420.81,1172.53c.08.7.16,1.41.24,2a7.83,7.83,0,0,0,.23,1.25C421.13,1174.72,421,1173.7,420.81,1172.53Z" />
    <path class="cls-89"
        d="M420.58,1168.62a28.22,28.22,0,0,0,.23,3.67,5.55,5.55,0,0,0,1.8-1.25c2.19-2,3.37-5.4,2.66-7.51-.62-1.8-2.34-2.11-4.3-.86v.08A51.49,51.49,0,0,0,420.58,1168.62Z" />
    <path class="cls-92"
        d="M416.2,1168.77c0,9,2.53,15.71,6.86,20,.27-.2.4-.27.67-.47-3.47-4.26-5.4-10.52-5.4-18.3a45.29,45.29,0,0,1,.27-5.2c2.13-21.23,17.11-45.26,35.08-55.71,6.86-4,13.38-5.46,18.84-4.59a3.56,3.56,0,0,0,0-.8c-5.93-1.53-13.12-.4-21,4.19C432,1119.11,416.2,1146.33,416.2,1168.77Z" />
    <path class="cls-93" d="M471.58,1107.44c.32.08.55.08.78.16l-.07-.08Z" />
    <path class="cls-94"
        d="M465.64,1107.37a21,21,0,0,1,3.83-.16,3.74,3.74,0,0,0-.94-.08h-.31c-.55,0-1,.08-1.49.08C466.42,1107.29,466,1107.29,465.64,1107.37Z" />
    <path class="cls-95"
        d="M467.67,1145.07c2.19-.47,4.54-3.21,5.24-6.1s-.55-4.93-2.73-4.46-4.46,3.13-5.17,6.1S465.48,1145.54,467.67,1145.07Z" />
    <path class="cls-96"
        d="M456.49,1164.16c1.33,1.33,3.91.31,5.78-2.35s2.27-5.79.94-7.2-4-.31-5.79,2.35S455.15,1162.75,456.49,1164.16Z" />
    <path class="cls-97"
        d="M457.42,1118.24c1.8.47,4.38-1.57,5.79-4.46,1.18-2.5,1-5-.39-5.87h-.08a17.05,17.05,0,0,0-2.5.71c-.63.23-1.25.47-1.95.78a9,9,0,0,0-1.8,2.66C455.08,1115,455.55,1117.77,457.42,1118.24Z" />
    <path class="cls-98"
        d="M441.94,1120.9a3,3,0,0,0,3.2-.16,9.2,9.2,0,0,0,4.07-6.18A67.59,67.59,0,0,0,441.94,1120.9Z" />
    <path class="cls-99"
        d="M432.08,1133.34a9,9,0,0,0,.78-.94,9.53,9.53,0,0,0,.94-1.64C433.17,1131.62,432.63,1132.48,432.08,1133.34Z" />
    <path class="cls-100"
        d="M430.2,1136.47c.63-1.1,1.25-2.12,1.88-3.13-.63.94-1.17,2-1.8,2.89A.29.29,0,0,0,430.2,1136.47Z" />
    <path class="cls-101"
        d="M483.79,1147.5c-.32,1.09-.71,2.19-1.1,3.28a39.59,39.59,0,0,0,1.41-4A2.74,2.74,0,0,0,483.79,1147.5Z" />
    <path class="cls-102"
        d="M475.89,1108.7a4.62,4.62,0,0,0-1.1-.4,7,7,0,0,1,1.72.87l.08.07a.83.83,0,0,1,.39.08c-.23-.15-.47-.23-.7-.39a140490442381.47,140490442381.47,0,0,0-.32-.16C475.89,1108.77,475.89,1108.77,475.89,1108.7Z" />
    <path class="cls-103" d="M472.91,1107.76a1.05,1.05,0,0,0-.47-.16c.08.16.24.23.32.39Z" />
    <path class="cls-104"
        d="M447.8,1190.29a33.31,33.31,0,0,0,3.84-1.72c-.63.31-1.33.62-2,.86S448.43,1190.05,447.8,1190.29Z" />
    <path class="cls-105"
        d="M434.27,1153.44c0,5.4,2.5,8.68,6.34,9.08a7.38,7.38,0,0,0,3.12-.24,7.15,7.15,0,0,1-2.58-.7c-2.19-1.18-3.6-3.84-3.6-7.67,0-7.43,5.32-16.58,11.82-20.34,3.44-2,6.49-2,8.68-.62a5.47,5.47,0,0,1,1.72,1.79,9.5,9.5,0,0,0-1.17-2.73c-2.27-3.29-6.5-3.91-11.35-1.1C440.06,1135.14,434.27,1145.15,434.27,1153.44Z" />
    <path class="cls-106"
        d="M425.43,1146.24c.47-1.09.94-2.19,1.41-3.36-.24.47-.39.94-.63,1.33C426,1144.91,425.66,1145.54,425.43,1146.24Z" />
    <path class="cls-107"
        d="M423.08,1152.74a9.53,9.53,0,0,0,2.19-4,5.67,5.67,0,0,0,.16-2.51c-.39.86-.7,1.73-1,2.59a18.75,18.75,0,0,0-.78,2.26A15.2,15.2,0,0,0,423.08,1152.74Z" />
    <path class="cls-108"
        d="M422.22,1179.33a6.63,6.63,0,0,0,.39,1.26c.16.23.24.54.39.78A16.94,16.94,0,0,1,422.22,1179.33Z" />
    <path class="cls-109"
        d="M421.36,1176.28l.24,1.18a2.5,2.5,0,0,1,.31.78A14,14,0,0,1,421.36,1176.28Z" />
    <path class="cls-110"
        d="M420.81,1172.53c.08.7.16,1.41.24,2a7.83,7.83,0,0,0,.23,1.25C421.13,1174.72,421,1173.7,420.81,1172.53Z" />
    <path class="cls-111"
        d="M420.58,1168.62a28.22,28.22,0,0,0,.23,3.67,5.55,5.55,0,0,0,1.8-1.25c2.19-2,3.37-5.4,2.66-7.51-.62-1.8-2.34-2.11-4.3-.86v.08A51.49,51.49,0,0,0,420.58,1168.62Z" />
    <path class="cls-112"
        d="M416.2,1168.77c0,9,2.53,15.71,6.86,20a5.29,5.29,0,0,0,1.26,1.13l.07.13a20.14,20.14,0,0,0,3.13,1.93,16.87,16.87,0,0,1-2.86-2.53,6.61,6.61,0,0,1-.93-1.13c-3.47-4.26-5.4-10.52-5.4-18.3a45.29,45.29,0,0,1,.27-5.2c2.13-21.23,17.11-45.26,35.08-55.71,6.86-4,13.38-5.46,18.84-4.59a10.89,10.89,0,0,1,2.06.46h.07a16.57,16.57,0,0,1,2.93,1.13,9.29,9.29,0,0,0-2.73-1.53c-.73-.26-1.53-.6-2.33-.86-5.93-1.53-13.12-.4-21,4.19C432,1119.11,416.2,1146.33,416.2,1168.77Z" />
    <path class="cls-51"
        d="M410.22,1206.68c9.77,4.46,24.95,7,39.13-1.24,28.09-16.17,50.86-55.44,50.86-87.66,0-9.92-2.2-18.11-6-24.1a24.52,24.52,0,0,0-8.19-8.12L462.53,1072l-54.11,31.25A54.75,54.75,0,0,0,384.69,1131l-5.83,15.14-4.94,32.59S410,1206.6,410.22,1206.68Zm6-37.91c0-22.44,15.78-49.66,35.28-60.91,7.92-4.59,15.11-5.72,21-4.19.8.26,1.6.6,2.33.86a9.29,9.29,0,0,1,2.73,1.53c7,3.33,11.38,11.39,11.38,23.1,0,22.43-15.84,49.66-35.28,61-10.38,5.93-19.7,6.2-26.16,1.8a20.14,20.14,0,0,1-3.13-1.93l-.07-.13a5.29,5.29,0,0,1-1.26-1.13C418.73,1184.48,416.2,1177.75,416.2,1168.77Z" />
    <path class="cls-113" d="M471.58,1107.44c.32.08.55.08.78.16l-.07-.08Z" />
    <path class="cls-114"
        d="M465.64,1107.37a21,21,0,0,1,3.83-.16,3.74,3.74,0,0,0-.94-.08h-.31c-.55,0-1,.08-1.49.08C466.42,1107.29,466,1107.29,465.64,1107.37Z" />
    <path class="cls-115"
        d="M467.67,1145.07c2.19-.47,4.54-3.21,5.24-6.1s-.55-4.93-2.73-4.46-4.46,3.13-5.17,6.1S465.48,1145.54,467.67,1145.07Z" />
    <path class="cls-116"
        d="M456.49,1164.16c1.33,1.33,3.91.31,5.78-2.35s2.27-5.79.94-7.2-4-.31-5.79,2.35S455.15,1162.75,456.49,1164.16Z" />
    <path class="cls-117"
        d="M457.42,1118.24c1.8.47,4.38-1.57,5.79-4.46,1.18-2.5,1-5-.39-5.87h-.08a17.05,17.05,0,0,0-2.5.71c-.63.23-1.25.47-1.95.78a9,9,0,0,0-1.8,2.66C455.08,1115,455.55,1117.77,457.42,1118.24Z" />
    <path class="cls-118"
        d="M441.94,1120.9a3,3,0,0,0,3.2-.16,9.2,9.2,0,0,0,4.07-6.18A67.59,67.59,0,0,0,441.94,1120.9Z" />
    <path class="cls-119"
        d="M432.08,1133.34a9,9,0,0,0,.78-.94,9.53,9.53,0,0,0,.94-1.64C433.17,1131.62,432.63,1132.48,432.08,1133.34Z" />
    <path class="cls-120"
        d="M430.2,1136.47c.63-1.1,1.25-2.12,1.88-3.13-.63.94-1.17,2-1.8,2.89A.29.29,0,0,0,430.2,1136.47Z" />
    <path class="cls-121"
        d="M483.79,1147.5c-.32,1.09-.71,2.19-1.1,3.28a39.59,39.59,0,0,0,1.41-4A2.74,2.74,0,0,0,483.79,1147.5Z" />
    <path class="cls-122"
        d="M475.89,1108.7a4.62,4.62,0,0,0-1.1-.4,7,7,0,0,1,1.72.87l.08.07a.83.83,0,0,1,.39.08c-.23-.15-.47-.23-.7-.39a140490442381.47,140490442381.47,0,0,0-.32-.16C475.89,1108.77,475.89,1108.77,475.89,1108.7Z" />
    <path class="cls-123" d="M472.91,1107.76a1.05,1.05,0,0,0-.47-.16c.08.16.24.23.32.39Z" />
    <path class="cls-124"
        d="M447.8,1190.29a33.31,33.31,0,0,0,3.84-1.72c-.63.31-1.33.62-2,.86S448.43,1190.05,447.8,1190.29Z" />
    <path class="cls-125"
        d="M434.27,1153.44c0,5.4,2.5,8.68,6.34,9.08a7.38,7.38,0,0,0,3.12-.24,7.15,7.15,0,0,1-2.58-.7c-2.19-1.18-3.6-3.84-3.6-7.67,0-7.43,5.32-16.58,11.82-20.34,3.44-2,6.49-2,8.68-.62a5.47,5.47,0,0,1,1.72,1.79,9.5,9.5,0,0,0-1.17-2.73c-2.27-3.29-6.5-3.91-11.35-1.1C440.06,1135.14,434.27,1145.15,434.27,1153.44Z" />
    <path class="cls-126"
        d="M425.43,1146.24c.47-1.09.94-2.19,1.41-3.36-.24.47-.39.94-.63,1.33C426,1144.91,425.66,1145.54,425.43,1146.24Z" />
    <path class="cls-127"
        d="M423.08,1152.74a9.53,9.53,0,0,0,2.19-4,5.67,5.67,0,0,0,.16-2.51c-.39.86-.7,1.73-1,2.59a18.75,18.75,0,0,0-.78,2.26A15.2,15.2,0,0,0,423.08,1152.74Z" />
    <path class="cls-128"
        d="M422.22,1179.33a6.63,6.63,0,0,0,.39,1.26c.16.23.24.54.39.78A16.94,16.94,0,0,1,422.22,1179.33Z" />
    <path class="cls-129"
        d="M421.36,1176.28l.24,1.18a2.5,2.5,0,0,1,.31.78A14,14,0,0,1,421.36,1176.28Z" />
    <path class="cls-130"
        d="M420.81,1172.53c.08.7.16,1.41.24,2a7.83,7.83,0,0,0,.23,1.25C421.13,1174.72,421,1173.7,420.81,1172.53Z" />
    <path class="cls-131"
        d="M420.58,1168.62a28.22,28.22,0,0,0,.23,3.67,5.55,5.55,0,0,0,1.8-1.25c2.19-2,3.37-5.4,2.66-7.51-.62-1.8-2.34-2.11-4.3-.86v.08A51.49,51.49,0,0,0,420.58,1168.62Z" />
    <path class="cls-132"
        d="M416.2,1168.77c0,9,2.53,15.71,6.86,20a5.29,5.29,0,0,0,1.26,1.13l.07.13a20.14,20.14,0,0,0,3.13,1.93,16.87,16.87,0,0,1-2.86-2.53,6.61,6.61,0,0,1-.93-1.13c-3.47-4.26-5.4-10.52-5.4-18.3a45.29,45.29,0,0,1,.27-5.2c2.13-21.23,17.11-45.26,35.08-55.71,6.86-4,13.38-5.46,18.84-4.59a10.89,10.89,0,0,1,2.06.46h.07a16.57,16.57,0,0,1,2.93,1.13,9.29,9.29,0,0,0-2.73-1.53c-.73-.26-1.53-.6-2.33-.86-5.93-1.53-13.12-.4-21,4.19C432,1119.11,416.2,1146.33,416.2,1168.77Z" />
    <path class="cls-72"
        d="M467.67,1145.07c2.19-.47,4.54-3.21,5.24-6.1s-.55-4.93-2.73-4.46-4.46,3.13-5.17,6.1S465.48,1145.54,467.67,1145.07Z" />
    <path class="cls-72"
        d="M456.49,1164.16c1.33,1.33,3.91.31,5.78-2.35s2.27-5.79.94-7.2-4-.31-5.79,2.35S455.15,1162.75,456.49,1164.16Z" />
    <path class="cls-72"
        d="M457.42,1118.24c1.8.47,4.38-1.57,5.79-4.46,1.18-2.5,1-5-.39-5.87h-.08a17.05,17.05,0,0,0-2.5.71c-.63.23-1.25.47-1.95.78a9,9,0,0,0-1.8,2.66C455.08,1115,455.55,1117.77,457.42,1118.24Z" />
    <path class="cls-72"
        d="M441.94,1120.9a3,3,0,0,0,3.2-.16,9.2,9.2,0,0,0,4.07-6.18A67.59,67.59,0,0,0,441.94,1120.9Z" />
    <path class="cls-72"
        d="M432.08,1133.34a9,9,0,0,0,.78-.94,9.53,9.53,0,0,0,.94-1.64C433.17,1131.62,432.63,1132.48,432.08,1133.34Z" />
    <path class="cls-72"
        d="M483.79,1147.5c-.32,1.09-.71,2.19-1.1,3.28a39.59,39.59,0,0,0,1.41-4A2.74,2.74,0,0,0,483.79,1147.5Z" />
    <path class="cls-72" d="M472.91,1107.76a1.05,1.05,0,0,0-.47-.16c.08.16.24.23.32.39Z" />
    <path class="cls-72"
        d="M447.8,1190.29a33.31,33.31,0,0,0,3.84-1.72c-.63.31-1.33.62-2,.86S448.43,1190.05,447.8,1190.29Z" />
    <path class="cls-72"
        d="M434.27,1153.44c0,5.4,2.5,8.68,6.34,9.08a7.38,7.38,0,0,0,3.12-.24,7.15,7.15,0,0,1-2.58-.7c-2.19-1.18-3.6-3.84-3.6-7.67,0-7.43,5.32-16.58,11.82-20.34,3.44-2,6.49-2,8.68-.62a5.47,5.47,0,0,1,1.72,1.79,9.5,9.5,0,0,0-1.17-2.73c-2.27-3.29-6.5-3.91-11.35-1.1C440.06,1135.14,434.27,1145.15,434.27,1153.44Z" />
    <path class="cls-72"
        d="M423.08,1152.74a9.53,9.53,0,0,0,2.19-4,5.67,5.67,0,0,0,.16-2.51c-.39.86-.7,1.73-1,2.59a18.75,18.75,0,0,0-.78,2.26A15.2,15.2,0,0,0,423.08,1152.74Z" />
    <path class="cls-72"
        d="M420.58,1168.62a28.22,28.22,0,0,0,.23,3.67,5.55,5.55,0,0,0,1.8-1.25c2.19-2,3.37-5.4,2.66-7.51-.62-1.8-2.34-2.11-4.3-.86v.08A51.49,51.49,0,0,0,420.58,1168.62Z" />
    <path class="cls-72"
        d="M447.8,1190.29a33.31,33.31,0,0,0,3.84-1.72c-.63.31-1.33.62-2,.86S448.43,1190.05,447.8,1190.29Zm29.18-81c-.23-.15-.47-.23-.7-.39l.23.24.08.07A.83.83,0,0,1,477,1109.32Zm-60.78,59.45c0,9,2.53,15.71,6.86,20a5.29,5.29,0,0,0,1.26,1.13l.07.13a20.14,20.14,0,0,0,3.13,1.93,16.87,16.87,0,0,1-2.86-2.53,6.61,6.61,0,0,1-.93-1.13c-3.47-4.26-5.4-10.52-5.4-18.3a45.29,45.29,0,0,1,.27-5.2c2.13-21.23,17.11-45.26,35.08-55.71,6.86-4,13.38-5.46,18.84-4.59a10.89,10.89,0,0,1,2.06.46h.07a16.57,16.57,0,0,1,2.93,1.13,9.29,9.29,0,0,0-2.73-1.53c-.73-.26-1.53-.6-2.33-.86-5.93-1.53-13.12-.4-21,4.19C432,1119.11,416.2,1146.33,416.2,1168.77Z" />
    <path class="cls-73"
        d="M467.67,1145.07c2.19-.47,4.54-3.21,5.24-6.1s-.55-4.93-2.73-4.46-4.46,3.13-5.17,6.1S465.48,1145.54,467.67,1145.07Z" />
    <path class="cls-73"
        d="M456.49,1164.16c1.33,1.33,3.91.31,5.78-2.35s2.27-5.79.94-7.2-4-.31-5.79,2.35S455.15,1162.75,456.49,1164.16Z" />
    <path class="cls-73"
        d="M457.42,1118.24c1.8.47,4.38-1.57,5.79-4.46,1.18-2.5,1-5-.39-5.87h-.08a17.05,17.05,0,0,0-2.5.71c-.63.23-1.25.47-1.95.78a9,9,0,0,0-1.8,2.66C455.08,1115,455.55,1117.77,457.42,1118.24Z" />
    <path class="cls-73"
        d="M441.94,1120.9a3,3,0,0,0,3.2-.16,9.2,9.2,0,0,0,4.07-6.18A67.59,67.59,0,0,0,441.94,1120.9Z" />
    <path class="cls-73"
        d="M432.08,1133.34a9,9,0,0,0,.78-.94,9.53,9.53,0,0,0,.94-1.64C433.17,1131.62,432.63,1132.48,432.08,1133.34Z" />
    <path class="cls-73"
        d="M434.27,1153.44c0,5.4,2.5,8.68,6.34,9.08a7.38,7.38,0,0,0,3.12-.24,7.15,7.15,0,0,1-2.58-.7c-2.19-1.18-3.6-3.84-3.6-7.67,0-7.43,5.32-16.58,11.82-20.34,3.44-2,6.49-2,8.68-.62a5.47,5.47,0,0,1,1.72,1.79,9.5,9.5,0,0,0-1.17-2.73c-2.27-3.29-6.5-3.91-11.35-1.1C440.06,1135.14,434.27,1145.15,434.27,1153.44Z" />
    <path class="cls-73"
        d="M423.08,1152.74a9.53,9.53,0,0,0,2.19-4,5.67,5.67,0,0,0,.16-2.51c-.39.86-.7,1.73-1,2.59a18.75,18.75,0,0,0-.78,2.26A15.2,15.2,0,0,0,423.08,1152.74Z" />
    <path class="cls-73"
        d="M420.58,1168.62a28.22,28.22,0,0,0,.23,3.67,5.55,5.55,0,0,0,1.8-1.25c2.19-2,3.37-5.4,2.66-7.51-.62-1.8-2.34-2.11-4.3-.86v.08A51.49,51.49,0,0,0,420.58,1168.62Z" />
    <path class="cls-74"
        d="M482.69,1150.78a39.59,39.59,0,0,0,1.41-4,2.74,2.74,0,0,0-.31.71C483.47,1148.59,483.08,1149.69,482.69,1150.78Zm-34.89,39.51a33.31,33.31,0,0,0,3.84-1.72c-.63.31-1.33.62-2,.86S448.43,1190.05,447.8,1190.29Z" />
    <path class="cls-74"
        d="M418.33,1170c0,7.78,1.93,14,5.4,18.3a6.61,6.61,0,0,0,.93,1.13,16.87,16.87,0,0,0,2.86,2.53c6.46,4.4,15.78,4.13,26.16-1.8,19.44-11.31,35.28-38.54,35.28-61,0-11.71-4.4-19.77-11.38-23.1a16.57,16.57,0,0,0-2.93-1.13h-.07a10.89,10.89,0,0,0-2.06-.46c-5.46-.87-12,.59-18.84,4.59-18,10.45-32.95,34.48-35.08,55.71A45.29,45.29,0,0,0,418.33,1170Zm2.27-1.34a43.36,43.36,0,0,1,.4-5.85v-.14c.06-.73.2-1.53.33-2.39s.33-1.73.53-2.6v-.07a2.36,2.36,0,0,1,.13-.53,1.49,1.49,0,0,1,.14-.53v-.27c.06-.33.2-.6.26-.93a24.78,24.78,0,0,1,.67-2.4v-.19a14.11,14.11,0,0,1,.6-1.6c.2-.8.47-1.6.73-2.33s.67-1.67,1.07-2.53l.4-1a7.3,7.3,0,0,0,.33-1.07c.26-.39.4-.86.66-1.33.4-.86.87-1.79,1.33-2.66a2.21,2.21,0,0,1,.27-.53c.6-1.13,1.13-2.2,1.73-3.2,0-.06,0-.2.07-.26a9.17,9.17,0,0,0,.86-1.33c.34-.54.6-1.07.94-1.54.59-.86,1.13-1.73,1.73-2.59,0-.07,0-.07.13-.13.6-.8,1.13-1.67,1.8-2.53s1.33-1.73,2-2.53a56.66,56.66,0,0,1,4.26-4.66,64.76,64.76,0,0,1,7.26-6.33,12.86,12.86,0,0,1,2.2-1.53c.8-.53,1.46-.93,2.26-1.39a24.73,24.73,0,0,1,2.33-1.27,9,9,0,0,0,1.2-.53c1.06-.47,2.13-.93,3.06-1.27a17.24,17.24,0,0,1,2.46-.66h.07c.13,0,.2-.07.26-.07a6.47,6.47,0,0,1,1-.27,6,6,0,0,1,.94-.13c.26,0,.39-.07.66-.07a8.23,8.23,0,0,1,1.07-.2c.46,0,.93-.06,1.46-.06h.33a4.6,4.6,0,0,1,.94.06,4.13,4.13,0,0,1,1,.07,5.64,5.64,0,0,1,1.14.2,2.15,2.15,0,0,1,.39.07h.34l.06.06h.07a1.26,1.26,0,0,1,.47.14H473l1.4.4c.2.06.27.06.4.2a4.93,4.93,0,0,1,.93.33.23.23,0,0,1,.2.07c0,.06,0,.06.07.06a.21.21,0,0,0,.13.07.24.24,0,0,0,.13.07,5.6,5.6,0,0,1,.74.4c.06,0,.13.06.26.06a.07.07,0,0,1,.07.07.06.06,0,0,0,.07.06c.06,0,.13.14.2.2a2.18,2.18,0,0,1,.33.2c.06.14.06.14.13.2a5,5,0,0,1,.6.27c0,.13.07.13.07.13h.06a1.91,1.91,0,0,1,.34.2l.13.14a11.25,11.25,0,0,1,.93.86l.47.47c.2.2.26.33.4.46a7.82,7.82,0,0,1,.73.87,6.13,6.13,0,0,1,1,1.46l.46.74c.14.33.34.59.47.86s.4.8.53,1.2a.38.38,0,0,1,.2.33,3,3,0,0,1,.27.8c.26.53.4,1.07.6,1.6.06.06.06.13.06.33v.07a2.68,2.68,0,0,1,.2.8.62.62,0,0,1,.2.53c0,.07.07.13.07.2v.13c0,.07.07.2.07.27a16.24,16.24,0,0,1,.33,1.66,1.08,1.08,0,0,1,.07.47c0,.13.06.33.06.46v.07a4.49,4.49,0,0,1,.07.93.86.86,0,0,1,.07.33c0,.47.13.94.13,1.4,0,.74.07,1.6.07,2.33a10.34,10.34,0,0,1-.07,1.47v.53c0,1.13-.2,2.33-.27,3.46s-.33,2.33-.53,3.4c-.27,1.39-.47,2.72-.87,4.26,0,.06-.06.2-.06.26-.2.73-.4,1.47-.54,2.13a3.13,3.13,0,0,0-.26.8,12.67,12.67,0,0,1-.73,2.06c-.2.67-.47,1.27-.67,1.93-.06.2-.2.54-.33.87a65.68,65.68,0,0,1-3,6.72,37.7,37.7,0,0,1-1.93,3.6,22,22,0,0,1-1.4,2.46c-.79,1.33-1.72,2.66-2.59,3.93l-1.13,1.66a8.14,8.14,0,0,1-.67.87,3.64,3.64,0,0,1-.6.8c0,.06,0,.06-.06.13a.67.67,0,0,0-.27.33c-.87,1.07-1.73,2.07-2.6,3.13-.2.2-.46.53-.66.73-.73.8-1.4,1.47-2.13,2.13a54.77,54.77,0,0,1-4.13,3.93c-.73.53-1.33,1.07-2,1.66a2.47,2.47,0,0,0-.53.34,28.91,28.91,0,0,1-3.13,2.13c-.06.06-.13.2-.2.26a14.32,14.32,0,0,0-1.66,1,21.6,21.6,0,0,1-2.06,1.07c-.34.13-.6.33-1,.46a9.34,9.34,0,0,1-1.87.87c-.33.13-.66.26-.93.4-1.26.46-2.53.8-3.79,1.13a20,20,0,0,1-2.73.47,4.6,4.6,0,0,1-.87.06,15.92,15.92,0,0,1-3.52,0,5.71,5.71,0,0,1-1.2-.13,17,17,0,0,1-2.2-.6,6.71,6.71,0,0,1-1.66-.6,4,4,0,0,1-1.07-.53c-.13,0-.13-.07-.2-.07s-.2-.13-.33-.2a2.64,2.64,0,0,1-.8-.53h-.13a.07.07,0,0,0-.07-.07c-.13-.06-.2-.2-.4-.26a3.85,3.85,0,0,1-1.13-.94,18.54,18.54,0,0,1-1.33-1.33h-.07v-.06c-.13,0-.13-.07-.13-.07-.27-.4-.6-.73-.93-1.13a16.32,16.32,0,0,0-.94-1.4c0-.07-.06-.07-.06-.13-.27-.47-.47-.87-.73-1.33a10.56,10.56,0,0,1-.54-1.2c-.06-.14-.13-.27-.2-.4a.53.53,0,0,0-.2-.33c-.13-.4-.26-.8-.4-1.27s-.33-1.2-.6-1.86a7.36,7.36,0,0,0-.26-1.2,1.08,1.08,0,0,1-.07-.47,9.17,9.17,0,0,1-.2-1.26,5.49,5.49,0,0,0-.13-1,5.71,5.71,0,0,0-.13-1v-.26A30.55,30.55,0,0,1,420.6,1168.63Z" />
    <path class="cls-72"
        d="M426.37,1186.69c.47.55.86.86,1.33,1.33a8.11,8.11,0,0,0,1.17.94c.16.07.24.15.39.23a.08.08,0,0,1,.08.08h.08a5.9,5.9,0,0,0,.86.55.64.64,0,0,0,.31.15c.08,0,.08.08.16.08a4.64,4.64,0,0,0,1.09.55,15.91,15.91,0,0,0,1.65.63,17.1,17.1,0,0,0,2.19.54,5.92,5.92,0,0,0,1.25.16,13,13,0,0,0,3.52,0,3.44,3.44,0,0,0,.86-.08,16.36,16.36,0,0,0,2.74-.47,33.11,33.11,0,0,0,3.75-1.09c.63-.24,1.25-.55,1.88-.86s1.33-.55,2-.86,1.32-.71,2-1.1c.55-.31,1.09-.7,1.64-1l.24-.23c1-.63,2.11-1.33,3.12-2.11a2.24,2.24,0,0,1,.55-.39c.63-.55,1.25-1.1,2-1.65a47.83,47.83,0,0,0,4.14-3.91c.71-.7,1.41-1.33,2.12-2.11.23-.24.47-.55.7-.78.86-1,1.72-2,2.58-3.13.08-.08.16-.24.24-.32s.08-.07.08-.15a3.14,3.14,0,0,0,.62-.78,6.46,6.46,0,0,0,.63-.86l1.17-1.65c.86-1.25,1.8-2.58,2.58-3.91a27.42,27.42,0,0,0,1.41-2.5c.71-1.18,1.33-2.35,2-3.6,1.09-2.19,2.11-4.46,3-6.73a6.59,6.59,0,0,0,.31-.86c.39-1.09.78-2.19,1.1-3.28a2.74,2.74,0,0,1,.31-.71c.08-.31.16-.55.23-.78.16-.7.39-1.41.55-2.11,0-.08.08-.24.08-.32.39-1.48.63-2.81.86-4.22.23-1.09.39-2.27.55-3.44s.23-2.27.23-3.44v-.55a8.34,8.34,0,0,0,.08-1.41c0-.78-.08-1.64-.08-2.35,0-.47-.08-.93-.08-1.4a.68.68,0,0,0-.07-.32,3.78,3.78,0,0,0-.08-.94v-.07c0-.16-.08-.32-.08-.47a1,1,0,0,0-.08-.47,13.67,13.67,0,0,0-.31-1.65c0-.07-.08-.23-.08-.31v-.08c0-.07-.08-.15-.08-.23a1.23,1.23,0,0,0-.15-.55,2.92,2.92,0,0,0-.24-.78v-.08c0-.16,0-.23-.08-.31a8.3,8.3,0,0,0-.55-1.57,2.59,2.59,0,0,0-.31-.86.64.64,0,0,0-.15-.31c-.16-.39-.39-.78-.55-1.17s-.31-.55-.47-.86-.31-.55-.47-.79a6.56,6.56,0,0,0-1-1.4,3.34,3.34,0,0,0-.7-.87c-.16-.15-.24-.31-.39-.46l-.47-.47a9.07,9.07,0,0,0-.94-.86l-.16-.16a1,1,0,0,0-.31-.24h-.08s-.08,0-.08-.07a3,3,0,0,0-.55-.32l-.15-.15c-.08-.08-.23-.16-.31-.24a.4.4,0,0,0-.24-.15.08.08,0,0,1-.08-.08s0-.08-.07-.08-.16-.08-.24-.08a.83.83,0,0,0-.39-.08l-.08-.07a7,7,0,0,0-1.72-.87c-.16-.07-.23-.07-.39-.15a8.24,8.24,0,0,0-1.41-.39h-.08l-.15.23c3.44,4,5.4,9.94,5.4,17.6,0,21-14.79,46.39-33,57C438.18,1186.53,431.69,1187.86,426.37,1186.69Z" />
    <path class="cls-73"
        d="M420.81,1172.29v.24c.16,1.17.32,2.19.47,3.28a1,1,0,0,0,.08.47,14,14,0,0,0,.55,2,4.81,4.81,0,0,0,.31,1.09,16.94,16.94,0,0,0,.78,2,8.8,8.8,0,0,0,.55,1.17c.24.47.47.86.71,1.33,0,.08.07.08.07.16l.94,1.41c.31.39.63.7.94,1.09a.08.08,0,0,0,.08.08v.08h.08c5.32,1.17,11.81-.16,18.77-4.15,18.23-10.56,33-36,33-57,0-7.66-2-13.61-5.4-17.6-.08-.16-.24-.23-.32-.39h-.08c-.23-.08-.46-.08-.78-.16a5,5,0,0,0-1.09-.15,4.06,4.06,0,0,0-1-.08,21,21,0,0,0-3.83.16c-.24,0-.39.07-.63.07a3.94,3.94,0,0,0-.94.16l-1,.23c-.08,0-.16.08-.24.08,1.41.86,1.57,3.37.39,5.87-1.41,2.89-4,4.93-5.79,4.46s-2.34-3.21-.93-6.18a9,9,0,0,1,1.8-2.66c-.71.31-1.49.63-2.27,1a20.94,20.94,0,0,0-2.35,1.25c-.78.47-1.49.86-2.27,1.41a22.67,22.67,0,0,0-2.19,1.48,9.2,9.2,0,0,1-4.07,6.18,3,3,0,0,1-3.2.16,60.68,60.68,0,0,0-4.23,4.69c-.7.78-1.33,1.65-2,2.51s-1.18,1.72-1.8,2.5c-.08.08-.08.08-.08.16a9.53,9.53,0,0,1-.94,1.64,9,9,0,0,1-.78.94c-.63,1-1.25,2-1.88,3.13s-1.17,2.11-1.72,3.2a1.92,1.92,0,0,0-.31.55c-.47.86-.94,1.8-1.33,2.66-.47,1.17-.94,2.27-1.41,3.36a5.67,5.67,0,0,1-.16,2.51,9.53,9.53,0,0,1-2.19,4v.15c-.31.79-.47,1.65-.7,2.43l-.24.94v.23a2.3,2.3,0,0,0-.15.55,1.89,1.89,0,0,0-.16.55v.08c-.16.86-.39,1.72-.47,2.58s-.31,1.64-.39,2.42c2-1.25,3.68-.94,4.3.86.71,2.11-.47,5.48-2.66,7.51A5.55,5.55,0,0,1,420.81,1172.29Zm44.2-31.68c.71-3,3.05-5.63,5.17-6.1s3.44,1.57,2.73,4.46-3.05,5.63-5.24,6.1S464.23,1143.51,465,1140.61Zm2.58-22.37a4.48,4.48,0,0,1,3.45-1.49,2.15,2.15,0,0,1,1.87,1.49c.71,2.11-.55,5.55-2.73,7.59a7,7,0,0,1-1.65,1.17c-1.56.78-3,.39-3.6-1.17C464.23,1123.72,465.48,1120.35,467.59,1118.24ZM457.42,1157c1.8-2.66,4.46-3.68,5.79-2.35s.94,4.62-.94,7.2-4.45,3.68-5.78,2.35S455.55,1159.54,457.42,1157ZM441,1175.74a9.72,9.72,0,0,1,.31-2,9.36,9.36,0,0,1,3.83-5.08,3.05,3.05,0,0,1,1-.39c1.8-.63,3.13.47,3.13,2.73a9.24,9.24,0,0,1-4.15,7.2C442.87,1179.49,441,1178.4,441,1175.74Zm-9-21c0-9.7,6.8-21.43,15.25-26.28,5.48-3.13,10.33-2.58,13,.78a13,13,0,0,1,2.27,7.9,25.54,25.54,0,0,1-1.64,8.76c0,.08,0,.08-.08.16a35.4,35.4,0,0,1-6.65,11.5c0,.08-.08.16-.16.23a28.22,28.22,0,0,1-6.73,5.64,12.78,12.78,0,0,1-8.36,1.95C434.74,1164.55,432,1160.79,432,1154.69Zm-4.93,20.81c1.33-2.89,3.91-4.85,5.79-4.38a2.36,2.36,0,0,1,1.57,1.72,6.62,6.62,0,0,1-.63,4.38c-1,2.27-3,4.07-4.54,4.46a3.28,3.28,0,0,1-1.25,0C426.13,1181.21,425.74,1178.4,427.07,1175.5Z" />
    <path class="cls-75"
        d="M432,1154.69c0,6.1,2.74,9.86,6.89,10.64a12.78,12.78,0,0,0,8.36-1.95,28.22,28.22,0,0,0,6.73-5.64c.08-.07.16-.15.16-.23a35.4,35.4,0,0,0,6.65-11.5c.08-.08.08-.08.08-.16a25.54,25.54,0,0,0,1.64-8.76,13,13,0,0,0-2.27-7.9c-2.66-3.36-7.51-3.91-13-.78C438.8,1133.26,432,1145,432,1154.69Zm2.27-1.25c0-8.29,5.79-18.3,13-22.53,4.85-2.81,9.08-2.19,11.35,1.1a9.5,9.5,0,0,1,1.17,2.73,10.62,10.62,0,0,1,1.41,5.56,22.47,22.47,0,0,1-2,8.76,52.09,52.09,0,0,1-3,5.09c0,.15-.15.23-.23.39a23.17,23.17,0,0,1-6.57,6.1,10.49,10.49,0,0,1-5.64,1.64,7.38,7.38,0,0,1-3.12.24C436.77,1162.12,434.27,1158.84,434.27,1153.44Z" />
    <path class="cls-75"
        d="M434.27,1153.44c0,5.4,2.5,8.68,6.34,9.08a7.38,7.38,0,0,0,3.12-.24,7.15,7.15,0,0,1-2.58-.7c-2.19-1.18-3.6-3.84-3.6-7.67,0-7.43,5.32-16.58,11.82-20.34,3.44-2,6.49-2,8.68-.62a5.47,5.47,0,0,1,1.72,1.79,9.5,9.5,0,0,0-1.17-2.73c-2.27-3.29-6.5-3.91-11.35-1.1C440.06,1135.14,434.27,1145.15,434.27,1153.44Z" />
    <path class="cls-72"
        d="M434.27,1153.44c0,5.4,2.5,8.68,6.34,9.08a7.38,7.38,0,0,0,3.12-.24,7.15,7.15,0,0,1-2.58-.7c-2.19-1.18-3.6-3.84-3.6-7.67,0-7.43,5.32-16.58,11.82-20.34,3.44-2,6.49-2,8.68-.62a5.47,5.47,0,0,1,1.72,1.79,9.5,9.5,0,0,0-1.17-2.73c-2.27-3.29-6.5-3.91-11.35-1.1C440.06,1135.14,434.27,1145.15,434.27,1153.44Z" />
    <path class="cls-74"
        d="M437.55,1153.91c0,3.83,1.41,6.49,3.6,7.67a7.15,7.15,0,0,0,2.58.7,10.49,10.49,0,0,0,5.64-1.64,23.17,23.17,0,0,0,6.57-6.1c.08-.16.23-.24.23-.39a52.09,52.09,0,0,0,3-5.09,22.47,22.47,0,0,0,2-8.76,10.62,10.62,0,0,0-1.41-5.56,5.47,5.47,0,0,0-1.72-1.79c-2.19-1.41-5.24-1.33-8.68.62C442.87,1137.33,437.55,1146.48,437.55,1153.91Z" />
    <path class="cls-75"
        d="M441.94,1120.9a3,3,0,0,0,3.2-.16,9.2,9.2,0,0,0,4.07-6.18A67.59,67.59,0,0,0,441.94,1120.9Z" />
    <path class="cls-75"
        d="M432.08,1133.34a9,9,0,0,0,.78-.94,9.53,9.53,0,0,0,.94-1.64C433.17,1131.62,432.63,1132.48,432.08,1133.34Z" />
    <path class="cls-75"
        d="M423.08,1152.74a9.53,9.53,0,0,0,2.19-4,5.67,5.67,0,0,0,.16-2.51c-.39.86-.7,1.73-1,2.59a18.75,18.75,0,0,0-.78,2.26A15.2,15.2,0,0,0,423.08,1152.74Z" />
    <path class="cls-75"
        d="M420.58,1168.62a28.22,28.22,0,0,0,.23,3.67,5.55,5.55,0,0,0,1.8-1.25c2.19-2,3.37-5.4,2.66-7.51-.62-1.8-2.34-2.11-4.3-.86v.08A51.49,51.49,0,0,0,420.58,1168.62Z" />
    <path class="cls-75"
        d="M428,1181.68a3.28,3.28,0,0,0,1.25,0c1.57-.39,3.52-2.19,4.54-4.46a6.62,6.62,0,0,0,.63-4.38,2.36,2.36,0,0,0-1.57-1.72c-1.88-.47-4.46,1.49-5.79,4.38S426.13,1181.21,428,1181.68Z" />
    <path class="cls-75"
        d="M441,1175.74c0,2.66,1.87,3.75,4.14,2.42a9.24,9.24,0,0,0,4.15-7.2c0-2.26-1.33-3.36-3.13-2.73a3.05,3.05,0,0,0-1,.39,9.36,9.36,0,0,0-3.83,5.08A9.72,9.72,0,0,0,441,1175.74Z" />
    <path class="cls-75"
        d="M456.49,1164.16c1.33,1.33,3.91.31,5.78-2.35s2.27-5.79.94-7.2-4-.31-5.79,2.35S455.15,1162.75,456.49,1164.16Z" />
    <path class="cls-75"
        d="M467.67,1145.07c2.19-.47,4.54-3.21,5.24-6.1s-.55-4.93-2.73-4.46-4.46,3.13-5.17,6.1S465.48,1145.54,467.67,1145.07Z" />
    <path class="cls-75"
        d="M464.93,1125.83c.63,1.56,2,2,3.6,1.17a7,7,0,0,0,1.65-1.17c2.18-2,3.44-5.48,2.73-7.59a2.15,2.15,0,0,0-1.87-1.49,4.48,4.48,0,0,0-3.45,1.49C465.48,1120.35,464.23,1123.72,464.93,1125.83Z" />
    <path class="cls-75"
        d="M457.42,1118.24c1.8.47,4.38-1.57,5.79-4.46,1.18-2.5,1-5-.39-5.87h-.08a17.05,17.05,0,0,0-2.5.71c-.63.23-1.25.47-1.95.78a9,9,0,0,0-1.8,2.66C455.08,1115,455.55,1117.77,457.42,1118.24Z" />
    <path class="cls-133"
        d="M66.93,901.85a23.51,23.51,0,0,0,.95,2.52,4.41,4.41,0,0,0,.3.76l.07.23a14.24,14.24,0,0,0,1.53,2.77,18.17,18.17,0,0,0,1.74,2.28c3.52,3.69,9.32,7.23,14.81,9.34l6.18-21.49,2.07-7.18a19.7,19.7,0,0,0-2.57-1c-10.87-3.32-17.17-4.88-20.94-4.21a5.47,5.47,0,0,0-3.94,2.5,11.32,11.32,0,0,0-1.36,6.54c0,.06,0,.13,0,.19a14.65,14.65,0,0,0,.43,3.78,3,3,0,0,0,.2,1A19.9,19.9,0,0,0,66.93,901.85Z" />
    <path class="cls-134"
        d="M66.93,901.85a23.51,23.51,0,0,0,.95,2.52,4.41,4.41,0,0,0,.3.76l.07.23a14.24,14.24,0,0,0,1.53,2.77,18.17,18.17,0,0,0,1.74,2.28,35.42,35.42,0,0,0,14.73,9.67l.08-.33,6.18-21.49c-3.15-2.27-6.84-3.52-9.88-4.85a29.33,29.33,0,0,0-13.7-2.15,5.25,5.25,0,0,0-1.81.49c-.8.37-1.25,1.49-1.35,3.17,0,.06,0,.13,0,.19a14.65,14.65,0,0,0,.43,3.78,3,3,0,0,0,.2,1A19.9,19.9,0,0,0,66.93,901.85Z" />
    <path class="cls-135"
        d="M429.3,994.59c2.39-.53,26.89-14,28.35-17.44,1.2-2.79.2-7.79-2.06-11.25a.46.46,0,0,1-.13-.26c-.14-.2-.27-.4-.4-.6,0,0-28.36,19-29.29,21.23v.07C425.37,988.34,426.83,995.06,429.3,994.59Z" />
    <path class="cls-136"
        d="M425.77,986.27v.07c.07,1.73,1.2,2.73,3,1.66l23-13.24a8.86,8.86,0,0,0,3.92-6.79v-.87a7,7,0,0,0-.13-1.2.46.46,0,0,1-.13-.26c-.14-.2-.27-.4-.4-.6-.73-.87-1.93-1-3.26-.2L435,974.49a24.34,24.34,0,0,0-8.45,9A6,6,0,0,0,425.77,986.27Z" />
    <path class="cls-137"
        d="M449,971.39c0,1.34.95,1.88,2.12,1.21a4.69,4.69,0,0,0,2.11-3.65c0-1.34-1-1.88-2.11-1.2A4.64,4.64,0,0,0,449,971.39Z" />
    <polygon class="cls-51"
        points="78.12 988 101.04 1007.09 250.71 1095.26 250.71 1095.26 287.57 1110.45 296.03 1110.41 303.41 1109.24 303.56 1142.72 296.18 1144.75 285.82 1144.46 250.41 1130.32 250.56 1112.79 250.41 1130.32 226.18 1118.8 122.69 1058.62 95.22 1037.21 95.22 1037.21 78.27 1021.61 78.12 988" />
    <polygon class="cls-138"
        points="287.07 1112.18 296.04 1112.14 301.95 1111.11 302.08 1140.82 296.15 1142.21 285.47 1141.71 287.07 1112.18" />
    <path class="cls-139"
        d="M81.7,993.43,104.64,1012a5.51,5.51,0,0,1,1.61,3.79l0,6.93c0,1.38-.71,1.92-1.59,1.21l-22.94-18.55a5.49,5.49,0,0,1-1.6-3.78l0-6.94C80.11,993.25,80.82,992.71,81.7,993.43Z" />
    <path class="cls-139"
        d="M81.77,1008.56l22.94,18.55a5.45,5.45,0,0,1,1.6,3.78l0,6.94c0,1.38-.7,1.92-1.58,1.2l-22.94-18.54a5.45,5.45,0,0,1-1.6-3.79l0-6.93C80.18,1008.39,80.89,1007.85,81.77,1008.56Z" />
    <path class="cls-139"
        d="M250.48,1098.86l29.35,12.9a4,4,0,0,1,2.05,3.4l0,6.93c0,1.38-.9,2.09-2,1.6l-29.35-12.91a4,4,0,0,1-2.05-3.39l0-6.93C248.45,1099.08,249.35,1098.37,250.48,1098.86Z" />
    <path class="cls-139"
        d="M250.55,1114l29.34,12.9a4,4,0,0,1,2.06,3.39l0,6.94c0,1.38-.91,2.09-2,1.6l-29.35-12.91a4,4,0,0,1-2-3.39l0-6.93C248.51,1114.22,249.42,1113.51,250.55,1114Z" />
    <path class="cls-51"
        d="M443.9,847.28,358.47,896.6a13.89,13.89,0,0,0-6.66,9.26c-2.71,13.35-9.4,46-15.4,72.69-7.6,33.77-9.2,48.83-9.2,48.83v25.11c0,2.44,1.72,3.43,3.83,2.22l20.14-11.63c3.83-2.22,60.63-71.88,68.29-76.3l31.07-17.94a8.45,8.45,0,0,0,3.83-6.61l-6.64-92.77C447.73,847,446,846.06,443.9,847.28Z" />
    <path class="cls-51"
        d="M88.25,934.61l.94,5.86,6.57,9.5,19,16.06,24,18.52,102.65,59.06,45.45,15.24,7.6-3.91,2.84-5.86,2.19-7.58h0l5.59-15.36L316.23,986l2.31-9.29.34-1.24,18-72.78-5.63-7.5L310,887.68l-37.9-17.47-64.06-36.92-22.76-13.14L156,798.87l-17.15-16.19-3.17.5-27.75,72.23L94.76,905.19h0L90.65,920.7Z" />
    <path class="cls-140"
        d="M332.46,1035.62a4.1,4.1,0,0,0,1.27.4,8.31,8.31,0,0,0,1.33.47c1,.33,2.06.66,3.19,1s2,.6,3.07.87h.06c2,.47,3.93.93,5.73,1.26a49.08,49.08,0,0,0,4.92.74c1.33.13,2.73.26,4.2.33,1,.07,1.93.07,2.79.07h.54a24.88,24.88,0,0,0,9.31-1.53,12.77,12.77,0,0,0,3.6-2.2c3.13-2.8,3.66-6.66,3.73-9.65,0-.8-.07-.74-.07-1.47-.47-7.79-3.26-10.05-8.45-11.58-.14-.07-.27-.07-.4-.13l-5.66,3.46-21.17,13-2.2,1.34-5.72,3.52Z" />
    <path class="cls-141"
        d="M314.82,1029.9a1.43,1.43,0,0,0,.4.26c2.13,1.4,6.33,2,6.33,2h3.86l12.84-.13h1.6l.6-1.34,2.53-5.45s-.93-.4-2.33-.94c-.47-.2-1-.39-1.6-.59l-1.66-.6c-2.4-.8-4.73-1.4-5.46-1.07s-2.33-.2-4.46-.8l-1.33-.4c-.27-.06-.47-.13-.73-.2s-.4-.13-.67-.2a24.13,24.13,0,0,0-3.53-.6.25.25,0,0,0-.2-.06,4.81,4.81,0,0,0-3.32.46C314.36,1022.37,312.89,1028.23,314.82,1029.9Z" />
    <path class="cls-142"
        d="M321.28,1024.5c.07.6.2,1.14.27,1.67s.2.8.33,1.13a2.31,2.31,0,0,0,.4,1c.13.33.27.6.4.86l.4.6c.2.34.46.6.66.93.4.4.8.8,1.27,1.2a.49.49,0,0,0,.26.27h.14a22.93,22.93,0,0,0,3.13,1.66c.8.4,2.13,1,4,1.73a9.92,9.92,0,0,1,1.2.47,8.31,8.31,0,0,0,1.33.47c1,.33,2.06.66,3.19,1s2,.6,3.07.87h.06c2,.47,3.93.93,5.73,1.26a49.08,49.08,0,0,0,4.92.74c1.33.13,2.73.26,4.2.33,1,.07,1.93.07,2.79.07h.54a24.88,24.88,0,0,0,9.31-1.53,12.77,12.77,0,0,0,3.6-2.2c3.13-2.8,3.66-6.66,3.73-9.65,0-.8-.07-.74-.07-1.47-.47-7.79-3.26-10.05-8.45-11.58-.14-.07-.27-.07-.4-.13l-6.26-1.73c-.6-.14-1.2-.34-1.86-.47s-1.2-.33-1.8-.47c-8.79-2.26-17-4-17-4a2.61,2.61,0,0,0-.73-.13,18.47,18.47,0,0,0-8.32-.14,7.13,7.13,0,0,0-1.59.4,15.84,15.84,0,0,0-1.6.54v.06a11.2,11.2,0,0,0-6.19,7.19v.07a3.87,3.87,0,0,0-.4,1.26c-.07.47-.14.93-.2,1.4a14.48,14.48,0,0,0-.14,1.66A21.43,21.43,0,0,0,321.28,1024.5Z" />
    <path class="cls-134"
        d="M321.21,1024.57a9.33,9.33,0,0,0,.34,1.6c.13.4.2.8.33,1.13a2.31,2.31,0,0,0,.4,1c0,.07,0,.2.07.26a3,3,0,0,1,.33.6l.4.6c.2.34.46.6.66.93.4.4.8.8,1.27,1.2a.49.49,0,0,0,.26.27h.14a22.35,22.35,0,0,0,7,3.46h.06a4.1,4.1,0,0,0,1.27.4,8.31,8.31,0,0,0,1.33.47c1,.33,2.06.66,3.19,1s2,.6,3.07.87h.06c2,.47,3.93.93,5.73,1.26a49.08,49.08,0,0,0,4.92.74c1.33.13,2.73.26,4.2.33,1,.07,1.93.07,2.79.07h.54c1.26-.14,2.32-.2,3.26-.34,4.32-.6,7.59-3.06,6.72-13-.47-6-3.39-8.32-7.92-9.72a64.3,64.3,0,0,0-6.86-1.6,10.55,10.55,0,0,1-1.86-.4c-.67-.07-1.33-.2-2-.33a.23.23,0,0,0-.2-.07,146.16,146.16,0,0,0-16.31-2.93,43.42,43.42,0,0,0-4.85-.33,9.86,9.86,0,0,0-1.47.07,5.11,5.11,0,0,0-1.4.13,5.77,5.77,0,0,0-1.86.33,4.8,4.8,0,0,0-2.86,2.93v.07a3.87,3.87,0,0,0-.4,1.26,10.71,10.71,0,0,0-.54,3A22.71,22.71,0,0,0,321.21,1024.57Z" />
</svg>