<svg id="Capa_1" data-name="Capa 1" xmlns="http://www.w3.org/2000/svg" viewBox="0 0 151.72 128.93"><defs><style>.cls-1{fill:#464245;}.cls-2{fill:#c31b27;}.cls-3{fill:#2a2627;}.cls-4{fill:#605d60;}.cls-5{fill:#1e1b1a;}.cls-6{fill:#534f52;}.cls-7{fill:#edecec;}.cls-8{fill:#c6c6c8;}.cls-9{fill:#302c2e;}.cls-10{fill:#524c51;}.cls-11{fill:#393538;}.cls-12{fill:#9b9c9c;}.cls-13{fill:#423e42;}.cls-14{fill:#363335;}.cls-15{fill:#737273;}.cls-16{fill:#3c5fa5;}.cls-17{fill:#929394;}.cls-18{fill:#352f76;}.cls-19{fill:#a7a7a7;}.cls-20{fill:#88444a;}.cls-21{fill:#6c8ac5;}.cls-22{fill:#9dcdea;}.cls-23{fill:#959596;}.cls-24{fill:#30281f;}.cls-25{fill:#858586;}.cls-26{fill:#faefdd;}.cls-27{fill:#2e2a2c;}</style></defs><polygon class="cls-1" points="62.85 99.3 85.5 86.25 60.45 71.7 23.7 92.85 48.75 107.47 60.75 100.5 62.85 99.3"/><polygon class="cls-2" points="150.45 56.48 148.88 55.58 146.63 54.23 141.75 51.38 144 50.1 145.57 49.2 148.88 51.08 150.38 51.98 150.45 56.48"/><polygon class="cls-2" points="151.72 51.23 150.38 51.98 148.88 51.08 145.57 49.2 146.93 48.38 148.88 49.58 150.38 50.48 151.72 51.23"/><polygon class="cls-2" points="151.72 51.23 151.72 55.73 150.45 56.48 150.38 51.98 151.72 51.23"/><polygon class="cls-3" points="148.88 57.38 146.47 55.95 145.13 55.2 143.18 54.08 140.25 52.35 140.85 52.05 140.93 52.05 141.82 51.52 144.07 50.25 145.72 49.35 147 48.6 148.95 47.48 148.95 49.73 148.95 51.23 148.95 53.1 148.95 55.73 148.88 57.38"/><path class="cls-1" d="M159.29,69.56,157,70.83l-1,.6-1.12-.67h-.08l-.37-.23-.15-.07-.15-.08-.23-.07-.9-.53c-.67-.37-1.35-.75-1.95-1.12h.08l.9-.53,2.25-1.27Z" transform="translate(-10.41 -16.61)"/><path class="cls-4" d="M157.34,75c-.6-.3-1.13-.67-1.73-1s-1.35-.83-2.1-1.2c-.22-.15-.52-.3-.75-.45a18.8,18.8,0,0,0-1.72-1h0c-.83-.45-1.58-.9-2.4-1.42l.6-.38,1.35-.75.6-.3c.67.38,1.35.75,1.95,1.13l.9.52.22.08.15.07.15.08.38.22H155l1.13.68c.15.07.22.22.3.3s.15.22.3.37a1.64,1.64,0,0,1,.15.3.29.29,0,0,1,.07.15c.08.08.08.15.15.3a.24.24,0,0,0,.08.15c0,.08.07.15.07.23s.08.15.08.3v.07a.3.3,0,0,0,.07.23,1.93,1.93,0,0,1,.08.67,1,1,0,0,0-.15.6" transform="translate(-10.41 -16.61)"/><path class="cls-4" d="M156.06,71.43l3.23-1.87V74l-1.95,1.13a4.72,4.72,0,0,0-1.28-3.68" transform="translate(-10.41 -16.61)"/><path class="cls-5" d="M153.81,77.06A6.31,6.31,0,0,1,151,81.93l-2.85-1.65-1.73-1-1.05-.6-1-.52-4.88-2.85L145.11,72l1.13-.67c.9.52,1.8,1,2.77,1.57l1.13.68a9.56,9.56,0,0,1,1,.6h0c.6.37,1.2.75,1.8,1.05a1.75,1.75,0,0,1,.53.52.3.3,0,0,1,.07.23c0,.07.08.15.08.22a1,1,0,0,1,.07.45.49.49,0,0,1,.15.38" transform="translate(-10.41 -16.61)"/><path class="cls-5" d="M151,81.93a2.53,2.53,0,0,1-.68.3c-.07,0-.15.08-.22.08s-.3.07-.45,0h-.38a.57.57,0,0,1-.37-.15c-.9-.53-1.88-1.13-2.78-1.65L145,79.83c-.45-.22-.9-.52-1.28-.75h0a1.47,1.47,0,0,1-.45-.3h0c-.52-.3-1-.6-1.5-.9s-1.35-.75-1.95-1.12l-1.42-.83,1.2-.67,4.87,2.85,1,.52,1,.6,1.72,1Z" transform="translate(-10.41 -16.61)"/><path class="cls-6" d="M156,75.86l-3.83-2.18-1-.6-1.27-.75-2.55-1.5,1.35-.75h.07l.6-.37,2.48,1.42,2.4,1.43.3.15.07.07a1,1,0,0,1,.3.23c.08.07.15.15.23.15a.07.07,0,0,1,.07.07l.15.15a2.73,2.73,0,0,1,.38.68c.07.07.07.22.15.3s.07.22.07.37v.15a3.43,3.43,0,0,0,.08.38,1.5,1.5,0,0,0,0,.6" transform="translate(-10.41 -16.61)"/><polygon class="cls-4" points="150.45 56.48 148.88 57.38 148.88 55.58 148.88 52.95 148.88 51.08 148.88 49.58 148.88 47.25 150.38 46.35 150.38 50.48 150.38 51.98 150.45 56.48"/><path class="cls-7" d="M153.06,75.26c-.07,0-.07,0-.15-.08a.25.25,0,0,1-.15-.07h-.6a3.11,3.11,0,0,0-1.27.37l-1-.6-.75-.45-1-.6L145,72l1.12-.67c.9.52,1.8,1,2.78,1.57l1.12.68a8.74,8.74,0,0,1,1,.6h0c.75.37,1.35.75,2,1.05" transform="translate(-10.41 -16.61)"/><path class="cls-7" d="M151,75.48c-.08.08-.15.08-.23.15s-.15.08-.22.15-.15.08-.23.15-.15.15-.22.15l-.23.23a3.9,3.9,0,0,0-.45.6c-.07.07-.15.22-.22.3s-.08.15-.15.22a7.18,7.18,0,0,0-.53,1.13c-.07.15-.07.3-.15.37a.74.74,0,0,0-.07.38c0,.07-.08.15-.08.3v1.12a.27.27,0,0,0,.08.23.28.28,0,0,0,.07.22.22.22,0,0,0,.08.15c0,.08.07.15.15.23a.07.07,0,0,0,.07.07h0c0,.08.08.08.08.15h0l.15.15L149,82l.15.15c-.9-.53-1.87-1.13-2.77-1.65l-1.13-.68a14.71,14.71,0,0,1-1.27-.75h0a1.47,1.47,0,0,1-.45-.3h0c-.53-.3-1-.6-1.5-.9-.68-.37-1.35-.75-1.95-1.12l-1.43-.83,1.2-.67L145.41,72l3.08,1.8,1,.6.75.45Z" transform="translate(-10.41 -16.61)"/><path class="cls-8" d="M151,75.48c1.57-.9,2.77-.15,2.85,1.58a6.32,6.32,0,0,1-2.78,4.87c-1.57.9-2.85.15-2.85-1.57A6.12,6.12,0,0,1,151,75.48" transform="translate(-10.41 -16.61)"/><path class="cls-5" d="M154.49,72.71c-.08,0-.08-.08,0,0a.24.24,0,0,0-.15-.08c-.08,0-.15-.07-.23-.07s-.37-.08-.52-.15h-1.05a.3.3,0,0,0-.23.07.26.26,0,0,0-.22.08c-.08,0-.15.07-.3.07s-.23.08-.38.15L151,73h-.07l-1.28-.75-2.55-1.5h.08l1.35-.75h.07l.6-.38,2.48,1.43,2.4,1.42Z" transform="translate(-10.41 -16.61)"/><path class="cls-6" d="M155.54,71c-.08,0-.15-.07-.23-.07s-.15-.08-.22-.08-.08-.07-.15-.07h-.08c-.15,0-.22-.08-.37-.08h-.23a2.69,2.69,0,0,0-.75,0,1.18,1.18,0,0,0-.52.08,3.86,3.86,0,0,1-.38.07,1.14,1.14,0,0,0-.45.15c-.15.08-.3.08-.45.15h-.07c-.08,0-.08,0-.15.08a1.78,1.78,0,0,0-.53.3h-.07l-2.4-1.43h.07l.6-.37,1.35-.75.6-.3h.08Z" transform="translate(-10.41 -16.61)"/><path class="cls-9" d="M121.41,68.81Z" transform="translate(-10.41 -16.61)"/><path class="cls-9" d="M151,73.08a3.6,3.6,0,0,0-.83.6.9.9,0,0,0-.37.38c-.15.15-.38.3-.53.45a1.83,1.83,0,0,0-.37.45c-.08.07-.15.22-.3.3a5.87,5.87,0,0,0-.6.9,6.64,6.64,0,0,0-.75,1.27c-.08.15-.15.38-.23.53a1.48,1.48,0,0,0-.15.37c-.07.23-.15.45-.22.75,0,.08-.08.15-.08.23s-.07.22-.07.3a.26.26,0,0,1-.08.22c0,.15-.07.23-.07.38a.44.44,0,0,1-.08.3,5.66,5.66,0,0,0-.07,1v.9a.28.28,0,0,0,.07.22v.23a5.47,5.47,0,0,0,.23.6.29.29,0,0,0,.07.15.37.37,0,0,1,.15.3c.08.07.08.15.15.22s.08.08.15.15a.76.76,0,0,0,.38.3l-3.3-1.95-.9-.52-2.93-1.65-1-.6-1.43-.83h0l-2.4-1.42.6-.38.6-.37,1.73-1h0l1.2-.68L145.19,72l1.12-.68.9-.52,2.55,1.5Z" transform="translate(-10.41 -16.61)"/><path class="cls-4" d="M121.41,68.81Z" transform="translate(-10.41 -16.61)"/><path class="cls-4" d="M144.74,82.38l-.6.38-.83.45c-1.2-.68-2.47-1.43-3.75-2.18a8.73,8.73,0,0,0-1.12-.6c-.45-.22-.83-.52-1.28-.75a13,13,0,0,0-1.5-.82c-.37-.23-.75-.45-1-.6l.83-.45.6-.38,2.4,1.43,1.72,1,.75.45,2,1.2Z" transform="translate(-10.41 -16.61)"/><path class="cls-4" d="M143.31,83.13h0c-1.2-.67-2.47-1.42-3.82-2.17a7.73,7.73,0,0,0-1.13-.6c-.45-.23-.82-.53-1.27-.75-.83-.45-1.65-1-2.55-1.5h0a11.22,11.22,0,0,1,1.05.6,13,13,0,0,0,1.5.82c.45.23.82.53,1.27.75a7.73,7.73,0,0,0,1.13.6q2,1.25,3.82,2.25" transform="translate(-10.41 -16.61)"/><path class="cls-4" d="M143.46,78.71l2.55-1.5a12.25,12.25,0,0,0-1.27,5.17l-1.43.83,1.43-.83a5.14,5.14,0,0,0-1.28-3.67" transform="translate(-10.41 -16.61)"/><path class="cls-6" d="M121.41,68.81Z" transform="translate(-10.41 -16.61)"/><path class="cls-6" d="M143.31,83.13c-1.2-.67-2.47-1.42-3.75-2.17a7.64,7.64,0,0,0-1.12-.6c-.45-.23-.83-.53-1.28-.75a14.83,14.83,0,0,0-1.5-.83c-.37-.22-.75-.45-1-.6l.83-.45.6-.37.6-.38,2.47,1.43,2.48,1.42.3.15H142c.08.08.23.15.3.23s.15.15.23.15v.07c.07.08.07.15.15.15.07.15.15.23.22.38s.08.15.15.22c.08.23.15.38.23.68v.22a.46.46,0,0,0,.07.3v.75" transform="translate(-10.41 -16.61)"/><path class="cls-5" d="M141.21,84.41a6.31,6.31,0,0,1-2.77,4.87l-2.85-1.65-1.73-1-1.05-.6-.9-.52L127,82.61l5.55-3.23,1.12-.67,2.7,1.57,1.13.68,1,.6,1.8,1c.08.07.15.07.23.15l.07.07c.08.08.08.08.08.15s.07.08.07.15a5.47,5.47,0,0,1,.23.6V84a.45.45,0,0,1,.22.45" transform="translate(-10.41 -16.61)"/><path class="cls-5" d="M138.44,89.21a3.1,3.1,0,0,1-1.28.37h-.37c-.08,0-.15-.07-.23-.07s-.07,0-.15-.08l-2.85-1.65-1.12-.67-1.73-1-1.87-1.13-1.5-.9c-.53-.3-1-.6-1.5-.9l1.12-.67,4.88,2.85.9.52,1,.6h0l1.72,1Z" transform="translate(-10.41 -16.61)"/><path class="cls-7" d="M140.39,82.61c0-.08-.08-.08,0,0a.76.76,0,0,0-.38-.15h-.37a2,2,0,0,0-.6.07c-.08,0-.23.08-.3.08a.63.63,0,0,1-.38.15l-1-.6-.75-.45-1-.6-3.08-1.8,1.13-.68,2.7,1.58,1.12.67,1,.6Z" transform="translate(-10.41 -16.61)"/><path class="cls-7" d="M138.36,82.76a3.1,3.1,0,0,0-.82.6l-.23.22a17.58,17.58,0,0,1-.45.6c-.07.08-.15.15-.15.23s-.15.22-.22.37-.15.23-.23.38l-.22.45a1,1,0,0,0-.15.52v.15c0,.15-.08.23-.08.38s-.07.22-.07.37v.9c0,.15.07.38.07.45s0,.15.08.15.07.15.15.23.07.15.15.22.07.08.15.15l.22.23-2.85-1.65L132.59,87l-1.73-1L129,84.86l-1.5-.9-1.5-.9,1.12-.68,5.55-3.22,3.08,1.8,1,.6.75.45Z" transform="translate(-10.41 -16.61)"/><path class="cls-8" d="M138.36,82.76c1.58-.9,2.78-.15,2.85,1.57a6.33,6.33,0,0,1-2.77,4.88c-1.58.9-2.78.15-2.85-1.58a6.31,6.31,0,0,1,2.77-4.87" transform="translate(-10.41 -16.61)"/><path class="cls-5" d="M121.41,68.81Z" transform="translate(-10.41 -16.61)"/><path class="cls-5" d="M141.81,80h0a.23.23,0,0,0-.15-.07.28.28,0,0,1-.15-.08h-.07c-.08,0-.15-.07-.23-.07h-1.12a.3.3,0,0,0-.23.07,1.14,1.14,0,0,0-.45.15h-.07c-.15.08-.23.08-.38.15l-.45.23-1.27-.75-2.55-1.5h0l.82-.45.6-.38.6-.37,2.48,1.42,2.47,1.43Z" transform="translate(-10.41 -16.61)"/><polygon class="cls-4" points="123.08 72.22 121.65 73.05 117.9 70.8 112.95 67.95 114.38 67.2 119.33 70.05 121.8 71.47 123.08 72.22"/><line class="cls-5" x1="124.5" y1="75.37" x2="124.5" y2="75.37"/><path class="cls-5" d="M138.36,80.36a3.1,3.1,0,0,0-.82.6c-.08,0-.08.07-.15.07l-.08.08a.07.07,0,0,0-.07.07c-.15.08-.23.23-.38.3s-.22.15-.3.3l-.3.3a1.43,1.43,0,0,0-.3.38,5.38,5.38,0,0,0-.75,1.05,3.93,3.93,0,0,0-.37.6,6.09,6.09,0,0,0-.53,1c0,.07-.07.15-.07.22a.22.22,0,0,1-.08.15,6.15,6.15,0,0,0-.3.83c0,.07-.07.22-.07.3v.07c0,.08-.08.15-.08.23V87c-.07.23-.07.38-.15.6s-.07.15-.07.3-.08.23-.08.38v1.57c0,.15.08.3.08.45s0,.15.07.15v.08c0,.07.08.15.08.22s0,.08.07.15a.57.57,0,0,1,.15.3,2,2,0,0,0,.83.75l-3.23-2-3.82-2.18-4.88-2.85.6-.37,1.43-.83,1-.52,1.13-.68,5.55-3.22,1.12-.68.9-.52,2.55,1.5Z" transform="translate(-10.41 -16.61)"/><path class="cls-1" d="M121.41,68.81Z" transform="translate(-10.41 -16.61)"/><polygon class="cls-1" points="145.65 54.83 145.05 55.13 143.7 55.88 143.63 55.88 143.1 56.17 141.68 57 140.7 57.52 140.7 57.52 139.5 58.2 137.4 59.4 135.45 60.52 133.88 61.42 132.82 62.02 132.68 62.1 132.68 62.1 130.95 63.15 130.88 63.15 130.35 63.45 129.75 63.83 128.93 64.28 127.95 64.8 126.83 65.47 124.72 66.67 122.78 67.8 121.28 68.7 120.08 69.38 119.1 69.9 117.67 70.72 117.08 71.03 110.03 75.08 105.15 72.22 110.03 69.38 112.2 68.1 112.8 67.72 114.22 66.9 115.2 66.38 116.33 65.7 121.88 62.48 123 61.8 123.9 61.27 123.9 61.27 124.72 60.83 125.33 60.45 125.92 60.08 127.65 59.02 127.65 59.02 128.85 58.35 134.4 55.13 135.53 54.45 136.43 53.92 136.5 53.92 137.85 53.17 137.93 53.17 138.53 52.8 139.88 52.05 140.48 51.75 142.43 52.88 143.33 53.4 143.55 53.48 143.7 53.55 143.85 53.63 144.23 53.85 144.3 53.85 145.65 54.83"/><path class="cls-10" d="M138.44,89.21a6.14,6.14,0,0,0,2.77-4.88c0-1.8-1.27-2.47-2.85-1.57a6.12,6.12,0,0,0-2.77,4.87C135.59,89.36,136.86,90.11,138.44,89.21Zm-.08-8.85c2.7-1.58,4.95-.3,4.95,2.77a10.79,10.79,0,0,1-4.87,8.48c-2.7,1.57-4.95.3-4.95-2.78A10.76,10.76,0,0,1,138.36,80.36Z" transform="translate(-10.41 -16.61)"/><path class="cls-11" d="M138.36,78.71c2-1.2,3.9-1.13,5,0a4.85,4.85,0,0,1,1.27,3.67l-1.42.83c0-3.15-2.25-4.35-5-2.78a10.91,10.91,0,0,0-4.88,8.48l-1.42.82a11.71,11.71,0,0,1,1.27-5.1,14.35,14.35,0,0,1,5.1-5.92" transform="translate(-10.41 -16.61)"/><polygon class="cls-4" points="110.25 79.65 101.55 74.63 105.3 72.38 110.25 75.22 110.25 79.65"/><path class="cls-4" d="M132.06,89.66l1.43-.83-12.83,7.43V91.83l12.68-7.35a13.5,13.5,0,0,0-1.28,5.18" transform="translate(-10.41 -16.61)"/><path class="cls-4" d="M100.49,107.36l-4.58-2.7-1.57-.9-2-1.2.68-.38,2,1.2h0l.9.53,4,2.4v.3a.57.57,0,0,0,.15.37c.08.15.23.23.38.38" transform="translate(-10.41 -16.61)"/><polygon class="cls-1" points="89.55 89.63 85.5 87.22 84.6 86.78 82.58 85.58 84.22 84.6 85.42 83.85 88.28 82.2 89.55 82.95 89.55 89.63"/><path class="cls-12" d="M120.66,96.26l-19,10.95a1.2,1.2,0,0,1-1.2.15.83.83,0,0,1-.38-.45c-.07-.15-.07-.23-.15-.38v-8.4l12-6.9,3.75-2.17,4.88-2.85v5.7Z" transform="translate(-10.41 -16.61)"/><path class="cls-10" d="M151,81.93a6.12,6.12,0,0,0,2.77-4.87c0-1.8-1.27-2.48-2.85-1.58a6.14,6.14,0,0,0-2.77,4.88C148.26,82.08,149.46,82.83,151,81.93Zm0-8.85c2.7-1.57,5-.3,5,2.78a10.77,10.77,0,0,1-4.88,8.47c-2.7,1.58-5,.3-5-2.77A10.62,10.62,0,0,1,151,73.08Z" transform="translate(-10.41 -16.61)"/><polygon class="cls-4" points="89.55 82.95 88.28 82.2 89.55 81.53 89.55 82.95"/><path class="cls-4" d="M89.54,113.06l.6.37a4.5,4.5,0,0,0-.6-.37m-3.6-2.1h0l.45.22Zm4.2,2.47h0c-.23-.15-.38-.22-.6-.37s-.53-.3-.75-.45c-.45-.3-.9-.53-1.43-.83-.22-.15-.52-.3-.75-.45h-.07c-.08,0-.15-.07-.23-.15l-.45-.22h0l-.22-.15-.23-.15-.07-.08-1-.6a.07.07,0,0,1-.07-.07l-.15-.08h-.08c-.07-.07-.15-.07-.22-.15h0c-.3-.22-.68-.37-1-.6s-.67-.37-1-.6h-.07l-.08.08,2,1.2h0l.37.22,1.28.75,4,2.33,1,.6v-.15A.26.26,0,0,1,90.14,113.43Z" transform="translate(-10.41 -16.61)"/><path class="cls-11" d="M151,71.43c2-1.2,3.9-1.12,5-.07A4.81,4.81,0,0,1,157.34,75l-1.43.83c0-3.15-2.25-4.35-4.95-2.78a10.9,10.9,0,0,0-4.87,8.48l-1.43.82a12.12,12.12,0,0,1,1.28-5.17,13.75,13.75,0,0,1,5.1-5.78" transform="translate(-10.41 -16.61)"/><path class="cls-4" d="M91.79,112.76l-1.43.82c-.07-.07-.15-.07-.22-.15a2.27,2.27,0,0,1-.6-.37c-.23-.15-.53-.3-.75-.45-.45-.3-.9-.53-1.43-.83-.22-.15-.52-.3-.75-.45h-.07c-.08,0-.15-.07-.23-.15l-.45-.22h0l-.22-.15-.23-.15-.07-.08-1-.6a.07.07,0,0,1-.07-.07l-.15-.08h-.08c-.07-.07-.15-.07-.22-.15h0c-.3-.22-.68-.37-1-.6s-.67-.37-1-.6l-.22-.15c.07,0,.15.08.22.15l1.35-.75h.08c.67.38,1.35.83,2,1.2h0c.08.08.15.08.23.15l.22.15a3.92,3.92,0,0,1,.6.38c.3.15.53.3.83.45,1,.52,1.87,1.12,2.85,1.65.67.37,1.2.67,1.8,1.05" transform="translate(-10.41 -16.61)"/><polygon class="cls-13" points="89.55 82.95 85.5 85.28 85.42 83.85 88.28 82.2 89.55 81.53 89.55 82.95"/><polygon class="cls-13" points="85.5 85.28 84.22 84.6 85.42 83.85 85.5 85.28"/><path class="cls-5" d="M85.49,119.66a2.24,2.24,0,0,1-1.28.37.7.7,0,0,1-.37-.07.27.27,0,0,1-.23-.08h-.07c-.08,0-.08-.07-.15-.07l-2.85-1.65-1.13-.68-1.35-.75-1.87-1.12-1.2-.75-2-1.2.23-.15,1-.53,2,1.2,3.67,2.1,1,.6,1.8,1.05Z" transform="translate(-10.41 -16.61)"/><polygon class="cls-5" points="54.3 84.53 54.3 84.97 54.3 83.1 54.3 84.53"/><path class="cls-5" d="M64.71,107v0Z" transform="translate(-10.41 -16.61)"/><path class="cls-5" d="M88.26,114.78a6.33,6.33,0,0,1-2.77,4.88L82.64,118,80.84,117l-1-.6-3.68-2.1-2-1.2L79,110.28l.75-.45,1.2-.67.15.07,1.88,1.13.52.3,1.13.67L87.44,113a1.75,1.75,0,0,1,.52.53c0,.07.08.15.08.22s.07.15.07.23a.9.9,0,0,1,.08.45.7.7,0,0,1,.07.37" transform="translate(-10.41 -16.61)"/><path class="cls-4" d="M91.79,112.76c-.6-.3-1.13-.68-1.73-1-.9-.52-1.87-1-2.85-1.65-.3-.15-.52-.3-.82-.45a3.93,3.93,0,0,1-.6-.37c-.08-.08-.15-.08-.23-.15h0c-.07,0-.15-.08-.22-.15h0c-.68-.38-1.35-.75-2-1.2l.6-.38,2-1.12.9.52,1.13.68,2,1.12.15.08c.15.07.22.15.37.22l.23.23.22.22c.08.08.08.15.15.23s.15.22.23.3.07.15.15.22a4.68,4.68,0,0,1,.37,1.13c0,.07.08.22.08.3v.07c0,.15.07.38.07.53a1.73,1.73,0,0,0-.07.6" transform="translate(-10.41 -16.61)"/><path class="cls-6" d="M90.14,113.43h0c-.23-.15-.38-.22-.6-.37s-.53-.3-.75-.45c-.45-.3-.9-.53-1.43-.83-.22-.15-.52-.3-.75-.45h-.07c-.08,0-.15-.07-.23-.15l-.45-.22c-.07-.08-.15-.08-.22-.15s-.15-.08-.23-.15c-.37-.23-.75-.38-1.12-.6a.08.08,0,0,1-.08-.08c-.07,0-.07-.07-.15-.07H84c-.08-.08-.15-.08-.23-.15h0c-.3-.23-.67-.38-1-.6s-.68-.38-1.05-.6l1.35-.75h.07l.6-.38,2,1.2.22.15,2.78,1.58h.07a2.73,2.73,0,0,1,1,1.35c.08.15.08.22.15.37a.9.9,0,0,1,.08.45.74.74,0,0,0,.07.38v.6c.08,0,0,0-.07-.08" transform="translate(-10.41 -16.61)"/><polygon class="cls-7" points="54.3 84.53 54.3 84.45 54.3 83.1 54.3 84.53"/><path class="cls-7" d="M87.44,113s-.08,0-.08-.07h-.07c-.08,0-.08,0-.15-.08h-.38a3,3,0,0,0-1.27.38l-1.73-1-1.05-.6-.9-.53-.75-.45-1.35-.75,1.2-.67.15.07,1.88,1.13.52.3,1.13.67Z" transform="translate(-10.41 -16.61)"/><polygon class="cls-7" points="54.3 84.53 54.3 84.97 54.3 84.45 54.3 84.53"/><path class="cls-7" d="M64.71,107v0Z" transform="translate(-10.41 -16.61)"/><path class="cls-7" d="M85.49,113.13a5.3,5.3,0,0,0-1.95,2.1l-.23.45c0,.08-.07.15-.07.23s-.08.15-.08.22a1.51,1.51,0,0,0-.15.53c0,.07,0,.15-.07.15a.26.26,0,0,1-.08.22c0,.08-.07.23-.07.3a.66.66,0,0,1-.08.38v.9c0,.07,0,.15.08.15s.07.22.15.37.07.15.15.23a.16.16,0,0,0,.15.15l.3.3-2.85-1.65-1.13-.68-1.35-.75-1.87-1.12-1.2-.75-2-1.2.23-.15,1-.53,4.88-2.77.75-.45,1.35.75L82,111l.9.52,1,.6Z" transform="translate(-10.41 -16.61)"/><path class="cls-8" d="M85.49,113.13c1.57-.9,2.77-.15,2.85,1.58a6.32,6.32,0,0,1-2.78,4.87c-1.57.9-2.77.15-2.85-1.57a6,6,0,0,1,2.78-4.88" transform="translate(-10.41 -16.61)"/><path class="cls-4" d="M80.54,119.21l-1.43.82c-.45-.3-1-.52-1.42-.82l-.3-.15h0c-.9-.53-1.88-1-2.78-1.65-.6-.3-1.12-.68-1.72-1-.08-.07-.15-.07-.23-.15h0a1.54,1.54,0,0,0-.6-.3,5.55,5.55,0,0,0-.6-.3.57.57,0,0,0-.3-.15c-.07,0-.07-.07-.15-.07a1.68,1.68,0,0,1-.45-.3l.6-.38.83-.45,2,1.2.45.23,4.43,2.55.37.22Z" transform="translate(-10.41 -16.61)"/><path class="cls-4" d="M79.19,120l-.6.38-.83.45c-1.57-.9-3.15-1.88-4.87-2.85-.45-.23-.83-.53-1.28-.75a.28.28,0,0,1-.15-.08.29.29,0,0,1-.15-.07h0c-.37-.23-.82-.45-1.27-.75s-.53-.3-.83-.45h0a3.92,3.92,0,0,0-.6-.38,2.24,2.24,0,0,0,.6.3l.83-.45.52-.3h.08c.15.08.3.23.45.3s.07.08.15.08a.57.57,0,0,0,.3.15,5.55,5.55,0,0,0,.6.3,5.55,5.55,0,0,0,.6.3c.07.07.15.07.22.15.6.37,1.2.67,1.73,1,1,.53,1.87,1.13,2.77,1.65h0l.3.15a8.65,8.65,0,0,0,1.43.9" transform="translate(-10.41 -16.61)"/><polygon class="cls-5" points="54.3 82.05 54.3 82.95 54.23 82.05 54.3 82.05"/><polygon class="cls-5" points="54.3 84.53 54.3 84.97 54.3 83.1 54.3 84.53"/><path class="cls-5" d="M64.71,107v0Z" transform="translate(-10.41 -16.61)"/><path class="cls-5" d="M85.49,110.73l-.08.08a5.36,5.36,0,0,0-.75.52c-.07,0-.07.08-.15.15s-.22.15-.3.23l-.22.22-.23.23-.22.22a2.92,2.92,0,0,0-.6.75c-.08.08-.15.15-.15.23-.15.15-.23.37-.38.52a4.5,4.5,0,0,0-.37.6c-.15.23-.23.45-.38.68a2.31,2.31,0,0,0-.3.75,5.62,5.62,0,0,1-.22.6c-.08.15-.08.3-.15.45s-.08.22-.08.3a.28.28,0,0,1-.07.22c0,.15-.08.23-.08.38a.49.49,0,0,1-.07.3c0,.15,0,.3-.08.37v.83a4,4,0,0,0,.23,1.42c.07.15.07.23.15.38s.07.22.15.3.07.15.15.22.07.08.15.15a.69.69,0,0,0,.37.3.08.08,0,0,1,.08.08l-3.08-1.8-.15-.08-.9-.52-3.9-2.25-1.5-.83-.22-.15-2-1.2.53-.3h.07l.6-.37.83-.45,1-.53.23-.15,1-.52,4.88-2.78.75-.45,1.2-.67.15-.08.67-.37.08-.08,2,1.2h0l.38.23Z" transform="translate(-10.41 -16.61)"/><path class="cls-4" d="M59.31,110.13h0c-.22-.07-.37-.22-.6-.3a2.25,2.25,0,0,1,.6.3" transform="translate(-10.41 -16.61)"/><path class="cls-4" d="M77.76,120.86V121c-.3-.15-.6-.38-.9-.53-1.35-.75-2.7-1.57-4.12-2.4-.38-.22-.83-.45-1.28-.75-.15-.07-.22-.15-.37-.22h0a7.73,7.73,0,0,0-1.13-.6c-.3-.15-.6-.38-1-.53l.07-.07h.08a4.48,4.48,0,0,0-.6-.38,2,2,0,0,0,.6.3c.3.15.52.3.82.45a12.15,12.15,0,0,1,1.28.75h0c.07,0,.07.08.15.08s.07.07.15.07c.45.23.82.53,1.27.75q2.59,1.57,5,2.93" transform="translate(-10.41 -16.61)"/><path class="cls-5" d="M50.76,109.83h-.07c0-.07.07-.07.07,0" transform="translate(-10.41 -16.61)"/><path class="cls-5" d="M75.66,122.06a6.31,6.31,0,0,1-2.77,4.87L70,125.28l-.08-.07c-.52-.3-1.12-.68-1.65-1-.37-.22-.67-.37-1-.6-.15-.07-.22-.15-.37-.22-1.13-.6-2.18-1.28-3.3-1.88h0l-1.58-.9a12.17,12.17,0,0,1-1.35-.82c-.45-.3-.9-.53-1.35-.83v-3.75l5.48,3.15.37-.22,2-1.13h.08l2,1.13a6,6,0,0,1,.9.52c.38.23.75.45,1,.6.6.38,1.2.68,1.8,1a17,17,0,0,0,2.7,1.73" transform="translate(-10.41 -16.61)"/><polygon class="cls-6" points="54.3 82.05 54.3 82.95 54.23 82.05 54.3 82.05"/><polygon class="cls-6" points="54.3 84.53 54.3 84.97 54.3 83.1 54.3 84.53"/><path class="cls-6" d="M64.71,107v0Z" transform="translate(-10.41 -16.61)"/><path class="cls-6" d="M85.41,109.16a6.69,6.69,0,0,0-1.2.82l-.07.08c-.15.15-.38.3-.53.45l-.07.07a9.71,9.71,0,0,0-.83.9c-.15.15-.3.38-.45.53s-.37.45-.52.67a13.06,13.06,0,0,0-1,1.73l-.23.45-.22.45v.07l-.23.45a1.14,1.14,0,0,0-.15.45,1.51,1.51,0,0,0-.15.6,2,2,0,0,0-.15.6c-.07.15-.07.3-.15.53s-.07.3-.07.45a9.41,9.41,0,0,0-.15,1.5V120c-.45-.3-1-.52-1.43-.82l-.3-.15h0c-.9-.53-1.87-1-2.77-1.65-.6-.3-1.13-.68-1.73-1-.07-.07-.15-.07-.22-.15h0a1.61,1.61,0,0,0-.6-.3,6.67,6.67,0,0,0-.6-.3.65.65,0,0,0-.3-.15c-.08,0-.08-.07-.15-.07a1.68,1.68,0,0,1-.45-.3l.6-.38.82-.45,1-.52.22-.15,1-.53,4.87-2.77.75-.45,1.2-.68.15-.07.68-.38.07-.07H82l-.23-.15c.08,0,.15.07.23.15l1.35-.75,2,1.2Z" transform="translate(-10.41 -16.61)"/><path class="cls-4" d="M79.19,120h0c-.45-.23-1-.53-1.43-.75a.51.51,0,0,0-.3-.15h0c-.9-.53-1.87-1-2.77-1.65-.6-.3-1.13-.68-1.73-1-.07-.07-.15-.07-.22-.15h0a1.61,1.61,0,0,0-.6-.3,6.67,6.67,0,0,0-.6-.3.65.65,0,0,0-.3-.15c-.08,0-.08-.07-.15-.07a1.68,1.68,0,0,1-.45-.3l.6-.38.82-.45,1-.52.22-.15,2,1.2,1.87,1c.08,0,.15.07.23.15s.15.07.22.15a.15.15,0,0,1,.15.15.9.9,0,0,1,.38.37l.07.08a3.34,3.34,0,0,1,.53.9c0,.07.07.22.07.3a.42.42,0,0,1,.08.3h0c0,.07.07.15.07.3s.08.3.08.45v.6a.57.57,0,0,1,.15.3" transform="translate(-10.41 -16.61)"/><path class="cls-5" d="M75.66,122.06c-.9-.53-1.87-1-2.77-1.65-.6-.38-1.2-.68-1.8-1-.38-.23-.75-.45-1-.6a5.28,5.28,0,0,1-.9-.53l-2-1.12,1.13-.6h0l1.8,1,.3.15.52.3,1.13.67,2.77,1.58h.08c.07,0,.07.07.15.07l.22.23a.37.37,0,0,1,.15.3c0,.15.08.22.15.37s.08.23.08.3v.15a.74.74,0,0,1,.07.38" transform="translate(-10.41 -16.61)"/><path class="cls-5" d="M72.81,126.93a2.25,2.25,0,0,1-1.27.38h-.23a.26.26,0,0,1-.22-.08h-.15a.23.23,0,0,1-.15-.07.08.08,0,0,1-.08-.08l-2.85-1.65-1.12-.67h0l-.45-.3-3.15-1.88a5.4,5.4,0,0,1-.83-.52c-1.05-.6-2.1-1.2-3.15-1.88v-1.35c.45.3.9.53,1.35.83s.9.52,1.35.82l1.58.9h0c1.12.6,2.17,1.28,3.3,1.88.15.07.22.15.37.22.38.23.68.38,1,.6.53.3,1.13.68,1.65,1l.08.07Z" transform="translate(-10.41 -16.61)"/><path class="cls-6" d="M59.31,110.13h0c-.22-.07-.37-.22-.6-.3a2.25,2.25,0,0,1,.6.3" transform="translate(-10.41 -16.61)"/><path class="cls-6" d="M77.76,120.86c-1.57-.9-3.15-1.88-4.87-2.85-.45-.23-.83-.53-1.28-.75-.07,0-.07-.08-.15-.08a.29.29,0,0,1-.15-.07h0c-.37-.23-.82-.45-1.27-.75s-.53-.3-.83-.45h0a3.92,3.92,0,0,0-.6-.38,2.24,2.24,0,0,0,.6.3l.83-.45.52-.3h.08l.6-.37,2,1.2.23.15,2.77,1.57h.08a2.17,2.17,0,0,1,.45.38l.07.07.23.23.07.07a.57.57,0,0,1,.15.3c.08.08.08.15.15.23s.15.52.23.82v.6a1.83,1.83,0,0,1,.07.53" transform="translate(-10.41 -16.61)"/><path class="cls-7" d="M74.76,120.26c0-.08-.07-.08,0,0a.28.28,0,0,1-.15-.08h-.37a2,2,0,0,0-.68.08.57.57,0,0,0-.3.15.07.07,0,0,0-.07.07c-.08,0-.15.08-.23.15l-1.8-1-1-.6-.9-.52-1.95-1.13h0l1.13-.6,1.8,1,.3.15.52.3,1.13.68Z" transform="translate(-10.41 -16.61)"/><path class="cls-7" d="M50.76,109.83h-.07c0-.07.07-.07.07,0" transform="translate(-10.41 -16.61)"/><path class="cls-7" d="M70,125.28h0v.38a.49.49,0,0,0,.07.3.26.26,0,0,0,.08.22c0,.08.07.15.07.23s.08.15.15.22l.23.23a.25.25,0,0,0,.15.07c.07,0,.07.08.15.08l-2.85-1.65L67,124.68h0l-.45-.3-3.15-1.87-.82-.53-3.15-1.87V115l5.47,3.15.38-.23,2-1.12h.07l1.95,1.12.9.53,1,.6,1.8,1A7.23,7.23,0,0,0,70,125.28" transform="translate(-10.41 -16.61)"/><polygon class="cls-4" points="46.2 104.55 46.2 105 45.83 104.78 46.2 104.55"/><polygon class="cls-4" points="57.52 109.95 56.1 110.7 49.58 106.95 48.75 106.42 48.75 104.85 51 106.13 56.25 109.2 57.52 109.95"/><path class="cls-5" d="M50.76,109.83h-.07c0-.07.07-.07.07,0" transform="translate(-10.41 -16.61)"/><path class="cls-5" d="M43.19,113.81Z" transform="translate(-10.41 -16.61)"/><polygon class="cls-5" points="46.2 104.55 46.2 105.15 45.75 105.38 45.23 105.08 45.83 104.78 46.2 104.55"/><path class="cls-5" d="M72.81,118a.25.25,0,0,1-.15.07l-.07.08a2.13,2.13,0,0,0-.53.37l-.07.08c-.15.15-.38.3-.53.45l-.15.15-.07.07a.28.28,0,0,0-.08.15l-.37.38c-.23.22-.38.45-.6.67s-.15.15-.15.23-.23.3-.3.45a1.74,1.74,0,0,0-.3.52c-.08.15-.15.23-.23.38v.07a.63.63,0,0,0-.15.38,10.69,10.69,0,0,0-.52,1.35c-.08.15-.08.3-.15.45s-.08.22-.08.3-.07.15-.07.22-.08.23-.08.38a.49.49,0,0,1-.07.3c0,.15-.08.3-.08.45v1.57a1.14,1.14,0,0,0,.15.45.27.27,0,0,0,.08.23c.07.15.07.22.15.37a.25.25,0,0,0,.07.15c0,.08.08.08.08.15s.15.15.15.23l.07.07.23.23.15.15L66,127.76l-6.68-3.9-.22-.15v-8.55l5.47,3.15.38-.23,2-1.12H67l1.13-.6h0l.82-.45.08-.08.82.53L71,117l.38.23Z" transform="translate(-10.41 -16.61)"/><path class="cls-5" d="M49.56,102.86h0" transform="translate(-10.41 -16.61)"/><path class="cls-5" d="M59.31,110.13h0c-.22-.07-.37-.22-.6-.3a2.25,2.25,0,0,1,.6.3" transform="translate(-10.41 -16.61)"/><path class="cls-5" d="M76.26,117.63h0c-.07,0-.07-.07-.15-.07s-.15-.08-.22-.08-.15-.07-.3-.07h-1a1.68,1.68,0,0,0-.82.22,2.71,2.71,0,0,0-.9.45h-.08l-1.27-.75-.38-.22-1.2-.68-.82-.52h.07a3.92,3.92,0,0,0-.6-.38,2.24,2.24,0,0,0,.6.3l.83-.45.52-.3h.08l.6-.37,2,1.2.23.15Z" transform="translate(-10.41 -16.61)"/><path class="cls-6" d="M59.31,110.13h0c-.22-.07-.37-.22-.6-.3a2.25,2.25,0,0,1,.6.3" transform="translate(-10.41 -16.61)"/><path class="cls-6" d="M50.76,109.83h-.07c0-.07.07-.07.07,0" transform="translate(-10.41 -16.61)"/><polygon class="cls-6" points="46.2 104.55 46.2 105 45.83 104.78 46.2 104.55"/><path class="cls-6" d="M72.81,116.43c-.15.08-.37.23-.52.3a7,7,0,0,1-.75.53l-.08.07a2.44,2.44,0,0,0-.6.6c-.07.08-.22.15-.3.3l-.15.15c-.07.15-.22.23-.37.38a11.72,11.72,0,0,0-1,1.2c-.07.15-.22.3-.3.45a10.33,10.33,0,0,0-.75,1.2l-.22.45-.23.45a3.87,3.87,0,0,0-.22.52,1,1,0,0,0-.15.53c-.08.22-.15.45-.23.67s-.07.38-.15.53h0a1.68,1.68,0,0,1-.15.52c0,.15-.07.3-.07.53a10.43,10.43,0,0,0-.15,1.57l-6.53-3.75-.82-.52v-7.88l5.47,3.15.38-.22,2-1.13H67l1.13-.6h0l.82-.45.08-.07h.07a3.92,3.92,0,0,0-.6-.38,2.24,2.24,0,0,0,.6.3l.83-.45.52-.3,2,1.2Z" transform="translate(-10.41 -16.61)"/><path class="cls-5" d="M88.86,110.36h0a1.17,1.17,0,0,0-.37-.15c-.08,0-.15-.08-.3-.08a.3.3,0,0,1-.23-.07h-1a.28.28,0,0,0-.22.07.63.63,0,0,0-.38.15c-.07,0-.15.08-.22.08s-.15.07-.23.07l-.45.23h-.07l-1.28-.75a13.68,13.68,0,0,1,1.2-.83l-.22-.15h0l-2-1.2h.08l.6-.37,2,1.2.23.15Z" transform="translate(-10.41 -16.61)"/><polygon class="cls-6" points="54.23 79.58 54.23 79.58 54.23 78.08 54.23 79.58"/><path class="cls-6" d="M66.74,97.46Z" transform="translate(-10.41 -16.61)"/><path class="cls-6" d="M89.84,108.63c-.08,0-.08-.07-.15-.07s-.23-.08-.38-.15a.28.28,0,0,1-.15-.08h-.07a.46.46,0,0,1-.3-.07H87.51a1.28,1.28,0,0,0-.52.15c-.08,0-.15.07-.3.07s-.15.08-.3.08-.15.07-.3.15-.23.07-.3.15-.23.07-.3.15h-.08l-.22-.15-2-1.2h.08l.6-.38,2-1.12.9.52,1.12.68Z" transform="translate(-10.41 -16.61)"/><path class="cls-10" d="M85.49,119.66a6.14,6.14,0,0,0,2.77-4.88c0-1.8-1.27-2.47-2.85-1.57a6.12,6.12,0,0,0-2.77,4.87C82.64,119.81,83.91,120.48,85.49,119.66Zm0-8.93c2.7-1.57,5-.3,5,2.78v.15A11,11,0,0,1,85.56,122c-2.62,1.5-4.8.38-5-2.62v-.15A10.52,10.52,0,0,1,85.49,110.73Z" transform="translate(-10.41 -16.61)"/><path class="cls-11" d="M85.41,109.16c3.45-2,6.3-.38,6.3,3.6l-1.42.82c0-3.07-2.25-4.35-5-2.77a10.89,10.89,0,0,0-4.88,8.47l-1.42.83a14.31,14.31,0,0,1,6.37-11" transform="translate(-10.41 -16.61)"/><polygon class="cls-13" points="54.3 82.05 54.3 82.95 54.23 82.05 54.3 82.05"/><polygon class="cls-13" points="54.23 79.58 54.23 79.58 54.23 78.08 54.23 79.58"/><path class="cls-13" d="M66.74,97.46Z" transform="translate(-10.41 -16.61)"/><path class="cls-13" d="M81.81,108.56h0l-.22-.15c.07.07.15.15.22.15" transform="translate(-10.41 -16.61)"/><path class="cls-6" d="M49.56,102.86h0" transform="translate(-10.41 -16.61)"/><path class="cls-6" d="M77.09,115.91c-.08-.08-.15-.08-.3-.15s-.23-.08-.3-.08-.15-.07-.3-.07a2.33,2.33,0,0,0-1,0,.74.74,0,0,0-.38.07.44.44,0,0,0-.3.08,4.82,4.82,0,0,0-1,.37,5.55,5.55,0,0,0-.6.3h-.08l-.22-.15-2-1.2h.08l.6-.37.82-.45,1-.53.22-.15,2,1.2,1.8,1.13h0" transform="translate(-10.41 -16.61)"/><polygon class="cls-4" points="68.78 103.42 70.13 102.6 70.13 102.83 68.33 103.88 67.35 104.4 67.35 104.25 68.17 103.8 68.78 103.42"/><path class="cls-4" d="M95.91,109.38a2.27,2.27,0,0,1-1,1.8l-4.5,2.63v-.15l1.43-.83v-1.57c0-.15-.08-.3-.08-.45a.51.51,0,0,0-.15-.3c-.07-.15-.07-.23-.15-.38s-.07-.15-.15-.22-.07-.08-.07-.15-.08-.08-.08-.15-.07-.15-.15-.23l-.22-.22-.23-.23c-.07,0-.07-.07-.15-.07s-.07-.08-.15-.08h-.07c-.08-.07-.15-.07-.23-.15s-.22-.07-.37-.15-.15,0-.15-.07H87.66a1.28,1.28,0,0,0-.52.15c-.08,0-.15.07-.3.07s-.15.08-.3.08h-.15c-.08,0-.08,0-.15.07s-.23.08-.3.15-.23.08-.3.15h-.08c-.07.08-.22.15-.3.23s-.22.15-.3.22-.37.23-.52.38h-.08l-.07.07c-.15.15-.38.3-.53.45l-.07.08a9.71,9.71,0,0,0-.83.9c-.15.15-.3.37-.45.52s-.37.45-.52.68a12.33,12.33,0,0,0-1,1.72l-.23.45-.22.45v.08l-.23.45a1.14,1.14,0,0,0-.15.45,46240706294784.21,46240706294784.21,0,0,1-.3,1.2c-.07.15-.07.3-.15.52s-.07.3-.07.45a9.65,9.65,0,0,0-.15,1.5v-1.42c0-.08-.08-.23-.08-.3s-.07-.23-.07-.3-.08-.23-.08-.3a2.57,2.57,0,0,0-.52-.9l-.08-.08c-.15-.15-.22-.3-.37-.37l-.08-.08-.07-.07c-.08-.08-.15-.08-.23-.15s-.15-.08-.22-.15-.15-.08-.23-.08h-.15c-.07,0-.07,0-.15-.07h-.22a3,3,0,0,0-1.2,0h-.23a.49.49,0,0,0-.3.07c-.15.08-.3.08-.45.15s-.3.08-.37.15-.08,0-.15.08a.51.51,0,0,0-.3.15h-.15c-.08,0-.08.07-.15.07h-.15c-.15.08-.38.23-.53.3a6.08,6.08,0,0,1-.75.53l-.07.07a2.28,2.28,0,0,0-.6.6c-.08.08-.23.15-.3.3l-.15.15c-.08.15-.23.23-.38.38a13.08,13.08,0,0,0-1,1.2c-.08.15-.23.3-.3.45a9.14,9.14,0,0,0-.75,1.2l-.23.45-.22.45a3.78,3.78,0,0,0-.23.52,1.14,1.14,0,0,0-.15.53l-.22.67c-.08.15-.08.38-.15.53h0a2,2,0,0,1-.15.52c0,.15-.08.3-.08.53a11.91,11.91,0,0,0-.15,1.57l1.43-.82v.15l-1.88,1L60,131.36l-2,1.12v-7.72l1.57-.9.23-.15.6-.38,1.42-.82,1-.53,1.12-.67h0l3.6-2.1,2-1.13.83-.52.3-.15.82-.45h0l.08-.08h.07l.83-.45.52-.3H73l.6-.37.82-.45,1-.53.22-.15,1-.52,4.87-2.78.75-.37,1.2-.68.83-.45h0l.07-.07,1.35-.75h0l.08-.08h0l.6-.37.9-.53,1.12-.67,6.45-3.75.68-.38h0l.9-.52v1.8Z" transform="translate(-10.41 -16.61)"/><polygon class="cls-14" points="76.35 91.5 75.45 92.03 74.85 92.33 74.85 92.4 74.78 92.4 73.5 93.15 73.42 93.22 73.35 93.22 73.28 93.22 72.53 93.75 71.33 94.42 70.58 94.8 70.58 93.97 70.58 92.63 70.58 92.47 71.25 92.1 71.4 92.03 71.4 91.95 72.75 91.2 72.83 91.2 73.42 90.83 75.38 89.7 76.35 89.17 76.35 90.22 76.35 91.5"/><path class="cls-10" d="M72.81,126.93a6.11,6.11,0,0,0,2.78-4.87c0-1.8-1.28-2.48-2.85-1.58A6.12,6.12,0,0,0,70,125.36C70,127.08,71.31,127.83,72.81,126.93Zm0-8.92c2.7-1.58,5-.3,5,2.77v.15a11,11,0,0,1-4.87,8.33c-2.63,1.5-4.8.37-5-2.63v-.15A10.88,10.88,0,0,1,72.81,118Z" transform="translate(-10.41 -16.61)"/><polygon class="cls-3" points="54.3 84.53 54.3 84.97 54.3 83.1 54.3 84.53"/><polygon class="cls-3" points="70.58 93.97 70.58 94.8 68.55 93.6 69.3 93.22 70.42 92.55 70.58 92.47 70.58 92.63 70.58 93.97"/><path class="cls-8" d="M72.81,120.48c1.58-.9,2.85-.15,2.85,1.58a6.31,6.31,0,0,1-2.77,4.87c-1.58.9-2.78.15-2.85-1.57a6.33,6.33,0,0,1,2.77-4.88" transform="translate(-10.41 -16.61)"/><path class="cls-11" d="M72.81,116.43c3.53-2,6.3-.37,6.38,3.6l-1.43.83c0-3.08-2.25-4.35-5-2.78a10.9,10.9,0,0,0-4.87,8.48l-1.43.82a13.87,13.87,0,0,1,6.3-10.95" transform="translate(-10.41 -16.61)"/><path class="cls-13" d="M59.31,110.13h0c-.22-.07-.37-.22-.6-.3a2.25,2.25,0,0,1,.6.3" transform="translate(-10.41 -16.61)"/><path class="cls-13" d="M69.21,115.91h0c-.22-.08-.37-.23-.6-.3a2,2,0,0,1,.6.3" transform="translate(-10.41 -16.61)"/><path class="cls-3" d="M50.76,109.83h-.07c0-.07.07-.07.07,0" transform="translate(-10.41 -16.61)"/><polygon class="cls-3" points="56.7 102.83 54.67 101.63 56.63 100.5 56.7 100.5 56.7 100.58 56.7 102.83"/><polygon class="cls-14" points="59.63 100.88 59.63 101.17 58.73 101.7 56.7 102.83 56.7 100.58 56.7 100.5 57.83 99.83 58.65 99.38 58.73 99.3 58.8 99.3 59.55 98.85 59.55 99.9 59.63 100.88"/><polygon class="cls-4" points="54.3 82.05 54.3 82.95 54.23 82.05 54.3 82.05"/><polygon class="cls-4" points="54.23 79.58 54.23 79.58 54.23 78.08 54.23 79.58"/><path class="cls-4" d="M66.74,97.46Z" transform="translate(-10.41 -16.61)"/><polygon class="cls-4" points="54.3 84.53 54.3 84.97 54.3 83.1 54.3 84.53"/><path class="cls-4" d="M64.71,107v0Z" transform="translate(-10.41 -16.61)"/><path class="cls-4" d="M121.41,68.81Z" transform="translate(-10.41 -16.61)"/><polygon class="cls-15" points="54.3 82.05 54.3 82.95 54.23 82.05 54.3 82.05"/><polygon class="cls-15" points="54.23 79.58 54.23 79.58 54.23 78.08 54.23 79.58"/><polygon class="cls-15" points="54.3 84.53 54.3 84.97 54.3 83.1 54.3 84.53"/><path class="cls-15" d="M66.74,97.46Z" transform="translate(-10.41 -16.61)"/><path class="cls-15" d="M121.41,68.81Z" transform="translate(-10.41 -16.61)"/><polygon class="cls-4" points="54.3 82.05 54.3 82.95 54.23 82.05 54.3 82.05"/><polygon class="cls-4" points="54.3 84.53 54.3 84.97 54.3 83.1 54.3 84.53"/><polygon class="cls-4" points="54.23 79.58 54.23 79.58 54.23 78.08 54.23 79.58"/><path class="cls-4" d="M66.74,97.46Z" transform="translate(-10.41 -16.61)"/><path class="cls-4" d="M121.41,68.81Z" transform="translate(-10.41 -16.61)"/><polygon class="cls-15" points="54.23 79.58 54.23 79.58 54.23 78.08 54.23 79.58"/><polygon class="cls-4" points="54.23 79.58 54.23 79.58 54.23 78.08 54.23 79.58"/><path class="cls-16" d="M121.41,68.81ZM66.74,97.46Zm95.32-46.73V31.16l-5,2.92-2.55,1.43-2.18,1.27-2.55,1.43-2.17,1.27L145,40.91,64.56,87.41v8.85h0v5.4h0v16.87l.38-.22,2-1.13H67l1.13-.6h0l.82-.45.08-.07h.07a3.92,3.92,0,0,0-.6-.38,2.24,2.24,0,0,0,.6.3l.83-.45.52-.3h.08l.6-.37.82-.45,1-.53.22-.15,1-.52L79,110.43l.75-.45,1.2-.67.15-.08.68-.37.07-.08h.08l-.23-.15c.08,0,.15.08.23.15l1.35-.75h.07l.6-.37,2-1.13.9-.52,5.55-3.23.68-.37,1.72-1,1.2-.67,2.85-1.65,1.2-.68,12-6.9,3.75-2.17,4.88-2.85,2.17-1.28.6-.37,1.43-.83,1-.52,1.13-.68,5.55-3.22,1.12-.68.9-.52h0l.83-.45.6-.38.6-.37,1.72-1h0l1.2-.68L145,72.26l1.13-.68.9-.52h.07l1.35-.75h.08l.6-.38,1.35-.75.6-.3h.07l.9-.52,2.25-1.28,1.65-.9,1.28-.75,1.95-1.12,1.57-.9,1.28-.75Z" transform="translate(-10.41 -16.61)"/><polygon class="cls-16" points="54.23 79.58 54.23 79.58 54.23 78.08 54.23 79.58"/><polygon class="cls-16" points="54.3 82.05 54.3 82.95 54.23 82.05 54.3 82.05"/><polygon class="cls-16" points="54.3 84.53 54.3 84.97 54.3 83.1 54.3 84.53"/><path class="cls-16" d="M64.71,107v0Z" transform="translate(-10.41 -16.61)"/><path class="cls-16" d="M69.21,115.91h0c-.22-.08-.37-.23-.6-.3a2,2,0,0,1,.6.3" transform="translate(-10.41 -16.61)"/><path class="cls-16" d="M81.81,108.56h0l-.22-.15c.07.07.15.15.22.15" transform="translate(-10.41 -16.61)"/><path class="cls-15" d="M64.71,107v0Z" transform="translate(-10.41 -16.61)"/><path class="cls-5" d="M37.94,129l-.53,4.12L36,136.83c0,.08-.08.23-.08.3-.07.38-.15,1-.22,1.58,0,.15-.08.3-.08.45a8.23,8.23,0,0,0-.07,1.27l-.23-.15-5.47-3.22-4.5-2.63-6-3.52-1.13-.68a4.53,4.53,0,0,1-.67-.6,2.89,2.89,0,0,1-.6-1.27,3.43,3.43,0,0,1-.08-.38c0-.15-.07-.3-.07-.45v-.75a11,11,0,0,1,4.2-7.72Z" transform="translate(-10.41 -16.61)"/><path class="cls-5" d="M43,144.71h0l-3.15-1.8,1.88-1v.6a.49.49,0,0,0,.07.3.26.26,0,0,0,.08.22,1,1,0,0,0,.15.45.51.51,0,0,0,.15.3v.08c.07.07.07.15.15.22s.07.08.07.15l.23.23a1,1,0,0,0,.3.22l.07.08" transform="translate(-10.41 -16.61)"/><path class="cls-5" d="M46.56,133.16a10.88,10.88,0,0,0-4.87,8.47l-1.43.83v-.6a1.74,1.74,0,0,1,.08-.6.74.74,0,0,1,.07-.38,14.5,14.5,0,0,1,.38-1.65v-.07c0-.08.07-.15.07-.23s.08-.15.08-.3,0-.07.07-.15.15-.37.23-.52a3.07,3.07,0,0,1,.37-.75.08.08,0,0,1,.08-.08c.07-.15.15-.22.22-.37a2,2,0,0,1,.3-.53c.08-.15.15-.22.23-.37s.22-.38.37-.6a.28.28,0,0,0,.08-.15c.15-.23.3-.38.45-.6l.07-.08c.15-.22.3-.37.45-.6a.62.62,0,0,1,.3-.3c.15-.15.23-.3.38-.37l.52-.53a1,1,0,0,0,.3-.3Z" transform="translate(-10.41 -16.61)"/><path class="cls-10" d="M46.64,142.08c-1.58.9-2.85.15-2.85-1.57a6.33,6.33,0,0,1,2.77-4.88c1.58-.9,2.78-.15,2.85,1.58a6.31,6.31,0,0,1-2.77,4.87m-.08-8.92a10.88,10.88,0,0,0-4.87,8.47v.75a.46.46,0,0,0,.07.3.27.27,0,0,0,.08.23,1,1,0,0,0,.15.45.57.57,0,0,0,.15.3v.07c.07.08.07.15.15.23s.07.07.07.15l.23.22a1,1,0,0,0,.3.23.07.07,0,0,1,.07.07.08.08,0,0,1,.08.08.07.07,0,0,1,.07.07c.9.53,2.1.45,3.53-.37a10.91,10.91,0,0,0,4.87-8.33v-.15C51.51,132.86,49.26,131.58,46.56,133.16Z" transform="translate(-10.41 -16.61)"/><path class="cls-8" d="M46.64,135.63c1.57-.9,2.77-.15,2.85,1.58a6.32,6.32,0,0,1-2.78,4.87c-1.57.9-2.85.15-2.85-1.57a6,6,0,0,1,2.78-4.88" transform="translate(-10.41 -16.61)"/><polygon class="cls-17" points="46.2 104.55 46.2 105.15 45.75 105.38 39.9 108.83 39.9 108.15 45.23 105.08 45.83 104.78 46.2 104.55"/><polygon class="cls-15" points="54.3 82.05 54.3 82.95 54.23 82.05 54.3 82.05"/><polygon class="cls-15" points="54.3 84.53 54.3 84.97 54.3 83.1 54.3 84.53"/><path class="cls-11" d="M52.94,135.18l-1.43.83c0-3.08-2.25-4.35-4.95-2.78a10.9,10.9,0,0,0-4.87,8.48l-1.43.82v-.67a1.74,1.74,0,0,1,.08-.6.74.74,0,0,1,.07-.38,14.5,14.5,0,0,1,.38-1.65v-.07c0-.08.07-.15.07-.23s.08-.15.08-.3,0-.07.07-.15.15-.37.23-.52a3.07,3.07,0,0,1,.37-.75.08.08,0,0,1,.08-.08c.07-.15.15-.22.22-.37a2,2,0,0,1,.3-.53c.08-.15.15-.22.23-.37s.22-.38.37-.6a.28.28,0,0,0,.08-.15c.15-.23.3-.38.45-.6l.07-.08c.15-.22.3-.37.45-.6a.62.62,0,0,1,.3-.3c.15-.15.23-.3.38-.37l.52-.53a1,1,0,0,0,.3-.3c.08-.07.23-.15.3-.22s.23-.15.3-.23.23-.15.3-.22.23-.15.3-.23c3.53-1.87,6.38-.22,6.38,3.75" transform="translate(-10.41 -16.61)"/><polygon class="cls-15" points="54.23 79.58 54.23 79.58 54.23 78.08 54.23 79.58"/><polygon class="cls-18" points="54.3 101.4 54.3 101.85 48.83 98.7 48.83 98.25 48.9 96 48.9 95.92 48.9 94.65 48.9 93.67 48.9 93.6 48.9 93.53 48.9 92.63 48.9 92.55 48.9 91.95 48.9 91.88 48.9 91.2 48.9 90.3 48.9 89.17 48.9 88.95 48.9 88.8 48.98 87.3 48.98 84.38 48.98 82.8 48.98 82.28 48.98 81.9 49.05 80.25 49.05 79.88 49.05 79.13 48.67 78.9 46.2 77.55 36.3 71.78 33.75 70.28 31.57 69 29.25 67.65 29.25 67.5 29.18 64.95 29.18 62.02 29.18 56.25 34.2 59.17 36.75 60.6 38.92 61.88 41.48 63.38 43.58 64.58 46.13 66.08 54.23 70.8 54.23 76.28 54.23 76.65 54.23 77.4 54.23 79.72 54.23 79.95 54.23 82.05 54.3 82.95 54.3 84.97 54.3 85.35 54.3 87.45 54.3 90.38 54.3 92.33 54.3 93.38 54.3 95.1 54.3 95.7 54.3 97.8 54.3 99.08 54.3 99.15 54.3 101.4"/><path class="cls-16" d="M49.56,102.86h0" transform="translate(-10.41 -16.61)"/><path class="cls-16" d="M50.76,109.83h-.07c0-.07.07-.07.07,0" transform="translate(-10.41 -16.61)"/><path class="cls-16" d="M59.31,110.13h0c-.22-.07-.37-.22-.6-.3a2.25,2.25,0,0,1,.6.3" transform="translate(-10.41 -16.61)"/><path class="cls-4" d="M41.09,126.86c-.08,0-.08-.08,0,0l-.08-.08v0a.08.08,0,0,0,.08.08" transform="translate(-10.41 -16.61)"/><path class="cls-4" d="M50.76,109.83h-.07c0-.07.07-.07.07,0" transform="translate(-10.41 -16.61)"/><path class="cls-19" d="M41.09,126.86c-.08,0-.08-.08,0,0l-.08-.08v0a.08.08,0,0,0,.08.08" transform="translate(-10.41 -16.61)"/><path class="cls-19" d="M50.76,109.83h-.07c0-.07.07-.07.07,0" transform="translate(-10.41 -16.61)"/><polygon class="cls-17" points="46.2 106.35 39.9 109.95 39.9 109.35 46.2 105.67 46.2 106.35"/><path class="cls-19" d="M43.19,113.81Z" transform="translate(-10.41 -16.61)"/><path class="cls-16" d="M58.71,109.83a2.62,2.62,0,0,1,.6.38,1.29,1.29,0,0,0-.6-.38m-9.9,15.75-3.07,1.73a.89.89,0,0,0-.38.67c0,.23.15.38.38.23l3.07-1.73a.89.89,0,0,0,.38-.67C49.19,125.58,49,125.43,48.81,125.58Zm-5.62-11.77Zm-2.25,12.9v0Z" transform="translate(-10.41 -16.61)"/><path class="cls-16" d="M50.31,126.56V126l6.3-3.68V123Zm6.3-2.48-6.3,3.68v-.6l6.3-3.6Zm-6.3.68,5.33-3.08.6-.37.37-.23v.6l-.45.23-5.85,3.37Zm-.9-2.63a3.48,3.48,0,0,1-1.27,1.58l-6.23,3.6a1.47,1.47,0,0,1-.6.15.93.93,0,0,1-.9-1v-.3l.53-4.57v-.23a11.15,11.15,0,0,1,.37-1.57v-.08l1.5-5.4a.24.24,0,0,0,.08-.15l.22-.45a5.57,5.57,0,0,1,.75-.9c.08-.07.15-.15.23-.15l1.12-.67,4.28-2.48.15-.07h0l.15-.08.07-.07h0c.08,0,.08-.08.15-.08a.74.74,0,0,1,.38-.07.93.93,0,0,1,.9,1v4.28a6.5,6.5,0,0,1-.23,1.2c-.07.15-.07.3-.15.45l-.15.52L50.39,118l-.15.6Zm-.6,4.35-3.07,1.73c-.23.15-.38,0-.38-.23a.89.89,0,0,1,.38-.67l3.07-1.73c.23-.15.38,0,.38.23A.89.89,0,0,1,48.81,126.48ZM58.94,96c-.08,0-.08.08-.15.08l-1,.6-.67.45c-.08.07-.23.15-.3.22a15.8,15.8,0,0,0-1.65,1.13c-.68.45-1.43,1-2.25,1.65a15.44,15.44,0,0,0-1.35,1c-.68.52-1.35,1.12-2,1.72h-.07c-.15.15-.3.23-.45.38s-.45.37-.68.6c-.52.45-1,1-1.5,1.5s-.9,1-1.35,1.42l-.07.08c0,.07-.08.07-.08.15s-.07.07-.15.15c-.67.75-1.27,1.5-2,2.32-.52.68-1,1.43-1.57,2.18-.08.07-.15.22-.23.3-.22.37-.45.67-.67,1-.08.07-.08.15-.15.3s-.15.3-.08.3h0c.15.07.83-.3,1-.15v.07a.27.27,0,0,1-.08.23c-.07.22-.22.45-.3.75s-.22.6-.37.9-.23.6-.38.9-.15.37-.22.6-.15.45-.23.75v.07a8,8,0,0,0-.3,1c-.15.52-.3,1.12-.45,1.65a8.34,8.34,0,0,0-.3,1.27c-.07.3-.15.6-.22.83a.55.55,0,0,1-.08.3c-.07.22-.07.37-.15.6s-.07.37-.07.52a4.83,4.83,0,0,0-.15,1v.3a2.66,2.66,0,0,0-.08.75c-.07.75-.15,1.43-.15,1.88V129l-.52,4.12-1.43,3.75c0,.08-.07.23-.07.3-.08.38-.15,1-.23,1.58,0,.15-.07.3-.07.45a7.21,7.21,0,0,0-.08,1.27v5.1L40,143l1.88-1v-.15l-1.43.83v-.75a1.74,1.74,0,0,1,.08-.6.74.74,0,0,1,.07-.38,14.5,14.5,0,0,1,.38-1.65v-.07c0-.08.07-.15.07-.23s.08-.15.08-.3,0-.07.07-.15.15-.37.23-.52a3.07,3.07,0,0,1,.37-.75.08.08,0,0,1,.08-.08c.07-.15.15-.22.22-.37a2,2,0,0,1,.3-.53c.08-.15.15-.22.23-.37s.22-.38.37-.6a.28.28,0,0,0,.08-.15c.15-.23.3-.38.45-.6l.07-.08c.15-.22.3-.37.45-.6a.62.62,0,0,1,.3-.3c.15-.15.23-.3.38-.37l.52-.53a1,1,0,0,0,.3-.3c.08-.07.23-.15.3-.22s.23-.15.3-.23.23-.15.3-.22.23-.15.3-.23c3.53-2,6.3-.37,6.38,3.6l-1.43.83V136l6.08-3.53v-7.72l1.57-.9v-14c-.22-.15-.37-.22-.6-.37.23.07.38.22.6.3V95.5C59.39,95.81,59.24,95.88,58.94,96Z" transform="translate(-10.41 -16.61)"/><polygon class="cls-17" points="46.2 106.88 46.2 107.47 39.9 111.08 39.9 110.47 46.2 106.88"/><path class="cls-20" d="M66.74,97.46Z" transform="translate(-10.41 -16.61)"/><path class="cls-20" d="M121.41,68.81Z" transform="translate(-10.41 -16.61)"/><polygon class="cls-18" points="25.05 128.85 0.07 114.22 0 111.08 0 109.72 5.17 112.72 9 114.9 14.63 118.2 19.43 120.97 24.82 124.13 25.05 124.28 25.05 128.85"/><polygon class="cls-21" points="151.65 14.55 146.55 17.48 144.07 18.9 141.9 20.18 139.43 21.6 137.25 22.88 134.7 24.3 54.23 70.8 46.13 66.08 43.58 64.58 41.48 63.38 38.92 61.88 36.75 60.6 34.2 59.17 29.18 56.25 126.6 0 151.65 14.55"/><path class="cls-22" d="M41.61,113.51a.28.28,0,0,1-.07.22,6.15,6.15,0,0,0-.3.75c-.15.3-.23.6-.38.9s-.22.6-.37.9-.15.38-.23.6-.15.45-.22.75v.08a6.15,6.15,0,0,0-.3,1c-.15.53-.3,1.13-.45,1.65a7.41,7.41,0,0,0-.3,1.28c-.08.3-.15.6-.23.82a.59.59,0,0,1-.07.3c-.08.23-.08.38-.15.6s-.08.38-.08.53a5.32,5.32,0,0,0-.15,1v.3a3,3,0,0,0-.07.75c-.08.75-.15,1.42-.15,1.87v1l-17-9.9-2.17-1.27L13,114.33a42.19,42.19,0,0,1,3.45-14.85c.6.38,1.2.68,1.8,1,2.7,1.58,5.47,3.15,8.17,4.73,4.73,2.77,9.45,5.47,14.18,8.25h0c.15.07.82-.3,1-.15v.15" transform="translate(-10.41 -16.61)"/><path class="cls-21" d="M59.46,95.73A1.44,1.44,0,0,0,59,96c-.07,0-.07.08-.15.08-.22.15-.6.37-1,.6l-.68.45c-.07.07-.22.15-.3.22a16.93,16.93,0,0,0-1.65,1.13c-.67.45-1.42,1-2.25,1.65a15.44,15.44,0,0,0-1.35,1c-.67.52-1.35,1.12-2,1.72h-.08c-.15.15-.3.23-.45.38s-.45.37-.67.6c-.53.45-1,1-1.5,1.5s-.9,1-1.35,1.42l-.08.08c0,.07-.07.07-.07.15s-.08.07-.15.15c-.68.75-1.28,1.5-1.95,2.32s-1.05,1.43-1.58,2.18c-.07.07-.15.22-.22.3-.23.37-.45.67-.68,1-.07.07-.07.15-.15.3s-.15.3-.07.3c-4.73-2.78-9.45-5.48-14.18-8.25-2.7-1.58-5.47-3.15-8.17-4.73-.6-.37-1.2-.67-1.8-1.05-.3-.15-.53-.3-.83-.45-.07,0-.07-.15.08-.37,5.62-9.53,16-15.9,18.3-17.25.3-.15.45-.23.45-.3l5.25,3.07,2.4,1.35L44.31,87l2.55,1.5,9.9,5.77,2.4,1.43Z" transform="translate(-10.41 -16.61)"/><path class="cls-21" d="M49.56,102.86h0" transform="translate(-10.41 -16.61)"/><path class="cls-21" d="M37.94,129l-.53,4.12L36,136.83c0,.08-.08.23-.08.3-.07.38-.15,1-.22,1.58,0,.15-.08.3-.08.45a8.23,8.23,0,0,0-.07,1.27V141l-.23-.15-5.47-3.15-4.73-2.78-5.62-3.3-3.83-2.25-5.17-3a5.28,5.28,0,0,1,.07-1v-.23a8.85,8.85,0,0,1,.15-1.35.62.62,0,0,1,.08-.37v-.15c.07-.38.15-.75.22-1l1.43-3.75.52-4.12,5.85,3.37L21,119.06Z" transform="translate(-10.41 -16.61)"/><path class="cls-23" d="M50.76,109.83h-.07c0-.07.07-.07.07,0" transform="translate(-10.41 -16.61)"/><path class="cls-23" d="M41.09,126.86c-.08,0-.08-.08,0,0l-.08-.08v0a.08.08,0,0,0,.08.08" transform="translate(-10.41 -16.61)"/><path class="cls-20" d="M51,114.33a3.39,3.39,0,0,1-.23,1.13c-.07.15-.07.37-.15.52l-.15.45-.37,1.43-.15.6-1,3.6a3.07,3.07,0,0,1-1,1.27l-6.23,3.6a.42.42,0,0,1-.3.08h-.07a.08.08,0,0,1-.08-.08l-.07-.07a.08.08,0,0,0-.08-.08v-.3l.6-4.8A4.3,4.3,0,0,1,42,120l1.5-5.47c0-.08.07-.08.07-.15s.08-.23.15-.3a2.19,2.19,0,0,1,.83-.83l.22-.15,1-.6,4.12-2.4.3-.15.15-.07c.08,0,.08-.08.15-.08h.38c.07,0,.07,0,.07.08s.08.07.08.15v4.27Zm.52-3.52v-.53a.88.88,0,0,0-.9-1,.7.7,0,0,0-.37.07c-.08,0-.08.08-.15.08l-.08.07-.15.08h0l-.15.07-4.27,2.48-1.13.67c-.07.08-.15.08-.22.15a3.05,3.05,0,0,0-.75.9l-.23.45a.23.23,0,0,1-.07.15l-1.5,5.4V120a3.93,3.93,0,0,0-.38,1.57v.23l-.52,4.57v.3a.89.89,0,0,0,.9,1,2,2,0,0,0,.6-.15l6.22-3.6a3.43,3.43,0,0,0,1.28-1.58l1-3.52.15-.6.37-1.43.15-.52c.08-.15.08-.3.15-.45a3.45,3.45,0,0,0,.23-1.2v-.23Z" transform="translate(-10.41 -16.61)"/><path class="cls-22" d="M50.76,109.83h-.07c0-.07.07-.07.07,0" transform="translate(-10.41 -16.61)"/><path class="cls-22" d="M51,114.26v.07a3.39,3.39,0,0,1-.23,1.13c-.07.15-.07.37-.15.52l-.15.45-.37,1.43-.15.6-1,3.6a3.07,3.07,0,0,1-1,1.27l-6.23,3.6a.42.42,0,0,1-.3.08h-.07a.08.08,0,0,1-.08-.08l-.07-.07-.08-.08v-.3l.6-4.8A4.3,4.3,0,0,1,42,120l1.5-5.47c0-.08.07-.08.07-.15s.08-.23.15-.3a2.19,2.19,0,0,1,.83-.83l.22-.15,1-.6,4.12-2.4.3-.15.15-.07c.08,0,.08-.08.15-.08h.3a.08.08,0,0,1,.08.08c0,.07.07.07.07.15v.45Z" transform="translate(-10.41 -16.61)"/><path class="cls-22" d="M41.09,126.86c-.08,0-.08-.08,0,0l-.08-.08v0a.08.08,0,0,0,.08.08" transform="translate(-10.41 -16.61)"/><path class="cls-24" d="M28.49,134.21c.9.52,1.27,2.4,1.27,3.3s-.75,1.2-1.57.67l-11.1-6.45a3.28,3.28,0,0,1-1.58-2.55c0-.9,1-2,1.8-1.5Z" transform="translate(-10.41 -16.61)"/><path class="cls-25" d="M16.34,127.83l-.23.23,13.43,7.87c-.08-.15-.08-.3-.15-.37Z" transform="translate(-10.41 -16.61)"/><path class="cls-25" d="M15.74,129.93l.22.45,13.58,8c.07-.07.15-.15.15-.22Z" transform="translate(-10.41 -16.61)"/><path class="cls-25" d="M15.66,128.66c0,.07-.07.15-.07.3l14.17,8.25v-.38Z" transform="translate(-10.41 -16.61)"/><path class="cls-26" d="M32.54,135.33c1.65,1,2.77,2.1,2.77,4.35,0,2.93-1.05,2.48-1.87,2-.08,0-.08-.08-.15-.08a.25.25,0,0,1-.15-.07.08.08,0,0,1-.08-.08c-.52-.3-1.2-.67-2-1-2.85-1.65-6.52-4.05-6.15-5.32.3-1,1.88-2.48,4.5-1.2a16.52,16.52,0,0,1,3.08,1.42" transform="translate(-10.41 -16.61)"/><path class="cls-26" d="M11.54,128.66c.07,0,.07.07.15.07a.28.28,0,0,1,.15.08.07.07,0,0,1,.07.07c.53.3,1.13.68,1.8,1.05,2.63,1.5,6.08,3.23,5.7,1.58a11.5,11.5,0,0,0-4.12-5.93c-1-.67-2-1.42-2.85-1.87a3.92,3.92,0,0,0-1.73-.6c-.15,1.12-.3,2.62-.3,3.15v1.35a2.42,2.42,0,0,0,1.13,1" transform="translate(-10.41 -16.61)"/><path class="cls-17" d="M49.19,125.81a.89.89,0,0,1-.38.67l-3.07,1.73c-.23.15-.38,0-.38-.23a.89.89,0,0,1,.38-.67l3.07-1.73c.15-.15.38,0,.38.23" transform="translate(-10.41 -16.61)"/><polygon class="cls-27" points="15.6 105.67 15.15 104.85 9.53 101.55 9.07 102 15.6 105.67"/><path class="cls-27" d="M25.56,121.76c-.07,0-.15,0-.15-.08s-6.07-5.47-11.55-6.52c-.15,0-.22-.15-.22-.3s.15-.23.3-.23c5.55,1.13,11.47,6.45,11.77,6.68.08.07.08.22,0,.37-.07,0-.07.08-.15.08" transform="translate(-10.41 -16.61)"/><polygon class="cls-27" points="25.05 111 24.6 110.17 19.05 106.88 18.6 107.33 25.05 111"/><path class="cls-27" d="M35,127.08c-.07,0-.15,0-.15-.07s-6.07-5.48-11.55-6.53c-.15,0-.22-.15-.22-.3s.15-.22.3-.22c5.55,1.12,11.47,6.45,11.77,6.67a.33.33,0,0,1,0,.38.25.25,0,0,1-.15.07" transform="translate(-10.41 -16.61)"/></svg>