<svg id="Capa_1" data-name="Capa 1" xmlns="http://www.w3.org/2000/svg" viewBox="0 0 85.43 79.07"><defs><style>.cls-1{fill:#534f52;}.cls-2{fill:#2e2a2c;}.cls-3{fill:#a52822;}.cls-4{fill:#c6c6c8;}.cls-5{fill:#1e1b1a;}.cls-6{fill:#3c5fa5;}.cls-7{fill:#352f76;}.cls-8{fill:#6c8ac5;}.cls-9{fill:#2d292b;}.cls-10{fill:#929394;}.cls-11{fill:#9dcdea;}.cls-12,.cls-13{fill:#fff;}.cls-12{fill-rule:evenodd;}.cls-14{fill:#30281f;}.cls-15{fill:#858586;}</style></defs><polygon class="cls-1" points="79.35 45.3 79.35 48 78.08 46.05 79.35 45.3"/><polygon class="cls-2" points="79.35 48 59.1 36.15 57.75 34.2 78.08 46.05 79.35 48"/><polygon class="cls-3" points="85.42 36.67 83.85 37.5 83.85 33.52 85.35 32.63 85.42 36.67"/><path class="cls-4" d="M127.7,90.61c1.42-.83,2.55-.15,2.55,1.42a5.62,5.62,0,0,1-2.55,4.43c-1.43.82-2.55.15-2.55-1.43a5.56,5.56,0,0,1,2.55-4.42" transform="translate(-54.12 -44.93)"/><path class="cls-5" d="M124.55,99,104.22,87.23A3,3,0,0,1,103,84.38a10,10,0,0,1,4.42-7.72L127.7,88.43a9.61,9.61,0,0,0-4.43,7.73A3.16,3.16,0,0,0,124.55,99" transform="translate(-54.12 -44.93)"/><path class="cls-1" d="M127.7,86.93c3.15-1.8,5.77-.37,5.77,3.3L132.2,91c0-2.85-2-4-4.5-2.55a9.61,9.61,0,0,0-4.43,7.73l-1.27.75a12.69,12.69,0,0,1,5.7-10" transform="translate(-54.12 -44.93)"/><path class="cls-5" d="M127.7,96.46A5.62,5.62,0,0,0,130.25,92c0-1.65-1.13-2.25-2.55-1.42A5.56,5.56,0,0,0,125.15,95,1.55,1.55,0,0,0,127.7,96.46Zm0-8c2.47-1.42,4.5-.3,4.5,2.55a10,10,0,0,1-4.43,7.73c-2.47,1.42-4.5.3-4.5-2.55A9.79,9.79,0,0,1,127.7,88.43Z" transform="translate(-54.12 -44.93)"/><path class="cls-6" d="M122,96.83l1.27-.75Z" transform="translate(-54.12 -44.93)"/><path class="cls-6" d="M139.55,86.71l-6.08,3.52c0-3.67-2.62-5.1-5.77-3.3a12.46,12.46,0,0,0-5.7,9.9L98.37,110.48v-30l41.18-23.77V77.63l-1.5.9v4l1.5-.9v5.1Z" transform="translate(-54.12 -44.93)"/><path class="cls-6" d="M98.3,87.83v0Z" transform="translate(-54.12 -44.93)"/><path class="cls-6" d="M98.3,87.83v0Z" transform="translate(-54.12 -44.93)"/><polygon class="cls-7" points="44.25 61.95 23.93 50.17 23.85 23.77 44.17 35.55 44.25 61.95"/><polygon class="cls-8" points="44.17 35.55 23.85 23.77 65.03 0 85.35 11.78 44.17 35.55"/><polygon class="cls-7" points="42.98 62.7 22.65 50.92 23.93 50.17 44.25 61.95 42.98 62.7"/><polygon class="cls-7" points="44.25 61.95 44.25 65.55 42.98 66.3 42.98 62.7 44.25 61.95"/><polygon class="cls-9" points="36.6 72.67 16.27 60.9 15 58.95 35.33 70.72 36.6 72.67"/><polygon class="cls-1" points="36.6 69.97 36.6 72.67 35.33 70.72 36.6 69.97"/><path class="cls-4" d="M85,115.28c1.42-.82,2.55-.15,2.55,1.5A5.62,5.62,0,0,1,85,121.21c-1.43.82-2.55.15-2.55-1.43a5.61,5.61,0,0,1,2.55-4.5" transform="translate(-54.12 -44.93)"/><path class="cls-5" d="M81.8,123.68c-6.75-3.9-13.5-7.87-20.25-11.77a3,3,0,0,1-1.28-2.85,10,10,0,0,1,4.43-7.73L85,113.11a9.57,9.57,0,0,0-4.42,7.72,2.88,2.88,0,0,0,1.2,2.85" transform="translate(-54.12 -44.93)"/><path class="cls-5" d="M85,121.13a5.59,5.59,0,0,0,2.55-4.42c0-1.65-1.13-2.25-2.55-1.5a5.56,5.56,0,0,0-2.55,4.42C82.4,121.28,83.6,122,85,121.13Zm0-8c2.47-1.43,4.5-.3,4.5,2.55A10,10,0,0,1,85,123.38c-2.47,1.43-4.5.3-4.5-2.55A9.76,9.76,0,0,1,85,113.11Z" transform="translate(-54.12 -44.93)"/><path class="cls-1" d="M85,111.61c3.15-1.8,5.77-.38,5.77,3.3l-1.27.75c0-2.85-2-4-4.5-2.55a9.58,9.58,0,0,0-4.43,7.72l-1.27.75a12.8,12.8,0,0,1,5.7-10" transform="translate(-54.12 -44.93)"/><polygon class="cls-10" points="21.82 78.53 1.57 66.67 1.5 62.33 21.82 74.17 21.82 78.53"/><path class="cls-7" d="M75,123.83,54.65,112.06c-.3-.15-.53-.9-.53-1.58s.3-2.55.75-2.77a6.05,6.05,0,0,0,.75-.45L76,119a4.87,4.87,0,0,1-.75.45c-.45.23-.75,2-.75,2.78,0,.67.22,1.42.52,1.57" transform="translate(-54.12 -44.93)"/><path class="cls-6" d="M76,119.11v4.35l-.75.45c-.45.22-.75-.75-.75-1.58s.3-2.55.75-2.77a3.21,3.21,0,0,1,.75-.45" transform="translate(-54.12 -44.93)"/><polygon class="cls-6" points="21.82 74.17 1.5 62.33 1.5 57.75 21.82 69.6 21.82 74.17"/><polygon class="cls-11" points="21.82 69.6 1.5 57.75 6.3 43.42 26.63 55.2 21.82 69.6"/><path class="cls-8" d="M76.17,77.71a1.29,1.29,0,0,0-1.35.15l-12.45,7.2L82.62,96.83l12.45-7.2a1.51,1.51,0,0,1,1.35-.15Z" transform="translate(-54.12 -44.93)"/><path class="cls-6" d="M94.1,101.56v-8.7l-10,5.77L81,109.13Zm1-11.93c1.05-.6,2-.15,2,1.13l.08,20.47-6.38,3.68c0-3.68-2.62-5.1-5.77-3.3a12.67,12.67,0,0,0-5.7,9.9L76,123.38v-8.92l4.8-14.33c.52-1.42.82-2.7,1.87-3.3Z" transform="translate(-54.12 -44.93)"/><path class="cls-8" d="M80.75,100.13,60.42,88.36c.53-1.43.83-2.7,1.88-3.3L82.55,96.83c-1,.6-1.28,2-1.8,3.3" transform="translate(-54.12 -44.93)"/><polygon class="cls-2" points="13.05 64.58 12.6 63.9 7.88 61.05 7.5 61.42 13.05 64.58"/><path class="cls-2" d="M66.72,109.06c-.07,0-.07,0-.15-.08s-5.17-4.65-9.82-5.55c-.15,0-.23-.15-.15-.22s.15-.15.22-.15c4.73,1,9.83,5.47,10,5.62a.24.24,0,0,1,0,.3c.07.08,0,.08-.08.08" transform="translate(-54.12 -44.93)"/><polygon class="cls-2" points="21.15 69.08 20.7 68.4 15.97 65.63 15.6 65.92 21.15 69.08"/><path class="cls-2" d="M74.82,113.56c-.07,0-.07,0-.15-.08s-5.17-4.65-9.82-5.55c-.15,0-.23-.15-.15-.22s.15-.23.22-.15c4.73,1,9.83,5.47,10,5.62a.24.24,0,0,1,0,.3c.07.08,0,.08-.08.08" transform="translate(-54.12 -44.93)"/><path class="cls-12" d="M73.17,113.26a4.46,4.46,0,0,1,2.1,3.6c0,3.37-4.35.67-4.35-2.25,0-1.43,1-2,2.25-1.35" transform="translate(-54.12 -44.93)"/><path class="cls-12" d="M73.47,113.63a4,4,0,0,1,1.8,3.08c0,2.92-3.75.6-3.75-1.95a1.2,1.2,0,0,1,2-1.13" transform="translate(-54.12 -44.93)"/><path class="cls-5" d="M73.47,113.63a4,4,0,0,1,1.8,3.08c0,2.92-3.75.6-3.75-1.95a1.2,1.2,0,0,1,2-1.13" transform="translate(-54.12 -44.93)"/><path class="cls-5" d="M73.47,113.63a4,4,0,0,1,1.8,3.08c0,2.92-3.75.6-3.75-1.95a1.2,1.2,0,0,1,2-1.13" transform="translate(-54.12 -44.93)"/><path class="cls-13" d="M75.2,114.76c.6,1.27.45,2.55-.3,2.92s-1.88-.3-2.55-1.57-.45-2.55.3-2.93,1.95.3,2.55,1.58" transform="translate(-54.12 -44.93)"/><path class="cls-5" d="M73.47,113.63a4,4,0,0,1,1.8,3.08c0,2.92-3.75.6-3.75-1.95a1.2,1.2,0,0,1,2-1.13" transform="translate(-54.12 -44.93)"/><path class="cls-13" d="M75.2,114.76c.6,1.2.45,2.55-.3,2.92s-1.88-.3-2.48-1.5-.45-2.55.3-2.92,1.88.3,2.48,1.5" transform="translate(-54.12 -44.93)"/><path class="cls-5" d="M73.47,113.63a4,4,0,0,1,1.8,3.08c0,2.92-3.75.6-3.75-1.95a1.2,1.2,0,0,1,2-1.13" transform="translate(-54.12 -44.93)"/><path class="cls-13" d="M75.2,114.76c.6,1.2.45,2.47-.3,2.85s-1.8-.3-2.4-1.5-.45-2.48.3-2.85,1.8.3,2.4,1.5" transform="translate(-54.12 -44.93)"/><path class="cls-5" d="M73.47,113.63a4,4,0,0,1,1.8,3.08c0,2.92-3.75.6-3.75-1.95a1.2,1.2,0,0,1,2-1.13" transform="translate(-54.12 -44.93)"/><path class="cls-13" d="M75.12,114.76c.6,1.2.45,2.4-.3,2.77s-1.8-.3-2.32-1.5-.45-2.4.3-2.77,1.8.37,2.32,1.5" transform="translate(-54.12 -44.93)"/><path class="cls-5" d="M73.47,113.63a4,4,0,0,1,1.8,3.08c0,2.92-3.75.6-3.75-1.95a1.2,1.2,0,0,1,2-1.13" transform="translate(-54.12 -44.93)"/><path class="cls-13" d="M75.12,114.83c.53,1.13.45,2.4-.3,2.7s-1.72-.3-2.32-1.42-.45-2.4.3-2.7,1.72.22,2.32,1.42" transform="translate(-54.12 -44.93)"/><path class="cls-5" d="M73.47,113.63a4,4,0,0,1,1.8,3.08c0,2.92-3.75.6-3.75-1.95a1.2,1.2,0,0,1,2-1.13" transform="translate(-54.12 -44.93)"/><path class="cls-13" d="M75.12,114.83c.53,1.13.45,2.33-.3,2.63s-1.72-.3-2.25-1.43-.45-2.32.3-2.62,1.65.3,2.25,1.42" transform="translate(-54.12 -44.93)"/><path class="cls-5" d="M73.47,113.63a4,4,0,0,1,1.8,3.08c0,2.92-3.75.6-3.75-1.95a1.2,1.2,0,0,1,2-1.13" transform="translate(-54.12 -44.93)"/><path class="cls-13" d="M75.05,114.83c.52,1.13.45,2.25-.23,2.63s-1.65-.3-2.25-1.35-.45-2.25.23-2.63,1.72.23,2.25,1.35" transform="translate(-54.12 -44.93)"/><path class="cls-5" d="M73.47,113.63a4,4,0,0,1,1.8,3.08c0,2.92-3.75.6-3.75-1.95a1.2,1.2,0,0,1,2-1.13" transform="translate(-54.12 -44.93)"/><path class="cls-13" d="M75.05,114.83c.52,1,.45,2.18-.23,2.55s-1.65-.3-2.17-1.35-.45-2.25.22-2.55,1.65.3,2.18,1.35" transform="translate(-54.12 -44.93)"/><path class="cls-5" d="M73.47,113.63a4,4,0,0,1,1.8,3.08c0,2.92-3.75.6-3.75-1.95a1.2,1.2,0,0,1,2-1.13" transform="translate(-54.12 -44.93)"/><path class="cls-13" d="M75.05,114.83c.52,1,.37,2.18-.23,2.48s-1.57-.3-2.1-1.35-.37-2.18.23-2.48,1.57.3,2.1,1.35" transform="translate(-54.12 -44.93)"/><path class="cls-5" d="M73.47,113.63a4,4,0,0,1,1.8,3.08c0,2.92-3.75.6-3.75-1.95a1.2,1.2,0,0,1,2-1.13" transform="translate(-54.12 -44.93)"/><path class="cls-13" d="M75,114.91c.53,1,.38,2.1-.22,2.4s-1.58-.3-2.1-1.28-.38-2.1.22-2.4,1.58.23,2.1,1.28" transform="translate(-54.12 -44.93)"/><path class="cls-5" d="M73.47,113.63a4,4,0,0,1,1.8,3.08c0,2.92-3.75.6-3.75-1.95a1.2,1.2,0,0,1,2-1.13" transform="translate(-54.12 -44.93)"/><path class="cls-13" d="M75,114.91c.53,1,.38,2.1-.22,2.4s-1.5-.23-2-1.28a1.85,1.85,0,0,1,.23-2.4c.6-.3,1.5.23,2,1.28" transform="translate(-54.12 -44.93)"/><path class="cls-5" d="M73.47,113.63a4,4,0,0,1,1.8,3.08c0,2.92-3.75.6-3.75-1.95a1.2,1.2,0,0,1,2-1.13" transform="translate(-54.12 -44.93)"/><path class="cls-13" d="M74.9,114.91c.45,1,.37,2-.23,2.32s-1.5-.22-2-1.2-.37-2,.23-2.32,1.5.22,2,1.2" transform="translate(-54.12 -44.93)"/><path class="cls-5" d="M73.47,113.63a4,4,0,0,1,1.8,3.08c0,2.92-3.75.6-3.75-1.95a1.2,1.2,0,0,1,2-1.13" transform="translate(-54.12 -44.93)"/><path class="cls-13" d="M74.9,114.91c.45,1,.37,2-.23,2.25s-1.42-.23-2-1.2-.37-1.95.23-2.25,1.5.22,2,1.2" transform="translate(-54.12 -44.93)"/><path class="cls-5" d="M73.47,113.63a4,4,0,0,1,1.8,3.08c0,2.92-3.75.6-3.75-1.95a1.2,1.2,0,0,1,2-1.13" transform="translate(-54.12 -44.93)"/><path class="cls-13" d="M74.9,114.91c.45.9.37,1.87-.23,2.17s-1.42-.22-1.87-1.2-.38-1.87.22-2.17,1.43.3,1.88,1.2" transform="translate(-54.12 -44.93)"/><path class="cls-5" d="M73.47,113.63a4,4,0,0,1,1.8,3.08c0,2.92-3.75.6-3.75-1.95a1.2,1.2,0,0,1,2-1.13" transform="translate(-54.12 -44.93)"/><path class="cls-13" d="M74.82,114.91c.45.9.38,1.87-.22,2.17s-1.35-.22-1.8-1.12-.38-1.88.22-2.1,1.35.15,1.8,1" transform="translate(-54.12 -44.93)"/><path class="cls-5" d="M73.47,113.63a4,4,0,0,1,1.8,3.08c0,2.92-3.75.6-3.75-1.95a1.2,1.2,0,0,1,2-1.13" transform="translate(-54.12 -44.93)"/><path class="cls-13" d="M74.82,115c.45.9.38,1.8-.22,2.1s-1.35-.22-1.8-1.12-.38-1.8.22-2.1,1.35.22,1.8,1.12" transform="translate(-54.12 -44.93)"/><path class="cls-5" d="M73.47,113.63a4,4,0,0,1,1.8,3.08c0,2.92-3.75.6-3.75-1.95a1.2,1.2,0,0,1,2-1.13" transform="translate(-54.12 -44.93)"/><path class="cls-13" d="M74.82,115a1.53,1.53,0,0,1-.22,2c-.53.22-1.28-.23-1.73-1.05s-.3-1.8.23-2,1.27.15,1.72,1" transform="translate(-54.12 -44.93)"/><path class="cls-5" d="M73.47,113.63a4,4,0,0,1,1.8,3.08c0,2.92-3.75.6-3.75-1.95a1.2,1.2,0,0,1,2-1.13" transform="translate(-54.12 -44.93)"/><path class="cls-13" d="M74.75,115c.37.83.3,1.73-.23,2s-1.27-.22-1.65-1.05-.3-1.72.23-1.95,1.27.23,1.65,1" transform="translate(-54.12 -44.93)"/><path class="cls-5" d="M73.47,113.63a4,4,0,0,1,1.8,3.08c0,2.92-3.75.6-3.75-1.95a1.2,1.2,0,0,1,2-1.13" transform="translate(-54.12 -44.93)"/><path class="cls-13" d="M74.75,115c.37.83.3,1.65-.23,1.88s-1.2-.23-1.65-1-.3-1.65.23-1.87,1.27.15,1.65,1" transform="translate(-54.12 -44.93)"/><path class="cls-5" d="M73.47,113.63a4,4,0,0,1,1.8,3.08c0,2.92-3.75.6-3.75-1.95a1.2,1.2,0,0,1,2-1.13" transform="translate(-54.12 -44.93)"/><path class="cls-13" d="M74.75,115a1.52,1.52,0,0,1-.15,1.88c-.53.22-1.2-.23-1.58-1a1.51,1.51,0,0,1,.15-1.87c.45-.23,1.13.22,1.58,1" transform="translate(-54.12 -44.93)"/><path class="cls-5" d="M73.47,113.63a4,4,0,0,1,1.8,3.08c0,2.92-3.75.6-3.75-1.95a1.2,1.2,0,0,1,2-1.13" transform="translate(-54.12 -44.93)"/><path class="cls-13" d="M74.67,115.06c.38.75.3,1.57-.15,1.8s-1.12-.23-1.5-1-.3-1.57.15-1.8,1.13.15,1.5,1" transform="translate(-54.12 -44.93)"/><path class="cls-5" d="M73.47,113.63a4,4,0,0,1,1.8,3.08c0,2.92-3.75.6-3.75-1.95a1.2,1.2,0,0,1,2-1.13" transform="translate(-54.12 -44.93)"/><path class="cls-13" d="M74.67,115.06c.38.75.3,1.5-.15,1.72s-1.12-.15-1.5-.9-.3-1.5.15-1.72,1.13.15,1.5.9" transform="translate(-54.12 -44.93)"/><path class="cls-5" d="M73.47,113.63a4,4,0,0,1,1.8,3.08c0,2.92-3.75.6-3.75-1.95a1.2,1.2,0,0,1,2-1.13" transform="translate(-54.12 -44.93)"/><path class="cls-13" d="M74.6,115.06c.37.67.3,1.42-.15,1.65s-1-.15-1.43-.9-.3-1.43.15-1.65,1.13.15,1.43.9" transform="translate(-54.12 -44.93)"/><path class="cls-5" d="M73.47,113.63a4,4,0,0,1,1.8,3.08c0,2.92-3.75.6-3.75-1.95a1.2,1.2,0,0,1,2-1.13" transform="translate(-54.12 -44.93)"/><path class="cls-13" d="M74.6,115.06c.3.67.22,1.42-.15,1.65s-1-.15-1.35-.83-.3-1.42.15-1.65,1,.15,1.35.83" transform="translate(-54.12 -44.93)"/><path class="cls-5" d="M73.47,113.63a4,4,0,0,1,1.8,3.08c0,2.92-3.75.6-3.75-1.95a1.2,1.2,0,0,1,2-1.13" transform="translate(-54.12 -44.93)"/><path class="cls-13" d="M74.6,115.06c.3.67.22,1.35-.15,1.57s-1-.15-1.35-.82-.23-1.35.15-1.58,1,.15,1.35.83" transform="translate(-54.12 -44.93)"/><path class="cls-5" d="M73.47,113.63a4,4,0,0,1,1.8,3.08c0,2.92-3.75.6-3.75-1.95a1.2,1.2,0,0,1,2-1.13" transform="translate(-54.12 -44.93)"/><path class="cls-13" d="M74.52,115.06a1.18,1.18,0,0,1-.15,1.5c-.37.22-1-.15-1.27-.83a1.18,1.18,0,0,1,.15-1.5c.37-.15,1,.23,1.27.83" transform="translate(-54.12 -44.93)"/><path class="cls-5" d="M73.47,113.63a4,4,0,0,1,1.8,3.08c0,2.92-3.75.6-3.75-1.95a1.2,1.2,0,0,1,2-1.13" transform="translate(-54.12 -44.93)"/><path class="cls-13" d="M74.52,115.13c.3.6.23,1.28-.15,1.43s-.9-.15-1.2-.75-.22-1.28.15-1.43.9.15,1.2.75" transform="translate(-54.12 -44.93)"/><path class="cls-5" d="M73.47,113.63a4,4,0,0,1,1.8,3.08c0,2.92-3.75.6-3.75-1.95a1.2,1.2,0,0,1,2-1.13" transform="translate(-54.12 -44.93)"/><path class="cls-13" d="M74.52,115.13c.3.6.23,1.2-.15,1.43s-.9-.15-1.2-.75-.22-1.2.15-1.43.9.15,1.2.75" transform="translate(-54.12 -44.93)"/><path class="cls-5" d="M73.47,113.63a4,4,0,0,1,1.8,3.08c0,2.92-3.75.6-3.75-1.95a1.2,1.2,0,0,1,2-1.13" transform="translate(-54.12 -44.93)"/><path class="cls-13" d="M74.45,115.13a1,1,0,0,1-.15,1.35c-.38.15-.83-.15-1.13-.67a1,1,0,0,1,.15-1.35c.38-.23.9.07,1.13.67" transform="translate(-54.12 -44.93)"/><path class="cls-5" d="M73.47,113.63a4,4,0,0,1,1.8,3.08c0,2.92-3.75.6-3.75-1.95a1.2,1.2,0,0,1,2-1.13" transform="translate(-54.12 -44.93)"/><path class="cls-13" d="M74.45,115.13c.22.53.22,1.13-.15,1.28s-.83-.15-1-.68-.23-1.12.15-1.27.75.15,1,.67" transform="translate(-54.12 -44.93)"/><path class="cls-5" d="M73.47,113.63a4,4,0,0,1,1.8,3.08c0,2.92-3.75.6-3.75-1.95a1.2,1.2,0,0,1,2-1.13" transform="translate(-54.12 -44.93)"/><path class="cls-13" d="M74.37,115.13c.23.53.23,1.05-.15,1.2s-.75-.15-1-.67-.22-1,.15-1.2a1.06,1.06,0,0,1,1.05.67" transform="translate(-54.12 -44.93)"/><path class="cls-5" d="M73.47,113.63a4,4,0,0,1,1.8,3.08c0,2.92-3.75.6-3.75-1.95a1.2,1.2,0,0,1,2-1.13" transform="translate(-54.12 -44.93)"/><path class="cls-13" d="M74.37,115.21c.23.52.23,1-.15,1.12s-.75-.15-1-.6-.23-1,.15-1.12.75.07,1,.6" transform="translate(-54.12 -44.93)"/><path class="cls-5" d="M73.47,113.63a4,4,0,0,1,1.8,3.08c0,2.92-3.75.6-3.75-1.95a1.2,1.2,0,0,1,2-1.13" transform="translate(-54.12 -44.93)"/><path class="cls-13" d="M74.37,115.21a1,1,0,0,1-.07,1.12c-.3.15-.68-.15-.9-.6a1,1,0,0,1,.07-1.12c.23-.15.68.15.9.6" transform="translate(-54.12 -44.93)"/><path class="cls-5" d="M73.47,113.63a4,4,0,0,1,1.8,3.08c0,2.92-3.75.6-3.75-1.95a1.2,1.2,0,0,1,2-1.13" transform="translate(-54.12 -44.93)"/><path class="cls-13" d="M74.3,115.21a.85.85,0,0,1-.08,1.05c-.3.15-.67-.15-.9-.53a.85.85,0,0,1,.08-1c.3-.15.67.08.9.53" transform="translate(-54.12 -44.93)"/><path class="cls-5" d="M73.47,113.63a4,4,0,0,1,1.8,3.08c0,2.92-3.75.6-3.75-1.95a1.2,1.2,0,0,1,2-1.13" transform="translate(-54.12 -44.93)"/><path class="cls-13" d="M74.3,115.21c.22.45.15.82-.08,1s-.6-.07-.82-.52-.15-.83.07-1,.6.15.83.53" transform="translate(-54.12 -44.93)"/><path class="cls-5" d="M73.47,113.63a4,4,0,0,1,1.8,3.08c0,2.92-3.75.6-3.75-1.95a1.2,1.2,0,0,1,2-1.13" transform="translate(-54.12 -44.93)"/><path class="cls-13" d="M74.3,115.21c.22.37.15.82-.08.9s-.6-.08-.82-.53-.15-.82.07-.9.6.15.83.53" transform="translate(-54.12 -44.93)"/><path class="cls-5" d="M73.47,113.63a4,4,0,0,1,1.8,3.08c0,2.92-3.75.6-3.75-1.95a1.2,1.2,0,0,1,2-1.13" transform="translate(-54.12 -44.93)"/><path class="cls-13" d="M74.22,115.21c.15.37.15.75-.07.9s-.53-.08-.75-.45-.15-.75.07-.9.6.15.75.45" transform="translate(-54.12 -44.93)"/><path class="cls-5" d="M73.47,113.63a4,4,0,0,1,1.8,3.08c0,2.92-3.75.6-3.75-1.95a1.2,1.2,0,0,1,2-1.13" transform="translate(-54.12 -44.93)"/><path class="cls-13" d="M74.22,115.28c.15.38.15.68-.07.83s-.53-.08-.68-.45-.15-.68.08-.83.52.08.67.45" transform="translate(-54.12 -44.93)"/><path class="cls-5" d="M73.47,113.63a4,4,0,0,1,1.8,3.08c0,2.92-3.75.6-3.75-1.95a1.2,1.2,0,0,1,2-1.13" transform="translate(-54.12 -44.93)"/><path class="cls-13" d="M74.22,115.28c.15.3.15.68-.07.75s-.45-.07-.68-.37-.15-.68.08-.75.45.07.67.37" transform="translate(-54.12 -44.93)"/><path class="cls-5" d="M73.47,113.63a4,4,0,0,1,1.8,3.08c0,2.92-3.75.6-3.75-1.95a1.2,1.2,0,0,1,2-1.13" transform="translate(-54.12 -44.93)"/><path class="cls-13" d="M74.15,115.28c.15.3.15.6-.08.68s-.45-.08-.6-.38-.15-.6.08-.67.45.07.6.37" transform="translate(-54.12 -44.93)"/><path class="cls-5" d="M73.47,113.63a4,4,0,0,1,1.8,3.08c0,2.92-3.75.6-3.75-1.95a1.2,1.2,0,0,1,2-1.13" transform="translate(-54.12 -44.93)"/><path class="cls-13" d="M74.15,115.28c.15.3.07.53-.08.6s-.37-.07-.52-.3-.08-.52.07-.6.38.08.53.3" transform="translate(-54.12 -44.93)"/><path class="cls-5" d="M73.47,113.63a4,4,0,0,1,1.8,3.08c0,2.92-3.75.6-3.75-1.95a1.2,1.2,0,0,1,2-1.13" transform="translate(-54.12 -44.93)"/><path class="cls-13" d="M74.07,115.28a.44.44,0,0,1-.07.6c-.15.08-.38-.07-.53-.3a.44.44,0,0,1,.08-.6.43.43,0,0,1,.52.3" transform="translate(-54.12 -44.93)"/><path class="cls-5" d="M73.47,113.63a4,4,0,0,1,1.8,3.08c0,2.92-3.75.6-3.75-1.95a1.2,1.2,0,0,1,2-1.13" transform="translate(-54.12 -44.93)"/><path class="cls-13" d="M74.07,115.36c.08.22.08.45-.07.52s-.3-.07-.45-.3-.08-.45.07-.52.38.07.45.3" transform="translate(-54.12 -44.93)"/><path class="cls-5" d="M73.47,113.63a4,4,0,0,1,1.8,3.08c0,2.92-3.75.6-3.75-1.95a1.2,1.2,0,0,1,2-1.13" transform="translate(-54.12 -44.93)"/><path class="cls-13" d="M74.07,115.36c.08.22.08.37-.07.45s-.3-.08-.38-.23-.07-.37.08-.45.22,0,.37.23" transform="translate(-54.12 -44.93)"/><path class="cls-5" d="M73.47,113.63a4,4,0,0,1,1.8,3.08c0,2.92-3.75.6-3.75-1.95a1.2,1.2,0,0,1,2-1.13" transform="translate(-54.12 -44.93)"/><path class="cls-13" d="M74,115.36c.07.15.07.37-.08.37s-.22-.07-.37-.22-.08-.38.07-.38.3.08.38.23" transform="translate(-54.12 -44.93)"/><path class="cls-5" d="M73.47,113.63a4,4,0,0,1,1.8,3.08c0,2.92-3.75.6-3.75-1.95a1.2,1.2,0,0,1,2-1.13" transform="translate(-54.12 -44.93)"/><path class="cls-13" d="M74,115.36a.34.34,0,0,1,0,.37c-.08.08-.23,0-.3-.15s-.08-.3,0-.37.22,0,.3.15" transform="translate(-54.12 -44.93)"/><path class="cls-5" d="M73.47,113.63a4,4,0,0,1,1.8,3.08c0,2.92-3.75.6-3.75-1.95a1.2,1.2,0,0,1,2-1.13" transform="translate(-54.12 -44.93)"/><path class="cls-13" d="M74,115.36c.07.15.07.22,0,.3s-.15,0-.23-.15-.07-.23,0-.3a1,1,0,0,1,.23.15" transform="translate(-54.12 -44.93)"/><path class="cls-5" d="M73.47,113.63a4,4,0,0,1,1.8,3.08c0,2.92-3.75.6-3.75-1.95a1.2,1.2,0,0,1,2-1.13" transform="translate(-54.12 -44.93)"/><path class="cls-13" d="M73.92,115.36c.08.07,0,.22,0,.22s-.15,0-.22-.15,0-.22,0-.22.22.07.22.15" transform="translate(-54.12 -44.93)"/><path class="cls-5" d="M73.47,113.63a4,4,0,0,1,1.8,3.08c0,2.92-3.75.6-3.75-1.95a1.2,1.2,0,0,1,2-1.13" transform="translate(-54.12 -44.93)"/><path class="cls-13" d="M73.92,115.43v.15c-.07,0-.07,0-.15-.07v-.15c.08-.08.08,0,.15.07" transform="translate(-54.12 -44.93)"/><path class="cls-5" d="M73.47,113.63a4,4,0,0,1,1.8,3.08c0,2.92-3.75.6-3.75-1.95a1.2,1.2,0,0,1,2-1.13" transform="translate(-54.12 -44.93)"/><path class="cls-13" d="M73.85,115.43v.15s-.08,0-.08-.07v-.15c.08,0,.08,0,.08.07" transform="translate(-54.12 -44.93)"/><path class="cls-5" d="M73.47,113.63a4,4,0,0,1,1.8,3.08c0,2.92-3.75.6-3.75-1.95a1.2,1.2,0,0,1,2-1.13" transform="translate(-54.12 -44.93)"/><path class="cls-13" d="M73.85,115.43h0" transform="translate(-54.12 -44.93)"/><path class="cls-12" d="M58.1,104.71a3.85,3.85,0,0,1,1.8,3.15c0,3-3.83.6-3.83-2a1.28,1.28,0,0,1,2-1.2" transform="translate(-54.12 -44.93)"/><path class="cls-12" d="M58.32,105a3.42,3.42,0,0,1,1.58,2.7c0,2.55-3.3.52-3.3-1.73.07-1,.82-1.5,1.72-1" transform="translate(-54.12 -44.93)"/><path class="cls-5" d="M58.32,105a3.42,3.42,0,0,1,1.58,2.7c0,2.55-3.3.52-3.3-1.73.07-1,.82-1.5,1.72-1" transform="translate(-54.12 -44.93)"/><path class="cls-5" d="M58.32,105a3.42,3.42,0,0,1,1.58,2.7c0,2.55-3.3.52-3.3-1.73.07-1,.82-1.5,1.72-1" transform="translate(-54.12 -44.93)"/><path class="cls-13" d="M59.9,106.06c.52,1.12.45,2.25-.23,2.62s-1.65-.3-2.25-1.35-.45-2.25.23-2.62,1.72.22,2.25,1.35" transform="translate(-54.12 -44.93)"/><path class="cls-5" d="M58.32,105a3.42,3.42,0,0,1,1.58,2.7c0,2.55-3.3.52-3.3-1.73.07-1,.82-1.5,1.72-1" transform="translate(-54.12 -44.93)"/><path class="cls-13" d="M59.9,106.06c.52,1,.45,2.25-.23,2.55s-1.65-.3-2.17-1.35-.45-2.25.22-2.55,1.65.22,2.18,1.35" transform="translate(-54.12 -44.93)"/><path class="cls-5" d="M58.32,105a3.42,3.42,0,0,1,1.58,2.7c0,2.55-3.3.52-3.3-1.73.07-1,.82-1.5,1.72-1" transform="translate(-54.12 -44.93)"/><path class="cls-13" d="M59.9,106.06c.52,1,.37,2.17-.23,2.47s-1.65-.3-2.1-1.35-.37-2.17.23-2.47,1.57.3,2.1,1.35" transform="translate(-54.12 -44.93)"/><path class="cls-5" d="M58.32,105a3.42,3.42,0,0,1,1.58,2.7c0,2.55-3.3.52-3.3-1.73.07-1,.82-1.5,1.72-1" transform="translate(-54.12 -44.93)"/><path class="cls-13" d="M59.82,106.06c.53,1,.38,2.1-.22,2.47s-1.58-.3-2.1-1.27-.38-2.1.22-2.48,1.65.23,2.1,1.28" transform="translate(-54.12 -44.93)"/><path class="cls-5" d="M58.32,105a3.42,3.42,0,0,1,1.58,2.7c0,2.55-3.3.52-3.3-1.73.07-1,.82-1.5,1.72-1" transform="translate(-54.12 -44.93)"/><path class="cls-13" d="M59.82,106.06c.53,1,.38,2.1-.22,2.4s-1.58-.23-2-1.28-.37-2.1.23-2.4,1.5.3,2,1.28" transform="translate(-54.12 -44.93)"/><path class="cls-5" d="M58.32,105a3.42,3.42,0,0,1,1.58,2.7c0,2.55-3.3.52-3.3-1.73.07-1,.82-1.5,1.72-1" transform="translate(-54.12 -44.93)"/><path class="cls-13" d="M59.82,106.06c.45,1,.38,2-.22,2.32s-1.5-.22-2-1.27-.37-2,.23-2.33,1.5.3,2,1.28" transform="translate(-54.12 -44.93)"/><path class="cls-5" d="M58.32,105a3.42,3.42,0,0,1,1.58,2.7c0,2.55-3.3.52-3.3-1.73.07-1,.82-1.5,1.72-1" transform="translate(-54.12 -44.93)"/><path class="cls-13" d="M59.75,106.13c.45,1,.37,2-.23,2.33s-1.5-.23-2-1.2-.37-2,.23-2.33,1.5.23,2,1.2" transform="translate(-54.12 -44.93)"/><path class="cls-5" d="M58.32,105a3.42,3.42,0,0,1,1.58,2.7c0,2.55-3.3.52-3.3-1.73.07-1,.82-1.5,1.72-1" transform="translate(-54.12 -44.93)"/><path class="cls-13" d="M59.75,106.13c.45,1,.37,2-.23,2.25s-1.42-.22-2-1.2-.37-2,.23-2.25,1.5.23,2,1.2" transform="translate(-54.12 -44.93)"/><path class="cls-5" d="M58.32,105a3.42,3.42,0,0,1,1.58,2.7c0,2.55-3.3.52-3.3-1.73.07-1,.82-1.5,1.72-1" transform="translate(-54.12 -44.93)"/><path class="cls-13" d="M59.75,106.13c.45.9.37,1.88-.23,2.18s-1.42-.23-1.87-1.2-.38-1.88.22-2.18,1.43.3,1.88,1.2" transform="translate(-54.12 -44.93)"/><path class="cls-5" d="M58.32,105a3.42,3.42,0,0,1,1.58,2.7c0,2.55-3.3.52-3.3-1.73.07-1,.82-1.5,1.72-1" transform="translate(-54.12 -44.93)"/><path class="cls-13" d="M59.67,106.13c.45.9.38,1.88-.22,2.18s-1.35-.23-1.8-1.13-.38-1.87.22-2.17,1.35.22,1.8,1.12" transform="translate(-54.12 -44.93)"/><path class="cls-5" d="M58.32,105a3.42,3.42,0,0,1,1.58,2.7c0,2.55-3.3.52-3.3-1.73.07-1,.82-1.5,1.72-1" transform="translate(-54.12 -44.93)"/><path class="cls-13" d="M59.67,106.13c.45.9.38,1.8-.22,2.1s-1.35-.22-1.8-1.12-.3-1.8.22-2.1,1.35.22,1.8,1.12" transform="translate(-54.12 -44.93)"/><path class="cls-5" d="M58.32,105a3.42,3.42,0,0,1,1.58,2.7c0,2.55-3.3.52-3.3-1.73.07-1,.82-1.5,1.72-1" transform="translate(-54.12 -44.93)"/><path class="cls-13" d="M59.67,106.13c.45.83.3,1.8-.22,2s-1.35-.23-1.73-1-.3-1.8.23-2,1.27.23,1.72,1" transform="translate(-54.12 -44.93)"/><path class="cls-5" d="M58.32,105a3.42,3.42,0,0,1,1.58,2.7c0,2.55-3.3.52-3.3-1.73.07-1,.82-1.5,1.72-1" transform="translate(-54.12 -44.93)"/><path class="cls-13" d="M59.6,106.21a1.51,1.51,0,0,1-.23,2c-.52.23-1.27-.22-1.72-1a1.52,1.52,0,0,1,.22-2c.6-.3,1.35.15,1.73,1" transform="translate(-54.12 -44.93)"/><path class="cls-5" d="M58.32,105a3.42,3.42,0,0,1,1.58,2.7c0,2.55-3.3.52-3.3-1.73.07-1,.82-1.5,1.72-1" transform="translate(-54.12 -44.93)"/><path class="cls-13" d="M59.6,106.21c.37.82.3,1.65-.23,2s-1.27-.23-1.65-1-.3-1.65.23-2,1.27.22,1.65,1" transform="translate(-54.12 -44.93)"/><path class="cls-5" d="M58.32,105a3.42,3.42,0,0,1,1.58,2.7c0,2.55-3.3.52-3.3-1.73.07-1,.82-1.5,1.72-1" transform="translate(-54.12 -44.93)"/><path class="cls-13" d="M59.6,106.21c.37.82.3,1.65-.23,1.87s-1.2-.22-1.57-1-.3-1.65.22-1.88,1.2.15,1.58,1" transform="translate(-54.12 -44.93)"/><path class="cls-5" d="M58.32,105a3.42,3.42,0,0,1,1.58,2.7c0,2.55-3.3.52-3.3-1.73.07-1,.82-1.5,1.72-1" transform="translate(-54.12 -44.93)"/><path class="cls-13" d="M59.52,106.21c.38.75.3,1.57-.15,1.8s-1.2-.23-1.57-1-.3-1.57.15-1.8,1.2.23,1.57,1" transform="translate(-54.12 -44.93)"/><path class="cls-5" d="M58.32,105a3.42,3.42,0,0,1,1.58,2.7c0,2.55-3.3.52-3.3-1.73.07-1,.82-1.5,1.72-1" transform="translate(-54.12 -44.93)"/><path class="cls-13" d="M59.52,106.21c.38.75.3,1.57-.15,1.8s-1.12-.23-1.5-1-.3-1.57.15-1.8,1.13.23,1.5,1" transform="translate(-54.12 -44.93)"/><path class="cls-5" d="M58.32,105a3.42,3.42,0,0,1,1.58,2.7c0,2.55-3.3.52-3.3-1.73.07-1,.82-1.5,1.72-1" transform="translate(-54.12 -44.93)"/><path class="cls-13" d="M59.52,106.21c.38.75.3,1.5-.15,1.72s-1.12-.22-1.5-.9-.3-1.5.15-1.72,1.13.22,1.5.9" transform="translate(-54.12 -44.93)"/><path class="cls-5" d="M58.32,105a3.42,3.42,0,0,1,1.58,2.7c0,2.55-3.3.52-3.3-1.73.07-1,.82-1.5,1.72-1" transform="translate(-54.12 -44.93)"/><path class="cls-13" d="M59.45,106.28c.37.68.3,1.5-.15,1.65s-1-.15-1.43-.9-.3-1.5.15-1.65,1.13.15,1.43.9" transform="translate(-54.12 -44.93)"/><path class="cls-5" d="M58.32,105a3.42,3.42,0,0,1,1.58,2.7c0,2.55-3.3.52-3.3-1.73.07-1,.82-1.5,1.72-1" transform="translate(-54.12 -44.93)"/><path class="cls-13" d="M59.45,106.28c.37.68.3,1.43-.15,1.65s-1-.15-1.43-.9-.3-1.42.15-1.65,1.13.15,1.43.9" transform="translate(-54.12 -44.93)"/><path class="cls-5" d="M58.32,105a3.42,3.42,0,0,1,1.58,2.7c0,2.55-3.3.52-3.3-1.73.07-1,.82-1.5,1.72-1" transform="translate(-54.12 -44.93)"/><path class="cls-13" d="M59.45,106.28c.3.68.22,1.35-.15,1.58s-1-.15-1.35-.83-.23-1.35.15-1.57,1,.15,1.35.82" transform="translate(-54.12 -44.93)"/><path class="cls-5" d="M58.32,105a3.42,3.42,0,0,1,1.58,2.7c0,2.55-3.3.52-3.3-1.73.07-1,.82-1.5,1.72-1" transform="translate(-54.12 -44.93)"/><path class="cls-13" d="M59.45,106.28c.3.68.22,1.35-.15,1.5s-1-.15-1.28-.82-.22-1.35.15-1.5.9.15,1.28.82" transform="translate(-54.12 -44.93)"/><path class="cls-5" d="M58.32,105a3.42,3.42,0,0,1,1.58,2.7c0,2.55-3.3.52-3.3-1.73.07-1,.82-1.5,1.72-1" transform="translate(-54.12 -44.93)"/><path class="cls-13" d="M59.37,106.28c.3.6.23,1.28-.15,1.5s-1-.15-1.27-.82-.23-1.28.15-1.5,1,.22,1.27.82" transform="translate(-54.12 -44.93)"/><path class="cls-5" d="M58.32,105a3.42,3.42,0,0,1,1.58,2.7c0,2.55-3.3.52-3.3-1.73.07-1,.82-1.5,1.72-1" transform="translate(-54.12 -44.93)"/><path class="cls-13" d="M59.37,106.28c.3.6.23,1.28-.15,1.43s-.9-.15-1.2-.75-.22-1.28.15-1.43.9.15,1.2.75" transform="translate(-54.12 -44.93)"/><path class="cls-5" d="M58.32,105a3.42,3.42,0,0,1,1.58,2.7c0,2.55-3.3.52-3.3-1.73.07-1,.82-1.5,1.72-1" transform="translate(-54.12 -44.93)"/><path class="cls-13" d="M59.37,106.28c.3.6.23,1.2-.15,1.35s-.9-.15-1.2-.75-.22-1.2.15-1.35.9.23,1.2.75" transform="translate(-54.12 -44.93)"/><path class="cls-5" d="M58.32,105a3.42,3.42,0,0,1,1.58,2.7c0,2.55-3.3.52-3.3-1.73.07-1,.82-1.5,1.72-1" transform="translate(-54.12 -44.93)"/><path class="cls-13" d="M59.3,106.36a1,1,0,0,1-.15,1.35c-.38.15-.83-.15-1.13-.68a1,1,0,0,1,.15-1.35c.38-.22.9.08,1.13.68" transform="translate(-54.12 -44.93)"/><path class="cls-5" d="M58.32,105a3.42,3.42,0,0,1,1.58,2.7c0,2.55-3.3.52-3.3-1.73.07-1,.82-1.5,1.72-1" transform="translate(-54.12 -44.93)"/><path class="cls-13" d="M59.3,106.36c.22.52.22,1.12-.15,1.27s-.83-.15-1-.67-.23-1.13.15-1.28.75.15,1,.68" transform="translate(-54.12 -44.93)"/><path class="cls-5" d="M58.32,105a3.42,3.42,0,0,1,1.58,2.7c0,2.55-3.3.52-3.3-1.73.07-1,.82-1.5,1.72-1" transform="translate(-54.12 -44.93)"/><path class="cls-13" d="M59.3,106.36c.22.52.22,1-.15,1.2s-.75-.15-1-.68-.23-1,.15-1.2.75.15,1,.68" transform="translate(-54.12 -44.93)"/><path class="cls-5" d="M58.32,105a3.42,3.42,0,0,1,1.58,2.7c0,2.55-3.3.52-3.3-1.73.07-1,.82-1.5,1.72-1" transform="translate(-54.12 -44.93)"/><path class="cls-13" d="M59.22,106.36c.23.52.23,1-.15,1.2s-.75-.15-1-.6-.23-1,.15-1.2.75.07,1,.6" transform="translate(-54.12 -44.93)"/><path class="cls-5" d="M58.32,105a3.42,3.42,0,0,1,1.58,2.7c0,2.55-3.3.52-3.3-1.73.07-1,.82-1.5,1.72-1" transform="translate(-54.12 -44.93)"/><path class="cls-13" d="M59.22,106.36a1,1,0,0,1-.07,1.12c-.3.15-.75-.15-1-.6s-.15-1,.15-1.12.68.15.9.6" transform="translate(-54.12 -44.93)"/><path class="cls-5" d="M58.32,105a3.42,3.42,0,0,1,1.58,2.7c0,2.55-3.3.52-3.3-1.73.07-1,.82-1.5,1.72-1" transform="translate(-54.12 -44.93)"/><path class="cls-13" d="M59.22,106.36a.85.85,0,0,1-.07,1c-.3.15-.68-.15-.9-.6a.85.85,0,0,1,.07-1c.23-.08.68.15.9.6" transform="translate(-54.12 -44.93)"/><path class="cls-5" d="M58.32,105a3.42,3.42,0,0,1,1.58,2.7c0,2.55-3.3.52-3.3-1.73.07-1,.82-1.5,1.72-1" transform="translate(-54.12 -44.93)"/><path class="cls-13" d="M59.15,106.43a.85.85,0,0,1-.08,1c-.3.15-.67-.07-.9-.52a.85.85,0,0,1,.08-1c.3-.15.67.07.9.52" transform="translate(-54.12 -44.93)"/><path class="cls-5" d="M58.32,105a3.42,3.42,0,0,1,1.58,2.7c0,2.55-3.3.52-3.3-1.73.07-1,.82-1.5,1.72-1" transform="translate(-54.12 -44.93)"/><path class="cls-13" d="M59.15,106.43a.77.77,0,0,1-.08,1c-.22.15-.6-.08-.82-.53a.75.75,0,0,1,.07-1c.23-.15.6.07.83.52" transform="translate(-54.12 -44.93)"/><path class="cls-5" d="M58.32,105a3.42,3.42,0,0,1,1.58,2.7c0,2.55-3.3.52-3.3-1.73.07-1,.82-1.5,1.72-1" transform="translate(-54.12 -44.93)"/><path class="cls-13" d="M59.15,106.43c.22.38.15.83-.08.9s-.6-.07-.75-.52-.15-.83.08-.9.52.15.75.52" transform="translate(-54.12 -44.93)"/><path class="cls-5" d="M58.32,105a3.42,3.42,0,0,1,1.58,2.7c0,2.55-3.3.52-3.3-1.73.07-1,.82-1.5,1.72-1" transform="translate(-54.12 -44.93)"/><path class="cls-13" d="M59.07,106.43c.15.38.15.75-.07.9s-.53-.07-.75-.45-.15-.75.07-.9.6.08.75.45" transform="translate(-54.12 -44.93)"/><path class="cls-5" d="M58.32,105a3.42,3.42,0,0,1,1.58,2.7c0,2.55-3.3.52-3.3-1.73.07-1,.82-1.5,1.72-1" transform="translate(-54.12 -44.93)"/><path class="cls-13" d="M59.07,106.43c.15.38.15.68-.07.83s-.53-.08-.68-.45-.15-.68.08-.83.52.15.67.45" transform="translate(-54.12 -44.93)"/><path class="cls-5" d="M58.32,105a3.42,3.42,0,0,1,1.58,2.7c0,2.55-3.3.52-3.3-1.73.07-1,.82-1.5,1.72-1" transform="translate(-54.12 -44.93)"/><path class="cls-13" d="M59.07,106.43c.15.3.15.68-.07.75a.6.6,0,0,1-.68-.37c-.15-.3-.15-.68.08-.75a.6.6,0,0,1,.67.37" transform="translate(-54.12 -44.93)"/><path class="cls-5" d="M58.32,105a3.42,3.42,0,0,1,1.58,2.7c0,2.55-3.3.52-3.3-1.73.07-1,.82-1.5,1.72-1" transform="translate(-54.12 -44.93)"/><path class="cls-13" d="M59,106.51c.15.3.15.6-.08.75s-.45-.08-.6-.38-.15-.6.08-.75.45.08.6.38" transform="translate(-54.12 -44.93)"/><path class="cls-5" d="M58.32,105a3.42,3.42,0,0,1,1.58,2.7c0,2.55-3.3.52-3.3-1.73.07-1,.82-1.5,1.72-1" transform="translate(-54.12 -44.93)"/><path class="cls-13" d="M59,106.51c.15.3.07.6-.08.67s-.45-.07-.6-.37a.53.53,0,0,1,.08-.68c.22-.07.45.08.6.38" transform="translate(-54.12 -44.93)"/><path class="cls-5" d="M58.32,105a3.42,3.42,0,0,1,1.58,2.7c0,2.55-3.3.52-3.3-1.73.07-1,.82-1.5,1.72-1" transform="translate(-54.12 -44.93)"/><path class="cls-13" d="M59,106.51a.44.44,0,0,1-.08.6c-.15.07-.37-.08-.52-.3a.44.44,0,0,1,.07-.6c.15-.15.38,0,.53.3" transform="translate(-54.12 -44.93)"/><path class="cls-5" d="M58.32,105a3.42,3.42,0,0,1,1.58,2.7c0,2.55-3.3.52-3.3-1.73.07-1,.82-1.5,1.72-1" transform="translate(-54.12 -44.93)"/><path class="cls-13" d="M58.92,106.51c.15.22.08.52-.07.52s-.38-.07-.45-.3a.34.34,0,0,1,.07-.52c.15-.08.38.07.45.3" transform="translate(-54.12 -44.93)"/><path class="cls-5" d="M58.32,105a3.42,3.42,0,0,1,1.58,2.7c0,2.55-3.3.52-3.3-1.73.07-1,.82-1.5,1.72-1" transform="translate(-54.12 -44.93)"/><path class="cls-13" d="M58.92,106.51c.08.22.08.45-.07.52s-.3-.07-.45-.3-.08-.45.07-.52a.46.46,0,0,1,.45.3" transform="translate(-54.12 -44.93)"/><path class="cls-5" d="M58.32,105a3.42,3.42,0,0,1,1.58,2.7c0,2.55-3.3.52-3.3-1.73.07-1,.82-1.5,1.72-1" transform="translate(-54.12 -44.93)"/><path class="cls-13" d="M58.92,106.51c.08.22.08.37-.07.45s-.3-.08-.38-.23-.07-.37.08-.45.22.08.37.23" transform="translate(-54.12 -44.93)"/><path class="cls-5" d="M58.32,105a3.42,3.42,0,0,1,1.58,2.7c0,2.55-3.3.52-3.3-1.73.07-1,.82-1.5,1.72-1" transform="translate(-54.12 -44.93)"/><path class="cls-13" d="M58.85,106.58c.07.15.07.38-.08.38s-.3-.08-.37-.23-.08-.37.07-.37.3,0,.38.22" transform="translate(-54.12 -44.93)"/><path class="cls-5" d="M58.32,105a3.42,3.42,0,0,1,1.58,2.7c0,2.55-3.3.52-3.3-1.73.07-1,.82-1.5,1.72-1" transform="translate(-54.12 -44.93)"/><path class="cls-13" d="M58.85,106.58a.36.36,0,0,1,0,.38c-.08.07-.23-.08-.3-.23s-.08-.3,0-.37a.41.41,0,0,1,.3.22" transform="translate(-54.12 -44.93)"/><path class="cls-5" d="M58.32,105a3.42,3.42,0,0,1,1.58,2.7c0,2.55-3.3.52-3.3-1.73.07-1,.82-1.5,1.72-1" transform="translate(-54.12 -44.93)"/><path class="cls-13" d="M58.85,106.58c.07.15.07.3,0,.3s-.23,0-.23-.15-.07-.3,0-.3.15,0,.23.15" transform="translate(-54.12 -44.93)"/><path class="cls-5" d="M58.32,105a3.42,3.42,0,0,1,1.58,2.7c0,2.55-3.3.52-3.3-1.73.07-1,.82-1.5,1.72-1" transform="translate(-54.12 -44.93)"/><path class="cls-13" d="M58.77,106.58c.08.08.08.23,0,.23s-.15,0-.22-.15-.08-.23,0-.23.22.08.22.15" transform="translate(-54.12 -44.93)"/><path class="cls-5" d="M58.32,105a3.42,3.42,0,0,1,1.58,2.7c0,2.55-3.3.52-3.3-1.73.07-1,.82-1.5,1.72-1" transform="translate(-54.12 -44.93)"/><path class="cls-13" d="M58.77,106.58c.08.08,0,.15,0,.23s-.15,0-.15-.08,0-.15,0-.22.15,0,.15.07" transform="translate(-54.12 -44.93)"/><path class="cls-5" d="M58.32,105a3.42,3.42,0,0,1,1.58,2.7c0,2.55-3.3.52-3.3-1.73.07-1,.82-1.5,1.72-1" transform="translate(-54.12 -44.93)"/><path class="cls-13" d="M58.77,106.58v.15c-.07,0-.07,0-.15-.07v-.15c.08,0,.08,0,.15.07" transform="translate(-54.12 -44.93)"/><path class="cls-5" d="M58.32,105a3.42,3.42,0,0,1,1.58,2.7c0,2.55-3.3.52-3.3-1.73.07-1,.82-1.5,1.72-1" transform="translate(-54.12 -44.93)"/><path class="cls-13" d="M58.7,106.58v.08a.08.08,0,0,1-.08-.08v-.07l.08.07" transform="translate(-54.12 -44.93)"/><path class="cls-5" d="M58.32,105a3.42,3.42,0,0,1,1.58,2.7c0,2.55-3.3.52-3.3-1.73.07-1,.82-1.5,1.72-1" transform="translate(-54.12 -44.93)"/><path class="cls-13" d="M58.7,106.66h0c-.08,0-.08-.08,0,0h0" transform="translate(-54.12 -44.93)"/><path class="cls-14" d="M68.82,112.58c.53.3.83,1.58.83,2.1s-.45.75-1,.45L61.55,111a2.12,2.12,0,0,1-1-1.58c0-.6.6-1.27,1.2-1Z" transform="translate(-54.12 -44.93)"/><path class="cls-15" d="M61,108.61c-.07,0-.07.07-.15.15l8.63,4.95c0-.08-.08-.15-.08-.23Z" transform="translate(-54.12 -44.93)"/><path class="cls-15" d="M60.65,109.88c0,.08.07.15.15.3l8.7,5c.07,0,.07-.08.15-.15Z" transform="translate(-54.12 -44.93)"/><path class="cls-15" d="M60.65,109.13a.24.24,0,0,1-.08.15l9.08,5.25v-.22Z" transform="translate(-54.12 -44.93)"/><polygon class="cls-11" points="39.98 47.92 39.98 56.63 26.85 64.28 29.93 53.77 39.98 47.92"/><path class="cls-5" d="M94.32,103.66c.23-.08.38,0,.38.22a.65.65,0,0,1-.38.6l-2.77,1.58c-.23.07-.38,0-.38-.23a.67.67,0,0,1,.38-.6Z" transform="translate(-54.12 -44.93)"/></svg>