<svg id="Capa_1" data-name="Capa 1" xmlns="http://www.w3.org/2000/svg" viewBox="0 0 44.55 37.73"><defs><style>.cls-1{fill:#524c4f;}.cls-2,.cls-24{fill:#3d383c;}.cls-3{fill:#9d9e9e;}.cls-4{fill:#413c40;}.cls-5{fill:#524e51;}.cls-6{fill:#2f2c2e;}.cls-7{fill:#bebebd;}.cls-8{fill:#e2e0e0;}.cls-9{fill:#666465;}.cls-10{fill:#3c5fa5;}.cls-11{fill:#352f76;}.cls-12{fill:#494547;}.cls-13{fill:#353133;}.cls-14{fill:#747270;}.cls-15{fill:#5e5b5b;}.cls-16{fill:#6c8ac5;}.cls-17{fill:#b4b4b3;}.cls-18{fill:#332f32;}.cls-19,.cls-25{fill:#524d51;}.cls-20{fill:#b86933;}.cls-21{fill:#a9a9a9;}.cls-22{fill:#2d292b;}.cls-23{fill:#f2f8fd;}.cls-24,.cls-25{opacity:0.8;}</style></defs><path class="cls-1" d="M100.8,69.8l.38-.38-1.58,5.7-.82-.6,10.35-6.6-.15.23-.08-.38ZM109.2,67h.08a.35.35,0,0,1,.3.38l-.08.82c0,.08-.07.15-.15.23l-10.12,7a.5.5,0,0,1-.45.08.55.55,0,0,1-.38-.68l1.58-5.7a.83.83,0,0,1,.37-.37Z" transform="translate(-72.55 -55.79)"/><path class="cls-2" d="M84.6,64.85,78.08,85.17a.29.29,0,0,0,.22.38.26.26,0,0,0,.38-.23l7-20.1a.59.59,0,0,0-1.13-.37" transform="translate(-72.55 -55.79)"/><path class="cls-2" d="M109.05,57.87c.53,0,1.13,1.05.75,1.43s-1.5.45-1.57-.45a1.12,1.12,0,0,1,.52-.9.55.55,0,0,1,.3-.08" transform="translate(-72.55 -55.79)"/><path class="cls-3" d="M109,67a.77.77,0,0,1,.67-.08l.53.3a.68.68,0,0,1,.3.6,2.13,2.13,0,0,1-1,1.65.59.59,0,0,1-.6.08l-.67-.38a.66.66,0,0,1-.3-.6A2.8,2.8,0,0,1,109,67" transform="translate(-72.55 -55.79)"/><path class="cls-4" d="M105.45,63.35h0c1.2-1.43,4.2-4.5,7.65-3.08a4.8,4.8,0,0,0-3.9.68,10,10,0,0,0-3,2.7c-2.92,3.6-3.9,8.47-2.17,10.87a1.75,1.75,0,0,0,.52.53c-3.22-2.4-2.1-7.73.9-11.7" transform="translate(-72.55 -55.79)"/><path class="cls-5" d="M104.25,66.87a14.56,14.56,0,0,1,2-3.22c.15-.15.23-.3.38-.45A10,10,0,0,1,109.2,61c1.58-.9,3.15-1.13,4.35-.45l.23.15c-1.13-.68-2.7-.53-4.35.45a10.15,10.15,0,0,0-2.63,2.25c-.15.15-.22.3-.37.45a11.8,11.8,0,0,0-2,3.22c-1.28,2.93-1.43,5.93-.23,7.58a3.78,3.78,0,0,0,1,.9l-.23-.15a3.91,3.91,0,0,1-1-.9c-1.28-1.65-1-4.65.22-7.58" transform="translate(-72.55 -55.79)"/><path class="cls-4" d="M107.7,64.85a7.84,7.84,0,0,1,2.7-2.33c1.88-1.05,3.68-1,4.65.38,1.5,2.1.6,6.37-2,9.52a8.73,8.73,0,0,1-2.7,2.4c-1.87,1.05-3.67,1-4.65-.37-1.5-2.18-.6-6.45,2-9.6m-3.52,9.82a3.57,3.57,0,0,0,1,.9c3.38,1.88,6.45-1,7.65-2.32,2.55-2.85,3.83-6.9,3.08-9.68a4.64,4.64,0,0,0-2.1-2.77c-1.13-.68-2.7-.53-4.35.45a10,10,0,0,0-3,2.7C103.5,67.4,102.53,72.27,104.18,74.67Z" transform="translate(-72.55 -55.79)"/><path class="cls-6" d="M106.8,66.42c2-3.45,4.73-4.57,5.93-4.27.07,0,.07,0,.15.07a1.81,1.81,0,0,1,.75.75c1.35,1.88.52,5.7-1.73,8.63a7.69,7.69,0,0,1-2.4,2.1,3.45,3.45,0,0,1-3.45.37c-.07-.07-.15-.07-.22-.22s-1.88-2.78,1-7.43m-1.35,8.33c1,1.5,3,1.57,5,.45a9.94,9.94,0,0,0,2.85-2.55c2.7-3.38,3.6-7.88,2-10.13-1-1.5-3-1.57-5-.45a9.94,9.94,0,0,0-2.85,2.55C104.78,68,103.88,72.5,105.45,74.75Z" transform="translate(-72.55 -55.79)"/><path class="cls-7" d="M110.18,73.85l-1.13-.68a3,3,0,0,1-3.22.3l1.12.68A3.06,3.06,0,0,0,110.18,73.85Z" transform="translate(-72.55 -55.79)"/><path class="cls-7" d="M113.4,63.05l-1.12-.68a3.18,3.18,0,0,1,1.35,2.93,8.27,8.27,0,0,1-.83,3.45l1.13.67a8.34,8.34,0,0,0,.82-3.45A3.3,3.3,0,0,0,113.4,63.05Z" transform="translate(-72.55 -55.79)"/><path class="cls-8" d="M113.93,69.42l-1.13-.67a11,11,0,0,1-1.8,2.77l1.13.68A11,11,0,0,0,113.93,69.42Z" transform="translate(-72.55 -55.79)"/><path class="cls-7" d="M112.13,72.2,111,71.52a6.83,6.83,0,0,1-2,1.65l1.12.68A7.19,7.19,0,0,0,112.13,72.2Z" transform="translate(-72.55 -55.79)"/><path class="cls-3" d="M107.93,69.05l.6-.38h.15l-.23.23Zm.3.82.3-.45.15-.07-.08.22Zm.22.23.3-.53.15-.15-.07.15Zm.45-2.33h-.22l-.38-.37.45.22Zm0-.22-.3-.53.38.38.07.22Zm.15-.83.15.3v.38l-.07-.08Zm.15,3.53.08-.6.07-.15v.22Zm.08-3.3V66.5l.15.52v.08Zm-.6,1,.07.08h-.22l-.38-.23Zm-.15.23.15.07-.23.08-.45-.08Zm-.08.3h.15l-.15.07-.52.08Zm1,1.27.08-.3v.08l-.08.67Zm.08-2.62V67l.07-.67v.45Zm.15,2.4v-.08l.15.23V70Zm.15-2.63-.08.15V66.8l.15-.53ZM110,69.2h0l.15.67-.15-.3Zm.15,0L110,69l.15.08.3.52Zm.23-.23-.08-.22h.23l.37.37Zm.15-.3-.08-.07h.23l.37.22Zm.15-.3-.15-.07.22-.08.45.08Zm.07-.3-.15-.07.15-.08.53-.07Zm0-.22h-.15l.23-.23.45-.15Zm.23-1.2-.3.45-.15.07.07-.22Zm-.23-.23-.3.53-.15.15.08-.15Zm-5.47,4.28h0l2.17-1.28.68-.22-.68.6-2.17,1.27v.15l1.65-.9-1.58,1.35v.15L107.48,70l.6-.38-.6.68L105.3,72v.15L107,70.85l-1.57,1.72v.15l2.17-2.32.75-.6-.6.82-2.17,2.25V73h.15l1.57-1.65s-1.42,2-1.42,2h.07l1.88-2.62.6-.68-.53.9s-1.95,2.63-1.95,2.7H106l1.42-2s-1.12,2.1-1.12,2.18h.07l.08-.08L108,70.85l.6-.9-.37,1s-1.58,2.85-1.58,2.93h.08l.07-.08,1.13-2.1-.83,2.18v.07h.08l.07-.07,1.13-3,.3-.6-.15.6-1.28,3v.07h.08l.07-.07,1-2.18-.6,2.18v.07h.07s.08,0,.08-.07l.82-3,.45-1-.07,1-.83,3v.08h.08a.07.07,0,0,0,.07-.08l.6-2.25-.22,2.1h.07l.08-.07.3-2.93.22-.9.08.75-.38,2.93h.08l.07-.08.3-2.25.15,2H110L110,73l-.15-2.7.15-1,.22.82.15,2.7h.15l.08-.07-.15-2.1s.52,1.72.52,1.8h.08l.07-.08L110.48,70l-.08-.68.23.45.52,2.4h.08l.08-.07-.45-2,.82,1.5h.15a.08.08,0,0,0,.08-.08l-1-2-.23-.9.53.53,1,2h.15a.07.07,0,0,0,.07-.07l-.82-1.65,1.2,1.12h.07l.08-.07-1.5-1.43-.38-.75.6.3,1.43,1.5h.07l.08-.07-1.2-1.28,1.5.75V69.5h-.08l-1.8-.83-.52-.52.75.07,1.8.9v-.07h-.08l-1.5-.75,1.73.22.07-.07v-.08h-.07l-2.1-.3-.53-.3.68-.07,2,.37L114,68v-.08h-.08l-1.65-.3,1.88-.22a.07.07,0,0,0,.07-.08v-.07h-.07l-2.25.3-.6-.15.82-.3,2.25-.15a.08.08,0,0,0,.08-.08V66.8h-.08l-1.72.15,1.87-.68.08-.07s0-.08-.08,0h-.07l-2.4.82-.75.08.9-.53,2.4-.82.07-.08s0-.07-.07,0h-.08l-1.8.68,1.88-1.13.07-.07h-.07l-2.4,1.42-.68.23.68-.6,2.4-1.35.07-.08h-.07l-1.8,1,1.72-1.5v-.08h-.07l-2.33,2-.6.38.6-.68L114.46,64s.07-.08,0-.08h-.08l-1.72,1.35,1.65-1.72v-.08h-.08l-2.17,2.33-.75.6.6-.83,2.17-2.25v-.07H114l-1.58,1.65,1.43-2v-.08h-.15l-1.88,2.63-.6.67.53-.9,1.95-2.62v-.08h-.16l-1.42,2,1.12-2.1v-.07h-.07l-.08.07-1.57,2.93-.6.9.37-1,1.58-2.85v-.07h-.08l-.07.07-1.13,2.1.83-2.17v-.08h-.08l-.07.08-1.13,3-.3.6.15-.6,1.28-3h-.15l-.9,2.17.52-2h-.15l-.75,2.85-.45,1,.08-1,.75-2.85h-.15l-.53,2,.15-1.88c-.07,0-.07.08-.15.08l-.22,2.55-.23.9-.07-.75.3-2.55c-.08,0-.08.07-.15.07L110,64.77l-.07-1.5c-.08,0-.08.07-.15.07l.15,2.1-.15,1-.23-.82-.15-2-.15.15.08,1.35L109,64l-.08.07.45,1.58.08.67-.23-.45-.37-1.72c-.08.07-.08.07-.08.15l.23,1.2-.45-.9-.08.07.68,1.28.22.9-.52-.53-.68-1.27c0,.07-.07.07-.07.15l.45.9-.68-.68-.07.08.9.9.37.75-.6-.3-1-1-.08.08.75.75-1-.45-.08.07,1.28.6.52.53-.75-.08-1.27-.67-.08.07.6.83-1.2-.15c0,.08-.07.08-.07.15l1.65.23.52.3-.67.07-1.58-.3c0,.08,0,.08-.07.15l1.2.23-1.35.15c0,.07,0,.07-.08.15l1.88-.23.6.15-.83.3-1.8.15c0,.08,0,.08-.07.15l1.35-.07-1.43.52c0,.08,0,.08-.07.15l2-.67.75-.08-.9.53-2,.67v.15l1.5-.52-1.58,1C105.23,70.62,105.23,70.62,105.23,70.7Z" transform="translate(-72.55 -55.79)"/><path class="cls-9" d="M105.6,71.22a9.9,9.9,0,0,1,4.58-7.87c2.55-1.43,4.57-.3,4.57,2.62a9.9,9.9,0,0,1-4.57,7.88c-2.55,1.5-4.58.3-4.58-2.63m-.6.38c0,3.22,2.33,4.57,5.18,2.92a11.28,11.28,0,0,0,5.1-8.85c0-3.22-2.33-4.57-5.18-2.92A11.27,11.27,0,0,0,105,71.6Z" transform="translate(-72.55 -55.79)"/><path class="cls-9" d="M109.73,67.32a.73.73,0,0,1,.67-.07l.53.3a.66.66,0,0,1,.3.6,2.13,2.13,0,0,1-1,1.65.6.6,0,0,1-.6.07L109,69.5a.68.68,0,0,1-.3-.6,2.79,2.79,0,0,1,1-1.58" transform="translate(-72.55 -55.79)"/><path class="cls-10" d="M102.08,66.35a18.47,18.47,0,0,1,2.62-4.2,13.43,13.43,0,0,1,3-2.55c1.88-1.13,3.6-1.2,4.88-.45l2.77,1.65-10.5,7.12V68l-2.77-1.65" transform="translate(-72.55 -55.79)"/><path class="cls-11" d="M110.48,61.25a5.29,5.29,0,0,1,4.2-.75,2.8,2.8,0,0,1,1.12.67v.53l-11,6.37a15.53,15.53,0,0,1,5.7-6.82" transform="translate(-72.55 -55.79)"/><path class="cls-10" d="M105,67.47c.15-.3.3-.82.6-1.35a5.28,5.28,0,0,1,.53-.9c.22-.3.37-.6.67-1s.53-.68.75-1l.9-.9a8.77,8.77,0,0,1,2-1.42,9.44,9.44,0,0,1,1-.45,2.56,2.56,0,0,1,1-.23,5,5,0,0,1,1.58.08.53.53,0,0,1,.37.15.25.25,0,0,1,.15.07,2.17,2.17,0,0,0-.6-.07,5.93,5.93,0,0,0-1.5.15,4,4,0,0,0-.9.3,6.55,6.55,0,0,0-1,.52c-.3.23-.68.45-1,.68s-.67.52-1,.75-.6.52-.9.82-.53.6-.83.9a19.28,19.28,0,0,0-1.27,1.73c-.38.52-.6,1-.83,1.27a6,6,0,0,1-.3.53,1.34,1.34,0,0,0,.45-.68" transform="translate(-72.55 -55.79)"/><path class="cls-10" d="M103.2,74.15c-.22.3-11.77,7-12.52,7L87.6,79a1.91,1.91,0,0,1-.75-1.2,52.24,52.24,0,0,1-.9-7.13,5,5,0,0,1,.23-1.87,4.49,4.49,0,0,1,2.32-2.4,13.28,13.28,0,0,1,3.23-1c.9-.22,1.72-.37,2.62-.6s1.58-.37,2.4-.52c1.58-.3,3.08-.6,4.65-.83.75-.15,1.58-.22,2.33-.3a5.45,5.45,0,0,1,2.4,1.05.5.5,0,0,1,.07.75c-3.37,3.45-2.85,8.93-3,9.23" transform="translate(-72.55 -55.79)"/><path class="cls-10" d="M86.7,71.9a18,18,0,0,1,1-3.53l3.67,2.18a53.18,53.18,0,0,0-2.62,5.1,33.1,33.1,0,0,0,.3,4.5L87.45,79a1.88,1.88,0,0,1-.75-1.2c-.22-1-.45-2.32-.6-3.6.23-.82.38-1.57.6-2.32" transform="translate(-72.55 -55.79)"/><path class="cls-3" d="M79,84.27a.73.73,0,0,1,.67-.07l.53.3a.66.66,0,0,1,.3.6,2.13,2.13,0,0,1-1,1.65.6.6,0,0,1-.6.07l-.67-.37a.68.68,0,0,1-.3-.6,2.44,2.44,0,0,1,1-1.58" transform="translate(-72.55 -55.79)"/><path class="cls-4" d="M75.45,80.75h0c1.2-1.43,4.2-4.5,7.65-3.08a4.8,4.8,0,0,0-3.9.68,10,10,0,0,0-3,2.7c-2.92,3.6-3.9,8.47-2.17,10.87a1.75,1.75,0,0,0,.52.53c-3.3-2.48-2.17-7.8.9-11.7" transform="translate(-72.55 -55.79)"/><path class="cls-5" d="M74.18,84.27a13.84,13.84,0,0,1,1.95-3.22c.15-.15.22-.3.37-.45a10.15,10.15,0,0,1,2.63-2.25c1.57-.9,3.15-1.13,4.35-.45l.22.15c-1.12-.68-2.7-.53-4.35.45a10,10,0,0,0-2.62,2.25c-.15.15-.23.3-.38.45a12.06,12.06,0,0,0-1.95,3.22C73.13,87.35,73,90.35,74.18,92a3.91,3.91,0,0,0,1,.9l-.22-.15a3.78,3.78,0,0,1-1-.9c-1.27-1.65-1-4.65.23-7.58" transform="translate(-72.55 -55.79)"/><path class="cls-4" d="M77.63,82.17a7.63,7.63,0,0,1,2.7-2.32c1.87-1,3.67-1,4.65.37,1.5,2.1.6,6.38-2,9.53a9.1,9.1,0,0,1-2.7,2.4c-1.88,1-3.68,1-4.65-.38-1.5-2.17-.6-6.37,1.95-9.6M74.18,92a3.91,3.91,0,0,0,1,.9c3.38,1.87,6.45-1,7.65-2.33,2.55-2.85,3.83-6.9,3.08-9.67a4.71,4.71,0,0,0-2.1-2.78c-1.13-.67-2.7-.52-4.35.45a10,10,0,0,0-3,2.7C73.43,84.8,72.45,89.6,74.18,92Z" transform="translate(-72.55 -55.79)"/><path class="cls-6" d="M76.73,83.75c2-3.45,4.72-4.58,5.92-4.28.08,0,.08,0,.15.08a1.81,1.81,0,0,1,.75.75c1.35,1.87.53,5.7-1.72,8.62a7.67,7.67,0,0,1-2.4,2.1A3.48,3.48,0,0,1,76,91.4c-.08-.08-.15-.08-.23-.23s-1.87-2.7,1-7.42m-1.35,8.32c1.05,1.5,3,1.58,5,.45A9.77,9.77,0,0,0,83.18,90c2.7-3.37,3.6-7.87,2-10.12-1-1.5-3-1.58-5-.45A9.77,9.77,0,0,0,77.4,82C74.7,85.32,73.8,89.9,75.38,92.07Z" transform="translate(-72.55 -55.79)"/><path class="cls-7" d="M80.1,91.25,79,90.57a3,3,0,0,1-3.23.3l1.13.68A3.4,3.4,0,0,0,80.1,91.25Z" transform="translate(-72.55 -55.79)"/><path class="cls-7" d="M83.33,80.37,82.2,79.7a3.15,3.15,0,0,1,1.35,2.92,8.34,8.34,0,0,1-.82,3.45l1.12.68a8.27,8.27,0,0,0,.83-3.45A3.46,3.46,0,0,0,83.33,80.37Z" transform="translate(-72.55 -55.79)"/><path class="cls-8" d="M83.85,86.75l-1.12-.68a11,11,0,0,1-1.8,2.78l1.12.67A9.72,9.72,0,0,0,83.85,86.75Z" transform="translate(-72.55 -55.79)"/><path class="cls-7" d="M82.05,89.52l-1.12-.67a7.19,7.19,0,0,1-2,1.65l1.13.67A6.83,6.83,0,0,0,82.05,89.52Z" transform="translate(-72.55 -55.79)"/><path class="cls-3" d="M77.85,86.45l.6-.38h.15l-.22.23Zm.3.82.3-.45.15-.07-.07.22Zm.23.15.3-.52.15-.15-.08.15Zm.45-2.25H78.6l-.37-.37.45.22Zm.07-.3-.3-.52.38.37.07.23Zm.08-.82.15.3v.37l-.08-.07Zm.15,3.52.07-.6.08-.15v.23Zm.07-3.3v-.45l.15.53v.07Zm-.6,1,.08.07h-.23l-.37-.22Zm-.15.3.15.07-.22.08-.45-.08Zm-.07.22h.15l-.15.08-.53.07Zm1.05,1.35.07-.3v.08l-.07.67Zm.07-2.62v-.08l.08-.67v.45Zm.15,2.32v-.07l.15.22v.38Zm.15-2.55-.07.15V84.2l.15-.53Zm.08,2.33h0l.15.67-.15-.3Zm.15-.08L80,86.3l.15.07.3.53Zm.22-.22-.07-.23h.22l.38.38Zm.15-.3-.07-.08h.22l.38.23Zm.15-.23-.15-.07.23-.08.45.08Zm.08-.3-.15-.07.15-.08.52-.07Zm0-.3h-.15L80.7,85l.45-.15Zm.22-1.2-.3.45-.15.08.08-.23Zm-.15-.15-.3.53-.15.15.08-.15ZM75.15,88h0l2.18-1.27.67-.23-.67.6L75.15,88.4v.15l1.65-.9L75.23,89v.15l2.17-1.88.6-.37-.6.67L75.23,89.3v.15l1.65-1.28L75.3,89.9v.15l2.18-2.33.75-.6-.6.83L75.45,90.2v.07h.15l1.58-1.65s-1.43,1.95-1.43,2h.08L77.7,88l.6-.67-.52.9s-2,2.62-2,2.7h.07l1.43-2s-1.13,2.1-1.13,2.17h.08l.07-.07,1.58-2.93.6-.9-.38,1s-1.57,2.85-1.57,2.92h.07l.08-.07L77.85,89,77,91.17v.08h.07l.08-.08,1.12-3,.3-.6-.15.6-1.27,3v.08h.07l.08-.08,1-2.17-.6,2.17v.08h.08a.07.07,0,0,0,.07-.08l.83-3,.45-1-.08,1-.82,3v.07h.07s.08,0,.08-.07l.6-2.25L78.75,91h.08l.07-.08L79.2,88l.23-.9.07.75-.37,2.92h.07l.08-.07.3-2.25.15,1.95h.15l.07-.08-.15-2.7.15-1,.23.83.15,2.7h.15l.07-.08-.15-2.1s.53,1.73.53,1.8H81l.08-.07-.67-2.33-.08-.67.22.45.53,2.4h.08l.07-.08-.45-2,.82,1.5h.16a.07.07,0,0,0,.07-.07l-1-1.95-.22-.9.52.52,1,2h.15a.08.08,0,0,0,.08-.08l-.83-1.65L82.73,88h.08l.07-.08-1.5-1.42L81,85.7l.6.3L83,87.5h.08l.07-.08L82,86.15l1.5.75v-.08h-.07L81.61,86l-.53-.53.75.08,1.8.9v-.08h-.07l-1.5-.75,1.72.23.08-.08V85.7h-.08l-2.1-.3-.52-.3.67-.08,2,.38.07-.08v-.07h-.07L82.21,85l1.87-.23s.08,0,.08-.07v-.08h-.08l-2.25.3-.6-.15.83-.3,2.25-.15a.07.07,0,0,0,.07-.07v-.08h-.07l-1.73.15,1.88-.67.07-.08s0-.07-.07,0h-.08l-2.4.83-.75.07.9-.52,2.4-.83.08-.07s0-.08-.08,0h-.07l-1.8.67,1.87-1.12.08-.08h-.08l-2.4,1.43-.67.22.67-.6,2.4-1.35.08-.08h-.08l-1.8,1,1.73-1.5v-.07h-.08l-2.32,2-.6.37.6-.67,2.32-1.88s.08-.07,0-.07h-.07l-1.73,1.35,1.65-1.73v-.07h-.07L82,83.14l-.75.6.6-.82L84,80.67v-.08h-.08l-1.57,1.65,1.42-1.95v-.07h-.15l-1.87,2.62-.6.68.52-.9L83.63,80v-.07h-.15l-1.43,2,1.13-2.1v-.08H83.1l-.07.08-1.58,2.92-.6.9.38-1,1.57-2.85v-.08h-.07l-.08.08-1.12,2.1.82-2.18v-.07h-.07l-.08.07-1.12,3-.3.6.15-.6,1.27-3h-.15l-.9,2.18.53-2h-.15l-.75,2.85-.45,1,.07-1,.75-2.85H81l-.52,2,.15-1.87c-.08,0-.08.07-.15.07l-.23,2.55-.22.9L80,82.84l.3-2.55c-.07,0-.07.08-.15.08l-.22,1.72-.08-1.5c-.07,0-.07.08-.15.08l.15,2.1-.15,1L79.43,83l-.15-2-.15.15.07,1.35-.3-1.13-.07.08L79.28,83l.07.68-.22-.45-.38-1.73c-.07.08-.07.08-.07.15l.22,1.2-.45-.9-.07.08.67,1.27.23.9-.53-.52-.67-1.28c0,.08-.08.08-.08.15l.45.9-.67-.67-.08.07.9.9.38.75-.6-.3-1-1-.07.07.75.75-1-.45-.07.08,1.27.6.53.52-.75-.07L76.8,84l-.07.08,1,.52-1.2-.15c0,.08-.07.08-.07.15l1.65.23.52.3-.67.07-1.58-.3c0,.08,0,.08-.07.15l1.2.23-1.35.15c0,.07,0,.07-.08.15l1.88-.23.6.15-.83.3L75.9,86c0,.08,0,.08-.07.15l1.35-.07-1.43.52c0,.08,0,.08-.07.15l2-.67.75-.08-.9.53-2,.67v.15l1.5-.52-1.58,1C75.15,88,75.15,88,75.15,88Z" transform="translate(-72.55 -55.79)"/><path class="cls-9" d="M75.53,88.62a9.89,9.89,0,0,1,4.57-7.87c2.55-1.43,4.58-.3,4.58,2.62a9.91,9.91,0,0,1-4.58,7.88c-2.55,1.42-4.57.22-4.57-2.63m-.6.3c0,3.23,2.32,4.58,5.17,2.93A11.3,11.3,0,0,0,85.2,83c0-3.23-2.32-4.58-5.17-2.93A11.49,11.49,0,0,0,74.93,88.92Z" transform="translate(-72.55 -55.79)"/><path class="cls-9" d="M79.65,84.72a.75.75,0,0,1,.68-.07l.52.3a.66.66,0,0,1,.3.6,2.15,2.15,0,0,1-1,1.65.6.6,0,0,1-.6.07l-.68-.37a.68.68,0,0,1-.3-.6,2.84,2.84,0,0,1,1.05-1.58" transform="translate(-72.55 -55.79)"/><path class="cls-2" d="M94.43,63.27a.25.25,0,0,1,.15-.07,10.4,10.4,0,0,0,2.7-.9,26.32,26.32,0,0,0,3.45-2.1,15.16,15.16,0,0,1,2.55-1.8,1,1,0,0,1,.9,0l-3.6,3.75L94.5,64.32a.63.63,0,0,1-.07-1" transform="translate(-72.55 -55.79)"/><path class="cls-12" d="M95,63.27a13,13,0,0,0,3.83-1.42.51.51,0,0,1,.3-.15c1.12-.68,2.1-1.35,2.85-1.88a18.41,18.41,0,0,1,1.72-1.27c.23-.15.45-.23.53-.15l4.87,2.85c-3,2.55-6.07,4.8-9.6,5.92l-4.87-2.85H94.5c-.22-.22.08-1,.45-1" transform="translate(-72.55 -55.79)"/><path class="cls-2" d="M99.75,66.2c.6-.3,2.48-.15,7-3.6a19.32,19.32,0,0,1,1.73-1.28c.22-.15.45-.22.52-.15a1.09,1.09,0,0,1,.38.53c.37,1.35-4.5,4.12-4.73,4.2-1.72,1-4,1.95-5.17,1.27h-.08c-.3-.22,0-.82.3-1" transform="translate(-72.55 -55.79)"/><path class="cls-13" d="M101,66.65a20.79,20.79,0,0,0,6.45-3.45,9,9,0,0,1,1.73-1.2c.3-.15.37-.15.37.07.08.45-1.8,2.1-4,3.38-3.82,2.25-5.55,1.87-5.1,1.42,0-.15.38-.15.6-.22" transform="translate(-72.55 -55.79)"/><path class="cls-14" d="M91.43,79.4a8.12,8.12,0,0,1,.6-.9,15.23,15.23,0,0,1,3.82-2.93c2-1.2,3.75-1.65,4.35-1.35l1,.53c-.6-.3-2.33.15-4.35,1.35A16.94,16.94,0,0,0,93,79a2.15,2.15,0,0,0-.6.9.88.88,0,0,0-.07.38.4.4,0,0,0,.22.37l-1-.52a.43.43,0,0,1-.23-.38.76.76,0,0,1,.08-.37" transform="translate(-72.55 -55.79)"/><path class="cls-15" d="M96.83,76.17c2.47-1.42,4.5-1.87,4.5-1s-2,2.77-4.5,4.27-4.5,1.88-4.5,1,2-2.85,4.5-4.28" transform="translate(-72.55 -55.79)"/><path class="cls-10" d="M98.1,64.7c2.1,2.55-2.92,5.77-7.27,6.37-2.85.38-4.5-.67-5-3.52a4.38,4.38,0,0,1,0-1.73c1-3.9,10.12-3.67,12.22-1.12" transform="translate(-72.55 -55.79)"/><path class="cls-16" d="M87.3,64.62c-.07-.52,1.5-1.2,3.45-1.5s3.68-.07,3.75.53-1.5,1.2-3.45,1.5-3.67,0-3.75-.53" transform="translate(-72.55 -55.79)"/><path class="cls-17" d="M103.8,73.47s.75-.6,1.88-1.35c.6-.37,1.2-.82,1.95-1.27s1.5-.9,2.32-1.35a44.31,44.31,0,0,1,4.43-2.33,17.84,17.84,0,0,1,2.1-.9.43.43,0,0,1,.52.15.48.48,0,0,1-.07.68s-.75.6-1.88,1.35-2.7,1.72-4.27,2.62c-.83.45-1.58.9-2.33,1.28l-2.1,1.05a17.84,17.84,0,0,1-2.1.9.47.47,0,0,1-.45-.83" transform="translate(-72.55 -55.79)"/><path class="cls-2" d="M97.65,77.67c.15-.07.23-.07.3,0l2.93,1.65-.6,1.05-2.93-1.65a.4.4,0,0,1-.15-.3.9.9,0,0,1,.45-.75" transform="translate(-72.55 -55.79)"/><path class="cls-18" d="M100.13,80.07c0,.3.22.38.45.23a1,1,0,0,0,.45-.75c0-.3-.23-.38-.45-.23a1,1,0,0,0-.45.75" transform="translate(-72.55 -55.79)"/><path class="cls-2" d="M83.4,59.67a.3.3,0,0,0,.23-.07.41.41,0,0,0,.15-.6l-1.43-2.55a.4.4,0,0,0-.6-.15.41.41,0,0,0-.15.6L83,59.45a.4.4,0,0,0,.37.22" transform="translate(-72.55 -55.79)"/><path class="cls-19" d="M85.5,64.92a.37.37,0,0,0,.3-.15.38.38,0,0,0-.15-.52l-1.05-.6a.41.41,0,0,1-.22-.3l-.53-3.9c0-.23-.22-.3-.45-.3a.33.33,0,0,0-.3.45l.53,3.9a1.5,1.5,0,0,0,.6.9l1,.6c.07-.15.15-.08.22-.08" transform="translate(-72.55 -55.79)"/><path class="cls-2" d="M82.5,63.87c-.22.45.53,1.43,1,1.2s1-1.2.15-1.57a1,1,0,0,0-1,.22.17.17,0,0,0-.15.15" transform="translate(-72.55 -55.79)"/><path class="cls-20" d="M82.65,64c.15-.08.45,0,.68.3s.3.6.15.67-.45,0-.68-.3-.3-.52-.15-.67" transform="translate(-72.55 -55.79)"/><path class="cls-21" d="M86,64l.67-1.12c-.07,0-.07,0-.07-.08L86,64Z" transform="translate(-72.55 -55.79)"/><path class="cls-19" d="M85.88,64l.67-1.13c-.22-.07-.37-.15-.37-.07l-.68,1.12C85.5,63.8,85.65,63.87,85.88,64Z" transform="translate(-72.55 -55.79)"/><path class="cls-19" d="M87.38,65l.67-1.13a.25.25,0,0,0-.07-.15,3.23,3.23,0,0,0-.75-.52l-.68,1.12a3.23,3.23,0,0,1,.75.53C87.38,64.92,87.38,64.92,87.38,65Z" transform="translate(-72.55 -55.79)"/><path class="cls-21" d="M86.48,64.25l.67-1.13c-.15-.07-.37-.22-.52-.3L86,64A5.66,5.66,0,0,0,86.48,64.25Z" transform="translate(-72.55 -55.79)"/><path class="cls-22" d="M86,64c-.45-.22-.6-.22-.38,0a6.45,6.45,0,0,0,1.28.83c.45.22.6.22.37,0A3.73,3.73,0,0,0,86,64" transform="translate(-72.55 -55.79)"/><path class="cls-21" d="M88.05,65.22l.75-1-.07-.07L88,65.15A.07.07,0,0,0,88.05,65.22Z" transform="translate(-72.55 -55.79)"/><path class="cls-19" d="M88,65.15l.75-1.05c-.23-.15-.3-.15-.38-.15l-.75,1A.78.78,0,0,1,88,65.15Z" transform="translate(-72.55 -55.79)"/><path class="cls-19" d="M89.33,66.35l.75-1a.22.22,0,0,0-.08-.15c-.15-.15-.45-.38-.67-.6l-.75,1a2.59,2.59,0,0,1,.67.6C89.33,66.27,89.33,66.27,89.33,66.35Z" transform="translate(-72.55 -55.79)"/><path class="cls-21" d="M88.5,65.52l.75-1a1.68,1.68,0,0,0-.45-.3l-.75,1A1.68,1.68,0,0,1,88.5,65.52Z" transform="translate(-72.55 -55.79)"/><path class="cls-22" d="M88.05,65.22c-.45-.22-.6-.22-.37,0a5.12,5.12,0,0,0,1.2.9c.45.23.6.23.37,0a5.74,5.74,0,0,0-1.2-.9" transform="translate(-72.55 -55.79)"/><polygon class="cls-10" points="12.57 9.21 15.8 11.08 13.03 18.13 10.25 16.48 12.57 9.21"/><path class="cls-2" d="M87.83,67.7,87,69.8l-2.77-1.58.67-2.17c1,.52,1.95,1,2.93,1.65" transform="translate(-72.55 -55.79)"/><path class="cls-2" d="M87.75,66.65,80.33,86.37a.35.35,0,0,0,.15.45c.15.08.37,0,.37-.15l8-19.57a.64.64,0,0,0-.3-.83.77.77,0,0,0-.83.38" transform="translate(-72.55 -55.79)"/><path class="cls-2" d="M86.1,63.35,89,65a1,1,0,0,1,.45,1.2l-.38,1.2a.69.69,0,0,1-.3.37l-.9.53-3.75-2.18a.61.61,0,0,1-.3-.45v-.9a1.16,1.16,0,0,1,.53-.9l.9-.52a.8.8,0,0,1,.82,0" transform="translate(-72.55 -55.79)"/><path class="cls-2" d="M88.28,67.25c-.23.45.52,1.42,1,1.2s1-1.2.15-1.58a1,1,0,0,0-1,.23.15.15,0,0,0-.15.15" transform="translate(-72.55 -55.79)"/><path class="cls-20" d="M88.43,67.32a.62.62,0,0,1,.67.3c.23.3.3.6.15.68a.62.62,0,0,1-.67-.3c-.23-.3-.3-.6-.15-.68" transform="translate(-72.55 -55.79)"/><path class="cls-19" d="M90.08,67.4a2.3,2.3,0,0,0,1-.23c1-.52,2.63-1.35,2.7-1.35a.38.38,0,0,0-.37-.67s-1.73.82-2.7,1.35a1.32,1.32,0,0,1-1.28,0L89,66.27a.39.39,0,1,0-.38.68l.38.22a4.05,4.05,0,0,0,1,.23" transform="translate(-72.55 -55.79)"/><path class="cls-2" d="M97.58,67.25a.46.46,0,0,0,.15-.9l-4-1.35a.5.5,0,0,0-.6.3.5.5,0,0,0,.3.6l4.05,1.35h.15" transform="translate(-72.55 -55.79)"/><path class="cls-19" d="M82.35,67.55c-.52,1.2,1.43,3.6,2.78,3.07s2.4-3.07.3-4.05a2.67,2.67,0,0,0-2.63.53.89.89,0,0,0-.45.45" transform="translate(-72.55 -55.79)"/><path class="cls-23" d="M82.73,67.55c.37-.3,1.2.07,1.87.82s.75,1.65.38,1.95-1.2-.07-1.88-.82-.75-1.65-.37-2" transform="translate(-72.55 -55.79)"/><path class="cls-2" d="M81.15,56.9a.78.78,0,0,0,1,.15.8.8,0,0,0,.38-1,.78.78,0,0,0-1-.15.8.8,0,0,0-.38,1" transform="translate(-72.55 -55.79)"/><path class="cls-2" d="M97.58,67.7c.37.15.75-.15.9-.6a.79.79,0,0,0-.38-1c-.37-.15-.75.15-.9.6a.75.75,0,0,0,.38,1" transform="translate(-72.55 -55.79)"/><path class="cls-24" d="M84.9,64c-.07.15.6.75,1.58,1.35s1.8.83,2,.68a12.67,12.67,0,0,0-3.53-2" transform="translate(-72.55 -55.79)"/><path class="cls-25" d="M84.23,66.72c.3.08.37.3.3.45a.67.67,0,0,1-.68.15c-.3-.07-.37-.3-.3-.45a.74.74,0,0,1,.68-.15" transform="translate(-72.55 -55.79)"/><path class="cls-2" d="M112.58,60c.52,0,1.12,1.05.75,1.43s-1.5.45-1.58-.45a1.13,1.13,0,0,1,.53-.9,1.07,1.07,0,0,1,.3-.08" transform="translate(-72.55 -55.79)"/></svg>