<svg id="Capa_1" data-name="Capa 1" xmlns="http://www.w3.org/2000/svg" viewBox="0 0 141.9 110.47"><defs><style>.cls-1{fill:#3c5fa5;}.cls-2{fill:#352f76;}.cls-3{fill:#4a4545;}.cls-4{fill:#332e2e;}.cls-5{fill:#443e3b;}.cls-6{fill:#a4a5a4;}.cls-7{fill:#6c8ac5;}.cls-8{fill:#9dcdea;}.cls-9{fill:#fcfbee;}</style></defs><path class="cls-1" d="M18.16,94.35a.24.24,0,0,1,.3,0l1.27.75a1,1,0,0,1,.45.75v4.73a.38.38,0,0,1-.15.3l-.37.22-1.88-6.52Z" transform="translate(-17.71 -23.63)"/><path class="cls-2" d="M17.71,94.88c0-.3.22-.38.45-.23l1.27.75a1,1,0,0,1,.45.75v4.73c0,.3-.22.37-.45.22l-1.27-.75a1,1,0,0,1-.45-.75Z" transform="translate(-17.71 -23.63)"/><path class="cls-3" d="M19.21,95.1a.16.16,0,0,0,.15-.15V92l4-2.32a4.44,4.44,0,0,1,4.13,0l2.7,1.57c.07.08.15,0,.22-.07s0-.15-.07-.23l-2.7-1.57a5.07,5.07,0,0,0-4.43,0l-4.05,2.32c-.07,0-.07.08-.07.15v3.08c0,.15.07.22.15.22" transform="translate(-17.71 -23.63)"/><path class="cls-3" d="M18.68,94.8a.15.15,0,0,0,.15-.15V92.48l.45-.45a.16.16,0,1,0-.22-.23l-.45.45-.08.08v2.25c0,.15.08.22.15.22" transform="translate(-17.71 -23.63)"/><polygon class="cls-4" points="61.95 81.38 68.33 83.25 67.8 88.72 65.92 92.47 54.08 85.65 61.95 81.38"/><polygon class="cls-4" points="118.65 48.67 124.95 50.55 124.42 56.02 122.55 59.85 110.7 52.95 118.65 48.67"/><path class="cls-4" d="M74,110a3.85,3.85,0,0,1,3.75-.38l3.3,1.88-7.43,12.75-3.3-1.88a3.72,3.72,0,0,1-1.5-3.37A11.35,11.35,0,0,1,74,110" transform="translate(-17.71 -23.63)"/><path class="cls-5" d="M80.93,111.47c-2-1.18-5.36.74-7.41,4.29s-2.06,7.39,0,8.57,5.36-.74,7.41-4.29,2.06-7.39,0-8.57" transform="translate(-17.71 -23.63)"/><path class="cls-6" d="M77.26,122.4a8.1,8.1,0,0,0,3.82-6.52c0-2.4-1.65-3.45-3.67-2.33a8.13,8.13,0,0,0-3.83,6.53c-.07,2.47,1.58,3.52,3.68,2.32" transform="translate(-17.71 -23.63)"/><path class="cls-4" d="M130.81,77.18a3.85,3.85,0,0,1,3.75-.38l3.3,1.88-7.43,12.75-3.3-1.88a3.72,3.72,0,0,1-1.5-3.37,11.35,11.35,0,0,1,5.18-9" transform="translate(-17.71 -23.63)"/><path class="cls-5" d="M137.75,78.72c-2-1.18-5.36.74-7.41,4.3s-2.06,7.38,0,8.56,5.36-.74,7.41-4.29,2.06-7.39,0-8.57" transform="translate(-17.71 -23.63)"/><path class="cls-6" d="M136.71,80.61c-1.47-.84-3.85.54-5.31,3.09s-1.46,5.31,0,6.15,3.86-.54,5.32-3.09,1.45-5.3,0-6.15" transform="translate(-17.71 -23.63)"/><path class="cls-2" d="M29.48,93.75,36.83,98l-6.67,3.82a.47.47,0,0,1-.68-.37Zm-3,25.13L52.58,134V126.9a1.33,1.33,0,0,0,.53-.15l2-1.12a.58.58,0,0,0,.3-.53V105.53l-.08-.08L53,106.8a.76.76,0,0,1-.37.08v-5.4L26.48,86.4v5.33a.4.4,0,0,0,.23.37l.22.15-.07,19.5-.15.08a.45.45,0,0,0-.23.45Z" transform="translate(-17.71 -23.63)"/><path class="cls-1" d="M26.93,111.83,27,92.33l2.55,1.5v7.72a.42.42,0,0,0,.67.38l6.68-3.83L52.28,107a.9.9,0,0,0,.45.08.55.55,0,0,0,.38-.08l2.25-1.35a.07.07,0,0,1,.07.08v19.57a.64.64,0,0,1-.3.53l-2,1.12A.26.26,0,0,1,53,127h-.3a1.51,1.51,0,0,1-.53-.15L27,112.35c-.08,0-.08-.07-.08-.15Z" transform="translate(-17.71 -23.63)"/><polygon class="cls-7" points="141.9 15.22 115.8 0 9.68 61.27 35.85 76.42 141.9 15.22"/><path class="cls-7" d="M26.63,85.73a2.12,2.12,0,0,1,.75-.83l26.1,15.15a1.76,1.76,0,0,0-.37.3c-.15.15-.23.38-.38.53a2.31,2.31,0,0,0-.15.67L26.48,86.4a2.31,2.31,0,0,1,.15-.67" transform="translate(-17.71 -23.63)"/><path class="cls-1" d="M145.43,53.48l.45-.3c.23-.15.45,0,.45.3V54Zm1.88-.6a.82.82,0,0,1,.45-.75l9.07-5.25c.23-.15.45,13.42.45,13.42l-9.9-5.7V52.88ZM52.58,127v7.12l18.75-10.87v-2.1a13.34,13.34,0,0,1,6.15-10.58c3.38-2,6.15-.37,6.15,3.53v2.1L128,90.6V88.5a13.32,13.32,0,0,1,6.15-10.57c3.37-2,6.15-.38,6.15,3.52v2.1l12.15-7,6.45-5.7a1.88,1.88,0,0,0,.67-1.5V38.93L53.41,100.2a2.14,2.14,0,0,0-.9,1.5v5.4c.15,0,.3,0,.37-.07l2.25-1.35s.08,0,.08.07v19.58a.62.62,0,0,1-.3.52L53,127C53,126.9,52.81,127,52.58,127Z" transform="translate(-17.71 -23.63)"/><polygon class="cls-1" points="93.45 33.15 134.7 9.3 134.7 11.1 93.45 34.88 93.45 33.15"/><polygon class="cls-1" points="80.55 27.45 93.45 34.88 93.45 33.15 80.55 25.73 80.55 27.45"/><polygon class="cls-7" points="93.45 33.15 134.7 9.3 121.8 1.88 80.55 25.73 93.45 33.15"/><path class="cls-1" d="M145.43,53.48l.45-.3c.23-.15.45,0,.45.3V54Zm-87.52,48.3v17.47L158.63,61.13V43.65Z" transform="translate(-17.71 -23.63)"/><polygon class="cls-1" points="38.7 108.22 52.42 100.35 52.42 71.1 38.7 78.97 38.7 108.22"/><polygon class="cls-1" points="83.85 82.2 97.5 74.33 97.5 45.08 83.85 52.95 83.85 82.2"/><path class="cls-8" d="M53,106.88l2.25-1.35s.08,0,.08.07v19.58a.62.62,0,0,1-.3.52l-2,1.13a1.28,1.28,0,0,1-1,0L26.93,112.35c-.07,0-.07-.07-.07-.15l.07-19.87L52.21,107a1,1,0,0,0,.82-.07" transform="translate(-17.71 -23.63)"/><path class="cls-8" d="M116.33,84.38l13.8-7.95a.77.77,0,0,0,.38-.6V62.7a.34.34,0,0,0-.45-.3l-14,8.1a1,1,0,0,0-.45.75V84.08c0,.22.37.45.67.3m15.83-9.15,13.8-8a.78.78,0,0,0,.37-.6V53.55a.33.33,0,0,0-.45-.3l-13.95,8a1,1,0,0,0-.45.75V74.78A.48.48,0,0,0,132.16,75.23Zm-61,35.17,13.8-8a.75.75,0,0,0,.38-.6V88.73a.33.33,0,0,0-.45-.3l-14,8.1a1,1,0,0,0-.45.75V110C70.51,110.4,70.88,110.63,71.18,110.4ZM57.46,125.48l5.47-3.15V101.18l-5.47,3.15Zm6.3-24.75,5.47-3.15v21.15l-5.47,3.15Zm38.77-1.2L108,96.38V75.23l-5.48,3.15Zm6.3-24.83,5.48-3.15V92.7l-5.48,3.15Z" transform="translate(-17.71 -23.63)"/><path class="cls-1" d="M52.36,114.08a.22.22,0,0,1,.3,0l1.27.75a1,1,0,0,1,.45.75v4.72a.37.37,0,0,1-.15.3l-.37.23L52,114.3Z" transform="translate(-17.71 -23.63)"/><path class="cls-2" d="M51.83,114.53c0-.3.23-.38.45-.23l1.28.75a1,1,0,0,1,.45.75v4.73c0,.3-.23.37-.45.22L52.28,120a1,1,0,0,1-.45-.75Z" transform="translate(-17.71 -23.63)"/><path class="cls-3" d="M52.88,114.53a.16.16,0,0,0,.15-.15v-2.93l4-2.32a1.71,1.71,0,0,0,1-1.35,1.68,1.68,0,0,0-1-1.35l-2.7-1.58c-.08-.07-.15,0-.23.08s0,.15.08.22l2.7,1.58a1.35,1.35,0,0,1,.82,1.12,1.46,1.46,0,0,1-.82,1.13l-4,2.32c-.08,0-.08.08-.08.15v3a.28.28,0,0,0,.15.08" transform="translate(-17.71 -23.63)"/><path class="cls-3" d="M53.33,114.83a.16.16,0,0,0,.15-.15V112.2l-.52-.9a.3.3,0,0,0-.23-.07.28.28,0,0,0-.07.22l.52.9v2.4c.08,0,.08.08.15.08" transform="translate(-17.71 -23.63)"/><polygon class="cls-9" points="28.73 102.9 33.52 105.67 33.52 104.1 28.73 101.33 28.73 102.9"/><polygon class="cls-7" points="33.38 105.6 34.88 106.5 34.88 104.92 33.38 104.03 33.38 105.6"/><polygon class="cls-7" points="35.55 106.13 34.88 106.5 34.88 104.92 35.55 104.55 35.55 106.13"/><polygon class="cls-9" points="15 94.95 10.13 92.17 10.13 90.6 15 93.38 15 94.95"/><polygon class="cls-7" points="10.28 92.25 8.78 91.35 8.78 89.78 10.28 90.67 10.28 92.25"/><path class="cls-1" d="M33.83,121l11.48,6.6v-.3l-11.48-6.6Zm0-.6L45.31,127v-.3l-11.48-6.6Zm0-.6,11.48,6.6v-.3l-11.48-6.6Zm0-.6,11.48,6.6v-.3l-11.48-6.6Zm0-.6,11.48,6.6v-.3l-11.48-6.6Zm0-.9,11.48,6.6v.3L33.83,118Z" transform="translate(-17.71 -23.63)"/><polygon class="cls-1" points="10.72 69.45 32.85 82.2 32.85 77.78 10.72 65.03 10.72 69.45"/><path class="cls-7" d="M29.48,92.18l2.18,1.27V92.18L29.48,90.9Zm7.05,4,3,1.72V96.68l-3-1.73Zm4.28,2.47,4.5,2.55V100l-4.5-2.55Zm5.77,2.1,2.85,1.65v1.28l-2.85-1.65Z" transform="translate(-17.71 -23.63)"/><path class="cls-1" d="M156.23,68.78l1-.6a.63.63,0,0,0,.3-.45v-.15c0-.15-.15-.23-.3-.08l-1,.6a.63.63,0,0,0-.3.45v.15c0,.15.15.15.3.08M84.31,110v-.15c0-.15.15-.3.3-.45l1-.6c.15-.08.3,0,.3.07v.15c0,.15-.15.3-.3.45l-1,.6C84.46,110.25,84.31,110.18,84.31,110Z" transform="translate(-17.71 -23.63)"/><path class="cls-1" d="M130,62.4c.23-.15.45,0,.45.3v2.55L115.58,73.8V71.18a.82.82,0,0,1,.45-.75Z" transform="translate(-17.71 -23.63)"/><path class="cls-7" d="M116,72.45l1.5-.9v-.9l-1.5.9Zm5-2.85,2.1-1.2v-.9L121,68.7Zm3-1.8,3.15-1.8v-.9L124,66.9Zm4-3.22,2-1.2v.9l-2,1.2Z" transform="translate(-17.71 -23.63)"/></svg>