<svg xmlns="http://www.w3.org/2000/svg" version="1.0" width="488.000000pt" height="262.000000pt" viewBox="0 0 488.000000 262.000000" preserveAspectRatio="xMidYMid meet">

<g transform="translate(0.000000,262.000000) scale(0.100000,-0.100000)" fill="#ff1a1a" stroke="none">
<path d="M2765 2239 c-204 -23 -372 -72 -560 -165 -299 -146 -528 -383 -684 -706 -108 -223 -150 -423 -151 -701 l0 -147 318 2 317 3 0 60 0 60 -254 3 -254 2 7 133 c10 204 47 352 132 532 54 113 153 265 173 265 8 0 67 -54 131 -120 64 -66 119 -120 123 -120 15 0 77 63 77 79 0 9 -54 70 -120 136 -66 66 -120 125 -120 131 0 21 153 148 262 217 125 79 297 151 425 177 98 21 238 39 245 32 4 -4 9 -75 10 -157 l3 -150 60 0 60 0 3 150 c1 82 6 153 10 157 7 7 147 -11 245 -32 216 -44 467 -179 650 -349 l48 -45 -133 -133 -132 -133 39 -40 c21 -22 44 -40 49 -40 6 0 65 55 132 121 72 72 126 119 133 115 21 -13 111 -155 155 -244 87 -174 132 -349 142 -551 l7 -131 -251 0 -252 0 -6 -23 c-3 -13 -4 -41 -2 -63 l3 -39 315 0 315 0 -1 175 c-1 231 -30 395 -103 577 -165 416 -520 749 -948 893 -114 38 -156 47 -308 65 -130 16 -201 17 -310 4z" fill="#ff1a1a"/>
<path d="M272 1619 c-9 -4 -26 -16 -36 -28 -16 -17 -17 -25 -8 -46 26 -58 6 -56 652 -53 l592 3 19 24 c24 29 24 53 2 80 -18 21 -23 21 -611 23 -326 2 -601 0 -610 -3z" fill="#ff1a1a"/>
<path d="M3499 1251 c-64 -31 -165 -79 -225 -108 -60 -29 -188 -90 -284 -136 -96 -46 -192 -92 -212 -101 -57 -27 -121 -88 -152 -146 -37 -67 -46 -179 -22 -261 20 -72 79 -145 151 -188 50 -30 67 -35 140 -39 114 -6 179 15 252 82 56 51 91 114 281 516 22 47 72 153 112 235 85 177 92 193 82 198 -4 3 -59 -21 -123 -52z" fill="#ff1a1a"/>
<path d="M253 1150 c-44 -18 -52 -69 -17 -105 13 -13 83 -15 512 -15 560 0 546 -2 540 68 -5 63 1 62 -533 61 -264 0 -490 -4 -502 -9z" fill="#ff1a1a"/>
<path d="M244 682 c-13 -9 -34 -46 -34 -62 0 -6 11 -22 25 -35 l24 -25 434 0 c400 0 436 1 455 18 30 25 33 70 6 96 -14 14 -69 16 -457 16 -243 0 -447 -4 -453 -8z" fill="#ff1a1a"/>
</g>
</svg>