<svg xmlns="http://www.w3.org/2000/svg" version="1.0" width="512.000000pt" height="428.000000pt" viewBox="0 0 512.000000 428.000000" preserveAspectRatio="xMidYMid meet">
<metadata fill="#ff4d4d">
Created by potrace 1.16, written by Peter Selinger 2001-2019
</metadata>
<g transform="translate(0.000000,428.000000) scale(0.100000,-0.100000)" fill="#ff4d4d" stroke="none">
<path d="M678 4084 c-34 -18 -37 -32 -41 -169 l-2 -110 -150 -5 c-171 -6 -212 -18 -278 -86 -76 -78 -87 -125 -87 -381 0 -210 5 -246 34 -265 6 -4 46 -8 89 -8 l77 0 0 -1232 c0 -1300 -1 -1274 45 -1325 50 -55 -18 -53 1585 -53 812 0 1479 3 1482 6 4 3 -4 29 -17 57 -75 164 -85 388 -24 564 52 151 148 287 265 374 150 111 318 164 506 161 l78 -2 2 723 3 722 76 5 c43 3 83 11 93 19 14 12 16 42 16 238 0 258 -8 304 -70 381 -61 78 -113 96 -292 100 l-148 4 0 129 c0 182 23 169 -293 169 -318 0 -297 12 -297 -173 l0 -126 -1047 2 -1048 2 -5 123 c-5 120 -6 124 -33 148 -28 24 -29 24 -260 24 -186 -1 -237 -4 -259 -16z m3563 -417 c79 -53 92 -109 87 -352 l-3 -140 -2047 -3 -2048 -2 0 198 c0 238 7 260 95 306 27 14 229 16 1956 16 l1926 0 34 -23z m-1931 -1162 c10 -12 11 -37 2 -118 -22 -196 -34 -358 -28 -373 5 -12 29 -14 153 -12 163 3 213 -7 213 -45 0 -20 -49 -117 -280 -552 -166 -314 -161 -305 -196 -305 -48 0 -48 6 -14 388 6 63 8 118 5 123 -4 5 -78 9 -166 9 -91 0 -169 4 -180 10 -37 21 -28 48 106 295 18 33 58 110 90 170 120 229 205 390 222 418 8 13 60 7 73 -8z" fill="#ff4d4d"/>
<path d="M3790 815 l0 -85 345 0 345 0 0 85 0 85 -345 0 -345 0 0 -85z" fill="#ff4d4d"/>
</g>
</svg>