<svg xmlns="http://www.w3.org/2000/svg" version="1.0" width="431.000000pt" height="515.000000pt" viewBox="0 0 431.000000 515.000000" preserveAspectRatio="xMidYMid meet">
<metadata fill="#f1b474">
Created by potrace 1.16, written by Peter Selinger 2001-2019
</metadata>
<g transform="translate(0.000000,515.000000) scale(0.100000,-0.100000)" fill="#f1b474" stroke="none">
<path d="M1845 4984 c-146 -21 -220 -41 -355 -93 -281 -109 -510 -318 -661 -601 -63 -118 -109 -257 -138 -416 -15 -85 -14 -333 3 -445 8 -52 21 -139 30 -194 8 -55 22 -154 31 -220 9 -66 20 -151 26 -190 24 -172 30 -219 48 -360 11 -82 27 -206 36 -275 9 -69 21 -149 26 -178 11 -52 82 -235 132 -340 l25 -52 -41 -10 c-79 -20 -159 -52 -221 -88 -60 -35 -206 -171 -241 -224 -9 -16 -21 -28 -26 -28 -5 0 -9 34 -9 75 0 81 -16 127 -49 145 -33 17 -78 11 -108 -14 l-28 -24 -3 -211 c-3 -178 -1 -216 13 -245 26 -54 48 -58 280 -54 l207 3 30 34 c33 37 34 71 1 116 -22 29 -41 35 -115 35 -34 0 -58 4 -58 11 0 34 113 159 185 204 81 50 130 69 219 85 102 17 120 14 157 -28 57 -62 177 -163 312 -261 71 -51 135 -95 142 -98 8 -2 17 -13 20 -24 4 -10 18 -33 32 -49 24 -29 29 -30 97 -29 39 1 84 -4 100 -10 44 -18 240 -15 316 5 103 26 193 74 284 151 22 18 43 33 48 33 4 0 8 -28 9 -62 2 -158 64 -357 137 -436 6 -7 12 -16 12 -20 0 -15 109 -123 173 -171 97 -73 193 -113 333 -141 95 -19 306 -2 382 30 12 6 34 15 50 21 58 24 109 54 162 94 59 45 180 169 180 184 0 5 6 16 13 23 23 25 77 145 95 213 45 168 44 237 -5 444 -9 36 -70 159 -106 210 -83 122 -211 225 -347 278 -14 6 -36 15 -50 21 -67 28 -132 37 -260 36 -89 0 -143 -5 -158 -13 -13 -7 -26 -10 -30 -7 -3 4 6 46 21 94 14 48 31 123 37 167 6 44 15 107 20 140 5 33 21 146 35 250 14 105 30 217 35 250 5 33 14 98 20 145 6 47 15 110 20 140 44 262 43 589 -2 810 -23 112 -61 252 -88 320 -135 343 -345 583 -635 725 -157 77 -252 106 -396 125 -111 13 -292 11 -404 -6z m1700 -3285 c116 -32 248 -110 316 -186 65 -73 139 -205 139 -248 0 -25 -1 -26 -47 -20 -27 3 -68 10 -93 15 -25 5 -72 14 -105 20 -33 6 -100 24 -150 41 -159 53 -205 63 -240 50 -17 -6 -37 -11 -43 -11 -7 0 -45 -15 -85 -34 -113 -52 -126 -56 -277 -75 -182 -24 -200 -25 -200 -8 0 20 30 110 39 117 3 3 15 22 26 44 45 87 227 244 305 263 14 3 30 9 35 13 13 9 90 29 135 34 53 6 199 -3 245 -15z m-67 -425 c51 -25 102 -104 102 -159 0 -41 -37 -111 -75 -142 -61 -51 -161 -52 -224 -2 -38 30 -71 98 -71 144 0 60 46 130 105 163 30 17 127 14 163 -4z m-322 -309 c46 -24 94 -78 94 -108 0 -7 5 -18 11 -24 26 -26 21 -247 -8 -363 -9 -33 -11 -35 -47 -32 -73 6 -228 98 -302 179 -46 51 -111 159 -135 222 l-23 63 24 18 c12 9 41 22 64 28 23 6 64 17 91 25 82 25 172 21 231 -8z m730 0 c49 -14 99 -31 112 -37 23 -12 30 -42 12 -53 -5 -3 -10 -14 -10 -24 0 -41 -72 -161 -144 -240 -71 -76 -241 -176 -290 -169 -28 4 -38 59 -38 233 -1 190 25 265 107 301 49 21 153 17 251 -11z" fill="#f1b474"/>
<path d="M3330 1242 c-75 -41 -102 -131 -60 -200 90 -148 311 -48 261 119 -23 78 -129 121 -201 81z" fill="#f1b474"/>
<path d="M466 784 c-35 -36 -34 -84 4 -183 127 -329 459 -522 811 -472 174 24 291 83 414 207 50 49 98 102 108 117 10 15 22 25 28 22 5 -4 9 -46 9 -94 0 -78 2 -90 23 -108 31 -29 64 -37 97 -23 57 24 60 38 60 278 0 214 0 219 -22 240 -40 36 -74 42 -253 42 -99 0 -186 -5 -202 -11 -46 -17 -73 -49 -73 -86 0 -68 47 -103 140 -103 26 0 49 -3 53 -6 7 -8 -39 -77 -80 -119 -111 -116 -248 -175 -404 -175 -147 0 -280 48 -378 136 -68 61 -146 180 -167 254 -29 103 -108 143 -168 84z" fill="#f1b474"/>
</g>
</svg>