<svg xmlns="http://www.w3.org/2000/svg" version="1.0" width="422.000000pt" height="335.000000pt" viewBox="0 0 422.000000 335.000000" preserveAspectRatio="xMidYMid meet">
<metadata fill="#514dff">
Created by potrace 1.16, written by Peter Selinger 2001-2019
</metadata>
<g transform="translate(0.000000,335.000000) scale(0.100000,-0.100000)" fill="#514dff" stroke="none">
<path d="M1280 3029 c-199 -41 -292 -113 -418 -324 -123 -207 -225 -371 -232 -373 -5 -2 -20 4 -32 12 -32 23 -375 23 -417 1 -38 -19 -41 -30 -41 -136 0 -82 2 -92 25 -114 23 -24 29 -25 159 -25 74 0 137 -4 140 -8 2 -4 -9 -30 -26 -57 -40 -64 -110 -213 -136 -290 -55 -161 -55 -165 -59 -830 -2 -341 -1 -630 2 -643 3 -12 20 -31 38 -42 29 -18 51 -20 260 -20 240 0 273 5 293 47 5 10 11 77 14 148 l5 130 1253 3 1252 2 0 -115 c0 -126 12 -171 51 -199 20 -14 57 -16 252 -16 241 0 273 5 297 49 14 28 14 1215 -1 1295 -28 153 -106 354 -187 486 -37 59 -36 60 109 60 74 0 139 5 151 11 62 33 65 223 3 263 -37 25 -380 23 -424 -1 -16 -10 -32 -15 -34 -13 -6 7 -167 272 -236 390 -72 123 -167 220 -254 260 -120 57 -176 60 -1011 59 -413 -1 -771 -5 -796 -10z m1725 -163 c57 -27 85 -52 136 -116 41 -51 129 -178 129 -185 0 -2 34 -56 75 -120 41 -63 75 -117 75 -120 0 -2 20 -35 44 -72 89 -139 105 -178 82 -209 -14 -19 -48 -19 -1438 -19 -1320 0 -1426 1 -1441 17 -30 30 -23 48 93 232 30 48 87 138 125 199 39 62 86 138 105 171 71 120 164 202 270 239 8 3 393 6 855 6 l840 1 50 -24z m-2385 -1275 c25 -5 65 -15 90 -21 25 -6 77 -17 115 -25 79 -16 153 -33 205 -46 19 -4 49 -11 65 -14 17 -3 46 -10 65 -15 19 -5 56 -14 82 -20 66 -17 73 -52 19 -95 -14 -11 -43 -36 -65 -55 -23 -20 -61 -47 -86 -60 -44 -24 -50 -25 -260 -25 -204 0 -218 1 -275 24 -73 30 -141 74 -156 103 -22 41 2 211 35 246 18 20 28 23 71 19 27 -3 70 -10 95 -16z m3132 2 c31 -36 41 -69 46 -155 l5 -88 -35 -33 c-33 -31 -86 -61 -158 -88 -26 -11 -88 -13 -253 -11 -199 2 -221 4 -255 23 -93 53 -197 147 -189 172 5 16 52 38 102 49 99 22 123 28 255 58 19 5 71 16 115 25 44 9 98 21 120 27 22 5 59 13 83 17 23 4 45 11 49 14 14 15 100 7 115 -10z" fill="#514dff"/>
</g>
</svg>