<svg xmlns="http://www.w3.org/2000/svg" version="1.0" width="352.000000pt" height="493.000000pt" viewBox="0 0 352.000000 493.000000" preserveAspectRatio="xMidYMid meet">
<metadata fill="#0400b3">
Created by potrace 1.16, written by Peter Selinger 2001-2019
</metadata>
<g transform="translate(0.000000,493.000000) scale(0.100000,-0.100000)" fill="#0400b3" stroke="none">
<path d="M1704 4755 c-92 -22 -165 -65 -239 -140 -83 -83 -120 -152 -143 -270 -14 -76 -14 -90 0 -163 40 -200 167 -344 357 -402 212 -66 467 46 572 251 40 79 52 133 53 229 0 118 -22 195 -84 285 -118 171 -327 257 -516 210z" fill="#0400b3"/>
<path d="M1385 3617 c-61 -24 -104 -59 -134 -108 -17 -27 -31 -51 -31 -53 0 -3 -19 -45 -161 -345 -27 -57 -49 -105 -49 -106 0 -3 -64 -138 -165 -350 -24 -49 -78 -162 -120 -250 -100 -209 -120 -268 -111 -320 13 -68 105 -135 208 -150 60 -9 110 8 144 47 14 18 86 152 159 299 74 147 138 270 143 273 5 3 12 -89 15 -207 8 -270 -6 -378 -72 -567 -16 -47 -39 -116 -51 -155 -25 -83 -148 -467 -195 -610 -18 -55 -52 -161 -75 -235 -23 -74 -58 -182 -76 -239 -56 -173 -45 -259 43 -342 49 -47 122 -74 198 -73 124 0 215 72 258 204 26 78 155 482 177 555 12 39 30 95 40 125 17 50 114 354 192 600 44 138 48 139 92 28 21 -51 44 -106 51 -123 93 -204 138 -366 164 -600 7 -55 16 -134 21 -175 5 -41 14 -127 21 -190 38 -386 50 -423 154 -489 55 -35 101 -39 176 -17 174 53 244 165 219 356 -6 47 -19 157 -30 245 -26 204 -48 373 -60 452 -6 35 -15 93 -20 130 -34 218 -67 339 -131 481 -16 34 -29 64 -29 66 0 2 -20 46 -44 97 -24 52 -49 112 -55 134 -11 41 -16 237 -5 247 3 3 51 -42 107 -100 184 -192 203 -209 241 -215 49 -8 100 8 142 45 42 37 94 123 94 156 0 29 -34 100 -62 132 -13 14 -84 93 -158 175 -74 83 -158 175 -186 205 -173 186 -165 164 -176 490 -12 353 -15 383 -42 422 -41 62 -45 63 -436 65 -255 1 -364 -2 -385 -10z" fill="#0400b3"/>
</g>
</svg>