<svg xmlns="http://www.w3.org/2000/svg" version="1.0" width="497.000000pt" height="527.000000pt" viewBox="0 0 497.000000 527.000000" preserveAspectRatio="xMidYMid meet">
<metadata fill="#e50000">
Created by potrace 1.16, written by Peter Selinger 2001-2019
</metadata>
<g transform="translate(0.000000,527.000000) scale(0.100000,-0.100000)" fill="#e50000" stroke="none">
<path d="M270 5035 c-49 -14 -93 -62 -107 -118 -10 -34 -13 -169 -13 -497 0 -442 0 -450 21 -471 18 -18 23 -19 42 -6 22 14 22 15 27 488 3 261 9 481 13 490 18 37 46 39 572 39 507 0 515 0 536 21 26 26 13 45 -45 60 -52 14 -995 9 -1046 -6z" fill="#e50000"/>
<path d="M3635 5028 l-28 -22 27 -23 27 -23 514 0 c337 0 522 -4 537 -10 47 -22 48 -35 48 -526 l0 -463 22 -15 c19 -13 25 -14 43 -2 20 13 20 23 23 467 3 491 1 511 -50 573 -53 65 -67 66 -631 66 -503 0 -504 0 -532 -22z" fill="#e50000"/>
<path d="M2275 5004 c-382 -52 -639 -168 -860 -389 -195 -195 -318 -433 -372 -715 -24 -129 -22 -381 6 -545 39 -234 37 -225 97 -675 8 -63 19 -144 24 -180 5 -36 14 -103 20 -150 6 -47 15 -114 20 -150 5 -36 14 -105 21 -155 13 -93 47 -191 133 -380 41 -91 55 -111 163 -224 136 -143 233 -226 423 -363 227 -162 306 -193 500 -193 229 0 315 41 598 282 180 153 245 216 326 313 73 86 94 125 165 307 50 127 66 196 90 373 22 162 32 235 41 295 5 33 17 114 25 180 9 66 20 147 25 180 5 33 13 94 19 135 6 41 16 111 23 155 20 123 17 525 -5 646 -100 555 -337 915 -739 1122 -81 41 -210 87 -333 117 -49 12 -351 22 -410 14z m252 -1120 c56 -27 110 -85 134 -144 17 -42 17 -149 1 -242 -7 -38 -16 -97 -22 -133 -5 -36 -14 -94 -20 -130 -5 -36 -14 -93 -20 -127 -5 -35 -16 -110 -25 -168 -9 -58 -21 -136 -26 -175 -19 -126 -48 -178 -110 -196 -30 -9 -48 -9 -78 0 -48 14 -74 48 -89 116 -11 48 -50 295 -92 575 -6 38 -15 98 -20 132 -46 305 -41 358 46 442 91 88 205 106 321 50z m-50 -1549 c50 -21 72 -42 94 -90 48 -104 1 -215 -110 -261 -47 -19 -84 -18 -136 7 -94 44 -138 150 -101 241 41 98 154 144 253 103z" fill="#e50000"/>
<path d="M166 1928 c-14 -20 -16 -82 -16 -484 0 -317 4 -472 11 -495 17 -49 64 -95 112 -108 30 -9 192 -11 554 -9 l512 3 22 22 22 22 -24 20 c-23 20 -37 20 -547 21 l-523 0 -24 25 -25 24 0 474 c0 446 -1 475 -18 490 -25 23 -38 21 -56 -5z" fill="#e50000"/>
<path d="M4782 1927 c-22 -23 -22 -25 -22 -480 0 -461 -3 -498 -37 -511 -16 -7 -16 -7 -38 103 -22 107 -47 167 -110 266 -94 147 -268 279 -425 324 -25 7 -59 17 -76 22 -47 14 -266 11 -326 -5 -201 -53 -343 -145 -452 -291 -122 -163 -176 -344 -162 -535 7 -84 25 -173 39 -186 4 -4 7 -13 7 -21 0 -7 10 -35 22 -61 92 -198 274 -360 471 -420 20 -7 54 -17 74 -23 53 -17 298 -16 348 1 129 42 233 88 255 110 3 3 31 25 63 49 54 41 75 63 144 152 25 32 80 135 103 194 15 37 40 154 40 185 0 27 6 33 43 49 52 23 80 54 95 107 8 29 12 179 12 496 l0 455 -23 21 -23 22 -22 -23z m-695 -414 c70 -17 185 -77 250 -131 96 -80 211 -257 201 -308 -5 -24 -26 -22 -228 16 -101 19 -222 56 -273 82 -10 5 -53 10 -96 10 -70 0 -87 -5 -172 -43 -123 -56 -196 -72 -386 -85 -82 -6 -93 -5 -93 10 0 9 4 24 9 34 5 9 19 40 32 67 60 128 167 234 303 300 51 25 101 45 111 45 11 0 27 5 35 10 18 13 248 7 307 -7z m-71 -428 c56 -33 84 -73 91 -133 7 -65 -9 -110 -55 -153 -52 -50 -109 -66 -164 -49 -62 20 -86 38 -113 85 -43 72 -31 169 27 222 65 59 144 69 214 28z m349 -290 c70 -15 102 -25 163 -52 25 -11 32 -19 27 -31 -4 -9 -10 -28 -15 -42 -23 -79 -114 -221 -173 -272 -78 -67 -223 -147 -267 -148 -23 0 -40 107 -40 247 0 185 34 266 127 299 49 17 92 17 178 -1z m-684 -9 c63 -26 101 -82 124 -181 19 -83 19 -112 -1 -227 -23 -137 -19 -131 -68 -126 -84 10 -178 67 -284 170 -56 56 -82 92 -118 164 -60 121 -58 141 16 167 139 49 263 61 331 33z" fill="#e50000"/>
<path d="M3853 1050 c-46 -28 -67 -65 -67 -119 1 -61 26 -106 74 -131 87 -45 176 -6 211 92 11 33 11 43 -7 85 -36 86 -134 121 -211 73z" fill="#e50000"/>
</g>
</svg>