<svg xmlns="http://www.w3.org/2000/svg" version="1.0" width="413.000000pt" height="336.000000pt" viewBox="0 0 413.000000 336.000000" preserveAspectRatio="xMidYMid meet">
<metadata fill="#ba6913">
Created by potrace 1.16, written by Peter Selinger 2001-2019
</metadata>
<g transform="translate(0.000000,336.000000) scale(0.100000,-0.100000)" fill="#ba6913" stroke="none">
<path d="M2110 2975 c-121 -21 -218 -93 -272 -203 -30 -61 -33 -75 -33 -157 1 -77 5 -98 28 -147 44 -92 135 -171 232 -200 16 -5 76 -13 131 -17 109 -9 143 -23 162 -67 23 -48 15 -93 -22 -130 l-34 -34 -153 0 c-285 0 -372 -20 -469 -107 -221 -198 -117 -552 182 -622 29 -7 180 -11 406 -11 335 0 360 -1 375 -18 10 -10 17 -26 17 -34 0 -25 27 -82 47 -100 46 -42 84 -48 302 -48 198 0 211 -1 221 -19 14 -27 13 -134 -2 -149 -9 -9 -339 -12 -1423 -12 -1355 0 -1413 -1 -1428 -18 -15 -16 -17 -49 -17 -255 0 -224 1 -238 20 -257 20 -20 33 -20 1620 -20 l1600 0 21 21 c20 20 20 27 17 507 -3 480 -3 488 -25 535 -34 72 -122 159 -196 193 l-62 29 -315 5 c-308 5 -316 5 -347 28 -53 38 -54 112 -2 161 20 18 35 21 116 21 52 0 115 5 141 12 95 23 163 92 177 178 18 111 36 124 186 134 357 22 526 416 291 678 -56 61 -159 112 -259 127 -97 15 -560 14 -602 0 -55 -19 -62 -82 -11 -109 11 -6 130 -10 307 -10 228 0 298 -3 338 -15 166 -51 250 -224 182 -377 -26 -59 -87 -119 -144 -144 -21 -8 -85 -20 -142 -26 -176 -16 -241 -68 -270 -213 -19 -92 -39 -105 -177 -105 -146 0 -221 -33 -272 -119 -23 -39 -27 -57 -26 -116 0 -58 5 -77 27 -112 28 -44 76 -85 117 -99 14 -4 162 -11 330 -14 190 -4 318 -11 341 -18 48 -16 115 -75 142 -126 21 -39 22 -53 22 -251 l0 -210 -65 0 -65 0 -6 93 c-5 83 -9 96 -36 130 -49 61 -94 71 -324 72 -216 0 -208 -2 -229 65 -21 67 -54 103 -112 120 -42 12 -118 15 -419 15 -406 0 -406 0 -478 65 -55 50 -85 124 -78 193 10 97 83 183 178 211 21 6 119 11 227 11 168 0 198 2 246 20 200 75 210 339 16 440 -14 8 -77 19 -141 25 -123 13 -169 29 -218 76 -49 46 -65 86 -65 164 -1 59 3 77 27 118 37 62 94 103 165 117 100 20 122 39 108 95 -9 34 -49 44 -126 30z m-920 -2345 l0 -150 -350 0 -350 0 0 143 c0 79 3 147 7 150 3 4 161 7 350 7 l343 0 0 -150z m2140 140 c0 -5 -11 -25 -24 -44 -29 -43 -39 -106 -30 -186 l7 -60 -982 0 -981 0 0 150 0 150 1005 0 c632 0 1005 -4 1005 -10z m178 -174 l3 -117 -38 3 c-68 6 -105 97 -68 169 16 31 72 72 90 66 6 -2 11 -54 13 -121z" fill="#ba6913"/>
</g>
</svg>