<svg xmlns="http://www.w3.org/2000/svg" version="1.0" width="463.000000pt" height="276.000000pt" viewBox="0 0 463.000000 276.000000" preserveAspectRatio="xMidYMid meet">
<metadata fill="#f16232">
Created by potrace 1.16, written by Peter Selinger 2001-2019
</metadata>
<g transform="translate(0.000000,276.000000) scale(0.100000,-0.100000)" fill="#f16232" stroke="none">
<path d="M3692 2218 c-17 -17 -17 -249 0 -266 7 -7 21 -12 33 -12 39 0 45 18 45 145 0 127 -6 145 -45 145 -12 0 -26 -5 -33 -12z" fill="#f16232"/>
<path d="M359 2141 c-73 -28 -107 -60 -142 -130 l-32 -66 -3 -379 c-2 -332 -1 -385 14 -430 27 -82 64 -127 139 -169 40 -22 43 -22 620 -27 l580 -5 5 -255 5 -255 277 -3 278 -2 2 257 3 258 530 5 530 5 51 27 c56 29 93 68 113 117 17 40 33 39 54 -1 9 -18 27 -51 40 -73 116 -203 153 -247 246 -293 53 -26 65 -27 221 -30 219 -4 275 11 371 105 54 52 85 110 99 183 12 65 13 420 1 452 -23 59 -99 99 -150 80 -20 -7 -32 -4 -60 15 -31 21 -43 24 -86 18 -63 -8 -88 -8 -150 2 l-50 8 -5 95 c-3 52 -11 105 -18 117 -20 37 -67 63 -112 63 -56 0 -96 -23 -120 -70 -18 -36 -20 -59 -20 -246 l0 -208 -27 26 c-46 43 -90 60 -146 57 l-52 -3 -3 132 c-3 147 -8 138 77 144 21 2 39 11 47 24 23 33 -3 57 -67 64 l-54 5 -7 100 c-9 123 -10 129 -47 187 -33 51 -83 87 -147 106 -31 9 -375 12 -1400 12 -1280 -1 -1362 -2 -1405 -19z m3399 -413 c9 -9 12 -77 12 -245 l0 -233 26 -12 c23 -11 29 -10 45 11 15 18 19 40 19 105 0 44 4 87 9 94 5 8 21 12 37 10 l29 -3 5 -97 c6 -113 20 -140 65 -120 24 11 25 15 25 105 0 98 7 117 45 117 38 0 45 -19 45 -117 0 -90 1 -94 25 -105 42 -19 59 8 63 97 4 77 16 100 46 89 26 -10 29 -42 24 -252 -4 -185 -6 -200 -29 -241 -32 -60 -76 -103 -132 -129 -42 -20 -63 -22 -207 -22 -142 0 -165 2 -201 20 -70 36 -101 72 -176 203 -20 34 -43 76 -53 92 -109 187 -114 205 -58 205 41 0 84 -33 113 -88 54 -102 72 -127 94 -130 50 -8 51 -2 51 327 0 323 1 331 45 331 12 0 26 -5 33 -12z m-931 -34 c58 -28 86 -75 86 -144 0 -49 -4 -65 -27 -94 -36 -47 -74 -66 -133 -65 -78 1 -136 47 -153 122 -30 133 103 239 227 181z m-2023 -17 c97 -55 104 -204 12 -270 -43 -31 -142 -31 -183 -1 -100 74 -98 201 6 271 45 30 112 30 165 0z m1051 -2 c97 -56 103 -202 11 -268 -43 -31 -142 -31 -183 -1 -100 74 -98 201 6 271 46 31 111 31 166 -2z" fill="#f16232"/>
<path d="M3420 1991 c-14 -28 -15 -27 42 -87 64 -68 81 -78 108 -64 37 20 25 60 -33 118 -57 57 -98 68 -117 33z" fill="#f16232"/>
<path d="M3911 1956 c-28 -30 -51 -63 -51 -74 0 -20 29 -52 47 -52 11 0 133 124 133 135 0 23 -24 45 -49 45 -21 0 -41 -14 -80 -54z" fill="#f16232"/>
<path d="M3976 1734 c-19 -18 -21 -45 -4 -62 13 -13 232 -18 262 -6 23 9 21 61 -3 74 -11 5 -69 10 -130 10 -86 0 -113 -3 -125 -16z" fill="#f16232"/>
</g>
</svg>