<svg xmlns="http://www.w3.org/2000/svg" version="1.0" width="458.000000pt" height="342.000000pt" viewBox="0 0 458.000000 342.000000" preserveAspectRatio="xMidYMid meet">
<metadata fill="#b60098">
Created by potrace 1.16, written by Peter Selinger 2001-2019
</metadata>
<g transform="translate(0.000000,342.000000) scale(0.100000,-0.100000)" fill="#b60098" stroke="none">
<path d="M2205 3175 c-141 -22 -224 -65 -325 -165 -87 -87 -131 -164 -160 -277 -31 -124 -22 -234 29 -362 63 -157 223 -298 386 -340 117 -30 261 -22 366 21 337 137 471 523 293 843 -81 143 -258 262 -419 280 -33 4 -67 8 -75 10 -8 1 -51 -3 -95 -10z m483 -308 c22 -18 31 -53 25 -94 -5 -33 -33 -66 -225 -259 -249 -251 -263 -260 -331 -221 -23 14 -91 75 -150 136 -103 107 -107 113 -107 155 0 83 69 127 144 91 20 -10 64 -47 96 -84 l60 -66 138 137 c181 180 217 211 255 224 33 11 67 5 95 -19z" fill="#b60098"/>
<path d="M598 1899 c-119 -17 -194 -73 -250 -186 l-33 -68 -3 -484 c-3 -535 -3 -537 61 -631 38 -55 70 -84 122 -108 45 -22 149 -42 213 -42 l42 0 0 -76 c0 -41 5 -85 12 -97 27 -52 71 -60 115 -23 26 23 28 31 32 110 l3 86 1379 0 1379 0 0 -76 c0 -41 5 -85 12 -97 28 -54 76 -61 119 -18 27 28 29 34 29 110 l0 81 53 0 c28 1 79 7 112 14 142 31 227 114 261 256 19 79 19 911 0 991 -36 150 -120 230 -271 258 -71 13 -3298 13 -3387 0z m3126 -449 c143 -54 239 -222 205 -363 -31 -133 -106 -214 -238 -256 -133 -43 -303 34 -369 166 -37 73 -47 137 -33 205 15 75 31 107 78 158 92 102 230 137 357 90z m-1254 -52 c18 -30 20 -51 20 -251 0 -221 -4 -247 -39 -274 -12 -10 -209 -12 -847 -13 l-831 0 -24 26 c-23 25 -24 31 -28 210 -4 216 3 288 30 315 18 18 44 19 859 19 l840 0 20 -32z m500 -181 c34 -17 55 -57 46 -90 -11 -45 -45 -59 -141 -59 -95 0 -130 14 -141 57 -8 33 12 80 39 93 31 15 167 14 197 -1z" fill="#b60098"/>
</g>
</svg>