<svg xmlns="http://www.w3.org/2000/svg" version="1.0" width="522.000000pt" height="502.000000pt" viewBox="0 0 522.000000 502.000000" preserveAspectRatio="xMidYMid meet">
<metadata fill="#f6997a">
Created by potrace 1.16, written by Peter Selinger 2001-2019
</metadata>
<g transform="translate(0.000000,502.000000) scale(0.100000,-0.100000)" fill="#f6997a" stroke="none">
<path d="M429 4681 c-109 -22 -218 -113 -262 -221 l-22 -55 0 -1940 c0 -1852 1 -1942 18 -1990 38 -104 108 -178 206 -217 l56 -23 832 -3 833 -3 0 741 0 740 -27 0 c-47 0 -152 29 -211 58 -73 35 -178 139 -218 217 -37 69 -67 155 -86 240 -17 80 -17 449 1 525 55 236 200 384 426 436 39 9 80 20 93 25 l22 9 -2 732 -3 733 -810 1 c-445 1 -826 -1 -846 -5z" fill="#f6997a"/>
<path d="M3040 3088 c-41 -39 -165 -157 -275 -262 -341 -325 -375 -359 -375 -377 0 -9 19 -34 43 -55 46 -41 330 -310 492 -465 147 -142 196 -184 214 -184 13 0 18 23 28 140 6 77 12 174 12 215 1 41 4 86 8 99 l6 24 366 -7 c201 -3 444 -9 539 -12 106 -4 228 -2 315 5 329 28 420 81 421 242 0 76 -30 138 -86 181 -71 53 -47 51 -825 52 -632 1 -725 3 -733 16 -5 8 -10 47 -11 85 0 39 -6 138 -12 220 -15 186 -18 188 -127 83z" fill="#f6997a"/>
</g>
</svg>