<svg xmlns="http://www.w3.org/2000/svg" version="1.0" width="532.000000pt" height="280.000000pt" viewBox="0 0 532.000000 280.000000" preserveAspectRatio="xMidYMid meet">
<metadata fill="#00ba16">
Created by potrace 1.16, written by Peter Selinger 2001-2019
</metadata>
<g transform="translate(0.000000,280.000000) scale(0.100000,-0.100000)" fill="#00ba16" stroke="none">
<path d="M3165 2399 c-390 -31 -749 -180 -1040 -430 -96 -82 -95 -81 -196 -204 -133 -161 -258 -388 -322 -585 -31 -96 -40 -129 -68 -270 -15 -76 -30 -360 -23 -432 l7 -68 364 0 364 0 -3 73 -3 72 -288 3 c-253 2 -288 4 -294 18 -7 18 13 250 29 334 5 30 19 91 30 135 18 71 29 106 58 180 47 125 220 415 246 415 6 0 71 -63 145 -140 74 -77 140 -140 147 -140 19 0 92 71 92 89 0 9 -66 81 -146 162 l-145 146 75 70 c246 230 610 392 940 419 l86 7 0 -182 0 -182 73 3 72 3 5 180 c3 99 7 180 10 179 3 -1 37 -4 75 -8 356 -35 707 -198 969 -451 l38 -37 -146 -147 c-80 -80 -146 -153 -146 -160 0 -8 8 -23 17 -33 15 -17 15 -20 3 -28 -8 -6 -23 -10 -32 -10 -20 0 -64 -19 -243 -105 -77 -37 -185 -89 -240 -115 -112 -53 -497 -240 -562 -272 -77 -38 -150 -113 -187 -191 -108 -225 -25 -471 194 -576 71 -34 80 -36 180 -36 149 0 234 31 321 119 50 50 107 157 282 526 25 52 83 174 129 270 46 96 106 221 133 278 48 100 57 112 70 92 15 -25 49 -1 175 125 74 74 142 135 150 135 32 -1 193 -273 247 -418 72 -195 105 -369 101 -537 l-3 -120 -287 -3 -288 -2 0 -70 0 -70 364 0 c323 0 365 2 370 16 3 9 6 74 6 145 0 308 -75 626 -208 878 -148 282 -408 557 -672 711 -176 103 -395 184 -590 219 -67 12 -280 32 -315 30 -11 -1 -65 -5 -120 -10z m885 -1167 c0 -4 -23 -55 -51 -112 -28 -58 -73 -150 -99 -205 -311 -653 -317 -663 -409 -710 -233 -118 -509 19 -529 261 -8 110 25 202 101 282 42 44 127 89 612 321 72 34 180 86 240 116 109 53 135 62 135 47z" fill="#00ba16"/>
<path d="M223 1664 c-44 -34 -43 -63 3 -103 l35 -32 686 3 685 3 24 28 c37 44 29 88 -23 115 -16 9 -203 12 -700 12 l-678 0 -32 -26z" fill="#00ba16"/>
<path d="M230 1141 c-14 -4 -31 -20 -39 -36 -19 -39 -4 -76 39 -97 32 -16 81 -18 575 -18 494 0 543 2 575 18 64 31 64 115 0 133 -33 9 -1117 9 -1150 0z" fill="#00ba16"/>
<path d="M209 591 c-29 -23 -31 -81 -4 -111 18 -20 27 -20 530 -20 501 0 512 0 533 20 32 30 30 82 -4 109 -26 21 -36 21 -529 21 -476 0 -504 -1 -526 -19z" fill="#00ba16"/>
</g>
</svg>
