<svg xmlns="http://www.w3.org/2000/svg" version="1.0" width="331.000000pt" height="380.000000pt" viewBox="0 0 331.000000 380.000000" preserveAspectRatio="xMidYMid meet">
<metadata fill="#f16232">
Created by potrace 1.16, written by Peter Selinger 2001-2019
</metadata>
<g transform="translate(0.000000,380.000000) scale(0.100000,-0.100000)" fill="#f16232" stroke="none">
<path d="M1475 3581 c-65 -31 -108 -70 -124 -114 -6 -16 -11 -63 -11 -105 0 -141 -35 -201 -129 -221 -68 -14 -106 -1 -187 66 -38 31 -85 63 -104 71 -52 21 -121 18 -177 -9 -60 -28 -186 -156 -233 -234 -62 -105 -44 -181 70 -290 23 -22 48 -52 56 -67 29 -56 11 -150 -38 -194 -37 -35 -63 -44 -121 -44 -144 0 -214 -37 -266 -142 -29 -58 -31 -67 -31 -180 0 -103 3 -126 25 -180 47 -116 85 -139 242 -148 91 -5 118 -10 140 -26 43 -32 61 -73 62 -137 1 -66 -7 -86 -59 -143 -92 -101 -115 -192 -70 -286 50 -106 261 -268 351 -268 54 0 87 19 175 101 75 69 76 69 132 69 60 0 109 -21 145 -63 21 -25 25 -40 30 -143 7 -117 45 -180 140 -233 33 -19 54 -21 181 -21 148 0 176 6 239 48 60 41 77 82 86 205 8 123 16 145 64 180 74 56 150 46 239 -29 160 -136 257 -128 419 36 170 172 182 270 49 405 -78 79 -95 121 -79 188 14 60 69 121 119 130 18 4 62 7 99 7 113 1 178 44 225 153 23 50 26 72 26 164 0 113 -12 162 -56 234 -42 68 -72 81 -205 89 -129 7 -156 18 -189 72 -23 38 -34 97 -25 138 4 17 32 61 62 98 68 82 93 133 93 192 0 61 -29 120 -92 186 -82 87 -236 185 -289 184 -37 -1 -80 -29 -159 -103 -40 -37 -83 -70 -97 -73 -44 -11 -111 2 -148 30 -53 41 -67 68 -77 159 -18 154 -34 181 -143 243 -61 34 -64 34 -181 34 -109 -1 -124 -3 -179 -29z m355 -916 c151 -40 297 -159 362 -295 20 -41 38 -90 42 -108 11 -65 -39 -115 -91 -90 -29 14 -27 12 -77 118 -43 94 -106 159 -193 202 -65 32 -73 33 -183 33 -104 0 -121 -3 -172 -27 -86 -40 -204 -159 -181 -182 4 -3 27 -6 53 -6 56 0 84 -24 82 -71 -2 -59 -15 -64 -197 -67 -164 -3 -165 -3 -190 22 -25 25 -25 27 -25 186 0 158 1 161 25 185 30 31 62 32 92 3 19 -18 23 -32 23 -80 0 -32 3 -58 6 -58 4 0 41 35 83 78 82 83 166 133 262 157 74 18 212 18 279 0z m-557 -617 c9 -11 17 -27 17 -34 0 -23 50 -115 86 -160 44 -55 126 -108 199 -129 84 -25 210 -17 286 18 87 41 205 157 182 181 -4 3 -23 6 -43 6 -76 0 -118 72 -70 120 18 18 33 20 185 20 219 0 205 14 205 -209 l0 -170 -26 -20 c-35 -27 -59 -26 -89 4 -21 20 -25 34 -25 79 0 30 -4 57 -9 60 -4 3 -22 -14 -39 -38 -117 -163 -361 -250 -562 -202 -191 45 -342 181 -405 362 -19 53 -21 72 -13 96 18 51 84 60 121 16z" fill="#f16232"/>
<path d="M553 448 c-18 -13 -33 -29 -33 -35 0 -15 -17 -17 -22 -3 -1 6 -3 -19 -3 -54 0 -35 3 -62 6 -60 4 2 9 -10 13 -26 3 -17 11 -30 17 -30 8 0 8 4 -1 15 -16 19 -6 19 24 0 20 -13 131 -15 882 -13 l859 3 0 110 0 110 -855 3 -855 2 -32 -22z" fill="#f16232"/>
</g>
</svg>