<svg xmlns="http://www.w3.org/2000/svg" version="1.0" width="417.000000pt" height="456.000000pt" viewBox="0 0 417.000000 456.000000" preserveAspectRatio="xMidYMid meet">
<metadata fill="#b20000">
Created by potrace 1.16, written by Peter Selinger 2001-2019
</metadata>
<g transform="translate(0.000000,456.000000) scale(0.100000,-0.100000)" fill="#b20000" stroke="none">
<path d="M1795 4363 c-109 -10 -284 -62 -400 -119 -177 -87 -341 -235 -461 -414 -123 -184 -181 -357 -191 -570 -15 -321 74 -607 327 -1059 160 -285 466 -718 566 -800 180 -149 413 -145 588 11 60 53 208 245 333 433 283 423 462 798 529 1107 28 126 25 384 -5 496 -40 152 -93 271 -178 400 -170 255 -411 418 -728 491 -82 18 -289 32 -380 24z m211 -588 c153 -27 270 -88 359 -187 48 -53 115 -160 115 -182 0 -7 3 -16 7 -20 17 -17 32 -109 33 -200 0 -113 -8 -154 -55 -259 -20 -45 -108 -163 -141 -190 -13 -10 -30 -24 -37 -31 -33 -32 -86 -60 -182 -96 -78 -29 -217 -40 -279 -21 -17 5 -51 15 -76 22 -150 42 -286 156 -357 299 -59 120 -67 153 -67 270 0 101 11 156 45 222 5 10 9 23 9 28 0 19 71 123 114 168 93 98 194 151 336 177 88 17 84 17 176 0z" fill="#b20000"/>
<path d="M3510 1874 l-90 -87 -47 7 c-27 4 -79 9 -116 13 l-69 6 -104 -104 c-81 -81 -106 -101 -116 -91 -7 7 -19 12 -28 12 -21 0 -130 -107 -130 -128 0 -25 480 -502 506 -502 13 0 43 23 78 59 52 56 55 61 44 86 -11 24 -7 30 91 130 l103 105 -6 57 c-4 32 -12 82 -17 111 l-11 54 86 88 c47 48 86 96 86 106 0 21 -138 164 -158 164 -7 0 -53 -39 -102 -86z" fill="#b20000"/>
<path d="M2706 1235 c-36 -36 -69 -65 -73 -65 -5 0 -23 16 -42 35 -18 19 -38 35 -46 35 -7 0 -38 -26 -69 -57 -54 -56 -70 -93 -45 -109 6 -3 -33 -51 -96 -115 l-107 -108 6 -43 c4 -24 12 -73 18 -111 l11 -67 -86 -89 c-48 -49 -87 -97 -87 -107 0 -19 141 -164 159 -164 6 0 53 40 104 88 l93 89 74 -13 c145 -25 140 -27 255 87 91 89 105 100 123 90 12 -6 24 -11 27 -11 15 0 125 115 125 130 0 9 -13 31 -30 48 -29 31 -38 57 -22 64 4 2 33 31 65 65 63 68 71 97 34 131 -38 36 -63 28 -136 -43 -37 -36 -72 -65 -77 -65 -5 0 -40 31 -78 69 l-69 69 67 71 c71 76 83 112 48 144 -38 35 -76 22 -146 -48z" fill="#b20000"/>
</g>
</svg>