<svg xmlns="http://www.w3.org/2000/svg" version="1.0" width="533.000000pt" height="528.000000pt" viewBox="0 0 533.000000 528.000000" preserveAspectRatio="xMidYMid meet">

<g transform="translate(0.000000,528.000000) scale(0.100000,-0.100000)" fill="#0500cc" stroke="none">
<path d="M3972 4928 c-13 -13 -15 -37 -6 -62 6 -14 67 -16 594 -16 l587 0 25 -25 c14 -14 28 -42 32 -63 3 -20 6 -259 6 -530 l0 -493 38 3 37 3 3 510 c2 347 -1 522 -8 548 -6 20 -25 53 -41 72 -57 64 -65 65 -694 65 -423 0 -564 -3 -573 -12z" fill="#0500cc"/>
<path d="M230 4907 c-19 -6 -50 -27 -70 -47 -57 -57 -60 -87 -60 -635 0 -526 -2 -510 57 -503 l28 3 5 527 5 526 24 26 24 26 581 2 581 3 0 40 0 40 -570 2 c-393 1 -581 -2 -605 -10z" fill="#0500cc"/>
<path d="M2415 4875 c-437 -46 -791 -222 -1037 -515 -109 -130 -180 -248 -258 -425 -27 -61 -62 -188 -80 -289 -23 -130 -28 -386 -9 -509 5 -40 21 -139 33 -222 13 -82 29 -190 36 -240 6 -49 15 -117 20 -150 5 -33 14 -96 19 -140 6 -44 18 -132 26 -195 8 -63 20 -151 26 -195 5 -44 14 -109 19 -145 5 -36 14 -103 20 -150 22 -159 39 -255 50 -285 35 -93 147 -346 168 -380 37 -58 282 -306 387 -389 147 -117 366 -271 430 -303 59 -29 120 -51 201 -72 58 -15 248 -13 314 3 113 28 196 64 275 119 27 19 243 194 255 207 5 5 131 116 189 166 19 16 77 79 129 139 102 118 118 147 208 378 60 152 72 205 109 482 14 105 30 219 35 255 5 36 14 101 20 145 6 44 15 107 20 140 5 33 21 148 35 255 14 107 30 222 35 256 16 98 12 486 -5 604 -88 584 -322 992 -715 1242 -203 129 -389 193 -639 218 -123 12 -159 11 -316 -5z m630 -706 c232 -56 407 -184 495 -364 99 -202 118 -457 48 -665 -60 -179 -160 -321 -393 -560 -142 -146 -187 -199 -213 -250 -37 -74 -72 -226 -72 -311 0 -58 0 -58 -32 -64 -18 -3 -105 -5 -193 -3 l-160 3 -3 50 c-8 113 29 296 84 414 47 102 96 162 341 417 244 255 293 347 293 554 0 250 -116 409 -333 456 -80 17 -145 17 -235 0 -167 -32 -282 -124 -338 -271 -4 -11 -10 -45 -13 -75 l-6 -55 -194 -3 -194 -2 7 78 c10 128 50 238 123 342 57 81 72 97 138 149 130 102 318 172 500 185 95 7 270 -6 350 -25z m-195 -2683 c122 -62 148 -256 47 -354 -87 -84 -247 -83 -333 3 -79 79 -82 217 -7 304 46 55 82 69 173 70 59 0 84 -4 120 -23z" fill="#0500cc"/>
<path d="M55 1398 c-3 -8 -4 -251 -3 -539 l3 -525 25 -38 c15 -22 45 -47 75 -61 l51 -25 574 2 575 3 0 35 0 35 -581 5 c-620 5 -598 3 -627 54 -9 15 -13 164 -17 541 l-5 520 -33 3 c-20 2 -34 -2 -37 -10z" fill="#0500cc"/>
<path d="M5085 1398 c-3 -7 -6 -246 -7 -530 l-3 -518 -28 -27 -27 -28 -580 -3 c-565 -3 -579 -3 -585 -22 -4 -11 -3 -29 0 -40 6 -20 11 -21 594 -18 l587 3 42 27 c81 54 77 25 77 628 l0 535 -33 3 c-20 2 -34 -2 -37 -10z" fill="#0500cc"/>
</g>
</svg>
