<svg id="Capa_1" data-name="Capa 1" xmlns="http://www.w3.org/2000/svg"
    xmlns:xlink="http://www.w3.org/1999/xlink" viewBox="0 0 1080 1350">
    <defs>
        <style>
            .cls-1{fill:#1e1e1e;}.cls-14{fill:#c4c2c1;}.cls-2{fill:url(#linear-gradient);}.cls-3{fill:url(#linear-gradient-2);}.cls-4{fill:url(#linear-gradient-3);}.cls-5{fill:url(#linear-gradient-4);}.cls-6{fill:url(#linear-gradient-5);}.cls-7{fill:url(#linear-gradient-6);}.cls-8{fill:url(#linear-gradient-7);}.cls-9{fill:url(#linear-gradient-8);}.cls-10{fill:url(#linear-gradient-9);}.cls-11{fill:url(#linear-gradient-10);}.cls-12{fill:url(#linear-gradient-11);}.cls-13{fill:url(#linear-gradient-12);}.cls-120{fill:url(#linear-gradient-13);}.cls-15{fill:url(#linear-gradient-14);}.cls-16{fill:url(#linear-gradient-15);}.cls-17{fill:url(#linear-gradient-22);}.cls-18{fill:url(#linear-gradient-29);}.cls-19{fill:url(#linear-gradient-30);}.cls-20{fill:url(#linear-gradient-31);}.cls-21{fill:url(#linear-gradient-32);}.cls-22{fill:url(#linear-gradient-33);}.cls-23{fill:url(#linear-gradient-34);}.cls-24{fill:url(#linear-gradient-35);}.cls-25{fill:url(#linear-gradient-36);}.cls-26{fill:url(#linear-gradient-37);}.cls-27{fill:url(#linear-gradient-38);}.cls-28{fill:url(#linear-gradient-39);}.cls-29{fill:url(#linear-gradient-40);}.cls-30{fill:url(#linear-gradient-41);}.cls-31{fill:url(#linear-gradient-42);}.cls-32{fill:url(#linear-gradient-43);}.cls-33{fill:url(#linear-gradient-44);}.cls-34{fill:url(#linear-gradient-45);}.cls-35{fill:url(#linear-gradient-46);}.cls-36{fill:url(#linear-gradient-47);}.cls-37{fill:url(#linear-gradient-48);}.cls-38{fill:url(#linear-gradient-49);}.cls-39{fill:url(#linear-gradient-50);}.cls-40{fill:url(#linear-gradient-51);}.cls-41{fill:url(#linear-gradient-52);}.cls-42{fill:url(#linear-gradient-53);}.cls-43{fill:url(#linear-gradient-54);}.cls-44{fill:url(#linear-gradient-55);}.cls-45{fill:url(#linear-gradient-56);}.cls-46{fill:url(#linear-gradient-57);}.cls-47{fill:url(#linear-gradient-58);}.cls-48{fill:url(#linear-gradient-59);}.cls-49{fill:url(#linear-gradient-60);}.cls-50{fill:url(#linear-gradient-61);}.cls-51{fill:url(#linear-gradient-62);}.cls-52{fill:url(#linear-gradient-63);}.cls-53{fill:url(#linear-gradient-64);}.cls-54{fill:url(#linear-gradient-65);}.cls-55{fill:url(#linear-gradient-66);}.cls-56{fill:url(#linear-gradient-67);}.cls-57{fill:url(#linear-gradient-68);}.cls-58{fill:url(#linear-gradient-69);}.cls-59{fill:#908da0;}.cls-60{fill:#868790;}.cls-61{fill:#bebcde;}.cls-62{fill:#131313;}.cls-63{fill:url(#linear-gradient-70);}.cls-64{fill:url(#linear-gradient-71);}.cls-65{fill:url(#linear-gradient-72);}.cls-66{fill:url(#linear-gradient-73);}.cls-67{fill:url(#linear-gradient-74);}.cls-68{fill:url(#linear-gradient-75);}.cls-69{fill:url(#linear-gradient-76);}.cls-70{fill:url(#linear-gradient-77);}.cls-71{fill:url(#linear-gradient-78);}.cls-72{fill:url(#linear-gradient-79);}.cls-73{fill:url(#linear-gradient-80);}.cls-74{fill:url(#linear-gradient-81);}.cls-75{fill:url(#linear-gradient-82);}.cls-76{fill:url(#linear-gradient-83);}.cls-77{fill:url(#linear-gradient-84);}.cls-78{fill:url(#linear-gradient-91);}.cls-79{fill:url(#linear-gradient-98);}.cls-80{fill:url(#linear-gradient-99);}.cls-81{fill:url(#linear-gradient-100);}.cls-82{fill:url(#linear-gradient-101);}.cls-83{fill:url(#linear-gradient-102);}.cls-84{fill:url(#linear-gradient-103);}.cls-85{fill:url(#linear-gradient-104);}.cls-86{fill:url(#linear-gradient-105);}.cls-87{fill:url(#linear-gradient-106);}.cls-88{fill:url(#linear-gradient-107);}.cls-89{fill:url(#linear-gradient-108);}.cls-90{fill:url(#linear-gradient-109);}.cls-91{fill:url(#linear-gradient-110);}.cls-92{fill:url(#linear-gradient-111);}.cls-93{fill:url(#linear-gradient-112);}.cls-94{fill:url(#linear-gradient-113);}.cls-95{fill:url(#linear-gradient-114);}.cls-96{fill:url(#linear-gradient-115);}.cls-97{fill:url(#linear-gradient-116);}.cls-98{fill:url(#linear-gradient-117);}.cls-99{fill:url(#linear-gradient-118);}.cls-100{fill:url(#linear-gradient-119);}.cls-101{fill:url(#linear-gradient-120);}.cls-102{fill:url(#linear-gradient-121);}.cls-103{fill:url(#linear-gradient-122);}.cls-104{fill:url(#linear-gradient-123);}.cls-105{fill:url(#linear-gradient-124);}.cls-106{fill:url(#linear-gradient-125);}.cls-107{fill:url(#linear-gradient-126);}.cls-108{fill:url(#linear-gradient-127);}.cls-109{fill:url(#linear-gradient-128);}.cls-110{fill:url(#linear-gradient-129);}.cls-111{fill:url(#linear-gradient-130);}.cls-112{fill:url(#linear-gradient-131);}.cls-113{fill:url(#linear-gradient-132);}.cls-114{fill:url(#linear-gradient-133);}.cls-115{fill:url(#linear-gradient-134);}.cls-116{fill:url(#linear-gradient-135);}.cls-117{fill:url(#linear-gradient-136);}.cls-118{fill:url(#linear-gradient-137);}.cls-119{fill:url(#linear-gradient-138);}.cls-121{fill:#1d232a;}.cls-122{fill:#fa8d07;}.cls-123{fill:#fa0302;}.cls-124{fill:#394749;}.cls-125{fill:#b3b3b3;}.cls-126{fill:#353535;opacity:0.29;}</style>
        <linearGradient id="linear-gradient" x1="550.22" y1="747.43" x2="549.9" y2="746.87"
            gradientTransform="translate(140.63 370.33) scale(0.77 0.64)"
            gradientUnits="userSpaceOnUse">
            <stop offset="0" stop-color="#181818" />
            <stop offset="0.27" stop-color="#262626" />
            <stop offset="0.77" stop-color="#2e2e2e" />
        </linearGradient>
        <linearGradient id="linear-gradient-2" x1="551.57" y1="746.8" x2="551.27" y2="746.29"
            xlink:href="#linear-gradient" />
        <linearGradient id="linear-gradient-3" x1="561.93" y1="747.93" x2="559.74" y2="744.13"
            xlink:href="#linear-gradient" />
        <linearGradient id="linear-gradient-4" x1="584.01" y1="770.99" x2="570.56" y2="747.69"
            xlink:href="#linear-gradient" />
        <linearGradient id="linear-gradient-5" x1="612.06" y1="779.95" x2="601.72" y2="762.05"
            xlink:href="#linear-gradient" />
        <linearGradient id="linear-gradient-6" x1="631.87" y1="869.26" x2="589.77" y2="796.34"
            xlink:href="#linear-gradient" />
        <linearGradient id="linear-gradient-7" x1="636.1" y1="807.38" x2="632.55" y2="801.25"
            xlink:href="#linear-gradient" />
        <linearGradient id="linear-gradient-8" x1="640.35" y1="814.59" x2="636.16" y2="807.35"
            xlink:href="#linear-gradient" />
        <linearGradient id="linear-gradient-9" x1="650.98" y1="837.31" x2="646.81" y2="830.08"
            xlink:href="#linear-gradient" />
        <linearGradient id="linear-gradient-10" x1="656.68" y1="852.17" x2="648.82" y2="838.56"
            xlink:href="#linear-gradient" />
        <linearGradient id="linear-gradient-11" x1="657.2" y1="919.3" x2="655.55" y2="916.43"
            xlink:href="#linear-gradient" />
        <linearGradient id="linear-gradient-12" x1="659.31" y1="912.07" x2="657.61" y2="909.12"
            xlink:href="#linear-gradient" />
        <linearGradient id="linear-gradient-13" x1="661.25" y1="906.01" x2="658.15" y2="900.65"
            xlink:href="#linear-gradient" />
        <linearGradient id="linear-gradient-14" x1="663.92" y1="896.77" x2="651.8" y2="875.78"
            xlink:href="#linear-gradient" />
        <linearGradient id="linear-gradient-15" x1="307.06" y1="924.84" x2="193.3" y2="727.81"
            gradientTransform="translate(427.38 370.33) scale(0.77 0.64)"
            xlink:href="#linear-gradient" />
        <linearGradient id="linear-gradient-22" x1="629.5" y1="870.63" x2="587.4" y2="797.71"
            xlink:href="#linear-gradient" />
        <linearGradient id="linear-gradient-29" x1="307.9" y1="923.25" x2="194.98" y2="727.67"
            gradientTransform="translate(427.38 370.33) scale(0.77 0.64)"
            xlink:href="#linear-gradient" />
        <linearGradient id="linear-gradient-30" x1="551.15" y1="747.08" x2="551.73" y2="746.08"
            gradientTransform="translate(140.63 370.33) scale(0.77 0.64)"
            gradientUnits="userSpaceOnUse">
            <stop offset="0" stop-color="#141414" />
            <stop offset="0.44" stop-color="#1e1e1e" />
            <stop offset="0.78" stop-color="#202020" />
            <stop offset="0.98" stop-color="#292929" />
            <stop offset="1" stop-color="#2a2a2a" />
        </linearGradient>
        <linearGradient id="linear-gradient-31" x1="559.9" y1="747.65" x2="561.77" y2="744.4"
            xlink:href="#linear-gradient-30" />
        <linearGradient id="linear-gradient-32" x1="553.04" y1="830.91" x2="562.78" y2="814.04"
            xlink:href="#linear-gradient-30" />
        <linearGradient id="linear-gradient-33" x1="572.36" y1="876.97" x2="582.09" y2="860.12"
            xlink:href="#linear-gradient-30" />
        <linearGradient id="linear-gradient-34" x1="572.4" y1="767.76" x2="581.69" y2="751.66"
            xlink:href="#linear-gradient-30" />
        <linearGradient id="linear-gradient-35" x1="604.73" y1="775.51" x2="608.86" y2="768.35"
            xlink:href="#linear-gradient-30" />
        <linearGradient id="linear-gradient-36" x1="633.57" y1="805.74" x2="635.28" y2="802.77"
            xlink:href="#linear-gradient-30" />
        <linearGradient id="linear-gradient-37" x1="637.16" y1="812.87" x2="639.34" y2="809.08"
            xlink:href="#linear-gradient-30" />
        <linearGradient id="linear-gradient-38" x1="525.5" y1="846.5" x2="528.82" y2="840.76"
            xlink:href="#linear-gradient-30" />
        <linearGradient id="linear-gradient-39" x1="542.02" y1="751.52" x2="544.22" y2="747.71"
            xlink:href="#linear-gradient-30" />
        <linearGradient id="linear-gradient-40" x1="549.58" y1="747.57" x2="550.15" y2="746.6"
            xlink:href="#linear-gradient-30" />
        <linearGradient id="linear-gradient-41" x1="598.61" y1="939.45" x2="598.89" y2="938.96"
            xlink:href="#linear-gradient-30" />
        <linearGradient id="linear-gradient-42" x1="589.15" y1="862.47" x2="619.25" y2="810.35"
            xlink:href="#linear-gradient-30" />
        <linearGradient id="linear-gradient-43" x1="647.56" y1="836.01" x2="650.23" y2="831.38"
            xlink:href="#linear-gradient-30" />
        <linearGradient id="linear-gradient-44" x1="650.2" y1="849.93" x2="655.57" y2="840.64"
            xlink:href="#linear-gradient-30" />
        <linearGradient id="linear-gradient-45" x1="655.13" y1="920.02" x2="657.62" y2="915.71"
            xlink:href="#linear-gradient-30" />
        <linearGradient id="linear-gradient-46" x1="657.32" y1="912.57" x2="659.6" y2="908.62"
            xlink:href="#linear-gradient-30" />
        <linearGradient id="linear-gradient-47" x1="657.9" y1="906.44" x2="661.5" y2="900.21"
            xlink:href="#linear-gradient-30" />
        <linearGradient id="linear-gradient-48" x1="652.09" y1="894.27" x2="661.85" y2="877.36"
            xlink:href="#linear-gradient-30" />
        <linearGradient id="linear-gradient-49" x1="192.34" y1="898.19" x2="265.27" y2="771.87"
            gradientTransform="translate(427.38 370.33) scale(0.77 0.64)"
            xlink:href="#linear-gradient-30" />
        <linearGradient id="linear-gradient-50" x1="551.15" y1="747.08" x2="551.73" y2="746.08"
            gradientTransform="translate(140.63 370.33) scale(0.77 0.64)"
            gradientUnits="userSpaceOnUse">
            <stop offset="0" stop-color="#161616" />
            <stop offset="0.3" stop-color="#1a1a1a" />
            <stop offset="0.79" stop-color="#1e1e1e" />
            <stop offset="0.8" stop-color="#1e1e1e" />
        </linearGradient>
        <linearGradient id="linear-gradient-51" x1="559.9" y1="747.65" x2="561.77" y2="744.4"
            xlink:href="#linear-gradient-50" />
        <linearGradient id="linear-gradient-52" x1="553.04" y1="830.91" x2="562.78" y2="814.04"
            xlink:href="#linear-gradient-50" />
        <linearGradient id="linear-gradient-53" x1="572.36" y1="876.97" x2="582.09" y2="860.12"
            xlink:href="#linear-gradient-50" />
        <linearGradient id="linear-gradient-54" x1="572.4" y1="767.76" x2="581.69" y2="751.66"
            xlink:href="#linear-gradient-50" />
        <linearGradient id="linear-gradient-55" x1="604.73" y1="775.51" x2="608.86" y2="768.35"
            xlink:href="#linear-gradient-50" />
        <linearGradient id="linear-gradient-56" x1="633.57" y1="805.74" x2="635.28" y2="802.77"
            xlink:href="#linear-gradient-50" />
        <linearGradient id="linear-gradient-57" x1="637.16" y1="812.87" x2="639.34" y2="809.08"
            xlink:href="#linear-gradient-50" />
        <linearGradient id="linear-gradient-58" x1="525.5" y1="846.5" x2="528.82" y2="840.76"
            xlink:href="#linear-gradient-50" />
        <linearGradient id="linear-gradient-59" x1="542.02" y1="751.52" x2="544.22" y2="747.71"
            xlink:href="#linear-gradient-50" />
        <linearGradient id="linear-gradient-60" x1="549.58" y1="747.57" x2="550.15" y2="746.6"
            xlink:href="#linear-gradient-50" />
        <linearGradient id="linear-gradient-61" x1="598.61" y1="939.45" x2="598.89" y2="938.96"
            xlink:href="#linear-gradient-50" />
        <linearGradient id="linear-gradient-62" x1="589.15" y1="862.47" x2="619.25" y2="810.35"
            xlink:href="#linear-gradient-50" />
        <linearGradient id="linear-gradient-63" x1="647.56" y1="836.01" x2="650.23" y2="831.38"
            xlink:href="#linear-gradient-50" />
        <linearGradient id="linear-gradient-64" x1="650.2" y1="849.93" x2="655.57" y2="840.64"
            xlink:href="#linear-gradient-50" />
        <linearGradient id="linear-gradient-65" x1="655.13" y1="920.02" x2="657.62" y2="915.71"
            xlink:href="#linear-gradient-50" />
        <linearGradient id="linear-gradient-66" x1="657.32" y1="912.57" x2="659.6" y2="908.62"
            xlink:href="#linear-gradient-50" />
        <linearGradient id="linear-gradient-67" x1="657.9" y1="906.44" x2="661.5" y2="900.21"
            xlink:href="#linear-gradient-50" />
        <linearGradient id="linear-gradient-68" x1="652.09" y1="894.27" x2="661.85" y2="877.36"
            xlink:href="#linear-gradient-50" />
        <linearGradient id="linear-gradient-69" x1="192.34" y1="898.19" x2="265.27" y2="771.87"
            gradientTransform="translate(427.38 370.33) scale(0.77 0.64)"
            xlink:href="#linear-gradient-50" />
        <linearGradient id="linear-gradient-70" x1="-69.66" y1="313.21" x2="-69.98" y2="312.65"
            xlink:href="#linear-gradient" />
        <linearGradient id="linear-gradient-71" x1="-68.32" y1="312.58" x2="-68.61" y2="312.07"
            xlink:href="#linear-gradient" />
        <linearGradient id="linear-gradient-72" x1="-57.95" y1="313.71" x2="-60.15" y2="309.9"
            xlink:href="#linear-gradient" />
        <linearGradient id="linear-gradient-73" x1="-35.87" y1="336.77" x2="-49.32" y2="313.47"
            xlink:href="#linear-gradient" />
        <linearGradient id="linear-gradient-74" x1="-7.82" y1="345.73" x2="-18.16" y2="327.82"
            xlink:href="#linear-gradient" />
        <linearGradient id="linear-gradient-75" x1="11.99" y1="435.04" x2="-30.11" y2="362.12"
            xlink:href="#linear-gradient" />
        <linearGradient id="linear-gradient-76" x1="16.21" y1="373.16" x2="12.67" y2="367.02"
            xlink:href="#linear-gradient" />
        <linearGradient id="linear-gradient-77" x1="20.46" y1="380.37" x2="16.28" y2="373.12"
            xlink:href="#linear-gradient" />
        <linearGradient id="linear-gradient-78" x1="31.1" y1="403.09" x2="26.92" y2="395.86"
            xlink:href="#linear-gradient" />
        <linearGradient id="linear-gradient-79" x1="36.79" y1="417.95" x2="28.94" y2="404.34"
            xlink:href="#linear-gradient" />
        <linearGradient id="linear-gradient-80" x1="37.32" y1="485.07" x2="35.67" y2="482.21"
            xlink:href="#linear-gradient" />
        <linearGradient id="linear-gradient-81" x1="39.43" y1="477.85" x2="37.73" y2="474.9"
            xlink:href="#linear-gradient" />
        <linearGradient id="linear-gradient-82" x1="41.37" y1="471.79" x2="38.27" y2="466.42"
            xlink:href="#linear-gradient" />
        <linearGradient id="linear-gradient-83" x1="44.03" y1="462.55" x2="31.92" y2="441.56"
            xlink:href="#linear-gradient" />
        <linearGradient id="linear-gradient-84" x1="-312.82" y1="490.62" x2="-426.58" y2="293.59"
            gradientTransform="translate(427.38 370.33) scale(0.77 0.64)"
            xlink:href="#linear-gradient" />
        <linearGradient id="linear-gradient-91" x1="9.61" y1="436.41" x2="-32.49" y2="363.49"
            xlink:href="#linear-gradient" />
        <linearGradient id="linear-gradient-98" x1="-311.98" y1="489.03" x2="-424.9" y2="293.45"
            gradientTransform="translate(427.38 370.33) scale(0.77 0.64)"
            xlink:href="#linear-gradient" />
        <linearGradient id="linear-gradient-99" x1="-68.73" y1="312.86" x2="-68.16" y2="311.86"
            xlink:href="#linear-gradient-30" />
        <linearGradient id="linear-gradient-100" x1="-59.99" y1="313.43" x2="-58.11" y2="310.18"
            xlink:href="#linear-gradient-30" />
        <linearGradient id="linear-gradient-101" x1="-66.84" y1="396.69" x2="-57.1" y2="379.82"
            xlink:href="#linear-gradient-30" />
        <linearGradient id="linear-gradient-102" x1="-47.52" y1="442.74" x2="-37.79" y2="425.89"
            xlink:href="#linear-gradient-30" />
        <linearGradient id="linear-gradient-103" x1="-47.48" y1="333.54" x2="-38.19" y2="317.44"
            xlink:href="#linear-gradient-30" />
        <linearGradient id="linear-gradient-104" x1="-15.16" y1="341.29" x2="-11.02" y2="334.13"
            xlink:href="#linear-gradient-30" />
        <linearGradient id="linear-gradient-105" x1="13.69" y1="371.52" x2="15.4" y2="368.55"
            xlink:href="#linear-gradient-30" />
        <linearGradient id="linear-gradient-106" x1="17.27" y1="378.65" x2="19.46" y2="374.85"
            xlink:href="#linear-gradient-30" />
        <linearGradient id="linear-gradient-107" x1="-94.38" y1="412.28" x2="-91.07" y2="406.53"
            xlink:href="#linear-gradient-30" />
        <linearGradient id="linear-gradient-108" x1="-77.86" y1="317.3" x2="-75.66" y2="313.49"
            xlink:href="#linear-gradient-30" />
        <linearGradient id="linear-gradient-109" x1="-70.3" y1="313.35" x2="-69.73" y2="312.37"
            xlink:href="#linear-gradient-30" />
        <linearGradient id="linear-gradient-110" x1="-21.27" y1="505.23" x2="-20.99" y2="504.74"
            xlink:href="#linear-gradient-30" />
        <linearGradient id="linear-gradient-111" x1="-30.73" y1="428.25" x2="-0.64" y2="376.13"
            xlink:href="#linear-gradient-30" />
        <linearGradient id="linear-gradient-112" x1="27.67" y1="401.79" x2="30.35" y2="397.15"
            xlink:href="#linear-gradient-30" />
        <linearGradient id="linear-gradient-113" x1="30.32" y1="415.71" x2="35.69" y2="406.41"
            xlink:href="#linear-gradient-30" />
        <linearGradient id="linear-gradient-114" x1="35.25" y1="485.79" x2="37.74" y2="481.49"
            xlink:href="#linear-gradient-30" />
        <linearGradient id="linear-gradient-115" x1="37.43" y1="478.35" x2="39.72" y2="474.4"
            xlink:href="#linear-gradient-30" />
        <linearGradient id="linear-gradient-116" x1="38.02" y1="472.22" x2="41.62" y2="465.99"
            xlink:href="#linear-gradient-30" />
        <linearGradient id="linear-gradient-117" x1="32.21" y1="460.04" x2="41.97" y2="443.14"
            xlink:href="#linear-gradient-30" />
        <linearGradient id="linear-gradient-118" x1="-427.54" y1="463.97" x2="-354.61" y2="337.64"
            gradientTransform="translate(427.38 370.33) scale(0.77 0.64)"
            xlink:href="#linear-gradient-30" />
        <linearGradient id="linear-gradient-119" x1="-68.73" y1="312.86" x2="-68.16" y2="311.86"
            xlink:href="#linear-gradient-50" />
        <linearGradient id="linear-gradient-120" x1="-59.99" y1="313.43" x2="-58.11" y2="310.18"
            xlink:href="#linear-gradient-50" />
        <linearGradient id="linear-gradient-121" x1="-66.84" y1="396.69" x2="-57.1" y2="379.82"
            xlink:href="#linear-gradient-50" />
        <linearGradient id="linear-gradient-122" x1="-47.52" y1="442.74" x2="-37.79" y2="425.89"
            xlink:href="#linear-gradient-50" />
        <linearGradient id="linear-gradient-123" x1="-47.48" y1="333.54" x2="-38.19" y2="317.44"
            xlink:href="#linear-gradient-50" />
        <linearGradient id="linear-gradient-124" x1="-15.16" y1="341.29" x2="-11.02" y2="334.13"
            xlink:href="#linear-gradient-50" />
        <linearGradient id="linear-gradient-125" x1="13.69" y1="371.52" x2="15.4" y2="368.55"
            xlink:href="#linear-gradient-50" />
        <linearGradient id="linear-gradient-126" x1="17.27" y1="378.65" x2="19.46" y2="374.85"
            xlink:href="#linear-gradient-50" />
        <linearGradient id="linear-gradient-127" x1="-94.38" y1="412.28" x2="-91.07" y2="406.53"
            xlink:href="#linear-gradient-50" />
        <linearGradient id="linear-gradient-128" x1="-77.86" y1="317.3" x2="-75.66" y2="313.49"
            xlink:href="#linear-gradient-50" />
        <linearGradient id="linear-gradient-129" x1="-70.3" y1="313.35" x2="-69.73" y2="312.37"
            xlink:href="#linear-gradient-50" />
        <linearGradient id="linear-gradient-130" x1="-21.27" y1="505.23" x2="-20.99" y2="504.74"
            xlink:href="#linear-gradient-50" />
        <linearGradient id="linear-gradient-131" x1="-30.73" y1="428.25" x2="-0.64" y2="376.13"
            xlink:href="#linear-gradient-50" />
        <linearGradient id="linear-gradient-132" x1="27.67" y1="401.79" x2="30.35" y2="397.15"
            xlink:href="#linear-gradient-50" />
        <linearGradient id="linear-gradient-133" x1="30.32" y1="415.71" x2="35.69" y2="406.41"
            xlink:href="#linear-gradient-50" />
        <linearGradient id="linear-gradient-134" x1="35.25" y1="485.79" x2="37.74" y2="481.49"
            xlink:href="#linear-gradient-50" />
        <linearGradient id="linear-gradient-135" x1="37.43" y1="478.35" x2="39.72" y2="474.4"
            xlink:href="#linear-gradient-50" />
        <linearGradient id="linear-gradient-136" x1="38.02" y1="472.22" x2="41.62" y2="465.99"
            xlink:href="#linear-gradient-50" />
        <linearGradient id="linear-gradient-137" x1="32.21" y1="460.04" x2="41.97" y2="443.14"
            xlink:href="#linear-gradient-50" />
        <linearGradient id="linear-gradient-138" x1="-427.54" y1="463.97" x2="-354.61" y2="337.64"
            gradientTransform="translate(427.38 370.33) scale(0.77 0.64)"
            xlink:href="#linear-gradient-50" />
    </defs>
    <path class="cls-1"
        d="M711.75,929.08c-.07,22.64-8.37,38.58-21.77,46.07l-38.74,21.68c.86-.48,1.64-1.1,2.45-1.65-13.71,9.23-33.49,8.9-55.54-3.35-41.2-22.91-74.5-78.44-74.37-124,.07-22.71,8.43-38.67,21.9-46.13l-.13.06,38.74-21.67c13.57-7.6,32.36-6.53,53.09,5C678.58,828,711.88,883.5,711.75,929.08Zm-65.1,7c.09-29.46-21.46-65.4-48.1-80.21s-48.33-2.9-48.41,26.57,21.46,65.4,48.1,80.21S646.56,965.57,646.65,936.1Z" />
    <path class="cls-2" d="M564.53,851c-.13.23-.39.35-.52.59l-.25-.36A2,2,0,0,1,564.53,851Z" />
    <path class="cls-3" d="M565.93,850.79c-.51.12-.89.12-1.27.24l.12-.12Z" />
    <path class="cls-4"
        d="M575.67,850.67a38.67,38.67,0,0,0-6.28-.23,6.71,6.71,0,0,1,1.54-.12h.51c.9,0,1.67.12,2.44.12C574.39,850.55,575,850.55,575.67,850.67Z" />
    <path class="cls-5"
        d="M589.12,867.13c-3,.71-7.18-2.36-9.48-6.75-1.92-3.79-1.66-7.58.64-8.88h.13a29.53,29.53,0,0,1,4.09,1.07c1,.35,2.06.71,3.21,1.18a14.11,14.11,0,0,1,2.94,4C593,862.28,592.19,866.42,589.12,867.13Z" />
    <path class="cls-6"
        d="M614.47,871.16c-1.27.83-3.2.83-5.25-.24a14,14,0,0,1-6.66-9.35A109,109,0,0,1,614.47,871.16Z" />
    <path class="cls-7"
        d="M627,920.43c0,8.17-4.09,13.14-10.37,13.73l-.89-1.42c3.58-1.77,5.89-5.8,5.89-11.6,0-11.25-8.71-25.11-19.34-30.79-5.64-3-10.63-3.08-14.22-1l-.9-1.42c3.72-5,10.63-5.92,18.58-1.66C617.55,892.71,627,907.87,627,920.43Z" />
    <path class="cls-8"
        d="M630.61,890a12.62,12.62,0,0,1-1.28-1.42,13.46,13.46,0,0,1-1.54-2.49C628.82,887.39,629.71,888.69,630.61,890Z" />
    <path class="cls-9"
        d="M633.68,894.73c-1-1.66-2-3.2-3.07-4.74,1,1.42,1.92,3,2.95,4.38A.44.44,0,0,1,633.68,894.73Z" />
    <path class="cls-10"
        d="M641.5,909.53c-.77-1.66-1.54-3.31-2.31-5.09.39.71.64,1.42,1,2C640.6,907.52,641.11,908.47,641.5,909.53Z" />
    <path class="cls-11"
        d="M645.34,919.36a14,14,0,0,1-3.58-6,7.77,7.77,0,0,1-.26-3.79c.64,1.3,1.15,2.61,1.66,3.91a27.91,27.91,0,0,1,1.28,3.43A19.13,19.13,0,0,1,645.34,919.36Z" />
    <path class="cls-12"
        d="M646.75,959.63a8.74,8.74,0,0,1-.64,1.89c-.26.36-.39.83-.64,1.19A24.26,24.26,0,0,0,646.75,959.63Z" />
    <path class="cls-13"
        d="M648.16,955l-.39,1.77a3.57,3.57,0,0,0-.51,1.19A20.43,20.43,0,0,0,648.16,955Z" />
    <path class="cls-120"
        d="M649.05,949.32c-.13,1.07-.25,2.13-.38,3.08a9.87,9.87,0,0,1-.39,1.9C648.54,952.64,648.8,951.1,649.05,949.32Z" />
    <path class="cls-15"
        d="M649.44,943.4a37.75,37.75,0,0,1-.39,5.57,9.61,9.61,0,0,1-2.94-1.9c-3.59-3.08-5.51-8.17-4.35-11.37,1-2.72,3.83-3.19,7-1.3v.12A71.39,71.39,0,0,1,649.44,943.4Z" />
    <path class="cls-16"
        d="M656.6,943.63c0,13.6-4.14,23.78-11.22,30.23a8,8,0,0,1-2.07,1.71l-.55-.7a11.16,11.16,0,0,0,1.53-1.71c5.66-6.45,8.82-15.93,8.82-27.72a62.75,62.75,0,0,0-.43-7.86c-3.49-32.14-28-68.52-57.43-84.34-11.23-6-21.91-8.27-30.85-7A20.45,20.45,0,0,0,561,847h-.11l-.33-.61c1.2-.4,2.51-.9,3.81-1.31,9.7-2.31,21.48-.6,34.44,6.35C630.77,868.45,656.6,909.67,656.6,943.63Z" />
    <path class="cls-3" d="M565.93,850.79c-.51.12-.89.12-1.27.24l.12-.12Z" />
    <path class="cls-4"
        d="M575.67,850.67a38.67,38.67,0,0,0-6.28-.23,6.71,6.71,0,0,1,1.54-.12h.51c.9,0,1.67.12,2.44.12C574.39,850.55,575,850.55,575.67,850.67Z" />
    <path class="cls-5"
        d="M589.12,867.13c-3,.71-7.18-2.36-9.48-6.75-1.92-3.79-1.66-7.58.64-8.88h.13a29.53,29.53,0,0,1,4.09,1.07c1,.35,2.06.71,3.21,1.18a14.11,14.11,0,0,1,2.94,4C593,862.28,592.19,866.42,589.12,867.13Z" />
    <path class="cls-6"
        d="M614.47,871.16c-1.27.83-3.2.83-5.25-.24a14,14,0,0,1-6.66-9.35A109,109,0,0,1,614.47,871.16Z" />
    <path class="cls-8"
        d="M630.61,890a12.62,12.62,0,0,1-1.28-1.42,13.46,13.46,0,0,1-1.54-2.49C628.82,887.39,629.71,888.69,630.61,890Z" />
    <path class="cls-9"
        d="M633.68,894.73c-1-1.66-2-3.2-3.07-4.74,1,1.42,1.92,3,2.95,4.38A.44.44,0,0,1,633.68,894.73Z" />
    <path class="cls-17"
        d="M627,920.43c0,8.17-4.09,13.14-10.37,13.73a12.82,12.82,0,0,1-5.12-.35,12.2,12.2,0,0,0,4.23-1.07c3.58-1.77,5.89-5.8,5.89-11.6,0-11.25-8.71-25.11-19.34-30.79-5.64-3-10.63-3.08-14.22-1a8.61,8.61,0,0,0-2.82,2.72,14.33,14.33,0,0,1,1.92-4.14c3.72-5,10.63-5.92,18.58-1.66C617.55,892.71,627,907.87,627,920.43Z" />
    <path class="cls-10"
        d="M641.5,909.53c-.77-1.66-1.54-3.31-2.31-5.09.39.71.64,1.42,1,2C640.6,907.52,641.11,908.47,641.5,909.53Z" />
    <path class="cls-11"
        d="M645.34,919.36a14,14,0,0,1-3.58-6,7.77,7.77,0,0,1-.26-3.79c.64,1.3,1.15,2.61,1.66,3.91a27.91,27.91,0,0,1,1.28,3.43A19.13,19.13,0,0,1,645.34,919.36Z" />
    <path class="cls-12"
        d="M646.75,959.63a8.74,8.74,0,0,1-.64,1.89c-.26.36-.39.83-.64,1.19A24.26,24.26,0,0,0,646.75,959.63Z" />
    <path class="cls-13"
        d="M648.16,955l-.39,1.77a3.57,3.57,0,0,0-.51,1.19A20.43,20.43,0,0,0,648.16,955Z" />
    <path class="cls-120"
        d="M649.05,949.32c-.13,1.07-.25,2.13-.38,3.08a9.87,9.87,0,0,1-.39,1.9C648.54,952.64,648.8,951.1,649.05,949.32Z" />
    <path class="cls-15"
        d="M649.44,943.4a37.75,37.75,0,0,1-.39,5.57,9.61,9.61,0,0,1-2.94-1.9c-3.59-3.08-5.51-8.17-4.35-11.37,1-2.72,3.83-3.19,7-1.3v.12A71.39,71.39,0,0,1,649.44,943.4Z" />
    <path class="cls-18"
        d="M656.6,943.63c0,13.6-4.14,23.78-11.22,30.23-.44-.3-.66-.4-1.09-.7,5.66-6.45,8.82-15.93,8.82-27.72a62.75,62.75,0,0,0-.43-7.86c-3.49-32.14-28-68.52-57.43-84.34-11.23-6-21.91-8.27-30.85-7a4.88,4.88,0,0,1,0-1.21c9.7-2.31,21.48-.6,34.44,6.35C630.77,868.45,656.6,909.67,656.6,943.63Z" />
    <path class="cls-19" d="M565.93,850.79c-.51.12-.89.12-1.27.24l.12-.12Z" />
    <path class="cls-20"
        d="M575.67,850.67a38.67,38.67,0,0,0-6.28-.23,6.71,6.71,0,0,1,1.54-.12h.51c.9,0,1.67.12,2.44.12C574.39,850.55,575,850.55,575.67,850.67Z" />
    <path class="cls-21"
        d="M572.34,907.75c-3.59-.71-7.43-4.85-8.58-9.23s.9-7.46,4.48-6.75,7.3,4.73,8.45,9.23S575.92,908.47,572.34,907.75Z" />
    <path class="cls-22"
        d="M590.65,936.65c-2.17,2-6.4.47-9.47-3.55s-3.72-8.77-1.54-10.9,6.53-.47,9.48,3.56S592.83,934.52,590.65,936.65Z" />
    <path class="cls-23"
        d="M589.12,867.13c-3,.71-7.18-2.36-9.48-6.75-1.92-3.79-1.66-7.58.64-8.88h.13a29.53,29.53,0,0,1,4.09,1.07c1,.35,2.06.71,3.21,1.18a14.11,14.11,0,0,1,2.94,4C593,862.28,592.19,866.42,589.12,867.13Z" />
    <path class="cls-24"
        d="M614.47,871.16c-1.27.83-3.2.83-5.25-.24a14,14,0,0,1-6.66-9.35A109,109,0,0,1,614.47,871.16Z" />
    <path class="cls-25"
        d="M630.61,890a12.62,12.62,0,0,1-1.28-1.42,13.46,13.46,0,0,1-1.54-2.49C628.82,887.39,629.71,888.69,630.61,890Z" />
    <path class="cls-26"
        d="M633.68,894.73c-1-1.66-2-3.2-3.07-4.74,1,1.42,1.92,3,2.95,4.38A.44.44,0,0,1,633.68,894.73Z" />
    <path class="cls-27"
        d="M546,911.43c.51,1.65,1.15,3.31,1.79,5a57.44,57.44,0,0,1-2.31-6A4.05,4.05,0,0,1,546,911.43Z" />
    <path class="cls-28"
        d="M558.89,852.69a7.68,7.68,0,0,1,1.79-.6,11.81,11.81,0,0,0-2.81,1.31l-.13.11a1.46,1.46,0,0,0-.64.12c.38-.23.77-.35,1.15-.59a18.65,18.65,0,0,0,.51-.24C558.89,852.8,558.89,852.8,558.89,852.69Z" />
    <path class="cls-29" d="M563.76,851.26a2,2,0,0,1,.77-.23c-.13.23-.39.35-.52.59Z" />
    <path class="cls-30"
        d="M604.87,976.21a54.57,54.57,0,0,1-6.28-2.61,33.2,33.2,0,0,0,3.21,1.3A32.51,32.51,0,0,0,604.87,976.21Z" />
    <path class="cls-31"
        d="M627,920.43c0,8.17-4.09,13.14-10.37,13.73a12.82,12.82,0,0,1-5.12-.35,12.2,12.2,0,0,0,4.23-1.07c3.58-1.77,5.89-5.8,5.89-11.6,0-11.25-8.71-25.11-19.34-30.79-5.64-3-10.63-3.08-14.22-1a8.61,8.61,0,0,0-2.82,2.72,14.33,14.33,0,0,1,1.92-4.14c3.72-5,10.63-5.92,18.58-1.66C617.55,892.71,627,907.87,627,920.43Z" />
    <path class="cls-32"
        d="M641.5,909.53c-.77-1.66-1.54-3.31-2.31-5.09.39.71.64,1.42,1,2C640.6,907.52,641.11,908.47,641.5,909.53Z" />
    <path class="cls-33"
        d="M645.34,919.36a14,14,0,0,1-3.58-6,7.77,7.77,0,0,1-.26-3.79c.64,1.3,1.15,2.61,1.66,3.91a27.91,27.91,0,0,1,1.28,3.43A19.13,19.13,0,0,1,645.34,919.36Z" />
    <path class="cls-34"
        d="M646.75,959.63a8.74,8.74,0,0,1-.64,1.89c-.26.36-.39.83-.64,1.19A24.26,24.26,0,0,0,646.75,959.63Z" />
    <path class="cls-35"
        d="M648.16,955l-.39,1.77a3.57,3.57,0,0,0-.51,1.19A20.43,20.43,0,0,0,648.16,955Z" />
    <path class="cls-36"
        d="M649.05,949.32c-.13,1.07-.25,2.13-.38,3.08a9.87,9.87,0,0,1-.39,1.9C648.54,952.64,648.8,951.1,649.05,949.32Z" />
    <path class="cls-37"
        d="M649.44,943.4a37.75,37.75,0,0,1-.39,5.57,9.61,9.61,0,0,1-2.94-1.9c-3.59-3.08-5.51-8.17-4.35-11.37,1-2.72,3.83-3.19,7-1.3v.12A71.39,71.39,0,0,1,649.44,943.4Z" />
    <path class="cls-38"
        d="M656.6,943.63c0,13.6-4.14,23.78-11.22,30.23a8,8,0,0,1-2.07,1.71l-.11.21a35.41,35.41,0,0,1-5.13,2.92,27.79,27.79,0,0,0,4.69-3.83,11.16,11.16,0,0,0,1.53-1.71c5.66-6.45,8.82-15.93,8.82-27.72a62.75,62.75,0,0,0-.43-7.86c-3.49-32.14-28-68.52-57.43-84.34-11.23-6-21.91-8.27-30.85-7A20.45,20.45,0,0,0,561,847h-.11a27.15,27.15,0,0,0-4.8,1.71,15.38,15.38,0,0,1,4.47-2.32c1.2-.4,2.51-.9,3.81-1.31,9.7-2.31,21.48-.6,34.44,6.35C630.77,868.45,656.6,909.67,656.6,943.63Z" />
    <path class="cls-39" d="M565.93,850.79c-.51.12-.89.12-1.27.24l.12-.12Z" />
    <path class="cls-40"
        d="M575.67,850.67a38.67,38.67,0,0,0-6.28-.23,6.71,6.71,0,0,1,1.54-.12h.51c.9,0,1.67.12,2.44.12C574.39,850.55,575,850.55,575.67,850.67Z" />
    <path class="cls-41"
        d="M572.34,907.75c-3.59-.71-7.43-4.85-8.58-9.23s.9-7.46,4.48-6.75,7.3,4.73,8.45,9.23S575.92,908.47,572.34,907.75Z" />
    <path class="cls-42"
        d="M590.65,936.65c-2.17,2-6.4.47-9.47-3.55s-3.72-8.77-1.54-10.9,6.53-.47,9.48,3.56S592.83,934.52,590.65,936.65Z" />
    <path class="cls-43"
        d="M589.12,867.13c-3,.71-7.18-2.36-9.48-6.75-1.92-3.79-1.66-7.58.64-8.88h.13a29.53,29.53,0,0,1,4.09,1.07c1,.35,2.06.71,3.21,1.18a14.11,14.11,0,0,1,2.94,4C593,862.28,592.19,866.42,589.12,867.13Z" />
    <path class="cls-44"
        d="M614.47,871.16c-1.27.83-3.2.83-5.25-.24a14,14,0,0,1-6.66-9.35A109,109,0,0,1,614.47,871.16Z" />
    <path class="cls-45"
        d="M630.61,890a12.62,12.62,0,0,1-1.28-1.42,13.46,13.46,0,0,1-1.54-2.49C628.82,887.39,629.71,888.69,630.61,890Z" />
    <path class="cls-46"
        d="M633.68,894.73c-1-1.66-2-3.2-3.07-4.74,1,1.42,1.92,3,2.95,4.38A.44.44,0,0,1,633.68,894.73Z" />
    <path class="cls-47"
        d="M546,911.43c.51,1.65,1.15,3.31,1.79,5a57.44,57.44,0,0,1-2.31-6A4.05,4.05,0,0,1,546,911.43Z" />
    <path class="cls-48"
        d="M558.89,852.69a7.68,7.68,0,0,1,1.79-.6,11.81,11.81,0,0,0-2.81,1.31l-.13.11a1.46,1.46,0,0,0-.64.12c.38-.23.77-.35,1.15-.59a18.65,18.65,0,0,0,.51-.24C558.89,852.8,558.89,852.8,558.89,852.69Z" />
    <path class="cls-49" d="M563.76,851.26a2,2,0,0,1,.77-.23c-.13.23-.39.35-.52.59Z" />
    <path class="cls-50"
        d="M604.87,976.21a54.57,54.57,0,0,1-6.28-2.61,33.2,33.2,0,0,0,3.21,1.3A32.51,32.51,0,0,0,604.87,976.21Z" />
    <path class="cls-51"
        d="M627,920.43c0,8.17-4.09,13.14-10.37,13.73a12.82,12.82,0,0,1-5.12-.35,12.2,12.2,0,0,0,4.23-1.07c3.58-1.77,5.89-5.8,5.89-11.6,0-11.25-8.71-25.11-19.34-30.79-5.64-3-10.63-3.08-14.22-1a8.61,8.61,0,0,0-2.82,2.72,14.33,14.33,0,0,1,1.92-4.14c3.72-5,10.63-5.92,18.58-1.66C617.55,892.71,627,907.87,627,920.43Z" />
    <path class="cls-52"
        d="M641.5,909.53c-.77-1.66-1.54-3.31-2.31-5.09.39.71.64,1.42,1,2C640.6,907.52,641.11,908.47,641.5,909.53Z" />
    <path class="cls-53"
        d="M645.34,919.36a14,14,0,0,1-3.58-6,7.77,7.77,0,0,1-.26-3.79c.64,1.3,1.15,2.61,1.66,3.91a27.91,27.91,0,0,1,1.28,3.43A19.13,19.13,0,0,1,645.34,919.36Z" />
    <path class="cls-54"
        d="M646.75,959.63a8.74,8.74,0,0,1-.64,1.89c-.26.36-.39.83-.64,1.19A24.26,24.26,0,0,0,646.75,959.63Z" />
    <path class="cls-55"
        d="M648.16,955l-.39,1.77a3.57,3.57,0,0,0-.51,1.19A20.43,20.43,0,0,0,648.16,955Z" />
    <path class="cls-56"
        d="M649.05,949.32c-.13,1.07-.25,2.13-.38,3.08a9.87,9.87,0,0,1-.39,1.9C648.54,952.64,648.8,951.1,649.05,949.32Z" />
    <path class="cls-57"
        d="M649.44,943.4a37.75,37.75,0,0,1-.39,5.57,9.61,9.61,0,0,1-2.94-1.9c-3.59-3.08-5.51-8.17-4.35-11.37,1-2.72,3.83-3.19,7-1.3v.12A71.39,71.39,0,0,1,649.44,943.4Z" />
    <path class="cls-58"
        d="M656.6,943.63c0,13.6-4.14,23.78-11.22,30.23a8,8,0,0,1-2.07,1.71l-.11.21a35.41,35.41,0,0,1-5.13,2.92,27.79,27.79,0,0,0,4.69-3.83,11.16,11.16,0,0,0,1.53-1.71c5.66-6.45,8.82-15.93,8.82-27.72a62.75,62.75,0,0,0-.43-7.86c-3.49-32.14-28-68.52-57.43-84.34-11.23-6-21.91-8.27-30.85-7A20.45,20.45,0,0,0,561,847h-.11a27.15,27.15,0,0,0-4.8,1.71,15.38,15.38,0,0,1,4.47-2.32c1.2-.4,2.51-.9,3.81-1.31,9.7-2.31,21.48-.6,34.44,6.35C630.77,868.45,656.6,909.67,656.6,943.63Z" />
    <path class="cls-59"
        d="M572.34,907.75c-3.59-.71-7.43-4.85-8.58-9.23s.9-7.46,4.48-6.75,7.3,4.73,8.45,9.23S575.92,908.47,572.34,907.75Z" />
    <path class="cls-59"
        d="M590.65,936.65c-2.17,2-6.4.47-9.47-3.55s-3.72-8.77-1.54-10.9,6.53-.47,9.48,3.56S592.83,934.52,590.65,936.65Z" />
    <path class="cls-59"
        d="M589.12,867.13c-3,.71-7.18-2.36-9.48-6.75-1.92-3.79-1.66-7.58.64-8.88h.13a29.53,29.53,0,0,1,4.09,1.07c1,.35,2.06.71,3.21,1.18a14.11,14.11,0,0,1,2.94,4C593,862.28,592.19,866.42,589.12,867.13Z" />
    <path class="cls-59"
        d="M614.47,871.16c-1.27.83-3.2.83-5.25-.24a14,14,0,0,1-6.66-9.35A109,109,0,0,1,614.47,871.16Z" />
    <path class="cls-59"
        d="M630.61,890a12.62,12.62,0,0,1-1.28-1.42,13.46,13.46,0,0,1-1.54-2.49C628.82,887.39,629.71,888.69,630.61,890Z" />
    <path class="cls-59"
        d="M546,911.43c.51,1.65,1.15,3.31,1.79,5a57.44,57.44,0,0,1-2.31-6A4.05,4.05,0,0,1,546,911.43Z" />
    <path class="cls-59" d="M563.76,851.26a2,2,0,0,1,.77-.23c-.13.23-.39.35-.52.59Z" />
    <path class="cls-59"
        d="M604.87,976.21a54.57,54.57,0,0,1-6.28-2.61,33.2,33.2,0,0,0,3.21,1.3A32.51,32.51,0,0,0,604.87,976.21Z" />
    <path class="cls-59"
        d="M627,920.43c0,8.17-4.09,13.14-10.37,13.73a12.82,12.82,0,0,1-5.12-.35,12.2,12.2,0,0,0,4.23-1.07c3.58-1.77,5.89-5.8,5.89-11.6,0-11.25-8.71-25.11-19.34-30.79-5.64-3-10.63-3.08-14.22-1a8.61,8.61,0,0,0-2.82,2.72,14.33,14.33,0,0,1,1.92-4.14c3.72-5,10.63-5.92,18.58-1.66C617.55,892.71,627,907.87,627,920.43Z" />
    <path class="cls-59"
        d="M645.34,919.36a14,14,0,0,1-3.58-6,7.77,7.77,0,0,1-.26-3.79c.64,1.3,1.15,2.61,1.66,3.91a27.91,27.91,0,0,1,1.28,3.43A19.13,19.13,0,0,1,645.34,919.36Z" />
    <path class="cls-59"
        d="M649.44,943.4a37.75,37.75,0,0,1-.39,5.57,9.61,9.61,0,0,1-2.94-1.9c-3.59-3.08-5.51-8.17-4.35-11.37,1-2.72,3.83-3.19,7-1.3v.12A71.39,71.39,0,0,1,649.44,943.4Z" />
    <path class="cls-59"
        d="M601.8,974.9a33.2,33.2,0,0,1-3.21-1.3,54.57,54.57,0,0,0,6.28,2.61A32.51,32.51,0,0,1,601.8,974.9ZM557.74,853.51l.13-.11.38-.36c-.38.24-.77.36-1.15.59A1.46,1.46,0,0,1,557.74,853.51Zm41.1-2.09c-13-6.95-24.74-8.66-34.44-6.35-1.3.41-2.61.91-3.81,1.31a15.38,15.38,0,0,0-4.47,2.32,27.15,27.15,0,0,1,4.8-1.71H561a20.45,20.45,0,0,1,3.37-.71c8.94-1.31,19.62.91,30.85,7,29.42,15.82,53.94,52.2,57.43,84.34a62.75,62.75,0,0,1,.43,7.86c0,11.79-3.16,21.27-8.82,27.72a11.16,11.16,0,0,1-1.53,1.71,27.79,27.79,0,0,1-4.69,3.83,35.41,35.41,0,0,0,5.13-2.92l.11-.21a8,8,0,0,0,2.07-1.71c7.08-6.45,11.22-16.63,11.22-30.23C656.6,909.67,630.77,868.45,598.84,851.42Z" />
    <path class="cls-60"
        d="M572.34,907.75c-3.59-.71-7.43-4.85-8.58-9.23s.9-7.46,4.48-6.75,7.3,4.73,8.45,9.23S575.92,908.47,572.34,907.75Z" />
    <path class="cls-60"
        d="M590.65,936.65c-2.17,2-6.4.47-9.47-3.55s-3.72-8.77-1.54-10.9,6.53-.47,9.48,3.56S592.83,934.52,590.65,936.65Z" />
    <path class="cls-60"
        d="M589.12,867.13c-3,.71-7.18-2.36-9.48-6.75-1.92-3.79-1.66-7.58.64-8.88h.13a29.53,29.53,0,0,1,4.09,1.07c1,.35,2.06.71,3.21,1.18a14.11,14.11,0,0,1,2.94,4C593,862.28,592.19,866.42,589.12,867.13Z" />
    <path class="cls-60"
        d="M614.47,871.16c-1.27.83-3.2.83-5.25-.24a14,14,0,0,1-6.66-9.35A109,109,0,0,1,614.47,871.16Z" />
    <path class="cls-60"
        d="M630.61,890a12.62,12.62,0,0,1-1.28-1.42,13.46,13.46,0,0,1-1.54-2.49C628.82,887.39,629.71,888.69,630.61,890Z" />
    <path class="cls-60"
        d="M627,920.43c0,8.17-4.09,13.14-10.37,13.73a12.82,12.82,0,0,1-5.12-.35,12.2,12.2,0,0,0,4.23-1.07c3.58-1.77,5.89-5.8,5.89-11.6,0-11.25-8.71-25.11-19.34-30.79-5.64-3-10.63-3.08-14.22-1a8.61,8.61,0,0,0-2.82,2.72,14.33,14.33,0,0,1,1.92-4.14c3.72-5,10.63-5.92,18.58-1.66C617.55,892.71,627,907.87,627,920.43Z" />
    <path class="cls-60"
        d="M645.34,919.36a14,14,0,0,1-3.58-6,7.77,7.77,0,0,1-.26-3.79c.64,1.3,1.15,2.61,1.66,3.91a27.91,27.91,0,0,1,1.28,3.43A19.13,19.13,0,0,1,645.34,919.36Z" />
    <path class="cls-60"
        d="M649.44,943.4a37.75,37.75,0,0,1-.39,5.57,9.61,9.61,0,0,1-2.94-1.9c-3.59-3.08-5.51-8.17-4.35-11.37,1-2.72,3.83-3.19,7-1.3v.12A71.39,71.39,0,0,1,649.44,943.4Z" />
    <path class="cls-61"
        d="M546,911.43a4.05,4.05,0,0,0-.52-1.07,57.44,57.44,0,0,0,2.31,6C547.11,914.74,546.47,913.08,546,911.43ZM601.8,974.9a33.2,33.2,0,0,1-3.21-1.3,54.57,54.57,0,0,0,6.28,2.61A32.51,32.51,0,0,1,601.8,974.9Z" />
    <path class="cls-61"
        d="M652.68,937.58c-3.49-32.14-28-68.52-57.43-84.34-11.23-6-21.91-8.27-30.85-7A20.45,20.45,0,0,0,561,847h-.11a27.15,27.15,0,0,0-4.8,1.71c-11.44,5-18.63,17.23-18.63,35,0,34,25.94,75.18,57.76,92.31,17,9,32.25,9.37,42.82,2.72a27.79,27.79,0,0,0,4.69-3.83,11.16,11.16,0,0,0,1.53-1.71c5.66-6.45,8.82-15.93,8.82-27.72A62.75,62.75,0,0,0,652.68,937.58ZM649.08,949v.4a7.25,7.25,0,0,0-.22,1.51,9.28,9.28,0,0,0-.22,1.52,10.58,10.58,0,0,1-.32,1.91,1.62,1.62,0,0,1-.11.71,10.84,10.84,0,0,0-.44,1.81c-.43,1-.65,2-1,2.82s-.43,1.31-.65,1.92c-.11.1-.33.3-.33.5l-.32.6a13.77,13.77,0,0,1-.88,1.82c-.43.7-.76,1.31-1.2,2,0,.11-.1.11-.1.21a25.43,25.43,0,0,0-1.53,2.11,21.5,21.5,0,0,0-1.53,1.72s0,.1-.21.1v.1h-.11c-.77.8-1.42,1.31-2.18,2a6.36,6.36,0,0,1-1.86,1.41c-.32.1-.43.31-.65.41a.1.1,0,0,0-.11.1h-.21a4.76,4.76,0,0,1-1.31.8c-.22.1-.44.31-.55.31s-.11.1-.33.1a6.55,6.55,0,0,1-1.74.8,11.76,11.76,0,0,1-2.72.91,32.53,32.53,0,0,1-3.6.91,10.67,10.67,0,0,1-2,.2,27.89,27.89,0,0,1-5.78,0,7.23,7.23,0,0,1-1.41-.1,34.33,34.33,0,0,1-4.47-.71c-2.07-.5-4.14-1-6.21-1.71-.44-.2-1-.4-1.53-.61a15.22,15.22,0,0,1-3-1.31c-.66-.2-1.09-.5-1.63-.7a34,34,0,0,1-3.38-1.61,24,24,0,0,0-2.73-1.52c-.11-.1-.22-.3-.33-.4a49.07,49.07,0,0,1-5.12-3.22,3.94,3.94,0,0,0-.87-.51,41.06,41.06,0,0,0-3.27-2.52c-2.4-1.91-4.58-3.83-6.76-5.94-1.19-1-2.28-2-3.48-3.23-.33-.3-.76-.8-1.09-1.11-1.42-1.61-2.83-3.12-4.25-4.73a1.09,1.09,0,0,0-.44-.51c-.11-.1-.11-.1-.11-.2a5.53,5.53,0,0,1-1-1.21,11.63,11.63,0,0,1-1.09-1.31L562.88,943c-1.42-1.91-2.94-3.93-4.25-5.94a34.08,34.08,0,0,1-2.29-3.73,54.91,54.91,0,0,1-3.16-5.44,96.81,96.81,0,0,1-4.9-10.18c-.22-.5-.44-1-.55-1.31-.32-1-.76-1.91-1.09-2.92a19.13,19.13,0,0,1-1.2-3.13,4.13,4.13,0,0,0-.43-1.21c-.22-1-.55-2.11-.87-3.22,0-.1-.11-.3-.11-.4-.66-2.32-1-4.34-1.42-6.45-.33-1.61-.65-3.43-.87-5.14s-.44-3.53-.44-5.24v-.81a14.94,14.94,0,0,1-.11-2.22c0-1.1.11-2.41.11-3.52,0-.71.22-1.41.22-2.12a1.23,1.23,0,0,1,.11-.5,6.5,6.5,0,0,1,.11-1.41V878c0-.21.11-.51.11-.71a1.56,1.56,0,0,1,.11-.7,20.21,20.21,0,0,1,.54-2.52c0-.1.11-.31.11-.41v-.2c0-.1.11-.2.11-.3a1,1,0,0,1,.32-.81,4.06,4.06,0,0,1,.33-1.21v-.1c0-.3,0-.4.11-.5a24.53,24.53,0,0,1,1-2.42,4,4,0,0,1,.44-1.21.55.55,0,0,1,.33-.5c.21-.61.65-1.21.87-1.82.21-.4.54-.8.76-1.31.22-.3.55-.8.76-1.11a9.48,9.48,0,0,1,1.64-2.21,9.6,9.6,0,0,1,1.2-1.31c.22-.2.32-.41.65-.71l.76-.7A17.09,17.09,0,0,1,553.4,856l.22-.2a1.88,1.88,0,0,1,.54-.31h.11s.11,0,.11-.2a9,9,0,0,1,1-.4.77.77,0,0,0,.22-.3,2.58,2.58,0,0,1,.54-.31c.11-.1.22-.3.33-.3a.1.1,0,0,0,.11-.1.1.1,0,0,1,.11-.1c.22,0,.32-.1.43-.1.33-.2.77-.4,1.2-.61a564269275302.32,564269275302.32,0,0,1,.44-.2c.11,0,.11,0,.11-.1a.41.41,0,0,1,.32-.1,9.41,9.41,0,0,1,1.53-.5,1.4,1.4,0,0,1,.66-.31l2.28-.6h.11a2.2,2.2,0,0,1,.76-.2h.11l.11-.1h.55a4.05,4.05,0,0,1,.65-.1,10.2,10.2,0,0,1,1.85-.31,7.94,7.94,0,0,1,1.64-.1,7.23,7.23,0,0,1,1.52-.1h.55c.87,0,1.63.1,2.4.1a11.68,11.68,0,0,1,1.74.31c.44,0,.65.1,1.09.1a9.09,9.09,0,0,1,1.52.2,9.56,9.56,0,0,1,1.64.4c.11,0,.22.1.43.1h.12a30.07,30.07,0,0,1,4,1c1.52.5,3.27,1.21,5,1.92a16.15,16.15,0,0,0,2,.8c1.42.61,2.51,1.21,3.82,1.92s2.39,1.31,3.7,2.11a21.33,21.33,0,0,1,3.6,2.32,104.13,104.13,0,0,1,11.88,9.57,89.16,89.16,0,0,1,7,7.06c1.09,1.21,2.18,2.52,3.27,3.83s2,2.62,2.94,3.83c.22.1.22.1.22.2,1,1.31,1.86,2.62,2.83,3.93.55.7,1,1.51,1.53,2.32a13.71,13.71,0,0,0,1.42,2,.56.56,0,0,1,.11.4c1,1.52,1.85,3.13,2.83,4.84a2.94,2.94,0,0,1,.44.81c.76,1.31,1.52,2.72,2.17,4,.44.7.66,1.41,1.09,2a9.38,9.38,0,0,0,.55,1.62l.65,1.51c.66,1.31,1.2,2.52,1.75,3.83.43,1.11.87,2.32,1.2,3.52a25.56,25.56,0,0,1,1,2.42v.3c.43,1.11.76,2.42,1.09,3.63.1.51.32.91.43,1.41v.41a2.18,2.18,0,0,1,.22.8,3,3,0,0,1,.22.81v.1c.33,1.31.65,2.62.87,3.93s.43,2.52.55,3.63v.2a62.62,62.62,0,0,1,.65,8.87A44.36,44.36,0,0,1,649.08,949Z" />
    <path class="cls-59"
        d="M640,970.76c-.77.83-1.41,1.3-2.18,2a11.67,11.67,0,0,1-1.92,1.42c-.25.12-.38.24-.64.36a.12.12,0,0,0-.12.12H635a10,10,0,0,1-1.41.83,1.09,1.09,0,0,1-.52.23c-.12,0-.12.12-.25.12a8.17,8.17,0,0,1-1.79.83,24.72,24.72,0,0,1-2.69,1,33.74,33.74,0,0,1-3.59.83,11.46,11.46,0,0,1-2.05.23,23.1,23.1,0,0,1-5.76,0,6.09,6.09,0,0,1-1.41-.12,27.65,27.65,0,0,1-4.48-.71,58.34,58.34,0,0,1-6.15-1.65,32.51,32.51,0,0,1-3.07-1.31,33.2,33.2,0,0,1-3.21-1.3c-1-.47-2.17-1.06-3.33-1.66-.89-.47-1.79-1.06-2.69-1.54l-.38-.35a59.73,59.73,0,0,1-5.12-3.2,3.86,3.86,0,0,0-.9-.59c-1-.83-2-1.66-3.2-2.49a78.43,78.43,0,0,1-6.79-5.92c-1.15-1.07-2.3-2-3.46-3.2-.38-.35-.77-.83-1.15-1.18-1.41-1.54-2.82-3.08-4.23-4.74-.12-.12-.25-.35-.38-.47s-.13-.12-.13-.24a4.62,4.62,0,0,1-1-1.18,9.07,9.07,0,0,1-1-1.31l-1.92-2.48c-1.41-1.9-2.94-3.91-4.23-5.93a43.13,43.13,0,0,1-2.3-3.78c-1.15-1.78-2.18-3.56-3.2-5.45a107.82,107.82,0,0,1-4.87-10.19,9,9,0,0,1-.51-1.3c-.64-1.66-1.28-3.32-1.79-5a4.05,4.05,0,0,0-.52-1.07,11,11,0,0,0-.38-1.18c-.26-1.07-.64-2.14-.9-3.2,0-.12-.13-.36-.13-.48a65.41,65.41,0,0,1-1.41-6.39c-.38-1.66-.63-3.44-.89-5.21s-.38-3.44-.38-5.21v-.83a11.72,11.72,0,0,1-.13-2.13c0-1.19.13-2.49.13-3.56,0-.71.12-1.42.12-2.13a.82.82,0,0,1,.13-.47,5.26,5.26,0,0,1,.13-1.42V878c0-.24.13-.47.13-.71a1.38,1.38,0,0,1,.13-.71,15.73,15.73,0,0,1,.51-2.49c0-.12.12-.35.12-.47v-.12c0-.12.14-.24.14-.36a1.63,1.63,0,0,1,.25-.83,4.63,4.63,0,0,1,.38-1.18V871c0-.23,0-.35.13-.47a13.08,13.08,0,0,1,.9-2.37,4.2,4.2,0,0,1,.51-1.3.88.88,0,0,1,.26-.48c.25-.59.64-1.18.89-1.77s.52-.83.77-1.31.51-.82.77-1.18a10.07,10.07,0,0,1,1.66-2.13,5.25,5.25,0,0,1,1.16-1.3c.25-.24.38-.48.64-.72l.77-.71a16,16,0,0,1,1.53-1.3l.26-.24a2.11,2.11,0,0,1,.51-.35h.13s.13,0,.13-.12a5.68,5.68,0,0,1,.9-.47l.25-.24c.13-.12.38-.24.51-.36s.26-.23.39-.23a.12.12,0,0,0,.13-.12.12.12,0,0,1,.12-.12c.13,0,.26-.12.39-.12a1.46,1.46,0,0,1,.64-.12l.13-.11a11.81,11.81,0,0,1,2.81-1.31c.26-.11.39-.11.65-.23a15.9,15.9,0,0,1,2.3-.6h.13l.25.36c-5.63,6-8.83,15-8.83,26.65,0,31.73,24.2,70.22,54,86.21C620.62,970.52,631.25,972.54,640,970.76Z" />
    <path class="cls-60"
        d="M646.11,947.07c-3.59-3.08-5.51-8.17-4.35-11.37,1-2.72,3.83-3.19,7-1.3-.13-1.18-.38-2.37-.64-3.67s-.51-2.61-.77-3.91v-.12a2.92,2.92,0,0,0-.26-.83,3,3,0,0,0-.25-.82v-.36l-.39-1.42c-.38-1.19-.64-2.49-1.15-3.67v-.24a14,14,0,0,1-3.58-6,7.77,7.77,0,0,1-.26-3.79c-.77-1.66-1.54-3.31-2.31-5.09-.64-1.3-1.41-2.73-2.18-4a2.78,2.78,0,0,0-.51-.83c-.89-1.66-1.79-3.31-2.82-4.85s-2-3.2-3.07-4.74a12.62,12.62,0,0,1-1.28-1.42,13.46,13.46,0,0,1-1.54-2.49c0-.12,0-.12-.12-.23-1-1.19-1.92-2.49-2.95-3.79s-2.18-2.61-3.33-3.79a92.83,92.83,0,0,0-6.92-7.11c-1.27.83-3.2.83-5.25-.24a14,14,0,0,1-6.66-9.35,34.93,34.93,0,0,0-3.58-2.25c-1.28-.83-2.43-1.42-3.72-2.13a37.06,37.06,0,0,0-3.84-1.9c-1.28-.59-2.56-1.07-3.71-1.54a14.11,14.11,0,0,1,2.94,4c2.31,4.5,1.54,8.64-1.53,9.35s-7.18-2.36-9.48-6.75c-1.92-3.79-1.66-7.58.64-8.88-.13,0-.26-.12-.38-.12-.52-.12-1.16-.23-1.67-.35a6.76,6.76,0,0,0-1.54-.24c-.38,0-.64-.12-1-.12a38.67,38.67,0,0,0-6.28-.23,7.79,7.79,0,0,0-1.66.11,8.16,8.16,0,0,0-1.8.24c-.51.12-.89.12-1.27.24h-.13c-.13.23-.39.35-.52.59-5.63,6-8.83,15-8.83,26.65,0,31.73,24.2,70.22,54,86.21,11.4,6,22,8.06,30.74,6.28h.13v-.12a.12.12,0,0,0,.13-.12c.51-.59,1-1.06,1.54-1.66s1-1.42,1.53-2.13c0-.12.13-.12.13-.23.38-.72.77-1.31,1.15-2a11.36,11.36,0,0,0,.9-1.77,24.26,24.26,0,0,0,1.28-3.08,6.86,6.86,0,0,0,.51-1.66,20.43,20.43,0,0,0,.9-3,1.5,1.5,0,0,0,.12-.71c.26-1.66.52-3.2.77-5V949A9.61,9.61,0,0,1,646.11,947.07Zm-73.77-39.32c-3.59-.71-7.43-4.85-8.58-9.23s.9-7.46,4.48-6.75,7.3,4.73,8.45,9.23S575.92,908.47,572.34,907.75Zm4.48-29.13c-1,2.37-3.33,3-5.89,1.78a11.91,11.91,0,0,1-2.69-1.78c-3.58-3.08-5.64-8.29-4.48-11.49a3.49,3.49,0,0,1,3.07-2.25c1.67-.23,3.72.6,5.64,2.25C575.92,870.33,578,875.42,576.82,878.62Zm13.83,58c-2.17,2-6.4.47-9.47-3.55s-3.72-8.77-1.54-10.9,6.53-.47,9.48,3.56S592.83,934.52,590.65,936.65Zm18.57,21.2c-3.71-2-6.78-6.87-6.78-10.9,0-3.43,2.17-5.09,5.12-4.14a6,6,0,0,1,1.66.59,14.38,14.38,0,0,1,6.28,7.7,13.74,13.74,0,0,1,.51,3.08C616,958.21,612.94,959.86,609.22,957.85Zm10.25-19.42c-3.84.59-8.58-.24-13.7-3a45.85,45.85,0,0,1-11-8.53c-.13-.12-.26-.24-.26-.35a52.91,52.91,0,0,1-10.88-17.41c-.13-.12-.13-.12-.13-.24a36,36,0,0,1-2.69-13.27c0-5.09,1.41-9.11,3.71-12,4.36-5.09,12.3-5.92,21.27-1.18,13.83,7.34,25,25.11,25,39.79C630.74,931.56,626.26,937.24,619.47,938.43Zm17.8,24.75a5.87,5.87,0,0,1-2,0c-2.56-.59-5.76-3.32-7.43-6.75a9.32,9.32,0,0,1-1-6.63,3.65,3.65,0,0,1,2.56-2.61c3.08-.71,7.3,2.25,9.48,6.63S640.34,962.47,637.27,963.18Z" />
    <path class="cls-62"
        d="M605.77,882.53c-9-4.74-16.91-3.91-21.27,1.18-2.3,2.85-3.71,6.87-3.71,12a36,36,0,0,0,2.69,13.27c0,.12,0,.12.13.24a52.91,52.91,0,0,0,10.88,17.41c0,.11.13.23.26.35a45.85,45.85,0,0,0,11,8.53c5.12,2.72,9.86,3.55,13.7,3,6.79-1.19,11.27-6.87,11.27-16.11C630.74,907.64,619.6,889.87,605.77,882.53Zm10.88,51.63a12.82,12.82,0,0,1-5.12-.35,18.09,18.09,0,0,1-9.22-2.49,36.66,36.66,0,0,1-10.76-9.24c-.13-.23-.39-.35-.39-.59a78.29,78.29,0,0,1-4.86-7.7A32.14,32.14,0,0,1,583,900.53a15.2,15.2,0,0,1,2.3-8.41,14.33,14.33,0,0,1,1.92-4.14c3.72-5,10.63-5.92,18.58-1.66,11.78,6.39,21.25,21.55,21.25,34.11C627,928.6,622.93,933.57,616.65,934.16Z" />
    <path class="cls-62"
        d="M627,920.43c0,8.17-4.09,13.14-10.37,13.73a12.82,12.82,0,0,1-5.12-.35,12.2,12.2,0,0,0,4.23-1.07c3.58-1.77,5.89-5.8,5.89-11.6,0-11.25-8.71-25.11-19.34-30.79-5.64-3-10.63-3.08-14.22-1a8.61,8.61,0,0,0-2.82,2.72,14.33,14.33,0,0,1,1.92-4.14c3.72-5,10.63-5.92,18.58-1.66C617.55,892.71,627,907.87,627,920.43Z" />
    <path class="cls-59"
        d="M627,920.43c0,8.17-4.09,13.14-10.37,13.73a12.82,12.82,0,0,1-5.12-.35,12.2,12.2,0,0,0,4.23-1.07c3.58-1.77,5.89-5.8,5.89-11.6,0-11.25-8.71-25.11-19.34-30.79-5.64-3-10.63-3.08-14.22-1a8.61,8.61,0,0,0-2.82,2.72,14.33,14.33,0,0,1,1.92-4.14c3.72-5,10.63-5.92,18.58-1.66C617.55,892.71,627,907.87,627,920.43Z" />
    <path class="cls-61"
        d="M621.65,921.14c0,5.8-2.31,9.83-5.89,11.6a12.2,12.2,0,0,1-4.23,1.07,18.09,18.09,0,0,1-9.22-2.49,36.66,36.66,0,0,1-10.76-9.24c-.13-.23-.39-.35-.39-.59a78.29,78.29,0,0,1-4.86-7.7A32.14,32.14,0,0,1,583,900.53a15.2,15.2,0,0,1,2.3-8.41,8.61,8.61,0,0,1,2.82-2.72c3.59-2.13,8.58-2,14.22,1C612.94,896,621.65,909.89,621.65,921.14Z" />
    <path class="cls-62"
        d="M614.47,871.16c-1.27.83-3.2.83-5.25-.24a14,14,0,0,1-6.66-9.35A109,109,0,0,1,614.47,871.16Z" />
    <path class="cls-62"
        d="M630.61,890a12.62,12.62,0,0,1-1.28-1.42,13.46,13.46,0,0,1-1.54-2.49C628.82,887.39,629.71,888.69,630.61,890Z" />
    <path class="cls-62"
        d="M645.34,919.36a14,14,0,0,1-3.58-6,7.77,7.77,0,0,1-.26-3.79c.64,1.3,1.15,2.61,1.66,3.91a27.91,27.91,0,0,1,1.28,3.43A19.13,19.13,0,0,1,645.34,919.36Z" />
    <path class="cls-62"
        d="M649.44,943.4a37.75,37.75,0,0,1-.39,5.57,9.61,9.61,0,0,1-2.94-1.9c-3.59-3.08-5.51-8.17-4.35-11.37,1-2.72,3.83-3.19,7-1.3v.12A71.39,71.39,0,0,1,649.44,943.4Z" />
    <path class="cls-62"
        d="M637.27,963.18a5.87,5.87,0,0,1-2,0c-2.56-.59-5.76-3.32-7.43-6.75a9.32,9.32,0,0,1-1-6.63,3.65,3.65,0,0,1,2.56-2.61c3.08-.71,7.3,2.25,9.48,6.63S640.34,962.47,637.27,963.18Z" />
    <path class="cls-62"
        d="M616,954.18c0,4-3.07,5.68-6.79,3.67s-6.78-6.87-6.78-10.9c0-3.43,2.17-5.09,5.12-4.14a6,6,0,0,1,1.66.59,14.38,14.38,0,0,1,6.28,7.7A13.74,13.74,0,0,1,616,954.18Z" />
    <path class="cls-62"
        d="M590.65,936.65c-2.17,2-6.4.47-9.47-3.55s-3.72-8.77-1.54-10.9,6.53-.47,9.48,3.56S592.83,934.52,590.65,936.65Z" />
    <path class="cls-62"
        d="M572.34,907.75c-3.59-.71-7.43-4.85-8.58-9.23s.9-7.46,4.48-6.75,7.3,4.73,8.45,9.23S575.92,908.47,572.34,907.75Z" />
    <path class="cls-62"
        d="M576.82,878.62c-1,2.37-3.33,3-5.89,1.78a11.91,11.91,0,0,1-2.69-1.78c-3.58-3.08-5.64-8.29-4.48-11.49a3.49,3.49,0,0,1,3.07-2.25c1.67-.23,3.72.6,5.64,2.25C575.92,870.33,578,875.42,576.82,878.62Z" />
    <path class="cls-62"
        d="M589.12,867.13c-3,.71-7.18-2.36-9.48-6.75-1.92-3.79-1.66-7.58.64-8.88h.13a29.53,29.53,0,0,1,4.09,1.07c1,.35,2.06.71,3.21,1.18a14.11,14.11,0,0,1,2.94,4C593,862.28,592.19,866.42,589.12,867.13Z" />
    <polygon class="cls-1"
        points="518.53 865.42 523.82 862.03 527.17 846.76 534.04 834.03 540.82 827.27 545.28 824.33 554.77 819.01 588.33 800.63 581.61 798.57 568.99 797.2 560.19 798.48 551.19 801.65 542.93 806.32 535.8 812.5 532.07 817.12 527.43 825.15 522.75 837.3 520.21 848.58 518.53 865.42" />
    <path class="cls-1"
        d="M234.38,649.56c-.07,22.65-8.37,38.58-21.77,46.08l-38.74,21.67c.86-.48,1.64-1.09,2.45-1.64-13.71,9.23-33.49,8.9-55.54-3.36-41.2-22.9-74.51-78.44-74.37-124,.07-22.72,8.43-38.67,21.9-46.14l-.13.07,38.74-21.68c13.57-7.59,32.35-6.52,53.09,5C201.21,548.45,234.51,604,234.38,649.56Zm-65.1,7c.09-29.47-21.46-65.41-48.1-80.21s-48.33-2.91-48.41,26.56,21.46,65.41,48.1,80.21S169.19,686.06,169.28,656.59Z" />
    <path class="cls-63"
        d="M87.16,571.51c-.13.24-.39.36-.52.6l-.25-.36A1.87,1.87,0,0,1,87.16,571.51Z" />
    <path class="cls-64" d="M88.56,571.28c-.51.11-.89.11-1.28.23l.13-.12Z" />
    <path class="cls-65"
        d="M98.3,571.16a37.66,37.66,0,0,0-6.28-.24,6.67,6.67,0,0,1,1.54-.12h.51c.9,0,1.67.12,2.43.12C97,571,97.66,571,98.3,571.16Z" />
    <path class="cls-66"
        d="M111.74,587.62c-2.94.71-7.17-2.37-9.47-6.75-1.92-3.79-1.67-7.58.64-8.88H103a29.44,29.44,0,0,1,4.09,1.06c1,.36,2.05.71,3.2,1.19a14,14,0,0,1,3,4C115.59,582.76,114.82,586.91,111.74,587.62Z" />
    <path class="cls-67"
        d="M137.1,591.65c-1.28.82-3.2.82-5.25-.24a14,14,0,0,1-6.66-9.36A109.07,109.07,0,0,1,137.1,591.65Z" />
    <path class="cls-68"
        d="M149.65,640.91c0,8.17-4.1,13.15-10.37,13.74l-.9-1.42c3.59-1.78,5.9-5.8,5.9-11.61,0-11.25-8.71-25.1-19.34-30.79-5.64-3-10.63-3.08-14.22-1l-.9-1.42c3.72-5,10.63-5.92,18.57-1.66C140.18,613.2,149.65,628.36,149.65,640.91Z" />
    <path class="cls-69"
        d="M153.24,610.48a12.68,12.68,0,0,1-1.28-1.43,13.08,13.08,0,0,1-1.54-2.48C151.45,607.87,152.34,609.17,153.24,610.48Z" />
    <path class="cls-70"
        d="M156.31,615.21c-1-1.65-2-3.19-3.07-4.73,1,1.42,1.92,3,2.95,4.38A.42.42,0,0,1,156.31,615.21Z" />
    <path class="cls-71"
        d="M164.13,630c-.77-1.66-1.54-3.32-2.31-5.1.38.72.64,1.43,1,2C163.23,628,163.74,629,164.13,630Z" />
    <path class="cls-72"
        d="M168,639.85a14.09,14.09,0,0,1-3.59-6,7.89,7.89,0,0,1-.25-3.79c.64,1.3,1.15,2.6,1.66,3.9a27.46,27.46,0,0,1,1.28,3.44A20.72,20.72,0,0,1,168,639.85Z" />
    <path class="cls-73"
        d="M169.38,680.11a9,9,0,0,1-.64,1.9c-.26.35-.39.83-.64,1.18A23.66,23.66,0,0,0,169.38,680.11Z" />
    <path class="cls-74"
        d="M170.79,675.49l-.39,1.78a3.52,3.52,0,0,0-.51,1.18A20.92,20.92,0,0,0,170.79,675.49Z" />
    <path class="cls-75"
        d="M171.68,669.81c-.13,1.06-.25,2.13-.38,3.08a9.77,9.77,0,0,1-.39,1.89C171.17,673.12,171.43,671.59,171.68,669.81Z" />
    <path class="cls-76"
        d="M172.07,663.89a37.52,37.52,0,0,1-.39,5.56,9.38,9.38,0,0,1-2.94-1.89c-3.59-3.08-5.51-8.17-4.36-11.37,1-2.72,3.84-3.2,7.05-1.3V655A71.39,71.39,0,0,1,172.07,663.89Z" />
    <path class="cls-77"
        d="M179.23,664.11c0,13.61-4.14,23.79-11.22,30.24a8.19,8.19,0,0,1-2.07,1.71l-.55-.71a10.3,10.3,0,0,0,1.53-1.71c5.66-6.45,8.82-15.92,8.82-27.71a64.7,64.7,0,0,0-.43-7.86c-3.49-32.15-28-68.53-57.44-84.35-11.22-6.05-21.9-8.26-30.84-7a20.2,20.2,0,0,0-3.37.7h-.11l-.33-.6c1.2-.4,2.51-.91,3.81-1.31,9.7-2.32,21.47-.61,34.44,6.35C153.4,588.94,179.23,630.15,179.23,664.11Z" />
    <path class="cls-64" d="M88.56,571.28c-.51.11-.89.11-1.28.23l.13-.12Z" />
    <path class="cls-65"
        d="M98.3,571.16a37.66,37.66,0,0,0-6.28-.24,6.67,6.67,0,0,1,1.54-.12h.51c.9,0,1.67.12,2.43.12C97,571,97.66,571,98.3,571.16Z" />
    <path class="cls-66"
        d="M111.74,587.62c-2.94.71-7.17-2.37-9.47-6.75-1.92-3.79-1.67-7.58.64-8.88H103a29.44,29.44,0,0,1,4.09,1.06c1,.36,2.05.71,3.2,1.19a14,14,0,0,1,3,4C115.59,582.76,114.82,586.91,111.74,587.62Z" />
    <path class="cls-67"
        d="M137.1,591.65c-1.28.82-3.2.82-5.25-.24a14,14,0,0,1-6.66-9.36A109.07,109.07,0,0,1,137.1,591.65Z" />
    <path class="cls-69"
        d="M153.24,610.48a12.68,12.68,0,0,1-1.28-1.43,13.08,13.08,0,0,1-1.54-2.48C151.45,607.87,152.34,609.17,153.24,610.48Z" />
    <path class="cls-70"
        d="M156.31,615.21c-1-1.65-2-3.19-3.07-4.73,1,1.42,1.92,3,2.95,4.38A.42.42,0,0,1,156.31,615.21Z" />
    <path class="cls-78"
        d="M149.65,640.91c0,8.17-4.1,13.15-10.37,13.74a12.64,12.64,0,0,1-5.12-.36,12.08,12.08,0,0,0,4.22-1.06c3.59-1.78,5.9-5.8,5.9-11.61,0-11.25-8.71-25.1-19.34-30.79-5.64-3-10.63-3.08-14.22-1a8.54,8.54,0,0,0-2.82,2.73,14.52,14.52,0,0,1,1.92-4.15c3.72-5,10.63-5.92,18.57-1.66C140.18,613.2,149.65,628.36,149.65,640.91Z" />
    <path class="cls-71"
        d="M164.13,630c-.77-1.66-1.54-3.32-2.31-5.1.38.72.64,1.43,1,2C163.23,628,163.74,629,164.13,630Z" />
    <path class="cls-72"
        d="M168,639.85a14.09,14.09,0,0,1-3.59-6,7.89,7.89,0,0,1-.25-3.79c.64,1.3,1.15,2.6,1.66,3.9a27.46,27.46,0,0,1,1.28,3.44A20.72,20.72,0,0,1,168,639.85Z" />
    <path class="cls-73"
        d="M169.38,680.11a9,9,0,0,1-.64,1.9c-.26.35-.39.83-.64,1.18A23.66,23.66,0,0,0,169.38,680.11Z" />
    <path class="cls-74"
        d="M170.79,675.49l-.39,1.78a3.52,3.52,0,0,0-.51,1.18A20.92,20.92,0,0,0,170.79,675.49Z" />
    <path class="cls-75"
        d="M171.68,669.81c-.13,1.06-.25,2.13-.38,3.08a9.77,9.77,0,0,1-.39,1.89C171.17,673.12,171.43,671.59,171.68,669.81Z" />
    <path class="cls-76"
        d="M172.07,663.89a37.52,37.52,0,0,1-.39,5.56,9.38,9.38,0,0,1-2.94-1.89c-3.59-3.08-5.51-8.17-4.36-11.37,1-2.72,3.84-3.2,7.05-1.3V655A71.39,71.39,0,0,1,172.07,663.89Z" />
    <path class="cls-79"
        d="M179.23,664.11c0,13.61-4.14,23.79-11.22,30.24-.44-.31-.66-.41-1.09-.71,5.66-6.45,8.82-15.92,8.82-27.71a64.7,64.7,0,0,0-.43-7.86c-3.49-32.15-28-68.53-57.44-84.35-11.22-6.05-21.9-8.26-30.84-7a4.88,4.88,0,0,1,0-1.21c9.7-2.32,21.47-.61,34.44,6.35C153.4,588.94,179.23,630.15,179.23,664.11Z" />
    <path class="cls-80" d="M88.56,571.28c-.51.11-.89.11-1.28.23l.13-.12Z" />
    <path class="cls-81"
        d="M98.3,571.16a37.66,37.66,0,0,0-6.28-.24,6.67,6.67,0,0,1,1.54-.12h.51c.9,0,1.67.12,2.43.12C97,571,97.66,571,98.3,571.16Z" />
    <path class="cls-82"
        d="M95,628.24c-3.59-.71-7.43-4.86-8.58-9.24s.89-7.46,4.48-6.75,7.3,4.74,8.45,9.24S98.55,629,95,628.24Z" />
    <path class="cls-83"
        d="M113.28,657.14c-2.18,2-6.4.47-9.47-3.56s-3.72-8.76-1.54-10.89,6.53-.48,9.47,3.55S115.46,655,113.28,657.14Z" />
    <path class="cls-84"
        d="M111.74,587.62c-2.94.71-7.17-2.37-9.47-6.75-1.92-3.79-1.67-7.58.64-8.88H103a29.44,29.44,0,0,1,4.09,1.06c1,.36,2.05.71,3.2,1.19a14,14,0,0,1,3,4C115.59,582.76,114.82,586.91,111.74,587.62Z" />
    <path class="cls-85"
        d="M137.1,591.65c-1.28.82-3.2.82-5.25-.24a14,14,0,0,1-6.66-9.36A109.07,109.07,0,0,1,137.1,591.65Z" />
    <path class="cls-86"
        d="M153.24,610.48a12.68,12.68,0,0,1-1.28-1.43,13.08,13.08,0,0,1-1.54-2.48C151.45,607.87,152.34,609.17,153.24,610.48Z" />
    <path class="cls-87"
        d="M156.31,615.21c-1-1.65-2-3.19-3.07-4.73,1,1.42,1.92,3,2.95,4.38A.42.42,0,0,1,156.31,615.21Z" />
    <path class="cls-88"
        d="M68.59,631.91c.51,1.66,1.15,3.32,1.79,5a58.29,58.29,0,0,1-2.31-6A4.33,4.33,0,0,1,68.59,631.91Z" />
    <path class="cls-89"
        d="M81.52,573.17a7.68,7.68,0,0,1,1.79-.59,11.78,11.78,0,0,0-2.81,1.3l-.13.12a1.46,1.46,0,0,0-.64.12c.38-.24.77-.36,1.15-.59a18.65,18.65,0,0,0,.51-.24C81.52,573.29,81.52,573.29,81.52,573.17Z" />
    <path class="cls-90" d="M86.39,571.75a1.87,1.87,0,0,1,.77-.24c-.13.24-.39.36-.52.6Z" />
    <path class="cls-91"
        d="M127.5,696.69a56.28,56.28,0,0,1-6.28-2.6c1,.47,2.18.94,3.2,1.3S126.47,696.34,127.5,696.69Z" />
    <path class="cls-92"
        d="M149.65,640.91c0,8.17-4.1,13.15-10.37,13.74a12.64,12.64,0,0,1-5.12-.36,12.08,12.08,0,0,0,4.22-1.06c3.59-1.78,5.9-5.8,5.9-11.61,0-11.25-8.71-25.1-19.34-30.79-5.64-3-10.63-3.08-14.22-1a8.54,8.54,0,0,0-2.82,2.73,14.52,14.52,0,0,1,1.92-4.15c3.72-5,10.63-5.92,18.57-1.66C140.18,613.2,149.65,628.36,149.65,640.91Z" />
    <path class="cls-93"
        d="M164.13,630c-.77-1.66-1.54-3.32-2.31-5.1.38.72.64,1.43,1,2C163.23,628,163.74,629,164.13,630Z" />
    <path class="cls-94"
        d="M168,639.85a14.09,14.09,0,0,1-3.59-6,7.89,7.89,0,0,1-.25-3.79c.64,1.3,1.15,2.6,1.66,3.9a27.46,27.46,0,0,1,1.28,3.44A20.72,20.72,0,0,1,168,639.85Z" />
    <path class="cls-95"
        d="M169.38,680.11a9,9,0,0,1-.64,1.9c-.26.35-.39.83-.64,1.18A23.66,23.66,0,0,0,169.38,680.11Z" />
    <path class="cls-96"
        d="M170.79,675.49l-.39,1.78a3.52,3.52,0,0,0-.51,1.18A20.92,20.92,0,0,0,170.79,675.49Z" />
    <path class="cls-97"
        d="M171.68,669.81c-.13,1.06-.25,2.13-.38,3.08a9.77,9.77,0,0,1-.39,1.89C171.17,673.12,171.43,671.59,171.68,669.81Z" />
    <path class="cls-98"
        d="M172.07,663.89a37.52,37.52,0,0,1-.39,5.56,9.38,9.38,0,0,1-2.94-1.89c-3.59-3.08-5.51-8.17-4.36-11.37,1-2.72,3.84-3.2,7.05-1.3V655A71.39,71.39,0,0,1,172.07,663.89Z" />
    <path class="cls-99"
        d="M179.23,664.11c0,13.61-4.14,23.79-11.22,30.24a8.19,8.19,0,0,1-2.07,1.71l-.12.2a33.05,33.05,0,0,1-5.12,2.92,27.79,27.79,0,0,0,4.69-3.83,10.3,10.3,0,0,0,1.53-1.71c5.66-6.45,8.82-15.92,8.82-27.71a64.7,64.7,0,0,0-.43-7.86c-3.49-32.15-28-68.53-57.44-84.35-11.22-6.05-21.9-8.26-30.84-7a20.2,20.2,0,0,0-3.37.7h-.11a27.18,27.18,0,0,0-4.8,1.72,15.14,15.14,0,0,1,4.47-2.32c1.2-.4,2.51-.91,3.81-1.31,9.7-2.32,21.47-.61,34.44,6.35C153.4,588.94,179.23,630.15,179.23,664.11Z" />
    <path class="cls-100" d="M88.56,571.28c-.51.11-.89.11-1.28.23l.13-.12Z" />
    <path class="cls-101"
        d="M98.3,571.16a37.66,37.66,0,0,0-6.28-.24,6.67,6.67,0,0,1,1.54-.12h.51c.9,0,1.67.12,2.43.12C97,571,97.66,571,98.3,571.16Z" />
    <path class="cls-102"
        d="M95,628.24c-3.59-.71-7.43-4.86-8.58-9.24s.89-7.46,4.48-6.75,7.3,4.74,8.45,9.24S98.55,629,95,628.24Z" />
    <path class="cls-103"
        d="M113.28,657.14c-2.18,2-6.4.47-9.47-3.56s-3.72-8.76-1.54-10.89,6.53-.48,9.47,3.55S115.46,655,113.28,657.14Z" />
    <path class="cls-104"
        d="M111.74,587.62c-2.94.71-7.17-2.37-9.47-6.75-1.92-3.79-1.67-7.58.64-8.88H103a29.44,29.44,0,0,1,4.09,1.06c1,.36,2.05.71,3.2,1.19a14,14,0,0,1,3,4C115.59,582.76,114.82,586.91,111.74,587.62Z" />
    <path class="cls-105"
        d="M137.1,591.65c-1.28.82-3.2.82-5.25-.24a14,14,0,0,1-6.66-9.36A109.07,109.07,0,0,1,137.1,591.65Z" />
    <path class="cls-106"
        d="M153.24,610.48a12.68,12.68,0,0,1-1.28-1.43,13.08,13.08,0,0,1-1.54-2.48C151.45,607.87,152.34,609.17,153.24,610.48Z" />
    <path class="cls-107"
        d="M156.31,615.21c-1-1.65-2-3.19-3.07-4.73,1,1.42,1.92,3,2.95,4.38A.42.42,0,0,1,156.31,615.21Z" />
    <path class="cls-108"
        d="M68.59,631.91c.51,1.66,1.15,3.32,1.79,5a58.29,58.29,0,0,1-2.31-6A4.33,4.33,0,0,1,68.59,631.91Z" />
    <path class="cls-109"
        d="M81.52,573.17a7.68,7.68,0,0,1,1.79-.59,11.78,11.78,0,0,0-2.81,1.3l-.13.12a1.46,1.46,0,0,0-.64.12c.38-.24.77-.36,1.15-.59a18.65,18.65,0,0,0,.51-.24C81.52,573.29,81.52,573.29,81.52,573.17Z" />
    <path class="cls-110" d="M86.39,571.75a1.87,1.87,0,0,1,.77-.24c-.13.24-.39.36-.52.6Z" />
    <path class="cls-111"
        d="M127.5,696.69a56.28,56.28,0,0,1-6.28-2.6c1,.47,2.18.94,3.2,1.3S126.47,696.34,127.5,696.69Z" />
    <path class="cls-112"
        d="M149.65,640.91c0,8.17-4.1,13.15-10.37,13.74a12.64,12.64,0,0,1-5.12-.36,12.08,12.08,0,0,0,4.22-1.06c3.59-1.78,5.9-5.8,5.9-11.61,0-11.25-8.71-25.1-19.34-30.79-5.64-3-10.63-3.08-14.22-1a8.54,8.54,0,0,0-2.82,2.73,14.52,14.52,0,0,1,1.92-4.15c3.72-5,10.63-5.92,18.57-1.66C140.18,613.2,149.65,628.36,149.65,640.91Z" />
    <path class="cls-113"
        d="M164.13,630c-.77-1.66-1.54-3.32-2.31-5.1.38.72.64,1.43,1,2C163.23,628,163.74,629,164.13,630Z" />
    <path class="cls-114"
        d="M168,639.85a14.09,14.09,0,0,1-3.59-6,7.89,7.89,0,0,1-.25-3.79c.64,1.3,1.15,2.6,1.66,3.9a27.46,27.46,0,0,1,1.28,3.44A20.72,20.72,0,0,1,168,639.85Z" />
    <path class="cls-115"
        d="M169.38,680.11a9,9,0,0,1-.64,1.9c-.26.35-.39.83-.64,1.18A23.66,23.66,0,0,0,169.38,680.11Z" />
    <path class="cls-116"
        d="M170.79,675.49l-.39,1.78a3.52,3.52,0,0,0-.51,1.18A20.92,20.92,0,0,0,170.79,675.49Z" />
    <path class="cls-117"
        d="M171.68,669.81c-.13,1.06-.25,2.13-.38,3.08a9.77,9.77,0,0,1-.39,1.89C171.17,673.12,171.43,671.59,171.68,669.81Z" />
    <path class="cls-118"
        d="M172.07,663.89a37.52,37.52,0,0,1-.39,5.56,9.38,9.38,0,0,1-2.94-1.89c-3.59-3.08-5.51-8.17-4.36-11.37,1-2.72,3.84-3.2,7.05-1.3V655A71.39,71.39,0,0,1,172.07,663.89Z" />
    <path class="cls-119"
        d="M179.23,664.11c0,13.61-4.14,23.79-11.22,30.24a8.19,8.19,0,0,1-2.07,1.71l-.12.2a33.05,33.05,0,0,1-5.12,2.92,27.79,27.79,0,0,0,4.69-3.83,10.3,10.3,0,0,0,1.53-1.71c5.66-6.45,8.82-15.92,8.82-27.71a64.7,64.7,0,0,0-.43-7.86c-3.49-32.15-28-68.53-57.44-84.35-11.22-6.05-21.9-8.26-30.84-7a20.2,20.2,0,0,0-3.37.7h-.11a27.18,27.18,0,0,0-4.8,1.72,15.14,15.14,0,0,1,4.47-2.32c1.2-.4,2.51-.91,3.81-1.31,9.7-2.32,21.47-.61,34.44,6.35C153.4,588.94,179.23,630.15,179.23,664.11Z" />
    <path class="cls-59"
        d="M95,628.24c-3.59-.71-7.43-4.86-8.58-9.24s.89-7.46,4.48-6.75,7.3,4.74,8.45,9.24S98.55,629,95,628.24Z" />
    <path class="cls-59"
        d="M113.28,657.14c-2.18,2-6.4.47-9.47-3.56s-3.72-8.76-1.54-10.89,6.53-.48,9.47,3.55S115.46,655,113.28,657.14Z" />
    <path class="cls-59"
        d="M111.74,587.62c-2.94.71-7.17-2.37-9.47-6.75-1.92-3.79-1.67-7.58.64-8.88H103a29.44,29.44,0,0,1,4.09,1.06c1,.36,2.05.71,3.2,1.19a14,14,0,0,1,3,4C115.59,582.76,114.82,586.91,111.74,587.62Z" />
    <path class="cls-59"
        d="M137.1,591.65c-1.28.82-3.2.82-5.25-.24a14,14,0,0,1-6.66-9.36A109.07,109.07,0,0,1,137.1,591.65Z" />
    <path class="cls-59"
        d="M153.24,610.48a12.68,12.68,0,0,1-1.28-1.43,13.08,13.08,0,0,1-1.54-2.48C151.45,607.87,152.34,609.17,153.24,610.48Z" />
    <path class="cls-59"
        d="M68.59,631.91c.51,1.66,1.15,3.32,1.79,5a58.29,58.29,0,0,1-2.31-6A4.33,4.33,0,0,1,68.59,631.91Z" />
    <path class="cls-59" d="M86.39,571.75a1.87,1.87,0,0,1,.77-.24c-.13.24-.39.36-.52.6Z" />
    <path class="cls-59"
        d="M127.5,696.69a56.28,56.28,0,0,1-6.28-2.6c1,.47,2.18.94,3.2,1.3S126.47,696.34,127.5,696.69Z" />
    <path class="cls-59"
        d="M149.65,640.91c0,8.17-4.1,13.15-10.37,13.74a12.64,12.64,0,0,1-5.12-.36,12.08,12.08,0,0,0,4.22-1.06c3.59-1.78,5.9-5.8,5.9-11.61,0-11.25-8.71-25.1-19.34-30.79-5.64-3-10.63-3.08-14.22-1a8.54,8.54,0,0,0-2.82,2.73,14.52,14.52,0,0,1,1.92-4.15c3.72-5,10.63-5.92,18.57-1.66C140.18,613.2,149.65,628.36,149.65,640.91Z" />
    <path class="cls-59"
        d="M168,639.85a14.09,14.09,0,0,1-3.59-6,7.89,7.89,0,0,1-.25-3.79c.64,1.3,1.15,2.6,1.66,3.9a27.46,27.46,0,0,1,1.28,3.44A20.72,20.72,0,0,1,168,639.85Z" />
    <path class="cls-59"
        d="M172.07,663.89a37.52,37.52,0,0,1-.39,5.56,9.38,9.38,0,0,1-2.94-1.89c-3.59-3.08-5.51-8.17-4.36-11.37,1-2.72,3.84-3.2,7.05-1.3V655A71.39,71.39,0,0,1,172.07,663.89Z" />
    <path class="cls-59"
        d="M124.42,695.39c-1-.36-2.17-.83-3.2-1.3a56.28,56.28,0,0,0,6.28,2.6C126.47,696.34,125.45,695.86,124.42,695.39ZM80.37,574l.13-.12.38-.35c-.38.23-.77.35-1.15.59A1.46,1.46,0,0,1,80.37,574Zm41.1-2.09c-13-7-24.74-8.67-34.44-6.35-1.3.4-2.61.91-3.81,1.31a15.14,15.14,0,0,0-4.47,2.32,27.18,27.18,0,0,1,4.8-1.72h.11a20.2,20.2,0,0,1,3.37-.7c8.94-1.31,19.62.9,30.84,7,29.43,15.82,53.95,52.2,57.44,84.35a64.7,64.7,0,0,1,.43,7.86c0,11.79-3.16,21.26-8.82,27.71a10.3,10.3,0,0,1-1.53,1.71,27.79,27.79,0,0,1-4.69,3.83,33.05,33.05,0,0,0,5.12-2.92l.12-.2a8.19,8.19,0,0,0,2.07-1.71c7.08-6.45,11.22-16.63,11.22-30.24C179.23,630.15,153.4,588.94,121.47,571.91Z" />
    <path class="cls-60"
        d="M95,628.24c-3.59-.71-7.43-4.86-8.58-9.24s.89-7.46,4.48-6.75,7.3,4.74,8.45,9.24S98.55,629,95,628.24Z" />
    <path class="cls-60"
        d="M113.28,657.14c-2.18,2-6.4.47-9.47-3.56s-3.72-8.76-1.54-10.89,6.53-.48,9.47,3.55S115.46,655,113.28,657.14Z" />
    <path class="cls-60"
        d="M111.74,587.62c-2.94.71-7.17-2.37-9.47-6.75-1.92-3.79-1.67-7.58.64-8.88H103a29.44,29.44,0,0,1,4.09,1.06c1,.36,2.05.71,3.2,1.19a14,14,0,0,1,3,4C115.59,582.76,114.82,586.91,111.74,587.62Z" />
    <path class="cls-60"
        d="M137.1,591.65c-1.28.82-3.2.82-5.25-.24a14,14,0,0,1-6.66-9.36A109.07,109.07,0,0,1,137.1,591.65Z" />
    <path class="cls-60"
        d="M153.24,610.48a12.68,12.68,0,0,1-1.28-1.43,13.08,13.08,0,0,1-1.54-2.48C151.45,607.87,152.34,609.17,153.24,610.48Z" />
    <path class="cls-60"
        d="M149.65,640.91c0,8.17-4.1,13.15-10.37,13.74a12.64,12.64,0,0,1-5.12-.36,12.08,12.08,0,0,0,4.22-1.06c3.59-1.78,5.9-5.8,5.9-11.61,0-11.25-8.71-25.1-19.34-30.79-5.64-3-10.63-3.08-14.22-1a8.54,8.54,0,0,0-2.82,2.73,14.52,14.52,0,0,1,1.92-4.15c3.72-5,10.63-5.92,18.57-1.66C140.18,613.2,149.65,628.36,149.65,640.91Z" />
    <path class="cls-60"
        d="M168,639.85a14.09,14.09,0,0,1-3.59-6,7.89,7.89,0,0,1-.25-3.79c.64,1.3,1.15,2.6,1.66,3.9a27.46,27.46,0,0,1,1.28,3.44A20.72,20.72,0,0,1,168,639.85Z" />
    <path class="cls-60"
        d="M172.07,663.89a37.52,37.52,0,0,1-.39,5.56,9.38,9.38,0,0,1-2.94-1.89c-3.59-3.08-5.51-8.17-4.36-11.37,1-2.72,3.84-3.2,7.05-1.3V655A71.39,71.39,0,0,1,172.07,663.89Z" />
    <path class="cls-61"
        d="M68.59,631.91a4.33,4.33,0,0,0-.52-1.06,58.29,58.29,0,0,0,2.31,6C69.74,635.23,69.1,633.57,68.59,631.91Zm55.83,63.48c-1-.36-2.17-.83-3.2-1.3a56.28,56.28,0,0,0,6.28,2.6C126.47,696.34,125.45,695.86,124.42,695.39Z" />
    <path class="cls-61"
        d="M175.31,658.07c-3.49-32.15-28-68.53-57.44-84.35-11.22-6.05-21.9-8.26-30.84-7a20.2,20.2,0,0,0-3.37.7h-.11a27.18,27.18,0,0,0-4.8,1.72c-11.44,5-18.63,17.23-18.63,35,0,34,25.93,75.18,57.75,92.31,17,9,32.26,9.37,42.83,2.72a27.79,27.79,0,0,0,4.69-3.83,10.3,10.3,0,0,0,1.53-1.71c5.66-6.45,8.82-15.92,8.82-27.71A64.7,64.7,0,0,0,175.31,658.07Zm-3.6,11.39v.4a7.15,7.15,0,0,0-.22,1.51,9.17,9.17,0,0,0-.22,1.51,10.69,10.69,0,0,1-.32,1.92,1.56,1.56,0,0,1-.11.7,11,11,0,0,0-.44,1.82c-.43,1-.65,2-1,2.82s-.43,1.31-.65,1.91c-.11.1-.33.3-.33.51s-.22.4-.32.6a13.66,13.66,0,0,1-.88,1.81c-.43.71-.76,1.31-1.2,2,0,.1-.1.1-.1.2a25.55,25.55,0,0,0-1.53,2.12,21.41,21.41,0,0,0-1.53,1.71s0,.1-.21.1v.1h-.11c-.77.81-1.42,1.31-2.18,2a6.53,6.53,0,0,1-1.86,1.41c-.32.1-.43.3-.65.4a.1.1,0,0,0-.11.1h-.22a4.41,4.41,0,0,1-1.3.81c-.22.1-.44.3-.55.3s-.11.1-.33.1a6.7,6.7,0,0,1-1.74.81,12.23,12.23,0,0,1-2.72.9,29.06,29.06,0,0,1-3.6.91,10.67,10.67,0,0,1-2,.2,27.89,27.89,0,0,1-5.78,0,7.23,7.23,0,0,1-1.41-.1,34.3,34.3,0,0,1-4.47-.7c-2.07-.51-4.14-1-6.22-1.72-.43-.2-1-.4-1.52-.6a15.82,15.82,0,0,1-3-1.31c-.66-.2-1.09-.5-1.64-.71a32.82,32.82,0,0,1-3.38-1.61,22.93,22.93,0,0,0-2.72-1.51c-.11-.1-.22-.3-.33-.4a49.2,49.2,0,0,1-5.12-3.23,3.88,3.88,0,0,0-.87-.5,38.84,38.84,0,0,0-3.27-2.52c-2.4-1.92-4.58-3.83-6.76-5.95-1.19-1-2.28-2-3.48-3.22-.33-.3-.77-.81-1.09-1.11-1.42-1.61-2.84-3.12-4.25-4.74a1,1,0,0,0-.44-.5c-.11-.1-.11-.1-.11-.2a5.77,5.77,0,0,1-1-1.21A11.45,11.45,0,0,1,87.36,666l-1.85-2.52c-1.42-1.92-2.94-3.93-4.25-6A34,34,0,0,1,79,653.84a55.06,55.06,0,0,1-3.16-5.45,98.78,98.78,0,0,1-4.91-10.17c-.21-.51-.43-1-.54-1.31-.33-1-.76-1.92-1.09-2.93a18.7,18.7,0,0,1-1.2-3.12,4,4,0,0,0-.43-1.21c-.22-1-.55-2.12-.88-3.22,0-.11-.1-.31-.1-.41-.66-2.32-1-4.33-1.42-6.45-.33-1.61-.65-3.42-.87-5.14s-.44-3.52-.44-5.24v-.8a15,15,0,0,1-.11-2.22c0-1.11.11-2.42.11-3.53,0-.7.22-1.41.22-2.11a1.29,1.29,0,0,1,.11-.51,6.59,6.59,0,0,1,.11-1.41v-.1c0-.2.11-.5.11-.7a1.58,1.58,0,0,1,.11-.71,18.89,18.89,0,0,1,.54-2.52c0-.1.11-.3.11-.4V594c0-.1.11-.21.11-.31a1,1,0,0,1,.32-.8,3.9,3.9,0,0,1,.33-1.21v-.1c0-.3,0-.41.11-.51a24.37,24.37,0,0,1,1-2.41,3.94,3.94,0,0,1,.44-1.21.55.55,0,0,1,.33-.51c.21-.6.65-1.21.87-1.81.21-.4.54-.81.76-1.31.22-.3.54-.81.76-1.11a9.55,9.55,0,0,1,1.64-2.22,11,11,0,0,1,1.2-1.31c.21-.2.32-.4.65-.7l.76-.71c.44-.4,1-.9,1.53-1.31l.21-.2a2.46,2.46,0,0,1,.55-.3h.11s.11,0,.11-.2a8.82,8.82,0,0,1,1-.41.77.77,0,0,0,.22-.3,2.6,2.6,0,0,1,.54-.3c.11-.1.22-.3.33-.3a.1.1,0,0,0,.11-.1.1.1,0,0,1,.11-.1c.21,0,.32-.11.43-.11a13.39,13.39,0,0,1,1.2-.6,564269275302.2,564269275302.2,0,0,1,.44-.2c.11,0,.11,0,.11-.1a.4.4,0,0,1,.32-.1,8.33,8.33,0,0,1,1.53-.51,1.31,1.31,0,0,1,.65-.3l2.29-.6h.11a2,2,0,0,1,.76-.21h.11l.11-.1h.55a3.85,3.85,0,0,1,.65-.1,10.22,10.22,0,0,1,1.85-.3,7.9,7.9,0,0,1,1.64-.1,7.23,7.23,0,0,1,1.52-.1h.55c.87,0,1.63.1,2.4.1a13,13,0,0,1,1.74.3c.43,0,.65.1,1.09.1a9.09,9.09,0,0,1,1.52.2,9.84,9.84,0,0,1,1.64.41c.11,0,.22.1.43.1h.12a28.62,28.62,0,0,1,4,1c1.52.5,3.27,1.21,5,1.91a16.24,16.24,0,0,0,2,.81,42.31,42.31,0,0,1,3.81,1.91c1.31.71,2.4,1.31,3.71,2.12a21.29,21.29,0,0,1,3.6,2.31,104.23,104.23,0,0,1,11.88,9.58,89,89,0,0,1,7,7.05c1.09,1.21,2.18,2.52,3.27,3.83s2,2.62,2.94,3.83c.22.1.22.1.22.2,1,1.31,1.85,2.62,2.83,3.93.55.71,1,1.51,1.53,2.32a13.08,13.08,0,0,0,1.42,2,.6.6,0,0,1,.1.4c1,1.51,1.86,3.12,2.84,4.84a2.62,2.62,0,0,1,.43.8c.77,1.31,1.53,2.72,2.18,4,.44.71.66,1.41,1.09,2a9.29,9.29,0,0,0,.55,1.61l.65,1.51c.66,1.31,1.2,2.52,1.74,3.83a31.8,31.8,0,0,1,1.2,3.53,22.4,22.4,0,0,1,1,2.42v.3a35.71,35.71,0,0,1,1.08,3.63c.11.5.33.91.44,1.41v.4a2.23,2.23,0,0,1,.22.81,2.86,2.86,0,0,1,.22.8v.11c.32,1.31.65,2.62.87,3.93s.43,2.51.55,3.62v.2a62.73,62.73,0,0,1,.65,8.87A44.53,44.53,0,0,1,171.71,669.46Z" />
    <path class="cls-59"
        d="M162.59,691.24c-.77.83-1.41,1.31-2.18,2a12.94,12.94,0,0,1-1.92,1.42c-.25.12-.38.24-.64.35a.12.12,0,0,0-.13.12h-.12a9.08,9.08,0,0,1-1.41.83,1,1,0,0,1-.52.24c-.13,0-.13.12-.25.12a8.51,8.51,0,0,1-1.8.83,23.76,23.76,0,0,1-2.68.94,29.47,29.47,0,0,1-3.59.83,10.58,10.58,0,0,1-2,.24,23.1,23.1,0,0,1-5.76,0,6.09,6.09,0,0,1-1.41-.12,29.1,29.1,0,0,1-4.49-.71,58.91,58.91,0,0,1-6.14-1.66c-1-.35-2-.83-3.08-1.3s-2.17-.83-3.2-1.3-2.17-1.07-3.33-1.66c-.9-.48-1.79-1.07-2.69-1.54l-.38-.36a58.07,58.07,0,0,1-5.12-3.19,3.92,3.92,0,0,0-.9-.6c-1-.83-2-1.65-3.2-2.48a78.65,78.65,0,0,1-6.79-5.92c-1.15-1.07-2.31-2-3.46-3.2-.38-.36-.77-.83-1.15-1.19-1.41-1.54-2.82-3.08-4.23-4.73-.12-.12-.25-.36-.38-.48s-.13-.12-.13-.23a4.91,4.91,0,0,1-1-1.19,9.65,9.65,0,0,1-1-1.3l-1.92-2.49c-1.41-1.89-2.95-3.91-4.23-5.92a41.79,41.79,0,0,1-2.3-3.79c-1.16-1.78-2.18-3.55-3.2-5.45a105.25,105.25,0,0,1-4.87-10.18,8.78,8.78,0,0,1-.51-1.3c-.64-1.66-1.28-3.32-1.79-5a4.33,4.33,0,0,0-.52-1.06,11.26,11.26,0,0,0-.38-1.19c-.26-1.06-.64-2.13-.9-3.2,0-.11-.13-.35-.13-.47a65.41,65.41,0,0,1-1.41-6.39c-.38-1.66-.63-3.44-.89-5.22S64,611,64,609.17v-.83a12.68,12.68,0,0,1-.12-2.13c0-1.18.12-2.48.12-3.55,0-.71.13-1.42.13-2.13a.85.85,0,0,1,.13-.48,5.3,5.3,0,0,1,.13-1.42v-.12c0-.23.13-.47.13-.71a1.4,1.4,0,0,1,.13-.71,15.61,15.61,0,0,1,.51-2.48c0-.12.12-.36.12-.48V594c0-.11.13-.23.13-.35a1.6,1.6,0,0,1,.26-.83,4.06,4.06,0,0,1,.38-1.18v-.12c0-.24,0-.36.13-.48a13.26,13.26,0,0,1,.9-2.36,4,4,0,0,1,.51-1.31.86.86,0,0,1,.26-.47c.25-.59.63-1.19.89-1.78s.51-.83.77-1.3.51-.83.77-1.18a10.4,10.4,0,0,1,1.66-2.14,5.22,5.22,0,0,1,1.16-1.3c.25-.24.38-.47.64-.71l.77-.71a14.7,14.7,0,0,1,1.53-1.3l.26-.24a1.86,1.86,0,0,1,.51-.36h.13s.13,0,.13-.11a5.23,5.23,0,0,1,.9-.48l.25-.23c.13-.12.38-.24.51-.36s.26-.24.39-.24a.11.11,0,0,0,.12-.11.12.12,0,0,1,.13-.12c.13,0,.26-.12.39-.12a1.46,1.46,0,0,1,.64-.12l.13-.12a11.78,11.78,0,0,1,2.81-1.3c.26-.12.39-.12.64-.24a17.8,17.8,0,0,1,2.31-.59h.13l.25.36c-5.63,6-8.84,15-8.84,26.64C77.8,630.49,102,669,131.85,685,143.25,691,153.88,693,162.59,691.24Z" />
    <path class="cls-60"
        d="M168.74,667.56c-3.59-3.08-5.51-8.17-4.36-11.37,1-2.72,3.84-3.2,7.05-1.3-.13-1.19-.39-2.37-.64-3.67s-.52-2.61-.77-3.91v-.12a2.74,2.74,0,0,0-.26-.83,3.08,3.08,0,0,0-.25-.83v-.35l-.39-1.43c-.38-1.18-.64-2.48-1.15-3.67v-.23a14.09,14.09,0,0,1-3.59-6,7.89,7.89,0,0,1-.25-3.79c-.77-1.66-1.54-3.32-2.31-5.1-.64-1.3-1.41-2.72-2.18-4a2.67,2.67,0,0,0-.51-.83c-.89-1.66-1.79-3.32-2.82-4.86s-2-3.19-3.07-4.73a12.68,12.68,0,0,1-1.28-1.43,13.08,13.08,0,0,1-1.54-2.48c0-.12,0-.12-.13-.24-1-1.18-1.92-2.49-2.94-3.79s-2.18-2.6-3.33-3.79a92.7,92.7,0,0,0-6.92-7.1c-1.28.82-3.2.82-5.25-.24a14,14,0,0,1-6.66-9.36,34.93,34.93,0,0,0-3.58-2.25c-1.29-.83-2.44-1.42-3.72-2.13a37,37,0,0,0-3.84-1.89c-1.28-.6-2.56-1.07-3.72-1.54a14,14,0,0,1,3,4c2.31,4.5,1.54,8.65-1.54,9.36s-7.17-2.37-9.47-6.75c-1.92-3.79-1.67-7.58.64-8.88-.13,0-.26-.12-.39-.12l-1.66-.36a6.83,6.83,0,0,0-1.54-.23c-.38,0-.64-.12-1-.12a37.66,37.66,0,0,0-6.28-.24,7.16,7.16,0,0,0-1.66.12,8.16,8.16,0,0,0-1.8.24c-.51.11-.89.11-1.28.23h-.12c-.13.24-.39.36-.52.6-5.63,6-8.84,15-8.84,26.64C77.8,630.49,102,669,131.85,685c11.4,6,22,8,30.74,6.27h.13v-.11a.12.12,0,0,0,.13-.12c.51-.59,1-1.07,1.53-1.66l1.54-2.13c0-.12.13-.12.13-.24.38-.71.77-1.3,1.15-2a11.45,11.45,0,0,0,.9-1.78,23.66,23.66,0,0,0,1.28-3.08,6.59,6.59,0,0,0,.51-1.66,20.92,20.92,0,0,0,.9-3,1.46,1.46,0,0,0,.12-.71c.26-1.66.52-3.19.77-5v-.36A9.38,9.38,0,0,1,168.74,667.56ZM95,628.24c-3.59-.71-7.43-4.86-8.58-9.24s.89-7.46,4.48-6.75,7.3,4.74,8.45,9.24S98.55,629,95,628.24Zm4.48-29.13c-1,2.37-3.33,3-5.89,1.77a11.32,11.32,0,0,1-2.69-1.77c-3.59-3.08-5.64-8.29-4.48-11.49a3.49,3.49,0,0,1,3.07-2.25c1.66-.24,3.72.59,5.63,2.25C98.55,590.82,100.6,595.91,99.45,599.11Zm13.83,58c-2.18,2-6.4.47-9.47-3.56s-3.72-8.76-1.54-10.89,6.53-.48,9.47,3.55S115.46,655,113.28,657.14Zm18.57,21.2c-3.71-2-6.79-6.87-6.79-10.9,0-3.43,2.18-5.09,5.13-4.14a5.38,5.38,0,0,1,1.66.59,12.82,12.82,0,0,1,6.79,10.77C138.64,678.69,135.57,680.35,131.85,678.34Zm10.25-19.43c-3.84.6-8.58-.23-13.71-3a45.76,45.76,0,0,1-11-8.52c-.13-.12-.26-.24-.26-.36a52.7,52.7,0,0,1-10.88-17.41c-.13-.12-.13-.12-.13-.24a36,36,0,0,1-2.69-13.26c0-5.09,1.41-9.12,3.71-12,4.36-5.09,12.3-5.92,21.26-1.19,13.84,7.35,25,25.11,25,39.8C153.37,652,148.88,657.73,142.1,658.91Zm17.8,24.75a5.87,5.87,0,0,1-2.05,0c-2.56-.59-5.76-3.31-7.43-6.75a9.25,9.25,0,0,1-1-6.63,3.64,3.64,0,0,1,2.56-2.6c3.07-.71,7.3,2.25,9.48,6.63S163,683,159.9,683.66Z" />
    <path class="cls-62"
        d="M128.39,603c-9-4.73-16.9-3.9-21.26,1.19-2.3,2.84-3.71,6.87-3.71,12a36,36,0,0,0,2.69,13.26c0,.12,0,.12.13.24a52.7,52.7,0,0,0,10.88,17.41c0,.12.13.24.26.36a45.76,45.76,0,0,0,11,8.52c5.13,2.73,9.87,3.56,13.71,3,6.78-1.18,11.27-6.87,11.27-16.1C153.37,628.12,142.23,610.36,128.39,603Zm10.89,51.64a12.64,12.64,0,0,1-5.12-.36,18.17,18.17,0,0,1-9.22-2.48,36.66,36.66,0,0,1-10.76-9.24c-.13-.24-.39-.36-.39-.59a80.72,80.72,0,0,1-4.86-7.7A32.14,32.14,0,0,1,105.6,621a15.09,15.09,0,0,1,2.3-8.41,14.52,14.52,0,0,1,1.92-4.15c3.72-5,10.63-5.92,18.57-1.66,11.79,6.4,21.26,21.56,21.26,34.11C149.65,649.08,145.55,654.06,139.28,654.65Z" />
    <path class="cls-62"
        d="M149.65,640.91c0,8.17-4.1,13.15-10.37,13.74a12.64,12.64,0,0,1-5.12-.36,12.08,12.08,0,0,0,4.22-1.06c3.59-1.78,5.9-5.8,5.9-11.61,0-11.25-8.71-25.1-19.34-30.79-5.64-3-10.63-3.08-14.22-1a8.54,8.54,0,0,0-2.82,2.73,14.52,14.52,0,0,1,1.92-4.15c3.72-5,10.63-5.92,18.57-1.66C140.18,613.2,149.65,628.36,149.65,640.91Z" />
    <path class="cls-59"
        d="M149.65,640.91c0,8.17-4.1,13.15-10.37,13.74a12.64,12.64,0,0,1-5.12-.36,12.08,12.08,0,0,0,4.22-1.06c3.59-1.78,5.9-5.8,5.9-11.61,0-11.25-8.71-25.1-19.34-30.79-5.64-3-10.63-3.08-14.22-1a8.54,8.54,0,0,0-2.82,2.73,14.52,14.52,0,0,1,1.92-4.15c3.72-5,10.63-5.92,18.57-1.66C140.18,613.2,149.65,628.36,149.65,640.91Z" />
    <path class="cls-61"
        d="M144.28,641.62c0,5.81-2.31,9.83-5.9,11.61a12.08,12.08,0,0,1-4.22,1.06,18.17,18.17,0,0,1-9.22-2.48,36.66,36.66,0,0,1-10.76-9.24c-.13-.24-.39-.36-.39-.59a80.72,80.72,0,0,1-4.86-7.7A32.14,32.14,0,0,1,105.6,621a15.09,15.09,0,0,1,2.3-8.41,8.54,8.54,0,0,1,2.82-2.73c3.59-2.13,8.58-2,14.22,1C135.57,616.52,144.28,630.37,144.28,641.62Z" />
    <path class="cls-62"
        d="M137.1,591.65c-1.28.82-3.2.82-5.25-.24a14,14,0,0,1-6.66-9.36A109.07,109.07,0,0,1,137.1,591.65Z" />
    <path class="cls-62"
        d="M153.24,610.48a12.68,12.68,0,0,1-1.28-1.43,13.08,13.08,0,0,1-1.54-2.48C151.45,607.87,152.34,609.17,153.24,610.48Z" />
    <path class="cls-62"
        d="M168,639.85a14.09,14.09,0,0,1-3.59-6,7.89,7.89,0,0,1-.25-3.79c.64,1.3,1.15,2.6,1.66,3.9a27.46,27.46,0,0,1,1.28,3.44A20.72,20.72,0,0,1,168,639.85Z" />
    <path class="cls-62"
        d="M172.07,663.89a37.52,37.52,0,0,1-.39,5.56,9.38,9.38,0,0,1-2.94-1.89c-3.59-3.08-5.51-8.17-4.36-11.37,1-2.72,3.84-3.2,7.05-1.3V655A71.39,71.39,0,0,1,172.07,663.89Z" />
    <path class="cls-62"
        d="M159.9,683.66a5.87,5.87,0,0,1-2.05,0c-2.56-.59-5.76-3.31-7.43-6.75a9.25,9.25,0,0,1-1-6.63,3.64,3.64,0,0,1,2.56-2.6c3.07-.71,7.3,2.25,9.48,6.63S163,683,159.9,683.66Z" />
    <path class="cls-62"
        d="M138.64,674.66c0,4-3.07,5.69-6.79,3.68s-6.79-6.87-6.79-10.9c0-3.43,2.18-5.09,5.13-4.14a5.38,5.38,0,0,1,1.66.59,12.82,12.82,0,0,1,6.79,10.77Z" />
    <path class="cls-62"
        d="M113.28,657.14c-2.18,2-6.4.47-9.47-3.56s-3.72-8.76-1.54-10.89,6.53-.48,9.47,3.55S115.46,655,113.28,657.14Z" />
    <path class="cls-62"
        d="M95,628.24c-3.59-.71-7.43-4.86-8.58-9.24s.89-7.46,4.48-6.75,7.3,4.74,8.45,9.24S98.55,629,95,628.24Z" />
    <path class="cls-62"
        d="M99.45,599.11c-1,2.37-3.33,3-5.89,1.77a11.32,11.32,0,0,1-2.69-1.77c-3.59-3.08-5.64-8.29-4.48-11.49a3.49,3.49,0,0,1,3.07-2.25c1.66-.24,3.72.59,5.63,2.25C98.55,590.82,100.6,595.91,99.45,599.11Z" />
    <path class="cls-62"
        d="M111.74,587.62c-2.94.71-7.17-2.37-9.47-6.75-1.92-3.79-1.67-7.58.64-8.88H103a29.44,29.44,0,0,1,4.09,1.06c1,.36,2.05.71,3.2,1.19a14,14,0,0,1,3,4C115.59,582.76,114.82,586.91,111.74,587.62Z" />
    <path id="BODY" class="cls-14"
        d="M672.29,944.71l61.09,19.47a33.68,33.68,0,0,0,18.24,1.05c9.43-2.34,23.14-5.5,23.14-5.5s14.47-6.9,17.44-8.52,25.93-14.44,25.93-14.44L891,895l49.36-28.27,50.53-28.18s27.76-14.36,30-15.33S1029,820,1029,820s1.58-.78,2.25.29c0,0,11.14-11.09,15.68-17.41s8.25-12,9.71-15.6,3.94-9.78,4.08-16.91S1060,724,1060,724l-1.42-5.28-3.26-8.79-17.79-36.23a68.18,68.18,0,0,0-7.34-7.33c-3.32-2.63-26.37-20.37-26.37-20.37l-36.63-28.17-86-107.61-4.53-5.08-5.59-4.76L858.18,490,840,476.45l-19.76-13.54L798,448.6,779.26,437,754.1,421.7l-27.73-16.37L695.3,387.5l-34.47-19.18-27-14.45-21.62-10.69-10.4-5c-.32-.14-3.84-1.58-4.17-1.7s-3.18-1-3.18-1-5.94-1.17-6.6-1.1a11.76,11.76,0,0,1-1.61,1.75,13.17,13.17,0,0,1-3.54,2.09c-1.81.7-8,2.93-8,2.93l-20.18,7.32-20.07,8.59-21,10.26-33.72-2.45a3.52,3.52,0,0,0-.09-2,4.85,4.85,0,0,0-1.28-1.59s-1.66-.81-2.86-1.27-104.1-38.55-104.1-38.55L366,319.35l-6-2.43-8.43-3.65-4.08-2-2-1.26a2.32,2.32,0,0,1-.45-.43c-.1-.15-.15-.25-.13-.31a.72.72,0,0,1,.09-.18l-1.62-.56-2.28-.78-10.48-3.66s-6.47-2.18-9.59-2.87-4.8-1-5.06-1.07l-5.13-.8s-6.32-.65-7.81-.73-5.09-.25-5.27-.23-7.63.08-7.81.09l-5.42.21-13.55-.07-7.16-.11a29,29,0,0,0-5.95,1.11c-2.43.84-25.47,10.53-25.47,10.53l-36.25,16.68-34.22,16.77-23.45,11.9L116.75,369s-8.89,6.69-9.65,7.25S91.84,387,91.84,387L49.57,420.65s-4.22,8.39-5.18,13.18-1.55,7-.77,9.22l2.16,6.5,1.14,3.78a20.68,20.68,0,0,0,1.29,3.3c.57.92,2.25,2.67,2.35,2.84l-.75-.18-1.88,1.14a1.89,1.89,0,0,0-.4.35c-.09.16-.89,1.76-.89,1.76l-7.42,15L32.15,492,28,500.49a31.11,31.11,0,0,0,1.5,3.57L27.08,502a8,8,0,0,0-2.85,2.69c-.78,1.55-3.4,7.31-3.4,7.31l-2.49,6.84s-1.53,5.89-1.66,6.61-1.38,8.22-.87,11.48,1,7.79,3,10.77l2,3,3.55,2.88,23.77,18.3s1.65-5.17,2.07-7.22,2.07-4.83,3.11-6.62c.61-1.05,3-4.86,3.6-5.92s2.32-2.38,3.36-3.72,3.18-2.32,4.15-3.51,3.67-2.56,4.65-3.1,1.87-1,3.17-1.78,5.25-2.84,8.24-4.61,4.43-2.48,10-5.6a23,23,0,0,1,10.27-2.37c3.89-.14,10.66-.25,15.41,1a83,83,0,0,1,11.27,3.5c3.2,1.32,7.29,3.13,9.68,4.45s9.87,5.93,12,7.54,7.65,6,9.62,7.8,8.25,7.88,9.85,9.57,6.32,6.8,8,8.85,9.38,11.68,11.88,15.36,5.61,8.48,7,10.79,5.66,10.12,6.48,11.74,6.73,14.87,7.54,16.94,2.64,5,3,6.19,2.28,7.33,2.68,8.63,1.91,6.3,2.48,8.37,2.93,11.59,3.4,14.35.71,4.14.91,5.89,1,9.14,1,10.28,0,4.29-.08,5.09-.37,2.54-.49,3.05a44.36,44.36,0,0,1-1.63,4.6s1.79,1.3,2.52,1.8,2.76,1.71,3,1.84l3.73,2.16,11.14,6.43L521.94,865.33s1.46-17.46,2.88-22.92,1.52-7.2,3.83-12.39,2.91-6.64,4.38-9.08a58.78,58.78,0,0,1,6.13-8.48c1.77-1.8,7.3-6.73,11-8.63a73,73,0,0,1,9.11-4.11c2-.65,9.38-3,14.9-2.65s12.55,1.61,16.07,2.91,16.34,7.29,20.44,9.88,15.2,10.55,18.68,13.63,9.48,8.8,11.27,10.67,7.84,8.51,9.12,10.09,6.62,8.77,7.6,10.36a22.51,22.51,0,0,1,2.41,4.23c.33,1.17,4.5,19.13,6,22.95s3.72,19.64,4,21.63,1,7.74,1.37,11.38.74,8.5.88,11.86.32,8.88.32,11.48S672.29,944.71,672.29,944.71Z" />
    <path class="cls-121"
        d="M211,557.23l13.07-6.7,98-33.63s13.31-4.71,26.09,2,74.59,40.5,74.59,40.5l53,30.38,40.45,23.79,47.13,29.64s7.28,3.86,9.54,13.91,16.85,74.18,16.85,74.18,1.72,23.82.4,27.88-2.16,2-2.16,2Z" />
    <path class="cls-122"
        d="M56.35,434.1c.62,4.09,1.28,8.17,1.85,12.26.81,5.9,4.12,10.08,8.93,13.31,7.74,5.2,15.43,10.47,23.14,15.72,2.32,1.58,4.66,3.16,3.89,6.58l-6.42,1.78c-6.22-3.57-12.36-7.29-18.68-10.68-6.52-3.5-12.68-7.89-19.57-9.44-1.29.88-2.11,1.13-2.37,1.65Q37.34,485,27.67,504.84c-3-4.26-4.55-8.83-3.65-14.15.25-1.53-.43-3.22-.69-4.84,4-9.42,7.93-18.88,12.07-28.25a27.37,27.37,0,0,1,4.75-7.79C45.34,444.37,50.92,439.31,56.35,434.1Z" />
    <path class="cls-121"
        d="M196.76,549.26s10-16.55,17.35-23.49a39,39,0,0,1,10.58-15.44c.83-.74,8.29-11.82,13.31-15.32l17.84-17.76L283.53,457s21.47-13.86,23.82-15.56c10.14-7.36,36.4-20.74,36.4-20.74l37.37-19s30.28-19.33,46.46-20c2.53-.11,32.08-8.22,32.08-8.22L480,368.37l101.55-28.94-2.27,3.68s-33.79,11.55-35.66,13.65-23.47,10.86-25.8,12.49-58.26,32-58.26,32l-27.44,15.65-33.39,18.45-19.38,11.32s-17.78,12.07-18.1,12.31S347,470.28,344.73,471.78s-3.88,2.54-3.88,2.54-6,7.22-7.67,8.83-5,3.74-6.54,5.13a52.51,52.51,0,0,1-9.15,6.56c-3.31,1.67-7.6,3.19-9.23,3.89S277.44,513,277.44,513Z" />
    <path class="cls-121"
        d="M622.05,670s6.54-3.68,7.87-4.2,32.41-13.86,32.41-13.86l34.12-16.51,36.09-17.7,45.53-24.07s35.95-23.4,37-24.17,54.64-41.22,54.64-41.22l10.7-7.32,3.9,3.12,27.1,32,27.4,33.58,25.51,30.48-5.48,15.52-8.09,7.09-29.67,26.65L909,678.13,879.08,700.7l-39,21.55-37.67,18-90.19,36.68-23.57,6.44Z" />
    <path class="cls-123"
        d="M762,950.55c-5.64-3.37-2.18-10.68,7.74-16.32s22.52-7.47,28.16-4.1,2.18,10.67-7.73,16.3S767.65,953.92,762,950.55Z" />
    <path class="cls-123"
        d="M1016.11,800.34c-5.92-2.84-3.13-10.43,6.24-17s21.74-9.48,27.66-6.63,3.15,10.42-6.21,16.94S1022,803.19,1016.11,800.34Z" />
    <path class="cls-124"
        d="M184.84,581l17.25-8.86a7,7,0,0,0,3.74-6.2V553.38a6.54,6.54,0,0,0-9.49-6l-17.27,8.8a7,7,0,0,0-3.76,6.21V575A6.55,6.55,0,0,0,184.84,581Z" />
    <path class="cls-125"
        d="M182.52,575.89c3.79,1.55,10.48-2.75,13.74-4.57,2.34-1.31,4-3.14,4-6.11,0,0,1.35-11.57-.81-12.72-3.58-1.91-14.42,5.08-14.42,5.08a8.35,8.35,0,0,0-4.43,6.84C180.41,567.32,180.43,575,182.52,575.89Z" />
    <path class="cls-126"
        d="M740.33,850.13c9.89,34.4,9.89,46.51,9.89,46.51a41.21,41.21,0,0,1-11.58-3.28C712.78,882.19,659,853.62,659,853.62s-11.78-7.56-19.9-15.88c-12.06-12.38-25.93-22.91-41.73-30.23-11.41-5.28-23.43-8.2-36.23-4.33-10.25,3.1-18.88,8.34-25.48,16.81-3.81-2.92-7.39-6.24-11.48-8.69-11.55-6.92-23.33-13.48-35-20.2q-37.26-21.47-74.52-42.94-31.43-18.1-62.88-36.15c-15-8.63-29.87-17.36-44.85-26-17.67-10.15-35.4-20.19-53.09-30.3-10.8-6.17-21.54-12.43-32.37-18.55-2.95-1.67-6-3.81-9.66-1.82a39,39,0,0,1-2.41-4.56c-10.69-28.26-23.22-60.81-68.13-92.25-10.87-7.13-26.66-12.48-40.52-11.85-8.51-2.51-28.37,17.41-36.94,18.68-3.55,2.93-14.16,14.9-15.69,26.41-9-7-28-22-28-22C9.93,534,21.63,510.18,21.63,510.18c2.93-7.1,4.59-7.66,4.59-7.66l1.45,2.32c6.47-13.19,12.49-26.4,19-39.57.26-.52,1.08-.77,2.37-1.65,6.89,1.54,13.05,5.94,19.57,9.44,6.32,3.39,12.46,7.11,18.68,10.68,6.28,4.21,12.41,8.68,18.88,12.59,34.56,20.84,69.23,41.53,103.8,62.35,2.9,1.75,465.32,251.81,481.51,260.39,15.88,8.42,31.61,17.11,47.47,25.55ZM20.15,549.76" />
    <path class="cls-126"
        d="M750.22,896.64c-1.24-3.86-.54-7.75-1.56-11.67-3.52-13.47-4.9-21.35-8.33-34.84,7.73-3,51.58-21.25,59.15-24.56,16.44-7.17,32.72-14.71,49.08-22.06,17.31-7.77,34.68-15.4,51.93-23.31,4.66-2.13,10.6-6.4,14.76-9.38,26.1-18.67,54.22-39.72,80.15-58.63,10-9,13.38-11.45,24.11-21.17,1.61-1.76,10.28-10.83,17.28-12.95,0,0,20.39,39.19,21,45-1.72,2.11-10.72,17.52-12.63,19.44L942.93,832.2c-3,1.46-132,49.42-149,53.7C790.35,886.81,756.91,897.89,750.22,896.64Z" />
    <path class="cls-126"
        d="M212,635.4c3.71-2,6.71.14,9.66,1.81,10.83,6.12,21.57,12.38,32.37,18.55,17.69,10.11,35.42,20.15,53.1,30.3,15,8.6,29.87,17.33,44.84,26q31.42,18.11,62.89,36.15,37.26,21.45,74.51,42.94c11.68,6.72,23.45,13.28,35,20.2,4.1,2.45,7.67,5.77,11.48,8.7-10.51,14.89-13.62,31.94-14.45,49.65q-31.81-18.39-63.62-36.79Q434.5,819.42,411.16,806q-31.86-18.31-63.7-36.65-28.71-16.53-57.41-33-32.74-18.87-65.45-37.76c-1.49-.86-2.84-2-4.26-2.93,3.42-6.89,2.14-14.12,1.37-21.26C220.27,661,216,648.21,212,635.4Z" />
    <path class="cls-126"
        d="M1038.62,816.35l-8.09,8.3C1030.3,814.31,788.26,961.11,774,964.07c-7.76,1.61-15.45,3.59-23.14,5.5a31.84,31.84,0,0,1-18.24-1.05c-20.29-6.71-40.72-13-61.09-19.48a262.75,262.75,0,0,0-9.65-75.45c-1.63-6-3.35-11.88-5-17.83l2.15-2.14c7.49,3.47,14,7.33,21.31,11.06,19.11,9.87,29.55,15.47,55.41,27.31,10.84,5.55,21.71,6.29,32.44-.39.29-.18.57-.38.86-.58,4-1,8.1-1.73,12-3q36.88-12.15,73.68-24.57c7.5-2.55,14.86-5.58,22.15-8.72q29.93-12.91,59.72-26.17a51.27,51.27,0,0,0,9.74-5.74c14.36-10.75,28.46-21.85,42.92-32.46a273.58,273.58,0,0,0,31.22-27.09,379.31,379.31,0,0,0,32.45-36.14c1.14-1.47,2.93-2.42,4.92-4,2.57,5.33.94,10.3,2,14.88.1,12.38.6,24.77.19,37.14-.35,10.57-5,19.88-11,28.42C1045.86,808,1042.1,812.09,1038.62,816.35Z" />
    <polygon class="cls-126"
        points="385.07 653.5 404.54 664.26 452.07 574.05 428.79 564.32 385.07 653.5" />
</svg>