<svg xmlns="http://www.w3.org/2000/svg" xmlns:xlink="http://www.w3.org/1999/xlink"
    viewBox="0 0 1080 1350">
    <defs>
        <style>
            .cls-1{isolation:isolate;}.cls-2{fill:#1e1e1e;}.cls-3{fill:url(#linear-gradient);}.cls-4{fill:url(#linear-gradient-2);}.cls-5{fill:url(#linear-gradient-3);}.cls-6{fill:#504f59;}.cls-7{fill:#c6c4e6;}.cls-8{fill:#8e8f98;}.cls-9{fill:#8c8d96;}.cls-10{fill:url(#linear-gradient-4);}.cls-11{fill:#2d2c38;}.cls-12{fill:url(#linear-gradient-5);}.cls-13{fill:url(#linear-gradient-6);}.cls-14{fill:#c4c2c1;}.cls-15{fill:#353535;opacity:0.29;}.cls-16{fill:#3d4b4d;}.cls-17{fill:#fa0302;}.cls-18{fill:#1d232a;}.cls-19{fill:#9fa6aa;}.cls-20{fill:#363f47;}.cls-21{fill:#2b1f2c;}.cls-22{fill:#696b6f;}.cls-23{fill:#979cbd;}.cls-24{fill:#f6ece6;}.cls-25{fill:#eb670f;}.cls-26{fill:#e7e2de;mix-blend-mode:multiply;}.cls-27{fill:#eb6d00;}.cls-28{fill:#fb8f04;}</style>
        <linearGradient id="linear-gradient" x1="-4570.8" y1="1457.71" x2="-4620.91" y2="1370.92"
            gradientTransform="matrix(0.73, -0.16, 0.15, 0.94, 3387.41, -1324.05)"
            gradientUnits="userSpaceOnUse">
            <stop offset="0" stop-color="#181818" />
            <stop offset="0.27" stop-color="#262626" />
            <stop offset="0.77" stop-color="#2e2e2e" />
        </linearGradient>
        <linearGradient id="linear-gradient-2" x1="-4662.04" y1="1465.9" x2="-4616.73" y2="1387.42"
            gradientTransform="matrix(0.73, -0.16, 0.15, 0.94, 3387.41, -1324.05)"
            gradientUnits="userSpaceOnUse">
            <stop offset="0" stop-color="#141414" />
            <stop offset="0.44" stop-color="#1e1e1e" />
            <stop offset="0.78" stop-color="#202020" />
            <stop offset="0.98" stop-color="#292929" />
            <stop offset="1" stop-color="#2a2a2a" />
        </linearGradient>
        <linearGradient id="linear-gradient-3" x1="-4665.32" y1="1464.37" x2="-4621.73" y2="1388.88"
            gradientTransform="matrix(0.73, -0.16, 0.15, 0.94, 3387.41, -1324.05)"
            gradientUnits="userSpaceOnUse">
            <stop offset="0" stop-color="#161616" />
            <stop offset="0.3" stop-color="#1a1a1a" />
            <stop offset="0.79" stop-color="#1e1e1e" />
            <stop offset="0.8" stop-color="#1e1e1e" />
        </linearGradient>
        <linearGradient id="linear-gradient-4" x1="-4019.79" y1="1725.87" x2="-4073.73" y2="1632.44"
            xlink:href="#linear-gradient" />
        <linearGradient id="linear-gradient-5" x1="-4115.54" y1="1732.01" x2="-4068.48" y2="1650.51"
            xlink:href="#linear-gradient-2" />
        <linearGradient id="linear-gradient-6" x1="-4116.54" y1="1730.62" x2="-4071.28" y2="1652.22"
            xlink:href="#linear-gradient-3" />
    </defs>
    <g class="cls-1">
        <g id="Capa_1" data-name="Capa 1">
            <polygon class="cls-2"
                points="178.79 744.56 220.08 723.18 339.11 772.67 605.83 907.72 653.45 883.4 768.21 935.2 804.85 769.97 206.46 597.32 178.79 744.56" />
            <path class="cls-3"
                d="M290.79,758.73c10.52-20.23,2.86-42.59-17-49.94-10.48-3.87-22.28-2.81-32.62,2l-34.3,14.58,7.69,19.79c-1.82,12.52,2.75,24.47,12.38,31.82l6.84,17.59,30.41-12.9a52,52,0,0,0,5.51-2.34h0A48.05,48.05,0,0,0,290.79,758.73Z" />
            <path class="cls-4"
                d="M256.64,773.16c-10.56,20.26-35.23,30.58-55,23.05s-27.1-29.88-16.55-50,35-30.38,54.73-23S267.17,752.93,256.64,773.16Z" />
            <path class="cls-5"
                d="M252.25,773.28c-10.16,19.48-33.89,29.41-52.92,22.18s-26.06-28.75-15.91-48.09,33.67-29.21,52.64-22.15S262.38,753.83,252.25,773.28Z" />
            <path class="cls-6"
                d="M244.57,769.56c-7.33,14.05-24.45,21.23-38.19,16s-18.86-20.74-11.53-34.72,24.34-21.13,38.05-16S251.9,755.52,244.57,769.56Z" />
            <path class="cls-7"
                d="M243.3,768.14c-6.64,12.73-22.15,19.23-34.6,14.51s-17.09-18.79-10.45-31.46,22.05-19.15,34.48-14.5S249.94,755.42,243.3,768.14Z" />
            <path class="cls-7"
                d="M241,767.29c-6,11.44-19.92,17.29-31.12,13.05s-15.38-16.91-9.41-28.3,19.84-17.23,31-13a20.18,20.18,0,0,1,2.89,1.36c8.06,4.6,11.33,14.21,8,23.63A23.8,23.8,0,0,1,241,767.29Z" />
            <path class="cls-8"
                d="M221.63,774.69c-10.6-4-14.59-16-8.94-26.79a25.65,25.65,0,0,1,9.85-10.22,27.17,27.17,0,0,0-22,14.36c-6,11.39-1.77,24.07,9.41,28.3,8.16,3.09,17.77.82,24.71-5.07A21.71,21.71,0,0,1,221.63,774.69Z" />
            <path class="cls-9"
                d="M240.58,765.43c-3.67,7-12.22,10.61-19.1,8s-9.46-10.38-5.8-17.38,12.19-10.58,19.06-8S244.24,758.42,240.58,765.43Z" />
            <path class="cls-8"
                d="M242.46,764a15.26,15.26,0,0,1-14.21,2.37c-6.87-2.59-9.47-10.36-5.81-17.36a16.7,16.7,0,0,1,12-8.64C242.48,745,245.75,754.56,242.46,764Z" />
            <polygon class="cls-8"
                points="230.12 741.69 215.8 747.77 225.23 771.76 239.39 765.78 238.38 753.29 230.12 741.69" />
            <path class="cls-8"
                d="M233.17,764.33c-3.66,7-12.21,10.6-19.08,8S204.65,762,208.31,755s12.18-10.58,19.05-8S236.84,757.32,233.17,764.33Z" />
            <path class="cls-7"
                d="M231.73,764.32c-3.5,6.71-11.67,10.14-18.24,7.66s-9-9.91-5.53-16.6,11.65-10.12,18.21-7.66S235.23,757.62,231.73,764.32Z" />
            <path class="cls-10"
                d="M732.21,921.51c10.52-21.19,1.53-44.8-20-52.74a45.53,45.53,0,0,0-32.91,1h0l-.24.1L642.55,885l-8.13,16.23,36.13,58.28,34.54-14.27q2.35-.84,4.64-1.92h0A47.9,47.9,0,0,0,732.21,921.51Z" />
            <path class="cls-11"
                d="M696.2,936.34c-10.57,21.22-36.58,31.84-58,23.71s-30-31.74-19.46-52.79,36.33-31.61,57.68-23.68S706.74,915.16,696.2,936.34Z" />
            <path class="cls-12"
                d="M696.2,936.34c-10.57,21.22-36.58,31.84-58,23.71s-30-31.74-19.46-52.79,36.33-31.61,57.68-23.68S706.74,915.16,696.2,936.34Z" />
            <path class="cls-13"
                d="M693.36,936.25c-10.17,20.41-35.18,30.62-55.79,22.8s-28.88-30.53-18.72-50.78,34.95-30.41,55.49-22.77S703.5,915.87,693.36,936.25Z" />
            <path class="cls-6"
                d="M683.17,932.43c-7.33,14.72-25.38,22.09-40.26,16.46s-20.89-22-13.55-36.67,25.26-22,40.11-16.45S690.5,917.73,683.17,932.43Z" />
            <path class="cls-7"
                d="M681.77,930.92c-6.65,13.34-23,20-36.48,14.92s-18.94-20-12.29-33.22,22.9-19.93,36.35-14.91S688.41,917.6,681.77,930.92Z" />
            <path class="cls-8"
                d="M678.71,929.77c-5.82,11.67-20.12,17.51-31.91,13.06S630.22,925.37,636,913.76s20-17.44,31.81-13S684.52,918.12,678.71,929.77Z" />
            <path class="cls-7"
                d="M676.06,928.78c-5.1,10.22-17.63,15.34-28,11.44s-14.53-15.3-9.44-25.48,17.57-15.28,27.89-11.43S681.15,918.57,676.06,928.78Z" />
            <path class="cls-8"
                d="M666,927.35c-3,6.1-10.52,9.16-16.7,6.84s-8.69-9.14-5.64-15.23,10.51-9.15,16.67-6.84S669,921.25,666,927.35Z" />
            <path class="cls-6"
                d="M643.94,923.21a8.35,8.35,0,0,0,2.28,6.61,2.07,2.07,0,0,1,0,2.73h0a2.09,2.09,0,0,1-3.06-.33,13.08,13.08,0,0,1-3-8.76,2.25,2.25,0,0,1,2.14-2.35h0A2,2,0,0,1,643.94,923.21Z" />
            <path class="cls-7"
                d="M662.93,927.07a12.12,12.12,0,0,1-14.71,6c-5.43-2-7.65-8.05-5-13.41a12.12,12.12,0,0,1,14.68-6C663.37,915.7,665.61,921.7,662.93,927.07Z" />
            <path class="cls-8"
                d="M658.43,925.38a6.59,6.59,0,0,1-8,3.27,5.11,5.11,0,0,1-2.7-7.28,6.58,6.58,0,0,1,8-3.27A5.12,5.12,0,0,1,658.43,925.38Z" />
            <path class="cls-6"
                d="M670.74,920.29a8.36,8.36,0,0,0-2.3-6.61,2.06,2.06,0,0,1,0-2.72h0a2.09,2.09,0,0,1,3.07.32,13.1,13.1,0,0,1,3,8.76,2.24,2.24,0,0,1-2.14,2.35h0A2,2,0,0,1,670.74,920.29Z" />
            <path class="cls-6"
                d="M657.6,934.37a11.24,11.24,0,0,0,7.24-2.8,2.41,2.41,0,0,1,2.9-.28h0c.76.61.55,2-.63,3a17.73,17.73,0,0,1-9.6,3.73c-1.47.1-2.5-.84-2.29-1.83h0A2.56,2.56,0,0,1,657.6,934.37Z" />
            <path class="cls-6"
                d="M657.06,909.15a11.28,11.28,0,0,0-7.22,2.81,2.43,2.43,0,0,1-2.89.28h0c-.76-.61-.55-2,.63-2.94a17.72,17.72,0,0,1,9.58-3.73c1.46-.1,2.49.83,2.28,1.81h0A2.56,2.56,0,0,1,657.06,909.15Z" />
            <path class="cls-8"
                d="M644.73,931.14a13.08,13.08,0,0,1-3-8.76,2.61,2.61,0,0,1,.37-1.23,2.28,2.28,0,0,0-1.92,2.31,13.08,13.08,0,0,0,3,8.76,2.09,2.09,0,0,0,3.06.33c.15-.17.13-.39.21-.58A2.25,2.25,0,0,1,644.73,931.14Z" />
            <path class="cls-8"
                d="M674,921.31a2,2,0,0,1-1.65-2.1,8.43,8.43,0,0,0-2.3-6.61,2,2,0,0,1-.24-2.15,1.73,1.73,0,0,0-1.34.51,2.07,2.07,0,0,0,0,2.73,8.33,8.33,0,0,1,2.3,6.6,1.79,1.79,0,0,0,3.43,1C674.1,921.27,674,921.31,674,921.31Z" />
            <path class="cls-8"
                d="M659.06,936.88c-1.47.11-2.5-.83-2.29-1.82.05-.21.25-.34.37-.52a2.4,2.4,0,0,0-1.92,1.6c-.21,1,.82,1.93,2.29,1.83a17.73,17.73,0,0,0,9.6-3.73s0,0,.06-.07A17.69,17.69,0,0,1,659.06,936.88Z" />
            <path class="cls-8"
                d="M648.5,911.16c-.74-.59-.54-1.95.57-2.87a13.86,13.86,0,0,0-1.49,1c-1.18.92-1.39,2.33-.63,2.94a2.43,2.43,0,0,0,2.89-.28c.51-.4,1-.71,1.42-1A2.35,2.35,0,0,1,648.5,911.16Z" />
            <path class="cls-8"
                d="M658.61,908.07a11.12,11.12,0,0,0-6.94,2.62,11,11,0,0,1,5.39-1.54,2.63,2.63,0,0,0,2-1.24A2.51,2.51,0,0,1,658.61,908.07Z" />
            <path id="body" class="cls-14"
                d="M1048.7,891.81s-80.26,62-179.54,92.45l-59.69-8.78L689,932.24l15.13-33.74s-2.71-14.24-3.11-15.82-1.63-5.61-6.84-8.93-36.62-13.48-36.62-13.48-7.44-1-8.5-.92-7.54,2.84-7.54,2.84l-13.3,8-7.92,7.32L605.6,907.66,253.71,771.22l15.51-26.34s2.87-6.33,2-10.4-1.73-12.13-1.73-12.13a16.39,16.39,0,0,0-9.87-11.21c-8.18-3.07-33-11.86-33-11.86s-8.18.1-12.05,2.38L202,709.08s-5.44,3.55-7.91,8.15l-14,26.12L19.59,686.2,89.45,453.52,278,396.68l781.77,302.19-1.2,13.6.36,14.46,1.44,11.5V825Z" />
            <path id="body-2" data-name="body" class="cls-15"
                d="M1048.7,891.81s-80.26,62-179.54,92.45l-59.69-8.78L689,932.24l15.13-33.74s-2.71-14.24-3.11-15.82-1.63-5.61-6.84-8.93-36.62-13.48-36.62-13.48-7.44-1-8.5-.92-7.54,2.84-7.54,2.84l-13.3,8-7.92,7.32L605.6,907.66,253.71,771.22l15.51-26.34s2.87-6.33,2-10.4-1.73-12.13-1.73-12.13a16.39,16.39,0,0,0-9.87-11.21c-8.18-3.07-33-11.86-33-11.86s-8.18.1-12.05,2.38L202,709.08s-5.44,3.55-7.91,8.15l-14,26.12L19.59,686.2,89.45,453.52l808,297,162.32-51.64-1.2,13.6.36,14.46,1.44,11.5V825Z" />
            <path class="cls-16"
                d="M1058.61,713l.36,14.46,1.44,11.5s-89.82,50.57-110.11,56.61c0,0-13.15,2.66-14.91,5.77s-32.14,78.57-33.34,81c-.41.85,1,.77,3,.35,3.88-.78,10.22-2.76,11.9-2,2.58,1.11,6,6.75,14.62,5.84-6,2.13-11.36,4-16.12,5.61l-1.57.53-1.52.51-3,1-2.63.87-1.28.41c-9.13,3-16.92,4.74-16.92,4.74l1.91-7.23,1.8-10.69,17.69-133,149.82-49.81h0Z" />
            <path class="cls-17"
                d="M902.46,959.86c-.88,3.35-5.69,7.47-10.74,9.19-3.5,1.17-6.18.91-7.24-.48v0a2.81,2.81,0,0,1-.32-2.48c.89-3.37,5.69-7.49,10.75-9.2a11.48,11.48,0,0,1,4.67-.7C901.85,956.38,903,957.7,902.46,959.86Z" />
            <path class="cls-18"
                d="M1060.41,825.52c-70,33.54-170.3,78.7-170.3,78.7l13.94-107,156.36-58.27Z" />
            <polygon class="cls-19"
                points="608.44 902.03 257.05 765.56 253.71 771.22 605.83 907.72 608.44 902.03" />
            <path class="cls-19"
                d="M794.34,962.22,691.42,927.09l-2.4,5.15L809.47,976l59.69,8.78s18.35-63.85,19.92-73.3l15.68-109.59-1.23-4.12L884.92,918l-18.37,58.53Z" />
            <path class="cls-19"
                d="M54,698.44l.81.29,124,45.87c.88.34,1.8-.37,2-1.58l.78-3.86a2.43,2.43,0,0,0-1.15-2.78L57.79,689.67c-.88-.34-1.79.36-2,1.56Z" />
            <polygon class="cls-20"
                points="69.06 599.31 97.23 467.41 890.58 762.81 871.28 888.6 69.06 599.31" />
            <polygon class="cls-20"
                points="385.5 802.09 482.15 839.28 522.31 642.23 425.84 603.62 385.5 802.09" />
            <polygon class="cls-20"
                points="66.45 681.34 163.09 718.53 203.25 521.49 106.79 482.88 66.45 681.34" />
            <path class="cls-21"
                d="M425.17,600.71l98.78,39L483.27,839.34l-99.41-38Zm95.55,40.42-94.4-38.32L385.53,800.26l95.55,35.3Z" />
            <path class="cls-21"
                d="M105.81,482.88l99.08,37.48L164.21,720,64.8,682Zm95.2,40L107.79,486.6,66.47,680.94,162,716.24Z" />
            <polygon class="cls-20"
                points="711.13 904.75 803.74 935.96 831.74 746.75 740.2 714.19 711.13 904.75" />
            <path class="cls-21"
                d="M739.08,712.46,833.22,746,804.86,937.68l-95.26-32.1Zm91.18,35.08-88.94-31.62-28.67,188,90,30.33Z" />
            <polygon class="cls-18"
                points="822.01 863.92 865.76 878.98 881.49 770.85 838.02 755.42 822.01 863.92" />
            <polygon class="cls-18"
                points="507.14 752.7 593.01 782.85 615.56 674.39 530.1 642.75 507.14 752.7" />
            <polygon class="cls-18"
                points="303.15 673.67 389.02 703.82 411.58 595.36 326.12 563.73 303.15 673.67" />
            <polygon class="cls-18"
                points="197.15 640.6 283.02 670.76 305.57 562.29 220.11 530.66 197.15 640.6" />
            <polygon class="cls-18"
                points="404.41 737.89 441.67 751.45 467.2 627.86 429.11 612.98 404.41 737.89" />
            <polygon class="cls-18"
                points="451.61 755.76 488.88 769.32 514.4 645.73 476.31 630.86 451.61 755.76" />
            <polygon class="cls-18"
                points="391.77 792.06 428.3 805.23 439.11 761.35 402.35 747.68 391.77 792.06" />
            <polygon class="cls-18"
                points="439.11 809.46 475.63 822.64 486.45 778.75 449.69 765.09 439.11 809.46" />
            <polygon class="cls-18"
                points="87.65 615.41 124.91 628.97 150.29 506.07 112.2 491.25 87.65 615.41" />
            <polygon class="cls-18"
                points="134.85 633.29 172.12 646.85 197.64 523.26 159.32 509.54 134.85 633.29" />
            <polygon class="cls-18"
                points="75.02 669.58 112.83 683.22 122.35 638.87 85.59 625.21 75.02 669.58" />
            <polygon class="cls-18"
                points="122.35 686.99 160.38 700.71 169.69 656.28 132.93 642.61 122.35 686.99" />
            <polygon class="cls-18"
                points="773.14 854.65 809.35 867.09 826.67 750.17 790.72 737.4 773.14 854.65" />
            <polygon class="cls-18"
                points="764.72 910.75 801.06 923.04 807.36 880.52 771.12 868.11 764.72 910.75" />
            <polygon class="cls-18"
                points="725.91 838.42 762.44 850.97 780.1 733.63 743.84 720.75 725.91 838.42" />
            <polygon class="cls-18"
                points="717.33 894.73 753.99 907.12 760.41 864.45 723.85 851.93 717.33 894.73" />
            <polygon class="cls-22"
                points="384.6 823.74 472.75 857.22 472.02 861.12 383.85 827.66 384.6 823.74" />
            <polygon class="cls-22"
                points="68.23 697.76 161.71 733.26 160.9 737.25 67.39 701.77 68.23 697.76" />
            <polygon class="cls-22"
                points="716.17 902.39 799.93 930.65 799.36 934.48 715.58 906.25 716.17 902.39" />
            <path class="cls-19"
                d="M275.51,758a3.68,3.68,0,0,0,2.43,3.86c1.65.63,3.22-.08,3.52-1.59a3.7,3.7,0,0,0-2.44-3.86C277.38,755.79,275.8,756.5,275.51,758Z" />
            <path class="cls-23"
                d="M275.45,756.53a3.68,3.68,0,0,0,2.44,3.87c1.64.63,3.21-.09,3.51-1.59A3.68,3.68,0,0,0,279,755C277.32,754.32,275.75,755,275.45,756.53Z" />
            <path class="cls-24"
                d="M276,757.31a3.7,3.7,0,0,0,2.44,3.86c1.64.63,3.22-.08,3.51-1.59a3.68,3.68,0,0,0-2.43-3.86C277.86,755.09,276.29,755.8,276,757.31Z" />
            <path class="cls-25"
                d="M276.44,757.48a3.14,3.14,0,0,0,2.07,3.28,2.07,2.07,0,0,0,3-1.35,3.12,3.12,0,0,0-2.07-3.28A2.08,2.08,0,0,0,276.44,757.48Z" />
            <path class="cls-19"
                d="M342.66,782.31a3.65,3.65,0,0,0,2.41,3.83c1.62.62,3.17-.09,3.46-1.59a3.67,3.67,0,0,0-2.41-3.83C344.5,780.1,343,780.81,342.66,782.31Z" />
            <path class="cls-23"
                d="M342.6,780.85a3.67,3.67,0,0,0,2.41,3.83c1.62.62,3.17-.09,3.46-1.59a3.66,3.66,0,0,0-2.41-3.83C344.44,778.64,342.89,779.35,342.6,780.85Z" />
            <path class="cls-24"
                d="M343.14,781.61a3.67,3.67,0,0,0,2.41,3.84,2.41,2.41,0,0,0,3.46-1.59A3.67,3.67,0,0,0,346.6,780C345,779.4,343.43,780.11,343.14,781.61Z" />
            <path class="cls-25"
                d="M343.58,781.78a3.13,3.13,0,0,0,2.05,3.26,2,2,0,0,0,2.93-1.35,3.12,3.12,0,0,0-2-3.26A2.05,2.05,0,0,0,343.58,781.78Z" />
            <path class="cls-19"
                d="M514.73,844.17a3.62,3.62,0,0,0,2.35,3.77,2.32,2.32,0,0,0,3.33-1.59,3.62,3.62,0,0,0-2.34-3.77A2.33,2.33,0,0,0,514.73,844.17Z" />
            <path class="cls-23"
                d="M514.66,842.73a3.61,3.61,0,0,0,2.35,3.76,2.33,2.33,0,0,0,3.34-1.59,3.62,3.62,0,0,0-2.35-3.76A2.33,2.33,0,0,0,514.66,842.73Z" />
            <path class="cls-24"
                d="M515.19,843.48a3.62,3.62,0,0,0,2.35,3.77,2.32,2.32,0,0,0,3.33-1.59,3.62,3.62,0,0,0-2.34-3.77A2.33,2.33,0,0,0,515.19,843.48Z" />
            <path class="cls-25"
                d="M515.17,843.88a3.06,3.06,0,0,0,2,3.19,2,2,0,0,0,2.83-1.35,3.07,3.07,0,0,0-2-3.19A2,2,0,0,0,515.17,843.88Z" />
            <path class="cls-19"
                d="M595,876.11a3.59,3.59,0,0,0,2.32,3.74,2.29,2.29,0,0,0,3.28-1.6,3.58,3.58,0,0,0-2.32-3.73A2.28,2.28,0,0,0,595,876.11Z" />
            <path class="cls-23"
                d="M594.89,874.68a3.6,3.6,0,0,0,2.32,3.73,2.28,2.28,0,0,0,3.28-1.59,3.57,3.57,0,0,0-2.32-3.73A2.29,2.29,0,0,0,594.89,874.68Z" />
            <path class="cls-24"
                d="M595.41,875.43a3.6,3.6,0,0,0,2.32,3.73,2.28,2.28,0,0,0,3.28-1.59,3.57,3.57,0,0,0-2.32-3.73A2.28,2.28,0,0,0,595.41,875.43Z" />
            <path class="cls-25"
                d="M595.84,875.59a3,3,0,0,0,2,3.16,1.94,1.94,0,0,0,2.79-1.35,3,3,0,0,0-2-3.16A1.93,1.93,0,0,0,595.84,875.59Z" />
            <path class="cls-19"
                d="M831.48,966.15a3.52,3.52,0,0,0,2.25,3.64,2.17,2.17,0,0,0,3.12-1.59,3.53,3.53,0,0,0-2.24-3.64A2.19,2.19,0,0,0,831.48,966.15Z" />
            <path class="cls-23"
                d="M831.41,964.74a3.53,3.53,0,0,0,2.24,3.65,2.18,2.18,0,0,0,3.12-1.59,3.5,3.5,0,0,0-2.24-3.64A2.17,2.17,0,0,0,831.41,964.74Z" />
            <path class="cls-24"
                d="M831.91,965.47a3.51,3.51,0,0,0,2.24,3.64,2.17,2.17,0,0,0,3.12-1.59,3.52,3.52,0,0,0-2.24-3.64A2.18,2.18,0,0,0,831.91,965.47Z" />
            <path class="cls-25"
                d="M832.32,965.63a3,3,0,0,0,1.9,3.09,1.86,1.86,0,0,0,2.65-1.35,3,3,0,0,0-1.9-3.09A1.84,1.84,0,0,0,832.32,965.63Z" />
            <polygon class="cls-26"
                points="188.37 457.99 181.02 455.5 189.55 451.9 193.51 457.44 188.37 457.99" />
            <polygon class="cls-27"
                points="193.51 457.44 202.04 453.84 203.2 451.47 194.66 455.08 193.51 457.44" />
            <polygon class="cls-28"
                points="194.66 455.08 187.31 452.58 195.83 448.98 203.2 451.47 194.66 455.08" />
            <polygon class="cls-25"
                points="194.66 455.08 187.31 452.58 186.15 454.95 193.51 457.44 194.66 455.08" />
            <polygon class="cls-26"
                points="231.07 439.95 223.69 437.47 232.23 433.86 236.23 439.4 231.07 439.95" />
            <polygon class="cls-27"
                points="236.23 439.4 244.78 435.79 245.93 433.42 237.38 437.03 236.23 439.4" />
            <polygon class="cls-28"
                points="237.38 437.03 229.99 434.55 238.53 430.94 245.93 433.42 237.38 437.03" />
            <polygon class="cls-25"
                points="237.38 437.03 229.99 434.55 228.84 436.92 236.23 439.4 237.38 437.03" />
            <polygon class="cls-26"
                points="273.88 421.87 266.46 419.39 275.03 415.77 279.05 421.31 273.88 421.87" />
            <polygon class="cls-27"
                points="279.05 421.31 287.63 417.69 288.78 415.32 280.2 418.94 279.05 421.31" />
            <polygon class="cls-28"
                points="280.2 418.94 272.77 416.47 281.34 412.85 288.78 415.32 280.2 418.94" />
            <polygon class="cls-25"
                points="280.2 418.94 272.77 416.47 271.63 418.83 279.05 421.31 280.2 418.94" />
            <polygon class="cls-16"
                points="76.37 489.09 82.85 468.17 89.45 454.01 103.52 459.07 89.64 500.55 76.37 489.09" />
            <polygon class="cls-18"
                points="58.05 652.15 30.24 643.06 47.6 582 76.37 489.09 91.11 501.13 58.05 652.15" />
            <path class="cls-16"
                d="M48.3,695,20.37,683.38s8.27-37.55,9.87-40.32S58,652.15,58,652.15Z" />
            <polyline class="cls-16" points="89.64 500.55 91.11 501.13 103.52 459.07" />
            <path class="cls-17"
                d="M1045.27,884.28c-1.5,3.51-7,8.16-12.33,10.37-3.69,1.52-6.29,1.5-7.07.17v0a2.86,2.86,0,0,1,.16-2.51c1.51-3.52,7-8.17,12.35-10.38a12.63,12.63,0,0,1,4.74-1.14C1045.33,880.78,1046.24,882,1045.27,884.28Z" />
            <polygon class="cls-18"
                points="612.34 790.25 698.2 820.44 720.76 711.94 635.01 681.69 612.34 790.25" />
        </g>
    </g>
</svg>