<svg id="Capa_1" data-name="Capa 1" xmlns="http://www.w3.org/2000/svg"
    xmlns:xlink="http://www.w3.org/1999/xlink" viewBox="0 0 1080 1350">
    <defs>
        <style>
            .cls-14{fill:#c4c2c1;}.cls-2{fill:#3d4b4d;}.cls-132,.cls-3{fill:#353535;}.cls-4{fill:#8f1e25;}.cls-5{fill:#292929;}.cls-7{fill:#a9afb3;}.cls-8{fill:#383f48;}.cls-9{fill:#c7c3e6;}.cls-10{fill:#5b6060;}.cls-11{fill:#1e1e1e;}.cls-12{fill:#394749;}.cls-13{fill:#b5b5b5;}.cls-1{fill:url(#linear-gradient);}.cls-15{fill:url(#linear-gradient-2);}.cls-16{fill:url(#linear-gradient-3);}.cls-17{fill:url(#linear-gradient-4);}.cls-18{fill:url(#linear-gradient-5);}.cls-19{fill:url(#linear-gradient-6);}.cls-20{fill:url(#linear-gradient-7);}.cls-21{fill:url(#linear-gradient-8);}.cls-22{fill:url(#linear-gradient-9);}.cls-23{fill:url(#linear-gradient-10);}.cls-24{fill:url(#linear-gradient-11);}.cls-25{fill:url(#linear-gradient-12);}.cls-26{fill:url(#linear-gradient-13);}.cls-27{fill:url(#linear-gradient-14);}.cls-28{fill:url(#linear-gradient-15);}.cls-29{fill:url(#linear-gradient-22);}.cls-30{fill:url(#linear-gradient-29);}.cls-31{fill:url(#linear-gradient-30);}.cls-32{fill:url(#linear-gradient-31);}.cls-33{fill:url(#linear-gradient-32);}.cls-34{fill:url(#linear-gradient-33);}.cls-35{fill:url(#linear-gradient-34);}.cls-36{fill:url(#linear-gradient-35);}.cls-37{fill:url(#linear-gradient-36);}.cls-38{fill:url(#linear-gradient-37);}.cls-39{fill:url(#linear-gradient-38);}.cls-40{fill:url(#linear-gradient-39);}.cls-41{fill:url(#linear-gradient-40);}.cls-42{fill:url(#linear-gradient-41);}.cls-43{fill:url(#linear-gradient-42);}.cls-44{fill:url(#linear-gradient-43);}.cls-45{fill:url(#linear-gradient-44);}.cls-46{fill:url(#linear-gradient-45);}.cls-47{fill:url(#linear-gradient-46);}.cls-48{fill:url(#linear-gradient-47);}.cls-49{fill:url(#linear-gradient-48);}.cls-50{fill:url(#linear-gradient-49);}.cls-51{fill:url(#linear-gradient-50);}.cls-52{fill:url(#linear-gradient-51);}.cls-53{fill:url(#linear-gradient-52);}.cls-54{fill:url(#linear-gradient-53);}.cls-55{fill:url(#linear-gradient-54);}.cls-56{fill:url(#linear-gradient-55);}.cls-57{fill:url(#linear-gradient-56);}.cls-58{fill:url(#linear-gradient-57);}.cls-59{fill:url(#linear-gradient-58);}.cls-60{fill:url(#linear-gradient-59);}.cls-61{fill:url(#linear-gradient-60);}.cls-62{fill:url(#linear-gradient-61);}.cls-63{fill:url(#linear-gradient-62);}.cls-64{fill:url(#linear-gradient-63);}.cls-65{fill:url(#linear-gradient-64);}.cls-66{fill:url(#linear-gradient-65);}.cls-67{fill:url(#linear-gradient-66);}.cls-68{fill:url(#linear-gradient-67);}.cls-69{fill:url(#linear-gradient-68);}.cls-70{fill:url(#linear-gradient-69);}.cls-71{fill:#9895a8;}.cls-72{fill:#8e8f98;}.cls-73{fill:#c6c4e6;}.cls-74{fill:#131313;}.cls-75{fill:url(#linear-gradient-70);}.cls-76{fill:url(#linear-gradient-71);}.cls-77{fill:url(#linear-gradient-72);}.cls-78{fill:url(#linear-gradient-73);}.cls-79{fill:url(#linear-gradient-74);}.cls-80{fill:url(#linear-gradient-75);}.cls-81{fill:url(#linear-gradient-76);}.cls-82{fill:url(#linear-gradient-77);}.cls-83{fill:url(#linear-gradient-78);}.cls-84{fill:url(#linear-gradient-79);}.cls-85{fill:url(#linear-gradient-80);}.cls-86{fill:url(#linear-gradient-81);}.cls-87{fill:url(#linear-gradient-82);}.cls-88{fill:url(#linear-gradient-83);}.cls-89{fill:url(#linear-gradient-84);}.cls-90{fill:url(#linear-gradient-91);}.cls-91{fill:url(#linear-gradient-98);}.cls-92{fill:url(#linear-gradient-99);}.cls-93{fill:url(#linear-gradient-100);}.cls-94{fill:url(#linear-gradient-101);}.cls-95{fill:url(#linear-gradient-102);}.cls-96{fill:url(#linear-gradient-103);}.cls-97{fill:url(#linear-gradient-104);}.cls-98{fill:url(#linear-gradient-105);}.cls-99{fill:url(#linear-gradient-106);}.cls-100{fill:url(#linear-gradient-107);}.cls-101{fill:url(#linear-gradient-108);}.cls-102{fill:url(#linear-gradient-109);}.cls-103{fill:url(#linear-gradient-110);}.cls-104{fill:url(#linear-gradient-111);}.cls-105{fill:url(#linear-gradient-112);}.cls-106{fill:url(#linear-gradient-113);}.cls-107{fill:url(#linear-gradient-114);}.cls-108{fill:url(#linear-gradient-115);}.cls-109{fill:url(#linear-gradient-116);}.cls-110{fill:url(#linear-gradient-117);}.cls-111{fill:url(#linear-gradient-118);}.cls-112{fill:url(#linear-gradient-119);}.cls-113{fill:url(#linear-gradient-120);}.cls-114{fill:url(#linear-gradient-121);}.cls-115{fill:url(#linear-gradient-122);}.cls-116{fill:url(#linear-gradient-123);}.cls-117{fill:url(#linear-gradient-124);}.cls-118{fill:url(#linear-gradient-125);}.cls-119{fill:url(#linear-gradient-126);}.cls-120{fill:url(#linear-gradient-127);}.cls-121{fill:url(#linear-gradient-128);}.cls-122{fill:url(#linear-gradient-129);}.cls-123{fill:url(#linear-gradient-130);}.cls-124{fill:url(#linear-gradient-131);}.cls-125{fill:url(#linear-gradient-132);}.cls-126{fill:url(#linear-gradient-133);}.cls-127{fill:url(#linear-gradient-134);}.cls-128{fill:url(#linear-gradient-135);}.cls-129{fill:url(#linear-gradient-136);}.cls-130{fill:url(#linear-gradient-137);}.cls-131{fill:url(#linear-gradient-138);}.cls-132{opacity:0.29;}.cls-133{fill:#fd0101;}</style>
        <linearGradient id="linear-gradient" x1="-9091.86" y1="725.11" x2="-9092.02" y2="724.84"
            gradientTransform="translate(9196.24)" gradientUnits="userSpaceOnUse">
            <stop offset="0" stop-color="#181818" />
            <stop offset="0.27" stop-color="#262626" />
            <stop offset="0.77" stop-color="#2e2e2e" />
        </linearGradient>
        <linearGradient id="linear-gradient-2" x1="-9091.14" y1="724.84" x2="-9091.3" y2="724.57"
            xlink:href="#linear-gradient" />
        <linearGradient id="linear-gradient-3" x1="-9085.76" y1="725.44" x2="-9086.89" y2="723.47"
            xlink:href="#linear-gradient" />
        <linearGradient id="linear-gradient-4" x1="-9074.54" y1="736.33" x2="-9081.02" y2="725.1"
            xlink:href="#linear-gradient" />
        <linearGradient id="linear-gradient-5" x1="-9059.77" y1="740.53" x2="-9064.82" y2="731.79"
            xlink:href="#linear-gradient" />
        <linearGradient id="linear-gradient-6" x1="-9050.08" y1="782.53" x2="-9070.35" y2="747.42"
            xlink:href="#linear-gradient" />
        <linearGradient id="linear-gradient-7" x1="-9047.23" y1="753.32" x2="-9048.94" y2="750.36"
            xlink:href="#linear-gradient" />
        <linearGradient id="linear-gradient-8" x1="-9045.04" y1="756.71" x2="-9047.05" y2="753.22"
            xlink:href="#linear-gradient" />
        <linearGradient id="linear-gradient-9" x1="-9039.54" y1="767.39" x2="-9041.54" y2="763.93"
            xlink:href="#linear-gradient" />
        <linearGradient id="linear-gradient-10" x1="-9036.7" y1="774.42" x2="-9040.45" y2="767.92"
            xlink:href="#linear-gradient" />
        <linearGradient id="linear-gradient-11" x1="-9036.27" y1="805.88" x2="-9037.03" y2="804.56"
            xlink:href="#linear-gradient" />
        <linearGradient id="linear-gradient-12" x1="-9035.17" y1="802.48" x2="-9035.96" y2="801.12"
            xlink:href="#linear-gradient" />
        <linearGradient id="linear-gradient-13" x1="-9034.2" y1="799.64" x2="-9035.64" y2="797.14"
            xlink:href="#linear-gradient" />
        <linearGradient id="linear-gradient-14" x1="-9033.05" y1="795.39" x2="-9038.84" y2="785.37"
            xlink:href="#linear-gradient" />
        <linearGradient id="linear-gradient-15" x1="-9399" y1="808.87" x2="-9453.81" y2="713.94"
            gradientTransform="translate(9568.6)" xlink:href="#linear-gradient" />
        <linearGradient id="linear-gradient-22" x1="-9051.22" y1="783.19" x2="-9071.49" y2="748.08"
            xlink:href="#linear-gradient" />
        <linearGradient id="linear-gradient-29" x1="-9398.2" y1="807.97" x2="-9452.58" y2="713.77"
            gradientTransform="translate(9568.6)" xlink:href="#linear-gradient" />
        <linearGradient id="linear-gradient-30" x1="-9091.36" y1="724.97" x2="-9091.07" y2="724.46"
            gradientTransform="translate(9196.24)" gradientUnits="userSpaceOnUse">
            <stop offset="0" stop-color="#141414" />
            <stop offset="0.44" stop-color="#1e1e1e" />
            <stop offset="0.78" stop-color="#202020" />
            <stop offset="0.98" stop-color="#292929" />
            <stop offset="1" stop-color="#2a2a2a" />
        </linearGradient>
        <linearGradient id="linear-gradient-31" x1="-9086.82" y1="725.31" x2="-9085.83" y2="723.6"
            xlink:href="#linear-gradient-30" />
        <linearGradient id="linear-gradient-32" x1="-9090.13" y1="764.35" x2="-9085.56" y2="756.43"
            xlink:href="#linear-gradient-30" />
        <linearGradient id="linear-gradient-33" x1="-9080.09" y1="785.99" x2="-9075.52" y2="778.08"
            xlink:href="#linear-gradient-30" />
        <linearGradient id="linear-gradient-34" x1="-9080.06" y1="734.66" x2="-9075.66" y2="727.03"
            xlink:href="#linear-gradient-30" />
        <linearGradient id="linear-gradient-35" x1="-9063.35" y1="738.29" x2="-9061.52" y2="735.12"
            xlink:href="#linear-gradient-30" />
        <linearGradient id="linear-gradient-36" x1="-9048.44" y1="752.48" x2="-9047.68" y2="751.17"
            xlink:href="#linear-gradient-30" />
        <linearGradient id="linear-gradient-37" x1="-9046.56" y1="755.83" x2="-9045.58" y2="754.13"
            xlink:href="#linear-gradient-30" />
        <linearGradient id="linear-gradient-38" x1="-9104.6" y1="771.65" x2="-9103.08" y2="769.01"
            xlink:href="#linear-gradient-30" />
        <linearGradient id="linear-gradient-39" x1="-9096.08" y1="727.09" x2="-9094.99" y2="725.2"
            xlink:href="#linear-gradient-30" />
        <linearGradient id="linear-gradient-40" x1="-9092.16" y1="725.19" x2="-9091.89" y2="724.71"
            xlink:href="#linear-gradient-30" />
        <linearGradient id="linear-gradient-41" x1="-9066.73" y1="815.45" x2="-9066.49" y2="815.05"
            xlink:href="#linear-gradient-30" />
        <linearGradient id="linear-gradient-42" x1="-9070.76" y1="779.03" x2="-9056.72" y2="754.71"
            xlink:href="#linear-gradient-30" />
        <linearGradient id="linear-gradient-43" x1="-9041.15" y1="766.72" x2="-9039.93" y2="764.6"
            xlink:href="#linear-gradient-30" />
        <linearGradient id="linear-gradient-44" x1="-9039.69" y1="773.24" x2="-9037.23" y2="768.98"
            xlink:href="#linear-gradient-30" />
        <linearGradient id="linear-gradient-45" x1="-9037.24" y1="806.25" x2="-9036.05" y2="804.19"
            xlink:href="#linear-gradient-30" />
        <linearGradient id="linear-gradient-46" x1="-9036.11" y1="802.75" x2="-9035.02" y2="800.86"
            xlink:href="#linear-gradient-30" />
        <linearGradient id="linear-gradient-47" x1="-9035.77" y1="799.86" x2="-9034.07" y2="796.91"
            xlink:href="#linear-gradient-30" />
        <linearGradient id="linear-gradient-48" x1="-9038.65" y1="794.05" x2="-9034.07" y2="786.11"
            xlink:href="#linear-gradient-30" />
        <linearGradient id="linear-gradient-49" x1="-9454.31" y1="794.99" x2="-9420.69" y2="736.77"
            gradientTransform="translate(9568.6)" xlink:href="#linear-gradient-30" />
        <linearGradient id="linear-gradient-50" x1="-9091.36" y1="724.97" x2="-9091.07" y2="724.46"
            gradientTransform="translate(9196.24)" gradientUnits="userSpaceOnUse">
            <stop offset="0" stop-color="#161616" />
            <stop offset="0.3" stop-color="#1a1a1a" />
            <stop offset="0.79" stop-color="#1e1e1e" />
            <stop offset="0.8" stop-color="#1e1e1e" />
        </linearGradient>
        <linearGradient id="linear-gradient-51" x1="-9086.82" y1="725.31" x2="-9085.83" y2="723.6"
            xlink:href="#linear-gradient-50" />
        <linearGradient id="linear-gradient-52" x1="-9090.13" y1="764.35" x2="-9085.56" y2="756.43"
            xlink:href="#linear-gradient-50" />
        <linearGradient id="linear-gradient-53" x1="-9080.09" y1="785.99" x2="-9075.52" y2="778.08"
            xlink:href="#linear-gradient-50" />
        <linearGradient id="linear-gradient-54" x1="-9080.06" y1="734.66" x2="-9075.66" y2="727.03"
            xlink:href="#linear-gradient-50" />
        <linearGradient id="linear-gradient-55" x1="-9063.35" y1="738.29" x2="-9061.52" y2="735.12"
            xlink:href="#linear-gradient-50" />
        <linearGradient id="linear-gradient-56" x1="-9048.44" y1="752.48" x2="-9047.68" y2="751.17"
            xlink:href="#linear-gradient-50" />
        <linearGradient id="linear-gradient-57" x1="-9046.56" y1="755.83" x2="-9045.58" y2="754.13"
            xlink:href="#linear-gradient-50" />
        <linearGradient id="linear-gradient-58" x1="-9104.6" y1="771.65" x2="-9103.08" y2="769.01"
            xlink:href="#linear-gradient-50" />
        <linearGradient id="linear-gradient-59" x1="-9096.08" y1="727.09" x2="-9094.99" y2="725.2"
            xlink:href="#linear-gradient-50" />
        <linearGradient id="linear-gradient-60" x1="-9092.16" y1="725.19" x2="-9091.89" y2="724.71"
            xlink:href="#linear-gradient-50" />
        <linearGradient id="linear-gradient-61" x1="-9066.73" y1="815.45" x2="-9066.49" y2="815.05"
            xlink:href="#linear-gradient-50" />
        <linearGradient id="linear-gradient-62" x1="-9070.76" y1="779.03" x2="-9056.72" y2="754.71"
            xlink:href="#linear-gradient-50" />
        <linearGradient id="linear-gradient-63" x1="-9041.15" y1="766.72" x2="-9039.93" y2="764.6"
            xlink:href="#linear-gradient-50" />
        <linearGradient id="linear-gradient-64" x1="-9039.69" y1="773.24" x2="-9037.23" y2="768.98"
            xlink:href="#linear-gradient-50" />
        <linearGradient id="linear-gradient-65" x1="-9037.24" y1="806.25" x2="-9036.05" y2="804.19"
            xlink:href="#linear-gradient-50" />
        <linearGradient id="linear-gradient-66" x1="-9036.11" y1="802.75" x2="-9035.02" y2="800.86"
            xlink:href="#linear-gradient-50" />
        <linearGradient id="linear-gradient-67" x1="-9035.77" y1="799.86" x2="-9034.07" y2="796.91"
            xlink:href="#linear-gradient-50" />
        <linearGradient id="linear-gradient-68" x1="-9038.65" y1="794.05" x2="-9034.07" y2="786.11"
            xlink:href="#linear-gradient-50" />
        <linearGradient id="linear-gradient-69" x1="-9454.31" y1="794.99" x2="-9420.69" y2="736.77"
            gradientTransform="translate(9568.6)" xlink:href="#linear-gradient-50" />
        <linearGradient id="linear-gradient-70" x1="-8637.57" y1="998.93" x2="-8637.73" y2="998.66"
            xlink:href="#linear-gradient" />
        <linearGradient id="linear-gradient-71" x1="-8636.85" y1="998.65" x2="-8637.01" y2="998.38"
            xlink:href="#linear-gradient" />
        <linearGradient id="linear-gradient-72" x1="-8631.47" y1="999.25" x2="-8632.6" y2="997.29"
            xlink:href="#linear-gradient" />
        <linearGradient id="linear-gradient-73" x1="-8620.25" y1="1010.14" x2="-8626.73" y2="998.92"
            xlink:href="#linear-gradient" />
        <linearGradient id="linear-gradient-74" x1="-8605.48" y1="1014.35" x2="-8610.53"
            y2="1005.61" xlink:href="#linear-gradient" />
        <linearGradient id="linear-gradient-75" x1="-8595.79" y1="1056.35" x2="-8616.06"
            y2="1021.24" xlink:href="#linear-gradient" />
        <linearGradient id="linear-gradient-76" x1="-8592.94" y1="1027.14" x2="-8594.66"
            y2="1024.17" xlink:href="#linear-gradient" />
        <linearGradient id="linear-gradient-77" x1="-8590.75" y1="1030.53" x2="-8592.76"
            y2="1027.03" xlink:href="#linear-gradient" />
        <linearGradient id="linear-gradient-78" x1="-8585.25" y1="1041.21" x2="-8587.25"
            y2="1037.74" xlink:href="#linear-gradient" />
        <linearGradient id="linear-gradient-79" x1="-8582.41" y1="1048.24" x2="-8586.16"
            y2="1041.73" xlink:href="#linear-gradient" />
        <linearGradient id="linear-gradient-80" x1="-8581.98" y1="1079.69" x2="-8582.74"
            y2="1078.38" xlink:href="#linear-gradient" />
        <linearGradient id="linear-gradient-81" x1="-8580.89" y1="1076.3" x2="-8581.67" y2="1074.94"
            xlink:href="#linear-gradient" />
        <linearGradient id="linear-gradient-82" x1="-8579.91" y1="1073.45" x2="-8581.35"
            y2="1070.95" xlink:href="#linear-gradient" />
        <linearGradient id="linear-gradient-83" x1="-8578.77" y1="1069.2" x2="-8584.55" y2="1059.18"
            xlink:href="#linear-gradient" />
        <linearGradient id="linear-gradient-84" x1="-8944.71" y1="1082.69" x2="-8999.52" y2="987.76"
            gradientTransform="translate(9568.6)" xlink:href="#linear-gradient" />
        <linearGradient id="linear-gradient-91" x1="-8596.93" y1="1057.01" x2="-8617.2" y2="1021.9"
            xlink:href="#linear-gradient" />
        <linearGradient id="linear-gradient-98" x1="-8943.91" y1="1081.78" x2="-8998.3" y2="987.58"
            gradientTransform="translate(9568.6)" xlink:href="#linear-gradient" />
        <linearGradient id="linear-gradient-99" x1="-8637.07" y1="998.78" x2="-8636.78" y2="998.28"
            xlink:href="#linear-gradient-30" />
        <linearGradient id="linear-gradient-100" x1="-8632.53" y1="999.12" x2="-8631.54" y2="997.42"
            xlink:href="#linear-gradient-30" />
        <linearGradient id="linear-gradient-101" x1="-8635.84" y1="1038.16" x2="-8631.27"
            y2="1030.25" xlink:href="#linear-gradient-30" />
        <linearGradient id="linear-gradient-102" x1="-8625.8" y1="1059.81" x2="-8621.23" y2="1051.9"
            xlink:href="#linear-gradient-30" />
        <linearGradient id="linear-gradient-103" x1="-8625.78" y1="1008.48" x2="-8621.37"
            y2="1000.85" xlink:href="#linear-gradient-30" />
        <linearGradient id="linear-gradient-104" x1="-8609.06" y1="1012.11" x2="-8607.23"
            y2="1008.93" xlink:href="#linear-gradient-30" />
        <linearGradient id="linear-gradient-105" x1="-8594.15" y1="1026.3" x2="-8593.39"
            y2="1024.98" xlink:href="#linear-gradient-30" />
        <linearGradient id="linear-gradient-106" x1="-8592.27" y1="1029.64" x2="-8591.29"
            y2="1027.95" xlink:href="#linear-gradient-30" />
        <linearGradient id="linear-gradient-107" x1="-8650.31" y1="1045.46" x2="-8648.79"
            y2="1042.83" xlink:href="#linear-gradient-30" />
        <linearGradient id="linear-gradient-108" x1="-8641.79" y1="1000.9" x2="-8640.7" y2="999.01"
            xlink:href="#linear-gradient-30" />
        <linearGradient id="linear-gradient-109" x1="-8637.87" y1="999" x2="-8637.6" y2="998.53"
            xlink:href="#linear-gradient-30" />
        <linearGradient id="linear-gradient-110" x1="-8612.44" y1="1089.27" x2="-8612.2"
            y2="1088.86" xlink:href="#linear-gradient-30" />
        <linearGradient id="linear-gradient-111" x1="-8616.47" y1="1052.85" x2="-8602.43"
            y2="1028.52" xlink:href="#linear-gradient-30" />
        <linearGradient id="linear-gradient-112" x1="-8586.86" y1="1040.53" x2="-8585.64"
            y2="1038.42" xlink:href="#linear-gradient-30" />
        <linearGradient id="linear-gradient-113" x1="-8585.4" y1="1047.05" x2="-8582.95"
            y2="1042.79" xlink:href="#linear-gradient-30" />
        <linearGradient id="linear-gradient-114" x1="-8582.95" y1="1080.07" x2="-8581.76"
            y2="1078.01" xlink:href="#linear-gradient-30" />
        <linearGradient id="linear-gradient-115" x1="-8581.82" y1="1076.56" x2="-8580.73"
            y2="1074.68" xlink:href="#linear-gradient-30" />
        <linearGradient id="linear-gradient-116" x1="-8581.48" y1="1073.68" x2="-8579.78"
            y2="1070.73" xlink:href="#linear-gradient-30" />
        <linearGradient id="linear-gradient-117" x1="-8584.36" y1="1067.87" x2="-8579.78"
            y2="1059.93" xlink:href="#linear-gradient-30" />
        <linearGradient id="linear-gradient-118" x1="-9000.02" y1="1068.81" x2="-8966.4"
            y2="1010.58" gradientTransform="translate(9568.6)" xlink:href="#linear-gradient-30" />
        <linearGradient id="linear-gradient-119" x1="-8637.07" y1="998.78" x2="-8636.78" y2="998.28"
            xlink:href="#linear-gradient-50" />
        <linearGradient id="linear-gradient-120" x1="-8632.53" y1="999.12" x2="-8631.54" y2="997.42"
            xlink:href="#linear-gradient-50" />
        <linearGradient id="linear-gradient-121" x1="-8635.84" y1="1038.16" x2="-8631.27"
            y2="1030.25" xlink:href="#linear-gradient-50" />
        <linearGradient id="linear-gradient-122" x1="-8625.8" y1="1059.81" x2="-8621.23" y2="1051.9"
            xlink:href="#linear-gradient-50" />
        <linearGradient id="linear-gradient-123" x1="-8625.78" y1="1008.48" x2="-8621.37"
            y2="1000.85" xlink:href="#linear-gradient-50" />
        <linearGradient id="linear-gradient-124" x1="-8609.06" y1="1012.11" x2="-8607.23"
            y2="1008.93" xlink:href="#linear-gradient-50" />
        <linearGradient id="linear-gradient-125" x1="-8594.15" y1="1026.3" x2="-8593.39"
            y2="1024.98" xlink:href="#linear-gradient-50" />
        <linearGradient id="linear-gradient-126" x1="-8592.27" y1="1029.64" x2="-8591.29"
            y2="1027.95" xlink:href="#linear-gradient-50" />
        <linearGradient id="linear-gradient-127" x1="-8650.31" y1="1045.46" x2="-8648.79"
            y2="1042.83" xlink:href="#linear-gradient-50" />
        <linearGradient id="linear-gradient-128" x1="-8641.79" y1="1000.9" x2="-8640.7" y2="999.01"
            xlink:href="#linear-gradient-50" />
        <linearGradient id="linear-gradient-129" x1="-8637.87" y1="999" x2="-8637.6" y2="998.53"
            xlink:href="#linear-gradient-50" />
        <linearGradient id="linear-gradient-130" x1="-8612.44" y1="1089.27" x2="-8612.2"
            y2="1088.86" xlink:href="#linear-gradient-50" />
        <linearGradient id="linear-gradient-131" x1="-8616.47" y1="1052.85" x2="-8602.43"
            y2="1028.52" xlink:href="#linear-gradient-50" />
        <linearGradient id="linear-gradient-132" x1="-8586.86" y1="1040.53" x2="-8585.64"
            y2="1038.42" xlink:href="#linear-gradient-50" />
        <linearGradient id="linear-gradient-133" x1="-8585.4" y1="1047.05" x2="-8582.95"
            y2="1042.79" xlink:href="#linear-gradient-50" />
        <linearGradient id="linear-gradient-134" x1="-8582.95" y1="1080.07" x2="-8581.76"
            y2="1078.01" xlink:href="#linear-gradient-50" />
        <linearGradient id="linear-gradient-135" x1="-8581.82" y1="1076.56" x2="-8580.73"
            y2="1074.68" xlink:href="#linear-gradient-50" />
        <linearGradient id="linear-gradient-136" x1="-8581.48" y1="1073.68" x2="-8579.78"
            y2="1070.73" xlink:href="#linear-gradient-50" />
        <linearGradient id="linear-gradient-137" x1="-8584.36" y1="1067.87" x2="-8579.78"
            y2="1059.93" xlink:href="#linear-gradient-50" />
        <linearGradient id="linear-gradient-138" x1="-9000.02" y1="1068.81" x2="-8966.4"
            y2="1010.58" gradientTransform="translate(9568.6)" xlink:href="#linear-gradient-50" />
    </defs>
    <path id="body" class="cls-14"
        d="M1074,530.61,513.86,268.69l-66.78,27-54.54-26.14s-69.84,13.56-77.44,16-122,45.07-128.35,47.82S162.79,345,161,346.13s-46.08,33.29-46.08,33.29l-72,136.17L35.74,635.44l178,108.78,29.35-10.76v31.62l556.58,334.34L1074,941.49Z" />
    <path class="cls-2"
        d="M73.08,667.81,212.8,751.53V684.76l-56-32.75c-24.77-14.5-83.75-12.91-83.75,15.8Z" />
    <polygon class="cls-3"
        points="665.88 1018.48 665.88 1080.72 720.11 1050.94 688.01 1031.71 688.01 1062.81 671.82 1071.76 671.82 1022.04 665.88 1018.48" />
    <polygon class="cls-4"
        points="671.82 1022.04 671.82 1071.76 688.01 1062.81 688.01 1031.71 671.82 1022.04" />
    <polygon class="cls-5"
        points="244.56 734.76 212.8 751.53 212.8 686.77 244.56 670.39 244.56 734.76" />
    <path class="cls-14"
        d="M56.13,551.3l12.43,7.49a24.82,24.82,0,0,0,9.76,3.38l53,6.56A77.19,77.19,0,0,1,153.63,575l14.81,6.72a7.23,7.23,0,0,0,10.21-6.58V441.68a12,12,0,0,0-6.8-10.85l-49.68-25.77a7.83,7.83,0,0,0-10.35,3.44L56,514.72a28.85,28.85,0,0,0-3.23,12.44l-.49,17.07A8,8,0,0,0,56.13,551.3Z" />
    <path class="cls-7"
        d="M172.92,605.92c-2.15-.36-24.6-11.22-26.07-14.18-1.2-2.43-.55-6.92,1.3-10.11a.43.43,0,0,0,.11-.24l.33-.55s26.14,15.53,27.08,17.5v.06C176.12,600.16,175.14,606.21,172.92,605.92Z" />
    <path class="cls-8"
        d="M175.67,598.34v.06c0,1.54-.93,2.49-2.59,1.62L152,589.33a7.9,7.9,0,0,1-3.82-5.85l0-.77a6.52,6.52,0,0,1,.06-1.08.43.43,0,0,0,.11-.24l.33-.55c.61-.81,1.67-1,2.89-.34l15.39,7.8a21.65,21.65,0,0,1,8,7.65A5.34,5.34,0,0,1,175.67,598.34Z" />
    <path class="cls-9"
        d="M154.28,586.2c.06,1.2-.75,1.72-1.82,1.18a4.18,4.18,0,0,1-2.06-3.15c-.06-1.19.75-1.71,1.82-1.17A4.11,4.11,0,0,1,154.28,586.2Z" />
    <polygon class="cls-2"
        points="32.21 613.48 32.21 651.04 43.78 657.98 43.78 640.3 37.85 636.74 38.97 617.51 32.21 613.48" />
    <polygon class="cls-5" points="43.78 640.3 43.78 657.92 60.81 650.5 43.78 640.3" />
    <polygon class="cls-10" points="32.21 613.48 38.97 617.51 39.39 610.39 32.21 613.48" />
    <path class="cls-11"
        d="M56.13,551.3l12.43,7.49a24.82,24.82,0,0,0,9.76,3.38l53,6.56A77.19,77.19,0,0,1,153.63,575l14.81,6.72a7.23,7.23,0,0,0,10.21-6.58V441.68a12,12,0,0,0-6.8-10.85l-49.68-25.77a7.83,7.83,0,0,0-10.35,3.44L56,514.72a28.85,28.85,0,0,0-3.23,12.44l-.49,17.07A8,8,0,0,0,56.13,551.3Z" />
    <path class="cls-12"
        d="M32,560.43l18.19-8.81a6.92,6.92,0,0,0,3.94-6.21V532.75a6.93,6.93,0,0,0-10-6.12l-18.19,8.74a6.91,6.91,0,0,0-4,6.22v12.73A6.94,6.94,0,0,0,32,560.43Z" />
    <path class="cls-13"
        d="M29.51,555.25c4,1.6,11-2.69,14.48-4.5,2.46-1.29,4.18-3.13,4.18-6.12,0,0,1.42-11.64-.86-12.82-3.78-1.95-15.2,5-15.2,5a8.34,8.34,0,0,0-4.66,6.86C27.28,546.61,27.3,554.37,29.51,555.25Z" />
    <path class="cls-1"
        d="M104.52,724.8c-.09.18-.26.26-.35.43L104,725A1.16,1.16,0,0,1,104.52,724.8Z" />
    <path class="cls-15" d="M105.47,724.63c-.35.09-.61.09-.87.17l.09-.08Z" />
    <path class="cls-16"
        d="M112,724.54a23.75,23.75,0,0,0-4.24-.17,4.07,4.07,0,0,1,1-.09h.34c.61,0,1.13.09,1.65.09C111.17,724.46,111.6,724.46,112,724.54Z" />
    <path class="cls-17"
        d="M121.12,736.56c-2,.52-4.85-1.73-6.4-4.93-1.3-2.76-1.12-5.53.43-6.48h.09a18.44,18.44,0,0,1,2.76.78c.7.26,1.39.52,2.17.86a10.39,10.39,0,0,1,2,2.94C123.71,733,123.19,736,121.12,736.56Z" />
    <path class="cls-18"
        d="M138.24,739.5a3.3,3.3,0,0,1-3.55-.17,10.23,10.23,0,0,1-4.49-6.83A76.26,76.26,0,0,1,138.24,739.5Z" />
    <path class="cls-19"
        d="M146.71,775.47c0,6-2.77,9.6-7,10l-.61-1c2.43-1.3,4-4.24,4-8.48,0-8.21-5.88-18.33-13.06-22.48-3.8-2.16-7.17-2.25-9.6-.69l-.6-1c2.51-3.63,7.18-4.32,12.54-1.21C140.31,755.24,146.71,766.31,146.71,775.47Z" />
    <path class="cls-20"
        d="M149.13,753.25a8.93,8.93,0,0,1-.86-1,9.87,9.87,0,0,1-1-1.81C147.92,751.35,148.53,752.3,149.13,753.25Z" />
    <path class="cls-21"
        d="M151.21,756.71c-.69-1.21-1.38-2.33-2.08-3.46.7,1,1.3,2.16,2,3.2A.31.31,0,0,1,151.21,756.71Z" />
    <path class="cls-22"
        d="M156.48,767.52c-.51-1.21-1-2.42-1.55-3.72.26.52.43,1,.69,1.47C155.88,766.05,156.22,766.74,156.48,767.52Z" />
    <path class="cls-23"
        d="M159.08,774.7a10.43,10.43,0,0,1-2.42-4.41,6.27,6.27,0,0,1-.18-2.77c.44,1,.78,1.9,1.13,2.85a23.11,23.11,0,0,1,.86,2.51A16.2,16.2,0,0,1,159.08,774.7Z" />
    <path class="cls-24"
        d="M160,804.1a7,7,0,0,1-.43,1.38c-.18.26-.26.6-.44.86A17.07,17.07,0,0,0,160,804.1Z" />
    <path class="cls-25"
        d="M161,800.72c-.09.44-.17.87-.26,1.3a2.51,2.51,0,0,0-.34.87A17.18,17.18,0,0,0,161,800.72Z" />
    <path class="cls-26"
        d="M161.58,796.57c-.08.78-.17,1.56-.25,2.25a8.38,8.38,0,0,1-.26,1.38C161.24,799,161.41,797.87,161.58,796.57Z" />
    <path class="cls-27"
        d="M161.84,792.25a28.87,28.87,0,0,1-.26,4.06,6.44,6.44,0,0,1-2-1.38c-2.43-2.25-3.72-6-2.94-8.3.69-2,2.59-2.34,4.75-1v.08A55.67,55.67,0,0,1,161.84,792.25Z" />
    <path class="cls-28"
        d="M166.68,792.42c0,9.93-2.79,17.36-7.58,22.07a5.57,5.57,0,0,1-1.39,1.25l-.37-.51a7.61,7.61,0,0,0,1-1.26c3.82-4.7,6-11.62,6-20.23A50.17,50.17,0,0,0,164,788c-2.35-23.47-18.91-50-38.77-61.59-7.58-4.41-14.79-6-20.83-5.07a12.46,12.46,0,0,0-2.28.51h-.07l-.22-.44c.81-.29,1.69-.66,2.57-1,6.55-1.69,14.5-.44,23.25,4.64C149.24,737.53,166.68,767.62,166.68,792.42Z" />
    <path class="cls-15" d="M105.47,724.63c-.35.09-.61.09-.87.17l.09-.08Z" />
    <path class="cls-16"
        d="M112,724.54a23.75,23.75,0,0,0-4.24-.17,4.07,4.07,0,0,1,1-.09h.34c.61,0,1.13.09,1.65.09C111.17,724.46,111.6,724.46,112,724.54Z" />
    <path class="cls-17"
        d="M121.12,736.56c-2,.52-4.85-1.73-6.4-4.93-1.3-2.76-1.12-5.53.43-6.48h.09a18.44,18.44,0,0,1,2.76.78c.7.26,1.39.52,2.17.86a10.39,10.39,0,0,1,2,2.94C123.71,733,123.19,736,121.12,736.56Z" />
    <path class="cls-18"
        d="M138.24,739.5a3.3,3.3,0,0,1-3.55-.17,10.23,10.23,0,0,1-4.49-6.83A76.26,76.26,0,0,1,138.24,739.5Z" />
    <path class="cls-20"
        d="M149.13,753.25a8.93,8.93,0,0,1-.86-1,9.87,9.87,0,0,1-1-1.81C147.92,751.35,148.53,752.3,149.13,753.25Z" />
    <path class="cls-21"
        d="M151.21,756.71c-.69-1.21-1.38-2.33-2.08-3.46.7,1,1.3,2.16,2,3.2A.31.31,0,0,1,151.21,756.71Z" />
    <path class="cls-29"
        d="M146.71,775.47c0,6-2.77,9.6-7,10a8,8,0,0,1-3.46-.25,7.82,7.82,0,0,0,2.85-.78c2.43-1.3,4-4.24,4-8.48,0-8.21-5.88-18.33-13.06-22.48-3.8-2.16-7.17-2.25-9.6-.69a6,6,0,0,0-1.9,2,10.67,10.67,0,0,1,1.3-3c2.51-3.63,7.18-4.32,12.54-1.21C140.31,755.24,146.71,766.31,146.71,775.47Z" />
    <path class="cls-22"
        d="M156.48,767.52c-.51-1.21-1-2.42-1.55-3.72.26.52.43,1,.69,1.47C155.88,766.05,156.22,766.74,156.48,767.52Z" />
    <path class="cls-23"
        d="M159.08,774.7a10.43,10.43,0,0,1-2.42-4.41,6.27,6.27,0,0,1-.18-2.77c.44,1,.78,1.9,1.13,2.85a23.11,23.11,0,0,1,.86,2.51A16.2,16.2,0,0,1,159.08,774.7Z" />
    <path class="cls-24"
        d="M160,804.1a7,7,0,0,1-.43,1.38c-.18.26-.26.6-.44.86A17.07,17.07,0,0,0,160,804.1Z" />
    <path class="cls-25"
        d="M161,800.72c-.09.44-.17.87-.26,1.3a2.51,2.51,0,0,0-.34.87A17.18,17.18,0,0,0,161,800.72Z" />
    <path class="cls-26"
        d="M161.58,796.57c-.08.78-.17,1.56-.25,2.25a8.38,8.38,0,0,1-.26,1.38C161.24,799,161.41,797.87,161.58,796.57Z" />
    <path class="cls-27"
        d="M161.84,792.25a28.87,28.87,0,0,1-.26,4.06,6.44,6.44,0,0,1-2-1.38c-2.43-2.25-3.72-6-2.94-8.3.69-2,2.59-2.34,4.75-1v.08A55.67,55.67,0,0,1,161.84,792.25Z" />
    <path class="cls-30"
        d="M166.68,792.42c0,9.93-2.79,17.36-7.58,22.07-.29-.22-.44-.29-.73-.52,3.82-4.7,6-11.62,6-20.23A50.17,50.17,0,0,0,164,788c-2.35-23.47-18.91-50-38.77-61.59-7.58-4.41-14.79-6-20.83-5.07a3.77,3.77,0,0,1,0-.89c6.55-1.69,14.5-.44,23.25,4.64C149.24,737.53,166.68,767.62,166.68,792.42Z" />
    <path class="cls-31" d="M105.47,724.63c-.35.09-.61.09-.87.17l.09-.08Z" />
    <path class="cls-32"
        d="M112,724.54a23.75,23.75,0,0,0-4.24-.17,4.07,4.07,0,0,1,1-.09h.34c.61,0,1.13.09,1.65.09C111.17,724.46,111.6,724.46,112,724.54Z" />
    <path class="cls-33"
        d="M109.79,766.22c-2.42-.52-5-3.54-5.79-6.74s.6-5.45,3-4.93,4.93,3.46,5.71,6.74S112.21,766.74,109.79,766.22Z" />
    <path class="cls-34"
        d="M122.15,787.32c-1.47,1.47-4.32.35-6.39-2.59s-2.51-6.4-1-8,4.41-.34,6.4,2.6S123.63,785.76,122.15,787.32Z" />
    <path class="cls-35"
        d="M121.12,736.56c-2,.52-4.85-1.73-6.4-4.93-1.3-2.76-1.12-5.53.43-6.48h.09a18.44,18.44,0,0,1,2.76.78c.7.26,1.39.52,2.17.86a10.39,10.39,0,0,1,2,2.94C123.71,733,123.19,736,121.12,736.56Z" />
    <path class="cls-36"
        d="M138.24,739.5a3.3,3.3,0,0,1-3.55-.17,10.23,10.23,0,0,1-4.49-6.83A76.26,76.26,0,0,1,138.24,739.5Z" />
    <path class="cls-37"
        d="M149.13,753.25a8.93,8.93,0,0,1-.86-1,9.87,9.87,0,0,1-1-1.81C147.92,751.35,148.53,752.3,149.13,753.25Z" />
    <path class="cls-38"
        d="M151.21,756.71c-.69-1.21-1.38-2.33-2.08-3.46.7,1,1.3,2.16,2,3.2A.31.31,0,0,1,151.21,756.71Z" />
    <path class="cls-39"
        d="M92,768.9c.34,1.21.77,2.42,1.21,3.63a43,43,0,0,1-1.56-4.41A3.35,3.35,0,0,1,92,768.9Z" />
    <path class="cls-40"
        d="M100.71,726a5.39,5.39,0,0,1,1.21-.43,7.86,7.86,0,0,0-1.9.95l-.09.09a1,1,0,0,0-.43.08c.26-.17.52-.25.78-.43a.32.32,0,0,0,.17-.08.27.27,0,0,0,.17-.09C100.71,726.1,100.71,726.1,100.71,726Z" />
    <path class="cls-41" d="M104,725a1.16,1.16,0,0,1,.52-.18c-.09.18-.26.26-.35.43Z" />
    <path class="cls-42"
        d="M131.75,816.2a35.79,35.79,0,0,1-4.23-1.9,22.54,22.54,0,0,0,2.16,1A21.15,21.15,0,0,0,131.75,816.2Z" />
    <path class="cls-43"
        d="M146.71,775.47c0,6-2.77,9.6-7,10a8,8,0,0,1-3.46-.25,7.82,7.82,0,0,0,2.85-.78c2.43-1.3,4-4.24,4-8.48,0-8.21-5.88-18.33-13.06-22.48-3.8-2.16-7.17-2.25-9.6-.69a6,6,0,0,0-1.9,2,10.67,10.67,0,0,1,1.3-3c2.51-3.63,7.18-4.32,12.54-1.21C140.31,755.24,146.71,766.31,146.71,775.47Z" />
    <path class="cls-44"
        d="M156.48,767.52c-.51-1.21-1-2.42-1.55-3.72.26.52.43,1,.69,1.47C155.88,766.05,156.22,766.74,156.48,767.52Z" />
    <path class="cls-45"
        d="M159.08,774.7a10.43,10.43,0,0,1-2.42-4.41,6.27,6.27,0,0,1-.18-2.77c.44,1,.78,1.9,1.13,2.85a23.11,23.11,0,0,1,.86,2.51A16.2,16.2,0,0,1,159.08,774.7Z" />
    <path class="cls-46"
        d="M160,804.1a7,7,0,0,1-.43,1.38c-.18.26-.26.6-.44.86A17.07,17.07,0,0,0,160,804.1Z" />
    <path class="cls-47"
        d="M161,800.72c-.09.44-.17.87-.26,1.3a2.51,2.51,0,0,0-.34.87A17.18,17.18,0,0,0,161,800.72Z" />
    <path class="cls-48"
        d="M161.58,796.57c-.08.78-.17,1.56-.25,2.25a8.38,8.38,0,0,1-.26,1.38C161.24,799,161.41,797.87,161.58,796.57Z" />
    <path class="cls-49"
        d="M161.84,792.25a28.87,28.87,0,0,1-.26,4.06,6.44,6.44,0,0,1-2-1.38c-2.43-2.25-3.72-6-2.94-8.3.69-2,2.59-2.34,4.75-1v.08A55.67,55.67,0,0,1,161.84,792.25Z" />
    <path class="cls-50"
        d="M166.68,792.42c0,9.93-2.79,17.36-7.58,22.07a5.57,5.57,0,0,1-1.39,1.25l-.08.15a23.49,23.49,0,0,1-3.46,2.13,19.68,19.68,0,0,0,3.17-2.79,7.61,7.61,0,0,0,1-1.26c3.82-4.7,6-11.62,6-20.23A50.17,50.17,0,0,0,164,788c-2.35-23.47-18.91-50-38.77-61.59-7.58-4.41-14.79-6-20.83-5.07a12.46,12.46,0,0,0-2.28.51h-.07a17.93,17.93,0,0,0-3.24,1.25,10.06,10.06,0,0,1,3-1.69c.81-.29,1.69-.66,2.57-1,6.55-1.69,14.5-.44,23.25,4.64C149.24,737.53,166.68,767.62,166.68,792.42Z" />
    <path class="cls-11"
        d="M221.9,802.29A26.1,26.1,0,0,0,234,783.15v0l-18.88,11.7-2.3,1.46-5.6-30.52-8.78-22.81-91.35-54.74L88.76,698.78a26.87,26.87,0,0,0-9.05,9c-4.2,6.62-6.63,15.67-6.63,26.63,0,35.61,25.17,79,56.22,96.91,15.67,9.12,29.8,9.86,40,3.82a3.54,3.54,0,0,0,.73-.44Zm-63.54,10.54a5.63,5.63,0,0,1-1.4,1.25l-.07.15a23.49,23.49,0,0,1-3.46,2.13c-7.14,4.86-17.44,4.56-28.91-2-21.49-12.51-39-42.6-39-67.4,0-13,4.86-21.85,12.58-25.53a10.06,10.06,0,0,1,3-1.69c.81-.3,1.69-.66,2.57-1,6.55-1.69,14.5-.44,23.25,4.64,21.56,12.43,39,42.53,39,67.32C165.94,800.69,163.14,808.12,158.36,812.83Z" />
    <path class="cls-51" d="M105.47,724.63c-.35.09-.61.09-.87.17l.09-.08Z" />
    <path class="cls-52"
        d="M112,724.54a23.75,23.75,0,0,0-4.24-.17,4.07,4.07,0,0,1,1-.09h.34c.61,0,1.13.09,1.65.09C111.17,724.46,111.6,724.46,112,724.54Z" />
    <path class="cls-53"
        d="M109.79,766.22c-2.42-.52-5-3.54-5.79-6.74s.6-5.45,3-4.93,4.93,3.46,5.71,6.74S112.21,766.74,109.79,766.22Z" />
    <path class="cls-54"
        d="M122.15,787.32c-1.47,1.47-4.32.35-6.39-2.59s-2.51-6.4-1-8,4.41-.34,6.4,2.6S123.63,785.76,122.15,787.32Z" />
    <path class="cls-55"
        d="M121.12,736.56c-2,.52-4.85-1.73-6.4-4.93-1.3-2.76-1.12-5.53.43-6.48h.09a18.44,18.44,0,0,1,2.76.78c.7.26,1.39.52,2.17.86a10.39,10.39,0,0,1,2,2.94C123.71,733,123.19,736,121.12,736.56Z" />
    <path class="cls-56"
        d="M138.24,739.5a3.3,3.3,0,0,1-3.55-.17,10.23,10.23,0,0,1-4.49-6.83A76.26,76.26,0,0,1,138.24,739.5Z" />
    <path class="cls-57"
        d="M149.13,753.25a8.93,8.93,0,0,1-.86-1,9.87,9.87,0,0,1-1-1.81C147.92,751.35,148.53,752.3,149.13,753.25Z" />
    <path class="cls-58"
        d="M151.21,756.71c-.69-1.21-1.38-2.33-2.08-3.46.7,1,1.3,2.16,2,3.2A.31.31,0,0,1,151.21,756.71Z" />
    <path class="cls-59"
        d="M92,768.9c.34,1.21.77,2.42,1.21,3.63a43,43,0,0,1-1.56-4.41A3.35,3.35,0,0,1,92,768.9Z" />
    <path class="cls-60"
        d="M100.71,726a5.39,5.39,0,0,1,1.21-.43,7.86,7.86,0,0,0-1.9.95l-.09.09a1,1,0,0,0-.43.08c.26-.17.52-.25.78-.43a.32.32,0,0,0,.17-.08.27.27,0,0,0,.17-.09C100.71,726.1,100.71,726.1,100.71,726Z" />
    <path class="cls-61" d="M104,725a1.16,1.16,0,0,1,.52-.18c-.09.18-.26.26-.35.43Z" />
    <path class="cls-62"
        d="M131.75,816.2a35.79,35.79,0,0,1-4.23-1.9,22.54,22.54,0,0,0,2.16,1A21.15,21.15,0,0,0,131.75,816.2Z" />
    <path class="cls-63"
        d="M146.71,775.47c0,6-2.77,9.6-7,10a8,8,0,0,1-3.46-.25,7.82,7.82,0,0,0,2.85-.78c2.43-1.3,4-4.24,4-8.48,0-8.21-5.88-18.33-13.06-22.48-3.8-2.16-7.17-2.25-9.6-.69a6,6,0,0,0-1.9,2,10.67,10.67,0,0,1,1.3-3c2.51-3.63,7.18-4.32,12.54-1.21C140.31,755.24,146.71,766.31,146.71,775.47Z" />
    <path class="cls-64"
        d="M156.48,767.52c-.51-1.21-1-2.42-1.55-3.72.26.52.43,1,.69,1.47C155.88,766.05,156.22,766.74,156.48,767.52Z" />
    <path class="cls-65"
        d="M159.08,774.7a10.43,10.43,0,0,1-2.42-4.41,6.27,6.27,0,0,1-.18-2.77c.44,1,.78,1.9,1.13,2.85a23.11,23.11,0,0,1,.86,2.51A16.2,16.2,0,0,1,159.08,774.7Z" />
    <path class="cls-66"
        d="M160,804.1a7,7,0,0,1-.43,1.38c-.18.26-.26.6-.44.86A17.07,17.07,0,0,0,160,804.1Z" />
    <path class="cls-67"
        d="M161,800.72c-.09.44-.17.87-.26,1.3a2.51,2.51,0,0,0-.34.87A17.18,17.18,0,0,0,161,800.72Z" />
    <path class="cls-68"
        d="M161.58,796.57c-.08.78-.17,1.56-.25,2.25a8.38,8.38,0,0,1-.26,1.38C161.24,799,161.41,797.87,161.58,796.57Z" />
    <path class="cls-69"
        d="M161.84,792.25a28.87,28.87,0,0,1-.26,4.06,6.44,6.44,0,0,1-2-1.38c-2.43-2.25-3.72-6-2.94-8.3.69-2,2.59-2.34,4.75-1v.08A55.67,55.67,0,0,1,161.84,792.25Z" />
    <path class="cls-70"
        d="M166.68,792.42c0,9.93-2.79,17.36-7.58,22.07a5.57,5.57,0,0,1-1.39,1.25l-.08.15a23.49,23.49,0,0,1-3.46,2.13,19.68,19.68,0,0,0,3.17-2.79,7.61,7.61,0,0,0,1-1.26c3.82-4.7,6-11.62,6-20.23A50.17,50.17,0,0,0,164,788c-2.35-23.47-18.91-50-38.77-61.59-7.58-4.41-14.79-6-20.83-5.07a12.46,12.46,0,0,0-2.28.51h-.07a17.93,17.93,0,0,0-3.24,1.25,10.06,10.06,0,0,1,3-1.69c.81-.29,1.69-.66,2.57-1,6.55-1.69,14.5-.44,23.25,4.64C149.24,737.53,166.68,767.62,166.68,792.42Z" />
    <path class="cls-71"
        d="M109.79,766.22c-2.42-.52-5-3.54-5.79-6.74s.6-5.45,3-4.93,4.93,3.46,5.71,6.74S112.21,766.74,109.79,766.22Z" />
    <path class="cls-71"
        d="M122.15,787.32c-1.47,1.47-4.32.35-6.39-2.59s-2.51-6.4-1-8,4.41-.34,6.4,2.6S123.63,785.76,122.15,787.32Z" />
    <path class="cls-71"
        d="M121.12,736.56c-2,.52-4.85-1.73-6.4-4.93-1.3-2.76-1.12-5.53.43-6.48h.09a18.44,18.44,0,0,1,2.76.78c.7.26,1.39.52,2.17.86a10.39,10.39,0,0,1,2,2.94C123.71,733,123.19,736,121.12,736.56Z" />
    <path class="cls-71"
        d="M138.24,739.5a3.3,3.3,0,0,1-3.55-.17,10.23,10.23,0,0,1-4.49-6.83A76.26,76.26,0,0,1,138.24,739.5Z" />
    <path class="cls-71"
        d="M149.13,753.25a8.93,8.93,0,0,1-.86-1,9.87,9.87,0,0,1-1-1.81C147.92,751.35,148.53,752.3,149.13,753.25Z" />
    <path class="cls-71"
        d="M92,768.9c.34,1.21.77,2.42,1.21,3.63a43,43,0,0,1-1.56-4.41A3.35,3.35,0,0,1,92,768.9Z" />
    <path class="cls-71" d="M104,725a1.16,1.16,0,0,1,.52-.18c-.09.18-.26.26-.35.43Z" />
    <path class="cls-71"
        d="M131.75,816.2a35.79,35.79,0,0,1-4.23-1.9,22.54,22.54,0,0,0,2.16,1A21.15,21.15,0,0,0,131.75,816.2Z" />
    <path class="cls-71"
        d="M146.71,775.47c0,6-2.77,9.6-7,10a8,8,0,0,1-3.46-.25,7.82,7.82,0,0,0,2.85-.78c2.43-1.3,4-4.24,4-8.48,0-8.21-5.88-18.33-13.06-22.48-3.8-2.16-7.17-2.25-9.6-.69a6,6,0,0,0-1.9,2,10.67,10.67,0,0,1,1.3-3c2.51-3.63,7.18-4.32,12.54-1.21C140.31,755.24,146.71,766.31,146.71,775.47Z" />
    <path class="cls-71"
        d="M159.08,774.7a10.43,10.43,0,0,1-2.42-4.41,6.27,6.27,0,0,1-.18-2.77c.44,1,.78,1.9,1.13,2.85a23.11,23.11,0,0,1,.86,2.51A16.2,16.2,0,0,1,159.08,774.7Z" />
    <path class="cls-71"
        d="M161.84,792.25a28.87,28.87,0,0,1-.26,4.06,6.44,6.44,0,0,1-2-1.38c-2.43-2.25-3.72-6-2.94-8.3.69-2,2.59-2.34,4.75-1v.08A55.67,55.67,0,0,1,161.84,792.25Z" />
    <path class="cls-71"
        d="M129.68,815.25a22.54,22.54,0,0,1-2.16-1,35.79,35.79,0,0,0,4.23,1.9A21.15,21.15,0,0,1,129.68,815.25ZM99.93,726.62l.09-.09.26-.26c-.26.18-.52.26-.78.43A1,1,0,0,1,99.93,726.62Zm27.75-1.53c-8.75-5.08-16.7-6.33-23.25-4.64-.88.3-1.76.67-2.57,1a10.06,10.06,0,0,0-3,1.69,17.93,17.93,0,0,1,3.24-1.25h.07a12.46,12.46,0,0,1,2.28-.51c6-1,13.25.66,20.83,5.07C145.12,738,161.68,764.53,164,788a50.17,50.17,0,0,1,.3,5.74c0,8.61-2.14,15.53-6,20.23a7.61,7.61,0,0,1-1,1.26,19.68,19.68,0,0,1-3.17,2.79,23.49,23.49,0,0,0,3.46-2.13l.08-.15a5.57,5.57,0,0,0,1.39-1.25c4.79-4.71,7.58-12.14,7.58-22.07C166.68,767.62,149.24,737.53,127.68,725.09Z" />
    <path class="cls-72"
        d="M109.79,766.22c-2.42-.52-5-3.54-5.79-6.74s.6-5.45,3-4.93,4.93,3.46,5.71,6.74S112.21,766.74,109.79,766.22Z" />
    <path class="cls-72"
        d="M122.15,787.32c-1.47,1.47-4.32.35-6.39-2.59s-2.51-6.4-1-8,4.41-.34,6.4,2.6S123.63,785.76,122.15,787.32Z" />
    <path class="cls-72"
        d="M121.12,736.56c-2,.52-4.85-1.73-6.4-4.93-1.3-2.76-1.12-5.53.43-6.48h.09a18.44,18.44,0,0,1,2.76.78c.7.26,1.39.52,2.17.86a10.39,10.39,0,0,1,2,2.94C123.71,733,123.19,736,121.12,736.56Z" />
    <path class="cls-72"
        d="M138.24,739.5a3.3,3.3,0,0,1-3.55-.17,10.23,10.23,0,0,1-4.49-6.83A76.26,76.26,0,0,1,138.24,739.5Z" />
    <path class="cls-72"
        d="M149.13,753.25a8.93,8.93,0,0,1-.86-1,9.87,9.87,0,0,1-1-1.81C147.92,751.35,148.53,752.3,149.13,753.25Z" />
    <path class="cls-72"
        d="M146.71,775.47c0,6-2.77,9.6-7,10a8,8,0,0,1-3.46-.25,7.82,7.82,0,0,0,2.85-.78c2.43-1.3,4-4.24,4-8.48,0-8.21-5.88-18.33-13.06-22.48-3.8-2.16-7.17-2.25-9.6-.69a6,6,0,0,0-1.9,2,10.67,10.67,0,0,1,1.3-3c2.51-3.63,7.18-4.32,12.54-1.21C140.31,755.24,146.71,766.31,146.71,775.47Z" />
    <path class="cls-72"
        d="M159.08,774.7a10.43,10.43,0,0,1-2.42-4.41,6.27,6.27,0,0,1-.18-2.77c.44,1,.78,1.9,1.13,2.85a23.11,23.11,0,0,1,.86,2.51A16.2,16.2,0,0,1,159.08,774.7Z" />
    <path class="cls-72"
        d="M161.84,792.25a28.87,28.87,0,0,1-.26,4.06,6.44,6.44,0,0,1-2-1.38c-2.43-2.25-3.72-6-2.94-8.3.69-2,2.59-2.34,4.75-1v.08A55.67,55.67,0,0,1,161.84,792.25Z" />
    <path class="cls-73"
        d="M92,768.9a3.35,3.35,0,0,0-.35-.78,43,43,0,0,0,1.56,4.41C92.75,771.32,92.32,770.11,92,768.9Zm37.7,46.35a22.54,22.54,0,0,1-2.16-1,35.79,35.79,0,0,0,4.23,1.9A21.15,21.15,0,0,1,129.68,815.25Z" />
    <path class="cls-73"
        d="M164,788c-2.35-23.47-18.91-50-38.77-61.59-7.58-4.41-14.79-6-20.83-5.07a12.46,12.46,0,0,0-2.28.51h-.07a17.93,17.93,0,0,0-3.24,1.25c-7.72,3.68-12.58,12.59-12.58,25.54,0,24.79,17.51,54.89,39,67.39,11.47,6.55,21.78,6.85,28.91,2a19.68,19.68,0,0,0,3.17-2.79,7.61,7.61,0,0,0,1-1.26c3.82-4.7,6-11.62,6-20.23A50.17,50.17,0,0,0,164,788Zm-2.43,8.32v.29a144.19,144.19,0,0,1-.29,2.21,8.37,8.37,0,0,1-.22,1.39,1.34,1.34,0,0,1-.07.52,9,9,0,0,0-.3,1.32c-.29.74-.44,1.48-.66,2.06s-.3,1-.44,1.4c-.07.08-.22.22-.22.37s-.15.29-.22.44a11.78,11.78,0,0,1-.59,1.33c-.3.51-.52,1-.81,1.47,0,.07-.07.07-.07.15-.37.51-.74,1-1,1.54s-.73.81-1,1.25c0,0,0,.07-.14.07v.08h-.08c-.51.59-.95.95-1.47,1.47a4.23,4.23,0,0,1-1.25,1c-.22.07-.29.22-.44.29s-.07.08-.07.08H152a3.23,3.23,0,0,1-.88.59c-.15.07-.3.22-.37.22s-.08.07-.22.07a4.64,4.64,0,0,1-1.18.59,8.22,8.22,0,0,1-1.84.66,18.14,18.14,0,0,1-2.43.66,6.16,6.16,0,0,1-1.32.15,16.94,16.94,0,0,1-3.9,0,4.77,4.77,0,0,1-1-.07,23,23,0,0,1-3-.52c-1.39-.37-2.79-.73-4.19-1.25-.29-.15-.66-.29-1-.44a9.86,9.86,0,0,1-2.06-1c-.44-.14-.73-.36-1.1-.51a23.82,23.82,0,0,1-2.28-1.18,14.67,14.67,0,0,0-1.84-1.1c-.08-.08-.15-.22-.22-.3a31.1,31.1,0,0,1-3.46-2.35,2.39,2.39,0,0,0-.59-.37,28,28,0,0,0-2.21-1.84,62.33,62.33,0,0,1-4.56-4.34c-.81-.74-1.55-1.47-2.36-2.35-.22-.23-.51-.59-.73-.81-1-1.18-1.91-2.28-2.87-3.46a.69.69,0,0,0-.3-.37c-.07-.07-.07-.07-.07-.15a3.9,3.9,0,0,1-.66-.88,8.84,8.84,0,0,1-.74-1L103.4,792c-1-1.39-2-2.87-2.87-4.34A26.75,26.75,0,0,1,99,784.91a39.83,39.83,0,0,1-2.13-4,73,73,0,0,1-3.32-7.43c-.14-.37-.29-.74-.36-1-.22-.74-.52-1.4-.74-2.13a13.93,13.93,0,0,1-.81-2.29,3.37,3.37,0,0,0-.29-.88c-.15-.73-.37-1.54-.59-2.35,0-.08-.08-.22-.08-.3-.44-1.69-.66-3.16-1-4.71-.22-1.17-.44-2.5-.59-3.75s-.3-2.57-.3-3.83v-.58a12.62,12.62,0,0,1-.07-1.62c0-.81.07-1.77.07-2.58,0-.51.15-1,.15-1.54a.9.9,0,0,1,.08-.37,5.45,5.45,0,0,1,.07-1v-.07c0-.15.07-.37.07-.52a1.12,1.12,0,0,1,.08-.51,16.61,16.61,0,0,1,.36-1.84c0-.08.08-.23.08-.3v-.15c0-.07.07-.14.07-.22a.73.73,0,0,1,.22-.59,3.24,3.24,0,0,1,.22-.88v-.07c0-.22,0-.3.08-.37A15.88,15.88,0,0,1,91,737.3a3.25,3.25,0,0,1,.29-.88.42.42,0,0,1,.22-.37c.15-.44.44-.88.59-1.32s.37-.59.52-1l.51-.81a7,7,0,0,1,1.11-1.62,8.28,8.28,0,0,1,.81-1c.14-.15.22-.3.44-.52l.51-.51a13.84,13.84,0,0,1,1-1l.15-.15a1.89,1.89,0,0,1,.37-.22h.07s.07,0,.07-.14a5.47,5.47,0,0,1,.67-.3.52.52,0,0,0,.14-.22,1.71,1.71,0,0,1,.37-.22c.07-.07.15-.22.22-.22a.07.07,0,0,0,.07-.07.08.08,0,0,1,.08-.08c.15,0,.22-.07.29-.07a6.71,6.71,0,0,1,.81-.44.24.24,0,0,0,.15-.08.29.29,0,0,0,.15-.07c.07,0,.07,0,.07-.07a.26.26,0,0,1,.22-.08,6,6,0,0,1,1-.36.89.89,0,0,1,.44-.23l1.55-.44H104a1.44,1.44,0,0,1,.52-.14h.07l.07-.08H105a2.85,2.85,0,0,1,.44-.07,6.63,6.63,0,0,1,1.25-.22,4.57,4.57,0,0,1,1.11-.08,4.72,4.72,0,0,1,1-.07h.37c.58,0,1.1.07,1.61.07a8.7,8.7,0,0,1,1.18.23c.3,0,.44.07.74.07a5.33,5.33,0,0,1,1,.15,5.59,5.59,0,0,1,1.1.29c.08,0,.15.07.29.07h.08a19.63,19.63,0,0,1,2.72.74c1,.37,2.21.88,3.39,1.4a10.91,10.91,0,0,0,1.32.59c1,.44,1.69.88,2.58,1.39s1.61,1,2.5,1.55a14.42,14.42,0,0,1,2.43,1.69,72.3,72.3,0,0,1,8,7,63.13,63.13,0,0,1,4.7,5.15c.74.89,1.48,1.84,2.21,2.8s1.33,1.91,2,2.79c.15.08.15.08.15.15.66,1,1.25,1.91,1.91,2.87.37.52.66,1.1,1,1.69a9.3,9.3,0,0,0,1,1.47.49.49,0,0,1,.07.3c.66,1.1,1.25,2.28,1.91,3.53a2.35,2.35,0,0,1,.3.59c.51,1,1,2,1.47,2.94.29.52.44,1,.73,1.47a8.47,8.47,0,0,0,.37,1.18l.44,1.11c.45,1,.81,1.83,1.18,2.79a26.87,26.87,0,0,1,.81,2.58,15.73,15.73,0,0,1,.66,1.76v.22a26.33,26.33,0,0,1,.74,2.65c.07.37.22.66.29,1v.3a1.56,1.56,0,0,1,.15.59,2.48,2.48,0,0,1,.15.58v.08c.22,1,.44,1.91.59,2.87s.29,1.84.36,2.65v.14a47.89,47.89,0,0,1,.44,6.48A34.85,34.85,0,0,1,161.6,796.32Z" />
    <path class="cls-71"
        d="M155.45,812.22a20.37,20.37,0,0,1-1.47,1.47,8.1,8.1,0,0,1-1.3,1c-.17.09-.26.17-.43.26a.09.09,0,0,0-.09.09h-.09a5.18,5.18,0,0,1-.95.6.63.63,0,0,1-.34.18c-.09,0-.09.08-.18.08a5.27,5.27,0,0,1-1.21.61,14.89,14.89,0,0,1-1.81.69,21.39,21.39,0,0,1-2.42.61,7.34,7.34,0,0,1-1.39.17,14.88,14.88,0,0,1-3.89,0,3.7,3.7,0,0,1-.95-.09,17.79,17.79,0,0,1-3-.52,36.67,36.67,0,0,1-4.15-1.21,21.15,21.15,0,0,1-2.07-1,22.54,22.54,0,0,1-2.16-1c-.7-.35-1.47-.78-2.25-1.21-.61-.35-1.21-.78-1.82-1.12l-.26-.26c-1.12-.7-2.33-1.47-3.46-2.34a2.49,2.49,0,0,0-.6-.43c-.69-.61-1.38-1.21-2.16-1.82a52.1,52.1,0,0,1-4.59-4.32c-.78-.78-1.55-1.47-2.33-2.34-.26-.26-.52-.6-.78-.86-1-1.12-1.9-2.25-2.85-3.46-.09-.09-.18-.26-.26-.35s-.09-.08-.09-.17a3.39,3.39,0,0,1-.69-.86,6.87,6.87,0,0,1-.69-1l-1.3-1.82c-1-1.38-2-2.85-2.85-4.32A29.87,29.87,0,0,1,99,784.9c-.78-1.3-1.47-2.59-2.16-4-1.21-2.42-2.34-4.93-3.29-7.43a6.28,6.28,0,0,1-.34-1c-.44-1.21-.87-2.42-1.21-3.63a3.35,3.35,0,0,0-.35-.78c-.09-.34-.17-.6-.26-.86-.17-.78-.43-1.56-.6-2.33,0-.09-.09-.26-.09-.35-.43-1.64-.69-3.11-1-4.67-.26-1.21-.43-2.51-.61-3.81s-.26-2.5-.26-3.8v-.61a10,10,0,0,1-.08-1.55c0-.87.08-1.82.08-2.6,0-.51.09-1,.09-1.55a.63.63,0,0,1,.09-.35,4.61,4.61,0,0,1,.08-1v-.08c0-.17.09-.35.09-.52a1.06,1.06,0,0,1,.09-.52,12.93,12.93,0,0,1,.34-1.82c0-.08.09-.26.09-.34v-.09c0-.08.09-.17.09-.26a1.18,1.18,0,0,1,.17-.6,3.2,3.2,0,0,1,.26-.87v-.08c0-.18,0-.26.08-.35a11,11,0,0,1,.61-1.73,3,3,0,0,1,.35-1,.64.64,0,0,1,.17-.35c.17-.43.43-.86.6-1.29s.35-.61.52-1,.35-.61.52-.87a7.79,7.79,0,0,1,1.12-1.56,4.3,4.3,0,0,1,.78-1c.18-.17.26-.34.44-.52l.51-.51a11.25,11.25,0,0,1,1-1l.17-.17a1.58,1.58,0,0,1,.35-.26h.09a.08.08,0,0,0,.08-.08,4.13,4.13,0,0,1,.61-.35l.17-.17c.09-.09.26-.18.35-.26s.17-.18.26-.18a.08.08,0,0,0,.08-.08.09.09,0,0,1,.09-.09c.09,0,.17-.09.26-.09a1,1,0,0,1,.43-.08l.09-.09a7.86,7.86,0,0,1,1.9-.95c.17-.09.26-.09.43-.17a9.07,9.07,0,0,1,1.56-.43H104l.17.25c-3.81,4.41-6,11-6,19.46,0,23.17,16.35,51.28,36.49,62.95C142.39,812.05,149.57,813.52,155.45,812.22Z" />
    <path class="cls-72"
        d="M159.6,794.93c-2.43-2.25-3.72-6-2.94-8.3.69-2,2.59-2.34,4.75-1-.08-.87-.26-1.73-.43-2.68s-.35-1.9-.52-2.86v-.08a2,2,0,0,0-.17-.61,2.44,2.44,0,0,0-.17-.6v-.26c-.09-.35-.18-.69-.26-1-.26-.86-.44-1.82-.78-2.68v-.17a10.43,10.43,0,0,1-2.42-4.41,6.27,6.27,0,0,1-.18-2.77c-.51-1.21-1-2.42-1.55-3.72-.43-.95-1-2-1.47-2.94a2.34,2.34,0,0,0-.35-.6c-.6-1.22-1.21-2.43-1.9-3.55s-1.38-2.33-2.08-3.46a8.93,8.93,0,0,1-.86-1,9.87,9.87,0,0,1-1-1.81c0-.09,0-.09-.09-.17-.69-.87-1.29-1.82-2-2.77s-1.47-1.9-2.25-2.77a67.72,67.72,0,0,0-4.67-5.19,3.3,3.3,0,0,1-3.55-.17,10.23,10.23,0,0,1-4.49-6.83,22.34,22.34,0,0,0-2.42-1.64c-.87-.61-1.65-1-2.51-1.56a23.75,23.75,0,0,0-2.6-1.38c-.86-.44-1.73-.78-2.5-1.13a10.39,10.39,0,0,1,2,2.94c1.56,3.29,1,6.31-1,6.83s-4.85-1.73-6.4-4.93c-1.3-2.76-1.12-5.53.43-6.48-.09,0-.17-.09-.26-.09-.34-.08-.78-.17-1.12-.26a4.7,4.7,0,0,0-1-.17c-.26,0-.43-.09-.69-.09a23.75,23.75,0,0,0-4.24-.17,4.35,4.35,0,0,0-1.12.09,4.84,4.84,0,0,0-1.21.17c-.35.09-.61.09-.87.17h-.08c-.09.18-.26.26-.35.43-3.81,4.41-6,11-6,19.46,0,23.17,16.35,51.28,36.49,62.95,7.7,4.41,14.88,5.88,20.76,4.58h.08v-.08a.09.09,0,0,0,.09-.09c.35-.43.69-.78,1-1.21l1-1.56c0-.08.09-.08.09-.17.26-.52.52-1,.78-1.47a8,8,0,0,0,.6-1.3,17.07,17.07,0,0,0,.87-2.24,5.35,5.35,0,0,0,.35-1.21,17.18,17.18,0,0,0,.6-2.17,1,1,0,0,0,.09-.52c.17-1.21.34-2.33.51-3.63v-.26A6.44,6.44,0,0,1,159.6,794.93Zm-49.81-28.71c-2.42-.52-5-3.54-5.79-6.74s.6-5.45,3-4.93,4.93,3.46,5.71,6.74S112.21,766.74,109.79,766.22Zm3-21.27c-.7,1.73-2.25,2.16-4,1.3A7.9,7.9,0,0,1,107,745c-2.42-2.25-3.8-6.05-3-8.39a2.37,2.37,0,0,1,2.07-1.64,5,5,0,0,1,3.81,1.64C112.21,738.9,113.6,742.62,112.82,745Zm9.33,42.37c-1.47,1.47-4.32.35-6.39-2.59s-2.51-6.4-1-8,4.41-.34,6.4,2.6S123.63,785.76,122.15,787.32Zm12.54,15.48a10.24,10.24,0,0,1-4.58-8c0-2.5,1.47-3.71,3.46-3a3.53,3.53,0,0,1,1.12.43,10.29,10.29,0,0,1,4.24,5.62,11.17,11.17,0,0,1,.34,2.25C139.27,803.06,137.2,804.27,134.69,802.8Zm6.92-14.18c-2.59.43-5.79-.18-9.25-2.16a31.42,31.42,0,0,1-7.44-6.23c-.09-.09-.17-.17-.17-.26a39.18,39.18,0,0,1-7.35-12.71c-.09-.09-.09-.09-.09-.17a28.16,28.16,0,0,1-1.81-9.69,14.38,14.38,0,0,1,2.5-8.73c2.94-3.72,8.3-4.32,14.36-.87,9.34,5.36,16.86,18.34,16.86,29.06C149.22,783.6,146.19,787.75,141.61,788.62Zm12,18.07a3.55,3.55,0,0,1-1.38,0c-1.73-.43-3.9-2.42-5-4.93a7.27,7.27,0,0,1-.69-4.84,2.57,2.57,0,0,1,1.73-1.9c2.08-.52,4.93,1.64,6.4,4.84S155.71,806.17,153.63,806.69Z" />
    <path class="cls-74"
        d="M132.36,747.8c-6.06-3.45-11.42-2.85-14.36.87a14.38,14.38,0,0,0-2.5,8.73,28.16,28.16,0,0,0,1.81,9.69c0,.08,0,.08.09.17A39.18,39.18,0,0,0,124.75,780c0,.09.08.17.17.26a31.42,31.42,0,0,0,7.44,6.23c3.46,2,6.66,2.59,9.25,2.16,4.58-.87,7.61-5,7.61-11.76C149.22,766.14,141.7,753.16,132.36,747.8Zm7.35,37.7a8,8,0,0,1-3.46-.25,11.6,11.6,0,0,1-6.23-1.82,25.49,25.49,0,0,1-7.26-6.74c-.09-.18-.26-.26-.26-.44a57.37,57.37,0,0,1-3.28-5.62A24.92,24.92,0,0,1,117,761a11.7,11.7,0,0,1,1.55-6.14,10.67,10.67,0,0,1,1.3-3c2.51-3.63,7.18-4.32,12.54-1.21,7.95,4.67,14.35,15.74,14.35,24.9C146.71,781.44,143.94,785.07,139.71,785.5Z" />
    <path class="cls-74"
        d="M146.71,775.47c0,6-2.77,9.6-7,10a8,8,0,0,1-3.46-.25,7.82,7.82,0,0,0,2.85-.78c2.43-1.3,4-4.24,4-8.48,0-8.21-5.88-18.33-13.06-22.48-3.8-2.16-7.17-2.25-9.6-.69a6,6,0,0,0-1.9,2,10.67,10.67,0,0,1,1.3-3c2.51-3.63,7.18-4.32,12.54-1.21C140.31,755.24,146.71,766.31,146.71,775.47Z" />
    <path class="cls-71"
        d="M146.71,775.47c0,6-2.77,9.6-7,10a8,8,0,0,1-3.46-.25,7.82,7.82,0,0,0,2.85-.78c2.43-1.3,4-4.24,4-8.48,0-8.21-5.88-18.33-13.06-22.48-3.8-2.16-7.17-2.25-9.6-.69a6,6,0,0,0-1.9,2,10.67,10.67,0,0,1,1.3-3c2.51-3.63,7.18-4.32,12.54-1.21C140.31,755.24,146.71,766.31,146.71,775.47Z" />
    <path class="cls-73"
        d="M143.08,776c0,4.24-1.55,7.18-4,8.48a7.82,7.82,0,0,1-2.85.78,11.6,11.6,0,0,1-6.23-1.82,25.49,25.49,0,0,1-7.26-6.74c-.09-.18-.26-.26-.26-.44a57.37,57.37,0,0,1-3.28-5.62A24.92,24.92,0,0,1,117,761a11.7,11.7,0,0,1,1.55-6.14,6,6,0,0,1,1.9-2c2.43-1.56,5.8-1.47,9.6.69C137.2,757.66,143.08,767.78,143.08,776Z" />
    <path class="cls-74"
        d="M138.24,739.5a3.3,3.3,0,0,1-3.55-.17,10.23,10.23,0,0,1-4.49-6.83A76.26,76.26,0,0,1,138.24,739.5Z" />
    <path class="cls-74"
        d="M149.13,753.25a8.93,8.93,0,0,1-.86-1,9.87,9.87,0,0,1-1-1.81C147.92,751.35,148.53,752.3,149.13,753.25Z" />
    <path class="cls-74"
        d="M159.08,774.7a10.43,10.43,0,0,1-2.42-4.41,6.27,6.27,0,0,1-.18-2.77c.44,1,.78,1.9,1.13,2.85a23.11,23.11,0,0,1,.86,2.51A16.2,16.2,0,0,1,159.08,774.7Z" />
    <path class="cls-74"
        d="M161.84,792.25a28.87,28.87,0,0,1-.26,4.06,6.44,6.44,0,0,1-2-1.38c-2.43-2.25-3.72-6-2.94-8.3.69-2,2.59-2.34,4.75-1v.08A55.67,55.67,0,0,1,161.84,792.25Z" />
    <path class="cls-74"
        d="M153.63,806.69a3.55,3.55,0,0,1-1.38,0c-1.73-.43-3.9-2.42-5-4.93a7.27,7.27,0,0,1-.69-4.84,2.57,2.57,0,0,1,1.73-1.9c2.08-.52,4.93,1.64,6.4,4.84S155.71,806.17,153.63,806.69Z" />
    <path class="cls-74"
        d="M139.27,800.12c0,2.94-2.07,4.15-4.58,2.68a10.24,10.24,0,0,1-4.58-8c0-2.5,1.47-3.71,3.46-3a3.53,3.53,0,0,1,1.12.43,10.29,10.29,0,0,1,4.24,5.62A11.17,11.17,0,0,1,139.27,800.12Z" />
    <path class="cls-74"
        d="M122.15,787.32c-1.47,1.47-4.32.35-6.39-2.59s-2.51-6.4-1-8,4.41-.34,6.4,2.6S123.63,785.76,122.15,787.32Z" />
    <path class="cls-74"
        d="M109.79,766.22c-2.42-.52-5-3.54-5.79-6.74s.6-5.45,3-4.93,4.93,3.46,5.71,6.74S112.21,766.74,109.79,766.22Z" />
    <path class="cls-74"
        d="M112.82,745c-.7,1.73-2.25,2.16-4,1.3A7.9,7.9,0,0,1,107,745c-2.42-2.25-3.8-6.05-3-8.39a2.37,2.37,0,0,1,2.07-1.64,5,5,0,0,1,3.81,1.64C112.21,738.9,113.6,742.62,112.82,745Z" />
    <path class="cls-74"
        d="M121.12,736.56c-2,.52-4.85-1.73-6.4-4.93-1.3-2.76-1.12-5.53.43-6.48h.09a18.44,18.44,0,0,1,2.76.78c.7.26,1.39.52,2.17.86a10.39,10.39,0,0,1,2,2.94C123.71,733,123.19,736,121.12,736.56Z" />
    <path class="cls-75"
        d="M558.8,998.62c-.08.17-.26.26-.34.43l-.17-.26A1.14,1.14,0,0,1,558.8,998.62Z" />
    <path class="cls-76" d="M559.75,998.44c-.34.09-.6.09-.86.18l.09-.09Z" />
    <path class="cls-77"
        d="M566.33,998.36a23.75,23.75,0,0,0-4.24-.17,4.07,4.07,0,0,1,1-.09h.34c.61,0,1.13.09,1.65.09C565.46,998.27,565.89,998.27,566.33,998.36Z" />
    <path class="cls-78"
        d="M575.41,1010.38c-2,.52-4.85-1.73-6.4-4.93-1.3-2.77-1.13-5.54.43-6.49h.09a21.17,21.17,0,0,1,2.76.78c.69.26,1.39.52,2.16.87a10.08,10.08,0,0,1,2,2.94C578,1006.83,577.48,1009.86,575.41,1010.38Z" />
    <path class="cls-79"
        d="M592.53,1013.32a3.35,3.35,0,0,1-3.55-.17,10.22,10.22,0,0,1-4.49-6.84A76.37,76.37,0,0,1,592.53,1013.32Z" />
    <path class="cls-80"
        d="M601,1049.29c0,6-2.77,9.6-7,10l-.61-1c2.42-1.29,4-4.23,4-8.47,0-8.22-5.88-18.33-13.06-22.48-3.8-2.17-7.17-2.25-9.6-.7l-.6-1c2.51-3.63,7.18-4.33,12.54-1.21C594.6,1029.06,601,1040.12,601,1049.29Z" />
    <path class="cls-81"
        d="M603.42,1027.07a11,11,0,0,1-.86-1,9.94,9.94,0,0,1-1-1.82C602.21,1025.16,602.82,1026.12,603.42,1027.07Z" />
    <path class="cls-82"
        d="M605.5,1030.53c-.69-1.21-1.38-2.34-2.08-3.46.7,1,1.3,2.16,2,3.2A.3.3,0,0,1,605.5,1030.53Z" />
    <path class="cls-83"
        d="M610.77,1041.33c-.52-1.21-1-2.42-1.55-3.71.26.52.43,1,.69,1.47C610.17,1039.86,610.51,1040.56,610.77,1041.33Z" />
    <path class="cls-84"
        d="M613.37,1048.51a10.43,10.43,0,0,1-2.42-4.41,6.27,6.27,0,0,1-.18-2.77c.43,1,.78,1.91,1.13,2.86a22.39,22.39,0,0,1,.86,2.51A16.05,16.05,0,0,1,613.37,1048.51Z" />
    <path class="cls-85"
        d="M614.32,1077.91a7.07,7.07,0,0,1-.43,1.39c-.18.25-.26.6-.44.86A16.68,16.68,0,0,0,614.32,1077.91Z" />
    <path class="cls-86"
        d="M615.27,1074.54c-.09.43-.17.86-.26,1.3a2.77,2.77,0,0,0-.35.86A15.13,15.13,0,0,0,615.27,1074.54Z" />
    <path class="cls-87"
        d="M615.87,1070.39c-.08.78-.17,1.56-.26,2.25a6.71,6.71,0,0,1-.26,1.38C615.53,1072.81,615.7,1071.69,615.87,1070.39Z" />
    <path class="cls-88"
        d="M616.13,1066.07a29.07,29.07,0,0,1-.26,4.06,6.44,6.44,0,0,1-2-1.38c-2.43-2.25-3.72-6-2.94-8.31.69-2,2.59-2.33,4.75-1v.09A55.53,55.53,0,0,1,616.13,1066.07Z" />
    <path class="cls-89"
        d="M621,1066.23c0,9.93-2.8,17.37-7.58,22.07a5.48,5.48,0,0,1-1.4,1.26l-.36-.52a8.72,8.72,0,0,0,1-1.25c3.82-4.71,6-11.63,6-20.23a50,50,0,0,0-.3-5.74c-2.35-23.48-18.91-50-38.77-61.59-7.58-4.41-14.79-6-20.83-5.08a13.38,13.38,0,0,0-2.28.52h-.07l-.22-.44c.81-.3,1.69-.67,2.57-1,6.55-1.69,14.5-.44,23.25,4.64C603.53,1011.34,621,1041.43,621,1066.23Z" />
    <path class="cls-76" d="M559.75,998.44c-.34.09-.6.09-.86.18l.09-.09Z" />
    <path class="cls-77"
        d="M566.33,998.36a23.75,23.75,0,0,0-4.24-.17,4.07,4.07,0,0,1,1-.09h.34c.61,0,1.13.09,1.65.09C565.46,998.27,565.89,998.27,566.33,998.36Z" />
    <path class="cls-78"
        d="M575.41,1010.38c-2,.52-4.85-1.73-6.4-4.93-1.3-2.77-1.13-5.54.43-6.49h.09a21.17,21.17,0,0,1,2.76.78c.69.26,1.39.52,2.16.87a10.08,10.08,0,0,1,2,2.94C578,1006.83,577.48,1009.86,575.41,1010.38Z" />
    <path class="cls-79"
        d="M592.53,1013.32a3.35,3.35,0,0,1-3.55-.17,10.22,10.22,0,0,1-4.49-6.84A76.37,76.37,0,0,1,592.53,1013.32Z" />
    <path class="cls-81"
        d="M603.42,1027.07a11,11,0,0,1-.86-1,9.94,9.94,0,0,1-1-1.82C602.21,1025.16,602.82,1026.12,603.42,1027.07Z" />
    <path class="cls-82"
        d="M605.5,1030.53c-.69-1.21-1.38-2.34-2.08-3.46.7,1,1.3,2.16,2,3.2A.3.3,0,0,1,605.5,1030.53Z" />
    <path class="cls-90"
        d="M601,1049.29c0,6-2.77,9.6-7,10a8,8,0,0,1-3.46-.26,7.63,7.63,0,0,0,2.85-.78c2.42-1.29,4-4.23,4-8.47,0-8.22-5.88-18.33-13.06-22.48-3.8-2.17-7.17-2.25-9.6-.7a6.15,6.15,0,0,0-1.9,2,10.6,10.6,0,0,1,1.3-3c2.51-3.63,7.18-4.33,12.54-1.21C594.6,1029.06,601,1040.12,601,1049.29Z" />
    <path class="cls-83"
        d="M610.77,1041.33c-.52-1.21-1-2.42-1.55-3.71.26.52.43,1,.69,1.47C610.17,1039.86,610.51,1040.56,610.77,1041.33Z" />
    <path class="cls-84"
        d="M613.37,1048.51a10.43,10.43,0,0,1-2.42-4.41,6.27,6.27,0,0,1-.18-2.77c.43,1,.78,1.91,1.13,2.86a22.39,22.39,0,0,1,.86,2.51A16.05,16.05,0,0,1,613.37,1048.51Z" />
    <path class="cls-85"
        d="M614.32,1077.91a7.07,7.07,0,0,1-.43,1.39c-.18.25-.26.6-.44.86A16.68,16.68,0,0,0,614.32,1077.91Z" />
    <path class="cls-86"
        d="M615.27,1074.54c-.09.43-.17.86-.26,1.3a2.77,2.77,0,0,0-.35.86A15.13,15.13,0,0,0,615.27,1074.54Z" />
    <path class="cls-87"
        d="M615.87,1070.39c-.08.78-.17,1.56-.26,2.25a6.71,6.71,0,0,1-.26,1.38C615.53,1072.81,615.7,1071.69,615.87,1070.39Z" />
    <path class="cls-88"
        d="M616.13,1066.07a29.07,29.07,0,0,1-.26,4.06,6.44,6.44,0,0,1-2-1.38c-2.43-2.25-3.72-6-2.94-8.31.69-2,2.59-2.33,4.75-1v.09A55.53,55.53,0,0,1,616.13,1066.07Z" />
    <path class="cls-91"
        d="M621,1066.23c0,9.93-2.8,17.37-7.58,22.07-.29-.22-.44-.29-.73-.51,3.82-4.71,6-11.63,6-20.23a50,50,0,0,0-.3-5.74c-2.35-23.48-18.91-50-38.77-61.59-7.58-4.41-14.79-6-20.83-5.08a3.69,3.69,0,0,1,0-.88c6.55-1.69,14.5-.44,23.25,4.64C603.53,1011.34,621,1041.43,621,1066.23Z" />
    <path class="cls-92" d="M559.75,998.44c-.34.09-.6.09-.86.18l.09-.09Z" />
    <path class="cls-93"
        d="M566.33,998.36a23.75,23.75,0,0,0-4.24-.17,4.07,4.07,0,0,1,1-.09h.34c.61,0,1.13.09,1.65.09C565.46,998.27,565.89,998.27,566.33,998.36Z" />
    <path class="cls-94"
        d="M564.08,1040c-2.42-.52-5-3.55-5.79-6.75s.6-5.44,3-4.93,4.93,3.46,5.71,6.75S566.5,1040.56,564.08,1040Z" />
    <path class="cls-95"
        d="M576.44,1061.14c-1.47,1.47-4.32.34-6.39-2.6s-2.51-6.4-1-8,4.41-.35,6.4,2.59S577.91,1059.58,576.44,1061.14Z" />
    <path class="cls-96"
        d="M575.41,1010.38c-2,.52-4.85-1.73-6.4-4.93-1.3-2.77-1.13-5.54.43-6.49h.09a21.17,21.17,0,0,1,2.76.78c.69.26,1.39.52,2.16.87a10.08,10.08,0,0,1,2,2.94C578,1006.83,577.48,1009.86,575.41,1010.38Z" />
    <path class="cls-97"
        d="M592.53,1013.32a3.35,3.35,0,0,1-3.55-.17,10.22,10.22,0,0,1-4.49-6.84A76.37,76.37,0,0,1,592.53,1013.32Z" />
    <path class="cls-98"
        d="M603.42,1027.07a11,11,0,0,1-.86-1,9.94,9.94,0,0,1-1-1.82C602.21,1025.16,602.82,1026.12,603.42,1027.07Z" />
    <path class="cls-99"
        d="M605.5,1030.53c-.69-1.21-1.38-2.34-2.08-3.46.7,1,1.3,2.16,2,3.2A.3.3,0,0,1,605.5,1030.53Z" />
    <path class="cls-100"
        d="M546.27,1042.72c.34,1.21.77,2.42,1.21,3.63a43,43,0,0,1-1.56-4.41A3.35,3.35,0,0,1,546.27,1042.72Z" />
    <path class="cls-101"
        d="M555,999.83a4.8,4.8,0,0,1,1.21-.43,7.51,7.51,0,0,0-1.9,1l-.09.08a.89.89,0,0,0-.43.09c.26-.17.52-.26.78-.43a.31.31,0,0,0,.17-.09.27.27,0,0,0,.17-.09C555,999.91,555,999.91,555,999.83Z" />
    <path class="cls-102" d="M558.29,998.79a1.14,1.14,0,0,1,.51-.17c-.08.17-.26.26-.34.43Z" />
    <path class="cls-103"
        d="M586,1090a35.2,35.2,0,0,1-4.23-1.91,21.59,21.59,0,0,0,2.16,1C584.66,1089.41,585.35,1089.76,586,1090Z" />
    <path class="cls-104"
        d="M601,1049.29c0,6-2.77,9.6-7,10a8,8,0,0,1-3.46-.26,7.63,7.63,0,0,0,2.85-.78c2.42-1.29,4-4.23,4-8.47,0-8.22-5.88-18.33-13.06-22.48-3.8-2.17-7.17-2.25-9.6-.7a6.15,6.15,0,0,0-1.9,2,10.6,10.6,0,0,1,1.3-3c2.51-3.63,7.18-4.33,12.54-1.21C594.6,1029.06,601,1040.12,601,1049.29Z" />
    <path class="cls-105"
        d="M610.77,1041.33c-.52-1.21-1-2.42-1.55-3.71.26.52.43,1,.69,1.47C610.17,1039.86,610.51,1040.56,610.77,1041.33Z" />
    <path class="cls-106"
        d="M613.37,1048.51a10.43,10.43,0,0,1-2.42-4.41,6.27,6.27,0,0,1-.18-2.77c.43,1,.78,1.91,1.13,2.86a22.39,22.39,0,0,1,.86,2.51A16.05,16.05,0,0,1,613.37,1048.51Z" />
    <path class="cls-107"
        d="M614.32,1077.91a7.07,7.07,0,0,1-.43,1.39c-.18.25-.26.6-.44.86A16.68,16.68,0,0,0,614.32,1077.91Z" />
    <path class="cls-108"
        d="M615.27,1074.54c-.09.43-.17.86-.26,1.3a2.77,2.77,0,0,0-.35.86A15.13,15.13,0,0,0,615.27,1074.54Z" />
    <path class="cls-109"
        d="M615.87,1070.39c-.08.78-.17,1.56-.26,2.25a6.71,6.71,0,0,1-.26,1.38C615.53,1072.81,615.7,1071.69,615.87,1070.39Z" />
    <path class="cls-110"
        d="M616.13,1066.07a29.07,29.07,0,0,1-.26,4.06,6.44,6.44,0,0,1-2-1.38c-2.43-2.25-3.72-6-2.94-8.31.69-2,2.59-2.33,4.75-1v.09A55.53,55.53,0,0,1,616.13,1066.07Z" />
    <path class="cls-111"
        d="M621,1066.23c0,9.93-2.8,17.37-7.58,22.07a5.48,5.48,0,0,1-1.4,1.26l-.07.14a22.71,22.71,0,0,1-3.46,2.14,19.26,19.26,0,0,0,3.17-2.8,8.72,8.72,0,0,0,1-1.25c3.82-4.71,6-11.63,6-20.23a50,50,0,0,0-.3-5.74c-2.35-23.48-18.91-50-38.77-61.59-7.58-4.41-14.79-6-20.83-5.08a13.38,13.38,0,0,0-2.28.52h-.07a16.56,16.56,0,0,0-3.24,1.25,9.85,9.85,0,0,1,3-1.69c.81-.3,1.69-.67,2.57-1,6.55-1.69,14.5-.44,23.25,4.64C603.53,1011.34,621,1041.43,621,1066.23Z" />
    <path class="cls-11"
        d="M667.71,1077.24l-1.83-34.54v-24.22s-25.76-15.61-37.75-22.54L568.3,960.09l-24.51,14.17a26.93,26.93,0,0,0-9,9c-4.2,6.63-6.63,15.68-6.63,26.64,0,35.61,25.17,79,56.22,96.9,15.67,9.13,32.45,6.3,43.26,1.37C627.8,1108.05,667.71,1077.24,667.71,1077.24Zm-54.32,11.06a5.48,5.48,0,0,1-1.4,1.26l-.07.14a22.71,22.71,0,0,1-3.46,2.14c-7.14,4.85-17.44,4.56-28.91-2-21.49-12.51-39-42.6-39-67.4,0-13,4.86-21.85,12.58-25.53a9.85,9.85,0,0,1,3-1.69c.81-.3,1.69-.67,2.57-1,6.55-1.69,14.5-.44,23.25,4.64,21.56,12.43,39,42.52,39,67.32C621,1076.16,618.17,1083.6,613.39,1088.3Z" />
    <path class="cls-112" d="M559.75,998.44c-.34.09-.6.09-.86.18l.09-.09Z" />
    <path class="cls-113"
        d="M566.33,998.36a23.75,23.75,0,0,0-4.24-.17,4.07,4.07,0,0,1,1-.09h.34c.61,0,1.13.09,1.65.09C565.46,998.27,565.89,998.27,566.33,998.36Z" />
    <path class="cls-114"
        d="M564.08,1040c-2.42-.52-5-3.55-5.79-6.75s.6-5.44,3-4.93,4.93,3.46,5.71,6.75S566.5,1040.56,564.08,1040Z" />
    <path class="cls-115"
        d="M576.44,1061.14c-1.47,1.47-4.32.34-6.39-2.6s-2.51-6.4-1-8,4.41-.35,6.4,2.59S577.91,1059.58,576.44,1061.14Z" />
    <path class="cls-116"
        d="M575.41,1010.38c-2,.52-4.85-1.73-6.4-4.93-1.3-2.77-1.13-5.54.43-6.49h.09a21.17,21.17,0,0,1,2.76.78c.69.26,1.39.52,2.16.87a10.08,10.08,0,0,1,2,2.94C578,1006.83,577.48,1009.86,575.41,1010.38Z" />
    <path class="cls-117"
        d="M592.53,1013.32a3.35,3.35,0,0,1-3.55-.17,10.22,10.22,0,0,1-4.49-6.84A76.37,76.37,0,0,1,592.53,1013.32Z" />
    <path class="cls-118"
        d="M603.42,1027.07a11,11,0,0,1-.86-1,9.94,9.94,0,0,1-1-1.82C602.21,1025.16,602.82,1026.12,603.42,1027.07Z" />
    <path class="cls-119"
        d="M605.5,1030.53c-.69-1.21-1.38-2.34-2.08-3.46.7,1,1.3,2.16,2,3.2A.3.3,0,0,1,605.5,1030.53Z" />
    <path class="cls-120"
        d="M546.27,1042.72c.34,1.21.77,2.42,1.21,3.63a43,43,0,0,1-1.56-4.41A3.35,3.35,0,0,1,546.27,1042.72Z" />
    <path class="cls-121"
        d="M555,999.83a4.8,4.8,0,0,1,1.21-.43,7.51,7.51,0,0,0-1.9,1l-.09.08a.89.89,0,0,0-.43.09c.26-.17.52-.26.78-.43a.31.31,0,0,0,.17-.09.27.27,0,0,0,.17-.09C555,999.91,555,999.91,555,999.83Z" />
    <path class="cls-122" d="M558.29,998.79a1.14,1.14,0,0,1,.51-.17c-.08.17-.26.26-.34.43Z" />
    <path class="cls-123"
        d="M586,1090a35.2,35.2,0,0,1-4.23-1.91,21.59,21.59,0,0,0,2.16,1C584.66,1089.41,585.35,1089.76,586,1090Z" />
    <path class="cls-124"
        d="M601,1049.29c0,6-2.77,9.6-7,10a8,8,0,0,1-3.46-.26,7.63,7.63,0,0,0,2.85-.78c2.42-1.29,4-4.23,4-8.47,0-8.22-5.88-18.33-13.06-22.48-3.8-2.17-7.17-2.25-9.6-.7a6.15,6.15,0,0,0-1.9,2,10.6,10.6,0,0,1,1.3-3c2.51-3.63,7.18-4.33,12.54-1.21C594.6,1029.06,601,1040.12,601,1049.29Z" />
    <path class="cls-125"
        d="M610.77,1041.33c-.52-1.21-1-2.42-1.55-3.71.26.52.43,1,.69,1.47C610.17,1039.86,610.51,1040.56,610.77,1041.33Z" />
    <path class="cls-126"
        d="M613.37,1048.51a10.43,10.43,0,0,1-2.42-4.41,6.27,6.27,0,0,1-.18-2.77c.43,1,.78,1.91,1.13,2.86a22.39,22.39,0,0,1,.86,2.51A16.05,16.05,0,0,1,613.37,1048.51Z" />
    <path class="cls-127"
        d="M614.32,1077.91a7.07,7.07,0,0,1-.43,1.39c-.18.25-.26.6-.44.86A16.68,16.68,0,0,0,614.32,1077.91Z" />
    <path class="cls-128"
        d="M615.27,1074.54c-.09.43-.17.86-.26,1.3a2.77,2.77,0,0,0-.35.86A15.13,15.13,0,0,0,615.27,1074.54Z" />
    <path class="cls-129"
        d="M615.87,1070.39c-.08.78-.17,1.56-.26,2.25a6.71,6.71,0,0,1-.26,1.38C615.53,1072.81,615.7,1071.69,615.87,1070.39Z" />
    <path class="cls-130"
        d="M616.13,1066.07a29.07,29.07,0,0,1-.26,4.06,6.44,6.44,0,0,1-2-1.38c-2.43-2.25-3.72-6-2.94-8.31.69-2,2.59-2.33,4.75-1v.09A55.53,55.53,0,0,1,616.13,1066.07Z" />
    <path class="cls-131"
        d="M621,1066.23c0,9.93-2.8,17.37-7.58,22.07a5.48,5.48,0,0,1-1.4,1.26l-.07.14a22.71,22.71,0,0,1-3.46,2.14,19.26,19.26,0,0,0,3.17-2.8,8.72,8.72,0,0,0,1-1.25c3.82-4.71,6-11.63,6-20.23a50,50,0,0,0-.3-5.74c-2.35-23.48-18.91-50-38.77-61.59-7.58-4.41-14.79-6-20.83-5.08a13.38,13.38,0,0,0-2.28.52h-.07a16.56,16.56,0,0,0-3.24,1.25,9.85,9.85,0,0,1,3-1.69c.81-.3,1.69-.67,2.57-1,6.55-1.69,14.5-.44,23.25,4.64C603.53,1011.34,621,1041.43,621,1066.23Z" />
    <path class="cls-71"
        d="M564.08,1040c-2.42-.52-5-3.55-5.79-6.75s.6-5.44,3-4.93,4.93,3.46,5.71,6.75S566.5,1040.56,564.08,1040Z" />
    <path class="cls-71"
        d="M576.44,1061.14c-1.47,1.47-4.32.34-6.39-2.6s-2.51-6.4-1-8,4.41-.35,6.4,2.59S577.91,1059.58,576.44,1061.14Z" />
    <path class="cls-71"
        d="M575.41,1010.38c-2,.52-4.85-1.73-6.4-4.93-1.3-2.77-1.13-5.54.43-6.49h.09a21.17,21.17,0,0,1,2.76.78c.69.26,1.39.52,2.16.87a10.08,10.08,0,0,1,2,2.94C578,1006.83,577.48,1009.86,575.41,1010.38Z" />
    <path class="cls-71"
        d="M592.53,1013.32a3.35,3.35,0,0,1-3.55-.17,10.22,10.22,0,0,1-4.49-6.84A76.37,76.37,0,0,1,592.53,1013.32Z" />
    <path class="cls-71"
        d="M603.42,1027.07a11,11,0,0,1-.86-1,9.94,9.94,0,0,1-1-1.82C602.21,1025.16,602.82,1026.12,603.42,1027.07Z" />
    <path class="cls-71"
        d="M546.27,1042.72c.34,1.21.77,2.42,1.21,3.63a43,43,0,0,1-1.56-4.41A3.35,3.35,0,0,1,546.27,1042.72Z" />
    <path class="cls-71" d="M558.29,998.79a1.14,1.14,0,0,1,.51-.17c-.08.17-.26.26-.34.43Z" />
    <path class="cls-71"
        d="M586,1090a35.2,35.2,0,0,1-4.23-1.91,21.59,21.59,0,0,0,2.16,1C584.66,1089.41,585.35,1089.76,586,1090Z" />
    <path class="cls-71"
        d="M601,1049.29c0,6-2.77,9.6-7,10a8,8,0,0,1-3.46-.26,7.63,7.63,0,0,0,2.85-.78c2.42-1.29,4-4.23,4-8.47,0-8.22-5.88-18.33-13.06-22.48-3.8-2.17-7.17-2.25-9.6-.7a6.15,6.15,0,0,0-1.9,2,10.6,10.6,0,0,1,1.3-3c2.51-3.63,7.18-4.33,12.54-1.21C594.6,1029.06,601,1040.12,601,1049.29Z" />
    <path class="cls-71"
        d="M613.37,1048.51a10.43,10.43,0,0,1-2.42-4.41,6.27,6.27,0,0,1-.18-2.77c.43,1,.78,1.91,1.13,2.86a22.39,22.39,0,0,1,.86,2.51A16.05,16.05,0,0,1,613.37,1048.51Z" />
    <path class="cls-71"
        d="M616.13,1066.07a29.07,29.07,0,0,1-.26,4.06,6.44,6.44,0,0,1-2-1.38c-2.43-2.25-3.72-6-2.94-8.31.69-2,2.59-2.33,4.75-1v.09A55.53,55.53,0,0,1,616.13,1066.07Z" />
    <path class="cls-71"
        d="M584,1089.07a21.59,21.59,0,0,1-2.16-1A35.2,35.2,0,0,0,586,1090C585.35,1089.76,584.66,1089.41,584,1089.07Zm-29.75-88.64.09-.08.26-.26c-.26.17-.52.26-.78.43A.89.89,0,0,1,554.22,1000.43ZM582,998.91c-8.75-5.08-16.7-6.33-23.25-4.64-.88.29-1.76.66-2.57,1a9.85,9.85,0,0,0-3,1.69,16.56,16.56,0,0,1,3.24-1.25h.07a13.38,13.38,0,0,1,2.28-.52c6-.95,13.25.67,20.83,5.08,19.86,11.55,36.42,38.11,38.77,61.59a50,50,0,0,1,.3,5.74c0,8.6-2.14,15.52-6,20.23a8.72,8.72,0,0,1-1,1.25,19.26,19.26,0,0,1-3.17,2.8,22.71,22.71,0,0,0,3.46-2.14l.07-.14a5.48,5.48,0,0,0,1.4-1.26c4.78-4.7,7.58-12.14,7.58-22.07C621,1041.43,603.53,1011.34,582,998.91Z" />
    <path class="cls-72"
        d="M564.08,1040c-2.42-.52-5-3.55-5.79-6.75s.6-5.44,3-4.93,4.93,3.46,5.71,6.75S566.5,1040.56,564.08,1040Z" />
    <path class="cls-72"
        d="M576.44,1061.14c-1.47,1.47-4.32.34-6.39-2.6s-2.51-6.4-1-8,4.41-.35,6.4,2.59S577.91,1059.58,576.44,1061.14Z" />
    <path class="cls-72"
        d="M575.41,1010.38c-2,.52-4.85-1.73-6.4-4.93-1.3-2.77-1.13-5.54.43-6.49h.09a21.17,21.17,0,0,1,2.76.78c.69.26,1.39.52,2.16.87a10.08,10.08,0,0,1,2,2.94C578,1006.83,577.48,1009.86,575.41,1010.38Z" />
    <path class="cls-72"
        d="M592.53,1013.32a3.35,3.35,0,0,1-3.55-.17,10.22,10.22,0,0,1-4.49-6.84A76.37,76.37,0,0,1,592.53,1013.32Z" />
    <path class="cls-72"
        d="M603.42,1027.07a11,11,0,0,1-.86-1,9.94,9.94,0,0,1-1-1.82C602.21,1025.16,602.82,1026.12,603.42,1027.07Z" />
    <path class="cls-72"
        d="M601,1049.29c0,6-2.77,9.6-7,10a8,8,0,0,1-3.46-.26,7.63,7.63,0,0,0,2.85-.78c2.42-1.29,4-4.23,4-8.47,0-8.22-5.88-18.33-13.06-22.48-3.8-2.17-7.17-2.25-9.6-.7a6.15,6.15,0,0,0-1.9,2,10.6,10.6,0,0,1,1.3-3c2.51-3.63,7.18-4.33,12.54-1.21C594.6,1029.06,601,1040.12,601,1049.29Z" />
    <path class="cls-72"
        d="M613.37,1048.51a10.43,10.43,0,0,1-2.42-4.41,6.27,6.27,0,0,1-.18-2.77c.43,1,.78,1.91,1.13,2.86a22.39,22.39,0,0,1,.86,2.51A16.05,16.05,0,0,1,613.37,1048.51Z" />
    <path class="cls-72"
        d="M616.13,1066.07a29.07,29.07,0,0,1-.26,4.06,6.44,6.44,0,0,1-2-1.38c-2.43-2.25-3.72-6-2.94-8.31.69-2,2.59-2.33,4.75-1v.09A55.53,55.53,0,0,1,616.13,1066.07Z" />
    <path class="cls-73"
        d="M546.27,1042.72a3.35,3.35,0,0,0-.35-.78,43,43,0,0,0,1.56,4.41C547,1045.14,546.61,1043.93,546.27,1042.72Zm37.7,46.35a21.59,21.59,0,0,1-2.16-1A35.2,35.2,0,0,0,586,1090C585.35,1089.76,584.66,1089.41,584,1089.07Z" />
    <path class="cls-73"
        d="M618.32,1061.82c-2.35-23.48-18.91-50-38.77-61.59-7.58-4.41-14.79-6-20.83-5.08a13.38,13.38,0,0,0-2.28.52h-.07a16.56,16.56,0,0,0-3.24,1.25c-7.72,3.68-12.58,12.58-12.58,25.53,0,24.8,17.51,54.89,39,67.4,11.47,6.55,21.77,6.84,28.91,2a19.26,19.26,0,0,0,3.17-2.8,8.72,8.72,0,0,0,1-1.25c3.82-4.71,6-11.63,6-20.23A50,50,0,0,0,618.32,1061.82Zm-2.43,8.31v.29a110.74,110.74,0,0,1-.29,2.21,8.49,8.49,0,0,1-.22,1.4,1.34,1.34,0,0,1-.07.52,7.84,7.84,0,0,0-.3,1.32c-.29.74-.44,1.47-.66,2.06s-.3,1-.44,1.4a.58.58,0,0,0-.22.37c-.08.14-.15.29-.22.44a10.91,10.91,0,0,1-.59,1.32c-.3.52-.52,1-.81,1.47,0,.08-.08.08-.08.15-.36.52-.73,1-1,1.55s-.73.8-1,1.25c0,0,0,.07-.14.07v.07h-.08c-.51.59-1,1-1.47,1.48a4.56,4.56,0,0,1-1.25,1c-.22.07-.29.22-.44.29a.07.07,0,0,0-.07.07h-.15a3.15,3.15,0,0,1-.88.59c-.15.08-.3.22-.37.22s-.08.08-.22.08a4.64,4.64,0,0,1-1.18.59,8.22,8.22,0,0,1-1.84.66,19.77,19.77,0,0,1-2.43.66,6.87,6.87,0,0,1-1.32.15,18.15,18.15,0,0,1-3.9,0,4.18,4.18,0,0,1-1-.08,21.17,21.17,0,0,1-3-.51c-1.39-.37-2.79-.74-4.19-1.25a10.28,10.28,0,0,0-1-.44,11,11,0,0,1-2.06-1c-.44-.15-.74-.37-1.1-.52a21.56,21.56,0,0,1-2.28-1.17,16,16,0,0,0-1.84-1.11c-.08-.07-.15-.22-.23-.29a30.7,30.7,0,0,1-3.45-2.36,2.92,2.92,0,0,0-.59-.36,26,26,0,0,0-2.21-1.84c-1.62-1.4-3.09-2.8-4.56-4.34-.81-.74-1.55-1.48-2.36-2.36-.22-.22-.51-.59-.73-.81-1-1.18-1.91-2.28-2.87-3.46a.76.76,0,0,0-.3-.36c-.07-.08-.07-.08-.07-.15a4.4,4.4,0,0,1-.66-.88,7.73,7.73,0,0,1-.74-1l-1.25-1.84c-1-1.4-2-2.87-2.87-4.34a25,25,0,0,1-1.54-2.72,43.53,43.53,0,0,1-2.14-4,75.22,75.22,0,0,1-3.31-7.43c-.15-.37-.29-.73-.36-1-.23-.73-.52-1.39-.74-2.13a13.51,13.51,0,0,1-.81-2.28,3.14,3.14,0,0,0-.29-.88c-.15-.74-.37-1.55-.59-2.36,0-.07-.08-.22-.08-.29-.44-1.69-.66-3.17-1-4.71-.22-1.18-.44-2.5-.59-3.75s-.3-2.58-.3-3.83v-.59a12.47,12.47,0,0,1-.07-1.62c0-.81.07-1.76.07-2.57,0-.52.15-1,.15-1.55a1.08,1.08,0,0,1,.07-.37,4.83,4.83,0,0,1,.08-1v-.07c0-.15.07-.37.07-.51a1.18,1.18,0,0,1,.08-.52,17.07,17.07,0,0,1,.36-1.84c0-.07.08-.22.08-.29V1015c0-.07.07-.15.07-.22a.71.71,0,0,1,.22-.59,3.24,3.24,0,0,1,.22-.88v-.08c0-.22,0-.29.07-.36a18.25,18.25,0,0,1,.67-1.77,3.25,3.25,0,0,1,.29-.88.41.41,0,0,1,.22-.37c.15-.44.44-.88.59-1.33a10.16,10.16,0,0,0,.52-.95c.14-.22.36-.59.51-.81a7.06,7.06,0,0,1,1.1-1.62,9.68,9.68,0,0,1,.82-1c.14-.14.21-.29.44-.51l.51-.52a13.79,13.79,0,0,1,1-.95l.15-.15a1.5,1.5,0,0,1,.37-.22h.07s.07,0,.07-.15a5.57,5.57,0,0,1,.67-.29.7.7,0,0,0,.14-.22,1.39,1.39,0,0,1,.37-.22c.07-.08.15-.22.22-.22s.07-.08.07-.08a.07.07,0,0,1,.08-.07c.15,0,.22-.08.29-.08.22-.14.52-.29.81-.44a.25.25,0,0,0,.15-.07.29.29,0,0,0,.15-.07c.07,0,.07,0,.07-.08a.28.28,0,0,1,.22-.07,5.32,5.32,0,0,1,1-.37.8.8,0,0,1,.44-.22l1.55-.44h.07a1.28,1.28,0,0,1,.52-.15h.07l.07-.07h.37a2.34,2.34,0,0,1,.44-.08,6.63,6.63,0,0,1,1.25-.22,5.21,5.21,0,0,1,1.11-.07,4.72,4.72,0,0,1,1-.07h.37c.58,0,1.1.07,1.61.07a7.29,7.29,0,0,1,1.18.22c.3,0,.44.07.74.07a6.24,6.24,0,0,1,1,.15,5.82,5.82,0,0,1,1.1.3c.07,0,.15.07.29.07h.08a18.32,18.32,0,0,1,2.72.74c1,.36,2.21.88,3.39,1.39a10.91,10.91,0,0,0,1.32.59,27.71,27.71,0,0,1,2.58,1.4c.88.51,1.61,1,2.5,1.54a14.56,14.56,0,0,1,2.42,1.7,70.49,70.49,0,0,1,8,7,61.52,61.52,0,0,1,4.7,5.15c.74.88,1.48,1.84,2.21,2.79s1.33,1.92,2,2.8c.15.07.15.07.15.15.66,1,1.25,1.91,1.91,2.87.37.51.66,1.1,1,1.69a9.78,9.78,0,0,0,1,1.47.45.45,0,0,1,.07.29c.66,1.11,1.25,2.29,1.91,3.54a2.19,2.19,0,0,1,.3.59c.51.95,1,2,1.47,2.94.29.51.44,1,.73,1.47a8.91,8.91,0,0,0,.37,1.18l.44,1.1c.44,1,.81,1.84,1.18,2.8.29.81.59,1.69.81,2.57a18.15,18.15,0,0,1,.66,1.77v.22a25.61,25.61,0,0,1,.74,2.65c.07.37.22.66.29,1v.29a1.61,1.61,0,0,1,.15.59,2.42,2.42,0,0,1,.15.59v.07c.22,1,.44,1.92.59,2.87s.29,1.84.36,2.65v.15a47.64,47.64,0,0,1,.44,6.47A34.61,34.61,0,0,1,615.89,1070.13Z" />
    <path class="cls-71"
        d="M609.73,1086c-.51.61-1,1-1.46,1.47a8.69,8.69,0,0,1-1.3,1c-.17.08-.26.17-.44.26a.08.08,0,0,0-.08.08h-.09a5.25,5.25,0,0,1-1,.61.73.73,0,0,1-.34.17c-.09,0-.09.09-.18.09a4.88,4.88,0,0,1-1.21.6,16.84,16.84,0,0,1-1.81.7,21.4,21.4,0,0,1-2.42.6,6.61,6.61,0,0,1-1.39.17,14.06,14.06,0,0,1-3.89,0,4.14,4.14,0,0,1-.95-.08,18.83,18.83,0,0,1-3-.52A38.19,38.19,0,0,1,586,1090c-.69-.26-1.38-.61-2.07-1a21.59,21.59,0,0,1-2.16-1c-.7-.34-1.47-.77-2.25-1.21-.61-.34-1.21-.77-1.82-1.12l-.26-.26c-1.12-.69-2.33-1.47-3.46-2.33a2.55,2.55,0,0,0-.6-.44c-.69-.6-1.39-1.21-2.16-1.81a53.74,53.74,0,0,1-4.59-4.33c-.78-.77-1.55-1.47-2.33-2.33-.26-.26-.52-.61-.78-.87-.95-1.12-1.9-2.24-2.85-3.45-.09-.09-.18-.26-.26-.35s-.09-.09-.09-.17a3.27,3.27,0,0,1-.69-.87,5.85,5.85,0,0,1-.69-1l-1.3-1.81c-.95-1.39-2-2.86-2.85-4.33a29.78,29.78,0,0,1-1.56-2.76c-.78-1.3-1.47-2.6-2.16-4a80.5,80.5,0,0,1-3.29-7.44,6.2,6.2,0,0,1-.34-1c-.44-1.21-.87-2.42-1.21-3.63a3.35,3.35,0,0,0-.35-.78c-.09-.35-.17-.61-.26-.87-.17-.77-.43-1.55-.6-2.33,0-.09-.09-.26-.09-.35-.43-1.64-.69-3.11-1-4.66-.26-1.22-.43-2.51-.61-3.81s-.26-2.51-.26-3.8v-.61a10.19,10.19,0,0,1-.08-1.56c0-.86.08-1.81.08-2.59,0-.52.09-1,.09-1.56a.62.62,0,0,1,.09-.34,4.56,4.56,0,0,1,.08-1v-.09c0-.17.09-.34.09-.52a1,1,0,0,1,.09-.51,12.67,12.67,0,0,1,.34-1.82c0-.09.09-.26.09-.35v-.08c0-.09.09-.18.09-.26a1.25,1.25,0,0,1,.17-.61,3.14,3.14,0,0,1,.26-.86v-.09c0-.17,0-.26.08-.34a10.66,10.66,0,0,1,.61-1.73,3,3,0,0,1,.34-1,.67.67,0,0,1,.18-.34c.17-.43.43-.87.6-1.3s.35-.6.52-.95.35-.6.52-.86a7.25,7.25,0,0,1,1.12-1.56,3.89,3.89,0,0,1,.78-1c.18-.17.26-.35.43-.52l.52-.52a11.2,11.2,0,0,1,1-1l.17-.17a1.14,1.14,0,0,1,.35-.26h.09a.08.08,0,0,0,.08-.09,3.4,3.4,0,0,1,.61-.34l.17-.18c.09-.08.26-.17.35-.26s.17-.17.26-.17.08-.09.08-.09a.08.08,0,0,1,.09-.08c.09,0,.17-.09.26-.09a.89.89,0,0,1,.43-.09l.09-.08a7.51,7.51,0,0,1,1.9-1c.17-.09.26-.09.43-.18a11.33,11.33,0,0,1,1.56-.43h.09l.17.26c-3.81,4.41-6,11-6,19.46,0,23.17,16.34,51.27,36.49,63C596.68,1085.87,603.86,1087.34,609.73,1086Z" />
    <path class="cls-72"
        d="M613.89,1068.75c-2.43-2.25-3.72-6-2.94-8.31.69-2,2.59-2.33,4.75-1-.09-.86-.26-1.73-.43-2.68s-.35-1.9-.52-2.85v-.09a2.44,2.44,0,0,0-.17-.6,2.1,2.1,0,0,0-.18-.61v-.26c-.08-.34-.17-.69-.26-1-.25-.86-.43-1.81-.77-2.68v-.17a10.43,10.43,0,0,1-2.42-4.41,6.27,6.27,0,0,1-.18-2.77c-.52-1.21-1-2.42-1.55-3.71-.44-1-1-2-1.47-2.94a2.23,2.23,0,0,0-.35-.61c-.6-1.21-1.21-2.42-1.9-3.54s-1.38-2.34-2.08-3.46a11,11,0,0,1-.86-1,9.94,9.94,0,0,1-1-1.82c0-.08,0-.08-.09-.17-.69-.86-1.29-1.82-2-2.77s-1.47-1.9-2.25-2.76a65.89,65.89,0,0,0-4.67-5.19,3.35,3.35,0,0,1-3.55-.17,10.22,10.22,0,0,1-4.49-6.84,24.58,24.58,0,0,0-2.43-1.64c-.86-.6-1.64-1-2.5-1.56a26.72,26.72,0,0,0-2.6-1.38c-.86-.43-1.73-.78-2.51-1.12a10.08,10.08,0,0,1,2,2.94c1.56,3.28,1,6.31-1,6.83s-4.85-1.73-6.4-4.93c-1.3-2.77-1.13-5.54.43-6.49-.09,0-.17-.08-.26-.08l-1.12-.26a4.2,4.2,0,0,0-1-.18c-.26,0-.43-.08-.69-.08a23.75,23.75,0,0,0-4.24-.17,4.88,4.88,0,0,0-1.12.08,5.52,5.52,0,0,0-1.22.17c-.34.09-.6.09-.86.18h-.09c-.08.17-.26.26-.34.43-3.81,4.41-6,11-6,19.46,0,23.17,16.34,51.27,36.49,63,7.7,4.41,14.88,5.88,20.75,4.58h.09V1086a.08.08,0,0,0,.09-.08c.34-.44.69-.78,1-1.21l1-1.56c0-.09.09-.09.09-.17.26-.52.52-1,.78-1.47a8.82,8.82,0,0,0,.6-1.3,16.68,16.68,0,0,0,.87-2.25,4.76,4.76,0,0,0,.34-1.21,15.13,15.13,0,0,0,.61-2.16,1.18,1.18,0,0,0,.08-.52c.18-1.21.35-2.33.52-3.63v-.26A6.44,6.44,0,0,1,613.89,1068.75ZM564.08,1040c-2.42-.52-5-3.55-5.79-6.75s.6-5.44,3-4.93,4.93,3.46,5.71,6.75S566.5,1040.56,564.08,1040Zm3-21.27c-.7,1.72-2.25,2.16-4,1.29a8.15,8.15,0,0,1-1.82-1.29c-2.42-2.25-3.8-6.06-3-8.39a2.38,2.38,0,0,1,2.07-1.65,4.93,4.93,0,0,1,3.8,1.65C566.5,1012.71,567.88,1016.43,567.11,1018.77Zm9.33,42.37c-1.47,1.47-4.32.34-6.39-2.6s-2.51-6.4-1-8,4.41-.35,6.4,2.59S577.91,1059.58,576.44,1061.14ZM589,1076.61a10.19,10.19,0,0,1-4.58-7.95c0-2.51,1.47-3.72,3.46-3a3.84,3.84,0,0,1,1.12.44,10.34,10.34,0,0,1,4.24,5.62,11,11,0,0,1,.34,2.24C593.56,1076.87,591.49,1078.08,589,1076.61Zm6.92-14.18c-2.59.44-5.79-.17-9.25-2.16a31.38,31.38,0,0,1-7.44-6.22c-.09-.09-.17-.18-.17-.26a39,39,0,0,1-7.35-12.72c-.09-.08-.09-.08-.09-.17a28.12,28.12,0,0,1-1.82-9.68,14.43,14.43,0,0,1,2.51-8.74c2.94-3.71,8.3-4.32,14.36-.86,9.34,5.36,16.86,18.33,16.86,29.05C603.51,1057.42,600.48,1061.57,595.9,1062.43Zm12,18.08a4,4,0,0,1-1.39,0c-1.72-.44-3.89-2.43-5-4.93a7.3,7.3,0,0,1-.69-4.85,2.57,2.57,0,0,1,1.73-1.9c2.07-.52,4.93,1.65,6.4,4.84S610,1080,607.92,1080.51Z" />
    <path class="cls-74"
        d="M586.65,1021.62c-6.06-3.46-11.42-2.85-14.36.86a14.43,14.43,0,0,0-2.51,8.74,28.12,28.12,0,0,0,1.82,9.68c0,.09,0,.09.09.17a39,39,0,0,0,7.35,12.72c0,.08.08.17.17.26a31.38,31.38,0,0,0,7.44,6.22c3.46,2,6.66,2.6,9.25,2.16,4.58-.86,7.61-5,7.61-11.76C603.51,1040,596,1027,586.65,1021.62Zm7.35,37.7a8,8,0,0,1-3.46-.26,11.51,11.51,0,0,1-6.23-1.82,25.21,25.21,0,0,1-7.26-6.74c-.09-.17-.26-.26-.26-.43a60.82,60.82,0,0,1-3.29-5.62,25.08,25.08,0,0,1-2.24-9.69,11.76,11.76,0,0,1,1.55-6.14,10.6,10.6,0,0,1,1.3-3c2.51-3.63,7.18-4.33,12.54-1.21,8,4.67,14.35,15.73,14.35,24.9C601,1055.26,598.23,1058.89,594,1059.32Z" />
    <path class="cls-74"
        d="M601,1049.29c0,6-2.77,9.6-7,10a8,8,0,0,1-3.46-.26,7.63,7.63,0,0,0,2.85-.78c2.42-1.29,4-4.23,4-8.47,0-8.22-5.88-18.33-13.06-22.48-3.8-2.17-7.17-2.25-9.6-.7a6.15,6.15,0,0,0-1.9,2,10.6,10.6,0,0,1,1.3-3c2.51-3.63,7.18-4.33,12.54-1.21C594.6,1029.06,601,1040.12,601,1049.29Z" />
    <path class="cls-71"
        d="M601,1049.29c0,6-2.77,9.6-7,10a8,8,0,0,1-3.46-.26,7.63,7.63,0,0,0,2.85-.78c2.42-1.29,4-4.23,4-8.47,0-8.22-5.88-18.33-13.06-22.48-3.8-2.17-7.17-2.25-9.6-.7a6.15,6.15,0,0,0-1.9,2,10.6,10.6,0,0,1,1.3-3c2.51-3.63,7.18-4.33,12.54-1.21C594.6,1029.06,601,1040.12,601,1049.29Z" />
    <path class="cls-73"
        d="M597.37,1049.81c0,4.24-1.56,7.18-4,8.47a7.63,7.63,0,0,1-2.85.78,11.51,11.51,0,0,1-6.23-1.82,25.21,25.21,0,0,1-7.26-6.74c-.09-.17-.26-.26-.26-.43a60.82,60.82,0,0,1-3.29-5.62,25.08,25.08,0,0,1-2.24-9.69,11.76,11.76,0,0,1,1.55-6.14,6.15,6.15,0,0,1,1.9-2c2.43-1.55,5.8-1.47,9.6.7C591.49,1031.48,597.37,1041.59,597.37,1049.81Z" />
    <path class="cls-74"
        d="M592.53,1013.32a3.35,3.35,0,0,1-3.55-.17,10.22,10.22,0,0,1-4.49-6.84A76.37,76.37,0,0,1,592.53,1013.32Z" />
    <path class="cls-74"
        d="M603.42,1027.07a11,11,0,0,1-.86-1,9.94,9.94,0,0,1-1-1.82C602.21,1025.16,602.82,1026.12,603.42,1027.07Z" />
    <path class="cls-74"
        d="M613.37,1048.51a10.43,10.43,0,0,1-2.42-4.41,6.27,6.27,0,0,1-.18-2.77c.43,1,.78,1.91,1.13,2.86a22.39,22.39,0,0,1,.86,2.51A16.05,16.05,0,0,1,613.37,1048.51Z" />
    <path class="cls-74"
        d="M616.13,1066.07a29.07,29.07,0,0,1-.26,4.06,6.44,6.44,0,0,1-2-1.38c-2.43-2.25-3.72-6-2.94-8.31.69-2,2.59-2.33,4.75-1v.09A55.53,55.53,0,0,1,616.13,1066.07Z" />
    <path class="cls-74"
        d="M607.92,1080.51a4,4,0,0,1-1.39,0c-1.72-.44-3.89-2.43-5-4.93a7.3,7.3,0,0,1-.69-4.85,2.57,2.57,0,0,1,1.73-1.9c2.07-.52,4.93,1.65,6.4,4.84S610,1080,607.92,1080.51Z" />
    <path class="cls-74"
        d="M593.56,1073.93c0,2.94-2.07,4.15-4.58,2.68a10.19,10.19,0,0,1-4.58-7.95c0-2.51,1.47-3.72,3.46-3a3.84,3.84,0,0,1,1.12.44,10.34,10.34,0,0,1,4.24,5.62A11,11,0,0,1,593.56,1073.93Z" />
    <path class="cls-74"
        d="M576.44,1061.14c-1.47,1.47-4.32.34-6.39-2.6s-2.51-6.4-1-8,4.41-.35,6.4,2.59S577.91,1059.58,576.44,1061.14Z" />
    <path class="cls-74"
        d="M564.08,1040c-2.42-.52-5-3.55-5.79-6.75s.6-5.44,3-4.93,4.93,3.46,5.71,6.75S566.5,1040.56,564.08,1040Z" />
    <path class="cls-74"
        d="M567.11,1018.77c-.7,1.72-2.25,2.16-4,1.29a8.15,8.15,0,0,1-1.82-1.29c-2.42-2.25-3.8-6.06-3-8.39a2.38,2.38,0,0,1,2.07-1.65,4.93,4.93,0,0,1,3.8,1.65C566.5,1012.71,567.88,1016.43,567.11,1018.77Z" />
    <path class="cls-74"
        d="M575.41,1010.38c-2,.52-4.85-1.73-6.4-4.93-1.3-2.77-1.13-5.54.43-6.49h.09a21.17,21.17,0,0,1,2.76.78c.69.26,1.39.52,2.16.87a10.08,10.08,0,0,1,2,2.94C578,1006.83,577.48,1009.86,575.41,1010.38Z" />
    <polygon class="cls-3"
        points="212.8 751.53 244.56 734.76 244.56 776.13 212.82 796.26 212.8 751.53" />
    <polygon class="cls-4"
        points="224.19 745.52 225.09 773.98 237.84 766.93 238.89 737.75 224.19 745.52" />
    <polygon class="cls-132"
        points="1074.03 530.54 800.84 666.44 242.7 376.14 242.7 758.33 799.27 1099.49 1074.03 941.41 1074.03 530.54" />
    <polygon class="cls-14"
        points="513.86 268.61 242.7 376.14 800.84 666.44 1074.03 530.54 513.86 268.61" />
    <polygon class="cls-132"
        points="35.57 638.55 41.51 642.11 58.53 652.32 210.55 743.39 210.55 433.44 114.72 382.53 42.75 518.7 37.12 612.21 36.7 619.33 35.57 638.55" />
    <path class="cls-133"
        d="M1059.91,946.53c0,2.55,3,2.84,6.81.66s6.8-6,6.8-8.55-3-2.85-6.8-.67S1059.91,944,1059.91,946.53Z" />
    <path class="cls-133"
        d="M797,1095.19c0,2.55,3,2.85,6.81.67s6.8-6,6.8-8.56-3-2.84-6.8-.67S797,1092.64,797,1095.19Z" />
    <polygon class="cls-5"
        points="244.56 734.76 212.8 752.36 510.81 937.92 525.16 946.84 555.53 965.84 555.66 965.88 561.25 969.36 639.39 1018.11 657.43 1029.41 662.52 1032.52 663.79 1033.39 695.68 1053.26 700.13 1056.05 706.23 1059.8 707.75 1060.71 771.79 1100.72 801.14 1100.72 735.58 1059.8 729.6 1056.05 681.7 1026.16 678.27 1024.01 676.24 1022.77 599.11 974.63 593.52 971.15 593.4 971.15 593.4 971.05 593.27 971.05 592.89 970.83 562.77 952.01 544.73 940.71 251.82 764.37 251.82 764.37 244.56 756.71 244.56 745.52 244.56 734.76" />
</svg>