<svg id="Capa_1" data-name="Capa 1" xmlns="http://www.w3.org/2000/svg" viewBox="0 0 1080 1350">
    <defs>
        <style>
            .cls-1{fill:#413d49;}.cls-14{fill:#c4c2c1;}.cls-2{fill:#18161c;}.cls-3{fill:#898b8d;}.cls-4{fill:#9fa1a2;}.cls-5{fill:#646669;}.cls-6{fill:#c1c3c4;}.cls-7{fill:#808487;}.cls-8{fill:#aaacae;}.cls-9{fill:#b455b4;}.cls-10{fill:#abadaf;}.cls-11{fill:#36323e;}.cls-12{fill:#d566d6;}.cls-13{fill:#434342;}.cls-15{fill:#1d232a;}</style>
    </defs>
    <path class="cls-1"
        d="M944.93,747.18C882.58,711.2,832,740,832,811.55s50.54,158.73,112.89,194.73,112.9,7.18,112.9-64.37S1007.29,783.19,944.93,747.18Zm0,233.27c-49.92-28.82-90.38-98.61-90.38-155.91S895,744.19,944.93,773s90.39,98.63,90.39,155.9S994.86,1009.27,944.93,980.45Z" />
    <path class="cls-2"
        d="M864,770.55c-41.91,11.94-50.45,35.28-56.46,78.88s22.32,96.66,44.82,124.71,63.88,62.5,96.38,57.77S999.26,1000,999.26,1000s-25.83,2.22-39.44-1.11-47.22-19.72-74.71-61.38-32.5-52.5-38.61-93.05,9.44-64.16,9.44-64.16Z" />
    <path class="cls-3"
        d="M940.3,775.71c-49.92-28.81-116.12,12.1-116.12,69.38s40.47,127.08,90.38,155.9,116.13-12.1,116.13-69.38S990.23,804.53,940.3,775.71Zm0,190c-41.53-24-75.19-82-75.19-129.68s33.66-66.84,75.19-42.87,75.18,82,75.18,129.69S981.83,989.68,940.31,965.7Z" />
    <path class="cls-4"
        d="M858.09,898.8q2.52,5.85,5.48,11.55c20.94,12.11,55.3,15.74,70.79,8.11,9,17.88-6.24,44.65-9.65,60.54q3,1.51,5.91,2.71c9.56-17.21,29.53-45.42,26.93-72.35,2.08,11.15,10.26,16.67,16.82,25.28,7.26,9.56,11.39,19.33,17.71,29.88a48,48,0,0,0,2.45-5c-11.32-27.44-16.68-60.46-36.22-81.71,8-9.65,13-6.63,27.45-3.7q-2.53-5.86-5.5-11.59c-21-12.18-32.94-22.11-48-14.09-9-17.87-15.13-34.39-11.72-50.28q-3-1.51-6-2.72c-9.59,17.18-8.38,35.24-5.53,62.1-8-1.74-16.76-7.59-25.13-14.45-9.29-7.61-24.29-16.37-30.6-26.93a47.44,47.44,0,0,0-2.44,5c11.36,27.4,31,54.32,57.41,68C900.24,898.73,872.55,901.73,858.09,898.8Z" />
    <path class="cls-5"
        d="M912.36,871.37c0,13.27,9.37,29.43,20.93,36.1s20.93,1.34,20.93-11.93-9.37-29.43-20.93-36.1S912.36,858.11,912.36,871.37Z" />
    <path class="cls-6"
        d="M858.09,898.8q2.52,5.85,5.48,11.55c20.94,12.11,36.57,26.55,52.06,18.92,9,17.88,12.49,33.84,9.08,49.73q3,1.51,5.91,2.71c9.56-17.21,10.8-34.6,8.2-61.54,8,1.75,15.87,11.11,22.42,19.72,7.27,9.56,24.52,14.08,30.84,24.63a48,48,0,0,0,2.45-5c-11.32-27.44-35.41-49.64-54.95-70.89,8-9.66,36.82-12.62,51.29-9.68q-2.54-5.87-5.51-11.59c-21-12.18-56.77-16.14-71.86-8.11-9-17.88,1.93-41.65,5.34-57.54q-3-1.51-6-2.72c-9.59,17.18-25.44,42.49-22.59,69.35-8-1.74-13-10.93-19.52-19.54-7.26-9.56-11.17-22.09-17.48-32.65a47.44,47.44,0,0,0-2.44,5c11.36,27.4,19.12,57.06,38.68,78.77C881.51,909.54,872.55,901.73,858.09,898.8Z" />
    <path class="cls-7"
        d="M935.49,906.35c0,13.27-9.37,18.61-20.93,11.94s-20.93-22.84-20.93-36.1,9.37-18.61,20.93-11.94S935.49,893.09,935.49,906.35Z" />
    <path class="cls-8"
        d="M932.22,908.51c0,13.26-9.37,18.6-20.93,11.93s-20.93-22.84-20.93-36.1,9.37-18.61,20.93-11.94S932.22,895.24,932.22,908.51Z" />
    <path class="cls-9"
        d="M1006.28,851.46l-.33-.61c.26.49.52,1,.76,1.46C1006.57,852,1006.42,851.75,1006.28,851.46Z" />
    <path class="cls-9" d="M955.3,962.51q-.94-.46-1.89-1l.92.48Z" />
    <path class="cls-9" d="M944.82,786.07l-1-.47c.63.3,1.26.62,1.89.95Z" />
    <path class="cls-1"
        d="M1040,1001.52c-14.61,15.45-40.56,36.09-71.62,42.83s19.22-26,25.88-36,19.72-54,6.76-83.51-52.59-122-101.47-146.75-102.83,13.58-90.16-3.62,39-33.84,66.22-40,87,32.48,107.13,54.7,63.46,68.05,62.07,125.82S1040,1001.52,1040,1001.52Z" />
    <path class="cls-10"
        d="M907.55,794.6c-49.91-28.82-90.38-5.75-90.38,51.53S857.64,973.2,907.55,1002s90.39,5.76,90.39-51.52S957.48,823.42,907.55,794.6Zm0,190c-41.53-24-75.19-82-75.19-129.69S866,788.06,907.56,812s75.19,82,75.19,129.68S949.08,1008.56,907.56,984.59Z" />
    <path class="cls-11"
        d="M902.91,771.45c-62.35-36-112.89-7.18-112.89,64.36s50.54,158.73,112.89,194.72,112.9,7.19,112.9-64.37S965.27,807.45,902.91,771.45Zm0,233.25c-49.91-28.82-90.38-98.61-90.38-155.89s40.47-80.35,90.38-51.53,90.39,98.61,90.39,155.89S952.84,1033.53,902.91,1004.7Z" />
    <path class="cls-12" d="M904,992.13c-.64-.31-1.26-.63-1.9-1l.92.48Z" />
    <path class="cls-12" d="M893.52,815.69l-1-.47c.64.3,1.27.62,1.9.95Z" />
    <path class="cls-1"
        d="M177.09,345.76c-62.35-36-112.9-7.18-112.9,64.35s50.55,158.74,112.9,194.74S290,612,290,540.48,239.44,381.76,177.09,345.76Zm0,233.26C127.16,550.2,86.7,480.4,86.7,423.11s40.46-80.35,90.39-51.53,90.39,98.63,90.39,155.9S227,607.84,177.09,579Z" />
    <path class="cls-2"
        d="M88.18,374.23C58.18,387,32.35,403.4,39.85,474S96,590.88,129.45,609.49s78.71,19.54,94,3.52-11-16.41-39.16-26.82-43.05-25.31-65.55-58.36-37-51.11-36.68-83.88a203,203,0,0,1,9.4-58.82Z" />
    <path class="cls-3"
        d="M172.45,374.28c-49.92-28.82-117.22,12.89-117.22,70.17s40.47,127.08,90.38,155.9,117.23-12.9,117.23-70.18S222.37,403.09,172.45,374.28Zm0,190c-41.52-24-75.19-82-75.19-129.69s33.67-66.84,75.19-42.87,75.19,82,75.19,129.69S214,588.24,172.45,564.27Z" />
    <path class="cls-4"
        d="M93.82,497.44q2.52,5.85,5.48,11.55c21,12.11,51.72,15.67,67.2,8,9,17.87-2.32,41.5-5.73,57.38q3,1.51,5.92,2.71c9.55-17.21,25.6-42.26,23-69.19,4.36,12.27,8.44,16.23,15,24.84,7.26,9.55,11.9,19.21,18.21,29.76a45.34,45.34,0,0,0,2.45-5c-11.31-27.43-15.36-59.89-34.9-81.14,8-9.65,13.3-3.9,27.77-1-1.69-3.91-3.53-7.79-5.51-11.59-21-12.19-33.26-24.86-48.35-16.83-9-17.87-16.51-32.68-13.1-48.56q-3-1.51-6-2.72c-9.59,17.18-7,33.52-4.14,60.38-8-1.74-20-6.3-27.81-13.76-8.7-8.28-17.92-21.47-24.24-32a45.5,45.5,0,0,0-2.43,5c11.35,27.4,20.81,51.22,53.72,72.36C132.39,497.3,108.29,500.37,93.82,497.44Z" />
    <path class="cls-5"
        d="M143.2,469.19c0,14.09,10,31.26,22.24,38.35s22.24,1.42,22.24-12.68-10-31.26-22.24-38.35S143.2,455.09,143.2,469.19Z" />
    <path class="cls-6"
        d="M93.82,497.44q2.52,5.85,5.48,11.55c21,12.11,33,26.48,48.47,18.85,9,17.88,16.41,30.69,13,46.57q3,1.51,5.92,2.71c9.55-17.21,6.88-31.44,4.28-58.38,8,1.74,15.86,11.11,22.42,19.72,7.26,9.56,23.21,13.52,29.52,24.07a45.34,45.34,0,0,0,2.45-5c-11.31-27.43-34.09-49.08-53.63-70.32,8-9.66,32-14.72,46.5-11.78-1.69-3.91-3.53-7.79-5.51-11.59-21-12.19-52-14-67.08-6-9-17.88,2.22-43.5,5.63-59.38q-3-1.51-6-2.72c-9.59,17.18-25.72,44.33-22.87,71.19-8-1.74-12.13-13.38-18.69-22-7.26-9.55-8.31-24-14.63-34.59a45.5,45.5,0,0,0-2.43,5c4.67,35.73,15.42,61.46,35,83.17C113.66,508.11,108.29,500.37,93.82,497.44Z" />
    <path class="cls-7"
        d="M169,505.68c0,13.26-9.37,18.61-20.93,11.93s-20.93-22.84-20.93-36.1,9.37-18.61,20.93-11.93S169,492.41,169,505.68Z" />
    <path class="cls-8"
        d="M165.67,507.83c0,13.26-9.37,18.61-20.93,11.93s-20.93-22.83-20.93-36.1,9.37-18.61,20.93-11.93S165.67,494.56,165.67,507.83Z" />
    <path class="cls-1"
        d="M114.61,331.32C68,339.51,42.51,370.08,37.7,377.74s70.06-2.86,70.06-2.86,69.33,16.95,96,74.34,32.54,125.64,16,162.31-55.06,29.5-35.8,33.08S247,641.31,274.54,597c42.63-68.56-57.16-201.09-74.78-216.23S114.61,331.32,114.61,331.32Z" />
    <path class="cls-10"
        d="M139.7,393.16c-49.92-28.82-90.38-5.75-90.38,51.53S89.78,571.77,139.7,600.58s90.39,5.76,90.39-51.52S189.63,422,139.7,393.16Zm0,190c-41.52-24-75.18-82-75.18-129.68s33.66-66.85,75.18-42.87,75.19,82,75.19,129.68S181.23,607.12,139.7,583.15Z" />
    <path class="cls-11"
        d="M135.07,370c-62.35-36-112.9-7.19-112.9,64.36s50.55,158.73,112.9,194.73S248,636.28,248,564.73,197.42,406,135.07,370Zm0,233.26c-49.93-28.82-90.39-98.62-90.39-155.91S85.14,367,135.07,395.85s90.39,98.61,90.39,155.9S185,632.1,135.07,603.28Z" />
    <path class="cls-12" d="M136.15,590.7q-.94-.45-1.89-1c.3.17.61.33.92.48Z" />
    <path class="cls-12"
        d="M187.13,479.65c-.14-.27-.28-.53-.44-.81q.48.9.93,1.8C187.47,480.32,187.3,480,187.13,479.65Z" />
    <path class="cls-12"
        d="M125.67,414.27c-.32-.17-.65-.33-1-.48q.94.45,1.89,1C126.29,414.58,126,414.42,125.67,414.27Z" />
    <polygon class="cls-10"
        points="209.63 425.42 225.18 450.11 137.11 513.97 121.57 489.28 209.63 425.42" />
    <path id="body" class="cls-14"
        d="M806,782.25l16.77,5.91a28.43,28.43,0,0,0-.9,2.71c-.59,2-1.86,6.74-2.13,7.86s-2.87,14.08-3.1,15.34-2.74,16.87-3,18.47-2.32,15.12-2.32,15.12l-3.57,21s-2.4,11.53-2.69,12.71-2.21,8.38-2.6,9.64-3,8.47-3.34,9.37-3,6.23-3.47,7a54.7,54.7,0,0,1-3.65,5.25,26.42,26.42,0,0,1-3.49,3.53,12.16,12.16,0,0,1-3.19,2.23,34.51,34.51,0,0,1-4.87,2,14.81,14.81,0,0,1-2.72.48,35.19,35.19,0,0,1-5.3-.47c-1.31-.28-6.65-1.78-7.12-1.93l-6-2.15-11.79-4.93-10.2-4.71L723.62,900l-20.51-10.68L679.68,876.6l-23.17-13-20.91-12L552.13,802l-75.29-47L452,738s-2.07-1.35-5-5.5-9.5-15.21-9.5-15.21l-18.82-38.39L381.1,586.79l-19.34-53.3L351.3,502.12l-6.78-22.71-3.81-18s-.33-11.34-.3-12.94.44-10.82.71-12.6.45-4.2,1.37-6.08a16.06,16.06,0,0,1,1.86-3s-1.41-4-1.59-4.54-1.35-4.85-1.6-6-1.29-7.58-1.25-8.57.08-5.69.14-6.34.69-6.56,2.09-10a65.5,65.5,0,0,1,6.68-12,141.82,141.82,0,0,1,12.33-13.64c3.51-3.11,11-8.92,11-8.92l12.05-7.7,12.23-6.15s9.29-3.79,12.35-4.52,10.59-2.19,13-2.45,7.49-.56,8.84-.5,11.71.79,11.71.79l13.34,1.7L472,341.12s16.18,4.57,18.49,5.37,11.92,4.5,13.22,5.07,11.79,5.48,12.88,6.05,12,6.83,12,6.83l8.93,5.89s9,6.62,12.33,9.56S558.8,388,558.8,388l8.51,8.46,12.33,12.72,11.47,12.37L604,436.26l41.36,54.48,33.07,52.79,24.35,41.53s6.06,10.28,7.67,15.57a89.58,89.58,0,0,1,3.08,13.18c.2,2.06.64,8.39.35,10a83.58,83.58,0,0,1-1.51,8.36,43.51,43.51,0,0,1-3.27,8.61c-1.25,2.1-2.92,4.75-4.47,5.3a20.27,20.27,0,0,1-5,1.07c-1.59.12-5.44.31-7.34.28s-11.08-.59-12.93-.81-7.08-1-8.75-1.34-5.58-1.22-6-1.32l-3.8-1.06-15.35,30.51,92,53.65s21.33,13.49,23.07,14.67,11.88,8.43,15,11.45,11,11.23,13.21,15a78.33,78.33,0,0,1,4.57,8.7c.65,1.62,3.53,11,3.81,12.22s2.75,18.05,2.75,18.05Z" />
    <path class="cls-14"
        d="M892.09,734.56c30,9.66,48.51,21.31,64.78,34.58s-4.61,14.25-20.88,5.21-40.52-25.51-68.15-11.52-39.9,19.58-56.17,17.23-39.3-32.19-39.3-32.19,49.43-11.63,56.49-15.3S856.18,723,892.09,734.56Z" />
    <path class="cls-14"
        d="M938.1,708.15c30,9.66,48.5,21.31,64.78,34.57S998.27,757,982,747.93s-40.52-25.51-68.15-11.52S873.94,756,857.67,753.65s-39.29-32.2-39.29-32.2,49.42-11.62,56.48-15.29S902.19,696.57,938.1,708.15Z" />
    <path class="cls-14"
        d="M1008.77,751.13c-7.33,12.26-42.49,26.88-54,30.56S819.28,746,837.21,732.78c0,0,36.9-28.49,62.44-28.7S981.88,735,981.88,735Z" />
    <path class="cls-14"
        d="M208.14,311.86c-4.9-2.43,25.48,30.91,36.53,47.51s17.5,42.51,28.55,59.46,36.84,38.17,43.9,62.33,11.66,48.65,18.72,61.54,10.75-24.8-3.68-79.63-46.66-90.34-60.48-105.36S234.23,324.81,208.14,311.86Z" />
    <path class="cls-14"
        d="M157.6,341c-4.89-2.43,25.48,30.92,36.54,47.51S211.63,431,222.68,448s36.84,38.18,43.9,62.33,11.67,48.66,18.73,61.54,10.74-24.8-3.69-79.62S235,401.85,221.15,386.83,183.7,353.93,157.6,341Z" />
    <path class="cls-14"
        d="M208.14,311.86c-32.19-12.52-64.31,16.21-51.3,29.62,31,24.34,66,61.56,69.78,76.55s51.3,111.82,51.3,111.82,5.06,45.77,9.5,45,26.67-1.7,51.85-29.65c-5-34.61-15.55-107-28.51-124.23s-64.19-79.65-64.19-79.65Z" />
    <path class="cls-13" d="M262,391.21h0a12.19,12.19,0,0,0,8,15.73l2.28.68L387,324.41,376.68,308Z" />
    <polygon class="cls-13"
        points="395.28 297.3 410.83 321.99 322.76 385.85 307.21 361.16 395.28 297.3" />
    <path class="cls-13"
        d="M255,387.84,203.6,426.46c-4.82,3.92-4.06,12.84,1.69,19.93s14.34,9.66,19.16,5.74L277,412.32Z" />
    <path class="cls-13"
        d="M768.59,197.77l-8.77-19.41,71.65-22.14h0c1.39-.81,3.32-.7,5.45.53,4.22,2.44,5.51,9.16,5.51,14,0,2.38-.83,4.06-2.17,4.86h0l-.06,0h0Z" />
    <path class="cls-13"
        d="M770.85,192.85c0,4.84-3.42,6.79-7.65,4.36s-5.51-9.16-5.51-14,3.42-6.8,7.64-4.36S770.85,188,770.85,192.85Z" />
    <polygon class="cls-13"
        points="334.31 339.55 344.63 355.93 461.49 271.19 451.17 254.81 334.31 339.55" />
    <path class="cls-13"
        d="M347.25,298.42c0,18.1,12.78,25.39,28.56,16.28s28.56-31.16,28.56-49.26-12.79-25.39-28.56-16.28S347.25,280.32,347.25,298.42Z" />
    <path class="cls-13"
        d="M356,296c0,13.92,9.84,19.53,22,12.53s22-24,22-37.89-9.84-19.53-22-12.53S356,282.05,356,296Z" />
    <path class="cls-13"
        d="M403.93,251.28c23,13.29,60.54,62.55,23.4,82.27-12.16,6.46-64.15-6.31-74.51-18.9s43.05-67.76,43.05-67.76Z" />
    <path class="cls-13"
        d="M466.07,276.93,448.5,297.15c-5.6,7.06-1.73,19.46,8.64,27.69S480.47,334,486.07,327l18.85-22.27Z" />
    <path class="cls-13"
        d="M504.92,304.7c-5.6,7.06-18.56,6.1-28.93-2.13s-14.25-20.63-8.65-27.69,18.56-6.11,28.93,2.13S510.52,297.64,504.92,304.7Z" />
    <path class="cls-13"
        d="M501,301.62c-4.45,5.6-14.72,4.85-23-1.69s-11.3-16.37-6.86-22,14.73-4.85,23,1.69S505.49,296,501,301.62Z" />
    <path class="cls-13"
        d="M417.13,302.74,399.56,323c-5.61,7.06-1.74,19.46,8.64,27.69s23.33,9.19,28.93,2.13L456,330.51Z" />
    <path class="cls-13"
        d="M456,330.51c-5.61,7.06-18.56,6.1-28.93-2.13s-14.25-20.63-8.65-27.69,18.56-6.11,28.93,2.13S461.58,323.45,456,330.51Z" />
    <path class="cls-13"
        d="M452.1,327.43c-4.45,5.6-14.73,4.85-23-1.69s-11.31-16.37-6.86-22,14.72-4.85,23,1.69S456.54,321.83,452.1,327.43Z" />
    <path class="cls-13"
        d="M513.9,346.81l-10.07-13.28,4.41-3.34L401.49,331A20.66,20.66,0,0,1,391,292.46l64.7-37.35A319.84,319.84,0,0,1,566.52,216l176-27.61a35.26,35.26,0,0,0,12.67-4.6l4.77-2.87,8.58,14.29L763.79,198a51.93,51.93,0,0,1-18.67,6.78l-176,27.61A303.5,303.5,0,0,0,464,269.54l-64.69,37.35a4,4,0,0,0,2,7.45h0l116.82-.89h.11a13.32,13.32,0,0,1,8,23.94Z" />
    <path class="cls-13"
        d="M469.59,392.56l-10.9-16.88,44.42-43.49h0c1.39-.82,3.32-.71,5.45.52,4.22,2.44,7.65,6.63,7.65,11.48,0,2.38-.83,4.06-2.18,4.86h0l-.07,0h0Z" />
    <path class="cls-13"
        d="M471.85,387.64c0,4.84-3.42,6.8-7.64,4.36s-7.65-6.63-7.65-11.48,3.42-6.8,7.65-4.36S471.85,382.79,471.85,387.64Z" />
    <path class="cls-15"
        d="M737.11,613.22c5.76.16,28.47,23.84,42.7,38.75S812,688.88,827.27,698s32.54,3.64,33.22-5.13,23-11,28.47-6.46S899.8,698.7,899.8,698.7s-53,23.89-54.73,32.77c-12.41-2.26-9.52,7.4-24.77,7.75s-23.92,30.65-50.69,6.39S691.9,650.24,685.8,642.84c-3.2-3.88-.61-13.68,22.43-25.93A42.08,42.08,0,0,1,737.11,613.22Z" />
    <path class="cls-15"
        d="M862.71,688.84c-6.63,4.55-50.69,30-52.56,31.25s17,8.27,17.78,9.12,17.14,2.26,17.14,2.26S877,704.11,899.8,698.7a56.24,56.24,0,0,0-21-12.63Z" />
    <path class="cls-15"
        d="M685.8,642.84c5.76.16,28.47,23.84,42.71,38.75s28.77,40.06,44,49.22,32.54,3.64,33.22-5.13,23-11,28.47-6.46,10.85,12.25,10.85,12.25-9.53,2.81-15.28,9.79-18.61,17.57-29.07,17.57c-15.26,0-26.67-.4-48.18-19.49-27-24-45-62.13-51.15-69.53S685.8,642.84,685.8,642.84Z" />
</svg>