<svg xmlns="http://www.w3.org/2000/svg" width="20" height="20" viewBox="0 0 239 137" xmlns:xlink="http://www.w3.org/1999/xlink" shape-rendering="geometricPrecision" image-rendering="optimizeQuality" fill-rule="evenodd" clip-rule="evenodd"><defs><linearGradient id="0" gradientUnits="userSpaceOnUse" x1="137.48" y1="98.01" x2="216.26" y2="100.08"><stop stop-color="#be8e66"/><stop offset="1" stop-color="#65443a"/></linearGradient><linearGradient id="1" gradientUnits="userSpaceOnUse" xlink:href="#0" x1="29.13" y1="66.941" x2="129.87" y2="69.59"/></defs><path fill="url(#1)" d="m0 137l68-105 13 17 32-49 46 70-51 67z"/><path d="m114 137l55-69c0 0 4-6 8-6 4 0 8 6 8 6l54 69h-125" fill="url(#0)"/><g fill="#fefefe"><path d="m42 85l26-43 15 14 31-47 4 7-40 75-5-19-16 17-3-6z"/><path d="m120 21l-28 58 16-8 6 8 15-9 7 3 6-13 8 6z"/><path d="m171 71l-22 29 17-4 11 6 11-6 16 3c-7-9-14-18-20-28-4-6-9-5-13 0"/></g></svg>