<svg xmlns="http://www.w3.org/2000/svg" width="114.84" height="186.04" viewBox="0 0 297 482" xmlns:xlink="http://www.w3.org/1999/xlink" shape-rendering="geometricPrecision" image-rendering="optimizeQuality" fill-rule="evenodd" clip-rule="evenodd"><defs><clipPath><path d="m158 92h14l42 3 2 9-2 25-3 4h-8l-40-7-3-5-2-15v-13z"/></clipPath><clipPath><path d="m0 123h139v157h-139v-157"/></clipPath><linearGradient id="i" gradientUnits="userSpaceOnUse" x1="246.3" y1="177.2" x2="238.56" y2="208.15" xlink:href="#f"/><linearGradient id="K" gradientUnits="userSpaceOnUse" xlink:href="#7" x1="219.3" y1="343.76" x2="215.12" y2="312.83"/><linearGradient id="J" gradientUnits="userSpaceOnUse" xlink:href="#B" x1="3.309" y1="321.55" x2="107.33" y2="279.68"/><linearGradient id="H" gradientUnits="userSpaceOnUse" x1="204.34" y1="23.87" x2="281.42" y2="48.858"><stop stop-color="#1f97d7"/><stop offset=".102" stop-color="#fefefe"/><stop offset=".18" stop-color="#00aeec"/><stop offset=".29" stop-color="#fefefe"/><stop offset=".388" stop-color="#00aeec"/><stop offset=".502" stop-color="#fefefe"/><stop offset=".612" stop-color="#00aeec"/><stop offset="1" stop-color="#fefefe"/></linearGradient><linearGradient id="G" gradientUnits="userSpaceOnUse" xlink:href="#B" x1="311.13" y1="415.46" x2="218.75" y2="318.1"/><linearGradient id="I" gradientUnits="userSpaceOnUse" xlink:href="#B" x1="98.93" y1="500.85" x2="198.08" y2="358.5"/><linearGradient id="M" gradientUnits="userSpaceOnUse" x1="117.69" y1="115.67" x2="98.2" y2="107.51"><stop stop-color="#e39e58"/><stop offset=".38" stop-color="#e6a75a"/><stop offset="1" stop-color="#f1d0a2"/></linearGradient><linearGradient id="h" gradientUnits="userSpaceOnUse" x1="227.8" y1="259.83" x2="225.22" y2="274.03" xlink:href="#f"/><linearGradient id="g" gradientUnits="userSpaceOnUse" x1="237.8" y1="211.85" x2="233.31" y2="235.38" xlink:href="#f"/><linearGradient id="F" gradientUnits="userSpaceOnUse" y1="19.538" x2="0" y2="130.76"><stop stop-color="#1f97d7"/><stop offset="1" stop-color="#a8d7f6"/></linearGradient><linearGradient id="f" gradientUnits="userSpaceOnUse" x1="121.75" y1="260.17" x2="139.38" y2="264.54"><stop stop-color="#fff"/><stop offset="1" stop-color="#fff" stop-opacity="0"/></linearGradient><linearGradient id="O" gradientUnits="userSpaceOnUse" x1="220.35" y1="252.34" x2="228.78" y2="196"><stop stop-color="#272626"/><stop offset="1" stop-color="#d1d2d4"/></linearGradient><linearGradient id="N" gradientUnits="userSpaceOnUse" xlink:href="#7" x1="166.86" y1="414.47" x2="169.53" y2="369.8"/><linearGradient id="e" gradientUnits="userSpaceOnUse" y1="251.12" x2="0" y2="151.7"><stop stop-color="#2a2929"/><stop offset="1" stop-color="#848587"/></linearGradient><linearGradient id="L" gradientUnits="userSpaceOnUse" x1="168.14" y1="270.87" x2="180.32" y2="151.23"><stop stop-color="#272626"/><stop offset=".388" stop-color="#a8aaac"/><stop offset="1" stop-color="#fefefe"/></linearGradient><linearGradient id="7" gradientUnits="userSpaceOnUse" x1="155.96" x2="176.34"><stop stop-color="#272626"/><stop offset="1" stop-color="#848587"/></linearGradient><linearGradient id="8" gradientUnits="userSpaceOnUse" xlink:href="#5" x1="223.15" y1="128.33" x2="162.14" y2="90.7"/><linearGradient id="6" gradientUnits="userSpaceOnUse" x1="193.87" y1="131.7" x2="187.77" y2="132.34"><stop stop-color="#e5e6e7"/><stop offset=".259" stop-color="#606162"/><stop offset=".4" stop-color="#fefefe"/><stop offset=".659" stop-color="#d2d3d4"/><stop offset="1" stop-color="#393738"/></linearGradient><linearGradient id="4" gradientUnits="userSpaceOnUse" x1="132.61" x2="218.92"><stop stop-color="#262525"/><stop offset=".471" stop-color="#848587"/><stop offset="1" stop-color="#262525"/></linearGradient><linearGradient id="5" gradientUnits="userSpaceOnUse" x1="199.79" y1="139.62" x2="182.4" y2="139.22"><stop stop-color="#e5e6e7"/><stop offset=".259" stop-color="#4d4c4e"/><stop offset=".639" stop-color="#959699"/><stop offset=".839" stop-color="#d2d3d4"/><stop offset="1" stop-color="#393738"/></linearGradient><linearGradient id="E" gradientUnits="userSpaceOnUse" x1="223.77" y1="371.97" x2="210.24" y2="293.24"><stop stop-color="#bcbdbf"/><stop offset="1" stop-color="#727375"/></linearGradient><linearGradient id="D" gradientUnits="userSpaceOnUse" xlink:href="#B" x1="1.131" y1="186.64" x2="120.67" y2="323.5"/><linearGradient id="C" gradientUnits="userSpaceOnUse" x1="196.3" y1="144.9" x2="186.27" y2="146.93"><stop stop-color="#e5e6e7"/><stop offset=".259" stop-color="#606162"/><stop offset=".4" stop-color="#fefefe"/><stop offset=".541" stop-color="#d2d3d4"/><stop offset="1" stop-color="#393738"/></linearGradient><linearGradient id="9" gradientUnits="userSpaceOnUse" y1="246.98" x2="0" y2="270.03"><stop stop-color="#e5e6e7"/><stop offset=".259" stop-color="#606162"/><stop offset=".612" stop-color="#fefefe"/><stop offset=".812" stop-color="#d2d3d4"/><stop offset="1" stop-color="#393738"/></linearGradient><linearGradient id="B" gradientUnits="userSpaceOnUse" x1="-19.252" y1="43.96" x2="47.666" y2="89.66"><stop stop-color="#a18c5d"/><stop offset=".302" stop-color="#c7ac70"/><stop offset="1" stop-color="#fefefe"/></linearGradient><linearGradient id="A" gradientUnits="userSpaceOnUse" xlink:href="#9" y1="228.59" x2="0" y2="266.45"/><mask id="3"><path fill="url(#i)" d="m205 172h74v40h-74z"/></mask><mask id="2"><path fill="url(#h)" d="m183 254h87v25h-87z"/></mask><mask id="1"><path fill="url(#g)" d="m192 207h87v32h-87z"/></mask><mask id="0"><path fill="url(#f)" d="m115 223h32v79h-32z"/></mask><radialGradient id="a" gradientUnits="userSpaceOnUse" xlink:href="#W" cx="176.92" cy="218.75" r="14.45"/><radialGradient id="b" gradientUnits="userSpaceOnUse" xlink:href="#W" cx="229.75" cy="244.53" r="16.177"/><radialGradient id="d" gradientUnits="userSpaceOnUse" xlink:href="#Q" cx="64.33" cy="110.23" r="84.19"/><radialGradient id="P" gradientUnits="userSpaceOnUse" cx="-10.873" cy="146.75" r="65.17"><stop stop-color="#faf1eb"/><stop offset=".341" stop-color="#f1d0a2"/><stop offset="1" stop-color="#d09954"/></radialGradient><radialGradient id="c" gradientUnits="userSpaceOnUse" xlink:href="#W" cx="191.09" cy="134.78" r="8.692"/><radialGradient id="Z" gradientUnits="userSpaceOnUse" xlink:href="#W" cx="289.71" cy="238.38" r="10.598"/><radialGradient id="Y" gradientUnits="userSpaceOnUse" xlink:href="#W" cx="290.6" cy="256.69" r="9.549"/><radialGradient id="S" gradientUnits="userSpaceOnUse" xlink:href="#R" cx="191.11" cy="135.31" r="23.536"/><radialGradient id="Q" gradientUnits="userSpaceOnUse" cx="137.51" cy="235.45" r="38.432"><stop stop-color="#faf1eb"/><stop offset=".341" stop-color="#f1d0a2"/><stop offset="1" stop-color="#e6a75a"/></radialGradient><radialGradient id="R" gradientUnits="userSpaceOnUse" cx="288.83" cy="258.45" r="15.79"><stop stop-color="#262525"/><stop offset=".612" stop-color="#555556"/><stop offset="1" stop-color="#848587"/></radialGradient><radialGradient id="T" gradientUnits="userSpaceOnUse" xlink:href="#R" cx="191.16" cy="134.59" r="15.777"/><radialGradient id="U" gradientUnits="userSpaceOnUse" xlink:href="#R" cx="229.34" cy="247.43" r="18.811"/><radialGradient id="X" gradientUnits="userSpaceOnUse" xlink:href="#W" cx="191.17" cy="147.19" r="38.21"/><radialGradient id="V" gradientUnits="userSpaceOnUse" cx="96.66" cy="205.76" r="115.24"><stop stop-color="#faf1eb"/><stop offset=".58" stop-color="#e6a75a"/><stop offset="1" stop-color="#e6a75a"/></radialGradient><radialGradient id="W" gradientUnits="userSpaceOnUse" cx="179.16" cy="208.87" r="12.688"><stop stop-color="#625f5e"/><stop offset="1" stop-color="#2a2929"/></radialGradient></defs><path fill="url(#I)" d="m0 378h297v104h-297z"/><path fill="#262525" d="m31 253h249v132h-249z"/><path fill="url(#E)" d="m177 287l-5 55 4 7 66 24 12 7 6-28 2-47-1-4-4-4-69-11h-10z"/><path d="m144 266c0 0 5 11 13 15 7 4 46 12 68 15 22 3 36 7 44 5 8-2 29-5 29-5v-146c-57-10-114-17-172-22l-29-9c-14 2-30 5-33 10-7 9-11 36-6 39 5 3 27 41 34 49 7 7 54 49 54 49z" fill="url(#L)"/><path d="m59 121c22 0 42 9 57 23 15 15 23 35 23 57 0 22-9 42-23 57-15 15-35 23-57 23-22 0-42-9-57-23-1-1-2-2-3-3v-24c3 6 7 12 12 17 12 12 29 20 47 20 18 0 35-7 47-20 12-12 20-29 20-47 0-18-7-35-20-47-12-12-29-20-47-20-18 0-35 7-47 20-5 5-9 11-12 17v-24c1-1 2-2 3-3 15-15 35-23 57-23" fill="url(#e)" fill-rule="nonzero"/><path d="m125 128c58 5 116 12 172 22 0-50 0-100 0-150-99 0-198 0-297 0 0 30 0 60 0 90 42 13 83 25 125 38" fill="url(#F)"/><path d="m75 135c0 0-5 3-8 10-3 7-2 13-2 13 0 0-7 3-16-1-9-4-32-11-34-28 13-7 23-27 21-36 4-2 19-9 20-6 1 3 19 49 19 49z" fill="url(#P)"/><path d="m132 69c0 3 0 8 0 14 0 6 0 11 0 11 0 0-1 4-2 5-1 2-3 3-4 5 0 2 0 7-1 9 0 2-2 7-3 10-1 3-5 6-8 8-3 2-3 2-3 2s-6 6-8 10c-2 3-6 12-10 13-4 1-14 0-17-4-10-12-21-14-31-33-2-4-7-18-6-22 1-4-7-13-7-13 0 0 20-39 26-43 6-4 44 0 51 3 7 3 20 10 22 12 3 4 3 10 3 13z" fill="url(#d)"/><path d="m195 15c3-2 8-2 11-2 5 0 11 1 16 1 9 1 19 2 29 3 8 1 17 2 25 3 7 1 14 2 21 4v36c-10-1-21-3-31-4 0 0-4 2-6 3-2 1-20-2-23-3-2 0-7-5-7-5h-2c-8-1-16-2-24-4-3-1-12-2-14-5-3-4-3-7-2-12 1-4 5-14 8-16z" fill="#242525"/><path d="m197 18c3-2 13-1 25 0 11 1 39 4 53 6 14 2 22 4 22 4v29c0 0-34-4-54-7-21-3-49-6-51-9-3-3-2-6-1-9 1-3 4-12 7-14z" fill="url(#H)"/><g fill="#242525"><path d="m262 2h5v12h-5z"/><path d="m256 18c0 0 5-5 10-6 5-1 7 3 7 5 0 2 0 3 0 3l-17-2"/></g><path d="m124 239c0 0 6-16 7-23 1-6 1-11 0-14-1-2-3-5-6-11-3-5-3-7-5-9-1-2-1-4-2-4-1-1-6-5-7-7-1-1 0-2 0-2 0 0 1-4 6-2 4 2 8 5 9 7 1 1 4 4 7 3 2-1 5-3 4-4-1-1-2-2-2-2-1 0-2 1-2 1 0 0-1-3-2-4 0 0 4-2 7-2 3 0 5 1 6 3 2 2 4 3 4 5 1 2 1 4 2 5 1 1 4 1 5 4 1 2-1 5-1 6 1 1 2 2 2 4 0 2-1 4-1 5 0 1 0 5-1 7-1 2-4 4-3 6 0 2 0 7 0 9 0 2-2 7-2 14 0 7 0 14 0 21 0 6-4 22-4 22 0 2-4 13-9 19-4 5-11 9-14 8-3-1-7-6-7-6l3-57v-8l-1-5h3c0 0 1 9 3 14 0 0 0 1 0 1z" fill="url(#V)"/><path d="m297 0c0 3 0 6 0 8-21-4-42-6-63-8 21 0 42 0 63 0" fill="#242525"/><path d="m120 224c0 0 1 9 3 14 2 5 9 18 12 21 3 3 6 6 6 7 0 1 4 7 4 9 0 2-4 13-9 19-4 5-11 9-14 8-3-1-7-6-7-6l3-57v-8l-1-5h3z" mask="url(#0)" fill="url(#Q)"/><path d="m9 122c0 0 46 31 65 36 19 5 36 5 44 24 8 19 11 40 13 44 2 4-9 10-12 13-4 3-26-13-48-22-17-7-54-20-71-34v-54c4-4 9-6 9-6z" fill="#cd3539"/><path d="m201 159l-23-4c0 0-13 42-18 62-5 20-8 52-8 52l130 25 15-8v-112l-96-15" fill="url(#O)"/><path d="m0 0h15c0 0 9 10 11 25 2 15 3 36-3 58-6 22-9 31-12 37-3 6-10 13-10 13v-134z" fill="url(#B)"/><path d="m0 150c0 0 8 2 15 6 7 4 10 7 10 7 0 0 37 15 59 29 22 15 36 25 37 41 1 16-4 64-5 80-1 16-4 43-4 43l-4 3c0 0-4-50-4-64 0-15-1-34-6-43-5-10-8-14-23-22-15-7-74-32-74-32v-50z" fill="url(#D)"/><path d="m0 196c0 0 86 33 92 40 6 7 18 21 15 41-3 20 1 43 1 43l1 34-2 8c0 0-17 16-19 27-3 11-4 13-10 14-4 1-53 3-78 4v-209z" fill="url(#J)"/><path d="m204 348c0 0 4-12 1-19-2-8-4-25 12-22 16 3 11 14 10 18-2 7-6 5-8 13-1 7-1 8-1 15l-14-4z" fill="url(#K)"/><path d="m159 282c-1 19-2 39-3 58 5 3 10 4 16 2 2-18 3-37 5-55-6-3-12-4-18-5" fill="url(#7)"/><path d="m85 404c0 0-1-16 9-29 10-13 25-28 38-33 13-4 34-2 66 4 32 7 55 8 51 38-3 30-8 56-16 58-8 3-103-5-126-10-23-5-22-29-22-29z" fill="url(#N)"/><path fill="#d1d2d4" d="m201 159l93 14-8 48-96-16z"/><path fill="#848587" d="m200 162l-18-2-12 42 20 2z"/><g fill="#262525" fill-rule="nonzero"><path d="m194 162l-12 42-4-1 11-42z"/><path d="m200 162l-11 42h-4l11-42z"/><path d="m188 161l-12 42-4-1 11-41z"/></g><path fill="#848587" d="m294 176l3 1v46l-11-3z"/><path fill="#262525" d="m194 206l-4 19 86 16 5-20z"/><g fill="#fefefe"><path mask="url(#1)" d="m196 208l-3 16 82 15 3-17z"/><path d="m189 229l-4 21 87 16 5-22z"/></g><path fill="#262525" d="m184 253l-3 12 88 16 3-13z"/><path mask="url(#2)" fill="#fefefe" d="m186 255l-2 8 83 16 2-9z"/><path d="m171 206l-1 3c0 0 2 2 7 2 5 1 9 0 9 0l1-4c0 0-5-2-8-2-3 0-8 0-8 0z" fill="url(#W)"/><path d="m169 213l-2 8c0 0 3 2 8 3 5 0 5 1 9 0l2-8c0 0-2-1-8-2-6-1-9 0-9 0z" fill="url(#a)"/><path fill="url(#Z)" d="m285 232l-3 10 15 3v-11z"/><path fill="#414192" d="m212 171l69 11-5 32-73-11z"/><path mask="url(#3)" fill="#fefefe" d="m213 173l-7 28 68 11 5-29z"/><ellipse cx="230" cy="248" rx="22" ry="20" fill="url(#A)"/><ellipse cx="229" cy="247" rx="17" ry="15" fill="url(#U)"/><ellipse cx="230" cy="245" rx="11" ry="10" fill="url(#b)"/><path d="m291 246c2 0 4 1 6 2v22c-2 1-4 2-6 2-7 0-13-5-13-12 0-7 6-12 13-12z" fill="url(#9)"/><path d="m291 249c3 0 5 1 7 2v14c-2 1-4 2-7 2-6 0-10-4-10-9 0-5 5-9 10-9" fill="url(#R)"/><path d="m291 251c3 0 5 2 6 4v4c-1 2-3 4-6 4-4 0-7-3-7-6 0-3 3-6 7-6" fill="url(#Y)"/><path d="m248 372c0 0 1-6 2-9 1-3 4-4 4-4 0 0-2-14 2-31 3-17 8-43 20-51 10-7 16-12 22-13v176 28l-59-8-5-17c8-3 13-29 16-58 1-5 0-9 0-13z" fill="url(#G)"/><ellipse cx="172" cy="239" rx="13" ry="12" fill="url(#A)"/><ellipse cx="171" cy="239" rx="10" ry="9" fill="url(#U)"/><ellipse cx="172" cy="237" rx="7" ry="6" fill="url(#b)"/><path d="m183 140c0 0-2 0-2 1-1 0-5 5-5 5 0 0-1 1 0 3 1 2 4 4 8 5 5 1 13 2 16 1 3 0 7-7 7-7 0 0 1-1 0-2-1-1-7-4-9-5-2-1-14 0-14 0z" fill="url(#X)"/><path d="m186 143v4c0 0 0 3 5 3 5 0 6-4 6-4v-4l-11 1" fill="url(#C)"/><path d="m182 135v5c0 0 1 0 1 1 0 1 0 1 1 2 1 0 2 0 4 1 1 0 2 1 3 1 1 0 2-1 3-1 1 0 3 0 3-1 0-1 0-1 1-2 1-1 1-1 1-1v-4c0 0-1 1-2 1 0 1 0 2 0 2-1 0-3 0-3 0-1 0-2 2-3 2-1 0-1-1-3-1-1 0-3 0-4 0-1 0 0-1-1-2 0-1-2-1-2-1z" fill="url(#5)"/><path d="m188 132c0 0-3 0-3 1-1 1 0 1-1 2-1 0-2 1-2 1 0 1 1 0 2 1 0 1 0 2 1 2 1 0 3 0 4 0 1 0 2 1 3 1 1 0 2-1 3-2 1 0 3 0 3 0 1 0 0-1 0-2 0-1 2-1 2-1 0 0-2-1-2-2 0-1 0-1-1-1 0 0-2 0-3 0 0 0-1 0-2 0 0 0-4 0-4 0" fill="url(#S)"/><ellipse cx="191" cy="135" rx="7" ry="3" fill="#4d4c4e"/><ellipse cx="191" cy="135" rx="6" ry="3" fill="url(#T)"/><path d="m187 135c0-1 2-2 4-2 2 0 3 1 3 2 0 1-1 2-4 2-3 0-4-1-4-2z" fill="url(#c)"/><path d="m158 100c0 0-1-8 4-8 5 0 8 0 8 0l35 2c0 0 8 0 10 4 2 4 1 10 1 10l-2 18c0 0 0 5-3 6-3 1-8 0-8 0l-36-6c0 0-5-1-6-3-1-3-2-7-2-7l-1-16" fill="#262525"/><path d="m162 92c0 0 13-4 16-4 3 0 36 2 36 2 0 0 5 0 7 3 2 3 1 6 1 6l-2 18c0 0 0 1-1 2-1 1-3 4-3 4 0 0 0 1-1 3-1 2-3 3-3 3 1-2 1-4 1-4l2-18c0 0 1-6-1-10-2-4-10-4-10-4l-35-2c0 0-3 0-8 0 0 0 0 0-1 0z" fill="url(#8)"/><path d="m188 130c0 0 0 1 1 2 0 1 0 3 2 3 3 0 3-2 3-2v-2l-6-1" fill="url(#6)"/><path d="m169 98c6 1 12 1 18 2 6 1 13 1 19 2 2 0 3 2 3 4 0 3 0 6-1 9 0 3 0 6-1 9 0 2-2 3-4 3-6-1-12-2-18-2-6-1-11-2-17-2-2 0-3-2-3-3 0-3 0-5 0-8 0-3 0-6 0-9 0-2 1-3 3-3z" fill="none" stroke="#242424" stroke-width="1.835"/><ellipse cx="187" cy="111" rx="5" ry="6" fill="#fefefe"/><circle cx="187" cy="111" r="5" fill="#393738"/><circle cx="187" cy="111" r="4" fill="#242424"/><circle cx="188" cy="109" r="2" fill="#393738"/><path d="m140 377h73c6 0 6-6 6-8l-2-5h-82c-1 5-2 13 5 13" fill="url(#4)"/><path d="m210 347c1 1 1 3 2 5 1 2 1 3 2 5 1 2 1 4 2 5 1 2 1 4 2 6 1 3-2 6-7 6-6 0-12 0-18 0-6 0-12 0-18 0-6 0-12 0-17 0-6 0-12 0-17 0-5 0-8-3-7-6 0-2 1-4 1-6 0-2 1-4 1-5 0-2 1-3 1-5 0-2 1-3 1-4 1-2 4-4 8-4 5 0 9 0 14 0 5 0 9 0 14 0 5 0 9 0 14 0 5 0 9 0 14 0 4 0 8 2 9 4z" fill="#2a2929"/><path d="m208 350c1 2 1 4 2 7 1 2 2 5 3 7-1 0-1 0-2 0-1-3-2-5-2-7-1-2-1-4-2-7 1 0 1 0 2 0z" fill="#848587"/><path d="m206 350c1 2 1 4 2 7 1 2 2 5 2 7-1 0-1 0-2 0-1-3-2-5-2-7-1-2-1-4-2-7 1 0 1 0 2 0" fill="#fefefe"/><path d="m200 346c0 2 1 3 1 5 0 2 1 3 2 5 1 2 1 4 2 6 1 2 1 4 2 6-1 0-1 0-2 0-1-2-1-4-2-6-1-2-1-4-2-6-1-2-1-4-1-5 0-2-1-3-1-5 0 0 1 0 1 0" fill="#1f97d7"/><path d="m199 346c0 2 1 3 1 5 0 2 1 3 1 5 1 2 1 4 2 6 1 2 1 4 2 6-5 0-10 0-14 0-5 0-9 0-14 0-5 0-9 0-14 0-5 0-9 0-14 0 0-2 1-4 1-6 0-2 1-4 1-6 0-2 0-4 1-5 0-2 0-3 1-5 4 0 8 0 12 0 4 0 8 0 12 0 4 0 8 0 12 0 4 0 8 0 12 0z" fill="#a8d7f6"/><path d="m137 372c-2-1-3-3-3-5 0-2 1-4 1-6 0-2 1-4 1-5 0-2 1-3 1-5 0-2 1-3 1-4 1-2 4-4 8-4 5 0 9 0 14 0 5 0 9 0 14 0 5 0 9 0 14 0 5 0 9 0 14 0 3 0 6 1 7 2-5 2-10 4-16 6-6 2-11 4-17 6-6 2-12 5-19 7-7 3-14 5-21 8z" fill="#fefefe" fill-opacity=".2"/><path d="m147 355c0 1 0 1 0 2 0 1-1 1-2 1-1 0-2 0-3 0-1 0-1 0-1-1 0-1 0-1 0-2 0 0 1-1 2-1 1 0 2 0 3 0 1 0 1 0 1 1" fill="#848587"/><path d="m30 93c0 0 0-14 0-18 1-3 3-12 2-14 0-3-2-5-3-6 0 0 2-4 5-6 3-2 5-4 5-4-2-1-4-2-6-2 0 0 4-1 7-7 4-6 16-18 39-17 23 1 38 15 40 15 2 1 5 1 6-1 1-2 1-3 1-3 0 0 2 4 1 5 0 2-1 4-1 4 0 0 3 0 5 3 2 3 2 5 2 5 0 0 2 10 1 19 0 9-3 16-3 16 0 0 1-9-3-16-4-7-5-11-11-10-3-7-48-14-49-10-1 6-2 11-1 18-5 6-10 11-15 13-4 12-7 17-13 16-6 2-8-1-11-3z" fill="#393738"/><g fill="#e6a75a" stroke="#f1d0a2" stroke-width=".699"><path d="m83 129c0 0-1 1 0 1 1 1 4 2 5 3 1 1 5 4 9 5 4 1 5-1 6-1 1 0 2-1 2-1 0 0 0 0-1 0-1 0-1-2-3-2-1 0-2 0-3 0-1 0-2-2-4-2-2 0-3 0-6-1-2-1-4-2-4-2 0 0-1 0-1 0z"/><path d="m82 129c0 0 0-1 3-1 3 1 5 1 7 1 1 0 3 0 4 1 1 1 1 1 3 2 2 1 3 0 5 2 2 1 1 3 1 3 0 0-1 0-2 0-1 0-1-2-3-2-1 0-2 0-3 0-1 0-2-2-4-2-2 0-3 0-6-1-2-1-4-2-4-2-1 0-1 0-2 0z"/></g><g fill="#fefefe"><path d="m84 89c0 0 7-1 12 0 5 2 5 6 4 6 0 0-5 1-9 0-4-2-7-6-7-6"/><path d="m116 101c1-1 2-2 6-2 4 1 4 3 3 4-1 1-2 2-5 0-2-1-4-3-4-3z"/></g><g fill="#393738"><path d="m80 81c0 0 0-1 2-1 8-2 13-4 22 1 3 1 4 5 5 6 1 1 3 2 3 3 0 1-4 2-6-1-7-10-13-9-25-7 0 0-1 0-1 0z"/><path d="m130 98c0 0 1-1 0-2-2-2-3-4-7-4-1 0-2 1-3 1-1 0-2 0-2 0 0 0 1 2 2 1 4-1 5 0 9 2 0 0 0 0 1 0z"/><path d="m100 93c0 0 0 1 0 1-1 2-3 3-5 2-2-1-3-2-3-4 0-1 2-2 3-2 3 1 4 2 4 3z"/><path d="m124 99c0 1 1 1 0 2 0 1-2 2-4 2-1 0-1-1-2-1-1-1-1-2-1-2 0-1 0-1 0-1 1 0 3 0 4 0 1 0 1 0 2 0z"/></g><g fill="#fefefe"><circle cx="98" cy="92" r="1"/><circle cx="121" cy="100" r="1"/></g><path d="m108 128c-1 0-7-5-9-7 0 0 5 1 6 2 2 1 4 4 4 4 0 0-1 2-2 2z" fill="#dc8553"/><path d="m97 115c0 0-2 2 1 4 3 2 4 2 7 3 2 1 4 2 4 3 0 1-1 1 0 2 1 0 8 1 8-4 0-4-3-17-2-21 0-5 6-5 6-5 0 0-5-4-8-3-2 1-6 3-6 4 0 1 0 4-2 8-2 4-7 8-7 8z" fill="url(#M)"/><g stroke-opacity=".502" fill="none" stroke="#fefefe" stroke-width="9.174"><path d="m187 27c49 0 89 40 89 89 0 49-40 89-89 89-49 0-89-40-89-89 0-49 40-89 89-89z"/><path d="m187 78c21 0 38 17 38 38 0 21-17 38-38 38-21 0-38-17-38-38 0-21 17-38 38-38z"/><path d="m187 55c34 0 61 27 61 61 0 34-27 61-61 61-34 0-61-27-61-61 0-34 27-61 61-61z"/></g></svg>