<svg xmlns="http://www.w3.org/2000/svg" width="114.64" height="187.58" viewBox="0 0 604 988" xmlns:xlink="http://www.w3.org/1999/xlink" shape-rendering="geometricPrecision" image-rendering="optimizeQuality" fill-rule="evenodd" clip-rule="evenodd"><defs><clipPath><path d="m122 626h360v355h-360z"/></clipPath><linearGradient id="C" gradientUnits="userSpaceOnUse" y1="60.33" x2="0" y2="126.88"><stop stop-color="#fff"/><stop offset="1" stop-color="#fff" stop-opacity="0"/></linearGradient><linearGradient id="5" gradientUnits="userSpaceOnUse" xlink:href="#4" x1="290.53" y1="-8.01" x2="313.56" y2="149.5"/><linearGradient id="7" gradientUnits="userSpaceOnUse" xlink:href="#4" y1="824.91" x2="0" y2="488.03"/><linearGradient id="9" gradientUnits="userSpaceOnUse" y1="849.81" x2="0" y2="762.24"><stop stop-color="#2a2929"/><stop offset="1" stop-color="#848587"/></linearGradient><linearGradient id="8" gradientUnits="userSpaceOnUse" y1="773.56" x2="0" y2="540.08"><stop stop-color="#809441"/><stop offset=".749" stop-color="#b3ce52"/><stop offset="1" stop-color="#d6e28f"/></linearGradient><linearGradient id="6" gradientUnits="userSpaceOnUse" y1="66.51" x2="0" y2="266.03"><stop stop-color="#1f97d7"/><stop offset="1" stop-color="#fefefe"/></linearGradient><linearGradient id="1" gradientUnits="userSpaceOnUse" x1="469.58" y1="862.73" x2="575.83" y2="819.41"><stop stop-color="#a8d7f6"/><stop offset=".278" stop-color="#fefefe"/><stop offset=".62" stop-color="#fefefe"/><stop offset="1" stop-color="#a8d7f6"/></linearGradient><linearGradient id="4" gradientUnits="userSpaceOnUse" y1="48.687" x2="0" y2="138.52"><stop stop-color="#2a2929"/><stop offset="1" stop-color="#a8aaac"/></linearGradient><linearGradient id="2" gradientUnits="userSpaceOnUse" xlink:href="#1" x1="134.37" y1="862.73" x2="28.12" y2="819.41"/><linearGradient id="3" gradientUnits="userSpaceOnUse" y1="964.03" x2="0" y2="669.54"><stop stop-color="#2c2a2a"/><stop offset=".6" stop-color="#6e756e"/><stop offset="1" stop-color="#b0c0b3"/></linearGradient><mask id="0"><path fill="url(#C)" d="m460 38h146v111h-146z"/></mask><radialGradient id="B" gradientUnits="userSpaceOnUse" xlink:href="#A" cx="120.81" cy="756.79" r="137.09"/><radialGradient id="A" gradientUnits="userSpaceOnUse" cx="524.3" cy="756.79" r="137.09"><stop stop-color="#2a2929"/><stop offset=".42" stop-color="#313533"/><stop offset="1" stop-color="#b0c0b3"/></radialGradient></defs><path fill="url(#8)" d="m0 333h604v649h-604z"/><path fill="url(#6)" d="m0 0h604v333h-604z"/><path d="m0 657c69-28 127-55 152-75 112-90-11-144 124-198 35-14 44-42-6-51h42c0 0 61 9 61 41 0 31-56 35-15 82 32 36 141 85 247 154v372h-604v-323z" fill="url(#7)"/><path d="m299 333c0 0 36 4 35 24-1 20-43 34-45 67-3 45 46 90 46 146 1 70-71 168-286 411h77c7-9 80-103 147-210 82-132 107-174 45-282-40-69-19-85-1-102 26-25 22-37 12-45-6-5-17-8-30-9" fill="#fff13c"/><path d="m0 980c201 0 403 0 604 0 0-96 0-192 0-288-197-37-398-39-604 0 0 96 0 192 0 288" fill="url(#3)"/><ellipse cx="302" cy="760" rx="263" ry="95" fill="#626a65"/><ellipse cx="302" cy="760" rx="261" ry="94" fill="#919e94"/><circle cx="247" cy="765" r="75" fill="#393738"/><path d="m247 695c-39 0-71 32-71 71 0 39 32 71 71 71 39 0 71-32 71-71 0-39-32-71-71-71" fill="#fefefe"/><g fill="#393738"><path d="m262 706l1-6h-1l-1 6h1m-5-1l1-6h-1l-1 6h1m-5-1v-6h-1v6h1m-5 0v-6h-1v6h1m-5 0v-6h-1v6h1m-5 0l-1-6h-1l1 6h1m-5 1l-1-6h-1l1 6h1m-5 1l-2-6h-1l2 6h1m-4 1l-2-6h-1l2 6h1m-4 2l-2-5h-1l2 5h1m-4 2l-3-5h-1l3 5h1m-4 2l-3-5h-1l3 5h1m-4 3l-4-5h-1l4 5h1m-4 3l-4-4-1 1 4 4 1-1m-3 3l-4-4-1 1 4 4 1-1m-3 3l-5-4v1l5 4v-1m-3 4l-5-3v1l5 3v-1m-3 4l-5-3v1l5 3v-1m-2 4l-5-3v1l5 3v-1m-2 4l-6-2v1l6 2v-1m-2 4l-6-2v1l6 2v-1m-1 5l-6-1v1l6 1v-1m-1 5l-6-1v1l6 1v-1m-1 5h-6v1h6v-1m0 5h-6v1h6v-1m0 5h-6v1h6v-1m1 5l-6 1v1l6-1v-1m1 5l-6 1v1l6-1v-1m1 4l-6 2v1l6-2v-1" fill-rule="nonzero"/><circle transform="matrix(-.44962-.11336-.11336.44962 221.44 747.19)" r="7"/><path d="m220 747c0 0 1 0 1 0 0 0 0-1 0-1l-16-21c0 0-1 0-1 0 0 0 0 1 0 1l16 21" fill-rule="nonzero"/><circle cx="352" cy="765" r="75"/></g><path d="m352 695c39 0 71 32 71 71 0 39-32 71-71 71-39 0-71-32-71-71 0-39 32-71 71-71" fill="#fefefe"/><g fill="#393738"><path d="m337 706l-1-6h1l1 6h-1m5-1l-1-6h1l1 6h-1m5-1v-6h1v6h-1m5 0v-6h1v6h-1m5 0v-6h1v6h-1m5 0l1-6h1l-1 6h-1m5 1l1-6h1l-1 6h-1m5 1l2-6h1l-2 6h-1m4 1l2-6h1l-2 6h-1m4 2l2-5h1l-2 5h-1m4 2l3-5h1l-3 5h-1m4 2l3-5h1l-3 5h-1m4 3l4-5h1l-4 5h-1m4 3l4-4 1 1-4 4-1-1m3 3l4-4 1 1-4 4-1-1m3 3l5-4v1l-5 4v-1m3 4l5-3v1l-5 3v-1m3 4l5-3v1l-5 3v-1m2 4l5-3v1l-5 3v-1m2 4l6-2v1l-6 2v-1m2 4l6-2v1l-6 2v-1m1 5l6-1v1l-6 1v-1m1 5l6-1v1l-6 1v-1m1 5h6v1h-6v-1m0 5h6v1h-6v-1m0 5h6v1h-6v-1m-1 5l6 1v1l-6-1v-1m-1 5l6 1v1l-6-1v-1m-1 4l6 2v1l-6-2v-1" fill-rule="nonzero"/><circle transform="matrix(.44962-.11336.11336.44962 377.98 747.19)" r="7"/><path d="m379 747c0 0-1 0-1 0 0 0 0-1 0-1l16-21c0 0 1 0 1 0 0 0 0 1 0 1l-16 21" fill-rule="nonzero"/><circle cx="298" cy="743" r="73" stroke="#393738" stroke-width="3.734"/></g><circle cx="298" cy="743" r="66" fill="#fefefe" stroke="#393738" stroke-width="3.734"/><g fill="#393738"><g fill-rule="nonzero"><path d="m315 685l-5 13-2-1 6-13z"/><path d="m240 740h12v2h-12z"/><path d="m347 740h12v2h-12z"/><path d="m329 691l-7 12-2-1 7-13z"/><path d="m341 700l-9 10-2-1 10-11z"/><path d="m349 711l-10 9-2-2 11-9z"/><path d="m357 724l-13 6v-2l13-5z"/><path d="m283 684l6 13-2 1-6-13z"/><path d="m270 689l7 13-2 1-7-12z"/><path d="m257 698l10 11-2 1-9-10z"/><path d="m249 709l11 9-2 2-10-9z"/><path d="m240 723l13 5-1 2-12-6z"/><path d="m300 682v12h-2v-12z"/></g><circle cx="301" cy="736" r="4"/><path d="m302 736c0 0-1 0-1 0 0 0 0-1 0-1l23-18c0 0 1 0 1 0 0 0 0 1 0 1l-23 18" fill-rule="nonzero"/></g><path d="m149 790c28-6 54-21 81-41 44-12 91-13 140 0 26 19 53 36 85 44 4 13 2 23-1 33 0 0-52-18-68 11-16 29 16 85 16 85-5 12-15 17-26 18 0 0-14-44-72-44-58 0-71 46-71 46-10-2-19-8-26-17 0 0 34-54 15-85-18-31-73-15-73-15-4-12-5-25-1-37z" fill="#2a2929"/><path d="m302 624c101 0 182 82 182 182 0 101-82 182-182 182-101 0-182-82-182-182 0-101 82-182 182-182m0 29c85 0 153 69 153 153 0 85-69 153-153 153-85 0-153-69-153-153 0-85 69-153 153-153" fill="url(#9)"/><path d="m152 688c-31 33-47 74-40 127 0 0-62-22-63-58-1-37 103-69 103-69z" fill="url(#B)" stroke="#2a2929" stroke-width="3.734"/><g fill="#2a2929" fill-rule="nonzero"><path d="m110 703h27v2h-27z"/><path d="m92 712h40v2h-40z"/><path d="m77 722h49v2h-49z"/><path d="m64 731h58v2h-58z"/><path d="m55 740h63v2h-63z"/><path d="m51 750h65v2h-65z"/><path d="m49 758h65v2h-65z"/><path d="m51 766h61v3h-61z"/><path d="m56 775h55v3h-55z"/><path d="m63 784h48v3h-48z"/><path d="m72 792h39v3h-39z"/><path d="m84 800h27v2h-27z"/></g><path d="m452 688c31 33 47 74 40 127 0 0 62-22 63-58 1-37-103-69-103-69z" fill="url(#A)" stroke="#2a2929" stroke-width="3.734"/><g fill="#2a2929" fill-rule="nonzero"><path d="m494 703h-28v2h28z"/><path d="m511 712h-40v2h40z"/><path d="m527 722h-49v2h49z"/><path d="m540 731h-58v2h58z"/><path d="m549 740h-64v2h64z"/><path d="m552 750h-64v2h64z"/><path d="m554 758h-64v2h64z"/><path d="m553 766h-62v3h62z"/><path d="m548 775h-56v3h56z"/><path d="m541 784h-48v3h48z"/><path d="m532 792h-39v3h39z"/><path d="m520 800h-27v2h27z"/></g><path d="m57 823c7-15 8-18 10-26l-1-63c0 0 1-11 4-13 2-3 7-6 7-6 0 0 2-7 5-9 4-2 10-3 10-3 0 0 0-5 4-7 4-2 10-3 10-3l32-17c0 0 10-10 16-12 5-2 17 3 19 5 2 2 4 5 4 5 0 0-5 5-8 8-3 3-14 17-14 17 0 0-2 1-1 4 1 3 5 15 8 19 3 4 10 0 13-1 3-4 17-22 17-21l11-14c0 0 5 4 6 11 1 7 1 12 2 13 1 1 5 7 5 9 0 2-1 8-3 10-2 3-14 14-15 16-1 2-2 5-4 8-2 3-4 6-4 6 0 0 0 3-3 6-2 3-28 33-28 33-4 2-8 4-11 6-8-1-11 20-17 30 0 0-18-14-30-15-12-1-45 7-45 7z" fill="#e6a75a"/><path d="m30 855l8-24c0 0 23-16 66-15 11 0 29 15 29 15l-4 36c0 0-4-11-18-17-14-6-25-7-43-5-18 2-37 11-37 11z" fill="url(#2)"/><path d="m0 916c11-30 20-54 22-56 7-5 30-20 69-15 39 5 39 25 39 26 0 0-19 58-36 110h-94v-65" fill="#1f97d7"/><path d="m547 823c-7-15-8-18-10-26l1-63c0 0-1-11-4-13-2-3-7-6-7-6 0 0-2-7-5-9-4-2-10-3-10-3 0 0 0-5-4-7-4-2-10-3-10-3l-32-17c0 0-10-10-16-12-5-2-17 3-19 5-2 2-4 5-4 5 0 0 5 5 8 8 3 3 14 17 14 17 0 0 2 1 1 4-1 3-5 15-8 19-3 4-10 0-13-1-2-4-17-21-17-21l-13-12c0 0-2 1-3 8-1 7-1 12-2 13-1 1-5 7-5 9 0 2 1 8 3 10 2 3 14 14 15 16 1 2 2 5 4 8 2 3 4 6 4 6 0 0 0 3 3 6 2 3 28 33 28 33 4 2 8 4 11 6 8-1 11 20 17 30 0 0 18-14 30-15 12-1 45 7 45 7z" fill="#e6a75a"/><path d="m574 855l-8-24c0 0-23-16-66-15-11 0-29 15-29 15l4 36c0 0 4-11 18-17 14-6 25-7 43-5 18 2 37 11 37 11z" fill="url(#1)"/><path d="m604 916c-11-30-20-54-22-56-7-5-30-20-69-15-39 5-39 25-39 26 0 0 19 58 36 110h95v-64z" fill="#1f97d7"/><path d="m0 0c201 0 403 0 604 0 0 16 0 71 0 87-235-5-442 3-604 54 0-47 0-94 0-141" fill="url(#5)"/><path d="m457 33h147v121h-147c-9 0-16-6-16-14v-94c0-8 7-14 16-14z" fill="url(#4)"/><path d="m471 38h133v112h-133c-8 0-15-6-15-13v-86c0-7 7-13 15-13" fill="#00aeec"/><path d="m477 40h128v107h-128c-8 0-14-5-14-12v-83c0-7 6-12 14-12" mask="url(#0)" fill="#fefefe"/></svg>