<svg xmlns="http://www.w3.org/2000/svg" width="23" height="23" viewBox="0 0 60 31" shape-rendering="geometricPrecision" image-rendering="optimizeQuality" fill-rule="evenodd" clip-rule="evenodd"><path d="m3 0h54c2 0 3 1 3 3v24c0 2-1 3-3 3h-54c-2 0-3-1-3-3v-24c0-2 1-3 3-3" fill="#393738"/><path d="m7 2h46c3 0 5 2 5 5v17c0 3-2 5-5 5h-46c-3 0-5-2-5-5v-17c0-3 2-5 5-5" fill="#fefefe"/><g fill="#393738"><path d="m10 22v-1h-5v-4h4v-1h-4v-4h5v-1h-6v12h6zm3 0v-6h4v-1h-4v-4h4v-1h-6v12h1zm7 0v-6h4v6h1v-12h-1v5h-4v-5h-1v12h1m12-4v-1h-4v1h4m4 4h1v-12h-1c0 2-1 2-3 2v1h3v9m9-10v6h-3l3-6m-4 6v1h4v3h1v-3h1v-1h-1v-8h-1l-4 8m8-6h5c-2 3-4 7-4 10h1c0-4 2-7 4-10v-1h-6v1" fill-rule="nonzero"/><path d="m7 4h4c0 0 1 0 1 1 0 0 0 1-1 1h-4c0 0-1 0-1-1 0 0 0-1 1-1"/><path d="m48 4h4c0 0 1 0 1 1 0 0 0 1-1 1h-4c0 0-1 0-1-1 0 0 0-1 1-1"/><path d="m7 25h4c0 0 1 0 1 1 0 0 0 1-1 1h-4c0 0-1 0-1-1 0 0 0-1 1-1"/><path d="m48 25h4c0 0 1 0 1 1 0 0 0 1-1 1h-4c0 0-1 0-1-1 0 0 0-1 1-1"/><g fill-rule="nonzero"><path d="m34 4l1-1h-1z"/><path d="m33 7c0 1 0 1 1 1 1 0 1 0 1-1v-3 3c0 0 0 1-1 1-1 0-1 0-1-1v-3 3"/><path d="m30 6h1c0 0 1 0 1 1 0 0 0 1 0 1 0 0 0 0 0 0v-1c0 0 0-1-1-1 0 0 1 0 1-1 0-1 0-1-1-1h-1v4-2m0-2h1c0 0 1 0 1 1 0 1-1 1-1 1h-1v-1z"/><path d="m29 8h-1v-2h1-1v-1h1v-1h-2v4z"/><path d="m25 8v-2c0 0 1 0 1 0 0 0 1-1 1-1 0 0 0-1 0-1 0 0-1 0-1 0h-1v4m0-3c0 0 1 0 1 1 0 1 0 1-1 1v-1z"/></g></g></svg>