<svg xmlns="http://www.w3.org/2000/svg" width="20" height="20" viewBox="0 0 137 137" xmlns:xlink="http://www.w3.org/1999/xlink" shape-rendering="geometricPrecision" image-rendering="optimizeQuality" fill-rule="evenodd" clip-rule="evenodd"><defs><linearGradient id="6" gradientUnits="userSpaceOnUse" y1="10.06" x2="0" y2="127.1"><stop stop-color="#fff"/><stop offset="1" stop-color="#fff" stop-opacity="0"/></linearGradient><linearGradient id="1" gradientUnits="userSpaceOnUse" x1="25.542" x2="111.73"><stop stop-color="#fefefe"/><stop offset=".278" stop-color="#b3ce52"/><stop offset=".478" stop-color="#fff13c"/><stop offset=".741" stop-color="#dc853d"/><stop offset="1" stop-color="#cd3539"/></linearGradient><linearGradient id="2" gradientUnits="userSpaceOnUse" y1="5.487" x2="0" y2="131.67"><stop stop-color="#e5e6e7"/><stop offset=".259" stop-color="#606162"/><stop offset=".612" stop-color="#fefefe"/><stop offset=".812" stop-color="#d2d3d4"/><stop offset="1" stop-color="#393738"/></linearGradient><mask id="0"><path fill="url(#6)" d="m8 8h120v120h-120z"/></mask><radialGradient id="4" gradientUnits="userSpaceOnUse" cx="68.58" cy="68.58" r="351.08"><stop stop-color="#625f5e"/><stop offset="1" stop-color="#2a2929"/></radialGradient><radialGradient id="5" gradientUnits="userSpaceOnUse" xlink:href="#4" cx="68.58" cy="68.58" r="50.33"/><radialGradient id="3" gradientUnits="userSpaceOnUse" cx="64.755" cy="96.12" r="60.06"><stop stop-color="#848587"/><stop offset=".278" stop-color="#ededee"/><stop offset=".388" stop-color="#fefefe"/><stop offset=".6" stop-color="#c9cacc"/><stop offset=".761" stop-color="#818284"/><stop offset=".929" stop-color="#666668"/><stop offset="1" stop-color="#393738"/></radialGradient></defs><circle cx="69" cy="69" r="69" fill="url(#2)"/><path d="m69 10c32 0 59 26 59 59 0 32-26 59-59 59-32 0-59-26-59-59 0-32 26-59 59-59" mask="url(#0)" fill="url(#5)"/><circle cx="69" cy="69" r="56" fill="url(#4)"/><path d="m69 31c23 0 42 18 43 41h-13c-1-16-14-28-30-28-16 0-29 12-30 28h-13c1-23 20-41 43-41" fill="url(#1)"/><path d="m65 109c1 0 1 0 2 0 5-18 14-34 19-52 0-1-1-1-1 0-6 18-15 34-20 52" fill="#393738"/><circle cx="69" cy="99" r="7" fill="#727375"/><path d="m65 109c1 0 1 0 2 0 5-18 11-36 16-54 0-1-1-1-1 0-6 18-12 36-17 54" fill="#cd3539"/><circle cx="69" cy="99" r="5" fill="url(#3)"/></svg>