<svg id="Capa_1" data-name="Capa 1" xmlns="http://www.w3.org/2000/svg" xmlns:xlink="http://www.w3.org/1999/xlink" viewBox="0 0 73.5 53.09"><defs><style>.cls-1{fill:none;}.cls-2{fill:#1e1b1a;}.cls-3{fill:#edecec;}.cls-4{fill:#464245;}.cls-5{fill:#534f52;}.cls-6{fill:#2e2a2c;}.cls-7{fill:#c31b27;}.cls-8{fill:#393538;}.cls-9{fill:#524c51;}.cls-10{fill:#c6c6c8;}.cls-11{fill:#352f76;}.cls-12{fill:#6c8ac5;}.cls-13{fill:#737273;}.cls-14{fill:#9dcdea;}.cls-15{fill:#3c5fa5;}.cls-16{clip-path:url(#clip-path);}.cls-17{fill:url(#Degradado_sin_nombre_259);}.cls-18{clip-path:url(#clip-path-2);}.cls-19{fill:url(#Degradado_sin_nombre_259-2);}.cls-20{clip-path:url(#clip-path-3);}.cls-21{fill:url(#Degradado_sin_nombre_260);}.cls-22{fill:#30281f;}.cls-23{fill:#858586;}.cls-24{fill:#faefdd;}.cls-25{fill:#342f31;}</style><clipPath id="clip-path" transform="translate(-72.16 -53.82)"><path class="cls-1" d="M92.11,106.62c-5.7-3.3-13.8-8.32-19.5-11.62-.38-.23-.45-1-.45-1.8,0-1.35.15-2.55,1.35-3.23l19.2,12c-1.2.68-1,1.5-1,2.85,0,.83.07,1.58.45,1.8"/></clipPath><linearGradient id="Degradado_sin_nombre_259" x1="11.58" y1="42.3" x2="9.33" y2="46.05" gradientUnits="userSpaceOnUse"><stop offset="0" stop-color="#d6d4d4"/><stop offset="0.07" stop-color="#bebdbc"/><stop offset="0.83" stop-color="#a1a4a5"/><stop offset="1" stop-color="#6d6c6d"/></linearGradient><clipPath id="clip-path-2" transform="translate(-72.16 -53.82)"><path class="cls-1" d="M93.68,101.37a8.87,8.87,0,0,0-.07,2.4A6.4,6.4,0,0,0,94,106l-.9.52a1.74,1.74,0,0,1-.67.23c-.6,0-.75-.83-.75-1.88,0-1.35-.15-2.17,1-2.85l.15-.07Z"/></clipPath><linearGradient id="Degradado_sin_nombre_259-2" x1="19" y1="50.21" x2="23.95" y2="50.21" xlink:href="#Degradado_sin_nombre_259"/><clipPath id="clip-path-3" transform="translate(-72.16 -53.82)"><path class="cls-1" d="M94.28,97.1c1.2-.68,1.65-.6,1.43.75s-1,2.1-2.7,3.3a39.49,39.49,0,0,1,1.12-4c.08,0,.15,0,.15-.07"/></clipPath><linearGradient id="Degradado_sin_nombre_260" x1="21.06" y1="44.54" x2="23.18" y2="45.25" gradientUnits="userSpaceOnUse"><stop offset="0" stop-color="#faefdd"/><stop offset="0.08" stop-color="#e2d7c3"/><stop offset="0.18" stop-color="#cec3ae"/><stop offset="0.29" stop-color="#bfb29c"/><stop offset="0.43" stop-color="#b3a88f"/><stop offset="0.61" stop-color="#aca087"/><stop offset="1" stop-color="#aa9f86"/></linearGradient></defs><path class="cls-2" d="M120.76,70.85a2,2,0,0,0-.68-1.58l17.18,10a1.65,1.65,0,0,1,.67,1.57,5.22,5.22,0,0,1-2.4,4.2l-17.17-10a5.24,5.24,0,0,0,2.4-4.2" transform="translate(-72.16 -53.82)"/><path class="cls-2" d="M116.63,75.2a1.85,1.85,0,0,0,1.73-.15l17.17,10a1.61,1.61,0,0,1-1.72.15c-5.18-2.92-12.08-7-17.18-10" transform="translate(-72.16 -53.82)"/><path class="cls-3" d="M120.08,69.27c5.7,3.3,11.48,6.68,17.18,10a1.8,1.8,0,0,0-1.73.15l-17.17-10a1.83,1.83,0,0,1,1.72-.15" transform="translate(-72.16 -53.82)"/><path class="cls-3" d="M133.81,85.25c-4.88-2.85-9.75-5.7-14.63-8.48-.82-.52-1.72-1-2.55-1.5-.45-.22-.67-.82-.75-1.57a5.22,5.22,0,0,1,2.4-4.2l17.18,10a5.34,5.34,0,0,0-2.4,4.2,1.8,1.8,0,0,0,.75,1.58" transform="translate(-72.16 -53.82)"/><path class="cls-4" d="M132.53,87.42l-17.17-10a3.06,3.06,0,0,1-1.28-2.7,9.27,9.27,0,0,1,4.28-7.35l17.17,10a9.48,9.48,0,0,0-4.27,7.35,2.82,2.82,0,0,0,1.27,2.7" transform="translate(-72.16 -53.82)"/><path class="cls-5" d="M130.06,85.4l-17.18-10v-.15l17.18,10v.15" transform="translate(-72.16 -53.82)"/><path class="cls-6" d="M144.31,72.12c.15-.07.22-.15.3-.15.9-.3,1,.6,1,1.8a3.72,3.72,0,0,1-1,3.08c-.08.07-.23.15-.3.22l-.9.53a9.39,9.39,0,0,0,.3-2.4,6.11,6.11,0,0,0-.45-2.48Z" transform="translate(-72.16 -53.82)"/><path class="cls-7" d="M144.61,67.32V70.7c-1,.6-1.8.3-1.8-.6a3.74,3.74,0,0,1,1.8-2.78" transform="translate(-72.16 -53.82)"/><path class="cls-8" d="M135.53,76c3-1.73,5.4-.38,5.48,3v.15l-1.2.67c0-2.7-1.95-3.82-4.28-2.4a9.48,9.48,0,0,0-4.27,7.35l-1.2.68v-.15a12,12,0,0,1,5.47-9.3" transform="translate(-72.16 -53.82)"/><path class="cls-9" d="M135.53,85a5.14,5.14,0,0,0,2.4-4.2c0-1.57-1.12-2.17-2.47-1.42a5.34,5.34,0,0,0-2.4,4.2C133.13,85.17,134.18,85.85,135.53,85Zm0-7.65c2.33-1.35,4.28-.3,4.28,2.4a9.27,9.27,0,0,1-4.28,7.35c-2.32,1.35-4.27.23-4.27-2.47A9.25,9.25,0,0,1,135.53,77.37Z" transform="translate(-72.16 -53.82)"/><path class="cls-10" d="M135.53,79.47c1.35-.75,2.48-.15,2.48,1.43a5.24,5.24,0,0,1-2.4,4.2c-1.35.75-2.48.15-2.48-1.43a5.06,5.06,0,0,1,2.4-4.2" transform="translate(-72.16 -53.82)"/><polygon class="cls-2" points="32.1 11.63 34.8 24.9 40.73 21.45 34.8 24.9 32.1 11.63"/><polygon class="cls-11" points="51.3 23.63 32.1 11.63 52.27 0 72.45 11.4 51.3 23.63"/><polygon class="cls-12" points="52.27 0.6 52.65 11.4 46.58 14.7 37.42 9.3 52.27 0.6"/><path class="cls-6" d="M102.61,57.72l20,10.73a.84.84,0,0,0-.83.07l-20-10.72a.84.84,0,0,1,.83-.08" transform="translate(-72.16 -53.82)"/><path class="cls-10" d="M102.31,98.6c1.35-.75,2.47-.15,2.47,1.42a5.22,5.22,0,0,1-2.4,4.2c-1.35.75-2.47.15-2.47-1.42a5.45,5.45,0,0,1,2.4-4.2" transform="translate(-72.16 -53.82)"/><polygon class="cls-13" points="40.73 21.98 21 11.03 29.18 6.15 48.6 17.4 40.73 21.98"/><path class="cls-4" d="M99.61,106.25l-17.18-10c-1.05-.07-1.57-1-1.57-2.32a9.26,9.26,0,0,1,4.27-7.35l17.18,10A9.46,9.46,0,0,0,98,103.92c.08,1.28.53,2.25,1.58,2.33" transform="translate(-72.16 -53.82)"/><polygon class="cls-14" points="34.2 32.85 14.55 21.07 18.82 11.4 38.55 22.35 34.2 32.85"/><path class="cls-6" d="M86.78,74.9l.08-.08c5.7,3.3,13.87,8.4,19.65,11.78l-.08.07c-5.77-3.3-14-8.4-19.65-11.77" transform="translate(-72.16 -53.82)"/><path class="cls-6" d="M86.63,75c.08,0,.08-.07.15-.07,5.7,3.3,13.88,8.4,19.65,11.77-.07,0-.07.08-.15.08C101.11,83.75,91.81,78,86.63,75" transform="translate(-72.16 -53.82)"/><path class="cls-6" d="M74.41,94.32a5.87,5.87,0,0,1-.3-1.72c7,3.9,12,7,19.5,11.17a4.86,4.86,0,0,0,.3,1.88c-9.68-5.48-19.5-11.33-19.5-11.33" transform="translate(-72.16 -53.82)"/><polygon class="cls-15" points="52.65 11.4 63.38 18.07 70.65 18.68 71.85 12.07 52.27 0.6 52.65 11.4"/><path class="cls-6" d="M78,84.87a.53.53,0,0,0-.23-.6l19.2,12c.15.08.23.3.23.6-5.1-3-14-9-19.2-12" transform="translate(-72.16 -53.82)"/><polygon class="cls-6" points="20.7 48 1.5 36 2.33 35.55 21.52 47.55 20.7 48"/><polygon class="cls-6" points="20.55 48.08 1.35 36.08 1.5 36 20.7 48 20.55 48.08"/><path class="cls-6" d="M74.18,92.22l1,.53,1,.52,1.05.53,1,.6,1,.6,1.13.6,3.15,2.62,1.12.6,1.13.6,1.12.6,1.13.6,1,.6,1,.6,1,.53,1.05.52,1,.53-1-.53-1.05-.52-1-.53-1-.6-1-.6-1.13-.6-1.12-.6-1.13-.6-1.12-.6L80.41,95.6,79.28,95l-1-.6-1-.6-1.05-.53-1-.52Zm-.07-.07a13.19,13.19,0,0,1,.37-2.85l19.2,12a8.86,8.86,0,0,0-.07,2.4C87.83,100.47,79.81,95.45,74.11,92.15Z" transform="translate(-72.16 -53.82)"/><path class="cls-6" d="M73.81,89.15c5.7,3.3,13.5,8.62,19.2,12-.08.22-.08.45-.15.67l-19.2-12a2.31,2.31,0,0,0,.15-.67" transform="translate(-72.16 -53.82)"/><path class="cls-6" d="M73.81,89.15c1.8-1.2,4-2.85,4.2-4.28l19.2,12c-.15,1.43-2.4,3.08-4.2,4.28-5.18-3-14-9-19.2-12" transform="translate(-72.16 -53.82)"/><path class="cls-11" d="M93,101.15l-19.2-12A29.66,29.66,0,0,1,75,85.1l19.2,12.07a26.2,26.2,0,0,0-1.2,4" transform="translate(-72.16 -53.82)"/><path class="cls-11" d="M110.26,85l2.62-9.3,7.88-4.57v7.72Zm32.92-12.3,1.13-.6c.15-.07.22-.15.3-.15V70.7c-1,.6-1.8.3-1.8-.6a3.88,3.88,0,0,1,1.8-2.78v-2.1L123.46,77.45l-.53-8.25c0-.75-.52-1-1.12-.68L112.36,74a4.36,4.36,0,0,0-1.58,2.17l-.22.45h.07c.23-.07.45.08.15,1-.45,1.5-3.3,7.42-3.45,7.72a2.26,2.26,0,0,1-1,1.43c-.08,0-.15.07-.23.07-1,.68-4.5,3.08-8.4,5.33-2.4,1.42-3.82,5.4-4.65,9a39.57,39.57,0,0,1,1.13-4l.07-.07c1.2-.68,3.08-1.58,2.93-.23s-2.4,3.08-4.2,4.28c-.08.22-.08.45-.15.67l.82-.45a8.87,8.87,0,0,0-.07,2.4A6.4,6.4,0,0,0,94,106l2.93-1.5a12,12,0,0,1,5.47-9.3c3-1.73,5.4-.38,5.48,3l16.27-9.38,5.93-3.45a12.06,12.06,0,0,1,5.47-9.3c3-1.72,5.4-.37,5.48,3l2.4-1.42a13.29,13.29,0,0,0,.3-2.33A7.77,7.77,0,0,0,143.18,72.72Z" transform="translate(-72.16 -53.82)"/><path class="cls-11" d="M143.41,77.6h0l.9-.53a1.11,1.11,0,0,0,.3-.22Z" transform="translate(-72.16 -53.82)"/><polygon class="cls-14" points="40.42 21.75 48.98 16.8 48.98 25.35 37.58 31.95 40.42 21.75"/><polygon class="cls-14" points="48.6 17.4 48.6 25.13 38.1 31.2 40.73 21.98 48.6 17.4"/><path class="cls-9" d="M102.38,104.22a5.34,5.34,0,0,0,2.4-4.2c0-1.57-1.12-2.17-2.47-1.42a5.14,5.14,0,0,0-2.4,4.2C99.91,104.37,101,105,102.38,104.22Zm-.07-7.72c2.32-1.35,4.27-.23,4.27,2.47a9.26,9.26,0,0,1-4.27,7.35c-2.33,1.35-4.28.3-4.28-2.47A9.68,9.68,0,0,1,102.31,96.5Z" transform="translate(-72.16 -53.82)"/><path class="cls-6" d="M86.41,75.12c.07,0,.15-.07.22-.07l19.65,11.77c-.07,0-.15.08-.22.08h0L86.41,75.12" transform="translate(-72.16 -53.82)"/><path class="cls-8" d="M102.31,95.07c3-1.72,5.4-.37,5.47,3v.15l-1.2.68c0-2.7-2-3.83-4.27-2.48A9.46,9.46,0,0,0,98,103.77l-1.2.68v-.15a12.22,12.22,0,0,1,5.48-9.23" transform="translate(-72.16 -53.82)"/><polygon class="cls-12" points="40.13 20.18 20.4 9.22 29.63 3.98 49.58 14.7 40.13 20.18"/><path class="cls-6" d="M93.91,106c-5.18-3-14.33-8.63-19.5-11.63C79,97,80.93,98.9,85,101.22c2.85,1.65,6,2.85,8.85,4.5a.27.27,0,0,1,.08.23" transform="translate(-72.16 -53.82)"/><path class="cls-14" d="M110.71,76.17c.22-.07.3.6,0,1.43-.45,1.5-3.3,7.42-3.45,7.72a2.3,2.3,0,0,1-1,1.43c-.07,0-.15.07-.22.07s-.08,0-.15.08c.3-.15.37-.23.45-.23Z" transform="translate(-72.16 -53.82)"/><path class="cls-12" d="M110.71,76.17,91,65.22a4.36,4.36,0,0,1,1.58-2.17l19.72,11a3.92,3.92,0,0,0-1.57,2.17" transform="translate(-72.16 -53.82)"/><path class="cls-6" d="M74.11,92.6v-.45c5.7,3.3,13.8,8.32,19.5,11.62-7.5-4.12-12.45-7.2-19.5-11.17" transform="translate(-72.16 -53.82)"/><g class="cls-16"><rect class="cls-17" y="36.15" width="20.55" height="16.65"/></g><g class="cls-18"><rect class="cls-19" x="19.35" y="47.55" width="2.47" height="5.33"/></g><g class="cls-20"><rect class="cls-21" x="20.85" y="42.6" width="2.93" height="4.73"/></g><path class="cls-12" d="M106.36,86.67,86.71,74.9l-.45.22c-1.13.75-4.05,2.85-7.88,5-1.5.9-2.62,2.77-3.45,4.95,5.55,3.52,13.5,8.7,19.2,12,.83-2.18,2-4.13,3.45-4.95,3.9-2.25,7.35-4.65,8.4-5.33a2.33,2.33,0,0,0,.38-.15" transform="translate(-72.16 -53.82)"/><path class="cls-22" d="M87.31,94.25a3.15,3.15,0,0,1,.75,2.1c0,.52-.53.75-1,.37L80.18,92.3a2.2,2.2,0,0,1-.9-1.65c0-.53.68-1.2,1.2-.9Z" transform="translate(-72.16 -53.82)"/><path class="cls-23" d="M79.81,89.9c-.08,0-.08.07-.15.15l8.25,5.4c0-.08-.08-.15-.08-.23Z" transform="translate(-72.16 -53.82)"/><path class="cls-23" d="M79.36,91.17a.51.51,0,0,0,.15.3l8.32,5.4c.08,0,.08-.07.15-.15Z" transform="translate(-72.16 -53.82)"/><path class="cls-23" d="M79.36,90.35a.28.28,0,0,1-.08.15L88,96.2V96Z" transform="translate(-72.16 -53.82)"/><path class="cls-24" d="M73.81,89.15h0l.15.07,4.57,2.48c1.28.75,2.4.45,2.4-.68s-.6-2.1-2-3.3l-3.75-2.55-.15-.07a25.72,25.72,0,0,0-1.27,4.05" transform="translate(-72.16 -53.82)"/><path class="cls-24" d="M94.21,97.17l-1.2,3.9L89.33,99a5.06,5.06,0,0,1-2.62-3.75c0-1.27,1.2-1.57,2.62-.75Z" transform="translate(-72.16 -53.82)"/><path class="cls-25" d="M120.53,83.15c.15-.08.23,0,.23.15a.55.55,0,0,1-.23.45l-2,1.12c-.15.08-.22,0-.22-.15a.54.54,0,0,1,.22-.45Z" transform="translate(-72.16 -53.82)"/><polygon class="cls-8" points="24.68 27.15 24.38 26.63 20.85 24.52 20.63 24.82 24.68 27.15"/><path class="cls-8" d="M96.53,80.6c-.07,0-.07,0-.07-.08s-3.83-3.45-7.28-4.12a.17.17,0,0,1-.15-.15.16.16,0,0,1,.15-.15c3.53.67,7.28,4.05,7.43,4.2a.14.14,0,0,1,0,.22c0,.08,0,.08-.08.08" transform="translate(-72.16 -53.82)"/><polygon class="cls-8" points="30.68 30.52 30.38 30 26.85 27.9 26.63 28.13 30.68 30.52"/><path class="cls-8" d="M102.53,84c-.07,0-.07,0-.07-.07s-3.83-3.45-7.28-4.13a.16.16,0,0,1-.15-.15.17.17,0,0,1,.15-.15c3.53.68,7.28,4,7.43,4.2a.15.15,0,0,1,0,.23c0,.07,0,.07-.08.07" transform="translate(-72.16 -53.82)"/></svg>