<svg id="Capa_1" data-name="Capa 1" xmlns="http://www.w3.org/2000/svg" viewBox="0 0 63.95 50.31"><defs><style>.cls-1{fill:#332e2e;}.cls-2{fill:#443e3b;}.cls-3{fill:#d3d2d1;}.cls-4{fill:#352f76;}.cls-5{fill:#6c8ac5;}.cls-6{fill:#9dcdea;}.cls-7{fill:#3c5fa5;}.cls-12,.cls-8{fill:#4b464a;}.cls-13,.cls-9{fill:#342f31;}.cls-9{opacity:0.7;}.cls-10{fill:#f2f8fd;}.cls-11{fill:#a14d2a;}.cls-12{opacity:0.5;}.cls-14{fill:#fff;}</style></defs><polygon class="cls-1" points="31.1 37.84 32.45 39.79 30.65 42.94 24.5 39.34 31.1 37.84"/><polygon class="cls-1" points="59.3 21.56 60.57 23.51 58.85 26.66 52.62 23.14 59.3 21.56"/><path class="cls-1" d="M80.92,87.54a2.45,2.45,0,0,1,2.55-.22l2.25,1.27-5.1,8.78-2.25-1.28a2.65,2.65,0,0,1-1.05-2.32,8.45,8.45,0,0,1,3.6-6.23" transform="translate(-56.57 -47.3)"/><path class="cls-2" d="M79.65,95c0,2.25,1.57,3.23,3.6,2.1a8,8,0,0,0,3.6-6.22c0-2.25-1.58-3.23-3.6-2.1A8,8,0,0,0,79.65,95" transform="translate(-56.57 -47.3)"/><path class="cls-3" d="M83.17,95.94a5.32,5.32,0,0,0,2.48-4.27c0-1.58-1.05-2.25-2.4-1.5a5.32,5.32,0,0,0-2.48,4.27c0,1.58,1,2.25,2.4,1.5" transform="translate(-56.57 -47.3)"/><path class="cls-1" d="M109.12,71.34a2.45,2.45,0,0,1,2.55-.22l2.25,1.27-5.1,8.78-2.25-1.28a2.65,2.65,0,0,1-1-2.32,7.79,7.79,0,0,1,3.6-6.23" transform="translate(-56.57 -47.3)"/><path class="cls-2" d="M107.77,78.84c0,2.25,1.58,3.23,3.6,2.1a8,8,0,0,0,3.6-6.22c0-2.25-1.57-3.23-3.6-2.1a7.77,7.77,0,0,0-3.6,6.22" transform="translate(-56.57 -47.3)"/><path class="cls-3" d="M111.37,79.74a5.32,5.32,0,0,0,2.48-4.27c0-1.58-1-2.25-2.4-1.5A5.32,5.32,0,0,0,109,78.24c-.07,1.5,1,2.25,2.4,1.5" transform="translate(-56.57 -47.3)"/><path class="cls-4" d="M68.47,69.62l5.78-6.15a6.61,6.61,0,0,1,1.8-1.5L101.4,47.34c.3-.15,3.07,4.73,3.07,4.73l11.4,3.15L119,62a5.32,5.32,0,0,1,.37,1.87v4.35c.15.15.38.3.38.53v1.2a1.84,1.84,0,0,1-.68,1.42l-2.62,2-1,.6v-.3c0-2.33-1.87-3.08-4.2-1.73s-4.2,4.28-4.2,6.6v.3l-19.8,11.4v-.3c0-2.32-1.87-3.07-4.2-1.72s-4.2,4.27-4.2,6.6v.3l-1.35.82a11,11,0,0,1-8.4-.22,50.35,50.35,0,0,1-9.82-5.78,6.43,6.43,0,0,1-2.63-5.17v-.23c0-.3.08-.52.08-.9,0-1.5-.08-2.47-.08-2.92V79c.08-2.77,11.85-9.37,11.85-9.37" transform="translate(-56.57 -47.3)"/><path class="cls-4" d="M70.72,96.17a10.57,10.57,0,0,0,6.83-.3L78.9,95v-.3a7.79,7.79,0,0,1,1.65-4.27Zm14.85-8.55c1.05.15,1.65,1,1.65,2.4v.3L107,78.84v-.3a7.87,7.87,0,0,1,1.65-4.27Zm33.75-19.5v.07c.15.15.38.3.38.53v1.2a1.84,1.84,0,0,1-.68,1.42l-2.62,2-1,.6v-.3a2.21,2.21,0,0,0-1.65-2.4Z" transform="translate(-56.57 -47.3)"/><path class="cls-5" d="M76.05,62,101.4,47.42a1.28,1.28,0,0,1,1,0S112.8,53,115.8,55.07a.21.21,0,0,1,0,.37c-2.33,1.28-18,9.9-19.58,10.73s-5.85,3.45-7.12,4.12a.67.67,0,0,1-.53.08c-2.47-.75-13.65-7.5-13.27-7.8a6.08,6.08,0,0,1,.75-.53" transform="translate(-56.57 -47.3)"/><path class="cls-6" d="M83.7,78.17a1.13,1.13,0,0,0,.82-.3,2.19,2.19,0,0,0,.68-.75c.6-1,2.1-4.43,2.77-5.85a.28.28,0,0,0-.15-.38,85.5,85.5,0,0,1-13-7.5.24.24,0,0,0-.3,0l-5.1,5.4a.46.46,0,0,0,0,.6,46.89,46.89,0,0,0,13.88,8.7c.07.08.3.08.45.08" transform="translate(-56.57 -47.3)"/><path class="cls-6" d="M86.92,78.32a69.2,69.2,0,0,1,3.45-7.58,2.15,2.15,0,0,1,.75-.67l3.23-1.88a.34.34,0,0,1,.52.23A55.2,55.2,0,0,1,96.3,74c0,.08-.15.23-.23.3l-8.62,5c-.83.3-1.28.37-.53-1.05" transform="translate(-56.57 -47.3)"/><path class="cls-7" d="M68.17,69.84c1.13,1.43,7.58,7.58,17.25,10.58,0,0-9.22,7.27-12.45,7.72-2.47.3-4.8-1-8.47-3.07-7-3.83-7.65-5.25-7.65-6-.15-2.55,9.07-8,11.32-9.23" transform="translate(-56.57 -47.3)"/><path class="cls-8" d="M56.85,83.57s.07.22.22.22.83-2.17,1.13-2a88.74,88.74,0,0,0,9.22,5.47A3.31,3.31,0,0,1,68.92,89l.6,1.8c.68,2.7,5,2.4,7.73,1.5a.88.88,0,0,1,1.2.82V95a.77.77,0,0,1-.38.67l-.45.23a11,11,0,0,1-8.4-.23,50.32,50.32,0,0,1-9.82-5.77,6.73,6.73,0,0,1-2.78-4.35c0-.3-.15-2.4.23-2.7Z" transform="translate(-56.57 -47.3)"/><path class="cls-9" d="M57.37,84.24c.15-.52.68-2.25,1-2.1a102.52,102.52,0,0,0,9,5.48,2.81,2.81,0,0,1,1.27,1.65,16,16,0,0,0,.75,2.55c-3.45-.9-11.17-5.55-12-7.58" transform="translate(-56.57 -47.3)"/><path class="cls-10" d="M75.6,88.74c.75-.15,1.5,1.13.45,2.18-.9.9-4.5.67-5.7-.08-.23-.15-1-2.55-.68-2.47a14.09,14.09,0,0,0,5.93.37" transform="translate(-56.57 -47.3)"/><path class="cls-11" d="M75.6,88.74c.82-.15,1.57,1.13.45,2.18a1.42,1.42,0,0,1-.68.37,5,5,0,0,0,.23-2.55" transform="translate(-56.57 -47.3)"/><path class="cls-10" d="M57,82.67c-.08,0-.15-.15-.15-.23a10.57,10.57,0,0,1-.15-2.62c.15.75.9,1.2,1,1.42s-.52,1.5-.67,1.43" transform="translate(-56.57 -47.3)"/><path class="cls-12" d="M56.62,83.87c.08.15.15.22.23.37a4,4,0,0,0,.75.9,15.17,15.17,0,0,0,1.12,1,41,41,0,0,0,7.13,4.43c.67.37,1.35.67,2,1a21.55,21.55,0,0,0,2,.82c.67.23,1.35.38,1.95.53a8.3,8.3,0,0,0,1.8.22,11.2,11.2,0,0,0,1.57-.07l1.2-.23a2.8,2.8,0,0,0,1-.37c.07-.08.15,0,.22.07s0,.15-.07.23a7.52,7.52,0,0,1-1,.45c-.3.07-.75.22-1.2.3a5.41,5.41,0,0,1-1.57.07,16.15,16.15,0,0,1-1.88-.15,10,10,0,0,1-2-.52c-.68-.23-1.43-.53-2.1-.83s-1.35-.67-2.1-1c-1.35-.75-2.7-1.5-4-2.25a29.91,29.91,0,0,1-3.22-2.32,8,8,0,0,1-1.13-1.13,5.51,5.51,0,0,1-.67-1,.62.62,0,0,1-.08-.6" transform="translate(-56.57 -47.3)"/><path class="cls-8" d="M119.32,68.57v-1.5l.75.75a1.52,1.52,0,0,1,.45,1.12v1a1.74,1.74,0,0,1-.67,1.43l-1.8,1.42a1.76,1.76,0,0,1-.6.38l-1,.6-.45-.23V70.44Z" transform="translate(-56.57 -47.3)"/><path class="cls-13" d="M94.72,77.57,96,76.82a.42.42,0,0,0,.22-.38v-.3c0-.15-.07-.15-.22-.07l-1.28.75a.4.4,0,0,0-.22.37v.3c0,.08.07.15.22.08" transform="translate(-56.57 -47.3)"/><path class="cls-13" d="M106.2,70.89l1.27-.75a.4.4,0,0,0,.23-.37v-.3c0-.15-.08-.15-.23-.08l-1.27.75a.43.43,0,0,0-.23.38v.3c0,.15.08.15.23.07" transform="translate(-56.57 -47.3)"/><path class="cls-6" d="M114.75,63.84l-6.45,3.6L105.82,62c2.25-1.28,3.83-2.1,5.1-2.7a1.15,1.15,0,0,1,1.58.52Z" transform="translate(-56.57 -47.3)"/><path class="cls-6" d="M96.67,67.07c.6-.38,6-3.38,8.4-4.73l2.48,5.4-9.23,5.4a31,31,0,0,0-.9-3.15c-.37-1.2-.67-2-.9-2.62-.07-.08,0-.23.15-.3" transform="translate(-56.57 -47.3)"/><polygon class="cls-14" points="3.57 41.36 7.47 43.76 7.47 44.96 3.57 42.56 3.57 41.36"/></svg>