<svg id="Capa_1" data-name="Capa 1" xmlns="http://www.w3.org/2000/svg"
    xmlns:xlink="http://www.w3.org/1999/xlink" viewBox="0 0 1080 1350">
    <defs>
        <style>
            .cls-1{fill:#1e1e1e;}.cls-2{fill:#9491a4;}.cls-3{fill:#8a8b94;}.cls-14{fill:#c4c2c1;}.cls-5{fill:#353535;opacity:0.29;}.cls-6{fill:#fa8d07;}.cls-7{fill:#636363;}.cls-8{fill:#1d232a;}.cls-9{fill:#a7adb1;}.cls-10{fill:#383f48;}.cls-11{fill:url(#linear-gradient);}.cls-12{fill:#4a4a56;}</style>
        <linearGradient id="linear-gradient" x1="-2179.18" y1="803.92" x2="-2155.42" y2="803.92"
            gradientTransform="matrix(1, 0, 0, -1, 2914.96, 1457.29)" gradientUnits="userSpaceOnUse">
            <stop offset="0" stop-color="#161616" />
            <stop offset="0.3" stop-color="#1a1a1a" />
            <stop offset="0.79" stop-color="#1e1e1e" />
            <stop offset="0.8" stop-color="#1e1e1e" />
        </linearGradient>
    </defs>
    <ellipse class="cls-1" cx="892.21" cy="766.18" rx="78.54" ry="73.85" />
    <ellipse class="cls-2" cx="892.21" cy="766.18" rx="51.69" ry="48.61" />
    <ellipse class="cls-3" cx="892.21" cy="766.18" rx="46.53" ry="43.75" />
    <ellipse class="cls-1" cx="892.21" cy="766.18" rx="23.76" ry="22.34" />
    <ellipse class="cls-2" cx="892.21" cy="766.18" rx="21.37" ry="20.1" />
    <ellipse class="cls-1" cx="892.21" cy="733.07" rx="4.56" ry="4.29" />
    <ellipse class="cls-1" cx="874.57" cy="737.46" rx="4.56" ry="4.29" />
    <ellipse class="cls-1" cx="861.64" cy="749.56" rx="4.56" ry="4.29" />
    <ellipse class="cls-1" cx="856.89" cy="766.13" rx="4.56" ry="4.29" />
    <ellipse class="cls-1" cx="861.59" cy="782.71" rx="4.56" ry="4.29" />
    <ellipse class="cls-1" cx="874.49" cy="794.84" rx="4.56" ry="4.29" />
    <ellipse class="cls-1" cx="892.11" cy="799.28" rx="4.56" ry="4.29" />
    <ellipse class="cls-1" cx="909.73" cy="794.83" rx="4.56" ry="4.29" />
    <ellipse class="cls-1" cx="922.62" cy="782.69" rx="4.56" ry="4.29" />
    <ellipse class="cls-1" cx="927.31" cy="766.1" rx="4.56" ry="4.29" />
    <ellipse class="cls-1" cx="922.55" cy="749.54" rx="4.56" ry="4.29" />
    <ellipse class="cls-1" cx="909.6" cy="737.45" rx="4.56" ry="4.29" />
    <ellipse class="cls-1" cx="368.12" cy="765.84" rx="78.54" ry="73.85" />
    <ellipse class="cls-2" cx="368.12" cy="765.84" rx="51.69" ry="48.61" />
    <ellipse class="cls-3" cx="368.12" cy="765.84" rx="46.53" ry="43.75" />
    <ellipse class="cls-1" cx="368.12" cy="765.84" rx="23.76" ry="22.34" />
    <ellipse class="cls-2" cx="368.12" cy="765.84" rx="21.37" ry="20.1" />
    <ellipse class="cls-1" cx="368.12" cy="732.73" rx="4.56" ry="4.29" />
    <ellipse class="cls-1" cx="350.48" cy="737.13" rx="4.56" ry="4.29" />
    <ellipse class="cls-1" cx="337.55" cy="749.23" rx="4.56" ry="4.29" />
    <ellipse class="cls-1" cx="332.8" cy="765.8" rx="4.56" ry="4.29" />
    <ellipse class="cls-1" cx="337.5" cy="782.37" rx="4.56" ry="4.29" />
    <ellipse class="cls-1" cx="350.4" cy="794.51" rx="4.56" ry="4.29" />
    <ellipse class="cls-1" cx="368.02" cy="798.95" rx="4.56" ry="4.29" />
    <ellipse class="cls-1" cx="385.64" cy="794.5" rx="4.56" ry="4.29" />
    <ellipse class="cls-1" cx="398.53" cy="782.35" rx="4.56" ry="4.29" />
    <ellipse class="cls-1" cx="403.22" cy="765.77" rx="4.56" ry="4.29" />
    <ellipse class="cls-1" cx="398.45" cy="749.21" rx="4.56" ry="4.29" />
    <ellipse class="cls-1" cx="385.51" cy="737.11" rx="4.56" ry="4.29" />
    <path class="cls-14"
        d="M1026.16,805.61l-6.78.66-20.42.24-57.86-.27L870.74,806l-317.21.06-194.44.45H32s-5.88-4.41-6.45-5.93-3-4.93-3.22-5.5-1.78-5.87-1.78-5.87a54.78,54.78,0,0,1,.28-7.54,73.44,73.44,0,0,1,2.66-8.62c.35-.71,3.76-6.25,3.76-6.25L32,761.1l2.38-39.16,6.11-68.86,22.35-28.36H187.76l49.39-57.18s18.2-19.67,21.55-23.13,16.84-16.91,16.84-16.91l5.25-5L291.5,513l8.41-6.62s4.61-3.23,6.45-4.24,1.82-1,2.24-1.19,1.52-.65,2.1-.84,3.25-.94,3.25-.94l4.52-1,6.3-1,21.3-2.17,70.77-2.85,79.17-.53,211,3.5L814.69,614.48l205.17,23.88s3.23,2.64,4,3.33,8.12,7.71,8.58,8.19,6.87,8.08,7.55,9.07,2.42,3.64,2.79,4.29,1.89,3.67,1.89,3.67,1.73,4.92,1.82,5.32.38,2.33.38,2.33l.2,3.14,3.63,19.26,6.34,41.45s1,11.83.94,14.74-.25,7.4-.38,8.53-.93,5.54-1.21,6.46-1.7,4.17-1.7,4.17a21.43,21.43,0,0,1-2.88,3.43c-.91.59-18.6,23.14-18.6,23.14a8.4,8.4,0,0,1-1.27,2.67,18.23,18.23,0,0,0-2,2.33C1029.18,805,1026.16,805.61,1026.16,805.61Z" />
    <path class="cls-5"
        d="M40.47,651.41,198,650.66,302.83,534.11h368S763,650.66,766.45,650.66s231.06,14.39,231.06,14.39,8.91,18.41,9.36,35.46c0,.54,1.08,10.33,1.14,11,1,10.78,10.08,36.39,12.54,59.51,2.21,20.65,10,34.55-1.17,35.25-24.57,1.51-108.78-2.11-108.78-2.11l-157.68.67H32s-25.77-17.35,0-45.4l3-50Z" />
    <path class="cls-6"
        d="M1034,760.79c1.63-.15,5.38-5.77,5.38-5.77l-6-33.66c-.94-5.83-4.14-5.64-10-5.87-3.78-.15-14.41-.39-16.33.59-4.55,2.31-5.31,7.38-5.31,9.91s2.28,20.27,2.28,20.27,1.9,13.8,2.49,14.53C1007.34,761.84,1022.24,761.86,1034,760.79Z" />
    <path class="cls-7"
        d="M1017.86,806.13l8.3-.52a7.81,7.81,0,0,0,5-3.18A37.06,37.06,0,0,0,1035,791.8c.27-2.25.61-7.95.61-8.52s-.55-12.52-.55-12.52l-1.1-10h-32.28s-5,0-6.28,2c-1.07,1.58-2.21,2.13-3,6-.85,4.28-.53,12.4-.35,14.36.3,3.35.19,6.58,1.13,10.18s1.62,7.66,2.42,10.71c.18.68,2.56,2.54,3.31,2.48C1002.15,806.24,1017.86,806.13,1017.86,806.13Z" />
    <polygon class="cls-8"
        points="520.76 550.31 673.04 547.89 754.44 649.67 520.76 650.66 520.76 550.31" />
    <path class="cls-8"
        d="M497.45,551.25V653.08H346.78l-27.86-2.85s5.19-85.56,6.25-92.1c.71-4.36,0-7.42,10.81-6.85S497.45,551.25,497.45,551.25Z" />
    <path class="cls-7" d="M32,761.1H222.22s-16.77,26.9-14.55,45.41H32S7.16,788.4,32,761.1Z" />
    <ellipse class="cls-1" cx="792.3" cy="802.18" rx="78.54" ry="73.85" />
    <ellipse class="cls-2" cx="792.3" cy="802.18" rx="51.69" ry="48.61" />
    <ellipse class="cls-3" cx="792.3" cy="802.18" rx="46.53" ry="43.75" />
    <ellipse class="cls-1" cx="792.3" cy="802.18" rx="23.76" ry="22.34" />
    <ellipse class="cls-2" cx="792.3" cy="802.18" rx="21.37" ry="20.1" />
    <ellipse class="cls-1" cx="792.3" cy="769.07" rx="4.56" ry="4.29" />
    <ellipse class="cls-1" cx="809.94" cy="773.46" rx="4.56" ry="4.29" />
    <ellipse class="cls-1" cx="822.87" cy="785.57" rx="4.56" ry="4.29" />
    <ellipse class="cls-1" cx="827.62" cy="802.13" rx="4.56" ry="4.29" />
    <ellipse class="cls-1" cx="822.92" cy="818.71" rx="4.56" ry="4.29" />
    <ellipse class="cls-1" cx="810.02" cy="830.85" rx="4.56" ry="4.29" />
    <ellipse class="cls-1" cx="792.4" cy="835.29" rx="4.56" ry="4.29" />
    <ellipse class="cls-1" cx="774.78" cy="830.84" rx="4.56" ry="4.29" />
    <ellipse class="cls-1" cx="761.89" cy="818.69" rx="4.56" ry="4.29" />
    <ellipse class="cls-1" cx="757.2" cy="802.11" rx="4.56" ry="4.29" />
    <ellipse class="cls-1" cx="761.97" cy="785.55" rx="4.56" ry="4.29" />
    <ellipse class="cls-1" cx="774.91" cy="773.45" rx="4.56" ry="4.29" />
    <ellipse class="cls-1" cx="280.54" cy="803.24" rx="78.54" ry="73.85" />
    <ellipse class="cls-2" cx="280.54" cy="803.24" rx="51.69" ry="48.61" />
    <ellipse class="cls-3" cx="280.54" cy="803.24" rx="46.53" ry="43.75" />
    <ellipse class="cls-1" cx="280.54" cy="803.24" rx="23.76" ry="22.34" />
    <ellipse class="cls-2" cx="280.54" cy="803.24" rx="21.37" ry="20.1" />
    <ellipse class="cls-1" cx="280.54" cy="770.13" rx="4.56" ry="4.29" />
    <ellipse class="cls-1" cx="298.18" cy="774.52" rx="4.56" ry="4.29" />
    <ellipse class="cls-1" cx="311.12" cy="786.62" rx="4.56" ry="4.29" />
    <ellipse class="cls-1" cx="315.87" cy="803.19" rx="4.56" ry="4.29" />
    <ellipse class="cls-1" cx="311.17" cy="819.77" rx="4.56" ry="4.29" />
    <ellipse class="cls-1" cx="298.27" cy="831.91" rx="4.56" ry="4.29" />
    <ellipse class="cls-1" cx="280.64" cy="836.34" rx="4.56" ry="4.29" />
    <ellipse class="cls-1" cx="263.02" cy="831.89" rx="4.56" ry="4.29" />
    <ellipse class="cls-1" cx="250.14" cy="819.75" rx="4.56" ry="4.29" />
    <ellipse class="cls-1" cx="245.45" cy="803.17" rx="4.56" ry="4.29" />
    <ellipse class="cls-1" cx="250.21" cy="786.6" rx="4.56" ry="4.29" />
    <ellipse class="cls-1" cx="263.15" cy="774.51" rx="4.56" ry="4.29" />
    <path class="cls-9"
        d="M528.53,671.84h68.33a1.36,1.36,0,0,1,1.36,1.36v22.26a.85.85,0,0,1-.85.85H528.94a.85.85,0,0,1-.85-.85V672.28a.44.44,0,0,1,.44-.44Z" />
    <path class="cls-10"
        d="M593.86,684.74H532.45c-2.41,0-4.36-1.63-4.36-3.63v-5.64c0-2,1.95-3.63,4.36-3.63h53.48c4.62,0,8.83,2.23,10.77,5.73l1.12,2C599.16,682,597.05,684.74,593.86,684.74Z" />
    <ellipse class="cls-9" cx="538.84" cy="678.29" rx="4.7" ry="3.9" />
    <rect class="cls-11" x="735.78" y="645.15" width="23.76" height="16.42" rx="0.46" />
    <rect class="cls-12" x="687.4" y="634.88" width="58.44" height="36.96" rx="1.61" />
    <polyline class="cls-8"
        points="679.38 544.92 761.31 647.09 803.89 613.14 720.31 516.68 679.38 544.92" />
    <path class="cls-7"
        d="M1034,760.79l22.76-24.38s.83,8.91.87,9.48.36,6.45.36,6.45l-.37,9.34-1.21,6.46-1.7,4.17-16,19.58-5.51,7-.92,2.17-.35.5Z" />
    <path class="cls-6"
        d="M1052.18,706.49l-3.52,1.32s-.86.57-.86,1.14.86,7.39.86,7.39l5.24,23.13,2.86-3.06Z" />
    <polygon class="cls-8"
        points="272.69 530.35 255.21 548.11 238.9 565.65 221.51 585.65 210.05 598.91 187.76 624.72 197.99 650.66 287.45 551.22 272.69 530.35" />
</svg>