<svg id="Capa_1" data-name="Capa 1" xmlns="http://www.w3.org/2000/svg" viewBox="0 0 1080 1350">
    <defs>
        <style>
            .cls-1{fill:#434342;}.cls-14{fill:#c4c2c1;}.cls-3{fill:#353535;opacity:0.29;}.cls-4{fill:#fda524;}.cls-5{fill:#b6b6b6;}.cls-6,.cls-7{fill:none;stroke-miterlimit:10;}.cls-6{stroke:#434342;stroke-width:7px;}.cls-7{stroke:#a5a5a5;stroke-width:1.57px;}.cls-8{fill:#191919;}.cls-9{fill:#acacac;}.cls-10{fill:#bdbdbd;}</style>
    </defs>
    <polygon class="cls-1" points="869.17 577.1 845.5 586.3 806.5 519.5 826.59 507.77 869.17 577.1" />
    <path class="cls-14"
        d="M841.47,506.79l-33.74,12.8-33.38,20.07L749.69,779.32s-2.6,31.08-36.66,35.37L679.3,825.77,375.39,839.3,198.57,746.61s-12.15-13.18,2.07-20.78L488.9,571.94s5.21-16.79,7.3-21,17.86-30.68,17.86-30.68,23.2-28.74,28.51-33.65S570.67,464,570.67,464L597,448.15l17.83-7.54,23-8.92L652.3,428l19.21-7.42,25-6.29s10.75-1.54,14.17,4.06l3.43,5.6,17.61,52,38.39-17,2-.47,1.87,3.21,16.93-6.39,12.93-7.43,2-.46Z" />
    <path class="cls-3"
        d="M732.76,551.46h0l-11.47,58.39-6.21,47.72L694.77,769.26,679.3,825.77,713,814.69s30.64,2.45,36.66-35.37,23.95-238,23.95-238Z" />
    <circle class="cls-4" cx="783.19" cy="437.12" r="40.49"
        transform="translate(-79.7 681.82) rotate(-45)" />
    <path class="cls-5"
        d="M741.1,468.61c30.81,13.59,61.7,9.8,61.7,9.8l-2.37-42.14-2.37-42.13s-31.46-1.49-60.42,15.49C714.31,423.3,716.36,457.69,741.1,468.61Z" />
    <path class="cls-6" d="M734.94,454.32,664.55,305a8.21,8.21,0,0,0-10.76-4l-55.25,24.7" />
    <line class="cls-7" x1="164.37" y1="754.69" x2="209.15" y2="647.34" />
    <line class="cls-7" x1="164.37" y1="754.69" x2="271.95" y2="710.45" />
    <line class="cls-7" x1="164.37" y1="754.69" x2="271.72" y2="799.47" />
    <line class="cls-7" x1="164.37" y1="754.69" x2="208.61" y2="862.27" />
    <line class="cls-7" x1="164.37" y1="754.69" x2="119.59" y2="862.05" />
    <line class="cls-7" x1="164.37" y1="754.69" x2="56.79" y2="798.94" />
    <line class="cls-7" x1="164.37" y1="754.69" x2="57.01" y2="709.91" />
    <line class="cls-7" x1="164.37" y1="754.69" x2="120.12" y2="647.11" />
    <line class="cls-7" x1="146.63" y1="716.42" x2="188.34" y2="647.2" />
    <line class="cls-7" x1="136.02" y1="714.88" x2="177.73" y2="645.67" />
    <line class="cls-7" x1="182.11" y1="716.42" x2="140.4" y2="647.2" />
    <line class="cls-7" x1="192.72" y1="714.88" x2="151.01" y2="645.67" />
    <line class="cls-7" x1="178.88" y1="715.08" x2="257.32" y2="695.63" />
    <line class="cls-7" x1="172.47" y1="706.5" x2="250.91" y2="687.05" />
    <line class="cls-7" x1="203.97" y1="740.18" x2="223.43" y2="661.74" />
    <line class="cls-7" x1="212.56" y1="746.59" x2="232.01" y2="668.15" />
    <line class="cls-7" x1="202.64" y1="736.95" x2="271.85" y2="778.66" />
    <line class="cls-7" x1="204.17" y1="726.34" x2="273.39" y2="768.05" />
    <line class="cls-7" x1="202.64" y1="772.43" x2="271.85" y2="730.72" />
    <line class="cls-7" x1="204.17" y1="783.04" x2="273.39" y2="741.33" />
    <line class="cls-7" x1="203.97" y1="769.2" x2="223.43" y2="847.64" />
    <line class="cls-7" x1="212.56" y1="762.79" x2="232.01" y2="841.23" />
    <line class="cls-7" x1="178.88" y1="794.3" x2="257.32" y2="813.75" />
    <line class="cls-7" x1="172.47" y1="802.88" x2="250.91" y2="822.33" />
    <line class="cls-7" x1="182.11" y1="792.96" x2="140.4" y2="862.18" />
    <line class="cls-7" x1="192.72" y1="794.5" x2="151.01" y2="863.71" />
    <line class="cls-7" x1="146.63" y1="792.96" x2="188.34" y2="862.18" />
    <line class="cls-7" x1="136.02" y1="794.5" x2="177.73" y2="863.71" />
    <line class="cls-7" x1="149.86" y1="794.3" x2="71.42" y2="813.75" />
    <line class="cls-7" x1="156.27" y1="802.88" x2="77.83" y2="822.33" />
    <line class="cls-7" x1="124.76" y1="769.2" x2="105.31" y2="847.64" />
    <line class="cls-7" x1="116.18" y1="762.79" x2="96.73" y2="841.23" />
    <line class="cls-7" x1="126.1" y1="772.43" x2="56.88" y2="730.72" />
    <line class="cls-7" x1="124.56" y1="783.04" x2="55.34" y2="741.33" />
    <line class="cls-7" x1="126.1" y1="736.95" x2="56.88" y2="778.66" />
    <line class="cls-7" x1="124.56" y1="726.34" x2="55.34" y2="768.05" />
    <line class="cls-7" x1="124.76" y1="740.18" x2="105.31" y2="661.74" />
    <line class="cls-7" x1="116.18" y1="746.59" x2="96.73" y2="668.15" />
    <line class="cls-7" x1="149.86" y1="715.08" x2="71.42" y2="695.63" />
    <line class="cls-7" x1="156.27" y1="706.5" x2="77.83" y2="687.05" />
    <path class="cls-8"
        d="M164.37,608.08A146.61,146.61,0,1,0,311,754.69,146.6,146.6,0,0,0,164.37,608.08Zm0,255.63a109,109,0,1,1,109-109A109,109,0,0,1,164.37,863.71Z" />
    <circle class="cls-9" cx="164.37" cy="754.69" r="56.45" />
    <path class="cls-10"
        d="M164.37,648.81A105.89,105.89,0,1,1,58.48,754.69,106,106,0,0,1,164.37,648.81m0-3.14a109,109,0,1,0,109,109,109,109,0,0,0-109-109Z" />
    <path class="cls-14"
        d="M904.4,573.44A170,170,0,0,0,734.6,734.81a6.57,6.57,0,0,0,8.06,6.71l1.5-.35c16-3.76,29.08-15.8,33.32-31.7A131.42,131.42,0,0,1,904.4,612.1h.25a45.74,45.74,0,0,0,38.58-20.38l2.71-4.13a6.56,6.56,0,0,0-4-10A170.56,170.56,0,0,0,904.4,573.44Z" />
    <line class="cls-7" x1="904.4" y1="743.46" x2="952.61" y2="627.88" />
    <line class="cls-7" x1="904.4" y1="743.46" x2="1020.22" y2="695.83" />
    <line class="cls-7" x1="904.4" y1="743.46" x2="1019.98" y2="791.67" />
    <line class="cls-7" x1="904.4" y1="743.46" x2="952.04" y2="859.28" />
    <line class="cls-7" x1="904.4" y1="743.46" x2="856.19" y2="859.04" />
    <line class="cls-7" x1="904.4" y1="743.46" x2="788.58" y2="791.09" />
    <line class="cls-7" x1="904.4" y1="743.46" x2="788.82" y2="695.25" />
    <line class="cls-7" x1="904.4" y1="743.46" x2="856.77" y2="627.64" />
    <line class="cls-7" x1="885.3" y1="702.26" x2="930.2" y2="627.74" />
    <line class="cls-7" x1="873.88" y1="700.61" x2="918.79" y2="626.09" />
    <line class="cls-7" x1="923.5" y1="702.26" x2="878.6" y2="627.74" />
    <line class="cls-7" x1="934.92" y1="700.61" x2="890.02" y2="626.09" />
    <line class="cls-7" x1="920.03" y1="700.82" x2="1004.47" y2="679.88" />
    <line class="cls-7" x1="913.12" y1="691.58" x2="997.57" y2="670.64" />
    <line class="cls-7" x1="947.04" y1="727.84" x2="967.98" y2="643.39" />
    <line class="cls-7" x1="956.28" y1="734.74" x2="977.23" y2="650.29" />
    <line class="cls-7" x1="945.6" y1="724.36" x2="1020.12" y2="769.26" />
    <line class="cls-7" x1="947.26" y1="712.94" x2="1021.78" y2="757.85" />
    <line class="cls-7" x1="945.6" y1="762.56" x2="1020.12" y2="717.66" />
    <line class="cls-7" x1="947.26" y1="773.98" x2="1021.78" y2="729.07" />
    <line class="cls-7" x1="947.04" y1="759.09" x2="967.98" y2="843.53" />
    <line class="cls-7" x1="956.28" y1="752.18" x2="977.23" y2="836.63" />
    <line class="cls-7" x1="920.03" y1="786.1" x2="1004.47" y2="807.04" />
    <line class="cls-7" x1="913.12" y1="795.34" x2="997.57" y2="816.29" />
    <line class="cls-7" x1="923.5" y1="784.66" x2="878.6" y2="859.18" />
    <line class="cls-7" x1="934.92" y1="786.32" x2="890.02" y2="860.84" />
    <line class="cls-7" x1="885.3" y1="784.66" x2="930.2" y2="859.18" />
    <line class="cls-7" x1="873.88" y1="786.32" x2="918.79" y2="860.84" />
    <line class="cls-7" x1="888.78" y1="786.1" x2="804.33" y2="807.04" />
    <line class="cls-7" x1="895.68" y1="795.34" x2="811.23" y2="816.29" />
    <line class="cls-7" x1="861.76" y1="759.09" x2="840.82" y2="843.53" />
    <line class="cls-7" x1="852.52" y1="752.18" x2="831.58" y2="836.63" />
    <line class="cls-7" x1="863.2" y1="762.56" x2="788.68" y2="717.66" />
    <line class="cls-7" x1="861.55" y1="773.98" x2="787.03" y2="729.07" />
    <line class="cls-7" x1="863.2" y1="724.36" x2="788.68" y2="769.26" />
    <line class="cls-7" x1="861.55" y1="712.94" x2="787.03" y2="757.85" />
    <line class="cls-7" x1="861.76" y1="727.84" x2="840.82" y2="643.39" />
    <line class="cls-7" x1="852.52" y1="734.74" x2="831.58" y2="650.29" />
    <line class="cls-7" x1="888.78" y1="700.82" x2="804.33" y2="679.88" />
    <line class="cls-7" x1="895.68" y1="691.58" x2="811.23" y2="670.64" />
    <path class="cls-8"
        d="M904.4,585.62a157.84,157.84,0,1,0,157.84,157.84A157.83,157.83,0,0,0,904.4,585.62Zm0,275.21a117.37,117.37,0,1,1,117.38-117.37A117.37,117.37,0,0,1,904.4,860.83Z" />
    <circle class="cls-9" cx="904.4" cy="743.46" r="60.78" />
    <path class="cls-10"
        d="M904.4,629.22a114.22,114.22,0,1,1-80.78,33.46,113.53,113.53,0,0,1,80.78-33.46m0-3.13a117.38,117.38,0,1,0,117.38,117.37A117.37,117.37,0,0,0,904.4,626.09Z" />
    <path class="cls-1"
        d="M909.89,751.65h0A11.63,11.63,0,0,1,894,747.47L773.64,541.35l20.09-11.73L914.07,735.75A11.62,11.62,0,0,1,909.89,751.65Z" />
    <rect class="cls-1" x="740.63" y="424.19" width="33.63" height="132.86" rx="1.93"
        transform="translate(-144.05 448.84) rotate(-30.28)" />
    <rect class="cls-1" x="782.43" y="552.95" width="26.46" height="6.11"
        transform="translate(-171.8 477.02) rotate(-30.28)" />
    <rect class="cls-1" x="785.18" y="557.66" width="26.46" height="6.11"
        transform="translate(-173.8 479.05) rotate(-30.28)" />
    <rect class="cls-1" x="787.93" y="562.36" width="26.46" height="6.11"
        transform="translate(-175.8 481.08) rotate(-30.28)" />
    <rect class="cls-1" x="790.67" y="567.07" width="26.46" height="6.11"
        transform="translate(-177.8 483.11) rotate(-30.28)" />
    <rect class="cls-1" x="793.42" y="571.78" width="26.46" height="6.11"
        transform="translate(-179.79 485.14) rotate(-30.28)" />
    <rect class="cls-1" x="796.17" y="576.49" width="26.46" height="6.11"
        transform="translate(-181.79 487.17) rotate(-30.28)" />
    <rect class="cls-1" x="798.92" y="581.2" width="26.46" height="6.11"
        transform="translate(-183.79 489.19) rotate(-30.28)" />
    <rect class="cls-1" x="801.67" y="585.9" width="26.46" height="6.11"
        transform="translate(-185.79 491.22) rotate(-30.28)" />
    <rect class="cls-1" x="804.42" y="590.61" width="26.46" height="6.11"
        transform="translate(-187.79 493.25) rotate(-30.28)" />
    <polygon class="cls-1"
        points="592.48 312.18 604.56 339.22 570.15 356.08 557.64 327.56 592.48 312.18" />
    <path class="cls-14"
        d="M265.69,685.36c-8-15.14-35.53-34.34-35.53-34.34a130.15,130.15,0,0,0-49.9-18.2,120.6,120.6,0,0,0-53.09,4.69c-2,.55-8,2.61-15.06,2s-15.63-1.55-22-5.25-12.21-7.87-12.21-7.87-4.36-5.28.43-8.35,21.14-11.71,27.51-14,29.22-9.61,43.87-10.27,31.68-.49,42.2,1.71,42.61,13.85,42.61,13.85a5.36,5.36,0,0,0-1.94,2,4.86,4.86,0,0,0-.51,2.91,6.23,6.23,0,0,0,1,2.45c.42.46,5.2,3.88,5.2,3.88l35.1,24.58,20.55,13.37,6,8.55Z" />
    <path class="cls-1"
        d="M367.53,606.38l-30,14.71a53.68,53.68,0,0,1-55.15-4.78L276,611.67a38.38,38.38,0,0,0-41.49-2.33h0a4.94,4.94,0,0,0-.4,8.33l52.19,36.54a45.91,45.91,0,0,0,46.55,3.63l76.21-37.33a4.93,4.93,0,0,0,1.12-8.1l-.17-.14A38.36,38.36,0,0,0,367.53,606.38Z" />
</svg>