<svg id="Capa_1" data-name="Capa 1" xmlns="http://www.w3.org/2000/svg"
    xmlns:xlink="http://www.w3.org/1999/xlink" viewBox="0 0 1080 1350">
    <defs>
        <style>
            .cls-1{fill:#1e1e1e;}.cls-2{fill:#9693a6;}.cls-3{fill:#8c8d96;}.cls-14{fill:#c4c2c1;}.cls-5,.cls-7{fill:#353535;}.cls-5{opacity:0.29;}.cls-6{fill:#fcfdff;}.cls-8{fill:#a7adb1;}.cls-9{fill:#383f48;}.cls-10{fill:url(#linear-gradient);}.cls-11{fill:#4a4a56;}.cls-12{fill:#292929;}.cls-13{fill:#fa0302;}.cls-4{fill:#fa8d07;}</style>
        <linearGradient id="linear-gradient" x1="-1995.44" y1="680.62" x2="-1985.33" y2="680.62"
            gradientTransform="matrix(1, 0, 0, -1, 2967.54, 1457.29)" gradientUnits="userSpaceOnUse">
            <stop offset="0" stop-color="#161616" />
            <stop offset="0.3" stop-color="#1a1a1a" />
            <stop offset="0.79" stop-color="#1e1e1e" />
            <stop offset="0.8" stop-color="#1e1e1e" />
        </linearGradient>
    </defs>
    <circle class="cls-1" cx="353.6" cy="868.64" r="52.7" />
    <circle class="cls-2" cx="353.6" cy="868.64" r="34.69" />
    <circle class="cls-3" cx="353.6" cy="868.64" r="31.22" />
    <circle class="cls-1" cx="353.6" cy="868.64" r="15.94" />
    <circle class="cls-2" cx="353.6" cy="868.64" r="14.34" />
    <circle class="cls-1" cx="353.6" cy="845.02" r="3.06" />
    <circle class="cls-1" cx="341.76" cy="848.15" r="3.06" />
    <circle class="cls-1" cx="333.09" cy="856.79" r="3.06" />
    <circle class="cls-1" cx="329.9" cy="868.61" r="3.06" />
    <circle class="cls-1" cx="333.05" cy="880.44" r="3.06" />
    <circle class="cls-1" cx="341.71" cy="889.1" r="3.06" />
    <circle class="cls-1" cx="353.53" cy="892.27" r="3.06" />
    <circle class="cls-1" cx="365.36" cy="889.09" r="3.06" />
    <circle class="cls-1" cx="374.01" cy="880.43" r="3.06" />
    <circle class="cls-1" cx="377.15" cy="868.59" r="3.06" />
    <circle class="cls-1" cx="373.96" cy="856.77" r="3.06" />
    <circle class="cls-1" cx="365.27" cy="848.14" r="3.06" />
    <circle class="cls-1" cx="647.92" cy="869.97" r="52.7" />
    <circle class="cls-2" cx="647.92" cy="869.97" r="34.69" />
    <circle class="cls-3" cx="647.92" cy="869.97" r="31.22" />
    <circle class="cls-1" cx="647.92" cy="869.97" r="15.94" />
    <circle class="cls-2" cx="647.92" cy="869.97" r="14.34" />
    <circle class="cls-1" cx="647.92" cy="846.35" r="3.06" />
    <circle class="cls-1" cx="636.08" cy="849.48" r="3.06" />
    <circle class="cls-1" cx="627.41" cy="858.12" r="3.06" />
    <circle class="cls-1" cx="624.22" cy="869.94" r="3.06" />
    <circle class="cls-1" cx="627.37" cy="881.77" r="3.06" />
    <circle class="cls-1" cx="636.03" cy="890.43" r="3.06" />
    <circle class="cls-1" cx="647.85" cy="893.6" r="3.06" />
    <circle class="cls-1" cx="659.68" cy="890.43" r="3.06" />
    <circle class="cls-1" cx="668.32" cy="881.76" r="3.06" />
    <circle class="cls-1" cx="671.47" cy="869.92" r="3.06" />
    <circle class="cls-1" cx="668.27" cy="858.1" r="3.06" />
    <circle class="cls-1" cx="659.59" cy="849.47" r="3.06" />
    <circle class="cls-1" cx="749.03" cy="869.97" r="52.7" />
    <circle class="cls-2" cx="749.03" cy="869.97" r="34.69" />
    <circle class="cls-3" cx="749.03" cy="869.97" r="31.22" />
    <circle class="cls-1" cx="749.03" cy="869.97" r="15.94" />
    <circle class="cls-2" cx="749.03" cy="869.97" r="14.34" />
    <circle class="cls-1" cx="749.03" cy="846.35" r="3.06" />
    <circle class="cls-1" cx="737.19" cy="849.48" r="3.06" />
    <circle class="cls-1" cx="728.52" cy="858.12" r="3.06" />
    <circle class="cls-1" cx="725.33" cy="869.94" r="3.06" />
    <circle class="cls-1" cx="728.48" cy="881.77" r="3.06" />
    <circle class="cls-1" cx="737.14" cy="890.43" r="3.06" />
    <circle class="cls-1" cx="748.96" cy="893.6" r="3.06" />
    <circle class="cls-1" cx="760.79" cy="890.43" r="3.06" />
    <circle class="cls-1" cx="769.43" cy="881.76" r="3.06" />
    <circle class="cls-1" cx="772.58" cy="869.92" r="3.06" />
    <circle class="cls-1" cx="769.38" cy="858.1" r="3.06" />
    <circle class="cls-1" cx="760.7" cy="849.47" r="3.06" />
    <circle class="cls-1" cx="911.24" cy="878.71" r="52.7" />
    <circle class="cls-2" cx="911.24" cy="878.71" r="34.69" />
    <circle class="cls-3" cx="911.24" cy="878.71" r="31.22" />
    <circle class="cls-1" cx="911.24" cy="878.71" r="15.94" />
    <circle class="cls-2" cx="911.24" cy="878.71" r="14.34" />
    <circle class="cls-1" cx="911.24" cy="855.09" r="3.06" />
    <circle class="cls-1" cx="899.4" cy="858.22" r="3.06" />
    <circle class="cls-1" cx="890.73" cy="866.86" r="3.06" />
    <circle class="cls-1" cx="887.54" cy="878.68" r="3.06" />
    <circle class="cls-1" cx="890.69" cy="890.51" r="3.06" />
    <circle class="cls-1" cx="899.35" cy="899.17" r="3.06" />
    <circle class="cls-1" cx="911.17" cy="902.34" r="3.06" />
    <circle class="cls-1" cx="923" cy="899.16" r="3.06" />
    <circle class="cls-1" cx="931.64" cy="890.5" r="3.06" />
    <circle class="cls-1" cx="934.79" cy="878.66" r="3.06" />
    <circle class="cls-1" cx="931.59" cy="866.84" r="3.06" />
    <circle class="cls-1" cx="922.91" cy="858.21" r="3.06" />
    <circle class="cls-1" cx="201.9" cy="864.43" r="52.7" />
    <circle class="cls-2" cx="201.9" cy="864.43" r="34.69" />
    <circle class="cls-3" cx="201.9" cy="864.43" r="31.22" />
    <circle class="cls-1" cx="201.9" cy="864.43" r="15.94" />
    <circle class="cls-2" cx="201.9" cy="864.43" r="14.34" />
    <circle class="cls-1" cx="201.9" cy="840.8" r="3.06" />
    <circle class="cls-1" cx="190.06" cy="843.94" r="3.06" />
    <circle class="cls-1" cx="181.39" cy="852.57" r="3.06" />
    <circle class="cls-1" cx="178.2" cy="864.4" r="3.06" />
    <circle class="cls-1" cx="181.35" cy="876.23" r="3.06" />
    <circle class="cls-1" cx="190.01" cy="884.89" r="3.06" />
    <circle class="cls-1" cx="201.83" cy="888.06" r="3.06" />
    <circle class="cls-1" cx="213.66" cy="884.88" r="3.06" />
    <circle class="cls-1" cx="222.3" cy="876.21" r="3.06" />
    <circle class="cls-1" cx="225.45" cy="864.38" r="3.06" />
    <circle class="cls-1" cx="222.25" cy="852.56" r="3.06" />
    <circle class="cls-1" cx="213.57" cy="843.93" r="3.06" />
    <polygon class="cls-14"
        points="84.93 550.44 45.21 612.93 45.21 887.92 799.77 887.92 854.65 890.68 894.33 890.68 903.64 906.29 1005.46 906.34 1045.18 843.84 1052 728.39 983.12 604.78 839.49 600.22 840.38 550.44 84.93 550.44" />
    <path class="cls-5"
        d="M804,661.45l135.35,3.63,58.79,83.09,3,122.2-78-1.87L876.59,812c-8.73,0-49.13-1.1-49.13-1.1l-23.43-1Z" />
    <rect class="cls-5" x="289.26" y="370.89" width="274.99" height="754.56"
        transform="translate(1174.92 321.42) rotate(90)" />
    <polygon class="cls-5" points="839.49 600.22 799.77 663.71 888.07 665.6 839.49 600.22" />
    <rect class="cls-6" x="996.93" y="887.21" width="8.53" height="19.13" />
    <polygon class="cls-7"
        points="1005.46 887.21 1046.06 828.81 1045.18 843.84 1005.46 906.34 1005.46 887.21" />
    <path class="cls-8"
        d="M816.65,784.53h34a1.36,1.36,0,0,1,1.36,1.36v10.3a.85.85,0,0,1-.85.85H817.06a.85.85,0,0,1-.85-.85V785A.44.44,0,0,1,816.65,784.53Z" />
    <path class="cls-9"
        d="M849.82,791.12H818.44a2.06,2.06,0,0,1-2.23-1.85v-2.89a2.06,2.06,0,0,1,2.23-1.85h27.33a6.27,6.27,0,0,1,5.51,2.92l.57,1C852.53,789.72,851.45,791.12,849.82,791.12Z" />
    <ellipse class="cls-8" cx="821.7" cy="787.82" rx="2.4" ry="2" />
    <polygon class="cls-1"
        points="812.36 776.74 810.6 682.47 934.77 686.03 980.62 758.13 980.62 784.53 812.36 782.16 812.36 776.74" />
    <rect class="cls-10" x="972.1" y="773.17" width="10.12" height="6.99" rx="0.46" />
    <rect class="cls-11" x="951.51" y="768.8" width="24.88" height="15.73" rx="1.61" />
    <circle class="cls-1" cx="722.42" cy="926.36" r="52.7" />
    <circle class="cls-2" cx="722.42" cy="926.36" r="34.69" />
    <circle class="cls-3" cx="722.42" cy="926.36" r="31.22" />
    <circle class="cls-1" cx="722.42" cy="926.36" r="15.94" />
    <circle class="cls-2" cx="722.42" cy="926.36" r="14.34" />
    <circle class="cls-1" cx="722.42" cy="902.73" r="3.06" />
    <circle class="cls-1" cx="710.58" cy="905.86" r="3.06" />
    <circle class="cls-1" cx="701.9" cy="914.5" r="3.06" />
    <circle class="cls-1" cx="698.72" cy="926.32" r="3.06" />
    <circle class="cls-1" cx="701.87" cy="938.15" r="3.06" />
    <circle class="cls-1" cx="710.52" cy="946.82" r="3.06" />
    <circle class="cls-1" cx="722.35" cy="949.98" r="3.06" />
    <circle class="cls-1" cx="734.18" cy="946.81" r="3.06" />
    <circle class="cls-1" cx="742.82" cy="938.14" r="3.06" />
    <circle class="cls-1" cx="745.97" cy="926.3" r="3.06" />
    <circle class="cls-1" cx="742.77" cy="914.49" r="3.06" />
    <circle class="cls-1" cx="734.09" cy="905.85" r="3.06" />
    <path class="cls-1"
        d="M801.94,925.37a52.71,52.71,0,1,0,105.41,0c0-29.1-23.62-51.59-52.7-52.7S801.94,896.27,801.94,925.37Z" />
    <circle class="cls-2" cx="854.65" cy="925.37" r="34.69" />
    <circle class="cls-3" cx="854.65" cy="925.37" r="31.22" />
    <circle class="cls-1" cx="854.65" cy="925.37" r="15.94" />
    <circle class="cls-2" cx="854.65" cy="925.37" r="14.34" />
    <circle class="cls-1" cx="854.65" cy="901.75" r="3.06" />
    <circle class="cls-1" cx="842.81" cy="904.88" r="3.06" />
    <circle class="cls-1" cx="834.13" cy="913.52" r="3.06" />
    <circle class="cls-1" cx="830.94" cy="925.34" r="3.06" />
    <circle class="cls-1" cx="834.1" cy="937.17" r="3.06" />
    <circle class="cls-1" cx="842.75" cy="945.83" r="3.06" />
    <circle class="cls-1" cx="854.58" cy="949" r="3.06" />
    <circle class="cls-1" cx="866.4" cy="945.82" r="3.06" />
    <circle class="cls-1" cx="875.05" cy="937.16" r="3.06" />
    <circle class="cls-1" cx="878.2" cy="925.32" r="3.06" />
    <circle class="cls-1" cx="875" cy="913.5" r="3.06" />
    <circle class="cls-1" cx="866.32" cy="904.87" r="3.06" />
    <circle class="cls-1" cx="606.51" cy="926.36" r="52.7" />
    <circle class="cls-2" cx="606.51" cy="926.36" r="34.69" />
    <circle class="cls-3" cx="606.51" cy="926.36" r="31.22" />
    <circle class="cls-1" cx="606.51" cy="926.36" r="15.94" />
    <circle class="cls-2" cx="606.51" cy="926.36" r="14.34" />
    <circle class="cls-1" cx="606.51" cy="902.73" r="3.06" />
    <circle class="cls-1" cx="594.68" cy="905.86" r="3.06" />
    <circle class="cls-1" cx="586" cy="914.5" r="3.06" />
    <circle class="cls-1" cx="582.81" cy="926.32" r="3.06" />
    <circle class="cls-1" cx="585.96" cy="938.15" r="3.06" />
    <circle class="cls-1" cx="594.62" cy="946.82" r="3.06" />
    <circle class="cls-1" cx="606.44" cy="949.98" r="3.06" />
    <circle class="cls-1" cx="618.27" cy="946.81" r="3.06" />
    <circle class="cls-1" cx="626.92" cy="938.14" r="3.06" />
    <circle class="cls-1" cx="630.06" cy="926.3" r="3.06" />
    <circle class="cls-1" cx="626.87" cy="914.49" r="3.06" />
    <circle class="cls-1" cx="618.18" cy="905.85" r="3.06" />
    <circle class="cls-1" cx="254.6" cy="925.53" r="52.7" />
    <circle class="cls-2" cx="254.6" cy="925.53" r="34.69" />
    <circle class="cls-3" cx="254.6" cy="925.53" r="31.22" />
    <circle class="cls-1" cx="254.6" cy="925.53" r="15.94" />
    <circle class="cls-2" cx="254.6" cy="925.53" r="14.34" />
    <circle class="cls-1" cx="254.6" cy="901.9" r="3.06" />
    <circle class="cls-1" cx="242.77" cy="905.03" r="3.06" />
    <circle class="cls-1" cx="234.09" cy="913.67" r="3.06" />
    <circle class="cls-1" cx="230.9" cy="925.49" r="3.06" />
    <circle class="cls-1" cx="234.06" cy="937.32" r="3.06" />
    <circle class="cls-1" cx="242.71" cy="945.99" r="3.06" />
    <circle class="cls-1" cx="254.54" cy="949.15" r="3.06" />
    <circle class="cls-1" cx="266.36" cy="945.98" r="3.06" />
    <circle class="cls-1" cx="275.01" cy="937.31" r="3.06" />
    <circle class="cls-1" cx="278.16" cy="925.48" r="3.06" />
    <circle class="cls-1" cx="274.96" cy="913.66" r="3.06" />
    <circle class="cls-1" cx="266.27" cy="905.02" r="3.06" />
    <circle class="cls-1" cx="128.14" cy="925.58" r="52.7" />
    <circle class="cls-2" cx="128.14" cy="925.58" r="34.69" />
    <circle class="cls-3" cx="128.14" cy="925.58" r="31.22" />
    <circle class="cls-1" cx="128.14" cy="925.58" r="15.94" />
    <circle class="cls-2" cx="128.14" cy="925.58" r="14.34" />
    <circle class="cls-1" cx="128.14" cy="901.95" r="3.06" />
    <circle class="cls-1" cx="116.31" cy="905.08" r="3.06" />
    <circle class="cls-1" cx="107.63" cy="913.72" r="3.06" />
    <circle class="cls-1" cx="104.44" cy="925.54" r="3.06" />
    <circle class="cls-1" cx="107.6" cy="937.37" r="3.06" />
    <circle class="cls-1" cx="116.25" cy="946.04" r="3.06" />
    <circle class="cls-1" cx="128.08" cy="949.2" r="3.06" />
    <circle class="cls-1" cx="139.9" cy="946.03" r="3.06" />
    <circle class="cls-1" cx="148.55" cy="937.36" r="3.06" />
    <circle class="cls-1" cx="151.7" cy="925.53" r="3.06" />
    <circle class="cls-1" cx="148.5" cy="913.71" r="3.06" />
    <circle class="cls-1" cx="139.81" cy="905.07" r="3.06" />
    <polyline class="cls-12"
        points="47.17 888.9 47.17 868.64 185.59 870.55 288.42 872.87 397.18 873.63 536.45 873.63 654.65 873.7 751.78 873.7 799.77 874.83 799.77 888.9 303.78 888.48" />
    <path class="cls-13"
        d="M52.71,866.93h0c-3,0-5.54-.16-5.54-2V843.62c0-3,2.5-1.88,5.54-1.88h0a5.55,5.55,0,0,1,5.54,5.52v14.15A5.55,5.55,0,0,1,52.71,866.93Z" />
    <path class="cls-12"
        d="M799.77,888.9V812.18L872,813.87l34.83,34.22c3,10.83,34.86,58.2,34.86,58.2H903.64s-10.06-17.44-16.71-21.83a98.68,98.68,0,0,0-14.86-7.87,30.17,30.17,0,0,0-9.84-3c-4.83-.45-12.13-1.35-17.9,0-23.15,5.45-27,15.25-27,15.25Z" />
    <polygon class="cls-1"
        points="972.1 642.89 993.91 628.02 1048.06 727.9 1000.8 751.07 941.34 663.71 972.1 642.89" />
    <polygon class="cls-11"
        points="1048.7 735.79 1001.19 763.05 1001.19 873.09 1043.85 818.58 1048.7 735.79" />
    <rect class="cls-4" x="988.53" y="887.21" width="8.53" height="19.13" rx="1.08" />
    <polygon class="cls-6"
        points="1042.57 847.95 1042.57 833.84 1046.06 828.81 1045.18 843.84 1042.57 847.95" />
</svg>