<svg id="Capa_1" data-name="Capa 1" xmlns="http://www.w3.org/2000/svg" viewBox="0 0 63.95 50.38"><defs><style>.cls-1{fill:#332e2e;}.cls-2{fill:#443e3b;}.cls-3{fill:#d3d2d1;}.cls-4{fill:#b3b3b2;}.cls-5{fill:#e5e4e4;}.cls-6{fill:#524c50;}.cls-7{fill:#cbcaca;}.cls-12,.cls-8{fill:#4b464a;}.cls-13,.cls-9{fill:#342f31;}.cls-9{opacity:0.7;}.cls-10{fill:#f2f8fd;}.cls-11{fill:#a14d2a;}.cls-12{opacity:0.5;}.cls-14{fill:#fff;}</style></defs><polygon class="cls-1" points="31.1 37.84 32.45 39.79 30.65 42.94 24.5 39.41 31.1 37.84"/><polygon class="cls-1" points="59.3 21.64 60.57 23.59 58.85 26.74 52.62 23.14 59.3 21.64"/><path class="cls-1" d="M75.24,114.22a2.45,2.45,0,0,1,2.55-.22L80,115.27l-5.1,8.78-2.25-1.28a2.65,2.65,0,0,1-1-2.32,8.16,8.16,0,0,1,3.6-6.23" transform="translate(-50.89 -73.91)"/><path class="cls-2" d="M74,121.72c0,2.25,1.58,3.23,3.6,2.1a8,8,0,0,0,3.6-6.22c0-2.33-1.57-3.23-3.6-2.1a7.77,7.77,0,0,0-3.6,6.22" transform="translate(-50.89 -73.91)"/><path class="cls-3" d="M77.49,122.62A5.31,5.31,0,0,0,80,118.35c0-1.58-1-2.25-2.4-1.5a5.31,5.31,0,0,0-2.47,4.27c0,1.58,1,2.25,2.4,1.5" transform="translate(-50.89 -73.91)"/><path class="cls-1" d="M103.44,98a2.48,2.48,0,0,1,2.55-.23L108.24,99l-5.1,8.77-2.25-1.27a2.67,2.67,0,0,1-1-2.33,7.74,7.74,0,0,1,3.6-6.22" transform="translate(-50.89 -73.91)"/><path class="cls-2" d="M102.09,105.45c0,2.25,1.57,3.22,3.6,2.1a8,8,0,0,0,3.6-6.23c0-2.25-1.58-3.22-3.6-2.1a8,8,0,0,0-3.6,6.23" transform="translate(-50.89 -73.91)"/><path class="cls-3" d="M105.69,106.35a5.33,5.33,0,0,0,2.47-4.28c0-1.57-1-2.25-2.4-1.5a5.33,5.33,0,0,0-2.47,4.28c-.08,1.57,1,2.25,2.4,1.5" transform="translate(-50.89 -73.91)"/><path class="cls-4" d="M62.79,96.3l5.77-6.15a6.92,6.92,0,0,1,1.8-1.5L95.71,74c.3-.15,3.08,4.73,3.08,4.73l11.4,3.15,3.07,6.75a5.12,5.12,0,0,1,.38,1.87v4.35c.15.15.37.3.37.53v1.2a1.83,1.83,0,0,1-.67,1.42l-2.62,2-1,.6v-.3c0-2.32-1.88-3.08-4.2-1.72s-4.2,4.27-4.2,6.6v.29L81.54,117v-.3c0-2.33-1.88-3.08-4.2-1.72s-4.2,4.27-4.2,6.59v.3l-1.35.83a11,11,0,0,1-8.4-.23,50.7,50.7,0,0,1-9.83-5.77,6.43,6.43,0,0,1-2.62-5.18v-.22c0-.3.07-.53.07-.9,0-1.5-.07-2.48-.07-2.93v-1.65c.07-3,11.85-9.52,11.85-9.52" transform="translate(-50.89 -73.91)"/><path class="cls-4" d="M65,122.77a10.41,10.41,0,0,0,6.82-.3l1.35-.82v-.3a7.89,7.89,0,0,1,1.65-4.28Zm14.85-8.55c1,.15,1.65,1,1.65,2.4v.3l19.8-11.47v-.3a7.82,7.82,0,0,1,1.65-4.28Zm33.75-19.5v.08c.15.15.37.3.37.52v1.2a1.85,1.85,0,0,1-.67,1.43l-2.62,2-1,.6v-.3a2.23,2.23,0,0,0-1.65-2.4Z" transform="translate(-50.89 -73.91)"/><path class="cls-5" d="M70.36,88.65,95.71,74a1.28,1.28,0,0,1,1.05,0s10.35,5.63,13.35,7.65a.22.22,0,0,1,0,.38c-2.32,1.27-18,9.9-19.57,10.72s-5.85,3.45-7.13,4.13a.64.64,0,0,1-.52.07c-2.48-.75-13.65-7.5-13.28-7.8a7,7,0,0,1,.75-.52" transform="translate(-50.89 -73.91)"/><path class="cls-6" d="M78,104.85a1.17,1.17,0,0,0,.83-.3,2.15,2.15,0,0,0,.67-.75c.6-1,2.1-4.43,2.78-5.85a.28.28,0,0,0-.15-.38,85,85,0,0,1-13-7.5.24.24,0,0,0-.3,0l-5.1,5.4a.46.46,0,0,0,0,.6,46.8,46.8,0,0,0,13.87,8.7c.08,0,.3.08.45.08" transform="translate(-50.89 -73.91)"/><path class="cls-6" d="M81.24,104.92a68.11,68.11,0,0,1,3.45-7.57,2.1,2.1,0,0,1,.75-.68l3.22-1.87a.35.35,0,0,1,.53.22,56.57,56.57,0,0,1,1.42,5.63c0,.07-.15.22-.22.3l-8.63,5c-.82.38-1.27.45-.52-1" transform="translate(-50.89 -73.91)"/><path class="cls-7" d="M62.49,96.45C63.61,97.87,70.06,104,79.74,107c0,0-9.23,7.28-12.45,7.73-2.48.3-4.8-1-8.48-3.08-7-3.82-7.65-5.25-7.65-6-.15-2.47,9.08-8,11.33-9.22" transform="translate(-50.89 -73.91)"/><path class="cls-8" d="M51.16,110.25s.08.22.23.22.82-2.17,1.12-2a89.8,89.8,0,0,0,9.23,5.47,3.36,3.36,0,0,1,1.5,1.73l.6,1.8c.68,2.7,5,2.4,7.73,1.5a.88.88,0,0,1,1.2.82v1.88a.77.77,0,0,1-.38.67l-.45.23a11,11,0,0,1-8.4-.23,50.32,50.32,0,0,1-9.82-5.77,6.73,6.73,0,0,1-2.78-4.35c0-.3-.15-2.4.23-2.7Z" transform="translate(-50.89 -73.91)"/><path class="cls-9" d="M51.69,110.92c.15-.52.67-2.25,1-2.1a104,104,0,0,0,9,5.48A2.86,2.86,0,0,1,62.94,116a15.05,15.05,0,0,0,.75,2.55c-3.45-1-11.18-5.55-12-7.58" transform="translate(-50.89 -73.91)"/><path class="cls-10" d="M69.91,115.42c.75-.15,1.5,1.13.45,2.18s-4.5.67-5.69-.08c-.23-.15-1-2.55-.68-2.47a14,14,0,0,0,5.92.37" transform="translate(-50.89 -73.91)"/><path class="cls-11" d="M69.91,115.42c.83-.15,1.58,1.13.45,2.18a1.34,1.34,0,0,1-.67.37,5.08,5.08,0,0,0,.22-2.55" transform="translate(-50.89 -73.91)"/><path class="cls-10" d="M51.31,109.27c-.07,0-.15-.15-.15-.22a11.18,11.18,0,0,1-.15-2.63c.15.75.9,1.2,1,1.43s-.53,1.5-.68,1.42" transform="translate(-50.89 -73.91)"/><path class="cls-12" d="M50.94,110.47c.07.15.15.23.22.38a4,4,0,0,0,.75.9c.3.3.68.67,1.13,1a39.94,39.94,0,0,0,7.12,4.42c.68.38,1.35.68,2,1s1.35.6,2,.83,1.35.37,2,.52a8.52,8.52,0,0,0,1.8.23,10,10,0,0,0,1.58-.08c.45-.07.82-.15,1.2-.22a2.66,2.66,0,0,0,1-.38c.08-.07.15,0,.23.08s0,.15-.08.22a5.78,5.78,0,0,1-1,.45,11,11,0,0,1-1.2.3,5.45,5.45,0,0,1-1.58.08,18.27,18.27,0,0,1-1.87-.15,10.14,10.14,0,0,1-2-.53c-.67-.22-1.42-.52-2.1-.82s-1.35-.68-2.1-1c-1.35-.75-2.7-1.5-4-2.25a30.1,30.1,0,0,1-3.23-2.33,7.88,7.88,0,0,1-1.12-1.12,6.07,6.07,0,0,1-.68-1,.57.57,0,0,1-.07-.6" transform="translate(-50.89 -73.91)"/><path class="cls-8" d="M113.64,95.17v-1.5l.75.75a1.54,1.54,0,0,1,.45,1.13v1a1.76,1.76,0,0,1-.67,1.42l-1.8,1.43a1.56,1.56,0,0,1-.61.37l-1,.6-.45-.22V97.05Z" transform="translate(-50.89 -73.91)"/><path class="cls-13" d="M89,104.17l1.27-.75a.4.4,0,0,0,.23-.37v-.3c0-.15-.08-.15-.23-.08l-1.27.75a.43.43,0,0,0-.23.38v.3c0,.15.08.15.23.07" transform="translate(-50.89 -73.91)"/><path class="cls-13" d="M100.51,97.57l1.28-.75a.4.4,0,0,0,.22-.37v-.3c0-.15-.07-.15-.22-.08l-1.28.75a.42.42,0,0,0-.22.38v.3c0,.07.07.15.22.07" transform="translate(-50.89 -73.91)"/><path class="cls-6" d="M109.06,90.45l-6.45,3.6-2.47-5.48c2.25-1.27,3.82-2.1,5.1-2.7a1.14,1.14,0,0,1,1.57.53Z" transform="translate(-50.89 -73.91)"/><path class="cls-6" d="M91,93.67c.6-.37,6-3.37,8.4-4.72l2.47,5.4-9.22,5.4a32.14,32.14,0,0,0-.9-3.15c-.38-1.2-.68-2-.9-2.63-.08-.07,0-.22.15-.3" transform="translate(-50.89 -73.91)"/><polygon class="cls-14" points="3.57 41.36 7.47 43.84 7.47 45.04 3.57 42.64 3.57 41.36"/></svg>