<svg id="Capa_1" data-name="Capa 1" xmlns="http://www.w3.org/2000/svg" viewBox="0 0 141.9 110.4"><defs><style>.cls-1{fill:#cbcaca;}.cls-2{fill:#b3b3b2;}.cls-3{fill:#4a4545;}.cls-4{fill:#332e2e;}.cls-5{fill:#443e3b;}.cls-6{fill:#a4a5a4;}.cls-7{fill:#a52822;}.cls-8{fill:#e5e4e4;}.cls-9{fill:#524c50;}.cls-10{fill:#d6d5d4;}.cls-11{fill:#fcfbee;}.cls-12{fill:#cb5252;}.cls-13{fill:none;stroke:#b3b3b2;stroke-miterlimit:22.93;stroke-width:0.22px;}</style></defs><path class="cls-1" d="M11.24,94.43a.22.22,0,0,1,.3,0l1.27.75a1,1,0,0,1,.45.75v4.72a.37.37,0,0,1-.15.3l-.37.23-1.88-6.53Z" transform="translate(-10.79 -23.7)"/><path class="cls-2" d="M10.79,94.88c0-.3.22-.38.45-.23l1.27.75a1,1,0,0,1,.45.75v4.73c0,.3-.22.37-.45.22l-1.27-.75a1,1,0,0,1-.45-.75Z" transform="translate(-10.79 -23.7)"/><path class="cls-3" d="M12.29,95.18a.17.17,0,0,0,.15-.15V92l4-2.33a4.49,4.49,0,0,1,4.13,0l2.7,1.58c.07.07.15,0,.22-.08s0-.15-.07-.22l-2.7-1.58a5.13,5.13,0,0,0-4.43,0l-4.05,2.33c-.07,0-.07.07-.07.15V95c0,.15.07.23.15.23" transform="translate(-10.79 -23.7)"/><path class="cls-3" d="M11.76,94.88a.16.16,0,0,0,.15-.15V92.55l.45-.45a.16.16,0,0,0-.22-.22l-.45.45-.08.07v2.25c0,.15.08.23.15.23" transform="translate(-10.79 -23.7)"/><polygon class="cls-4" points="61.95 81.3 68.33 83.25 67.8 88.65 65.92 92.47 54.08 85.65 61.95 81.3"/><polygon class="cls-4" points="118.65 48.67 124.95 50.55 124.42 55.95 122.55 59.77 110.7 52.95 118.65 48.67"/><path class="cls-4" d="M67,110a3.85,3.85,0,0,1,3.75-.38l3.3,1.88-7.43,12.75-3.3-1.88a3.72,3.72,0,0,1-1.5-3.37c-.07-3.23,2.33-7.28,5.18-9" transform="translate(-10.79 -23.7)"/><path class="cls-5" d="M74,111.54c-2-1.18-5.36.74-7.41,4.29s-2.06,7.39,0,8.57,5.36-.74,7.41-4.29,2.06-7.39,0-8.57" transform="translate(-10.79 -23.7)"/><path class="cls-6" d="M70.34,122.48A8.12,8.12,0,0,0,74.16,116c0-2.4-1.65-3.45-3.67-2.32a8.11,8.11,0,0,0-3.83,6.52c-.07,2.48,1.58,3.45,3.68,2.33" transform="translate(-10.79 -23.7)"/><path class="cls-4" d="M123.89,77.25a3.84,3.84,0,0,1,3.75-.37l3.3,1.87L123.51,91.5l-3.3-1.87a3.75,3.75,0,0,1-1.5-3.38,11.14,11.14,0,0,1,5.18-9" transform="translate(-10.79 -23.7)"/><path class="cls-5" d="M130.85,78.79c-2-1.18-5.36.74-7.41,4.29s-2.06,7.39,0,8.57,5.36-.74,7.41-4.3,2.06-7.38,0-8.56" transform="translate(-10.79 -23.7)"/><path class="cls-6" d="M129.81,80.69c-1.47-.85-3.85.54-5.31,3.09s-1.46,5.3,0,6.14,3.85-.53,5.31-3.08,1.46-5.31,0-6.15" transform="translate(-10.79 -23.7)"/><path class="cls-2" d="M22.56,93.75,29.91,98l-6.67,3.82a.47.47,0,0,1-.68-.37Zm-3,25.2,26.1,15.15V127a1.51,1.51,0,0,0,.53-.15l2-1.13a.57.57,0,0,0,.3-.52V105.6l-.08-.07-2.25,1.35a.86.86,0,0,1-.37.07v-5.4L19.56,86.48V91.8a.43.43,0,0,0,.23.38l.22.15-.07,19.5-.15.07a.47.47,0,0,0-.23.45Z" transform="translate(-10.79 -23.7)"/><path class="cls-7" d="M20,111.83l.08-19.5,2.55,1.5v7.72a.42.42,0,0,0,.67.38L30,98.1,45.36,107a.9.9,0,0,0,.45.08.55.55,0,0,0,.38-.08l2.25-1.35a.07.07,0,0,1,.07.08v19.57a.64.64,0,0,1-.3.53l-2,1.12A.26.26,0,0,1,46,127h-.3a1.51,1.51,0,0,1-.53-.15L20.09,112.35c-.08,0-.08-.07-.08-.15Z" transform="translate(-10.79 -23.7)"/><polygon class="cls-8" points="141.9 15.15 115.8 0 9.68 61.27 35.85 76.42 141.9 15.15"/><path class="cls-8" d="M19.71,85.8a1.43,1.43,0,0,1,.38-.52,1.22,1.22,0,0,1,.37-.3l26.1,15.15a1.3,1.3,0,0,0-.37.3c-.15.15-.23.37-.38.52a2.38,2.38,0,0,0-.15.68L19.56,86.48a2.38,2.38,0,0,1,.15-.68" transform="translate(-10.79 -23.7)"/><path class="cls-2" d="M138.51,53.55l.45-.3c.23-.15.45,0,.45.3v.53Zm1.88-.67a.82.82,0,0,1,.45-.75l9.07-5.25c.23-.15.45,13.42.45,13.42l-9.9-5.7V52.88ZM45.66,127v7.12l18.75-10.87v-2.1a13.34,13.34,0,0,1,6.15-10.58c3.38-2,6.15-.37,6.15,3.53v2.1L121,90.6V88.5a13.32,13.32,0,0,1,6.15-10.57c3.37-2,6.15-.38,6.15,3.52v2.1l12.15-7,6.45-5.7a1.88,1.88,0,0,0,.67-1.5V38.93L46.49,100.2a2.14,2.14,0,0,0-.9,1.5v5.4c.15,0,.3,0,.37-.07l2.25-1.35s.08,0,.08.07v19.58a.62.62,0,0,1-.3.52L46,127Z" transform="translate(-10.79 -23.7)"/><polygon class="cls-2" points="93.45 33.15 134.7 9.3 134.7 11.1 93.45 34.88 93.45 33.15"/><polygon class="cls-2" points="80.55 27.45 93.45 34.88 93.45 33.15 80.55 25.73 80.55 27.45"/><polygon class="cls-8" points="93.45 33.15 134.7 9.3 121.8 1.88 80.55 25.73 93.45 33.15"/><path class="cls-2" d="M138.51,53.55l.45-.3c.23-.15.45,0,.45.3v.53ZM51,101.85v17.48L151.71,61.2V43.65Z" transform="translate(-10.79 -23.7)"/><polygon class="cls-2" points="38.7 108.22 52.42 100.28 52.42 71.1 38.7 78.97 38.7 108.22"/><polygon class="cls-2" points="83.85 82.2 97.5 74.25 97.5 45 83.85 52.95 83.85 82.2"/><path class="cls-9" d="M46.11,106.88l2.25-1.35s.08,0,.08.07v19.58a.62.62,0,0,1-.3.52l-2,1.13a1.28,1.28,0,0,1-1,0L20,112.35c-.07,0-.07-.07-.07-.15L20,92.33,45.29,107a1,1,0,0,0,.82-.07" transform="translate(-10.79 -23.7)"/><path class="cls-9" d="M109.41,84.45l13.8-8a.75.75,0,0,0,.38-.6V62.78a.33.33,0,0,0-.45-.3l-14,8.1a1,1,0,0,0-.45.75V84.15c0,.23.37.45.67.3m15.83-9.22,13.8-8a.78.78,0,0,0,.37-.6V53.55a.33.33,0,0,0-.45-.3l-14,8.1a1,1,0,0,0-.45.75V74.93A.42.42,0,0,0,125.24,75.23Zm-61,35.25,13.8-8a.77.77,0,0,0,.38-.6V88.8a.34.34,0,0,0-.45-.3L64,96.6a1,1,0,0,0-.45.75v12.83C63.59,110.4,64,110.63,64.26,110.48ZM50.54,125.55,56,122.4V101.25l-5.47,3.15Zm6.3-24.82,5.47-3.15v21.15l-5.47,3.15Zm38.77-1.2,5.48-3.15V75.23l-5.48,3.15Zm6.3-24.75,5.48-3.15V92.78l-5.48,3.15Z" transform="translate(-10.79 -23.7)"/><path class="cls-10" d="M45.44,114.15a.24.24,0,0,1,.3,0l1.27.75a1,1,0,0,1,.45.75v4.73a.38.38,0,0,1-.15.3l-.37.22-1.88-6.52Z" transform="translate(-10.79 -23.7)"/><path class="cls-2" d="M44.91,114.6c0-.3.23-.37.45-.22l1.28.75a1,1,0,0,1,.45.75v4.72c0,.3-.23.38-.45.23l-1.28-.75a1,1,0,0,1-.45-.75Z" transform="translate(-10.79 -23.7)"/><path class="cls-3" d="M46,114.6a.15.15,0,0,0,.15-.15v-2.92l4-2.33a1.68,1.68,0,0,0,1-1.35,1.71,1.71,0,0,0-1-1.35l-2.7-1.57c-.08-.08-.15,0-.23.07s0,.15.08.23l2.7,1.57a1.36,1.36,0,0,1,.82,1.13,1.46,1.46,0,0,1-.82,1.12l-4,2.33c-.08,0-.08.07-.08.15v3a.29.29,0,0,0,.15.07" transform="translate(-10.79 -23.7)"/><path class="cls-3" d="M46.41,114.9a.15.15,0,0,0,.15-.15v-2.47l-.52-.9a.27.27,0,0,0-.23-.08.3.3,0,0,0-.07.23l.52.9v2.4c.08,0,.08.07.15.07" transform="translate(-10.79 -23.7)"/><polygon class="cls-11" points="28.73 102.9 33.52 105.67 33.52 104.1 28.73 101.33 28.73 102.9"/><polygon class="cls-12" points="33.38 105.6 34.88 106.42 34.88 104.85 33.38 104.03 33.38 105.6"/><polygon class="cls-12" points="35.55 106.13 34.88 106.42 34.88 104.85 35.55 104.55 35.55 106.13"/><polygon class="cls-11" points="15 94.95 10.13 92.17 10.13 90.6 15 93.38 15 94.95"/><polygon class="cls-12" points="10.28 92.25 8.78 91.35 8.78 89.78 10.28 90.67 10.28 92.25"/><path class="cls-7" d="M26.91,121.05l11.48,6.6v-.3l-11.48-6.6Zm0-.6,11.48,6.6v-.3l-11.48-6.6Zm0-.6,11.48,6.6v-.3l-11.48-6.6Zm0-.6,11.48,6.6v-.3L26.91,119Zm0-.6,11.48,6.6V125l-11.48-6.6Zm0-.9,11.48,6.6v.3l-11.48-6.6Z" transform="translate(-10.79 -23.7)"/><polygon class="cls-1" points="10.72 69.45 32.85 82.2 32.85 77.78 10.72 65.03 10.72 69.45"/><path class="cls-12" d="M22.56,92.18l2.18,1.27V92.18L22.56,90.9Zm7.05,4.12,3,1.73V96.75l-3-1.72Zm4.28,2.48,4.5,2.55v-1.28l-4.5-2.55Zm5.77,2,2.85,1.65v1.28l-2.85-1.65Z" transform="translate(-10.79 -23.7)"/><path class="cls-2" d="M149.31,68.85l1-.6a.61.61,0,0,0,.3-.45v-.15c0-.15-.15-.22-.3-.07l-1,.6a.61.61,0,0,0-.3.45v.15c0,.07.15.15.3.07M77.39,110.1V110c0-.15.15-.3.3-.45l1-.6c.15-.07.3,0,.3.08v.15c0,.15-.15.3-.3.45l-1,.6C77.54,110.33,77.39,110.25,77.39,110.1Z" transform="translate(-10.79 -23.7)"/><path class="cls-2" d="M123.06,62.4c.23-.15.45,0,.45.3v2.55L108.74,73.8V71.18a.82.82,0,0,1,.45-.75Z" transform="translate(-10.79 -23.7)"/><path class="cls-13" d="M123.06,62.4c.23-.15.45,0,.45.3v2.55L108.74,73.8V71.18a.82.82,0,0,1,.45-.75Z" transform="translate(-10.79 -23.7)"/><path class="cls-12" d="M109.11,72.53l1.5-.9v-.9l-1.5.9Zm5-2.93,2.1-1.2v-.9l-2.1,1.2Zm3-1.72,3.15-1.8v-.9L117.06,67Zm4-3.23,2-1.2v.9l-2,1.2Z" transform="translate(-10.79 -23.7)"/></svg>