<svg id="Capa_1" data-name="Capa 1" xmlns="http://www.w3.org/2000/svg" xmlns:xlink="http://www.w3.org/1999/xlink" viewBox="0 0 73.5 53.09"><defs><style>.cls-1{fill:none;}.cls-2{fill:#1e1b1a;}.cls-3{fill:#edecec;}.cls-4{fill:#464245;}.cls-5{fill:#534f52;}.cls-6{fill:#2e2a2c;}.cls-7{fill:#c31b27;}.cls-8{fill:#393538;}.cls-9{fill:#524c51;}.cls-10{fill:#c6c6c8;}.cls-11{fill:#585857;}.cls-12{fill:#524c50;}.cls-13{fill:#737273;}.cls-14{fill:#3e3e3d;}.cls-15{fill:#b3b3b2;}.cls-16{fill:#802523;}.cls-17{fill:#e5e4e4;}.cls-18{clip-path:url(#clip-path);}.cls-19{fill:url(#Degradado_sin_nombre_259);}.cls-20{clip-path:url(#clip-path-2);}.cls-21{fill:url(#Degradado_sin_nombre_259-2);}.cls-22{clip-path:url(#clip-path-3);}.cls-23{fill:url(#Degradado_sin_nombre_260);}.cls-24{fill:#cbcaca;}.cls-25{fill:#30281f;}.cls-26{fill:#858586;}.cls-27{fill:#faefdd;}.cls-28{fill:#342f31;}</style><clipPath id="clip-path" transform="translate(-55.81 -56.48)"><path class="cls-1" d="M75.76,109.28C70.06,106,62,101,56.26,97.66c-.38-.23-.45-1-.45-1.8,0-1.35.15-2.55,1.35-3.23l19.2,12c-1.2.68-1,1.5-1,2.85,0,.83.07,1.58.45,1.8"/></clipPath><linearGradient id="Degradado_sin_nombre_259" x1="11.7" y1="42.58" x2="9.45" y2="45.58" gradientUnits="userSpaceOnUse"><stop offset="0" stop-color="#d6d4d4"/><stop offset="0.07" stop-color="#bebdbc"/><stop offset="0.83" stop-color="#a1a4a5"/><stop offset="1" stop-color="#6d6c6d"/></linearGradient><clipPath id="clip-path-2" transform="translate(-55.81 -56.48)"><path class="cls-1" d="M77.33,104a8.87,8.87,0,0,0-.07,2.4,6.4,6.4,0,0,0,.37,2.18l-.9.52a1.74,1.74,0,0,1-.67.23c-.6,0-.75-.83-.75-1.88,0-1.35-.15-2.17,1-2.85l.15-.07Z"/></clipPath><linearGradient id="Degradado_sin_nombre_259-2" x1="19" y1="50.21" x2="23.95" y2="50.21" xlink:href="#Degradado_sin_nombre_259"/><clipPath id="clip-path-3" transform="translate(-55.81 -56.48)"><path class="cls-1" d="M77.93,99.83c1.2-.67,1.65-.6,1.43.75s-1,2.1-2.7,3.3a39.31,39.31,0,0,1,1.12-4,.24.24,0,0,1,.15-.08"/></clipPath><linearGradient id="Degradado_sin_nombre_260" x1="21.09" y1="44.63" x2="23.21" y2="45.34" gradientUnits="userSpaceOnUse"><stop offset="0" stop-color="#faefdd"/><stop offset="0.08" stop-color="#e2d7c3"/><stop offset="0.18" stop-color="#cec3ae"/><stop offset="0.29" stop-color="#bfb29c"/><stop offset="0.43" stop-color="#b3a88f"/><stop offset="0.61" stop-color="#aca087"/><stop offset="1" stop-color="#aa9f86"/></linearGradient></defs><path class="cls-2" d="M104.41,73.51a2,2,0,0,0-.68-1.58l17.18,10a1.65,1.65,0,0,1,.67,1.57,5.22,5.22,0,0,1-2.4,4.2L102,77.71a5.24,5.24,0,0,0,2.4-4.2" transform="translate(-55.81 -56.48)"/><path class="cls-2" d="M100.28,77.93a1.8,1.8,0,0,0,1.73-.15l17.17,10a1.64,1.64,0,0,1-1.72.15c-5.18-3-12.08-7-17.18-10" transform="translate(-55.81 -56.48)"/><path class="cls-3" d="M103.73,71.93c5.7,3.3,11.48,6.68,17.18,10a1.8,1.8,0,0,0-1.73.15L102,72.08a1.83,1.83,0,0,1,1.72-.15" transform="translate(-55.81 -56.48)"/><path class="cls-3" d="M117.46,87.91c-4.88-2.85-9.75-5.7-14.63-8.48-.82-.52-1.72-1-2.55-1.5-.45-.22-.67-.82-.75-1.57a5.22,5.22,0,0,1,2.4-4.2l17.18,10a5.34,5.34,0,0,0-2.4,4.2,1.8,1.8,0,0,0,.75,1.58" transform="translate(-55.81 -56.48)"/><path class="cls-4" d="M116.18,90.08,99,80.11a3.06,3.06,0,0,1-1.28-2.7A9.27,9.27,0,0,1,102,70.06l17.17,10a9.48,9.48,0,0,0-4.27,7.35c0,1.35.45,2.33,1.27,2.7" transform="translate(-55.81 -56.48)"/><path class="cls-5" d="M113.71,88.06l-17.18-10v-.15l17.18,10v.15" transform="translate(-55.81 -56.48)"/><path class="cls-6" d="M128,74.78c.15-.07.22-.15.3-.15.9-.3,1.05.6,1.05,1.8a3.72,3.72,0,0,1-1.05,3.08c-.08.07-.23.15-.3.22l-.9.53a9.39,9.39,0,0,0,.3-2.4,6.11,6.11,0,0,0-.45-2.48Z" transform="translate(-55.81 -56.48)"/><path class="cls-7" d="M128.26,70v3.38c-1,.6-1.8.3-1.8-.6a3.74,3.74,0,0,1,1.8-2.78" transform="translate(-55.81 -56.48)"/><path class="cls-8" d="M119.18,78.61c3-1.73,5.4-.38,5.48,3v.15l-1.2.67c0-2.7-1.95-3.82-4.28-2.4a9.48,9.48,0,0,0-4.27,7.35l-1.2.68v-.15a12,12,0,0,1,5.47-9.3" transform="translate(-55.81 -56.48)"/><path class="cls-9" d="M119.18,87.76a5.14,5.14,0,0,0,2.4-4.2c0-1.58-1.12-2.18-2.47-1.43a5.34,5.34,0,0,0-2.4,4.2C116.78,87.91,117.83,88.51,119.18,87.76Zm0-7.73c2.33-1.35,4.28-.3,4.28,2.4a9.27,9.27,0,0,1-4.28,7.35c-2.32,1.35-4.27.23-4.27-2.47A9.25,9.25,0,0,1,119.18,80Z" transform="translate(-55.81 -56.48)"/><path class="cls-10" d="M119.18,82.13c1.35-.75,2.48-.15,2.48,1.43a5.24,5.24,0,0,1-2.4,4.2c-1.35.75-2.48.15-2.48-1.43a5.06,5.06,0,0,1,2.4-4.2" transform="translate(-55.81 -56.48)"/><polygon class="cls-2" points="32.1 11.63 34.8 24.9 40.73 21.45 34.8 24.9 32.1 11.63"/><polygon class="cls-11" points="51.3 23.63 32.1 11.63 52.27 0 72.45 11.4 51.3 23.63"/><polygon class="cls-12" points="52.27 0.6 52.65 11.4 46.58 14.7 37.42 9.3 52.27 0.6"/><path class="cls-6" d="M86.26,60.38l19.95,10.73a.84.84,0,0,0-.83.07L85.43,60.46a1.12,1.12,0,0,1,.83-.08" transform="translate(-55.81 -56.48)"/><path class="cls-10" d="M86,101.26c1.35-.75,2.47-.15,2.47,1.42a5.22,5.22,0,0,1-2.4,4.2c-1.35.75-2.47.15-2.47-1.42a5.45,5.45,0,0,1,2.4-4.2" transform="translate(-55.81 -56.48)"/><polygon class="cls-13" points="40.73 21.98 21 11.03 29.18 6.15 48.6 17.4 40.73 21.98"/><path class="cls-4" d="M83.26,108.91l-17.18-10c-1-.07-1.57-1.05-1.57-2.32a9.26,9.26,0,0,1,4.27-7.35L86,99.23a9.46,9.46,0,0,0-4.28,7.35c.08,1.28.53,2.25,1.58,2.33" transform="translate(-55.81 -56.48)"/><polygon class="cls-14" points="34.2 32.85 14.55 21.07 18.82 11.4 38.55 22.35 34.2 32.85"/><path class="cls-6" d="M70.43,77.56l.08-.08c5.7,3.3,13.87,8.4,19.65,11.78l-.08.07c-5.77-3.3-14-8.4-19.65-11.77" transform="translate(-55.81 -56.48)"/><path class="cls-6" d="M70.28,77.71c.08,0,.08-.08.15-.08,5.7,3.3,13.88,8.4,19.65,11.78-.07,0-.07.07-.15.07-5.17-3.07-14.47-8.85-19.65-11.77" transform="translate(-55.81 -56.48)"/><path class="cls-6" d="M58.06,97a5.87,5.87,0,0,1-.3-1.72c7.05,3.9,12,7,19.5,11.17a4.86,4.86,0,0,0,.3,1.88C67.88,102.91,58.06,97,58.06,97" transform="translate(-55.81 -56.48)"/><polygon class="cls-11" points="52.65 11.4 63.38 18.07 70.65 18.68 71.85 12.07 52.27 0.6 52.65 11.4"/><path class="cls-6" d="M61.66,87.53a.53.53,0,0,0-.23-.6l19.2,12c.15.08.23.3.23.6-5.1-3-14-9-19.2-12" transform="translate(-55.81 -56.48)"/><polygon class="cls-6" points="20.7 48 1.5 36 2.33 35.55 21.52 47.55 20.7 48"/><polygon class="cls-6" points="20.55 48.08 1.35 36.08 1.5 36 20.7 48 20.55 48.08"/><path class="cls-6" d="M57.83,94.88l1,.53,1,.52,1,.53,1.05.6,1,.6,1.13.6,3.15,2.62,1.12.6,1.13.6,1.12.6,1.13.6,1.05.6,1,.6,1,.53,1,.52,1,.53-1-.53-1-.52-1-.53-1-.6-1.05-.6-1.13-.6-1.12-.6-1.13-.6-1.12-.6-3.15-2.62-1.13-.6-1-.6-1.05-.6-1-.53-1-.52Zm-.07-.07A13.19,13.19,0,0,1,58.13,92l19.2,12a8.86,8.86,0,0,0-.07,2.4C71.48,103.13,63.46,98.18,57.76,94.81Z" transform="translate(-55.81 -56.48)"/><path class="cls-6" d="M57.46,91.81c5.7,3.3,13.5,8.62,19.2,12-.08.22-.08.45-.15.67l-19.2-12a2.31,2.31,0,0,0,.15-.67" transform="translate(-55.81 -56.48)"/><path class="cls-6" d="M57.46,91.81c1.8-1.2,4-2.85,4.2-4.28l19.2,12c-.15,1.43-2.4,3.08-4.2,4.28-5.18-3-14-9-19.2-12" transform="translate(-55.81 -56.48)"/><path class="cls-11" d="M76.66,103.81l-19.2-12a29.66,29.66,0,0,1,1.2-4l19.2,12.07a28.82,28.82,0,0,0-1.2,4" transform="translate(-55.81 -56.48)"/><path class="cls-15" d="M93.91,87.76l2.62-9.3,7.88-4.58v7.73Zm32.92-12.38,1.13-.6c.15-.07.22-.15.3-.15V73.36c-1,.6-1.8.3-1.8-.6a3.88,3.88,0,0,1,1.8-2.78v-2.1L107.11,80.11l-.53-8.25c0-.75-.52-1-1.12-.68L96,76.66a4.36,4.36,0,0,0-1.58,2.17c-1,2-3.13,7.39-4.5,10.58-.07,0-.15.07-.22.07-1,.68-4.5,3.08-8.4,5.33-2.4,1.42-3.83,5.4-4.65,9a39.49,39.49,0,0,1,1.12-4l.08-.07c1.2-.68,3.07-1.58,2.92-.23s-2.4,3.08-4.2,4.28c-.07.22-.07.45-.15.67l.83-.45a8.5,8.5,0,0,0-.08,2.4,6.16,6.16,0,0,0,.38,2.18l2.92-1.5A12.08,12.08,0,0,1,86,97.81c3-1.73,5.4-.38,5.47,3l16.28-9.38L113.63,88a12.1,12.1,0,0,1,5.48-9.3c3-1.72,5.4-.37,5.47,3l2.4-1.42a13.29,13.29,0,0,0,.3-2.33A6.23,6.23,0,0,0,126.83,75.38Z" transform="translate(-55.81 -56.48)"/><path class="cls-16" d="M127.06,80.26h0l.9-.53a1.11,1.11,0,0,0,.3-.22Z" transform="translate(-55.81 -56.48)"/><polygon class="cls-14" points="48.6 17.4 48.6 25.13 38.1 31.27 40.73 21.98 48.6 17.4"/><path class="cls-9" d="M86,106.88a5.34,5.34,0,0,0,2.4-4.2c0-1.57-1.12-2.17-2.47-1.42a5.14,5.14,0,0,0-2.4,4.2C83.56,107,84.68,107.63,86,106.88ZM86,99.16c2.32-1.35,4.27-.23,4.27,2.47A9.26,9.26,0,0,1,86,109c-2.33,1.35-4.28.3-4.28-2.47A9.68,9.68,0,0,1,86,99.16Z" transform="translate(-55.81 -56.48)"/><path class="cls-6" d="M70.06,77.78c.07,0,.15-.07.22-.07L89.93,89.48c-.07,0-.15.08-.22.08h0L70.06,77.78" transform="translate(-55.81 -56.48)"/><path class="cls-8" d="M86,97.81c3-1.73,5.4-.38,5.47,3V101l-1.2.67c0-2.7-2-3.82-4.27-2.47a9.46,9.46,0,0,0-4.28,7.35l-1.2.67V107A12.06,12.06,0,0,1,86,97.81" transform="translate(-55.81 -56.48)"/><polygon class="cls-17" points="40.13 20.18 20.4 9.3 29.63 3.98 49.58 14.7 40.13 20.18"/><path class="cls-6" d="M77.56,108.61c-5.18-3-14.33-8.63-19.5-11.63,4.57,2.63,6.52,4.58,10.57,6.9,2.85,1.65,6,2.85,8.85,4.5a.27.27,0,0,1,.08.23" transform="translate(-55.81 -56.48)"/><path class="cls-17" d="M94.36,78.83l-19.73-11a4.36,4.36,0,0,1,1.58-2.17l19.72,11a3.92,3.92,0,0,0-1.57,2.17" transform="translate(-55.81 -56.48)"/><path class="cls-6" d="M57.76,95.26v-.45c5.7,3.3,13.8,8.32,19.5,11.62-7.5-4.12-12.45-7.2-19.5-11.17" transform="translate(-55.81 -56.48)"/><g class="cls-18"><rect class="cls-19" y="36.15" width="20.55" height="16.65"/></g><g class="cls-20"><rect class="cls-21" x="19.35" y="47.55" width="2.47" height="5.33"/></g><g class="cls-22"><rect class="cls-23" x="20.85" y="42.67" width="2.93" height="4.73"/></g><path class="cls-24" d="M90,89.33,70.36,77.56l-.45.22c-1.13.75-4,2.85-7.88,5-1.5.9-2.62,2.77-3.45,5,5.55,3.52,13.5,8.7,19.2,12,.83-2.18,2-4.13,3.45-5,3.9-2.25,7.35-4.65,8.4-5.33a2.33,2.33,0,0,0,.38-.15" transform="translate(-55.81 -56.48)"/><path class="cls-25" d="M71,96.91a3.15,3.15,0,0,1,.75,2.1c0,.52-.53.75-1,.37L63.83,95a2.2,2.2,0,0,1-.9-1.65c0-.53.68-1.2,1.2-.9Z" transform="translate(-55.81 -56.48)"/><path class="cls-26" d="M63.46,92.56c-.08,0-.08.07-.15.15l8.25,5.4c0-.08-.08-.15-.08-.23Z" transform="translate(-55.81 -56.48)"/><path class="cls-26" d="M63,93.83a.51.51,0,0,0,.15.3l8.32,5.4c.08,0,.08-.07.15-.15Z" transform="translate(-55.81 -56.48)"/><path class="cls-26" d="M63,93.08a.24.24,0,0,1-.08.15l8.7,5.7v-.22Z" transform="translate(-55.81 -56.48)"/><path class="cls-27" d="M57.46,91.81h0l.15.07,4.57,2.48c1.28.75,2.4.45,2.4-.68s-.6-2.1-1.95-3.3l-3.75-2.55-.15-.07a28.64,28.64,0,0,0-1.27,4" transform="translate(-55.81 -56.48)"/><path class="cls-27" d="M77.86,99.83l-1.2,3.9L73,101.63a5.06,5.06,0,0,1-2.62-3.75c0-1.27,1.2-1.57,2.62-.75Z" transform="translate(-55.81 -56.48)"/><path class="cls-28" d="M104.18,85.81c.15-.08.23,0,.23.15a.55.55,0,0,1-.23.45l-2,1.12c-.15.08-.22,0-.22-.15a.54.54,0,0,1,.22-.45Z" transform="translate(-55.81 -56.48)"/><polygon class="cls-8" points="24.68 27.15 24.38 26.63 20.85 24.52 20.63 24.82 24.68 27.15"/><path class="cls-8" d="M80.18,83.26c-.07,0-.07,0-.07-.08s-3.83-3.45-7.28-4.12a.17.17,0,0,1-.15-.15.16.16,0,0,1,.15-.15c3.53.67,7.28,4,7.43,4.2a.14.14,0,0,1,0,.22c0,.08,0,.08-.08.08" transform="translate(-55.81 -56.48)"/><polygon class="cls-8" points="30.68 30.52 30.38 30 26.85 27.9 26.63 28.13 30.68 30.52"/><path class="cls-8" d="M86.18,86.63c-.07,0-.07,0-.07-.07s-3.83-3.45-7.28-4.13a.16.16,0,0,1-.15-.15.17.17,0,0,1,.15-.15c3.53.68,7.28,4.05,7.43,4.2a.15.15,0,0,1,0,.23c0,.07,0,.07-.08.07" transform="translate(-55.81 -56.48)"/></svg>