<svg id="Capa_1" data-name="Capa 1" xmlns="http://www.w3.org/2000/svg" xmlns:xlink="http://www.w3.org/1999/xlink" viewBox="0 0 80.19 70.9"><defs><style>.cls-1,.cls-14{fill:none;}.cls-2{fill:#c31b27;}.cls-3{fill:#c6c6c8;}.cls-4{fill:#1e1b1a;}.cls-5{fill:#5c595b;}.cls-6{fill:#b3b3b2;}.cls-7{fill:#afb0b0;}.cls-8{fill:#5f5e60;}.cls-9{fill:#e5e4e4;}.cls-10{fill:#cbcaca;}.cls-11{fill:#524c50;}.cls-12{clip-path:url(#clip-path);}.cls-13{fill:url(#Degradado_sin_nombre_256);}.cls-14{stroke:#b3b3b2;stroke-miterlimit:22.93;stroke-width:0.22px;}.cls-15{fill:#30281f;}.cls-16{fill:#858586;}.cls-17{clip-path:url(#clip-path-2);}.cls-18{fill:url(#Degradado_sin_nombre_257);}.cls-19{fill:#fff;}.cls-20{fill:#e3e1e2;}.cls-21{fill:#2e2a2c;}</style><clipPath id="clip-path" transform="translate(-53.83 -53.19)"><path class="cls-1" d="M81.86,103.57l-.38-.23-5.25-3,.38-.37,3.6,2.17a28.43,28.43,0,0,0-7.06-4.2c.15.08.23.15.23.23a.22.22,0,0,1,0,.3H73.3l.15.22-5.32-3.07.23-.23L71.13,97l.08-.07a23.07,23.07,0,0,0-7.88-4.13l-.45-.3.08-.15a.28.28,0,0,1,.22-.07c3.53.67,7.2,3.37,9,4.8,4.58,1.27,9.08,5.32,9.3,5.55a.22.22,0,0,1,0,.3h-.07Z"/></clipPath><linearGradient id="Degradado_sin_nombre_256" x1="8.83" y1="44.76" x2="27.58" y2="44.76" gradientUnits="userSpaceOnUse"><stop offset="0" stop-color="#59afcc"/><stop offset="1" stop-color="#446a70"/></linearGradient><clipPath id="clip-path-2" transform="translate(-53.83 -53.19)"><path class="cls-1" d="M74,120.29a1.23,1.23,0,0,1-.45.38,1.81,1.81,0,0,1-2-.08c-.82-.52-6.22-3.6-6.53-3.75a1.54,1.54,0,0,1,.08-.45,2.76,2.76,0,0,0,.08-.37c0-.08,0-.15.07-.15l.23-.45c0-.08.07-.08.07-.15A1.47,1.47,0,0,1,66,115c.08,0,.15-.08.3-.08a2.63,2.63,0,0,1,.75.08,4.07,4.07,0,0,1,.68.3c2.32,1.35,2.4,1.42,2.4,1.42l2,1.13s.82.67,1.42.37.45,2.1.45,2.1"/></clipPath><linearGradient id="Degradado_sin_nombre_257" x1="10.87" y1="62.16" x2="18.95" y2="66.51" gradientUnits="userSpaceOnUse"><stop offset="0" stop-color="#fff"/><stop offset="0.74" stop-color="#fff"/><stop offset="0.82" stop-color="#e3e1e2"/><stop offset="1" stop-color="#e3e1e2"/></linearGradient></defs><path class="cls-2" d="M133.91,82.27l-1,.6a.88.88,0,0,1-1.43-.83,2.93,2.93,0,0,1,1.43-2.4l1-.6v3.23" transform="translate(-53.83 -53.19)"/><path class="cls-3" d="M123.18,91.34c1.72-1,3.15-.22,3.15,1.8a7.07,7.07,0,0,1-3.15,5.48c-1.72,1-3.15.22-3.15-1.8a7,7,0,0,1,3.15-5.48" transform="translate(-53.83 -53.19)"/><path class="cls-4" d="M123.18,88.64c-.15.08-.38.23-.6.38a1.53,1.53,0,0,0-.38.3,1.3,1.3,0,0,0-.37.3A12.18,12.18,0,0,0,117.7,98v.3a1.58,1.58,0,0,0,.08.6V99c0,.15.08.38.08.53a1.28,1.28,0,0,0,.15.52,1.12,1.12,0,0,1,.14.45,2.54,2.54,0,0,0,.53.75l.3.3a1,1,0,0,0,.3.23l-3.68-2.1-1.5-.9a7.57,7.57,0,0,0,.6-3c0-2.18.6-2.78,1.73-5.1.82-1.5,1.57-3.08,2.25-4.65l3.07,1.8Z" transform="translate(-53.83 -53.19)"/><path class="cls-5" d="M123.18,98.62c-1.72,1-3.15.22-3.15-1.8a7.07,7.07,0,0,1,3.15-5.48c1.72-1,3.15-.22,3.15,1.8a6.78,6.78,0,0,1-3.15,5.48m0-10c-.15.08-.38.23-.6.38a1.53,1.53,0,0,0-.38.3,1.3,1.3,0,0,0-.37.3A12.18,12.18,0,0,0,117.7,98v.3a1.58,1.58,0,0,0,.08.6V99c0,.15.08.38.08.53a1.28,1.28,0,0,0,.15.52,1.12,1.12,0,0,1,.14.45,2.54,2.54,0,0,0,.53.75l.3.3a1,1,0,0,0,.3.23c1,.6,2.4.52,4-.38A12.48,12.48,0,0,0,128.8,92v-.23C128.73,88.27,126.25,86.84,123.18,88.64Z" transform="translate(-53.83 -53.19)"/><path class="cls-4" d="M130.31,90.89l-1.58.9c0-3.52-2.47-5-5.55-3.15-.15.08-.37.23-.6.38a1.3,1.3,0,0,0-.37.3,1.53,1.53,0,0,0-.38.3,12.86,12.86,0,0,0-4.12,8.4v.3l-1.5.9h-.08v-.9a17,17,0,0,1,5.62-10.65c.08-.08.23-.15.3-.3a2.19,2.19,0,0,0,.38-.3c.08-.08.22-.15.3-.23s.22-.15.37-.22c4-2.1,7.21-.3,7.21,4.27" transform="translate(-53.83 -53.19)"/><path class="cls-6" d="M123.18,84.67a1.54,1.54,0,0,1-.67,1.2c-.38.22-.68.07-.68-.38v-1.8a1.53,1.53,0,0,1,.68-1.2.41.41,0,0,1,.67.38Z" transform="translate(-53.83 -53.19)"/><polygon class="cls-7" points="45.43 44.83 42.88 46.26 42.51 45.96 40.1 44.61 40.03 44.61 35.3 41.83 35.6 41.01 36.2 39.43 42.58 43.11 44.6 44.31 45.43 44.83"/><path class="cls-8" d="M99.25,97l-.82.45-1.65,1-2-1.13L89.5,94.27l.61-1.58.14-.45a1.2,1.2,0,0,1,.08-.37l6.9,4Z" transform="translate(-53.83 -53.19)"/><path class="cls-7" d="M99.63,97.27a.82.82,0,0,1-.45.75l-.83-.53-2-1.2L90,92.62l.15-.45a1.45,1.45,0,0,1,.07-.38.28.28,0,0,1,.08-.15l7,4L99.4,97V97c.23.08.23.15.23.23" transform="translate(-53.83 -53.19)"/><path class="cls-7" d="M96.7,99.44a.28.28,0,0,0-.15.08H96.4l-2.7-1.58L93,97.49l-2.47-1.42c-.45-.3-.9-.53-1.35-.83l.07-.15,4.73,2.78h0l2.4,1.42Z" transform="translate(-53.83 -53.19)"/><path class="cls-7" d="M99.63,94.42l-2.25,1.27-.15.15-.82.45-1.66,1-.82.45h0l-.15.07-7.42,4.28,2.77-7,.08-.15.3-.82.6-1.58.15-.45a1.35,1.35,0,0,1,.07-.37.24.24,0,0,1,.08-.15,4.15,4.15,0,0,1,1.5-1.73h0Z" transform="translate(-53.83 -53.19)"/><path class="cls-8" d="M99.56,97a.14.14,0,0,0-.23,0h-.08l-2-1.13-6.9-4a.25.25,0,0,1,.07-.15l7,4Z" transform="translate(-53.83 -53.19)"/><path class="cls-9" d="M129.56,65.24,90.71,87.74,71.06,76.34l38.85-22.5c1,.6,2.09,1.2,3.22,1.88.3.15.6.37.9.52,3.68,2.18,7.72,4.5,11.47,6.68.3.15.61.37.9.52l3.16,1.8" transform="translate(-53.83 -53.19)"/><path class="cls-6" d="M132.63,75.37l-4.95,2.85v-9a26.34,26.34,0,0,0,2.47-1.43c1.36-.82,2.48.6,2.48,3.08Z" transform="translate(-53.83 -53.19)"/><path class="cls-10" d="M132.78,64.87h-.08c-.07-.08-.15-.08-.29-.15h-.08c-.08,0-.15-.08-.3-.08a1.36,1.36,0,0,0-.75,0,.42.42,0,0,0-.3.08.59.59,0,0,0-.3.07c-.07,0-.22.08-.3.08s-.15,0-.15.07-.07,0-.15.08-.07.07-.15.07a1.64,1.64,0,0,0-.3.15h-.15c-1-.6-2.1-1.2-3.22-1.87-.3-.15-.6-.38-.9-.53-3.68-2.17-7.73-4.5-11.48-6.67-.3-.15-.6-.38-.9-.53-1.12-.67-2.17-1.27-3.22-1.87.15-.08,1.95-1.05,3.22-.3Z" transform="translate(-53.83 -53.19)"/><path class="cls-8" d="M96.33,99.14v.23l-2.7-1.58-.75-.45-2.47-1.42-1.35-.83.07-.15.3-.82,5.25,3.07,2,1.13a1.56,1.56,0,0,0-.38.82" transform="translate(-53.83 -53.19)"/><path class="cls-6" d="M99.63,97.27a.82.82,0,0,1-.45.75L96.7,99.44a.28.28,0,0,0-.15.08H96.4v-.23a1,1,0,0,1,.45-.75l1.65-1,.83-.45h.3v.15" transform="translate(-53.83 -53.19)"/><path class="cls-3" d="M87.78,111.74c1.72-1,3.15-.22,3.15,1.8A7.07,7.07,0,0,1,87.78,119c-1.72,1-3.15.22-3.15-1.8a7.23,7.23,0,0,1,3.15-5.48" transform="translate(-53.83 -53.19)"/><path class="cls-4" d="M82.3,118.64v.15a1.53,1.53,0,0,0,.08.6.66.66,0,0,0,.08.38.61.61,0,0,0,.07.3c.08.22.08.37.15.52s.08.15.08.3c0,0,0,.08.07.08a1.93,1.93,0,0,0,.45.6c0,.07.08.07.08.15a1,1,0,0,0,.3.22c.07.08.22.15.3.23L80.28,120l-2.47-1.42a8.4,8.4,0,0,0,1.57-2.7c.53-1.58.75-3,1.88-4.13,1.35-1.35,2.62-2.77,4-4.2l1.28.75,1.42.83a11.58,11.58,0,0,0-5.63,9.52" transform="translate(-53.83 -53.19)"/><path class="cls-11" d="M71.35,97a.07.07,0,0,0-.07.07L68.5,95.39l-.22.23-4.73-2.78A26.26,26.26,0,0,1,71.35,97" transform="translate(-53.83 -53.19)"/><path class="cls-11" d="M80.28,102.14,76.68,100l-.37.37-2.78-1.65-.15-.22h.08a.24.24,0,0,0,0-.3l-.23-.23a28.16,28.16,0,0,1,7,4.2" transform="translate(-53.83 -53.19)"/><g class="cls-12"><rect class="cls-13" x="9.06" y="39.13" width="18.97" height="11.25"/></g><path class="cls-6" d="M116.13,98.39a16.12,16.12,0,0,1,5.63-10.65l-3.08-1.8c-.67,1.58-3.23,3.15-4,4.65a8.32,8.32,0,0,0-1.34,5.1c0,1.13,1.12,2.1.75,3l1.5.9.52-.3h.08v-.22h-.08v-.23A.51.51,0,0,1,116.13,98.39ZM99.56,97l-2.1-1.28-.15.15-.83.45-1.65,1-.82.45h0l-.15.07,2.7,1.58v-.23a1,1,0,0,1,.46-.75l1.65-1,.82-.45Zm-14.48,10.5-4,4.2a9,9,0,0,0-1.88,4.12,6.91,6.91,0,0,1-1.58,2.7l2.48,1.43.52-.3v-.15h0v-.9a1.73,1.73,0,0,1,.07-.6v-.08c0-.22.08-.37.08-.6v-.15a1.71,1.71,0,0,1,.15-.6c.15-.52.3-1,.45-1.5.07-.15.07-.3.15-.37s.15-.38.22-.53a4.07,4.07,0,0,1,.38-.75c.15-.22.22-.52.37-.75a3.13,3.13,0,0,1,.38-.6c.07-.15.15-.22.22-.37s.15-.23.23-.38a1,1,0,0,0,.22-.3,3.34,3.34,0,0,0,.38-.52c.15-.23.3-.38.45-.6a9.53,9.53,0,0,1,1.8-1.73ZM73.61,118.19h0v2.55a1.27,1.27,0,0,0,.45-.37S74.2,117.89,73.61,118.19Z" transform="translate(-53.83 -53.19)"/><path class="cls-14" d="M116.13,98.39a16.12,16.12,0,0,1,5.63-10.65l-3.08-1.8c-.67,1.58-3.23,3.15-4,4.65a8.32,8.32,0,0,0-1.34,5.1c0,1.13,1.12,2.1.75,3l1.5.9.52-.3h.08v-.22h-.08v-.23A.51.51,0,0,1,116.13,98.39ZM99.56,97l-2.1-1.28-.15.15-.83.45-1.65,1-.82.45h0l-.15.07,2.7,1.58v-.23a1,1,0,0,1,.46-.75l1.65-1,.82-.45Zm-14.48,10.5-4,4.2a9,9,0,0,0-1.88,4.12,6.91,6.91,0,0,1-1.58,2.7l2.48,1.43.52-.3v-.15h0v-.9a1.73,1.73,0,0,1,.07-.6v-.08c0-.22.08-.37.08-.6v-.15a1.71,1.71,0,0,1,.15-.6c.15-.52.3-1,.45-1.5.07-.15.07-.3.15-.37s.15-.38.22-.53a4.07,4.07,0,0,1,.38-.75c.15-.22.22-.52.37-.75a3.13,3.13,0,0,1,.38-.6c.07-.15.15-.22.22-.37s.15-.23.23-.38a1,1,0,0,0,.22-.3,3.34,3.34,0,0,0,.38-.52c.15-.23.3-.38.45-.6a9.53,9.53,0,0,1,1.8-1.73ZM73.61,118.19h0v2.55a1.27,1.27,0,0,0,.45-.37S74.2,117.89,73.61,118.19Z" transform="translate(-53.83 -53.19)"/><path class="cls-6" d="M127.76,78.22v-9c.07,0,1.12-.6,2.47-1.43s2.47.6,2.47,3.08v4.5ZM101.2,93.59v-9l25.13-14.47v9Zm21.31-7.72c-.38.22-.68.07-.68-.38v-1.8a1.53,1.53,0,0,1,.68-1.2.41.41,0,0,1,.67.38v1.8A1.54,1.54,0,0,1,122.51,85.87ZM99.25,98l-2.47,1.42a.24.24,0,0,0-.15.08h-.15l-2.7-1.58-7.43,4.28,2.78-7,.08-.15.29-.82.61-1.58.14-.45a1.2,1.2,0,0,1,.08-.37.24.24,0,0,1,.08-.15A4.15,4.15,0,0,1,91.91,90h0l.67-.45c2-1.2,6.75-3.9,7-4.05v9l-2.25,1.28,2.1,1.2h.07v.22A.82.82,0,0,1,99.25,98Zm34.66-15.75-1,.6a.88.88,0,0,1-1.43-.83,2.93,2.93,0,0,1,1.43-2.4l1-.6V67.72c0-1.65-.53-2.48-1.2-2.85-.08-.08-.15-.08-.3-.15h-.08c-.07,0-.15-.08-.3-.08h-.75a.44.44,0,0,0-.3.08.61.61,0,0,0-.3.07c-.07,0-.15.08-.3.08s-.15,0-.15.07-.07,0-.15.08-.07.07-.15.07a1.64,1.64,0,0,0-.3.15h-.15L90.63,87.74a5.69,5.69,0,0,0-1,.9,7.18,7.18,0,0,0-1.13,1.88.15.15,0,0,1,.15.15.26.26,0,0,1,.08.22v.38c0,.15-.08.3-.08.52a6,6,0,0,1-.45,1.28c-.07.07-.07.22-.15.37s-.22.53-.3.83a.29.29,0,0,1-.07.15c-.9,2.25-1.88,4.87-2.93,6.9a8.91,8.91,0,0,1-2.17,3,1.64,1.64,0,0,1-.3.15l-.08.07a8.83,8.83,0,0,0-.75.75l-1.35,1.35a43,43,0,0,0-5.1,6.45c-.15.3-.3.53-.45.83a7.6,7.6,0,0,0-.38.75c-.07.15-.15.37-.22.52a1,1,0,0,0-.15.45,5.62,5.62,0,0,0-.38,1.58v1c.6-.3.38,2.1.38,2.1a1.27,1.27,0,0,1-.45.37v3.15l6.6-3.82c-.07-6.46,3.82-10.17,6.9-12.23a6.18,6.18,0,0,1,.75-.45c3.9-2.25,7.12-.45,7.12,4l-1.57.9v.23l22.2-12.83c.89-2.58,1.05-9.07,6.15-11.85.07-.07.22-.15.37-.3a1.53,1.53,0,0,0,.38-.3c.07-.07.22-.15.3-.22s.22-.15.37-.23c3.9-2.25,7.13-.45,7.13,4l-1.58.9V92l2.78-1.58a5.2,5.2,0,0,0,2.4-4.12A23.12,23.12,0,0,0,133.91,82.27Z" transform="translate(-53.83 -53.19)"/><path class="cls-14" d="M127.76,78.22v-9c.07,0,1.12-.6,2.47-1.43s2.47.6,2.47,3.08v4.5ZM101.2,93.59v-9l25.13-14.47v9Zm21.31-7.72c-.38.22-.68.07-.68-.38v-1.8a1.53,1.53,0,0,1,.68-1.2.41.41,0,0,1,.67.38v1.8A1.54,1.54,0,0,1,122.51,85.87ZM99.25,98l-2.47,1.42a.24.24,0,0,0-.15.08h-.15l-2.7-1.58-7.43,4.28,2.78-7,.08-.15.29-.82.61-1.58.14-.45a1.2,1.2,0,0,1,.08-.37.24.24,0,0,1,.08-.15A4.15,4.15,0,0,1,91.91,90h0l.67-.45c2-1.2,6.75-3.9,7-4.05v9l-2.25,1.28,2.1,1.2h.07v.22A.82.82,0,0,1,99.25,98Zm34.66-15.75-1,.6a.88.88,0,0,1-1.43-.83,2.93,2.93,0,0,1,1.43-2.4l1-.6V67.72c0-1.65-.53-2.48-1.2-2.85-.08-.08-.15-.08-.3-.15h-.08c-.07,0-.15-.08-.3-.08h-.75a.44.44,0,0,0-.3.08.61.61,0,0,0-.3.07c-.07,0-.15.08-.3.08s-.15,0-.15.07-.07,0-.15.08-.07.07-.15.07a1.64,1.64,0,0,0-.3.15h-.15L90.63,87.74a5.69,5.69,0,0,0-1,.9,7.18,7.18,0,0,0-1.13,1.88.15.15,0,0,1,.15.15.26.26,0,0,1,.08.22v.38c0,.15-.08.3-.08.52a6,6,0,0,1-.45,1.28c-.07.07-.07.22-.15.37s-.22.53-.3.83a.29.29,0,0,1-.07.15c-.9,2.25-1.88,4.87-2.93,6.9a8.91,8.91,0,0,1-2.17,3,1.64,1.64,0,0,1-.3.15l-.08.07a8.83,8.83,0,0,0-.75.75l-1.35,1.35a43,43,0,0,0-5.1,6.45c-.15.3-.3.53-.45.83a7.6,7.6,0,0,0-.38.75c-.07.15-.15.37-.22.52a1,1,0,0,0-.15.45,5.62,5.62,0,0,0-.38,1.58v1c.6-.3.38,2.1.38,2.1a1.27,1.27,0,0,1-.45.37v3.15l6.6-3.82c-.07-6.46,3.82-10.17,6.9-12.23a6.18,6.18,0,0,1,.75-.45c3.9-2.25,7.12-.45,7.12,4l-1.57.9v.23l22.2-12.83c.89-2.58,1.05-9.07,6.15-11.85.07-.07.22-.15.37-.3a1.53,1.53,0,0,0,.38-.3c.07-.07.22-.15.3-.22s.22-.15.37-.23c3.9-2.25,7.13-.45,7.13,4l-1.58.9V92l2.78-1.58a5.2,5.2,0,0,0,2.4-4.12A23.12,23.12,0,0,0,133.91,82.27Z" transform="translate(-53.83 -53.19)"/><polygon class="cls-6" points="72.5 25.86 47.38 40.41 47.3 31.41 72.43 16.86 72.5 25.86"/><path class="cls-5" d="M87.78,119c-1.72,1-3.15.22-3.15-1.8a7.07,7.07,0,0,1,3.15-5.48c1.72-1,3.15-.22,3.15,1.8A6.59,6.59,0,0,1,87.78,119m0-10a11.93,11.93,0,0,0-5.48,9.53v.15a1.58,1.58,0,0,0,.08.6.62.62,0,0,0,.08.37.59.59,0,0,0,.07.3c.08.23.08.38.15.53s.08.15.08.3a.07.07,0,0,0,.07.07,1.82,1.82,0,0,0,.45.6c0,.08.08.08.08.15a1,1,0,0,0,.3.23c.07.07.22.15.3.22a3.77,3.77,0,0,0,3.9-.37,12.52,12.52,0,0,0,5.55-9.38v-.22C93.33,108.74,90.86,107.32,87.78,109Z" transform="translate(-53.83 -53.19)"/><path class="cls-4" d="M94.9,111.29l-1.57.9c0-3.52-2.47-5-5.55-3.15a11.93,11.93,0,0,0-5.48,9.53l-1.57.9v-.9a1.53,1.53,0,0,1,.08-.6v-.08c0-.22.07-.37.07-.6v-.15a2,2,0,0,1,.15-.6c.15-.52.3-1,.45-1.5.08-.15.08-.3.15-.37s.15-.38.23-.53a3.47,3.47,0,0,1,.37-.75c.15-.22.23-.52.38-.75A2.64,2.64,0,0,1,83,112c.08-.15.15-.22.23-.37s.15-.23.22-.38a1,1,0,0,0,.23-.3,3.34,3.34,0,0,0,.37-.52c.15-.23.3-.38.45-.6a10.17,10.17,0,0,1,1.8-1.73c.23-.15.45-.37.68-.52a6.18,6.18,0,0,1,.75-.45c4-2.18,7.19-.38,7.19,4.12" transform="translate(-53.83 -53.19)"/><path class="cls-11" d="M99.63,94.42l-2.25,1.27-.15.15-.82.45-1.66,1-.82.45h0l-.15.07-7.42,4.28,2.77-7,.08-.15.3-.82.6-1.58.15-.45a1.35,1.35,0,0,1,.07-.37.24.24,0,0,1,.08-.15,4.15,4.15,0,0,1,1.5-1.73h0l.67-.45c2-1.2,6.75-3.9,7-4Z" transform="translate(-53.83 -53.19)"/><path class="cls-10" d="M82.68,104c-.08.07-.23.22-.3.3l-.08.07a8.83,8.83,0,0,0-.75.75l-1.35,1.35a43.63,43.63,0,0,0-5.1,6.45c-.15.3-.3.53-.45.83a5.68,5.68,0,0,0-.37.75c-.08.15-.15.37-.23.52a1.14,1.14,0,0,0-.15.45,5.9,5.9,0,0,0-.37,1.58v.9l-19.65-11.4c-.08-.23-1-4.13,8.7-13.5l.37-.38.45.3,4.73,2.78,5.32,3.07,2.78,1.65,5.25,3,.37.23Z" transform="translate(-53.83 -53.19)"/><polygon class="cls-11" points="19.78 70.63 0.13 59.16 0.06 56.53 0.06 53.98 0.06 53.38 19.78 64.78 19.78 65.01 19.78 67.48 19.78 70.63"/><path class="cls-9" d="M90.71,87.74a5.73,5.73,0,0,0-1,.9,7.18,7.18,0,0,0-1.13,1.88l-.67-.38L77.8,84.29,69,79.12a6,6,0,0,1,2.1-2.85Z" transform="translate(-53.83 -53.19)"/><path class="cls-15" d="M66.85,114.67c.53.3.83,1.57.83,2.1s-.45.75-1.05.45l-7.2-4.2a2.21,2.21,0,0,1-1-1.65c0-.6.6-1.28,1.2-1Z" transform="translate(-53.83 -53.19)"/><path class="cls-16" d="M58.9,110.54c-.07,0-.07.08-.15.15l8.78,5c0-.08-.08-.15-.08-.23Z" transform="translate(-53.83 -53.19)"/><path class="cls-16" d="M58.53,112a.65.65,0,0,0,.15.3l8.85,5.1c.08,0,.08-.08.15-.15Z" transform="translate(-53.83 -53.19)"/><path class="cls-16" d="M58.46,111.14a.24.24,0,0,1-.08.15l9.23,5.33v-.23Z" transform="translate(-53.83 -53.19)"/><g class="cls-17"><rect class="cls-18" x="11.23" y="61.71" width="9.15" height="6.23"/></g><path class="cls-19" d="M58.38,109.72c-2.18-1.28-2.25-1.35-2.25-1.35l-1.8-1.05-.3-.15c-.08.45,0,1.87,0,2.55a1.71,1.71,0,0,0,.82.82c.83.45,5.93,3.38,6.15,3.53-.14-.15-.3-3-2.62-4.35" transform="translate(-53.83 -53.19)"/><path class="cls-20" d="M70.91,118.72a4.11,4.11,0,0,1-1.58-.75c-.82-.45-1.42-.9-1.42-1a3.77,3.77,0,0,1,1.57.75c.83.52,1.5,1,1.43,1" transform="translate(-53.83 -53.19)"/><path class="cls-20" d="M58.83,111.52a4,4,0,0,1-1.57-.75c-.83-.45-1.43-.9-1.43-1a3.78,3.78,0,0,1,1.58.75,6.62,6.62,0,0,1,1.42,1" transform="translate(-53.83 -53.19)"/><path class="cls-11" d="M88.83,91v.37c0,.15-.08.3-.08.53a6,6,0,0,1-.45,1.27c-.07.08-.07.23-.15.38s-.22.52-.3.82a.25.25,0,0,1-.07.15c-.9,2.25-1.88,4.88-2.93,6.9a8.81,8.81,0,0,1-2.17,3c-.08.08-.15.08-.3.15l.3-.3-.83-.52-.3-.53h.08a.22.22,0,0,0,0-.3c-.23-.15-4.8-4.27-9.3-5.55-1.8-1.42-5.48-4-9-4.8a.25.25,0,0,0-.22.08l.6-1.43,5.17-12,8.85,5.18,10.13,5.85.67.37a.16.16,0,0,1,.15.15c.15,0,.15.15.15.23" transform="translate(-53.83 -53.19)"/><polygon class="cls-21" points="19.86 45.81 14.23 42.58 14.38 42.43 14.61 42.21 17.38 43.86 18.2 44.38 18.2 44.38 19.41 45.06 19.48 45.21 19.63 45.43 19.86 45.81"/><polygon class="cls-21" points="28.03 50.38 27.73 50.16 22.48 47.16 22.86 46.78 26.45 48.96 27.66 49.71 27.73 49.86 28.03 50.38"/><path class="cls-21" d="M73.46,98.39h0a.24.24,0,0,1-.15.08c-.08,0-.08,0-.15-.08s-.38-.37-1-.9h0c-.23-.15-.46-.37-.76-.6a23,23,0,0,0-7.87-4.12c-.08,0-.23-.08-.3-.08s-.15-.15-.15-.22v-.08a.07.07,0,0,1,.08-.07.26.26,0,0,1,.22-.08c3.53.68,7.2,3.38,9,4.8.38.3.68.6.9.75s.23.15.23.23.07.3,0,.37" transform="translate(-53.83 -53.19)"/><path class="cls-21" d="M81.63,103h0a.24.24,0,0,1-.15.08c-.08,0-.08,0-.15-.08a12.43,12.43,0,0,0-1-.9,28.16,28.16,0,0,0-7-4.2c-.37-.15-.75-.22-1.12-.37h0a2.14,2.14,0,0,0-.68-.15c-.15,0-.22-.15-.15-.23a.07.07,0,0,1,.08-.07l.07-.08h.15l.83.23c4.57,1.27,9.07,5.32,9.3,5.55a.55.55,0,0,1-.08.22" transform="translate(-53.83 -53.19)"/></svg>