<svg id="Capa_1" data-name="Capa 1" xmlns="http://www.w3.org/2000/svg" viewBox="0 0 151.72 128.93"><defs><style>.cls-1{fill:#464245;}.cls-2{fill:#c31b27;}.cls-3{fill:#2a2627;}.cls-4{fill:#605d60;}.cls-5{fill:#1e1b1a;}.cls-6{fill:#534f52;}.cls-7{fill:#edecec;}.cls-8{fill:#c6c6c8;}.cls-9{fill:#302c2e;}.cls-10{fill:#524c51;}.cls-11{fill:#393538;}.cls-12{fill:#9b9c9c;}.cls-13{fill:#423e42;}.cls-14{fill:#363335;}.cls-15{fill:#737273;}.cls-16{fill:#b3b3b2;}.cls-17{fill:#a52822;}.cls-18{fill:#929394;}.cls-19{fill:#585857;}.cls-20{fill:#a7a7a7;}.cls-21{fill:#88444a;}.cls-22{fill:#cbcaca;}.cls-23{fill:#e5e4e4;}.cls-24{fill:#524c50;}.cls-25{fill:#cb5252;}.cls-26{fill:#959596;}.cls-27{fill:#9dcdea;}.cls-28{fill:#30281f;}.cls-29{fill:#858586;}.cls-30{fill:#faefdd;}.cls-31{fill:#2e2a2c;}</style></defs><polygon class="cls-1" points="62.85 99.3 85.5 86.25 60.45 71.7 23.7 92.85 48.75 107.4 60.75 100.5 62.85 99.3"/><polygon class="cls-2" points="150.45 56.4 148.88 55.5 146.63 54.23 141.75 51.38 144 50.1 145.57 49.13 148.88 51.08 150.38 51.98 150.45 56.4"/><polygon class="cls-2" points="151.72 51.23 150.38 51.98 148.88 51.08 145.57 49.13 146.93 48.38 148.88 49.5 150.38 50.4 151.72 51.23"/><polygon class="cls-2" points="151.72 51.23 151.72 55.65 150.45 56.4 150.38 51.98 151.72 51.23"/><polygon class="cls-3" points="148.88 57.3 146.47 55.88 145.13 55.13 143.18 54 140.25 52.27 140.85 51.98 140.93 51.98 141.82 51.45 144.07 50.17 145.72 49.27 147 48.52 148.95 47.4 148.95 49.65 148.95 51.15 148.95 53.03 148.95 55.65 148.88 57.3"/><path class="cls-1" d="M163,60.94l-2.25,1.27-1,.6-1.13-.67h-.07l-.38-.23-.15-.07-.15-.08-.22-.07-.9-.53c-.68-.37-1.35-.75-1.95-1.12h.07l.9-.53L158,58.24Z" transform="translate(-14.11 -7.99)"/><path class="cls-4" d="M161,66.41c-.6-.3-1.12-.67-1.72-1s-1.35-.83-2.1-1.2c-.23-.15-.53-.3-.75-.45a18.94,18.94,0,0,0-1.73-1h0c-.82-.45-1.57-.9-2.4-1.42l.6-.38,1.35-.75.6-.3c.68.38,1.35.75,2,1.13l.9.52.23.08.15.07.15.08.37.22h.08l1.12.68a1,1,0,0,1,.3.3c.08.07.15.22.3.37s.08.15.15.3a.28.28,0,0,1,.08.15,1.64,1.64,0,0,1,.15.3.25.25,0,0,0,.07.15c0,.08.08.15.08.23s.07.15.07.3v.07a.27.27,0,0,0,.08.23,2.19,2.19,0,0,1,.07.67.92.92,0,0,0-.15.6" transform="translate(-14.11 -7.99)"/><path class="cls-4" d="M159.76,62.74,163,60.86v4.43L161,66.41a5,5,0,0,0-1.27-3.67" transform="translate(-14.11 -7.99)"/><path class="cls-5" d="M157.51,68.44a6.32,6.32,0,0,1-2.78,4.87l-2.85-1.65-1.72-1-1-.6-1-.52-4.87-2.85,5.55-3.23,1.12-.67c.9.52,1.8,1,2.78,1.57l1.12.68a8.74,8.74,0,0,1,1,.6h0c.6.37,1.2.75,1.8,1a1.84,1.84,0,0,1,.52.52.27.27,0,0,1,.08.23c0,.07.07.15.07.22a.9.9,0,0,1,.08.45.42.42,0,0,1,.15.38" transform="translate(-14.11 -7.99)"/><path class="cls-5" d="M154.73,73.31a2.47,2.47,0,0,1-.67.3c-.08,0-.15.08-.23.08s-.3.07-.45,0H153a.63.63,0,0,1-.38-.15c-.9-.53-1.87-1.13-2.77-1.65l-1.13-.68a14.71,14.71,0,0,1-1.27-.75h0a1.47,1.47,0,0,1-.45-.3c-.53-.3-1-.6-1.5-.9-.68-.37-1.35-.75-1.95-1.12l-1.43-.83,1.2-.67,4.88,2.85,1,.52,1,.6,1.73,1Z" transform="translate(-14.11 -7.99)"/><path class="cls-6" d="M159.68,67.24l-3.82-2.18-1.05-.6-1.28-.75L151,62.21l1.35-.75h.08l.6-.37,2.47,1.42,2.4,1.43.3.15.08.07a1.11,1.11,0,0,1,.3.23c.07.07.15.15.22.15s.08,0,.08.07l.15.15a2.75,2.75,0,0,1,.37.68c.08.07.08.22.15.3s.08.22.08.37v.15a3.86,3.86,0,0,0,.07.38,1.73,1.73,0,0,0,0,.6" transform="translate(-14.11 -7.99)"/><polygon class="cls-4" points="150.45 56.4 148.88 57.3 148.88 55.5 148.88 52.95 148.88 51.08 148.88 49.5 148.88 47.25 150.38 46.35 150.38 50.4 150.38 51.98 150.45 56.4"/><path class="cls-7" d="M156.76,66.64c-.08,0-.08,0-.15-.08a.23.23,0,0,1-.15-.07h-.6a3.1,3.1,0,0,0-1.28.37l-1-.6-.75-.45-1.05-.6-3.08-1.8,1.13-.67c.9.52,1.8,1,2.77,1.57l1.13.68a9.56,9.56,0,0,1,1,.6h0c.75.37,1.35.67,2,1" transform="translate(-14.11 -7.99)"/><path class="cls-7" d="M154.73,66.86c-.07.08-.15.08-.22.15s-.15.08-.23.15-.15.08-.22.15-.15.15-.23.15l-.22.23a3.9,3.9,0,0,0-.45.6c-.08.07-.15.22-.23.3s-.07.15-.15.22a8.12,8.12,0,0,0-.52,1.13c-.08.15-.08.3-.15.37a.66.66,0,0,0-.08.38c0,.07-.07.15-.07.3v1.12a.3.3,0,0,0,.07.23.26.26,0,0,0,.08.22.23.23,0,0,0,.07.15c0,.08.08.15.15.23a.07.07,0,0,0,.08.07h0c0,.08.07.08.07.15l.15.15.08.08.15.15c-.9-.53-1.88-1.13-2.78-1.65L149,71.21c-.45-.22-.9-.52-1.28-.75h0a1.47,1.47,0,0,1-.45-.3c-.52-.3-1-.6-1.5-.9s-1.35-.75-1.95-1.12l-1.42-.83,1.2-.67,5.55-3.23,3.07,1.8,1,.6.75.45Z" transform="translate(-14.11 -7.99)"/><path class="cls-8" d="M154.73,66.86c1.58-.9,2.78-.15,2.85,1.58a6.31,6.31,0,0,1-2.77,4.87c-1.58.9-2.85.15-2.85-1.57a6.14,6.14,0,0,1,2.77-4.88" transform="translate(-14.11 -7.99)"/><path class="cls-5" d="M158.18,64h0a.23.23,0,0,0-.15-.07c-.07,0-.15-.08-.22-.08s-.38-.07-.53-.15h-1.05a.26.26,0,0,0-.22.08.3.3,0,0,0-.23.07c-.07,0-.15.08-.3.08s-.22.07-.37.15l-.45.22h-.08l-1.27-.75-2.55-1.5h.07l1.35-.75h.08l.6-.37,2.47,1.42,2.4,1.43Z" transform="translate(-14.11 -7.99)"/><path class="cls-6" d="M159.23,62.36c-.07,0-.15-.07-.22-.07s-.15-.08-.23-.08-.07-.07-.15-.07h-.07c-.15,0-.23-.08-.38-.08H158a2.69,2.69,0,0,0-.75,0,1.23,1.23,0,0,0-.53.08,3.1,3.1,0,0,1-.37.07,1.14,1.14,0,0,0-.45.15c-.15.08-.3.08-.45.15h-.08c-.07,0-.07,0-.15.08a1.74,1.74,0,0,0-.52.3h-.08l-2.4-1.43h.08l.6-.37,1.35-.75.6-.3h.07Z" transform="translate(-14.11 -7.99)"/><path class="cls-9" d="M125.11,60.19Z" transform="translate(-14.11 -7.99)"/><path class="cls-9" d="M154.73,64.39a3.1,3.1,0,0,0-.82.6.9.9,0,0,0-.38.37c-.15.15-.37.3-.52.45a2.17,2.17,0,0,0-.38.45,1,1,0,0,1-.3.3,6.7,6.7,0,0,0-.6.9,7.68,7.68,0,0,0-.75,1.28c-.07.15-.15.37-.22.52a1.12,1.12,0,0,0-.15.38c-.08.22-.15.45-.23.75,0,.07-.07.15-.07.22s-.08.23-.08.3a.3.3,0,0,1-.07.23c0,.15-.08.22-.08.37a.46.46,0,0,1-.07.3,5,5,0,0,0-.08,1v.9A.27.27,0,0,0,150,74v.22a4.91,4.91,0,0,0,.22.6.24.24,0,0,0,.08.15.42.42,0,0,1,.15.3c.07.08.07.15.15.23s.07.07.15.15a.74.74,0,0,0,.37.3l-3.3-2-.9-.53L144,71.81l-1-.6-1.42-.82h0L139.21,69l.6-.37.6-.38,1.72-1h0l1.2-.67,5.55-3.23,1.13-.67.9-.53,2.55,1.5Z" transform="translate(-14.11 -7.99)"/><path class="cls-4" d="M125.11,60.19Z" transform="translate(-14.11 -7.99)"/><path class="cls-4" d="M148.43,73.69l-.6.37-.82.45c-1.2-.67-2.48-1.42-3.75-2.17a7.73,7.73,0,0,0-1.13-.6c-.45-.23-.82-.53-1.27-.75s-1-.6-1.5-.83-.75-.45-1.05-.6l.82-.45.6-.37,2.4,1.42,1.73,1,.75.45,2,1.2Z" transform="translate(-14.11 -7.99)"/><path class="cls-4" d="M147,74.51h0c-1.2-.67-2.48-1.42-3.83-2.17a7.64,7.64,0,0,0-1.12-.6c-.45-.23-.83-.53-1.28-.75-.82-.45-1.65-1-2.55-1.5h0a10.07,10.07,0,0,1,1.05.6,14.9,14.9,0,0,0,1.5.82c.45.23.83.53,1.28.75a7.64,7.64,0,0,0,1.12.6q2,1.24,3.83,2.25" transform="translate(-14.11 -7.99)"/><path class="cls-4" d="M147.16,70.09l2.55-1.5a12.12,12.12,0,0,0-1.28,5.17l-1.42.83,1.42-.83a5,5,0,0,0-1.27-3.67" transform="translate(-14.11 -7.99)"/><path class="cls-6" d="M125.11,60.19Z" transform="translate(-14.11 -7.99)"/><path class="cls-6" d="M147,74.51c-1.2-.67-2.48-1.42-3.75-2.17a7.73,7.73,0,0,0-1.13-.6c-.45-.23-.82-.53-1.27-.75s-1-.6-1.5-.83-.75-.45-1.05-.6l.82-.45.6-.37.6-.38,2.48,1.43,2.47,1.42.3.15h.08c.07.08.22.15.3.23s.15.15.22.15v.07c.08.08.08.15.15.15.08.15.15.23.23.38s.07.15.15.22c.07.23.15.38.22.68v.22a.42.42,0,0,0,.08.3v.75" transform="translate(-14.11 -7.99)"/><path class="cls-5" d="M144.91,75.71a6.34,6.34,0,0,1-2.78,4.88l-2.85-1.65-1.72-1-1.05-.6-.9-.53-4.88-2.85,5.55-3.22,1.13-.68,2.7,1.58,1.12.67,1,.6,1.8,1c.07.08.15.08.22.15l.08.08c.07.07.07.07.07.15s.08.07.08.15a4.91,4.91,0,0,1,.22.6v.22a.59.59,0,0,1,.23.45" transform="translate(-14.11 -7.99)"/><path class="cls-5" d="M142.13,80.59a3.11,3.11,0,0,1-1.27.37h-.38c-.07,0-.15-.07-.22-.07s-.08,0-.15-.08l-2.85-1.65-1.13-.67-1.72-1-1.88-1.13-1.5-.9c-.52-.3-1-.6-1.5-.9l1.13-.67,4.87,2.85.9.52,1,.6,1.73,1Z" transform="translate(-14.11 -7.99)"/><path class="cls-7" d="M144.08,73.91h0c-.15-.07-.22-.15-.37-.15h-.38a1.77,1.77,0,0,0-.6.08c-.07,0-.22.07-.3.07a.53.53,0,0,1-.37.15l-1-.6-.75-.45-1.05-.6-3.07-1.8,1.12-.67,2.7,1.57,1.13.68,1,.6Z" transform="translate(-14.11 -7.99)"/><path class="cls-7" d="M142.06,74.14a3.32,3.32,0,0,0-.83.6L141,75a17.58,17.58,0,0,0-.45.6c-.08.08-.15.15-.15.23s-.15.22-.23.37-.15.23-.22.38l-.23.45a1.14,1.14,0,0,0-.15.52v.15c0,.15-.07.23-.07.38s-.08.22-.08.37v.9c0,.15.08.38.08.45s0,.15.07.15.08.15.15.23.08.15.15.22.08.08.15.15l.23.23-2.85-1.65-1.13-.68-1.72-1-1.88-1.12-1.5-.9-1.5-.9,1.13-.68,5.55-3.22,3.07,1.8,1,.6.75.45Z" transform="translate(-14.11 -7.99)"/><path class="cls-8" d="M142.06,74.14c1.57-.9,2.77-.15,2.85,1.57a6.34,6.34,0,0,1-2.78,4.88c-1.57.9-2.77.15-2.85-1.58a6.32,6.32,0,0,1,2.78-4.87" transform="translate(-14.11 -7.99)"/><path class="cls-5" d="M125.11,60.19Z" transform="translate(-14.11 -7.99)"/><path class="cls-5" d="M145.51,71.36c0-.07-.08-.07,0,0a.25.25,0,0,0-.15-.07.24.24,0,0,1-.15-.08h-.08c-.07,0-.15-.07-.22-.07h-1.13a.28.28,0,0,0-.22.07,1.14,1.14,0,0,0-.45.15H143c-.15.08-.22.08-.37.15l-.45.23L140.93,71l-2.55-1.5h0l.83-.45.6-.38.6-.37,2.47,1.42,2.48,1.43Z" transform="translate(-14.11 -7.99)"/><polygon class="cls-4" points="123.08 72.22 121.65 72.97 117.9 70.8 112.95 67.95 114.38 67.13 119.33 69.97 121.8 71.47 123.08 72.22"/><path class="cls-5" d="M138.61,83.36h0" transform="translate(-14.11 -7.99)"/><path class="cls-5" d="M142.06,71.74a3.32,3.32,0,0,0-.83.6c-.07,0-.07.07-.15.07l-.07.08s-.08,0-.08.07c-.15.08-.22.23-.37.3s-.23.15-.3.3l-.3.3a1.25,1.25,0,0,0-.3.38,5,5,0,0,0-.75,1,3.92,3.92,0,0,0-.38.6,6.82,6.82,0,0,0-.52,1.05c0,.07-.08.15-.08.22a.23.23,0,0,1-.07.15,5,5,0,0,0-.3.83c0,.07-.08.22-.08.3v.07c0,.08-.07.15-.07.23v.07c-.08.23-.08.38-.15.6s-.08.15-.08.3-.07.23-.07.38v1.57c0,.15.07.3.07.45s0,.15.08.15v.08c0,.07.07.15.07.22s0,.08.08.15a.65.65,0,0,1,.15.3,2,2,0,0,0,.82.75l-3.37-2-3.83-2.17-4.87-2.85.6-.38,1.42-.82,1-.53,1.12-.67L136,70.76l1.13-.67.9-.53,2.55,1.5Z" transform="translate(-14.11 -7.99)"/><path class="cls-1" d="M125.11,60.19Z" transform="translate(-14.11 -7.99)"/><polygon class="cls-1" points="145.65 54.75 145.05 55.05 143.7 55.8 143.63 55.8 143.1 56.1 141.68 56.92 140.7 57.45 140.7 57.45 139.5 58.13 137.4 59.33 135.45 60.45 133.88 61.35 132.82 61.95 132.68 62.02 132.68 62.02 130.95 63.08 130.88 63.08 130.35 63.38 129.75 63.75 128.93 64.2 127.95 64.72 126.83 65.4 124.72 66.6 122.78 67.72 121.28 68.63 120.08 69.3 119.1 69.83 117.67 70.65 117.08 70.95 110.03 75 105.15 72.15 110.03 69.3 112.2 68.03 112.8 67.65 114.22 66.83 115.2 66.3 116.33 65.63 121.88 62.4 123 61.73 123.9 61.2 123.9 61.2 124.72 60.75 125.33 60.38 125.92 60 127.65 58.95 127.65 58.95 128.85 58.27 134.4 55.05 135.53 54.38 136.43 53.85 136.5 53.85 137.85 53.1 137.93 53.1 138.53 52.73 139.88 51.98 140.48 51.67 142.43 52.8 143.33 53.33 143.55 53.4 143.7 53.48 143.85 53.55 144.23 53.78 144.3 53.78 145.65 54.75"/><path class="cls-10" d="M142.13,80.59a6.12,6.12,0,0,0,2.78-4.88c0-1.8-1.28-2.47-2.85-1.57A6.11,6.11,0,0,0,139.28,79C139.28,80.74,140.56,81.49,142.13,80.59Zm-.07-8.85c2.7-1.58,4.95-.3,4.95,2.77A10.8,10.8,0,0,1,142.13,83c-2.7,1.57-4.95.3-4.95-2.78A10.77,10.77,0,0,1,142.06,71.74Z" transform="translate(-14.11 -7.99)"/><path class="cls-11" d="M142.06,70.09c2-1.2,3.9-1.13,5,0a4.81,4.81,0,0,1,1.28,3.67l-1.43.83c0-3.15-2.25-4.35-5-2.78a10.9,10.9,0,0,0-4.87,8.48l-1.43.82A11.59,11.59,0,0,1,137,76a14.21,14.21,0,0,1,5.1-5.92" transform="translate(-14.11 -7.99)"/><polygon class="cls-4" points="110.25 79.65 101.55 74.55 105.3 72.38 110.25 75.22 110.25 79.65"/><path class="cls-4" d="M135.76,81l1.42-.83-12.82,7.43V83.21L137,75.86A13.48,13.48,0,0,0,135.76,81" transform="translate(-14.11 -7.99)"/><path class="cls-4" d="M104.18,98.66,99.61,96,98,95.06l-2-1.2.67-.37,2,1.2h0l.9.52,4,2.4v.3a.57.57,0,0,0,.15.38.83.83,0,0,0,.37.37" transform="translate(-14.11 -7.99)"/><polygon class="cls-1" points="89.55 89.63 85.5 87.22 84.6 86.7 82.58 85.5 84.22 84.53 85.42 83.85 88.28 82.2 89.55 82.95 89.55 89.63"/><path class="cls-12" d="M124.36,87.64l-19,11a1.2,1.2,0,0,1-1.2.15.78.78,0,0,1-.37-.45c-.08-.15-.08-.23-.15-.38v-8.4l12-6.9,3.75-2.17,4.87-2.85v5.7Z" transform="translate(-14.11 -7.99)"/><path class="cls-10" d="M154.73,73.31a6.11,6.11,0,0,0,2.78-4.87c0-1.8-1.28-2.48-2.85-1.58a6.12,6.12,0,0,0-2.78,4.88C152,73.46,153.16,74.21,154.73,73.31Zm0-8.85c2.7-1.57,5-.3,5,2.78a10.76,10.76,0,0,1-4.87,8.47c-2.7,1.58-4.95.3-4.95-2.77A10.47,10.47,0,0,1,154.73,64.46Z" transform="translate(-14.11 -7.99)"/><polygon class="cls-4" points="89.55 82.95 88.28 82.2 89.55 81.53 89.55 82.95"/><path class="cls-4" d="M93.23,104.44l.6.37a3.93,3.93,0,0,0-.6-.37m-3.6-2.1h0l.45.22Zm4.2,2.47h0c-.22-.15-.37-.22-.6-.37s-.52-.3-.75-.45c-.45-.3-.9-.53-1.42-.83-.23-.15-.53-.3-.75-.45h-.08c-.07,0-.15-.07-.22-.15l-.45-.22h0l-.23-.15-.22-.15L89,102l-1-.6s-.08,0-.08-.07l-.15-.08h-.07c-.08-.07-.15-.07-.23-.15h0c-.3-.22-.67-.37-1-.6s-.68-.37-1-.6h-.08l-.07.08,2,1.2h0l.38.22,1.27.75,4,2.33,1,.6v-.15C94,104.89,93.91,104.81,93.83,104.81Z" transform="translate(-14.11 -7.99)"/><path class="cls-11" d="M154.73,62.81c2-1.2,3.9-1.12,5-.07A4.85,4.85,0,0,1,161,66.41l-1.42.83c0-3.15-2.25-4.35-5-2.78a10.91,10.91,0,0,0-4.88,8.48l-1.42.82a12.25,12.25,0,0,1,1.27-5.17,13.75,13.75,0,0,1,5.1-5.78" transform="translate(-14.11 -7.99)"/><path class="cls-4" d="M95.48,104.14l-1.42.82c-.08-.07-.15-.07-.23-.15a2.64,2.64,0,0,1-.6-.37c-.22-.15-.52-.3-.75-.45-.45-.3-.9-.53-1.42-.83-.23-.15-.53-.3-.75-.45h-.08c-.07,0-.15-.07-.22-.15l-.45-.22h0l-.23-.15-.22-.15L89,102l-1-.6s-.08,0-.08-.07l-.15-.08h-.07c-.08-.07-.15-.07-.23-.15h0c-.3-.22-.67-.37-1-.6s-.68-.37-1-.6l-.23-.15c.08,0,.15.08.23.15l1.35-.75h.07c.68.38,1.35.83,2,1.2h0c.07.08.15.08.22.15l.23.15a4.48,4.48,0,0,1,.6.38c.3.15.52.3.82.45,1,.52,1.88,1.12,2.85,1.65.68.37,1.2.67,1.8,1" transform="translate(-14.11 -7.99)"/><polygon class="cls-13" points="89.55 82.95 85.5 85.28 85.42 83.85 88.28 82.2 89.55 81.53 89.55 82.95"/><polygon class="cls-13" points="85.5 85.28 84.22 84.53 85.42 83.85 85.5 85.28"/><path class="cls-5" d="M89.18,111a2.25,2.25,0,0,1-1.27.38.66.66,0,0,1-.38-.08.28.28,0,0,1-.22-.07h-.08c-.07,0-.07-.08-.15-.08l-2.85-1.65-1.12-.67L81.76,108l-1.88-1.13-1.2-.75-2-1.2.22-.15,1-.52,2,1.2,3.68,2.1,1,.6,1.8,1Z" transform="translate(-14.11 -7.99)"/><polygon class="cls-5" points="54.3 84.45 54.3 84.9 54.3 83.1 54.3 84.45"/><path class="cls-5" d="M68.41,98.36v0Z" transform="translate(-14.11 -7.99)"/><path class="cls-5" d="M92,106.16A6.34,6.34,0,0,1,89.18,111l-2.85-1.65-1.8-1-1-.6-3.67-2.1-2-1.2,4.88-2.78.75-.45,1.2-.67.15.07,1.87,1.13.53.3,1.12.67,2.85,1.65a1.68,1.68,0,0,1,.53.53c0,.07.07.15.07.22s.08.15.08.23a1,1,0,0,1,.07.45c.08.07.08.22.08.37" transform="translate(-14.11 -7.99)"/><path class="cls-4" d="M95.48,104.14c-.6-.3-1.12-.68-1.72-1-.9-.52-1.88-1-2.85-1.65-.3-.15-.53-.3-.83-.45a4.5,4.5,0,0,1-.6-.37c-.07-.08-.15-.08-.22-.15h0c-.08,0-.15-.08-.23-.15h0c-.67-.38-1.35-.75-2-1.2l.6-.38,2-1.12.9.52,1.12.68,2,1.12.15.08c.15.07.23.15.38.22l.22.23.23.22c.07.08.07.15.15.23s.15.22.22.3.08.15.15.22a5.17,5.17,0,0,1,.38,1.13c0,.07.07.22.07.3V103c0,.15.08.38.08.53a1.37,1.37,0,0,0-.08.6" transform="translate(-14.11 -7.99)"/><path class="cls-6" d="M93.83,104.81h0c-.22-.15-.37-.22-.6-.37s-.52-.3-.75-.45c-.45-.3-.9-.53-1.42-.83-.23-.15-.53-.3-.75-.45h-.08c-.07,0-.15-.07-.22-.15l-.45-.22c-.08-.08-.15-.08-.23-.15s-.15-.08-.22-.15c-.38-.23-.75-.38-1.13-.6a.07.07,0,0,1-.07-.08c-.08,0-.08-.07-.15-.07h-.08c-.07-.08-.15-.08-.22-.15h0c-.3-.23-.68-.38-1-.6s-.67-.38-1-.6l1.35-.75h.08l.6-.38,2,1.2.23.15,2.77,1.58h.08a2.79,2.79,0,0,1,1,1.35c.07.15.07.22.15.37a1,1,0,0,1,.07.45.66.66,0,0,0,.08.38v.6c.07,0,0-.08-.08-.08" transform="translate(-14.11 -7.99)"/><polygon class="cls-7" points="54.3 84.45 54.3 84.45 54.3 83.1 54.3 84.45"/><path class="cls-7" d="M91.13,104.36a.07.07,0,0,1-.07-.07H91c-.07,0-.07,0-.15-.08h-.37a3,3,0,0,0-1.28.38l-1.72-1-1-.6-.9-.53-.75-.45-1.35-.75,1.2-.67.15.07,1.87,1.13.53.3,1.12.67Z" transform="translate(-14.11 -7.99)"/><path class="cls-7" d="M68.41,92.44v0Z" transform="translate(-14.11 -7.99)"/><path class="cls-7" d="M68.41,98.36v0Z" transform="translate(-14.11 -7.99)"/><path class="cls-7" d="M89.18,104.51a5.3,5.3,0,0,0-2,2.1l-.22.45c0,.08-.08.15-.08.23s-.07.15-.07.22a1.33,1.33,0,0,0-.15.53c0,.07,0,.15-.08.15a.28.28,0,0,1-.07.22c0,.08-.08.23-.08.3a.74.74,0,0,1-.07.38v.9c0,.07,0,.15.07.15,0,.15.08.22.15.37s.08.15.15.23a.17.17,0,0,0,.15.15c.08.07.23.22.3.3l-2.85-1.65-1.12-.68-1.35-.75L80,107l-1.2-.75-2-1.2.22-.15,1-.53,4.87-2.77.75-.45,1.35.75.75.45.9.52,1.05.6Z" transform="translate(-14.11 -7.99)"/><path class="cls-8" d="M89.18,104.51c1.58-.9,2.78-.15,2.85,1.58A6.31,6.31,0,0,1,89.26,111c-1.58.9-2.78.15-2.85-1.57a5.94,5.94,0,0,1,2.77-4.88" transform="translate(-14.11 -7.99)"/><path class="cls-4" d="M84.23,110.59l-1.42.82c-.45-.3-1-.52-1.43-.82l-.3-.15c-.9-.53-1.87-1-2.77-1.65-.6-.3-1.13-.68-1.73-1-.07-.07-.15-.07-.22-.15a1.61,1.61,0,0,0-.6-.3,6.67,6.67,0,0,0-.6-.3.65.65,0,0,0-.3-.15c-.08,0-.08-.07-.15-.07a1.68,1.68,0,0,1-.45-.3l.6-.38.82-.45,2,1.2.45.23,4.42,2.55.38.22Z" transform="translate(-14.11 -7.99)"/><path class="cls-4" d="M82.88,111.41l-.6.38-.82.45c-1.58-.9-3.15-1.88-4.88-2.85-.45-.23-.82-.53-1.27-.75a.24.24,0,0,1-.15-.08.25.25,0,0,1-.15-.07h0c-.38-.23-.83-.45-1.28-.75-.3-.15-.52-.3-.82-.45h0a4.48,4.48,0,0,0-.6-.38,2,2,0,0,0,.6.3l.82-.45.53-.3h.07c.15.08.3.23.45.3s.08.08.15.08a.65.65,0,0,0,.3.15,19668661934039.63,19668661934039.63,0,0,0,1.2.6h0c.08.07.15.07.23.15.6.37,1.2.67,1.72,1,1,.53,1.88,1.13,2.78,1.65h0l.3.15c.45.3.9.6,1.42.9" transform="translate(-14.11 -7.99)"/><polygon class="cls-5" points="54.3 82.05 54.3 82.95 54.23 82.05 54.3 82.05"/><polygon class="cls-5" points="54.3 84.45 54.3 84.9 54.3 83.1 54.3 84.45"/><path class="cls-5" d="M68.41,98.36v0Z" transform="translate(-14.11 -7.99)"/><path class="cls-5" d="M89.18,102.11l-.07.08a4.4,4.4,0,0,0-.75.52c-.08,0-.08.08-.15.15s-.23.15-.3.23l-.23.22-.22.23-.23.22a3.14,3.14,0,0,0-.6.75c-.07.08-.15.15-.15.23-.15.15-.22.37-.37.52a4.48,4.48,0,0,0-.38.6c-.15.23-.22.45-.37.68a2.11,2.11,0,0,0-.3.75,5.47,5.47,0,0,1-.23.6c-.07.15-.07.3-.15.45s-.07.22-.07.3a.26.26,0,0,1-.08.22c0,.15-.07.23-.07.38a.44.44,0,0,1-.08.3c0,.15,0,.3-.07.37v.83a4,4,0,0,0,.22,1.42c.08.15.08.23.15.38s.08.22.15.3.08.15.15.22.08.08.15.15a.76.76,0,0,0,.38.3.07.07,0,0,1,.07.08l-3.07-1.8-.15-.08-.9-.52-3.9-2.25-1.5-.83-.23-.15-2-1.2.52-.3h.08l.6-.37.82-.45,1-.53L77,105l1-.52,4.87-2.78.75-.45,1.2-.67.15-.08.68-.37.07-.08,2,1.2h0l.37.23Z" transform="translate(-14.11 -7.99)"/><path class="cls-4" d="M63,101.51h0c-.23-.07-.38-.22-.6-.3a2.59,2.59,0,0,1,.6.3" transform="translate(-14.11 -7.99)"/><path class="cls-4" d="M81.46,112.24v.15c-.3-.15-.6-.38-.9-.53-1.35-.75-2.7-1.57-4.13-2.4-.37-.22-.82-.45-1.27-.75-.15-.07-.23-.15-.38-.22h0a7.64,7.64,0,0,0-1.12-.6,10.86,10.86,0,0,0-1-.53l.08-.07h.07a3.92,3.92,0,0,0-.6-.38,2.24,2.24,0,0,0,.6.3c.3.15.53.3.83.45a12,12,0,0,1,1.27.75c.08,0,.08.08.15.08s.08.07.15.07c.45.23.83.53,1.28.75q2.58,1.57,4.95,2.93" transform="translate(-14.11 -7.99)"/><path class="cls-5" d="M54.46,101.21h-.08c0-.07.08-.07.08,0h0" transform="translate(-14.11 -7.99)"/><path class="cls-5" d="M79.36,113.44a6.32,6.32,0,0,1-2.78,4.87l-2.85-1.65-.07-.07c-.53-.3-1.13-.68-1.65-1s-.68-.37-1.05-.6c-.15-.07-.23-.15-.38-.22-1.12-.6-2.17-1.28-3.3-1.88h0l-1.57-.9a12.17,12.17,0,0,1-1.35-.82c-.45-.3-.9-.53-1.35-.83v-3.75l5.47,3.15.38-.22,2-1.13h.07l2,1.13a6,6,0,0,1,.9.52c.37.23.75.45,1,.6.6.38,1.2.68,1.8,1a23.61,23.61,0,0,0,2.7,1.73" transform="translate(-14.11 -7.99)"/><polygon class="cls-6" points="54.3 81.97 54.3 82.95 54.23 82.05 54.23 81.97 54.3 81.97"/><polygon class="cls-6" points="54.3 84.45 54.3 84.9 54.3 83.1 54.3 84.45"/><path class="cls-6" d="M68.41,98.36v0Z" transform="translate(-14.11 -7.99)"/><path class="cls-6" d="M89.11,100.46a6.9,6.9,0,0,0-1.2.83l-.08.07c-.15.15-.37.3-.52.45l-.08.08a8.36,8.36,0,0,0-.82.9c-.15.15-.3.37-.45.52s-.38.45-.53.68a13.36,13.36,0,0,0-1.05,1.72l-.22.45-.23.45v.08l-.22.45a1,1,0,0,0-.15.45,1.33,1.33,0,0,0-.15.6,1.61,1.61,0,0,0-.15.6,3.34,3.34,0,0,0-.15.52c0,.15-.08.3-.08.45a11,11,0,0,0-.15,1.5v.08c-.45-.3-1-.53-1.42-.83l-.3-.15h0c-.9-.52-1.88-1-2.78-1.65-.6-.3-1.12-.67-1.72-1-.08-.08-.15-.08-.23-.15h0a1.42,1.42,0,0,0-.6-.3,3.34,3.34,0,0,0-.6-.3.51.51,0,0,0-.3-.15c-.07,0-.07-.08-.15-.08a1.47,1.47,0,0,1-.45-.3l.6-.37.83-.45,1-.53L77,105l1-.52,4.88-2.78.75-.45,1.2-.67.15-.08.67-.37.08-.08h.07l-.22-.15c.07,0,.15.08.22.15l1.35-.75,2,1.2Z" transform="translate(-14.11 -7.99)"/><path class="cls-4" d="M82.88,111.34h0c-.45-.23-1-.53-1.42-.75a.57.57,0,0,0-.3-.15h0c-.9-.53-1.88-1-2.78-1.65-.6-.3-1.12-.68-1.72-1-.08-.07-.15-.07-.23-.15h0a1.54,1.54,0,0,0-.6-.3,5.55,5.55,0,0,0-.6-.3.57.57,0,0,0-.3-.15c-.07,0-.07-.07-.15-.07a1.68,1.68,0,0,1-.45-.3l.6-.38.83-.45,1-.52L77,105l2,1.2,1.88,1.05c.07,0,.15.07.22.15s.15.07.23.15a.16.16,0,0,1,.15.15.83.83,0,0,1,.37.37l.08.08a3.6,3.6,0,0,1,.52.9c0,.07.08.22.08.3a.46.46,0,0,1,.07.3h0c0,.07.08.15.08.3s.07.3.07.45v.6a.37.37,0,0,1,.15.3" transform="translate(-14.11 -7.99)"/><path class="cls-5" d="M79.36,113.44c-.9-.53-1.88-1-2.78-1.65-.6-.38-1.2-.68-1.8-1.05-.37-.23-.75-.45-1-.6a5.28,5.28,0,0,1-.9-.53l-2-1.12,1.12-.6h0l1.8,1,.3.15.53.3,1.12.67,2.78,1.58h.07c.08,0,.08.07.15.07l.23.23a.4.4,0,0,1,.15.3c0,.15.07.22.15.37s.07.23.07.3v.15a.66.66,0,0,1,.08.38" transform="translate(-14.11 -7.99)"/><path class="cls-5" d="M76.51,118.31a2.25,2.25,0,0,1-1.28.38H75a.27.27,0,0,1-.23-.08h-.15a.25.25,0,0,1-.15-.07.07.07,0,0,1-.07-.08l-2.85-1.65-1.13-.67h0l-.45-.3L66.83,114a5.32,5.32,0,0,1-.82-.52c-1.05-.6-2.1-1.2-3.15-1.88v-1.35c.45.3.9.53,1.35.83s.9.52,1.35.82l1.57.9h0c1.13.6,2.18,1.28,3.3,1.88.15.07.23.15.38.22.37.23.67.38,1,.6s1.12.68,1.65,1l.07.07Z" transform="translate(-14.11 -7.99)"/><path class="cls-6" d="M63,101.51h0c-.23-.07-.38-.22-.6-.3a2.59,2.59,0,0,1,.6.3" transform="translate(-14.11 -7.99)"/><path class="cls-6" d="M81.46,112.24c-1.58-.9-3.15-1.88-4.88-2.85-.45-.23-.82-.53-1.27-.75-.08,0-.08-.08-.15-.08a.25.25,0,0,1-.15-.07h0c-.38-.23-.83-.45-1.28-.75-.3-.15-.52-.3-.82-.45h0a4.48,4.48,0,0,0-.6-.38,2,2,0,0,0,.6.3l.82-.45.53-.3h.07l.6-.37,2,1.2.22.15L80,109H80a2.17,2.17,0,0,1,.45.38l.08.07.22.23.08.07a.65.65,0,0,1,.15.3c.07.08.07.15.15.23s.15.52.22.82v.6a1.42,1.42,0,0,1,.08.53" transform="translate(-14.11 -7.99)"/><path class="cls-7" d="M78.46,111.56h0a.25.25,0,0,1-.15-.07h-.38a2.19,2.19,0,0,0-.67.07.57.57,0,0,0-.3.15.08.08,0,0,0-.08.08c-.07,0-.15.07-.22.15l-1.8-1-1-.6-.9-.53-2-1.12h0l1.12-.6,1.8,1,.3.15.53.3,1.12.67Z" transform="translate(-14.11 -7.99)"/><path class="cls-7" d="M54.46,101.21h-.08c0-.07.08-.07.08,0h0" transform="translate(-14.11 -7.99)"/><path class="cls-7" d="M73.73,116.66h0V117a.44.44,0,0,0,.08.3.28.28,0,0,0,.07.22c0,.08.08.15.08.23s.07.15.15.22l.22.23a.29.29,0,0,0,.15.07c.08,0,.08.08.15.08l-2.85-1.65-1.12-.68h0l-.45-.3-3.15-1.87-.83-.53-3.15-1.87v-5.1l5.48,3.15.37-.23,1.95-1.12H71l2,1.12.9.53,1,.6,1.8,1a7.12,7.12,0,0,0-2.93,5.17" transform="translate(-14.11 -7.99)"/><polygon class="cls-4" points="46.2 104.47 46.2 104.92 45.83 104.7 46.2 104.47"/><polygon class="cls-4" points="57.52 109.88 56.1 110.7 49.58 106.95 48.75 106.42 48.75 104.85 51 106.13 56.25 109.13 57.52 109.88"/><path class="cls-5" d="M54.46,101.21h-.08c0-.07.08-.07.08,0h0" transform="translate(-14.11 -7.99)"/><path class="cls-5" d="M46.88,105.19Z" transform="translate(-14.11 -7.99)"/><polygon class="cls-5" points="46.2 104.47 46.2 105.15 45.75 105.38 45.23 105.08 45.83 104.7 46.2 104.47"/><path class="cls-5" d="M76.51,109.39a.29.29,0,0,1-.15.07l-.08.08a2.09,2.09,0,0,0-.52.37l-.08.08c-.15.15-.37.3-.52.45l-.15.15-.08.07a.29.29,0,0,0-.07.15l-.38.38c-.22.22-.37.45-.6.67-.07.08-.15.15-.15.23s-.22.3-.3.45a2,2,0,0,0-.3.52c-.07.15-.15.23-.22.38v.07a.57.57,0,0,0-.15.38,9.43,9.43,0,0,0-.53,1.35c-.07.15-.07.3-.15.45s-.07.22-.07.3-.08.15-.08.22-.07.23-.07.38a.44.44,0,0,1-.08.3c0,.15-.07.3-.07.45v1.57a1,1,0,0,0,.15.45.3.3,0,0,0,.07.23c.08.15.08.22.15.37a.24.24,0,0,0,.08.15c0,.08.07.08.07.15s.15.15.15.23l.08.07.22.23.15.15-3.15-1.8L63,115.24l-.23-.15v-8.55l5.48,3.15.37-.23,2-1.12h.08l1.12-.6h0l.83-.45.07-.08.83.53,1.2.67.37.23Z" transform="translate(-14.11 -7.99)"/><path class="cls-5" d="M53.26,94.24h0" transform="translate(-14.11 -7.99)"/><path class="cls-5" d="M63,101.51h0c-.23-.07-.38-.22-.6-.3a2.59,2.59,0,0,1,.6.3" transform="translate(-14.11 -7.99)"/><path class="cls-5" d="M80,109h0c-.08,0-.08-.07-.15-.07s-.15-.08-.23-.08-.15-.07-.3-.07h-1a1.72,1.72,0,0,0-.83.22,2.71,2.71,0,0,0-.9.45h-.07l-1.28-.75-.37-.22-1.2-.68-.83-.52h.08a4.48,4.48,0,0,0-.6-.38,2,2,0,0,0,.6.3l.82-.45.53-.3h.07l.6-.37,2,1.2.22.15Z" transform="translate(-14.11 -7.99)"/><path class="cls-6" d="M63,101.51h0c-.23-.07-.38-.22-.6-.3a2.59,2.59,0,0,1,.6.3" transform="translate(-14.11 -7.99)"/><path class="cls-6" d="M54.46,101.21h-.08c0-.07.08-.07.08,0h0" transform="translate(-14.11 -7.99)"/><polygon class="cls-6" points="46.2 104.47 46.2 104.92 45.83 104.7 46.2 104.47"/><path class="cls-6" d="M76.51,107.81c-.15.08-.38.23-.53.3a6.08,6.08,0,0,1-.75.53l-.07.07a2.28,2.28,0,0,0-.6.6c-.08.08-.23.15-.3.3l-.15.15c-.08.15-.23.23-.38.38a13.08,13.08,0,0,0-1,1.2c-.08.15-.23.3-.3.45a9.14,9.14,0,0,0-.75,1.2l-.23.45-.22.45a3.78,3.78,0,0,0-.23.52,1.14,1.14,0,0,0-.15.53l-.22.67c-.08.15-.08.38-.15.53h0a2,2,0,0,1-.15.52c0,.15-.08.3-.08.53a11.91,11.91,0,0,0-.15,1.57L63.61,115l-.83-.52v-7.88l5.48,3.15.37-.22,2-1.13h.08l1.12-.6h0l.83-.45.07-.07h.08a4.48,4.48,0,0,0-.6-.38,2,2,0,0,0,.6.3l.82-.45.53-.3,2,1.2Z" transform="translate(-14.11 -7.99)"/><path class="cls-5" d="M92.56,101.74h0a1.12,1.12,0,0,0-.38-.15c-.07,0-.15-.08-.3-.08a.28.28,0,0,1-.22-.07h-1a.3.3,0,0,0-.23.07.57.57,0,0,0-.37.15c-.08,0-.15.08-.23.08s-.15.07-.22.07l-.45.23H89l-1.27-.75a11.23,11.23,0,0,1,1.2-.83l-.23-.15h0l-2-1.2h.07l.6-.37,2,1.2.22.15Z" transform="translate(-14.11 -7.99)"/><polygon class="cls-6" points="54.23 79.5 54.23 79.5 54.23 78.08 54.23 79.5"/><path class="cls-6" d="M70.43,88.84Z" transform="translate(-14.11 -7.99)"/><path class="cls-6" d="M93.53,100c-.07,0-.07-.07-.15-.07s-.22-.08-.37-.15a.24.24,0,0,1-.15-.08h-.08a.49.49,0,0,1-.3-.07H91.21a1.33,1.33,0,0,0-.53.15c-.07,0-.15.07-.3.07s-.15.08-.3.08-.15.07-.3.15-.22.07-.3.15-.22.07-.3.15h-.07l-.23-.15-2-1.2h.07l.6-.38,2-1.12.9.52,1.13.68Z" transform="translate(-14.11 -7.99)"/><path class="cls-10" d="M89.18,111A6.11,6.11,0,0,0,92,106.09c0-1.8-1.28-2.48-2.85-1.58a6.12,6.12,0,0,0-2.78,4.88C86.33,111.19,87.61,111.86,89.18,111Zm0-8.85c2.7-1.57,4.95-.3,4.95,2.78V105a11,11,0,0,1-4.87,8.32c-2.63,1.5-4.8.38-5-2.62v-.15A10.51,10.51,0,0,1,89.18,102.11Z" transform="translate(-14.11 -7.99)"/><path class="cls-11" d="M89.11,100.46c3.45-2,6.3-.37,6.3,3.6l-1.43.83c0-3.08-2.25-4.35-5-2.78a10.9,10.9,0,0,0-4.87,8.48l-1.43.82a14.36,14.36,0,0,1,6.38-11" transform="translate(-14.11 -7.99)"/><polygon class="cls-13" points="54.3 81.97 54.3 82.95 54.23 82.05 54.23 81.97 54.3 81.97"/><polygon class="cls-13" points="54.23 79.5 54.23 79.5 54.23 78.08 54.23 79.5"/><path class="cls-13" d="M70.43,88.84Z" transform="translate(-14.11 -7.99)"/><path class="cls-13" d="M85.51,99.94h0l-.23-.15c.08.07.15.15.23.15" transform="translate(-14.11 -7.99)"/><path class="cls-6" d="M53.26,94.24h0" transform="translate(-14.11 -7.99)"/><path class="cls-6" d="M80.78,107.21c-.07-.07-.15-.07-.3-.15s-.22-.07-.3-.07-.15-.08-.3-.08a2.65,2.65,0,0,0-1,0,.62.62,0,0,0-.37.08.46.46,0,0,0-.3.07,5.65,5.65,0,0,0-1,.38,3.72,3.72,0,0,0-.6.3h-.07l-.23-.15-2-1.2h.07l.6-.38.83-.45,1-.52.23-.15,2,1.2,1.8,1.12" transform="translate(-14.11 -7.99)"/><polygon class="cls-4" points="68.78 103.42 70.13 102.6 70.13 102.75 68.33 103.88 67.35 104.4 67.35 104.25 68.17 103.72 68.78 103.42"/><path class="cls-4" d="M99.61,100.69a2.3,2.3,0,0,1-1,1.8l-4.5,2.62V105l1.42-.82v-1.58c0-.15-.07-.3-.07-.45a.65.65,0,0,0-.15-.3c-.08-.15-.08-.22-.15-.37s-.08-.15-.15-.23-.08-.07-.08-.15-.07-.07-.07-.15-.08-.15-.15-.22l-.23-.23-.22-.22c-.08,0-.08-.08-.15-.08s-.08-.07-.15-.07h-.08c-.07-.08-.15-.08-.22-.15s-.23-.08-.38-.15-.15,0-.15-.08H91.36a1.51,1.51,0,0,0-.53.15c-.07,0-.15.08-.3.08s-.15.07-.3.07h-.15c-.07,0-.07,0-.15.08s-.22.07-.3.15-.22.07-.3.15h-.07c-.08.07-.23.15-.3.22s-.23.15-.3.23-.38.22-.53.37h-.07l-.08.08c-.15.15-.37.3-.52.45l-.08.07a8.36,8.36,0,0,0-.82.9c-.15.15-.3.38-.45.53s-.38.45-.53.67a14.21,14.21,0,0,0-1,1.73l-.22.45-.23.45v.07l-.22.45a1,1,0,0,0-.15.45,23120353147381.89,23120353147381.89,0,0,1-.3,1.2,3.19,3.19,0,0,0-.15.53c0,.15-.08.3-.08.45a10.74,10.74,0,0,0-.15,1.5v-1.43c0-.07-.07-.22-.07-.3s-.08-.22-.08-.3-.07-.22-.07-.3a2.62,2.62,0,0,0-.53-.9l-.07-.07c-.15-.15-.23-.3-.38-.38l-.07-.07-.08-.08c-.07-.07-.15-.07-.22-.15s-.15-.07-.23-.15S81.08,107,81,107h-.15c-.08,0-.08,0-.15-.08h-.23a3.45,3.45,0,0,0-1.2,0h-.22a.42.42,0,0,0-.3.08c-.15.07-.3.07-.45.15s-.3.07-.38.15-.07,0-.15.07a.65.65,0,0,0-.3.15h-.15c-.07,0-.07.08-.15.08H77c-.15.07-.37.22-.52.3a7,7,0,0,1-.75.52l-.08.08a2.28,2.28,0,0,0-.6.6,1.21,1.21,0,0,0-.3.3l-.15.15c-.07.15-.22.22-.37.37a14.38,14.38,0,0,0-1,1.2c-.07.15-.22.3-.3.45a12.35,12.35,0,0,0-.75,1.2l-.22.45-.23.45a3.55,3.55,0,0,0-.22.53,1,1,0,0,0-.15.52l-.23.68c-.07.15-.07.37-.15.52h0a1.81,1.81,0,0,1-.15.53c0,.15-.07.3-.07.52a10.56,10.56,0,0,0-.15,1.58l1.42-.83v.15l-1.87,1-6.53,3.75-2,1.13v-7.73l1.58-.9.22-.15.6-.37,1.43-.83,1-.52,1.13-.68h0l3.6-2.1,1.95-1.12.82-.53.3-.15.83-.45h0l.07-.07h.08l.82-.45.53-.3h.07l.6-.38.83-.45,1-.52.23-.15,1-.53,4.88-2.77.75-.38,1.2-.67.82-.45h0l.08-.08,1.35-.75h0l.07-.07h0l.6-.38.9-.52,1.13-.68,6.45-3.75.67-.37h0l.9-.53v1.8Z" transform="translate(-14.11 -7.99)"/><polygon class="cls-14" points="76.35 91.5 75.45 92.03 74.85 92.33 74.85 92.4 74.78 92.4 73.5 93.15 73.42 93.15 73.35 93.22 73.28 93.22 72.53 93.67 71.33 94.35 70.58 94.8 70.58 93.97 70.58 92.63 70.58 92.4 71.25 92.03 71.4 91.95 72.75 91.2 72.83 91.13 73.42 90.83 75.38 89.7 76.35 89.1 76.35 90.22 76.35 91.5"/><path class="cls-10" d="M76.51,118.31a6.12,6.12,0,0,0,2.77-4.87c0-1.8-1.27-2.48-2.85-1.58a6.14,6.14,0,0,0-2.77,4.88C73.73,118.46,75,119.14,76.51,118.31Zm0-8.92c2.7-1.58,4.95-.3,4.95,2.77v.15a11.06,11.06,0,0,1-4.88,8.33c-2.62,1.5-4.8.37-5-2.63v-.15A10.89,10.89,0,0,1,76.51,109.39Z" transform="translate(-14.11 -7.99)"/><polygon class="cls-3" points="54.3 84.45 54.3 84.9 54.3 83.1 54.3 84.45"/><polygon class="cls-3" points="70.58 93.97 70.58 94.8 68.55 93.6 69.3 93.22 70.42 92.55 70.58 92.4 70.58 92.63 70.58 93.97"/><path class="cls-8" d="M76.51,111.86c1.57-.9,2.85-.15,2.85,1.58a6.32,6.32,0,0,1-2.78,4.87c-1.57.9-2.77.15-2.85-1.57a6.11,6.11,0,0,1,2.78-4.88" transform="translate(-14.11 -7.99)"/><path class="cls-11" d="M76.51,107.81c3.52-2,6.3-.37,6.37,3.6l-1.42.83c0-3.08-2.25-4.35-4.95-2.78a10.91,10.91,0,0,0-4.88,8.48l-1.42.82a13.84,13.84,0,0,1,6.3-11" transform="translate(-14.11 -7.99)"/><path class="cls-13" d="M63,101.51h0c-.23-.07-.38-.22-.6-.3a2.59,2.59,0,0,1,.6.3" transform="translate(-14.11 -7.99)"/><path class="cls-13" d="M72.91,107.21h0c-.23-.07-.38-.22-.6-.3.22.08.37.23.6.3" transform="translate(-14.11 -7.99)"/><path class="cls-3" d="M54.46,101.21h-.08c0-.07.08-.07.08,0h0" transform="translate(-14.11 -7.99)"/><polygon class="cls-3" points="56.7 102.83 54.67 101.63 56.63 100.5 56.7 100.5 56.7 100.42 56.7 100.5 56.7 102.83"/><polygon class="cls-14" points="59.63 100.8 59.63 101.17 58.73 101.63 58.73 101.7 56.7 102.83 56.7 100.5 56.7 100.42 57.83 99.83 58.65 99.38 58.73 99.3 58.8 99.22 59.55 98.78 59.55 99.9 59.63 100.8"/><polygon class="cls-4" points="54.3 81.97 54.3 82.95 54.23 82.05 54.23 81.97 54.3 81.97"/><polygon class="cls-4" points="54.23 79.5 54.23 79.5 54.23 78.08 54.23 79.5"/><path class="cls-4" d="M70.43,88.84Z" transform="translate(-14.11 -7.99)"/><polygon class="cls-4" points="54.3 84.45 54.3 84.9 54.3 83.1 54.3 84.45"/><path class="cls-4" d="M68.41,98.36v0Z" transform="translate(-14.11 -7.99)"/><path class="cls-4" d="M125.11,60.19Z" transform="translate(-14.11 -7.99)"/><polygon class="cls-15" points="54.3 81.97 54.3 82.95 54.23 82.05 54.23 81.97 54.3 81.97"/><polygon class="cls-15" points="54.23 79.5 54.23 79.5 54.23 78.08 54.23 79.5"/><polygon class="cls-15" points="54.3 84.45 54.3 84.9 54.3 83.1 54.3 84.45"/><path class="cls-15" d="M70.43,88.84Z" transform="translate(-14.11 -7.99)"/><path class="cls-15" d="M125.11,60.19Z" transform="translate(-14.11 -7.99)"/><polygon class="cls-4" points="54.3 81.97 54.3 82.95 54.23 82.05 54.23 81.97 54.3 81.97"/><polygon class="cls-4" points="54.3 84.45 54.3 84.9 54.3 83.1 54.3 84.45"/><polygon class="cls-4" points="54.23 79.5 54.23 79.5 54.23 78.08 54.23 79.5"/><path class="cls-4" d="M70.43,88.84Z" transform="translate(-14.11 -7.99)"/><path class="cls-4" d="M125.11,60.19Z" transform="translate(-14.11 -7.99)"/><polygon class="cls-15" points="54.23 79.5 54.23 79.5 54.23 78.08 54.23 79.5"/><polygon class="cls-4" points="54.23 79.5 54.23 79.5 54.23 78.08 54.23 79.5"/><path class="cls-16" d="M125.11,60.19ZM70.43,88.84Zm95.33-46.73V22.54l-5,2.92-2.55,1.43L156,28.16l-2.55,1.43-2.18,1.27-2.55,1.43L68.26,78.79v8.85h0V93h0v16.87l.37-.22,2-1.13h.08l1.12-.6h0l.83-.45.07-.07h.08a4.48,4.48,0,0,0-.6-.38,2,2,0,0,0,.6.3l.82-.45.53-.3h.07l.6-.37.83-.45,1-.53.23-.15,1-.52,4.88-2.78.75-.45,1.2-.67.15-.08.67-.37.08-.08h.07l-.22-.15c.07,0,.15.08.22.15l1.35-.75H87l.6-.37,2-1.13.9-.52L96,94.16l.67-.37,1.73-1,1.2-.67,2.85-1.65,1.2-.68,12-6.9,3.75-2.17,4.87-2.85,2.18-1.28.6-.37,1.42-.83,1-.52,1.12-.68L136.13,71l1.13-.68.9-.52h0l.82-.45.6-.38.6-.37,1.73-1,1.2-.68,5.55-3.22,1.12-.68.9-.52h.08l1.35-.75h.07l.6-.38,1.35-.75.6-.3h.08l.9-.52L158,58.46l1.65-.9,1.27-.75,2-1.12,1.58-.9,1.27-.75Z" transform="translate(-14.11 -7.99)"/><polygon class="cls-17" points="54.23 79.5 54.23 79.5 54.23 78.08 54.23 79.5"/><polygon class="cls-17" points="54.3 81.97 54.3 82.95 54.23 82.05 54.23 81.97 54.3 81.97"/><polygon class="cls-17" points="54.3 84.45 54.3 84.9 54.3 83.1 54.3 84.45"/><path class="cls-17" d="M68.41,98.36v0Z" transform="translate(-14.11 -7.99)"/><path class="cls-17" d="M72.91,107.21h0c-.23-.07-.38-.22-.6-.3.22.08.37.23.6.3" transform="translate(-14.11 -7.99)"/><path class="cls-17" d="M85.51,99.94h0l-.23-.15c.08.07.15.15.23.15" transform="translate(-14.11 -7.99)"/><path class="cls-15" d="M68.41,98.36v0Z" transform="translate(-14.11 -7.99)"/><path class="cls-5" d="M41.63,120.34l-.52,4.12-1.43,3.75c0,.08-.07.23-.07.3-.08.38-.15,1-.23,1.58,0,.15-.07.3-.07.45a7.21,7.21,0,0,0-.08,1.27l-.22-.15-5.48-3.22L29,125.81l-6-3.52-1.12-.68a4.57,4.57,0,0,1-.68-.6,2.89,2.89,0,0,1-.6-1.27,3.86,3.86,0,0,1-.07-.38c0-.15-.08-.3-.08-.45v-.75a11,11,0,0,1,4.2-7.72Z" transform="translate(-14.11 -7.99)"/><path class="cls-5" d="M46.66,136.09h0l-3.15-1.8,1.87-1v.6a.44.44,0,0,0,.08.3.28.28,0,0,0,.07.22,1.14,1.14,0,0,0,.15.45.57.57,0,0,0,.15.3v.08c.08.07.08.15.15.22s.08.08.08.15l.22.23a1.11,1.11,0,0,0,.3.22.08.08,0,0,1,.08.08" transform="translate(-14.11 -7.99)"/><path class="cls-5" d="M50.26,124.54A10.89,10.89,0,0,0,45.38,133l-1.42.83v-.68a2,2,0,0,1,.07-.6.62.62,0,0,1,.08-.37,11.89,11.89,0,0,1,.37-1.65v-.08c0-.07.08-.15.08-.22s.07-.15.07-.3,0-.08.08-.15.15-.38.22-.53a4.07,4.07,0,0,1,.38-.75.07.07,0,0,1,.07-.07c.08-.15.15-.23.23-.38a1.74,1.74,0,0,1,.3-.52c.07-.15.15-.23.22-.38s.23-.37.38-.6a.25.25,0,0,0,.07-.15c.15-.22.3-.37.45-.6l.08-.07c.15-.23.3-.38.45-.6a.55.55,0,0,1,.3-.3c.15-.15.22-.3.37-.38l.53-.52c.07-.08.22-.15.3-.3Z" transform="translate(-14.11 -7.99)"/><path class="cls-10" d="M50.33,133.39c-1.57.9-2.85.15-2.85-1.58a6.32,6.32,0,0,1,2.78-4.87c1.57-.9,2.77-.15,2.85,1.57a6.34,6.34,0,0,1-2.78,4.88m-.07-8.85A10.89,10.89,0,0,0,45.38,133v.75a.42.42,0,0,0,.08.3.3.3,0,0,0,.07.23,1.14,1.14,0,0,0,.15.45.65.65,0,0,0,.15.3v.07c.08.08.08.15.15.23s.08.07.08.15l.22.22a1.11,1.11,0,0,0,.3.23.8.8,0,0,1,.15.15s.08,0,.08.07c.9.53,2.1.45,3.52-.37a10.92,10.92,0,0,0,4.88-8.33v-.15C55.21,124.24,53,123,50.26,124.54Z" transform="translate(-14.11 -7.99)"/><path class="cls-8" d="M50.33,126.94c1.58-.9,2.78-.15,2.85,1.57a6.33,6.33,0,0,1-2.77,4.88c-1.58.9-2.85.15-2.85-1.58a5.92,5.92,0,0,1,2.77-4.87" transform="translate(-14.11 -7.99)"/><polygon class="cls-18" points="46.2 104.47 46.2 105.15 45.75 105.38 39.9 108.75 39.9 108.15 45.23 105.08 45.83 104.7 46.2 104.47"/><polygon class="cls-15" points="54.3 81.97 54.3 82.95 54.23 82.05 54.23 81.97 54.3 81.97"/><polygon class="cls-15" points="54.3 84.45 54.3 84.9 54.3 83.1 54.3 84.45"/><path class="cls-11" d="M56.63,126.56l-1.42.83c0-3.08-2.25-4.35-5-2.78a10.91,10.91,0,0,0-4.88,8.48l-1.42.82v-.75a2,2,0,0,1,.07-.6.62.62,0,0,1,.08-.37,11.89,11.89,0,0,1,.37-1.65v-.08c0-.07.08-.15.08-.22s.07-.15.07-.3,0-.08.08-.15.15-.38.22-.53a4.07,4.07,0,0,1,.38-.75.07.07,0,0,1,.07-.07c.08-.15.15-.23.23-.38a1.74,1.74,0,0,1,.3-.52c.07-.15.15-.23.22-.38s.23-.37.38-.6a.25.25,0,0,0,.07-.15c.15-.22.3-.37.45-.6l.08-.07c.15-.23.3-.38.45-.6a.55.55,0,0,1,.3-.3c.15-.15.22-.3.37-.38l.53-.52c.07-.08.22-.15.3-.3s.22-.15.3-.23.22-.15.3-.22.22-.15.3-.23.22-.15.3-.22c3.52-1.8,6.37-.23,6.37,3.82" transform="translate(-14.11 -7.99)"/><polygon class="cls-15" points="54.23 79.5 54.23 79.5 54.23 78.08 54.23 79.5"/><polygon class="cls-19" points="54.3 101.4 54.3 101.85 48.83 98.63 48.83 98.25 48.9 96 48.9 95.85 48.9 94.58 48.9 93.67 48.9 93.53 48.9 92.55 48.9 91.95 48.9 91.88 48.9 91.2 48.9 90.3 48.9 89.17 48.9 88.95 48.9 88.8 48.98 87.22 48.98 84.38 48.98 82.8 48.98 82.28 48.98 81.9 49.05 80.25 49.05 79.88 49.05 79.13 48.67 78.9 46.2 77.47 36.3 71.7 33.75 70.28 31.57 69 29.25 67.65 29.25 67.42 29.18 64.95 29.18 62.02 29.18 56.17 34.2 59.1 36.75 60.6 38.92 61.88 41.48 63.3 43.58 64.58 46.13 66.08 54.23 70.72 54.23 76.28 54.23 76.58 54.23 77.4 54.23 79.65 54.23 79.95 54.23 82.05 54.3 82.95 54.3 84.9 54.3 85.28 54.3 87.45 54.3 90.38 54.3 92.25 54.3 93.38 54.3 95.1 54.3 95.7 54.3 97.8 54.3 99.08 54.3 99.15 54.3 101.4"/><path class="cls-17" d="M53.26,94.24h0" transform="translate(-14.11 -7.99)"/><path class="cls-17" d="M54.46,101.21h-.08c0-.07.08-.07.08,0h0" transform="translate(-14.11 -7.99)"/><path class="cls-17" d="M63,101.51h0c-.23-.07-.38-.22-.6-.3a2.59,2.59,0,0,1,.6.3" transform="translate(-14.11 -7.99)"/><path class="cls-4" d="M44.78,118.24h0l-.07-.08v0l.07.08" transform="translate(-14.11 -7.99)"/><path class="cls-4" d="M54.46,101.21h-.08c0-.07.08-.07.08,0h0" transform="translate(-14.11 -7.99)"/><path class="cls-20" d="M44.78,118.24h0l-.07-.08v0l.07.08" transform="translate(-14.11 -7.99)"/><path class="cls-20" d="M54.46,101.21h-.08c0-.07.08-.07.08,0h0" transform="translate(-14.11 -7.99)"/><polygon class="cls-18" points="46.2 106.28 39.9 109.95 39.9 109.28 46.2 105.67 46.2 106.28"/><path class="cls-20" d="M46.88,105.19Z" transform="translate(-14.11 -7.99)"/><path class="cls-17" d="M62.41,101.14a2.64,2.64,0,0,1,.6.37c-.23-.15-.38-.22-.6-.37M52.51,117l-3.08,1.73a.9.9,0,0,0-.37.67c0,.23.15.38.37.23l3.08-1.73a.9.9,0,0,0,.37-.67C52.88,117,52.66,116.81,52.51,117Zm-5.63-11.77ZM44.63,118v0C44.71,118.09,44.63,118.09,44.63,118Z" transform="translate(-14.11 -7.99)"/><path class="cls-16" d="M54,117.94v-.68l6.3-3.67v.67Zm6.3-2.48L54,119.14v-.6l6.3-3.6Zm-6.3.68,5.32-3.08.6-.37.38-.23v.6l-.45.23L54,116.66Zm-.9-2.63a3.49,3.49,0,0,1-1.28,1.58l-6.22,3.6a1.51,1.51,0,0,1-.6.15.93.93,0,0,1-.9-1v-.3l.52-4.57v-.23a12.8,12.8,0,0,1,.38-1.57v-.08l1.5-5.4a.25.25,0,0,0,.07-.15l.23-.45a4.7,4.7,0,0,1,.75-.9c.07-.07.15-.15.22-.15l1.13-.67,4.27-2.48.15-.07h0l.15-.08.08-.07h0c.07,0,.07-.08.15-.08a.7.7,0,0,1,.37-.07.93.93,0,0,1,.9,1v4.28a7.41,7.41,0,0,1-.22,1.2c-.08.15-.08.3-.15.45l-.15.52-.38,1.43-.15.6Zm-.6,4.35-3.08,1.73c-.22.15-.37,0-.37-.23a.9.9,0,0,1,.37-.67L52.51,117c.22-.15.37,0,.37.23A.9.9,0,0,1,52.51,117.86ZM62.63,87.41c-.07,0-.07.08-.15.08-.22.15-.6.37-1,.6l-.68.45c-.07.07-.22.15-.3.22a16.93,16.93,0,0,0-1.65,1.13c-.67.45-1.42,1-2.25,1.65a15.44,15.44,0,0,0-1.35,1c-.67.52-1.35,1.12-2,1.72h-.08c-.15.15-.3.23-.45.38s-.45.37-.67.6c-.53.45-1,1-1.5,1.5s-.9,1-1.35,1.42l-.08.08c0,.07-.07.07-.07.15s-.08.07-.15.15c-.68.75-1.28,1.5-1.95,2.32s-1.05,1.43-1.58,2.18c-.07.07-.15.22-.22.3-.23.37-.45.67-.68,1-.07.07-.07.15-.15.3s-.15.3-.07.3h0c.15.07.82-.3,1-.15V105a.3.3,0,0,1-.07.23,5.56,5.56,0,0,0-.3.75c-.15.3-.23.6-.38.9s-.22.6-.37.9-.15.37-.23.6-.15.45-.22.75v.07a6.57,6.57,0,0,0-.3,1c-.15.52-.3,1.12-.45,1.65a7.3,7.3,0,0,0-.3,1.27c-.08.3-.15.6-.23.83a.61.61,0,0,1-.07.3c-.08.22-.08.37-.15.6s-.08.37-.08.52a5.54,5.54,0,0,0-.15,1v.3a3,3,0,0,0-.07.75c-.08.75-.15,1.43-.15,1.88v1l-.53,4.12-1.42,3.75c0,.08-.08.23-.08.3-.07.38-.15,1-.22,1.58,0,.15-.08.3-.08.45a8.23,8.23,0,0,0-.07,1.27v5.1l4.35-2.55,1.87-1.05V133l-1.42.83v-.68a2,2,0,0,1,.07-.6.62.62,0,0,1,.08-.37,11.89,11.89,0,0,1,.37-1.65v-.08c0-.07.08-.15.08-.22s.07-.15.07-.3,0-.08.08-.15.15-.38.22-.53a4.07,4.07,0,0,1,.38-.75.07.07,0,0,1,.07-.07c.08-.15.15-.23.23-.38a1.74,1.74,0,0,1,.3-.52c.07-.15.15-.23.22-.38s.23-.37.38-.6a.25.25,0,0,0,.07-.15c.15-.22.3-.37.45-.6l.08-.07c.15-.23.3-.38.45-.6a.55.55,0,0,1,.3-.3c.15-.15.22-.3.37-.38l.53-.52c.07-.08.22-.15.3-.3s.22-.15.3-.23.22-.15.3-.22.22-.15.3-.23.22-.15.3-.22c3.52-2,6.3-.38,6.37,3.6l-1.42.82v.15l6.07-3.52v-7.73l1.58-.9V101.51c-.23-.15-.38-.22-.6-.37.22.07.37.22.6.3V87.11C63.08,87.11,62.93,87.19,62.63,87.41Z" transform="translate(-14.11 -7.99)"/><polygon class="cls-18" points="46.2 106.8 46.2 107.47 39.9 111.08 39.9 110.47 46.2 106.8"/><path class="cls-21" d="M70.43,88.84Z" transform="translate(-14.11 -7.99)"/><path class="cls-21" d="M125.11,60.19Z" transform="translate(-14.11 -7.99)"/><polygon class="cls-22" points="25.05 128.78 0.07 114.22 0 111 0 109.72 5.17 112.65 9 114.9 14.63 118.2 19.43 120.97 24.82 124.13 25.05 124.28 25.05 128.78"/><polygon class="cls-23" points="151.65 14.55 146.55 17.48 144.07 18.9 141.9 20.1 139.43 21.6 137.25 22.8 134.7 24.3 54.23 70.72 46.13 66.08 43.58 64.58 41.48 63.3 38.92 61.88 36.75 60.6 34.2 59.1 29.18 56.17 126.6 0 151.65 14.55"/><path class="cls-24" d="M45.31,104.89a.26.26,0,0,1-.08.22c-.07.23-.22.45-.3.75s-.22.6-.37.9-.23.6-.38.9-.15.38-.22.6-.15.45-.23.75v.08a7.42,7.42,0,0,0-.3,1c-.15.53-.3,1.13-.45,1.65a8.47,8.47,0,0,0-.3,1.28c-.07.3-.15.6-.22.82a.53.53,0,0,1-.08.3c-.07.23-.07.38-.15.6s-.07.38-.07.53a4.67,4.67,0,0,0-.15,1.05v.3a2.63,2.63,0,0,0-.08.75c-.07.75-.15,1.42-.15,1.87v1.05l-17-9.9-2.18-1.27-5.85-3.38a42.19,42.19,0,0,1,3.45-14.85c.6.38,1.2.68,1.8,1,2.7,1.58,5.48,3.15,8.18,4.73,4.72,2.77,9.45,5.47,14.17,8.25h0c.15.07.83-.3,1-.15v.15" transform="translate(-14.11 -7.99)"/><path class="cls-23" d="M63.16,87.11a1.33,1.33,0,0,0-.45.3c-.08,0-.08.08-.15.08l-1,.6-.67.45c-.08.07-.23.15-.3.22A15.8,15.8,0,0,0,59,89.89c-.68.45-1.43,1-2.25,1.65a15.44,15.44,0,0,0-1.35,1c-.68.52-1.35,1.12-2,1.72h-.07c-.15.15-.3.23-.45.38s-.45.37-.68.6c-.52.45-1,1-1.5,1.5s-.9,1-1.35,1.42l-.07.08c0,.07-.08.07-.08.15s-.07.07-.15.15c-.67.75-1.27,1.5-1.95,2.32-.52.68-1.05,1.43-1.57,2.18-.08.07-.15.22-.23.3-.22.37-.45.67-.67,1-.08.07-.08.15-.15.3s-.15.3-.08.3c-4.72-2.78-9.45-5.48-14.17-8.25-2.7-1.58-5.48-3.15-8.18-4.73-.6-.37-1.2-.67-1.8-1-.3-.15-.52-.3-.82-.45-.08,0-.08-.15.07-.37,5.63-9.53,16-15.9,18.3-17.25.3-.15.45-.23.45-.3l5.25,3.07,2.4,1.35L48,78.34l2.55,1.5,9.9,5.77L62.86,87Z" transform="translate(-14.11 -7.99)"/><path class="cls-25" d="M53.26,94.24h0" transform="translate(-14.11 -7.99)"/><path class="cls-22" d="M41.63,120.34l-.52,4.12-1.43,3.75c0,.08-.07.23-.07.3-.08.38-.15,1-.23,1.58,0,.15-.07.3-.07.45a7.21,7.21,0,0,0-.08,1.27v.53l-.22-.15L33.53,129l-4.72-2.78L23.18,123l-3.82-2.25-5.18-3a4.63,4.63,0,0,1,.08-1v-.23a7.75,7.75,0,0,1,.15-1.35.7.7,0,0,1,.07-.37v-.15a9.75,9.75,0,0,1,.23-1l1.42-3.75.53-4.12,5.85,3.37,2.17,1.28Z" transform="translate(-14.11 -7.99)"/><path class="cls-26" d="M54.46,101.21h-.08c0-.07.08-.07.08,0h0" transform="translate(-14.11 -7.99)"/><path class="cls-26" d="M44.78,118.24h0l-.07-.08v0l.07.08" transform="translate(-14.11 -7.99)"/><path class="cls-27" d="M54.46,101.21h-.08c0-.07.08-.07.08,0h0" transform="translate(-14.11 -7.99)"/><path class="cls-24" d="M55.54,104.58v.09a4,4,0,0,1-.27,1.35c-.09.18-.09.45-.18.63l-.18.54-.45,1.71-.18.72L53,114a3.62,3.62,0,0,1-1.26,1.53l-7.47,4.32a.54.54,0,0,1-.36.09h-.09a.09.09,0,0,1-.09-.09l-.09-.09-.09-.09v-.36l.72-5.76a5.36,5.36,0,0,1,.45-2l1.8-6.57c0-.09.09-.09.09-.18s.09-.27.18-.36a2.6,2.6,0,0,1,1-1l.27-.18,1.17-.72,5-2.89.36-.18.18-.09c.09,0,.09-.09.18-.09h.36a.09.09,0,0,1,.09.09c0,.09.09.09.09.18v.54Z" transform="translate(-14.11 -7.99)"/><path class="cls-27" d="M44.78,118.24h0l-.07-.08v0l.07.08" transform="translate(-14.11 -7.99)"/><path class="cls-28" d="M32.18,125.51c.9.53,1.28,2.4,1.28,3.3s-.75,1.2-1.58.68L20.78,123a3.29,3.29,0,0,1-1.57-2.55c0-.9,1-1.95,1.8-1.5Z" transform="translate(-14.11 -7.99)"/><path class="cls-29" d="M20,119.14l-.22.22,13.42,7.88c-.07-.15-.07-.3-.15-.38Z" transform="translate(-14.11 -7.99)"/><path class="cls-29" d="M19.43,121.24l.23.45,13.57,7.95c.08-.08.15-.15.15-.23Z" transform="translate(-14.11 -7.99)"/><path class="cls-29" d="M19.36,120c0,.07-.08.15-.08.3l14.18,8.25v-.38Z" transform="translate(-14.11 -7.99)"/><path class="cls-30" d="M36.23,126.64c1.65,1,2.78,2.1,2.78,4.35,0,2.92-1,2.47-1.88,2-.07,0-.07-.07-.15-.07a.28.28,0,0,1-.15-.08.07.07,0,0,1-.07-.07c-.53-.3-1.2-.68-1.95-1-2.85-1.65-6.53-4.05-6.15-5.33.3-1,1.87-2.47,4.5-1.2a23.11,23.11,0,0,1,3.07,1.43" transform="translate(-14.11 -7.99)"/><path class="cls-30" d="M15.23,120c.08,0,.08.07.15.07a.24.24,0,0,1,.15.08s.08,0,.08.07c.52.3,1.12.68,1.8,1,2.62,1.5,6.07,3.23,5.7,1.58A11.53,11.53,0,0,0,19,117c-1.05-.67-2-1.42-2.85-1.87a3.85,3.85,0,0,0-1.72-.6c-.15,1.12-.3,2.62-.3,3.15V119A2.92,2.92,0,0,0,15.23,120" transform="translate(-14.11 -7.99)"/><path class="cls-18" d="M52.88,117.19a.9.9,0,0,1-.37.67l-3.08,1.73c-.22.15-.37,0-.37-.23a.9.9,0,0,1,.37-.67L52.51,117c.15-.15.37,0,.37.23" transform="translate(-14.11 -7.99)"/><polygon class="cls-31" points="15.6 105.67 15.15 104.85 9.53 101.55 9.07 101.92 15.6 105.67"/><path class="cls-31" d="M29.26,113.06c-.08,0-.15,0-.15-.07s-6.08-5.48-11.55-6.53c-.15,0-.23-.15-.23-.3s.15-.22.3-.22c5.55,1.12,11.48,6.45,11.78,6.67a.36.36,0,0,1,0,.38c-.08.07-.08.07-.15.07" transform="translate(-14.11 -7.99)"/><polygon class="cls-31" points="25.05 111 24.6 110.17 19.05 106.88 18.6 107.25 25.05 111"/><path class="cls-31" d="M38.71,118.39c-.08,0-.15,0-.15-.08s-6.08-5.47-11.55-6.52c-.15,0-.23-.15-.23-.3s.15-.23.3-.23c5.55,1.13,11.48,6.45,11.78,6.68a.34.34,0,0,1,0,.37c0,.08-.08.08-.15.08" transform="translate(-14.11 -7.99)"/></svg>