<?xml version="1.0" encoding="UTF-8"?>
<!DOCTYPE svg PUBLIC "-//W3C//DTD SVG 1.1//EN" "http://www.w3.org/Graphics/SVG/1.1/DTD/svg11.dtd">
<!-- Creator: CorelDRAW X7 -->
<svg xmlns="http://www.w3.org/2000/svg" xml:space="preserve" width="29.6885mm" height="8.8732mm" version="1.1" style="shape-rendering:geometricPrecision; text-rendering:geometricPrecision; image-rendering:optimizeQuality; fill-rule:evenodd; clip-rule:evenodd"
viewBox="0 0 391 117"
 xmlns:xlink="http://www.w3.org/1999/xlink">
 <defs>
  <style type="text/css">
   <![CDATA[
    .fil0 {fill:#FEFEFE}
    .fil1 {fill:#FEFEFE;fill-rule:nonzero}
   ]]>
  </style>
 </defs>
 <g id="Capa_x0020_1">
  <metadata id="CorelCorpID_0Corel-Layer"/>
  <g id="_2527569441728">
   <g>
    <path class="fil0" d="M246 56c-2,0 -4,-1 -5,-1 -2,-1 -5,-4 -6,-6 -1,-1 -1,-1 -1,-2 -1,-4 0,-1 -1,-5 0,-2 1,-5 1,-6l1 -4c0,-1 0,-2 0,-2l2 -4c1,-2 2,-4 4,-6l4 -4c1,-2 6,-4 8,-4 6,-1 11,-1 15,3 2,2 3,8 3,10 0,6 -1,7 -1,9 -1,3 -1,4 -2,6 0,0 0,0 0,0l0 1c-2,3 -4,7 -7,9l-2 1c-1,1 -3,2 -4,3 -2,0 -2,1 -3,1 -2,0 -4,1 -6,1zm20 -56l-12 0c0,0 0,0 0,1 -3,0 -6,1 -9,2 -1,0 -1,0 -1,1 -1,0 -1,0 -2,0l-2 2c-1,0 -2,1 -2,1 -2,2 -3,2 -5,4l-3 4c0,0 0,0 0,0 0,0 0,0 0,0l-2 2c0,1 0,1 -1,2 0,0 0,0 0,1l-2 2c0,1 0,1 0,2 -1,2 -2,3 -3,5 0,2 0,1 0,2l-1 6c-1,2 -1,2 -1,3 0,2 0,3 0,4 0,5 0,3 1,7 0,1 0,1 0,2 0,0 0,0 1,1 0,1 0,1 0,1 1,2 2,3 3,4 0,0 0,0 0,0 0,0 0,0 0,0l2 2c0,1 0,1 1,1l6 3c1,0 1,0 2,1 2,0 3,0 5,0 1,0 2,1 4,1 1,-1 2,-1 3,-1l7 -1 6 -2c0,0 0,0 1,-1l2 -1c2,-1 4,-3 6,-5l1 0c0,-1 1,-1 1,-1l2 -2c1,-2 1,-2 3,-5 1,-1 2,-2 2,-3l1 -3c1,-1 1,-1 1,-2l3 -12c1,-5 1,-6 0,-10l-3 -9 -2 -2c-2,-2 -4,-4 -7,-5 -1,0 -1,0 -1,0 -2,-1 -1,-1 -3,-1 -1,0 -1,0 -1,0 -1,-1 0,0 -1,-1z"/>
    <path class="fil0" d="M208 0l-12 0c-1,1 -1,1 -2,1 -2,0 -3,0 -5,1 -1,0 -1,1 -2,1 -1,0 -1,0 -1,1l-2 1c-3,1 -4,3 -6,5 0,0 -1,1 -1,1l-1 1c-2,3 -1,4 -2,5 0,1 -1,5 -1,6 -1,1 0,3 0,4 1,2 0,4 3,6 1,1 6,3 8,3 1,1 1,1 2,1 1,0 1,0 2,1 1,0 1,0 1,0 3,1 4,1 10,3 2,1 5,2 5,5 1,1 0,3 0,4 -1,2 -3,3 -5,4 0,1 -1,1 -1,1 -1,0 -1,0 -2,0 -3,1 -8,1 -11,0 -2,-1 -3,-1 -5,-4 -1,-1 -1,-5 -2,-5 -1,-1 -9,-1 -11,-1 -1,1 -1,1 -1,3 0,1 0,1 0,3 0,1 0,2 0,3 0,3 3,7 6,9 0,0 0,0 1,0 0,1 0,1 0,1 0,0 0,0 0,0 0,0 0,0 0,0l2 0c1,1 1,1 2,1 2,1 4,1 6,1 6,0 11,1 17,-1 1,-1 3,-1 4,-2l3 -1c1,-1 2,-2 3,-3 0,0 0,0 0,0 0,0 0,0 0,0l1 -1c1,-1 3,-3 4,-5l3 -6c0,-1 0,-2 0,-3 0,-2 0,-6 -1,-7 -1,-3 -1,-4 -4,-5l-3 -2c-1,0 -2,0 -3,-1 -1,0 -1,0 -2,0l-7 -2c0,-1 0,-1 -1,-1 -1,0 -2,0 -3,0 -3,-2 -9,-3 -7,-8 1,-3 2,-4 4,-5 1,-1 3,-2 5,-2 3,-1 6,0 9,1 5,1 3,4 6,7 1,1 2,1 5,1 2,0 4,0 6,0 0,-3 1,-4 0,-7 0,-1 0,-1 0,-2l-2 -4c-1,-2 -2,-3 -3,-4 -3,-1 -5,-2 -8,-2 -1,-1 0,-1 -1,-1z"/>
    <path class="fil0" d="M113 64c0,1 1,1 2,1 14,0 29,0 43,0 0,-1 0,0 0,-1 0,0 0,0 1,0 0,-1 0,-1 0,-2l1 -6c1,-4 4,-2 -15,-2 -3,0 -15,0 -16,-1 -1,-1 0,-5 0,-5 0,-1 0,-2 1,-2 0,-1 0,0 0,-1 0,-1 0,-2 1,-3 2,-7 -2,-5 16,-5 5,0 6,0 9,-3l1 0c0,-1 0,-1 0,-1 1,-2 1,-1 1,-3 1,-3 3,-4 -1,-4l-19 0c-2,0 -2,0 -3,0l1 -4c0,-2 1,-8 2,-9l32 0c1,0 1,0 2,-1l1 -5c0,-2 1,-3 1,-5 -4,-1 -32,0 -39,0 -2,0 -3,0 -6,2 0,0 -2,2 -2,3l-5 20c-1,1 -1,2 -1,3 0,0 0,1 0,1 -1,1 -1,1 -1,2 0,1 0,2 -1,3 0,1 -1,6 -1,8 0,0 -1,1 -1,1l-2 10c0,1 -1,1 -1,4 0,1 -1,3 -1,5z"/>
    <path class="fil0" d="M29 42c-1,0 -1,0 -1,0 -1,-1 -1,0 -1,-1 0,0 0,0 0,-1l4 -7c0,0 0,0 1,0l7 -13c1,-1 2,-3 2,-5 1,1 1,1 1,2 1,5 1,7 1,11 0,1 1,2 1,3 0,1 0,2 0,4 0,1 0,2 0,3 0,1 0,2 1,3 -1,0 -1,1 -2,1l-14 0zm-29 22l0 1 12 0c1,0 2,-1 2,-1l6 -11c0,-1 0,-1 1,-1l24 0c1,0 1,2 1,3 0,1 0,2 0,3l0 6c1,1 1,0 1,1l13 0c0,-3 0,-1 -1,-4 0,-1 0,-2 0,-4 0,-1 0,-3 -1,-4l0 -8c-1,-1 -1,-3 -1,-4 0,-1 0,-2 0,-4 -1,-1 -1,-3 -1,-4 0,-2 1,-1 0,-4l-3 -24c-1,-4 3,-3 -11,-3 -2,0 -3,0 -4,1 -1,0 -1,0 -1,0 -1,1 -1,1 -2,2l-1 2c-1,2 -1,3 -2,4l-15 26c-1,0 -1,0 -1,1l-9 14c0,0 0,0 0,1l-2 3c0,0 0,0 0,0l-3 4c0,1 0,0 0,1 0,0 0,1 -1,1 0,1 -1,2 -1,2z"/>
    <path class="fil0" d="M85 27c1,-3 0,-1 0,-4l2 -6c0,-2 1,-4 2,-4l13 0c1,0 2,0 3,0 1,1 3,2 3,3 1,2 1,1 1,2 0,4 0,2 0,3 -1,1 -1,3 -2,5 0,0 0,0 -1,0 -1,3 -3,3 -5,4 -1,1 -16,1 -17,1l1 -4zm-22 38l11 0c1,0 2,-2 2,-5l3 -11c0,0 0,0 0,0 0,-1 0,-1 0,-2l2 -4c4,-1 16,0 20,-1 5,-1 9,-2 12,-5 1,-1 1,-1 1,-1l5 -7c0,-1 1,-3 1,-4 1,-2 2,-3 2,-5 0,-5 0,-3 0,-8 -1,-3 -2,-6 -5,-7 -4,-3 -3,-2 -5,-3 -2,0 -3,0 -5,0 -3,0 -23,-1 -25,0 -3,1 -5,4 -6,7l-3 14c-1,1 0,0 -1,1 0,1 0,1 0,2 0,1 -1,1 -1,3l-2 8c0,1 0,2 0,2 -1,1 -1,1 -1,2 0,1 0,1 0,2 -1,1 -1,1 -1,2 0,1 0,2 0,3 -1,0 -1,0 -1,1 0,1 0,2 0,3 -1,0 -1,1 -1,2 0,1 0,1 -1,2 0,2 0,2 -1,4 0,1 0,4 0,5z"/>
    <path class="fil0" d="M278 65c3,0 7,0 10,0 4,0 2,0 3,-3 0,-1 1,-1 1,-2l1 -4c0,-1 0,-1 0,-2 0,-1 0,-1 1,-2 0,0 0,-1 0,-2 0,-1 0,-1 0,-2l3 -10c1,-1 7,-1 10,-1 3,0 7,0 10,0 2,0 1,0 3,-1 2,-2 3,-4 4,-6 0,-1 1,-2 0,-4 -1,0 -18,0 -21,0 -2,0 -3,1 -3,-2 1,0 1,-1 1,-2 0,-1 0,-1 0,-2 1,-1 1,-1 1,-2 1,-2 0,-5 2,-5l30 0c1,0 2,0 3,-1l1 -6c1,-5 4,-4 -14,-4l-23 0c-4,0 -5,0 -8,3 -1,1 -1,2 -1,3l-4 13c0,1 0,2 0,3 -1,2 0,0 -1,3 0,1 -1,2 -1,3l-1 6c-1,1 -1,1 -1,2 0,1 0,1 0,2 0,1 0,0 -1,3 0,1 -1,1 -1,3 0,2 0,1 -1,3l-1 6c0,1 0,1 0,2l-2 6c0,1 0,1 0,2z"/>
    <path class="fil0" d="M338 12c0,2 1,1 4,1l13 0c1,0 0,0 1,1 0,1 0,2 0,3 -1,1 -1,2 -1,3l-1 3c0,2 0,1 -1,3l-1 7c-1,1 -1,2 -1,3 0,2 0,0 -1,3 0,1 0,2 -1,3 0,3 0,2 0,3 -1,2 0,1 -1,4 -1,1 0,2 -1,3 0,0 0,0 0,1 0,1 0,1 -1,2l-1 6c0,1 -1,3 -1,4 1,0 9,0 11,0 1,0 1,0 2,0 0,-1 0,-1 0,-2l1 -5c1,0 1,0 1,-1 0,-2 0,-1 1,-3 0,-1 0,-1 0,-2 0,-2 1,-2 1,-3 0,-1 0,-1 0,-2 0,-1 1,-1 1,-1l1 -7c1,-3 1,-2 2,-5 0,0 0,-1 0,-2 0,-2 1,-1 1,-3 0,0 0,-1 0,-1 0,-1 0,-1 1,-2 0,-2 0,-1 0,-3l2 -7c0,-2 1,-2 1,-3 1,1 13,0 16,0 1,0 2,0 3,-1 0,0 0,-2 0,-3 1,-2 1,-1 1,-3 1,-4 2,-4 -2,-4l-28 0c-7,0 -15,-1 -18,2 0,0 -1,0 -1,1 0,0 -1,1 -1,1 -1,2 -1,1 -1,3 0,1 -1,2 -1,3z"/>
   </g>
   <path class="fil1" d="M189 95l-3 0 -1 -2 -5 0 -1 2 -3 0 5 -12 3 0 5 12zm-5 -5l-1 -4 -2 4 3 0zm6 1l2 0c0,1 1,2 1,2 0,0 1,1 2,1 1,0 1,-1 2,-1 0,0 0,-1 0,-1 0,0 0,-1 0,-1 0,0 0,0 -1,0 0,-1 -1,-1 -2,-1 -1,0 -2,-1 -3,-1 -1,-1 -1,-2 -1,-3 0,0 0,-1 1,-2 0,0 0,-1 1,-1 1,0 2,0 3,0 1,0 2,0 3,1 1,0 1,1 1,3l-2 0c0,-1 0,-1 -1,-2 0,0 -1,0 -1,0 -1,0 -2,0 -2,0 0,0 -1,1 -1,1 0,0 1,1 1,1 0,0 1,0 2,1 1,0 2,0 3,1 0,0 1,0 1,1 1,0 1,1 1,2 0,1 0,1 -1,2 0,0 -1,1 -2,1 0,1 -1,1 -2,1 -2,0 -3,-1 -4,-1 -1,-1 -1,-2 -1,-4zm11 -2c0,-1 1,-2 1,-3 0,-1 1,-1 1,-2 1,0 1,-1 2,-1 1,0 1,0 2,0 2,0 4,0 5,1 1,2 2,3 2,5 0,2 -1,4 -2,5 -1,1 -3,2 -5,2 -1,0 -3,-1 -4,-2 -1,-1 -2,-3 -2,-5zm3 0c0,2 0,3 1,3 1,1 1,1 2,1 1,0 2,0 3,-1 1,0 1,-1 1,-3 0,-1 0,-2 -1,-3 -1,-1 -1,-1 -3,-1 -1,0 -1,0 -2,1 -1,1 -1,2 -1,3zm19 2l3 1c0,1 -1,2 -2,3 -1,0 -2,1 -3,1 -2,0 -3,-1 -4,-2 -1,-1 -2,-3 -2,-5 0,-2 1,-3 2,-5 1,-1 2,-1 4,-1 1,0 3,0 4,1 0,1 1,1 1,2l-3 1c0,-1 0,-1 -1,-2 0,0 -1,0 -1,0 -1,0 -2,0 -2,1 -1,1 -1,2 -1,3 0,2 0,3 1,3 0,1 1,1 2,1 0,0 1,0 1,0 1,-1 1,-1 1,-2zm5 4l0 -12 3 0 0 12 -3 0zm16 0l-3 0 -1 -2 -5 0 -1 2 -2 0 5 -12 2 0 5 12zm-4 -5l-2 -4 -2 4 4 0zm14 1l2 1c0,1 -1,2 -2,3 -1,0 -2,1 -3,1 -2,0 -3,-1 -4,-2 -1,-1 -2,-3 -2,-5 0,-2 1,-3 2,-5 1,-1 2,-1 4,-1 1,0 3,0 4,1 0,1 1,1 1,2l-3 1c0,-1 0,-1 0,-2 -1,0 -1,0 -2,0 -1,0 -2,0 -2,1 -1,1 -1,2 -1,3 0,2 0,3 1,3 0,1 1,1 2,1 0,0 1,0 2,0 0,-1 0,-1 1,-2zm4 4l0 -12 3 0 0 12 -3 0zm5 -6c0,-1 0,-2 0,-3 0,-1 1,-1 1,-2 1,0 1,-1 2,-1 1,0 2,0 3,0 1,0 3,0 4,1 1,2 2,3 2,5 0,2 -1,4 -2,5 -1,1 -3,2 -4,2 -2,0 -4,-1 -5,-2 -1,-1 -1,-3 -1,-5zm2 0c0,2 0,3 1,3 1,1 2,1 3,1 1,0 1,0 2,-1 1,0 1,-1 1,-3 0,-1 0,-2 -1,-3 -1,-1 -1,-1 -2,-1 -1,0 -2,0 -3,1 -1,1 -1,2 -1,3zm2 -7l1 -3 3 0 -2 3 -2 0zm10 13l0 -12 2 0 5 8 0 -8 3 0 0 12 -3 0 -5 -8 0 8 -2 0zm17 0l0 -12 4 0c2,0 3,0 3,0 1,0 1,1 2,1 0,1 1,2 1,3 0,1 -1,1 -1,2 0,0 0,1 -1,1 0,0 -1,0 -1,1 -1,0 -2,0 -3,0l-1 0 0 4 -3 0zm3 -10l0 4 1 0c1,0 2,0 2,-1 0,0 1,0 1,0 0,0 0,-1 0,-1 0,-1 0,-1 0,-1 -1,-1 -1,-1 -1,-1 -1,0 -1,0 -2,0l-1 0zm9 10l0 -12 9 0 0 2 -7 0 0 3 7 0 0 2 -7 0 0 3 7 0 0 2 -9 0zm11 0l0 -12 6 0c1,0 2,0 3,0 0,0 1,1 1,1 0,1 1,2 1,2 0,1 -1,2 -1,3 -1,0 -2,1 -3,1 1,0 1,1 2,1 0,0 0,1 1,2l2 2 -3 0 -2 -2c-1,-1 -1,-2 -2,-2 0,0 0,-1 0,-1 -1,0 -1,0 -2,0l0 0 0 5 -3 0zm3 -7l2 0c1,0 2,0 2,0 0,0 1,0 1,0 0,-1 0,-1 0,-1 0,-1 0,-1 0,-1 -1,-1 -1,-1 -1,-1 0,0 -1,0 -2,0l-2 0 0 3zm10 -5l3 0 0 7c0,1 0,1 0,2 0,0 0,1 0,1 1,0 1,0 2,0 1,0 1,0 2,0 0,0 0,-1 0,-1 0,0 0,-1 0,-2l0 -7 3 0 0 7c0,1 0,2 0,3 0,0 -1,1 -1,1 0,1 -1,1 -2,1 0,1 -1,1 -2,1 -1,0 -2,0 -3,-1 0,0 -1,0 -1,-1 0,0 -1,-1 -1,-1 0,-1 0,-2 0,-3l0 -7zm24 12l-3 0 -1 -2 -5 0 -1 2 -3 0 5 -12 3 0 5 12zm-5 -5l-2 -4 -1 4 3 0zm6 5l0 -12 3 0 5 8 0 -8 2 0 0 12 -2 0 -5 -8 0 8 -3 0zm24 0l-3 0 -1 -2 -5 0 -1 2 -2 0 4 -12 3 0 5 12zm-5 -5l-1 -4 -2 4 3 0z"/>
   <path class="fil1" d="M53 102l6 0c1,0 2,0 2,0 1,0 2,1 3,1 0,1 1,2 1,3 0,1 1,2 1,3 0,1 -1,3 -1,3 0,2 -1,2 -2,3 0,1 -1,1 -2,1 0,0 -1,1 -2,1l-6 0 0 -15zm3 2l0 10 2 0c1,0 2,0 2,0 1,0 1,0 1,-1 1,0 1,0 1,-1 0,-1 0,-2 0,-3 0,-1 0,-2 0,-3 0,0 0,-1 -1,-1 0,0 -1,-1 -1,-1 -1,0 -1,0 -3,0l-1 0zm12 13l0 -15 11 0 0 2 -8 0 0 3 8 0 0 3 -8 0 0 4 9 0 0 3 -12 0zm19 -5l3 -1c0,1 1,2 1,3 1,0 1,0 2,0 1,0 2,0 3,0 0,-1 0,-1 0,-2 0,0 0,0 0,-1 0,0 -1,0 -1,0 0,0 -1,-1 -3,-1 -1,0 -2,-1 -3,-1 -1,-1 -1,-2 -1,-3 0,-1 0,-2 0,-3 1,0 1,-1 2,-1 1,-1 2,-1 3,-1 2,0 3,1 4,2 1,0 2,2 2,3l-3 0c0,-1 -1,-1 -1,-2 0,0 -1,0 -2,0 -1,0 -1,0 -2,0 0,1 0,1 0,1 0,1 0,1 0,1 0,1 1,1 3,1 1,1 2,1 3,1 1,1 1,1 2,2 0,0 0,1 0,2 0,1 0,2 0,3 -1,0 -2,1 -2,1 -1,1 -2,1 -4,1 -2,0 -3,-1 -4,-1 -1,-1 -2,-3 -2,-4zm14 -3c0,-1 1,-3 1,-4 0,0 1,-1 1,-2 1,0 2,-1 2,-1 1,0 2,-1 4,-1 2,0 4,1 5,2 1,2 2,4 2,6 0,3 -1,4 -2,6 -1,1 -3,2 -5,2 -3,0 -4,-1 -6,-2 -1,-2 -2,-3 -2,-6zm3 0c0,2 1,3 2,4 0,1 1,1 3,1 1,0 2,0 3,-1 0,-1 1,-2 1,-4 0,-2 -1,-3 -1,-4 -1,-1 -2,-1 -3,-1 -2,0 -3,0 -3,1 -1,1 -2,2 -2,4zm14 8l0 -15 11 0 0 2 -8 0 0 4 7 0 0 2 -7 0 0 7 -3 0zm16 0l0 -13 -4 0 0 -2 12 0 0 2 -5 0 0 13 -3 0zm12 0l-4 -15 3 0 3 10 2 -10 4 0 3 10 2 -10 3 0 -4 15 -3 0 -3 -12 -3 12 -3 0zm30 0l-3 0 -2 -4 -6 0 -1 4 -3 0 6 -15 3 0 6 15zm-6 -6l-2 -6 -2 6 4 0zm8 6l0 -15 6 0c2,0 3,0 3,0 1,0 2,1 2,1 1,1 1,2 1,3 0,1 0,2 -1,3 -1,0 -2,1 -3,1 1,0 1,1 2,1 0,1 1,1 1,3l2 3 -4 0 -2 -4c-1,-1 -1,-2 -1,-2 -1,0 -1,0 -1,-1 -1,0 -1,0 -2,0l0 0 0 7 -3 0zm3 -9l2 0c1,0 2,0 3,0 0,0 0,-1 0,-1 1,0 1,-1 1,-1 0,-1 0,-1 -1,-1 0,-1 0,-1 -1,-1 0,0 -1,0 -2,0l-2 0 0 4zm12 9l0 -15 11 0 0 2 -8 0 0 3 7 0 0 3 -7 0 0 4 8 0 0 3 -11 0zm23 0l0 -7 -5 -8 3 0 4 6 3 -6 4 0 -6 8 0 7 -3 0zm19 0l0 -13 -5 0 0 -2 12 0 0 2 -4 0 0 13 -3 0zm9 0l0 -15 11 0 0 2 -8 0 0 3 8 0 0 3 -8 0 0 4 9 0 0 3 -12 0zm24 -6l3 1c-1,2 -1,3 -2,4 -1,0 -3,1 -4,1 -2,0 -4,-1 -5,-2 -2,-2 -2,-3 -2,-6 0,-2 0,-4 2,-6 1,-1 3,-2 5,-2 2,0 3,1 4,2 1,1 1,2 2,3l-3 0c0,0 -1,-1 -1,-1 -1,-1 -2,-1 -2,-1 -1,0 -2,0 -3,1 -1,1 -1,2 -1,4 0,2 0,3 1,4 1,1 2,1 3,1 0,0 1,0 2,-1 0,0 1,-1 1,-2zm5 6l0 -15 3 0 7 10 0 -10 2 0 0 15 -3 0 -6 -10 0 10 -3 0zm15 -8c0,-1 0,-3 1,-4 0,0 0,-1 1,-2 1,0 1,-1 2,-1 1,0 2,-1 3,-1 2,0 4,1 6,2 1,2 2,4 2,6 0,3 -1,4 -2,6 -2,1 -4,2 -6,2 -2,0 -4,-1 -5,-2 -1,-2 -2,-3 -2,-6zm3 0c0,2 1,3 1,4 1,1 2,1 3,1 1,0 2,0 3,-1 1,-1 1,-2 1,-4 0,-2 0,-3 -1,-4 0,-1 -1,-1 -3,-1 -1,0 -2,0 -3,1 -1,1 -1,2 -1,4zm14 8l0 -15 3 0 0 12 8 0 0 3 -11 0zm12 -8c0,-1 0,-3 1,-4 0,0 1,-1 1,-2 1,0 1,-1 2,-1 1,0 2,-1 3,-1 3,0 4,1 6,2 1,2 2,4 2,6 0,3 -1,4 -2,6 -2,1 -3,2 -6,2 -2,0 -4,-1 -5,-2 -1,-2 -2,-3 -2,-6zm3 0c0,2 1,3 1,4 1,1 2,1 3,1 2,0 3,0 3,-1 1,-1 2,-2 2,-4 0,-2 -1,-3 -2,-4 0,-1 -1,-1 -3,-1 -1,0 -2,0 -3,1 0,1 -1,2 -1,4zm21 2l0 -2 7 0 0 6c-1,0 -2,1 -3,1 -1,1 -3,1 -4,1 -1,0 -3,0 -4,-1 -1,-1 -2,-2 -3,-3 0,-1 -1,-3 -1,-4 0,-2 1,-3 1,-4 1,-1 2,-2 3,-3 1,0 3,-1 4,-1 2,0 3,1 4,1 1,1 2,2 2,4l-3 0c0,0 0,-1 -1,-1 0,-1 -1,-1 -2,-1 -1,0 -2,0 -3,1 -1,1 -1,2 -1,4 0,2 0,3 1,4 1,1 2,1 3,1 1,0 1,0 2,0 0,0 1,-1 1,-1l0 -2 -3 0zm9 6l0 -15 3 0 0 15 -3 0zm0 -17l1 -3 3 0 -2 3 -2 0zm20 17l-4 0 -1 -4 -6 0 -1 4 -3 0 5 -15 4 0 6 15zm-6 -6l-2 -6 -2 6 4 0zm6 1l3 -1c1,1 1,2 2,3 0,0 1,0 2,0 1,0 1,0 2,0 0,-1 1,-1 1,-2 0,0 0,0 -1,-1 0,0 0,0 -1,0 0,0 -1,-1 -2,-1 -2,0 -3,-1 -4,-1 0,-1 -1,-2 -1,-3 0,-1 0,-2 1,-3 0,0 1,-1 2,-1 0,-1 1,-1 3,-1 1,0 3,1 4,2 1,0 1,2 1,3l-3 0c0,-1 0,-1 -1,-2 0,0 -1,0 -2,0 0,0 -1,0 -2,0 0,1 0,1 0,1 0,1 0,1 0,1 1,1 2,1 3,1 2,1 3,1 3,1 1,1 2,1 2,2 0,0 1,1 1,2 0,1 -1,2 -1,3 -1,0 -1,1 -2,1 -1,1 -2,1 -3,1 -2,0 -4,-1 -5,-1 -1,-1 -1,-3 -2,-4z"/>
  </g>
 </g>
</svg>
