<?xml version="1.0" encoding="UTF-8"?>
<!DOCTYPE svg PUBLIC "-//W3C//DTD SVG 1.1//EN" "http://www.w3.org/Graphics/SVG/1.1/DTD/svg11.dtd">
<!-- Creator: CorelDRAW X7 -->
<svg xmlns="http://www.w3.org/2000/svg" xml:space="preserve" width="30.7632mm" height="7.5337mm" version="1.1" style="shape-rendering:geometricPrecision; text-rendering:geometricPrecision; image-rendering:optimizeQuality; fill-rule:evenodd; clip-rule:evenodd"
viewBox="0 0 2834 694"
 xmlns:xlink="http://www.w3.org/1999/xlink">
 <defs>
  <style type="text/css">
   <![CDATA[
    .fil0 {fill:#FEFEFE}
    .fil1 {fill:#FEFEFE;fill-rule:nonzero}
   ]]>
  </style>
 </defs>
 <g id="Capa_x0020_1">
  <metadata id="CorelCorpID_0Corel-Layer"/>
  <g id="_2527569452352">
   <path class="fil0" d="M424 366c0,-15 -6,-25 -12,-34 -12,-20 -59,-61 -79,-80 -5,-4 -8,-5 -13,-10 -4,-5 -7,-8 -11,-12 -57,-56 -38,-102 29,-129 6,-2 10,-4 16,-6 34,-12 116,-32 161,-44 7,-2 10,-4 18,-4l-21 -13c-52,-26 -138,-41 -197,-31 -63,11 -78,16 -130,43l-37 23c-26,19 -39,33 -60,57 -15,16 -33,40 -42,59l-11 19c-42,91 -50,209 -5,303l64 -4c19,-2 39,-5 59,-7 62,-9 176,-35 230,-71 14,-9 26,-20 33,-35 3,-6 8,-16 8,-24z"/>
   <path class="fil0" d="M2529 362l83 0 0 -215c7,4 5,4 9,11 2,4 2,3 4,6l101 184c4,5 6,7 8,14l92 0 0 -345c-11,0 -79,-2 -84,0l0 213c-5,-4 -26,-45 -31,-52l-22 -40c-3,-6 -5,-8 -8,-14l-30 -53c-3,-6 -4,-8 -7,-13l-23 -41 -92 0 0 345z"/>
   <path class="fil0" d="M1910 82c0,-6 8,-7 15,-8 8,-1 12,-2 21,-2 22,-1 51,-1 68,17 10,11 12,24 12,40 0,52 -71,43 -116,43l0 -90zm-89 -55l0 335 89 0 0 -119c0,-8 13,-6 22,-6 9,1 19,0 28,0 5,21 42,76 55,96l20 29 103 0c-2,-3 -3,-4 -6,-8 -3,-3 -4,-5 -6,-8l-12 -16c-5,-6 -8,-11 -13,-16l-12 -17c-5,-8 -42,-59 -43,-70 14,-1 37,-19 46,-32l8 -12c16,-30 16,-80 1,-109 -14,-28 -43,-48 -72,-56 -8,-3 -14,-4 -22,-6 -46,-9 -117,1 -164,10 -8,1 -15,5 -22,5z"/>
   <path class="fil0" d="M504 692c14,-3 32,-15 43,-21 7,-4 13,-8 20,-13 3,-2 5,-4 9,-7 3,-2 5,-4 8,-6 6,-5 11,-10 17,-14 32,-24 77,-91 92,-128 19,-48 32,-109 29,-160l-4 -29c-7,-57 -28,-112 -61,-159 -4,-6 -8,-11 -13,-18 -6,-7 -9,-10 -14,-16 -7,-10 -58,-57 -67,-58l-56 20c-36,14 -76,23 -107,46 -34,26 1,66 23,87 23,22 64,40 94,58 21,13 72,47 86,66 4,5 5,5 8,9 65,81 51,175 -8,253l-17 21c-12,16 -34,32 -50,45l-21 16c-6,4 -7,3 -11,8z"/>
   <path class="fil0" d="M1144 220c0,106 52,149 153,149 36,0 57,-5 84,-17 40,-17 56,-61 62,-102 1,-7 0,-14 0,-21l2 -207c0,-8 -13,-5 -21,-5l-56 -1c-15,0 -14,0 -14,15 1,29 2,205 -1,220 -14,72 -87,56 -103,34 -20,-26 -17,-54 -17,-94 0,-58 0,-116 0,-174 -5,-2 -78,0 -89,0l0 203z"/>
   <path class="fil0" d="M825 107c0,52 25,73 66,96 27,16 88,29 114,45 8,6 14,11 12,27 -3,25 -47,30 -67,30 -28,1 -86,-18 -111,-30 -7,-4 -20,-11 -28,-13l0 84 30 9c9,3 23,6 32,7 70,11 176,18 219,-46 17,-26 20,-67 6,-95 -5,-10 -11,-16 -19,-24 -42,-43 -134,-51 -160,-77 -16,-15 -5,-44 31,-45 21,0 22,-4 55,2 24,4 57,12 78,24 4,2 3,2 7,3l0 -79c-6,0 -11,-2 -18,-4 -61,-14 -156,-22 -207,17 -21,16 -40,35 -40,69z"/>
   <path class="fil0" d="M2284 234c2,-5 4,-11 5,-17l25 -76c2,-6 3,-9 5,-15 2,-7 2,-10 6,-13 6,22 37,110 38,121l-79 0zm-133 128l91 0c1,-6 3,-11 5,-16l16 -48 121 0 22 64 92 0c-3,-15 -10,-28 -15,-43 -13,-39 -34,-89 -49,-130 -18,-52 -42,-110 -60,-161 -2,-5 -3,-6 -4,-11l-91 -1c-2,4 -2,7 -4,11 -1,4 -2,5 -4,10 -25,75 -62,162 -88,238l-32 87z"/>
   <polygon class="fil0" points="1483,93 1586,93 1586,362 1675,362 1675,93 1778,93 1778,17 1483,17 "/>
   <polygon class="fil0" points="504,692 501,694 "/>
   <g>
    <path class="fil1" d="M858 485c0,3 0,6 -1,9 -2,2 -3,4 -5,6 -3,2 -5,3 -8,4 -3,1 -6,1 -9,1 -2,0 -4,0 -6,0 -2,-1 -3,-1 -5,-2 -1,0 -2,-1 -3,-1 -1,-1 -2,-1 -2,-2 -1,0 -1,-1 -1,-2 -1,0 -1,-2 -1,-3 0,-1 0,-2 0,-3 1,0 1,-1 1,-1 0,-1 0,-1 0,-1 1,0 1,0 1,0 1,0 1,0 2,0 1,1 2,2 3,2 2,1 3,1 5,2 2,1 4,1 6,1 2,0 3,0 4,-1 2,0 3,-1 4,-1 0,-1 1,-2 1,-3 1,-1 1,-2 1,-3 0,-2 0,-3 -1,-4 -1,-1 -2,-2 -3,-3 -1,0 -3,-1 -4,-2 -2,-1 -4,-1 -5,-2 -2,-1 -4,-2 -5,-3 -2,-1 -3,-2 -4,-3 -2,-2 -3,-3 -3,-5 -1,-2 -2,-5 -2,-7 0,-3 1,-6 2,-8 1,-2 3,-4 5,-6 2,-1 4,-3 6,-3 3,-1 6,-1 8,-1 2,0 3,0 5,0 1,0 3,0 4,1 1,0 3,1 4,1 1,1 1,1 2,1 0,1 0,1 0,1 0,0 0,1 0,1 1,1 1,1 1,2 0,0 0,1 0,2 0,1 0,1 0,2 0,1 -1,1 -1,2 0,0 0,0 0,1 0,0 -1,0 -1,0 0,0 -1,0 -2,-1 0,0 -1,-1 -3,-1 -1,-1 -2,-1 -3,-2 -2,0 -4,0 -5,0 -2,0 -3,0 -4,0 -1,0 -2,1 -3,2 0,0 -1,1 -1,2 0,1 -1,1 -1,2 0,2 1,3 2,4 0,1 1,2 3,3 1,1 2,1 4,2 2,1 3,2 5,2 2,1 3,2 5,3 1,1 3,2 4,4 1,1 2,3 3,4 1,2 1,5 1,7zm61 -5c0,4 0,8 -2,11 -1,3 -2,6 -4,8 -3,2 -5,3 -9,5 -3,1 -7,1 -11,1 -4,0 -7,0 -10,-1 -4,-1 -6,-3 -8,-5 -3,-2 -4,-4 -5,-7 -1,-3 -2,-7 -2,-11l0 -39c0,0 0,0 0,0 0,-1 1,-1 1,-1 1,0 1,0 2,0 1,-1 2,-1 3,-1 2,0 3,0 3,1 1,0 2,0 2,0 1,0 1,0 1,1 1,0 1,0 1,0l0 38c0,2 0,5 1,6 0,2 1,4 2,5 1,1 3,2 4,3 2,0 4,1 6,1 2,0 4,-1 5,-1 2,-1 3,-2 4,-3 1,-1 2,-3 3,-4 0,-2 1,-4 1,-6l0 -39c0,0 0,0 0,0 0,-1 0,-1 1,-1 0,0 1,0 2,0 1,-1 2,-1 3,-1 1,0 2,0 3,1 1,0 1,0 2,0 0,0 1,0 1,1 0,0 0,0 0,0l0 38zm57 -20c0,4 -1,7 -2,9 -1,3 -2,5 -5,7 -2,2 -4,4 -7,5 -3,1 -7,1 -11,1l-5 0 0 20c0,1 -1,1 -1,1 0,1 0,1 -1,1 0,0 -1,0 -2,0 -1,0 -2,0 -3,0 -1,0 -2,0 -3,0 -1,0 -1,0 -2,0 0,0 -1,0 -1,-1 0,0 0,0 0,-1l0 -57c0,-1 0,-2 1,-3 1,-1 2,-1 3,-1l15 0c1,0 3,0 4,0 2,0 3,0 5,1 2,0 4,1 6,2 2,1 3,2 5,4 1,1 2,3 3,5 1,2 1,4 1,7zm-13 1c0,-2 -1,-4 -2,-6 0,-1 -1,-2 -2,-3 -2,0 -3,-1 -4,-1 -1,0 -3,0 -4,0l-5 0 0 21 5 0c2,0 4,0 5,-1 2,0 3,-1 4,-2 1,-1 1,-2 2,-4 0,-1 1,-2 1,-4zm60 38c0,1 0,2 0,2 0,1 0,2 -1,2 0,0 0,1 0,1 0,0 -1,0 -1,0l-32 0c-1,0 -1,0 -2,-1 -1,0 -1,-1 -1,-3l0 -55c0,-2 0,-3 1,-3 1,-1 1,-1 2,-1l32 0c0,0 0,0 1,0 0,0 0,0 0,1 0,0 0,1 1,1 0,1 0,2 0,3 0,1 0,1 0,2 -1,1 -1,1 -1,2 0,0 0,0 0,1 -1,0 -1,0 -1,0l-23 0 0 15 19 0c1,0 1,0 1,1 0,0 1,0 1,0 0,1 0,1 0,2 0,1 0,1 0,2 0,1 0,2 0,3 0,0 0,1 0,1 0,0 -1,1 -1,1 0,0 0,0 -1,0l-19 0 0 18 23 0c0,0 1,0 1,0 0,0 0,1 0,1 1,1 1,1 1,2 0,0 0,1 0,2zm58 3c0,1 0,1 -1,1 0,1 0,1 0,1 -1,0 -2,0 -3,0 0,0 -2,0 -3,0 -2,0 -3,0 -4,0 0,0 -1,0 -2,0 0,0 0,0 -1,-1 0,0 0,0 0,-1l-6 -14c0,-2 -1,-3 -2,-4 0,-1 -1,-3 -2,-3 -1,-1 -2,-2 -3,-2 -1,-1 -2,-1 -3,-1l-4 0 0 24c0,1 0,1 0,1 -1,1 -1,1 -2,1 0,0 -1,0 -1,0 -1,0 -2,0 -4,0 -1,0 -2,0 -3,0 0,0 -1,0 -2,0 0,0 0,0 -1,-1 0,0 0,0 0,-1l0 -57c0,-2 0,-3 1,-3 1,-1 2,-1 3,-1l16 0c2,0 3,0 4,0 1,0 2,0 3,0 3,0 5,1 7,2 2,1 4,2 5,3 1,2 3,3 3,5 1,2 1,5 1,7 0,2 0,4 0,6 -1,2 -2,3 -3,5 -1,1 -2,2 -4,3 -1,1 -3,2 -5,3 1,0 2,1 3,1 1,1 2,2 2,3 1,1 2,2 2,3 1,1 2,2 2,4l5 12c1,2 1,3 1,3 1,1 1,1 1,1zm-17 -43c0,-2 0,-3 -1,-5 -1,-1 -3,-2 -5,-3 0,0 -1,0 -2,0 -1,0 -2,0 -3,0l-6 0 0 17 6 0c2,0 4,0 5,0 1,-1 3,-1 4,-2 0,-1 1,-2 2,-3 0,-1 0,-2 0,-4zm39 43c0,1 0,1 0,1 -1,1 -1,1 -2,1 0,0 -1,0 -1,0 -1,0 -2,0 -4,0 -1,0 -2,0 -3,0 0,0 -1,0 -2,0 0,0 0,0 -1,-1 0,0 0,0 0,-1l0 -60c0,0 0,0 0,0 1,-1 1,-1 1,-1 1,0 2,0 2,0 1,-1 2,-1 3,-1 2,0 3,0 4,1 0,0 1,0 1,0 1,0 1,0 2,1 0,0 0,0 0,0l0 60zm65 -2c0,0 0,1 0,2 0,0 -1,1 -1,1 -1,0 -1,1 -2,1 0,0 -1,0 -2,0l-5 0c-1,0 -2,0 -3,0 -1,0 -2,-1 -2,-1 -1,-1 -2,-2 -2,-3 -1,-1 -2,-2 -2,-4l-16 -29c-1,-2 -2,-4 -3,-6 -1,-2 -2,-4 -2,-6l0 0c0,2 0,5 0,7 0,2 0,5 0,7l0 33c0,1 0,1 0,1 0,0 -1,1 -1,1 -1,0 -1,0 -2,0 -1,0 -2,0 -3,0 -1,0 -2,0 -3,0 0,0 -1,0 -1,0 -1,0 -1,-1 -1,-1 0,0 -1,0 -1,-1l0 -57c0,-1 1,-2 2,-3 1,-1 2,-1 3,-1l7 0c1,0 2,0 3,0 1,0 2,1 2,1 1,1 2,1 2,2 1,1 1,2 2,3l12 24c1,1 2,2 2,4 1,1 2,2 2,4 1,1 2,2 2,4 1,1 1,2 2,4l0 0c0,-3 0,-5 0,-7 0,-3 0,-5 0,-8l0 -29c0,-1 0,-1 0,-1 0,-1 1,-1 1,-1 0,0 1,0 2,0 1,0 1,-1 3,-1 1,0 2,1 2,1 1,0 2,0 2,0 1,0 1,0 1,1 0,0 0,0 0,1l0 57zm56 -54c0,1 0,2 -1,2 0,1 0,2 0,2 0,0 0,1 -1,1 0,0 0,0 0,0l-16 0 0 51c0,1 0,1 0,1 -1,1 -1,1 -1,1 -1,0 -1,0 -2,0 -1,0 -2,0 -3,0 -2,0 -3,0 -3,0 -1,0 -2,0 -2,0 -1,0 -1,0 -1,-1 -1,0 -1,0 -1,-1l0 -51 -15 0c-1,0 -1,0 -1,0 -1,0 -1,-1 -1,-1 0,0 0,-1 0,-2 0,0 0,-1 0,-2 0,-1 0,-2 0,-3 0,0 0,-1 0,-1 0,-1 0,-1 1,-1 0,0 0,0 1,0l44 0c0,0 0,0 0,0 1,0 1,0 1,1 0,0 0,1 0,1 1,1 1,2 1,3zm44 53c0,1 0,2 0,2 0,1 0,2 0,2 0,0 -1,1 -1,1 0,0 0,0 -1,0l-31 0c-1,0 -2,0 -3,-1 -1,0 -1,-1 -1,-3l0 -55c0,-2 0,-3 1,-3 1,-1 2,-1 3,-1l31 0c0,0 1,0 1,0 0,0 0,0 1,1 0,0 0,1 0,1 0,1 0,2 0,3 0,1 0,1 0,2 0,1 0,1 0,2 -1,0 -1,0 -1,1 0,0 -1,0 -1,0l-22 0 0 15 19 0c0,0 0,0 0,1 1,0 1,0 1,0 0,1 0,1 0,2 0,1 1,1 1,2 0,1 -1,2 -1,3 0,0 0,1 0,1 0,0 0,1 -1,1 0,0 0,0 0,0l-19 0 0 18 22 0c1,0 1,0 1,0 0,0 1,1 1,1 0,1 0,1 0,2 0,0 0,1 0,2zm63 1c0,0 0,1 0,2 0,0 -1,1 -1,1 -1,0 -1,1 -2,1 0,0 -1,0 -2,0l-5 0c-1,0 -2,0 -3,0 -1,0 -2,-1 -2,-1 -1,-1 -2,-2 -2,-3 -1,-1 -2,-2 -2,-4l-16 -29c-1,-2 -2,-4 -3,-6 -1,-2 -2,-4 -2,-6l0 0c0,2 0,5 0,7 0,2 0,5 0,7l0 33c0,1 0,1 0,1 0,0 -1,1 -1,1 -1,0 -1,0 -2,0 -1,0 -2,0 -3,0 -1,0 -2,0 -3,0 0,0 -1,0 -1,0 -1,0 -1,-1 -1,-1 0,0 -1,0 -1,-1l0 -57c0,-1 1,-2 2,-3 1,-1 2,-1 3,-1l7 0c1,0 2,0 3,0 1,0 2,1 2,1 1,1 2,1 2,2 1,1 1,2 2,3l12 24c1,1 2,2 2,4 1,1 2,2 2,4 1,1 2,2 2,4 1,1 1,2 2,4l0 0c0,-3 0,-5 0,-7 0,-3 0,-5 0,-8l0 -29c0,-1 0,-1 0,-1 0,-1 0,-1 1,-1 0,0 1,0 2,0 0,0 1,-1 3,-1 1,0 2,1 2,1 1,0 2,0 2,0 1,0 1,0 1,1 0,0 0,0 0,1l0 57zm66 -29c0,6 -1,11 -2,15 -2,5 -4,8 -7,11 -3,2 -6,4 -10,5 -4,2 -9,2 -14,2l-15 0c-1,0 -2,0 -3,-1 -1,0 -1,-1 -1,-3l0 -55c0,-2 0,-3 1,-3 1,-1 2,-1 3,-1l16 0c5,0 10,0 14,2 4,1 7,3 10,6 2,2 5,5 6,9 1,4 2,8 2,13zm-13 1c0,-3 -1,-6 -1,-8 -1,-3 -2,-5 -4,-7 -1,-2 -3,-4 -5,-5 -3,-1 -6,-1 -10,-1l-6 0 0 43 6 0c4,0 7,-1 9,-1 2,-1 4,-3 6,-5 2,-1 3,-4 4,-6 0,-3 1,-6 1,-10zm61 27c0,1 0,2 -1,2 0,1 0,2 0,2 0,0 0,1 -1,1 0,0 0,0 0,0l-32 0c-1,0 -2,0 -2,-1 -1,0 -2,-1 -2,-3l0 -55c0,-2 1,-3 2,-3 0,-1 1,-1 2,-1l32 0c0,0 0,0 0,0 1,0 1,0 1,1 0,0 0,1 0,1 0,1 0,2 0,3 0,1 0,1 0,2 0,1 0,1 0,2 0,0 0,0 -1,1 0,0 0,0 0,0l-23 0 0 15 19 0c0,0 1,0 1,1 0,0 0,0 0,0 1,1 1,1 1,2 0,1 0,1 0,2 0,1 0,2 0,3 0,0 0,1 -1,1 0,0 0,1 0,1 0,0 -1,0 -1,0l-19 0 0 18 23 0c0,0 0,0 0,0 1,0 1,1 1,1 0,1 0,1 0,2 1,0 1,1 1,2zm63 1c0,0 -1,1 -1,2 0,0 0,1 -1,1 0,0 -1,1 -1,1 -1,0 -2,0 -2,0l-6 0c-1,0 -2,0 -3,0 0,0 -1,-1 -2,-1 -1,-1 -1,-2 -2,-3 -1,-1 -1,-2 -2,-4l-16 -29c-1,-2 -1,-4 -2,-6 -1,-2 -2,-4 -3,-6l0 0c0,2 0,5 0,7 0,2 0,5 0,7l0 33c0,1 0,1 0,1 0,0 0,1 -1,1 0,0 -1,0 -2,0 0,0 -1,0 -2,0 -2,0 -3,0 -3,0 -1,0 -2,0 -2,0 0,0 -1,-1 -1,-1 0,0 0,0 0,-1l0 -57c0,-1 0,-2 1,-3 1,-1 2,-1 3,-1l7 0c2,0 3,0 3,0 1,0 2,1 3,1 0,1 1,1 2,2 0,1 1,2 1,3l13 24c0,1 1,2 2,4 0,1 1,2 2,4 0,1 1,2 2,4 0,1 1,2 1,4l0 0c0,-3 0,-5 0,-7 0,-3 0,-5 0,-8l0 -29c0,-1 0,-1 0,-1 1,-1 1,-1 1,-1 1,0 1,0 2,0 1,0 2,-1 3,-1 1,0 2,1 3,1 1,0 1,0 2,0 0,0 0,0 0,1 1,0 1,0 1,1l0 57zm57 -5c0,0 0,1 0,2 0,0 -1,1 -1,1 0,1 0,1 0,1 0,0 0,1 -1,1 0,1 -1,1 -2,2 -1,0 -2,1 -4,1 -1,1 -3,1 -5,2 -2,0 -4,0 -6,0 -4,0 -8,-1 -11,-2 -4,-1 -7,-3 -9,-6 -3,-3 -4,-6 -6,-10 -1,-4 -2,-8 -2,-14 0,-5 1,-10 2,-14 2,-4 4,-8 6,-11 3,-2 6,-5 10,-6 3,-2 7,-2 11,-2 2,0 4,0 5,0 2,0 4,1 5,1 1,1 2,1 4,2 1,1 1,1 2,2 0,0 1,0 1,1 0,0 0,0 0,1 0,0 0,1 0,1 0,1 0,2 0,3 0,1 0,1 0,2 0,1 0,1 0,2 0,0 0,1 -1,1 0,0 0,0 0,0 -1,0 -1,0 -2,-1 -1,0 -2,-1 -3,-2 -1,0 -3,-1 -4,-2 -2,0 -4,0 -6,0 -3,0 -5,0 -7,1 -2,1 -3,3 -5,4 -1,2 -2,5 -3,7 -1,3 -1,6 -1,10 0,3 0,7 1,9 1,3 2,5 3,7 2,2 4,3 6,4 2,1 4,1 6,1 3,0 4,0 6,-1 2,0 3,-1 4,-1 2,-1 2,-2 3,-2 1,-1 2,-1 2,-1 0,0 1,0 1,0 0,0 0,1 0,1 0,0 0,1 1,2 0,0 0,1 0,3zm22 7c0,1 0,1 -1,1 0,1 0,1 -1,1 0,0 -1,0 -2,0 0,0 -2,0 -3,0 -1,0 -2,0 -3,0 -1,0 -1,0 -2,0 0,0 -1,0 -1,-1 0,0 0,0 0,-1l0 -60c0,0 0,0 0,0 0,-1 1,-1 1,-1 1,0 1,0 2,0 1,-1 2,-1 3,-1 1,0 3,0 3,1 1,0 2,0 2,0 1,0 1,0 1,1 1,0 1,0 1,0l0 60z"/>
    <path class="fil1" d="M1652 499c0,2 0,2 0,3 0,1 0,1 0,2 0,0 -1,0 -2,0 -1,0 -2,0 -4,0 -1,0 -3,0 -3,0 -1,0 -2,0 -3,0 0,0 0,0 -1,-1 0,0 0,0 0,-1l-4 -12 -24 0 -4 12c0,1 0,1 0,1 -1,1 -1,1 -1,1 -1,0 -1,0 -2,0 -1,0 -2,0 -4,0 -1,0 -2,0 -3,0 -1,0 -2,0 -2,0 0,-1 0,-1 0,-2 0,-1 0,-2 0,-3l20 -56c0,-1 0,-1 0,-1 1,-1 1,-1 2,-1 0,0 1,-1 2,-1 1,0 2,0 4,0 2,0 3,0 5,0 1,0 2,1 2,1 1,0 1,0 2,1 0,0 0,0 0,1l20 56zm-29 -46l0 0 -9 27 18 0 -9 -27zm112 18c0,6 -1,11 -2,15 -2,5 -4,8 -7,11 -3,2 -6,4 -10,5 -4,2 -9,2 -14,2l-15 0c-1,0 -2,0 -3,-1 -1,0 -1,-1 -1,-3l0 -55c0,-2 0,-3 1,-3 1,-1 2,-1 3,-1l16 0c5,0 10,0 14,2 4,1 7,3 10,6 2,2 5,5 6,9 1,4 2,8 2,13zm-13 1c0,-3 -1,-6 -1,-8 -1,-3 -2,-5 -4,-7 -1,-2 -3,-4 -5,-5 -3,-1 -6,-1 -10,-1l-6 0 0 43 6 0c4,0 7,-1 9,-1 2,-1 4,-3 6,-5 2,-1 3,-4 4,-6 0,-3 1,-6 1,-10zm61 27c0,1 0,2 -1,2 0,1 0,2 0,2 0,0 0,1 -1,1 0,0 0,0 0,0l-32 0c-1,0 -2,0 -2,-1 -1,0 -2,-1 -2,-3l0 -55c0,-2 1,-3 2,-3 0,-1 1,-1 2,-1l32 0c0,0 0,0 0,0 1,0 1,0 1,1 0,0 0,1 0,1 0,1 0,2 0,3 0,1 0,1 0,2 0,1 0,1 0,2 0,0 0,0 -1,1 0,0 0,0 0,0l-23 0 0 15 19 0c0,0 1,0 1,1 0,0 0,0 0,0 1,1 1,1 1,2 0,1 0,1 0,2 0,1 0,2 0,3 0,0 0,1 -1,1 0,0 0,1 0,1 0,0 -1,0 -1,0l-19 0 0 18 23 0c0,0 0,0 0,0 1,0 1,1 1,1 0,1 0,1 0,2 1,0 1,1 1,2zm75 -53c0,1 0,2 0,2 0,1 0,2 0,2 -1,0 -1,1 -1,1 0,0 -1,0 -1,0l-16 0 0 51c0,1 0,1 0,1 0,1 0,1 -1,1 0,0 -1,0 -2,0 -1,0 -2,0 -3,0 -1,0 -2,0 -3,0 -1,0 -2,0 -2,0 0,0 -1,0 -1,-1 0,0 0,0 0,-1l0 -51 -16 0c0,0 -1,0 -1,0 0,0 0,-1 0,-1 -1,0 -1,-1 -1,-2 0,0 0,-1 0,-2 0,-1 0,-2 0,-3 0,0 0,-1 1,-1 0,-1 0,-1 0,-1 0,0 1,0 1,0l44 0c0,0 1,0 1,0 0,0 0,0 1,1 0,0 0,1 0,1 0,1 0,2 0,3zm54 56c0,1 0,1 0,1 0,1 -1,1 -1,1 -1,0 -1,0 -2,0 -1,0 -2,0 -4,0 -1,0 -2,0 -3,0 -1,0 -2,0 -2,0 -1,0 -1,0 -1,-1 0,0 -1,0 -1,-1l-5 -14c-1,-2 -2,-3 -2,-4 -1,-1 -2,-3 -2,-3 -1,-1 -2,-2 -3,-2 -1,-1 -2,-1 -4,-1l-4 0 0 24c0,1 0,1 0,1 0,1 -1,1 -1,1 -1,0 -1,0 -2,0 -1,0 -2,0 -3,0 -1,0 -2,0 -3,0 -1,0 -2,0 -2,0 -1,0 -1,0 -1,-1 0,0 -1,0 -1,-1l0 -57c0,-2 1,-3 2,-3 0,-1 1,-1 2,-1l17 0c1,0 3,0 4,0 1,0 2,0 2,0 3,0 5,1 7,2 2,1 4,2 5,3 2,2 3,3 4,5 0,2 1,5 1,7 0,2 0,4 -1,6 -1,2 -1,3 -2,5 -1,1 -3,2 -4,3 -2,1 -3,2 -5,3 1,0 1,1 2,1 1,1 2,2 3,3 0,1 1,2 2,3 0,1 1,2 2,4l5 12c0,2 1,3 1,3 0,1 0,1 0,1zm-16 -43c0,-2 -1,-3 -2,-5 -1,-1 -2,-2 -4,-3 -1,0 -2,0 -3,0 0,0 -2,0 -3,0l-6 0 0 17 7 0c2,0 3,0 4,0 2,-1 3,-1 4,-2 1,-1 1,-2 2,-3 0,-1 1,-2 1,-4zm77 40c0,2 0,2 0,3 1,1 0,1 0,2 0,0 -1,0 -2,0 -1,0 -2,0 -4,0 -1,0 -2,0 -3,0 -1,0 -2,0 -2,0 -1,0 -1,0 -2,-1 0,0 0,0 0,-1l-4 -12 -24 0 -4 12c0,1 0,1 0,1 0,1 -1,1 -1,1 -1,0 -1,0 -2,0 -1,0 -2,0 -4,0 -1,0 -2,0 -3,0 -1,0 -2,0 -2,0 0,-1 0,-1 0,-2 0,-1 0,-2 1,-3l19 -56c0,-1 0,-1 1,-1 0,-1 0,-1 1,-1 0,0 1,-1 2,-1 1,0 2,0 4,0 2,0 4,0 5,0 1,0 2,1 2,1 1,0 1,0 2,1 0,0 0,0 0,1l20 56zm-29 -46l0 0 -9 27 18 0 -9 -27zm89 47c0,0 0,1 0,2 0,0 -1,1 -1,1 -1,0 -1,1 -2,1 0,0 -1,0 -2,0l-5 0c-1,0 -2,0 -3,0 -1,0 -1,-1 -2,-1 -1,-1 -2,-2 -2,-3 -1,-1 -2,-2 -2,-4l-16 -29c-1,-2 -2,-4 -3,-6 -1,-2 -1,-4 -2,-6l0 0c0,2 0,5 0,7 0,2 0,5 0,7l0 33c0,1 0,1 0,1 0,0 -1,1 -1,1 -1,0 -1,0 -2,0 -1,0 -2,0 -3,0 -1,0 -2,0 -3,0 0,0 -1,0 -1,0 -1,0 -1,-1 -1,-1 0,0 0,0 0,-1l0 -57c0,-1 0,-2 1,-3 1,-1 2,-1 3,-1l7 0c1,0 2,0 3,0 1,0 2,1 2,1 1,1 2,1 2,2 1,1 1,2 2,3l12 24c1,1 2,2 2,4 1,1 2,2 2,4 1,1 2,2 2,4 1,1 1,2 2,4l0 0c0,-3 0,-5 0,-7 0,-3 0,-5 0,-8l0 -29c0,-1 0,-1 0,-1 0,-1 1,-1 1,-1 0,0 1,0 2,0 1,0 2,-1 3,-1 1,0 2,1 2,1 1,0 2,0 2,0 1,0 1,0 1,1 0,0 0,0 0,1l0 57zm51 -15c0,3 0,6 -2,9 -1,2 -3,4 -5,6 -2,2 -4,3 -7,4 -3,1 -6,1 -9,1 -2,0 -4,0 -6,0 -2,-1 -4,-1 -5,-2 -1,0 -3,-1 -4,-1 -1,-1 -1,-1 -2,-2 0,0 0,-1 -1,-2 0,0 0,-2 0,-3 0,-1 0,-2 0,-3 0,0 0,-1 1,-1 0,-1 0,-1 0,-1 0,0 1,0 1,0 0,0 1,0 2,0 1,1 2,2 3,2 1,1 3,1 5,2 2,1 4,1 6,1 2,0 3,0 4,-1 1,0 2,-1 3,-1 1,-1 2,-2 2,-3 1,-1 1,-2 1,-3 0,-2 0,-3 -1,-4 -1,-1 -2,-2 -3,-3 -1,0 -3,-1 -4,-2 -2,-1 -4,-1 -5,-2 -2,-1 -4,-2 -5,-3 -2,-1 -3,-2 -5,-3 -1,-2 -2,-3 -3,-5 0,-2 -1,-5 -1,-7 0,-3 1,-6 2,-8 1,-2 3,-4 4,-6 2,-1 5,-3 7,-3 3,-1 5,-1 8,-1 2,0 3,0 5,0 1,0 3,0 4,1 1,0 2,1 3,1 1,1 2,1 2,1 1,1 1,1 1,1 0,0 0,1 0,1 0,1 0,1 0,2 0,0 0,1 0,2 0,1 0,1 0,2 0,1 0,1 0,2 0,0 0,0 0,1 -1,0 -1,0 -1,0 -1,0 -1,0 -2,-1 -1,0 -2,-1 -3,-1 -1,-1 -2,-1 -4,-2 -1,0 -3,0 -5,0 -1,0 -2,0 -3,0 -1,0 -2,1 -3,2 0,0 -1,1 -1,2 -1,1 -1,1 -1,2 0,2 1,3 1,4 1,1 2,2 3,3 2,1 3,1 5,2 1,1 3,2 5,2 1,1 3,2 5,3 1,1 3,2 4,4 1,1 2,3 3,4 1,2 1,5 1,7zm53 -25c0,4 -1,7 -2,9 -1,3 -2,5 -5,7 -2,2 -4,4 -7,5 -3,1 -7,1 -11,1l-5 0 0 20c0,1 -1,1 -1,1 0,1 0,1 -1,1 0,0 -1,0 -2,0 -1,0 -2,0 -3,0 -1,0 -2,0 -3,0 -1,0 -1,0 -2,0 0,0 -1,0 -1,-1 0,0 0,0 0,-1l0 -57c0,-1 0,-2 1,-3 1,-1 2,-1 3,-1l15 0c1,0 3,0 4,0 2,0 3,0 5,1 2,0 4,1 6,2 2,1 3,2 5,4 1,1 2,3 3,5 1,2 1,4 1,7zm-13 1c0,-2 -1,-4 -2,-6 0,-1 -1,-2 -2,-3 -2,0 -3,-1 -4,-1 -1,0 -3,0 -4,0l-5 0 0 21 5 0c2,0 4,0 5,-1 2,0 3,-1 4,-2 1,-1 1,-2 2,-4 0,-1 1,-2 1,-4zm79 11c0,5 -1,10 -2,14 -1,4 -3,7 -6,10 -2,3 -5,5 -9,7 -4,1 -8,2 -13,2 -5,0 -9,0 -13,-2 -4,-1 -7,-3 -9,-6 -2,-2 -4,-6 -5,-10 -2,-4 -2,-9 -2,-14 0,-5 0,-10 2,-14 1,-4 3,-8 5,-11 3,-2 6,-5 10,-6 4,-2 8,-2 13,-2 5,0 9,0 13,1 3,2 6,4 9,6 2,3 4,6 5,10 1,4 2,9 2,15zm-13 0c0,-3 -1,-6 -1,-9 -1,-2 -1,-5 -3,-7 -1,-2 -3,-3 -5,-4 -2,-1 -4,-2 -7,-2 -4,0 -6,1 -8,2 -2,1 -4,3 -5,5 -2,2 -3,4 -3,7 -1,2 -1,5 -1,8 0,4 0,7 1,9 0,3 1,6 3,8 1,2 2,3 4,4 3,1 5,2 8,2 3,0 6,-1 8,-2 2,-1 4,-3 5,-5 1,-2 2,-4 3,-7 0,-3 1,-6 1,-9zm70 30c0,1 0,1 0,1 0,1 0,1 -1,1 0,0 -1,0 -2,0 -1,0 -2,0 -4,0 -1,0 -2,0 -3,0 -1,0 -1,0 -2,0 0,0 -1,0 -1,-1 0,0 0,0 0,-1l-6 -14c-1,-2 -1,-3 -2,-4 -1,-1 -1,-3 -2,-3 -1,-1 -2,-2 -3,-2 -1,-1 -2,-1 -3,-1l-4 0 0 24c0,1 -1,1 -1,1 0,1 0,1 -1,1 0,0 -1,0 -2,0 -1,0 -2,0 -3,0 -1,0 -2,0 -3,0 -1,0 -1,0 -2,0 0,0 -1,0 -1,-1 0,0 0,0 0,-1l0 -57c0,-2 0,-3 1,-3 1,-1 2,-1 3,-1l16 0c2,0 3,0 4,0 1,0 2,0 3,0 2,0 5,1 7,2 2,1 3,2 5,3 1,2 2,3 3,5 1,2 1,5 1,7 0,2 0,4 -1,6 0,2 -1,3 -2,5 -1,1 -2,2 -4,3 -1,1 -3,2 -5,3 1,0 2,1 3,1 0,1 1,2 2,3 1,1 1,2 2,3 1,1 1,2 2,4l5 12c1,2 1,3 1,3 0,1 0,1 0,1zm-16 -43c0,-2 -1,-3 -1,-5 -1,-1 -3,-2 -5,-3 -1,0 -1,0 -2,0 -1,0 -2,0 -4,0l-5 0 0 17 6 0c2,0 3,0 5,0 1,-1 2,-1 3,-2 1,-1 2,-2 2,-3 1,-1 1,-2 1,-4zm66 -13c0,1 0,2 0,2 0,1 0,2 0,2 0,0 0,1 -1,1 0,0 0,0 0,0l-16 0 0 51c0,1 0,1 0,1 -1,1 -1,1 -1,1 -1,0 -2,0 -2,0 -1,0 -2,0 -4,0 -1,0 -2,0 -3,0 0,0 -1,0 -2,0 0,0 0,0 -1,-1 0,0 0,0 0,-1l0 -51 -16 0c0,0 0,0 0,0 -1,0 -1,-1 -1,-1 0,0 0,-1 0,-2 0,0 0,-1 0,-2 0,-1 0,-2 0,-3 0,0 0,-1 0,-1 0,-1 0,-1 1,-1 0,0 0,0 0,0l45 0c0,0 0,0 0,0 1,0 1,0 1,1 0,0 0,1 0,1 0,1 0,2 0,3zm45 53c0,1 0,2 0,2 0,1 0,2 0,2 -1,0 -1,1 -1,1 0,0 -1,0 -1,0l-31 0c-1,0 -2,0 -3,-1 -1,0 -1,-1 -1,-3l0 -55c0,-2 0,-3 1,-3 1,-1 2,-1 3,-1l31 0c0,0 1,0 1,0 0,0 0,0 0,1 1,0 1,1 1,1 0,1 0,2 0,3 0,1 0,1 0,2 0,1 0,1 -1,2 0,0 0,0 0,1 0,0 -1,0 -1,0l-22 0 0 15 18 0c1,0 1,0 1,1 1,0 1,0 1,0 0,1 0,1 0,2 0,1 0,1 0,2 0,1 0,2 0,3 0,0 0,1 0,1 0,0 0,1 -1,1 0,0 0,0 -1,0l-18 0 0 18 22 0c0,0 1,0 1,0 0,0 0,1 1,1 0,1 0,1 0,2 0,0 0,1 0,2zm75 -53c0,1 0,2 0,2 0,1 0,2 0,2 0,0 0,1 -1,1 0,0 0,0 0,0l-16 0 0 51c0,1 0,1 0,1 -1,1 -1,1 -1,1 -1,0 -2,0 -2,0 -1,0 -2,0 -3,0 -2,0 -3,0 -4,0 0,0 -1,0 -2,0 0,0 0,0 -1,-1 0,0 0,0 0,-1l0 -51 -16 0c0,0 0,0 0,0 -1,0 -1,-1 -1,-1 0,0 0,-1 0,-2 0,0 0,-1 0,-2 0,-1 0,-2 0,-3 0,0 0,-1 0,-1 0,-1 0,-1 1,-1 0,0 0,0 0,0l45 0c0,0 0,0 0,0 1,0 1,0 1,1 0,0 0,1 0,1 0,1 0,2 0,3zm45 53c0,1 0,2 0,2 0,1 0,2 0,2 -1,0 -1,1 -1,1 0,0 -1,0 -1,0l-31 0c-1,0 -2,0 -3,-1 -1,0 -1,-1 -1,-3l0 -55c0,-2 0,-3 1,-3 1,-1 2,-1 3,-1l31 0c0,0 1,0 1,0 0,0 0,0 0,1 1,0 1,1 1,1 0,1 0,2 0,3 0,1 0,1 0,2 0,1 0,1 -1,2 0,0 0,0 0,1 0,0 -1,0 -1,0l-22 0 0 15 19 0c0,0 0,0 0,1 1,0 1,0 1,0 0,1 0,1 0,2 0,1 0,1 0,2 0,1 0,2 0,3 0,0 0,1 0,1 0,0 0,1 -1,1 0,0 0,0 0,0l-19 0 0 18 22 0c0,0 1,0 1,0 0,0 0,1 1,1 0,1 0,1 0,2 0,0 0,1 0,2z"/>
    <path class="fil1" d="M2533 502c0,1 0,1 0,1 0,1 -1,1 -1,1 -1,0 -1,0 -2,0 -1,0 -3,0 -4,0 -1,0 -3,0 -3,0 -1,0 -2,0 -2,0 -1,0 -1,0 -1,-1 0,0 -1,0 -1,-1l-5 -14c-1,-2 -2,-3 -2,-4 -1,-1 -2,-3 -3,-3 0,-1 -1,-2 -2,-2 -1,-1 -3,-1 -4,-1l-4 0 0 24c0,1 0,1 0,1 0,1 -1,1 -1,1 -1,0 -1,0 -2,0 -1,0 -2,0 -3,0 -2,0 -3,0 -3,0 -1,0 -2,0 -2,0 -1,0 -1,0 -1,-1 -1,0 -1,0 -1,-1l0 -57c0,-2 1,-3 1,-3 1,-1 2,-1 3,-1l16 0c2,0 3,0 4,0 2,0 2,0 3,0 3,0 5,1 7,2 2,1 4,2 5,3 2,2 3,3 4,5 0,2 1,5 1,7 0,2 -1,4 -1,6 -1,2 -1,3 -3,5 -1,1 -2,2 -3,3 -2,1 -4,2 -6,3 1,0 2,1 3,1 1,1 2,2 2,3 1,1 2,2 3,3 0,1 1,2 1,4l6 12c0,2 1,3 1,3 0,1 0,1 0,1zm-17 -43c0,-2 0,-3 -1,-5 -1,-1 -2,-2 -5,-3 0,0 -1,0 -2,0 -1,0 -2,0 -3,0l-6 0 0 17 7 0c1,0 3,0 4,0 2,-1 3,-1 4,-2 1,-1 1,-2 2,-3 0,-1 0,-2 0,-4zm73 43c0,1 0,1 0,1 -1,1 -1,1 -1,1 -1,0 -1,0 -2,0 -1,0 -3,0 -4,0 -2,0 -3,0 -3,0 -1,0 -2,0 -2,0 -1,0 -1,0 -1,-1 -1,0 -1,0 -1,-1l-6 -14c0,-2 -1,-3 -2,-4 0,-1 -1,-3 -2,-3 0,-1 -1,-2 -2,-2 -1,-1 -3,-1 -4,-1l-4 0 0 24c0,1 0,1 0,1 -1,1 -1,1 -1,1 -1,0 -2,0 -2,0 -1,0 -2,0 -3,0 -2,0 -3,0 -3,0 -1,0 -2,0 -2,0 -1,0 -1,0 -1,-1 -1,0 -1,0 -1,-1l0 -57c0,-2 1,-3 1,-3 1,-1 2,-1 3,-1l16 0c2,0 3,0 4,0 1,0 2,0 3,0 3,0 5,1 7,2 2,1 4,2 5,3 2,2 3,3 3,5 1,2 2,5 2,7 0,2 -1,4 -1,6 -1,2 -2,3 -3,5 -1,1 -2,2 -3,3 -2,1 -4,2 -6,3 1,0 2,1 3,1 1,1 2,2 2,3 1,1 2,2 2,3 1,1 2,2 2,4l6 12c0,2 0,3 1,3 0,1 0,1 0,1zm-17 -43c0,-2 0,-3 -1,-5 -1,-1 -3,-2 -5,-3 0,0 -1,0 -2,0 -1,0 -2,0 -3,0l-6 0 0 17 6 0c2,0 4,0 5,0 2,-1 3,-1 4,-2 1,-1 1,-2 2,-3 0,-1 0,-2 0,-4zm63 40c0,1 0,2 0,2 0,1 0,2 0,2 0,0 -1,1 -1,1 0,0 0,0 -1,0l-31 0c-1,0 -2,0 -3,-1 0,0 -1,-1 -1,-3l0 -55c0,-2 1,-3 1,-3 1,-1 2,-1 3,-1l31 0c1,0 1,0 1,0 0,0 0,0 1,1 0,0 0,1 0,1 0,1 0,2 0,3 0,1 0,1 0,2 0,1 0,1 0,2 -1,0 -1,0 -1,1 0,0 0,0 -1,0l-22 0 0 15 19 0c0,0 0,0 1,1 0,0 0,0 0,0 0,1 0,1 0,2 1,1 1,1 1,2 0,1 0,2 -1,3 0,0 0,1 0,1 0,0 0,1 0,1 -1,0 -1,0 -1,0l-19 0 0 18 22 0c1,0 1,0 1,0 0,0 1,1 1,1 0,1 0,1 0,2 0,0 0,1 0,2zm48 -14c0,3 -1,6 -2,9 -1,2 -3,4 -5,6 -2,2 -5,3 -7,4 -3,1 -6,1 -9,1 -3,0 -5,0 -6,0 -2,-1 -4,-1 -5,-2 -2,0 -3,-1 -4,-1 -1,-1 -2,-1 -2,-2 0,0 -1,-1 -1,-2 0,0 0,-2 0,-3 0,-1 0,-2 0,-3 0,0 0,-1 0,-1 0,-1 1,-1 1,-1 0,0 0,0 1,0 0,0 1,0 2,0 0,1 1,2 3,2 1,1 3,1 4,2 2,1 4,1 7,1 1,0 3,0 4,-1 1,0 2,-1 3,-1 1,-1 1,-2 2,-3 0,-1 1,-2 1,-3 0,-2 -1,-3 -2,-4 0,-1 -1,-2 -3,-3 -1,0 -2,-1 -4,-2 -1,-1 -3,-1 -5,-2 -1,-1 -3,-2 -5,-3 -1,-1 -3,-2 -4,-3 -1,-2 -2,-3 -3,-5 -1,-2 -1,-5 -1,-7 0,-3 0,-6 2,-8 1,-2 2,-4 4,-6 2,-1 4,-3 7,-3 2,-1 5,-1 8,-1 1,0 3,0 4,0 2,0 3,0 5,1 1,0 2,1 3,1 1,1 2,1 2,1 0,1 1,1 1,1 0,0 0,1 0,1 0,1 0,1 0,2 0,0 0,1 0,2 0,1 0,1 0,2 0,1 0,1 0,2 0,0 0,0 -1,1 0,0 0,0 0,0 -1,0 -1,0 -2,-1 -1,0 -2,-1 -3,-1 -1,-1 -2,-1 -4,-2 -1,0 -3,0 -5,0 -1,0 -2,0 -4,0 -1,0 -1,1 -2,2 -1,0 -1,1 -2,2 0,1 0,1 0,2 0,2 0,3 1,4 1,1 2,2 3,3 1,1 3,1 4,2 2,1 4,2 5,2 2,1 4,2 5,3 2,1 3,2 5,4 1,1 2,3 3,4 0,2 1,5 1,7zm50 -39c0,1 0,2 0,2 0,1 0,2 0,2 0,0 -1,1 -1,1 0,0 0,0 -1,0l-15 0 0 51c0,1 0,1 -1,1 0,1 0,1 -1,1 0,0 -1,0 -2,0 0,0 -2,0 -3,0 -1,0 -2,0 -3,0 -1,0 -1,0 -2,0 0,0 -1,0 -1,-1 0,0 0,0 0,-1l0 -51 -16 0c0,0 0,0 -1,0 0,0 0,-1 0,-1 0,0 -1,-1 -1,-2 0,0 0,-1 0,-2 0,-1 0,-2 0,-3 0,0 1,-1 1,-1 0,-1 0,-1 0,-1 1,0 1,0 1,0l44 0c1,0 1,0 1,0 0,0 1,0 1,1 0,0 0,1 0,1 0,1 0,2 0,3zm54 56c0,1 0,1 0,1 0,1 0,1 -1,1 0,0 -1,0 -2,0 -1,0 -2,0 -4,0 -1,0 -2,0 -3,0 -1,0 -1,0 -2,0 0,0 -1,0 -1,-1 0,0 0,0 0,-1l-6 -14c-1,-2 -1,-3 -2,-4 -1,-1 -1,-3 -2,-3 -1,-1 -2,-2 -3,-2 -1,-1 -2,-1 -4,-1l-4 0 0 24c0,1 0,1 0,1 0,1 0,1 -1,1 0,0 -1,0 -2,0 -1,0 -2,0 -3,0 -1,0 -2,0 -3,0 -1,0 -2,0 -2,0 0,0 -1,0 -1,-1 0,0 0,0 0,-1l0 -57c0,-2 0,-3 1,-3 1,-1 1,-1 2,-1l17 0c1,0 3,0 4,0 1,0 2,0 3,0 2,0 4,1 7,2 2,1 3,2 5,3 1,2 2,3 3,5 1,2 1,5 1,7 0,2 0,4 -1,6 0,2 -1,3 -2,5 -1,1 -2,2 -4,3 -2,1 -3,2 -5,3 1,0 2,1 2,1 1,1 2,2 3,3 1,1 1,2 2,3 1,1 1,2 2,4l5 12c1,2 1,3 1,3 0,1 0,1 0,1zm-16 -43c0,-2 -1,-3 -2,-5 -1,-1 -2,-2 -4,-3 -1,0 -2,0 -2,0 -1,0 -2,0 -4,0l-6 0 0 17 7 0c2,0 3,0 5,0 1,-1 2,-1 3,-2 1,-1 2,-2 2,-3 1,-1 1,-2 1,-4zm63 40c0,1 0,2 0,2 0,1 -1,2 -1,2 0,0 0,1 0,1 -1,0 -1,0 -1,0l-32 0c-1,0 -2,0 -2,-1 -1,0 -1,-1 -1,-3l0 -55c0,-2 0,-3 1,-3 0,-1 1,-1 2,-1l32 0c0,0 0,0 0,0 1,0 1,0 1,1 0,0 0,1 0,1 1,1 1,2 1,3 0,1 0,1 -1,2 0,1 0,1 0,2 0,0 0,0 -1,1 0,0 0,0 0,0l-23 0 0 15 19 0c0,0 1,0 1,1 0,0 0,0 1,0 0,1 0,1 0,2 0,1 0,1 0,2 0,1 0,2 0,3 0,0 0,1 0,1 -1,0 -1,1 -1,1 0,0 -1,0 -1,0l-19 0 0 18 23 0c0,0 0,0 1,0 0,0 0,1 0,1 0,1 1,1 1,2 0,0 0,1 0,2zm-1732 72c0,6 -1,11 -2,15 -2,4 -4,8 -7,10 -3,3 -6,5 -10,6 -4,1 -9,2 -14,2l-15 0c-1,0 -2,0 -3,-1 -1,-1 -1,-2 -1,-3l0 -56c0,-1 0,-2 1,-3 1,0 2,-1 3,-1l16 0c5,0 10,1 14,2 4,2 7,4 10,6 2,3 5,6 6,10 1,4 2,8 2,13zm-13 1c0,-3 -1,-6 -1,-9 -1,-2 -2,-5 -4,-6 -1,-2 -3,-4 -6,-5 -2,-1 -5,-1 -9,-1l-6 0 0 43 6 0c4,0 7,-1 9,-2 2,-1 4,-2 6,-4 2,-2 3,-4 4,-7 0,-2 1,-6 1,-9zm61 27c0,1 0,2 -1,2 0,1 0,1 0,2 0,0 0,0 -1,1 0,0 0,0 0,0l-32 0c-1,0 -2,0 -2,-1 -1,-1 -2,-2 -2,-3l0 -56c0,-1 1,-2 2,-3 0,0 1,-1 2,-1l32 0c0,0 0,1 0,1 1,0 1,0 1,1 0,0 0,0 0,1 0,1 0,2 0,3 0,0 0,1 0,2 0,1 0,1 0,1 0,1 0,1 -1,1 0,0 0,1 0,1l-23 0 0 15 19 0c0,0 1,0 1,0 0,0 0,1 0,1 1,0 1,1 1,2 0,0 0,1 0,2 0,1 0,2 0,2 0,1 0,1 -1,2 0,0 0,0 0,1 0,0 -1,0 -1,0l-19 0 0 18 23 0c0,0 0,0 0,0 1,0 1,0 1,1 0,0 0,1 0,1 1,1 1,2 1,3zm76 -39c0,3 0,6 -1,9 -1,3 -3,5 -5,7 -2,2 -5,3 -8,4 -3,1 -7,2 -11,2l-5 0 0 20c0,0 0,1 0,1 -1,0 -1,0 -1,1 -1,0 -1,0 -2,0 -1,0 -2,0 -3,0 -2,0 -3,0 -3,0 -1,0 -2,0 -2,0 -1,-1 -1,-1 -1,-1 -1,0 -1,-1 -1,-1l0 -57c0,-1 1,-3 1,-3 1,-1 2,-2 4,-2l14 0c2,0 3,0 5,1 1,0 3,0 4,0 2,1 4,1 6,2 2,1 4,3 5,4 1,2 3,4 3,6 1,2 1,4 1,7zm-13 1c0,-3 0,-4 -1,-6 -1,-1 -2,-2 -3,-3 -1,-1 -2,-1 -4,-1 -1,-1 -2,-1 -4,-1l-5 0 0 22 6 0c2,0 4,0 5,-1 1,0 2,-1 3,-2 1,-1 2,-2 2,-4 1,-1 1,-3 1,-4zm60 38c0,1 0,2 0,2 0,1 0,1 0,2 0,0 -1,0 -1,1 0,0 0,0 -1,0l-31 0c-1,0 -2,0 -3,-1 -1,-1 -1,-2 -1,-3l0 -56c0,-1 0,-2 1,-3 1,0 2,-1 3,-1l31 0c1,0 1,1 1,1 0,0 0,0 1,1 0,0 0,0 0,1 0,1 0,2 0,3 0,0 0,1 0,2 0,1 0,1 0,1 -1,1 -1,1 -1,1 0,0 0,1 -1,1l-22 0 0 15 19 0c0,0 0,0 0,0 1,0 1,1 1,1 0,0 0,1 0,2 1,0 1,1 1,2 0,1 0,2 -1,2 0,1 0,1 0,2 0,0 0,0 -1,1 0,0 0,0 0,0l-19 0 0 18 22 0c1,0 1,0 1,0 0,0 1,0 1,1 0,0 0,1 0,1 0,1 0,2 0,3zm58 3c0,1 0,1 0,1 0,0 -1,1 -1,1 0,0 -1,0 -2,0 -1,0 -2,0 -4,0 -1,0 -2,0 -3,0 -1,0 -2,0 -2,0 -1,0 -1,-1 -1,-1 0,0 0,-1 -1,-1l-5 -14c-1,-2 -2,-3 -2,-4 -1,-2 -2,-3 -2,-4 -1,0 -2,-1 -3,-1 -1,-1 -2,-1 -4,-1l-4 0 0 24c0,0 0,1 0,1 0,0 -1,0 -1,1 -1,0 -1,0 -2,0 -1,0 -2,0 -3,0 -1,0 -2,0 -3,0 -1,0 -2,0 -2,0 -1,-1 -1,-1 -1,-1 0,0 0,-1 0,-1l0 -58c0,-1 0,-2 1,-3 0,0 1,-1 2,-1l17 0c1,0 3,0 4,1 1,0 2,0 3,0 2,0 4,1 6,2 2,1 4,2 6,3 1,1 2,3 3,5 0,2 1,4 1,7 0,2 0,4 -1,6 0,1 -1,3 -2,4 -1,2 -3,3 -4,4 -2,1 -3,2 -5,2 1,1 1,1 2,2 1,1 2,1 3,2 0,1 1,2 2,4 0,1 1,2 2,4l5 12c0,1 1,2 1,3 0,0 0,1 0,1zm-16 -43c0,-2 -1,-4 -2,-5 -1,-2 -2,-3 -4,-3 -1,0 -2,0 -3,-1 0,0 -2,0 -3,0l-6 0 0 18 7 0c2,0 3,0 5,0 1,-1 2,-1 3,-2 1,-1 2,-2 2,-3 0,-1 1,-2 1,-4zm62 26c0,3 -1,6 -2,9 -1,2 -3,4 -5,6 -2,2 -5,3 -8,4 -2,1 -5,1 -9,1 -2,0 -4,0 -6,-1 -1,0 -3,0 -4,-1 -2,0 -3,-1 -4,-2 -1,0 -2,-1 -2,-1 -1,0 -1,-1 -1,-2 0,-1 0,-2 0,-3 0,-1 0,-2 0,-3 0,-1 0,-1 0,-2 0,0 0,0 1,0 0,-1 0,-1 1,-1 0,0 1,1 1,1 1,1 2,1 4,2 1,1 3,1 4,2 2,0 4,1 7,1 1,0 2,-1 4,-1 1,0 2,-1 3,-2 1,0 1,-1 2,-2 0,-1 1,-2 1,-3 0,-2 -1,-3 -2,-4 0,-1 -1,-2 -3,-3 -1,-1 -2,-1 -4,-2 -2,-1 -3,-2 -5,-2 -2,-1 -3,-2 -5,-3 -1,-1 -3,-2 -4,-4 -1,-1 -2,-3 -3,-5 -1,-1 -1,-4 -1,-6 0,-3 0,-6 1,-8 2,-3 3,-5 5,-6 2,-2 4,-3 7,-4 2,0 5,-1 8,-1 1,0 3,0 4,1 2,0 3,0 4,1 2,0 3,0 4,1 1,0 2,1 2,1 0,0 0,1 1,1 0,0 0,1 0,1 0,0 0,1 0,1 0,1 0,2 0,2 0,1 0,2 0,3 0,0 0,1 0,1 0,1 -1,1 -1,1 0,1 0,1 -1,1 0,0 -1,-1 -1,-1 -1,0 -2,-1 -3,-2 -1,0 -3,-1 -4,-1 -2,0 -3,-1 -5,-1 -1,0 -3,1 -4,1 -1,0 -2,1 -2,1 -1,1 -1,2 -2,2 0,1 0,2 0,3 0,2 0,3 1,4 1,1 2,2 3,3 1,0 3,1 4,2 2,1 4,1 5,2 2,1 4,2 5,3 2,1 3,2 4,3 2,2 3,3 4,5 0,2 1,4 1,7z"/>
    <path class="fil1" d="M1443 571c0,6 -1,10 -2,15 -1,4 -3,7 -6,10 -2,3 -6,5 -9,7 -4,1 -9,2 -13,2 -5,0 -10,-1 -13,-2 -4,-1 -7,-3 -9,-6 -3,-3 -5,-6 -6,-10 -1,-4 -2,-9 -2,-14 0,-6 1,-10 2,-14 2,-4 4,-8 6,-11 3,-3 6,-5 10,-6 3,-2 8,-3 13,-3 4,0 9,1 12,2 4,1 7,3 9,6 3,3 5,6 6,10 1,4 2,9 2,14zm-14 1c0,-3 0,-6 0,-9 -1,-3 -2,-5 -3,-7 -1,-2 -3,-3 -5,-5 -2,-1 -5,-1 -8,-1 -3,0 -5,0 -8,2 -2,1 -3,2 -5,4 -1,2 -2,5 -2,7 -1,3 -1,6 -1,9 0,3 0,6 1,9 0,3 1,5 2,7 1,2 3,4 5,5 2,1 5,1 8,1 3,0 6,0 8,-1 2,-2 4,-3 5,-5 1,-2 2,-5 3,-7 0,-3 0,-6 0,-9zm76 27c0,1 0,2 0,2 0,1 -1,1 -1,2 -1,0 -1,1 -2,1 0,0 -1,0 -2,0l-5 0c-1,0 -2,0 -3,0 -1,-1 -1,-1 -2,-2 -1,0 -2,-1 -2,-2 -1,-1 -2,-2 -2,-4l-16 -30c-1,-2 -2,-3 -3,-5 -1,-3 -1,-5 -2,-6l0 0c0,2 0,4 0,7 0,2 0,4 0,7l0 33c0,0 0,1 0,1 0,0 -1,0 -1,1 -1,0 -1,0 -2,0 -1,0 -2,0 -3,0 -1,0 -2,0 -3,0 0,0 -1,0 -1,0 -1,-1 -1,-1 -1,-1 0,0 0,-1 0,-1l0 -57c0,-1 0,-3 1,-3 1,-1 2,-2 3,-2l7 0c1,0 2,1 3,1 1,0 2,0 2,1 1,0 2,1 2,2 1,1 1,2 2,3l12 23c1,2 2,3 2,4 1,2 2,3 2,4 1,2 2,3 2,4 1,2 1,3 2,4l0 0c0,-2 0,-4 0,-7 0,-2 0,-5 0,-7l0 -30c0,0 0,0 0,-1 0,0 1,0 1,0 0,0 1,-1 2,-1 1,0 2,0 3,0 1,0 2,0 2,0 1,0 2,1 2,1 1,0 1,0 1,0 0,1 0,1 0,1l0 57zm65 0c1,1 1,2 1,3 0,1 0,1 0,1 -1,1 -1,1 -2,1 -1,0 -2,0 -4,0 -2,0 -3,0 -4,0 -1,0 -1,0 -2,0 0,0 -1,-1 -1,-1 0,0 0,0 0,-1l-5 -13 -23 0 -4 13c0,0 0,1 -1,1 0,0 0,1 -1,1 0,0 -1,0 -2,0 -1,0 -2,0 -3,0 -2,0 -3,0 -4,0 0,0 -1,0 -1,-1 -1,0 -1,-1 -1,-1 0,-1 1,-2 1,-3l19 -56c1,-1 1,-1 1,-2 0,0 1,0 1,0 1,-1 2,-1 3,-1 1,0 2,0 4,0 2,0 3,0 4,0 1,0 2,0 3,1 0,0 1,0 1,0 0,1 1,1 1,2l19 56zm-28 -47l-1 0 -8 27 17 0 -8 -27zm74 33c0,3 0,6 -1,9 -2,2 -3,4 -5,6 -3,2 -5,3 -8,4 -3,1 -6,1 -9,1 -2,0 -4,0 -6,-1 -2,0 -3,0 -5,-1 -1,0 -2,-1 -3,-2 -1,0 -2,-1 -3,-1 0,0 0,-1 0,-2 -1,-1 -1,-2 -1,-3 0,-1 0,-2 0,-3 0,-1 1,-1 1,-2 0,0 0,0 0,0 1,-1 1,-1 1,-1 1,0 1,1 2,1 1,1 2,1 3,2 2,1 3,1 5,2 2,0 4,1 6,1 2,0 3,-1 4,-1 2,0 3,-1 3,-2 1,0 2,-1 2,-2 1,-1 1,-2 1,-3 0,-2 0,-3 -1,-4 -1,-1 -2,-2 -3,-3 -1,-1 -3,-1 -4,-2 -2,-1 -4,-2 -5,-2 -2,-1 -4,-2 -5,-3 -2,-1 -3,-2 -4,-4 -2,-1 -3,-3 -3,-5 -1,-1 -2,-4 -2,-6 0,-3 1,-6 2,-8 1,-3 3,-5 5,-6 1,-2 4,-3 6,-4 3,0 6,-1 8,-1 2,0 3,0 5,1 1,0 3,0 4,1 1,0 3,0 4,1 1,0 1,1 2,1 0,0 0,1 0,1 0,0 0,1 0,1 1,0 1,1 1,1 0,1 0,2 0,2 0,1 0,2 0,3 0,0 -1,1 -1,1 0,1 0,1 0,1 0,1 -1,1 -1,1 0,0 -1,-1 -2,-1 0,0 -1,-1 -3,-2 -1,0 -2,-1 -3,-1 -2,0 -4,-1 -5,-1 -2,0 -3,1 -4,1 -1,0 -2,1 -3,1 0,1 -1,2 -1,2 -1,1 -1,2 -1,3 0,2 1,3 1,4 1,1 2,2 4,3 1,0 2,1 4,2 1,1 3,1 5,2 2,1 3,2 5,3 1,1 3,2 4,3 1,2 2,3 3,5 1,2 1,4 1,7zm24 10c0,1 0,2 -1,3 0,1 0,2 0,3 0,1 -1,2 -1,3 -1,1 -1,2 -2,3l-7 9c0,1 0,1 0,1 -1,0 -1,1 -1,1 -1,0 -1,0 -2,0 0,0 -1,0 -2,0 -1,0 -1,0 -2,0 -1,0 -1,0 -1,0 -1,0 -1,-1 -1,-1 0,0 0,0 0,-1l6 -13 0 -8c0,-1 1,-2 1,-3 0,-1 0,-1 1,-1 1,-1 1,-1 2,-1 1,0 2,0 3,0 1,0 2,0 3,0 1,0 2,0 2,1 1,0 1,0 1,1 1,1 1,2 1,3zm77 -1c0,1 0,2 0,2 0,1 0,1 0,2 0,0 0,1 0,1 0,0 -1,1 -1,1 0,0 -1,1 -2,1 -1,1 -2,1 -4,2 -1,1 -3,1 -5,1 -2,1 -4,1 -6,1 -4,0 -8,-1 -12,-2 -3,-1 -6,-3 -8,-6 -3,-3 -5,-6 -6,-10 -1,-4 -2,-9 -2,-14 0,-5 1,-10 2,-14 2,-5 4,-8 6,-11 3,-3 6,-5 9,-6 4,-2 8,-3 12,-3 2,0 4,1 5,1 2,0 3,1 5,1 1,0 2,1 3,2 1,0 2,1 3,1 0,1 0,1 1,1 0,1 0,1 0,1 0,1 0,1 0,2 0,1 0,1 0,2 0,1 0,2 0,3 0,1 0,1 0,2 0,0 -1,0 -1,0 0,1 0,1 -1,1 0,0 -1,-1 -1,-1 -1,-1 -2,-1 -3,-2 -1,-1 -3,-1 -4,-2 -2,0 -4,-1 -6,-1 -3,0 -5,1 -7,2 -2,1 -4,2 -5,4 -1,2 -2,4 -3,7 -1,3 -1,6 -1,9 0,4 0,7 1,10 1,3 2,5 3,7 2,1 3,3 5,4 2,1 5,1 7,1 2,0 4,0 6,-1 2,0 3,-1 4,-2 1,0 2,-1 3,-1 1,-1 1,-1 2,-1 0,0 0,0 1,0 0,0 0,0 0,1 0,0 0,1 0,1 0,1 0,2 0,3zm61 5c0,1 1,2 1,3 0,1 0,1 -1,1 0,1 -1,1 -2,1 0,0 -2,0 -3,0 -2,0 -3,0 -4,0 -1,0 -2,0 -2,0 -1,0 -1,-1 -1,-1 0,0 -1,0 -1,-1l-4 -13 -24 0 -3 13c-1,0 -1,1 -1,1 0,0 -1,1 -1,1 0,0 -1,0 -2,0 -1,0 -2,0 -3,0 -2,0 -3,0 -4,0 -1,0 -1,0 -2,-1 0,0 0,-1 0,-1 0,-1 0,-2 1,-3l19 -56c0,-1 1,-1 1,-2 0,0 0,0 1,0 1,-1 1,-1 2,-1 1,0 3,0 4,0 2,0 4,0 5,0 1,0 2,0 3,1 0,0 1,0 1,0 0,1 0,1 1,2l19 56zm-29 -47l0 0 -9 27 18 0 -9 -27zm84 50c0,1 0,1 0,1 0,0 0,1 -1,1 0,0 -1,0 -2,0 -1,0 -2,0 -4,0 -1,0 -2,0 -3,0 -1,0 -1,0 -2,0 0,0 -1,-1 -1,-1 0,0 0,-1 0,-1l-6 -14c-1,-2 -1,-3 -2,-4 -1,-2 -1,-3 -2,-4 -1,0 -2,-1 -3,-1 -1,-1 -2,-1 -4,-1l-4 0 0 24c0,0 0,1 0,1 0,0 0,0 -1,1 0,0 -1,0 -2,0 -1,0 -2,0 -3,0 -1,0 -2,0 -3,0 -1,0 -1,0 -2,0 0,-1 -1,-1 -1,-1 0,0 0,-1 0,-1l0 -58c0,-1 0,-2 1,-3 1,0 1,-1 3,-1l16 0c1,0 3,0 4,1 1,0 2,0 3,0 2,0 5,1 7,2 2,1 3,2 5,3 1,1 2,3 3,5 1,2 1,4 1,7 0,2 0,4 -1,6 0,1 -1,3 -2,4 -1,2 -2,3 -4,4 -1,1 -3,2 -5,2 1,1 2,1 3,2 0,1 1,1 2,2 1,1 1,2 2,4 1,1 1,2 2,4l5 12c1,1 1,2 1,3 0,0 0,1 0,1zm-16 -43c0,-2 -1,-4 -2,-5 0,-2 -2,-3 -4,-3 -1,0 -2,0 -2,-1 -1,0 -2,0 -4,0l-6 0 0 18 7 0c2,0 3,0 5,0 1,-1 2,-1 3,-2 1,-1 2,-2 2,-3 1,-1 1,-2 1,-4zm75 -9c0,1 0,2 0,3 0,0 0,1 0,1 0,1 -1,1 -1,1 0,0 0,0 -1,0 0,0 -1,0 -2,0 0,-1 -2,-2 -3,-2 -2,-1 -4,-2 -6,-2 -2,-1 -4,-1 -7,-1 -3,0 -6,0 -9,1 -2,2 -4,3 -6,5 -2,2 -3,4 -4,7 -1,3 -1,6 -1,9 0,4 0,7 1,10 1,2 2,5 4,7 2,1 4,3 6,4 3,1 5,1 8,1 2,0 3,0 5,0 1,-1 2,-1 3,-2l0 -15 -11 0c-1,0 -1,0 -2,-1 0,0 0,-2 0,-3 0,-1 0,-2 0,-3 0,0 0,-1 0,-1 0,-1 1,-1 1,-1 0,0 0,0 1,0l21 0c0,0 1,0 1,0 1,0 1,0 1,1 0,0 1,1 1,1 0,1 0,1 0,2l0 25c0,1 0,2 0,3 -1,0 -1,1 -2,1 -2,1 -3,1 -4,2 -2,0 -4,1 -5,1 -2,0 -4,1 -5,1 -2,0 -4,0 -5,0 -5,0 -10,-1 -14,-2 -4,-2 -7,-4 -10,-7 -3,-2 -5,-6 -6,-10 -2,-4 -2,-8 -2,-13 0,-5 0,-10 2,-14 1,-4 4,-8 7,-11 2,-3 6,-5 10,-6 4,-2 8,-3 13,-3 3,0 5,1 8,1 2,0 4,1 6,1 1,1 3,1 4,2 1,1 2,1 2,2 0,0 1,1 1,2 0,0 0,2 0,3zm65 49c0,1 0,2 0,3 0,1 0,1 0,1 -1,1 -1,1 -2,1 -1,0 -2,0 -4,0 -1,0 -3,0 -4,0 -1,0 -1,0 -2,0 0,0 -1,-1 -1,-1 0,0 0,0 0,-1l-4 -13 -24 0 -4 13c0,0 0,1 0,1 -1,0 -1,1 -1,1 -1,0 -2,0 -2,0 -1,0 -2,0 -4,0 -1,0 -2,0 -3,0 -1,0 -2,0 -2,-1 0,0 -1,-1 0,-1 0,-1 0,-2 0,-3l20 -56c0,-1 0,-1 0,-2 1,0 1,0 2,0 0,-1 1,-1 2,-1 1,0 2,0 4,0 2,0 3,0 4,0 2,0 2,0 3,1 1,0 1,0 1,0 1,1 1,1 1,2l20 56zm-29 -47l0 0 -9 27 18 0 -9 -27zm85 28l0 22c0,0 0,1 0,1 0,0 -1,0 -1,1 -1,0 -1,0 -2,0 -1,0 -2,0 -3,0 -2,0 -3,0 -3,0 -1,0 -2,0 -2,0 -1,-1 -1,-1 -1,-1 -1,0 -1,-1 -1,-1l0 -22 -17 -35c-1,-1 -1,-2 -1,-3 0,0 0,-1 0,-1 1,0 1,-1 2,-1 1,0 3,0 4,0 2,0 3,0 4,0 1,0 2,0 2,1 1,0 1,0 1,0 0,1 1,1 1,1l7 16c1,2 1,3 2,5 1,1 1,3 2,5l0 0c1,-2 1,-3 2,-5 1,-2 1,-3 2,-5l7 -15c0,-1 0,-1 0,-2 1,0 1,0 1,0 1,-1 2,-1 2,-1 1,0 2,0 4,0 2,0 3,0 4,0 1,0 2,1 2,1 1,0 1,1 0,1 0,1 0,2 -1,3l-17 35zm122 22c0,0 0,1 0,1 -1,0 -1,0 -1,1 -1,0 -2,0 -2,0 -1,0 -2,0 -3,0 -1,0 -2,0 -3,0 -1,0 -2,0 -2,0 0,-1 -1,-1 -1,-1 0,0 0,-1 0,-1l0 -52 0 0 -19 52c0,0 0,1 0,1 0,0 -1,1 -1,1 -1,0 -1,0 -2,0 -1,0 -2,0 -3,0 -1,0 -2,0 -3,0 -1,0 -1,0 -2,0 0,-1 -1,-1 -1,-1 0,0 0,-1 -1,-1l-17 -52 0 0 0 52c0,0 0,1 0,1 -1,0 -1,0 -1,1 -1,0 -2,0 -2,0 -1,0 -2,0 -3,0 -1,0 -2,0 -3,0 -1,0 -2,0 -2,0 0,-1 -1,-1 -1,-1 0,0 0,-1 0,-1l0 -56c0,-2 0,-3 1,-4 1,-1 2,-2 4,-2l8 0c1,0 3,1 4,1 1,0 2,0 3,1 0,1 1,1 1,2 1,1 1,2 2,4l13 38 1 0 14 -38c0,-2 0,-3 1,-4 0,-1 1,-1 2,-2 0,-1 1,-1 2,-1 1,0 2,-1 3,-1l9 0c1,0 1,1 2,1 1,0 1,0 2,1 0,0 0,1 0,1 1,1 1,2 1,3l0 56zm51 -3c0,1 0,2 0,2 -1,1 -1,1 -1,2 0,0 0,0 0,1 -1,0 -1,0 -1,0l-32 0c-1,0 -2,0 -2,-1 -1,-1 -1,-2 -1,-3l0 -56c0,-1 0,-2 1,-3 0,0 1,-1 2,-1l32 0c0,0 0,1 0,1 1,0 1,0 1,1 0,0 0,0 0,1 0,1 0,2 0,3 0,0 0,1 0,2 0,1 0,1 0,1 0,1 0,1 -1,1 0,0 0,1 0,1l-23 0 0 15 19 0c0,0 1,0 1,0 0,0 0,1 0,1 1,0 1,1 1,2 0,0 0,1 0,2 0,1 0,2 0,2 0,1 0,1 -1,2 0,0 0,0 0,1 0,0 -1,0 -1,0l-19 0 0 18 23 0c0,0 0,0 1,0 0,0 0,0 0,1 0,0 0,1 1,1 0,1 0,2 0,3z"/>
    <path class="fil1" d="M2244 602c0,1 -1,1 -1,1 0,0 0,1 -1,1 0,0 -1,0 -2,0 -1,0 -2,0 -4,0 -1,0 -2,0 -3,0 -1,0 -1,0 -2,0 0,0 -1,-1 -1,-1 0,0 0,-1 0,-1l-6 -14c-1,-2 -1,-3 -2,-4 0,-2 -1,-3 -2,-4 -1,0 -2,-1 -3,-1 -1,-1 -2,-1 -3,-1l-4 0 0 24c0,0 0,1 -1,1 0,0 0,0 -1,1 0,0 -1,0 -2,0 0,0 -1,0 -3,0 -1,0 -2,0 -3,0 -1,0 -1,0 -2,0 0,-1 -1,-1 -1,-1 0,0 0,-1 0,-1l0 -58c0,-1 0,-2 1,-3 1,0 2,-1 3,-1l16 0c2,0 3,0 4,1 1,0 2,0 3,0 2,0 5,1 7,2 2,1 3,2 5,3 1,1 2,3 3,5 1,2 1,4 1,7 0,2 0,4 -1,6 0,1 -1,3 -2,4 -1,2 -2,3 -4,4 -1,1 -3,2 -5,2 1,1 2,1 3,2 1,1 1,1 2,2 1,1 1,2 2,4 1,1 1,2 2,4l5 12c1,1 1,2 1,3 0,0 1,1 1,1zm-17 -43c0,-2 0,-4 -1,-5 -1,-2 -3,-3 -5,-3 -1,0 -1,0 -2,-1 -1,0 -2,0 -4,0l-5 0 0 18 6 0c2,0 4,0 5,0 1,-1 2,-1 3,-2 1,-1 2,-2 2,-3 1,-1 1,-2 1,-4zm68 35c0,1 0,2 0,2 0,1 0,1 0,2 0,0 0,1 0,1 0,0 -1,1 -1,1 0,0 -1,1 -2,1 -1,1 -2,1 -4,2 -1,1 -3,1 -5,1 -2,1 -4,1 -6,1 -4,0 -8,-1 -12,-2 -3,-1 -6,-3 -8,-6 -3,-3 -5,-6 -6,-10 -1,-4 -2,-9 -2,-14 0,-5 1,-10 2,-14 2,-5 4,-8 6,-11 3,-3 6,-5 9,-6 4,-2 8,-3 12,-3 2,0 4,1 5,1 2,0 3,1 5,1 1,0 2,1 3,2 2,0 2,1 3,1 0,1 0,1 1,1 0,1 0,1 0,1 0,1 0,1 0,2 0,1 0,1 0,2 0,1 0,2 0,3 0,1 0,1 0,2 0,0 0,0 -1,0 0,1 0,1 0,1 -1,0 -2,-1 -2,-1 -1,-1 -2,-1 -3,-2 -1,-1 -3,-1 -4,-2 -2,0 -4,-1 -6,-1 -3,0 -5,1 -7,2 -2,1 -4,2 -5,4 -1,2 -2,4 -3,7 -1,3 -1,6 -1,9 0,4 0,7 1,10 1,3 2,5 3,7 2,1 3,3 5,4 2,1 5,1 7,1 2,0 4,0 6,-1 2,0 3,-1 4,-2 1,0 2,-1 3,-1 1,-1 1,-1 2,-1 0,0 0,0 1,0 0,0 0,0 0,1 0,0 0,1 0,1 0,1 0,2 0,3zm61 5c0,1 1,2 1,3 0,1 0,1 -1,1 0,1 -1,1 -2,1 0,0 -2,0 -3,0 -2,0 -3,0 -4,0 -1,0 -2,0 -2,0 -1,0 -1,-1 -1,-1 0,0 -1,0 -1,-1l-4 -13 -23 0 -4 13c-1,0 -1,1 -1,1 0,0 0,1 -1,1 0,0 -1,0 -2,0 -1,0 -2,0 -3,0 -2,0 -3,0 -4,0 -1,0 -1,0 -2,-1 0,0 0,-1 0,-1 0,-1 0,-2 1,-3l19 -56c0,-1 1,-1 1,-2 0,0 0,0 1,0 1,-1 1,-1 2,-1 1,0 3,0 4,0 2,0 4,0 5,0 1,0 2,0 3,1 0,0 1,0 1,0 0,1 0,1 1,2l19 56zm-29 -47l0 0 -9 27 18 0 -9 -27zm90 47c0,1 -1,2 -1,2 0,1 0,1 -1,2 0,0 -1,1 -1,1 -1,0 -2,0 -2,0l-6 0c-1,0 -2,0 -3,0 0,-1 -1,-1 -2,-2 -1,0 -1,-1 -2,-2 -1,-1 -1,-2 -2,-4l-16 -30c-1,-2 -2,-3 -2,-5 -1,-3 -2,-5 -3,-6l0 0c0,2 0,4 0,7 0,2 0,4 0,7l0 33c0,0 0,1 0,1 0,0 0,0 -1,1 0,0 -1,0 -2,0 0,0 -1,0 -2,0 -2,0 -3,0 -3,0 -1,0 -2,0 -2,0 0,-1 -1,-1 -1,-1 0,0 0,-1 0,-1l0 -57c0,-1 0,-3 1,-3 1,-1 2,-2 3,-2l7 0c1,0 3,1 3,1 1,0 2,0 3,1 0,0 1,1 2,2 0,1 1,2 1,3l12 23c1,2 2,3 3,4 0,2 1,3 2,4 0,2 1,3 1,4 1,2 2,3 2,4l0 0c0,-2 0,-4 0,-7 0,-2 0,-5 0,-7l0 -30c0,0 0,0 0,-1 1,0 1,0 1,0 1,0 1,-1 2,-1 1,0 2,0 3,0 1,0 2,0 3,0 0,0 1,1 1,1 1,0 1,0 1,0 0,1 1,1 1,1l0 57zm57 -5c0,1 0,2 0,2 -1,1 -1,1 -1,2 0,0 0,1 0,1 0,0 0,1 -1,1 0,0 -1,1 -2,1 -1,1 -2,1 -4,2 -1,1 -3,1 -5,1 -2,1 -4,1 -6,1 -4,0 -8,-1 -11,-2 -4,-1 -7,-3 -9,-6 -3,-3 -5,-6 -6,-10 -1,-4 -2,-9 -2,-14 0,-5 1,-10 2,-14 2,-5 4,-8 6,-11 3,-3 6,-5 10,-6 3,-2 7,-3 11,-3 2,0 4,1 5,1 2,0 3,1 5,1 1,0 2,1 4,2 1,0 1,1 2,1 0,1 1,1 1,1 0,1 0,1 0,1 0,1 0,1 0,2 0,1 0,1 0,2 0,1 0,2 0,3 0,1 0,1 0,2 0,0 0,0 -1,0 0,1 0,1 0,1 -1,0 -1,-1 -2,-1 -1,-1 -2,-1 -3,-2 -1,-1 -3,-1 -4,-2 -2,0 -4,-1 -6,-1 -3,0 -5,1 -7,2 -2,1 -3,2 -5,4 -1,2 -2,4 -3,7 -1,3 -1,6 -1,9 0,4 0,7 1,10 1,3 2,5 3,7 2,1 4,3 5,4 2,1 5,1 7,1 2,0 4,0 6,-1 2,0 3,-1 4,-2 1,0 2,-1 3,-1 1,-1 2,-1 2,-1 0,0 1,0 1,0 0,0 0,0 0,1 0,0 0,1 0,1 1,1 1,2 1,3zm22 8c0,0 -1,1 -1,1 0,0 0,0 -1,1 0,0 -1,0 -2,0 -1,0 -2,0 -3,0 -1,0 -2,0 -3,0 -1,0 -1,0 -2,0 0,-1 -1,-1 -1,-1 0,0 0,-1 0,-1l0 -60c0,0 0,0 0,-1 0,0 1,0 1,0 1,-1 1,-1 2,-1 1,0 2,0 3,0 1,0 2,0 3,0 1,0 2,0 2,1 1,0 1,0 1,0 0,1 1,1 1,1l0 60zm-4 -79c1,0 1,-1 1,-1 1,0 1,0 2,-1 0,0 1,0 2,0 1,0 2,0 3,0 1,0 3,0 3,0 1,1 2,1 2,1 0,0 0,1 0,1 0,1 0,1 -1,1l-10 10c-1,0 -1,1 -1,1 -1,0 -1,0 -2,0 0,1 -1,1 -1,1 -1,0 -2,0 -3,0 -1,0 -2,0 -2,0 -1,0 -2,0 -2,-1 0,0 0,0 0,-1 0,0 0,0 0,-1l9 -10zm69 76c0,1 0,2 0,3 0,1 0,1 0,1 0,1 -1,1 -2,1 -1,0 -2,0 -4,0 -1,0 -3,0 -4,0 0,0 -1,0 -2,0 0,0 0,-1 -1,-1 0,0 0,0 0,-1l-4 -13 -24 0 -4 13c0,0 0,1 0,1 -1,0 -1,1 -1,1 -1,0 -2,0 -2,0 -1,0 -2,0 -4,0 -1,0 -2,0 -3,0 -1,0 -2,0 -2,-1 0,0 0,-1 0,-1 0,-1 0,-2 0,-3l20 -56c0,-1 0,-1 0,-2 1,0 1,0 2,0 0,-1 1,-1 2,-1 1,0 2,0 4,0 2,0 3,0 5,0 1,0 2,0 2,1 1,0 1,0 2,0 0,1 0,1 0,2l20 56zm-29 -47l0 0 -9 27 18 0 -9 -27zm75 33c0,3 -1,6 -2,9 -1,2 -3,4 -5,6 -2,2 -5,3 -8,4 -2,1 -5,1 -9,1 -2,0 -4,0 -6,-1 -2,0 -3,0 -5,-1 -1,0 -2,-1 -3,-2 -1,0 -2,-1 -2,-1 -1,0 -1,-1 -1,-2 0,-1 0,-2 0,-3 0,-1 0,-2 0,-3 0,-1 0,-1 0,-2 0,0 0,0 1,0 0,-1 0,-1 0,-1 1,0 2,1 2,1 1,1 2,1 4,2 1,1 2,1 4,2 2,0 4,1 6,1 2,0 3,-1 5,-1 1,0 2,-1 3,-2 1,0 1,-1 2,-2 0,-1 0,-2 0,-3 0,-2 0,-3 -1,-4 -1,-1 -2,-2 -3,-3 -1,-1 -2,-1 -4,-2 -2,-1 -3,-2 -5,-2 -2,-1 -3,-2 -5,-3 -1,-1 -3,-2 -4,-4 -1,-1 -2,-3 -3,-5 -1,-1 -1,-4 -1,-6 0,-3 0,-6 1,-8 1,-3 3,-5 5,-6 2,-2 4,-3 7,-4 2,0 5,-1 8,-1 1,0 3,0 4,1 2,0 3,0 4,1 2,0 3,0 4,1 1,0 1,1 2,1 0,0 0,1 0,1 1,0 1,1 1,1 0,0 0,1 0,1 0,1 0,2 0,2 0,1 0,2 0,3 0,0 0,1 0,1 0,1 -1,1 -1,1 0,1 0,1 -1,1 0,0 -1,-1 -1,-1 -1,0 -2,-1 -3,-2 -1,0 -3,-1 -4,-1 -2,0 -3,-1 -5,-1 -1,0 -3,1 -4,1 -1,0 -2,1 -2,1 -1,1 -2,2 -2,2 0,1 0,2 0,3 0,2 0,3 1,4 1,1 2,2 3,3 1,0 3,1 4,2 2,1 3,1 5,2 2,1 3,2 5,3 2,1 3,2 4,3 2,2 3,3 3,5 1,2 2,4 2,7z"/>
   </g>
  </g>
 </g>
</svg>
