<?xml version="1.0" encoding="utf-8"?>
<!-- Generator: Adobe Illustrator 16.0.0, SVG Export Plug-In . SVG Version: 6.00 Build 0)  -->
<!DOCTYPE svg PUBLIC "-//W3C//DTD SVG 1.1//EN" "http://www.w3.org/Graphics/SVG/1.1/DTD/svg11.dtd">
<svg version="1.1" id="Capa_1" xmlns="http://www.w3.org/2000/svg" xmlns:xlink="http://www.w3.org/1999/xlink" x="0px" y="0px"
	 width="167.667px" height="220.275px" viewBox="0 0 167.667 220.275" enable-background="new 0 0 167.667 220.275"
	 xml:space="preserve">
<path fill-rule="evenodd" clip-rule="evenodd" fill="#FFFFFF" d="M18.939,82.058c-0.664-0.141-1.18-0.495-1.548-1.062
	c-0.372-0.573-0.487-1.19-0.347-1.854c0.141-0.664,0.497-1.178,1.069-1.545c0.568-0.373,1.184-0.489,1.848-0.348
	c0.663,0.141,1.182,0.498,1.552,1.07c0.369,0.566,0.482,1.181,0.341,1.845c-0.141,0.664-0.496,1.182-1.063,1.554
	C20.221,82.086,19.603,82.199,18.939,82.058"/>
<rect x="17.551" y="63.665" transform="matrix(-0.9064 -0.4224 0.4224 -0.9064 16.9043 133.078)" fill-rule="evenodd" clip-rule="evenodd" fill="#FFFFFF" width="11.292" height="2.003"/>
<path fill-rule="evenodd" clip-rule="evenodd" fill="#FFFFFF" d="M29.768,62.714l-1.13-1.579c0.889-0.377,1.538-0.89,1.943-1.539
	c0.624-0.998,0.587-1.713-0.111-2.149c-0.327-0.204-0.712-0.281-1.155-0.231c-0.443,0.05-1.079,0.329-1.905,0.836
	c-0.828,0.5-1.439,0.806-1.836,0.916c-0.398,0.103-0.803,0.122-1.217,0.058c-0.412-0.069-0.815-0.228-1.212-0.475
	c-0.741-0.463-1.186-1.117-1.336-1.962c-0.149-0.849,0.044-1.698,0.574-2.548c0.691-1.106,1.406-1.79,2.145-2.049l1.141,1.431
	c-0.8,0.331-1.407,0.826-1.821,1.488c-0.245,0.393-0.332,0.763-0.258,1.111c0.071,0.341,0.273,0.616,0.604,0.822
	c0.548,0.343,1.5,0.092,2.852-0.753c0.714-0.444,1.292-0.725,1.735-0.843c0.439-0.119,0.881-0.143,1.326-0.07
	c0.442,0.07,0.877,0.239,1.31,0.509c0.775,0.484,1.223,1.19,1.34,2.117c0.12,0.923-0.142,1.898-0.785,2.926
	C31.414,61.623,30.68,62.284,29.768,62.714"/>
<path fill-rule="evenodd" clip-rule="evenodd" fill="#FFFFFF" d="M32.988,49.298c0.967,0.9,1.867,1.434,2.701,1.601
	c0.836,0.167,1.543-0.061,2.125-0.685c0.684-0.733,0.946-1.532,0.784-2.398c-0.158-0.87-0.731-1.766-1.719-2.687
	c-1.936-1.804-3.569-1.992-4.901-0.565c-0.609,0.653-0.814,1.4-0.614,2.24C31.56,47.641,32.101,48.473,32.988,49.298 M31.569,50.82
	c-1.177-1.096-1.87-2.344-2.083-3.743c-0.213-1.406,0.184-2.648,1.189-3.727c1.108-1.187,2.323-1.751,3.644-1.691
	c1.321,0.059,2.647,0.709,3.979,1.949c1.33,1.24,2.079,2.553,2.249,3.939c0.172,1.383-0.305,2.676-1.43,3.882
	c-1.035,1.108-2.214,1.598-3.543,1.47C34.25,52.768,32.915,52.074,31.569,50.82z"/>
<polygon fill-rule="evenodd" clip-rule="evenodd" fill="#FFFFFF" points="45.913,44.909 44.527,45.952 41.107,34.337 42.48,33.304 
	"/>
<rect x="44.016" y="34.463" transform="matrix(-0.5153 -0.857 0.857 -0.5153 44.8527 96.2992)" fill-rule="evenodd" clip-rule="evenodd" fill="#FFFFFF" width="11.288" height="2.005"/>
<polygon fill-rule="evenodd" clip-rule="evenodd" fill="#FFFFFF" points="55.31,28.214 56.3,30.664 59.759,29.268 60.397,30.846 
	56.938,32.243 58.207,35.379 62.952,33.463 63.618,35.113 57.015,37.78 52.785,27.314 59.467,24.616 60.135,26.266 "/>
<path fill-rule="evenodd" clip-rule="evenodd" fill="#FFFFFF" d="M72.461,21.874L72,23.666c-0.53-0.344-1.28-0.414-2.25-0.207
	c-0.92,0.195-1.592,0.742-2.015,1.641c-0.424,0.894-0.512,1.931-0.26,3.111c0.25,1.181,0.722,2.061,1.412,2.638
	c0.695,0.577,1.498,0.769,2.408,0.576c1.041-0.221,1.775-0.766,2.206-1.634l1.25,1.388c-0.618,1.019-1.7,1.692-3.243,2.02
	c-1.543,0.328-2.85,0.075-3.921-0.758c-1.07-0.833-1.792-2.126-2.165-3.88c-0.348-1.633-0.165-3.097,0.547-4.393
	c0.716-1.302,1.813-2.11,3.291-2.424C70.525,21.474,71.593,21.518,72.461,21.874"/>
<path fill-rule="evenodd" clip-rule="evenodd" fill="#FFFFFF" d="M84.781,31.642l0.042-0.584l3.934-5
	c0.787-1,1.205-1.859,1.254-2.577c0.06-0.85-0.42-1.311-1.44-1.383c-0.78-0.054-1.436,0.314-1.971,1.106l-1.271-1.155
	c0.304-0.52,0.753-0.936,1.346-1.25c0.599-0.318,1.246-0.453,1.937-0.405c1.154,0.08,2.038,0.407,2.651,0.98
	c0.615,0.568,0.889,1.318,0.824,2.25c-0.059,0.856-0.552,1.892-1.477,3.11l-2.553,3.351l4.229,0.295l-0.125,1.776L84.781,31.642z"/>
<path fill-rule="evenodd" clip-rule="evenodd" fill="#FFFFFF" d="M99.377,25.634c-0.153,0.613-0.129,1.132,0.073,1.559
	c0.2,0.426,0.524,0.695,0.974,0.806c1.116,0.278,1.83-0.206,2.141-1.451c0.339-1.355-0.058-2.174-1.19-2.457
	c-0.463-0.116-0.875-0.035-1.235,0.24C99.78,24.602,99.526,25.035,99.377,25.634 M97.975,33.55l-0.761-1.349
	c1.725-0.459,3.07-1.286,4.036-2.48c-0.372,0.066-0.817,0.035-1.335-0.095c-1.027-0.256-1.776-0.781-2.244-1.576
	c-0.469-0.794-0.567-1.74-0.293-2.836c0.271-1.086,0.813-1.886,1.624-2.398c0.811-0.513,1.702-0.648,2.674-0.405
	c2.553,0.636,3.43,2.559,2.629,5.769c-0.333,1.336-1.166,2.566-2.494,3.69C100.487,32.99,99.208,33.55,97.975,33.55z"/>
<path fill-rule="evenodd" clip-rule="evenodd" fill="#FFFFFF" d="M109.381,37.204l3.441-7.374l-2.666,0.28l0.814-1.745
	c1.638-0.024,3.069-0.332,4.293-0.924l0.726,0.338l-4.792,10.271L109.381,37.204z"/>
<path fill-rule="evenodd" clip-rule="evenodd" fill="#FFFFFF" d="M118.973,42.671l4.669-6.665l-2.673-0.188l1.105-1.578
	c1.618,0.261,3.081,0.207,4.389-0.164l0.656,0.459l-6.504,9.284L118.973,42.671z"/>
<path fill-rule="evenodd" clip-rule="evenodd" fill="#FFFFFF" d="M130.48,44.508c-1.082,1.045-1.777,1.919-2.084,2.623
	c-0.307,0.703-0.224,1.298,0.247,1.786c0.511,0.528,1.101,0.682,1.774,0.461c0.677-0.224,1.604-0.905,2.784-2.043
	c1.098-1.06,1.752-1.898,1.962-2.515c0.215-0.614,0.087-1.163-0.379-1.647C133.846,42.2,132.412,42.646,130.48,44.508
	 M129.137,42.915c1.108-1.07,2.306-1.705,3.592-1.904c1.291-0.195,2.373,0.16,3.246,1.065c1.824,1.888,1.358,4.163-1.4,6.825
	c-1.29,1.246-2.565,1.984-3.828,2.216c-1.261,0.232-2.335-0.112-3.224-1.032c-0.957-0.99-1.309-2.064-1.056-3.222
	C126.719,45.705,127.609,44.389,129.137,42.915z"/>
<rect x="136.404" y="52.234" transform="matrix(0.8089 -0.5879 0.5879 0.8089 -5.6688 91.1028)" fill-rule="evenodd" clip-rule="evenodd" fill="#FFFFFF" width="1.812" height="4.076"/>
<path fill-rule="evenodd" clip-rule="evenodd" fill="#FFFFFF" d="M145.988,61.987l-4.355-0.966l1.361,2.558L145.988,61.987z
	 M142.497,66.024l-2.607,1.385l-0.905-1.701l2.607-1.385l-2.414-4.537l1.015-0.539l9.298,2.065l0.411,0.776l-6.003,3.19l0.537,1.007
	l-1.402,0.745L142.497,66.024z"/>
<path fill-rule="evenodd" clip-rule="evenodd" fill="#FFFFFF" d="M147.947,77.419c0.664-0.141,1.279-0.028,1.846,0.34
	c0.573,0.373,0.93,0.89,1.07,1.553c0.142,0.663,0.025,1.278-0.348,1.846c-0.367,0.571-0.883,0.927-1.546,1.068
	s-1.282,0.025-1.854-0.346c-0.568-0.368-0.922-0.883-1.063-1.546c-0.141-0.664-0.028-1.281,0.338-1.852
	C146.766,77.914,147.283,77.56,147.947,77.419"/>
<path fill="#FFFFFF" d="M141.021,35.625c14.654,14.653,23.717,34.896,23.717,57.256c0,22.359-9.063,42.603-23.717,57.256
	c-14.652,14.654-34.896,23.716-57.255,23.716c-22.36,0-42.604-9.063-57.257-23.716C11.856,135.484,2.793,115.241,2.793,92.881
	c0-22.36,9.063-42.603,23.716-57.256c14.653-14.653,34.896-23.717,57.257-23.717C106.125,11.908,126.369,20.972,141.021,35.625
	 M163.087,92.881c0-21.904-8.879-41.735-23.232-56.089C125.5,22.439,105.67,13.56,83.766,13.56
	c-21.904,0-41.735,8.879-56.089,23.232C13.323,51.146,4.444,70.977,4.444,92.881c0,21.904,8.879,41.734,23.232,56.088
	c14.354,14.354,34.185,23.232,56.089,23.232c21.904,0,41.734-8.879,56.088-23.232C154.208,134.616,163.087,114.785,163.087,92.881z"
	/>
<path fill-rule="evenodd" clip-rule="evenodd" fill="#FFFFFF" d="M18.104,94.831c-1.074,0.018-1.902,0.208-2.486,0.573
	c-0.583,0.365-0.868,0.884-0.856,1.56c0.014,0.794,0.313,1.394,0.898,1.799c0.584,0.41,1.426,0.604,2.525,0.586
	c2.152-0.036,3.215-0.828,3.188-2.375c-0.012-0.708-0.314-1.247-0.907-1.616C19.878,94.99,19.091,94.814,18.104,94.831
	 M18.076,93.182c1.308-0.022,2.419,0.307,3.336,0.988c0.919,0.685,1.389,1.612,1.411,2.78c0.023,1.287-0.37,2.277-1.176,2.971
	c-0.808,0.693-1.951,1.053-3.43,1.079c-1.479,0.025-2.661-0.312-3.543-1.01c-0.882-0.693-1.334-1.693-1.358-3
	c-0.021-1.201,0.393-2.13,1.242-2.788C15.406,93.547,16.58,93.207,18.076,93.182z"/>
<path fill-rule="evenodd" clip-rule="evenodd" fill="#FFFFFF" d="M21.939,105.296l-2.521,0.389c0.022,0.293,0.046,0.517,0.071,0.669
	c0.106,0.655,0.278,1.119,0.518,1.392c0.239,0.276,0.633,0.372,1.183,0.287c0.446-0.069,0.731-0.28,0.856-0.633
	c0.125-0.354,0.13-0.879,0.016-1.579C22.035,105.652,21.994,105.478,21.939,105.296 M14.812,109.834l3.363-2.937
	c-0.035-0.238-0.074-0.572-0.119-1.001l-3.791,0.584L14,104.852l9.074-1.4c0.014,0.089,0.083,0.426,0.208,1.013
	c0.129,0.586,0.224,1.06,0.282,1.422c0.366,2.244-0.344,3.504-2.128,3.779c-0.537,0.083-1.052,0.003-1.543-0.238
	c-0.493-0.241-0.868-0.584-1.126-1.026l-3.663,3.243L14.812,109.834z"/>
<path fill-rule="evenodd" clip-rule="evenodd" fill="#FFFFFF" d="M26.316,118.615l-1.461-0.214c0.099-0.231,0.163-0.559,0.19-0.981
	c0.032-0.424,0-0.769-0.093-1.035c-0.295-0.831-0.817-1.391-1.568-1.677c-0.747-0.288-1.607-0.269-2.58,0.057
	c-0.926,0.31-1.582,0.793-1.969,1.448c-0.386,0.659-0.435,1.395-0.148,2.207c0.189,0.535,0.495,0.926,0.918,1.171l1.708-0.572
	l-0.414-1.172l1.316-0.441l0.945,2.673l-3.889,1.305c-0.427-0.258-0.826-0.641-1.196-1.149c-0.365-0.506-0.646-1.039-0.843-1.597
	c-0.429-1.213-0.362-2.312,0.2-3.297c0.567-0.983,1.522-1.698,2.863-2.148c1.34-0.449,2.565-0.428,3.677,0.065
	c1.111,0.494,1.898,1.394,2.361,2.703C26.661,116.89,26.656,117.773,26.316,118.615"/>
<path fill-rule="evenodd" clip-rule="evenodd" fill="#FFFFFF" d="M27.407,124.977l-3.513,0.603l1.037,1.898L27.407,124.977z
	 M22.724,129.886l1.329-1.429l-1.479-2.707l-1.944,0.302l-0.851-1.559l9.941-1.109l0.335,0.615l-6.488,7.434L22.724,129.886z"/>
<polygon fill-rule="evenodd" clip-rule="evenodd" fill="#FFFFFF" points="29.265,139.238 31.101,132.331 26.614,135.745 
	25.648,134.542 32.893,129.028 33.376,129.63 31.68,136.285 36.047,132.961 37.013,134.164 29.674,139.749 "/>
<polygon fill-rule="evenodd" clip-rule="evenodd" fill="#FFFFFF" points="32.414,142.604 39.022,136.389 40.155,137.531 
	33.546,143.747 "/>
<polygon fill-rule="evenodd" clip-rule="evenodd" fill="#FFFFFF" points="36.083,146.214 36.421,145.821 43.992,142.839 
	41.104,140.479 42.036,139.398 46.625,143.147 46.286,143.541 38.705,146.515 41.755,149.008 40.824,150.088 "/>
<path fill-rule="evenodd" clip-rule="evenodd" fill="#FFFFFF" d="M50.053,148.586l-2.733,2.232l1.872,1.139L50.053,148.586z
	 M48.517,155.12l0.418-1.885l-2.67-1.625l-1.529,1.208l-1.538-0.936l8.041-5.802l0.607,0.369l-1.802,9.598L48.517,155.12z"/>
<path fill-rule="evenodd" clip-rule="evenodd" fill="#FFFFFF" d="M62.429,152.271l-1.161,0.934
	c-0.184-0.468-0.645-0.861-1.382-1.181c-0.699-0.303-1.403-0.265-2.112,0.114c-0.707,0.375-1.26,1-1.659,1.874
	c-0.401,0.875-0.511,1.657-0.333,2.349c0.182,0.694,0.618,1.191,1.31,1.49c0.79,0.343,1.534,0.336,2.233-0.021l0.158,1.473
	c-0.895,0.365-1.928,0.293-3.101-0.215c-1.173-0.509-1.912-1.279-2.217-2.313c-0.307-1.033-0.163-2.198,0.431-3.497
	c0.553-1.209,1.373-2.063,2.463-2.563c1.093-0.501,2.202-0.509,3.326-0.022C61.346,151.112,62.028,151.638,62.429,152.271"/>
<polygon fill-rule="evenodd" clip-rule="evenodd" fill="#FFFFFF" points="62.598,161.151 65.284,152.595 66.843,153.059 
	64.157,161.615 "/>
<path fill-rule="evenodd" clip-rule="evenodd" fill="#FFFFFF" d="M70.356,158.457c-0.168,1.033-0.119,1.861,0.148,2.484
	c0.268,0.622,0.744,0.986,1.429,1.092c0.806,0.125,1.463-0.059,1.976-0.549c0.516-0.489,0.859-1.262,1.031-2.32
	c0.336-2.071-0.28-3.228-1.848-3.47c-0.719-0.111-1.316,0.086-1.792,0.589C70.826,156.783,70.512,157.508,70.356,158.457
	 M68.684,158.199c0.205-1.259,0.731-2.268,1.579-3.028c0.852-0.763,1.87-1.053,3.056-0.871c1.304,0.202,2.238,0.75,2.799,1.644
	c0.562,0.895,0.727,2.054,0.495,3.478c-0.231,1.423-0.776,2.498-1.635,3.223c-0.855,0.726-1.945,0.986-3.271,0.782
	c-1.218-0.188-2.086-0.747-2.604-1.676C68.589,160.823,68.45,159.639,68.684,158.199z"/>
<polygon fill-rule="evenodd" clip-rule="evenodd" fill="#FFFFFF" points="85.8,164.498 81.443,158.762 81.342,164.307 
	79.776,164.279 79.937,155.327 80.72,155.341 84.962,160.813 85.059,155.415 86.627,155.442 86.465,164.51 "/>
<path fill-rule="evenodd" clip-rule="evenodd" fill="#FFFFFF" d="M100.896,153.722l-0.377,1.42
	c-0.431-0.273-1.042-0.327-1.831-0.164c-0.748,0.154-1.295,0.588-1.64,1.301c-0.345,0.708-0.415,1.53-0.21,2.466
	c0.204,0.937,0.586,1.633,1.148,2.091c0.565,0.458,1.218,0.609,1.96,0.457c0.846-0.176,1.444-0.607,1.793-1.296l1.016,1.101
	c-0.503,0.808-1.383,1.341-2.638,1.601c-1.255,0.261-2.318,0.061-3.189-0.601c-0.871-0.66-1.458-1.686-1.761-3.075
	c-0.283-1.295-0.134-2.456,0.446-3.483c0.583-1.032,1.476-1.673,2.677-1.922C99.319,153.406,100.188,153.44,100.896,153.722"/>
<polygon fill-rule="evenodd" clip-rule="evenodd" fill="#FFFFFF" points="105.46,153.105 106.23,155.061 109.064,154.002 
	109.561,155.262 106.728,156.322 107.714,158.824 111.601,157.372 112.122,158.688 106.71,160.711 103.419,152.357 108.892,150.311 
	109.412,151.628 "/>
<path fill-rule="evenodd" clip-rule="evenodd" fill="#FFFFFF" d="M113.446,149.643l1.238,2.174c0.275-0.12,0.482-0.218,0.622-0.293
	c0.596-0.321,0.984-0.638,1.166-0.95c0.184-0.314,0.142-0.708-0.128-1.182c-0.218-0.385-0.519-0.574-0.903-0.567
	c-0.383,0.007-0.893,0.182-1.529,0.526C113.757,149.433,113.602,149.531,113.446,149.643 M120.263,154.615l-3.984-2.074
	c-0.217,0.112-0.526,0.264-0.926,0.451l1.86,3.269l-1.48,0.8l-4.454-7.826c0.08-0.044,0.382-0.223,0.905-0.538
	c0.522-0.318,0.947-0.566,1.275-0.744c2.041-1.102,3.499-0.883,4.375,0.655c0.263,0.463,0.362,0.961,0.297,1.494
	c-0.064,0.533-0.265,0.993-0.604,1.381l4.38,2.244L120.263,154.615z"/>
<polygon fill-rule="evenodd" clip-rule="evenodd" fill="#FFFFFF" points="122.893,143.682 127.55,149.701 126.248,150.657 
	121.591,144.638 119.256,146.35 118.385,145.223 124.461,140.765 125.332,141.892 "/>
<polygon fill-rule="evenodd" clip-rule="evenodd" fill="#FFFFFF" points="132.423,145.597 126.041,139.161 127.213,138.058 
	133.596,144.494 "/>
<polygon fill-rule="evenodd" clip-rule="evenodd" fill="#FFFFFF" points="131.5,135.628 133.146,136.975 135.224,134.565 
	136.285,135.433 134.209,137.843 137.428,140.473 136.379,141.689 129.342,135.938 133.23,131.423 134.342,132.33 "/>
<polygon fill-rule="evenodd" clip-rule="evenodd" fill="#FFFFFF" points="142.398,134.147 134.692,129.274 135.58,127.943 
	143.286,132.815 "/>
<path fill-rule="evenodd" clip-rule="evenodd" fill="#FFFFFF" d="M140.484,120.142l0.918,1.164c-0.486,0.163-0.906,0.598-1.26,1.304
	c-0.335,0.669-0.321,1.356,0.043,2.059c0.36,0.701,0.982,1.262,1.866,1.681c0.883,0.419,1.683,0.555,2.399,0.406
	c0.718-0.152,1.242-0.561,1.574-1.223c0.379-0.758,0.398-1.482,0.057-2.175l1.516-0.102c0.345,0.883,0.235,1.887-0.328,3.01
	c-0.563,1.124-1.379,1.816-2.449,2.077c-1.07,0.262-2.262,0.082-3.572-0.542c-1.223-0.581-2.07-1.409-2.545-2.486
	c-0.476-1.083-0.445-2.162,0.094-3.238C139.258,121.156,139.821,120.51,140.484,120.142"/>
<path fill-rule="evenodd" clip-rule="evenodd" fill="#FFFFFF" d="M144.705,115.426l2.885,2.043l0.684-2.045L144.705,115.426z
	 M151.585,115.298l-1.979,0.061l-0.974,2.916l1.574,1.152l-0.561,1.679l-7.725-6.195l0.22-0.663l9.999-0.619L151.585,115.298z"/>
<path fill-rule="evenodd" clip-rule="evenodd" fill="#FFFFFF" d="M145.573,107.452l6.194,0.956c0.064-0.25,0.122-0.521,0.17-0.815
	c0.129-0.792-0.066-1.457-0.583-1.995c-0.517-0.541-1.308-0.894-2.368-1.058c-1.941-0.299-3.055,0.43-3.34,2.188
	C145.618,106.896,145.594,107.138,145.573,107.452 M153.299,108.242l-0.318,1.96l-9.068-1.399c0.158-1.257,0.264-2.047,0.314-2.369
	c0.21-1.287,0.764-2.247,1.663-2.879c0.895-0.637,1.981-0.857,3.263-0.659C152.414,103.399,153.797,105.181,153.299,108.242z"/>
<path fill-rule="evenodd" clip-rule="evenodd" fill="#FFFFFF" d="M147.971,96.719l3.374,1.132l0.038-2.149L147.971,96.719z
	 M154.512,94.638l-1.872,0.621l-0.056,3.066l1.852,0.654l-0.032,1.765l-9.247-3.725l0.012-0.696l9.376-3.438L154.512,94.638z"/>
<path fill="#FFFFFF" d="M123.436,53.307c10.09,10.09,16.33,24.029,16.33,39.425s-6.24,29.336-16.33,39.426
	c-10.09,10.09-24.029,16.332-39.426,16.332s-29.336-6.242-39.426-16.331c-10.09-10.09-16.331-24.03-16.331-39.426
	s6.241-29.335,16.331-39.425c10.09-10.09,24.029-16.331,39.426-16.331S113.345,43.217,123.436,53.307 M138.114,92.732
	c0-14.94-6.056-28.467-15.847-38.258c-9.791-9.791-23.317-15.847-38.258-15.847s-28.467,6.056-38.258,15.847
	c-9.791,9.791-15.847,23.317-15.847,38.258c0,14.941,6.056,28.467,15.847,38.258c9.791,9.791,23.318,15.847,38.258,15.847
	s28.467-6.056,38.258-15.847C132.059,121.2,138.114,107.673,138.114,92.732z"/>
<path fill="#FFFFFF" d="M85.656,61.403h15.077l0.903,0.907H84.761L85.656,61.403z M110.125,87.157V62.311h-7.215l-0.901-0.907h9.022
	V88.06L110.125,87.157z M110.125,105.311V88.436l0.907,0.901v15.079L110.125,105.311z M107.261,109.408h2.864v-2.824l0.907-0.895
	v4.624h-4.688L107.261,109.408z M105.858,109.408h0.115l-0.115,0.113V109.408z M57.895,94.045v15.362h47.057v0.905H56.987v-17.17
	L57.895,94.045z M57.895,75.89v16.878l-0.907-0.901V76.784L57.895,75.89z M57.441,61.403h26.941l-0.895,0.907H57.895v12.308
	l-0.907,0.895V61.403H57.441z"/>
<path fill-rule="evenodd" clip-rule="evenodd" fill="#FFFFFF" d="M105.858,97.3h5.305v5.089h-5.305V97.3z M80.124,97.3h24.828v5.089
	H80.124V97.3z"/>
<path fill-rule="evenodd" clip-rule="evenodd" fill="#FFFFFF" d="M105.858,91.703h5.305v5.089h-5.305V91.703z M80.124,91.703h24.828
	v5.089H80.124V91.703z"/>
<polygon fill-rule="evenodd" clip-rule="evenodd" fill="#FFFFFF" points="105.405,83.099 119.285,96.91 105.405,110.604 "/>
<path fill-rule="evenodd" clip-rule="evenodd" fill="#FFFFFF" d="M98.745,67.484v22.059h-5.19V67.484H98.745z M93.555,61.274h5.19
	v5.304h-5.19V61.274z"/>
<path fill-rule="evenodd" clip-rule="evenodd" fill="#FFFFFF" d="M92.941,67.484v22.059h-4.984V67.484H92.941z M87.957,61.274h4.984
	v5.304h-4.984V61.274z"/>
<polygon fill-rule="evenodd" clip-rule="evenodd" fill="#FFFFFF" points="79.464,67.031 93.164,53.151 106.969,67.031 "/>
<path fill-rule="evenodd" clip-rule="evenodd" fill="#FFFFFF" d="M63.066,84.408h22.729v5.135H63.066V84.408z M56.856,84.408h5.304
	v5.135h-5.304V84.408z"/>
<path fill-rule="evenodd" clip-rule="evenodd" fill="#FFFFFF" d="M63.066,78.827h22.729v5.016H63.066V78.827z M56.856,78.827h5.304
	v5.016h-5.304V78.827z"/>
<polygon fill-rule="evenodd" clip-rule="evenodd" fill="#FFFFFF" points="62.613,70.596 48.733,84.296 62.613,98.101 "/>
<polygon fill-rule="evenodd" clip-rule="evenodd" fill="#FFFFFF" points="71.809,115.251 68.687,115.251 68.79,126.275 
	68.687,126.275 63.826,115.251 58.531,115.251 58.531,129.046 61.613,129.046 61.51,117.961 61.613,117.961 66.474,129.046 
	71.809,129.046 "/>
<polygon fill-rule="evenodd" clip-rule="evenodd" fill="#FFFFFF" points="86.261,115.251 82.622,115.251 79.685,120.857 
	79.58,120.857 76.706,115.251 73.107,115.251 78.008,123.979 78.008,129.046 81.235,129.046 81.235,123.979 "/>
<path fill-rule="evenodd" clip-rule="evenodd" fill="#FFFFFF" d="M96.345,123.958c0,0.228,0.021,0.435,0.021,0.662
	c0,1.758-1.344,1.799-2.75,1.799c-2.254,0-2.668-0.579-2.668-2.833l-0.021-1.634c0-0.642,0-1.283,0.021-1.903
	c0.042-0.579,0.083-1.22,0.497-1.654c0.455-0.517,1.509-0.538,2.213-0.538h0.496c1.675,0,2.109,0.538,2.109,2.171h3.185
	c-0.083-1.137,0.02-2.337-0.6-3.35c-0.869-1.386-2.522-1.51-4.053-1.51l-0.973,0c-5.026,0-6.205,1.283-6.205,6.287l0.042,1.84
	c0.062,2.999,0.414,5.481,3.971,5.812c0.992,0.021,2.006,0.042,2.998,0.042c1.159,0,2.337-0.104,3.372-0.724
	c1.488-0.91,1.488-2.502,1.488-4.033c-0.021-0.145-0.021-0.29-0.021-0.435L96.345,123.958z"/>
<polygon fill-rule="evenodd" clip-rule="evenodd" fill="#FFFFFF" points="104.219,117.858 110.754,117.858 110.754,115.251 
	101.116,115.251 101.116,129.046 110.858,129.046 110.858,126.461 104.219,126.461 104.219,123.153 110.381,123.153 
	110.381,120.918 104.219,120.918 "/>
<path fill="#FFFFFF" d="M145.242,209.762v-2.919h-6.906l8.384-11.617h0.657v9.985h1.752v1.632h-1.752v2.919H145.242z
	 M145.304,200.041l-3.671,5.17h3.609v-3.744c0-0.198,0.004-0.416,0.015-0.657C145.266,200.566,145.283,200.31,145.304,200.041z
	 M125.298,204.144h5.254v1.975h-5.254V204.144z M111.647,208.132c0.955,0,1.677-0.457,2.157-1.373
	c0.482-0.913,0.725-2.282,0.725-4.104c0-1.768-0.239-3.117-0.714-4.044c-0.474-0.928-1.168-1.393-2.083-1.393
	c-0.948,0-1.667,0.465-2.154,1.386c-0.486,0.927-0.729,2.289-0.729,4.092c0,1.747,0.243,3.093,0.725,4.029
	C110.057,207.662,110.748,208.132,111.647,208.132z M116.866,202.832c0,2.285-0.46,4.077-1.384,5.373
	c-0.919,1.292-2.185,1.94-3.795,1.94c-1.634,0-2.903-0.655-3.808-1.96c-0.911-1.311-1.362-3.146-1.362-5.512
	c0-2.345,0.459-4.173,1.375-5.482c0.917-1.313,2.192-1.966,3.822-1.966c1.652,0,2.922,0.657,3.815,1.969
	C116.419,198.51,116.866,200.391,116.866,202.832z M98.766,209.762V197.36h-2.98l0.905-1.854h4.208v14.255H98.766z M86.605,209.762
	V197.36h-2.98l0.905-1.854h4.208v14.255H86.605z M76.451,204.346c-0.302,0.151-0.606,0.263-0.919,0.336
	c-0.311,0.07-0.628,0.106-0.947,0.106c-1.292,0-2.352-0.432-3.181-1.297c-0.832-0.864-1.247-1.975-1.247-3.333
	c0-1.48,0.466-2.672,1.398-3.577c0.934-0.903,2.168-1.355,3.701-1.355c1.427,0,2.577,0.439,3.453,1.321
	c0.876,0.884,1.312,2.04,1.312,3.473c0,1.541-1.052,3.786-3.158,6.735l-0.248,0.353l-2.534,3.562l-1.771-0.907L76.451,204.346z
	 M77.766,199.996c0-0.858-0.234-1.549-0.707-2.072c-0.47-0.524-1.09-0.787-1.857-0.787c-0.858,0-1.537,0.256-2.03,0.767
	c-0.493,0.513-0.741,1.211-0.741,2.093c0,0.907,0.241,1.614,0.729,2.129c0.482,0.513,1.15,0.771,2.003,0.771
	c0.765,0,1.393-0.273,1.875-0.813C77.525,201.544,77.766,200.85,77.766,199.996z M67.036,207.889v1.873h-9.645l5.382-6.44
	c0.667-0.804,1.155-1.513,1.463-2.123c0.31-0.608,0.464-1.161,0.464-1.661c0-0.711-0.212-1.275-0.635-1.684
	c-0.423-0.41-1.002-0.615-1.735-0.615c-0.659,0-1.198,0.205-1.625,0.615c-0.425,0.412-0.664,0.948-0.718,1.619h-2.254
	c0-1.292,0.434-2.321,1.299-3.093c0.866-0.769,2.026-1.154,3.489-1.154c1.389,0,2.487,0.355,3.29,1.069
	c0.802,0.716,1.204,1.688,1.204,2.92c0,0.877-0.23,1.762-0.691,2.658c-0.462,0.893-1.439,2.191-2.933,3.896l-1.828,2.12H67.036z
	 M49.861,202.595c0,1.021-0.19,1.99-0.574,2.898c-0.385,0.913-0.943,1.725-1.677,2.44c-0.74,0.714-1.575,1.262-2.506,1.641
	c-0.931,0.378-1.908,0.571-2.926,0.571c-1.038,0-2.024-0.193-2.967-0.574c-0.939-0.387-1.769-0.931-2.49-1.638
	c-0.734-0.716-1.292-1.524-1.67-2.43c-0.38-0.903-0.57-1.873-0.57-2.909c0-1.031,0.19-2.001,0.57-2.91
	c0.378-0.912,0.936-1.727,1.67-2.448c0.736-0.717,1.567-1.26,2.498-1.633c0.929-0.372,1.917-0.56,2.96-0.56
	c1.033,0,2.012,0.188,2.942,0.56c0.926,0.373,1.758,0.916,2.49,1.633c0.734,0.727,1.292,1.549,1.677,2.461
	C49.67,200.613,49.861,201.578,49.861,202.595z M47.425,202.595c0-0.729-0.133-1.42-0.4-2.074c-0.265-0.654-0.648-1.238-1.145-1.748
	c-0.486-0.507-1.045-0.893-1.684-1.164c-0.641-0.271-1.315-0.41-2.019-0.41c-0.709,0-1.384,0.135-2.024,0.403
	c-0.637,0.268-1.208,0.656-1.705,1.171c-0.497,0.502-0.879,1.083-1.141,1.738c-0.263,0.653-0.392,1.348-0.392,2.084
	c0,0.727,0.129,1.416,0.392,2.063c0.261,0.648,0.644,1.228,1.141,1.738c0.497,0.513,1.064,0.901,1.701,1.17
	c0.635,0.27,1.312,0.403,2.028,0.403c0.7,0,1.366-0.134,1.999-0.403c0.632-0.269,1.202-0.657,1.704-1.17
	c0.497-0.511,0.88-1.09,1.145-1.741C47.292,204,47.425,203.316,47.425,202.595z M23.228,206.879l1.866-0.861
	c0.176,0.64,0.502,1.13,0.975,1.466c0.47,0.339,1.074,0.506,1.809,0.506c0.698,0,1.249-0.194,1.663-0.579
	c0.408-0.387,0.614-0.903,0.614-1.552c0-0.846-0.702-1.6-2.107-2.262c-0.198-0.097-0.349-0.171-0.453-0.214
	c-1.587-0.775-2.646-1.474-3.171-2.1c-0.527-0.628-0.792-1.393-0.792-2.297c0-1.175,0.397-2.123,1.193-2.852
	s1.843-1.091,3.135-1.091c1.06,0,1.951,0.205,2.665,0.614c0.714,0.41,1.207,0.996,1.482,1.762l-1.824,0.946
	c-0.29-0.454-0.605-0.785-0.951-0.993c-0.345-0.211-0.741-0.315-1.188-0.315c-0.628,0-1.131,0.164-1.5,0.493
	c-0.373,0.326-0.556,0.765-0.556,1.315c0,0.865,0.815,1.673,2.442,2.418c0.124,0.062,0.221,0.108,0.295,0.139
	c1.423,0.657,2.4,1.3,2.93,1.922c0.531,0.628,0.795,1.411,0.795,2.347c0,1.362-0.429,2.445-1.289,3.248
	c-0.858,0.803-2.019,1.206-3.484,1.206c-1.223,0-2.228-0.283-3.012-0.847C23.982,208.734,23.469,207.93,23.228,206.879z
	 M18.351,209.762v-14.396h2.336v14.396H18.351z"/>
</svg>
