<?xml version="1.0" encoding="UTF-8"?>
<!DOCTYPE svg PUBLIC "-//W3C//DTD SVG 1.1//EN" "http://www.w3.org/Graphics/SVG/1.1/DTD/svg11.dtd">
<!-- Creator: CorelDRAW X7 -->
<svg xmlns="http://www.w3.org/2000/svg" xml:space="preserve" width="26.1361mm" height="8.1694mm" version="1.1" style="shape-rendering:geometricPrecision; text-rendering:geometricPrecision; image-rendering:optimizeQuality; fill-rule:evenodd; clip-rule:evenodd"
viewBox="0 0 545 170"
 xmlns:xlink="http://www.w3.org/1999/xlink">
 <defs>
  <style type="text/css">
   <![CDATA[
    .fil0 {fill:#FEFEFE;fill-rule:nonzero}
   ]]>
  </style>
 </defs>
 <g id="Capa_x0020_1">
  <metadata id="CorelCorpID_0Corel-Layer"/>
  <g id="_2527566300256">
   <path class="fil0" d="M389 4c-14,9 -24,22 -29,38 -6,20 -10,45 -22,64l93 0c0,0 0,0 0,-1 0,-5 -2,-10 -4,-15 -4,-7 -11,-12 -18,-18 -10,-8 -21,-20 -21,-36 0,-4 1,-9 4,-13 6,-10 17,-18 28,-23l-24 0c-2,1 -5,3 -7,4z"/>
   <path class="fil0" d="M430 113c0,-2 1,-4 1,-7l-93 0c-3,6 -7,10 -11,14 -3,3 -6,5 -10,7l108 0c2,-5 4,-9 5,-14z"/>
   <path class="fil0" d="M453 4c0,-1 0,-1 1,-1 -1,0 -1,0 -1,1z"/>
   <path class="fil0" d="M471 70c1,1 1,3 2,4 0,0 0,0 0,0 -1,-1 -1,-3 -2,-4z"/>
   <path class="fil0" d="M417 26c2,0 4,0 6,1 -2,-1 -4,-1 -6,-1 0,0 0,0 0,0z"/>
   <path class="fil0" d="M517 106l-79 0c0,3 0,6 -1,9 -1,4 -2,8 -4,12l92 0c-1,-7 -4,-14 -8,-21z"/>
   <path class="fil0" d="M517 106c-10,-13 -26,-24 -42,-30 -1,0 -1,-1 -1,-1l0 0c-1,0 -1,0 -2,0 0,0 0,0 -1,-1 -2,0 -4,-1 -6,-1 -1,-1 -2,-1 -2,-1 -2,0 -3,-1 -4,-1 -17,-5 -44,-17 -46,-34 0,-1 0,-2 0,-3 1,-2 1,-5 3,-7 0,0 0,0 0,0 0,-1 1,-2 1,-3 9,-11 22,-17 36,-20 0,-1 0,-1 1,-1 1,0 3,0 4,-1 2,0 5,-1 8,-2l-15 0c-5,1 -9,2 -9,2l0 0 -1 0c-5,1 -11,2 -17,4 -10,4 -20,12 -26,21 -2,3 -3,6 -3,9l0 1c0,12 9,22 19,29 7,6 14,11 19,20 3,6 5,13 5,19 0,1 0,1 0,1l79 0z"/>
   <path class="fil0" d="M474 75c-1,0 -1,0 -2,0 1,0 1,0 2,0l0 0z"/>
   <path class="fil0" d="M447 64c-8,-13 -20,-17 -28,-19l-4 0 3 3c0,0 1,1 1,2l0 0 1 0c7,1 16,5 22,14l0 1 0 0c1,0 2,1 3,1l4 2 -2 -4z"/>
   <path class="fil0" d="M508 89c0,2 0,5 0,7 0,1 1,1 1,2 0,-3 0,-6 0,-9 1,-23 -8,-62 -54,-86 0,0 -1,0 -1,0 -1,0 -1,0 -1,1 47,24 55,62 55,85z"/>
   <path class="fil0" d="M428 14c-1,1 -1,1 -2,1 45,14 57,49 60,66 0,0 1,0 1,1 -2,-17 -13,-53 -59,-68z"/>
   <path class="fil0" d="M473 0c0,0 3,2 7,6 14,12 40,40 40,82 0,7 0,13 -2,21 1,0 1,1 1,1 2,-7 3,-15 3,-22 0,-52 -41,-83 -48,-88l-2 0 1 0z"/>
   <path class="fil0" d="M413 37l1 1c30,3 41,20 44,32l1 1c1,0 2,1 4,1l-1 -2c-4,-13 -15,-33 -48,-36l-1 0c0,1 0,2 0,3z"/>
   <path class="fil0" d="M416 27l0 0c16,3 44,12 55,47 1,1 1,1 1,1 0,0 0,0 0,0 -11,-36 -40,-46 -56,-49 0,0 1,-1 1,-1 16,3 46,13 57,50 0,0 0,1 1,1l0 -1c-12,-37 -41,-48 -58,-51 0,1 -1,2 -1,3 0,0 0,0 0,0z"/>
   <path class="fil0" d="M417 25l0 1 0 -1c0,0 -1,1 -1,1 16,3 45,13 56,49 0,0 0,0 0,0 1,0 1,0 2,0 -11,-37 -41,-47 -57,-50zm0 1l0 0c0,0 0,0 0,0 2,0 4,0 6,1 -2,-1 -4,-1 -6,-1zm54 42l0 0c0,0 0,0 0,0 0,0 0,0 0,0zm0 1l0 0c0,0 0,0 0,0 0,0 0,0 0,0zm0 0l0 0c0,0 0,0 0,0 0,0 0,0 0,0zm0 0l0 0c0,0 0,0 0,1 0,-1 0,-1 0,-1zm0 1l0 0c1,1 1,3 2,4 0,0 0,0 0,0 -1,-1 -1,-3 -2,-4z"/>
   <path class="fil0" d="M441 8c-1,0 -2,0 -2,0 1,1 1,1 3,2 17,7 52,28 54,77 0,0 1,0 1,1 -1,-52 -39,-73 -56,-80z"/>
   <path class="fil0" d="M533 89c0,-26 -9,-60 -44,-89l-2 0c35,29 44,63 44,89 0,13 -2,25 -4,33 -1,1 -1,3 -1,5l1 0c2,-8 6,-22 6,-38z"/>
   <path class="fil0" d="M544 93c0,-53 -28,-86 -35,-93l-2 0c1,1 3,3 5,6 10,12 30,42 30,87 0,10 -1,22 -3,34l1 0c3,-12 4,-24 4,-34z"/>
   <path class="fil0" d="M111 83c2,-12 4,-28 7,-42l-1 0c-5,14 -12,29 -17,39l-23 45 -22 0 -4 -44c-1,-10 -1,-26 -1,-40l-1 0c-3,14 -7,30 -11,42l-11 44 -27 0 38 -126 32 0 3 46c1,16 2,29 2,44l1 0c5,-14 11,-28 19,-44l21 -46 32 0 -15 126 -28 0 6 -44z"/>
   <polygon class="fil0" points="188,24 160,24 165,1 250,1 246,24 218,24 198,127 168,127 "/>
   <path class="fil0" d="M315 125c-4,2 -13,3 -24,3 -40,0 -54,-27 -48,-62 9,-48 45,-66 75,-66 11,0 18,2 21,3l-9 21c-3,-1 -7,-3 -14,-3 -17,0 -35,12 -40,44 -6,30 6,41 25,41 5,0 11,-1 15,-2l-1 21z"/>
   <polygon class="fil0" points="0,165 0,147 6,147 9,159 12,147 18,147 18,165 14,165 14,151 11,165 7,165 3,151 3,165 "/>
   <path class="fil0" d="M21 150l0 -3 4 0 0 3 -4 0zm0 15l0 0 0 -13 4 0 0 13 -4 0z"/>
   <path class="fil0" d="M41 165l-4 0 0 -7c0,-1 0,-2 0,-3 0,0 0,0 -1,-1 0,0 0,0 -1,0 -1,0 -1,0 -2,1 0,0 0,0 -1,1 0,0 0,2 0,3l0 6 -3 0 0 -13 3 0 0 2c1,-2 3,-3 4,-3 1,0 2,1 2,1 1,0 2,0 2,1 0,0 0,1 1,1 0,1 0,2 0,3l0 8z"/>
   <path class="fil0" d="M44 150l0 -3 4 0 0 3 -4 0zm0 15l0 0 0 -13 4 0 0 13 -4 0z"/>
   <path class="fil0" d="M50 161l4 0c0,0 0,1 1,1 0,1 1,1 2,1 1,0 1,0 2,-1 0,0 0,0 0,-1 0,0 0,0 0,0 0,0 -1,-1 -1,-1 -3,0 -5,-1 -6,-2 -1,0 -1,-1 -1,-3 0,-1 0,-2 1,-2 1,-1 2,-2 4,-2 2,0 4,1 4,1 1,1 2,2 2,3l-3 1c0,-1 0,-1 -1,-2 0,0 -1,0 -2,0 0,0 -1,0 -2,0 0,1 0,1 0,1 0,0 0,0 0,1 1,0 2,0 4,1 2,0 3,1 4,1 0,1 1,2 1,3 0,1 -1,2 -2,3 -1,1 -2,1 -4,1 -2,0 -4,0 -5,-1 -1,0 -1,-1 -2,-3z"/>
   <path class="fil0" d="M72 152l0 3 -2 0 0 5c0,1 0,2 0,2 0,0 0,0 0,0 0,0 0,0 1,0 0,0 0,0 1,0l0 3c-1,0 -1,0 -2,0 -1,0 -2,0 -2,0 -1,0 -1,0 -1,-1 -1,0 -1,-1 -1,-1 0,-1 0,-1 0,-3l0 -5 -2 0 0 -3 2 0 0 -3 4 -2 0 5 2 0z"/>
   <path class="fil0" d="M82 161l4 0c-1,2 -1,3 -2,3 -1,1 -3,1 -4,1 -2,0 -4,0 -5,-2 -1,-1 -2,-3 -2,-5 0,-2 1,-3 2,-5 1,-1 3,-2 5,-2 2,0 3,1 4,2 1,2 2,4 2,6l-9 0c0,1 0,2 1,3 0,0 1,1 2,1 1,0 1,0 1,-1 1,0 1,-1 1,-1zm0 -4l0 0c0,-1 0,-2 0,-2 -1,-1 -2,-1 -2,-1 -1,0 -2,0 -2,1 -1,0 -1,1 -1,2l5 0z"/>
   <path class="fil0" d="M92 165l-3 0 0 -13 3 0 0 2c0,-1 1,-2 1,-2 1,0 1,-1 2,-1 1,0 2,1 2,1l-1 3c0,0 -1,0 -1,0 -1,0 -1,0 -2,0 0,0 0,1 -1,1 0,1 0,3 0,5l0 4z"/>
   <path class="fil0" d="M99 150l0 -3 3 0 0 3 -3 0zm0 15l0 0 0 -13 3 0 0 13 -3 0z"/>
   <path class="fil0" d="M105 158c0,-1 0,-2 1,-3 1,-1 1,-2 2,-3 2,0 3,-1 4,-1 2,0 4,1 5,2 1,2 2,3 2,5 0,2 -1,4 -2,5 -1,2 -3,2 -5,2 -1,0 -2,0 -3,0 -2,-1 -2,-2 -3,-3 -1,-1 -1,-2 -1,-4zm4 0l0 0c0,2 0,3 1,3 0,1 1,1 2,1 1,0 2,0 2,-1 1,0 1,-1 1,-3 0,-1 0,-2 -1,-3 0,0 -1,-1 -2,-1 -1,0 -2,1 -2,1 -1,1 -1,2 -1,3z"/>
   <path class="fil0" d="M141 165l-3 0 0 -2c-1,1 -1,1 -2,2 -1,0 -2,0 -2,0 -2,0 -3,0 -4,-2 -1,-1 -2,-2 -2,-5 0,-2 1,-4 2,-5 1,-1 2,-2 4,-2 1,0 3,1 4,2l0 -6 3 0 0 18zm-9 -7l0 0c0,2 0,3 0,3 1,1 2,2 3,2 0,0 1,-1 2,-1 0,-1 1,-2 1,-4 0,-1 -1,-2 -1,-3 -1,-1 -1,-1 -2,-1 -1,0 -2,0 -2,1 -1,1 -1,2 -1,3z"/>
   <path class="fil0" d="M152 161l4 0c-1,2 -1,3 -2,3 -1,1 -2,1 -4,1 -2,0 -4,0 -5,-2 -1,-1 -1,-3 -1,-5 0,-2 0,-3 1,-5 1,-1 3,-2 5,-2 2,0 3,1 4,2 2,2 2,4 2,6l-9 0c0,1 1,2 1,3 1,0 1,1 2,1 1,0 1,0 2,-1 0,0 0,-1 0,-1zm1 -4l0 0c0,-1 -1,-2 -1,-2 -1,-1 -1,-1 -2,-1 -1,0 -1,0 -2,1 0,0 -1,1 -1,2l6 0z"/>
   <polygon class="fil0" points="170,165 170,150 165,150 165,147 179,147 179,150 174,150 174,165 "/>
   <path class="fil0" d="M184 165l-4 0 0 -13 4 0 0 2c0,-1 1,-2 1,-2 1,0 1,-1 2,-1 0,0 1,1 2,1l-1 3c-1,0 -1,0 -2,0 0,0 -1,0 -1,0 0,0 -1,1 -1,1 0,1 0,3 0,5l0 4z"/>
   <path class="fil0" d="M193 156l-3 -1c0,-1 1,-2 2,-3 1,0 2,-1 4,-1 1,0 2,1 3,1 1,0 2,1 2,1 0,1 0,2 0,4l0 4c0,1 0,2 0,2 1,1 1,1 1,2l-3 0c-1,0 -1,-1 -1,-1 0,0 0,0 0,0 0,0 -1,1 -2,1 -1,0 -1,0 -2,0 -1,0 -2,0 -3,-1 -1,-1 -1,-1 -1,-3 0,0 0,-1 0,-2 0,0 1,-1 2,-1 0,0 1,-1 2,-1 2,0 3,0 4,-1l0 0c0,-1 0,-1 -1,-1 0,-1 -1,-1 -2,-1 0,0 -1,0 -1,0 0,1 -1,1 -1,2zm5 3l0 0c-1,0 -1,0 -2,0 -1,0 -2,1 -2,1 -1,0 -1,1 -1,1 0,1 0,1 1,1 0,1 0,1 1,1 1,0 1,0 2,-1 0,0 1,0 1,-1 0,0 0,-1 0,-2l0 0z"/>
   <path class="fil0" d="M217 165l-4 0 0 -7c0,-1 0,-2 0,-3 0,0 0,0 -1,-1 0,0 0,0 -1,0 0,0 -1,0 -1,1 -1,0 -1,0 -1,1 -1,0 -1,2 -1,3l0 6 -3 0 0 -13 3 0 0 2c1,-2 3,-3 4,-3 1,0 2,1 3,1 0,0 1,0 1,1 0,0 1,1 1,1 0,1 0,2 0,3l0 8z"/>
   <path class="fil0" d="M219 161l4 0c0,0 0,1 1,1 0,1 1,1 2,1 1,0 1,0 2,-1 0,0 0,0 0,-1 0,0 0,0 0,0 0,0 -1,-1 -1,-1 -3,0 -5,-1 -6,-2 -1,0 -1,-1 -1,-3 0,-1 0,-2 1,-2 1,-1 2,-2 4,-2 2,0 4,1 4,1 1,1 2,2 2,3l-3 1c0,-1 0,-1 -1,-2 0,0 -1,0 -2,0 0,0 -1,0 -2,0 0,1 0,1 0,1 0,0 0,0 0,1 1,0 2,0 4,1 2,0 3,1 4,1 0,1 1,2 1,3 0,1 -1,2 -2,3 -1,1 -2,1 -4,1 -2,0 -4,0 -5,-1 -1,0 -1,-1 -2,-3z"/>
   <path class="fil0" d="M235 152l3 0 0 2c0,-1 1,-2 2,-2 1,0 1,-1 2,-1 2,0 3,1 4,2 1,1 2,3 2,5 0,3 -1,4 -2,5 -1,2 -2,2 -4,2 -1,0 -1,0 -2,0 0,0 -1,-1 -2,-2l0 7 -3 0 0 -18zm3 6l0 0c0,2 1,3 1,3 1,1 1,2 2,2 1,0 2,-1 2,-1 1,-1 1,-2 1,-4 0,-1 0,-2 -1,-3 0,0 -1,-1 -2,-1 -1,0 -1,1 -2,1 0,1 -1,2 -1,3z"/>
   <path class="fil0" d="M250 158c0,-1 0,-2 1,-3 0,-1 1,-2 2,-3 1,0 2,-1 4,-1 2,0 3,1 5,2 1,2 2,3 2,5 0,2 -1,4 -2,5 -2,2 -3,2 -5,2 -2,0 -3,0 -4,0 -1,-1 -2,-2 -2,-3 -1,-1 -1,-2 -1,-4zm3 0l0 0c0,2 1,3 1,3 1,1 2,1 3,1 1,0 1,0 2,-1 1,0 1,-1 1,-3 0,-1 0,-2 -1,-3 -1,0 -1,-1 -2,-1 -1,0 -2,1 -3,1 0,1 -1,2 -1,3z"/>
   <path class="fil0" d="M270 165l-4 0 0 -13 3 0 0 2c1,-1 2,-2 2,-2 0,0 1,-1 2,-1 0,0 1,1 2,1l-1 3c-1,0 -1,0 -2,0 0,0 -1,0 -1,0 -1,0 -1,1 -1,1 0,1 0,3 0,5l0 4z"/>
   <path class="fil0" d="M283 152l0 3 -3 0 0 5c0,1 0,2 0,2 0,0 0,0 0,0 1,0 1,0 1,0 0,0 1,0 1,0l1 3c-1,0 -2,0 -3,0 -1,0 -1,0 -2,0 0,0 -1,0 -1,-1 0,0 0,-1 0,-1 0,-1 0,-1 0,-3l0 -5 -2 0 0 -3 2 0 0 -3 3 -2 0 5 3 0z"/>
   <path class="fil0" d="M293 161l3 0c0,2 -1,3 -2,3 -1,1 -2,1 -4,1 -2,0 -4,0 -5,-2 -1,-1 -1,-3 -1,-5 0,-2 1,-3 2,-5 1,-1 2,-2 4,-2 2,0 4,1 5,2 1,2 1,4 1,6l-8 0c0,1 0,2 0,3 1,0 2,1 2,1 1,0 1,0 2,-1 0,0 1,-1 1,-1zm0 -4l0 0c0,-1 0,-2 -1,-2 0,-1 -1,-1 -2,-1 -1,0 -1,0 -2,1 0,0 0,1 0,2l5 0z"/>
   <path class="fil0" d="M298 161l4 0c0,0 0,1 1,1 0,1 1,1 1,1 1,0 2,0 3,-1 0,0 0,0 0,-1 0,0 0,0 0,0 0,0 -1,-1 -1,-1 -3,0 -5,-1 -6,-2 -1,0 -1,-1 -1,-3 0,-1 0,-2 1,-2 1,-1 2,-2 4,-2 2,0 3,1 4,1 1,1 2,2 2,3l-3 1c0,-1 -1,-1 -1,-2 0,0 -1,0 -2,0 -1,0 -1,0 -2,0 0,1 0,1 0,1 0,0 0,0 0,1 0,0 2,0 3,1 2,0 4,1 4,1 1,1 2,2 2,3 0,1 -1,2 -2,3 -1,1 -3,1 -5,1 -1,0 -3,0 -4,-1 -1,0 -2,-1 -2,-3z"/>
   <path class="fil0" d="M319 152l4 0 3 9 3 -9 4 0 -5 13 -1 2c0,1 0,1 -1,2 0,0 0,0 -1,1 0,0 0,0 -1,0 0,0 -1,0 -2,0 0,0 -1,0 -2,0l0 -3c1,1 1,1 1,1 1,0 2,-1 2,-1 1,-1 1,-1 1,-2l-5 -13z"/>
   <path class="fil0" d="M354 158l4 1c-1,2 -2,4 -3,5 -1,1 -3,1 -5,1 -2,0 -4,0 -6,-2 -2,-2 -2,-4 -2,-7 0,-3 0,-5 2,-7 2,-2 4,-3 6,-3 3,0 4,1 6,2 1,1 1,2 2,4l-4 1c0,-1 -1,-2 -1,-3 -1,0 -2,-1 -3,-1 -1,0 -2,1 -3,2 -1,1 -2,3 -2,5 0,2 1,4 2,5 1,1 2,1 3,1 1,0 2,0 3,-1 0,0 1,-1 1,-3z"/>
   <path class="fil0" d="M360 158c0,-1 0,-2 1,-3 1,-1 1,-2 2,-3 1,0 3,-1 4,-1 2,0 4,1 5,2 1,2 2,3 2,5 0,2 -1,4 -2,5 -1,2 -3,2 -5,2 -1,0 -2,0 -4,0 -1,-1 -1,-2 -2,-3 -1,-1 -1,-2 -1,-4zm4 0l0 0c0,2 0,3 1,3 0,1 1,1 2,1 1,0 2,0 2,-1 1,0 1,-1 1,-3 0,-1 0,-2 -1,-3 0,0 -1,-1 -2,-1 -1,0 -2,1 -2,1 -1,1 -1,2 -1,3z"/>
   <path class="fil0" d="M376 152l4 0 0 2c1,-2 2,-3 4,-3 1,0 1,1 2,1 1,0 1,1 2,2 0,-1 1,-2 1,-2 1,0 2,-1 3,-1 1,0 1,1 2,1 1,0 1,1 2,2 0,0 0,1 0,3l0 8 -4 0 0 -8c0,-1 0,-2 0,-2 0,-1 -1,-1 -1,-1 -1,0 -1,0 -2,1 0,0 -1,0 -1,1 0,0 0,1 0,3l0 6 -4 0 0 -7c0,-2 0,-2 0,-3 0,0 0,0 0,-1 -1,0 -1,0 -1,0 -1,0 -1,0 -2,1 0,0 -1,0 -1,1 0,0 0,1 0,3l0 6 -4 0 0 -13z"/>
   <path class="fil0" d="M408 165l0 -2c0,1 -1,1 -2,2 0,0 -1,0 -2,0 -1,0 -2,0 -3,0 0,-1 -1,-1 -1,-2 0,-1 -1,-2 -1,-3l0 -8 4 0 0 6c0,2 0,3 0,3 0,1 1,1 1,1 0,1 1,1 1,1 1,0 1,-1 2,-1 0,0 1,-1 1,-1 0,-1 0,-2 0,-4l0 -5 4 0 0 13 -4 0z"/>
   <path class="fil0" d="M427 165l-3 0 0 -7c0,-1 0,-2 0,-3 0,0 -1,0 -1,-1 0,0 -1,0 -1,0 -1,0 -1,0 -2,1 0,0 -1,0 -1,1 0,0 0,2 0,3l0 6 -4 0 0 -13 4 0 0 2c1,-2 2,-3 4,-3 1,0 1,1 2,1 1,0 1,0 2,1 0,0 0,1 0,1 0,1 0,2 0,3l0 8z"/>
   <path class="fil0" d="M431 150l0 -3 4 0 0 3 -4 0zm0 15l0 0 0 -13 4 0 0 13 -4 0z"/>
   <path class="fil0" d="M450 156l-4 0c0,0 0,-1 0,-1 -1,-1 -1,-1 -2,-1 -1,0 -2,0 -2,1 -1,1 -1,2 -1,3 0,2 0,3 1,3 0,1 1,1 2,1 1,0 1,0 2,0 0,0 0,-1 1,-2l3 1c0,1 -1,2 -2,3 -1,1 -2,1 -4,1 -2,0 -4,0 -5,-1 -1,-2 -2,-3 -2,-6 0,-2 1,-4 2,-5 1,-1 3,-2 5,-2 2,0 3,1 4,1 1,1 1,2 2,4z"/>
   <path class="fil0" d="M455 156l-3 -1c0,-1 1,-2 2,-3 1,0 2,-1 4,-1 1,0 2,1 3,1 1,0 2,1 2,1 0,1 0,2 0,4l0 4c0,1 0,2 0,2 1,1 1,1 1,2l-3 0c0,0 -1,-1 -1,-1 0,0 0,0 0,0 0,0 -1,1 -2,1 0,0 -1,0 -2,0 -1,0 -2,0 -3,-1 -1,-1 -1,-1 -1,-3 0,0 0,-1 0,-2 0,0 1,-1 2,-1 0,0 1,-1 2,-1 2,0 3,0 4,-1l0 0c0,-1 0,-1 -1,-1 0,-1 -1,-1 -2,-1 0,0 -1,0 -1,0 0,1 -1,1 -1,2zm5 3l0 0c-1,0 -1,0 -2,0 -1,0 -2,1 -2,1 -1,0 -1,1 -1,1 0,1 0,1 1,1 0,1 1,1 1,1 1,0 1,0 2,-1 0,0 1,0 1,-1 0,0 0,-1 0,-2l0 0z"/>
   <path class="fil0" d="M478 156l-3 0c0,0 0,-1 -1,-1 0,-1 -1,-1 -1,-1 -1,0 -2,0 -3,1 0,1 0,2 0,3 0,2 0,3 0,3 1,1 2,1 3,1 0,0 1,0 1,0 1,0 1,-1 1,-2l4 1c-1,1 -1,2 -2,3 -1,1 -3,1 -5,1 -1,0 -3,0 -4,-1 -1,-2 -2,-3 -2,-6 0,-2 1,-4 2,-5 1,-1 3,-2 5,-2 1,0 2,1 3,1 1,1 2,2 2,4z"/>
   <path class="fil0" d="M481 150l0 -3 4 0 0 3 -4 0zm0 15l0 0 0 -13 4 0 0 13 -4 0z"/>
   <path class="fil0" d="M488 158c0,-1 0,-2 0,-3 1,-1 2,-2 3,-3 1,0 2,-1 3,-1 2,0 4,1 5,2 2,2 2,3 2,5 0,2 0,4 -2,5 -1,2 -3,2 -5,2 -1,0 -2,0 -3,0 -1,-1 -2,-2 -3,-3 0,-1 0,-2 0,-4zm3 0l0 0c0,2 0,3 1,3 1,1 1,1 2,1 1,0 2,0 3,-1 0,0 1,-1 1,-3 0,-1 -1,-2 -1,-3 -1,0 -2,-1 -3,-1 -1,0 -1,1 -2,1 -1,1 -1,2 -1,3z"/>
   <path class="fil0" d="M516 165l-3 0 0 -7c0,-1 0,-2 -1,-3 0,0 0,0 0,-1 -1,0 -1,0 -1,0 -1,0 -2,0 -2,1 -1,0 -1,0 -1,1 0,0 0,2 0,3l0 6 -4 0 0 -13 3 0 0 2c1,-2 3,-3 5,-3 1,0 1,1 2,1 1,0 1,0 1,1 1,0 1,1 1,1 0,1 0,2 0,3l0 8z"/>
   <path class="fil0" d="M528 161l3 0c0,2 -1,3 -2,3 -1,1 -2,1 -4,1 -2,0 -4,0 -5,-2 -1,-1 -1,-3 -1,-5 0,-2 0,-3 2,-5 1,-1 2,-2 4,-2 2,0 3,1 5,2 1,2 1,4 1,6l-9 0c0,1 1,2 1,3 1,0 1,1 2,1 1,0 1,0 2,-1 0,0 0,-1 1,-1zm0 -4l0 0c0,-1 -1,-2 -1,-2 -1,-1 -1,-1 -2,-1 -1,0 -1,0 -2,1 0,0 -1,1 -1,2l6 0z"/>
   <path class="fil0" d="M533 161l3 0c1,0 1,1 1,1 1,1 1,1 2,1 1,0 2,0 2,-1 1,0 1,0 1,-1 0,0 0,0 0,0 -1,0 -1,-1 -2,-1 -2,0 -4,-1 -5,-2 -1,0 -2,-1 -2,-3 0,-1 1,-2 2,-2 1,-1 2,-2 4,-2 2,0 3,1 4,1 1,1 2,2 2,3l-3 1c-1,-1 -1,-1 -1,-2 -1,0 -1,0 -2,0 -1,0 -2,0 -2,0 0,1 0,1 0,1 0,0 0,0 0,1 0,0 1,0 3,1 2,0 4,1 4,1 1,1 1,2 1,3 0,1 0,2 -1,3 -1,1 -3,1 -5,1 -2,0 -3,0 -4,-1 -1,0 -2,-1 -2,-3z"/>
  </g>
 </g>
</svg>
