<?xml version="1.0" encoding="UTF-8"?>
<!DOCTYPE svg PUBLIC "-//W3C//DTD SVG 1.1//EN" "http://www.w3.org/Graphics/SVG/1.1/DTD/svg11.dtd">
<!-- Creator: CorelDRAW X7 -->
<svg xmlns="http://www.w3.org/2000/svg" xml:space="preserve" width="29.1239mm" height="9.0465mm" version="1.1" style="shape-rendering:geometricPrecision; text-rendering:geometricPrecision; image-rendering:optimizeQuality; fill-rule:evenodd; clip-rule:evenodd"
viewBox="0 0 1310 407"
 xmlns:xlink="http://www.w3.org/1999/xlink">
 <defs>
  <style type="text/css">
   <![CDATA[
    .fil0 {fill:#FEFEFE}
   ]]>
  </style>
 </defs>
 <g id="Capa_x0020_1">
  <metadata id="CorelCorpID_0Corel-Layer"/>
  <g id="_2527454492496">
   <path class="fil0" d="M257 148c0,10 -1,20 1,29 3,19 5,28 12,46 1,0 1,0 1,1 0,0 0,0 0,0 0,1 0,1 0,1l11 17c4,7 10,13 16,19 1,1 2,2 3,3l1 1c0,0 0,0 1,0l2 2c1,1 2,2 3,3l17 11c1,1 1,1 2,1 1,1 2,1 3,2 1,0 3,1 4,2 1,0 2,0 3,1l17 6c7,3 22,5 29,6l19 1c3,0 3,-1 7,-1 8,0 18,0 26,-1 15,-3 31,-5 46,-12l4 -2c3,-2 1,0 2,-2l2 -5c0,-2 1,-1 1,-2l4 -14c0,-2 0,-4 1,-6 0,-3 0,-3 1,-6 0,-4 2,-20 -1,-24 -2,1 -2,2 -3,4 -2,2 -2,3 -4,4l-24 23c-6,4 -12,8 -18,10 -1,1 0,0 -1,1 -9,4 -25,7 -35,6 -2,-1 -4,-1 -6,-1l-17 -3c-1,-1 -3,-2 -5,-2l-7 -3c-5,-3 -10,-6 -14,-9 -15,-12 -28,-29 -34,-47l-2 -5c0,-1 -1,-1 -1,-2 0,-1 0,-2 -1,-3l-7 -33c-2,-10 -1,-26 -1,-36l3 -21c0,-1 1,-4 1,-5l2 -10c1,-2 0,0 1,-2l4 -13c1,-1 1,-1 1,-2 1,-1 2,-2 2,-4 2,-4 4,-8 7,-11 1,-1 2,-2 3,-4 1,-2 3,-4 5,-6l6 -5c1,-1 2,-2 3,-3 5,-4 10,-6 15,-9l16 -5c1,0 1,0 3,0 2,-1 2,-1 4,-1 3,-1 3,-1 6,-1 8,-2 23,-1 32,1 6,1 12,3 18,5 0,0 1,1 1,1l6 2c1,1 3,2 4,3l5 2c1,1 2,2 4,3 1,1 2,2 3,3 4,2 12,9 15,12 0,1 0,1 1,2l2 2c0,-5 -1,-8 -1,-13 0,-2 0,-3 -1,-5l-1 -20c-1,-1 -1,-4 -1,-5 -2,-10 2,-9 -10,-12l-29 -6c-6,0 -12,-1 -19,-1 -2,0 -4,0 -7,0 -2,0 -3,-1 -6,-1 -5,0 -9,1 -13,1 -8,0 -13,1 -19,1 -5,1 -17,4 -22,6l-16 5c-1,1 0,1 -2,1 -1,1 -1,1 -2,2 -2,0 -4,1 -5,2 -1,0 -1,1 -2,1l-7 4c-7,5 -14,10 -21,16 0,0 0,0 0,0 -1,1 0,1 -1,1 0,0 0,1 0,1l-12 13c-8,10 -14,21 -20,32l-6 15c-2,7 -4,15 -5,22l-2 12c-1,5 -1,8 -1,13z"/>
   <path class="fil0" d="M0 144c0,14 0,25 1,38l3 12c0,4 2,7 2,11 2,5 4,10 6,15 5,11 13,25 22,34l3 3c1,2 2,3 3,4 2,1 3,1 4,3l6 5c0,0 0,0 1,1l7 5c1,1 1,0 2,1 9,6 18,11 28,14l22 6 37 4c4,-1 9,-1 13,-1l48 -8c3,0 3,0 5,-1 5,-2 11,-3 15,-6 4,-2 8,-21 9,-26 0,-1 1,-2 1,-3 0,-1 0,-2 0,-3 1,-6 1,-5 1,-13 0,-4 0,-9 0,-14 -2,0 -3,1 -4,3 -1,2 -2,3 -3,5l-18 18 -19 12 -11 5c-1,1 -1,1 -1,1 -2,0 0,0 -2,0 -10,4 -23,5 -34,3l-22 -5c-1,-1 -2,-1 -3,-1 -1,-1 -1,-1 -2,-2 -1,0 -2,0 -3,-1l-2 -1c-6,-3 -11,-7 -16,-12 -1,-1 -1,0 -2,-1l-4 -4c0,0 0,-1 -1,-2 -9,-8 -14,-19 -20,-29 -4,-8 -8,-20 -10,-29 0,-2 0,-2 0,-3l-1 -6c0,-1 -1,-3 -1,-3 0,-1 0,-2 0,-4 0,-2 -1,-4 -1,-6 -1,-10 -1,-20 -1,-30l1 -11c0,-1 1,-4 1,-5l7 -31c0,-3 2,-6 3,-9l2 -4c2,-4 4,-9 7,-12l8 -10c6,-7 17,-14 26,-17l18 -6c2,0 1,0 2,0 11,-2 29,-3 39,0 8,2 15,4 22,7 1,1 1,1 2,1l21 14 12 11c1,1 1,1 2,1l0 -5c-1,-3 0,-5 -1,-7 -1,-11 -2,-23 -3,-32 -1,-3 -1,-5 -1,-7 -2,-2 -6,-2 -8,-3l-20 -4c-12,-2 -33,-4 -44,-4 -11,0 -29,1 -40,5l-12 3c-2,0 -2,0 -4,1 -3,1 0,0 -3,1 0,0 -1,0 -2,1 -1,0 -3,1 -4,1 -2,1 -3,1 -4,2 -2,1 -3,1 -4,2 -14,7 -27,16 -38,28l-9 9c0,1 -1,2 -2,3 -4,5 -7,10 -10,15 -3,5 -6,11 -9,17 0,0 0,1 0,1l-5 12c-2,7 -4,14 -5,21 -1,2 0,4 -1,6 -1,2 -1,2 -1,5 0,4 -1,6 -1,11z"/>
   <path class="fil0" d="M528 30l0 240c0,12 -8,18 -10,21 1,0 1,0 3,0l193 0c1,-1 1,-2 2,-4l5 -30c1,-2 1,-3 1,-5 -2,0 -1,0 -2,0 0,0 -1,1 -2,1 -1,0 -2,1 -3,1l-5 2c-1,0 -1,0 -1,0 -5,2 -21,5 -26,6 -4,1 -34,3 -37,2 -1,0 -33,1 -46,-1 -7,-1 -13,1 -18,-2l0 -225c0,-12 3,-18 11,-26 0,0 0,0 1,-1l-77 0c1,2 2,3 4,4 2,2 2,2 4,5 2,3 3,8 3,12z"/>
   <path class="fil0" d="M1063 64c0,-2 0,-2 1,-4 1,-4 3,-9 3,-13l2 0c0,3 2,6 2,9 2,4 4,10 1,10 -9,0 -9,1 -9,-2zm-80 -9c0,-2 0,-3 1,-5 1,-3 0,-3 3,-3l3 12c0,1 3,7 -1,7 -6,0 -9,1 -9,-1l3 -10zm-103 11c-4,0 2,-16 3,-19l1 0c1,3 5,14 5,19 -4,1 -4,0 -9,0zm147 -33c1,0 2,-1 3,-1 16,0 12,17 10,21 -3,6 -8,6 -13,5 0,-3 -1,-2 -1,-5l0 -16c0,-2 1,-2 1,-4zm-163 58c3,1 11,1 14,1 2,0 0,0 2,-1 -4,-4 -8,2 -6,-10l2 -10c1,-3 8,-2 14,-2 1,2 2,4 2,6 1,3 4,11 2,13 -1,3 -3,0 -4,4 9,0 26,1 33,-1 -3,-5 -6,0 -7,-7l1 -13c0,-5 0,-24 1,-27 3,2 4,10 5,14 1,1 1,1 1,3l7 25c0,0 1,1 1,1 1,2 0,3 3,4l13 -43c1,-3 0,-4 3,-5 0,10 2,38 0,45 -3,1 -5,1 -7,3 3,1 32,1 37,1l0 -2c-10,-1 -5,-9 -4,-15l3 -6c10,0 12,-2 14,7 5,16 1,11 -2,15 3,1 33,1 38,1 3,0 1,0 2,-1 -2,-3 -6,-1 -6,-6 0,-3 -1,-24 2,-24 4,0 6,7 8,10 2,5 4,11 6,16 1,2 2,3 2,5l20 0 0 -2c-11,-1 -5,-10 -4,-17 1,-5 3,-4 14,-4 1,2 2,2 2,4 2,6 3,11 3,16 -2,0 -4,0 -5,2 3,1 15,1 19,1 2,0 0,0 1,-1 -1,-3 -3,-1 -5,-5 -2,-4 -5,-16 -6,-21l-5 -16c-1,-5 -4,-17 -6,-21 -3,2 -2,1 -3,4 -1,2 0,1 -1,2l-3 12c0,1 0,2 -1,3 0,2 -1,2 -1,4l-3 11c-1,4 -5,20 -7,22 -1,-4 -7,-15 -9,-20l-4 -6c1,-1 3,-2 4,-2 8,-4 11,-12 7,-20l-2 -3c-7,-8 -22,-5 -32,-5 -4,0 -3,-2 -6,1 3,1 6,1 6,5l0 49c0,5 -8,7 -11,0l-6 -23c0,-1 -1,-1 -1,-2l-2 -5c0,-3 0,-1 0,-3l-6 -21c-1,-2 -1,-2 -2,-3 -2,1 -2,0 -2,3l-6 21c-1,2 -1,2 -1,4l-4 14c0,1 -1,2 -1,3 0,1 0,1 -1,2 0,0 0,2 0,2 0,1 0,1 -1,2 0,3 -1,9 -5,10 -10,3 -7,-14 -7,-19 -1,-6 -1,-29 -1,-37 3,-1 4,-1 6,-2 -3,-2 -12,-1 -15,-1 -2,3 -3,6 -4,9l-5 18c-1,1 -1,2 -1,3 -2,3 -1,7 -5,9l-1 -4c-1,-3 -1,-3 -2,-5l-1 -6c-1,-1 -2,-3 -2,-5l-4 -12c-3,-10 -1,-7 -16,-7 -2,0 0,0 -2,1 1,4 4,1 6,3 2,3 0,13 0,17 -1,6 0,21 -1,26 -1,3 0,6 0,9 -1,3 -6,5 -8,1 -3,-8 -5,-17 -7,-24l-9 -31c-1,-3 0,-2 -2,-4 -1,1 -2,2 -2,3l-12 42c-1,1 -1,3 -1,4 -6,18 -5,8 -8,14z"/>
   <path class="fil0" d="M968 245l1 0c1,3 2,6 3,10 3,10 5,9 -7,9 -3,0 0,-7 0,-9l3 -10zm-25 -13c6,-3 5,-1 5,-3 -3,-2 -8,-1 -14,-1 -3,5 -5,13 -7,19 0,1 -1,3 -1,5l-3 10c-1,2 -1,2 -1,5l-3 0 -6 -20c-2,-5 -4,-14 -6,-19 -5,0 -11,0 -15,1 0,1 0,1 2,2 0,0 2,0 3,1 1,6 0,8 0,12l-1 29c0,3 0,11 -2,13 -2,3 -3,0 -4,4l15 0 0 -3c-3,0 -3,0 -5,-2l0 -37c0,-3 0,-3 1,-6 2,1 1,1 2,3l12 42c1,1 1,1 2,3 2,-3 2,-5 3,-9l11 -34c1,-3 0,-4 2,-6 2,5 2,35 2,41 0,3 -1,4 -3,5 -4,1 -2,-2 -5,3 7,0 13,0 20,0 1,0 2,0 4,0l14 0c-2,-7 -10,4 -5,-16 1,-4 1,-4 2,-7l13 0c3,5 2,4 3,9 0,3 3,8 2,10 -2,2 -1,1 -3,2 -3,1 -1,-1 -2,2l20 0c-3,-6 -3,1 -7,-10l-13 -46c-1,-5 -1,-7 -4,-8l-16 57c-3,7 -10,5 -11,1 -1,-6 1,-12 0,-18 -1,-3 -1,-16 -1,-17 0,-1 0,-7 0,-8 0,-2 0,-6 0,-9z"/>
   <path class="fil0" d="M1039 129l0 2c1,0 3,1 4,1 1,0 1,1 2,1 0,14 -1,26 -1,40 0,3 0,4 0,7 -1,11 -3,5 -6,10 3,2 3,0 6,0 2,0 9,2 9,0 0,-2 -3,-3 -5,-3 -1,-7 0,-3 0,-9 0,-4 0,-8 0,-12 0,-5 0,-7 0,-11 0,-4 0,-8 0,-12 3,1 3,2 3,5l7 21c0,2 0,1 1,3 0,2 1,4 1,6l5 12c2,-1 1,-2 2,-5l12 -40c1,-2 1,-2 2,-3 1,2 3,38 1,45 -5,2 -6,0 -6,4 7,0 10,-1 15,0 4,0 5,0 6,-1 -2,-4 -5,2 -5,-11 0,-8 -1,-13 0,-19l-1 -27c5,-4 4,0 5,-4 -3,-1 -10,-1 -14,0 -2,1 -3,7 -4,9 -1,3 -2,7 -3,10 -1,4 -4,18 -7,20 -2,-1 -3,-5 -4,-9 -1,-2 -1,-3 -1,-5l-9 -25c-3,-1 -12,-1 -15,0z"/>
   <path class="fil0" d="M1162 138c0,-3 0,-5 2,-6 5,-3 14,3 14,7 0,5 1,15 -7,17 -12,5 -9,-4 -9,-18zm-15 -9c1,1 0,2 5,3 1,6 0,43 0,52 0,3 0,3 -1,4 -3,1 -3,0 -4,2 2,2 9,0 11,0 3,0 3,1 5,1 3,0 4,0 5,-1 -2,-3 0,-1 -3,-2 -2,0 -3,0 -3,-3 0,-6 0,-20 1,-25 3,0 4,0 6,6l12 25c3,0 3,-1 5,-1 6,1 8,2 8,-2 -3,0 -5,-1 -6,-4 -1,-1 -1,-1 -1,-2 0,-1 -1,-2 -1,-2l-7 -17c-2,-3 -3,-2 -3,-4 1,-1 2,-1 3,-1 3,-2 6,-4 8,-8 2,-5 2,-12 -2,-16 -3,-3 -5,-4 -10,-5 -3,-1 -27,-1 -28,0z"/>
   <path class="fil0" d="M840 136c0,-7 5,-6 8,-6 4,0 10,7 11,10 5,11 4,21 3,32 -3,19 -22,19 -22,12l0 -48zm-17 -6c2,4 0,2 7,3 1,5 1,52 0,54 -1,2 -4,1 -4,2 -3,0 -2,0 -2,1 2,2 6,1 8,0 2,0 3,1 5,1 12,1 20,2 29,-9 13,-14 8,-48 -12,-53 -8,-3 -15,-2 -24,0 -8,1 -3,0 -7,1z"/>
   <path class="fil0" d="M1275 153c0,-4 1,-11 3,-15 1,-3 3,-8 8,-8 15,0 19,42 9,56 -4,6 -9,4 -13,0 -8,-9 -7,-23 -7,-33zm13 40c7,0 12,-4 16,-9 7,-10 6,-18 6,-29 0,-2 -1,-7 -1,-9 -3,-7 -7,-13 -14,-17 -11,-6 -22,3 -27,13l-2 5c-1,2 -1,6 -2,9 0,5 0,12 2,17 2,5 4,9 8,13 2,2 3,2 5,4 2,1 6,3 9,3z"/>
   <path class="fil0" d="M999 152c0,-3 2,-12 3,-14 6,-13 14,-9 19,2 5,12 5,29 0,41 -4,12 -13,11 -19,-1 -4,-11 -3,-17 -3,-28zm-10 5c0,7 0,11 2,17 1,5 4,9 7,12 0,0 10,11 22,5 3,-2 3,-2 6,-5 3,-3 5,-7 6,-11l1 0c1,-3 2,-12 2,-15 0,-2 0,-3 0,-4 -1,-2 0,-3 -1,-5 -2,-9 -6,-17 -14,-22 -8,-4 -18,-1 -23,5l-6 11c-1,2 0,1 -1,3l-1 9z"/>
   <path class="fil0" d="M1102 130c2,3 6,-1 6,6l0 47c0,1 -1,3 -2,4 -2,2 -2,0 -4,3l1 1c2,1 23,-1 28,0 3,1 6,1 9,0l0 -18c-2,0 -1,-1 -2,1 -1,2 -2,5 -2,6 0,1 -1,2 -1,3 -5,8 -18,6 -18,-2 0,-3 -1,-21 1,-22 1,-2 5,-1 8,0 3,1 4,4 5,9l2 -1c-1,-5 -1,-15 0,-19 -4,0 -1,1 -4,5 -2,3 -12,4 -12,1l0 -21c4,-2 12,-2 16,3 4,6 1,7 5,8 1,-3 0,-11 0,-14 0,-2 -5,-1 -8,-1l-19 0c-2,0 -8,-1 -9,1z"/>
   <path class="fil0" d="M879 131c3,0 2,0 4,1 1,2 1,2 1,4l0 47c0,6 -4,4 -5,7 4,2 22,0 28,1 4,1 5,1 9,0 1,-5 1,-11 1,-16 0,-2 -1,-2 -3,-2 0,3 -1,7 -2,9 -3,5 -19,13 -19,-5l0 -17c3,-2 5,-3 9,-1 5,2 3,6 6,9 1,-1 2,-1 2,-2l0 -17c0,-2 0,0 -1,-2 -4,2 0,2 -4,6 -2,3 -6,3 -10,3 -3,-4 -2,-13 -2,-20 0,-2 1,-3 2,-4 4,0 8,-1 11,1l3 2c2,3 2,5 3,7 1,2 1,1 2,2 2,-3 1,-11 1,-14 0,-2 -5,-1 -8,-1l-25 0c-2,0 -3,0 -3,2z"/>
   <path class="fil0" d="M945 158c0,6 0,10 2,15 0,2 1,3 2,5 2,5 3,6 7,10 10,9 24,3 26,0 2,-3 1,-13 1,-17 -6,-1 -3,3 -6,11 0,1 -2,4 -3,5 -3,3 -7,4 -11,0 -5,-4 -8,-14 -8,-20 0,-4 -1,-17 0,-21l2 -6c2,-4 5,-10 11,-10 4,0 6,4 7,6 1,2 2,4 2,6 1,2 1,3 4,3l0 -14c-3,-2 0,-1 -5,-3 -19,-5 -31,11 -31,30z"/>
   <path class="fil0" d="M826 54l0 14c0,2 1,2 1,4 2,11 13,26 29,20 6,-1 3,0 7,-3 0,-9 2,-16 -1,-18 -2,2 -1,0 -2,2 -2,6 -2,17 -11,17 -10,0 -14,-20 -14,-28 0,-9 1,-31 14,-31 9,0 7,15 13,15 1,-2 0,-10 0,-12 -1,-3 0,-2 -1,-4 -2,-1 -5,-1 -8,-1 -2,-1 -4,-1 -7,0 -12,1 -20,16 -20,25z"/>
   <path class="fil0" d="M1195 154l2 21c1,3 6,10 8,12 1,1 1,0 2,1 10,8 24,4 25,-1 1,-1 1,-15 0,-17 -4,0 -2,5 -5,12 -1,4 -5,8 -9,8 -1,0 -4,-2 -6,-3 0,-1 -1,-2 -2,-3l-1 -2c0,0 0,-1 0,-1 0,0 0,0 0,0 -5,-10 -4,-20 -4,-31 0,-3 1,-8 3,-11 1,-4 3,-7 6,-8 1,0 3,-1 3,-1 11,0 8,14 14,15 1,-2 0,-9 0,-12 0,-2 -1,-4 -3,-4 -5,-2 -10,-2 -15,0 -8,2 -12,6 -15,13l-1 3c-1,5 0,3 -1,5 -1,2 -1,2 -1,4z"/>
   <path class="fil0" d="M826 230l4 1c0,2 1,4 1,7l0 43c0,8 -5,4 -5,9 2,0 2,0 4,0l27 0c2,0 2,0 2,-2 0,-3 2,-20 -2,-15 -1,1 -1,6 -3,9 -2,4 -7,6 -10,5 -2,-1 -4,-5 -4,-8l0 -47c2,-1 3,-2 6,-2l0 -2c-6,0 -10,0 -15,0 -5,-1 -5,0 -5,2z"/>
   <path class="fil0" d="M847 365c0,-7 7,-6 9,-6 2,2 3,3 3,7l0 19c0,3 -1,3 -3,5 2,0 0,0 2,0 3,0 8,1 10,0 -3,-5 -3,5 -3,-23 0,-11 9,-9 11,-6 2,3 1,19 1,24 0,3 0,2 -1,4 -1,0 -1,0 -1,1l12 0c-1,-2 -1,-1 -3,-2 -3,-13 3,-27 -5,-31 -6,-4 -11,1 -14,3 -1,0 -1,-1 -2,-1 -9,-8 -11,0 -16,1l0 -2c0,-5 -8,2 -8,2 1,2 2,2 2,4l0 20c0,5 -2,3 -3,6 2,1 8,0 12,0 -1,-2 -1,-1 -3,-2l0 -23z"/>
   <path class="fil0" d="M1239 129c1,4 0,0 5,4l0 53c-1,1 -2,1 -3,2 -2,1 -2,-1 -2,2 1,1 4,1 6,1 2,0 1,-1 4,-1 3,0 5,1 9,1l0 -3c-2,0 -3,0 -4,-1l0 -53c0,-2 1,-2 2,-2 3,-1 2,0 3,-3 -2,-1 -19,-1 -20,0z"/>
   <path class="fil0" d="M873 228l-6 0 0 2c3,1 5,1 5,5l0 47c0,2 0,4 -1,5 -3,1 -4,-1 -4,3l20 0 0 -2c-4,-1 -6,-1 -6,-5 0,-9 0,-45 1,-51 1,-1 3,-2 5,-2l0 -2 -14 0z"/>
   <path class="fil0" d="M500 372c0,-1 1,-8 1,-9 1,-2 3,-5 5,-5 8,0 6,12 6,21 0,6 -2,8 -6,8 -5,0 -6,-11 -6,-15zm18 -26c0,-1 0,-2 0,-2l0 -6c-2,0 -4,2 -8,4 0,2 0,2 2,3l0 12c-6,0 -7,-4 -14,2 -6,7 -6,20 -2,27 6,9 12,4 16,2 1,1 1,0 1,3 2,0 1,0 2,0 2,0 8,-1 8,-7 -2,0 -1,0 -2,1 -2,2 0,1 -3,2 0,-3 -1,-3 0,-6 0,-2 0,1 0,-2 0,-1 0,0 0,-3 0,-1 0,-2 0,-2l0 -8c0,-2 0,1 0,-1l0 -19z"/>
   <path class="fil0" d="M917 372c0,-5 1,-12 5,-12 8,0 8,10 8,16 0,14 -12,19 -12,6 0,-4 -1,-6 -1,-10zm0 -16c-3,1 -3,2 -5,3 -2,1 -3,0 -4,2 3,1 4,1 4,4l0 35c0,6 -3,2 -4,6 2,1 0,1 2,1 3,0 10,1 12,-1 -1,-2 1,0 -4,-2 -1,-5 -1,-7 -1,-13 0,-5 8,6 16,-5 5,-8 5,-18 0,-26 -2,-3 -3,-3 -6,-4 -2,-1 -2,0 -4,0l-5 4c-1,-2 -1,-3 -1,-4z"/>
   <path class="fil0" d="M812 343l-26 0c1,4 1,2 3,3 2,2 1,32 1,38 0,3 -3,3 -4,6 3,1 9,0 13,0 6,0 9,1 14,1 1,-4 1,-9 1,-14 -3,0 -2,1 -3,3 -1,5 -4,8 -9,8 -4,0 -1,0 -2,0 -3,-1 -2,-2 -3,-3 -1,-4 -1,-14 -1,-19 7,-1 10,0 11,7 2,-1 1,0 1,-3l0 -12c-3,1 -1,6 -8,6 -2,0 -2,-1 -4,-1 0,-3 0,-15 1,-17 1,0 11,-3 14,9l2 0c0,-5 0,-7 -1,-12z"/>
   <path class="fil0" d="M205 353c0,-4 0,-6 -1,-9 -4,-1 -9,-1 -14,-1 -8,0 -11,-1 -11,2 1,1 2,1 4,1 0,9 0,36 -1,42 -2,0 -3,0 -4,2 2,0 0,0 2,0 3,0 11,1 13,0 -1,-2 0,-1 -3,-2 -1,-5 -1,-18 1,-22 5,0 6,1 8,7 1,-1 1,0 1,-2l0 -11c0,-2 0,-1 -1,-2 -2,5 -5,7 -9,5 0,-7 -1,-13 1,-17 4,0 5,-1 8,2 4,3 2,6 5,7 1,-2 1,0 1,-2z"/>
   <path class="fil0" d="M244 357c2,2 4,2 4,5l0 16c0,13 -12,12 -12,6 -1,-8 0,-15 -1,-27l-9 0c1,2 0,0 3,1 1,6 0,15 0,21 0,5 0,4 1,8 4,10 17,0 18,0l0 4c3,0 6,-3 8,-5 -2,-1 -1,-1 -3,-2l0 -27c-1,-1 -7,0 -9,0z"/>
   <path class="fil0" d="M62 344c-2,-1 -11,-1 -14,-1 0,3 0,3 3,3 1,6 0,32 0,41 -1,1 0,1 -3,1l0 2c30,0 25,5 25,-13 -2,0 -2,0 -2,2 -1,2 0,2 -1,3 -2,5 -6,7 -9,5 -1,0 -1,-1 -2,-2 -1,-4 -1,-35 0,-39 3,0 3,0 3,-2z"/>
   <path class="fil0" d="M104 383c0,-6 9,-15 9,-9 0,18 -9,12 -9,9zm-4 -14c2,0 3,-2 3,-4 1,-3 2,-10 9,-7l0 11c-5,3 -14,10 -14,16 0,6 6,9 11,4 2,-2 0,-1 4,-3l3 5c0,0 0,0 0,0 4,2 10,-5 7,-6 -1,-1 -5,7 -4,-7 0,-3 0,-6 0,-9 0,-3 0,-8 -1,-10 0,-2 -3,-4 -5,-4 -14,0 -17,14 -13,14z"/>
   <path class="fil0" d="M1097 381c0,-4 5,-9 8,-9 0,2 1,14 -4,14 -4,0 -4,-1 -4,-5zm-4 -12c6,0 1,-10 10,-12l2 2c0,1 0,1 0,2 0,7 1,7 -4,10l-3 3c-15,13 -2,23 5,14 0,0 0,0 0,0l1 -2c3,1 2,1 3,3 3,4 8,2 10,-4 -5,-1 1,1 -5,1 -2,-6 0,-22 -1,-27 -2,-7 -15,-4 -18,2 -2,3 -4,8 0,8z"/>
   <path class="fil0" d="M422 386c-6,0 -2,-13 5,-14 0,4 2,14 -5,14zm-6 -17c4,-6 1,-10 9,-12 1,1 2,2 2,4 0,9 0,7 -6,12 -2,2 -13,11 -6,17 5,5 10,-3 12,-4 2,2 2,5 6,5 4,0 6,-5 6,-6 -5,-1 -6,9 -6,-16 0,-7 1,-14 -5,-14 -10,0 -15,7 -15,10 0,4 0,4 3,4z"/>
   <path class="fil0" d="M665 373c0,-16 8,-18 11,-12 3,6 2,11 2,15 0,5 1,10 -6,14 -2,-1 -2,-2 -4,-3 -2,-3 -3,-10 -3,-14zm7 18c3,0 4,-1 6,-2 2,-1 3,-2 4,-4 2,-3 3,-7 3,-12 0,-5 -1,-7 -3,-12 -4,-6 -12,-7 -16,-4 -7,5 -7,11 -7,19 0,7 5,15 13,15z"/>
   <path class="fil0" d="M1219 373c0,-2 1,-7 2,-9 2,-7 6,-9 10,-2 2,6 2,16 0,22 -3,11 -12,5 -12,-11zm-6 0c0,24 26,24 26,0 0,-14 -11,-21 -19,-16l-1 1c-2,2 -4,6 -5,8 -1,2 -1,5 -1,7z"/>
   <path class="fil0" d="M550 368c0,-2 1,-5 2,-7 0,0 2,-2 2,-3 2,-2 7,-2 7,6 0,4 0,4 -2,5 -1,0 -3,1 -4,1 -4,0 -3,0 -5,-2zm0 4c6,-3 17,2 17,-3 0,-13 -9,-16 -17,-11 -7,4 -9,19 -3,28 5,8 13,7 18,1 3,-3 2,-2 2,-5 -2,0 -1,0 -2,2 -2,3 -6,4 -9,3 -6,-2 -6,-9 -6,-15z"/>
   <path class="fil0" d="M1007 368c2,-7 6,-15 10,-9 3,4 4,11 -6,11 -3,0 -2,-1 -4,-2zm17 3c1,-4 0,-10 -3,-13 -2,-2 -5,-4 -10,-2 -11,4 -12,20 -8,28 8,17 26,1 21,-2 -2,1 -1,3 -4,4 -3,2 -5,2 -7,1 -4,-2 -6,-7 -6,-12 0,-6 2,-4 17,-4z"/>
   <path class="fil0" d="M286 366c0,-6 8,-13 11,-6 2,7 0,10 -7,10 -3,0 -4,-1 -4,-4zm16 5c2,-3 0,-9 0,-10 -4,-6 -12,-7 -16,-3 -6,5 -7,12 -7,19 0,1 0,2 1,3l2 6c8,12 21,2 21,-3l-2 -1c0,5 -6,6 -9,5 -4,-1 -6,-6 -6,-9 0,-8 -1,-7 7,-7 3,0 6,0 9,0z"/>
   <path class="fil0" d="M625 343c1,2 0,1 2,2l0 42c-1,1 -2,1 -3,3 3,1 8,0 12,0 -1,-4 -3,1 -3,-6l0 -25c0,-26 2,-22 -6,-18 -2,1 -1,0 -2,2z"/>
   <path class="fil0" d="M1267 362c0,-1 2,-5 5,-5 6,0 4,6 8,7l1 -4c0,-6 -8,-5 -11,-4 -3,1 -7,3 -7,7 0,8 0,7 7,12 3,2 7,3 7,9 0,4 -5,9 -10,2 -1,-2 -1,-2 -2,-4 0,-2 0,-1 -1,-2 -1,1 0,-1 -2,1 -1,2 0,0 0,1 0,1 0,7 1,8 2,2 18,4 19,-9 1,-8 -9,-12 -13,-14 -1,-1 -2,-3 -2,-5z"/>
   <path class="fil0" d="M1052 363c0,-4 3,-6 5,-6 6,0 4,6 8,7 1,-3 0,-4 0,-7 -3,-1 -5,-3 -11,-1 -2,1 -2,1 -3,2 -11,11 5,17 7,19 7,5 4,13 -1,13 -4,0 -6,-8 -7,-8 -1,-2 -2,-2 -3,0 0,0 0,2 0,2 0,2 0,3 0,5 4,3 1,2 9,2 5,0 11,-4 11,-9l0 -4c0,-5 -11,-10 -12,-11 -1,-1 -3,-3 -3,-4z"/>
   <path class="fil0" d="M713 362c0,-2 3,-5 5,-5 5,0 4,5 7,7 1,-2 1,-4 1,-7 -3,-1 -6,-3 -12,-1 -2,1 -1,1 -3,2 0,1 -2,2 -2,3 -4,7 2,10 7,13 3,3 7,5 7,10 0,4 -6,9 -10,1 -3,-5 -1,-4 -4,-5 -1,1 -1,1 -1,2 0,3 0,7 1,8 1,1 4,1 5,1 17,0 15,-14 12,-17 -2,-2 -3,-2 -5,-4l-5 -3c-2,-1 -3,-2 -3,-5z"/>
   <path class="fil0" d="M369 364c2,-1 1,-2 3,-4 4,-3 5,-2 10,-2 0,2 0,1 -1,4l-6 12c-10,20 -10,16 13,16 1,-3 1,-6 0,-10 -2,1 -1,5 -4,7 -1,1 -1,1 -2,1 -10,0 -8,2 -3,-11 2,-4 10,-17 10,-20 -3,-1 -6,-1 -10,-1 -9,0 -4,0 -8,-1 -1,2 -3,7 -2,9z"/>
   <path class="fil0" d="M962 382c0,3 0,3 0,6 -2,0 -1,0 -3,0l0 2 12 0 0 -2c-2,0 -2,0 -3,0l0 -21c0,-1 2,-6 4,-6 2,0 0,4 5,4 5,0 3,-15 -6,-8 -2,2 0,2 -3,4 -1,-3 -1,-3 -1,-5 -4,0 -4,3 -8,4l2 1c2,3 1,16 1,21z"/>
   <path class="fil0" d="M326 360c1,2 1,1 3,2l0 23c0,3 -2,3 -4,4 1,1 0,1 2,1 2,0 8,1 11,0 -2,-2 -1,-1 -3,-2 0,-5 -1,-20 0,-23 1,-3 1,-2 2,-4 3,0 2,-1 3,2 2,3 3,2 6,0l0 -5c-2,-1 -4,-4 -8,-1l-1 1c-1,1 -1,2 -2,3 -2,-1 -1,0 -1,-3 0,-2 -1,-2 -3,-2 -1,1 -4,3 -5,4z"/>
   <path class="fil0" d="M1146 370c0,-5 1,-8 4,-10 1,2 1,2 2,4 2,1 1,0 2,1 2,-1 2,-1 3,-2l0 -1c0,-9 -5,-7 -8,-4 0,0 0,0 0,0l-3 3c-1,-2 -1,1 -1,-5 -2,0 -6,3 -7,4 1,2 0,1 2,2l0 23c0,3 -2,3 -3,5 1,0 -1,0 2,0 2,0 8,1 10,0 -2,-3 -1,-1 -2,-2 -2,-2 -1,-13 -1,-18z"/>
   <path class="fil0" d="M1179 361c2,1 2,1 2,2l0 25c-2,1 -2,0 -2,2 3,0 9,1 12,0 -2,-2 -1,-1 -3,-2 0,-43 1,-31 -9,-28l0 1z"/>
   <path class="fil0" d="M899 12c0,-2 0,-8 -5,-4l-13 13c-4,5 3,1 4,0 2,-1 2,-1 3,-2 2,-1 4,-2 6,-3 2,-2 3,-3 5,-4z"/>
   <path class="fil0" d="M1182 346c0,3 0,3 2,5l3 0c1,-3 1,-2 1,-6 0,-2 -2,-2 -4,-2 -1,1 -2,2 -2,3z"/>
   <polygon class="fil0" points="764,9 769,9 769,288 764,288 "/>
  </g>
 </g>
</svg>
