<?xml version="1.0" encoding="utf-8"?>
<!-- Generator: Adobe Illustrator 16.0.0, SVG Export Plug-In . SVG Version: 6.00 Build 0)  -->
<!DOCTYPE svg PUBLIC "-//W3C//DTD SVG 1.1//EN" "http://www.w3.org/Graphics/SVG/1.1/DTD/svg11.dtd">
<svg version="1.1" id="Capa_1" xmlns="http://www.w3.org/2000/svg" xmlns:xlink="http://www.w3.org/1999/xlink" x="0px" y="0px"
	 width="314px" height="220.275px" viewBox="0 0 314 220.275" enable-background="new 0 0 314 220.275" xml:space="preserve">
<g>
	<path fill="#FFFFFF" d="M253.469,70.343c0-3.173-0.573-5.797-1.694-7.849s-2.505-3.58-4.152-4.558
		c-1.646-0.978-3.363-1.599-5.152-1.861c-1.813-0.263-3.675-0.381-5.608-0.381h-7.874v30.779h8.304c2.96,0,5.417-0.406,7.421-1.193
		c1.981-0.788,3.627-1.909,4.891-3.34c1.265-1.408,2.22-3.125,2.888-5.106C253.134,74.854,253.469,72.682,253.469,70.343
		 M272.651,69.007c0,5.106-0.786,9.592-2.385,13.505c-1.576,3.938-3.891,7.23-6.943,9.902c-3.031,2.695-6.752,4.724-11.168,6.132
		c-4.413,1.407-9.615,2.1-15.604,2.1h-7.563v28.847c0,0.476-0.143,0.883-0.453,1.264c-0.311,0.357-0.811,0.668-1.503,0.906
		c-0.691,0.24-1.622,0.407-2.79,0.55c-1.146,0.143-2.649,0.215-4.438,0.215c-1.767,0-3.245-0.072-4.438-0.215
		c-1.193-0.143-2.124-0.334-2.814-0.55c-0.693-0.238-1.194-0.548-1.457-0.906c-0.287-0.381-0.43-0.811-0.43-1.264V48.105
		c0-2.194,0.573-3.841,1.719-4.939s2.647-1.646,4.509-1.646h21.331c2.146,0,4.198,0.072,6.133,0.238
		c1.932,0.167,4.245,0.525,6.967,1.051c2.695,0.548,5.439,1.526,8.207,2.982c2.77,1.431,5.154,3.27,7.11,5.487
		c1.957,2.219,3.46,4.796,4.486,7.778C272.15,62.016,272.651,65.333,272.651,69.007z M120.068,125.555
		c0,1.073-0.191,2.029-0.551,2.887c-0.381,0.835-0.881,1.526-1.525,2.099c-0.621,0.55-1.359,0.956-2.22,1.218
		c-0.884,0.263-1.741,0.38-2.625,0.38h-7.849c-1.646,0-3.055-0.167-4.248-0.478c-1.168-0.333-2.267-0.929-3.268-1.789
		c-1.027-0.858-1.981-2.027-2.912-3.507c-0.931-1.455-1.979-3.363-3.149-5.703L69.27,78.361c-1.312-2.529-2.625-5.249-3.984-8.161
		c-1.36-2.91-2.554-5.75-3.627-8.495h-0.143c0.189,3.365,0.332,6.705,0.428,10.045c0.098,3.317,0.145,6.775,0.145,10.308v47.362
		c0,0.453-0.119,0.883-0.383,1.264c-0.262,0.36-0.715,0.67-1.336,0.931c-0.62,0.263-1.479,0.455-2.552,0.598
		c-1.075,0.143-2.459,0.215-4.128,0.215c-1.646,0-3.008-0.072-4.08-0.215c-1.074-0.143-1.909-0.334-2.506-0.598
		c-0.619-0.238-1.05-0.571-1.266-0.931c-0.237-0.38-0.357-0.811-0.357-1.264V48.105c0-2.194,0.646-3.841,1.934-4.939
		c1.264-1.098,2.84-1.646,4.725-1.646h9.854c1.765,0,3.268,0.143,4.483,0.453c1.219,0.311,2.292,0.811,3.246,1.503
		c0.955,0.693,1.861,1.671,2.696,2.91c0.835,1.218,1.694,2.769,2.577,4.581l17.586,33.095c1.025,2.004,2.026,3.983,3.029,5.917
		c1.002,1.932,1.979,3.866,2.888,5.797c0.931,1.934,1.837,3.843,2.72,5.704c0.905,1.884,1.766,3.746,2.6,5.607h0.072
		c-0.143-3.27-0.263-6.683-0.335-10.213c-0.07-3.555-0.095-6.943-0.095-10.165V44.24c0-0.453,0.143-0.883,0.43-1.264
		c0.263-0.358,0.74-0.693,1.384-0.979c0.668-0.288,1.526-0.478,2.602-0.598c1.073-0.118,2.457-0.166,4.126-0.166
		c1.599,0,2.936,0.047,4.01,0.166c1.074,0.12,1.885,0.31,2.48,0.598c0.572,0.286,1.003,0.62,1.218,0.979
		c0.237,0.38,0.358,0.786,0.358,1.264V125.555z"/>
	<path fill="#FFFFFF" d="M199.904,49.061c0,1.359-0.048,2.504-0.168,3.483c-0.119,0.953-0.287,1.718-0.524,2.29
		c-0.238,0.598-0.525,1.026-0.884,1.288c-0.333,0.288-0.738,0.431-1.146,0.431h-22.618v72.94c0,0.453-0.145,0.883-0.455,1.264
		c-0.31,0.357-0.811,0.668-1.501,0.906c-0.692,0.215-1.646,0.407-2.84,0.55c-1.193,0.143-2.672,0.215-4.438,0.215
		c-1.766,0-3.245-0.072-4.438-0.215c-1.192-0.143-2.146-0.334-2.839-0.55c-0.691-0.238-1.193-0.548-1.504-0.906
		c-0.311-0.381-0.453-0.811-0.453-1.264v-72.94h-22.619c-0.453,0-0.859-0.143-1.191-0.431c-0.311-0.262-0.598-0.69-0.836-1.288
		c-0.215-0.571-0.405-1.336-0.525-2.29c-0.119-0.979-0.168-2.124-0.168-3.483c0-1.386,0.049-2.577,0.168-3.555
		c0.12-0.979,0.311-1.767,0.525-2.339c0.238-0.596,0.525-1.003,0.836-1.264c0.332-0.263,0.738-0.382,1.191-0.382h63.706
		c0.407,0,0.788,0.12,1.146,0.382c0.358,0.261,0.646,0.668,0.884,1.264c0.237,0.573,0.405,1.361,0.524,2.339
		C199.856,46.484,199.904,47.675,199.904,49.061"/>
	<path fill="#FFFFFF" d="M296.664,195.582l1.866-0.861c0.177,0.641,0.502,1.13,0.976,1.466c0.47,0.339,1.074,0.506,1.809,0.506
		c0.697,0,1.248-0.194,1.662-0.579c0.408-0.387,0.613-0.903,0.613-1.551c0-0.847-0.701-1.6-2.106-2.263
		c-0.198-0.097-0.35-0.171-0.454-0.214c-1.587-0.775-2.645-1.474-3.17-2.1c-0.527-0.628-0.792-1.393-0.792-2.296
		c0-1.175,0.397-2.123,1.192-2.853c0.796-0.729,1.844-1.09,3.136-1.09c1.06,0,1.95,0.205,2.664,0.613
		c0.715,0.41,1.208,0.997,1.483,1.762l-1.825,0.946c-0.289-0.453-0.604-0.784-0.95-0.993c-0.346-0.211-0.741-0.315-1.188-0.315
		c-0.628,0-1.132,0.164-1.5,0.493c-0.373,0.326-0.557,0.765-0.557,1.315c0,0.866,0.815,1.674,2.442,2.419
		c0.124,0.061,0.221,0.107,0.295,0.139c1.423,0.656,2.4,1.299,2.929,1.922c0.531,0.628,0.796,1.41,0.796,2.346
		c0,1.362-0.429,2.445-1.288,3.248c-0.858,0.803-2.02,1.206-3.484,1.206c-1.224,0-2.228-0.283-3.012-0.846
		C297.418,197.438,296.905,196.633,296.664,195.582 M293.666,198.465l-1.63-3.705h-5.704l-1.672,3.705h-2.456l6.969-14.958
		l6.964,14.958H293.666z M287.197,192.808h4.013l-1.476-3.282c-0.084-0.208-0.174-0.45-0.264-0.722
		c-0.092-0.271-0.186-0.574-0.275-0.908c-0.078,0.314-0.162,0.606-0.252,0.878c-0.089,0.271-0.179,0.523-0.269,0.752
		L287.197,192.808z M267.985,198.465v-14.958l9.148,8.793c0.248,0.249,0.5,0.515,0.757,0.796c0.256,0.282,0.523,0.601,0.807,0.954
		v-9.98h2.153v14.959l-9.324-8.959c-0.248-0.245-0.489-0.501-0.722-0.769c-0.235-0.269-0.453-0.551-0.664-0.846v10.01H267.985z
		 M264.163,198.465l-1.63-3.705h-5.704l-1.672,3.705h-2.456l6.969-14.958l6.964,14.958H264.163z M257.694,192.808h4.013
		l-1.476-3.282c-0.084-0.208-0.175-0.45-0.265-0.722c-0.092-0.271-0.186-0.574-0.275-0.908c-0.077,0.314-0.161,0.606-0.252,0.878
		c-0.088,0.271-0.178,0.523-0.268,0.752L257.694,192.808z M239.965,184.069h2.315v8.742c0,1.296,0.299,2.271,0.898,2.922
		c0.601,0.655,1.497,0.98,2.691,0.98c1.185,0,2.077-0.325,2.678-0.98c0.601-0.651,0.899-1.626,0.899-2.922v-8.742h2.336v8.956
		c0,1.947-0.489,3.406-1.474,4.373c-0.982,0.966-2.465,1.45-4.446,1.45c-1.979,0-3.455-0.484-4.432-1.447
		c-0.978-0.962-1.467-2.424-1.467-4.376V184.069z M230.944,192.023v6.441h-2.195v-14.396h3.263c0.957,0,1.698,0.063,2.228,0.188
		c0.527,0.124,0.977,0.329,1.35,0.617c0.446,0.35,0.788,0.799,1.032,1.35c0.243,0.551,0.363,1.151,0.363,1.809
		c0,1.151-0.278,2.055-0.836,2.708c-0.557,0.651-1.379,1.044-2.466,1.175l4.952,6.55h-2.636l-4.792-6.441H230.944z M231.085,190.211
		h0.426c1.238,0,2.061-0.146,2.468-0.434c0.406-0.288,0.609-0.799,0.609-1.533c0-0.792-0.218-1.35-0.652-1.675
		c-0.438-0.326-1.246-0.486-2.425-0.486h-0.426V190.211z M218.035,198.465v-14.396h8.034v1.994h-5.698v3.603h5.698v2.055h-5.698
		v4.649h5.698v2.095H218.035z M209.517,192.002v6.463h-2.195v-14.396h3.538c1.051,0,1.822,0.058,2.319,0.171
		c0.493,0.114,0.925,0.307,1.294,0.567c0.453,0.333,0.806,0.784,1.065,1.35c0.253,0.566,0.381,1.191,0.381,1.871
		c0,0.686-0.128,1.313-0.381,1.89c-0.26,0.577-0.612,1.031-1.065,1.356c-0.369,0.262-0.801,0.45-1.294,0.56
		c-0.497,0.111-1.269,0.168-2.319,0.168H210.4H209.517z M209.657,190.089h0.601c1.3,0,2.165-0.141,2.599-0.423
		c0.432-0.28,0.647-0.777,0.647-1.492c0-0.767-0.231-1.306-0.694-1.621c-0.46-0.313-1.313-0.47-2.552-0.47h-0.601V190.089z
		 M189.371,195.582l1.865-0.861c0.177,0.641,0.502,1.13,0.976,1.466c0.47,0.339,1.074,0.506,1.809,0.506
		c0.698,0,1.249-0.194,1.662-0.579c0.409-0.387,0.614-0.903,0.614-1.551c0-0.847-0.702-1.6-2.107-2.263
		c-0.198-0.097-0.349-0.171-0.453-0.214c-1.587-0.775-2.646-1.474-3.171-2.1c-0.527-0.628-0.792-1.393-0.792-2.296
		c0-1.175,0.397-2.123,1.193-2.853c0.795-0.729,1.843-1.09,3.135-1.09c1.06,0,1.95,0.205,2.665,0.613
		c0.714,0.41,1.207,0.997,1.482,1.762l-1.824,0.946c-0.29-0.453-0.604-0.784-0.95-0.993c-0.346-0.211-0.742-0.315-1.188-0.315
		c-0.628,0-1.132,0.164-1.5,0.493c-0.373,0.326-0.557,0.765-0.557,1.315c0,0.866,0.815,1.674,2.442,2.419
		c0.124,0.061,0.221,0.107,0.295,0.139c1.424,0.656,2.4,1.299,2.93,1.922c0.53,0.628,0.795,1.41,0.795,2.346
		c0,1.362-0.428,2.445-1.288,3.248c-0.858,0.803-2.02,1.206-3.483,1.206c-1.224,0-2.229-0.283-3.013-0.846
		C190.124,197.438,189.611,196.633,189.371,195.582z M186.373,198.465l-1.631-3.705h-5.704l-1.671,3.705h-2.456l6.969-14.958
		l6.964,14.958H186.373z M179.904,192.808h4.013l-1.476-3.282c-0.085-0.208-0.175-0.45-0.265-0.722
		c-0.092-0.271-0.186-0.574-0.275-0.908c-0.077,0.314-0.162,0.606-0.252,0.878c-0.088,0.271-0.179,0.523-0.269,0.752
		L179.904,192.808z M173.961,187.573c-0.661-0.565-1.362-0.988-2.097-1.269c-0.739-0.282-1.514-0.423-2.327-0.423
		c-1.568,0-2.848,0.504-3.834,1.514c-0.986,1.009-1.479,2.315-1.479,3.923c0,1.549,0.479,2.832,1.439,3.841
		c0.959,1.01,2.17,1.514,3.63,1.514c0.853,0,1.661-0.151,2.433-0.453c0.769-0.301,1.508-0.755,2.215-1.366v2.646
		c-0.628,0.453-1.312,0.792-2.053,1.013c-0.741,0.225-1.544,0.337-2.406,0.337c-1.101,0-2.118-0.183-3.05-0.542
		c-0.938-0.361-1.756-0.893-2.463-1.593c-0.702-0.688-1.238-1.5-1.618-2.433c-0.376-0.934-0.563-1.931-0.563-2.983
		c0-1.058,0.188-2.048,0.563-2.975c0.38-0.928,0.923-1.74,1.638-2.441c0.714-0.709,1.533-1.245,2.456-1.606
		c0.923-0.367,1.924-0.548,2.996-0.548c0.846,0,1.651,0.125,2.416,0.369c0.769,0.248,1.51,0.621,2.231,1.121L173.961,187.573z
		 M156.709,198.465v-14.396h2.336v14.396H156.709z M140.496,198.465v-14.958l9.148,8.793c0.248,0.249,0.5,0.515,0.758,0.796
		c0.256,0.282,0.523,0.601,0.807,0.954v-9.98h2.154v14.959l-9.325-8.959c-0.249-0.245-0.489-0.501-0.722-0.769
		c-0.236-0.269-0.453-0.551-0.664-0.846v10.01H140.496z M137.594,187.573c-0.66-0.565-1.361-0.988-2.096-1.269
		c-0.74-0.282-1.514-0.423-2.326-0.423c-1.569,0-2.85,0.504-3.835,1.514c-0.986,1.009-1.479,2.315-1.479,3.923
		c0,1.549,0.479,2.832,1.439,3.841c0.959,1.01,2.17,1.514,3.63,1.514c0.853,0,1.661-0.151,2.433-0.453
		c0.769-0.301,1.508-0.755,2.215-1.366v2.646c-0.627,0.453-1.312,0.792-2.053,1.013c-0.742,0.225-1.544,0.337-2.406,0.337
		c-1.102,0-2.117-0.183-3.05-0.542c-0.938-0.361-1.756-0.893-2.464-1.593c-0.701-0.688-1.237-1.5-1.617-2.433
		c-0.376-0.934-0.563-1.931-0.563-2.983c0-1.058,0.187-2.048,0.563-2.975c0.38-0.928,0.924-1.74,1.638-2.441
		c0.714-0.709,1.532-1.245,2.456-1.606c0.923-0.367,1.924-0.548,2.996-0.548c0.846,0,1.652,0.125,2.416,0.369
		c0.77,0.248,1.51,0.621,2.232,1.121L137.594,187.573z M117.988,182.661l1.873-2.68h2.215l-2.875,2.68H117.988z M115.33,198.465
		v-14.396h8.035v1.994h-5.699v3.603h5.699v2.055h-5.699v4.649h5.699v2.095H115.33z M109.738,186.063v12.401h-2.336v-12.401h-3.826
		v-1.994h9.967v1.994H109.738z M87.135,195.582l1.866-0.861c0.177,0.641,0.502,1.13,0.976,1.466c0.47,0.339,1.074,0.506,1.809,0.506
		c0.697,0,1.248-0.194,1.662-0.579c0.408-0.387,0.613-0.903,0.613-1.551c0-0.847-0.701-1.6-2.106-2.263
		c-0.198-0.097-0.349-0.171-0.454-0.214c-1.586-0.775-2.645-1.474-3.17-2.1c-0.527-0.628-0.792-1.393-0.792-2.296
		c0-1.175,0.397-2.123,1.192-2.853c0.796-0.729,1.844-1.09,3.135-1.09c1.061,0,1.951,0.205,2.666,0.613
		c0.714,0.41,1.207,0.997,1.482,1.762l-1.824,0.946c-0.291-0.453-0.605-0.784-0.951-0.993c-0.346-0.211-0.741-0.315-1.188-0.315
		c-0.627,0-1.131,0.164-1.5,0.493c-0.373,0.326-0.557,0.765-0.557,1.315c0,0.866,0.815,1.674,2.442,2.419
		c0.124,0.061,0.221,0.107,0.295,0.139c1.423,0.656,2.4,1.299,2.929,1.922c0.531,0.628,0.796,1.41,0.796,2.346
		c0,1.362-0.429,2.445-1.288,3.248c-0.858,0.803-2.02,1.206-3.484,1.206c-1.223,0-2.228-0.283-3.012-0.846
		C87.889,197.438,87.377,196.633,87.135,195.582z M84.137,198.465l-1.629-3.705h-5.705l-1.672,3.705h-2.455l6.969-14.958
		l6.963,14.958H84.137z M77.668,192.808h4.014l-1.477-3.282c-0.084-0.208-0.174-0.45-0.264-0.722
		c-0.092-0.271-0.186-0.574-0.275-0.908c-0.078,0.314-0.162,0.606-0.252,0.878c-0.088,0.271-0.178,0.523-0.268,0.752L77.668,192.808
		z M68.995,191.357c-0.026-0.109-0.07-0.419-0.128-0.923c-0.054-0.42-0.101-0.769-0.139-1.044c-0.059,0.329-0.144,0.658-0.25,0.984
		c-0.107,0.329-0.246,0.66-0.41,1.002l-3.764,7.671l-3.767-7.827c-0.157-0.322-0.295-0.632-0.409-0.934
		c-0.115-0.301-0.215-0.6-0.298-0.896c-0.007,0.302-0.03,0.619-0.073,0.95c-0.044,0.333-0.108,0.679-0.191,1.036l-1.544,7.088
		h-2.155l3.402-15l4.248,9.084c0.064,0.142,0.166,0.383,0.299,0.716c0.135,0.335,0.295,0.747,0.488,1.238
		c0.137-0.414,0.354-0.938,0.649-1.571c0.077-0.171,0.138-0.302,0.175-0.392l4.15-9.075l3.48,15h-2.174L68.995,191.357z
		 M48.176,192.023v6.441H45.98v-14.396h3.263c0.957,0,1.698,0.063,2.228,0.188c0.527,0.124,0.977,0.329,1.35,0.617
		c0.446,0.35,0.788,0.799,1.033,1.35c0.242,0.551,0.363,1.151,0.363,1.809c0,1.151-0.279,2.055-0.837,2.708
		c-0.556,0.651-1.378,1.044-2.466,1.175l4.953,6.55H53.23l-4.792-6.441H48.176z M48.316,190.211h0.426
		c1.238,0,2.061-0.146,2.468-0.434s0.61-0.799,0.61-1.533c0-0.792-0.219-1.35-0.653-1.675c-0.438-0.326-1.245-0.486-2.425-0.486
		h-0.426V190.211z M43.3,191.298c0,1.022-0.19,1.99-0.574,2.898c-0.386,0.913-0.942,1.725-1.677,2.44
		c-0.74,0.715-1.574,1.262-2.507,1.642c-0.931,0.377-1.907,0.57-2.926,0.57c-1.038,0-2.024-0.193-2.968-0.574
		c-0.939-0.387-1.769-0.931-2.49-1.638c-0.734-0.716-1.291-1.524-1.67-2.429c-0.379-0.903-0.57-1.873-0.57-2.91
		c0-1.031,0.191-2.001,0.57-2.909c0.379-0.912,0.936-1.728,1.67-2.449c0.736-0.716,1.568-1.26,2.498-1.632
		c0.928-0.373,1.916-0.56,2.96-0.56c1.032,0,2.012,0.187,2.942,0.56c0.926,0.372,1.758,0.916,2.49,1.632
		c0.734,0.727,1.291,1.549,1.677,2.462C43.109,189.317,43.3,190.281,43.3,191.298z M40.863,191.298c0-0.729-0.133-1.42-0.399-2.074
		c-0.265-0.653-0.647-1.238-1.145-1.747c-0.485-0.508-1.046-0.894-1.685-1.165c-0.641-0.271-1.314-0.41-2.019-0.41
		c-0.709,0-1.384,0.135-2.024,0.403c-0.637,0.269-1.207,0.656-1.704,1.172c-0.497,0.502-0.88,1.083-1.142,1.738
		c-0.262,0.652-0.392,1.347-0.392,2.083c0,0.727,0.13,1.416,0.392,2.064c0.262,0.647,0.645,1.227,1.142,1.738
		c0.497,0.513,1.063,0.901,1.7,1.169c0.636,0.271,1.313,0.403,2.028,0.403c0.7,0,1.366-0.133,1.999-0.403
		c0.632-0.268,1.202-0.656,1.704-1.169c0.497-0.512,0.88-1.091,1.145-1.742C40.73,192.703,40.863,192.02,40.863,191.298z
		 M12.369,198.465v-14.958l9.148,8.793c0.248,0.249,0.5,0.515,0.758,0.796c0.256,0.282,0.523,0.601,0.807,0.954v-9.98h2.153v14.959
		l-9.325-8.959c-0.248-0.245-0.488-0.501-0.721-0.769c-0.236-0.269-0.454-0.551-0.664-0.846v10.01H12.369z"/>
</g>
</svg>
