<?xml version="1.0" encoding="utf-8"?>
<!-- Generator: Adobe Illustrator 16.0.0, SVG Export Plug-In . SVG Version: 6.00 Build 0)  -->
<!DOCTYPE svg PUBLIC "-//W3C//DTD SVG 1.1//EN" "http://www.w3.org/Graphics/SVG/1.1/DTD/svg11.dtd">
<svg version="1.1" id="Capa_1" xmlns="http://www.w3.org/2000/svg" xmlns:xlink="http://www.w3.org/1999/xlink" x="0px" y="0px"
	 width="167.666px" height="220.275px" viewBox="0 0 167.666 220.275" enable-background="new 0 0 167.666 220.275"
	 xml:space="preserve">
<g>
	<path fill-rule="evenodd" clip-rule="evenodd" fill="#FFFFFF" d="M34.068,136.34c-0.619,0.467-1.311,0.646-2.076,0.539
		c-0.773-0.109-1.393-0.473-1.859-1.092c-0.469-0.619-0.645-1.313-0.533-2.083c0.105-0.77,0.467-1.388,1.086-1.855
		c0.619-0.467,1.314-0.645,2.088-0.537c0.766,0.108,1.383,0.472,1.85,1.09c0.467,0.619,0.646,1.314,0.543,2.084
		C35.054,135.255,34.687,135.873,34.068,136.34"/>
	<polygon fill-rule="evenodd" clip-rule="evenodd" fill="#FFFFFF" points="27.021,113.384 21.794,122.254 29.212,119.255 
		30.039,121.299 18.06,126.139 17.648,125.117 22.585,116.544 15.363,119.462 14.539,117.42 26.671,112.517 	"/>
	<polygon fill-rule="evenodd" clip-rule="evenodd" fill="#FFFFFF" points="23.724,97.674 24.072,99.867 17.406,102.279 
		24.855,103.732 24.982,104.542 18.347,108.224 25.441,108.51 25.787,110.695 12.621,110.149 12.429,108.947 20.583,104.828 
		11.564,103.49 11.376,102.297 	"/>
	<polygon fill-rule="evenodd" clip-rule="evenodd" fill="#FFFFFF" points="24.095,88.938 19.347,91.824 23.89,94.804 23.808,97.191 
		17.257,93.091 10.908,96.432 10.998,94.089 15.449,91.625 11.189,88.594 11.273,86.197 17.384,90.503 24.183,86.446 	"/>
	
		<rect x="18.918" y="79.638" transform="matrix(-0.9815 -0.1913 0.1913 -0.9815 23.8519 166.2413)" fill-rule="evenodd" clip-rule="evenodd" fill="#FFFFFF" width="2.069" height="4.662"/>
	
		<rect x="13.908" y="74.251" transform="matrix(-0.9563 -0.2924 0.2924 -0.9563 17.7919 153.4527)" fill-rule="evenodd" clip-rule="evenodd" fill="#FFFFFF" width="12.912" height="2.292"/>
	
		<rect x="22.599" y="67.574" transform="matrix(-0.9272 -0.3747 0.3747 -0.9272 19.3545 143.5745)" fill-rule="evenodd" clip-rule="evenodd" fill="#FFFFFF" width="2.071" height="4.663"/>
	<path fill-rule="evenodd" clip-rule="evenodd" fill="#FFFFFF" d="M24.509,64.363c-1.561-0.974-2.611-2.224-3.156-3.748
		c-0.545-1.532-0.371-3.014,0.521-4.444c0.984-1.574,2.225-2.473,3.721-2.695c1.496-0.221,3.127,0.218,4.891,1.321
		c1.764,1.102,2.891,2.413,3.383,3.932c0.494,1.515,0.242,3.072-0.758,4.671c-0.918,1.47-2.137,2.278-3.654,2.423
		C27.943,65.965,26.292,65.478,24.509,64.363 M25.769,62.345c1.281,0.8,2.408,1.203,3.381,1.208
		c0.975,0.006,1.719-0.405,2.236-1.232c0.607-0.971,0.725-1.926,0.355-2.864c-0.367-0.943-1.207-1.824-2.518-2.643
		c-2.564-1.604-4.439-1.458-5.623,0.435C23.06,58.116,22.994,59,23.4,59.898C23.804,60.795,24.595,61.61,25.769,62.345z"/>
	<path fill-rule="evenodd" clip-rule="evenodd" fill="#FFFFFF" d="M37.058,55.636l-0.727-1.963c1.174-0.166,1.994-0.49,2.459-0.972
		c1.027-1.065,0.889-2.23-0.424-3.495c-0.629-0.608-1.203-0.931-1.723-0.967c-0.525-0.041-1.061,0.222-1.607,0.789
		c-0.494,0.512-0.725,1.253-0.689,2.225l-1.055,0.243l-4.604-4.445l4.83-5.002l1.402,1.353l-3.301,3.417l1.66,1.604
		c0.145-0.401,0.402-0.796,0.779-1.186c0.881-0.913,1.822-1.359,2.824-1.339c1.006,0.016,1.992,0.491,2.959,1.425
		c2.363,2.281,2.482,4.522,0.355,6.725C39.316,54.961,38.269,55.49,37.058,55.636"/>
	<path fill-rule="evenodd" clip-rule="evenodd" fill="#FFFFFF" d="M47.73,47.441l-1.74-0.326c0.865-1.849,1.129-3.634,0.793-5.358
		c-0.215,0.375-0.57,0.741-1.063,1.1c-0.98,0.711-1.99,0.981-3.031,0.808s-1.941-0.782-2.701-1.829
		c-0.752-1.036-1.055-2.098-0.908-3.185s0.684-1.967,1.609-2.641c2.434-1.769,4.764-1.122,6.988,1.939
		c0.926,1.273,1.391,2.906,1.4,4.896C49.085,44.829,48.638,46.361,47.73,47.441 M41.826,40.392c0.424,0.585,0.896,0.946,1.418,1.083
		c0.52,0.138,0.996,0.05,1.424-0.26c1.064-0.774,1.164-1.754,0.301-2.943c-0.939-1.292-1.947-1.547-3.027-0.763
		c-0.441,0.32-0.674,0.741-0.697,1.258C41.216,39.28,41.41,39.822,41.826,40.392z"/>
	<polygon fill-rule="evenodd" clip-rule="evenodd" fill="#FFFFFF" points="55.107,42.381 53.326,43.25 52.023,29.462 53.791,28.601 
			"/>
	<path fill-rule="evenodd" clip-rule="evenodd" fill="#FFFFFF" d="M58.089,33.205c-0.545-1.677-0.596-3.226-0.156-4.647
		c0.447-1.423,1.354-2.357,2.723-2.802c2.855-0.928,4.959,0.693,6.314,4.861c0.633,1.95,0.752,3.631,0.359,5.044
		c-0.393,1.413-1.285,2.346-2.676,2.797c-1.498,0.487-2.779,0.31-3.842-0.531C59.748,37.086,58.839,35.512,58.089,33.205
		 M60.402,32.62c0.533,1.637,1.082,2.79,1.652,3.457c0.568,0.667,1.223,0.882,1.959,0.642c0.799-0.26,1.252-0.791,1.365-1.592
		c0.107-0.807-0.127-2.102-0.707-3.884c-0.539-1.659-1.074-2.752-1.604-3.279c-0.523-0.528-1.15-0.673-1.883-0.435
		C59.714,28.006,59.455,29.703,60.402,32.62z"/>
	<path fill-rule="evenodd" clip-rule="evenodd" fill="#FFFFFF" d="M71.271,36.384l-0.094-0.663l3.211-6.53
		c0.643-1.306,0.906-2.366,0.791-3.182c-0.137-0.965-0.783-1.367-1.939-1.204c-0.885,0.124-1.531,0.692-1.941,1.705l-1.697-0.99
		c0.217-0.653,0.621-1.226,1.209-1.718c0.596-0.5,1.285-0.804,2.07-0.915c1.309-0.184,2.375-0.028,3.197,0.467
		c0.822,0.49,1.307,1.264,1.459,2.322c0.137,0.972-0.168,2.248-0.914,3.83l-2.057,4.356l4.801-0.675l0.281,2.016L71.271,36.384z"/>
	<polygon fill-rule="evenodd" clip-rule="evenodd" fill="#FFFFFF" points="88.197,35.472 86.23,35.229 92.646,22.957 94.597,23.197 
			"/>
	<polygon fill-rule="evenodd" clip-rule="evenodd" fill="#FFFFFF" points="111.126,41.743 109.052,40.947 110.298,33.967 
		105.316,39.691 104.55,39.398 104.677,31.81 100.884,37.811 98.82,37.019 105.876,25.889 107.011,26.324 106.501,35.446 
		112.169,28.304 113.296,28.737 	"/>
	<path fill-rule="evenodd" clip-rule="evenodd" fill="#FFFFFF" d="M116.06,37.102c1.055-1.506,2.359-2.492,3.908-2.955
		c1.559-0.465,3.029-0.213,4.41,0.754c1.523,1.064,2.354,2.35,2.496,3.856c0.143,1.506-0.381,3.11-1.574,4.814
		c-1.191,1.704-2.561,2.761-4.104,3.172c-1.537,0.414-3.08,0.081-4.625-1c-1.42-0.994-2.162-2.253-2.229-3.777
		C114.281,40.446,114.855,38.825,116.06,37.102 M118.009,38.466c-0.867,1.237-1.326,2.341-1.385,3.313
		c-0.055,0.972,0.314,1.737,1.115,2.297c0.938,0.657,1.885,0.826,2.842,0.505c0.959-0.317,1.883-1.108,2.77-2.374
		c1.736-2.479,1.689-4.358-0.141-5.639c-0.836-0.586-1.715-0.7-2.635-0.339C119.66,36.585,118.804,37.331,118.009,38.466z"/>
	<path fill-rule="evenodd" clip-rule="evenodd" fill="#FFFFFF" d="M128.283,48.921l-3.417,3.299l-1.594-1.648l9.282-8.962
		c1.109,1.054,1.752,1.674,1.932,1.86c1.416,1.466,2.225,2.756,2.426,3.869c0.211,1.113-0.164,2.13-1.119,3.053
		c-2.129,2.057-4.408,1.831-6.83-0.68C128.781,49.526,128.555,49.262,128.283,48.921 M132.721,44.636l-2.973,2.871
		c0.24,0.308,0.436,0.542,0.592,0.702c0.727,0.752,1.381,1.182,1.967,1.287c0.588,0.102,1.166-0.12,1.73-0.668
		c0.965-0.93,0.697-2.171-0.801-3.722C133.068,44.932,132.896,44.776,132.721,44.636z"/>
	<path fill-rule="evenodd" clip-rule="evenodd" fill="#FFFFFF" d="M134.658,64.689l2.596-5.793c-0.184-0.294-0.432-0.712-0.74-1.254
		l-4.523,2.938l-1.297-1.996l10.828-7.031c0.07,0.108,0.357,0.513,0.863,1.215c0.51,0.699,0.908,1.271,1.197,1.713
		c1.785,2.75,1.613,4.816-0.516,6.198c-0.641,0.416-1.348,0.605-2.121,0.568c-0.773-0.038-1.457-0.273-2.047-0.709l-2.801,6.368
		L134.658,64.689z M141.146,54.633l-3.008,1.953c0.201,0.374,0.363,0.655,0.484,0.842c0.521,0.804,1.014,1.316,1.482,1.539
		c0.469,0.228,1.031,0.128,1.688-0.297c0.531-0.346,0.773-0.786,0.727-1.323c-0.049-0.538-0.35-1.234-0.906-2.092
		C141.48,55.047,141.324,54.84,141.146,54.633z"/>
	<path fill-rule="evenodd" clip-rule="evenodd" fill="#FFFFFF" d="M142.766,65.323c1.717-0.66,3.348-0.747,4.893-0.264
		c1.553,0.486,2.629,1.517,3.234,3.091c0.666,1.733,0.637,3.264-0.088,4.593c-0.723,1.328-2.055,2.365-3.996,3.111
		c-1.941,0.745-3.668,0.857-5.176,0.335c-1.508-0.516-2.6-1.655-3.275-3.416c-0.621-1.619-0.533-3.078,0.264-4.377
		C139.422,67.1,140.803,66.076,142.766,65.323 M143.619,67.544c-1.41,0.541-2.41,1.199-3,1.973c-0.59,0.773-0.711,1.617-0.361,2.526
		c0.412,1.07,1.104,1.739,2.074,2.009c0.973,0.274,2.182,0.134,3.625-0.419c2.824-1.085,3.834-2.669,3.035-4.753
		c-0.365-0.955-1.031-1.54-1.994-1.754C146.039,66.907,144.912,67.046,143.619,67.544z"/>
	<path fill-rule="evenodd" clip-rule="evenodd" fill="#FFFFFF" d="M141.693,79.76l2.178,0.439c-0.451,1.008-0.594,1.943-0.428,2.802
		c0.258,1.321,0.846,1.891,1.77,1.711c0.434-0.083,0.814-0.319,1.146-0.708c0.332-0.387,0.645-1.116,0.939-2.185
		c0.303-1.065,0.576-1.797,0.822-2.198c0.25-0.397,0.576-0.729,0.973-0.998c0.396-0.263,0.859-0.446,1.385-0.547
		c0.979-0.19,1.861,0.008,2.648,0.598c0.785,0.595,1.287,1.455,1.506,2.58c0.285,1.465,0.219,2.594-0.195,3.387l-2.07-0.307
		c0.412-0.9,0.531-1.789,0.363-2.665c-0.102-0.519-0.318-0.896-0.652-1.131c-0.326-0.23-0.709-0.302-1.146-0.216
		c-0.727,0.141-1.324,1.092-1.797,2.854c-0.25,0.929-0.514,1.614-0.793,2.058c-0.273,0.442-0.625,0.806-1.055,1.093
		c-0.424,0.286-0.92,0.484-1.49,0.595c-1.029,0.199-1.951-0.043-2.773-0.727c-0.82-0.678-1.361-1.699-1.625-3.06
		C141.168,81.957,141.268,80.831,141.693,79.76"/>
	<path fill-rule="evenodd" clip-rule="evenodd" fill="#FFFFFF" d="M149.367,89.476c1.838,0.033,3.383,0.562,4.635,1.588
		c1.258,1.032,1.871,2.392,1.842,4.078c-0.033,1.856-0.635,3.265-1.803,4.226c-1.168,0.96-2.791,1.423-4.871,1.387
		c-2.08-0.037-3.721-0.579-4.924-1.628c-1.205-1.043-1.791-2.508-1.758-4.394c0.029-1.733,0.658-3.053,1.885-3.96
		C145.6,89.871,147.264,89.439,149.367,89.476 M149.326,91.854c-1.51-0.026-2.684,0.21-3.52,0.707
		c-0.84,0.496-1.266,1.232-1.283,2.208c-0.02,1.146,0.371,2.024,1.172,2.638c0.799,0.619,1.973,0.942,3.518,0.969
		c3.025,0.052,4.557-1.037,4.596-3.269c0.018-1.022-0.381-1.813-1.193-2.374C151.809,92.171,150.711,91.879,149.326,91.854z"/>
	<polygon fill-rule="evenodd" clip-rule="evenodd" fill="#FFFFFF" points="152.496,107.534 149.539,106.905 148.596,111.345 
		146.691,110.94 147.633,106.5 141.859,105.272 142.334,103.032 154.963,105.716 153.195,114.034 151.203,113.61 	"/>
	<polygon fill-rule="evenodd" clip-rule="evenodd" fill="#FFFFFF" points="147.924,122.476 137.842,118.402 138.699,116.277 
		148.783,120.352 150.32,116.544 152.207,117.307 148.203,127.218 146.316,126.456 	"/>
	<path fill-rule="evenodd" clip-rule="evenodd" fill="#FFFFFF" d="M135.986,131.999c0.619,0.467,0.984,1.083,1.092,1.848
		c0.107,0.774-0.07,1.469-0.539,2.089c-0.467,0.62-1.084,0.98-1.854,1.085c-0.77,0.112-1.463-0.065-2.082-0.532
		c-0.621-0.466-0.984-1.087-1.094-1.86c-0.107-0.765,0.074-1.458,0.539-2.076c0.467-0.62,1.086-0.985,1.855-1.098
		C134.674,131.35,135.369,131.531,135.986,131.999"/>
	<path fill="#FFFFFF" d="M121.771,56.712c9.704,9.703,15.706,23.109,15.706,37.916s-6.002,28.213-15.706,37.917
		c-9.703,9.703-23.109,15.706-37.916,15.706c-14.809,0-28.213-6.002-37.916-15.706c-9.705-9.704-15.707-23.109-15.707-37.917
		s6.002-28.213,15.707-37.916c9.703-9.704,23.107-15.706,37.916-15.706C98.662,41.006,112.068,47.008,121.771,56.712
		 M136.326,94.628c0-14.489-5.873-27.607-15.37-37.102c-9.494-9.495-22.613-15.368-37.102-15.368
		c-14.49,0-27.607,5.873-37.104,15.368c-9.494,9.495-15.367,22.613-15.367,37.102c0,14.489,5.873,27.607,15.367,37.103
		c9.496,9.495,22.613,15.368,37.104,15.368c14.488,0,27.607-5.874,37.102-15.368C130.453,122.235,136.326,109.117,136.326,94.628z"
		/>
	<path fill="#FFFFFF" d="M101.576,62.828H84.558l0.674-0.684h15.662L101.576,62.828z M56.875,76.223V62.144h27.398l-0.676,0.684
		H57.558v12.722L56.875,76.223z M56.875,92.841V77.183l0.684-0.676v17.017L56.875,92.841z M110.15,88.121V62.828h-7.609
		l-0.682-0.684h8.977V88.8L110.15,88.121z M110.15,106.101V89.084l0.686,0.68v15.66L110.15,106.101z M106.896,110.271h3.254v-3.212
		l0.686-0.674v4.571h-0.342h-4.293L106.896,110.271z M105.648,110.271h0.275l-0.275,0.271V110.271z M57.558,110.271h47.406v0.684
		h-48.09V93.807l0.684,0.681V110.271z"/>
	<rect x="79.958" y="98.021" fill-rule="evenodd" clip-rule="evenodd" fill="#FFFFFF" width="24.865" height="5.101"/>
	<rect x="79.958" y="92.409" fill-rule="evenodd" clip-rule="evenodd" fill="#FFFFFF" width="24.865" height="5.101"/>
	<polygon fill-rule="evenodd" clip-rule="evenodd" fill="#FFFFFF" points="105.306,83.782 119.224,97.629 105.306,111.359 	"/>
	<rect x="93.425" y="68.162" fill-rule="evenodd" clip-rule="evenodd" fill="#FFFFFF" width="5.203" height="22.08"/>
	<rect x="87.81" y="68.162" fill-rule="evenodd" clip-rule="evenodd" fill="#FFFFFF" width="5" height="22.08"/>
	<polygon fill-rule="evenodd" clip-rule="evenodd" fill="#FFFFFF" points="79.296,67.672 93.033,53.754 106.875,67.672 	"/>
	<rect x="62.976" y="85.094" fill-rule="evenodd" clip-rule="evenodd" fill="#FFFFFF" width="22.67" height="5.15"/>
	<rect x="62.976" y="79.498" fill-rule="evenodd" clip-rule="evenodd" fill="#FFFFFF" width="22.67" height="5.029"/>
	<polygon fill-rule="evenodd" clip-rule="evenodd" fill="#FFFFFF" points="62.402,71.246 48.486,84.981 62.402,98.823 	"/>
	<polygon fill-rule="evenodd" clip-rule="evenodd" fill="#FFFFFF" points="71.623,116.019 68.49,116.019 68.595,127.071 
		68.49,127.071 63.619,116.019 58.31,116.019 58.31,129.85 61.4,129.85 61.296,118.736 61.4,118.736 66.273,129.85 71.623,129.85 	
		"/>
	<polygon fill-rule="evenodd" clip-rule="evenodd" fill="#FFFFFF" points="86.111,116.019 82.462,116.019 79.519,121.638 
		79.416,121.638 76.531,116.019 72.923,116.019 77.837,124.77 77.837,129.85 81.072,129.85 81.072,124.77 	"/>
	<path fill-rule="evenodd" clip-rule="evenodd" fill="#FFFFFF" d="M96.222,124.749c0,0.228,0.021,0.436,0.021,0.664
		c0,1.763-1.35,1.804-2.758,1.804c-2.262,0-2.676-0.581-2.676-2.841l-0.02-1.638c0-0.643,0-1.285,0.02-1.908
		c0.041-0.58,0.084-1.224,0.498-1.659c0.455-0.518,1.512-0.539,2.219-0.539h0.496c1.68,0,2.115,0.539,2.115,2.177h3.195
		c-0.084-1.141,0.02-2.343-0.602-3.359c-0.873-1.389-2.531-1.513-4.066-1.513h-0.975c-5.039,0-6.221,1.285-6.221,6.303l0.043,1.846
		c0.061,3.006,0.414,5.495,3.98,5.826c0.996,0.021,2.012,0.042,3.006,0.042c1.164,0,2.344-0.104,3.381-0.726
		c1.494-0.912,1.494-2.509,1.494-4.043c-0.021-0.145-0.021-0.291-0.021-0.436L96.222,124.749L96.222,124.749z"/>
	<polygon fill-rule="evenodd" clip-rule="evenodd" fill="#FFFFFF" points="104.115,118.632 110.667,118.632 110.667,116.019 
		101.005,116.019 101.005,129.85 110.771,129.85 110.771,127.257 104.115,127.257 104.115,123.94 110.296,123.94 110.296,121.7 
		104.115,121.7 	"/>
	<path fill="#FFFFFF" d="M141.111,36.145c14.654,14.653,23.717,34.897,23.717,57.257c0,22.36-9.063,42.604-23.717,57.257
		c-14.653,14.653-34.897,23.716-57.256,23.716c-22.361,0-42.604-9.063-57.258-23.716C11.945,136.005,2.88,115.762,2.88,93.402
		c0-22.36,9.064-42.604,23.717-57.257c14.654-14.653,34.896-23.717,57.258-23.717C106.214,12.428,126.458,21.492,141.111,36.145
		 M163.678,93.402c0-22.042-8.936-41.998-23.379-56.443C125.853,22.514,105.896,13.58,83.855,13.58
		c-22.043,0-41.998,8.934-56.443,23.379S4.033,71.36,4.033,93.402c0,22.042,8.934,41.998,23.379,56.443s34.4,23.379,56.443,23.379
		c22.041,0,41.998-8.935,56.444-23.379C154.742,135.4,163.678,115.444,163.678,93.402z"/>
	<path fill-rule="evenodd" clip-rule="evenodd" fill="#FFFFFF" d="M44.429,156.217l0.346-6.339c-0.277-0.208-0.656-0.51-1.141-0.904
		l-3.17,4.363l-1.926-1.399l7.588-10.444c0.105,0.076,0.518,0.35,1.242,0.825c0.727,0.47,1.303,0.86,1.73,1.171
		c2.652,1.926,3.232,3.917,1.74,5.97c-0.447,0.618-1.041,1.048-1.775,1.292c-0.736,0.243-1.457,0.266-2.166,0.071l-0.33,6.948
		L44.429,156.217z M46.882,144.503l-2.107,2.902c0.322,0.277,0.572,0.48,0.752,0.613c0.775,0.563,1.42,0.864,1.936,0.904
		c0.52,0.044,1.01-0.25,1.469-0.882c0.375-0.513,0.443-1.011,0.205-1.496c-0.236-0.484-0.768-1.026-1.594-1.627
		C47.341,144.772,47.121,144.634,46.882,144.503z"/>
	<polygon fill-rule="evenodd" clip-rule="evenodd" fill="#FFFFFF" points="56.664,150.727 55.384,153.467 59.251,155.269 
		58.427,157.035 54.562,155.232 52.927,158.739 58.23,161.21 57.371,163.056 49.992,159.615 55.447,147.913 62.916,151.396 
		62.054,153.241 	"/>
	<path fill-rule="evenodd" clip-rule="evenodd" fill="#FFFFFF" d="M74.101,155.536l-1.379,1.554
		c-0.205-0.299-0.551-0.631-1.041-0.995c-0.49-0.37-0.93-0.604-1.324-0.702c-1.232-0.307-2.307-0.131-3.229,0.53
		c-0.92,0.655-1.555,1.683-1.904,3.085c-0.332,1.334-0.25,2.486,0.246,3.458c0.502,0.973,1.355,1.608,2.559,1.909
		c0.791,0.197,1.498,0.144,2.119-0.163l0.613-2.463l-1.736-0.432l0.475-1.898l3.957,0.986l-1.396,5.609
		c-0.639,0.301-1.408,0.469-2.307,0.506c-0.893,0.032-1.752-0.056-2.576-0.262c-1.797-0.447-3.076-1.391-3.838-2.827
		c-0.756-1.441-0.891-3.129-0.408-5.061c0.48-1.933,1.445-3.36,2.893-4.283c1.447-0.922,3.139-1.143,5.078-0.659
		C72.275,153.773,73.341,154.475,74.101,155.536"/>
	
		<rect x="71.396" y="160.028" transform="matrix(0.0871 -0.9962 0.9962 0.0871 -89.4949 224.6841)" fill-rule="evenodd" clip-rule="evenodd" fill="#FFFFFF" width="12.909" height="2.294"/>
	<path fill-rule="evenodd" clip-rule="evenodd" fill="#FFFFFF" d="M82.228,167.222l0.775-2.082c0.926,0.603,1.826,0.889,2.701,0.858
		c1.344-0.047,2-0.54,1.967-1.479c-0.016-0.44-0.189-0.855-0.518-1.242c-0.332-0.389-1.004-0.812-2.012-1.271
		c-1.006-0.465-1.686-0.85-2.043-1.155c-0.352-0.311-0.629-0.683-0.832-1.116c-0.197-0.435-0.305-0.918-0.324-1.452
		c-0.035-0.999,0.301-1.839,1.006-2.522c0.711-0.683,1.639-1.045,2.785-1.085c1.49-0.052,2.594,0.189,3.314,0.723l-0.629,1.998
		c-0.824-0.547-1.682-0.806-2.574-0.774c-0.529,0.018-0.936,0.173-1.219,0.465c-0.277,0.287-0.408,0.652-0.393,1.099
		c0.025,0.74,0.873,1.48,2.537,2.222c0.877,0.393,1.516,0.762,1.908,1.107c0.395,0.338,0.699,0.742,0.916,1.211
		c0.215,0.462,0.332,0.984,0.354,1.566c0.037,1.044-0.348,1.92-1.152,2.624c-0.799,0.704-1.891,1.079-3.275,1.128
		C84.314,168.083,83.218,167.811,82.228,167.222"/>
	<polygon fill-rule="evenodd" clip-rule="evenodd" fill="#FFFFFF" points="97.476,155.287 99.738,165.924 97.496,166.4 
		95.234,155.763 91.218,156.617 90.794,154.626 101.25,152.403 101.673,154.394 	"/>
	<path fill-rule="evenodd" clip-rule="evenodd" fill="#FFFFFF" d="M114.814,160.392l-5.316-3.47
		c-0.318,0.136-0.77,0.314-1.352,0.535l2.193,4.928l-2.174,0.968l-5.252-11.794c0.119-0.052,0.564-0.273,1.338-0.663
		c0.77-0.393,1.396-0.698,1.877-0.913c2.996-1.333,5.01-0.841,6.041,1.478c0.313,0.698,0.387,1.426,0.23,2.184
		c-0.156,0.759-0.498,1.396-1.02,1.912l5.852,3.761L114.814,160.392z M105.896,152.41l1.461,3.276c0.4-0.14,0.703-0.256,0.906-0.346
		c0.875-0.39,1.459-0.796,1.752-1.224c0.297-0.429,0.287-0.999-0.029-1.713c-0.26-0.579-0.656-0.888-1.193-0.925
		c-0.539-0.037-1.273,0.151-2.207,0.567C106.359,152.146,106.128,152.268,105.896,152.41z"/>
	<path fill-rule="evenodd" clip-rule="evenodd" fill="#FFFFFF" d="M116.423,152.191c-1.08-1.488-1.588-3.04-1.521-4.658
		c0.068-1.625,0.783-2.934,2.15-3.924c1.502-1.091,2.986-1.459,4.457-1.104c1.471,0.355,2.816,1.374,4.039,3.057
		s1.777,3.321,1.664,4.913c-0.107,1.59-0.926,2.938-2.451,4.047c-1.402,1.019-2.834,1.312-4.297,0.877
		C119.007,154.962,117.66,153.894,116.423,152.191 M118.349,150.792c0.887,1.222,1.779,2.017,2.682,2.387
		c0.9,0.37,1.744,0.268,2.533-0.306c0.928-0.673,1.395-1.514,1.404-2.522c0.012-1.011-0.436-2.142-1.344-3.392
		c-1.777-2.448-3.57-3.016-5.377-1.703c-0.826,0.601-1.219,1.395-1.178,2.381C117.107,148.619,117.535,149.671,118.349,150.792z"/>
	<path fill="#FFFFFF" d="M141.596,196.244v12.401h-2.336v-12.401h-3.826v-1.994h9.967v1.994H141.596z M126.376,208.645V194.25h8.036
		v1.994h-5.699v3.583h5.699v2.053h-5.699v6.766H126.376z M123.697,201.478c0,1.022-0.191,1.99-0.574,2.898
		c-0.385,0.913-0.943,1.725-1.678,2.44c-0.738,0.715-1.574,1.262-2.506,1.642c-0.93,0.377-1.908,0.57-2.926,0.57
		c-1.039,0-2.025-0.193-2.967-0.574c-0.939-0.387-1.77-0.931-2.49-1.638c-0.734-0.716-1.293-1.524-1.67-2.429
		c-0.381-0.903-0.572-1.873-0.572-2.91c0-1.031,0.191-2.001,0.572-2.909c0.377-0.912,0.936-1.728,1.67-2.449
		c0.734-0.716,1.566-1.26,2.496-1.632c0.93-0.373,1.916-0.56,2.961-0.56c1.033,0,2.012,0.187,2.941,0.56
		c0.928,0.372,1.758,0.916,2.49,1.632c0.734,0.727,1.293,1.549,1.678,2.462C123.505,199.498,123.697,200.461,123.697,201.478z
		 M121.259,201.478c0-0.729-0.133-1.42-0.398-2.074c-0.266-0.653-0.648-1.238-1.145-1.747c-0.486-0.508-1.045-0.894-1.686-1.165
		s-1.314-0.41-2.018-0.41c-0.709,0-1.385,0.135-2.025,0.403c-0.637,0.269-1.207,0.656-1.703,1.172
		c-0.496,0.502-0.881,1.083-1.141,1.738c-0.264,0.652-0.393,1.347-0.393,2.083c0,0.727,0.129,1.416,0.393,2.064
		c0.26,0.647,0.645,1.227,1.141,1.738c0.496,0.513,1.063,0.901,1.701,1.169c0.635,0.271,1.311,0.403,2.027,0.403
		c0.699,0,1.365-0.133,1.998-0.403c0.633-0.268,1.203-0.656,1.705-1.169c0.496-0.512,0.879-1.091,1.145-1.742
		C121.126,202.883,121.259,202.2,121.259,201.478z M97.064,205.762l1.865-0.861c0.176,0.641,0.502,1.13,0.975,1.466
		c0.471,0.339,1.074,0.506,1.809,0.506c0.699,0,1.25-0.194,1.662-0.579c0.41-0.387,0.615-0.903,0.615-1.551
		c0-0.847-0.703-1.6-2.107-2.263c-0.199-0.097-0.35-0.171-0.453-0.214c-1.588-0.775-2.646-1.474-3.172-2.1
		c-0.527-0.628-0.791-1.393-0.791-2.296c0-1.175,0.398-2.123,1.193-2.853c0.795-0.729,1.842-1.09,3.135-1.09
		c1.059,0,1.949,0.205,2.664,0.613c0.715,0.41,1.207,0.997,1.482,1.762l-1.824,0.946c-0.289-0.453-0.604-0.784-0.949-0.993
		c-0.346-0.211-0.742-0.315-1.188-0.315c-0.629,0-1.133,0.164-1.502,0.493c-0.373,0.326-0.555,0.765-0.555,1.315
		c0,0.866,0.814,1.674,2.441,2.419c0.123,0.061,0.221,0.107,0.295,0.139c1.424,0.656,2.4,1.299,2.93,1.922
		c0.529,0.628,0.795,1.41,0.795,2.346c0,1.362-0.428,2.445-1.289,3.248c-0.857,0.803-2.018,1.206-3.482,1.206
		c-1.225,0-2.229-0.283-3.014-0.846C97.818,207.618,97.304,206.813,97.064,205.762z M95.207,201.478c0,1.022-0.191,1.99-0.574,2.898
		c-0.385,0.913-0.943,1.725-1.678,2.44c-0.738,0.715-1.574,1.262-2.506,1.642c-0.93,0.377-1.908,0.57-2.926,0.57
		c-1.039,0-2.025-0.193-2.967-0.574c-0.939-0.387-1.77-0.931-2.49-1.638c-0.734-0.716-1.293-1.524-1.67-2.429
		c-0.381-0.903-0.57-1.873-0.57-2.91c0-1.031,0.189-2.001,0.57-2.909c0.377-0.912,0.936-1.728,1.67-2.449
		c0.734-0.716,1.566-1.26,2.496-1.632c0.93-0.373,1.916-0.56,2.961-0.56c1.033,0,2.012,0.187,2.941,0.56
		c0.928,0.372,1.758,0.916,2.49,1.632c0.734,0.727,1.293,1.549,1.678,2.462C95.015,199.498,95.207,200.461,95.207,201.478z
		 M92.769,201.478c0-0.729-0.133-1.42-0.398-2.074c-0.266-0.653-0.648-1.238-1.145-1.747c-0.486-0.508-1.045-0.894-1.684-1.165
		c-0.641-0.271-1.316-0.41-2.02-0.41c-0.709,0-1.385,0.135-2.025,0.403c-0.637,0.269-1.207,0.656-1.703,1.172
		c-0.496,0.502-0.881,1.083-1.141,1.738c-0.264,0.652-0.393,1.347-0.393,2.083c0,0.727,0.129,1.416,0.393,2.064
		c0.26,0.647,0.645,1.227,1.141,1.738c0.496,0.513,1.063,0.901,1.701,1.169c0.635,0.271,1.311,0.403,2.027,0.403
		c0.699,0,1.365-0.133,1.998-0.403c0.633-0.268,1.203-0.656,1.705-1.169c0.496-0.512,0.879-1.091,1.145-1.742
		C92.636,202.883,92.769,202.2,92.769,201.478z M71.367,202.204v6.441h-2.195V194.25h3.264c0.957,0,1.697,0.063,2.227,0.188
		c0.527,0.124,0.979,0.329,1.35,0.617c0.447,0.35,0.789,0.799,1.033,1.35s0.363,1.151,0.363,1.809c0,1.151-0.279,2.055-0.836,2.708
		c-0.557,0.651-1.379,1.044-2.465,1.175l4.951,6.55h-2.637l-4.791-6.441H71.367z M71.507,200.391h0.428
		c1.236,0,2.059-0.146,2.467-0.434c0.406-0.288,0.609-0.799,0.609-1.533c0-0.792-0.217-1.35-0.652-1.675
		c-0.438-0.326-1.246-0.486-2.424-0.486h-0.428V200.391z M60.654,202.182v6.463h-2.195V194.25h3.537c1.051,0,1.824,0.058,2.32,0.171
		c0.492,0.114,0.924,0.307,1.293,0.567c0.453,0.333,0.807,0.784,1.066,1.35c0.254,0.566,0.381,1.191,0.381,1.871
		c0,0.686-0.127,1.313-0.381,1.89c-0.26,0.577-0.613,1.031-1.066,1.356c-0.369,0.262-0.801,0.45-1.293,0.56
		c-0.496,0.111-1.27,0.168-2.32,0.168h-0.459H60.654z M60.794,200.269h0.602c1.299,0,2.164-0.141,2.598-0.423
		c0.432-0.28,0.648-0.777,0.648-1.492c0-0.767-0.232-1.306-0.695-1.621c-0.461-0.313-1.314-0.47-2.551-0.47h-0.602V200.269z
		 M55.777,201.478c0,1.022-0.189,1.99-0.574,2.898c-0.385,0.913-0.941,1.725-1.676,2.44c-0.74,0.715-1.574,1.262-2.508,1.642
		c-0.93,0.377-1.906,0.57-2.926,0.57c-1.037,0-2.023-0.193-2.967-0.574c-0.939-0.387-1.77-0.931-2.49-1.638
		c-0.734-0.716-1.291-1.524-1.67-2.429c-0.379-0.903-0.57-1.873-0.57-2.91c0-1.031,0.191-2.001,0.57-2.909
		c0.379-0.912,0.936-1.728,1.67-2.449c0.736-0.716,1.566-1.26,2.498-1.632c0.928-0.373,1.916-0.56,2.959-0.56
		c1.033,0,2.012,0.187,2.943,0.56c0.926,0.372,1.758,0.916,2.49,1.632c0.734,0.727,1.291,1.549,1.676,2.462
		C55.587,199.498,55.777,200.461,55.777,201.478z M53.341,201.478c0-0.729-0.133-1.42-0.4-2.074
		c-0.264-0.653-0.646-1.238-1.145-1.747c-0.484-0.508-1.045-0.894-1.684-1.165c-0.641-0.271-1.314-0.41-2.02-0.41
		c-0.709,0-1.383,0.135-2.023,0.403c-0.637,0.269-1.207,0.656-1.705,1.172c-0.496,0.502-0.879,1.083-1.141,1.738
		c-0.262,0.652-0.393,1.347-0.393,2.083c0,0.727,0.131,1.416,0.393,2.064c0.262,0.647,0.645,1.227,1.141,1.738
		c0.498,0.513,1.064,0.901,1.701,1.169c0.635,0.271,1.313,0.403,2.027,0.403c0.701,0,1.367-0.133,2-0.403
		c0.631-0.268,1.201-0.656,1.703-1.169c0.498-0.512,0.881-1.091,1.145-1.742C53.208,202.883,53.341,202.2,53.341,201.478z
		 M35.386,201.538c-0.027-0.109-0.07-0.419-0.127-0.923c-0.055-0.42-0.102-0.769-0.139-1.044c-0.061,0.329-0.145,0.658-0.25,0.984
		c-0.109,0.329-0.248,0.66-0.41,1.002l-3.766,7.671l-3.766-7.827c-0.156-0.322-0.295-0.632-0.408-0.934
		c-0.115-0.301-0.217-0.6-0.299-0.896c-0.008,0.302-0.031,0.619-0.074,0.95c-0.043,0.333-0.107,0.679-0.191,1.036l-1.543,7.088
		h-2.156l3.402-15l4.25,9.084c0.064,0.142,0.164,0.383,0.299,0.716c0.135,0.335,0.295,0.747,0.486,1.238
		c0.137-0.414,0.355-0.938,0.65-1.571c0.078-0.171,0.139-0.302,0.174-0.392l4.152-9.075l3.479,15h-2.172L35.386,201.538z"/>
</g>
</svg>
