<svg xmlns="http://www.w3.org/2000/svg" xmlns:xlink="http://www.w3.org/1999/xlink" xml:space="preserve" version="1.1" style="shape-rendering:geometricPrecision; text-rendering:geometricPrecision; image-rendering:optimizeQuality; fill-rule:evenodd; clip-rule:evenodd" viewBox="2306 6530 16702 4360">
 <defs>
  <style type="text/css">
   <![CDATA[
    .fil0 {fill:#FEFEFE}
    .fil1 {fill:#009EE2}
    .fil2 {fill:#FFCB00}
   ]]>
  </style>
 </defs>
 <g id="Capa_x0020_1">
  <metadata id="CorelCorpID_0Corel-Layer"/>
  <g id="_2775468099728">
   <path class="fil0" d="M8423 7281l-511 0 -67 486 -330 0 -54 400 324 0 -110 778c-14,89 -6,165 16,227 19,65 54,116 102,154 52,38 109,67 181,86 68,16 146,25 233,25 59,0 121,-3 183,-9 63,-5 125,-21 182,-40l59 -419c-27,19 -59,33 -105,38 -44,5 -79,11 -108,11 -55,0 -95,-11 -125,-24 -32,-14 -54,-36 -65,-63 -13,-27 -21,-59 -21,-97 0,-38 5,-78 13,-121l76 -546 451 0 57 -400 -449 0 68 -486zm0 0l0 0zm10504 448c-30,-3 -59,-3 -89,-3 -114,0 -211,25 -292,76 -84,49 -159,124 -227,224l-5 0 38 -259 -514 0 -232 1632 513 0 95 -684c11,-81 27,-154 46,-221 19,-68 46,-125 83,-173 36,-49 84,-87 146,-111 62,-30 141,-43 238,-43 41,0 76,5 111,11 32,5 70,10 105,24l65 -459c-27,-6 -51,-11 -81,-14zm0 0l0 0zm-1999 667l-678 0c10,-40 27,-78 51,-116 22,-38 49,-70 84,-97 35,-27 75,-49 119,-70 46,-16 97,-25 154,-25 91,0 164,30 213,90 49,62 70,132 57,218zm0 0l0 0zm362 -437c-57,-76 -130,-133 -222,-173 -89,-41 -192,-60 -313,-60 -127,0 -249,19 -368,60 -116,40 -224,97 -316,173 -94,75 -170,162 -232,270 -62,103 -105,222 -122,351 -16,130 -10,246 22,354 32,105 84,195 157,270 70,76 159,133 267,176 108,38 224,57 351,57 133,0 268,-27 400,-81 133,-57 249,-138 343,-241l-321 -259c-51,62 -108,108 -170,146 -65,37 -138,54 -219,54 -103,0 -181,-30 -243,-84 -60,-57 -92,-138 -98,-232l1184 0 24 -160c16,-129 16,-248 -5,-351 -22,-108 -60,-195 -119,-270zm0 0l0 0zm-2224 -192l-656 640 181 -1264 -511 0 -321 2256 510 0 116 -827 6 0 443 827 646 0 -551 -900 764 -732 -627 0zm0 0l0 0zm-2293 516c81,-76 186,-116 318,-116 52,0 98,13 141,35 43,24 76,54 94,89l387 -346c-70,-83 -154,-138 -257,-170 -105,-32 -205,-49 -305,-49 -127,0 -249,19 -368,60 -119,40 -224,97 -318,173 -92,75 -168,162 -233,270 -62,103 -102,222 -119,351 -19,130 -10,246 22,354 32,105 84,195 154,270 76,76 162,133 270,176 105,38 224,57 351,57 98,0 203,-14 311,-46 114,-33 216,-89 311,-171l-287 -348c-35,32 -78,62 -121,86 -43,25 -97,36 -154,36 -130,0 -224,-36 -284,-111 -59,-79 -81,-179 -62,-303 16,-121 68,-221 149,-297zm0 0l0 0zm-1432 505c-6,52 -22,97 -49,138 -27,35 -62,68 -103,92 -37,24 -83,43 -132,59 -49,14 -97,19 -146,19 -30,0 -57,-3 -86,-11 -27,-5 -52,-16 -73,-35 -19,-13 -35,-32 -49,-54 -11,-21 -13,-46 -8,-78 8,-57 32,-103 73,-132 43,-33 89,-57 146,-71 57,-16 113,-27 170,-29 59,-3 105,-3 146,-3l124 0 -13 105zm0 0l0 0zm437 -843c-48,-73 -118,-127 -208,-165 -94,-35 -216,-54 -364,-54 -135,0 -271,22 -403,65 -132,44 -251,111 -362,198l232 272c65,-59 133,-105 208,-140 73,-35 154,-54 235,-54 90,0 163,27 219,78 57,54 81,125 68,214 -106,0 -227,5 -357,10 -129,9 -254,27 -375,65 -119,38 -219,95 -308,173 -87,76 -143,187 -162,327 -11,84 -6,157 19,219 21,62 56,116 105,159 49,41 108,73 175,92 71,22 141,33 219,33 106,0 206,-17 306,-57 100,-35 186,-100 251,-187l8 0 -27 206 470 0 116 -832c19,-135 27,-257 19,-360 -8,-105 -35,-191 -84,-262zm0 0l0 0zm-1629 -216c-27,-3 -59,-3 -86,-3 -116,0 -214,25 -295,76 -81,49 -156,124 -224,224l-8 0 38 -259 -511 0 -232 1632 510 0 98 -684c11,-81 24,-154 46,-221 19,-68 46,-125 83,-173 36,-49 84,-87 146,-111 62,-30 141,-43 238,-43 38,0 76,5 111,11 32,5 67,10 102,24l65 -459c-24,-6 -51,-11 -81,-14z"/>
   <path class="fil1" d="M6413 7691l-640 0 -241 1700 1448 0c71,-187 108,-384 119,-584l-843 0 157 -1116z"/>
   <path class="fil2" d="M6545 6530l-589 0c3,29 3,64 3,97 0,165 -30,332 -84,486l597 0c62,-189 87,-389 73,-583z"/>
   <path class="fil1" d="M7248 6530l-460 0c3,29 3,64 3,97 0,165 -21,329 -65,486l449 0c62,-189 83,-389 73,-583z"/>
   <path class="fil0" d="M2830 10469l0 221c-32,19 -62,35 -97,46 -32,11 -70,14 -111,14 -48,0 -94,-6 -129,-22 -41,-14 -76,-32 -100,-59 -30,-25 -52,-54 -65,-90 -14,-35 -22,-78 -22,-121 0,-43 6,-81 22,-119 13,-35 32,-65 59,-92 27,-21 60,-43 98,-57 40,-13 81,-21 127,-21 24,0 46,3 67,5 22,3 38,8 54,14 19,5 35,16 51,24 14,8 28,16 41,27l-24 35c-3,8 -8,8 -11,11 -8,3 -14,0 -22,-3 -5,-3 -13,-8 -24,-13 -8,-6 -19,-11 -30,-16 -13,-6 -27,-9 -46,-14 -13,-3 -35,-3 -56,-3 -35,0 -65,3 -95,14 -24,11 -49,27 -70,46 -19,19 -33,40 -43,70 -11,27 -17,59 -17,92 0,35 6,70 17,100 10,27 27,51 46,70 21,19 43,35 75,46 27,8 60,16 95,16 27,0 51,-5 73,-11 21,-5 43,-13 65,-24l0 -124 -95 0c-5,0 -8,-3 -14,-8 -2,-3 -2,-6 -2,-11l0 -43 183 0zm0 0l0 0zm598 0c24,0 43,-3 62,-8 16,-6 32,-14 46,-28 10,-8 21,-18 27,-35 5,-13 8,-29 8,-48 0,-35 -11,-62 -35,-84 -22,-19 -60,-30 -108,-30l-98 0 0 233 98 0zm0 0l0 0zm0 -295c37,0 72,6 100,14 29,8 51,19 70,35 16,13 32,35 40,56 8,22 14,46 14,71 0,27 -6,51 -16,75 -9,22 -22,38 -41,54 -19,17 -43,28 -70,38 -30,11 -60,16 -97,16l-98 0 0 211 -78 0 0 -570 176 0zm0 0l0 0zm929 89c-3,6 -6,8 -8,8 -3,3 -6,6 -8,6 -8,0 -11,-3 -19,-8 -6,-6 -16,-11 -24,-14 -11,-8 -22,-11 -36,-16 -10,-3 -29,-5 -48,-5 -16,0 -35,2 -49,5 -13,5 -24,11 -35,19 -8,8 -16,16 -22,27 -2,11 -5,24 -5,35 0,16 5,30 13,38 6,11 17,21 33,30 13,5 27,13 46,19 16,5 35,10 51,16 19,5 38,10 54,19 16,8 33,16 46,27 14,10 24,24 33,43 8,16 13,38 13,59 0,27 -5,49 -16,71 -8,21 -22,40 -38,56 -19,16 -38,30 -65,38 -21,11 -51,14 -84,14 -37,0 -75,-6 -105,-19 -32,-14 -59,-30 -84,-54l25 -38c2,-3 5,-3 8,-6 2,-2 8,-2 11,-2 2,0 8,0 10,5 6,0 11,3 19,8 3,3 11,8 19,14 6,5 16,11 27,13 8,6 19,8 33,11 10,3 24,6 40,6 19,0 38,-3 51,-9 17,-5 30,-10 41,-21 8,-11 16,-19 22,-33 5,-10 8,-27 8,-43 0,-16 -3,-30 -11,-40 -8,-11 -19,-22 -33,-30 -13,-8 -29,-14 -46,-22 -16,-2 -37,-8 -54,-13 -18,-6 -35,-11 -51,-19 -19,-8 -32,-16 -46,-27 -16,-11 -27,-27 -32,-43 -11,-19 -14,-38 -14,-63 0,-21 3,-40 14,-59 5,-19 19,-35 35,-51 16,-11 32,-25 57,-33 24,-10 51,-13 81,-13 32,0 62,5 92,13 27,11 51,27 70,44l-19 37zm0 0l0 0zm1329 79l-238 521c-2,5 -5,8 -10,14 -3,0 -9,2 -17,2l-54 0 76 -156 -173 -381 62 0c8,0 14,0 16,5 3,0 6,5 8,11l114 254c3,11 8,21 14,35 0,-14 5,-24 10,-35l111 -254c0,-6 3,-11 8,-11 3,-5 8,-5 14,-5l59 0zm0 0l0 0zm1221 -79c-2,6 -5,8 -5,8 -6,3 -8,6 -11,6 -5,0 -11,-3 -19,-8 -5,-6 -13,-11 -24,-14 -8,-8 -22,-11 -33,-16 -13,-3 -32,-5 -51,-5 -16,0 -35,2 -49,5 -10,5 -24,11 -32,19 -11,8 -19,16 -24,27 -3,11 -6,24 -6,35 0,16 6,30 14,38 5,11 19,21 32,30 14,5 27,13 46,19 16,5 35,10 52,16 18,5 37,10 54,19 18,8 32,16 45,27 14,10 25,24 33,43 8,16 13,38 13,59 0,27 -5,49 -13,71 -11,21 -24,40 -38,56 -19,16 -40,30 -68,38 -21,11 -51,14 -83,14 -38,0 -73,-6 -106,-19 -32,-14 -59,-30 -83,-54l24 -38c3,-3 5,-3 8,-6 3,-2 8,-2 11,-2 3,0 8,0 11,5 8,0 11,3 19,8 2,3 10,8 18,14 6,5 17,11 28,13 8,6 18,8 32,11 13,3 24,6 40,6 19,0 38,-3 52,-9 16,-5 29,-10 40,-21 8,-11 17,-19 25,-33 2,-10 8,-27 8,-43 0,-16 -6,-30 -14,-40 -8,-11 -19,-22 -32,-30 -14,-8 -30,-14 -46,-22 -16,-2 -35,-8 -54,-13 -16,-6 -35,-11 -51,-19 -19,-8 -33,-16 -46,-27 -17,-11 -25,-27 -33,-43 -8,-19 -13,-38 -13,-63 0,-21 5,-40 13,-59 8,-19 19,-35 35,-51 16,-11 35,-25 57,-33 24,-10 51,-13 81,-13 33,0 62,5 92,13 27,11 51,27 73,44l-22 37zm0 0l0 0zm700 235c0,-19 -3,-32 -8,-46 -3,-13 -11,-24 -19,-35 -11,-10 -22,-16 -35,-24 -14,-3 -27,-5 -46,-5 -35,0 -65,8 -84,27 -21,18 -35,48 -40,83l232 0zm0 0l0 0zm62 190c-11,10 -21,18 -35,26 -13,9 -27,17 -41,22 -13,3 -29,8 -45,11 -17,0 -30,3 -46,3 -30,0 -57,-3 -81,-14 -25,-11 -46,-22 -65,-43 -16,-16 -33,-38 -41,-65 -11,-27 -16,-57 -16,-92 0,-32 5,-57 13,-81 9,-24 22,-46 41,-62 16,-19 35,-32 62,-43 24,-11 52,-14 81,-14 27,0 52,3 73,11 22,8 38,19 54,32 16,17 27,36 38,57 11,25 14,49 14,76 0,16 -3,24 -3,27 -3,3 -8,5 -16,5l-281 0c0,27 2,49 11,68 5,16 13,32 24,46 13,11 27,21 43,27 16,5 35,8 54,8 19,0 35,-3 49,-3 13,-5 27,-11 35,-16 11,-5 19,-8 27,-14 5,-2 11,-2 13,-2 8,0 11,0 17,5l21 25zm0 0l0 0zm540 -138c17,0 30,-3 41,-8 11,-3 22,-9 27,-19 11,-8 16,-14 19,-25 3,-10 5,-21 5,-32 0,-24 -8,-43 -24,-59 -13,-14 -38,-22 -68,-22 -29,0 -54,8 -67,22 -16,16 -24,35 -24,59 0,11 2,22 5,32 5,11 11,17 19,25 5,10 16,16 27,19 11,5 27,8 40,8zm0 0l0 0zm136 216c0,-11 -3,-19 -9,-24 -5,-6 -16,-11 -24,-14 -11,-5 -21,-5 -35,-8 -11,0 -27,-3 -43,-3 -11,0 -27,-3 -43,-3 -14,0 -30,0 -44,-2 -13,5 -27,13 -38,24 -8,11 -16,22 -16,38 0,8 3,16 8,24 6,8 11,14 22,22 11,3 22,8 38,13 16,0 35,3 54,3 22,0 40,-3 54,-3 19,-5 30,-10 40,-16 11,-5 22,-13 27,-21 6,-9 9,-19 9,-30zm0 0l0 0zm75 -408l0 24c0,11 -5,16 -19,19l-48 6c13,18 16,35 16,56 0,19 -3,38 -14,54 -5,19 -16,33 -32,41 -14,13 -30,21 -49,27 -19,8 -40,11 -65,11 -21,0 -37,-3 -54,-6 -10,3 -18,11 -21,14 -6,8 -8,13 -8,21 0,8 5,14 13,19 6,6 16,8 33,11 13,3 27,3 46,3 16,0 35,2 51,2 19,3 38,6 51,9 19,2 33,8 49,13 13,8 24,16 32,27 8,14 11,27 11,46 0,16 -3,35 -13,49 -9,16 -22,29 -38,43 -19,13 -41,21 -62,30 -25,8 -54,13 -87,13 -30,0 -57,-5 -78,-11 -25,-5 -43,-11 -60,-24 -16,-8 -27,-22 -35,-32 -5,-11 -11,-27 -11,-41 0,-19 6,-35 19,-49 14,-13 33,-27 54,-32 -10,-8 -21,-13 -29,-22 -6,-10 -11,-21 -11,-35 0,-8 3,-13 5,-19 3,-8 3,-13 8,-19 6,-5 11,-13 17,-16 8,-8 16,-11 24,-16 -22,-11 -35,-24 -49,-46 -11,-19 -19,-40 -19,-65 0,-19 6,-38 14,-51 8,-19 19,-33 32,-43 16,-11 33,-19 52,-25 21,-8 43,-8 64,-8 19,0 36,0 52,3 16,5 30,11 43,19l116 0zm0 0l0 0zm716 -16l0 402 -46 0c-11,0 -19,-5 -21,-13l-6 -43c-16,18 -38,35 -59,45 -25,11 -52,17 -79,17 -24,0 -46,-3 -64,-11 -17,-6 -33,-16 -44,-30 -13,-13 -21,-30 -27,-49 -8,-18 -8,-37 -8,-62l0 -256 73 0 0 256c0,30 8,54 24,71 14,19 36,24 68,24 22,0 41,-3 59,-14 19,-10 38,-21 54,-40l0 -297 76 0zm0 0l0 0zm476 81c13,-30 29,-52 48,-65 19,-16 46,-22 73,-22 8,0 19,0 25,0 8,3 16,6 24,11l-8 51c-3,6 -6,11 -14,11 -2,0 -8,-2 -16,-2 -5,-3 -16,-6 -24,-6 -14,0 -25,3 -35,8 -11,6 -22,8 -30,16 -8,8 -14,17 -22,27 -5,11 -13,22 -16,38l0 254 -76 0 0 -402 44 0c5,0 10,0 13,5 6,0 8,5 8,14l6 62zm0 0l0 0zm610 321l-73 0 0 -402 73 0 0 402zm0 0l0 0zm16 -529c0,8 0,13 -2,21 -6,3 -8,11 -14,14 -5,5 -8,8 -16,11 -8,2 -14,5 -22,5 -5,0 -13,-3 -19,-5 -5,-3 -13,-6 -16,-11 -5,-3 -10,-11 -10,-14 -6,-8 -6,-13 -6,-21 0,-6 0,-11 6,-19 0,-6 5,-14 10,-16 3,-6 11,-8 16,-11 6,-3 14,-3 19,-3 8,0 14,0 22,3 8,3 11,5 16,11 6,2 8,10 14,16 2,8 2,13 2,19zm0 0l0 0zm670 221c-10,-16 -27,-29 -43,-35 -16,-8 -35,-11 -57,-11 -37,0 -67,11 -89,38 -21,30 -32,65 -32,119 0,24 3,46 8,68 5,16 11,32 19,43 11,11 22,21 35,27 14,5 27,8 46,8 24,0 46,-5 65,-16 16,-11 35,-25 48,-44l0 -197zm0 0l0 0zm76 -275l0 583 -43 0c-11,0 -19,-5 -22,-13l-5 -52c-19,22 -41,38 -62,52 -25,13 -52,19 -81,19 -25,0 -46,-3 -68,-14 -19,-8 -38,-22 -48,-38 -14,-19 -25,-40 -33,-65 -8,-24 -11,-54 -11,-86 0,-35 3,-62 11,-86 11,-28 22,-46 35,-68 19,-16 35,-32 60,-43 21,-11 48,-14 75,-14 27,0 49,0 68,11 19,8 35,19 48,32l0 -218 76 0zm0 0l0 0zm638 402c-35,3 -65,6 -89,8 -25,6 -44,8 -60,17 -16,5 -27,13 -32,24 -6,8 -11,19 -11,30 0,10 3,18 5,27 3,8 8,13 14,19 8,2 16,8 24,10 8,3 16,3 27,3 14,0 24,0 35,-3 11,-2 22,-8 33,-10 8,-6 19,-11 27,-19 8,-6 16,-14 27,-22l0 -84zm0 0l0 0zm-241 -165c22,-21 46,-37 76,-48 24,-11 57,-14 89,-14 22,0 43,0 62,11 19,5 35,16 49,30 11,13 21,27 27,48 5,19 8,38 8,60l0 259 -32 0c-6,0 -14,0 -17,-2 -5,-3 -8,-6 -11,-14l-8 -38c-10,11 -21,19 -32,24 -11,9 -22,14 -32,22 -14,3 -25,8 -38,11 -14,3 -30,3 -44,3 -18,0 -32,-3 -45,-6 -17,-5 -30,-11 -41,-21 -11,-9 -19,-19 -24,-33 -8,-11 -8,-27 -8,-46 0,-16 2,-29 10,-46 11,-16 25,-27 46,-40 19,-8 49,-19 81,-27 36,-8 73,-14 125,-14l0 -32c0,-30 -11,-54 -22,-70 -16,-17 -35,-22 -65,-22 -16,0 -32,0 -46,5 -11,3 -21,9 -32,14 -8,5 -16,11 -22,13 -8,6 -13,8 -21,8 -3,0 -8,0 -11,-5 -6,-3 -8,-3 -11,-8l-11 -22zm0 0l0 0zm1000 38c-16,-16 -33,-29 -46,-35 -19,-8 -35,-11 -54,-11 -41,0 -70,11 -92,38 -22,30 -32,65 -32,119 0,24 2,46 5,68 8,16 14,32 22,43 10,11 21,21 35,27 13,5 29,8 46,8 24,0 46,-5 62,-16 21,-11 38,-25 54,-44l0 -197zm0 0l0 0zm73 -275l0 583 -43 0c-11,0 -19,-5 -22,-13l-8 -52c-16,22 -38,38 -60,52 -24,13 -48,19 -81,19 -24,0 -46,-3 -67,-14 -19,-8 -35,-22 -49,-38 -16,-19 -27,-40 -32,-65 -8,-24 -14,-54 -14,-86 0,-35 6,-62 14,-86 8,-28 21,-46 35,-68 16,-16 35,-32 59,-43 22,-11 49,-14 76,-14 27,0 49,0 68,11 18,8 35,19 51,32l0 -218 73 0zm0 0l0 0zm1445 13l-243 570 -73 0 -246 -570 68 0c5,0 11,3 16,8 5,0 5,6 8,11l173 403c0,8 5,19 8,29 3,11 8,22 11,33 3,-11 3,-22 8,-33 3,-10 5,-21 8,-29l170 -403c3,-3 6,-8 11,-11 6,-5 11,-8 16,-8l65 0zm0 0l0 0zm530 324c0,-19 -3,-32 -8,-46 -6,-13 -11,-24 -19,-35 -11,-10 -22,-16 -35,-24 -14,-3 -27,-5 -46,-5 -38,0 -65,8 -84,27 -22,18 -35,48 -41,83l233 0zm0 0l0 0zm62 190c-11,10 -22,18 -35,26 -14,9 -27,17 -41,22 -13,3 -30,8 -46,11 -16,0 -29,3 -46,3 -29,0 -56,-3 -81,-14 -24,-11 -46,-22 -65,-43 -16,-16 -32,-38 -40,-65 -11,-27 -16,-57 -16,-92 0,-32 5,-57 13,-81 8,-24 22,-46 41,-62 16,-19 35,-32 62,-43 24,-11 51,-14 81,-14 27,0 51,3 73,11 22,8 38,19 54,32 16,17 27,36 38,57 11,25 13,49 13,76 0,16 -2,24 -2,27 -3,3 -9,5 -17,5l-281 0c0,27 3,49 11,68 6,16 14,32 24,46 14,11 28,21 44,27 16,5 35,8 54,8 19,0 35,-3 48,-3 14,-5 27,-11 36,-16 10,-5 18,-8 27,-14 5,-2 10,-2 13,-2 8,0 11,0 16,5l22 25zm0 0l0 0zm467 -295c19,-16 41,-32 62,-43 22,-11 46,-14 76,-14 24,0 43,3 59,11 19,5 33,16 46,30 11,13 19,30 27,48 6,19 8,38 8,63l0 256 -72 0 0 -256c0,-30 -11,-55 -22,-73 -16,-14 -38,-22 -68,-22 -21,0 -43,3 -64,14 -17,8 -36,24 -52,40l0 297 -75 0 0 -583 75 0 0 232zm0 0l0 0zm759 351l-72 0 0 -402 72 0 0 402zm0 0l0 0zm17 -529c0,8 0,13 -6,21 -2,3 -5,11 -11,14 -2,5 -10,8 -16,11 -8,2 -13,5 -21,5 -9,0 -14,-3 -22,-5 -5,-3 -11,-6 -16,-11 -6,-3 -8,-11 -11,-14 -3,-8 -5,-13 -5,-21 0,-6 2,-11 5,-19 3,-6 5,-14 11,-16 5,-6 11,-8 16,-11 8,-3 13,-3 22,-3 8,0 13,0 21,3 6,3 14,5 16,11 6,2 9,10 11,16 6,8 6,13 6,19zm0 0l0 0zm689 200c-3,0 -6,2 -6,5 -3,0 -5,3 -11,3 -2,0 -8,-3 -13,-8 -6,0 -11,-6 -19,-8 -8,-6 -16,-9 -27,-14 -11,0 -24,-3 -38,-3 -24,0 -40,3 -57,11 -16,6 -29,16 -40,30 -11,13 -19,27 -25,48 -5,19 -8,38 -8,65 0,25 3,46 8,65 9,16 17,35 28,49 10,11 24,21 37,27 17,5 33,11 52,11 19,0 35,-3 46,-6 10,-5 21,-11 27,-13 8,-8 16,-11 19,-17 8,-2 10,-2 16,-2 5,0 11,0 16,5l22 25c-11,10 -22,21 -33,26 -11,9 -24,17 -38,22 -16,3 -27,8 -43,11 -16,0 -30,3 -46,3 -27,0 -48,-3 -73,-14 -21,-11 -43,-22 -59,-40 -16,-17 -30,-38 -41,-65 -8,-27 -13,-54 -13,-87 0,-32 5,-59 13,-86 8,-25 22,-46 38,-65 19,-19 38,-32 65,-43 22,-11 51,-14 84,-14 29,0 56,3 78,11 24,11 43,22 59,41l-18 27zm0 0l0 0zm743 -73l0 402 -44 0c-10,0 -19,-5 -24,-13l-3 -43c-19,18 -40,35 -62,45 -24,11 -51,17 -78,17 -24,0 -43,-3 -62,-11 -19,-6 -36,-16 -46,-30 -11,-13 -22,-30 -27,-49 -6,-18 -8,-37 -8,-62l0 -256 75 0 0 256c0,30 6,54 22,71 16,19 38,24 67,24 22,0 41,-3 60,-14 19,-10 38,-21 54,-40l0 -297 76 0zm0 0l0 0zm483 402l-76 0 0 -583 76 0 0 583z"/>
   <path class="fil0" d="M18284 10563c-35,3 -65,6 -86,8 -27,6 -46,8 -63,17 -16,5 -27,13 -32,24 -5,8 -11,19 -11,30 0,10 3,18 6,24 5,11 10,16 16,22 5,2 13,8 21,10 9,0 19,0 27,0 14,0 25,0 36,0 10,-2 21,-8 32,-10 11,-6 19,-11 27,-19 8,-6 16,-14 27,-22l0 -84zm0 0l0 0zm-240 -165c21,-21 45,-37 75,-48 25,-11 57,-14 89,-14 22,0 44,0 65,8 16,8 33,19 46,33 11,13 22,27 27,46 6,21 11,40 11,62l0 259 -35 0c-6,0 -11,0 -16,-2 -3,-3 -6,-9 -11,-14l-6 -40c-13,10 -24,21 -32,26 -11,9 -24,14 -35,19 -11,6 -24,11 -35,11 -14,6 -30,6 -46,6 -16,0 -33,-3 -46,-6 -16,-5 -30,-11 -41,-21 -8,-9 -16,-19 -21,-33 -8,-11 -11,-27 -11,-46 0,-16 3,-32 13,-46 9,-16 25,-29 44,-40 21,-11 48,-22 83,-30 33,-8 73,-11 122,-11l0 -32c0,-30 -8,-54 -22,-70 -13,-17 -35,-25 -64,-25 -17,0 -33,3 -44,8 -13,3 -24,9 -35,14 -8,5 -16,11 -21,13 -9,6 -14,8 -22,8 -3,0 -8,0 -11,-5 -3,-3 -8,-5 -11,-8l-10 -22zm0 0l0 0zm794 25c13,-30 32,-52 51,-68 19,-13 43,-19 70,-19 11,0 19,0 27,0 9,3 17,6 22,8l-5 54c0,6 -6,11 -11,11 -6,0 -11,-2 -19,-2 -8,-3 -16,-6 -24,-6 -14,0 -27,3 -35,8 -11,3 -22,8 -30,14 -8,10 -16,19 -25,29 -5,11 -10,22 -16,36l0 256 -73 0 0 -402 41 0c8,0 16,0 16,2 3,3 5,8 8,17l3 62z"/>
   <path class="fil1" d="M2441 8726c0,3 0,8 0,14 44,91 103,175 171,251 121,132 270,232 454,300 181,73 386,108 613,108 216,0 427,-22 637,-68 211,-43 419,-111 624,-208l206 -1432 -1138 0 -75 516 521 0 -67 468c-63,32 -149,65 -254,94 -106,33 -230,46 -373,46 -135,0 -257,-21 -360,-67 -102,-46 -191,-108 -256,-192 -68,-81 -114,-181 -143,-295 -22,-97 -27,-205 -17,-318 46,-403 376,-692 816,-789 -629,119 -1264,567 -1359,1572z"/>
   <path class="fil1" d="M5716 6530l-360 0 -21 0 -19 0 -22 0 -19 0 -21 0 -19 0 -22 0c-408,0 -915,0 -1172,2 -724,0 -1651,403 -1735,1627 0,200 35,389 130,586 0,0 0,-3 3,-3 0,-8 0,-11 2,-16 95,-1005 733,-1451 1359,-1572 125,-27 254,-38 373,-38 154,-3 789,-3 1446,-3 78,-189 113,-386 97,-583z"/>
  </g>
 </g>
</svg>