<svg xmlns="http://www.w3.org/2000/svg" version="1.0" width="481.000000pt" height="502.000000pt" viewBox="0 0 481.000000 502.000000" preserveAspectRatio="xMidYMid meet">
<metadata fill="#ef501a">
Created by potrace 1.16, written by Peter Selinger 2001-2019
</metadata>
<g transform="translate(0.000000,502.000000) scale(0.100000,-0.100000)" fill="#ef501a" stroke="none">
<path d="M3052 4768 c-7 -7 -12 -21 -12 -33 0 -39 18 -45 142 -45 79 0 118 -4 118 -11 0 -8 -88 -117 -120 -149 -3 -3 -36 -39 -73 -81 -51 -58 -67 -83 -67 -107 0 -18 6 -32 16 -36 9 -3 98 -6 199 -6 195 0 215 5 215 50 0 31 -32 40 -137 41 -54 0 -106 4 -116 7 -14 6 7 35 118 162 80 91 135 163 135 175 0 42 -15 45 -215 45 -135 0 -195 -4 -203 -12z" fill="#ef501a"/>
<path d="M2600 4487 c-31 -16 -37 -43 -14 -68 15 -17 31 -19 136 -19 65 0 118 -3 118 -6 0 -6 -102 -127 -120 -144 -40 -37 -150 -175 -150 -189 0 -10 8 -25 18 -34 16 -15 45 -17 203 -17 199 0 209 2 209 52 0 40 -25 48 -149 48 -61 0 -111 3 -111 8 0 7 129 159 214 252 60 66 66 103 19 121 -38 14 -343 11 -373 -4z" fill="#ef501a"/>
<path d="M2060 3944 c-147 -55 -229 -125 -271 -232 -32 -80 -32 -213 -1 -294 32 -80 99 -151 180 -190 62 -31 74 -33 167 -33 93 0 105 2 165 32 155 76 234 224 210 395 -26 179 -176 315 -359 324 -42 2 -83 1 -91 -2z" fill="#ef501a"/>
<path d="M478 2928 c-4 -761 6 -1560 21 -1628 55 -241 146 -415 301 -569 104 -104 228 -183 393 -250 64 -26 179 -51 282 -61 72 -7 335 -10 755 -8 l645 3 0 215 0 215 -720 5 c-664 5 -724 6 -770 23 -272 99 -428 286 -464 560 -7 51 -11 426 -11 1053 l0 974 -214 0 -215 0 -3 -532z" fill="#ef501a"/>
<path d="M4162 3433 c-15 -22 -542 -930 -639 -1103 -11 -19 -34 -58 -50 -86 -33 -55 -79 -136 -99 -173 -9 -18 -10 -29 -3 -37 16 -19 304 -184 322 -184 9 0 73 101 160 253 80 138 153 261 160 271 14 19 17 19 81 -23 l66 -43 0 -1018 c0 -1097 -2 -1058 52 -1106 37 -34 63 -44 116 -44 61 0 107 29 136 85 21 40 21 44 21 1120 0 1259 14 1122 -125 1217 -47 32 -104 72 -128 89 l-44 30 33 57 c60 106 66 117 113 195 25 43 46 80 46 82 0 2 17 32 38 66 67 110 92 159 92 178 0 12 -20 29 -57 50 -32 17 -76 42 -98 55 -71 42 -167 96 -170 96 -2 0 -12 -12 -23 -27z" fill="#ef501a"/>
<path d="M1483 3205 c-181 -51 -299 -176 -333 -354 -5 -25 -9 -329 -11 -676 -2 -576 0 -636 16 -699 61 -237 261 -424 495 -461 25 -4 279 -8 565 -9 467 -1 523 -3 550 -18 17 -9 181 -168 365 -352 184 -185 337 -336 341 -336 15 0 270 283 267 295 -2 8 -217 229 -480 493 -366 368 -487 484 -525 502 -47 23 -51 23 -365 21 l-318 -2 0 360 c0 199 3 361 7 361 4 0 38 -22 77 -49 165 -113 375 -220 539 -275 134 -45 334 -86 421 -86 l46 0 0 209 c0 238 10 215 -95 226 -224 24 -444 104 -619 225 -101 70 -192 156 -369 349 -159 172 -226 227 -321 264 -67 25 -186 31 -253 12z" fill="#ef501a"/>
</g>
</svg>