<svg xmlns="http://www.w3.org/2000/svg" version="1.0" width="502.000000pt" height="437.000000pt" viewBox="0 0 502.000000 437.000000" preserveAspectRatio="xMidYMid meet">
<metadata fill="#ea8f2f">
Created by potrace 1.16, written by Peter Selinger 2001-2019
</metadata>
<g transform="translate(0.000000,437.000000) scale(0.100000,-0.100000)" fill="#ea8f2f" stroke="none">
<path d="M1911 4067 c-116 -48 -201 -142 -240 -266 -25 -79 -9 -228 34 -311 39 -75 140 -158 229 -189 51 -18 202 -19 246 -2 78 29 123 57 171 104 109 107 146 261 98 407 -46 140 -116 207 -292 279 -15 6 -60 11 -100 10 -57 -1 -88 -7 -146 -32z" fill="#ea8f2f"/>
<path d="M286 3564 c-10 -27 -6 -2101 4 -2204 11 -112 23 -168 57 -270 119 -363 429 -652 803 -748 160 -41 214 -43 980 -40 l735 3 3 219 c2 149 -1 223 -9 232 -9 11 -151 14 -777 16 l-767 3 -84 29 c-218 76 -367 230 -452 466 l-24 65 -2 1100 c-2 605 -5 1110 -8 1123 l-5 22 -224 0 c-195 0 -225 -2 -230 -16z" fill="#ea8f2f"/>
<path d="M4236 3548 c-12 -21 -57 -98 -114 -198 -26 -46 -90 -157 -112 -195 -10 -16 -34 -59 -55 -95 -21 -36 -45 -78 -55 -95 -15 -26 -32 -55 -110 -190 -45 -79 -300 -522 -353 -613 -32 -56 -56 -109 -53 -117 3 -8 27 -26 53 -40 26 -13 71 -38 98 -55 28 -17 68 -40 90 -51 22 -12 52 -30 67 -40 45 -32 50 -29 98 55 34 60 93 161 110 191 10 17 34 59 55 95 21 36 45 79 55 95 55 95 95 163 107 188 8 15 20 27 26 27 13 0 248 -158 259 -174 4 -6 8 -506 8 -1111 0 -1080 0 -1101 20 -1133 63 -102 228 -95 280 13 20 41 20 62 20 1196 l0 1155 -22 44 c-19 37 -46 59 -168 141 -182 123 -230 158 -230 167 0 4 70 128 155 276 86 148 154 274 152 280 -5 13 -338 206 -355 206 -6 0 -18 -10 -26 -22z" fill="#ea8f2f"/>
<path d="M1345 3298 c-130 -45 -241 -131 -290 -227 -61 -121 -57 -77 -65 -816 -8 -792 -7 -799 76 -965 83 -165 244 -290 434 -336 43 -10 181 -13 610 -14 365 0 569 -4 595 -11 34 -9 98 -68 410 -380 204 -203 376 -369 382 -369 6 0 31 22 55 49 24 27 88 97 142 155 l100 107 -435 437 c-239 241 -470 476 -515 523 -126 134 -186 153 -439 137 -82 -5 -213 -7 -290 -6 l-140 3 -3 388 c-1 213 0 387 3 387 3 0 63 -38 134 -84 308 -203 647 -330 939 -352 l92 -7 -2 229 -3 229 -65 7 c-267 29 -491 107 -684 238 -104 70 -244 199 -396 367 -190 209 -259 265 -382 308 -49 17 -215 19 -263 3z" fill="#ea8f2f"/>
</g>
</svg>