<svg xmlns="http://www.w3.org/2000/svg" version="1.0" width="551.000000pt" height="535.000000pt" viewBox="0 0 551.000000 535.000000" preserveAspectRatio="xMidYMid meet" transform="matrix(-1, 0, 0, 1, 0, 0)">
<metadata fill="#0600ff">
Created by potrace 1.16, written by Peter Selinger 2001-2019
</metadata>
<g transform="translate(0.000000,535.000000) scale(0.100000,-0.100000)" fill="#0600ff" stroke="none">
<path d="M3355 5199 c-81 -40 -119 -99 -117 -184 0 -22 12 -110 27 -195 14 -85 30 -182 35 -215 5 -33 16 -99 25 -148 14 -80 14 -90 -1 -112 l-16 -25 -1203 0 c-1215 0 -1301 -2 -1410 -37 -160 -51 -284 -163 -358 -323 -30 -64 -30 -69 -38 -285 -12 -342 -11 -3423 1 -3467 6 -20 24 -48 41 -62 l31 -26 500 0 500 0 39 39 39 39 0 1394 0 1394 26 53 c17 34 41 62 67 79 l41 27 873 3 c804 2 874 1 880 -14 3 -9 1 -53 -6 -98 -37 -243 -50 -319 -73 -429 -27 -129 -23 -228 11 -276 29 -40 111 -81 164 -81 21 0 54 7 75 15 31 14 455 328 797 592 88 68 219 167 860 646 192 143 235 185 235 225 0 17 -4 42 -9 55 -11 29 5 16 -521 409 -583 435 -928 694 -1142 856 -103 78 -204 148 -224 157 -49 20 -101 18 -149 -6z" fill="#0600ff"/>
</g>
</svg>