<svg xmlns="http://www.w3.org/2000/svg" version="1.0" width="483.000000pt" height="541.000000pt" viewBox="0 0 483.000000 541.000000" preserveAspectRatio="xMidYMid meet">
<metadata fill="#3732ff">
Created by potrace 1.16, written by Peter Selinger 2001-2019
</metadata>
<g transform="translate(0.000000,541.000000) scale(0.100000,-0.100000)" fill="#3732ff" stroke="none">
<path d="M2637 5315 c-127 -35 -220 -134 -276 -295 -15 -43 -24 -56 -43 -58 -98 -13 -181 -70 -226 -156 -23 -44 -27 -63 -27 -136 0 -93 11 -122 65 -177 17 -17 51 -41 75 -53 53 -26 58 -32 83 -98 11 -29 32 -69 47 -88 52 -68 158 -113 238 -100 84 14 82 15 85 -33 4 -56 -11 -91 -56 -133 l-37 -33 83 -3 c71 -2 91 1 137 22 62 28 106 85 114 148 l6 41 86 2 c73 1 93 6 139 31 32 17 66 46 83 70 26 37 35 43 80 48 99 14 170 62 225 156 23 39 27 56 27 125 -1 44 -6 90 -13 102 -10 19 -8 29 21 74 27 45 32 63 36 130 3 66 -1 86 -21 131 -51 109 -128 160 -253 166 -72 3 -85 1 -137 -26 l-57 -29 -43 45 c-60 62 -115 97 -186 121 -71 24 -180 27 -255 6z m286 -83 c47 -23 82 -51 119 -92 28 -33 58 -62 66 -65 8 -3 39 11 71 30 50 31 64 35 124 35 113 0 189 -56 223 -165 22 -68 11 -123 -38 -191 l-31 -43 17 -59 c9 -32 16 -76 16 -97 0 -110 -114 -215 -235 -215 -35 0 -44 -4 -56 -26 -21 -40 -93 -99 -137 -112 -22 -7 -73 -12 -115 -12 -67 0 -78 -3 -91 -22 -9 -12 -16 -39 -16 -59 0 -45 -38 -95 -87 -115 -18 -8 -34 -14 -35 -14 -2 0 -3 40 -3 90 0 78 -3 92 -22 111 -20 21 -24 21 -86 9 -127 -24 -222 27 -261 138 -29 82 -40 96 -101 128 -81 43 -117 89 -123 156 -5 68 10 123 48 175 34 46 102 83 154 83 47 0 69 24 95 104 44 134 108 205 226 252 17 7 69 12 120 11 80 -2 98 -6 158 -35z" fill="#3732ff"/>
<path d="M2797 5225 c-22 -21 -11 -49 30 -70 32 -18 73 -59 73 -74 0 -4 -21 -12 -46 -19 -54 -15 -125 -61 -152 -100 -81 -116 32 -264 159 -207 61 28 115 94 136 164 20 69 34 75 93 40 64 -40 100 -96 103 -162 l2 -42 -66 4 c-80 3 -139 -22 -169 -72 -53 -86 7 -200 111 -214 54 -8 58 -20 9 -33 -90 -24 -194 24 -267 123 -27 37 -41 47 -63 47 -39 0 -45 -25 -16 -74 81 -138 259 -218 383 -173 55 21 121 74 143 116 18 36 20 59 20 199 0 157 0 159 -31 220 -17 34 -49 77 -71 96 -45 39 -117 76 -147 76 -11 0 -28 12 -38 26 -38 55 -95 113 -127 128 -42 20 -51 20 -69 1z m127 -243 c10 -17 -14 -77 -45 -114 -25 -32 -37 -38 -68 -38 -31 0 -40 5 -49 26 -8 16 -9 31 -3 42 30 55 146 114 165 84z m237 -321 l24 -19 -30 -44 c-39 -55 -81 -63 -114 -22 -27 34 -27 49 4 79 30 31 83 33 116 6z" fill="#3732ff"/>
<path d="M2275 4796 c-22 -22 -55 -109 -55 -146 0 -36 32 -121 57 -150 14 -17 47 -42 73 -55 26 -13 66 -47 90 -75 23 -28 59 -59 79 -69 74 -37 161 -33 161 8 0 25 -15 34 -75 49 -27 7 -61 24 -74 36 l-23 24 56 36 c87 56 114 113 81 176 -22 43 -63 70 -104 70 -65 0 -141 -84 -141 -156 0 -34 -23 -30 -59 11 -27 31 -31 43 -31 91 0 38 6 64 19 82 25 37 30 54 19 75 -12 24 -45 21 -73 -7z" fill="#3732ff"/>
<path d="M2100 3934 c-82 -30 -126 -54 -168 -89 -98 -84 -137 -179 -130 -319 3 -74 9 -101 32 -148 119 -240 439 -290 625 -99 104 107 137 249 90 391 -37 114 -102 183 -224 240 -49 23 -188 38 -225 24z" fill="#3732ff"/>
<path d="M492 3433 c-4 -10 -7 -481 -7 -1048 1 -1059 2 -1088 40 -1240 21 -82 71 -203 116 -279 163 -275 433 -461 764 -527 56 -11 217 -14 805 -14 l735 0 3 209 c2 145 -1 213 -9 222 -10 12 -131 14 -723 14 -745 1 -755 1 -866 45 -66 27 -169 95 -219 146 -93 95 -134 168 -184 329 -8 24 -13 377 -17 1095 l-5 1060 -213 3 c-195 2 -213 1 -220 -15z" fill="#3732ff"/>
<path d="M4263 3428 c-8 -10 -165 -280 -261 -448 -11 -19 -58 -102 -106 -183 -47 -82 -97 -167 -110 -190 -13 -23 -50 -87 -81 -142 -32 -55 -69 -120 -83 -145 -14 -25 -42 -74 -64 -109 -21 -34 -38 -64 -38 -66 0 -2 -20 -37 -44 -78 -24 -41 -41 -78 -37 -83 6 -9 109 -74 116 -74 2 0 46 -25 96 -55 51 -31 102 -58 114 -61 20 -5 39 23 186 280 90 157 168 285 173 286 5 0 40 -21 78 -47 l68 -47 0 -1045 c0 -976 1 -1048 18 -1081 53 -107 211 -107 264 0 16 32 17 120 18 1131 0 1183 2 1137 -52 1185 -12 12 -71 54 -130 93 -60 40 -108 77 -108 82 0 6 26 56 59 112 32 56 68 118 78 137 11 19 34 58 50 86 17 27 41 70 55 95 14 24 42 73 62 107 20 35 36 67 36 71 0 4 -23 21 -52 37 -85 48 -119 67 -195 112 -90 53 -98 56 -110 40z" fill="#3732ff"/>
<path d="M1520 3183 c-14 -3 -58 -20 -98 -38 -116 -54 -188 -137 -243 -285 -10 -27 -15 -176 -19 -650 -5 -630 -2 -742 24 -829 60 -203 211 -356 424 -428 40 -14 129 -17 622 -22 571 -6 575 -6 605 -28 17 -12 181 -173 365 -357 184 -185 340 -336 345 -336 11 0 108 98 219 219 l67 75 -413 415 c-227 229 -447 453 -489 498 -125 133 -104 128 -499 128 l-335 0 -3 368 c-1 230 1 367 7 367 6 0 61 -33 123 -74 126 -81 284 -166 398 -214 68 -27 101 -39 205 -71 70 -22 306 -61 367 -61 17 0 18 16 18 219 l0 218 -67 7 c-230 23 -445 94 -618 204 -139 89 -216 161 -480 446 -108 117 -194 184 -275 215 -36 13 -207 23 -250 14z" fill="#3732ff"/>
</g>
</svg>