<svg xmlns="http://www.w3.org/2000/svg" version="1.0" width="310.000000pt" height="293.000000pt" viewBox="0 0 310.000000 293.000000" preserveAspectRatio="xMidYMid meet">
<metadata fill="#00a013">
Created by potrace 1.16, written by Peter Selinger 2001-2019
</metadata>
<g transform="translate(0.000000,293.000000) scale(0.100000,-0.100000)" fill="#00a013" stroke="none">
<path d="M318 2755 c-55 -20 -83 -42 -114 -88 l-29 -42 0 -1150 c0 -1058 1 -1153 17 -1185 20 -41 49 -70 98 -96 33 -18 69 -19 523 -22 l487 -3 0 430 0 429 -52 12 c-175 41 -264 178 -269 413 -4 172 26 280 96 350 47 47 82 66 160 87 l60 16 3 432 2 432 -472 -1 c-370 0 -481 -3 -510 -14z" fill="#00a013"/>
<path d="M1875 1849 c-22 -19 -85 -77 -140 -129 -55 -53 -135 -129 -177 -170 -43 -40 -78 -79 -78 -85 0 -6 71 -79 158 -161 251 -239 272 -257 279 -251 3 4 11 67 17 140 l11 132 348 -4 c372 -4 481 5 548 42 84 45 77 162 -13 217 -32 19 -52 20 -460 20 l-426 0 -7 117 c-4 64 -11 127 -14 141 l-7 25 -39 -34z" fill="#00a013"/>
</g>
</svg>