<svg xmlns="http://www.w3.org/2000/svg" version="1.0" width="427.000000pt" height="437.000000pt" viewBox="0 0 427.000000 437.000000" preserveAspectRatio="xMidYMid meet">
<metadata fill="#d8582d">
Created by potrace 1.16, written by Peter Selinger 2001-2019
</metadata>
<g transform="translate(0.000000,437.000000) scale(0.100000,-0.100000)" fill="#d8582d" stroke="none">
<path d="M1890 4197 c-30 -12 -69 -30 -86 -39 -37 -20 -101 -89 -116 -126 -6 -15 -14 -90 -18 -167 -8 -152 -20 -192 -67 -236 -49 -47 -92 -63 -168 -63 -83 -1 -112 12 -194 88 -202 185 -368 172 -577 -47 -137 -143 -185 -223 -192 -317 -6 -93 18 -140 132 -259 120 -126 135 -169 95 -276 -46 -123 -101 -155 -279 -165 -190 -11 -253 -51 -326 -207 l-34 -72 0 -164 0 -165 36 -85 c37 -89 92 -154 152 -179 15 -7 90 -15 167 -18 119 -4 147 -8 187 -28 95 -47 146 -193 103 -295 -8 -20 -45 -69 -81 -109 -128 -143 -156 -262 -93 -396 40 -83 142 -186 265 -268 220 -147 275 -144 444 21 117 114 171 138 259 114 78 -21 139 -68 172 -131 15 -30 19 -59 19 -142 0 -58 5 -118 11 -133 32 -79 43 -95 93 -140 30 -28 76 -61 103 -74 46 -23 58 -24 238 -24 l190 0 75 36 c145 70 171 116 181 319 8 163 17 190 80 243 45 39 97 57 161 57 64 0 108 -21 183 -90 98 -88 163 -122 245 -128 140 -10 251 62 420 268 104 128 135 240 91 337 -11 23 -60 85 -109 137 -127 135 -146 199 -90 311 26 52 64 92 110 116 29 15 58 19 133 19 199 0 278 48 354 213 31 67 31 70 31 229 0 140 -3 170 -22 222 -27 78 -55 122 -106 168 -53 48 -101 61 -247 64 -66 1 -133 8 -150 14 -101 38 -164 198 -120 303 8 20 45 69 81 109 154 172 166 321 36 484 -53 67 -185 172 -294 235 -76 44 -95 50 -142 50 -73 0 -104 -18 -211 -121 -49 -48 -106 -95 -125 -105 -111 -58 -292 29 -323 155 -3 14 -11 76 -17 138 -15 159 -50 223 -148 273 -15 8 -48 26 -73 41 -46 28 -48 28 -215 27 -150 0 -175 -3 -224 -22z m748 -1580 l223 -224 -3 -262 -3 -261 -220 -220 -221 -220 -264 0 -264 0 -218 218 -218 217 0 270 0 270 218 217 218 218 265 0 265 0 222 -223z" fill="#d8582d"/>
<path d="M2082 2578 c-9 -9 -12 -94 -12 -320 0 -348 -5 -328 84 -328 82 0 76 -26 76 330 0 281 -2 319 -16 324 -28 11 -120 6 -132 -6z" fill="#d8582d"/>
<path d="M2080 1831 c-5 -11 -10 -41 -10 -66 0 -75 10 -85 84 -85 74 0 76 2 76 95 0 72 -3 75 -85 75 -43 0 -56 -4 -65 -19z" fill="#d8582d"/>
</g>
</svg>