<svg xmlns="http://www.w3.org/2000/svg" version="1.0" width="482.000000pt" height="262.000000pt" viewBox="0 0 482.000000 262.000000" preserveAspectRatio="xMidYMid meet">
<metadata fill="#eea85d">
Created by potrace 1.16, written by Peter Selinger 2001-2019
</metadata>
<g transform="translate(0.000000,262.000000) scale(0.100000,-0.100000)" fill="#eea85d" stroke="none">
<path d="M1305 2307 c-23 -17 -65 -56 -95 -84 -30 -29 -61 -53 -68 -53 -7 0 -45 9 -84 20 -102 28 -265 28 -362 -1 -210 -62 -362 -202 -427 -394 -9 -26 -14 -86 -14 -175 1 -159 16 -213 91 -323 76 -111 213 -203 364 -244 88 -23 252 -23 343 1 125 33 191 72 423 252 28 21 68 53 90 69 21 17 102 80 180 140 78 61 183 142 234 180 51 39 107 82 124 96 58 49 153 109 197 124 179 64 397 -13 471 -164 33 -69 31 -197 -5 -267 -54 -106 -183 -174 -332 -174 -79 0 -140 19 -239 74 -76 42 -119 46 -167 13 -35 -23 -68 -77 -69 -111 -1 -48 39 -101 107 -142 140 -85 219 -109 368 -108 153 0 253 30 392 117 103 63 176 157 219 277 22 61 30 243 15 321 -37 188 -164 332 -358 406 -134 52 -150 55 -272 54 -206 -1 -290 -41 -603 -283 -59 -46 -142 -110 -185 -143 -43 -33 -139 -107 -213 -165 -74 -58 -153 -118 -174 -135 -22 -16 -61 -47 -87 -67 -135 -104 -278 -134 -420 -87 -150 49 -222 145 -221 297 0 126 53 209 169 267 48 23 177 49 196 38 4 -2 -3 -18 -15 -35 -29 -42 -31 -116 -2 -155 43 -58 66 -63 314 -63 248 0 271 5 314 63 20 27 21 41 21 270 0 221 -2 244 -19 270 -45 66 -136 77 -201 24z" fill="#eea85d"/>
<path d="M3700 1803 c-46 -7 -164 -35 -179 -43 -9 -5 -41 -19 -71 -33 -81 -36 -214 -140 -277 -216 -67 -82 -137 -220 -163 -326 -23 -92 -27 -285 -8 -362 62 -259 212 -457 428 -566 140 -71 218 -89 376 -89 138 0 207 12 314 57 228 95 398 279 476 517 25 76 28 97 28 238 1 177 -11 233 -76 365 -103 208 -264 349 -483 423 -102 35 -265 51 -365 35z m-23 -605 l132 -132 132 132 c122 122 134 132 169 132 55 0 91 -51 71 -101 -5 -13 -64 -79 -130 -147 -67 -67 -121 -126 -121 -129 0 -4 57 -65 127 -135 116 -117 127 -130 127 -164 0 -44 -31 -74 -78 -74 -27 0 -50 18 -159 125 -70 69 -133 125 -139 125 -7 0 -69 -56 -138 -125 -112 -110 -131 -125 -160 -125 -61 0 -98 58 -70 111 6 11 65 73 131 139 134 133 132 127 62 191 -104 94 -203 208 -203 231 0 42 36 78 78 78 34 0 48 -11 169 -132z" fill="#eea85d"/>
</g>
</svg>