<svg xmlns="http://www.w3.org/2000/svg" version="1.0" width="532.000000pt" height="388.000000pt" viewBox="0 0 532.000000 388.000000" preserveAspectRatio="xMidYMid meet">
<metadata fill="#003a07">
Created by potrace 1.16, written by Peter Selinger 2001-2019
</metadata>
<g transform="translate(0.000000,388.000000) scale(0.100000,-0.100000)" fill="#003a07" stroke="none">
<path d="M2545 3674 c-98 -14 -229 -73 -314 -141 -25 -21 -107 -96 -181 -168 -367 -355 -591 -526 -980 -748 -143 -81 -418 -210 -634 -298 -237 -96 -239 -100 -150 -297 13 -29 24 -54 24 -57 0 -2 13 -32 29 -67 38 -82 57 -126 129 -288 l59 -135 5 -270 c5 -256 6 -272 28 -315 107 -213 374 -425 720 -573 413 -176 1000 -269 1497 -238 194 12 384 32 493 51 583 105 1050 335 1286 633 106 135 105 131 108 411 3 305 13 346 158 641 109 223 148 318 148 359 0 22 -8 40 -27 58 -26 23 -47 35 -138 73 -333 140 -584 272 -855 452 -268 176 -405 286 -710 563 -64 58 -138 123 -165 145 -28 22 -52 43 -55 46 -9 10 -124 86 -155 102 -88 44 -236 73 -320 61z m152 -628 c87 -80 144 -106 282 -131 46 -8 87 -15 92 -15 17 0 67 -51 73 -75 4 -17 -4 -46 -26 -92 -47 -98 -51 -200 -12 -321 38 -122 39 -242 1 -322 -15 -31 -48 -77 -74 -104 -45 -44 -77 -63 -227 -131 -33 -14 -81 -46 -108 -70 -73 -66 -111 -66 -180 -2 -24 23 -55 47 -69 54 -13 6 -67 31 -119 56 -52 24 -114 61 -138 82 -51 45 -96 128 -113 213 -13 60 -12 68 24 210 20 82 37 165 37 184 0 20 -16 73 -35 118 -43 100 -44 132 -7 169 22 22 45 30 132 45 134 24 191 49 274 125 90 81 112 82 193 7z" fill="#003a07"/>
</g>
</svg>