<svg xmlns="http://www.w3.org/2000/svg" fill="#264E86" xml:space="preserve" width="4.9458mm" height="4.6572mm" version="1.1" style="shape-rendering:geometricPrecision; text-rendering:geometricPrecision; image-rendering:optimizeQuality; fill-rule:evenodd; clip-rule:evenodd"
viewBox="0 0 17 16"
 xmlns:xlink="http://www.w3.org/1999/xlink">
 <g id="Capa_x0020_1">
  <metadata id="CorelCorpID_0Corel-Layer"/>
  <path class="fil0" d="M6 7c0,0 0,0 1,0l0 0c0,0 0,0 0,0 0,0 0,0 0,0l0 0c0,0 0,0 0,0 0,0 0,0 0,0l1 -1c0,0 0,0 0,0 0,0 0,0 0,0l0 0c0,0 0,0 0,0 0,0 0,0 0,0 0,0 0,0 0,0 0,1 0,0 0,1l0 0c0,0 0,0 0,0l0 0c0,0 0,0 0,0l1 0c0,0 0,0 0,0 0,0 0,0 0,0 0,0 0,0 0,0 0,0 0,0 0,0l0 0c0,0 0,0 0,0l0 0c0,0 0,0 0,0l1 0c0,0 0,0 0,0l0 0c0,0 0,0 0,0l0 -1c0,0 0,0 0,0 0,0 0,0 0,0 0,-1 0,-1 0,-1l-1 0c0,0 0,0 0,0l0 -1c0,0 0,0 0,0l-1 0c0,0 0,0 0,0l0 0c0,0 0,0 0,0 0,0 0,0 -1,0 0,0 0,0 0,0 0,0 0,0 0,0l-1 0c-1,0 -1,0 -1,0 -1,1 -2,2 -3,3 0,0 -1,1 0,1 0,0 0,0 0,0 0,0 0,0 0,0 0,0 0,0 0,0l0 0c0,0 0,0 0,0l0 0c0,0 0,0 0,0 0,0 0,0 0,0l0 1c0,0 0,0 0,0l0 0c0,0 0,0 0,0l0 0c0,0 0,0 0,0 0,0 0,0 0,0l1 0c0,0 0,0 0,0l0 0c0,0 0,0 0,0l0 1c0,0 0,0 0,0 0,0 0,0 0,0l0 0c0,0 0,0 0,0l0 0c0,0 0,0 0,0l0 0c0,0 1,0 1,0l0 0c0,0 0,0 0,0l1 -1c0,0 0,0 0,0 0,0 0,0 0,0l0 0c0,0 0,0 0,-1l0 0c0,0 0,0 0,0 0,0 0,0 0,0l1 0c0,0 0,0 0,0 0,0 0,0 0,0l0 0c0,0 0,0 0,0l0 -1c0,0 0,0 0,0zm11 -3l0 -1c0,0 0,0 0,0l0 0c0,0 -1,0 -1,0 0,0 0,-1 0,-1 0,0 0,0 0,0 0,0 0,0 0,0l0 1c0,0 0,0 0,0l-1 0c0,0 0,0 0,0l0 1c0,0 0,0 0,0 0,0 0,0 0,0l-1 0c0,0 0,0 0,0l0 0c0,0 0,0 0,0l0 0c0,0 0,0 0,0l-1 -1c0,0 0,0 0,0l0 0c0,0 0,0 0,0 0,0 0,-1 0,-1 0,0 0,0 0,0 0,0 0,0 0,0l1 -1c0,0 0,0 0,0 0,-1 0,-1 0,-1l0 0c0,0 0,0 0,0 0,0 -1,0 -1,0l0 0c0,0 0,0 0,0 0,0 0,0 -1,0 0,0 0,0 0,0l0 1c0,0 0,0 0,0l0 0c0,0 0,0 -1,0l0 0c0,0 0,0 0,0 0,0 0,0 0,0l0 1c0,0 0,0 0,0l0 0c0,0 0,0 0,0 0,1 0,1 0,1 0,0 0,0 0,0 0,0 0,0 0,0 0,1 0,1 0,1 0,0 0,0 0,0 -1,0 -1,1 -1,1l0 1c0,0 0,0 0,0 0,0 0,0 0,0l0 0c0,0 0,0 0,0 0,0 0,0 0,0 0,0 0,1 0,1l0 0c0,0 0,0 0,0l0 0c0,0 0,0 0,0 0,0 0,0 0,0 0,0 0,0 1,0l0 1c0,0 0,0 0,0l0 0c0,0 0,0 0,0 0,0 0,0 0,0 0,0 0,0 0,0 0,0 0,0 0,0 0,0 0,0 0,0l1 -1c0,0 0,0 0,0 0,0 0,0 0,0l0 -1c1,0 1,0 1,0l1 0c0,0 0,0 0,0l1 0c0,0 0,0 0,0 0,0 0,0 0,0 0,0 0,0 0,0 0,0 0,0 0,0l1 -1c0,0 0,0 0,0l0 0c0,0 0,0 0,-1 0,0 0,0 0,0l0 0c0,0 0,0 0,0l0 0c0,0 1,0 1,0 0,0 0,0 0,0 0,0 0,0 0,0 0,0 0,0 0,0zm-7 9c0,-1 0,-1 0,-1 0,0 0,0 0,0l0 0c0,0 0,0 0,0 0,0 0,0 0,0 0,0 0,0 0,0 0,0 0,0 0,0 0,0 0,0 0,0l0 0c0,0 1,0 1,0 0,0 0,0 0,0l0 -1c0,0 0,0 0,0l0 0c0,0 0,0 0,0 0,0 0,0 0,0 0,0 0,0 0,0l0 0c0,0 0,0 0,0 0,0 0,0 0,0 0,0 1,0 1,0 0,0 0,0 0,0l0 -1c0,0 0,0 0,0l0 0c0,0 0,0 0,-1 0,0 -2,-1 -2,-1 0,0 0,0 0,0l0 0c0,0 0,0 0,0l-1 0c0,0 0,0 0,0 0,0 0,0 0,0l0 0c0,0 0,0 0,0l0 1c0,0 0,0 0,0 0,0 0,0 0,0 -1,0 -1,0 -1,0 0,0 0,0 0,0l0 0c0,0 0,0 0,0l0 0c0,0 0,0 0,0 0,0 0,1 0,1 0,0 0,0 0,0 0,0 0,0 0,0l-1 0c0,0 0,0 0,0 0,0 0,0 0,0 0,0 0,0 0,0 -1,0 -1,0 -1,1 0,0 1,0 1,0l0 0c0,0 0,0 0,0 0,0 0,0 0,0 0,0 -1,0 -1,0l0 0 0 0c0,0 0,0 0,0l-1 0c0,0 0,0 0,0l0 0c0,0 0,1 0,1 0,0 0,0 0,0l0 0c0,0 0,0 0,0 0,0 0,0 0,0 0,0 1,0 1,0l0 0c0,0 0,0 0,0l0 0c0,0 0,0 0,1l0 0c0,0 0,0 0,0l1 0c0,0 0,0 0,0 0,0 0,0 0,0l0 0c0,0 0,0 0,0l0 1c0,0 0,0 0,0l0 0c0,0 0,0 0,0l1 0c0,0 0,0 0,0 0,0 0,0 0,0l0 0c1,0 1,0 1,0l0 0c0,0 0,0 0,0 0,0 0,0 0,0 0,0 0,0 0,0l0 0c0,0 0,0 0,0 0,0 0,0 0,0l0 0c0,0 0,0 0,0 0,0 0,0 0,0l0 0c0,-1 0,-1 0,-1l0 0c0,0 0,0 0,0 0,0 0,0 0,0l1 0c0,0 0,0 0,0l0 0c0,0 0,0 0,0l0 0c0,0 0,0 0,0 0,0 0,0 0,0zm-8 0c0,0 0,0 0,0 0,0 1,0 1,0 0,1 0,1 0,1 0,0 0,0 0,0 0,0 0,1 0,1l0 0c0,0 0,0 0,0 0,0 0,0 -1,0l0 0c0,0 0,0 0,-1 0,0 0,0 0,0 0,0 0,0 0,0 0,0 0,0 0,0 0,0 0,0 0,0l0 0c0,0 0,0 0,0 0,0 0,0 0,0l0 -1zm6 -5c0,0 0,0 0,-1l0 0c0,0 0,0 0,0 0,0 0,0 0,0 0,0 0,0 0,0 0,0 -1,0 -1,0 0,0 0,0 0,0l0 1c0,0 -1,0 -1,0l0 0c0,0 0,0 0,0l0 0c0,0 0,0 0,0l-1 1c0,0 0,0 0,0 0,0 0,0 0,0l0 1c0,0 0,0 0,0l-1 0c0,0 0,0 0,0 0,0 0,0 0,0 0,0 0,0 0,0l0 0c0,0 0,0 0,1 0,0 0,0 0,0 0,0 -3,2 -3,2l0 1c0,0 0,0 0,0l0 0c0,0 0,0 0,0l0 1c0,0 0,0 0,0 0,0 0,0 0,0l0 0c0,0 0,0 1,0 0,0 0,0 0,1 0,0 0,0 0,0 0,0 0,0 0,0l0 0c0,0 0,0 0,0 0,0 0,0 1,0 0,0 0,0 0,0l0 0c0,0 0,0 0,0l0 -1c0,0 0,0 0,0l2 -2c0,0 0,0 0,0l1 0c0,0 0,0 0,0 0,0 -1,0 -1,0 0,0 0,0 0,0l0 0c0,-1 0,-1 0,-1l0 0c0,0 0,0 0,0 0,0 0,0 0,0 0,0 0,0 0,0l0 -1 0 0c0,0 0,0 0,0l0 -1c0,0 0,0 0,0 1,0 1,0 1,0l0 0c0,0 0,0 0,0l0 0c0,0 0,0 0,0l0 0c0,0 0,0 0,0l0 0c0,-1 0,-1 1,-1l0 0c0,0 0,0 0,0l0 0c0,0 0,0 0,0 0,0 0,0 0,0l0 0c0,-1 0,-1 1,-1 0,0 0,0 0,0l0 0c0,0 0,0 0,0 0,0 0,0 0,0l0 0zm-6 -5c0,0 0,0 0,0l0 0c0,0 0,0 0,0l0 0c0,0 0,0 0,0l-1 1c0,0 0,0 0,0 0,0 0,0 0,0l0 0c0,0 0,0 0,0 0,0 0,0 0,0 0,0 0,0 0,0 0,0 0,0 0,0 0,0 0,0 0,0l0 0c0,0 0,0 0,0l0 0c0,0 0,0 0,0 0,0 0,0 0,0 0,0 0,0 0,0l-1 1c0,0 0,0 0,0 0,0 0,0 0,1 0,0 0,0 0,0l0 0c0,0 0,0 1,0 0,0 0,0 0,0 0,0 0,0 0,0 0,1 0,1 0,1l1 -1 1 0c0,0 0,0 0,0l0 -1c0,0 0,0 0,0l1 -1c0,0 0,0 0,0l0 0c0,0 0,0 0,0 0,0 0,0 0,0 0,0 0,0 0,0 0,0 0,0 0,0 0,0 0,0 0,0 0,-1 0,-1 0,-1l0 0c0,0 0,0 0,0 0,0 0,0 0,0 -1,0 -1,0 -1,0l0 0c0,0 0,0 -1,0 0,0 0,0 0,0 0,0 0,0 0,0z"/>
 </g>
</svg>
