<svg xmlns="http://www.w3.org/2000/svg" version="1.0" width="528.000000pt" height="502.000000pt" viewBox="0 0 528.000000 502.000000" preserveAspectRatio="xMidYMid meet">
<metadata fill="#008710">
Created by potrace 1.16, written by Peter Selinger 2001-2019
</metadata>
<g transform="translate(0.000000,502.000000) scale(0.100000,-0.100000)" fill="#008710" stroke="none">
<path d="M3062 4083 l3 -788 25 -7 c14 -4 52 -12 85 -19 174 -35 332 -154 405 -304 59 -119 70 -192 70 -454 0 -222 -8 -314 -37 -401 -18 -58 -75 -161 -116 -212 -69 -86 -211 -163 -347 -188 -36 -7 -71 -14 -77 -16 -10 -3 -13 -169 -13 -789 l0 -785 879 0 c601 0 889 3 912 11 157 50 248 153 278 314 16 85 15 4034 0 4107 -28 131 -98 222 -214 279 l-70 34 -892 3 -893 3 2 -788z" fill="#008710"/>
<path d="M859 3183 c-79 -74 -192 -180 -333 -313 -200 -189 -386 -374 -386 -385 0 -15 267 -275 575 -561 211 -195 224 -207 238 -201 8 3 17 27 21 54 6 38 24 345 26 436 0 16 42 17 745 17 512 0 761 3 797 11 138 29 212 114 211 239 -1 108 -48 181 -149 230 l-49 25 -771 -4 c-501 -2 -774 0 -778 7 -3 5 -11 101 -17 213 -13 252 -19 293 -41 297 -10 2 -47 -25 -89 -65z" fill="#008710"/>
</g>
</svg>