<svg id="Capa_1" data-name="Capa 1" data-type="tracker.svg" xmlns="http://www.w3.org/2000/svg" xmlns:xlink="http://www.w3.org/1999/xlink" viewBox="0 0 144.56 98.89"><defs><style>.cls-1{fill:#5b5c55;}.cls-2{fill:#737373;}.cls-3{fill:#a4a6a8;}.cls-4{fill:url(#_ÂÁ_Ï_ÌÌ_È_ËÂÌÚ_21);}.cls-5{fill:url(#_ÂÁ_Ï_ÌÌ_È_ËÂÌÚ_21-2);}.cls-6{fill:url(#_ÂÁ_Ï_ÌÌ_È_ËÂÌÚ_21-3);}.cls-7{fill:url(#_ÂÁ_Ï_ÌÌ_È_ËÂÌÚ_21-4);}.cls-8{fill:url(#_ÂÁ_Ï_ÌÌ_È_ËÂÌÚ_20);}.cls-9{fill:url(#_ÂÁ_Ï_ÌÌ_È_ËÂÌÚ_20-2);}.cls-10{fill:gray;}.cls-11{fill:url(#_ÂÁ_Ï_ÌÌ_È_ËÂÌÚ_21-5);}.cls-12{fill:#8c9093;}.cls-13{fill:#b2b2b2;}.cls-14{fill:#3e4246;}.cls-15{fill:#545454;}.cls-16{fill:#505050;}.cls-17{fill:#464952;}.cls-18{fill:url(#_ÂÁ_Ï_ÌÌ_È_ËÂÌÚ_40);}.cls-19{fill:url(#_ÂÁ_Ï_ÌÌ_È_ËÂÌÚ_5);}.body{fill:#9370DB;}.cls-21{fill:#c8d2d2;}.cls-22{fill:#d0d9d9;}.cls-23{fill:url(#_ÂÁ_Ï_ÌÌ_È_ËÂÌÚ_25);}.cls-24{fill:url(#_ÂÁ_Ï_ÌÌ_È_ËÂÌÚ_25-2);}.cls-25{fill:url(#_ÂÁ_Ï_ÌÌ_È_ËÂÌÚ_21-6);}.cls-26{fill:#87e5ff;}.cls-27{fill:url(#_ÂÁ_Ï_ÌÌ_È_ËÂÌÚ_20-3);}.cls-28{fill:url(#_ÂÁ_Ï_ÌÌ_È_ËÂÌÚ_20-4);}.cls-29{fill:#c0ccdc;}.cls-30{fill:url(#_ÂÁ_Ï_ÌÌ_È_ËÂÌÚ_21-7);}.cls-31{fill:url(#_ÂÁ_Ï_ÌÌ_È_ËÂÌÚ_21-8);}.cls-32{fill:url(#_ÂÁ_Ï_ÌÌ_È_ËÂÌÚ_21-9);}.cls-33{fill:url(#_ÂÁ_Ï_ÌÌ_È_ËÂÌÚ_21-10);}.cls-34{fill:#868686;}.cls-35{fill:#858585;}.cls-36{fill:#818788;}.cls-37{fill:url(#_ÂÁ_Ï_ÌÌ_È_ËÂÌÚ_21-11);}.cls-38{fill:#bcbfc2;}.cls-39{fill:url(#_ÂÁ_Ï_ÌÌ_È_ËÂÌÚ_21-12);}.cls-40{fill:#e2e3e4;}.cls-41{fill:#e2e7ea;}.cls-42{fill:#dde0e4;}.cls-43{fill:#d4813c;}.cls-44{fill:#dfbb59;}.cls-45{fill:#8093a1;}.cls-46{fill:#c0caca;}.cls-47{fill:#a0a7a8;}.cls-48{fill:#9dacb7;}.cls-49{fill:#bb4f44;}.cls-50{fill:#e4efef;}.cls-51{fill:#d6d7d9;}.cls-52{fill:#d8d9db;}.cls-53{fill:#f9ffff;}.cls-55{fill:#c0caca;}</style><linearGradient id="_ÂÁ_Ï_ÌÌ_È_ËÂÌÚ_21" x1="38.14" y1="-16479.75" x2="42.13" y2="-16479.75" gradientTransform="matrix(1, 0, 0, -1, 0, -16425.26)" gradientUnits="userSpaceOnUse"><stop offset="0.16" stop-color="#a5a7a9"/><stop offset="0.16" stop-color="#bdc0c3"/><stop offset="0.56" stop-color="#bdc0c3"/><stop offset="0.56" stop-color="#dee1e5"/><stop offset="0.87" stop-color="#dee1e5"/><stop offset="0.87" stop-color="#d8dce0"/></linearGradient><linearGradient id="_ÂÁ_Ï_ÌÌ_È_ËÂÌÚ_21-2" x1="38.14" y1="55.78" x2="42.13" y2="55.78" gradientTransform="matrix(1, 0, 0, 1, 0, 0)" xlink:href="#_ÂÁ_Ï_ÌÌ_È_ËÂÌÚ_21"/><linearGradient id="_ÂÁ_Ï_ÌÌ_È_ËÂÌÚ_21-3" x1="20.16" y1="79.95" x2="25.19" y2="79.95" gradientTransform="matrix(1, 0, 0, 1, 0, 0)" xlink:href="#_ÂÁ_Ï_ÌÌ_È_ËÂÌÚ_21"/><linearGradient id="_ÂÁ_Ï_ÌÌ_È_ËÂÌÚ_21-4" x1="21.22" y1="79.77" x2="25.19" y2="79.77" gradientTransform="matrix(1, 0, 0, 1, 0, 0)" xlink:href="#_ÂÁ_Ï_ÌÌ_È_ËÂÌÚ_21"/><linearGradient id="_ÂÁ_Ï_ÌÌ_È_ËÂÌÚ_20" x1="3.47" y1="-16530.1" x2="5.68" y2="-16533.95" gradientTransform="matrix(1, 0, 0, -1, 0, -16425.26)" gradientUnits="userSpaceOnUse"><stop offset="0.13" stop-color="#d8dce0"/><stop offset="0.13" stop-color="#dee1e5"/><stop offset="0.44" stop-color="#dee1e5"/><stop offset="0.44" stop-color="#bdc0c3"/><stop offset="0.84" stop-color="#bdc0c3"/><stop offset="0.84" stop-color="#a5a7a9"/></linearGradient><linearGradient id="_ÂÁ_Ï_ÌÌ_È_ËÂÌÚ_20-2" x1="4.78" y1="106.34" x2="6.07" y2="104.09" gradientTransform="matrix(1, 0, 0, 1, 0, 0)" xlink:href="#_ÂÁ_Ï_ÌÌ_È_ËÂÌÚ_20"/><linearGradient id="_ÂÁ_Ï_ÌÌ_È_ËÂÌÚ_21-5" x1="96.95" y1="70.66" x2="85.64" y2="90.24" gradientTransform="matrix(1, 0, 0, 1, 0, 0)" xlink:href="#_ÂÁ_Ï_ÌÌ_È_ËÂÌÚ_21"/><linearGradient id="_ÂÁ_Ï_ÌÌ_È_ËÂÌÚ_40" x1="51.4" y1="-16540.94" x2="43.98" y2="-16553.8" gradientTransform="matrix(1, 0, 0, -1, 0, -16425.26)" gradientUnits="userSpaceOnUse"><stop offset="0.13" stop-color="#dadee1"/><stop offset="0.13" stop-color="#e0e3e6"/><stop offset="0.44" stop-color="#e0e3e6"/><stop offset="0.44" stop-color="#bfc2c4"/><stop offset="0.84" stop-color="#bfc2c4"/><stop offset="0.84" stop-color="#a6a8aa"/></linearGradient><linearGradient id="_ÂÁ_Ï_ÌÌ_È_ËÂÌÚ_5" x1="51.32" y1="-16543.93" x2="46.68" y2="-16551.97" gradientTransform="matrix(1, 0, 0, -1, 0, -16425.26)" gradientUnits="userSpaceOnUse"><stop offset="0.13" stop-color="#abadb0"/><stop offset="0.13" stop-color="#b0b3b5"/><stop offset="0.44" stop-color="#b0b3b5"/><stop offset="0.44" stop-color="#909294"/><stop offset="0.84" stop-color="#909294"/><stop offset="0.84" stop-color="#797a7c"/></linearGradient><linearGradient id="_ÂÁ_Ï_ÌÌ_È_ËÂÌÚ_25" x1="50.03" y1="-16530.72" x2="50.03" y2="-16530.72" gradientTransform="matrix(1, 0, 0, -1, 0.71, -16462.71)" gradientUnits="userSpaceOnUse"><stop offset="0.16" stop-color="#bbbec0"/><stop offset="0.16" stop-color="#d2d5d9"/><stop offset="0.56" stop-color="#d2d5d9"/><stop offset="0.56" stop-color="#f3f7fc"/><stop offset="0.87" stop-color="#f3f7fc"/><stop offset="0.87" stop-color="#eef2f7"/></linearGradient><linearGradient id="_ÂÁ_Ï_ÌÌ_È_ËÂÌÚ_25-2" x1="50.03" y1="-16525.63" x2="50.03" y2="-16525.63" xlink:href="#_ÂÁ_Ï_ÌÌ_È_ËÂÌÚ_25"/><linearGradient id="_ÂÁ_Ï_ÌÌ_È_ËÂÌÚ_21-6" x1="50.37" y1="-16524.4" x2="50.37" y2="-16524.4" gradientTransform="matrix(1, 0, 0, -1, 0.71, -16462.71)" xlink:href="#_ÂÁ_Ï_ÌÌ_È_ËÂÌÚ_21"/><linearGradient id="_ÂÁ_Ï_ÌÌ_È_ËÂÌÚ_20-3" x1="33.91" y1="114.86" x2="38.23" y2="107.36" gradientTransform="matrix(1, 0, 0, 1, 0, 0)" xlink:href="#_ÂÁ_Ï_ÌÌ_È_ËÂÌÚ_20"/><linearGradient id="_ÂÁ_Ï_ÌÌ_È_ËÂÌÚ_20-4" x1="33.91" y1="122.71" x2="35" y2="120.8" gradientTransform="matrix(1, 0, 0, 1, 0, 0)" xlink:href="#_ÂÁ_Ï_ÌÌ_È_ËÂÌÚ_20"/><linearGradient id="_ÂÁ_Ï_ÌÌ_È_ËÂÌÚ_21-7" x1="67.81" y1="74.06" x2="71.7" y2="74.06" gradientTransform="matrix(1, 0, 0, 1, 0, 0)" xlink:href="#_ÂÁ_Ï_ÌÌ_È_ËÂÌÚ_21"/><linearGradient id="_ÂÁ_Ï_ÌÌ_È_ËÂÌÚ_21-8" x1="67.7" y1="73.29" x2="71.73" y2="73.29" gradientTransform="matrix(1, 0, 0, 1, 0, 0)" xlink:href="#_ÂÁ_Ï_ÌÌ_È_ËÂÌÚ_21"/><linearGradient id="_ÂÁ_Ï_ÌÌ_È_ËÂÌÚ_21-9" x1="70.88" y1="73.58" x2="70.99" y2="73.58" gradientTransform="matrix(1, 0, 0, 1, 0, 0)" xlink:href="#_ÂÁ_Ï_ÌÌ_È_ËÂÌÚ_21"/><linearGradient id="_ÂÁ_Ï_ÌÌ_È_ËÂÌÚ_21-10" x1="67.73" y1="71.9" x2="71.72" y2="71.9" gradientTransform="matrix(1, 0, 0, 1, 0, 0)" xlink:href="#_ÂÁ_Ï_ÌÌ_È_ËÂÌÚ_21"/><linearGradient id="_ÂÁ_Ï_ÌÌ_È_ËÂÌÚ_21-11" x1="67.73" y1="-16497.19" x2="67.73" y2="-16497.19" gradientTransform="matrix(1, 0, 0, -1, 0.71, -16462.71)" xlink:href="#_ÂÁ_Ï_ÌÌ_È_ËÂÌÚ_21"/><linearGradient id="_ÂÁ_Ï_ÌÌ_È_ËÂÌÚ_21-12" x1="67.73" y1="72.66" x2="71.7" y2="72.66" gradientTransform="matrix(1, 0, 0, 1, 0, 0)" xlink:href="#_ÂÁ_Ï_ÌÌ_È_ËÂÌÚ_21"/></defs><polygon class="cls-1" points="111.62 4.9 111.62 9.84 111.64 9.85 117.16 8.73 136.48 19.89 136.48 23.84 136.17 24.02 142.82 27.85 142.82 22.91 111.62 4.9"/><path class="cls-2" d="M135.77,57.34l-7.72,1.57a4.27,4.27,0,0,0-.89-.2L109.67,47.56l1.26-.26,5.52-1.12Z" transform="translate(0.71 -37.45)"/><path class="cls-2" d="M128.05,58.91l-.44.09-.45-.29A4.27,4.27,0,0,1,128.05,58.91Z" transform="translate(0.71 -37.45)"/><path class="cls-3" d="M110.26,56.15a3.27,3.27,0,0,1-.3,1.34,5.57,5.57,0,0,1-3,2.58,10.41,10.41,0,0,1-7.71,0,5.51,5.51,0,0,1-3-2.58,3.14,3.14,0,0,1-.2-.56,3.41,3.41,0,0,1-.11-.78,3,3,0,0,1,.1-.73c.39-1.6,2-2.94,4.25-3.55a10.3,10.3,0,0,1,2.53-.36h.28a11,11,0,0,1,2,.19c2.86.55,5,2.22,5.11,4.23A1.79,1.79,0,0,1,110.26,56.15Z" transform="translate(0.71 -37.45)"/><path class="cls-4" d="M42.13,54.46h0s0,0,0,.07Z" transform="translate(0.71 -37.45)"/><path class="cls-5" d="M42.13,54.53v.73c-.52.21-2.08.86-4,1.77v-2.5c0,.71.9,1.29,2,1.29S42.13,55.24,42.13,54.53Z" transform="translate(0.71 -37.45)"/><path class="cls-6" d="M25.19,79.82v.27l0,0A1.81,1.81,0,0,0,25.19,79.82Z" transform="translate(0.71 -37.45)"/><path class="cls-7" d="M25.19,79.72v.1s0-.07,0-.1Z" transform="translate(0.71 -37.45)"/><path class="cls-8" d="M1.49,102.77l1.65.94c.14-.31.28-.63.44-1l-1-.59a.56.56,0,0,0-.56,0l-.05,0a7.06,7.06,0,0,0-1,.58A.57.57,0,0,1,1.49,102.77Z" transform="translate(0.71 -37.45)"/><path class="cls-9" d="M7.49,105.85v1.29a.57.57,0,0,1-.3.5,6.48,6.48,0,0,1-1.12.63.55.55,0,0,0,.38-.52v-1.28a1.51,1.51,0,0,0-.76-1.31l-2.55-1.45c.14-.31.28-.63.44-1l3.15,1.8A1.51,1.51,0,0,1,7.49,105.85Z" transform="translate(0.71 -37.45)"/><path class="cls-10" d="M5.69,105.16l-2.55-1.45-1.65-.94a.57.57,0,0,0-.55,0,.55.55,0,0,0-.29.49v1.28a1.51,1.51,0,0,0,.76,1.31l.81.46,3.38,1.93a.58.58,0,0,0,.85-.49v-1.28A1.51,1.51,0,0,0,5.69,105.16Zm-2.55.63c-.17.3-.56.36-1,.09A2.28,2.28,0,0,1,1,104.13c0-.43.25-.67.62-.62a1.23,1.23,0,0,1,.48.16,2.28,2.28,0,0,1,1.1,1.75A.81.81,0,0,1,3.14,105.79Zm2.45,1.48c-.17.3-.56.36-1,.1a2.31,2.31,0,0,1-1.1-1.74c0-.45.25-.68.62-.64a1.16,1.16,0,0,1,.48.17,2.26,2.26,0,0,1,1.11,1.74A.68.68,0,0,1,5.59,107.27Z" transform="translate(0.71 -37.45)"/><path class="cls-11" d="M85.63,90.23h0l-.52-.33.06,0a2.58,2.58,0,0,1,1.6-.29Z" transform="translate(0.71 -37.45)"/><path class="cls-12" d="M71.75,103a1.69,1.69,0,0,1-.13-.31s0,0,0,0,0,0,0,0a2,2,0,0,1-.11-.32s0,0,0,0c0-.16-.1-.32-.14-.47s-.08-.38-.11-.57h0l.13-.07A5.72,5.72,0,0,0,71.75,103Z" transform="translate(0.71 -37.45)"/><path class="cls-12" d="M71.75,103a.36.36,0,0,1,0,.09h0S71.75,103,71.75,103Z" transform="translate(0.71 -37.45)"/><path class="cls-12" d="M72.53,104.38l0,.05-.09-.12-.13-.21A2.75,2.75,0,0,0,72.53,104.38Z" transform="translate(0.71 -37.45)"/><path class="cls-12" d="M79.29,103.84a3.19,3.19,0,0,1-1.37,2.9c-1.46.84-3.59,0-5.11-2-.06-.09-.13-.17-.18-.26.09.12.19.24.29.35l.29.31a1.29,1.29,0,0,0,.18.16,4.3,4.3,0,0,0,.7.53l.2.12.07,0,.22.1,0,0a2.08,2.08,0,0,0,.32.12,1.17,1.17,0,0,0,.25.07l.28,0,.28,0a2.07,2.07,0,0,0,.78-.14l.23-.12,0,0,0,0a1.9,1.9,0,0,0,.41-.34c.88-1,.83-3-.2-4.77a5.89,5.89,0,0,0-2-2.06l1.35-.79a7.89,7.89,0,0,1,1.82,2.14,9.34,9.34,0,0,1,.49,1A7,7,0,0,1,79.29,103.84Z" transform="translate(0.71 -37.45)"/><polygon class="cls-13" points="144.56 22.01 113.37 4 111.62 4.9 142.82 22.91 144.56 22.01"/><path class="cls-13" d="M71.33,110.3v.44L60.6,116.93l-.12-.36Z" transform="translate(0.71 -37.45)"/><path class="cls-13" d="M68.51,107.48v.43l-2,1.13-7.66,4.42c-.08-.11-.16-.2-.24-.3Z" transform="translate(0.71 -37.45)"/><path class="cls-14" d="M57.86,118.59c0-.1,0-.21,0-.31a4.87,4.87,0,0,0-1.74-4.12,11.14,11.14,0,0,0-2.51-1.65,0,0,0,0,0,0,0l.51,0a4.46,4.46,0,0,1,1,.11l.1,0a3.86,3.86,0,0,1,.88.32l.08,0a4.78,4.78,0,0,1,1.48,1.24c0,.06.09.11.13.16a8,8,0,0,1,.52.81c.09.15.17.32.25.48s.2.41.29.63.13.35.2.53.17.52.25.79.11.36.16.55c.11.47.23,1,.32,1.48Z" transform="translate(0.71 -37.45)"/><path class="cls-15" d="M86.33,57c.66.43,2.29,1.09,3.62,1.93.25-4.59,3.92-10.25,8.44-12.85,2.63-1.52,5-1.67,6.54-.68l0,0c-1.36-1.21-3.78-2.14-4.62-2.68-1.55-1-3.91-.85-6.55.67-4.58,2.65-8.3,8.43-8.44,13.06l.18.16A4,4,0,0,1,86.33,57Z" transform="translate(0.71 -37.45)"/><path class="cls-15" d="M109.41,47.71l-.34.2a5.67,5.67,0,0,0-2.42,0,4.14,4.14,0,0,0-1.55-2.45l-.12-.11a3.28,3.28,0,0,1,.78.37C106.43,46.18,108.08,46.85,109.41,47.71Z" transform="translate(0.71 -37.45)"/><path class="cls-15" d="M105.1,45.5l-.12-.11,0,0Z" transform="translate(0.71 -37.45)"/><path class="cls-15" d="M105.1,45.5l-.12-.11,0,0Z" transform="translate(0.71 -37.45)"/><path class="cls-15" d="M99.21,46.43c-4.23,2.45-7.72,7.57-8.35,12l5.19-3c.39-1.6,2-2.93,4.26-3.55a16.18,16.18,0,0,1,3.48-2.77A10.31,10.31,0,0,1,106.65,48a4.14,4.14,0,0,0-1.55-2.45l-.17-.13C103.42,44.86,101.42,45.16,99.21,46.43Z" transform="translate(0.71 -37.45)"/><path class="cls-15" d="M85.37,56.44s0,.05,0,.07L85,56.34v-.15C85.16,56.27,85.26,56.36,85.37,56.44Z" transform="translate(0.71 -37.45)"/><path class="cls-15" d="M85.5,56.59h0l-.18-.16s0,.05,0,.07Z" transform="translate(0.71 -37.45)"/><path class="cls-15" d="M85.5,56.59h0l-.18-.16s0,.05,0,.07Z" transform="translate(0.71 -37.45)"/><path class="cls-15" d="M87.23,59.17a5.64,5.64,0,0,1,2.41-.05l.31-.18v0c-1.33-.84-3-1.5-3.62-1.93a4,4,0,0,0-.78-.37l.13.12A4.17,4.17,0,0,1,87.23,59.17Z" transform="translate(0.71 -37.45)"/><path class="cls-15" d="M87.23,59.17a5.64,5.64,0,0,1,2.41-.05l.31-.18v0c-1.33-.84-3-1.5-3.62-1.93a4,4,0,0,0-.78-.37l.13.12A4.17,4.17,0,0,1,87.23,59.17Z" transform="translate(0.71 -37.45)"/><path class="cls-15" d="M90,58.92l0,0v0Z" transform="translate(0.71 -37.45)"/><path class="cls-15" d="M85.55,56.6h0l.18.13Z" transform="translate(0.71 -37.45)"/><path class="cls-15" d="M85.55,56.6h0l.18.13Z" transform="translate(0.71 -37.45)"/><path class="cls-15" d="M85.55,56.6h0l.18.13Z" transform="translate(0.71 -37.45)"/><path class="cls-15" d="M87.23,59.17A9.4,9.4,0,0,0,85,60V56.45a3.5,3.5,0,0,1,.46.14l0,0,0,0,.09.07.27.22a1.88,1.88,0,0,1,.25.24,4.54,4.54,0,0,1,.33.41l.15.23a1.38,1.38,0,0,1,.14.24l.12.26a2.18,2.18,0,0,1,.11.27A4.91,4.91,0,0,1,87.23,59.17Z" transform="translate(0.71 -37.45)"/><path class="cls-16" d="M97.24,76.52a27.81,27.81,0,0,0-2.3,3.67,20.58,20.58,0,0,0-2.07,5.86l-6.1,3.52a2.58,2.58,0,0,0-1.6.29l-.06,0-.07,0V83.57Z" transform="translate(0.71 -37.45)"/><path class="cls-16" d="M135.77,57.34v3.95l-.31.18-1.35.78a3.15,3.15,0,0,0-.59-.27c-1.35-1.21-3.77-2.14-4.62-2.68a3.65,3.65,0,0,0-.85-.39Z" transform="translate(0.71 -37.45)"/><path class="cls-16" d="M116.85,65.21A15.26,15.26,0,0,0,113.91,73a35.11,35.11,0,0,0-4.43-2.52,4.11,4.11,0,0,0-1-.45Z" transform="translate(0.71 -37.45)"/><path class="cls-15" d="M133.52,62h0c-1.56-1-3.91-.85-6.55.67a18.66,18.66,0,0,0-7,7.81,13.32,13.32,0,0,0-1.41,5c-1.33-.85-3-1.51-3.62-1.94-.06,0-.13-.06-.2-.1a5.14,5.14,0,0,0-.58-.27l-.19-.16a15.26,15.26,0,0,1,2.94-7.82A17.67,17.67,0,0,1,122.36,60a8.06,8.06,0,0,1,4.8-1.27l.45.29.44-.09a3.65,3.65,0,0,1,.85.39C129.75,59.84,132.17,60.77,133.52,62Z" transform="translate(0.71 -37.45)"/><path class="cls-15" d="M128.05,58.91l-.44.09-.45-.29A4.27,4.27,0,0,1,128.05,58.91Z" transform="translate(0.71 -37.45)"/><path class="cls-15" d="M139.05,65.15a4.65,4.65,0,0,0-3.85-.6,9.74,9.74,0,0,0-2.86,1.14c-4.68,2.7-8.46,8.67-8.46,13.35a6.72,6.72,0,0,0,.19,1.67,4,4,0,0,0,2,2.71s0,0,0,0-3.06-1.66-4.67-2.71v0c0-.06,0-.12,0-.19a4.87,4.87,0,0,0-1.74-4.12l-.32-.28c.15-4.62,3.87-10.41,8.45-13C130,61.75,132,61.45,133.48,62l.17.13a3.24,3.24,0,0,1,.31.24l.15-.09.2.1C135.18,62.91,137.73,63.88,139.05,65.15Z" transform="translate(0.71 -37.45)"/><path class="cls-16" d="M134.11,62.25l-.15.09a3.24,3.24,0,0,0-.31-.24l-.13-.12A3.15,3.15,0,0,1,134.11,62.25Z" transform="translate(0.71 -37.45)"/><path class="cls-15" d="M134.11,62.25l-.15.09a3.24,3.24,0,0,0-.31-.24l-.13-.12A3.15,3.15,0,0,1,134.11,62.25Z" transform="translate(0.71 -37.45)"/><path class="cls-16" d="M133.65,62.1l-.17-.13h0Z" transform="translate(0.71 -37.45)"/><path class="cls-15" d="M133.65,62.1l-.17-.13h0Z" transform="translate(0.71 -37.45)"/><path class="cls-15" d="M133.65,62.1l-.17-.13h0Z" transform="translate(0.71 -37.45)"/><path class="cls-15" d="M101.14,91.56l.06,0h0l-.07,0Z" transform="translate(0.71 -37.45)"/><path class="cls-16" d="M114.1,73.19h0l-.14-.08V73Z" transform="translate(0.71 -37.45)"/><path class="cls-15" d="M114.1,73.19h0l-.14-.08V73Z" transform="translate(0.71 -37.45)"/><path class="cls-15" d="M114.1,73.19h0l-.14-.08V73Z" transform="translate(0.71 -37.45)"/><path class="cls-15" d="M118.5,75.5c0,.1,0,.2,0,.3a5.35,5.35,0,0,0-2.71,0,10.31,10.31,0,0,0-2.86,1.15c-4.67,2.69-8.46,8.67-8.46,13.34a7.16,7.16,0,0,0,.19,1.67,4,4,0,0,0,2,2.71,0,0,0,0,1,0,0s-3.24-1.75-4.81-2.8l-.06,0a3.23,3.23,0,0,1-.56-.48c1.06-8,8.29-14.14,8.37-14.2l-.45-.63L107,75.14l-.72-.46-2.77-1.76-1.63-1c.35-.25.71-.49,1.07-.7a7.37,7.37,0,0,1,5.5-1.13,4.11,4.11,0,0,1,1,.45A35.11,35.11,0,0,1,113.91,73v.07l.14.08.17.13a3.65,3.65,0,0,1,.31.24l.15-.09c.07,0,.14.06.2.1C115.54,74,117.17,74.65,118.5,75.5Z" transform="translate(0.71 -37.45)"/><path class="cls-16" d="M114.68,73.46l-.15.09a3.65,3.65,0,0,0-.31-.24l-.12-.12A5.14,5.14,0,0,1,114.68,73.46Z" transform="translate(0.71 -37.45)"/><path class="cls-15" d="M114.68,73.46l-.15.09a3.65,3.65,0,0,0-.31-.24l-.12-.12A5.14,5.14,0,0,1,114.68,73.46Z" transform="translate(0.71 -37.45)"/><path class="cls-15" d="M114.68,73.46l-.15.09a3.65,3.65,0,0,0-.31-.24l-.12-.12A5.14,5.14,0,0,1,114.68,73.46Z" transform="translate(0.71 -37.45)"/><path class="cls-15" d="M119.31,76.08v.07a3.63,3.63,0,0,0-.83-.35c0-.1,0-.2,0-.3A7.3,7.3,0,0,1,119.31,76.08Z" transform="translate(0.71 -37.45)"/><path class="cls-15" d="M119.63,76.36l-.32-.21v-.07Z" transform="translate(0.71 -37.45)"/><path class="cls-15" d="M119.63,76.36l-.32-.21v-.07Z" transform="translate(0.71 -37.45)"/><path class="cls-16" d="M114.22,73.31l-.17-.13h0Z" transform="translate(0.71 -37.45)"/><path class="cls-15" d="M114.22,73.31l-.17-.13h0Z" transform="translate(0.71 -37.45)"/><path class="cls-15" d="M114.22,73.31l-.17-.13h0Z" transform="translate(0.71 -37.45)"/><path class="cls-15" d="M114.22,73.31l-.17-.13h0Z" transform="translate(0.71 -37.45)"/><path class="cls-16" d="M69.42,106.76v-3.18l-13.16,7.59,13.16-7.61-1.17-.67.09,0h0l2.87-1.67h0c0,.19.07.38.11.57s.09.31.14.47c0,0,0,0,0,0a2,2,0,0,0,.11.32s0,0,0,0,0,0,0,0a1.69,1.69,0,0,0,.13.31.13.13,0,0,1,0,.08h0a.17.17,0,0,1,0,.05,2,2,0,0,0,.1.21,1.34,1.34,0,0,0,.12.24c0,.08.08.16.13.24l.18.29.13.21s0,0,.06.07,0,0,0,.05,0,0,0,0,0,0,.06.07.12.17.18.26Z" transform="translate(0.71 -37.45)"/><path class="cls-16" d="M53.63,112.51h0A0,0,0,0,1,53.63,112.51Z" transform="translate(0.71 -37.45)"/><path class="cls-16" d="M85.63,90.23h0l-.52-.33.06,0a2.58,2.58,0,0,1,1.6-.29Z" transform="translate(0.71 -37.45)"/><path class="cls-15" d="M56.14,114.16a4,4,0,0,0-2-.74,5.5,5.5,0,0,0-1.14,0,9.13,9.13,0,0,0-3.55,1.26,18.68,18.68,0,0,0-7.08,7.91A13,13,0,0,0,41,128.05c0,2.16.82,3.66,2.16,4.38h0s-1.86-1-3.44-1.95l.32-3.4-1.1-.64a10.45,10.45,0,0,1,.79-2.27C42,119.2,48.56,113,53.6,112.5h0A11.14,11.14,0,0,1,56.14,114.16Z" transform="translate(0.71 -37.45)"/><path class="cls-17" d="M90.86,58.41c.63-4.41,4.12-9.53,8.35-12,2.21-1.27,4.21-1.57,5.72-1.06-1.55-1-3.91-.84-6.54.68C93.87,48.65,90.2,54.31,90,58.9l0,0Z" transform="translate(0.71 -37.45)"/><path class="cls-17" d="M99.21,46.43c-4.23,2.45-7.72,7.57-8.35,12l5.19-3c.39-1.6,2-2.93,4.26-3.55a16.18,16.18,0,0,1,3.48-2.77A10.31,10.31,0,0,1,106.65,48a4.14,4.14,0,0,0-1.55-2.45l-.17-.13C103.42,44.86,101.42,45.16,99.21,46.43Z" transform="translate(0.71 -37.45)"/><path class="cls-17" d="M109.07,47.91l-6.24,3.6a10.3,10.3,0,0,0-2.53.36,16.48,16.48,0,0,1,3.49-2.77A10.31,10.31,0,0,1,106.65,48,5.67,5.67,0,0,1,109.07,47.91Z" transform="translate(0.71 -37.45)"/><path class="cls-17" d="M85.5,56.59a3.5,3.5,0,0,0-.46-.14v-.11l.32.17h0Z" transform="translate(0.71 -37.45)"/><path class="cls-17" d="M90,58.92l0,0v0Z" transform="translate(0.71 -37.45)"/><path class="cls-17" d="M87.23,59.17A9.4,9.4,0,0,0,85,60V56.45a3.5,3.5,0,0,1,.46.14l0,0,0,0,.09.07.27.22a1.88,1.88,0,0,1,.25.24,4.54,4.54,0,0,1,.33.41l.15.23a1.38,1.38,0,0,1,.14.24l.12.26a2.18,2.18,0,0,1,.11.27A4.91,4.91,0,0,1,87.23,59.17Z" transform="translate(0.71 -37.45)"/><path class="cls-17" d="M89.64,59.12l-3.91,2.26,0-.28L85,60.21V60a9.4,9.4,0,0,1,2.19-.79A5.64,5.64,0,0,1,89.64,59.12Z" transform="translate(0.71 -37.45)"/><path class="cls-17" d="M133.48,62c-1.51-.52-3.51-.22-5.72,1.06-4.58,2.64-8.3,8.43-8.45,13a7.3,7.3,0,0,0-.81-.58,13.32,13.32,0,0,1,1.41-5,18.66,18.66,0,0,1,7-7.81C129.57,61.12,131.92,61,133.48,62Z" transform="translate(0.71 -37.45)"/><path class="cls-17" d="M139.05,65.15a4.65,4.65,0,0,0-3.85-.6,9.74,9.74,0,0,0-2.86,1.14c-4.68,2.7-8.46,8.67-8.46,13.35a6.72,6.72,0,0,0,.19,1.67,4,4,0,0,0,2,2.71c1.54.84,3.79.64,6.3-.81,4.67-2.7,8.45-8.67,8.45-13.34A4.83,4.83,0,0,0,139.05,65.15Zm-6.71,14.62c-1.93,1.11-3.62,1.12-4.64.23a3.15,3.15,0,0,1-1.33-2.86c0-3.1,2.52-7.06,5.62-8.85,1.92-1.11,3.62-1.12,4.63-.23A3.11,3.11,0,0,1,138,70.91C138,74,135.44,78,132.34,79.77Z" transform="translate(0.71 -37.45)"/><path class="cls-17" d="M126.72,77.39c0-3.1,2.51-7.06,5.62-8.85,1.71-1,3.25-1.1,4.28-.48-1-.89-2.71-.88-4.63.23-3.1,1.79-5.61,5.75-5.61,8.85A3.15,3.15,0,0,0,127.7,80,3.39,3.39,0,0,1,126.72,77.39Z" transform="translate(0.71 -37.45)"/><path class="cls-17" d="M101.79,91.84a3.79,3.79,0,0,1-.58-.26l-.07,0,0-.23a3.23,3.23,0,0,0,.56.48Z" transform="translate(0.71 -37.45)"/><path class="cls-17" d="M119.31,76.08v.07a3.63,3.63,0,0,0-.83-.35c0-.1,0-.2,0-.3A7.3,7.3,0,0,1,119.31,76.08Z" transform="translate(0.71 -37.45)"/><path class="cls-17" d="M119.63,76.36l-.32-.21v-.07Z" transform="translate(0.71 -37.45)"/><path class="cls-17" d="M119.63,76.36l-.32-.21a3.63,3.63,0,0,0-.83-.35,5.35,5.35,0,0,0-2.71,0,10.31,10.31,0,0,0-2.86,1.15c-4.67,2.69-8.46,8.67-8.46,13.34a7.16,7.16,0,0,0,.19,1.67,4,4,0,0,0,2,2.71c1.55.84,3.79.64,6.3-.8,4.59-2.66,8.33-8.48,8.45-13.11v0c0-.06,0-.12,0-.19A4.87,4.87,0,0,0,119.63,76.36ZM112.91,91c-1.92,1.11-3.62,1.12-4.63.23A3.11,3.11,0,0,1,107,88.36c0-3.11,2.51-7.07,5.61-8.86,1.93-1.11,3.62-1.12,4.63-.23a3.12,3.12,0,0,1,1.33,2.86C118.52,85.23,116,89.19,112.91,91Z" transform="translate(0.71 -37.45)"/><path class="cls-17" d="M107.3,88.61c0-3.1,2.51-7.07,5.61-8.86,1.72-1,3.25-1.1,4.28-.48-1-.89-2.7-.88-4.63.23-3.1,1.79-5.61,5.76-5.61,8.86a3.11,3.11,0,0,0,1.33,2.85A3.31,3.31,0,0,1,107.3,88.61Z" transform="translate(0.71 -37.45)"/><path class="cls-17" d="M56.14,114.16a4,4,0,0,0-2-.74,5.5,5.5,0,0,0-1.14,0,9.13,9.13,0,0,0-3.55,1.26,18.68,18.68,0,0,0-7.08,7.91A13,13,0,0,0,41,128.05c0,2.16.82,3.66,2.16,4.38,1.55.84,3.79.64,6.3-.81,4.57-2.64,8.28-8.41,8.44-13,0-.1,0-.21,0-.31A4.87,4.87,0,0,0,56.14,114.16Zm-6.72,14.62c-1.92,1.11-3.62,1.12-4.63.23a3.13,3.13,0,0,1-1.33-2.86c0-3.1,2.51-7.06,5.61-8.85,1.93-1.11,3.62-1.12,4.63-.23A3.11,3.11,0,0,1,55,119.92C55,123,52.52,127,49.42,128.78Z" transform="translate(0.71 -37.45)"/><path class="cls-17" d="M43.8,126.41c0-3.1,2.52-7.07,5.62-8.86,1.72-1,3.25-1.1,4.28-.48-1-.89-2.7-.88-4.63.23-3.1,1.79-5.61,5.75-5.61,8.85A3.12,3.12,0,0,0,44.79,129,3.35,3.35,0,0,1,43.8,126.41Z" transform="translate(0.71 -37.45)"/><path class="cls-18" d="M43.8,126.41c0-3.1,2.52-7.07,5.62-8.86,1.72-1,3.25-1.1,4.28-.48-1-.89-2.7-.88-4.63.23-3.1,1.79-5.61,5.75-5.61,8.85A3.12,3.12,0,0,0,44.79,129,3.35,3.35,0,0,1,43.8,126.41Z" transform="translate(0.71 -37.45)"/><path class="cls-19" d="M47,126.51s0,0,0,0a1.63,1.63,0,0,1-.3-.07l.19.06Z" transform="translate(0.71 -37.45)"/><path class="body" d="M44.32,56.89h0Z" transform="translate(0.71 -37.45)"/><path class="cls-21" d="M33.31,107.36v10.21c-.49.54-.94,1.08-1.34,1.62a.56.56,0,0,0-.46,0,.1.1,0,0,0-.05,0,7.06,7.06,0,0,0-1,.58.49.49,0,0,0-.17.15V108.53a3.53,3.53,0,0,0-.18-1.07,3.61,3.61,0,0,0-1-1.6l-5-4.71a37.6,37.6,0,0,0-5.32-3.55,38.8,38.8,0,0,0-6.29-2.78l-2.73-.51a1.78,1.78,0,0,0-1.61.51h0l1.32-1.58a3.56,3.56,0,0,1,.84-.71,3.29,3.29,0,0,1,2.24-.44l.8.15a29.29,29.29,0,0,1,3.43.87,19.36,19.36,0,0,1,4.84,2.28h0c1.82.82,4.81,3.26,7.31,5.46.94.83,1.82,1.63,2.53,2.29a5.62,5.62,0,0,1,.41.44,5.76,5.76,0,0,1,1.07,1.79,6.08,6.08,0,0,1,.37,2Z" transform="translate(0.71 -37.45)"/><path class="cls-21" d="M40,127.09l-1.47.9a2.33,2.33,0,0,1-2.31,0h0l-1.56-.9L32,125.61l-1.69-1L7.62,111.54l-8.32-4.8L.56,106l1.53.88,5.53,3.19L30.05,123c0,.06,0,.11-.05.17l7.24,4,1.65-.76Z" transform="translate(0.71 -37.45)"/><path class="cls-22" d="M37.91,136.27l-.1,0Z" transform="translate(0.71 -37.45)"/><polygon class="cls-22" points="37.95 98.89 37.95 98.89 37.95 98.89 37.95 98.89"/><path class="cls-22" d="M40,127.09l-.32,3.4-.36,3.76-.13.07-.66.41a2.24,2.24,0,0,1-1.28.32v-6.73a2.2,2.2,0,0,0,1.28-.33Z" transform="translate(0.71 -37.45)"/><polygon class="cls-23" points="50.74 68.01 50.74 68.01 50.74 68.01 50.74 68.01"/><polygon class="cls-24" points="50.74 62.92 50.74 62.92 50.74 62.92 50.74 62.92"/><polygon class="cls-25" points="51.08 61.69 51.08 61.69 51.08 61.69 51.08 61.69"/><path class="cls-26" d="M65.93,79.13v7.35a3,3,0,0,1-1.53,2.64l-5.93,3.43a.79.79,0,0,1-1.16-.85l1.24-8.19A4,4,0,0,1,60.31,81l4.16-2.66A1,1,0,0,1,65.93,79.13Z" transform="translate(0.71 -37.45)"/><path class="cls-26" d="M61.63,95.5v5.62a1.22,1.22,0,0,1-.61,1.06l-2.27,1.31a.71.71,0,0,1-1.06-.62V97.26a1.23,1.23,0,0,1,.61-1.07l2.27-1.3A.7.7,0,0,1,61.63,95.5Z" transform="translate(0.71 -37.45)"/><path class="cls-26" d="M39.83,74.93,38.1,83.15l-8.38-6.29L28,77.9h0l1.62-9.59.86.5.47.39a4.78,4.78,0,0,0-.22.67L29.5,75.54a.79.79,0,0,0,1.16.84L36.51,73C37.58,73.65,38.69,74.29,39.83,74.93Z" transform="translate(0.71 -37.45)"/><path class="cls-26" d="M56.44,83.78,55.1,91.67,41.05,84.88l-1.32-.62,1.76-8.42c3.32,1.8,6.71,3.47,9.49,4.8Z" transform="translate(0.71 -37.45)"/><polygon class="cls-26" points="55.81 54.22 55.31 57.16 39.84 49.68 40.44 46.81 41.76 47.43 55.81 54.22"/><polygon class="cls-26" points="38.81 45.7 38.14 48.89 38.1 48.87 28.51 41.66 28.71 40.45 28.72 40.45 28.72 40.44 30.43 39.41 38.81 45.7"/><path class="cls-26" d="M36.51,73l-5.85,3.38a.79.79,0,0,1-1.16-.84l1.24-5.68a4.78,4.78,0,0,1,.22-.67A51,51,0,0,0,36.51,73Z" transform="translate(0.71 -37.45)"/><path class="cls-22" d="M32,119.19c-.21.28-.4.56-.58.84l-.37-.2a.54.54,0,0,0-.55,0,7.06,7.06,0,0,1,1-.58.1.1,0,0,1,.05,0A.56.56,0,0,1,32,119.19Z" transform="translate(0.71 -37.45)"/><path class="cls-27" d="M32,119.19c-.21.28-.4.56-.58.84l-.37-.2a.54.54,0,0,0-.55,0,7.06,7.06,0,0,1,1-.58.1.1,0,0,1,.05,0A.56.56,0,0,1,32,119.19Z" transform="translate(0.71 -37.45)"/><path class="cls-28" d="M37,122.91v1.28a.56.56,0,0,1-.3.5,5.38,5.38,0,0,1-1.12.63.54.54,0,0,0,.38-.51v-1.29a1.5,1.5,0,0,0-.76-1.3L31.39,120c.18-.28.37-.56.58-.84l.1,0,4.19,2.39A1.51,1.51,0,0,1,37,122.91Z" transform="translate(0.71 -37.45)"/><path class="cls-10" d="M35.22,122.22,31.39,120l-.37-.2a.54.54,0,0,0-.55,0,.49.49,0,0,0-.17.15.58.58,0,0,0-.12.34v1.28a1.47,1.47,0,0,0,.12.55,1.53,1.53,0,0,0,.64.76l4.19,2.39a.59.59,0,0,0,.47,0,.54.54,0,0,0,.38-.51v-1.29A1.5,1.5,0,0,0,35.22,122.22Zm-2.51.53a.36.36,0,0,1,0,.09.45.45,0,0,1-.21.2.15.15,0,0,1-.11,0,.9.9,0,0,1-.69-.15,2.3,2.3,0,0,1-.44-.33,2.86,2.86,0,0,1-.35-.43,2,2,0,0,1-.32-1,1440488747805.32,1440488747805.32,0,0,1,0-.16.41.41,0,0,1,.05-.19l.05-.07s0,0,0,0a.51.51,0,0,1,.3-.15.34.34,0,0,1,.14,0h0a1.21,1.21,0,0,1,.48.17A1.27,1.27,0,0,1,32,121a.38.38,0,0,1,.09.09,2.52,2.52,0,0,1,.62,1,.16.16,0,0,1,0,.09.28.28,0,0,1,0,.09,1.09,1.09,0,0,1,0,.18c0,.07,0,.13,0,.18Zm2.48,1.36a.3.3,0,0,1,0,.1.33.33,0,0,1-.05.12.31.31,0,0,1-.09.11.16.16,0,0,1-.08.06l-.08,0a.68.68,0,0,1-.47,0,1.17,1.17,0,0,1-.3-.12,1.9,1.9,0,0,1-.42-.34,2.94,2.94,0,0,1-.35-.44c0-.08-.09-.16-.13-.24a1.37,1.37,0,0,1-.17-.49,1,1,0,0,1,0-.24.65.65,0,0,1,.16-.47.2.2,0,0,1,.08-.08l.08,0,.1,0h.2a1.29,1.29,0,0,1,.48.16A2.3,2.3,0,0,1,35.21,124,.41.41,0,0,1,35.19,124.11Z" transform="translate(0.71 -37.45)"/><path class="cls-29" d="M1.56,103.88a.78.78,0,0,1,.08-.37c-.37-.05-.62.19-.62.62a2.28,2.28,0,0,0,1.1,1.75c.46.27.85.21,1-.09a1.33,1.33,0,0,1-.49-.16A2.29,2.29,0,0,1,1.56,103.88Z" transform="translate(0.71 -37.45)"/><path class="cls-29" d="M5.59,107.28a1,1,0,0,1-.48-.16A2.32,2.32,0,0,1,4,105.38a.75.75,0,0,1,.09-.39c-.37,0-.62.19-.62.64a2.29,2.29,0,0,0,1.1,1.74C5,107.63,5.42,107.57,5.59,107.28Z" transform="translate(0.71 -37.45)"/><path class="cls-29" d="M31.09,120.94a.74.74,0,0,1,.08-.38c-.37,0-.62.2-.62.63a2.25,2.25,0,0,0,1.1,1.74c.46.27.85.22,1-.08a1.2,1.2,0,0,1-.49-.17A2.26,2.26,0,0,1,31.09,120.94Z" transform="translate(0.71 -37.45)"/><path class="cls-29" d="M33,122.68a2.31,2.31,0,0,0,1.1,1.75c.46.26.85.2,1-.1a1.1,1.1,0,0,1-.48-.15,2.32,2.32,0,0,1-1.11-1.75.71.71,0,0,1,.09-.38C33.25,122,33,122.24,33,122.68Z" transform="translate(0.71 -37.45)"/><path class="cls-30" d="M70.93,73.55c0,.23,0,.46-.05.68s0,.23,0,.34v-.93l0-.07h0Z" transform="translate(0.71 -37.45)"/><path class="cls-31" d="M71,72.93c0,.21,0,.41-.06.62h0l0,.07V73l.11,0h0Z" transform="translate(0.71 -37.45)"/><path class="cls-32" d="M71,72.93c0,.21,0,.41-.06.62s0,.46-.05.68c0-.22,0-.44,0-.66h0l.06-.62h0Z" transform="translate(0.71 -37.45)"/><path class="cls-33" d="M71.72,71.87v.06s0,0,0-.06Z" transform="translate(0.71 -37.45)"/><polygon class="cls-34" points="142.82 22.91 142.82 27.85 144.56 26.95 144.56 22.01 142.82 22.91"/><path class="cls-35" d="M96.05,55.42a3,3,0,0,0-.1.73V57L86,62.73l-.27-1.35,3.91-2.26.31-.18,0,0,.88-.51Z" transform="translate(0.71 -37.45)"/><path class="cls-36" d="M77.25,105.76a1.9,1.9,0,0,1-.41.34l0,0,0,0-.23.11a2.07,2.07,0,0,1-.78.14l-.28,0-.28,0a1.17,1.17,0,0,1-.25-.07,2.08,2.08,0,0,1-.32-.12l0,0-.22-.1-.07,0-.2-.12a4.3,4.3,0,0,1-.7-.53l-.18-.16-.29-.31c-.1-.11-.2-.23-.29-.35s0,0-.06-.07,0,0,0,0,0,0,0-.05-.13-.18-.19-.28l-.18-.29c0-.08-.09-.16-.13-.24a1.34,1.34,0,0,1-.12-.24,2,2,0,0,1-.1-.21.17.17,0,0,0,0-.05h0a.13.13,0,0,0,0-.08,5.72,5.72,0,0,1-.4-1.87l3.75-2.18a5.89,5.89,0,0,1,2,2.06C78.08,102.78,78.13,104.75,77.25,105.76Z" transform="translate(0.71 -37.45)"/><polygon class="cls-36" points="67.27 71.58 67.27 71.58 69.22 72.33 69.22 72.33 69.22 70.03 69.22 70.46 67.27 71.58"/><polygon class="cls-36" points="69.22 70.03 69.22 67.32 67.27 68.34 67.27 68.95 67.27 68.99 67.35 68.95 69.22 70.03"/><path class="cls-35" d="M70.93,73.55c0,.23,0,.46-.05.68s0,.23,0,.34v-.93l0-.07h0Z" transform="translate(0.71 -37.45)"/><polygon class="cls-37" points="68.44 34.48 68.44 34.48 68.44 34.48 68.44 34.48"/><path class="cls-55" d="M127.16,58.71a8.06,8.06,0,0,0-4.8,1.27,17.67,17.67,0,0,0-5.51,5.23l-8.42,4.85a7.37,7.37,0,0,0-5.5,1.13c-.36.21-.72.45-1.07.7l-.24-.15a30,30,0,0,0-4.38,4.78l-12.2,7v-.15l1.48-.86.74-.42,2.67-1.55V75.9l-2.67-2.08V69l-.1-.48L86.1,63.22l-.1-.49L96,57v.07a2.89,2.89,0,0,0,.14.88,2.94,2.94,0,0,0-.14.88c0,2.57,3.21,4.65,7.16,4.65s7.15-2.08,7.15-4.65a3.29,3.29,0,0,0-.13-.88,3.23,3.23,0,0,0,.13-.88V55.92h0c-.15-2-2.25-3.68-5.11-4.23a11,11,0,0,0-2-.19h-.28l6.24-3.6.34-.2.26-.15Z" transform="translate(0.71 -37.45)"/><path class="cls-55" d="M137.37,71.24c0,2.79-2.25,6.34-5,8s-5,.65-5-2.13a5,5,0,0,1,.08-.94,1.47,1.47,0,0,0,.13.37,1.88,1.88,0,0,0,2.46,1,3.11,3.11,0,0,0,1.8-.49,6.81,6.81,0,0,0,3.29-5.19,2.49,2.49,0,0,0-.14-.81v0c0-1.43-.81-2.2-2-2.15C135.44,67.65,137.37,68.66,137.37,71.24Z" transform="translate(0.71 -37.45)"/><path class="cls-55" d="M134.41,70.25a2.1,2.1,0,0,0-2.25,0l-.39.2A7.12,7.12,0,0,0,128.54,75a3.31,3.31,0,0,0,0,.62,1.75,1.75,0,0,0,.91,1.73,12.16,12.16,0,0,1-1.89-.85,1.47,1.47,0,0,1-.13-.37,7.83,7.83,0,0,1,.22-.93l0-.09,0-.13c.09-.27.2-.55.32-.82l0-.08c.13-.27.27-.55.42-.82l.13-.23c.14-.23.28-.46.43-.68l.15-.22a10,10,0,0,1,.62-.8l.2-.22.48-.51.34-.31.4-.34c.13-.11.25-.21.39-.31l.05,0a6.22,6.22,0,0,1,.71-.47c.18-.1.34-.19.5-.26a12.56,12.56,0,0,1,1.53,1.33h0Z" transform="translate(0.71 -37.45)"/><path class="cls-55" d="M132.09,72.12l-.19.1a3.48,3.48,0,0,0-1.58,2.23c0,.1,0,.2,0,.3,0,.88.72,1.18,1.6.67a3.33,3.33,0,0,0,1.6-2.52C133.5,72.08,132.88,71.75,132.09,72.12Zm-.6,2c-.36.21-.64.08-.64-.27a.49.49,0,0,1,0-.12,1.35,1.35,0,0,1,.63-.89l.07,0c.32-.15.57,0,.57.31A1.32,1.32,0,0,1,131.49,74.12Z" transform="translate(0.71 -37.45)"/><path class="cls-55" d="M117.94,82.46c0,2.78-2.25,6.34-5,8s-5,.64-5-2.13a5.17,5.17,0,0,1,.09-1,1.21,1.21,0,0,0,.12.38,1.89,1.89,0,0,0,2.46,1,3.26,3.26,0,0,0,1.81-.5A6.83,6.83,0,0,0,115.63,83a2.52,2.52,0,0,0-.13-.82v0c0-1.43-.82-2.2-2-2.15C116,78.87,117.94,79.88,117.94,82.46Z" transform="translate(0.71 -37.45)"/><path class="cls-55" d="M115,81.46a2.13,2.13,0,0,0-2.25,0,2.4,2.4,0,0,0-.39.2,7.07,7.07,0,0,0-3.23,4.57,3.15,3.15,0,0,0-.06.61,1.77,1.77,0,0,0,.92,1.74,13.89,13.89,0,0,1-1.9-.85,1.21,1.21,0,0,1-.12-.38,6.83,6.83,0,0,1,.21-.93l0-.09a.56.56,0,0,1,0-.12,7,7,0,0,1,.31-.83l0-.07a9.12,9.12,0,0,1,.41-.83l.13-.23.43-.68c0-.07.1-.15.16-.22.19-.27.4-.54.62-.8l.19-.21c.16-.18.32-.35.49-.51l.33-.32.4-.34.39-.3s0,0,0,0c.24-.17.48-.33.72-.47s.33-.18.5-.26a13.12,13.12,0,0,1,1.52,1.33h0Z" transform="translate(0.71 -37.45)"/><path class="cls-55" d="M112.66,83.34l-.19.09a3.49,3.49,0,0,0-1.57,2.23,1.53,1.53,0,0,0,0,.3c0,.88.72,1.19,1.6.68a3.3,3.3,0,0,0,1.6-2.53C114.07,83.29,113.46,83,112.66,83.34Zm-.6,2c-.35.2-.64.08-.64-.27a.49.49,0,0,1,0-.12,1.43,1.43,0,0,1,.63-.9l.08,0c.32-.14.56,0,.56.31A1.33,1.33,0,0,1,112.06,85.34Z" transform="translate(0.71 -37.45)"/><path class="body" d="M109.09,76.49a30.18,30.18,0,0,0-6.52,8.12,20,20,0,0,0-2.44,7.65l-7.46-4.75c0-.49.12-1,.2-1.46a20.58,20.58,0,0,1,2.07-5.86,27.81,27.81,0,0,1,2.3-3.67,30,30,0,0,1,4.38-4.78l.24.15,1.63,1,2.77,1.76.72.46Z" transform="translate(0.71 -37.45)"/><path class="cls-38" d="M110.26,57.06a3.23,3.23,0,0,1-.13.88,3.29,3.29,0,0,1,.13.88c0,2.57-3.2,4.65-7.15,4.65S96,61.39,96,58.82a2.94,2.94,0,0,1,.14-.88,2.89,2.89,0,0,1-.14-.88v-.91a3.41,3.41,0,0,0,.11.78,3.14,3.14,0,0,0,.2.56,5.51,5.51,0,0,0,3,2.58,10.41,10.41,0,0,0,7.71,0,5.57,5.57,0,0,0,3-2.58,3.27,3.27,0,0,0,.3-1.34Z" transform="translate(0.71 -37.45)"/><path class="body" d="M110.26,55.92v.23a1.79,1.79,0,0,0,0-.23Z" transform="translate(0.71 -37.45)"/><path class="body" d="M7.62,96.38v13.7l-5.53-3.19c0-.19.08-.38.13-.58l3.38,1.93a.56.56,0,0,0,.47,0,6.48,6.48,0,0,0,1.12-.63.57.57,0,0,0,.3-.5v-1.29a1.51,1.51,0,0,0-.76-1.3l-3.15-1.8A33.57,33.57,0,0,1,7.62,96.38Z" transform="translate(0.71 -37.45)"/><path class="cls-14" d="M7.49,105.85v1.29a.57.57,0,0,1-.3.5,6.48,6.48,0,0,1-1.12.63.55.55,0,0,0,.38-.52v-1.28a1.51,1.51,0,0,0-.76-1.31l-2.55-1.45c.14-.31.28-.63.44-1l3.15,1.8A1.51,1.51,0,0,1,7.49,105.85Z" transform="translate(0.71 -37.45)"/><path class="body" d="M44.33,56.89h0Z" transform="translate(0.71 -37.45)"/><path class="cls-55" d="M90.59,99.24l-12.67,7.5a3.19,3.19,0,0,0,1.37-2.9,7,7,0,0,0-.53-2.55,9.34,9.34,0,0,0-.49-1,7.89,7.89,0,0,0-1.82-2.14l9.18-5.33V90.23l1.14-.66a6.13,6.13,0,0,1,4.17,3.22C92.43,95.38,92.28,98.27,90.59,99.24Z" transform="translate(0.71 -37.45)"/><path class="cls-55" d="M54.45,120.26c0,2.78-2.25,6.34-5,7.94s-5,.65-5-2.13a5.15,5.15,0,0,1,.09-.94,1.21,1.21,0,0,0,.12.38,1.89,1.89,0,0,0,2.46,1,3.16,3.16,0,0,0,1.81-.49,6.83,6.83,0,0,0,3.28-5.19A2.5,2.5,0,0,0,52,120v0c0-1.43-.82-2.2-2-2.15C52.52,116.66,54.45,117.68,54.45,120.26Z" transform="translate(0.71 -37.45)"/><path class="cls-55" d="M51.5,119.26a2.15,2.15,0,0,0-2.25,0l-.39.2A7.12,7.12,0,0,0,45.63,124a3.34,3.34,0,0,0-.06.62,1.74,1.74,0,0,0,.92,1.73,12.56,12.56,0,0,1-1.9-.84,1.21,1.21,0,0,1-.12-.38,6.51,6.51,0,0,1,.21-.93l0-.09,0-.13c.09-.27.2-.54.32-.82,0,0,0,0,0-.08.12-.27.26-.55.41-.82l.13-.23c.14-.23.28-.46.43-.68l.15-.22c.2-.28.41-.54.63-.8l.19-.21c.16-.18.32-.35.49-.52l.33-.31.4-.34.39-.31.05,0a8.06,8.06,0,0,1,.72-.47,4,4,0,0,1,.5-.26,13.12,13.12,0,0,1,1.52,1.33h0Z" transform="translate(0.71 -37.45)"/><path class="cls-55" d="M49.17,121.13l-.19.1a3.47,3.47,0,0,0-1.57,2.23,1.53,1.53,0,0,0,0,.3c0,.88.72,1.18,1.6.68a3.33,3.33,0,0,0,1.6-2.53C50.58,121.09,50,120.77,49.17,121.13Zm-.6,2c-.35.21-.64.09-.64-.27a.49.49,0,0,1,0-.12,1.38,1.38,0,0,1,.63-.89l.08,0c.32-.14.56,0,.56.31A1.29,1.29,0,0,1,48.57,123.13Z" transform="translate(0.71 -37.45)"/><path class="body" d="M44.33,56.89h0Z" transform="translate(0.71 -37.45)"/><path class="body" d="M62.49,68.13h0Z" transform="translate(0.71 -37.45)"/><path class="body" d="M78.84,50.36v-.9L61,39.14c-.28.13-.54.29-.8.44l-3.7-2.13c-4.62,2.19-6.72,4.16-11.19,10-1.19,1.57-3,5.61-3,7.59v.11l-.19.07c-.52.21-2.08.86-4,1.77-4.31,2.07-10.4,5.5-10.27,8.36a5.61,5.61,0,0,0,.86,2.53l-2,11.58-1.27,1.06-.26.22-2.37,2-.62.51-.94.76-.26.21-1.91,1.52-.32.26c-4.73,3.75-8.25,6.35-8.47,6.52a3.29,3.29,0,0,1,2.24-.44l.8.15a29.29,29.29,0,0,1,3.43.87,19.36,19.36,0,0,1,4.84,2.28h0c1.82.82,4.81,3.26,7.31,5.46.94.83,1.82,1.63,2.53,2.29a5.62,5.62,0,0,1,.41.44,5.76,5.76,0,0,1,1.07,1.79c3.24-1.52,17-7.88,22-9.31l.19-.1h0l.08,0h0l1.95-12.5-.81-1.61c-.45-1.64,6.94-6,11.32-8.5V71.93a1.29,1.29,0,0,1,.93-1.09l0,0V64.66A3.39,3.39,0,0,1,70,62l2.2-2h.08a.72.72,0,0,1,.35.1l0,0a.72.72,0,0,1,.2.22A1.6,1.6,0,0,1,73,61a2.33,2.33,0,0,1-.34,1.47,2.84,2.84,0,0,1-.64.73l-.53.43a2,2,0,0,0-.73,1.53v5.65a1.83,1.83,0,0,1,.51.29,15.77,15.77,0,0,1,.81-2.78c1.63-3.91,8.47-13.15,13-14.4ZM51,71.25h0s0,0,.07-.07l.69-.44.08,0a.68.68,0,0,1,.7,0l.09,0s0,0,.06.06h0l.2.16a.86.86,0,0,1,0,1.09l-1.24.78a.75.75,0,0,1-.78,0l-.29-.17-.05,0C50.4,72.36,50.73,71.4,51,71.25ZM44.33,56.89h0Zm-.41,10.28h0L44,67.1l.69-.44.08,0a.68.68,0,0,1,.7,0l.08,0a.46.46,0,0,1,.07.07h0l.2.15c.26.16.3.93,0,1.09l-1.23.79a.75.75,0,0,1-.78,0l-.29-.17-.05,0C43.36,68.28,43.69,67.32,43.92,67.17Zm-7-4.08h0A.2.2,0,0,1,37,63l.7-.44.08,0a.68.68,0,0,1,.69,0l.09,0,.07.07h0l.21.15c.26.15.3.93,0,1.09l-1.23.78a.75.75,0,0,1-.78,0l-.3-.17a.08.08,0,0,1,0,0C36.32,64.21,36.64,63.24,36.88,63.09ZM29.76,67l4.29,3.07a48.26,48.26,0,0,1-5-3.6Zm-1.5,16.33.48-.3a.86.86,0,0,1,.91.06l.09.07-1.69.91A.53.53,0,0,1,28.26,83.31Zm.47,1.32-.4-.29,0,0,0,0,1.73-1,.49.36Zm.27.2,1.73-1,.49.36-1.74.94Zm.75.55,1.72-.94.49.36-1.73.93Zm.75.55L32.21,85l.49.36L31,86.28Zm1.23.9-.49-.35L33,85.54l.43.32s0,0,0,0Zm1.52.1-.44.19A.9.9,0,0,1,32,87l1.62-.88C33.78,86.44,33.65,86.76,33.25,86.93Zm4.18-.59,0,0L27.8,79.11,28,77.9h0l1.62-9.59.86.5.47.39A51,51,0,0,0,36.51,73c1.07.65,2.18,1.29,3.32,1.93L38.1,83.15Zm1.79,4.07.46-.21a1.38,1.38,0,0,1,1,0L39,91.16C38.74,90.9,38.81,90.59,39.22,90.41Zm.14,1-.08,0,1.72-1,.65.28-1.73,1Zm.91.41,1.74-1,.63.28-1.73,1Zm1.24.55-.25-.11,1.75-1,.09,0,.55.24-1.74,1Zm.74.33,1.76-1,.64.28L42.9,93Zm1,.45,1.77-1,.58.26s0,0,0,0l-1.75,1Zm2.64.16-.47.32a1.26,1.26,0,0,1-1.06,0l-.12,0,1.71-1A.4.4,0,0,1,45.88,93.3Zm10.56-9.52L55.1,91.67l-.5,2.94L39.13,87.13l.6-2.87,1.76-8.42c3.32,1.8,6.71,3.47,9.49,4.8Z" transform="translate(0.71 -37.45)"/><path class="body" d="M61.19,119.38l-1.42.25c-.09-.52-.21-1-.32-1.48-.05-.19-.11-.37-.16-.55s-.16-.54-.25-.79-.13-.36-.2-.53-.19-.43-.29-.63-.16-.33-.25-.48a8,8,0,0,0-.52-.81s-.09-.1-.13-.16A4.78,4.78,0,0,0,56.17,113l-.08,0a3.86,3.86,0,0,0-.88-.32l-.1,0a4.46,4.46,0,0,0-1-.11l-.51,0h0c-5,.46-11.58,6.7-13.92,11.68a10.45,10.45,0,0,0-.79,2.27l-1.65.76-7.24-4c0-.06,0-.11.05-.17a6.43,6.43,0,0,1,.25-.87,1.53,1.53,0,0,0,.64.76l4.19,2.39a.59.59,0,0,0,.47,0,5.38,5.38,0,0,0,1.12-.63.56.56,0,0,0,.3-.5v-1.28a1.51,1.51,0,0,0-.76-1.31l-4.19-2.39-.1,0c.4-.54.85-1.08,1.34-1.62a29.13,29.13,0,0,1,2.75-2.67c4.15-3.53,9.57-6.4,13.45-6.4h.05a6.34,6.34,0,0,1,.95.09,5.64,5.64,0,0,1,1.54.46l2,.92c.32.16.67.33,1,.52s.83.44,1.23.68h0c.36.21.7.43,1,.64a4.1,4.1,0,0,1,1.14,1.06h0c.09.09.17.19.25.28s.16.19.24.3a9.23,9.23,0,0,1,.86,1.37,13.05,13.05,0,0,1,.72,1.74l.12.36A19.61,19.61,0,0,1,61.19,119.38Z" transform="translate(0.71 -37.45)"/><path class="body" d="M34.05,70.05a48.26,48.26,0,0,1-5-3.6l.74.53Z" transform="translate(0.71 -37.45)"/><path class="body" d="M71,72.93c0,.21,0,.41-.06.62h0l0,.07V73l.11,0h0Z" transform="translate(0.71 -37.45)"/><polygon class="body" points="68.44 34.48 68.44 34.48 68.44 34.48 68.44 34.48"/><path class="body" d="M68.5,73l-.77.43V71.93A1.24,1.24,0,0,0,68.5,73Z" transform="translate(0.71 -37.45)"/><path class="cls-39" d="M68.5,73l-.77.43V71.93A1.24,1.24,0,0,0,68.5,73Z" transform="translate(0.71 -37.45)"/><polygon class="cls-38" points="90.64 38.45 90.64 43.14 87.97 44.69 87.23 45.11 85.75 45.97 85.75 24.01 86.39 23.65 86.44 23.93 86.71 25.28 86.81 25.77 87.87 31.04 87.97 31.52 87.97 39.99 90.64 38.45"/><path class="cls-38" d="M69.42,103.56l-13.16,7.61h0c-.4-.24-.81-.47-1.23-.68l.25-.11,13-7.49Z" transform="translate(0.71 -37.45)"/><path class="cls-40" d="M130,77.49a1.88,1.88,0,0,1-2.46-1,12.16,12.16,0,0,0,1.89.85l.19.07.19.06.09,0s0,0,0,0Z" transform="translate(0.71 -37.45)"/><path class="cls-40" d="M134.92,71v0a1.48,1.48,0,0,0-.51-.74l0-.06h0a12.56,12.56,0,0,0-1.53-1.33l.1,0C134.11,68.76,134.91,69.53,134.92,71Z" transform="translate(0.71 -37.45)"/><path class="cls-40" d="M129.78,77.47l.09,0,0,0a1.46,1.46,0,0,1-.3-.07A1.06,1.06,0,0,0,129.78,77.47Z" transform="translate(0.71 -37.45)"/><path class="cls-40" d="M132.13,73.11a1.32,1.32,0,0,1-.64,1c-.36.21-.64.08-.64-.27a.49.49,0,0,1,0-.12,1.35,1.35,0,0,1,.63-.89l.07,0C131.88,72.65,132.13,72.78,132.13,73.11Z" transform="translate(0.71 -37.45)"/><path class="cls-40" d="M110.54,88.71a1.89,1.89,0,0,1-2.46-1,13.89,13.89,0,0,0,1.9.85l.19.06.09,0a.32.32,0,0,0,.09,0l.09,0h.1Z" transform="translate(0.71 -37.45)"/><path class="cls-40" d="M115.5,82.17v0a1.57,1.57,0,0,0-.51-.75l0,0h0a13.12,13.12,0,0,0-1.52-1.33l.09,0C114.68,80,115.48,80.74,115.5,82.17Z" transform="translate(0.71 -37.45)"/><path class="cls-40" d="M110.35,88.68l.09,0h0l-.29-.08A.64.64,0,0,0,110.35,88.68Z" transform="translate(0.71 -37.45)"/><path class="cls-40" d="M112.7,84.32a1.33,1.33,0,0,1-.64,1c-.35.2-.64.08-.64-.27a.49.49,0,0,1,0-.12,1.43,1.43,0,0,1,.63-.9l.08,0C112.46,83.87,112.7,84,112.7,84.32Z" transform="translate(0.71 -37.45)"/><path class="cls-41" d="M2.12,103.67a1.23,1.23,0,0,0-.48-.16.78.78,0,0,0-.08.37,2.29,2.29,0,0,0,1.09,1.75,1.33,1.33,0,0,0,.49.16.78.78,0,0,0,.08-.37A2.28,2.28,0,0,0,2.12,103.67Z" transform="translate(0.71 -37.45)"/><path class="cls-41" d="M5.11,107.12a1,1,0,0,0,.48.16.74.74,0,0,0,.09-.38,2.26,2.26,0,0,0-1.11-1.74,1.16,1.16,0,0,0-.48-.17.75.75,0,0,0-.09.39A2.32,2.32,0,0,0,5.11,107.12Z" transform="translate(0.71 -37.45)"/><path class="cls-42" d="M71.33,110.3l-10.85,6.27a13.05,13.05,0,0,0-.72-1.74l8.75-5,.91-.53,0,0Z" transform="translate(0.71 -37.45)"/><path class="cls-42" d="M68.51,107.48l-9.85,5.68c-.08-.09-.16-.19-.25-.28h0a4.1,4.1,0,0,0-1.14-1.06l9.3-5.37.08,0Z" transform="translate(0.71 -37.45)"/><path class="cls-40" d="M47.05,126.5a1.89,1.89,0,0,1-2.46-1,12.56,12.56,0,0,0,1.9.84l.18.07.1,0a.32.32,0,0,0,.09,0l.09,0s0,0,0,0Z" transform="translate(0.71 -37.45)"/><path class="cls-40" d="M52,120v0a1.57,1.57,0,0,0-.51-.75l0-.05h0a13.12,13.12,0,0,0-1.52-1.33l.09-.05C51.19,117.77,52,118.54,52,120Z" transform="translate(0.71 -37.45)"/><path class="cls-40" d="M47,126.51s0,0,0,0a1.63,1.63,0,0,1-.3-.07l.19.06Z" transform="translate(0.71 -37.45)"/><path class="cls-40" d="M49.21,122.12a1.29,1.29,0,0,1-.64,1c-.35.21-.64.09-.64-.27a.49.49,0,0,1,0-.12,1.38,1.38,0,0,1,.63-.89l.08,0C49,121.67,49.21,121.79,49.21,122.12Z" transform="translate(0.71 -37.45)"/><path class="cls-41" d="M31.65,120.73a1.11,1.11,0,0,0-.48-.17.74.74,0,0,0-.08.38,2.26,2.26,0,0,0,1.09,1.74,1.2,1.2,0,0,0,.49.17.82.82,0,0,0,.08-.38A2.25,2.25,0,0,0,31.65,120.73Z" transform="translate(0.71 -37.45)"/><path class="cls-41" d="M34.64,124.18a1.1,1.1,0,0,0,.48.15.71.71,0,0,0,.09-.38,2.3,2.3,0,0,0-1.11-1.74,1.29,1.29,0,0,0-.48-.16.71.71,0,0,0-.09.38A2.32,2.32,0,0,0,34.64,124.18Z" transform="translate(0.71 -37.45)"/><path class="cls-43" d="M38.85,63.87l-1.23.78a.75.75,0,0,1-.78,0l-.3-.17a.08.08,0,0,1,0,0c-.18-.24.14-1.21.38-1.36h0a.35.35,0,0,0,.08.55l.09,0a.68.68,0,0,0,.7,0l.77-.49a.35.35,0,0,0,.05-.55h0l.21.15C39.07,62.93,39.11,63.71,38.85,63.87Z" transform="translate(0.71 -37.45)"/><path class="cls-43" d="M45.89,68l-1.23.79a.75.75,0,0,1-.78,0l-.29-.17-.05,0c-.18-.25.15-1.21.38-1.36h0a.37.37,0,0,0,.08.55l.1,0a.66.66,0,0,0,.69,0l.77-.49a.36.36,0,0,0,.05-.56h0l.2.15C46.11,67,46.15,67.79,45.89,68Z" transform="translate(0.71 -37.45)"/><path class="cls-43" d="M52.94,72l-1.24.78a.75.75,0,0,1-.78,0l-.29-.17-.05,0c-.18-.26.15-1.22.39-1.37h0a.37.37,0,0,0,.09.56l.09,0a.7.7,0,0,0,.7,0l.77-.49a.36.36,0,0,0,0-.56h0l.2.16A.86.86,0,0,1,52.94,72Z" transform="translate(0.71 -37.45)"/><path class="cls-44" d="M38.54,63.18l-.77.49a.68.68,0,0,1-.7,0l-.09,0a.35.35,0,0,1-.08-.55A.2.2,0,0,1,37,63l.7-.44.08,0a.68.68,0,0,1,.69,0l.09,0,.07.07A.35.35,0,0,1,38.54,63.18Z" transform="translate(0.71 -37.45)"/><path class="cls-44" d="M45.58,67.27l-.77.49a.66.66,0,0,1-.69,0l-.1,0a.37.37,0,0,1-.08-.55L44,67.1l.69-.44.08,0a.68.68,0,0,1,.7,0l.08,0a.46.46,0,0,1,.07.07A.36.36,0,0,1,45.58,67.27Z" transform="translate(0.71 -37.45)"/><path class="cls-44" d="M52.63,71.35l-.77.49a.7.7,0,0,1-.7,0l-.09,0a.37.37,0,0,1-.09-.56s0,0,.07-.07l.69-.44.08,0a.68.68,0,0,1,.7,0l.09,0s0,0,.06.06A.36.36,0,0,1,52.63,71.35Z" transform="translate(0.71 -37.45)"/><path class="cls-45" d="M28.21,119.35v.11a.77.77,0,0,1-.28.6h-.11a.78.78,0,0,1-.39-.1l-16.68-9.6a1.92,1.92,0,0,1-.88-1.1C15.17,112.62,24.1,117.33,28.21,119.35Z" transform="translate(0.71 -37.45)"/><path class="cls-22" d="M27.93,120.06a.76.76,0,0,1-.19.12h0l-.18,0h-.29a.58.58,0,0,1-.22-.08l-16.68-9.6a2,2,0,0,1-1-1.59l.49.31a1.92,1.92,0,0,0,.88,1.1L27.43,120a.78.78,0,0,0,.39.1Z" transform="translate(0.71 -37.45)"/><path class="cls-46" d="M43.42,43.62a2.37,2.37,0,0,1-.35,1.47l-.11.17a2.37,2.37,0,0,1-.3.36l-.23.2-.53.43a2,2,0,0,0-.73,1.53v6.43a.61.61,0,0,1-.18.25l0,0a1.31,1.31,0,0,1-.31.17,1.72,1.72,0,0,1-.52.09,1.38,1.38,0,0,1-.55-.11,1,1,0,0,1-.27-.15h0a.87.87,0,0,1-.17-.22v-7a3.39,3.39,0,0,1,1.25-2.64l2.2-2h.08a.7.7,0,0,1,.35.1l0,0a.7.7,0,0,1,.19.22A1.58,1.58,0,0,1,43.42,43.62Z" transform="translate(0.71 -37.45)"/><path class="cls-47" d="M68.51,109.78l-8.75,5a9.23,9.23,0,0,0-.86-1.37L66.56,109Z" transform="translate(0.71 -37.45)"/><path class="cls-47" d="M69.42,103.58v5.67l-.91.53v-5l-2,1v.65l-9.3,5.37c-.3-.21-.64-.43-1-.64Z" transform="translate(0.71 -37.45)"/><path class="cls-46" d="M72.66,62.49a2.84,2.84,0,0,1-.64.73l-.53.43a2,2,0,0,0-.73,1.53v6.43a.61.61,0,0,1-.18.25l0,0a1.2,1.2,0,0,1-.32.17,1.36,1.36,0,0,1-.51.09,1.35,1.35,0,0,1-.55-.11L69,72a.57.57,0,0,1-.13-.08h0a.57.57,0,0,1-.17-.22v-7A3.39,3.39,0,0,1,70,62l2.2-2h.08a.72.72,0,0,1,.35.1l0,0a.72.72,0,0,1,.2.22A1.6,1.6,0,0,1,73,61,2.33,2.33,0,0,1,72.66,62.49Z" transform="translate(0.71 -37.45)"/><polygon class="cls-3" points="90.64 38.45 87.97 39.99 87.97 36.37 90.64 38.45"/><polygon class="cls-3" points="86.39 23.65 85.75 24.01 85.75 22.76 86.39 23.65"/><polygon class="cls-48" points="31.01 87.18 8.33 74.1 8.33 74.09 31.01 87.18"/><path class="cls-48" d="M37.17,136.34h0Z" transform="translate(0.71 -37.45)"/><path class="cls-48" d="M36.21,128h0l-1.56-.9L32,125.61l-1.69-1L7.62,111.55-.7,106.74h0v7.06a1.4,1.4,0,0,0,.1.54,1.61,1.61,0,0,1-.09-.54v-.33l2.76,1.59h0l3.52,2h0l3.53,2v0l2.18,1.25a1.51,1.51,0,0,1-.06-.35v-.39a1.78,1.78,0,0,0,.26.86,2.08,2.08,0,0,0,.67.71l.48.27,3.53,2.07,2.91,1.7a.73.73,0,0,0,.62.1.2.2,0,0,1,.08,0l0,0a.44.44,0,0,0,.2,0,.9.9,0,0,1,0,.16l3.26,1.88v0l3.53,2v.06l3.52,2v-.07l3.53,2v.07l2.37,1.37a1.89,1.89,0,0,0,.51.21,3.05,3.05,0,0,0,.54.08v-6.73A2.18,2.18,0,0,1,36.21,128Z" transform="translate(0.71 -37.45)"/><path class="cls-48" d="M26.25,130.32l9.94,5.74a2.36,2.36,0,0,0,.52.21,2,2,0,0,1-.52-.22Z" transform="translate(0.71 -37.45)"/><path class="cls-48" d="M30.3,120V108.53a3.53,3.53,0,0,0-.18-1.07,3.61,3.61,0,0,0-1-1.6l-5-4.71a37.6,37.6,0,0,0-5.32-3.55,38.8,38.8,0,0,0-6.29-2.78l-2.73-.51a1.82,1.82,0,0,0-2.14,1.77v14L30.05,123a6.43,6.43,0,0,1,.25-.87,1.47,1.47,0,0,1-.12-.55v-1.28A.58.58,0,0,1,30.3,120ZM17.71,98.19a3.18,3.18,0,0,1,.77.26c1,.49,1.75,1.37,1.75,2a.46.46,0,0,1-.14.36c-.27.27-.88.24-1.61-.11-1-.48-1.74-1.36-1.74-2C16.74,98.26,17.14,98.08,17.71,98.19Zm-7.92.06.17-.06c.27.18,2.73,1.69,3.94,2.45l.1.07c1.93,1.1,3.86,2.16,5.7,3.13l.14.08c2.48,1.22,7.56,4.09,7.56,4.09a1.48,1.48,0,0,1,.48.45c-1.46-.74-6.27-3.19-8-4.12l-.14-.08c-1.84-1-3.77-2-5.7-3.13l-.1-.07c-1.46-.85-2.91-1.8-4.29-2.68A.68.68,0,0,1,9.79,98.25Zm18.42,21.21a.8.8,0,0,1-.47.72h0l-.18,0h-.29a.58.58,0,0,1-.22-.08l-16.68-9.6a2,2,0,0,1-1-1.59l.49.31c5.3,3.35,14.23,8.06,18.34,10.08Zm0-1c-4.24-2.09-13.62-7-18.84-10.4v-.4l.4.25c5.58,3.56,14.68,8.28,18.44,10.1Zm0-1.64c-3.85-1.85-13.3-6.76-18.84-10.35v-.44l.4.25c5.58,3.57,14.68,8.29,18.44,10.1Zm0-1.61c-4.24-2.09-13.62-7-18.84-10.4v-.41l.4.25c5.58,3.57,14.68,8.29,18.44,10.09Zm0-1.7A210.07,210.07,0,0,1,9.37,103.19v-.38l.4.25c5.58,3.55,14.68,8.25,18.44,10Zm0-1.67c-4.24-2.09-13.62-7-18.84-10.4v-.41l.4.25c5.58,3.57,14.68,8.29,18.44,10.1Zm0-1.63c-3.85-1.86-13.3-6.77-18.84-10.36v-.45l.4.26c5.58,3.57,14.68,8.29,18.44,10.1Z" transform="translate(0.71 -37.45)"/><path class="cls-48" d="M11.5,120.49l-.2-.12a1.51,1.51,0,0,1-.06-.35v-.39A1.78,1.78,0,0,0,11.5,120.49Z" transform="translate(0.71 -37.45)"/><path class="cls-48" d="M20,125.24a.9.9,0,0,1,0,.16h0l-.19-.11,0,0A.44.44,0,0,0,20,125.24Z" transform="translate(0.71 -37.45)"/><path class="cls-49" d="M39.31,134.25l-.13,1.36-.12.08-.54.33a2.34,2.34,0,0,1-.61.26h-.1a2.12,2.12,0,0,1-.56.05h-.08a2.44,2.44,0,0,1-.46-.07l-.27-.09-.25-.13-9.94-5.73L.13,115.24a1.52,1.52,0,0,1-.39-.32,1.58,1.58,0,0,1-.35-.58,1.61,1.61,0,0,1-.09-.54v-.33l2.76,1.59v1.28l3.53,2V117.1l3.53,2v1.26l3.53,2v-.56l3.53,2.06v.53l3.53,2v-.76a.49.49,0,0,0,.27-.32l3.26,1.88v1.22l3.53,2v-1.22l3.52,2v1.21l3.53,2v-1.2l2.37,1.36a2.26,2.26,0,0,0,1.05.29,2.24,2.24,0,0,0,1.28-.32l.66-.41Z" transform="translate(0.71 -37.45)"/><polygon class="cls-49" points="16.89 86.09 16.89 86.48 13.36 84.42 13.36 84.02 16.89 86.09"/><path class="cls-49" d="M20,125.41a.49.49,0,0,1-.27.32v-.39a.2.2,0,0,1,.08,0Z" transform="translate(0.71 -37.45)"/><path class="cls-50" d="M42.13,54.53a1,1,0,0,1-.34.72,2.64,2.64,0,0,1-3.3,0,1,1,0,0,1-.35-.72,1.33,1.33,0,0,1,1-1.11v.83a.87.87,0,0,0,.17.22h0a1,1,0,0,0,.27.15,1.38,1.38,0,0,0,.55.11,1.72,1.72,0,0,0,.52-.09,1.31,1.31,0,0,0,.31-.17l0,0a.61.61,0,0,0,.18-.25v-.78a1.32,1.32,0,0,1,.95,1S42.13,54.51,42.13,54.53Z" transform="translate(0.71 -37.45)"/><polygon class="cls-50" points="6.3 79.64 6.3 80.92 2.77 78.89 2.77 77.61 2.78 77.62 6.3 79.64"/><path class="cls-50" d="M71.72,71.93a.93.93,0,0,1,0,.29,1.82,1.82,0,0,1-.15.27l-.11.12a1.8,1.8,0,0,1-.2.18,1.64,1.64,0,0,1-.22.14h0l-.11.06h0a2.7,2.7,0,0,1-1.14.24A2.74,2.74,0,0,1,68.5,73a1.24,1.24,0,0,1-.77-1,1.29,1.29,0,0,1,.93-1.09l0,0v.83a.57.57,0,0,0,.17.22h0A.57.57,0,0,0,69,72l.15.07a1.35,1.35,0,0,0,.55.11,1.36,1.36,0,0,0,.51-.09,1.2,1.2,0,0,0,.32-.17l0,0a.61.61,0,0,0,.18-.25v-.78a1.83,1.83,0,0,1,.51.29,1.14,1.14,0,0,1,.44.75S71.72,71.91,71.72,71.93Z" transform="translate(0.71 -37.45)"/><path class="cls-50" d="M20.23,100.42a.46.46,0,0,1-.14.36c-.27.27-.88.24-1.61-.11-1-.48-1.74-1.36-1.74-2,0-.44.4-.62,1-.51a3.18,3.18,0,0,1,.77.26C19.45,98.94,20.23,99.82,20.23,100.42Z" transform="translate(0.71 -37.45)"/><path class="cls-50" d="M12.65,121.87v.56l-3.53-2v-1.28l2.18,1.25a2.06,2.06,0,0,0,.87,1.22Z" transform="translate(0.71 -37.45)"/><path class="cls-50" d="M19.1,125.63l-2.92-1.7v.53l3.53,2v-.75A.71.71,0,0,1,19.1,125.63Z" transform="translate(0.71 -37.45)"/><polygon class="cls-50" points="27.48 91.81 27.48 93.09 23.95 91.06 23.95 89.78 27.48 91.81"/><polygon class="cls-50" points="34.53 95.87 34.53 97.15 31 95.12 31 93.84 34.53 95.87"/><path class="cls-50" d="M12.65,121.47v.4l-.48-.28a2.06,2.06,0,0,1-.87-1.22l.2.12a2.08,2.08,0,0,0,.67.71Z" transform="translate(0.71 -37.45)"/><path class="cls-50" d="M19.71,125.34v.39a.73.73,0,0,1-.62-.1l-2.91-1.7v-.39l2.91,1.7A.73.73,0,0,0,19.71,125.34Z" transform="translate(0.71 -37.45)"/><path class="cls-51" d="M136.62,68.06c-1-.63-2.57-.51-4.28.48-3.11,1.79-5.62,5.75-5.62,8.85a3.39,3.39,0,0,0,1,2.61c1,.89,2.71.88,4.64-.23C135.44,78,138,74,138,70.91A3.11,3.11,0,0,0,136.62,68.06Zm-4.29,11.13c-2.77,1.6-5,.65-5-2.13a5,5,0,0,1,.08-.94,7.83,7.83,0,0,1,.22-.93l0-.09,0-.13c.09-.27.2-.55.32-.82l0-.08c.13-.27.27-.55.42-.82l.13-.23c.14-.23.28-.46.43-.68l.15-.22a10,10,0,0,1,.62-.8l.2-.22.48-.51.34-.31.4-.34c.13-.11.25-.21.39-.31l.05,0a6.22,6.22,0,0,1,.71-.47c.18-.1.34-.19.5-.26l.1,0c2.51-1.16,4.44-.15,4.44,2.43C137.37,74,135.12,77.58,132.33,79.19Z" transform="translate(0.71 -37.45)"/><path class="cls-52" d="M134.92,71h0a1.48,1.48,0,0,0-.51-.74,2.1,2.1,0,0,0-2.25,0l-.39.2A7.12,7.12,0,0,0,128.54,75a3.31,3.31,0,0,0,0,.62,1.75,1.75,0,0,0,.91,1.73l.19.07a1.46,1.46,0,0,0,.3.07H130a3.11,3.11,0,0,0,1.8-.49,6.81,6.81,0,0,0,3.29-5.19A2.49,2.49,0,0,0,134.92,71Zm-3,4.42c-.88.51-1.6.21-1.6-.67,0-.1,0-.2,0-.3a3.48,3.48,0,0,1,1.58-2.23l.19-.1c.79-.37,1.41,0,1.41.78A3.33,3.33,0,0,1,131.9,75.42Z" transform="translate(0.71 -37.45)"/><path class="cls-51" d="M117.19,79.27c-1-.62-2.56-.51-4.28.48-3.1,1.79-5.61,5.76-5.61,8.86a3.33,3.33,0,0,0,1,2.6c1,.89,2.71.88,4.63-.23,3.1-1.79,5.61-5.75,5.61-8.85A3.12,3.12,0,0,0,117.19,79.27Zm-4.28,11.14c-2.78,1.6-5,.64-5-2.13a5.17,5.17,0,0,1,.09-1,6.83,6.83,0,0,1,.21-.93l0-.09a.56.56,0,0,1,0-.12,7,7,0,0,1,.31-.83l0-.07a9.12,9.12,0,0,1,.41-.83l.13-.23.43-.68c0-.07.1-.15.16-.22.19-.27.4-.54.62-.8l.19-.21c.16-.18.32-.35.49-.51l.33-.32.4-.34.39-.3s0,0,0,0c.24-.17.48-.33.72-.47s.33-.18.5-.26l.09,0c2.51-1.15,4.44-.14,4.44,2.44C117.94,85.24,115.69,88.8,112.91,90.41Z" transform="translate(0.71 -37.45)"/><path class="cls-52" d="M115.5,82.21a1.57,1.57,0,0,0-.51-.75,2.13,2.13,0,0,0-2.25,0,2.4,2.4,0,0,0-.39.2,7.07,7.07,0,0,0-3.23,4.57,3.15,3.15,0,0,0-.06.61,1.77,1.77,0,0,0,.92,1.74l.19.06.09,0,.2,0h.08a3.26,3.26,0,0,0,1.81-.5A6.83,6.83,0,0,0,115.63,83,2.52,2.52,0,0,0,115.5,82.21Zm-3,4.43c-.88.51-1.6.2-1.6-.68a1.53,1.53,0,0,1,0-.3,3.49,3.49,0,0,1,1.57-2.23l.19-.09c.8-.37,1.41,0,1.41.77A3.3,3.3,0,0,1,112.47,86.64Z" transform="translate(0.71 -37.45)"/><path class="cls-51" d="M53.7,117.07c-1-.62-2.56-.51-4.28.48-3.1,1.79-5.62,5.76-5.62,8.86a3.35,3.35,0,0,0,1,2.6c1,.89,2.71.88,4.63-.23C52.52,127,55,123,55,119.92A3.11,3.11,0,0,0,53.7,117.07ZM49.42,128.2c-2.78,1.6-5,.65-5-2.13a5.15,5.15,0,0,1,.09-.94,6.51,6.51,0,0,1,.21-.93l0-.09,0-.13c.09-.27.2-.54.32-.82,0,0,0,0,0-.08.12-.27.26-.55.41-.82l.13-.23c.14-.23.28-.46.43-.68l.15-.22c.2-.28.41-.54.63-.8l.19-.21c.16-.18.32-.35.49-.52l.33-.31.4-.34.39-.31.05,0a8.06,8.06,0,0,1,.72-.47,4,4,0,0,1,.5-.26l.09-.05c2.51-1.16,4.44-.14,4.44,2.44C54.45,123,52.2,126.6,49.42,128.2Z" transform="translate(0.71 -37.45)"/><path class="cls-52" d="M52,120a1.57,1.57,0,0,0-.51-.75,2.15,2.15,0,0,0-2.25,0l-.39.2A7.12,7.12,0,0,0,45.63,124a3.34,3.34,0,0,0-.06.62,1.74,1.74,0,0,0,.92,1.73l.18.07.1,0,.2,0h.08a3.16,3.16,0,0,0,1.81-.49,6.83,6.83,0,0,0,3.28-5.19A2.5,2.5,0,0,0,52,120Zm-3,4.43c-.88.5-1.6.2-1.6-.68a1.53,1.53,0,0,1,0-.3A3.47,3.47,0,0,1,49,121.23l.19-.1c.8-.36,1.41,0,1.41.78A3.33,3.33,0,0,1,49,124.44Z" transform="translate(0.71 -37.45)"/><path class="cls-53" d="M19.39,120.76a1.64,1.64,0,0,1,.19.25A1.64,1.64,0,0,0,19.39,120.76Z" transform="translate(0.71 -37.45)"/><path class="cls-53" d="M11.66,116.4a.41.41,0,0,1,.22,0A.53.53,0,0,0,11.66,116.4Z" transform="translate(0.71 -37.45)"/><path class="body" d="M28.21,118v.45c-4.24-2.09-13.62-7-18.84-10.4v-.4l.4.25C15.35,111.5,24.45,116.22,28.21,118Z" transform="translate(0.71 -37.45)"/><path class="body" d="M28.21,116.41v.44c-3.85-1.85-13.3-6.76-18.84-10.35v-.44l.4.25C15.35,109.88,24.45,114.6,28.21,116.41Z" transform="translate(0.71 -37.45)"/><path class="body" d="M28.21,114.77v.47c-4.24-2.09-13.62-7-18.84-10.4v-.41l.4.25C15.35,108.25,24.45,113,28.21,114.77Z" transform="translate(0.71 -37.45)"/><path class="body" d="M28.21,113.1v.44A210.07,210.07,0,0,1,9.37,103.19v-.38l.4.25C15.35,106.61,24.45,111.31,28.21,113.1Z" transform="translate(0.71 -37.45)"/><path class="body" d="M28.21,111.41v.46c-4.24-2.09-13.62-7-18.84-10.4v-.41l.4.25C15.35,104.88,24.45,109.6,28.21,111.41Z" transform="translate(0.71 -37.45)"/><path class="body" d="M28.21,109.79v.45c-3.85-1.86-13.3-6.77-18.84-10.36v-.45l.4.26C15.35,103.26,24.45,108,28.21,109.79Z" transform="translate(0.71 -37.45)"/><path class="body" d="M27.88,108.46c-1.46-.74-6.27-3.19-8-4.12l-.14-.08c-1.84-1-3.77-2-5.7-3.13l-.1-.07c-1.46-.85-2.91-1.8-4.29-2.68a.68.68,0,0,1,.18-.13l.17-.06c.27.18,2.73,1.69,3.94,2.45l.1.07c1.93,1.1,3.86,2.16,5.7,3.13l.14.08c2.48,1.22,7.56,4.09,7.56,4.09A1.48,1.48,0,0,1,27.88,108.46Z" transform="translate(0.71 -37.45)"/><polygon class="body" points="100.84 54.81 100.84 54.81 100.84 54.81 100.84 54.81"/><path class="body" d="M109.54,77.12c-.08.06-7.31,6.22-8.37,14.2l0,.23h0l-.06.36-1,.34a20,20,0,0,1,2.44-7.65,30.18,30.18,0,0,1,6.52-8.12Z" transform="translate(0.71 -37.45)"/><path class="body" d="M85.11,89.9l-.07,0,0,0,0,0V53.94c-4.49,1.25-11.33,10.49-13,14.4a15.77,15.77,0,0,0-.81,2.78,1.14,1.14,0,0,1,.44.75h0v.06a.93.93,0,0,1,0,.29,1.82,1.82,0,0,1-.15.27l-.11.12a1.8,1.8,0,0,1-.2.18,1.64,1.64,0,0,1-.22.14c0,.21,0,.41-.06.62s0,.46-.05.68,0,.23,0,.34,0,.22,0,.33V73a2.7,2.7,0,0,1-1.14.24A2.74,2.74,0,0,1,68.5,73l-.77.43c-4.38,2.45-11.77,6.86-11.32,8.5l.81,1.61L55.27,96h0l-.08,0h0l-.19.1c-5.07,1.43-18.8,7.79-22,9.31a6.08,6.08,0,0,1,.37,2v10.21a29.13,29.13,0,0,1,2.75-2.67c4.15-3.53,9.57-6.4,13.45-6.4h.05a6.34,6.34,0,0,1,.95.09,5.64,5.64,0,0,1,1.54.46l2,.92c.32.16.67.33,1,.52l.25-.11,13-7.49.09,0h0l2.87-1.67.13-.07,3.75-2.18,1.35-.79,9.18-5.33V90.22ZM61.63,101.12a1.22,1.22,0,0,1-.61,1.06l-2.27,1.31a.71.71,0,0,1-1.06-.62V97.26a1.23,1.23,0,0,1,.61-1.07l2.27-1.3a.7.7,0,0,1,1.06.61Zm4.3-14.64a3,3,0,0,1-1.53,2.64l-5.93,3.43a.79.79,0,0,1-1.16-.85l1.24-8.19A4,4,0,0,1,60.31,81l4.16-2.66a1,1,0,0,1,1.46.8Z" transform="translate(0.71 -37.45)"/><polygon class="body" points="50.74 68.01 50.74 68.01 50.74 68.01 50.74 68.01"/><polygon class="body" points="50.74 62.92 50.74 62.92 50.74 62.92 50.74 62.92"/><polygon class="body" points="51.08 61.69 51.08 61.69 51.08 61.69 51.08 61.69"/><path class="body" d="M37,122.91v1.28a.56.56,0,0,1-.3.5,5.38,5.38,0,0,1-1.12.63.54.54,0,0,0,.38-.51v-1.29a1.5,1.5,0,0,0-.76-1.3L31.39,120c.18-.28.37-.56.58-.84l.1,0,4.19,2.39A1.51,1.51,0,0,1,37,122.91Z" transform="translate(0.71 -37.45)"/><path class="body" d="M71,72.93c0,.21,0,.41-.06.62s0,.46-.05.68c0-.22,0-.44,0-.66h0l.06-.62h0Z" transform="translate(0.71 -37.45)"/><path class="body" d="M71.72,71.87v.06s0,0,0-.06Z" transform="translate(0.71 -37.45)"/><path class="body" d="M45.88,93.3l-.47.32a1.26,1.26,0,0,1-1.06,0l-.12,0,1.71-1A.4.4,0,0,1,45.88,93.3Z" transform="translate(0.71 -37.45)"/><path class="body" d="M45.64,92.42l-1.75,1-.65-.29,1.77-1,.58.26S45.62,92.41,45.64,92.42Z" transform="translate(0.71 -37.45)"/><polygon class="body" points="45.36 54.52 43.61 55.53 42.96 55.24 44.72 54.24 45.36 54.52"/><polygon class="body" points="44.36 54.08 42.62 55.09 42.22 54.91 41.97 54.8 43.72 53.8 43.81 53.84 44.36 54.08"/><path class="body" d="M40.64,90.22,39,91.16c-.26-.26-.19-.57.22-.75l.46-.21A1.38,1.38,0,0,1,40.64,90.22Z" transform="translate(0.71 -37.45)"/><polygon class="body" points="43.35 53.65 41.62 54.64 40.98 54.36 42.72 53.37 43.35 53.65"/><path class="body" d="M41.65,90.66l-1.73,1-.56-.25-.08,0,1.72-1Z" transform="translate(0.71 -37.45)"/><path class="body" d="M29.74,83.14l-1.69.91a.53.53,0,0,1,.21-.74l.48-.3a.86.86,0,0,1,.91.06Z" transform="translate(0.71 -37.45)"/><path class="body" d="M30.48,83.69l-1.75.94-.4-.29,0,0,0,0,1.73-1Z" transform="translate(0.71 -37.45)"/><path class="body" d="M33.42,85.91l-1.69.92-.49-.35L33,85.54l.43.32S33.4,85.9,33.42,85.91Z" transform="translate(0.71 -37.45)"/><polygon class="body" points="31.93 46.79 30.19 47.73 29.71 47.38 31.44 46.43 31.93 46.79"/><polygon class="body" points="32.67 47.35 30.94 48.28 30.46 47.93 32.18 46.99 32.67 47.35"/><polygon class="body" points="33.41 47.9 31.68 48.83 31.21 48.48 32.92 47.54 33.41 47.9"/><path class="body" d="M33.25,86.93l-.44.19A.9.9,0,0,1,32,87l1.62-.88C33.78,86.44,33.65,86.76,33.25,86.93Z" transform="translate(0.71 -37.45)"/></svg>