<svg id="Capa_1" data-name="Capa 1" xmlns="http://www.w3.org/2000/svg"
    xmlns:xlink="http://www.w3.org/1999/xlink" viewBox="0 0 1080 1350">
    <defs>
        <style>
            .cls-1{fill:#1e1e1e;}.cls-2{fill:url(#linear-gradient);}.cls-3{fill:url(#linear-gradient-2);}.cls-4{fill:url(#linear-gradient-3);}.cls-5{fill:url(#linear-gradient-4);}.cls-6{fill:url(#linear-gradient-5);}.cls-7{fill:url(#linear-gradient-6);}.cls-8{fill:url(#linear-gradient-7);}.cls-9{fill:url(#linear-gradient-8);}.cls-10{fill:url(#linear-gradient-9);}.cls-11{fill:url(#linear-gradient-10);}.cls-12{fill:url(#linear-gradient-11);}.cls-13{fill:url(#linear-gradient-12);}.cls-14{fill:#0396F6;}.cls-15{fill:url(#linear-gradient-14);}.cls-16{fill:url(#linear-gradient-15);}.cls-17{fill:url(#linear-gradient-22);}.cls-18{fill:url(#linear-gradient-29);}.cls-19{fill:url(#linear-gradient-30);}.cls-20{fill:url(#linear-gradient-31);}.cls-21{fill:url(#linear-gradient-32);}.cls-22{fill:url(#linear-gradient-33);}.cls-23{fill:url(#linear-gradient-34);}.cls-24{fill:url(#linear-gradient-35);}.cls-25{fill:url(#linear-gradient-36);}.cls-26{fill:url(#linear-gradient-37);}.cls-27{fill:url(#linear-gradient-38);}.cls-28{fill:url(#linear-gradient-39);}.cls-29{fill:url(#linear-gradient-40);}.cls-30{fill:url(#linear-gradient-41);}.cls-31{fill:url(#linear-gradient-42);}.cls-32{fill:url(#linear-gradient-43);}.cls-33{fill:url(#linear-gradient-44);}.cls-34{fill:url(#linear-gradient-45);}.cls-35{fill:url(#linear-gradient-46);}.cls-36{fill:url(#linear-gradient-47);}.cls-37{fill:url(#linear-gradient-48);}.cls-38{fill:url(#linear-gradient-49);}.cls-39{fill:url(#linear-gradient-50);}.cls-40{fill:url(#linear-gradient-51);}.cls-41{fill:url(#linear-gradient-52);}.cls-42{fill:url(#linear-gradient-53);}.cls-43{fill:url(#linear-gradient-54);}.cls-44{fill:url(#linear-gradient-55);}.cls-45{fill:url(#linear-gradient-56);}.cls-46{fill:url(#linear-gradient-57);}.cls-47{fill:url(#linear-gradient-58);}.cls-48{fill:url(#linear-gradient-59);}.cls-49{fill:url(#linear-gradient-60);}.cls-50{fill:url(#linear-gradient-61);}.cls-51{fill:url(#linear-gradient-62);}.cls-52{fill:url(#linear-gradient-63);}.cls-53{fill:url(#linear-gradient-64);}.cls-54{fill:url(#linear-gradient-65);}.cls-55{fill:url(#linear-gradient-66);}.cls-56{fill:url(#linear-gradient-67);}.cls-57{fill:url(#linear-gradient-68);}.cls-58{fill:url(#linear-gradient-69);}.cls-59{fill:#8e8b9e;}.cls-60{fill:#84858e;}.cls-61{fill:#bcbadc;}.cls-62{fill:#131313;}.cls-63{fill:url(#linear-gradient-70);}.cls-64{fill:url(#linear-gradient-71);}.cls-65{fill:url(#linear-gradient-72);}.cls-66{fill:url(#linear-gradient-73);}.cls-67{fill:url(#linear-gradient-74);}.cls-68{fill:url(#linear-gradient-75);}.cls-69{fill:url(#linear-gradient-76);}.cls-70{fill:url(#linear-gradient-77);}.cls-71{fill:url(#linear-gradient-78);}.cls-72{fill:url(#linear-gradient-79);}.cls-73{fill:url(#linear-gradient-80);}.cls-74{fill:url(#linear-gradient-81);}.cls-75{fill:url(#linear-gradient-82);}.cls-76{fill:url(#linear-gradient-83);}.cls-77{fill:url(#linear-gradient-84);}.cls-78{fill:url(#linear-gradient-91);}.cls-79{fill:url(#linear-gradient-98);}.cls-80{fill:url(#linear-gradient-99);}.cls-81{fill:url(#linear-gradient-100);}.cls-82{fill:url(#linear-gradient-101);}.cls-83{fill:url(#linear-gradient-102);}.cls-84{fill:url(#linear-gradient-103);}.cls-85{fill:url(#linear-gradient-104);}.cls-86{fill:url(#linear-gradient-105);}.cls-87{fill:url(#linear-gradient-106);}.cls-88{fill:url(#linear-gradient-107);}.cls-89{fill:url(#linear-gradient-108);}.cls-90{fill:url(#linear-gradient-109);}.cls-91{fill:url(#linear-gradient-110);}.cls-92{fill:url(#linear-gradient-111);}.cls-93{fill:url(#linear-gradient-112);}.cls-94{fill:url(#linear-gradient-113);}.cls-95{fill:url(#linear-gradient-114);}.cls-96{fill:url(#linear-gradient-115);}.cls-97{fill:url(#linear-gradient-116);}.cls-98{fill:url(#linear-gradient-117);}.cls-99{fill:url(#linear-gradient-118);}.cls-100{fill:url(#linear-gradient-119);}.cls-101{fill:url(#linear-gradient-120);}.cls-102{fill:url(#linear-gradient-121);}.cls-103{fill:url(#linear-gradient-122);}.cls-104{fill:url(#linear-gradient-123);}.cls-105{fill:url(#linear-gradient-124);}.cls-106{fill:url(#linear-gradient-125);}.cls-107{fill:url(#linear-gradient-126);}.cls-108{fill:url(#linear-gradient-127);}.cls-109{fill:url(#linear-gradient-128);}.cls-110{fill:url(#linear-gradient-129);}.cls-111{fill:url(#linear-gradient-130);}.cls-112{fill:url(#linear-gradient-131);}.cls-113{fill:url(#linear-gradient-132);}.cls-114{fill:url(#linear-gradient-133);}.cls-115{fill:url(#linear-gradient-134);}.cls-116{fill:url(#linear-gradient-135);}.cls-117{fill:url(#linear-gradient-136);}.cls-118{fill:url(#linear-gradient-137);}.cls-119{fill:url(#linear-gradient-138);}.cls-120{fill:url(#linear-gradient-13);}.cls-121,.cls-122{fill:#353535;}.cls-121{opacity:0.29;}.cls-123{fill:#b1b1b1;}.cls-124{fill:#a4a4a4;}.cls-125{fill:#bebebe;}.cls-126{fill:#292929;}.cls-127{fill:#fff;}.cls-128{fill:#1d232a;}.cls-129{fill:#a5abaf;}.cls-130{fill:#383f48;}.cls-131{fill:#c3bfe2;}.cls-132{fill:#b4babe;}.cls-133{fill:url(#linear-gradient-139);}.cls-134{fill:url(#linear-gradient-140);}.cls-135{fill:#4a4a56;}.cls-136{fill:#636363;}</style>
        <linearGradient id="linear-gradient" x1="6763.12" y1="548.69" x2="6762.85" y2="548.22"
            gradientTransform="matrix(-0.77, 0, 0, 0.64, 6134.85, 370.33)"
            gradientUnits="userSpaceOnUse">
            <stop offset="0" stop-color="#181818" />
            <stop offset="0.27" stop-color="#262626" />
            <stop offset="0.77" stop-color="#2e2e2e" />
        </linearGradient>
        <linearGradient id="linear-gradient-2" x1="6764.25" y1="548.16" x2="6764.01" y2="547.73"
            xlink:href="#linear-gradient" />
        <linearGradient id="linear-gradient-3" x1="6772.94" y1="549.11" x2="6771.1" y2="545.92"
            xlink:href="#linear-gradient" />
        <linearGradient id="linear-gradient-4" x1="6791.44" y1="568.43" x2="6780.17" y2="548.91"
            xlink:href="#linear-gradient" />
        <linearGradient id="linear-gradient-5" x1="6814.95" y1="575.94" x2="6806.28" y2="560.94"
            xlink:href="#linear-gradient" />
        <linearGradient id="linear-gradient-6" x1="6831.54" y1="650.78" x2="6796.27" y2="589.67"
            xlink:href="#linear-gradient" />
        <linearGradient id="linear-gradient-7" x1="6835.09" y1="598.93" x2="6832.12" y2="593.79"
            xlink:href="#linear-gradient" />
        <linearGradient id="linear-gradient-8" x1="6838.65" y1="604.97" x2="6835.14" y2="598.9"
            xlink:href="#linear-gradient" />
        <linearGradient id="linear-gradient-9" x1="6847.56" y1="624" x2="6844.06" y2="617.95"
            xlink:href="#linear-gradient" />
        <linearGradient id="linear-gradient-10" x1="6852.33" y1="636.46" x2="6845.75" y2="625.05"
            xlink:href="#linear-gradient" />
        <linearGradient id="linear-gradient-11" x1="6852.77" y1="692.71" x2="6851.39" y2="690.31"
            xlink:href="#linear-gradient" />
        <linearGradient id="linear-gradient-12" x1="6854.54" y1="686.65" x2="6853.11" y2="684.18"
            xlink:href="#linear-gradient" />
        <linearGradient id="linear-gradient-13" x1="6856.16" y1="681.57" x2="6853.57" y2="677.08"
            xlink:href="#linear-gradient" />
        <linearGradient id="linear-gradient-14" x1="6858.4" y1="673.83" x2="6848.25" y2="656.25"
            xlink:href="#linear-gradient" />
        <linearGradient id="linear-gradient-15" x1="6499.03" y1="697.36" x2="6403.71" y2="532.25"
            gradientTransform="matrix(-0.77, 0, 0, 0.64, 5848.1, 370.33)"
            xlink:href="#linear-gradient" />
        <linearGradient id="linear-gradient-22" x1="6829.55" y1="651.93" x2="6794.28" y2="590.82"
            xlink:href="#linear-gradient" />
        <linearGradient id="linear-gradient-29" x1="6499.73" y1="696.02" x2="6405.11" y2="532.13"
            gradientTransform="matrix(-0.77, 0, 0, 0.64, 5848.1, 370.33)"
            xlink:href="#linear-gradient" />
        <linearGradient id="linear-gradient-30" x1="6763.91" y1="548.39" x2="6764.39" y2="547.56"
            gradientTransform="matrix(-0.77, 0, 0, 0.64, 6134.85, 370.33)"
            gradientUnits="userSpaceOnUse">
            <stop offset="0" stop-color="#141414" />
            <stop offset="0.44" stop-color="#1e1e1e" />
            <stop offset="0.78" stop-color="#202020" />
            <stop offset="0.98" stop-color="#292929" />
            <stop offset="1" stop-color="#2a2a2a" />
        </linearGradient>
        <linearGradient id="linear-gradient-31" x1="6771.23" y1="548.88" x2="6772.81" y2="546.15"
            xlink:href="#linear-gradient-30" />
        <linearGradient id="linear-gradient-32" x1="6765.49" y1="618.64" x2="6773.65" y2="604.51"
            xlink:href="#linear-gradient-30" />
        <linearGradient id="linear-gradient-33" x1="6781.68" y1="657.24" x2="6789.83" y2="643.12"
            xlink:href="#linear-gradient-30" />
        <linearGradient id="linear-gradient-34" x1="6781.71" y1="565.72" x2="6789.5" y2="552.24"
            xlink:href="#linear-gradient-30" />
        <linearGradient id="linear-gradient-35" x1="6808.8" y1="572.22" x2="6812.26" y2="566.22"
            xlink:href="#linear-gradient-30" />
        <linearGradient id="linear-gradient-36" x1="6832.97" y1="597.55" x2="6834.4" y2="595.06"
            xlink:href="#linear-gradient-30" />
        <linearGradient id="linear-gradient-37" x1="6835.97" y1="603.52" x2="6837.81" y2="600.35"
            xlink:href="#linear-gradient-30" />
        <linearGradient id="linear-gradient-38" x1="6742.41" y1="631.71" x2="6745.19" y2="626.89"
            xlink:href="#linear-gradient-30" />
        <linearGradient id="linear-gradient-39" x1="6756.26" y1="552.12" x2="6758.1" y2="548.92"
            xlink:href="#linear-gradient-30" />
        <linearGradient id="linear-gradient-40" x1="6762.59" y1="548.81" x2="6763.07" y2="547.99"
            xlink:href="#linear-gradient-30" />
        <linearGradient id="linear-gradient-41" x1="6803.67" y1="709.6" x2="6803.91" y2="709.18"
            xlink:href="#linear-gradient-30" />
        <linearGradient id="linear-gradient-42" x1="6795.75" y1="645.09" x2="6820.97" y2="601.41"
            xlink:href="#linear-gradient-30" />
        <linearGradient id="linear-gradient-43" x1="6844.69" y1="622.92" x2="6846.93" y2="619.03"
            xlink:href="#linear-gradient-30" />
        <linearGradient id="linear-gradient-44" x1="6846.91" y1="634.58" x2="6851.4" y2="626.79"
            xlink:href="#linear-gradient-30" />
        <linearGradient id="linear-gradient-45" x1="6851.04" y1="693.31" x2="6853.12" y2="689.7"
            xlink:href="#linear-gradient-30" />
        <linearGradient id="linear-gradient-46" x1="6852.87" y1="687.07" x2="6854.78" y2="683.76"
            xlink:href="#linear-gradient-30" />
        <linearGradient id="linear-gradient-47" x1="6853.36" y1="681.94" x2="6856.37" y2="676.72"
            xlink:href="#linear-gradient-30" />
        <linearGradient id="linear-gradient-48" x1="6848.49" y1="671.73" x2="6856.67" y2="657.57"
            xlink:href="#linear-gradient-30" />
        <linearGradient id="linear-gradient-49" x1="6402.9" y1="675.02" x2="6464.02" y2="569.17"
            gradientTransform="matrix(-0.77, 0, 0, 0.64, 5848.1, 370.33)"
            xlink:href="#linear-gradient-30" />
        <linearGradient id="linear-gradient-50" x1="6763.91" y1="548.39" x2="6764.39" y2="547.56"
            gradientTransform="matrix(-0.77, 0, 0, 0.64, 6134.85, 370.33)"
            gradientUnits="userSpaceOnUse">
            <stop offset="0" stop-color="#161616" />
            <stop offset="0.3" stop-color="#1a1a1a" />
            <stop offset="0.79" stop-color="#1e1e1e" />
            <stop offset="0.8" stop-color="#1e1e1e" />
        </linearGradient>
        <linearGradient id="linear-gradient-51" x1="6771.23" y1="548.88" x2="6772.81" y2="546.15"
            xlink:href="#linear-gradient-50" />
        <linearGradient id="linear-gradient-52" x1="6765.49" y1="618.64" x2="6773.65" y2="604.51"
            xlink:href="#linear-gradient-50" />
        <linearGradient id="linear-gradient-53" x1="6781.68" y1="657.24" x2="6789.83" y2="643.12"
            xlink:href="#linear-gradient-50" />
        <linearGradient id="linear-gradient-54" x1="6781.71" y1="565.72" x2="6789.5" y2="552.24"
            xlink:href="#linear-gradient-50" />
        <linearGradient id="linear-gradient-55" x1="6808.8" y1="572.22" x2="6812.26" y2="566.22"
            xlink:href="#linear-gradient-50" />
        <linearGradient id="linear-gradient-56" x1="6832.97" y1="597.55" x2="6834.4" y2="595.06"
            xlink:href="#linear-gradient-50" />
        <linearGradient id="linear-gradient-57" x1="6835.97" y1="603.52" x2="6837.81" y2="600.35"
            xlink:href="#linear-gradient-50" />
        <linearGradient id="linear-gradient-58" x1="6742.41" y1="631.71" x2="6745.19" y2="626.89"
            xlink:href="#linear-gradient-50" />
        <linearGradient id="linear-gradient-59" x1="6756.26" y1="552.12" x2="6758.1" y2="548.92"
            xlink:href="#linear-gradient-50" />
        <linearGradient id="linear-gradient-60" x1="6762.59" y1="548.81" x2="6763.07" y2="547.99"
            xlink:href="#linear-gradient-50" />
        <linearGradient id="linear-gradient-61" x1="6803.67" y1="709.6" x2="6803.91" y2="709.18"
            xlink:href="#linear-gradient-50" />
        <linearGradient id="linear-gradient-62" x1="6795.75" y1="645.09" x2="6820.97" y2="601.41"
            xlink:href="#linear-gradient-50" />
        <linearGradient id="linear-gradient-63" x1="6844.69" y1="622.92" x2="6846.93" y2="619.03"
            xlink:href="#linear-gradient-50" />
        <linearGradient id="linear-gradient-64" x1="6846.91" y1="634.58" x2="6851.4" y2="626.79"
            xlink:href="#linear-gradient-50" />
        <linearGradient id="linear-gradient-65" x1="6851.04" y1="693.31" x2="6853.12" y2="689.7"
            xlink:href="#linear-gradient-50" />
        <linearGradient id="linear-gradient-66" x1="6852.87" y1="687.07" x2="6854.78" y2="683.76"
            xlink:href="#linear-gradient-50" />
        <linearGradient id="linear-gradient-67" x1="6853.36" y1="681.94" x2="6856.37" y2="676.72"
            xlink:href="#linear-gradient-50" />
        <linearGradient id="linear-gradient-68" x1="6848.49" y1="671.73" x2="6856.67" y2="657.57"
            xlink:href="#linear-gradient-50" />
        <linearGradient id="linear-gradient-69" x1="6402.9" y1="675.02" x2="6464.02" y2="569.17"
            gradientTransform="matrix(-0.77, 0, 0, 0.64, 5848.1, 370.33)"
            xlink:href="#linear-gradient-50" />
        <linearGradient id="linear-gradient-70" x1="7331.78" y1="973.34" x2="7331.51" y2="972.87"
            xlink:href="#linear-gradient" />
        <linearGradient id="linear-gradient-71" x1="7332.91" y1="972.82" x2="7332.66" y2="972.39"
            xlink:href="#linear-gradient" />
        <linearGradient id="linear-gradient-72" x1="7341.6" y1="973.76" x2="7339.76" y2="970.57"
            xlink:href="#linear-gradient" />
        <linearGradient id="linear-gradient-73" x1="7360.1" y1="993.09" x2="7348.83" y2="973.56"
            xlink:href="#linear-gradient" />
        <linearGradient id="linear-gradient-74" x1="7383.61" y1="1000.6" x2="7374.94" y2="985.59"
            xlink:href="#linear-gradient" />
        <linearGradient id="linear-gradient-75" x1="7400.2" y1="1075.43" x2="7364.93" y2="1014.33"
            xlink:href="#linear-gradient" />
        <linearGradient id="linear-gradient-76" x1="7403.74" y1="1023.58" x2="7400.77" y2="1018.44"
            xlink:href="#linear-gradient" />
        <linearGradient id="linear-gradient-77" x1="7407.31" y1="1029.62" x2="7403.8" y2="1023.55"
            xlink:href="#linear-gradient" />
        <linearGradient id="linear-gradient-78" x1="7416.22" y1="1048.66" x2="7412.72" y2="1042.6"
            xlink:href="#linear-gradient" />
        <linearGradient id="linear-gradient-79" x1="7420.99" y1="1061.11" x2="7414.4" y2="1049.7"
            xlink:href="#linear-gradient" />
        <linearGradient id="linear-gradient-80" x1="7421.43" y1="1117.36" x2="7420.05" y2="1114.96"
            xlink:href="#linear-gradient" />
        <linearGradient id="linear-gradient-81" x1="7423.19" y1="1111.3" x2="7421.77" y2="1108.83"
            xlink:href="#linear-gradient" />
        <linearGradient id="linear-gradient-82" x1="7424.82" y1="1106.23" x2="7422.23" y2="1101.73"
            xlink:href="#linear-gradient" />
        <linearGradient id="linear-gradient-83" x1="7427.06" y1="1098.48" x2="7416.9" y2="1080.9"
            xlink:href="#linear-gradient" />
        <linearGradient id="linear-gradient-84" x1="7067.69" y1="1122.01" x2="6972.37" y2="956.9"
            gradientTransform="matrix(-0.77, 0, 0, 0.64, 5848.1, 370.33)"
            xlink:href="#linear-gradient" />
        <linearGradient id="linear-gradient-91" x1="7398.21" y1="1076.58" x2="7362.94" y2="1015.48"
            xlink:href="#linear-gradient" />
        <linearGradient id="linear-gradient-98" x1="7068.39" y1="1120.67" x2="6973.77" y2="956.78"
            gradientTransform="matrix(-0.77, 0, 0, 0.64, 5848.1, 370.33)"
            xlink:href="#linear-gradient" />
        <linearGradient id="linear-gradient-99" x1="7332.56" y1="973.05" x2="7333.04" y2="972.21"
            xlink:href="#linear-gradient-30" />
        <linearGradient id="linear-gradient-100" x1="7339.89" y1="973.53" x2="7341.46" y2="970.8"
            xlink:href="#linear-gradient-30" />
        <linearGradient id="linear-gradient-101" x1="7334.15" y1="1043.3" x2="7342.31" y2="1029.16"
            xlink:href="#linear-gradient-30" />
        <linearGradient id="linear-gradient-102" x1="7350.34" y1="1081.89" x2="7358.49" y2="1067.77"
            xlink:href="#linear-gradient-30" />
        <linearGradient id="linear-gradient-103" x1="7350.37" y1="990.38" x2="7358.16" y2="976.89"
            xlink:href="#linear-gradient-30" />
        <linearGradient id="linear-gradient-104" x1="7377.46" y1="996.87" x2="7380.92" y2="990.87"
            xlink:href="#linear-gradient-30" />
        <linearGradient id="linear-gradient-105" x1="7401.63" y1="1022.2" x2="7403.06" y2="1019.72"
            xlink:href="#linear-gradient-30" />
        <linearGradient id="linear-gradient-106" x1="7404.63" y1="1028.18" x2="7406.47" y2="1025"
            xlink:href="#linear-gradient-30" />
        <linearGradient id="linear-gradient-107" x1="7311.07" y1="1056.36" x2="7313.85" y2="1051.55"
            xlink:href="#linear-gradient-30" />
        <linearGradient id="linear-gradient-108" x1="7324.91" y1="976.77" x2="7326.76" y2="973.58"
            xlink:href="#linear-gradient-30" />
        <linearGradient id="linear-gradient-109" x1="7331.25" y1="973.46" x2="7331.72" y2="972.64"
            xlink:href="#linear-gradient-30" />
        <linearGradient id="linear-gradient-110" x1="7372.33" y1="1134.25" x2="7372.57" y2="1133.84"
            xlink:href="#linear-gradient-30" />
        <linearGradient id="linear-gradient-111" x1="7364.41" y1="1069.75" x2="7389.62" y2="1026.07"
            xlink:href="#linear-gradient-30" />
        <linearGradient id="linear-gradient-112" x1="7413.35" y1="1047.57" x2="7415.59" y2="1043.69"
            xlink:href="#linear-gradient-30" />
        <linearGradient id="linear-gradient-113" x1="7415.56" y1="1059.23" x2="7420.06" y2="1051.45"
            xlink:href="#linear-gradient-30" />
        <linearGradient id="linear-gradient-114" x1="7419.7" y1="1117.96" x2="7421.78" y2="1114.35"
            xlink:href="#linear-gradient-30" />
        <linearGradient id="linear-gradient-115" x1="7421.53" y1="1111.73" x2="7423.44" y2="1108.41"
            xlink:href="#linear-gradient-30" />
        <linearGradient id="linear-gradient-116" x1="7422.02" y1="1106.59" x2="7425.03" y2="1101.37"
            xlink:href="#linear-gradient-30" />
        <linearGradient id="linear-gradient-117" x1="7417.15" y1="1096.39" x2="7425.32" y2="1082.22"
            xlink:href="#linear-gradient-30" />
        <linearGradient id="linear-gradient-118" x1="6971.56" y1="1099.67" x2="7032.67" y2="993.82"
            gradientTransform="matrix(-0.77, 0, 0, 0.64, 5848.1, 370.33)"
            xlink:href="#linear-gradient-30" />
        <linearGradient id="linear-gradient-119" x1="7332.56" y1="973.05" x2="7333.04" y2="972.21"
            xlink:href="#linear-gradient-50" />
        <linearGradient id="linear-gradient-120" x1="7339.89" y1="973.53" x2="7341.46" y2="970.8"
            xlink:href="#linear-gradient-50" />
        <linearGradient id="linear-gradient-121" x1="7334.15" y1="1043.3" x2="7342.31" y2="1029.16"
            xlink:href="#linear-gradient-50" />
        <linearGradient id="linear-gradient-122" x1="7350.34" y1="1081.89" x2="7358.49" y2="1067.77"
            xlink:href="#linear-gradient-50" />
        <linearGradient id="linear-gradient-123" x1="7350.37" y1="990.38" x2="7358.16" y2="976.89"
            xlink:href="#linear-gradient-50" />
        <linearGradient id="linear-gradient-124" x1="7377.46" y1="996.87" x2="7380.92" y2="990.87"
            xlink:href="#linear-gradient-50" />
        <linearGradient id="linear-gradient-125" x1="7401.63" y1="1022.2" x2="7403.06" y2="1019.72"
            xlink:href="#linear-gradient-50" />
        <linearGradient id="linear-gradient-126" x1="7404.63" y1="1028.18" x2="7406.47" y2="1025"
            xlink:href="#linear-gradient-50" />
        <linearGradient id="linear-gradient-127" x1="7311.07" y1="1056.36" x2="7313.85" y2="1051.55"
            xlink:href="#linear-gradient-50" />
        <linearGradient id="linear-gradient-128" x1="7324.91" y1="976.77" x2="7326.76" y2="973.58"
            xlink:href="#linear-gradient-50" />
        <linearGradient id="linear-gradient-129" x1="7331.25" y1="973.46" x2="7331.72" y2="972.64"
            xlink:href="#linear-gradient-50" />
        <linearGradient id="linear-gradient-130" x1="7372.33" y1="1134.25" x2="7372.57" y2="1133.84"
            xlink:href="#linear-gradient-50" />
        <linearGradient id="linear-gradient-131" x1="7364.41" y1="1069.75" x2="7389.62" y2="1026.07"
            xlink:href="#linear-gradient-50" />
        <linearGradient id="linear-gradient-132" x1="7413.35" y1="1047.57" x2="7415.59" y2="1043.69"
            xlink:href="#linear-gradient-50" />
        <linearGradient id="linear-gradient-133" x1="7415.56" y1="1059.23" x2="7420.06" y2="1051.45"
            xlink:href="#linear-gradient-50" />
        <linearGradient id="linear-gradient-134" x1="7419.7" y1="1117.96" x2="7421.78" y2="1114.35"
            xlink:href="#linear-gradient-50" />
        <linearGradient id="linear-gradient-135" x1="7421.53" y1="1111.73" x2="7423.44" y2="1108.41"
            xlink:href="#linear-gradient-50" />
        <linearGradient id="linear-gradient-136" x1="7422.02" y1="1106.59" x2="7425.03" y2="1101.37"
            xlink:href="#linear-gradient-50" />
        <linearGradient id="linear-gradient-137" x1="7417.15" y1="1096.39" x2="7425.32" y2="1082.22"
            xlink:href="#linear-gradient-50" />
        <linearGradient id="linear-gradient-138" x1="6971.56" y1="1099.67" x2="7032.67" y2="993.82"
            gradientTransform="matrix(-0.77, 0, 0, 0.64, 5848.1, 370.33)"
            xlink:href="#linear-gradient-50" />
        <linearGradient id="linear-gradient-139" x1="10827.87" y1="847.76" x2="10836.95" y2="832.04"
            gradientTransform="matrix(-1, 0, 0, 1, 11354.83, 0)" xlink:href="#linear-gradient-50" />
        <linearGradient id="linear-gradient-140" x1="10805.07" y1="855.12" x2="10825.25" y2="820.17"
            gradientTransform="matrix(-1, 0, 0, 1, 11354.83, 0)" xlink:href="#linear-gradient-50" />
    </defs>
    <path class="cls-1"
        d="M865.38,684.64c17.37-9.65,33.11-10.55,44.48-4.19l32.47,18.17-.11-.06c11.28,6.26,18.29,19.63,18.35,38.66.11,38.2-27.8,84.74-62.32,103.93-18.48,10.27-35,10.55-46.54,2.81.68.47,1.33,1,2,1.38L821.3,827.18c-11.23-6.28-18.19-19.64-18.24-38.61C802.94,750.37,830.85,703.84,865.38,684.64Zm32.8,132.08c22.32-12.41,40.38-42.52,40.3-67.22s-18.24-34.67-40.57-22.26-40.38,42.52-40.3,67.22S875.86,829.12,898.18,816.72Z" />
    <path class="cls-2" d="M926.42,723.17c.11.19.33.29.43.49l.22-.3A1.61,1.61,0,0,0,926.42,723.17Z" />
    <path class="cls-3" d="M925.25,723c.43.1.75.1,1.07.2l-.11-.1Z" />
    <path class="cls-4"
        d="M917.09,722.87a31.67,31.67,0,0,1,5.26-.2,5.62,5.62,0,0,0-1.29-.1h-.43c-.75,0-1.4.1-2,.1C918.16,722.77,917.63,722.77,917.09,722.87Z" />
    <path class="cls-5"
        d="M905.82,736.66c2.47.6,6-2,7.94-5.66,1.61-3.17,1.4-6.35-.54-7.44h-.1a25.45,25.45,0,0,0-3.44.9c-.85.29-1.71.59-2.68,1a11.85,11.85,0,0,0-2.47,3.37C902.6,732.59,903.24,736.07,905.82,736.66Z" />
    <path class="cls-6"
        d="M884.57,740a4.41,4.41,0,0,0,4.4-.2,11.71,11.71,0,0,0,5.58-7.84A91.5,91.5,0,0,0,884.57,740Z" />
    <path class="cls-7"
        d="M874.05,781.32c0,6.85,3.44,11,8.7,11.51l.75-1.19c-3-1.49-4.94-4.86-4.94-9.73,0-9.42,7.3-21,16.21-25.8,4.72-2.48,8.9-2.58,11.91-.79l.75-1.19c-3.11-4.17-8.91-5-15.56-1.39C882,758.1,874.05,770.8,874.05,781.32Z" />
    <path class="cls-8"
        d="M871.05,755.81a9.66,9.66,0,0,0,1.07-1.19,10.7,10.7,0,0,0,1.29-2.08C872.55,753.63,871.8,754.72,871.05,755.81Z" />
    <path class="cls-9"
        d="M868.47,759.78c.86-1.38,1.72-2.68,2.58-4-.86,1.2-1.61,2.49-2.47,3.68A.34.34,0,0,0,868.47,759.78Z" />
    <path class="cls-10"
        d="M861.92,772.19c.65-1.39,1.29-2.78,1.94-4.27-.32.6-.54,1.19-.86,1.69C862.68,770.5,862.25,771.3,861.92,772.19Z" />
    <path class="cls-11"
        d="M858.71,780.43a11.84,11.84,0,0,0,3-5.06,6.59,6.59,0,0,0,.21-3.18c-.53,1.09-1,2.18-1.39,3.27a23.42,23.42,0,0,0-1.07,2.88A15.89,15.89,0,0,0,858.71,780.43Z" />
    <path class="cls-12"
        d="M857.53,814.17a7.07,7.07,0,0,0,.53,1.59c.22.29.33.69.54,1A19.13,19.13,0,0,1,857.53,814.17Z" />
    <path class="cls-13"
        d="M856.34,810.3l.33,1.49a2.89,2.89,0,0,1,.43,1A17.07,17.07,0,0,1,856.34,810.3Z" />
    <path class="cls-120"
        d="M855.59,805.53c.11.9.22,1.79.33,2.58a7.35,7.35,0,0,0,.32,1.59C856,808.31,855.81,807,855.59,805.53Z" />
    <path class="cls-15"
        d="M855.27,800.57a32.74,32.74,0,0,0,.32,4.67,8.16,8.16,0,0,0,2.47-1.59c3-2.58,4.62-6.85,3.65-9.53-.86-2.28-3.22-2.68-5.9-1.09v.1A59.51,59.51,0,0,0,855.27,800.57Z" />
    <path class="cls-16"
        d="M849.27,800.76c0,11.4,3.47,19.93,9.4,25.34a6.8,6.8,0,0,0,1.74,1.43l.46-.59a8.72,8.72,0,0,1-1.28-1.44c-4.75-5.4-7.4-13.34-7.4-23.22a51.84,51.84,0,0,1,.37-6.58c2.92-26.94,23.47-57.43,48.12-70.68,9.41-5.07,18.36-6.93,25.85-5.83a17,17,0,0,1,2.83.59h.09l.27-.51c-1-.33-2.1-.76-3.19-1.09-8.13-1.95-18-.51-28.86,5.32C870.91,737.77,849.27,772.3,849.27,800.76Z" />
    <path class="cls-3" d="M925.25,723c.43.1.75.1,1.07.2l-.11-.1Z" />
    <path class="cls-4"
        d="M917.09,722.87a31.67,31.67,0,0,1,5.26-.2,5.62,5.62,0,0,0-1.29-.1h-.43c-.75,0-1.4.1-2,.1C918.16,722.77,917.63,722.77,917.09,722.87Z" />
    <path class="cls-5"
        d="M905.82,736.66c2.47.6,6-2,7.94-5.66,1.61-3.17,1.4-6.35-.54-7.44h-.1a25.45,25.45,0,0,0-3.44.9c-.85.29-1.71.59-2.68,1a11.85,11.85,0,0,0-2.47,3.37C902.6,732.59,903.24,736.07,905.82,736.66Z" />
    <path class="cls-6"
        d="M884.57,740a4.41,4.41,0,0,0,4.4-.2,11.71,11.71,0,0,0,5.58-7.84A91.5,91.5,0,0,0,884.57,740Z" />
    <path class="cls-8"
        d="M871.05,755.81a9.66,9.66,0,0,0,1.07-1.19,10.7,10.7,0,0,0,1.29-2.08C872.55,753.63,871.8,754.72,871.05,755.81Z" />
    <path class="cls-9"
        d="M868.47,759.78c.86-1.38,1.72-2.68,2.58-4-.86,1.2-1.61,2.49-2.47,3.68A.34.34,0,0,0,868.47,759.78Z" />
    <path class="cls-17"
        d="M874.05,781.32c0,6.85,3.44,11,8.7,11.51a10.66,10.66,0,0,0,4.29-.3,10.14,10.14,0,0,1-3.54-.89c-3-1.49-4.94-4.86-4.94-9.73,0-9.42,7.3-21,16.21-25.8,4.72-2.48,8.9-2.58,11.91-.79A7.13,7.13,0,0,1,909,757.6a11.78,11.78,0,0,0-1.61-3.47c-3.11-4.17-8.91-5-15.56-1.39C882,758.1,874.05,770.8,874.05,781.32Z" />
    <path class="cls-10"
        d="M861.92,772.19c.65-1.39,1.29-2.78,1.94-4.27-.32.6-.54,1.19-.86,1.69C862.68,770.5,862.25,771.3,861.92,772.19Z" />
    <path class="cls-11"
        d="M858.71,780.43a11.84,11.84,0,0,0,3-5.06,6.59,6.59,0,0,0,.21-3.18c-.53,1.09-1,2.18-1.39,3.27a23.42,23.42,0,0,0-1.07,2.88A15.89,15.89,0,0,0,858.71,780.43Z" />
    <path class="cls-12"
        d="M857.53,814.17a7.07,7.07,0,0,0,.53,1.59c.22.29.33.69.54,1A19.13,19.13,0,0,1,857.53,814.17Z" />
    <path class="cls-13"
        d="M856.34,810.3l.33,1.49a2.89,2.89,0,0,1,.43,1A17.07,17.07,0,0,1,856.34,810.3Z" />
    <path class="cls-120"
        d="M855.59,805.53c.11.9.22,1.79.33,2.58a7.35,7.35,0,0,0,.32,1.59C856,808.31,855.81,807,855.59,805.53Z" />
    <path class="cls-15"
        d="M855.27,800.57a32.74,32.74,0,0,0,.32,4.67,8.16,8.16,0,0,0,2.47-1.59c3-2.58,4.62-6.85,3.65-9.53-.86-2.28-3.22-2.68-5.9-1.09v.1A59.51,59.51,0,0,0,855.27,800.57Z" />
    <path class="cls-18"
        d="M849.27,800.76c0,11.4,3.47,19.93,9.4,25.34.37-.26.55-.34.92-.6-4.75-5.4-7.4-13.34-7.4-23.22a51.84,51.84,0,0,1,.37-6.58c2.92-26.94,23.47-57.43,48.12-70.68,9.41-5.07,18.36-6.93,25.85-5.83a3.78,3.78,0,0,0,0-1c-8.13-1.95-18-.51-28.86,5.32C870.91,737.77,849.27,772.3,849.27,800.76Z" />
    <path class="cls-19" d="M925.25,723c.43.1.75.1,1.07.2l-.11-.1Z" />
    <path class="cls-20"
        d="M917.09,722.87a31.67,31.67,0,0,1,5.26-.2,5.62,5.62,0,0,0-1.29-.1h-.43c-.75,0-1.4.1-2,.1C918.16,722.77,917.63,722.77,917.09,722.87Z" />
    <path class="cls-21"
        d="M919.88,770.7c3-.59,6.22-4.07,7.19-7.74s-.75-6.25-3.76-5.66-6.11,4-7.08,7.74S916.87,771.3,919.88,770.7Z" />
    <path class="cls-22"
        d="M904.53,794.91c1.83,1.69,5.37.4,7.94-3s3.12-7.35,1.29-9.13-5.47-.4-7.94,3S902.71,793.13,904.53,794.91Z" />
    <path class="cls-23"
        d="M905.82,736.66c2.47.6,6-2,7.94-5.66,1.61-3.17,1.4-6.35-.54-7.44h-.1a25.45,25.45,0,0,0-3.44.9c-.85.29-1.71.59-2.68,1a11.85,11.85,0,0,0-2.47,3.37C902.6,732.59,903.24,736.07,905.82,736.66Z" />
    <path class="cls-24"
        d="M884.57,740a4.41,4.41,0,0,0,4.4-.2,11.71,11.71,0,0,0,5.58-7.84A91.5,91.5,0,0,0,884.57,740Z" />
    <path class="cls-25"
        d="M871.05,755.81a9.66,9.66,0,0,0,1.07-1.19,10.7,10.7,0,0,0,1.29-2.08C872.55,753.63,871.8,754.72,871.05,755.81Z" />
    <path class="cls-26"
        d="M868.47,759.78c.86-1.38,1.72-2.68,2.58-4-.86,1.2-1.61,2.49-2.47,3.68A.34.34,0,0,0,868.47,759.78Z" />
    <path class="cls-27"
        d="M942,773.78c-.43,1.39-1,2.78-1.51,4.16a46.87,46.87,0,0,0,1.94-5.06A3.36,3.36,0,0,0,942,773.78Z" />
    <path class="cls-28"
        d="M931.15,724.55a7,7,0,0,0-1.51-.49,10.19,10.19,0,0,1,2.37,1.09l.1.1a1.24,1.24,0,0,1,.54.1c-.32-.2-.64-.3-1-.5a13.33,13.33,0,0,0-.43-.2C931.15,724.65,931.15,724.65,931.15,724.55Z" />
    <path class="cls-29" d="M927.07,723.36a1.61,1.61,0,0,0-.65-.19c.11.19.33.29.43.49Z" />
    <path class="cls-30"
        d="M892.62,828.06a46,46,0,0,0,5.26-2.18c-.86.39-1.83.79-2.68,1.09S893.48,827.76,892.62,828.06Z" />
    <path class="cls-31"
        d="M874.05,781.32c0,6.85,3.44,11,8.7,11.51a10.66,10.66,0,0,0,4.29-.3,10.14,10.14,0,0,1-3.54-.89c-3-1.49-4.94-4.86-4.94-9.73,0-9.42,7.3-21,16.21-25.8,4.72-2.48,8.9-2.58,11.91-.79A7.13,7.13,0,0,1,909,757.6a11.78,11.78,0,0,0-1.61-3.47c-3.11-4.17-8.91-5-15.56-1.39C882,758.1,874.05,770.8,874.05,781.32Z" />
    <path class="cls-32"
        d="M861.92,772.19c.65-1.39,1.29-2.78,1.94-4.27-.32.6-.54,1.19-.86,1.69C862.68,770.5,862.25,771.3,861.92,772.19Z" />
    <path class="cls-33"
        d="M858.71,780.43a11.84,11.84,0,0,0,3-5.06,6.59,6.59,0,0,0,.21-3.18c-.53,1.09-1,2.18-1.39,3.27a23.42,23.42,0,0,0-1.07,2.88A15.89,15.89,0,0,0,858.71,780.43Z" />
    <path class="cls-34"
        d="M857.53,814.17a7.07,7.07,0,0,0,.53,1.59c.22.29.33.69.54,1A19.13,19.13,0,0,1,857.53,814.17Z" />
    <path class="cls-35"
        d="M856.34,810.3l.33,1.49a2.89,2.89,0,0,1,.43,1A17.07,17.07,0,0,1,856.34,810.3Z" />
    <path class="cls-36"
        d="M855.59,805.53c.11.9.22,1.79.33,2.58a7.35,7.35,0,0,0,.32,1.59C856,808.31,855.81,807,855.59,805.53Z" />
    <path class="cls-37"
        d="M855.27,800.57a32.74,32.74,0,0,0,.32,4.67,8.16,8.16,0,0,0,2.47-1.59c3-2.58,4.62-6.85,3.65-9.53-.86-2.28-3.22-2.68-5.9-1.09v.1A59.51,59.51,0,0,0,855.27,800.57Z" />
    <path class="cls-38"
        d="M849.27,800.76c0,11.4,3.47,19.93,9.4,25.34a6.8,6.8,0,0,0,1.74,1.43l.09.17a29.85,29.85,0,0,0,4.29,2.45,23.14,23.14,0,0,1-3.92-3.21,8.72,8.72,0,0,1-1.28-1.44c-4.75-5.4-7.4-13.34-7.4-23.22a51.84,51.84,0,0,1,.37-6.58c2.92-26.94,23.47-57.43,48.12-70.68,9.41-5.07,18.36-6.93,25.85-5.83a17,17,0,0,1,2.83.59h.09a22.14,22.14,0,0,1,4,1.44,12.81,12.81,0,0,0-3.75-2c-1-.33-2.1-.76-3.19-1.09-8.13-1.95-18-.51-28.86,5.32C870.91,737.77,849.27,772.3,849.27,800.76Z" />
    <path class="cls-39" d="M925.25,723c.43.1.75.1,1.07.2l-.11-.1Z" />
    <path class="cls-40"
        d="M917.09,722.87a31.67,31.67,0,0,1,5.26-.2,5.62,5.62,0,0,0-1.29-.1h-.43c-.75,0-1.4.1-2,.1C918.16,722.77,917.63,722.77,917.09,722.87Z" />
    <path class="cls-41"
        d="M919.88,770.7c3-.59,6.22-4.07,7.19-7.74s-.75-6.25-3.76-5.66-6.11,4-7.08,7.74S916.87,771.3,919.88,770.7Z" />
    <path class="cls-42"
        d="M904.53,794.91c1.83,1.69,5.37.4,7.94-3s3.12-7.35,1.29-9.13-5.47-.4-7.94,3S902.71,793.13,904.53,794.91Z" />
    <path class="cls-43"
        d="M905.82,736.66c2.47.6,6-2,7.94-5.66,1.61-3.17,1.4-6.35-.54-7.44h-.1a25.45,25.45,0,0,0-3.44.9c-.85.29-1.71.59-2.68,1a11.85,11.85,0,0,0-2.47,3.37C902.6,732.59,903.24,736.07,905.82,736.66Z" />
    <path class="cls-44"
        d="M884.57,740a4.41,4.41,0,0,0,4.4-.2,11.71,11.71,0,0,0,5.58-7.84A91.5,91.5,0,0,0,884.57,740Z" />
    <path class="cls-45"
        d="M871.05,755.81a9.66,9.66,0,0,0,1.07-1.19,10.7,10.7,0,0,0,1.29-2.08C872.55,753.63,871.8,754.72,871.05,755.81Z" />
    <path class="cls-46"
        d="M868.47,759.78c.86-1.38,1.72-2.68,2.58-4-.86,1.2-1.61,2.49-2.47,3.68A.34.34,0,0,0,868.47,759.78Z" />
    <path class="cls-47"
        d="M942,773.78c-.43,1.39-1,2.78-1.51,4.16a46.87,46.87,0,0,0,1.94-5.06A3.36,3.36,0,0,0,942,773.78Z" />
    <path class="cls-48"
        d="M931.15,724.55a7,7,0,0,0-1.51-.49,10.19,10.19,0,0,1,2.37,1.09l.1.1a1.24,1.24,0,0,1,.54.1c-.32-.2-.64-.3-1-.5a13.33,13.33,0,0,0-.43-.2C931.15,724.65,931.15,724.65,931.15,724.55Z" />
    <path class="cls-49" d="M927.07,723.36a1.61,1.61,0,0,0-.65-.19c.11.19.33.29.43.49Z" />
    <path class="cls-50"
        d="M892.62,828.06a46,46,0,0,0,5.26-2.18c-.86.39-1.83.79-2.68,1.09S893.48,827.76,892.62,828.06Z" />
    <path class="cls-51"
        d="M874.05,781.32c0,6.85,3.44,11,8.7,11.51a10.66,10.66,0,0,0,4.29-.3,10.14,10.14,0,0,1-3.54-.89c-3-1.49-4.94-4.86-4.94-9.73,0-9.42,7.3-21,16.21-25.8,4.72-2.48,8.9-2.58,11.91-.79A7.13,7.13,0,0,1,909,757.6a11.78,11.78,0,0,0-1.61-3.47c-3.11-4.17-8.91-5-15.56-1.39C882,758.1,874.05,770.8,874.05,781.32Z" />
    <path class="cls-52"
        d="M861.92,772.19c.65-1.39,1.29-2.78,1.94-4.27-.32.6-.54,1.19-.86,1.69C862.68,770.5,862.25,771.3,861.92,772.19Z" />
    <path class="cls-53"
        d="M858.71,780.43a11.84,11.84,0,0,0,3-5.06,6.59,6.59,0,0,0,.21-3.18c-.53,1.09-1,2.18-1.39,3.27a23.42,23.42,0,0,0-1.07,2.88A15.89,15.89,0,0,0,858.71,780.43Z" />
    <path class="cls-54"
        d="M857.53,814.17a7.07,7.07,0,0,0,.53,1.59c.22.29.33.69.54,1A19.13,19.13,0,0,1,857.53,814.17Z" />
    <path class="cls-55"
        d="M856.34,810.3l.33,1.49a2.89,2.89,0,0,1,.43,1A17.07,17.07,0,0,1,856.34,810.3Z" />
    <path class="cls-56"
        d="M855.59,805.53c.11.9.22,1.79.33,2.58a7.35,7.35,0,0,0,.32,1.59C856,808.31,855.81,807,855.59,805.53Z" />
    <path class="cls-57"
        d="M855.27,800.57a32.74,32.74,0,0,0,.32,4.67,8.16,8.16,0,0,0,2.47-1.59c3-2.58,4.62-6.85,3.65-9.53-.86-2.28-3.22-2.68-5.9-1.09v.1A59.51,59.51,0,0,0,855.27,800.57Z" />
    <path class="cls-58"
        d="M849.27,800.76c0,11.4,3.47,19.93,9.4,25.34a6.8,6.8,0,0,0,1.74,1.43l.09.17a29.85,29.85,0,0,0,4.29,2.45,23.14,23.14,0,0,1-3.92-3.21,8.72,8.72,0,0,1-1.28-1.44c-4.75-5.4-7.4-13.34-7.4-23.22a51.84,51.84,0,0,1,.37-6.58c2.92-26.94,23.47-57.43,48.12-70.68,9.41-5.07,18.36-6.93,25.85-5.83a17,17,0,0,1,2.83.59h.09a22.14,22.14,0,0,1,4,1.44,12.81,12.81,0,0,0-3.75-2c-1-.33-2.1-.76-3.19-1.09-8.13-1.95-18-.51-28.86,5.32C870.91,737.77,849.27,772.3,849.27,800.76Z" />
    <path class="cls-59"
        d="M919.88,770.7c3-.59,6.22-4.07,7.19-7.74s-.75-6.25-3.76-5.66-6.11,4-7.08,7.74S916.87,771.3,919.88,770.7Z" />
    <path class="cls-59"
        d="M904.53,794.91c1.83,1.69,5.37.4,7.94-3s3.12-7.35,1.29-9.13-5.47-.4-7.94,3S902.71,793.13,904.53,794.91Z" />
    <path class="cls-59"
        d="M905.82,736.66c2.47.6,6-2,7.94-5.66,1.61-3.17,1.4-6.35-.54-7.44h-.1a25.45,25.45,0,0,0-3.44.9c-.85.29-1.71.59-2.68,1a11.85,11.85,0,0,0-2.47,3.37C902.6,732.59,903.24,736.07,905.82,736.66Z" />
    <path class="cls-59"
        d="M884.57,740a4.41,4.41,0,0,0,4.4-.2,11.71,11.71,0,0,0,5.58-7.84A91.5,91.5,0,0,0,884.57,740Z" />
    <path class="cls-59"
        d="M871.05,755.81a9.66,9.66,0,0,0,1.07-1.19,10.7,10.7,0,0,0,1.29-2.08C872.55,753.63,871.8,754.72,871.05,755.81Z" />
    <path class="cls-59"
        d="M942,773.78c-.43,1.39-1,2.78-1.51,4.16a46.87,46.87,0,0,0,1.94-5.06A3.36,3.36,0,0,0,942,773.78Z" />
    <path class="cls-59" d="M927.07,723.36a1.61,1.61,0,0,0-.65-.19c.11.19.33.29.43.49Z" />
    <path class="cls-59"
        d="M892.62,828.06a46,46,0,0,0,5.26-2.18c-.86.39-1.83.79-2.68,1.09S893.48,827.76,892.62,828.06Z" />
    <path class="cls-59"
        d="M874.05,781.32c0,6.85,3.44,11,8.7,11.51a10.66,10.66,0,0,0,4.29-.3,10.14,10.14,0,0,1-3.54-.89c-3-1.49-4.94-4.86-4.94-9.73,0-9.42,7.3-21,16.21-25.8,4.72-2.48,8.9-2.58,11.91-.79A7.13,7.13,0,0,1,909,757.6a11.78,11.78,0,0,0-1.61-3.47c-3.11-4.17-8.91-5-15.56-1.39C882,758.1,874.05,770.8,874.05,781.32Z" />
    <path class="cls-59"
        d="M858.71,780.43a11.84,11.84,0,0,0,3-5.06,6.59,6.59,0,0,0,.21-3.18c-.53,1.09-1,2.18-1.39,3.27a23.42,23.42,0,0,0-1.07,2.88A15.89,15.89,0,0,0,858.71,780.43Z" />
    <path class="cls-59"
        d="M855.27,800.57a32.74,32.74,0,0,0,.32,4.67,8.16,8.16,0,0,0,2.47-1.59c3-2.58,4.62-6.85,3.65-9.53-.86-2.28-3.22-2.68-5.9-1.09v.1A59.51,59.51,0,0,0,855.27,800.57Z" />
    <path class="cls-59"
        d="M892.62,828.06a46,46,0,0,0,5.26-2.18c-.86.39-1.83.79-2.68,1.09S893.48,827.76,892.62,828.06Zm40-102.71c-.32-.2-.64-.3-1-.5l.33.3.1.1A1.24,1.24,0,0,1,932.65,725.35Zm-83.38,75.41c0,11.4,3.47,19.93,9.4,25.34a6.8,6.8,0,0,0,1.74,1.43l.09.17a29.85,29.85,0,0,0,4.29,2.45,23.14,23.14,0,0,1-3.92-3.21,8.72,8.72,0,0,1-1.28-1.44c-4.75-5.4-7.4-13.34-7.4-23.22a51.84,51.84,0,0,1,.37-6.58c2.92-26.94,23.47-57.43,48.12-70.68,9.41-5.07,18.36-6.93,25.85-5.83a17,17,0,0,1,2.83.59h.09a22.14,22.14,0,0,1,4,1.44,12.81,12.81,0,0,0-3.75-2c-1-.33-2.1-.76-3.19-1.09-8.13-1.95-18-.51-28.86,5.32C870.91,737.77,849.27,772.3,849.27,800.76Z" />
    <path class="cls-60"
        d="M919.88,770.7c3-.59,6.22-4.07,7.19-7.74s-.75-6.25-3.76-5.66-6.11,4-7.08,7.74S916.87,771.3,919.88,770.7Z" />
    <path class="cls-60"
        d="M904.53,794.91c1.83,1.69,5.37.4,7.94-3s3.12-7.35,1.29-9.13-5.47-.4-7.94,3S902.71,793.13,904.53,794.91Z" />
    <path class="cls-60"
        d="M905.82,736.66c2.47.6,6-2,7.94-5.66,1.61-3.17,1.4-6.35-.54-7.44h-.1a25.45,25.45,0,0,0-3.44.9c-.85.29-1.71.59-2.68,1a11.85,11.85,0,0,0-2.47,3.37C902.6,732.59,903.24,736.07,905.82,736.66Z" />
    <path class="cls-60"
        d="M884.57,740a4.41,4.41,0,0,0,4.4-.2,11.71,11.71,0,0,0,5.58-7.84A91.5,91.5,0,0,0,884.57,740Z" />
    <path class="cls-60"
        d="M871.05,755.81a9.66,9.66,0,0,0,1.07-1.19,10.7,10.7,0,0,0,1.29-2.08C872.55,753.63,871.8,754.72,871.05,755.81Z" />
    <path class="cls-60"
        d="M874.05,781.32c0,6.85,3.44,11,8.7,11.51a10.66,10.66,0,0,0,4.29-.3,10.14,10.14,0,0,1-3.54-.89c-3-1.49-4.94-4.86-4.94-9.73,0-9.42,7.3-21,16.21-25.8,4.72-2.48,8.9-2.58,11.91-.79A7.13,7.13,0,0,1,909,757.6a11.78,11.78,0,0,0-1.61-3.47c-3.11-4.17-8.91-5-15.56-1.39C882,758.1,874.05,770.8,874.05,781.32Z" />
    <path class="cls-60"
        d="M858.71,780.43a11.84,11.84,0,0,0,3-5.06,6.59,6.59,0,0,0,.21-3.18c-.53,1.09-1,2.18-1.39,3.27a23.42,23.42,0,0,0-1.07,2.88A15.89,15.89,0,0,0,858.71,780.43Z" />
    <path class="cls-60"
        d="M855.27,800.57a32.74,32.74,0,0,0,.32,4.67,8.16,8.16,0,0,0,2.47-1.59c3-2.58,4.62-6.85,3.65-9.53-.86-2.28-3.22-2.68-5.9-1.09v.1A59.51,59.51,0,0,0,855.27,800.57Z" />
    <path class="cls-61"
        d="M940.48,777.94a46.87,46.87,0,0,0,1.94-5.06,3.36,3.36,0,0,0-.43.9C941.56,775.17,941,776.56,940.48,777.94Zm-47.86,50.12a46,46,0,0,0,5.26-2.18c-.86.39-1.83.79-2.68,1.09S893.48,827.76,892.62,828.06Z" />
    <path class="cls-61"
        d="M852.19,802.28c0,9.88,2.65,17.82,7.4,23.22a8.72,8.72,0,0,0,1.28,1.44,23.14,23.14,0,0,0,3.92,3.21c8.86,5.57,21.65,5.23,35.89-2.28,26.67-14.36,48.4-48.89,48.4-77.35,0-14.86-6-25.08-15.61-29.3a22.14,22.14,0,0,0-4-1.44h-.09a17,17,0,0,0-2.83-.59c-7.49-1.1-16.44.76-25.85,5.83-24.65,13.25-45.2,43.74-48.12,70.68A51.84,51.84,0,0,0,852.19,802.28Zm3.11-1.69a52.53,52.53,0,0,1,.54-7.43V793c.1-.93.28-1.94.46-3s.46-2.19.73-3.29v-.08a2.46,2.46,0,0,1,.18-.68,2,2,0,0,1,.19-.68v-.33c.09-.43.27-.76.36-1.19.28-1,.55-2.11.91-3v-.25a20.17,20.17,0,0,1,.83-2,29.17,29.17,0,0,1,1-3c.46-1.1.91-2.11,1.46-3.21l.55-1.27a7.68,7.68,0,0,0,.46-1.35c.36-.5.54-1.1.91-1.69.55-1.09,1.19-2.28,1.83-3.37a2.49,2.49,0,0,1,.36-.68c.82-1.44,1.55-2.79,2.38-4.05a.48.48,0,0,1,.09-.34,11.11,11.11,0,0,0,1.18-1.69c.46-.68.83-1.35,1.28-1.94.82-1.1,1.56-2.2,2.38-3.3,0-.08,0-.08.18-.16.82-1,1.55-2.12,2.47-3.21s1.82-2.2,2.74-3.21a70.71,70.71,0,0,1,5.84-5.91,86,86,0,0,1,10-8,17.43,17.43,0,0,1,3-1.94c1.09-.67,2-1.18,3.1-1.77s2-1.1,3.2-1.61a12.57,12.57,0,0,0,1.64-.67c1.46-.59,2.93-1.18,4.2-1.61a26.48,26.48,0,0,1,3.38-.84h.1c.18,0,.27-.08.36-.08a7.62,7.62,0,0,1,1.37-.34,7.06,7.06,0,0,1,1.28-.17c.36,0,.55-.09.91-.09a13.57,13.57,0,0,1,1.46-.25c.64,0,1.28-.08,2-.08h.46a6.47,6.47,0,0,1,1.28.08,6.19,6.19,0,0,1,1.37.09,8.1,8.1,0,0,1,1.55.25,4,4,0,0,1,.55.08h.45l.09.09h.1a1.65,1.65,0,0,1,.63.17h.1l1.91.5a1.09,1.09,0,0,1,.55.26,7.09,7.09,0,0,1,1.28.42.36.36,0,0,1,.27.08c0,.09,0,.09.1.09a.33.33,0,0,0,.18.08.31.31,0,0,0,.18.09,10.58,10.58,0,0,1,1,.5c.09,0,.18.09.36.09a.08.08,0,0,1,.09.08.09.09,0,0,0,.09.09c.1,0,.19.17.28.25a2,2,0,0,1,.45.25.62.62,0,0,0,.19.26,8.69,8.69,0,0,1,.82.33c0,.17.09.17.09.17h.09a2.08,2.08,0,0,1,.46.26l.18.17a16.14,16.14,0,0,1,1.28,1.09c.27.26.46.43.64.59s.36.43.54.6a9.34,9.34,0,0,1,1,1.09,8.08,8.08,0,0,1,1.37,1.86c.18.25.46.68.64.93.18.42.46.76.64,1.1.18.5.55,1,.73,1.52a.45.45,0,0,1,.27.42,3.46,3.46,0,0,1,.37,1,19.16,19.16,0,0,1,.82,2c.09.08.09.17.09.42v.09a3.32,3.32,0,0,1,.28,1,.81.81,0,0,1,.27.68c0,.08.09.16.09.25v.17c0,.08.09.25.09.34a17.28,17.28,0,0,1,.46,2.11,1.35,1.35,0,0,1,.09.59c0,.17.09.42.09.59v.08a5.72,5.72,0,0,1,.09,1.19,1,1,0,0,1,.09.42c0,.59.19,1.18.19,1.77,0,.93.09,2,.09,3a12.74,12.74,0,0,1-.09,1.85v.68c0,1.44-.28,3-.37,4.39s-.46,3-.73,4.31c-.36,1.77-.64,3.46-1.19,5.4,0,.09-.09.26-.09.34-.27.93-.55,1.86-.73,2.7a3.41,3.41,0,0,0-.36,1,15.58,15.58,0,0,1-1,2.61c-.27.85-.64,1.61-.91,2.45-.09.26-.27.68-.46,1.1a81.26,81.26,0,0,1-4.11,8.53,47.29,47.29,0,0,1-2.64,4.56,29.2,29.2,0,0,1-1.92,3.12c-1.1,1.69-2.38,3.38-3.57,5l-1.55,2.11a9.73,9.73,0,0,1-.91,1.09,4.54,4.54,0,0,1-.82,1c0,.08,0,.08-.09.17a.8.8,0,0,0-.37.42c-1.19,1.35-2.37,2.62-3.56,4-.28.25-.64.67-.91.93-1,1-1.92,1.85-2.93,2.7a74.89,74.89,0,0,1-5.66,5c-1,.68-1.82,1.35-2.74,2.11a3.9,3.9,0,0,0-.73.42,39.07,39.07,0,0,1-4.29,2.71c-.09.08-.18.25-.27.33a19.31,19.31,0,0,0-2.29,1.27,27.53,27.53,0,0,1-2.83,1.35c-.46.17-.82.42-1.37.59a12.67,12.67,0,0,1-2.55,1.1c-.46.17-.92.34-1.28.51-1.74.59-3.47,1-5.21,1.43a26.91,26.91,0,0,1-3.74.59,5.72,5.72,0,0,1-1.19.09,23,23,0,0,1-4.84,0A9.1,9.1,0,0,1,876,830a24.63,24.63,0,0,1-3-.76,10.18,10.18,0,0,1-2.28-.76,5.35,5.35,0,0,1-1.46-.68c-.18,0-.18-.08-.27-.08s-.28-.17-.46-.25a3.87,3.87,0,0,1-1.1-.68h-.18a.08.08,0,0,0-.09-.08c-.18-.09-.28-.26-.55-.34a5.44,5.44,0,0,1-1.55-1.18c-.64-.59-1.19-1-1.83-1.69h-.09v-.09c-.18,0-.18-.08-.18-.08a18.4,18.4,0,0,0-1.28-1.44,21.81,21.81,0,0,0-1.28-1.77c0-.08-.09-.08-.09-.17-.37-.59-.64-1.1-1-1.69a12.41,12.41,0,0,1-.73-1.52l-.27-.5c0-.17-.18-.34-.27-.43-.19-.5-.37-1-.55-1.6s-.46-1.52-.82-2.37a10.84,10.84,0,0,0-.37-1.52,1.33,1.33,0,0,1-.09-.59,9.72,9.72,0,0,1-.27-1.6,7.12,7.12,0,0,0-.19-1.27,6.08,6.08,0,0,0-.18-1.26v-.34A38.16,38.16,0,0,1,855.3,800.59Z" />
    <path class="cls-59"
        d="M863.21,823.5c.65.69,1.18,1.09,1.83,1.68a9.61,9.61,0,0,0,1.61,1.19c.21.1.32.2.54.3a.1.1,0,0,1,.1.1h.11a7.31,7.31,0,0,0,1.18.7.91.91,0,0,0,.43.19c.11,0,.11.1.21.1a6.76,6.76,0,0,0,1.51.7,20.11,20.11,0,0,0,2.25.79,26.35,26.35,0,0,0,3,.7,9.05,9.05,0,0,0,1.72.19,19.49,19.49,0,0,0,4.83,0,5.72,5.72,0,0,0,1.18-.09,24.5,24.5,0,0,0,3.76-.6,49.83,49.83,0,0,0,5.15-1.39c.86-.3,1.72-.69,2.58-1.09s1.82-.7,2.68-1.09,1.82-.9,2.79-1.39c.75-.4,1.5-.89,2.25-1.29l.32-.3a50.44,50.44,0,0,0,4.3-2.68,3.06,3.06,0,0,1,.75-.5c.86-.69,1.71-1.38,2.68-2.08a64.37,64.37,0,0,0,5.69-5c1-.89,1.93-1.69,2.9-2.68.32-.3.64-.7,1-1,1.18-1.29,2.36-2.58,3.54-4,.11-.1.22-.3.33-.4s.1-.1.1-.2a3.7,3.7,0,0,0,.86-1,7.3,7.3,0,0,0,.86-1.09l1.61-2.09c1.18-1.58,2.47-3.27,3.54-5a33.75,33.75,0,0,0,1.93-3.17c1-1.49,1.83-3,2.69-4.57a88.52,88.52,0,0,0,4.07-8.53,6.14,6.14,0,0,0,.43-1.1c.54-1.38,1.08-2.77,1.51-4.16a3.36,3.36,0,0,1,.43-.9,9.67,9.67,0,0,1,.32-1c.21-.89.53-1.78.75-2.68,0-.1.11-.3.11-.39.53-1.89.86-3.58,1.18-5.36.32-1.39.53-2.88.75-4.37s.32-2.88.32-4.37V754a9.78,9.78,0,0,0,.11-1.79c0-1-.11-2.08-.11-3,0-.6-.11-1.2-.11-1.79a.76.76,0,0,0-.1-.4,4.37,4.37,0,0,0-.11-1.19v-.1c0-.2-.11-.4-.11-.59a1.17,1.17,0,0,0-.11-.6,12.82,12.82,0,0,0-.43-2.08c0-.1-.1-.3-.1-.4V742c0-.1-.11-.2-.11-.3a1.41,1.41,0,0,0-.21-.69,3.4,3.4,0,0,0-.33-1v-.1c0-.2,0-.3-.1-.4a10.85,10.85,0,0,0-.76-2,3.16,3.16,0,0,0-.43-1.1.69.69,0,0,0-.21-.39c-.21-.5-.53-1-.75-1.49s-.43-.7-.64-1.09-.43-.7-.65-1a8.45,8.45,0,0,0-1.39-1.78,4.35,4.35,0,0,0-1-1.09c-.21-.2-.32-.4-.54-.6l-.64-.6a13.83,13.83,0,0,0-1.29-1.09l-.21-.2a1.86,1.86,0,0,0-.43-.29H935s-.11,0-.11-.1a4.63,4.63,0,0,0-.75-.4l-.21-.2c-.11-.1-.32-.2-.43-.3s-.22-.19-.32-.19a.1.1,0,0,1-.11-.1.1.1,0,0,0-.11-.1c-.11,0-.21-.1-.32-.1a1.24,1.24,0,0,0-.54-.1l-.1-.1a10.19,10.19,0,0,0-2.37-1.09c-.21-.1-.32-.1-.53-.2a13.7,13.7,0,0,0-1.93-.5h-.11l-.22.3c4.73,5.06,7.41,12.6,7.41,22.33,0,26.6-20.28,58.85-45.29,72.25C879.42,823.3,870.51,825,863.21,823.5Z" />
    <path class="cls-60"
        d="M855.59,805.24v.29c.22,1.49.43,2.78.65,4.17a1.27,1.27,0,0,0,.1.6,17.07,17.07,0,0,0,.76,2.48,5,5,0,0,0,.43,1.39,19.13,19.13,0,0,0,1.07,2.58,9.9,9.9,0,0,0,.75,1.49c.32.59.64,1.09,1,1.68,0,.1.1.1.1.2l1.29,1.79c.43.49.86.89,1.29,1.39a.1.1,0,0,0,.11.1v.1h.1c7.3,1.48,16.21-.2,25.76-5.26,25-13.4,45.29-45.65,45.29-72.25,0-9.73-2.68-17.27-7.41-22.33-.1-.2-.32-.3-.43-.49h-.1c-.32-.1-.64-.1-1.07-.2a6.82,6.82,0,0,0-1.51-.2,6.06,6.06,0,0,0-1.39-.1,31.67,31.67,0,0,0-5.26.2c-.32,0-.54.1-.86.1a5.77,5.77,0,0,0-1.29.2c-.43.09-1,.19-1.39.29-.11,0-.22.1-.33.1,1.94,1.09,2.15,4.27.54,7.44-1.93,3.68-5.47,6.26-7.94,5.66s-3.22-4.07-1.29-7.84a11.85,11.85,0,0,1,2.47-3.37c-1,.39-2,.79-3.11,1.29a29.2,29.2,0,0,0-3.22,1.59c-1.08.59-2,1.09-3.11,1.78a29.43,29.43,0,0,0-3,1.89,11.71,11.71,0,0,1-5.58,7.84,4.41,4.41,0,0,1-4.4.2,79.42,79.42,0,0,0-5.8,6c-1,1-1.82,2.08-2.79,3.18s-1.6,2.18-2.46,3.17c-.11.1-.11.1-.11.2a10.7,10.7,0,0,1-1.29,2.08,9.66,9.66,0,0,1-1.07,1.19c-.86,1.29-1.72,2.59-2.58,4s-1.61,2.68-2.36,4.07a2.65,2.65,0,0,0-.43.7c-.64,1.09-1.29,2.28-1.82,3.37-.65,1.49-1.29,2.88-1.94,4.27a6.59,6.59,0,0,1-.21,3.18,11.84,11.84,0,0,1-3,5.06v.19c-.43,1-.65,2.09-1,3.08l-.32,1.19v.3a2.41,2.41,0,0,0-.22.69,2.62,2.62,0,0,0-.21.7v.1c-.22,1.09-.54,2.18-.65,3.27s-.42,2.09-.53,3.08c2.68-1.59,5-1.19,5.9,1.09,1,2.68-.64,7-3.65,9.53A8.16,8.16,0,0,1,855.59,805.24ZM916.23,765c1-3.77,4.19-7.14,7.08-7.74s4.73,2,3.76,5.66-4.19,7.15-7.19,7.74S915.16,768.72,916.23,765Zm3.54-28.38a6.35,6.35,0,0,1,4.72-1.88,2.92,2.92,0,0,1,2.58,1.88c1,2.68-.75,7.05-3.76,9.63a10.07,10.07,0,0,1-2.25,1.49c-2.15,1-4.08.49-4.94-1.49C915.16,743.61,916.87,739.34,919.77,736.66Zm-13.95,49.13c2.47-3.38,6.12-4.67,7.94-3s1.29,5.85-1.29,9.13-6.11,4.66-7.94,3S903.24,789.06,905.82,785.79ZM883.28,809.6a10.76,10.76,0,0,1,5.69-9,4.53,4.53,0,0,1,1.4-.49c2.46-.8,4.29.59,4.29,3.47,0,3.37-2.58,7.44-5.69,9.13S883.28,813,883.28,809.6Zm-12.34-26.69c0-12.31,9.34-27.19,20.93-33.35,7.51-4,14.16-3.27,17.81,1a15.55,15.55,0,0,1,3.12,10,30,30,0,0,1-2.26,11.11c0,.1,0,.1-.11.2a44.19,44.19,0,0,1-9.12,14.59c0,.1-.1.2-.21.3a38,38,0,0,1-9.23,7.14c-4.29,2.29-8.27,3-11.48,2.48C874.7,795.41,870.94,790.65,870.94,782.91Zm-6.76,26.39c1.82-3.67,5.36-6.15,7.94-5.55a3.06,3.06,0,0,1,2.15,2.18,7.82,7.82,0,0,1-.86,5.56c-1.39,2.88-4.08,5.16-6.22,5.65a5,5,0,0,1-1.72,0C862.89,816.55,862.35,813,864.18,809.3Z" />
    <path class="cls-62"
        d="M870.94,782.91c0,7.74,3.76,12.5,9.45,13.49,3.21.5,7.19-.19,11.48-2.48a38,38,0,0,0,9.23-7.14c.11-.1.21-.2.21-.3a44.19,44.19,0,0,0,9.12-14.59c.11-.1.11-.1.11-.2a30,30,0,0,0,2.26-11.11,15.55,15.55,0,0,0-3.12-10c-3.65-4.27-10.3-5-17.81-1C880.28,755.72,870.94,770.6,870.94,782.91Zm3.11-1.59c0-10.52,8-23.22,17.82-28.58,6.65-3.57,12.45-2.78,15.56,1.39A11.78,11.78,0,0,1,909,757.6a12.69,12.69,0,0,1,1.93,7,26.89,26.89,0,0,1-2.79,11.11,66.36,66.36,0,0,1-4.08,6.45c0,.2-.21.3-.32.5a30.9,30.9,0,0,1-9,7.74,15.18,15.18,0,0,1-7.73,2.08,10.66,10.66,0,0,1-4.29.3C877.49,792.33,874.05,788.17,874.05,781.32Z" />
    <path class="cls-62"
        d="M874.05,781.32c0,6.85,3.44,11,8.7,11.51a10.66,10.66,0,0,0,4.29-.3,10.14,10.14,0,0,1-3.54-.89c-3-1.49-4.94-4.86-4.94-9.73,0-9.42,7.3-21,16.21-25.8,4.72-2.48,8.9-2.58,11.91-.79A7.13,7.13,0,0,1,909,757.6a11.78,11.78,0,0,0-1.61-3.47c-3.11-4.17-8.91-5-15.56-1.39C882,758.1,874.05,770.8,874.05,781.32Z" />
    <path class="cls-59"
        d="M874.05,781.32c0,6.85,3.44,11,8.7,11.51a10.66,10.66,0,0,0,4.29-.3,10.14,10.14,0,0,1-3.54-.89c-3-1.49-4.94-4.86-4.94-9.73,0-9.42,7.3-21,16.21-25.8,4.72-2.48,8.9-2.58,11.91-.79A7.13,7.13,0,0,1,909,757.6a11.78,11.78,0,0,0-1.61-3.47c-3.11-4.17-8.91-5-15.56-1.39C882,758.1,874.05,770.8,874.05,781.32Z" />
    <path class="cls-61"
        d="M878.56,781.91c0,4.87,1.93,8.24,4.94,9.73a10.14,10.14,0,0,0,3.54.89,15.18,15.18,0,0,0,7.73-2.08,30.9,30.9,0,0,0,9-7.74c.11-.2.32-.3.32-.5a66.36,66.36,0,0,0,4.08-6.45A26.89,26.89,0,0,0,911,764.65a12.69,12.69,0,0,0-1.93-7,7.13,7.13,0,0,0-2.36-2.28c-3-1.79-7.19-1.69-11.91.79C885.86,760.88,878.56,772.49,878.56,781.91Z" />
    <path class="cls-62"
        d="M884.57,740a4.41,4.41,0,0,0,4.4-.2,11.71,11.71,0,0,0,5.58-7.84A91.5,91.5,0,0,0,884.57,740Z" />
    <path class="cls-62"
        d="M871.05,755.81a9.66,9.66,0,0,0,1.07-1.19,10.7,10.7,0,0,0,1.29-2.08C872.55,753.63,871.8,754.72,871.05,755.81Z" />
    <path class="cls-62"
        d="M858.71,780.43a11.84,11.84,0,0,0,3-5.06,6.59,6.59,0,0,0,.21-3.18c-.53,1.09-1,2.18-1.39,3.27a23.42,23.42,0,0,0-1.07,2.88A15.89,15.89,0,0,0,858.71,780.43Z" />
    <path class="cls-62"
        d="M855.27,800.57a32.74,32.74,0,0,0,.32,4.67,8.16,8.16,0,0,0,2.47-1.59c3-2.58,4.62-6.85,3.65-9.53-.86-2.28-3.22-2.68-5.9-1.09v.1A59.51,59.51,0,0,0,855.27,800.57Z" />
    <path class="cls-62"
        d="M865.47,817.14a5,5,0,0,0,1.72,0c2.14-.49,4.83-2.77,6.22-5.65a7.82,7.82,0,0,0,.86-5.56,3.06,3.06,0,0,0-2.15-2.18c-2.58-.6-6.12,1.88-7.94,5.55S862.89,816.55,865.47,817.14Z" />
    <path class="cls-62"
        d="M883.28,809.6c0,3.38,2.58,4.77,5.69,3.08s5.69-5.76,5.69-9.13c0-2.88-1.83-4.27-4.29-3.47a4.53,4.53,0,0,0-1.4.49,10.76,10.76,0,0,0-5.69,9Z" />
    <path class="cls-62"
        d="M904.53,794.91c1.83,1.69,5.37.4,7.94-3s3.12-7.35,1.29-9.13-5.47-.4-7.94,3S902.71,793.13,904.53,794.91Z" />
    <path class="cls-62"
        d="M919.88,770.7c3-.59,6.22-4.07,7.19-7.74s-.75-6.25-3.76-5.66-6.11,4-7.08,7.74S916.87,771.3,919.88,770.7Z" />
    <path class="cls-62"
        d="M916.12,746.29c.86,2,2.79,2.48,4.94,1.49a10.07,10.07,0,0,0,2.25-1.49c3-2.58,4.73-6.95,3.76-9.63a2.92,2.92,0,0,0-2.58-1.88,6.35,6.35,0,0,0-4.72,1.88C916.87,739.34,915.16,743.61,916.12,746.29Z" />
    <path class="cls-62"
        d="M905.82,736.66c2.47.6,6-2,7.94-5.66,1.61-3.17,1.4-6.35-.54-7.44h-.1a25.45,25.45,0,0,0-3.44.9c-.85.29-1.71.59-2.68,1a11.85,11.85,0,0,0-2.47,3.37C902.6,732.59,903.24,736.07,905.82,736.66Z" />
    <path class="cls-1"
        d="M427.45,958c17.38-9.66,33.12-10.55,44.49-4.19L504.41,972l-.12-.05c11.29,6.25,18.3,19.62,18.36,38.66.11,38.19-27.8,84.73-62.32,103.92-18.48,10.27-35.06,10.55-46.55,2.82.69.46,1.34,1,2.06,1.38l-32.47-18.17c-11.22-6.28-18.18-19.63-18.24-38.61C365,1023.73,392.93,977.19,427.45,958Zm32.8,132.07c22.32-12.41,40.38-42.52,40.31-67.21S482.31,988.19,460,1000.6s-40.38,42.52-40.31,67.21S437.93,1102.48,460.25,1090.07Z" />
    <path class="cls-63" d="M488.5,996.52c.11.2.32.3.43.5l.22-.3A1.63,1.63,0,0,0,488.5,996.52Z" />
    <path class="cls-64" d="M487.32,996.32c.43.1.75.1,1.07.2l-.1-.1Z" />
    <path class="cls-65"
        d="M479.17,996.22a31.56,31.56,0,0,1,5.25-.2,5.62,5.62,0,0,0-1.29-.1h-.42c-.75,0-1.4.1-2,.1C480.24,996.12,479.7,996.12,479.17,996.22Z" />
    <path class="cls-66"
        d="M467.9,1010c2.46.59,6-2,7.94-5.66,1.61-3.18,1.39-6.35-.54-7.44h-.11a23.84,23.84,0,0,0-3.43.89c-.86.3-1.72.6-2.68,1a11.85,11.85,0,0,0-2.47,3.38C464.68,1006,465.32,1009.42,467.9,1010Z" />
    <path class="cls-67"
        d="M446.65,1013.39a4.41,4.41,0,0,0,4.4-.2,11.72,11.72,0,0,0,5.58-7.84A90.55,90.55,0,0,0,446.65,1013.39Z" />
    <path class="cls-68"
        d="M436.13,1054.67c0,6.85,3.43,11,8.69,11.51l.75-1.19c-3-1.48-4.93-4.86-4.93-9.72,0-9.43,7.29-21,16.2-25.8,4.72-2.48,8.91-2.58,11.92-.8l.75-1.19c-3.12-4.17-8.91-5-15.57-1.39C444.07,1031.45,436.13,1044.15,436.13,1054.67Z" />
    <path class="cls-69"
        d="M433.12,1029.17a11.52,11.52,0,0,0,1.08-1.19,11.83,11.83,0,0,0,1.29-2.09C434.63,1027,433.88,1028.08,433.12,1029.17Z" />
    <path class="cls-70"
        d="M430.55,1033.14c.86-1.39,1.72-2.68,2.57-4-.85,1.19-1.6,2.48-2.46,3.67A.35.35,0,0,0,430.55,1033.14Z" />
    <path class="cls-71"
        d="M424,1045.54c.65-1.39,1.29-2.78,1.94-4.26-.33.59-.54,1.19-.86,1.68C424.75,1043.86,424.32,1044.65,424,1045.54Z" />
    <path class="cls-72"
        d="M420.78,1053.78a11.86,11.86,0,0,0,3-5.06,6.57,6.57,0,0,0,.21-3.18c-.53,1.1-1,2.19-1.39,3.28a23.86,23.86,0,0,0-1.08,2.88A17.34,17.34,0,0,0,420.78,1053.78Z" />
    <path class="cls-73"
        d="M419.6,1087.52a6.92,6.92,0,0,0,.54,1.59c.21.3.32.69.54,1A18.14,18.14,0,0,1,419.6,1087.52Z" />
    <path class="cls-74"
        d="M418.42,1083.65c.11.5.22,1,.32,1.49a2.69,2.69,0,0,1,.43,1A18,18,0,0,1,418.42,1083.65Z" />
    <path class="cls-75"
        d="M417.67,1078.89l.32,2.58a8.34,8.34,0,0,0,.33,1.59C418.1,1081.67,417.89,1080.38,417.67,1078.89Z" />
    <path class="cls-76"
        d="M417.35,1073.93a32.7,32.7,0,0,0,.32,4.66,8,8,0,0,0,2.47-1.59c3-2.58,4.61-6.85,3.65-9.52-.86-2.29-3.22-2.68-5.9-1.1v.1A57.7,57.7,0,0,0,417.35,1073.93Z" />
    <path class="cls-77"
        d="M411.35,1074.12c0,11.4,3.47,19.92,9.4,25.33a6.84,6.84,0,0,0,1.74,1.44l.45-.6a9.06,9.06,0,0,1-1.27-1.43c-4.75-5.41-7.4-13.34-7.4-23.22a53.91,53.91,0,0,1,.36-6.59c2.93-26.94,23.47-57.42,48.13-70.68,9.41-5.07,18.35-6.92,25.84-5.83a17.59,17.59,0,0,1,2.83.59h.09l.28-.5c-1-.34-2.1-.76-3.2-1.1-8.12-1.94-18-.51-28.85,5.32C433,1011.12,411.35,1045.66,411.35,1074.12Z" />
    <path class="cls-64" d="M487.32,996.32c.43.1.75.1,1.07.2l-.1-.1Z" />
    <path class="cls-65"
        d="M479.17,996.22a31.56,31.56,0,0,1,5.25-.2,5.62,5.62,0,0,0-1.29-.1h-.42c-.75,0-1.4.1-2,.1C480.24,996.12,479.7,996.12,479.17,996.22Z" />
    <path class="cls-66"
        d="M467.9,1010c2.46.59,6-2,7.94-5.66,1.61-3.18,1.39-6.35-.54-7.44h-.11a23.84,23.84,0,0,0-3.43.89c-.86.3-1.72.6-2.68,1a11.85,11.85,0,0,0-2.47,3.38C464.68,1006,465.32,1009.42,467.9,1010Z" />
    <path class="cls-67"
        d="M446.65,1013.39a4.41,4.41,0,0,0,4.4-.2,11.72,11.72,0,0,0,5.58-7.84A90.55,90.55,0,0,0,446.65,1013.39Z" />
    <path class="cls-69"
        d="M433.12,1029.17a11.52,11.52,0,0,0,1.08-1.19,11.83,11.83,0,0,0,1.29-2.09C434.63,1027,433.88,1028.08,433.12,1029.17Z" />
    <path class="cls-70"
        d="M430.55,1033.14c.86-1.39,1.72-2.68,2.57-4-.85,1.19-1.6,2.48-2.46,3.67A.35.35,0,0,0,430.55,1033.14Z" />
    <path class="cls-78"
        d="M436.13,1054.67c0,6.85,3.43,11,8.69,11.51a10.88,10.88,0,0,0,4.3-.29,10.25,10.25,0,0,1-3.55-.9c-3-1.48-4.93-4.86-4.93-9.72,0-9.43,7.29-21,16.2-25.8,4.72-2.48,8.91-2.58,11.92-.8a7.26,7.26,0,0,1,2.36,2.29,12.1,12.1,0,0,0-1.61-3.48c-3.12-4.17-8.91-5-15.57-1.39C444.07,1031.45,436.13,1044.15,436.13,1054.67Z" />
    <path class="cls-71"
        d="M424,1045.54c.65-1.39,1.29-2.78,1.94-4.26-.33.59-.54,1.19-.86,1.68C424.75,1043.86,424.32,1044.65,424,1045.54Z" />
    <path class="cls-72"
        d="M420.78,1053.78a11.86,11.86,0,0,0,3-5.06,6.57,6.57,0,0,0,.21-3.18c-.53,1.1-1,2.19-1.39,3.28a23.86,23.86,0,0,0-1.08,2.88A17.34,17.34,0,0,0,420.78,1053.78Z" />
    <path class="cls-73"
        d="M419.6,1087.52a6.92,6.92,0,0,0,.54,1.59c.21.3.32.69.54,1A18.14,18.14,0,0,1,419.6,1087.52Z" />
    <path class="cls-74"
        d="M418.42,1083.65c.11.5.22,1,.32,1.49a2.69,2.69,0,0,1,.43,1A18,18,0,0,1,418.42,1083.65Z" />
    <path class="cls-75"
        d="M417.67,1078.89l.32,2.58a8.34,8.34,0,0,0,.33,1.59C418.1,1081.67,417.89,1080.38,417.67,1078.89Z" />
    <path class="cls-76"
        d="M417.35,1073.93a32.7,32.7,0,0,0,.32,4.66,8,8,0,0,0,2.47-1.59c3-2.58,4.61-6.85,3.65-9.52-.86-2.29-3.22-2.68-5.9-1.1v.1A57.7,57.7,0,0,0,417.35,1073.93Z" />
    <path class="cls-79"
        d="M411.35,1074.12c0,11.4,3.47,19.92,9.4,25.33.37-.25.55-.34.92-.59-4.75-5.41-7.4-13.34-7.4-23.22a53.91,53.91,0,0,1,.36-6.59c2.93-26.94,23.47-57.42,48.13-70.68,9.41-5.07,18.35-6.92,25.84-5.83a3.78,3.78,0,0,0,0-1c-8.12-1.94-18-.51-28.85,5.32C433,1011.12,411.35,1045.66,411.35,1074.12Z" />
    <path class="cls-80" d="M487.32,996.32c.43.1.75.1,1.07.2l-.1-.1Z" />
    <path class="cls-81"
        d="M479.17,996.22a31.56,31.56,0,0,1,5.25-.2,5.62,5.62,0,0,0-1.29-.1h-.42c-.75,0-1.4.1-2,.1C480.24,996.12,479.7,996.12,479.17,996.22Z" />
    <path class="cls-82"
        d="M482,1044.05c3-.59,6.22-4.06,7.19-7.74s-.76-6.25-3.76-5.65-6.12,4-7.08,7.74S479,1044.65,482,1044.05Z" />
    <path class="cls-83"
        d="M466.61,1068.27c1.82,1.69,5.37.4,7.94-3s3.11-7.34,1.29-9.13-5.48-.4-7.94,3S464.78,1066.48,466.61,1068.27Z" />
    <path class="cls-84"
        d="M467.9,1010c2.46.59,6-2,7.94-5.66,1.61-3.18,1.39-6.35-.54-7.44h-.11a23.84,23.84,0,0,0-3.43.89c-.86.3-1.72.6-2.68,1a11.85,11.85,0,0,0-2.47,3.38C464.68,1006,465.32,1009.42,467.9,1010Z" />
    <path class="cls-85"
        d="M446.65,1013.39a4.41,4.41,0,0,0,4.4-.2,11.72,11.72,0,0,0,5.58-7.84A90.55,90.55,0,0,0,446.65,1013.39Z" />
    <path class="cls-86"
        d="M433.12,1029.17a11.52,11.52,0,0,0,1.08-1.19,11.83,11.83,0,0,0,1.29-2.09C434.63,1027,433.88,1028.08,433.12,1029.17Z" />
    <path class="cls-87"
        d="M430.55,1033.14c.86-1.39,1.72-2.68,2.57-4-.85,1.19-1.6,2.48-2.46,3.67A.35.35,0,0,0,430.55,1033.14Z" />
    <path class="cls-88"
        d="M504.06,1047.13c-.43,1.39-1,2.78-1.5,4.17a47.59,47.59,0,0,0,1.93-5.06A3.63,3.63,0,0,0,504.06,1047.13Z" />
    <path class="cls-89"
        d="M493.22,997.91a6.29,6.29,0,0,0-1.5-.5,10.34,10.34,0,0,1,2.36,1.09l.11.1a1.26,1.26,0,0,1,.54.1c-.33-.2-.65-.29-1-.49a13.33,13.33,0,0,1-.43-.2C493.22,998,493.22,998,493.22,997.91Z" />
    <path class="cls-90" d="M489.15,996.72a1.63,1.63,0,0,0-.65-.2c.11.2.32.3.43.5Z" />
    <path class="cls-91"
        d="M454.7,1101.42a46,46,0,0,0,5.25-2.19,26.42,26.42,0,0,1-2.68,1.09C456.41,1100.72,455.56,1101.12,454.7,1101.42Z" />
    <path class="cls-92"
        d="M436.13,1054.67c0,6.85,3.43,11,8.69,11.51a10.88,10.88,0,0,0,4.3-.29,10.25,10.25,0,0,1-3.55-.9c-3-1.48-4.93-4.86-4.93-9.72,0-9.43,7.29-21,16.2-25.8,4.72-2.48,8.91-2.58,11.92-.8a7.26,7.26,0,0,1,2.36,2.29,12.1,12.1,0,0,0-1.61-3.48c-3.12-4.17-8.91-5-15.57-1.39C444.07,1031.45,436.13,1044.15,436.13,1054.67Z" />
    <path class="cls-93"
        d="M424,1045.54c.65-1.39,1.29-2.78,1.94-4.26-.33.59-.54,1.19-.86,1.68C424.75,1043.86,424.32,1044.65,424,1045.54Z" />
    <path class="cls-94"
        d="M420.78,1053.78a11.86,11.86,0,0,0,3-5.06,6.57,6.57,0,0,0,.21-3.18c-.53,1.1-1,2.19-1.39,3.28a23.86,23.86,0,0,0-1.08,2.88A17.34,17.34,0,0,0,420.78,1053.78Z" />
    <path class="cls-95"
        d="M419.6,1087.52a6.92,6.92,0,0,0,.54,1.59c.21.3.32.69.54,1A18.14,18.14,0,0,1,419.6,1087.52Z" />
    <path class="cls-96"
        d="M418.42,1083.65c.11.5.22,1,.32,1.49a2.69,2.69,0,0,1,.43,1A18,18,0,0,1,418.42,1083.65Z" />
    <path class="cls-97"
        d="M417.67,1078.89l.32,2.58a8.34,8.34,0,0,0,.33,1.59C418.1,1081.67,417.89,1080.38,417.67,1078.89Z" />
    <path class="cls-98"
        d="M417.35,1073.93a32.7,32.7,0,0,0,.32,4.66,8,8,0,0,0,2.47-1.59c3-2.58,4.61-6.85,3.65-9.52-.86-2.29-3.22-2.68-5.9-1.1v.1A57.7,57.7,0,0,0,417.35,1073.93Z" />
    <path class="cls-99"
        d="M411.35,1074.12c0,11.4,3.47,19.92,9.4,25.33a6.84,6.84,0,0,0,1.74,1.44l.09.16a28.07,28.07,0,0,0,4.29,2.45,23.13,23.13,0,0,1-3.93-3.21,9.06,9.06,0,0,1-1.27-1.43c-4.75-5.41-7.4-13.34-7.4-23.22a53.91,53.91,0,0,1,.36-6.59c2.93-26.94,23.47-57.42,48.13-70.68,9.41-5.07,18.35-6.92,25.84-5.83a17.59,17.59,0,0,1,2.83.59h.09a22.64,22.64,0,0,1,4,1.44,12.61,12.61,0,0,0-3.74-1.94c-1-.34-2.1-.76-3.2-1.1-8.12-1.94-18-.51-28.85,5.32C433,1011.12,411.35,1045.66,411.35,1074.12Z" />
    <path class="cls-100" d="M487.32,996.32c.43.1.75.1,1.07.2l-.1-.1Z" />
    <path class="cls-101"
        d="M479.17,996.22a31.56,31.56,0,0,1,5.25-.2,5.62,5.62,0,0,0-1.29-.1h-.42c-.75,0-1.4.1-2,.1C480.24,996.12,479.7,996.12,479.17,996.22Z" />
    <path class="cls-102"
        d="M482,1044.05c3-.59,6.22-4.06,7.19-7.74s-.76-6.25-3.76-5.65-6.12,4-7.08,7.74S479,1044.65,482,1044.05Z" />
    <path class="cls-103"
        d="M466.61,1068.27c1.82,1.69,5.37.4,7.94-3s3.11-7.34,1.29-9.13-5.48-.4-7.94,3S464.78,1066.48,466.61,1068.27Z" />
    <path class="cls-104"
        d="M467.9,1010c2.46.59,6-2,7.94-5.66,1.61-3.18,1.39-6.35-.54-7.44h-.11a23.84,23.84,0,0,0-3.43.89c-.86.3-1.72.6-2.68,1a11.85,11.85,0,0,0-2.47,3.38C464.68,1006,465.32,1009.42,467.9,1010Z" />
    <path class="cls-105"
        d="M446.65,1013.39a4.41,4.41,0,0,0,4.4-.2,11.72,11.72,0,0,0,5.58-7.84A90.55,90.55,0,0,0,446.65,1013.39Z" />
    <path class="cls-106"
        d="M433.12,1029.17a11.52,11.52,0,0,0,1.08-1.19,11.83,11.83,0,0,0,1.29-2.09C434.63,1027,433.88,1028.08,433.12,1029.17Z" />
    <path class="cls-107"
        d="M430.55,1033.14c.86-1.39,1.72-2.68,2.57-4-.85,1.19-1.6,2.48-2.46,3.67A.35.35,0,0,0,430.55,1033.14Z" />
    <path class="cls-108"
        d="M504.06,1047.13c-.43,1.39-1,2.78-1.5,4.17a47.59,47.59,0,0,0,1.93-5.06A3.63,3.63,0,0,0,504.06,1047.13Z" />
    <path class="cls-109"
        d="M493.22,997.91a6.29,6.29,0,0,0-1.5-.5,10.34,10.34,0,0,1,2.36,1.09l.11.1a1.26,1.26,0,0,1,.54.1c-.33-.2-.65-.29-1-.49a13.33,13.33,0,0,1-.43-.2C493.22,998,493.22,998,493.22,997.91Z" />
    <path class="cls-110" d="M489.15,996.72a1.63,1.63,0,0,0-.65-.2c.11.2.32.3.43.5Z" />
    <path class="cls-111"
        d="M454.7,1101.42a46,46,0,0,0,5.25-2.19,26.42,26.42,0,0,1-2.68,1.09C456.41,1100.72,455.56,1101.12,454.7,1101.42Z" />
    <path class="cls-112"
        d="M436.13,1054.67c0,6.85,3.43,11,8.69,11.51a10.88,10.88,0,0,0,4.3-.29,10.25,10.25,0,0,1-3.55-.9c-3-1.48-4.93-4.86-4.93-9.72,0-9.43,7.29-21,16.2-25.8,4.72-2.48,8.91-2.58,11.92-.8a7.26,7.26,0,0,1,2.36,2.29,12.1,12.1,0,0,0-1.61-3.48c-3.12-4.17-8.91-5-15.57-1.39C444.07,1031.45,436.13,1044.15,436.13,1054.67Z" />
    <path class="cls-113"
        d="M424,1045.54c.65-1.39,1.29-2.78,1.94-4.26-.33.59-.54,1.19-.86,1.68C424.75,1043.86,424.32,1044.65,424,1045.54Z" />
    <path class="cls-114"
        d="M420.78,1053.78a11.86,11.86,0,0,0,3-5.06,6.57,6.57,0,0,0,.21-3.18c-.53,1.1-1,2.19-1.39,3.28a23.86,23.86,0,0,0-1.08,2.88A17.34,17.34,0,0,0,420.78,1053.78Z" />
    <path class="cls-115"
        d="M419.6,1087.52a6.92,6.92,0,0,0,.54,1.59c.21.3.32.69.54,1A18.14,18.14,0,0,1,419.6,1087.52Z" />
    <path class="cls-116"
        d="M418.42,1083.65c.11.5.22,1,.32,1.49a2.69,2.69,0,0,1,.43,1A18,18,0,0,1,418.42,1083.65Z" />
    <path class="cls-117"
        d="M417.67,1078.89l.32,2.58a8.34,8.34,0,0,0,.33,1.59C418.1,1081.67,417.89,1080.38,417.67,1078.89Z" />
    <path class="cls-118"
        d="M417.35,1073.93a32.7,32.7,0,0,0,.32,4.66,8,8,0,0,0,2.47-1.59c3-2.58,4.61-6.85,3.65-9.52-.86-2.29-3.22-2.68-5.9-1.1v.1A57.7,57.7,0,0,0,417.35,1073.93Z" />
    <path class="cls-119"
        d="M411.35,1074.12c0,11.4,3.47,19.92,9.4,25.33a6.84,6.84,0,0,0,1.74,1.44l.09.16a28.07,28.07,0,0,0,4.29,2.45,23.13,23.13,0,0,1-3.93-3.21,9.06,9.06,0,0,1-1.27-1.43c-4.75-5.41-7.4-13.34-7.4-23.22a53.91,53.91,0,0,1,.36-6.59c2.93-26.94,23.47-57.42,48.13-70.68,9.41-5.07,18.35-6.92,25.84-5.83a17.59,17.59,0,0,1,2.83.59h.09a22.64,22.64,0,0,1,4,1.44,12.61,12.61,0,0,0-3.74-1.94c-1-.34-2.1-.76-3.2-1.1-8.12-1.94-18-.51-28.85,5.32C433,1011.12,411.35,1045.66,411.35,1074.12Z" />
    <path class="cls-59"
        d="M482,1044.05c3-.59,6.22-4.06,7.19-7.74s-.76-6.25-3.76-5.65-6.12,4-7.08,7.74S479,1044.65,482,1044.05Z" />
    <path class="cls-59"
        d="M466.61,1068.27c1.82,1.69,5.37.4,7.94-3s3.11-7.34,1.29-9.13-5.48-.4-7.94,3S464.78,1066.48,466.61,1068.27Z" />
    <path class="cls-59"
        d="M467.9,1010c2.46.59,6-2,7.94-5.66,1.61-3.18,1.39-6.35-.54-7.44h-.11a23.84,23.84,0,0,0-3.43.89c-.86.3-1.72.6-2.68,1a11.85,11.85,0,0,0-2.47,3.38C464.68,1006,465.32,1009.42,467.9,1010Z" />
    <path class="cls-59"
        d="M446.65,1013.39a4.41,4.41,0,0,0,4.4-.2,11.72,11.72,0,0,0,5.58-7.84A90.55,90.55,0,0,0,446.65,1013.39Z" />
    <path class="cls-59"
        d="M433.12,1029.17a11.52,11.52,0,0,0,1.08-1.19,11.83,11.83,0,0,0,1.29-2.09C434.63,1027,433.88,1028.08,433.12,1029.17Z" />
    <path class="cls-59"
        d="M504.06,1047.13c-.43,1.39-1,2.78-1.5,4.17a47.59,47.59,0,0,0,1.93-5.06A3.63,3.63,0,0,0,504.06,1047.13Z" />
    <path class="cls-59" d="M489.15,996.72a1.63,1.63,0,0,0-.65-.2c.11.2.32.3.43.5Z" />
    <path class="cls-59"
        d="M454.7,1101.42a46,46,0,0,0,5.25-2.19,26.42,26.42,0,0,1-2.68,1.09C456.41,1100.72,455.56,1101.12,454.7,1101.42Z" />
    <path class="cls-59"
        d="M436.13,1054.67c0,6.85,3.43,11,8.69,11.51a10.88,10.88,0,0,0,4.3-.29,10.25,10.25,0,0,1-3.55-.9c-3-1.48-4.93-4.86-4.93-9.72,0-9.43,7.29-21,16.2-25.8,4.72-2.48,8.91-2.58,11.92-.8a7.26,7.26,0,0,1,2.36,2.29,12.1,12.1,0,0,0-1.61-3.48c-3.12-4.17-8.91-5-15.57-1.39C444.07,1031.45,436.13,1044.15,436.13,1054.67Z" />
    <path class="cls-59"
        d="M420.78,1053.78a11.86,11.86,0,0,0,3-5.06,6.57,6.57,0,0,0,.21-3.18c-.53,1.1-1,2.19-1.39,3.28a23.86,23.86,0,0,0-1.08,2.88A17.34,17.34,0,0,0,420.78,1053.78Z" />
    <path class="cls-59"
        d="M417.35,1073.93a32.7,32.7,0,0,0,.32,4.66,8,8,0,0,0,2.47-1.59c3-2.58,4.61-6.85,3.65-9.52-.86-2.29-3.22-2.68-5.9-1.1v.1A57.7,57.7,0,0,0,417.35,1073.93Z" />
    <path class="cls-59"
        d="M454.7,1101.42a46,46,0,0,0,5.25-2.19,26.42,26.42,0,0,1-2.68,1.09C456.41,1100.72,455.56,1101.12,454.7,1101.42Zm40-102.72c-.33-.2-.65-.29-1-.49l.32.29.11.1A1.26,1.26,0,0,1,494.73,998.7Zm-83.38,75.42c0,11.4,3.47,19.92,9.4,25.33a6.84,6.84,0,0,0,1.74,1.44l.09.16a28.07,28.07,0,0,0,4.29,2.45,23.13,23.13,0,0,1-3.93-3.21,9.06,9.06,0,0,1-1.27-1.43c-4.75-5.41-7.4-13.34-7.4-23.22a53.91,53.91,0,0,1,.36-6.59c2.93-26.94,23.47-57.42,48.13-70.68,9.41-5.07,18.35-6.92,25.84-5.83a17.59,17.59,0,0,1,2.83.59h.09a22.64,22.64,0,0,1,4,1.44,12.61,12.61,0,0,0-3.74-1.94c-1-.34-2.1-.76-3.2-1.1-8.12-1.94-18-.51-28.85,5.32C433,1011.12,411.35,1045.66,411.35,1074.12Z" />
    <path class="cls-60"
        d="M482,1044.05c3-.59,6.22-4.06,7.19-7.74s-.76-6.25-3.76-5.65-6.12,4-7.08,7.74S479,1044.65,482,1044.05Z" />
    <path class="cls-60"
        d="M466.61,1068.27c1.82,1.69,5.37.4,7.94-3s3.11-7.34,1.29-9.13-5.48-.4-7.94,3S464.78,1066.48,466.61,1068.27Z" />
    <path class="cls-60"
        d="M467.9,1010c2.46.59,6-2,7.94-5.66,1.61-3.18,1.39-6.35-.54-7.44h-.11a23.84,23.84,0,0,0-3.43.89c-.86.3-1.72.6-2.68,1a11.85,11.85,0,0,0-2.47,3.38C464.68,1006,465.32,1009.42,467.9,1010Z" />
    <path class="cls-60"
        d="M446.65,1013.39a4.41,4.41,0,0,0,4.4-.2,11.72,11.72,0,0,0,5.58-7.84A90.55,90.55,0,0,0,446.65,1013.39Z" />
    <path class="cls-60"
        d="M433.12,1029.17a11.52,11.52,0,0,0,1.08-1.19,11.83,11.83,0,0,0,1.29-2.09C434.63,1027,433.88,1028.08,433.12,1029.17Z" />
    <path class="cls-60"
        d="M436.13,1054.67c0,6.85,3.43,11,8.69,11.51a10.88,10.88,0,0,0,4.3-.29,10.25,10.25,0,0,1-3.55-.9c-3-1.48-4.93-4.86-4.93-9.72,0-9.43,7.29-21,16.2-25.8,4.72-2.48,8.91-2.58,11.92-.8a7.26,7.26,0,0,1,2.36,2.29,12.1,12.1,0,0,0-1.61-3.48c-3.12-4.17-8.91-5-15.57-1.39C444.07,1031.45,436.13,1044.15,436.13,1054.67Z" />
    <path class="cls-60"
        d="M420.78,1053.78a11.86,11.86,0,0,0,3-5.06,6.57,6.57,0,0,0,.21-3.18c-.53,1.1-1,2.19-1.39,3.28a23.86,23.86,0,0,0-1.08,2.88A17.34,17.34,0,0,0,420.78,1053.78Z" />
    <path class="cls-60"
        d="M417.35,1073.93a32.7,32.7,0,0,0,.32,4.66,8,8,0,0,0,2.47-1.59c3-2.58,4.61-6.85,3.65-9.52-.86-2.29-3.22-2.68-5.9-1.1v.1A57.7,57.7,0,0,0,417.35,1073.93Z" />
    <path class="cls-61"
        d="M502.56,1051.3a47.59,47.59,0,0,0,1.93-5.06,3.63,3.63,0,0,0-.43.89C503.63,1048.52,503.1,1049.91,502.56,1051.3Zm-47.86,50.12a46,46,0,0,0,5.25-2.19,26.42,26.42,0,0,1-2.68,1.09C456.41,1100.72,455.56,1101.12,454.7,1101.42Z" />
    <path class="cls-61"
        d="M414.27,1075.64c0,9.88,2.65,17.81,7.4,23.22a9.06,9.06,0,0,0,1.27,1.43,23.13,23.13,0,0,0,3.93,3.21c8.86,5.58,21.64,5.24,35.89-2.28,26.66-14.35,48.4-48.89,48.4-77.35,0-14.86-6-25.08-15.62-29.3a22.64,22.64,0,0,0-4-1.44h-.09a17.59,17.59,0,0,0-2.83-.59c-7.49-1.09-16.43.76-25.84,5.83-24.66,13.26-45.2,43.74-48.13,70.68A53.91,53.91,0,0,0,414.27,1075.64Zm3.1-1.69a52.46,52.46,0,0,1,.55-7.43v-.17c.09-.93.28-1.94.46-3s.45-2.2.73-3.3v-.08a2.56,2.56,0,0,1,.18-.68,1.86,1.86,0,0,1,.18-.67v-.34c.1-.42.28-.76.37-1.18a30,30,0,0,1,.91-3v-.25a20.52,20.52,0,0,1,.82-2,29.39,29.39,0,0,1,1-3c.45-1.1.91-2.11,1.46-3.21l.55-1.26a9.36,9.36,0,0,0,.46-1.35c.36-.51.54-1.1.91-1.69.55-1.1,1.19-2.28,1.82-3.38a2.54,2.54,0,0,1,.37-.68c.82-1.43,1.55-2.78,2.37-4a.5.5,0,0,1,.09-.34,10.25,10.25,0,0,0,1.19-1.69c.46-.67.82-1.35,1.28-1.94.82-1.1,1.55-2.19,2.37-3.29,0-.09,0-.09.19-.17.82-1,1.55-2.11,2.46-3.21s1.83-2.19,2.74-3.21a75.76,75.76,0,0,1,5.85-5.91,85.84,85.84,0,0,1,9.95-8,17.82,17.82,0,0,1,3-1.94c1.1-.68,2-1.19,3.11-1.78s2-1.09,3.2-1.6a13.26,13.26,0,0,0,1.64-.68c1.46-.59,2.92-1.18,4.2-1.6a24.23,24.23,0,0,1,3.38-.85h.09c.18,0,.27-.08.36-.08a8.68,8.68,0,0,1,1.38-.34,8.11,8.11,0,0,1,1.27-.17c.37,0,.55-.08.92-.08a9.72,9.72,0,0,1,1.46-.25c.64,0,1.28-.09,2-.09h.45a5.67,5.67,0,0,1,1.28.09,6.85,6.85,0,0,1,1.37.08,8.66,8.66,0,0,1,1.55.25,3.17,3.17,0,0,1,.55.09h.46l.09.08h.09a1.9,1.9,0,0,1,.64.17h.09l1.92.51a1.08,1.08,0,0,1,.55.25,8.31,8.31,0,0,1,1.28.42.33.33,0,0,1,.27.09c0,.08,0,.08.09.08a.32.32,0,0,0,.19.09.29.29,0,0,0,.18.08,10.25,10.25,0,0,1,1,.51c.09,0,.18.08.37.08a.09.09,0,0,1,.09.09.08.08,0,0,0,.09.08c.09,0,.18.17.27.25a2.08,2.08,0,0,1,.46.26.59.59,0,0,0,.18.25,6.82,6.82,0,0,1,.82.34c0,.17.1.17.1.17h.09a2,2,0,0,1,.45.25l.19.17a16,16,0,0,1,1.27,1.1l.64.59c.28.25.37.42.55.59a9.41,9.41,0,0,1,1,1.1,8.16,8.16,0,0,1,1.37,1.86c.18.25.45.67.64.92a10,10,0,0,0,.64,1.1c.18.51.54,1,.72,1.52a.47.47,0,0,1,.28.42,3.52,3.52,0,0,1,.36,1,19.11,19.11,0,0,1,.83,2c.09.09.09.17.09.43v.08a3.4,3.4,0,0,1,.27,1,.79.79,0,0,1,.28.68c0,.08.09.17.09.25v.17c0,.09.09.26.09.34a18.07,18.07,0,0,1,.45,2.11,1.23,1.23,0,0,1,.1.59c0,.17.09.42.09.59v.09a5.58,5.58,0,0,1,.09,1.18,1.06,1.06,0,0,1,.09.42c0,.59.18,1.18.18,1.78,0,.92.09,2,.09,2.95a12.88,12.88,0,0,1-.09,1.86v.67c0,1.44-.27,3-.36,4.4s-.46,3-.73,4.3c-.37,1.78-.64,3.46-1.19,5.41,0,.08-.09.25-.09.33-.28.93-.55,1.86-.73,2.71a3.11,3.11,0,0,0-.37,1,15.1,15.1,0,0,1-1,2.62c-.28.84-.64,1.6-.92,2.45-.09.25-.27.67-.45,1.09a81.34,81.34,0,0,1-4.11,8.53,46.2,46.2,0,0,1-2.65,4.56,29.31,29.31,0,0,1-1.92,3.13c-1.09,1.69-2.37,3.37-3.56,5l-1.55,2.11a9.8,9.8,0,0,1-.91,1.1,4.76,4.76,0,0,1-.83,1c0,.09,0,.09-.09.17a.87.87,0,0,0-.36.42c-1.19,1.35-2.38,2.62-3.56,4-.28.26-.64.68-.92.93-1,1-1.92,1.86-2.92,2.7a74.62,74.62,0,0,1-5.66,5,32.16,32.16,0,0,0-2.74,2.12,3,3,0,0,0-.73.42,40.5,40.5,0,0,1-4.29,2.7c-.09.08-.19.25-.28.34a19.94,19.94,0,0,0-2.28,1.26,29.87,29.87,0,0,1-2.83,1.36c-.46.16-.82.42-1.37.59a14.29,14.29,0,0,1-2.56,1.1c-.46.16-.91.33-1.28.5-1.73.59-3.47,1-5.2,1.44a30.42,30.42,0,0,1-3.75.59,6.31,6.31,0,0,1-1.18.08,23,23,0,0,1-4.84,0,8.46,8.46,0,0,1-1.65-.17,24.45,24.45,0,0,1-3-.76,9.7,9.7,0,0,1-2.28-.76,5.67,5.67,0,0,1-1.46-.67c-.19,0-.19-.09-.28-.09s-.27-.16-.46-.25a4,4,0,0,1-1.09-.67h-.19s0-.09-.08-.09-.28-.25-.55-.34a5.44,5.44,0,0,1-1.55-1.18c-.64-.59-1.19-1-1.83-1.69h-.09v-.08c-.18,0-.18-.09-.18-.09-.37-.5-.83-.93-1.28-1.43s-.83-1.19-1.28-1.78c0-.08-.09-.08-.09-.16-.37-.6-.64-1.1-1-1.69a12.35,12.35,0,0,1-.73-1.52l-.27-.51c0-.17-.19-.34-.28-.42-.18-.51-.36-1-.54-1.61s-.46-1.52-.83-2.36a9.07,9.07,0,0,0-.36-1.52,1.35,1.35,0,0,1-.09-.59,9.05,9.05,0,0,1-.28-1.61,7.06,7.06,0,0,0-.18-1.26,6.08,6.08,0,0,0-.18-1.27v-.34A36,36,0,0,1,417.37,1074Z" />
    <path class="cls-59"
        d="M425.29,1096.85c.65.69,1.18,1.09,1.82,1.69a11,11,0,0,0,1.62,1.19c.21.1.32.2.53.3a.1.1,0,0,1,.11.1h.1a8.11,8.11,0,0,0,1.19.69.81.81,0,0,0,.43.2c.1,0,.1.1.21.1a6.87,6.87,0,0,0,1.5.69,19.65,19.65,0,0,0,2.26.8,28.12,28.12,0,0,0,3,.69,9,9,0,0,0,1.72.2,19.49,19.49,0,0,0,4.83,0,5.16,5.16,0,0,0,1.18-.1,24.19,24.19,0,0,0,3.75-.6,49.25,49.25,0,0,0,5.16-1.38c.86-.3,1.71-.7,2.57-1.1a26.42,26.42,0,0,0,2.68-1.09c.86-.4,1.83-.89,2.8-1.39.75-.39,1.5-.89,2.25-1.29l.32-.3a50.14,50.14,0,0,0,4.29-2.67,3.49,3.49,0,0,1,.75-.5c.86-.7,1.72-1.39,2.69-2.09a64.16,64.16,0,0,0,5.69-5c1-.89,1.93-1.68,2.89-2.68.33-.29.65-.69,1-1,1.18-1.29,2.36-2.58,3.54-4,.11-.1.22-.3.32-.4s.11-.09.11-.19a4.14,4.14,0,0,0,.86-1,7.6,7.6,0,0,0,.86-1.09l1.61-2.08c1.18-1.59,2.47-3.28,3.54-5,.75-1.1,1.39-2.19,1.93-3.18,1-1.49,1.82-3,2.68-4.56a87.66,87.66,0,0,0,4.08-8.54,6.94,6.94,0,0,0,.43-1.09c.54-1.39,1.07-2.78,1.5-4.17a3.63,3.63,0,0,1,.43-.89c.11-.4.22-.7.32-1,.22-.9.54-1.79.76-2.68,0-.1.1-.3.1-.4a51.94,51.94,0,0,0,1.18-5.36c.32-1.39.54-2.88.75-4.37s.33-2.87.33-4.36v-.7a10.63,10.63,0,0,0,.1-1.78c0-1-.1-2.09-.1-3,0-.6-.11-1.19-.11-1.79a.66.66,0,0,0-.11-.39,4.33,4.33,0,0,0-.11-1.19v-.1c0-.2-.1-.4-.1-.6a1.17,1.17,0,0,0-.11-.6,15.7,15.7,0,0,0-.43-2.08c0-.1-.11-.3-.11-.4v-.1c0-.09-.11-.19-.11-.29a1.35,1.35,0,0,0-.21-.7,3.47,3.47,0,0,0-.32-1v-.1c0-.2,0-.3-.11-.4a10.83,10.83,0,0,0-.75-2,3.31,3.31,0,0,0-.43-1.09.78.78,0,0,0-.21-.4c-.22-.5-.54-1-.75-1.49s-.43-.69-.65-1.09-.43-.69-.64-1a8.23,8.23,0,0,0-1.4-1.79,4.27,4.27,0,0,0-1-1.09c-.22-.2-.33-.4-.54-.6l-.64-.59a12.45,12.45,0,0,0-1.29-1.09l-.22-.2a1.32,1.32,0,0,0-.43-.3h-.1s-.11,0-.11-.1a4.32,4.32,0,0,0-.75-.39l-.22-.2c-.1-.1-.32-.2-.42-.3s-.22-.2-.33-.2a.1.1,0,0,1-.1-.1.1.1,0,0,0-.11-.1c-.11,0-.22-.1-.32-.1a1.26,1.26,0,0,0-.54-.1l-.11-.1a10.34,10.34,0,0,0-2.36-1.09c-.21-.1-.32-.1-.54-.2a14.75,14.75,0,0,0-1.93-.49h-.1l-.22.3c4.72,5.06,7.41,12.6,7.41,22.32,0,26.6-20.29,58.85-45.29,72.25C441.5,1096.65,432.59,1098.34,425.29,1096.85Z" />
    <path class="cls-60"
        d="M417.67,1078.59v.3c.22,1.49.43,2.78.65,4.17a1.25,1.25,0,0,0,.1.59,18,18,0,0,0,.75,2.48,5.66,5.66,0,0,0,.43,1.39,18.14,18.14,0,0,0,1.08,2.58,8.67,8.67,0,0,0,.75,1.49c.32.6.64,1.09,1,1.69,0,.1.11.1.11.2l1.29,1.78c.43.5.86.9,1.29,1.39a.1.1,0,0,0,.1.1v.1h.11c7.3,1.49,16.21-.2,25.76-5.26,25-13.4,45.29-45.65,45.29-72.25,0-9.72-2.69-17.26-7.41-22.32-.11-.2-.32-.3-.43-.5h-.11c-.32-.1-.64-.1-1.07-.2a6.72,6.72,0,0,0-1.5-.2,6.11,6.11,0,0,0-1.4-.1,31.56,31.56,0,0,0-5.25.2c-.33,0-.54.1-.86.1a5.77,5.77,0,0,0-1.29.2l-1.4.3c-.1,0-.21.1-.32.1,1.93,1.09,2.15,4.26.54,7.44-1.93,3.67-5.48,6.25-7.94,5.66s-3.22-4.07-1.29-7.84a11.85,11.85,0,0,1,2.47-3.38c-1,.4-2,.8-3.11,1.29a30.13,30.13,0,0,0-3.22,1.59c-1.08.6-2,1.09-3.12,1.79a29.21,29.21,0,0,0-3,1.88,11.72,11.72,0,0,1-5.58,7.84,4.41,4.41,0,0,1-4.4.2,81.38,81.38,0,0,0-5.8,6c-1,1-1.82,2.09-2.79,3.18s-1.61,2.18-2.47,3.18c-.1.1-.1.1-.1.19a11.83,11.83,0,0,1-1.29,2.09,11.52,11.52,0,0,1-1.08,1.19c-.85,1.29-1.71,2.58-2.57,4s-1.61,2.68-2.36,4.07a2.37,2.37,0,0,0-.43.69c-.65,1.09-1.29,2.28-1.82,3.38-.65,1.48-1.29,2.87-1.94,4.26a6.57,6.57,0,0,1-.21,3.18,11.86,11.86,0,0,1-3,5.06v.2a32.14,32.14,0,0,0-1,3.08l-.33,1.19v.29a2.62,2.62,0,0,0-.21.7,2.25,2.25,0,0,0-.21.69v.1c-.22,1.09-.54,2.19-.65,3.28s-.43,2.08-.53,3.07c2.68-1.58,5-1.19,5.9,1.1,1,2.67-.65,6.94-3.65,9.52A8,8,0,0,1,417.67,1078.59Zm60.64-40.19c1-3.77,4.18-7.15,7.08-7.74s4.72,2,3.76,5.65-4.19,7.15-7.19,7.74S477.23,1042.07,478.31,1038.4Zm3.54-28.38a6.36,6.36,0,0,1,4.72-1.89,3,3,0,0,1,2.58,1.89c1,2.68-.76,7-3.76,9.62a9.57,9.57,0,0,1-2.26,1.49c-2.14,1-4.07.5-4.93-1.49C477.23,1017,479,1012.7,481.85,1010Zm-14,49.12c2.46-3.38,6.11-4.67,7.94-3s1.29,5.86-1.29,9.13-6.12,4.67-7.94,3S465.32,1062.41,467.9,1059.14ZM445.36,1083a11.3,11.3,0,0,1,.43-2.58,12,12,0,0,1,5.26-6.45,4.71,4.71,0,0,1,1.39-.5c2.47-.79,4.29.6,4.29,3.47,0,3.38-2.57,7.45-5.68,9.13S445.36,1086.33,445.36,1083ZM433,1056.26c0-12.3,9.33-27.19,20.92-33.34,7.52-4,14.17-3.28,17.82,1a15.62,15.62,0,0,1,3.11,10,30.19,30.19,0,0,1-2.25,11.12c0,.1,0,.1-.11.2a44,44,0,0,1-9.12,14.58c0,.1-.11.2-.22.3a38.32,38.32,0,0,1-9.23,7.15c-4.29,2.28-8.26,3-11.48,2.48C436.77,1068.77,433,1064,433,1056.26Zm-6.77,26.4c1.83-3.67,5.37-6.15,7.95-5.56a3.06,3.06,0,0,1,2.14,2.18,7.8,7.8,0,0,1-.85,5.56c-1.4,2.88-4.08,5.16-6.23,5.66a5,5,0,0,1-1.72,0C425,1089.9,424.43,1086.33,426.25,1082.66Z" />
    <path class="cls-62"
        d="M433,1056.26c0,7.74,3.75,12.51,9.44,13.5,3.22.49,7.19-.2,11.48-2.48a38.32,38.32,0,0,0,9.23-7.15c.11-.1.22-.2.22-.3a44,44,0,0,0,9.12-14.58c.11-.1.11-.1.11-.2a30.19,30.19,0,0,0,2.25-11.12,15.62,15.62,0,0,0-3.11-10c-3.65-4.27-10.3-5-17.82-1C442.35,1029.07,433,1044,433,1056.26Zm3.11-1.59c0-10.52,7.94-23.22,17.81-28.58,6.66-3.57,12.45-2.78,15.57,1.39a12.1,12.1,0,0,1,1.61,3.48,12.63,12.63,0,0,1,1.93,7,27,27,0,0,1-2.79,11.12,69.63,69.63,0,0,1-4.08,6.45c0,.19-.21.29-.32.49a30.64,30.64,0,0,1-9,7.74,15.17,15.17,0,0,1-7.72,2.09,10.88,10.88,0,0,1-4.3.29C439.56,1065.69,436.13,1061.52,436.13,1054.67Z" />
    <path class="cls-62"
        d="M436.13,1054.67c0,6.85,3.43,11,8.69,11.51a10.88,10.88,0,0,0,4.3-.29,10.25,10.25,0,0,1-3.55-.9c-3-1.48-4.93-4.86-4.93-9.72,0-9.43,7.29-21,16.2-25.8,4.72-2.48,8.91-2.58,11.92-.8a7.26,7.26,0,0,1,2.36,2.29,12.1,12.1,0,0,0-1.61-3.48c-3.12-4.17-8.91-5-15.57-1.39C444.07,1031.45,436.13,1044.15,436.13,1054.67Z" />
    <path class="cls-59"
        d="M436.13,1054.67c0,6.85,3.43,11,8.69,11.51a10.88,10.88,0,0,0,4.3-.29,10.25,10.25,0,0,1-3.55-.9c-3-1.48-4.93-4.86-4.93-9.72,0-9.43,7.29-21,16.2-25.8,4.72-2.48,8.91-2.58,11.92-.8a7.26,7.26,0,0,1,2.36,2.29,12.1,12.1,0,0,0-1.61-3.48c-3.12-4.17-8.91-5-15.57-1.39C444.07,1031.45,436.13,1044.15,436.13,1054.67Z" />
    <path class="cls-61"
        d="M440.64,1055.27c0,4.86,1.93,8.24,4.93,9.72a10.25,10.25,0,0,0,3.55.9,15.17,15.17,0,0,0,7.72-2.09,30.64,30.64,0,0,0,9-7.74c.11-.2.32-.3.32-.49a69.63,69.63,0,0,0,4.08-6.45,27,27,0,0,0,2.79-11.12,12.63,12.63,0,0,0-1.93-7,7.26,7.26,0,0,0-2.36-2.29c-3-1.78-7.2-1.68-11.92.8C447.93,1034.23,440.64,1045.84,440.64,1055.27Z" />
    <path class="cls-62"
        d="M446.65,1013.39a4.41,4.41,0,0,0,4.4-.2,11.72,11.72,0,0,0,5.58-7.84A90.55,90.55,0,0,0,446.65,1013.39Z" />
    <path class="cls-62"
        d="M433.12,1029.17a11.52,11.52,0,0,0,1.08-1.19,11.83,11.83,0,0,0,1.29-2.09C434.63,1027,433.88,1028.08,433.12,1029.17Z" />
    <path class="cls-62"
        d="M420.78,1053.78a11.86,11.86,0,0,0,3-5.06,6.57,6.57,0,0,0,.21-3.18c-.53,1.1-1,2.19-1.39,3.28a23.86,23.86,0,0,0-1.08,2.88A17.34,17.34,0,0,0,420.78,1053.78Z" />
    <path class="cls-62"
        d="M417.35,1073.93a32.7,32.7,0,0,0,.32,4.66,8,8,0,0,0,2.47-1.59c3-2.58,4.61-6.85,3.65-9.52-.86-2.29-3.22-2.68-5.9-1.1v.1A57.7,57.7,0,0,0,417.35,1073.93Z" />
    <path class="cls-62"
        d="M427.54,1090.5a5,5,0,0,0,1.72,0c2.15-.5,4.83-2.78,6.23-5.66a7.8,7.8,0,0,0,.85-5.56,3.06,3.06,0,0,0-2.14-2.18c-2.58-.59-6.12,1.89-7.95,5.56S425,1089.9,427.54,1090.5Z" />
    <path class="cls-62"
        d="M445.36,1083c0,3.37,2.57,4.76,5.69,3.07s5.68-5.75,5.68-9.13c0-2.87-1.82-4.26-4.29-3.47a4.71,4.71,0,0,0-1.39.5,12,12,0,0,0-5.26,6.45A11.3,11.3,0,0,0,445.36,1083Z" />
    <path class="cls-62"
        d="M466.61,1068.27c1.82,1.69,5.37.4,7.94-3s3.11-7.34,1.29-9.13-5.48-.4-7.94,3S464.78,1066.48,466.61,1068.27Z" />
    <path class="cls-62"
        d="M482,1044.05c3-.59,6.22-4.06,7.19-7.74s-.76-6.25-3.76-5.65-6.12,4-7.08,7.74S479,1044.65,482,1044.05Z" />
    <path class="cls-62"
        d="M478.2,1019.64c.86,2,2.79,2.48,4.93,1.49a9.57,9.57,0,0,0,2.26-1.49c3-2.58,4.72-6.94,3.76-9.62a3,3,0,0,0-2.58-1.89,6.36,6.36,0,0,0-4.72,1.89C479,1012.7,477.23,1017,478.2,1019.64Z" />
    <path class="cls-62"
        d="M467.9,1010c2.46.59,6-2,7.94-5.66,1.61-3.18,1.39-6.35-.54-7.44h-.11a23.84,23.84,0,0,0-3.43.89c-.86.3-1.72.6-2.68,1a11.85,11.85,0,0,0-2.47,3.38C464.68,1006,465.32,1009.42,467.9,1010Z" />
    <path id="BODY" class="cls-14"
        d="M990.81,641.82v-60.7a36.94,36.94,0,0,0-1.14-5.46,36.07,36.07,0,0,0-2.17-4.29c-.37-.52-1.24-1.63-1.47-1.89l-.7-.77-.68-.67-.38-.34,0-3.36a9,9,0,0,0-.2-.9,5.7,5.7,0,0,0-.44-1,6.84,6.84,0,0,0-.58-.75l-.38-.36-.53-.39-1.37-.78-4.84-2.8L971,554.55l-5.9-3.41-11.29-6.52L936.24,534.5l-19.72-11.39-21.8-12.59L758.25,431.71l-2-1.14a13.34,13.34,0,0,0-2-.94,11.4,11.4,0,0,0-3.32-.65c-1.28,0-2.19.1-2.19.1l-1.89.41a17,17,0,0,0-2.62,1.16l-5.1,2.94L706,452.74,525.68,556.82l-94.27-54.43s-1.1-.6-1.64-.81a23.19,23.19,0,0,0-2.3-.73,18.09,18.09,0,0,0-2.12-.36c-.33,0-1.75-.05-2,0s-1.32.19-1.45.22-1.63.37-1.94.48-1.42.55-1.52.6-2.22,1.2-2.22,1.2l-36.33,21-69.12,39.91A31.2,31.2,0,0,0,304,569c-2.56,2.83-4.25,5.1-4.25,5.1s-2.09,3.36-2.68,4.68-1.51,3.81-1.51,3.81l-43,131.54L212.3,737.42,74.72,816.86s-3.71,2.28-4.73,3S64.38,824,63.24,825s-3.57,3.17-3.78,3.37-4.22,4.28-5.26,5.48-4.69,5.81-5.6,7.14-4.38,6.82-4.71,7.56V855l-.08,97.64,239,138,29.51-10.5,56.78-32.77a25.13,25.13,0,0,0,3.34-2.44,26.35,26.35,0,0,0,3.89-4.86c.72-1.39,2.53-6.37,3.1-8.08l7-20.61,3.73-11.06s2.39-4.89,3-5.93,4.82-8.2,5.81-9.68a50.11,50.11,0,0,1,3.89-5.26l7.54-6.78,9-8.07c.53-.48,1.55-1.49,2-1.8a14.5,14.5,0,0,1,3.42-1.4c1.17-.27,8.6-1.45,8.6-1.45l17.26-1.39,7-.23L468,959.47l11.16,1.26s1,.16,1.21.22,4.57,1.71,5.66,2.17,6.27,2.7,7.42,3.16a52.16,52.16,0,0,0,6.31,2.19,7,7,0,0,0,2,.22,2.32,2.32,0,0,0,.91-.34l2.52-1.5,16.86-10.08,21.83-13.09,259-159.83.57-13.06L989.83,653.24a5.94,5.94,0,0,0,.74-1,9.76,9.76,0,0,0,.24-1.53Z" />
    <path class="cls-14"
        d="M984.16,558.27,758.48,427.94a11.9,11.9,0,0,0-11.91,0L528.28,554.18l132.83,78.87-7.88,122.08L984.16,566.29A4.63,4.63,0,0,0,984.16,558.27Z" />
    <polygon class="cls-121"
        points="956.66 564.92 653.09 740.55 658.51 635.69 558.87 576.52 539.31 564.92 749.87 445.16 956.66 564.92" />
    <polygon class="cls-122"
        points="889.15 603.89 749.87 523.8 611.88 608.49 658.51 635.69 656.9 666.77 653.09 740.23 889.15 603.89" />
    <path class="cls-121"
        d="M311.93,1080.12l56.77-32.78a19.59,19.59,0,0,0,8.76-10.68l12.27-36.37c1.09-3.24,10.1-18.6,12.67-20.87l18.51-16.65c3.61-3.19,31.51-4.49,36.33-4.46l21.53,2.43c3.33,0,20.34,9.39,23.26,7.79,0,0,197.14-117.07,300.52-184.35,40.65-26.46,54.42-46.56,54.7-46.79L983.47,657a19.56,19.56,0,0,0,7-15l.38-59.53c0-9.45-6.65-16.21-6.65-16.21L653.23,755.13l1.24-47.92,3.13-53.38s.84-17.35.91-18.14L551,685.53a19.51,19.51,0,0,0-8.77,10.84L500,826a19.55,19.55,0,0,1-8.82,10.87l-191,110.27-23.3,13.45A19.58,19.58,0,0,0,267.39,981l15.5,85.64a19.57,19.57,0,0,0,15.81,15.78h0A19.59,19.59,0,0,0,311.93,1080.12Z" />
    <polygon class="cls-121"
        points="43.51 848.5 282.41 986.46 282.41 1090.62 43.42 952.64 43.51 848.5" />
    <polygon class="cls-121"
        points="749.87 523.8 749.87 445.16 956.66 564.92 889.15 603.89 749.87 523.8" />
    <polygon class="cls-14"
        points="56.08 959.94 43.42 952.64 43.51 848.5 282.41 986.46 282.41 1090.62 267.82 1082.19 267.82 995.15 137.62 934.1 56.08 872.9 56.08 959.94" />
    <polygon class="cls-123"
        points="26.48 935.6 26.48 984.39 130.36 1054.52 281.38 1131.43 281.42 1082.59 26.48 935.6" />
    <polygon class="cls-124"
        points="281.42 1082.59 312.78 1064.44 312.78 1113.31 281.38 1131.43 281.42 1082.59" />
    <polygon class="cls-125"
        points="306.94 1061.07 290.08 1070.96 137.82 995.33 51.09 932.98 51.09 921.38 26.48 935.6 36.52 941.39 130.36 1006.71 275.49 1079.37 281.42 1082.59 312.78 1064.44 306.94 1061.07" />
    <polygon class="cls-123"
        points="1010.74 645.45 1010.74 674.11 988.03 687.14 988.03 658.57 1010.74 645.45" />
    <polygon class="cls-125"
        points="1005 642.08 990.12 633.49 990.11 650.67 982.06 655.3 988.03 658.57 1010.74 645.45 1005 642.08" />
    <polygon class="cls-124"
        points="988.03 687.14 982.14 683.93 982.06 655.3 988.03 658.57 988.03 687.14" />
    <polygon class="cls-126"
        points="64.46 901.2 138.23 959.42 267.93 1018.02 267.93 1059.76 138.23 995.33 64.46 941.71 64.46 901.2" />
    <path class="cls-127"
        d="M80.71,928.87C80.71,937.2,78,944,74.76,944s-5.94-6.75-5.94-15.08,2.66-15.09,5.94-15.09S80.71,920.54,80.71,928.87Z" />
    <path class="cls-127"
        d="M102,944c0,8.33-2.66,15.08-6,15.08s-5.94-6.75-5.94-15.08,2.66-15.08,5.94-15.08S102,935.62,102,944Z" />
    <path class="cls-127"
        d="M237.42,1021.15c0,8.33-2.66,15.08-5.94,15.08s-5.95-6.75-5.95-15.08,2.66-15.09,5.95-15.09S237.42,1012.82,237.42,1021.15Z" />
    <path class="cls-127"
        d="M258.68,1031.23c0,8.33-2.66,15.08-5.94,15.08s-6-6.75-6-15.08,2.66-15.08,6-15.08S258.68,1022.9,258.68,1031.23Z" />
    <polygon class="cls-128"
        points="274.01 717.05 314.85 598.78 532.37 724.22 493.18 843.63 274.01 717.05" />
    <polygon class="cls-128"
        points="649.69 673.01 649.69 765.62 515.61 841.59 550.77 729.95 649.69 673.01" />
    <path class="cls-129"
        d="M640.26,794.9c2.33-.52,26.14-13.65,27.56-16.95,1.16-2.71.19-7.57-2-10.93a.53.53,0,0,1-.13-.26l-.39-.58s-27.55,18.44-28.46,20.64v.06C636.44,788.82,637.86,795.35,640.26,794.9Z" />
    <path class="cls-130"
        d="M636.83,786.82v.06c.06,1.68,1.16,2.65,2.91,1.62l22.38-12.88a8.6,8.6,0,0,0,3.82-6.59v-.85a6.65,6.65,0,0,0-.13-1.16.53.53,0,0,1-.13-.26l-.39-.58c-.71-.84-1.87-1-3.17-.2l-16.3,9.38a23.69,23.69,0,0,0-8.21,8.8A5.79,5.79,0,0,0,636.83,786.82Z" />
    <path class="cls-131"
        d="M659.41,772.35c0,1.3.92,1.83,2.05,1.17a4.51,4.51,0,0,0,2.06-3.54c0-1.3-.92-1.82-2.06-1.17A4.54,4.54,0,0,0,659.41,772.35Z" />
    <path class="cls-132"
        d="M526.05,847.7a3.26,3.26,0,0,0,1.08.35,6.25,6.25,0,0,0,1.13.39c.85.29,1.76.57,2.72.85s1.7.51,2.61.74h.06c1.7.4,3.35.79,4.88,1.08a41.47,41.47,0,0,0,4.2.62c1.13.12,2.32.23,3.57.29.85.05,1.65.05,2.38.05h.46a21.32,21.32,0,0,0,7.94-1.3,10.87,10.87,0,0,0,3.06-1.87c2.67-2.39,3.12-5.68,3.18-8.23,0-.68-.06-.62-.06-1.25-.4-6.63-2.78-8.56-7.2-9.87a3.38,3.38,0,0,1-.34-.11l-4.82,2.95-18,11.12L531,844.64l-4.87,3Z" />
    <path class="cls-133"
        d="M511,842.83a1,1,0,0,0,.34.22,16.9,16.9,0,0,0,5.39,1.71H520l11-.12h1.37l.51-1.13,2.15-4.65s-.79-.34-2-.8c-.4-.17-.85-.34-1.37-.51l-1.41-.51c-2-.68-4-1.19-4.66-.91s-2-.17-3.8-.68l-1.13-.34-.63-.17-.56-.17a19.53,19.53,0,0,0-3-.51.2.2,0,0,0-.17-.06,4.12,4.12,0,0,0-2.83.4C510.62,836.42,509.37,841.41,511,842.83Z" />
    <path class="cls-134"
        d="M516.52,838.23c.06.51.17,1,.23,1.42s.16.68.28,1a1.82,1.82,0,0,0,.34.85,7.54,7.54,0,0,0,.34.74l.34.51c.17.29.4.51.57.8.34.34.68.68,1.08,1a.45.45,0,0,0,.22.23H520a20.59,20.59,0,0,0,2.67,1.41c.68.34,1.82.85,3.41,1.48a7.17,7.17,0,0,1,1,.4,6.25,6.25,0,0,0,1.13.39c.85.29,1.76.57,2.72.85s1.7.51,2.61.74h.06c1.7.4,3.35.79,4.88,1.08a41.47,41.47,0,0,0,4.2.62c1.13.12,2.32.23,3.57.29.85.05,1.65.05,2.38.05h.46a21.32,21.32,0,0,0,7.94-1.3,10.87,10.87,0,0,0,3.06-1.87c2.67-2.39,3.12-5.68,3.18-8.23,0-.68-.06-.62-.06-1.25-.4-6.63-2.78-8.56-7.2-9.87a3.38,3.38,0,0,1-.34-.11c-1.65-.45-3.46-1-5.34-1.48-.51-.11-1-.28-1.58-.39a15.2,15.2,0,0,0-1.54-.4c-7.48-1.93-14.46-3.4-14.46-3.4a2.34,2.34,0,0,0-.62-.12,16,16,0,0,0-7.1-.11,6.3,6.3,0,0,0-1.36.34,12,12,0,0,0-1.36.45v.06a9.58,9.58,0,0,0-5.28,6.13v.05a3.24,3.24,0,0,0-.33,1.08l-.17,1.19a12.36,12.36,0,0,0-.12,1.42A18.32,18.32,0,0,0,516.52,838.23Z" />
    <path class="cls-135"
        d="M516.46,838.29a7.89,7.89,0,0,0,.29,1.36c.11.34.16.68.28,1a1.82,1.82,0,0,0,.34.85c0,.06,0,.18.06.23a2.58,2.58,0,0,1,.28.51l.34.51c.17.29.4.51.57.8.34.34.68.68,1.08,1a.45.45,0,0,0,.22.23H520a19.15,19.15,0,0,0,6,2.94h.06a3.26,3.26,0,0,0,1.08.35,6.25,6.25,0,0,0,1.13.39c.85.29,1.76.57,2.72.85s1.7.51,2.61.74h.06c1.7.4,3.35.79,4.88,1.08a41.47,41.47,0,0,0,4.2.62c1.13.12,2.32.23,3.57.29.85.05,1.65.05,2.38.05h.46c1.07-.11,2-.17,2.78-.28,3.68-.51,6.46-2.61,5.73-11.12-.4-5.1-2.9-7.09-6.75-8.28a54.86,54.86,0,0,0-5.85-1.36,9.28,9.28,0,0,1-1.59-.34c-.56-.06-1.13-.17-1.7-.29a.23.23,0,0,0-.17,0,123.37,123.37,0,0,0-13.9-2.5,37,37,0,0,0-4.14-.28,10,10,0,0,0-1.25,0,4,4,0,0,0-1.19.12,4.86,4.86,0,0,0-1.58.28,4.13,4.13,0,0,0-2.45,2.5v.05a3.24,3.24,0,0,0-.33,1.08,9.21,9.21,0,0,0-.46,2.55A19.51,19.51,0,0,0,516.46,838.29Z" />
    <path class="cls-136"
        d="M501.7,963.62s-11.43,4.09-49.76,19c-8.08,3.15-53.35,39.91-64.59,49-13.32,10.81-30.62,23.72-30.62,23.72,0-40.1,16.92-100.6,74.15-104.75C459.57,948.59,469.69,950.15,501.7,963.62Z" />
    <path class="cls-136"
        d="M927.43,692.25s-6.83,4.5-26.72,16.85c-7.37,4.57-53.35,39.91-64.6,49-13.32,10.8-30.61,23.72-30.61,23.72,0-40.11,16.91-100.61,74.14-104.76C908.34,675,914.31,683.38,927.43,692.25Z" />
</svg>