<svg id="Capa_1" data-name="Capa 1" xmlns="http://www.w3.org/2000/svg" xmlns:xlink="http://www.w3.org/1999/xlink" viewBox="0 0 154.58 105.81"><defs><style>.cls-1{fill:none;}.cls-2{fill:#b1b1b1;}.cls-3{fill:#838485;}.cls-4{fill:#5b5954;}.cls-5{clip-path:url(#clip-path);}.cls-6{fill:url(#Degradado_sin_nombre_295);}.cls-7{fill:#4a4752;}.cls-8{clip-path:url(#clip-path-2);}.cls-9{fill:url(#Degradado_sin_nombre_295-2);}.cls-10{clip-path:url(#clip-path-3);}.cls-11{fill:url(#Degradado_sin_nombre_296);}.cls-12{fill:#d5d3d4;}.cls-13{clip-path:url(#clip-path-4);}.cls-14{fill:url(#Degradado_sin_nombre_299);}.cls-15{fill:#e0dfe0;}.cls-16{clip-path:url(#clip-path-5);}.cls-17{fill:url(#Degradado_sin_nombre_299-2);}.cls-18{fill:#d6d4d6;}.cls-19{clip-path:url(#clip-path-6);}.cls-20{fill:url(#Degradado_sin_nombre_299-3);}.cls-21{clip-path:url(#clip-path-7);}.cls-22{fill:url(#Degradado_sin_nombre_295-3);}.cls-23{clip-path:url(#clip-path-8);}.cls-24{fill:url(#Degradado_sin_nombre_295-4);}.cls-25{clip-path:url(#clip-path-9);}.cls-26{fill:url(#Degradado_sin_nombre_296-2);}.cls-27{clip-path:url(#clip-path-10);}.cls-28{fill:url(#Degradado_sin_nombre_299-4);}.cls-29{clip-path:url(#clip-path-11);}.cls-30{fill:url(#Degradado_sin_nombre_299-5);}.cls-31{clip-path:url(#clip-path-12);}.cls-32{fill:url(#Degradado_sin_nombre_299-6);}.cls-33{fill:#66537d;}.cls-34{fill:#bbccb6;}.cls-35{fill:#828384;}.cls-36{fill:#717071;}.cls-37{fill:#a1a2a2;}.cls-38{fill:#524e51;}.cls-39{clip-path:url(#clip-path-13);}.cls-40{fill:url(#Degradado_sin_nombre_295-5);}.cls-41{clip-path:url(#clip-path-14);}.cls-42{fill:url(#Degradado_sin_nombre_295-6);}.cls-43{clip-path:url(#clip-path-15);}.cls-44{fill:url(#Degradado_sin_nombre_296-3);}.cls-45{clip-path:url(#clip-path-16);}.cls-46{fill:url(#Degradado_sin_nombre_299-7);}.cls-47{clip-path:url(#clip-path-17);}.cls-48{fill:url(#Degradado_sin_nombre_298);}.cls-49{clip-path:url(#clip-path-18);}.cls-50{fill:url(#Degradado_sin_nombre_299-8);}.cls-51{clip-path:url(#clip-path-19);}.cls-52{fill:url(#Degradado_sin_nombre_295-7);}.cls-53{clip-path:url(#clip-path-20);}.cls-54{fill:url(#Degradado_sin_nombre_295-8);}.cls-55{clip-path:url(#clip-path-21);}.cls-56{fill:url(#Degradado_sin_nombre_296-4);}.cls-57{clip-path:url(#clip-path-22);}.cls-58{fill:url(#Degradado_sin_nombre_299-9);}.cls-59{clip-path:url(#clip-path-23);}.cls-60{fill:url(#Degradado_sin_nombre_298-2);}.cls-61{clip-path:url(#clip-path-24);}.cls-62{fill:url(#Degradado_sin_nombre_299-10);}.cls-63{fill:#352f76;}.cls-64{fill:#3c5fa5;}.cls-65{fill:#bcbdbf;}.cls-66{clip-path:url(#clip-path-25);}.cls-67{fill:url(#Degradado_sin_nombre_285);}.cls-68{clip-path:url(#clip-path-26);}.cls-69{fill:url(#Degradado_sin_nombre_299-11);}.cls-70{fill:#b7b7b7;}.cls-71{clip-path:url(#clip-path-27);}.cls-72{fill:url(#Degradado_sin_nombre_306);}.cls-73{fill:#e4eded;}.cls-74{fill:#bcc2c2;}.cls-75{fill:#dadce0;}.cls-76{fill:#a3a6a7;}.cls-77{clip-path:url(#clip-path-28);}.cls-78{fill:url(#Degradado_sin_nombre_306-2);}.cls-79{clip-path:url(#clip-path-29);}.cls-80{fill:url(#Degradado_sin_nombre_303);}.cls-81{fill:#c1c7c6;}.cls-82{clip-path:url(#clip-path-30);}.cls-83{fill:url(#Degradado_sin_nombre_306-3);}.cls-84{clip-path:url(#clip-path-31);}.cls-85{fill:url(#Degradado_sin_nombre_303-2);}.cls-86{clip-path:url(#clip-path-32);}.cls-87{fill:url(#Degradado_sin_nombre_306-4);}.cls-88{clip-path:url(#clip-path-33);}.cls-89{fill:url(#Degradado_sin_nombre_305);}.cls-90{fill:#7f7e7f;}.cls-91{fill:#c1c8d8;}.cls-92{fill:#e0e3e7;}.cls-93{fill:#8e622d;}.cls-94{fill:#9ec5ab;}.cls-95{fill:#6c8ac5;}.cls-96{clip-path:url(#clip-path-34);}.cls-97{fill:url(#Degradado_sin_nombre_306-5);}.cls-98{fill:#8c9093;}.cls-99{fill:#818587;}.cls-100{fill:#a0a6a8;}.cls-101{fill:#454248;}.cls-102{clip-path:url(#clip-path-35);}.cls-103{fill:url(#Degradado_sin_nombre_295-9);}.cls-104{clip-path:url(#clip-path-36);}.cls-105{fill:url(#Degradado_sin_nombre_296-5);}.cls-106{clip-path:url(#clip-path-37);}.cls-107{fill:url(#Degradado_sin_nombre_299-12);}.cls-108{clip-path:url(#clip-path-38);}.cls-109{fill:url(#Degradado_sin_nombre_298-3);}.cls-110{clip-path:url(#clip-path-39);}.cls-111{fill:url(#Degradado_sin_nombre_299-13);}.cls-112{fill:#9dcdea;}.cls-113{fill:#d5bf46;}.cls-114{fill:#c9cece;}.cls-115{fill:#d1d5d5;}.cls-116{fill:#a0acb5;}.cls-117{fill:#a44242;}.cls-118{clip-path:url(#clip-path-40);}.cls-119{fill:url(#Degradado_sin_nombre_306-6);}.cls-120{clip-path:url(#clip-path-41);}.cls-121{fill:url(#Degradado_sin_nombre_303-3);}.cls-122{clip-path:url(#clip-path-42);}.cls-123{fill:url(#Degradado_sin_nombre_306-7);}.cls-124{clip-path:url(#clip-path-43);}.cls-125{fill:url(#Degradado_sin_nombre_303-4);}.cls-126{clip-path:url(#clip-path-44);}.cls-127{fill:url(#Degradado_sin_nombre_306-8);}.cls-128{fill:#853830;}.cls-129{fill:#b08c39;}.cls-130{fill:#8f632e;}.cls-131{clip-path:url(#clip-path-45);}.cls-132{fill:url(#Degradado_sin_nombre_305-2);}.cls-133{clip-path:url(#clip-path-46);}.cls-134{fill:url(#Degradado_sin_nombre_306-9);}.cls-135{fill:#bf793e;}.cls-136{fill:#d4b65a;}.cls-137{fill:#9e4b39;}.cls-138{fill:#8292a0;}.cls-139{fill:#777f8a;}.cls-140{fill:#878788;}.cls-141{fill:#fafbfb;}.cls-142{fill:#dcd9d9;}.cls-143{fill:#f9fcfd;}.cls-144{fill:#8ea5d5;}.cls-145{fill:#4c4249;}.cls-146{fill:#cf826d;}</style><clipPath id="clip-path" transform="translate(-13.94 -26.92)"><path class="cls-1" d="M106,47.58c0,2.16.74,3.69,2,4.49,1.66,1.11,5.23,3,5.23,3,5-2.89,14.82-12.92,14.82-17.9,0-2.16-4.67-3.82-6-4.62-1.66-1-4.19-.92-7,.74-5,2.89-9,9.29-9,14.27"/></clipPath><linearGradient id="Degradado_sin_nombre_295" x1="-8287.01" y1="14794.52" x2="-8298.7" y2="14815.1" gradientUnits="userSpaceOnUse"><stop offset="0" stop-color="#70757f"/><stop offset="0.13" stop-color="#70757f"/><stop offset="0.44" stop-color="#56555d"/><stop offset="0.84" stop-color="#56555d"/><stop offset="1" stop-color="#45434a"/></linearGradient><clipPath id="clip-path-2" transform="translate(-13.94 -26.92)"><path class="cls-1" d="M111.74,50.84c0,2.16.74,3.69,2,4.49,1.66,1.11,5.23,3,5.23,3,5-2.89,14.82-12.92,14.82-17.9,0-2.16-4.67-3.82-6-4.62-1.66-1-4.19-.92-7,.74-5,2.89-9,9.29-9,14.27"/></clipPath><linearGradient id="Degradado_sin_nombre_295-2" x1="-8497.6" y1="14415.22" x2="-8509.9" y2="14435.79" xlink:href="#Degradado_sin_nombre_295"/><clipPath id="clip-path-3" transform="translate(-13.94 -26.92)"><path class="cls-1" d="M119.31,51.64c0,3.32,2.7,4.43,6,2.52s6-6.15,6-9.47-2.7-4.43-6-2.52-6,6.15-6,9.47"/></clipPath><linearGradient id="Degradado_sin_nombre_296" x1="8812.66" y1="9175.71" x2="8806.51" y2="9169.24" gradientUnits="userSpaceOnUse"><stop offset="0" stop-color="#dddee2"/><stop offset="0.13" stop-color="#dddee2"/><stop offset="0.44" stop-color="#bfc0c1"/><stop offset="0.84" stop-color="#bfc0c1"/><stop offset="1" stop-color="#a4a7a9"/></linearGradient><clipPath id="clip-path-4" transform="translate(-13.94 -26.92)"><path class="cls-1" d="M131.06,45.37c0,3-2.4,6.76-5.42,8.49s-5.41.67-5.41-2.28a5.36,5.36,0,0,1,.12-1,11.65,11.65,0,0,1,5.29-7.51c.25-.12.43-.24.62-.31,2.77-1.29,4.8-.18,4.8,2.59"/></clipPath><linearGradient id="Degradado_sin_nombre_299" x1="-7759.28" y1="12662.9" x2="-7766.05" y2="12673.77" gradientUnits="userSpaceOnUse"><stop offset="0" stop-color="#78787a"/><stop offset="0.16" stop-color="#78787a"/><stop offset="0.56" stop-color="#b0b2b3"/><stop offset="0.87" stop-color="#aaadae"/><stop offset="1" stop-color="#aaadae"/></linearGradient><clipPath id="clip-path-5" transform="translate(-13.94 -26.92)"><path class="cls-1" d="M128.1,44.51c0,2.21-2.76,6.21-5,7.56h-.06a.19.19,0,0,1-.12-.06.63.63,0,0,1-.31-.12c-.06,0-.06,0-.12-.06a13.46,13.46,0,0,1-2-.93.87.87,0,0,1-.13-.43,11.07,11.07,0,0,1,.31-1.23,11.93,11.93,0,0,1,4.25-5.78,5.18,5.18,0,0,1,.73-.49c.19-.12.37-.19.56-.31a9.9,9.9,0,0,1,1.6,1.42,2.55,2.55,0,0,1,.3.43"/></clipPath><linearGradient id="Degradado_sin_nombre_299-2" x1="-8446.56" y1="14994.94" x2="-8451.48" y2="15003.56" xlink:href="#Degradado_sin_nombre_299"/><clipPath id="clip-path-6" transform="translate(-13.94 -26.92)"><path class="cls-1" d="M126.94,47.15a3.54,3.54,0,0,1-1.73,2.71c-.92.55-1.72.24-1.72-.74v-.31a3.86,3.86,0,0,1,1.66-2.4c.06-.06.12-.06.19-.12.92-.37,1.6-.06,1.6.86"/></clipPath><linearGradient id="Degradado_sin_nombre_299-3" x1="-8364.01" y1="11349.22" x2="-8366.47" y2="11352.51" xlink:href="#Degradado_sin_nombre_299"/><clipPath id="clip-path-7" transform="translate(-13.94 -26.92)"><path class="cls-1" d="M85.23,59.58c0,2.15.74,3.69,2,4.49,1.66,1.1,5.23,3,5.23,3,5-2.89,14.82-12.92,14.82-17.9,0-2.15-4.67-3.81-6-4.61-1.67-1-4.19-.92-7,.74-5,2.89-9,9.28-9,14.27"/></clipPath><linearGradient id="Degradado_sin_nombre_295-3" x1="-8309.37" y1="14803.53" x2="-8321.06" y2="14824.11" xlink:href="#Degradado_sin_nombre_295"/><clipPath id="clip-path-8" transform="translate(-13.94 -26.92)"><path class="cls-1" d="M91,62.84c0,2.15.74,3.69,2,4.49,1.66,1.1,5.23,3,5.23,3,5-2.89,14.82-12.92,14.82-17.9,0-2.15-4.67-3.81-6-4.61-1.66-1-4.19-.92-7,.74-5,2.89-9,9.28-9,14.27"/></clipPath><linearGradient id="Degradado_sin_nombre_295-4" x1="-8516.92" y1="14430.46" x2="-8529.23" y2="14451.05" xlink:href="#Degradado_sin_nombre_295"/><clipPath id="clip-path-9" transform="translate(-13.94 -26.92)"><path class="cls-1" d="M98.58,63.64c0,3.32,2.71,4.43,6,2.52s6-6.15,6-9.47-2.7-4.43-6-2.53-6,6.16-6,9.48"/></clipPath><linearGradient id="Degradado_sin_nombre_296-2" x1="8698.28" y1="10092.9" x2="8692.75" y2="10086.43" xlink:href="#Degradado_sin_nombre_296"/><clipPath id="clip-path-10" transform="translate(-13.94 -26.92)"><path class="cls-1" d="M110.33,57.36c0,3-2.4,6.77-5.42,8.49s-5.41.68-5.41-2.27a5.58,5.58,0,0,1,.12-1,11.64,11.64,0,0,1,5.29-7.5,5.07,5.07,0,0,1,.62-.31c2.71-1.29,4.8-.19,4.8,2.58"/></clipPath><linearGradient id="Degradado_sin_nombre_299-4" x1="-8064.44" y1="12031.35" x2="-8071.82" y2="12042.21" xlink:href="#Degradado_sin_nombre_299"/><clipPath id="clip-path-11" transform="translate(-13.94 -26.92)"><path class="cls-1" d="M107.31,56.44c0,2.21-2.76,6.21-5,7.57h-.06a.17.17,0,0,1-.12-.07.63.63,0,0,1-.31-.12c-.06,0-.06,0-.12-.06a12.36,12.36,0,0,1-2-.92.84.84,0,0,1-.13-.43,9.23,9.23,0,0,1,.31-1.23,12,12,0,0,1,4.24-5.79,7.26,7.26,0,0,1,.74-.49c.19-.12.37-.18.56-.31A10.92,10.92,0,0,1,107,56a3.72,3.72,0,0,0,.3.43"/></clipPath><linearGradient id="Degradado_sin_nombre_299-5" x1="-8467.54" y1="15007.21" x2="-8472.46" y2="15015.82" xlink:href="#Degradado_sin_nombre_299"/><clipPath id="clip-path-12" transform="translate(-13.94 -26.92)"><path class="cls-1" d="M106.21,59.09a3.5,3.5,0,0,1-1.73,2.7c-.92.56-1.72.25-1.72-.74v-.3a3.8,3.8,0,0,1,1.66-2.4c.06-.06.13-.06.19-.13.92-.3,1.6,0,1.6.87"/></clipPath><linearGradient id="Degradado_sin_nombre_299-6" x1="-8419.44" y1="11435.26" x2="-8421.9" y2="11438.56" xlink:href="#Degradado_sin_nombre_299"/><clipPath id="clip-path-13" transform="translate(-13.94 -26.92)"><path class="cls-1" d="M136.53,65.3c0,2.15.74,3.69,2,4.49,1.66,1.11,5.23,3,5.23,3,5-2.89,14.82-12.92,14.82-17.9,0-2.15-4.67-3.81-6-4.61-1.67-1-4.19-.92-7,.74-5,2.89-9,9.29-9,14.27"/></clipPath><linearGradient id="Degradado_sin_nombre_295-5" x1="-8471.41" y1="14432.92" x2="-8483.71" y2="14453.51" xlink:href="#Degradado_sin_nombre_295"/><clipPath id="clip-path-14" transform="translate(-13.94 -26.92)"><path class="cls-1" d="M142.31,68.56c0,2.15.74,3.69,2,4.49,1.66,1.11,5.23,3,5.23,3,5-2.89,14.82-12.92,14.82-17.9,0-2.15-4.67-3.81-6-4.61-1.66-1-4.19-.92-7,.74-5,2.89-9,9.29-9,14.27"/></clipPath><linearGradient id="Degradado_sin_nombre_295-6" x1="-8250.69" y1="14815.44" x2="-8262.38" y2="14836.03" xlink:href="#Degradado_sin_nombre_295"/><clipPath id="clip-path-15" transform="translate(-13.94 -26.92)"><path class="cls-1" d="M149.82,69.42c0,3.32,2.7,4.43,6,2.52s6-6.15,6-9.47-2.7-4.43-6-2.52-6,6.15-6,9.47"/></clipPath><linearGradient id="Degradado_sin_nombre_296-3" x1="-7926.8" y1="12012.77" x2="-7934.79" y2="12024.64" xlink:href="#Degradado_sin_nombre_296"/><clipPath id="clip-path-16" transform="translate(-13.94 -26.92)"><path class="cls-1" d="M161.63,63.08c0,3-2.4,6.77-5.42,8.49s-5.41.68-5.41-2.27a5.58,5.58,0,0,1,.12-1,11.63,11.63,0,0,1,5.29-7.5,4.45,4.45,0,0,1,.62-.31c2.71-1.23,4.8-.18,4.8,2.58"/></clipPath><linearGradient id="Degradado_sin_nombre_299-7" x1="-7741" y1="12719.05" x2="-7747.77" y2="12729.93" xlink:href="#Degradado_sin_nombre_299"/><clipPath id="clip-path-17" transform="translate(-13.94 -26.92)"><path class="cls-1" d="M158.61,62.22c0,2.22-2.76,6.21-5,7.57h-.06a.19.19,0,0,1-.12-.06c-.13,0-.19-.07-.31-.13s-.06,0-.12-.06a12.36,12.36,0,0,1-2-.92.81.81,0,0,1-.13-.43,9.23,9.23,0,0,1,.31-1.23,11.93,11.93,0,0,1,4.24-5.78,6,6,0,0,1,.74-.5c.19-.12.37-.18.56-.3a10.41,10.41,0,0,1,1.6,1.41,3.24,3.24,0,0,1,.3.43"/></clipPath><linearGradient id="Degradado_sin_nombre_298" x1="-8416.2" y1="15012.91" x2="-8421.12" y2="15021.52" gradientUnits="userSpaceOnUse"><stop offset="0" stop-color="#b0b2b3"/><stop offset="0.13" stop-color="#b0b2b3"/><stop offset="0.44" stop-color="#8e9193"/><stop offset="0.84" stop-color="#8e9193"/><stop offset="1" stop-color="#78787a"/></linearGradient><clipPath id="clip-path-18" transform="translate(-13.94 -26.92)"><path class="cls-1" d="M157.44,64.87a3.49,3.49,0,0,1-1.72,2.7c-.92.56-1.72.25-1.72-.73v-.31a3.83,3.83,0,0,1,1.66-2.4c.06-.06.12-.06.19-.12,1-.37,1.59,0,1.59.86"/></clipPath><linearGradient id="Degradado_sin_nombre_299-8" x1="-7399.46" y1="13412.88" x2="-7401.3" y2="13416.15" xlink:href="#Degradado_sin_nombre_299"/><clipPath id="clip-path-19" transform="translate(-13.94 -26.92)"><path class="cls-1" d="M115.74,77.29c0,2.16.74,3.69,2,4.49,1.66,1.11,5.23,3,5.23,3,5-2.89,14.82-12.92,14.82-17.9,0-2.16-4.67-3.82-6-4.62-1.66-1-4.18-.92-7,.74-5,2.89-9,9.29-9,14.27"/></clipPath><linearGradient id="Degradado_sin_nombre_295-7" x1="-8493.68" y1="14441.8" x2="-8505.98" y2="14462.38" xlink:href="#Degradado_sin_nombre_295"/><clipPath id="clip-path-20" transform="translate(-13.94 -26.92)"><path class="cls-1" d="M121.52,80.55c0,2.15.74,3.69,2,4.49,1.66,1.11,5.23,3,5.23,3,5-2.89,14.82-12.92,14.82-17.9,0-2.16-4.67-3.82-6-4.62-1.66-1-4.19-.92-7,.74-5,2.89-9,9.29-9,14.27"/></clipPath><linearGradient id="Degradado_sin_nombre_295-8" x1="-8273.32" y1="14824.92" x2="-8285" y2="14845.5" xlink:href="#Degradado_sin_nombre_295"/><clipPath id="clip-path-21" transform="translate(-13.94 -26.92)"><path class="cls-1" d="M129.09,81.41c0,3.33,2.7,4.43,6,2.53s6-6.16,6-9.48-2.7-4.43-6-2.52-6,6.15-6,9.47"/></clipPath><linearGradient id="Degradado_sin_nombre_296-4" x1="-7689.71" y1="12601.33" x2="-7697.09" y2="12613.19" xlink:href="#Degradado_sin_nombre_296"/><clipPath id="clip-path-22" transform="translate(-13.94 -26.92)"><path class="cls-1" d="M140.84,75.08c0,3-2.4,6.76-5.42,8.49s-5.41.67-5.41-2.28a5.36,5.36,0,0,1,.12-1,11.65,11.65,0,0,1,5.29-7.51c.25-.12.43-.24.62-.31,2.71-1.23,4.8-.18,4.8,2.59"/></clipPath><linearGradient id="Degradado_sin_nombre_299-9" x1="-7759.15" y1="12736.12" x2="-7765.92" y2="12747.01" xlink:href="#Degradado_sin_nombre_299"/><clipPath id="clip-path-23" transform="translate(-13.94 -26.92)"><path class="cls-1" d="M137.82,74.22c0,2.21-2.77,6.21-5,7.56h-.06a.19.19,0,0,1-.12-.06.63.63,0,0,1-.31-.12c-.06,0-.06,0-.12-.06a13.46,13.46,0,0,1-2-.93.78.78,0,0,1-.13-.43,9.23,9.23,0,0,1,.31-1.23,12,12,0,0,1,4.24-5.78,5.9,5.9,0,0,1,.74-.49c.19-.12.37-.19.56-.31a9.75,9.75,0,0,1,1.59,1.42,2.39,2.39,0,0,1,.31.43"/></clipPath><linearGradient id="Degradado_sin_nombre_298-2" x1="-8746.66" y1="14458.49" x2="-8751.58" y2="14466.49" xlink:href="#Degradado_sin_nombre_298"/><clipPath id="clip-path-24" transform="translate(-13.94 -26.92)"><path class="cls-1" d="M136.72,76.86A3.54,3.54,0,0,1,135,79.57c-.92.55-1.72.24-1.72-.74v-.31a3.86,3.86,0,0,1,1.66-2.4c.06-.06.12-.06.19-.12.92-.37,1.6,0,1.6.86"/></clipPath><linearGradient id="Degradado_sin_nombre_299-10" x1="-7900.98" y1="12512.27" x2="-7903.44" y2="12516.09" xlink:href="#Degradado_sin_nombre_299"/><clipPath id="clip-path-25" transform="translate(-13.94 -26.92)"><path class="cls-1" d="M120.85,49.06v2.21c0,1.48,1.84,2.71,4.12,2.71s4.12-1.23,4.12-2.71V48.94Z"/></clipPath><linearGradient id="Degradado_sin_nombre_285" x1="106.66" y1="24.54" x2="114.66" y2="24.54" gradientUnits="userSpaceOnUse"><stop offset="0" stop-color="#504d51"/><stop offset="0.16" stop-color="#504d51"/><stop offset="0.56" stop-color="#828587"/><stop offset="0.87" stop-color="#7e7f82"/><stop offset="1" stop-color="#7e7f82"/></linearGradient><clipPath id="clip-path-26" transform="translate(-13.94 -26.92)"><path class="cls-1" d="M117.34,47v1c0,2.77,3.44,5,7.63,5s7.62-2.21,7.62-5V46.72Z"/></clipPath><linearGradient id="Degradado_sin_nombre_299-11" x1="102.97" y1="22.91" x2="118.35" y2="22.91" xlink:href="#Degradado_sin_nombre_299"/><clipPath id="clip-path-27" transform="translate(-13.94 -26.92)"><path class="cls-1" d="M55.52,45.25V72.06c0,.74.92,1.42,2.15,1.42s2.16-.62,2.16-1.42V45.18Z"/></clipPath><linearGradient id="Degradado_sin_nombre_306" x1="41.46" y1="32.42" x2="45.77" y2="32.42" gradientUnits="userSpaceOnUse"><stop offset="0" stop-color="#a4a6a7"/><stop offset="0.16" stop-color="#a4a6a7"/><stop offset="0.56" stop-color="#dcdce1"/><stop offset="0.87" stop-color="#d6d8db"/><stop offset="1" stop-color="#d6d8db"/></linearGradient><clipPath id="clip-path-28" transform="translate(-13.94 -26.92)"><path class="cls-1" d="M35.16,80.68v1c0,1.17,1.48,2.15,3.26,2.15s3.26-.92,3.26-2.15V80.55Z"/></clipPath><linearGradient id="Degradado_sin_nombre_306-2" x1="21.16" y1="55.3" x2="27.31" y2="55.3" xlink:href="#Degradado_sin_nombre_306"/><clipPath id="clip-path-29" transform="translate(-13.94 -26.92)"><path class="cls-1" d="M34.79,79v1.17c0,1.29,1.6,2.34,3.63,2.34s3.63-1,3.63-2.34V78.89Z"/></clipPath><linearGradient id="Degradado_sin_nombre_303" x1="20.55" y1="53.79" x2="27.93" y2="53.79" gradientUnits="userSpaceOnUse"><stop offset="0" stop-color="#bbbcbd"/><stop offset="0.16" stop-color="#bbbcbd"/><stop offset="0.56" stop-color="#f1f4fb"/><stop offset="0.87" stop-color="#eceff6"/><stop offset="1" stop-color="#eceff6"/></linearGradient><clipPath id="clip-path-30" transform="translate(-13.94 -26.92)"><path class="cls-1" d="M35.16,75.63v3c0,1.17,1.48,2.16,3.26,2.16s3.26-.93,3.26-2.16v-3Z"/></clipPath><linearGradient id="Degradado_sin_nombre_306-3" x1="21.16" y1="51.24" x2="27.31" y2="51.24" xlink:href="#Degradado_sin_nombre_306"/><clipPath id="clip-path-31" transform="translate(-13.94 -26.92)"><path class="cls-1" d="M34.79,73.54v1.17c0,1.29,1.6,2.34,3.63,2.34s3.63-1,3.63-2.34V73.42Z"/></clipPath><linearGradient id="Degradado_sin_nombre_303-2" x1="20.55" y1="48.32" x2="27.93" y2="48.32" xlink:href="#Degradado_sin_nombre_303"/><clipPath id="clip-path-32" transform="translate(-13.94 -26.92)"><path class="cls-1" d="M35.16,72.25v1c0,1.17,1.48,2.16,3.26,2.16s3.26-.93,3.26-2.16V72.13Z"/></clipPath><linearGradient id="Degradado_sin_nombre_306-4" x1="21.16" y1="46.87" x2="27.31" y2="46.87" xlink:href="#Degradado_sin_nombre_306"/><clipPath id="clip-path-33" transform="translate(-13.94 -26.92)"><path class="cls-1" d="M22.74,100.11v1.36a.66.66,0,0,1-.31.55c-.19.06-1.11.8-1.29.68L18.06,99a1.64,1.64,0,0,1-.8-1.42l-1.6-.68c0-.18,1-.61,1.11-.73a.06.06,0,0,0,.06-.07.58.58,0,0,1,.62,0l4.49,2.59a1.63,1.63,0,0,1,.8,1.41"/></clipPath><linearGradient id="Degradado_sin_nombre_305" x1="8477.37" y1="14589.81" x2="8479.83" y2="14594.02" gradientUnits="userSpaceOnUse"><stop offset="0" stop-color="#dcdce1"/><stop offset="0.13" stop-color="#dcdce1"/><stop offset="0.44" stop-color="#bdbec0"/><stop offset="0.84" stop-color="#bdbec0"/><stop offset="1" stop-color="#a4a6a7"/></linearGradient><clipPath id="clip-path-34" transform="translate(-13.94 -26.92)"><path class="cls-1" d="M98,101l13.53-8c1.78-1.05,2-4.12.37-6.89S107.56,82,105.78,83L92.06,91.13Z"/></clipPath><linearGradient id="Degradado_sin_nombre_306-5" x1="8326.83" y1="14513.74" x2="8321.42" y2="14504.26" xlink:href="#Degradado_sin_nombre_306"/><clipPath id="clip-path-35" transform="translate(-13.94 -26.92)"><path class="cls-1" d="M53.68,121c0,2.16.73,3.7,2,4.49,1.67,1.11,5.23,3,5.23,3,5-2.89,14.83-12.92,14.83-17.9,0-2.15-4.68-3.81-6-4.61-1.66-1-4.18-.93-7,.73-5,2.9-9,9.29-9,14.27"/></clipPath><linearGradient id="Degradado_sin_nombre_295-9" x1="-8555.76" y1="14485.5" x2="-8568.06" y2="14506.08" xlink:href="#Degradado_sin_nombre_295"/><clipPath id="clip-path-36" transform="translate(-13.94 -26.92)"><path class="cls-1" d="M61.18,121.76c0,3.33,2.71,4.43,6,2.53s6-6.15,6-9.48-2.71-4.43-6-2.52-6,6.21-6,9.47"/></clipPath><linearGradient id="Degradado_sin_nombre_296-5" x1="-7876.82" y1="12388.41" x2="-7884.82" y2="12400.81" xlink:href="#Degradado_sin_nombre_296"/><clipPath id="clip-path-37" transform="translate(-13.94 -26.92)"><path class="cls-1" d="M73,115.49c0,3-2.4,6.77-5.41,8.49s-5.42.68-5.42-2.28a5.61,5.61,0,0,1,.13-1,11.62,11.62,0,0,1,5.29-7.51,5.59,5.59,0,0,1,.61-.3c2.71-1.3,4.8-.19,4.8,2.58"/></clipPath><linearGradient id="Degradado_sin_nombre_299-12" x1="-8099.75" y1="12095.34" x2="-8107.13" y2="12106.21" xlink:href="#Degradado_sin_nombre_299"/><clipPath id="clip-path-38" transform="translate(-13.94 -26.92)"><path class="cls-1" d="M70,114.63c0,2.21-2.77,6.21-5,7.56h-.06a.19.19,0,0,1-.12-.06c-.12,0-.18-.06-.31-.12s-.06,0-.12-.06a14.2,14.2,0,0,1-2-.92.94.94,0,0,1-.12-.43,8.82,8.82,0,0,1,.3-1.23,11.91,11.91,0,0,1,4.25-5.79,4.74,4.74,0,0,1,.74-.49c.18-.12.37-.18.55-.31a10.41,10.41,0,0,1,1.6,1.42,4.85,4.85,0,0,1,.31.43"/></clipPath><linearGradient id="Degradado_sin_nombre_298-3" x1="-8504.77" y1="15065.2" x2="-8509.69" y2="15073.81" xlink:href="#Degradado_sin_nombre_298"/><clipPath id="clip-path-39" transform="translate(-13.94 -26.92)"><path class="cls-1" d="M68.81,117.27A3.52,3.52,0,0,1,67.09,120c-.93.55-1.73.25-1.73-.74v-.31A3.85,3.85,0,0,1,67,116.54c.07-.07.13-.07.19-.13,1-.37,1.6-.06,1.6.86"/></clipPath><linearGradient id="Degradado_sin_nombre_299-13" x1="-7487.37" y1="13529.46" x2="-7489.21" y2="13532.75" xlink:href="#Degradado_sin_nombre_299"/><clipPath id="clip-path-40" transform="translate(-13.94 -26.92)"><path class="cls-1" d="M68.62,101.34v1c0,1.17,1.48,2.15,3.26,2.15s3.26-.92,3.26-2.15v-1.17Z"/></clipPath><linearGradient id="Degradado_sin_nombre_306-6" x1="54.38" y1="75.97" x2="61.14" y2="75.97" xlink:href="#Degradado_sin_nombre_306"/><clipPath id="clip-path-41" transform="translate(-13.94 -26.92)"><path class="cls-1" d="M68.25,99.68v1.17c0,1.29,1.6,2.34,3.63,2.34s3.63-1,3.63-2.34V99.56Z"/></clipPath><linearGradient id="Degradado_sin_nombre_303-3" x1="53.76" y1="74.46" x2="61.14" y2="74.46" xlink:href="#Degradado_sin_nombre_303"/><clipPath id="clip-path-42" transform="translate(-13.94 -26.92)"><path class="cls-1" d="M68.62,96.3v3c0,1.17,1.48,2.15,3.26,2.15s3.26-.92,3.26-2.15v-3Z"/></clipPath><linearGradient id="Degradado_sin_nombre_306-7" x1="54.38" y1="71.91" x2="61.14" y2="71.91" xlink:href="#Degradado_sin_nombre_306"/><clipPath id="clip-path-43" transform="translate(-13.94 -26.92)"><path class="cls-1" d="M68.25,94.21v1.17c0,1.29,1.6,2.33,3.63,2.33s3.63-1,3.63-2.33v-1.3Z"/></clipPath><linearGradient id="Degradado_sin_nombre_303-4" x1="53.76" y1="68.98" x2="61.14" y2="68.98" xlink:href="#Degradado_sin_nombre_303"/><clipPath id="clip-path-44" transform="translate(-13.94 -26.92)"><path class="cls-1" d="M68.62,92.92v1c0,1.17,1.48,2.15,3.26,2.15s3.26-.92,3.26-2.15V92.79Z"/></clipPath><linearGradient id="Degradado_sin_nombre_306-8" x1="54.38" y1="67.54" x2="61.14" y2="67.54" xlink:href="#Degradado_sin_nombre_306"/><clipPath id="clip-path-45" transform="translate(-13.94 -26.92)"><path class="cls-1" d="M54.35,118.32v1.35a.66.66,0,0,1-.3.56c-.19.06-1.11.8-1.3.67l-3.07-3.69a1.63,1.63,0,0,1-.8-1.41l-1.6-.68c0-.18,1-.61,1.11-.74a.06.06,0,0,0,.06-.06.56.56,0,0,1,.61,0l4.49,2.59a1.67,1.67,0,0,1,.8,1.41"/></clipPath><linearGradient id="Degradado_sin_nombre_305-2" x1="8509.03" y1="14608.08" x2="8511.49" y2="14612.3" xlink:href="#Degradado_sin_nombre_305"/><clipPath id="clip-path-46" transform="translate(-13.94 -26.92)"><path class="cls-1" d="M87.14,63.82V94c0,.74.92,1.42,2.15,1.42s2.15-.62,2.15-1.42V63.76Z"/></clipPath><linearGradient id="Degradado_sin_nombre_306-9" x1="72.83" y1="52.65" x2="77.14" y2="52.65" xlink:href="#Degradado_sin_nombre_306"/></defs><polygon class="cls-2" points="152.73 24.54 154.58 23.56 121.24 4.31 119.39 5.29 152.73 24.54"/><polygon class="cls-3" points="152.73 29.83 154.58 28.85 154.58 23.56 152.73 24.54 152.73 29.83"/><polygon class="cls-4" points="119.39 5.29 152.73 24.54 152.73 29.83 119.39 10.58 119.39 5.29"/><g class="cls-5"><rect class="cls-6" x="92.08" y="4.61" width="22.02" height="23.56"/></g><path class="cls-7" d="M127.11,35.57c-3-2.27-8.68.19-12.67,5.48s-4.76,11.42-1.75,13.69,8.68-.19,12.67-5.48,4.76-11.43,1.75-13.69" transform="translate(-13.94 -26.92)"/><g class="cls-8"><rect class="cls-9" x="97.8" y="7.87" width="22.02" height="23.56"/></g><path class="cls-7" d="M132.89,38.83c-3-2.27-8.68.19-12.66,5.48S115.46,55.73,118.47,58s8.69-.19,12.67-5.48,4.77-11.42,1.75-13.69" transform="translate(-13.94 -26.92)"/><g class="cls-10"><rect class="cls-11" x="105.37" y="13.35" width="12.06" height="15.81"/></g><path class="cls-12" d="M130.49,42c-2-1.49-5.74.16-8.4,3.69s-3.2,7.6-1.22,9.09,5.74-.16,8.4-3.69,3.2-7.6,1.22-9.09" transform="translate(-13.94 -26.92)"/><g class="cls-13"><rect class="cls-14" x="106.29" y="14.58" width="10.83" height="14.09"/></g><path class="cls-15" d="M128.47,45.06h0a8.51,8.51,0,0,1-4.06,6.46,3.54,3.54,0,0,1-1.17.49,2,2,0,0,1-2.64-1,.94.94,0,0,1-.12-.43,9.31,9.31,0,0,1,.3-1.24A11.93,11.93,0,0,1,125,43.52a4.74,4.74,0,0,1,.74-.49c.18-.12.37-.18.55-.31s.06-.06.12-.06a2.12,2.12,0,0,1,2,2.4" transform="translate(-13.94 -26.92)"/><g class="cls-16"><rect class="cls-17" x="106.41" y="15.75" width="7.75" height="9.41"/></g><path class="cls-18" d="M128.6,46a7.3,7.3,0,0,1-3.51,5.54c-1.91,1.11-3.51.43-3.51-1.48a2.39,2.39,0,0,1,.07-.67,7.57,7.57,0,0,1,3.44-4.86,1.35,1.35,0,0,1,.43-.19c1.72-.86,3.08-.18,3.08,1.66" transform="translate(-13.94 -26.92)"/><g class="cls-19"><rect class="cls-20" x="109.55" y="19.01" width="3.44" height="4.49"/></g><path class="cls-15" d="M125.46,47.34a1.52,1.52,0,0,1-.68,1.1c-.37.25-.67.07-.67-.3V48a1.28,1.28,0,0,1,.67-.92.06.06,0,0,0,.06-.06c.37-.19.62,0,.62.31" transform="translate(-13.94 -26.92)"/><g class="cls-21"><rect class="cls-22" x="71.29" y="16.61" width="22.02" height="23.56"/></g><path class="cls-7" d="M106.34,47.58c-3-2.27-8.69.19-12.67,5.48S88.9,64.49,91.92,66.75s8.68-.19,12.66-5.48,4.77-11.42,1.76-13.69" transform="translate(-13.94 -26.92)"/><g class="cls-23"><rect class="cls-24" x="77.07" y="19.87" width="22.02" height="23.56"/></g><path class="cls-7" d="M112.12,50.84c-3-2.27-8.69.19-12.67,5.48S94.68,67.74,97.7,70s8.68-.19,12.66-5.48,4.77-11.43,1.76-13.69" transform="translate(-13.94 -26.92)"/><g class="cls-25"><rect class="cls-26" x="84.64" y="25.34" width="12.06" height="15.81"/></g><path class="cls-12" d="M99,63.94c0,3.33,2.7,4.43,6,2.53s6-6.15,6-9.48-2.7-4.43-6-2.52-6,6.15-6,9.47" transform="translate(-13.94 -26.92)"/><g class="cls-27"><rect class="cls-28" x="85.56" y="26.57" width="10.83" height="14.09"/></g><path class="cls-15" d="M107.68,57.06h0c0,2.27-1.84,5.16-4.06,6.45a3.81,3.81,0,0,1-1.17.5A2,2,0,0,1,99.81,63a.91.91,0,0,1-.12-.43,9.18,9.18,0,0,1,.3-1.23,11.88,11.88,0,0,1,4.25-5.78A4.12,4.12,0,0,1,105,55c.18-.13.37-.19.55-.31s.06-.06.12-.06c1.17,0,2,.86,2,2.4" transform="translate(-13.94 -26.92)"/><g class="cls-29"><rect class="cls-30" x="85.62" y="27.68" width="7.75" height="9.41"/></g><path class="cls-18" d="M107.87,58a7.26,7.26,0,0,1-3.51,5.53c-1.91,1.11-3.51.43-3.51-1.47a2.45,2.45,0,0,1,.07-.68,7.62,7.62,0,0,1,3.44-4.86,1.32,1.32,0,0,1,.43-.18c1.72-.86,3.08-.19,3.08,1.66" transform="translate(-13.94 -26.92)"/><g class="cls-31"><rect class="cls-32" x="88.82" y="31" width="3.44" height="4.43"/></g><path class="cls-15" d="M104.73,59.33a1.56,1.56,0,0,1-.68,1.11c-.37.24-.67.06-.67-.31V60a1.26,1.26,0,0,1,.67-.92.06.06,0,0,0,.06-.07c.31-.18.62-.06.62.31" transform="translate(-13.94 -26.92)"/><polygon class="cls-33" points="123.27 22.27 121.85 23.13 121.85 13.9 123.27 13.1 123.27 22.27"/><path class="cls-34" d="M129.79,43.07c-1.71-1.28-4.93.12-7.2,3.13s-2.72,6.5-1,7.79,4.94-.12,7.2-3.13,2.72-6.5,1-7.79" transform="translate(-13.94 -26.92)"/><polygon class="cls-35" points="145.97 21.34 90.97 49.76 71.84 37.52 118.04 10.89 125.3 9.41 145.97 21.34"/><polygon class="cls-36" points="145.97 21.34 137.23 23.07 118.04 10.89 125.3 9.41 145.97 21.34"/><polygon class="cls-37" points="92.33 27.31 114.78 14.39 127.57 21.65 105.18 34.63 92.33 27.31"/><path class="cls-35" d="M132.59,49.8c0-2.75-3.41-5-7.62-5s-7.63,2.24-7.63,5,3.41,5,7.63,5,7.62-2.23,7.62-5" transform="translate(-13.94 -26.92)"/><polygon class="cls-38" points="145.97 25.53 90.97 57.27 90.97 49.76 137.23 23.07 145.97 21.34 145.97 25.53"/><polygon class="cls-36" points="105.18 34.63 127.57 21.65 128.93 24.36 103.83 38.81 105.18 34.63"/><g class="cls-39"><rect class="cls-40" x="122.59" y="22.33" width="22.02" height="23.56"/></g><path class="cls-7" d="M157.65,53.34c-3-2.27-8.68.18-12.66,5.48s-4.77,11.42-1.76,13.69,8.69-.19,12.67-5.48,4.77-11.43,1.75-13.69" transform="translate(-13.94 -26.92)"/><g class="cls-41"><rect class="cls-42" x="128.37" y="25.59" width="22.02" height="23.56"/></g><path class="cls-7" d="M163.43,56.59c-3-2.27-8.68.19-12.66,5.48S146,73.5,149,75.76s8.69-.19,12.67-5.48,4.77-11.42,1.75-13.69" transform="translate(-13.94 -26.92)"/><g class="cls-43"><rect class="cls-44" x="135.88" y="31.12" width="12.06" height="15.81"/></g><path class="cls-12" d="M161,59.79c-2-1.49-5.74.16-8.39,3.69s-3.21,7.6-1.22,9.09,5.74-.16,8.39-3.69,3.2-7.6,1.22-9.09" transform="translate(-13.94 -26.92)"/><g class="cls-45"><rect class="cls-46" x="136.86" y="32.35" width="10.83" height="14.02"/></g><path class="cls-15" d="M159,62.78h0c0,2.27-1.84,5.16-4.06,6.45a3.81,3.81,0,0,1-1.17.5,2,2,0,0,1-2.64-1,.91.91,0,0,1-.12-.43,9.18,9.18,0,0,1,.3-1.23,11.88,11.88,0,0,1,4.25-5.78,4.12,4.12,0,0,1,.74-.49c.18-.13.36-.19.55-.31s.06-.06.12-.06a2.12,2.12,0,0,1,2,2.4" transform="translate(-13.94 -26.92)"/><g class="cls-47"><rect class="cls-48" x="136.92" y="33.46" width="7.75" height="9.41"/></g><path class="cls-18" d="M159.11,63.7a7.26,7.26,0,0,1-3.51,5.53c-1.91,1.11-3.51.44-3.51-1.47a2.85,2.85,0,0,1,.06-.68,7.67,7.67,0,0,1,3.45-4.86A1.32,1.32,0,0,1,156,62c1.72-.86,3.08-.13,3.08,1.66" transform="translate(-13.94 -26.92)"/><g class="cls-49"><rect class="cls-50" x="140.06" y="36.72" width="3.44" height="4.49"/></g><path class="cls-15" d="M156,65.11a1.56,1.56,0,0,1-.68,1.11c-.37.25-.67.06-.67-.31v-.12a1.26,1.26,0,0,1,.67-.92.06.06,0,0,0,.06-.06c.37-.19.62-.07.62.3" transform="translate(-13.94 -26.92)"/><g class="cls-51"><rect class="cls-52" x="101.8" y="34.32" width="22.02" height="23.56"/></g><path class="cls-7" d="M136.92,65.3c-3-2.27-8.69.19-12.67,5.48s-4.77,11.43-1.75,13.69,8.68-.19,12.66-5.48,4.77-11.42,1.76-13.69" transform="translate(-13.94 -26.92)"/><g class="cls-53"><rect class="cls-54" x="107.58" y="37.58" width="22.02" height="23.56"/></g><path class="cls-7" d="M142.66,68.6c-3-2.27-8.69.19-12.67,5.48s-4.77,11.43-1.75,13.69,8.68-.18,12.66-5.48,4.77-11.42,1.76-13.69" transform="translate(-13.94 -26.92)"/><g class="cls-55"><rect class="cls-56" x="115.15" y="43.12" width="12.06" height="15.81"/></g><path class="cls-12" d="M129.46,81.66c0,3.32,2.7,4.43,6,2.52s6-6.15,6-9.47-2.7-4.43-6-2.52-6,6.15-6,9.47" transform="translate(-13.94 -26.92)"/><g class="cls-57"><rect class="cls-58" x="116.07" y="44.35" width="10.83" height="14.02"/></g><path class="cls-15" d="M138.19,74.77h0a8.51,8.51,0,0,1-4.06,6.46,3.76,3.76,0,0,1-1.17.49,2,2,0,0,1-2.64-1,1,1,0,0,1-.12-.44,9.56,9.56,0,0,1,.3-1.23,11.93,11.93,0,0,1,4.25-5.78,4.74,4.74,0,0,1,.74-.49c.18-.12.36-.18.55-.31s.06-.06.12-.06a2.12,2.12,0,0,1,2,2.4" transform="translate(-13.94 -26.92)"/><g class="cls-59"><rect class="cls-60" x="116.13" y="45.46" width="7.75" height="9.41"/></g><path class="cls-18" d="M138.38,75.69a7.3,7.3,0,0,1-3.51,5.54c-1.91,1.11-3.51.43-3.51-1.48a2.39,2.39,0,0,1,.07-.67,7.57,7.57,0,0,1,3.44-4.86,1.35,1.35,0,0,1,.43-.19c1.72-.86,3.08-.12,3.08,1.66" transform="translate(-13.94 -26.92)"/><g class="cls-61"><rect class="cls-62" x="119.33" y="48.72" width="3.44" height="4.49"/></g><path class="cls-15" d="M135.24,77.11a1.52,1.52,0,0,1-.68,1.1c-.37.25-.67.07-.67-.3v-.13a1.3,1.3,0,0,1,.67-.92.06.06,0,0,0,.06-.06c.37-.18.62-.06.62.31" transform="translate(-13.94 -26.92)"/><path class="cls-63" d="M131.36,68.68c0,.49-3.32,3.88-6.21,9.1a35.83,35.83,0,0,0-3.32,7.75l-8-5.1a20.13,20.13,0,0,1,2.46-7.81,31.53,31.53,0,0,1,7.14-9Z" transform="translate(-13.94 -26.92)"/><path class="cls-64" d="M131.36,68.68c0,.49-3.32,3.88-6.21,9.1l-8.86-5.16a31.53,31.53,0,0,1,7.14-9Z" transform="translate(-13.94 -26.92)"/><path class="cls-63" d="M122.81,85.23l-1,.37c.86-9.48,9.23-16.55,9.59-16.86l.5.68c-.07,0-8.25,7-9.05,15.81" transform="translate(-13.94 -26.92)"/><polygon class="cls-38" points="92.33 27.31 105.18 34.63 103.83 38.81 90.97 31.55 92.33 27.31"/><polygon class="cls-65" points="92.39 25.34 94.11 33.77 94.11 42.81 96.94 41.15 96.94 46.19 94.11 47.79 93.31 48.29 90.73 49.76 90.73 26.33 92.39 25.34"/><g class="cls-66"><rect class="cls-67" x="106.91" y="22.02" width="8.24" height="5.04"/></g><g class="cls-68"><rect class="cls-69" x="103.4" y="19.81" width="15.25" height="6.21"/></g><path class="cls-70" d="M132.59,47c0-2.75-3.41-5-7.62-5s-7.63,2.23-7.63,5,3.41,5,7.63,5,7.62-2.23,7.62-5" transform="translate(-13.94 -26.92)"/><g class="cls-71"><rect class="cls-72" x="41.58" y="18.27" width="4.31" height="28.29"/></g><path class="cls-73" d="M59.77,45.25c0,.73-.93,1.41-2.16,1.41s-2.15-.62-2.15-1.41.92-1.42,2.15-1.42,2.16.62,2.16,1.42" transform="translate(-13.94 -26.92)"/><path class="cls-74" d="M61.18,33.56a2.68,2.68,0,0,1-1,2.34l-.55.49a2,2,0,0,0-.8,1.6v6.89a1.17,1.17,0,0,1-1.11.55,1.31,1.31,0,0,1-1.1-.55V37.37a3.59,3.59,0,0,1,1.35-2.83l2.34-2.09c0,.06.8-.12.92,1.11" transform="translate(-13.94 -26.92)"/><path class="cls-75" d="M57,45.31V37.8A3.6,3.6,0,0,1,58.35,35l2.34-2.09h.24a.65.65,0,0,0-.73-.37L57.86,34.6a3.6,3.6,0,0,0-1.35,2.83v7.51a.94.94,0,0,0,.49.37h0" transform="translate(-13.94 -26.92)"/><path class="cls-76" d="M60.81,35.16l-1.23,1.1a3.6,3.6,0,0,0-1.35,2.83v6.28c.31-.12.49-.25.55-.49V38a2,2,0,0,1,.8-1.6l.56-.49a3,3,0,0,0,.67-.74" transform="translate(-13.94 -26.92)"/><g class="cls-77"><rect class="cls-78" x="21.22" y="53.64" width="6.52" height="3.32"/></g><g class="cls-79"><rect class="cls-80" x="20.85" y="51.98" width="7.26" height="3.63"/></g><path class="cls-81" d="M42.05,79c0,1.3-1.6,2.34-3.63,2.34s-3.63-1-3.63-2.34,1.6-2.33,3.63-2.33,3.63,1,3.63,2.33" transform="translate(-13.94 -26.92)"/><g class="cls-82"><rect class="cls-83" x="21.22" y="48.65" width="6.52" height="5.17"/></g><g class="cls-84"><rect class="cls-85" x="20.85" y="46.5" width="7.26" height="3.63"/></g><path class="cls-81" d="M42.05,73.54c0,1.29-1.6,2.34-3.63,2.34s-3.63-1-3.63-2.34,1.6-2.34,3.63-2.34,3.63,1,3.63,2.34" transform="translate(-13.94 -26.92)"/><g class="cls-86"><rect class="cls-87" x="21.22" y="45.21" width="6.52" height="3.32"/></g><path class="cls-73" d="M41.68,72.25c0,1.17-1.47,2.15-3.26,2.15s-5.29-.68-5.29-1.84,3.51-2.4,5.29-2.4,3.26.92,3.26,2.09" transform="translate(-13.94 -26.92)"/><path class="cls-34" d="M23.23,108c0,3,2.46,4,5.41,2.27s5.41-7,5.41-10-2.46-2.59-5.41-.8c.92-.56-5.41,10.33-5.41,8.55" transform="translate(-13.94 -26.92)"/><path class="cls-63" d="M44.45,95.07c-.92-5-3-7.63-6-7.69a1.72,1.72,0,0,0-.55.06c-.31-.55-3.63.12-4.06.43-.25.12-4.12,5.17-10.77,17L17,101.47C18.12,95.25,26.18,83.2,33.5,83.2h.06a6,6,0,0,1,2.65.61c1,.49,5.9,2.65,6.76,4.06s1.05,4.8,1.48,7.2" transform="translate(-13.94 -26.92)"/><g class="cls-88"><rect class="cls-89" x="1.72" y="69.08" width="7.07" height="6.83"/></g><path class="cls-90" d="M21.63,100.73v1.35a.63.63,0,0,1-.92.55l-4.49-2.58a1.61,1.61,0,0,1-.8-1.41V97.28a.63.63,0,0,1,.92-.55l4.49,2.58a1.71,1.71,0,0,1,.8,1.42" transform="translate(-13.94 -26.92)"/><path class="cls-91" d="M18.18,99.62a.91.91,0,0,1-.12.43c-.18.31-.61.37-1.11.12a2.39,2.39,0,0,1-1.16-1.84c0-.49.24-.74.67-.68a.76.76,0,0,1,.49.19,2,2,0,0,1,1.23,1.78" transform="translate(-13.94 -26.92)"/><path class="cls-91" d="M20.83,101.22a.91.91,0,0,1-.12.43c-.19.31-.62.37-1.11.12a2.38,2.38,0,0,1-1.17-1.84c0-.49.25-.74.68-.68a.8.8,0,0,1,.49.19,2.16,2.16,0,0,1,1.23,1.78" transform="translate(-13.94 -26.92)"/><path class="cls-92" d="M18.18,99.62a.91.91,0,0,1-.12.43.82.82,0,0,1-.49-.18A2.38,2.38,0,0,1,16.4,98a.91.91,0,0,1,.12-.43.85.85,0,0,1,.5.18,2.31,2.31,0,0,1,1.16,1.85" transform="translate(-13.94 -26.92)"/><path class="cls-92" d="M20.83,101.22a.91.91,0,0,1-.12.43.85.85,0,0,1-.5-.18,2.4,2.4,0,0,1-1.16-1.85.91.91,0,0,1,.12-.43.82.82,0,0,1,.49.18,2.44,2.44,0,0,1,1.17,1.85" transform="translate(-13.94 -26.92)"/><polygon class="cls-93" points="8.98 78.43 70.98 39.55 70.98 29.89 8.98 68.77 8.98 78.43"/><polygon class="cls-94" points="26.94 64.77 44.53 56.1 44.53 49.82 26.94 59.97 26.94 64.77"/><polygon class="cls-94" points="44.9 60.22 70.98 45.21 70.98 35.24 44.9 50.32 44.9 60.22"/><polygon class="cls-94" points="70.98 30.32 46.07 44.72 46.07 47.49 70.98 33.09 70.98 30.32"/><path class="cls-64" d="M105.65,44.57,90.4,65.79,60,71.57V45.8c0-2.09,1.91-6.46,3.2-8.12,4.8-6.27,7-8.37,11.93-10.76Z" transform="translate(-13.94 -26.92)"/><path class="cls-63" d="M83,61.18c0-2.09,2-7.2,3.13-9,4.37-6.77,8-9,12.92-11.32V39.83L80,29.93c-4.92,2.34-8.79,7-11.44,13.65-.8,2-2.15,5.6-2.15,7.75l-1.6,23.26L84,70.9Z" transform="translate(-13.94 -26.92)"/><path class="cls-95" d="M83,60.07c0-2.09,2-7.2,3.13-9,4.37-6.77,8-9,12.92-11.32L80,28.76c-4.92,2.34-8.79,7-11.44,13.66-.8,2-2.15,5.59-2.15,7.75l-1.6,23.25L84,69.73Z" transform="translate(-13.94 -26.92)"/><polygon class="cls-38" points="35 97.56 92.33 64.03 92.33 57.7 35 88.51 35 97.56"/><g class="cls-96"><rect class="cls-97" x="78.12" y="55.05" width="21.47" height="19.07"/></g><path class="cls-98" d="M92.24,91c1.79-1.05,4.56.37,6.15,3.14S99.81,100,98,101s-4.56-.37-6.16-3.14-1.41-5.85.37-6.89" transform="translate(-13.94 -26.92)"/><path class="cls-99" d="M92.18,92.36c1.42-.86,3.63.31,4.92,2.52s1.17,4.68-.3,5.54-3.63-.31-4.93-2.52-1.1-4.68.31-5.54" transform="translate(-13.94 -26.92)"/><polygon class="cls-100" points="57.45 87.22 75.04 77.07 75.04 70.74 57.45 80.89 57.45 87.22"/><polygon class="cls-99" points="74.06 74.92 74.06 72.03 71.97 73.14 71.97 73.75 71.97 76.58 74.06 77.38 74.06 74.92"/><polygon class="cls-75" points="75.04 76.77 58.62 86.24 60.65 87.41 77.07 77.93 75.04 76.77"/><polygon class="cls-65" points="73.01 69.57 56.59 79.04 58.56 80.21 75.04 70.74 73.01 69.57"/><polygon class="cls-3" points="58.62 86.24 58.62 86.73 60.65 87.9 60.65 87.41 58.62 86.24"/><polygon class="cls-2" points="77.07 78.43 60.65 87.9 60.65 87.41 77.07 77.93 77.07 78.43"/><polygon class="cls-75" points="72.03 73.75 55.61 83.22 57.64 84.39 74.06 74.92 72.03 73.75"/><polygon class="cls-2" points="74.06 75.35 57.64 84.88 57.64 84.39 74.06 74.92 74.06 75.35"/><polygon class="cls-63" points="59.91 78 76.58 68.4 76.58 36.23 60.65 45.64 61.14 50.87 62 49.27 59.91 62.62 59.91 78"/><path class="cls-63" d="M47.16,116.11l26.69-11.2V89.53c-6.09-3.26-26.69,12-26.69,12Z" transform="translate(-13.94 -26.92)"/><path class="cls-101" d="M78.65,114.81l-4.92-2.7a14.81,14.81,0,0,0-1.66-4.92c.18,0,.37-.07.55-.07,3.08.07,5.11,2.65,6,7.69" transform="translate(-13.94 -26.92)"/><g class="cls-102"><rect class="cls-103" x="39.74" y="78" width="22.02" height="23.56"/></g><path class="cls-7" d="M74.77,109c-3-2.27-8.69.19-12.67,5.48s-4.77,11.43-1.75,13.69S69,128,73,122.65s4.77-11.42,1.76-13.69" transform="translate(-13.94 -26.92)"/><g class="cls-104"><rect class="cls-105" x="47.24" y="83.47" width="12.06" height="15.81"/></g><path class="cls-12" d="M72.36,112.15c-2-1.49-5.74.16-8.39,3.69s-3.2,7.6-1.22,9.09,5.74-.16,8.39-3.69,3.2-7.6,1.22-9.09" transform="translate(-13.94 -26.92)"/><g class="cls-106"><rect class="cls-107" x="48.22" y="84.7" width="10.83" height="14.09"/></g><path class="cls-15" d="M70.35,115.18h0c0,2.28-1.85,5.17-4.06,6.46a3.54,3.54,0,0,1-1.17.49,2,2,0,0,1-2.65-1,.94.94,0,0,1-.12-.43,7.91,7.91,0,0,1,.31-1.23,11.83,11.83,0,0,1,4.24-5.79,6.3,6.3,0,0,1,.74-.49c.18-.12.37-.18.55-.31s.06-.06.13-.06a2.13,2.13,0,0,1,2,2.4" transform="translate(-13.94 -26.92)"/><g class="cls-108"><rect class="cls-109" x="48.29" y="85.87" width="7.75" height="9.41"/></g><path class="cls-18" d="M70.47,116.11A7.29,7.29,0,0,1,67,121.64c-1.9,1.11-3.5.43-3.5-1.47a2.81,2.81,0,0,1,.06-.68A7.6,7.6,0,0,1,67,114.63a1.45,1.45,0,0,1,.43-.19c1.73-.86,3.08-.12,3.08,1.67" transform="translate(-13.94 -26.92)"/><g class="cls-110"><rect class="cls-111" x="51.42" y="89.13" width="3.44" height="4.49"/></g><path class="cls-15" d="M67.33,117.46a1.58,1.58,0,0,1-.67,1.11c-.37.24-.68.06-.68-.31v-.12a1.31,1.31,0,0,1,.68-.93.06.06,0,0,0,.06-.06c.37-.18.61,0,.61.31" transform="translate(-13.94 -26.92)"/><path class="cls-75" d="M76.87,86.4a1.3,1.3,0,0,1-1-.5,1.25,1.25,0,0,1-.24-1l1.29-8.74a4.49,4.49,0,0,1,2.09-3l4.43-2.83a1.74,1.74,0,0,1,.74-.24,1.38,1.38,0,0,1,1.41,1.41v7.87a3.68,3.68,0,0,1-1.85,3.2l-6.33,3.69A1.48,1.48,0,0,1,76.87,86.4Z" transform="translate(-13.94 -26.92)"/><path class="cls-112" d="M77.23,85.84l6.34-3.69a3.26,3.26,0,0,0,1.6-2.83V71.45a1,1,0,0,0-1.54-.86L79.2,73.42a4.26,4.26,0,0,0-1.9,2.7L76,84.86a.86.86,0,0,0,1.23,1" transform="translate(-13.94 -26.92)"/><path class="cls-75" d="M77.17,98.08A1.17,1.17,0,0,1,76,96.91v-6a1.66,1.66,0,0,1,.87-1.48L79.26,88a1,1,0,0,1,.56-.18A1.17,1.17,0,0,1,81,89v6a1.65,1.65,0,0,1-.86,1.47l-2.4,1.42a.89.89,0,0,1-.56.18" transform="translate(-13.94 -26.92)"/><path class="cls-112" d="M80,96.18l-2.4,1.41a.77.77,0,0,1-1.16-.68v-6a1.15,1.15,0,0,1,.67-1.11l2.4-1.42a.78.78,0,0,1,1.17.68v6A1.64,1.64,0,0,1,80,96.18" transform="translate(-13.94 -26.92)"/><path class="cls-63" d="M105.65,83.81,90.52,92.55V67a19.4,19.4,0,0,1,1.29-7c1.72-4.19,9-14.09,13.84-15.38Z" transform="translate(-13.94 -26.92)"/><polygon class="cls-75" points="91.71 56.04 73.2 66.8 73.2 69.57 73.87 69.94 92.33 56.47 91.71 56.04"/><polygon class="cls-76" points="92.33 56.47 73.87 67.17 73.87 69.94 92.33 59.23 92.33 56.47"/><path class="cls-99" d="M92.18,92.85v.43a.63.63,0,0,1-.31.5L90,94.88a.21.21,0,0,1-.31-.18v-.12l1.6-.93a.6.6,0,0,0,.31-.49v-.31l.31-.18c.06-.06.24.06.24.18" transform="translate(-13.94 -26.92)"/><path class="cls-113" d="M91.57,92.85v.31a.63.63,0,0,1-.31.49l-1.6.93v-.31a.6.6,0,0,1,.31-.49Z" transform="translate(-13.94 -26.92)"/><path class="cls-99" d="M105.41,85v.43a.66.66,0,0,1-.31.5l-1.85,1.1a.2.2,0,0,1-.3-.18v-.13l1.6-.92a.63.63,0,0,0,.3-.49V85l.31-.18c.06-.06.25.06.25.18" transform="translate(-13.94 -26.92)"/><path class="cls-113" d="M104.79,85v.31a.62.62,0,0,1-.31.49l-1.6.92v-.3a.63.63,0,0,1,.31-.49Z" transform="translate(-13.94 -26.92)"/><path class="cls-99" d="M101,87.69v.43a.64.64,0,0,1-.31.49l-1.85,1.11a.2.2,0,0,1-.3-.19v-.12l1.6-.92a.65.65,0,0,0,.3-.5v-.3l.31-.19c.06-.12.25,0,.25.19" transform="translate(-13.94 -26.92)"/><path class="cls-113" d="M100.36,87.63v.3a.65.65,0,0,1-.3.5l-1.6.92V89a.63.63,0,0,1,.3-.49Z" transform="translate(-13.94 -26.92)"/><path class="cls-99" d="M96.61,90.27v.43a.6.6,0,0,1-.31.49L94.46,92.3a.21.21,0,0,1-.31-.18V92l1.6-.92a.64.64,0,0,0,.31-.49v-.31l.3-.18c.07-.07.25,0,.25.18" transform="translate(-13.94 -26.92)"/><path class="cls-113" d="M95.93,90.27v.31a.63.63,0,0,1-.3.49L94,92v-.3a.65.65,0,0,1,.3-.5Z" transform="translate(-13.94 -26.92)"/><path class="cls-64" d="M44.57,56.87C45,65.67,77.42,83,75.08,74.52,74.41,72,90.52,63.64,90.52,63.64S73.05,57.61,60,46c0-.06-15.68,6.15-15.44,10.89" transform="translate(-13.94 -26.92)"/><path class="cls-63" d="M83.82,60.81c-5.72-2.59-14.21-6.4-21.66-12.55-5.47,2.71-16,8.43-15.86,11.93a6.49,6.49,0,0,0,.24,1.42c3.63,4.67,11.69,10,18.33,13.1,3,.55,5-.12,4.25-2.83-.68-2.15,12-8.74,14.7-11.07" transform="translate(-13.94 -26.92)"/><path class="cls-95" d="M83.82,60.81a100.6,100.6,0,0,1-21.66-13c-5.47,2.7-16,8.42-15.86,11.93a6.31,6.31,0,0,0,.24,1.41c3.63,4.68,11.69,10,18.33,13.11,3,.55,5-.13,4.25-2.83-.68-2.22,11.62-8.92,14.7-10.58" transform="translate(-13.94 -26.92)"/><path class="cls-64" d="M73.54,89.59c-6.15,1.73-24.29,10.28-24.29,10.28L25.81,85.78s8.61-6.34,17.59-13.9c6.71-5.66,29.16,16.3,30.45,17.59-.18.06-.24.12-.31.12" transform="translate(-13.94 -26.92)"/><polygon class="cls-63" points="53.33 59.48 30.63 73.38 13.72 60.59 35.25 43.18 53.33 59.48"/><polygon class="cls-95" points="55.67 57.94 30.63 72.46 13.72 59.66 35.25 42.26 55.67 57.94"/><polygon class="cls-95" points="53.51 53.15 28.36 70.12 13.66 63.42 38.44 44.59 53.51 53.15"/><path class="cls-114" d="M34.05,91.87l3.82-3a25.24,25.24,0,0,0-9.72-3.51,3.5,3.5,0,0,0-3.26,1.23L23.47,88.3Z" transform="translate(-13.94 -26.92)"/><path class="cls-73" d="M50.35,101.71v12.55l-3.19,1.85L46.6,102v-.56L34.12,91.81l3.81-3c2.71,1.16,7.75,5.72,10.52,8.3a5.81,5.81,0,0,1,1.78,3.08,12.14,12.14,0,0,1,.12,1.47" transform="translate(-13.94 -26.92)"/><path class="cls-115" d="M50.35,101.71v12.55l-3.19,1.85L46.6,102l3.57-1.72a6.16,6.16,0,0,1,.18,1.47" transform="translate(-13.94 -26.92)"/><path class="cls-116" d="M25.2,87.75l2.95.55a42.19,42.19,0,0,1,12.42,6.77l5.42,5a3.88,3.88,0,0,1,1.23,2.83v20.67L23,109.65v-20a1.85,1.85,0,0,1,2.22-1.91" transform="translate(-13.94 -26.92)"/><polygon class="cls-73" points="1.42 73.32 39.98 95.59 42.38 95.22 43.55 95.89 40.78 97.62 0.06 74.12 1.42 73.32"/><path class="cls-116" d="M57.49,122.81l-.86,9.1-.74.43a2.75,2.75,0,0,1-1.35.37,2.36,2.36,0,0,1-1.11-.3L14.86,110.14a1.82,1.82,0,0,1-.92-1.54V101l39.43,22.75a2.45,2.45,0,0,0,1.11.31,2.13,2.13,0,0,0,1.35-.37Z" transform="translate(-13.94 -26.92)"/><path class="cls-115" d="M57.49,122.81l-.86,9.1-.74.43a2.75,2.75,0,0,1-1.35.37V124.1a2.13,2.13,0,0,0,1.35-.37Z" transform="translate(-13.94 -26.92)"/><path class="cls-117" d="M56.63,130.5l-.74.43a2.47,2.47,0,0,1-2.52.06L13.94,108.23v.37a1.9,1.9,0,0,0,.86,1.54l38.57,22.27a2.45,2.45,0,0,0,2.52-.07l.74-.43.12-1.47Z" transform="translate(-13.94 -26.92)"/><polygon class="cls-73" points="6.77 86.55 3.01 84.39 3.01 83.04 6.77 85.19 6.77 86.55"/><g class="cls-118"><rect class="cls-119" x="54.68" y="74.3" width="6.52" height="3.32"/></g><g class="cls-120"><rect class="cls-121" x="54.31" y="72.64" width="7.26" height="3.63"/></g><path class="cls-81" d="M75.51,99.68c0,1.29-1.6,2.34-3.63,2.34s-3.63-1-3.63-2.34,1.6-2.34,3.63-2.34,3.63,1,3.63,2.34" transform="translate(-13.94 -26.92)"/><g class="cls-122"><rect class="cls-123" x="54.68" y="69.32" width="6.52" height="5.17"/></g><g class="cls-124"><rect class="cls-125" x="54.31" y="67.17" width="7.26" height="3.63"/></g><path class="cls-81" d="M75.51,94.21c0,1.29-1.6,2.33-3.63,2.33s-3.63-1-3.63-2.33,1.6-2.34,3.63-2.34,3.63,1,3.63,2.34" transform="translate(-13.94 -26.92)"/><g class="cls-126"><rect class="cls-127" x="54.68" y="65.88" width="6.52" height="3.32"/></g><path class="cls-73" d="M75.14,92.92c0-1.19-1.46-2.16-3.26-2.16s-3.26,1-3.26,2.16,1.46,2.15,3.26,2.15,3.26-1,3.26-2.15" transform="translate(-13.94 -26.92)"/><path class="cls-63" d="M78.65,114.81a15,15,0,0,0-1.6-4.86,5,5,0,0,0-4.43-2.83,1.49,1.49,0,0,0-.55.07c-.31-.56-3.63.18-4.06.49-.19.12-3.26,1.66-7.32,6.4a56.38,56.38,0,0,0-6.15,8.85l-7.75-4.3c.49-2.71,3.07-6,6.46-8.86,4.42-3.75,10.21-6.83,14.39-6.83h.06a6,6,0,0,1,2.65.62c1,.49,5.9,2.64,6.76,4.06a6.27,6.27,0,0,1,.56,1.41c.43,1.66.67,4,1,5.78" transform="translate(-13.94 -26.92)"/><path class="cls-95" d="M77.73,109c-.25.31-.43.62-.68.92a5,5,0,0,0-4.43-2.83,1.49,1.49,0,0,0-.55.07c-.31-.56-3.63.18-4.06.49-.19.12-3.26,1.66-7.32,6.4l-7.38-4.31c4.43-3.75,10.21-6.83,14.39-6.83h.06a6,6,0,0,1,2.65.62c1,.49,5.9,2.64,6.76,4.06a3.39,3.39,0,0,1,.56,1.41" transform="translate(-13.94 -26.92)"/><polygon class="cls-128" points="51.85 78.12 50.25 79.04 48.96 78.3 50.56 77.44 51.85 78.12"/><path class="cls-64" d="M80.19,114.57l-1.54.24c-.92-5-3-7.62-6-7.69a1.49,1.49,0,0,0-.55.07c-6.28.55-14.7,9.47-15.75,14.94l-1.78.8c1.1-5.78,9.41-15.74,16.42-17.16a7.69,7.69,0,0,1,1.6-.18h.06a6,6,0,0,1,4.55,2,13.59,13.59,0,0,1,3,7" transform="translate(-13.94 -26.92)"/><polygon class="cls-64" points="62 49.27 59.91 62.62 42.63 54.31 40.84 53.45 40.54 53.33 29.4 45.03 31.8 31 43.55 39.43 45.27 40.47 62 49.27"/><polygon class="cls-112" points="61.14 49.58 59.17 61.14 42.63 53.15 40.84 52.28 40.78 52.28 30.51 44.59 32.48 33.03 33.95 33.89 40.47 37.64 43.55 39.43 45.27 40.41 61.14 49.58"/><polygon class="cls-112" points="44.72 50.75 42.87 49.88 32.6 42.2 30.75 43.3 30.51 44.59 40.78 52.28 40.84 52.28 42.63 53.15 59.17 61.14 59.73 58 44.72 50.75"/><path class="cls-112" d="M54.41,64.56c-.18.12-.3.25-.49.37l-6.33,3.69a.83.83,0,0,1-1.23-.92l1.35-6.09a2.68,2.68,0,0,1,.25-.8Z" transform="translate(-13.94 -26.92)"/><polygon class="cls-129" points="52.59 77.69 51.05 78.61 49.76 77.87 51.36 77.01 52.59 77.69"/><polygon class="cls-113" points="52.59 77.69 52.59 78.61 51.05 79.53 51.05 78.61 52.59 77.69"/><polygon class="cls-130" points="51.05 78.61 51.05 79.53 49.76 78.8 49.76 77.87 51.05 78.61"/><g class="cls-131"><rect class="cls-132" x="33.34" y="87.28" width="7.07" height="6.83"/></g><path class="cls-90" d="M53.18,119v1.35a.63.63,0,0,1-.92.55l-4.49-2.58a1.64,1.64,0,0,1-.8-1.42v-1.35a.63.63,0,0,1,.92-.55l4.49,2.58a1.62,1.62,0,0,1,.8,1.42" transform="translate(-13.94 -26.92)"/><path class="cls-91" d="M49.74,117.83a.91.91,0,0,1-.12.43c-.19.31-.62.37-1.11.12a2.38,2.38,0,0,1-1.17-1.84c0-.5.25-.74.68-.68a.85.85,0,0,1,.49.18,2.14,2.14,0,0,1,1.23,1.79" transform="translate(-13.94 -26.92)"/><path class="cls-91" d="M52.38,119.43a.94.94,0,0,1-.12.43c-.18.3-.61.37-1.11.12A2.4,2.4,0,0,1,50,118.13c0-.49.24-.73.67-.67a.8.8,0,0,1,.49.18,2.14,2.14,0,0,1,1.23,1.79" transform="translate(-13.94 -26.92)"/><path class="cls-92" d="M49.74,117.83a.91.91,0,0,1-.12.43.8.8,0,0,1-.5-.19A2.39,2.39,0,0,1,48,116.23a.88.88,0,0,1,.12-.43.82.82,0,0,1,.49.18,2.38,2.38,0,0,1,1.17,1.85" transform="translate(-13.94 -26.92)"/><path class="cls-92" d="M52.38,119.43a.94.94,0,0,1-.12.43.78.78,0,0,1-.49-.19,2.38,2.38,0,0,1-1.17-1.84.88.88,0,0,1,.12-.43.85.85,0,0,1,.5.18,2.4,2.4,0,0,1,1.16,1.85" transform="translate(-13.94 -26.92)"/><polygon class="cls-64" points="45.27 40.41 45.27 40.47 42.63 53.15 42.38 54.13 40.54 53.33 40.84 52.28 43.55 39.43 45.27 40.41"/><g class="cls-133"><rect class="cls-134" x="73.2" y="36.84" width="4.31" height="31.62"/></g><path class="cls-73" d="M91.44,63.82c0,.74-.92,1.42-2.15,1.42s-2.15-.62-2.15-1.42.92-1.41,2.15-1.41,2.15.67,2.15,1.41" transform="translate(-13.94 -26.92)"/><path class="cls-74" d="M92.8,52.2a2.68,2.68,0,0,1-1,2.33l-.55.5a2,2,0,0,0-.8,1.59v6.89a1.17,1.17,0,0,1-1.11.56,1.32,1.32,0,0,1-1.11-.56V56a3.6,3.6,0,0,1,1.36-2.83l2.33-2.09s.8-.19.93,1.11" transform="translate(-13.94 -26.92)"/><path class="cls-75" d="M88.68,63.88v-7.5A3.59,3.59,0,0,1,90,53.55l2.34-2.09h.24a.67.67,0,0,0-.74-.37l-2.33,2.09A3.6,3.6,0,0,0,88.18,56v7.5a1,1,0,0,0,.5.37h0" transform="translate(-13.94 -26.92)"/><path class="cls-76" d="M92.43,53.73,91.2,54.84a3.6,3.6,0,0,0-1.36,2.83v6.27c.31-.12.5-.24.56-.49V56.56a2.06,2.06,0,0,1,.8-1.6l.55-.49c0,.06.37-.24.68-.74" transform="translate(-13.94 -26.92)"/><path class="cls-63" d="M44.57,56.87a7,7,0,0,0,.86,1.72C51,65.42,75.94,76.25,75.94,76.25l-.86-1.73c0-.06-23.86-10.94-30.51-17.65" transform="translate(-13.94 -26.92)"/><path class="cls-95" d="M55.09,55.09l-.8.55c-.24.12-.24.37-.49.25l-.37-.31c-.25-.12-.55-.68-.31-.86l.8-.56c.25-.12,1.11-.55,1.36-.36l.12.06c.31.18-.06,1.1-.31,1.23" transform="translate(-13.94 -26.92)"/><path class="cls-135" d="M56.26,55.21,55,56.07a.72.72,0,0,1-.86,0l-.31-.18c-.31-.19.06-1.36.37-1.48l.92-.06c.25-.19.62-.55.92-.43l.25.18c.25.13.31.93,0,1.11" transform="translate(-13.94 -26.92)"/><path class="cls-136" d="M56,54.47l-.8.56a.81.81,0,0,1-.74,0L54.29,55a.4.4,0,0,1,0-.67l.8-.56a.81.81,0,0,1,.74,0l.12.07a.39.39,0,0,1,0,.67" transform="translate(-13.94 -26.92)"/><path class="cls-95" d="M62.66,59.45l-.8.56c-.25.12-.25.37-.5.24L61,60c-.25-.13-.56-.68-.31-.87l.8-.55c.24-.12,1.11-.55,1.35-.37l.12.06c.25.19-.06,1.11-.3,1.23" transform="translate(-13.94 -26.92)"/><path class="cls-135" d="M63.83,59.58l-1.3.86a.75.75,0,0,1-.86,0l-.3-.19c-.31-.18.06-1.35.36-1.47l.93-.06c.24-.19.61-.56.92-.43l.25.18c.24.12.24.92,0,1.11" transform="translate(-13.94 -26.92)"/><path class="cls-136" d="M63.46,58.84l-.8.55a.75.75,0,0,1-.74,0l-.12-.06a.4.4,0,0,1,0-.68l.8-.55a.79.79,0,0,1,.73,0l.13.06a.41.41,0,0,1,0,.68" transform="translate(-13.94 -26.92)"/><path class="cls-95" d="M70.16,63.82l-.8.55c-.24.13-.24.37-.49.25l-.37-.31c-.25-.12-.55-.67-.31-.86l.8-.55c.25-.12,1.11-.55,1.36-.37l.12.06c.31.19-.06,1.11-.31,1.23" transform="translate(-13.94 -26.92)"/><path class="cls-135" d="M71.33,63.94,70,64.81a.75.75,0,0,1-.86,0l-.31-.19c-.31-.18.06-1.35.37-1.48l.92-.06c.25-.18.62-.55.92-.43l.25.19a.82.82,0,0,1,0,1.1" transform="translate(-13.94 -26.92)"/><path class="cls-136" d="M71,63.21l-.8.55a.81.81,0,0,1-.74,0l-.12-.06a.41.41,0,0,1,0-.68l.8-.55a.81.81,0,0,1,.74,0l.12.06a.4.4,0,0,1,0,.68" transform="translate(-13.94 -26.92)"/><path class="cls-137" d="M36.39,94.27a.54.54,0,0,1-.12.37c-.31.31-.92.24-1.72-.12-1-.5-1.85-1.48-1.85-2.1s.43-.67,1-.55a2.55,2.55,0,0,1,.8.31c1,.49,1.84,1.47,1.84,2.09" transform="translate(-13.94 -26.92)"/><path class="cls-138" d="M25.81,105.09l17.84,10.28a.87.87,0,0,0,1.29-.74V103.56a2,2,0,0,0-1-1.79L26.06,91.5a.86.86,0,0,0-1.29.74v11.07a2.11,2.11,0,0,0,1,1.78" transform="translate(-13.94 -26.92)"/><path class="cls-115" d="M44.08,115.18,26.24,104.91a2,2,0,0,1-1-1.78V92.05a.76.76,0,0,1,.3-.61.87.87,0,0,0-.73.86v11.07a2,2,0,0,0,1,1.79l17.84,10.27a.84.84,0,0,0,1-.12.88.88,0,0,1-.55-.13" transform="translate(-13.94 -26.92)"/><path class="cls-139" d="M44.94,113.09V114a212,212,0,0,1-20.11-11.07V102a209.19,209.19,0,0,0,20.11,11.07" transform="translate(-13.94 -26.92)"/><path class="cls-139" d="M44.94,111.37v.92c-4.12-2-14.21-7.26-20.11-11.07v-.92a209.19,209.19,0,0,0,20.11,11.07" transform="translate(-13.94 -26.92)"/><path class="cls-139" d="M44.94,109.65v.92A216.63,216.63,0,0,1,24.83,99.5v-.93a221.13,221.13,0,0,0,20.11,11.08" transform="translate(-13.94 -26.92)"/><path class="cls-139" d="M44.94,107.86v.93A214.64,214.64,0,0,1,24.83,97.71v-.86a218.71,218.71,0,0,0,20.11,11" transform="translate(-13.94 -26.92)"/><path class="cls-116" d="M44.94,113.58v.93c-4.55-2.22-14.58-7.51-20.11-11.14v-.92a228.9,228.9,0,0,0,20.11,11.13" transform="translate(-13.94 -26.92)"/><path class="cls-116" d="M44.94,111.86v.92a226.49,226.49,0,0,1-20.11-11.07v-.92a223.26,223.26,0,0,0,20.11,11.07" transform="translate(-13.94 -26.92)"/><path class="cls-116" d="M44.94,110.14v.92A228.9,228.9,0,0,1,24.83,99.93V99c5.53,3.56,15.56,8.85,20.11,11.13" transform="translate(-13.94 -26.92)"/><path class="cls-116" d="M44.94,108.29v.93A214.64,214.64,0,0,1,24.83,98.14v-.92a204.89,204.89,0,0,0,20.11,11.07" transform="translate(-13.94 -26.92)"/><path class="cls-139" d="M44.94,106v.92A216.63,216.63,0,0,1,24.83,95.87V95A209.19,209.19,0,0,0,44.94,106" transform="translate(-13.94 -26.92)"/><path class="cls-139" d="M44.94,104.3v.92c-4.12-2-14.21-7.26-20.11-11.07v-.93A207.34,207.34,0,0,0,44.94,104.3" transform="translate(-13.94 -26.92)"/><path class="cls-139" d="M44.88,103.43a224.14,224.14,0,0,1-20.05-11,1.45,1.45,0,0,1,.24-.37.56.56,0,0,1,.37-.18c.31.18,2.89,1.78,4.19,2.64.06,0,.06.07.12.07,2,1.17,4.12,2.33,6.09,3.32.06,0,.12.06.18.06,2.65,1.29,8.06,4.37,8.06,4.37a1.64,1.64,0,0,1,.49.49,5,5,0,0,1,.31.61" transform="translate(-13.94 -26.92)"/><path class="cls-116" d="M44.94,106.51v.92A228.9,228.9,0,0,1,24.83,96.3v-.92a228.9,228.9,0,0,0,20.11,11.13" transform="translate(-13.94 -26.92)"/><path class="cls-116" d="M44.94,104.79v.92c-4.12-2-14.21-7.26-20.11-11.07v-.92a223.26,223.26,0,0,0,20.11,11.07" transform="translate(-13.94 -26.92)"/><path class="cls-116" d="M44.94,103.93h0A215.31,215.31,0,0,1,24.83,92.85v-.18a.5.5,0,0,1,.06-.25,1.27,1.27,0,0,1,.25-.37c1.47.93,3,2,4.61,2.9.06,0,.06.06.12.06,2,1.17,4.12,2.33,6.09,3.32.06,0,.12.06.19.06,1.9,1,7,3.63,8.61,4.43a2.49,2.49,0,0,1,.3.55.69.69,0,0,0-.12.56" transform="translate(-13.94 -26.92)"/><polygon class="cls-76" points="96.94 41.15 94.11 38.94 94.11 42.81 96.94 41.15"/><polygon class="cls-76" points="92.39 25.34 91.71 24.36 91.71 25.71 92.39 25.34"/><polygon class="cls-73" points="14.33 90.91 10.58 88.7 10.58 87.34 14.33 89.5 14.33 90.91"/><polygon class="cls-73" points="21.9 95.22 18.08 93.06 18.08 91.71 21.9 93.86 21.9 95.22"/><polygon class="cls-73" points="29.4 99.58 25.65 97.37 25.65 96.02 29.4 98.17 29.4 99.58"/><polygon class="cls-73" points="36.97 103.89 33.22 101.74 33.22 100.39 36.97 102.54 36.97 103.89"/><path class="cls-140" d="M27.78,116.9a2.07,2.07,0,0,1-1-1.66v-3.07c0-.62.43-.8,1-.49l7.38,4.3a2.08,2.08,0,0,1,1,1.66v3.08c0,.61-.43.8-1,.49Z" transform="translate(-13.94 -26.92)"/><path class="cls-141" d="M28.09,116.41a2.05,2.05,0,0,1-1-1.66v-3.07c0-.62.43-.8,1-.5l7.38,4.31a2.1,2.1,0,0,1,1,1.66v3.08c0,.61-.43.8-1,.49Z" transform="translate(-13.94 -26.92)"/><path class="cls-142" d="M27.78,116.47a2.07,2.07,0,0,1-1-1.66v-3.07c0-.62.43-.8,1-.49l7.38,4.3a2.08,2.08,0,0,1,1,1.66v3.08c0,.61-.43.8-1,.49Z" transform="translate(-13.94 -26.92)"/><path class="cls-143" d="M35.16,120.6l-7.38-4.31a1.76,1.76,0,0,1-.8-1.35v-3.08c0-.49.37-.68.8-.43l7.38,4.31a1.74,1.74,0,0,1,.8,1.35v3.07c0,.5-.37.68-.8.44" transform="translate(-13.94 -26.92)"/><path class="cls-144" d="M36,117.09a1.74,1.74,0,0,0-.8-1.35l-7.38-4.31c-.43-.25-.8-.06-.8.37Z" transform="translate(-13.94 -26.92)"/><path class="cls-144" d="M27,114.94a1.76,1.76,0,0,0,.8,1.35l7.38,4.31c.43.24.8.06.8-.37Z" transform="translate(-13.94 -26.92)"/><path class="cls-63" d="M96.73,79a1.17,1.17,0,0,1-1.17-1.17V65.48A1.64,1.64,0,0,1,96.43,64l2.39-1.42a1,1,0,0,1,.56-.18,1.17,1.17,0,0,1,1.17,1.17v12.3a1.65,1.65,0,0,1-.86,1.47l-2.4,1.42a.89.89,0,0,1-.56.18" transform="translate(-13.94 -26.92)"/><path class="cls-63" d="M99.62,77.05l-2.39,1.41a.78.78,0,0,1-1.17-.68V65.48a1.17,1.17,0,0,1,.67-1.11L99.13,63a.78.78,0,0,1,1.17.68v12.3a1.46,1.46,0,0,1-.68,1.11" transform="translate(-13.94 -26.92)"/><path class="cls-135" d="M55.4,99.62l-.74.31a.49.49,0,0,0-.31.49v.31a.4.4,0,0,0,.49.37l.74-.31a.48.48,0,0,0,.31-.49v-.25a.41.41,0,0,0-.49-.43" transform="translate(-13.94 -26.92)"/><path class="cls-136" d="M55.58,99.8l-.74.31a.49.49,0,0,0-.3.49v.31a.39.39,0,0,0,.49.37l.74-.31a.49.49,0,0,0,.31-.49v-.24a.42.42,0,0,0-.5-.44" transform="translate(-13.94 -26.92)"/><path class="cls-145" d="M63.83,86.7l-.5.31a1.26,1.26,0,0,1-1.17,0l-5.35-2.4c-.67-.31-.73-.8-.12-1l.49-.25a1.58,1.58,0,0,1,1,0l5.29,2.34c.55.31.74.74.31,1" transform="translate(-13.94 -26.92)"/><polygon class="cls-146" points="47.55 59.97 47.98 60.16 50.19 58.87 49.88 58.68 47.55 59.97"/><polygon class="cls-146" points="46.44 59.54 46.81 59.73 49.09 58.44 48.72 58.25 46.44 59.54"/><polygon class="cls-146" points="45.27 59.11 45.7 59.23 47.98 58 47.61 57.82 45.27 59.11"/><polygon class="cls-146" points="44.16 58.68 44.59 58.8 46.81 57.57 46.44 57.39 44.16 58.68"/><polygon class="cls-146" points="43.06 58.25 43.49 58.37 45.76 57.08 45.4 56.9 43.06 58.25"/><polygon class="cls-146" points="42.2 57.63 42.63 57.82 44.84 56.53 44.47 56.34 42.2 57.63"/><path class="cls-145" d="M44.94,76l.49-.31a1,1,0,0,1,1,.06l4,3a.64.64,0,0,1-.13,1.17l-.49.18a.88.88,0,0,1-.86-.12L45,77.05c-.43-.31-.49-.8-.06-1" transform="translate(-13.94 -26.92)"/><polygon class="cls-146" points="33.03 49.02 32.72 48.84 30.51 50.01 30.75 50.25 33.03 49.02"/><polygon class="cls-146" points="33.95 49.52 33.59 49.39 31.37 50.56 31.62 50.81 33.95 49.52"/><polygon class="cls-146" points="34.81 50.07 34.45 49.95 32.23 51.12 32.48 51.36 34.81 50.07"/><polygon class="cls-146" points="35.68 50.62 35.31 50.5 33.09 51.67 33.34 51.91 35.68 50.62"/><polygon class="cls-146" points="36.48 51.24 36.11 51.05 33.89 52.28 34.14 52.47 36.48 51.24"/><polygon class="cls-146" points="37.09 51.91 36.72 51.73 34.51 52.96 34.75 53.21 37.09 51.91"/></svg>