<!-- <?xml version="1.0" encoding="iso-8859-1"?>
<svg xmlns="http://www.w3.org/2000/svg" xmlns:xlink="http://www.w3.org/1999/xlink" version="1.1" id="Layer_1" x="0px" y="0px" viewBox="0 0 512 512" style="enable-background:new 0 0 512 512;" xml:space="preserve" width="512px" height="512px">
<g>
	<g>
		<path d="M509.473,256.394l-59.391-67.801c-1.937-2.21-4.733-3.479-7.672-3.479h-49.455v-41.872    c0-5.633-4.567-10.199-10.199-10.199H172.109c-5.632,0-10.199,4.566-10.199,10.199v13.762H63.818    c-5.632,0-10.199,4.566-10.199,10.199c0,5.633,4.567,10.199,10.199,10.199h98.092v132.21h-59.046    c-5.632,0-10.199,4.566-10.199,10.199c0,5.633,4.567,10.199,10.199,10.199h59.046v10.365c0,5.633,4.567,10.199,10.199,10.199    h21.288c4.485,16.339,19.459,28.382,37.203,28.382c17.744,0,32.718-12.043,37.204-28.382h136.089v-0.001    c4.485,16.339,19.459,28.382,37.203,28.382c17.744,0,32.718-12.043,37.204-28.382h23.502c5.632,0,10.199-4.566,10.199-10.199    v-77.261C512,260.642,511.101,258.253,509.473,256.394z M230.6,358.558c-10.026,0-18.182-8.157-18.182-18.183    s8.156-18.183,18.182-18.183s18.183,8.157,18.183,18.183S240.626,358.558,230.6,358.558z M267.802,330.176    c-4.485-16.339-19.46-28.382-37.204-28.382s-32.717,12.043-37.203,28.382h-11.089V153.44h190.247v176.736H267.802z     M441.094,358.558c-10.026,0-18.182-8.157-18.182-18.183s8.156-18.183,18.182-18.183c10.026,0,18.183,8.157,18.183,18.183    S451.121,358.558,441.094,358.558z M491.602,330.176h-13.304c-4.485-16.339-19.46-28.382-37.204-28.382    c-17.744,0-32.717,12.043-37.203,28.382h-10.939V205.512h44.831l53.818,61.437V330.176z" fill="#fff"/>
	</g>
</g>
<g>
	<g>
		<path d="M69.261,309.611h-5.442c-5.632,0-10.199,4.566-10.199,10.199c0,5.633,4.567,10.199,10.199,10.199h5.442    c5.632,0,10.199-4.566,10.199-10.199C79.46,314.177,74.894,309.611,69.261,309.611z" fill="#fff"/>
	</g>
</g>
<g>
	<g>
		<path d="M119.5,232.276H10.199C4.567,232.276,0,236.842,0,242.475c0,5.633,4.567,10.199,10.199,10.199H119.5    c5.632,0,10.199-4.566,10.199-10.199C129.699,236.842,125.132,232.276,119.5,232.276z" fill="#fff"/>
	</g>
</g>
<g>
</g>
<g>
</g>
<g>
</g>
<g>
</g>
<g>
</g>
<g>
</g>
<g>
</g>
<g>
</g>
<g>
</g>
<g>
</g>
<g>
</g>
<g>
</g>
<g>
</g>
<g>
</g>
<g>
</g>
</svg>
 -->


<svg xmlns="http://www.w3.org/2000/svg" version="1.0" width="488.000000pt" height="262.000000pt" viewBox="0 0 488.000000 262.000000" preserveAspectRatio="xMidYMid meet">

<g transform="translate(0.000000,262.000000) scale(0.100000,-0.100000)" fill="#ffffff" stroke="none">
<path d="M2765 2239 c-204 -23 -372 -72 -560 -165 -299 -146 -528 -383 -684 -706 -108 -223 -150 -423 -151 -701 l0 -147 318 2 317 3 0 60 0 60 -254 3 -254 2 7 133 c10 204 47 352 132 532 54 113 153 265 173 265 8 0 67 -54 131 -120 64 -66 119 -120 123 -120 15 0 77 63 77 79 0 9 -54 70 -120 136 -66 66 -120 125 -120 131 0 21 153 148 262 217 125 79 297 151 425 177 98 21 238 39 245 32 4 -4 9 -75 10 -157 l3 -150 60 0 60 0 3 150 c1 82 6 153 10 157 7 7 147 -11 245 -32 216 -44 467 -179 650 -349 l48 -45 -133 -133 -132 -133 39 -40 c21 -22 44 -40 49 -40 6 0 65 55 132 121 72 72 126 119 133 115 21 -13 111 -155 155 -244 87 -174 132 -349 142 -551 l7 -131 -251 0 -252 0 -6 -23 c-3 -13 -4 -41 -2 -63 l3 -39 315 0 315 0 -1 175 c-1 231 -30 395 -103 577 -165 416 -520 749 -948 893 -114 38 -156 47 -308 65 -130 16 -201 17 -310 4z" fill="#ffffff"/>
<path d="M272 1619 c-9 -4 -26 -16 -36 -28 -16 -17 -17 -25 -8 -46 26 -58 6 -56 652 -53 l592 3 19 24 c24 29 24 53 2 80 -18 21 -23 21 -611 23 -326 2 -601 0 -610 -3z" fill="#ffffff"/>
<path d="M3499 1251 c-64 -31 -165 -79 -225 -108 -60 -29 -188 -90 -284 -136 -96 -46 -192 -92 -212 -101 -57 -27 -121 -88 -152 -146 -37 -67 -46 -179 -22 -261 20 -72 79 -145 151 -188 50 -30 67 -35 140 -39 114 -6 179 15 252 82 56 51 91 114 281 516 22 47 72 153 112 235 85 177 92 193 82 198 -4 3 -59 -21 -123 -52z" fill="#ffffff"/>
<path d="M253 1150 c-44 -18 -52 -69 -17 -105 13 -13 83 -15 512 -15 560 0 546 -2 540 68 -5 63 1 62 -533 61 -264 0 -490 -4 -502 -9z" fill="#ffffff"/>
<path d="M244 682 c-13 -9 -34 -46 -34 -62 0 -6 11 -22 25 -35 l24 -25 434 0 c400 0 436 1 455 18 30 25 33 70 6 96 -14 14 -69 16 -457 16 -243 0 -447 -4 -453 -8z" fill="#ffffff"/>
</g>
</svg>