<!-- <?xml version="1.0" encoding="iso-8859-1"?>
<svg xmlns="http://www.w3.org/2000/svg" xmlns:xlink="http://www.w3.org/1999/xlink" version="1.1" id="Layer_1" x="0px" y="0px" viewBox="0 0 295.238 295.238" style="enable-background:new 0 0 295.238 295.238;" xml:space="preserve" width="512px" height="512px">
<g>
	<g>
		<g>
			<path d="M295.238,102.381V64.287h-28.571V35.714h-47.619v28.571H76.19V35.714H28.571v28.571H0v38.095h19.048v152.381H0v38.095     h295.238v-38.095H276.19v-152.38H295.238z M285.714,264.286v19.048H9.524v-19.048h9.524H276.19H285.714z M266.666,254.762H28.571     V102.381h238.095V254.762z M276.189,92.858H19.048H9.524v-0.001V73.81h28.571V45.238h28.571V73.81h161.905V45.238h28.571V73.81     h28.571v19.048H276.189z" fill="#fff"/>
			<rect x="90.476" y="45.238" width="114.286" height="9.524" fill="#fff"/>
			<path d="M116.395,245.105l23.671-23.676h117.076v-9.524H149.59l47.619-47.619h-43.857l16.667-19.048h87.124v-9.524h-78.79     l8.333-9.524h-51.533l-4.762,9.524H38.095v9.524h87.533l-23.81,47.619h34.167l-7.414,19.771v-0.724H38.095v9.524h87.176     L116.395,245.105z M117.229,183.333l23.81-47.619h24.657l-33.333,38.095h41.857l-33.471,33.467l8.981-23.943H117.229z" fill="#fff"/>
			<rect x="38.095" y="11.906" width="28.571" height="9.524" fill="#fff"/>
			<polygon points="238.095,30.953 247.619,30.953 247.619,21.43 257.143,21.43 257.143,11.906 247.619,11.906 247.619,2.381      238.095,2.381 238.095,11.906 228.571,11.906 228.571,21.43 238.095,21.43    " fill="#fff"/>
			<rect x="38.095" y="111.905" width="9.524" height="9.524" fill="#fff"/>
			<rect x="57.143" y="111.905" width="9.524" height="9.524" fill="#fff"/>
			<rect x="38.095" y="235.714" width="9.524" height="9.524" fill="#fff"/>
			<rect x="247.619" y="111.905" width="9.524" height="9.524" fill="#fff"/>
			<rect x="228.571" y="111.905" width="9.524" height="9.524" fill="#fff"/>
		</g>
	</g>
</g>
<g>
</g>
<g>
</g>
<g>
</g>
<g>
</g>
<g>
</g>
<g>
</g>
<g>
</g>
<g>
</g>
<g>
</g>
<g>
</g>
<g>
</g>
<g>
</g>
<g>
</g>
<g>
</g>
<g>
</g>
</svg>
 -->
 <svg xmlns="http://www.w3.org/2000/svg" version="1.0" width="512.000000pt" height="428.000000pt" viewBox="0 0 512.000000 428.000000" preserveAspectRatio="xMidYMid meet">
<metadata fill="#ffffff">
Created by potrace 1.16, written by Peter Selinger 2001-2019
</metadata>
<g transform="translate(0.000000,428.000000) scale(0.100000,-0.100000)" fill="#ffffff" stroke="none">
<path d="M678 4084 c-34 -18 -37 -32 -41 -169 l-2 -110 -150 -5 c-171 -6 -212 -18 -278 -86 -76 -78 -87 -125 -87 -381 0 -210 5 -246 34 -265 6 -4 46 -8 89 -8 l77 0 0 -1232 c0 -1300 -1 -1274 45 -1325 50 -55 -18 -53 1585 -53 812 0 1479 3 1482 6 4 3 -4 29 -17 57 -75 164 -85 388 -24 564 52 151 148 287 265 374 150 111 318 164 506 161 l78 -2 2 723 3 722 76 5 c43 3 83 11 93 19 14 12 16 42 16 238 0 258 -8 304 -70 381 -61 78 -113 96 -292 100 l-148 4 0 129 c0 182 23 169 -293 169 -318 0 -297 12 -297 -173 l0 -126 -1047 2 -1048 2 -5 123 c-5 120 -6 124 -33 148 -28 24 -29 24 -260 24 -186 -1 -237 -4 -259 -16z m3563 -417 c79 -53 92 -109 87 -352 l-3 -140 -2047 -3 -2048 -2 0 198 c0 238 7 260 95 306 27 14 229 16 1956 16 l1926 0 34 -23z m-1931 -1162 c10 -12 11 -37 2 -118 -22 -196 -34 -358 -28 -373 5 -12 29 -14 153 -12 163 3 213 -7 213 -45 0 -20 -49 -117 -280 -552 -166 -314 -161 -305 -196 -305 -48 0 -48 6 -14 388 6 63 8 118 5 123 -4 5 -78 9 -166 9 -91 0 -169 4 -180 10 -37 21 -28 48 106 295 18 33 58 110 90 170 120 229 205 390 222 418 8 13 60 7 73 -8z" fill="#ffffff"/>
<path d="M3790 815 l0 -85 345 0 345 0 0 85 0 85 -345 0 -345 0 0 -85z" fill="#ffffff"/>
</g>
</svg>