<svg version="1.1" xmlns="http://www.w3.org/2000/svg" xmlns:xlink="http://www.w3.org/1999/xlink" x="0px" y="0px"
	 viewBox="0 0 576 455" xml:space="preserve" fill="#fff">
<g>
	<path d="M290.94,389.42c-18.07-0.19-41.2-2.65-63.99-8c-1.09-0.26-2.68,0.15-3.12-1.1c-0.54-1.53,1.11-2.24,1.98-3.12
		c15.26-15.36,30.58-30.67,45.81-46.05c1.68-1.7,3.28-2.27,5.72-1.99c64.7,7.32,120.59-48.2,113.36-112.64
		c-0.35-3.15,0.4-5.24,2.62-7.45c27.83-27.75,55.59-55.56,83.27-83.46c2.31-2.33,3.8-2.62,6.62-0.68
		c28.37,19.5,54.37,41.81,78.08,66.7c18.53,19.44,19.36,49.95,0.62,69.46c-36.21,37.69-76.52,70.15-123.45,93.8
		C393.75,377.41,346.47,389.51,290.94,389.42z"/>
	<path d="M286.12,63.99c26.17-0.44,45.7,1.44,65.09,4.84c1.28,0.22,3.08-0.02,3.57,1.26c0.66,1.71-1.27,2.51-2.26,3.49
		c-15.96,16.05-32,32.03-47.91,48.13c-1.97,2-3.84,2.54-6.6,2.29c-52.01-4.73-98.05,28.03-110.6,78.75
		c-2.73,11.05-3.87,22.32-2.17,33.69c0.46,3.09-0.25,5.27-2.51,7.52c-26.76,26.7-53.44,53.48-80.08,80.29
		c-2.06,2.08-3.44,3.18-6.58,1.16c-28.35-18.24-54.9-38.76-79.61-61.67c-20.87-19.35-21.67-53.82-0.82-73.21
		c52.86-49.16,112.12-88.07,181.3-110.51C228,69.95,259.9,64.51,286.12,63.99z"/>
	<path d="M60.22,423.73c0-9.18,3.71-16.65,10.14-23.08c40.49-40.51,80.92-81.08,121.37-121.64
		c89.14-89.38,178.3-178.75,267.4-268.18c9.74-9.77,20.98-13.36,34.13-8.84c21.5,7.4,27.84,34.48,11.71,50.98
		c-23.75,24.3-47.9,48.21-71.89,72.27C327.34,231.26,221.58,337.26,115.9,443.33c-7.02,7.05-14.88,11.66-25.06,11.51
		C73.81,454.59,60.23,440.79,60.22,423.73z"/>
</g>
</svg>
