<svg xmlns="http://www.w3.org/2000/svg" version="1.0" width="428.000000pt" height="461.000000pt" viewBox="0 0 428.000000 461.000000" preserveAspectRatio="xMidYMid meet">
<metadata fill="#ffffff">
Created by potrace 1.16, written by Peter Selinger 2001-2019
</metadata>
<g transform="translate(0.000000,461.000000) scale(0.100000,-0.100000)" fill="#ffffff" stroke="none">
<path d="M1945 4397 c-16 -5 -50 -17 -74 -26 -105 -36 -232 -142 -299 -246 -72 -113 -109 -279 -91 -405 32 -226 152 -393 354 -492 251 -123 564 -52 747 169 93 112 138 240 138 392 0 222 -95 401 -276 520 -65 43 -97 58 -195 89 -43 15 -263 14 -304 -1z" fill="#ffffff"/>
<path d="M960 3143 c-40 -26 -210 -196 -226 -225 -31 -60 -13 -116 68 -209 26 -30 48 -59 48 -63 0 -4 -15 -26 -34 -49 -41 -51 -88 -144 -107 -212 -11 -40 -14 -185 -14 -760 l0 -710 22 -31 c13 -17 40 -40 60 -50 36 -18 82 -19 978 -21 517 -1 946 0 954 3 17 5 8 15 -343 384 -245 257 -307 323 -386 405 -46 50 -129 137 -185 195 -93 97 -360 378 -550 579 -44 47 -130 137 -190 200 -252 263 -245 256 -245 288 0 51 194 225 234 210 7 -3 86 -88 177 -189 90 -100 179 -201 199 -222 19 -22 60 -67 90 -101 67 -75 83 -92 295 -330 93 -104 189 -213 214 -240 25 -28 78 -86 116 -129 39 -44 135 -152 214 -240 79 -89 158 -177 175 -196 17 -19 142 -158 276 -309 135 -150 249 -281 255 -290 5 -9 10 -74 11 -146 2 -143 11 -184 66 -287 68 -128 193 -233 338 -284 69 -24 221 -29 310 -10 208 44 382 208 436 409 18 68 18 218 -1 287 -44 165 -158 306 -308 378 -103 51 -174 65 -296 60 l-96 -3 -6 560 c-3 348 -9 573 -16 595 -35 117 -76 183 -158 258 -69 63 -135 95 -450 217 -137 53 -259 101 -270 105 -11 5 -42 16 -70 25 -27 9 -65 26 -84 37 -32 20 -42 21 -260 14 -414 -12 -483 -20 -616 -76 -117 -49 -208 -79 -220 -73 -7 5 -62 59 -121 121 -59 62 -120 120 -135 128 -37 19 -118 17 -149 -3z m2861 -1967 c82 -28 143 -68 214 -140 110 -111 157 -225 157 -382 0 -102 -9 -139 -53 -230 -132 -274 -492 -378 -765 -223 -110 62 -202 172 -246 295 -45 128 -33 296 30 422 33 66 130 169 194 206 138 80 329 101 469 52z" fill="#ffffff"/>
<path d="M3402 663 l3 -58 240 0 240 0 3 58 3 57 -246 0 -246 0 3 -57z" fill="#ffffff"/>
</g>
</svg>