<!-- <svg version="1.1" xmlns="http://www.w3.org/2000/svg" xmlns:xlink="http://www.w3.org/1999/xlink" x="0px" y="0px"
	 viewBox="0 0 880 880" fill="#fff">
<path d="M366.76,138.38c-7.51-13.43-14.99-26.87-22.54-40.27c-4.47-7.94-9.04-15.81-13.54-23.73c-0.64-1.13-0.85-2.66-2.63-2.48
	c-1.37,0.14-1.86,1.22-2.22,2.37c-3.69,11.85-8.33,23.4-11.39,35.46c-9.67,28.79-18.68,57.8-28.68,86.49
	c-1.41,4.04-2.97,8.1-3.79,12.36c-0.8,4.15-3.37,6.23-7.71,6.31c-9.63,0.16-19.26-0.03-28.88-0.15c-13.6-0.17-27.19-0.22-40.79-0.22
	c-2.98,0-4.73,0.65-3.09,4.5c5,11.74,9.86,23.55,14.92,35.26c8.89,20.55,17.38,41.28,26.31,61.81c1.39,3.19,2.73,6.4,3.92,9.67
	c1.14,3.11,0.39,5.59-2.81,6.98c-6.24,2.7-12.64,5.01-18.8,7.91c-2.93,1.38-4.74-0.3-5.86-2.9c-5.56-12.93-10.98-25.93-16.54-38.86
	c-8.12-18.87-16.2-37.76-24.13-56.7c-7.44-17.75-15.41-35.27-22.46-53.18c-1.25-3.17-0.36-4.55,3.17-4.81
	c9.13-0.65,18.24,0.21,27.37-0.05c12.61-0.36,25.23-0.06,37.83,0.16c9.42,0.16,18.86-0.06,28.27,0.46c3.64,0.2,5.48-0.69,6.82-4.61
	c6.55-19.17,12.76-38.45,19.15-57.67c6.34-19.05,12.62-38.13,18.85-57.22c6.38-19.54,13.06-38.98,19.28-58.56
	c0.1-0.32,0.24-0.62,0.36-0.93c0.84-2.14,1.2-5,3.93-5.29c2.91-0.3,3.48,2.78,4.55,4.66c13.82,24.22,27.62,48.45,41.32,72.73
	c12.48,22.12,25.35,44.02,37.37,66.39c1.03,1.92,2.44,3.55,3.58,5.38c1.51,3.24,3.7,2.51,6.17,1.18
	c9.64-5.19,19.14-10.65,28.55-16.22c16.14-9.56,32.37-18.94,48.68-28.19c5.05-2.86,9.95-5.99,14.99-8.88c1.48-0.85,3.26-2.37,5-1.09
	c1.77,1.31,0.79,3.32,0.36,5.09c-6.38,25.93-13.29,51.72-19.89,77.6c-4.92,19.31-10.01,38.58-15.01,57.86
	c-4.24,16.35-8.56,32.71-12.43,49.17c-3.3,14.05-7.26,27.97-10.94,41.94c-4.64,17.64-8.97,35.35-13.55,53
	c-4.54,17.51-9.05,35.03-13.56,52.55c-0.82,3.19-2.91,4.89-6.36,3.75c-6.32-2.09-12.94-3.04-19.26-5.11
	c-4.17-1.36-4.99-2.8-3.84-7.05c8.64-31.85,16.44-63.91,24.83-95.83c5.18-19.72,10.03-39.53,15.19-59.25
	c5.67-21.65,11.2-43.33,16.72-65.02c3.4-13.35,6.91-26.67,10.3-40.03c0.56-2.22,1.07-4.5,0.72-6.91c-3.9-0.64-6.18,2.44-8.9,3.97
	c-16.35,9.17-32.48,18.73-48.7,28.13c-0.86,0.5-1.79,0.9-2.62,1.42c-4.92,3.11-6.18,2.45-9.31-3.07
	c-6.96-12.26-14.14-24.39-20.97-36.72C371.56,147.48,368.67,143.19,366.76,138.38z"/>
<path d="M329.4,280.37c3.66-0.18,7.32-0.28,10.96-0.56c3.28-0.25,5.03,0.96,5.15,4.41c0.95,28.42,1.93,56.85,2.96,85.27
	c0.12,3.3-1.42,4.38-4.49,4.41c-6.49,0.06-12.99,0.09-19.45,0.55c-3.99,0.28-5.32-1.22-5.43-5.03c-0.38-13.8-0.98-27.59-1.46-41.39
	c-0.46-13.3-0.9-26.59-1.28-39.89c-0.2-6.94-0.12-6.94,7.06-7.34c1.99-0.11,3.99-0.24,5.98-0.36
	C329.4,280.42,329.4,280.4,329.4,280.37z"/>
<path d="M348.58,415c0.01,6.16-0.09,12.32,0.09,18.47c0.09,3.06-1.19,4.22-4.07,4.25c-7.32,0.08-14.65,0.18-21.97,0.34
	c-2.47,0.05-3.15-1.35-3.2-3.45c-0.22-8.49-0.47-16.97-0.67-25.46c-0.07-2.85,1.38-4.3,4.25-4.37c7.16-0.17,14.31-0.34,21.47-0.57
	c2.37-0.08,3.3,1.17,3.44,3.3c0.16,2.49,0.3,4.99,0.44,7.48C348.43,415,348.5,415,348.58,415z"/>
<path d="M481.71,791.29c0-11.99-4.38-22.36-13.14-31.12c-8.76-8.76-19.13-13.14-31.12-13.14c-11.99,0-22.36,4.38-31.12,13.14
	c-8.76,8.76-13.14,19.13-13.14,31.12s4.38,22.36,13.14,31.12c8.76,8.76,19.13,13.14,31.12,13.14c11.99,0,22.36-4.38,31.12-13.14
	C477.33,813.65,481.71,803.28,481.71,791.29z M348.95,614.27h132.76v-88.51h-54.63c-3,0-5.53,1.04-7.61,3.11l-67.42,67.42
	c-2.07,2.07-3.11,4.61-3.11,7.61V614.27z M791.49,791.29c0-11.99-4.38-22.36-13.14-31.12s-19.13-13.14-31.12-13.14
	s-22.36,4.38-31.12,13.14s-13.14,19.13-13.14,31.12s4.38,22.36,13.14,31.12s19.13,13.14,31.12,13.14s22.36-4.38,31.12-13.14
	S791.49,803.28,791.49,791.29z M880,415.13v354.04c0,3.46-0.46,6.51-1.38,9.16c-0.92,2.65-2.48,4.78-4.67,6.4
	c-2.19,1.61-4.09,2.94-5.7,3.98c-1.61,1.04-4.32,1.73-8.12,2.07c-3.8,0.35-6.4,0.58-7.78,0.69c-1.38,0.12-4.32,0.12-8.82,0
	c-4.49-0.12-7.09-0.17-7.78-0.17c0,24.43-8.64,45.29-25.93,62.58c-17.29,17.29-38.15,25.93-62.58,25.93
	c-24.43,0-45.29-8.64-62.58-25.93c-17.29-17.29-25.93-38.15-25.93-62.58H525.96c0,24.43-8.64,45.29-25.93,62.58
	c-17.29,17.29-38.15,25.93-62.58,25.93c-24.43,0-45.29-8.64-62.58-25.93c-17.29-17.29-25.93-38.15-25.93-62.58h-22.13
	c-0.69,0-3.28,0.06-7.78,0.17c-4.49,0.12-7.43,0.12-8.82,0c-1.38-0.12-3.98-0.35-7.78-0.69c-3.8-0.35-6.51-1.04-8.12-2.07
	c-1.61-1.04-3.52-2.36-5.7-3.98c-2.19-1.61-3.75-3.75-4.67-6.4c-0.92-2.65-1.38-5.7-1.38-9.16c0-5.99,2.19-11.18,6.57-15.56
	c4.38-4.38,9.57-6.57,15.56-6.57V636.4c0-1.84-0.06-5.88-0.17-12.1c-0.12-6.22-0.12-10.6,0-13.14c0.12-2.54,0.4-6.51,0.86-11.93
	c0.46-5.42,1.21-9.68,2.25-12.79c1.04-3.11,2.65-6.63,4.84-10.55c2.19-3.92,4.78-7.38,7.78-10.37l68.46-68.46
	c4.38-4.38,10.2-8.07,17.46-11.06c7.26-3,14-4.49,20.23-4.49h55.32v-66.38c0-5.99,2.19-11.18,6.57-15.56s9.57-6.57,15.56-6.57
	h354.04c5.99,0,11.18,2.19,15.56,6.57S880,409.13,880,415.13z"/>
<path d="M-115.47,791.79c0-11.99-4.38-22.36-13.14-31.12s-19.13-13.14-31.12-13.14c-11.99,0-22.36,4.38-31.12,13.14
	s-13.14,19.13-13.14,31.12s4.38,22.36,13.14,31.12s19.13,13.14,31.12,13.14c11.99,0,22.36-4.38,31.12-13.14
	S-115.47,803.78-115.47,791.79z M-248.24,614.77h132.76v-88.51h-54.63c-3,0-5.53,1.04-7.61,3.11l-67.42,67.42
	c-2.07,2.07-3.11,4.61-3.11,7.61V614.77z M194.31,791.79c0-11.99-4.38-22.36-13.14-31.12s-19.13-13.14-31.12-13.14
	c-11.99,0-22.36,4.38-31.12,13.14s-13.14,19.13-13.14,31.12s4.38,22.36,13.14,31.12s19.13,13.14,31.12,13.14
	c11.99,0,22.36-4.38,31.12-13.14S194.31,803.78,194.31,791.79z M282.82,415.63v354.04c0,3.46-0.46,6.51-1.38,9.16
	c-0.92,2.65-2.48,4.78-4.67,6.4c-2.19,1.61-4.09,2.94-5.7,3.98s-4.32,1.73-8.12,2.07c-3.8,0.35-6.4,0.58-7.78,0.69
	c-1.38,0.12-4.32,0.12-8.82,0c-4.49-0.12-7.09-0.17-7.78-0.17c0,24.43-8.64,45.29-25.93,62.58c-17.29,17.29-38.15,25.93-62.58,25.93
	s-45.29-8.64-62.58-25.93c-17.29-17.29-25.93-38.15-25.93-62.58H-71.22c0,24.43-8.64,45.29-25.93,62.58
	c-17.29,17.29-38.15,25.93-62.58,25.93s-45.29-8.64-62.58-25.93c-17.29-17.29-25.93-38.15-25.93-62.58h-22.13
	c-0.69,0-3.28,0.06-7.78,0.17c-4.49,0.12-7.43,0.12-8.82,0c-1.38-0.12-3.98-0.35-7.78-0.69c-3.8-0.35-6.51-1.04-8.12-2.07
	s-3.52-2.36-5.7-3.98c-2.19-1.61-3.75-3.75-4.67-6.4c-0.92-2.65-1.38-5.7-1.38-9.16c0-5.99,2.19-11.18,6.57-15.56
	c4.38-4.38,9.57-6.57,15.56-6.57V636.9c0-1.84-0.06-5.88-0.17-12.1c-0.12-6.22-0.12-10.6,0-13.14c0.12-2.54,0.4-6.51,0.86-11.93
	c0.46-5.42,1.21-9.68,2.25-12.79c1.04-3.11,2.65-6.63,4.84-10.55c2.19-3.92,4.78-7.38,7.78-10.37l68.46-68.46
	c4.38-4.38,10.2-8.07,17.46-11.06s14-4.49,20.23-4.49h55.32v-66.38c0-5.99,2.19-11.18,6.57-15.56s9.57-6.57,15.56-6.57h354.04
	c5.99,0,11.18,2.19,15.56,6.57S282.82,409.63,282.82,415.63z"/>
</svg>
 -->

 <svg xmlns="http://www.w3.org/2000/svg" version="1.0" width="422.000000pt" height="335.000000pt" viewBox="0 0 422.000000 335.000000" preserveAspectRatio="xMidYMid meet">
<metadata fill="#ffffff">
Created by potrace 1.16, written by Peter Selinger 2001-2019
</metadata>
<g transform="translate(0.000000,335.000000) scale(0.100000,-0.100000)" fill="#ffffff" stroke="none">
<path d="M1280 3029 c-199 -41 -292 -113 -418 -324 -123 -207 -225 -371 -232 -373 -5 -2 -20 4 -32 12 -32 23 -375 23 -417 1 -38 -19 -41 -30 -41 -136 0 -82 2 -92 25 -114 23 -24 29 -25 159 -25 74 0 137 -4 140 -8 2 -4 -9 -30 -26 -57 -40 -64 -110 -213 -136 -290 -55 -161 -55 -165 -59 -830 -2 -341 -1 -630 2 -643 3 -12 20 -31 38 -42 29 -18 51 -20 260 -20 240 0 273 5 293 47 5 10 11 77 14 148 l5 130 1253 3 1252 2 0 -115 c0 -126 12 -171 51 -199 20 -14 57 -16 252 -16 241 0 273 5 297 49 14 28 14 1215 -1 1295 -28 153 -106 354 -187 486 -37 59 -36 60 109 60 74 0 139 5 151 11 62 33 65 223 3 263 -37 25 -380 23 -424 -1 -16 -10 -32 -15 -34 -13 -6 7 -167 272 -236 390 -72 123 -167 220 -254 260 -120 57 -176 60 -1011 59 -413 -1 -771 -5 -796 -10z m1725 -163 c57 -27 85 -52 136 -116 41 -51 129 -178 129 -185 0 -2 34 -56 75 -120 41 -63 75 -117 75 -120 0 -2 20 -35 44 -72 89 -139 105 -178 82 -209 -14 -19 -48 -19 -1438 -19 -1320 0 -1426 1 -1441 17 -30 30 -23 48 93 232 30 48 87 138 125 199 39 62 86 138 105 171 71 120 164 202 270 239 8 3 393 6 855 6 l840 1 50 -24z m-2385 -1275 c25 -5 65 -15 90 -21 25 -6 77 -17 115 -25 79 -16 153 -33 205 -46 19 -4 49 -11 65 -14 17 -3 46 -10 65 -15 19 -5 56 -14 82 -20 66 -17 73 -52 19 -95 -14 -11 -43 -36 -65 -55 -23 -20 -61 -47 -86 -60 -44 -24 -50 -25 -260 -25 -204 0 -218 1 -275 24 -73 30 -141 74 -156 103 -22 41 2 211 35 246 18 20 28 23 71 19 27 -3 70 -10 95 -16z m3132 2 c31 -36 41 -69 46 -155 l5 -88 -35 -33 c-33 -31 -86 -61 -158 -88 -26 -11 -88 -13 -253 -11 -199 2 -221 4 -255 23 -93 53 -197 147 -189 172 5 16 52 38 102 49 99 22 123 28 255 58 19 5 71 16 115 25 44 9 98 21 120 27 22 5 59 13 83 17 23 4 45 11 49 14 14 15 100 7 115 -10z" fill="#ffffff"/>
</g>
</svg>