<!-- <svg version="1.1" xmlns="http://www.w3.org/2000/svg" xmlns:xlink="http://www.w3.org/1999/xlink" x="0px" y="0px"
	 viewBox="0 0 886 842" fill="#fff">
<path d="M201.4,110.2c-12.12-9.47-24.22-18.97-36.37-28.41c-7.19-5.59-14.46-11.08-21.67-16.64c-1.02-0.79-1.81-2.12-3.38-1.27
	c-1.21,0.66-1.25,1.85-1.13,3.05c1.19,12.36,1.38,24.8,3.22,37.1c2.23,30.29,5.14,60.53,7.02,90.85c0.26,4.27,0.4,8.61,1.29,12.87
	c0.87,4.13-0.69,7.05-4.67,8.8c-8.82,3.88-17.77,7.42-26.69,11.04c-12.6,5.1-25.16,10.32-37.7,15.58c-2.75,1.15-4.11,2.43-1.11,5.35
	c9.15,8.89,18.2,17.9,27.41,26.74c16.15,15.51,32,31.34,48.18,46.82c2.52,2.41,4.99,4.85,7.36,7.4c2.25,2.43,2.52,5.01,0.11,7.53
	c-4.71,4.91-9.71,9.52-14.28,14.57c-2.17,2.4-4.49,1.56-6.52-0.41c-10.13-9.78-20.16-19.66-30.29-29.43
	c-14.79-14.26-29.55-28.55-44.2-42.94c-13.73-13.49-27.86-26.56-41.29-40.34c-2.37-2.44-2.1-4.06,1.06-5.66
	c8.16-4.14,16.9-6.86,25.22-10.64c11.48-5.21,23.24-9.82,34.95-14.49c8.75-3.5,17.37-7.35,26.25-10.52c3.43-1.22,4.79-2.76,4.5-6.89
	c-1.38-20.21-3.12-40.39-4.66-60.58c-1.53-20.02-3.12-40.04-4.76-60.05c-1.67-20.48-3.05-40.99-4.88-61.46
	c-0.03-0.33-0.02-0.67-0.03-1c-0.05-2.3-0.83-5.08,1.57-6.4c2.57-1.41,4.28,1.22,6,2.54c22.12,16.98,44.22,33.99,66.25,51.07
	c20.07,15.56,40.41,30.78,60.15,46.75c1.69,1.37,3.62,2.33,5.38,3.58c2.65,2.4,4.39,0.88,6.14-1.3
	c6.89-8.51,13.53-17.23,20.05-26.01c11.18-15.06,22.52-29.99,33.98-44.84c3.55-4.59,6.86-9.37,10.38-13.99
	c1.03-1.35,2.09-3.45,4.19-2.94c2.14,0.52,2.01,2.75,2.3,4.56c4.16,26.38,7.77,52.84,11.69,79.25c2.93,19.71,5.7,39.45,8.55,59.17
	c2.42,16.72,4.76,33.47,7.57,50.15c2.39,14.23,4.13,28.6,6.15,42.9c2.55,18.06,5.41,36.07,8.02,54.11c2.59,17.9,5.21,35.8,7.83,53.7
	c0.48,3.26-0.79,5.64-4.42,5.92c-6.64,0.51-13.11,2.2-19.74,2.74c-4.37,0.36-5.69-0.65-6.27-5.02c-4.36-32.71-9.57-65.3-14.19-97.97
	c-2.85-20.19-6.05-40.33-8.92-60.51c-3.15-22.16-6.44-44.29-9.74-66.43c-2.03-13.63-3.95-27.27-5.99-40.9
	c-0.34-2.27-0.76-4.56-2.01-6.65c-3.84,0.92-4.75,4.64-6.67,7.11c-11.53,14.78-22.7,29.84-34.02,44.79c-0.6,0.8-1.3,1.52-1.86,2.32
	c-3.33,4.77-4.75,4.65-9.78,0.78c-11.16-8.61-22.48-17.02-33.54-25.74C209.35,116.73,205.02,113.9,201.4,110.2z"/>
<path d="M221.9,255.59c3.3-1.58,6.64-3.09,9.89-4.76c2.93-1.5,5.01-1.06,6.45,2.08c11.88,25.84,23.78,51.67,35.72,77.48
	c1.39,3,0.39,4.59-2.43,5.8c-5.96,2.57-11.94,5.11-17.72,8.04c-3.57,1.81-5.38,0.93-6.95-2.54c-5.7-12.58-11.59-25.06-17.36-37.6
	c-5.57-12.08-11.12-24.17-16.61-36.29c-2.87-6.32-2.8-6.35,3.67-9.5c1.8-0.87,3.58-1.77,5.37-2.65
	C221.92,255.64,221.91,255.61,221.9,255.59z"/>
<path d="M291.68,372.31c2.4,5.67,4.68,11.4,7.23,17c1.27,2.78,0.53,4.36-2.11,5.5c-6.72,2.9-13.44,5.84-20.13,8.82
	c-2.26,1.01-3.43-0.03-4.29-1.94c-3.49-7.74-7-15.47-10.47-23.21c-1.16-2.6-0.39-4.5,2.23-5.67c6.53-2.93,13.07-5.85,19.57-8.84
	c2.16-0.99,3.5-0.2,4.45,1.71c1.12,2.23,2.2,4.48,3.3,6.73C291.55,372.37,291.61,372.34,291.68,372.31z"/>
<path d="M487.71,753.29c0-11.99-4.38-22.36-13.14-31.12c-8.76-8.76-19.13-13.14-31.12-13.14c-11.99,0-22.36,4.38-31.12,13.14
	c-8.76,8.76-13.14,19.13-13.14,31.12s4.38,22.36,13.14,31.12c8.76,8.76,19.13,13.14,31.12,13.14c11.99,0,22.36-4.38,31.12-13.14
	C483.33,775.65,487.71,765.28,487.71,753.29z M354.95,576.27h132.76v-88.51h-54.63c-3,0-5.53,1.04-7.61,3.11l-67.42,67.42
	c-2.07,2.07-3.11,4.61-3.11,7.61V576.27z M797.49,753.29c0-11.99-4.38-22.36-13.14-31.12s-19.13-13.14-31.12-13.14
	s-22.36,4.38-31.12,13.14s-13.14,19.13-13.14,31.12s4.38,22.36,13.14,31.12s19.13,13.14,31.12,13.14s22.36-4.38,31.12-13.14
	S797.49,765.28,797.49,753.29z M886,377.13v354.04c0,3.46-0.46,6.51-1.38,9.16c-0.92,2.65-2.48,4.78-4.67,6.4
	c-2.19,1.61-4.09,2.94-5.7,3.98c-1.61,1.04-4.32,1.73-8.12,2.07c-3.8,0.35-6.4,0.58-7.78,0.69c-1.38,0.12-4.32,0.12-8.82,0
	c-4.49-0.12-7.09-0.17-7.78-0.17c0,24.43-8.64,45.29-25.93,62.58c-17.29,17.29-38.15,25.93-62.58,25.93
	c-24.43,0-45.29-8.64-62.58-25.93c-17.29-17.29-25.93-38.15-25.93-62.58H531.96c0,24.43-8.64,45.29-25.93,62.58
	c-17.29,17.29-38.15,25.93-62.58,25.93c-24.43,0-45.29-8.64-62.58-25.93c-17.29-17.29-25.93-38.15-25.93-62.58h-22.13
	c-0.69,0-3.28,0.06-7.78,0.17c-4.49,0.12-7.43,0.12-8.82,0c-1.38-0.12-3.98-0.35-7.78-0.69c-3.8-0.35-6.51-1.04-8.12-2.07
	c-1.61-1.04-3.52-2.36-5.7-3.98c-2.19-1.61-3.75-3.75-4.67-6.4c-0.92-2.65-1.38-5.7-1.38-9.16c0-5.99,2.19-11.18,6.57-15.56
	c4.38-4.38,9.57-6.57,15.56-6.57V598.4c0-1.84-0.06-5.88-0.17-12.1c-0.12-6.22-0.12-10.6,0-13.14c0.12-2.54,0.4-6.51,0.86-11.93
	c0.46-5.42,1.21-9.68,2.25-12.79c1.04-3.11,2.65-6.63,4.84-10.55c2.19-3.92,4.78-7.38,7.78-10.37l68.46-68.46
	c4.38-4.38,10.2-8.07,17.46-11.06c7.26-3,14-4.49,20.23-4.49h55.32v-66.38c0-5.99,2.19-11.18,6.57-15.56s9.57-6.57,15.56-6.57
	h354.04c5.99,0,11.18,2.19,15.56,6.57S886,371.13,886,377.13z"/>
<g>
	<path d="M123.26,695.16c-4.62,27.5-9.27,53.51-13.62,80.36c-4.96,30.5,42.08,40.47,49.16,10.08c7.85-31.54,15.35-63.2,22.81-94.86
		c5.23-18.39,22.93-29.85,33.81-44.97c26.54-28.47,2.85-65.39-4.46-97.01c0.46-0.27,0.92-0.54,1.42-0.81
		c19.46,15.5,39.35,65.74,68.74,44.2c25.31-24.77-23.5-56.05-35.47-77.59c-19.5-15.27-43.93-24.04-65.12-37.04
		c-16.5-9.04-32.08-7.92-47.2,3.31c-49.04,35.7-52.12,46.39-115.28,52.08c-26.46,3.69-22.89,47.7,4.35,45.43
		c44.89-4.92,66.93-2.81,103.9-32.08c1.81,10.23,28.47,85.2,18.27,85.05c-26.43,13.19-58.12,19.12-81.09,37.77
		c-16.19,18.77-32.47,37.47-48.58,56.28c-21.04,23.12,13.66,55.12,35.04,31.73C73.1,737.78,93.03,700.36,123.26,695.16z"/>
	<path d="M151.34,456.29c19.66-5.96,30.73-26.54,24.73-45.93c-6-19.39-27-30.66-46.2-24.81c-19.5,5.96-30.43,26.66-24.46,46.2
		C111.49,451.67,131.38,462.29,151.34,456.29z"/>
</g>
</svg>
 -->

 <svg xmlns="http://www.w3.org/2000/svg" version="1.0" width="352.000000pt" height="493.000000pt" viewBox="0 0 352.000000 493.000000" preserveAspectRatio="xMidYMid meet">
<metadata fill="#ffffff">
Created by potrace 1.16, written by Peter Selinger 2001-2019
</metadata>
<g transform="translate(0.000000,493.000000) scale(0.100000,-0.100000)" fill="#ffffff" stroke="none">
<path d="M1704 4755 c-92 -22 -165 -65 -239 -140 -83 -83 -120 -152 -143 -270 -14 -76 -14 -90 0 -163 40 -200 167 -344 357 -402 212 -66 467 46 572 251 40 79 52 133 53 229 0 118 -22 195 -84 285 -118 171 -327 257 -516 210z" fill="#ffffff"/>
<path d="M1385 3617 c-61 -24 -104 -59 -134 -108 -17 -27 -31 -51 -31 -53 0 -3 -19 -45 -161 -345 -27 -57 -49 -105 -49 -106 0 -3 -64 -138 -165 -350 -24 -49 -78 -162 -120 -250 -100 -209 -120 -268 -111 -320 13 -68 105 -135 208 -150 60 -9 110 8 144 47 14 18 86 152 159 299 74 147 138 270 143 273 5 3 12 -89 15 -207 8 -270 -6 -378 -72 -567 -16 -47 -39 -116 -51 -155 -25 -83 -148 -467 -195 -610 -18 -55 -52 -161 -75 -235 -23 -74 -58 -182 -76 -239 -56 -173 -45 -259 43 -342 49 -47 122 -74 198 -73 124 0 215 72 258 204 26 78 155 482 177 555 12 39 30 95 40 125 17 50 114 354 192 600 44 138 48 139 92 28 21 -51 44 -106 51 -123 93 -204 138 -366 164 -600 7 -55 16 -134 21 -175 5 -41 14 -127 21 -190 38 -386 50 -423 154 -489 55 -35 101 -39 176 -17 174 53 244 165 219 356 -6 47 -19 157 -30 245 -26 204 -48 373 -60 452 -6 35 -15 93 -20 130 -34 218 -67 339 -131 481 -16 34 -29 64 -29 66 0 2 -20 46 -44 97 -24 52 -49 112 -55 134 -11 41 -16 237 -5 247 3 3 51 -42 107 -100 184 -192 203 -209 241 -215 49 -8 100 8 142 45 42 37 94 123 94 156 0 29 -34 100 -62 132 -13 14 -84 93 -158 175 -74 83 -158 175 -186 205 -173 186 -165 164 -176 490 -12 353 -15 383 -42 422 -41 62 -45 63 -436 65 -255 1 -364 -2 -385 -10z" fill="#ffffff"/>
</g>
</svg>