<svg xmlns="http://www.w3.org/2000/svg" version="1.0" width="507.000000pt" height="515.000000pt" viewBox="0 0 507.000000 515.000000" preserveAspectRatio="xMidYMid meet">
<metadata fill="#ffffff">
Created by potrace 1.16, written by Peter Selinger 2001-2019
</metadata>
<g transform="translate(0.000000,515.000000) scale(0.100000,-0.100000)" fill="#ffffff" stroke="none">
<path d="M2265 4855 c-60 -7 -121 -15 -135 -18 -14 -3 -56 -13 -95 -22 -422 -100 -750 -353 -952 -735 -67 -127 -95 -208 -145 -420 -17 -73 -18 -462 0 -547 25 -129 34 -190 92 -628 6 -44 15 -107 20 -140 5 -33 14 -100 20 -150 6 -49 15 -119 20 -155 5 -36 16 -119 25 -185 42 -328 39 -310 98 -455 100 -246 123 -284 263 -429 148 -153 232 -226 429 -368 164 -118 220 -152 298 -181 109 -41 193 -55 301 -49 115 6 191 24 290 70 l69 31 21 -29 c44 -62 110 -125 179 -173 67 -46 175 -102 197 -102 6 0 18 -4 28 -9 74 -39 366 -40 457 -1 11 5 42 16 68 26 26 9 68 30 93 46 24 15 47 28 49 28 6 0 43 30 102 84 80 72 149 178 203 311 37 92 50 352 21 445 -61 201 -161 345 -319 458 -50 35 -164 92 -186 92 -30 0 -37 26 -27 92 6 34 22 149 36 253 14 105 30 217 35 250 31 206 69 489 85 630 26 226 15 478 -29 705 -87 444 -292 794 -596 1019 -86 64 -307 177 -390 201 -25 7 -56 16 -70 20 -34 11 -129 28 -223 40 -98 12 -191 11 -332 -5z m237 -1506 c84 -18 144 -64 187 -142 17 -30 21 -55 21 -122 0 -46 -4 -105 -10 -132 -5 -26 -19 -111 -30 -188 -21 -140 -41 -268 -61 -400 -22 -148 -38 -216 -53 -240 -36 -55 -102 -73 -160 -44 -54 26 -60 48 -117 409 -5 36 -14 90 -19 120 -12 72 -25 162 -51 345 -18 125 -19 158 -10 200 22 93 91 163 188 190 62 17 54 17 115 4z m35 -1515 c70 -34 115 -132 92 -202 -25 -79 -100 -141 -172 -142 -36 0 -95 25 -126 53 -28 26 -61 98 -61 133 0 30 35 106 58 127 53 48 144 61 209 31z m1162 -293 c170 -47 336 -190 412 -358 47 -103 45 -104 -102 -78 -182 32 -264 51 -284 66 -5 4 -43 17 -84 29 -96 30 -163 24 -262 -22 -100 -47 -123 -55 -200 -68 -92 -16 -272 -28 -283 -19 -8 7 0 38 27 99 28 63 116 176 176 226 70 58 163 108 230 123 24 5 45 12 49 16 11 10 274 -1 321 -14z m-85 -420 c16 -9 43 -33 59 -54 27 -32 31 -45 31 -100 0 -74 -18 -114 -71 -154 -31 -24 -46 -28 -102 -28 -54 0 -73 5 -103 25 -108 73 -105 232 5 303 49 32 134 36 181 8z m-331 -302 c12 -6 35 -23 50 -38 26 -24 35 -40 66 -114 14 -36 14 -232 0 -294 -25 -106 -30 -109 -131 -66 -147 63 -272 180 -338 318 -35 74 -44 102 -41 131 0 6 20 17 44 24 23 8 47 17 52 20 11 8 45 17 115 30 55 10 153 4 183 -11z m726 0 c20 -7 60 -21 89 -32 54 -20 54 -20 47 -56 -21 -114 -155 -297 -270 -368 -80 -50 -175 -87 -188 -74 -13 13 -29 132 -30 236 -3 179 42 282 133 307 34 9 174 1 219 -13z" fill="#ffffff"/>
<path d="M3486 1100 c-42 -13 -93 -67 -101 -106 -14 -75 31 -148 107 -175 33 -11 43 -11 85 7 139 57 119 254 -27 277 -19 3 -48 1 -64 -3z" fill="#ffffff"/>
</g>
</svg>