<!-- <?xml version="1.0" encoding="UTF-8"?>
<!DOCTYPE svg PUBLIC "-//W3C//DTD SVG 1.1//EN" "http://www.w3.org/Graphics/SVG/1.1/DTD/svg11.dtd">
<svg xmlns="http://www.w3.org/2000/svg" xml:space="preserve" width="11.5637mm" height="11.9087mm" version="1.1" style="shape-rendering:geometricPrecision; text-rendering:geometricPrecision; image-rendering:optimizeQuality; fill-rule:evenodd; clip-rule:evenodd"
viewBox="0 0 198 204"
 xmlns:xlink="http://www.w3.org/1999/xlink">
 <defs>
  <style type="text/css">
   <![CDATA[
    .fil0 {fill:#A45E4D;fill-rule:nonzero}
   ]]>
  </style>
 </defs>
 <g id="Capa_x0020_1">
  <metadata id="CorelCorpID_0Corel-Layer"/>
  <g>
   <path class="fil0" d="M16 196l0 0c0,2 -1,4 -2,6 -1,1 -4,2 -6,2l0 0 0 0 0 0 0 0 0 0c-2,0 -4,-1 -6,-2 -1,-2 -2,-4 -2,-6l0 0 0 0c0,0 0,0 0,0l0 -35c0,-1 0,-4 2,-8 1,-2 3,-4 5,-6 1,0 4,-1 7,-3 3,-1 7,-3 11,-5l0 0c7,-2 14,-5 19,-7 8,-3 14,-5 15,-5l0 0c3,1 4,2 5,3l0 0 0 0 1 0c1,1 3,3 6,5 4,2 9,4 15,4 6,0 10,-1 13,-2 3,-2 5,-3 6,-5l1 0c0,0 1,-1 2,-2l0 0c1,0 2,-1 3,-2l1 -1c1,0 3,0 4,0l1 1 0 0c2,0 5,1 9,2 4,2 8,3 13,5 5,2 10,5 15,7 4,2 8,5 11,7 1,1 2,2 3,2 1,1 1,2 2,3 1,2 1,3 2,4 0,2 1,3 1,4 0,0 0,1 0,1l0 9 0 0 -1 24 0 0c0,2 -1,4 -2,5 -1,2 -4,3 -6,3 -2,0 -4,-1 -6,-3 -1,-1 -2,-3 -2,-6l0 0 0 -32 0 0 0 0c0,0 0,0 0,-1l0 0c-1,0 -1,0 -1,0 -2,-2 -5,-4 -9,-6 -4,-2 -9,-4 -13,-5l0 0 0 0c-4,-2 -8,-3 -11,-4 -2,-1 -4,-2 -6,-2 0,0 0,0 0,0 -4,4 -10,8 -22,10l0 8c0,2 -2,4 -4,4l-8 0c-2,0 -4,-2 -4,-4l0 -8c-5,-1 -10,-3 -13,-5l0 0 0 0c-4,-2 -7,-4 -9,-5l-10 3 0 1 -14 5c-4,2 -8,4 -11,5 -2,1 -4,2 -4,2l0 0 0 0c0,0 0,0 0,0l-1 35zm74 1l-8 0c-2,0 -4,-2 -4,-4l0 -14c0,-3 2,-4 4,-4l8 0c2,0 4,1 4,4l0 14c0,2 -2,4 -4,4zm-4 -162c6,0 12,1 18,3 5,3 10,6 15,11 4,4 8,9 10,15 2,5 4,11 4,18 0,6 -2,12 -4,18 -2,5 -6,11 -10,15 -5,4 -10,8 -15,10l-1 0c-5,2 -11,4 -17,4 -7,0 -13,-2 -18,-4 -6,-2 -11,-6 -15,-10l-1 0c-4,-5 -7,-10 -10,-15l0 -1c-2,-5 -3,-11 -3,-17 0,-7 1,-13 3,-18l0 0 0 0c3,-6 6,-11 11,-15l0 0c4,-5 9,-8 15,-11l0 0c5,-2 11,-3 18,-3zm21 25c-3,-3 -6,-5 -10,-6 -3,-2 -7,-3 -11,-3 -4,0 -8,1 -12,3 -4,1 -7,3 -10,6l0 0c-3,3 -5,6 -6,10l0 0 0 0c-2,4 -3,8 -3,12 0,4 1,8 3,11 1,4 3,7 6,10 3,3 6,5 10,7 4,1 8,2 12,2 4,0 8,-1 11,-2 4,-2 7,-4 10,-7l0 0c3,-3 5,-6 7,-10 1,-3 2,-7 2,-11 0,-4 -1,-8 -2,-12 -2,-4 -4,-7 -7,-10zm47 -24l0 0 0 0zm-12 47l8 -9 -3 0c0,0 -1,0 -2,-1l0 0c-1,0 -2,0 -2,-1 -1,-1 -1,-1 -2,-2l0 0 0 0c0,-1 0,-2 0,-3 0,0 0,-1 0,-2l0 0c1,-1 1,-2 2,-2 1,-1 2,-2 4,-2l15 0c2,0 4,1 5,2l0 0c2,1 2,3 2,5 0,1 0,2 0,2l0 0 0 0c0,1 0,2 -1,2l0 1c0,0 0,0 -1,1 0,0 -1,1 -1,1l0 1 -7 7 5 0c2,0 3,1 5,2l0 0c0,0 1,1 1,2 1,1 1,2 1,3 0,1 -1,3 -2,4l0 0c-1,1 -2,1 -3,2 0,0 -1,0 -2,0l-17 0c-1,0 -2,0 -3,-1 -1,0 -2,0 -2,-1 -1,0 -1,0 -1,0 0,-1 -1,-2 -1,-2 -1,-1 -1,-2 -1,-3 0,-1 0,-1 0,-1l0 0c0,-1 1,-1 1,-2 0,0 0,0 0,0l0 0c0,-1 0,-1 1,-1 0,0 0,-1 0,-1l0 0 0 0 0 0 0 0 1 0 0 -1zm12 -47l18 -20 -11 0c-1,0 -2,-1 -3,-1 -1,0 -2,-1 -3,-1l0 0c-1,-1 -2,-2 -2,-3 0,-1 -1,-2 -1,-3 0,-1 1,-2 1,-3l0 0 0 0c0,-1 1,-2 2,-3l0 0 0 0c1,-1 2,-1 3,-2l0 0c1,0 2,0 3,0l26 0c3,0 5,1 6,2 2,2 3,4 3,7 0,1 0,2 0,3 0,1 -1,2 -1,3 -1,0 -1,1 -2,2 -1,1 -1,2 -2,3l0 0 -16 19 15 0c2,0 4,0 6,2l2 2c0,1 0,2 0,3 0,1 0,2 0,3l0 0 0 0c-1,1 -1,2 -2,3l0 0c-1,1 -2,1 -3,2l0 0 0 0c-1,0 -2,0 -3,0l-30 0c-1,0 -2,0 -4,0 -1,-1 -2,-1 -3,-2l0 0c-1,-1 -2,-2 -2,-3 -1,-2 -1,-3 -1,-4 0,-1 0,-1 0,-2 0,0 0,-1 0,-1l0 0 0 0c1,0 1,-1 1,-1 0,-1 0,-1 1,-1l0 0 0 0c0,-1 0,-1 0,-1l1 -1 0 0 1 -2z"/>
  </g>
 </g>
</svg>
 -->

<svg xmlns="http://www.w3.org/2000/svg" version="1.0" width="481.000000pt" height="502.000000pt" viewBox="0 0 481.000000 502.000000" preserveAspectRatio="xMidYMid meet">
<metadata fill="#ffffff">
Created by potrace 1.16, written by Peter Selinger 2001-2019
</metadata>
<g transform="translate(0.000000,502.000000) scale(0.100000,-0.100000)" fill="#ffffff" stroke="none">
<path d="M3052 4768 c-7 -7 -12 -21 -12 -33 0 -39 18 -45 142 -45 79 0 118 -4 118 -11 0 -8 -88 -117 -120 -149 -3 -3 -36 -39 -73 -81 -51 -58 -67 -83 -67 -107 0 -18 6 -32 16 -36 9 -3 98 -6 199 -6 195 0 215 5 215 50 0 31 -32 40 -137 41 -54 0 -106 4 -116 7 -14 6 7 35 118 162 80 91 135 163 135 175 0 42 -15 45 -215 45 -135 0 -195 -4 -203 -12z" fill="#ffffff"/>
<path d="M2600 4487 c-31 -16 -37 -43 -14 -68 15 -17 31 -19 136 -19 65 0 118 -3 118 -6 0 -6 -102 -127 -120 -144 -40 -37 -150 -175 -150 -189 0 -10 8 -25 18 -34 16 -15 45 -17 203 -17 199 0 209 2 209 52 0 40 -25 48 -149 48 -61 0 -111 3 -111 8 0 7 129 159 214 252 60 66 66 103 19 121 -38 14 -343 11 -373 -4z" fill="#ffffff"/>
<path d="M2060 3944 c-147 -55 -229 -125 -271 -232 -32 -80 -32 -213 -1 -294 32 -80 99 -151 180 -190 62 -31 74 -33 167 -33 93 0 105 2 165 32 155 76 234 224 210 395 -26 179 -176 315 -359 324 -42 2 -83 1 -91 -2z" fill="#ffffff"/>
<path d="M478 2928 c-4 -761 6 -1560 21 -1628 55 -241 146 -415 301 -569 104 -104 228 -183 393 -250 64 -26 179 -51 282 -61 72 -7 335 -10 755 -8 l645 3 0 215 0 215 -720 5 c-664 5 -724 6 -770 23 -272 99 -428 286 -464 560 -7 51 -11 426 -11 1053 l0 974 -214 0 -215 0 -3 -532z" fill="#ffffff"/>
<path d="M4162 3433 c-15 -22 -542 -930 -639 -1103 -11 -19 -34 -58 -50 -86 -33 -55 -79 -136 -99 -173 -9 -18 -10 -29 -3 -37 16 -19 304 -184 322 -184 9 0 73 101 160 253 80 138 153 261 160 271 14 19 17 19 81 -23 l66 -43 0 -1018 c0 -1097 -2 -1058 52 -1106 37 -34 63 -44 116 -44 61 0 107 29 136 85 21 40 21 44 21 1120 0 1259 14 1122 -125 1217 -47 32 -104 72 -128 89 l-44 30 33 57 c60 106 66 117 113 195 25 43 46 80 46 82 0 2 17 32 38 66 67 110 92 159 92 178 0 12 -20 29 -57 50 -32 17 -76 42 -98 55 -71 42 -167 96 -170 96 -2 0 -12 -12 -23 -27z" fill="#ffffff"/>
<path d="M1483 3205 c-181 -51 -299 -176 -333 -354 -5 -25 -9 -329 -11 -676 -2 -576 0 -636 16 -699 61 -237 261 -424 495 -461 25 -4 279 -8 565 -9 467 -1 523 -3 550 -18 17 -9 181 -168 365 -352 184 -185 337 -336 341 -336 15 0 270 283 267 295 -2 8 -217 229 -480 493 -366 368 -487 484 -525 502 -47 23 -51 23 -365 21 l-318 -2 0 360 c0 199 3 361 7 361 4 0 38 -22 77 -49 165 -113 375 -220 539 -275 134 -45 334 -86 421 -86 l46 0 0 209 c0 238 10 215 -95 226 -224 24 -444 104 -619 225 -101 70 -192 156 -369 349 -159 172 -226 227 -321 264 -67 25 -186 31 -253 12z" fill="#ffffff"/>
</g>
</svg>