<svg xmlns="http://www.w3.org/2000/svg" version="1.0" width="428.000000pt" height="472.000000pt" viewBox="0 0 428.000000 472.000000" preserveAspectRatio="xMidYMid meet">
<metadata fill="#ffffff">
Created by potrace 1.16, written by Peter Selinger 2001-2019
</metadata>
<g transform="translate(0.000000,472.000000) scale(0.100000,-0.100000)" fill="#ffffff" stroke="none">
<path d="M314 4390 c-46 -10 -72 -28 -91 -63 -16 -29 -18 -72 -21 -402 -2 -203 -1 -389 3 -413 8 -52 30 -65 57 -33 17 22 18 49 18 416 0 386 0 392 21 411 20 18 45 19 468 22 404 2 447 4 459 19 17 24 16 28 -15 42 -21 10 -128 12 -449 10 -231 -2 -433 -6 -450 -9z" fill="#ffffff"/>
<path d="M3165 4391 c-35 -7 -44 -35 -16 -50 13 -8 170 -12 461 -14 l442 -2 19 -24 c18 -22 19 -44 19 -406 0 -225 4 -394 10 -409 12 -33 35 -33 55 -2 14 21 16 72 13 413 -3 437 -4 444 -76 480 -34 16 -72 18 -467 20 -236 0 -443 -2 -460 -6z" fill="#ffffff"/>
<path d="M1980 4364 c-319 -37 -595 -178 -774 -393 -80 -96 -110 -146 -185 -301 -16 -34 -60 -190 -71 -255 -19 -110 -8 -339 28 -575 17 -113 36 -243 42 -290 6 -47 15 -112 20 -145 5 -33 14 -96 19 -140 17 -126 40 -303 52 -390 11 -84 44 -179 114 -330 37 -80 55 -103 156 -206 63 -64 139 -136 169 -161 76 -61 288 -212 325 -231 166 -83 392 -81 542 5 115 66 397 309 496 427 68 81 83 109 153 286 39 101 49 144 69 290 3 22 10 74 16 115 6 41 14 102 19 135 5 33 21 146 35 250 14 105 30 215 35 245 5 30 14 117 21 192 19 205 -11 465 -77 668 -117 359 -329 600 -642 730 -127 54 -212 70 -377 74 -82 3 -166 2 -185 0z m238 -549 c175 -37 277 -90 392 -205 122 -122 185 -250 211 -432 35 -251 -97 -532 -319 -677 -42 -28 -86 -57 -98 -65 -18 -13 -22 -28 -26 -118 -6 -116 -27 -174 -81 -225 -154 -148 -392 -88 -464 117 -17 49 -17 481 0 530 39 112 125 179 252 195 122 16 175 73 175 190 0 93 -22 128 -105 166 -54 25 -85 24 -151 -8 -82 -39 -130 -88 -139 -142 -21 -128 -106 -214 -236 -241 -157 -31 -249 61 -249 249 0 166 90 354 234 489 73 68 210 141 306 163 30 6 69 15 85 20 50 12 136 10 213 -6z m-52 -1930 c101 -30 164 -113 164 -218 0 -69 -20 -120 -63 -165 -47 -49 -92 -67 -167 -67 -77 0 -125 20 -169 70 -116 132 -61 327 108 381 50 16 70 16 127 -1z" fill="#ffffff"/>
<path d="M220 1780 c-13 -8 -15 -66 -15 -422 0 -469 -1 -463 78 -499 39 -17 71 -19 477 -19 378 0 438 2 458 16 29 20 28 30 -8 49 -25 13 -93 15 -458 15 -395 0 -431 1 -451 18 -20 17 -21 25 -23 418 -2 322 -6 404 -17 417 -15 19 -20 20 -41 7z" fill="#ffffff"/>
<path d="M4100 1754 c-6 -15 -10 -184 -10 -410 0 -456 8 -427 -116 -422 l-75 3 -21 50 c-69 163 -239 315 -408 364 -25 7 -55 17 -68 22 -55 22 -311 4 -338 -24 -4 -4 -15 -7 -24 -7 -21 0 -121 -51 -168 -86 -57 -41 -143 -136 -180 -196 -72 -120 -110 -296 -90 -423 24 -158 84 -281 188 -385 77 -77 89 -86 157 -123 66 -35 120 -54 208 -72 105 -22 169 -18 300 18 196 54 390 240 444 427 7 25 17 55 22 68 5 13 9 81 9 152 l0 130 54 0 c98 0 155 39 175 122 7 31 11 173 11 412 0 353 -1 367 -20 386 -27 27 -39 25 -50 -6z m-706 -505 c111 -30 174 -67 262 -154 58 -58 89 -98 112 -147 18 -37 32 -72 32 -79 0 -19 -152 -1 -285 33 -38 10 -54 15 -107 37 -110 45 -155 41 -293 -23 -63 -30 -116 -43 -230 -56 -138 -15 -145 -15 -145 16 0 40 57 138 120 207 107 116 242 175 399 176 51 1 112 -4 135 -10z m-29 -375 c34 -22 65 -84 65 -129 0 -50 -34 -111 -73 -132 -46 -24 -129 -23 -164 3 -67 50 -91 130 -59 192 18 34 65 78 91 85 34 10 113 -1 140 -19z m290 -244 c28 -5 73 -17 100 -27 46 -18 50 -21 47 -49 -5 -45 -57 -147 -107 -208 -70 -86 -248 -194 -284 -172 -9 6 -17 61 -28 174 -6 65 10 167 33 212 28 57 104 96 164 83 14 -2 48 -8 75 -13z m-612 1 c61 -15 88 -46 127 -148 21 -56 0 -287 -29 -316 -7 -7 -17 -8 -33 0 -13 6 -43 19 -68 29 -64 26 -107 56 -172 120 -60 60 -122 164 -133 225 -7 40 -5 42 100 73 92 28 143 32 208 17z" fill="#ffffff"/>
<path d="M3212 850 c-94 -58 -66 -205 43 -226 102 -19 184 103 124 187 -42 59 -109 74 -167 39z" fill="#ffffff"/>
</g>
</svg>