<?xml version="1.0" encoding="UTF-8"?>
<!DOCTYPE svg PUBLIC "-//W3C//DTD SVG 1.1//EN" "http://www.w3.org/Graphics/SVG/1.1/DTD/svg11.dtd">
<!-- Creator: CorelDRAW X7 -->
<svg xmlns="http://www.w3.org/2000/svg" xml:space="preserve" width="11.0605mm" height="12.328mm" version="1.1" style="shape-rendering:geometricPrecision; text-rendering:geometricPrecision; image-rendering:optimizeQuality; fill-rule:evenodd; clip-rule:evenodd"
viewBox="0 0 181 202"
 xmlns:xlink="http://www.w3.org/1999/xlink">
 <defs>
  <style type="text/css">
   <![CDATA[
    .fil0 {fill:#FEFEFE}
   ]]>
  </style>
 </defs>
 <g id="Capa_x0020_1">
  <metadata id="CorelCorpID_0Corel-Layer"/>
  <path class="fil0" d="M141 174c-3,3 -4,4 -3,10l1 1c2,-1 5,-4 6,-5 1,-1 2,-1 4,-3 3,-2 9,-6 11,-8 1,-1 1,-1 1,-1 1,-1 2,-1 3,-2l10 -7c1,-2 2,-4 2,-6 0,-1 0,-3 -1,-3 -1,0 -2,1 -3,1l-18 14c-2,1 -5,3 -6,5 -1,0 -1,0 -2,1l-5 3zm-71 -36c0,0 2,-1 2,-1 1,0 1,0 1,-1 1,0 1,0 2,-1l4 -2c1,-1 1,-1 1,-1l22 -14c1,0 3,-1 2,-3 -2,0 -4,-1 -5,-2 -1,0 -1,0 -2,-1 -1,0 -1,0 -2,0 0,-1 -1,-1 -1,-1 -1,0 -3,-1 -4,0 -1,0 -1,0 -2,0l-7 4c0,0 0,0 0,1l-2 0c0,1 -1,1 -1,1l-21 13c-3,2 0,3 3,4l3 1c1,1 6,3 7,3zm7 -38c3,0 5,0 8,1 1,0 1,0 2,1 1,0 0,0 1,0l7 3c2,1 4,2 6,3l5 2c4,1 7,3 10,4 1,1 1,1 2,1 1,1 1,1 1,1l4 1c0,1 1,1 1,1 2,1 3,1 5,2 1,0 2,1 3,1 0,1 1,1 2,1l9 4c1,1 1,1 1,1 1,0 1,0 1,0 1,1 2,1 4,2l3 1c1,1 1,1 1,1l4 2c2,0 4,2 6,2l14 7c1,0 0,0 1,0 1,1 2,2 2,3 1,1 1,2 1,3 -1,3 0,4 -1,8 0,1 0,1 -1,2 -1,1 -1,1 -2,2 0,1 -1,1 -1,1l-28 22c-1,0 -2,1 -2,2 -2,1 -4,2 -5,3 -4,3 -5,5 -10,4l-18 -7c-2,0 -4,-1 -6,-2 -5,-2 -5,-3 -9,-1l-13 10c-1,0 -1,1 -1,1l-3 2c-1,1 -1,1 -2,1 -1,1 -4,3 -6,3 -5,2 -5,2 -9,2 -4,1 -6,1 -10,0l-5 -1c-3,-1 -10,-4 -12,-6 -1,0 -1,0 -2,-1l-5 -4c-3,-2 -7,-6 -9,-9 0,-1 -1,-1 -1,-2 -1,0 0,0 -1,-1 -2,-3 -3,-5 -4,-9 -1,-1 -2,-3 -2,-4l-1 -2c0,-1 0,-2 0,-3 0,-2 -1,-3 -1,-5l0 -6c0,-3 1,-4 1,-6 0,-4 4,-10 7,-14 0,0 1,-1 1,-1 2,-2 5,-3 6,-5l24 -13c0,0 0,0 1,0l9 -6c2,-1 7,-3 9,-3 3,0 6,0 8,0zm-18 -8c-3,0 -6,-2 -7,-3 -3,-2 -7,-6 -10,-8l-7 -6c-1,-1 -1,-1 -2,-2l-9 -7c-2,-1 -5,-4 -6,-5l-1 -1c-2,-1 -3,-3 -4,-3l-6 -5c-3,-3 -7,-6 -7,-10 0,-3 1,-4 3,-6 2,-2 3,-4 5,-5 0,0 0,-1 1,-1 0,0 1,0 1,-1 4,-2 7,1 10,3l11 13c0,1 0,1 1,2 4,4 8,10 12,14l15 19c1,0 1,0 1,1 1,1 2,1 2,3 2,2 2,8 -3,8zm103 -51c0,2 -1,5 -2,6 -1,1 -2,2 -4,3l-9 8c0,0 0,0 0,0l-12 10c0,0 -1,0 -1,1l-17 14c-2,1 -7,6 -9,7 -1,1 -1,1 -3,1 -2,1 -2,1 -5,0 -2,-1 -1,-3 -1,-5 0,-1 1,-3 2,-4 0,-1 0,-1 0,-1 1,-2 6,-7 7,-8 1,-2 2,-4 4,-6l3 -3c0,0 0,0 0,-1l8 -9c1,0 0,0 1,0 0,-1 0,-1 1,-1l18 -22c2,-2 4,-2 6,-2 2,0 3,1 4,2 1,0 1,0 1,1l3 2c1,1 2,2 3,3 1,1 2,3 2,4zm-70 -34c0,6 0,8 -1,12 0,4 0,6 0,9 0,2 -1,4 -1,5 0,2 0,3 0,5 0,1 0,3 -1,5l-2 30c-1,3 -1,4 -3,6 -1,0 0,0 -1,0 -2,3 -5,1 -6,-1 0,0 -1,0 -1,-1 0,0 0,-1 0,-1 0,-1 0,0 -1,-1 0,0 0,-1 0,-1 0,-2 0,-4 -1,-6 0,-2 0,-4 0,-6 0,0 0,-1 0,-2 -1,-4 -1,-5 -1,-9 0,-2 -1,-4 -1,-6 0,-2 0,-4 0,-6 0,-1 0,-3 -1,-5 0,-2 0,-4 0,-6 0,-2 0,-4 -1,-6 0,-1 0,-1 0,-2 0,-3 0,-6 -1,-9 0,-2 0,-4 0,-6 1,-2 1,-1 3,-3 3,-3 8,-2 12,-2 1,0 3,0 3,1 3,0 5,3 5,6z"/>
 </g>
</svg>
