<!-- <?xml version="1.0" encoding="iso-8859-1"?>
<!DOCTYPE svg PUBLIC "-//W3C//DTD SVG 1.1//EN" "http://www.w3.org/Graphics/SVG/1.1/DTD/svg11.dtd">
<svg xmlns="http://www.w3.org/2000/svg" xmlns:xlink="http://www.w3.org/1999/xlink" version="1.1" id="Capa_1" x="0px" y="0px" width="512px" height="512px" viewBox="0 0 612 612" style="enable-background:new 0 0 612 612;" xml:space="preserve">
<g>
	<path d="M444.5,242.05l2.4-9.7c0.8-1.6,1.6-3.2,3.199-3.2c1.601-0.8,4.101,0,5.7,1.6l68.3,27.6l-73.199-9.7   C446.2,248.55,443.7,245.25,444.5,242.05z M455.1,194.95l72.4,56l-55.3-72.4c-2.4-4.1-4.9-5.7-7.3-5.7c-1.601,0-2.4,0.8-4.101,1.6   l-8.899,8.9C448.6,186.85,450.2,190.85,455.1,194.95z M598.2,186.05h-18.7c-8.1,0-13.8,6.5-13.8,13.8v241.5   c0,8.1,6.5,13.801,13.8,13.801h18.7c8.1,0,13.8-6.5,13.8-13.801v-241.5C612,191.55,605.5,186.05,598.2,186.05z M502.3,158.25   c-0.8,0-1.6,0-2.399,0.8l-8.9,4.9c-3.2,1.6-3.2,5.7,0.8,9.7l44.8,58.6l-28.5-68.3C506.4,160.75,504.7,158.25,502.3,158.25z    M536.4,318.449v65.1c0,15.4-12.2,21.9-25.2,21.9h-55.3c-2.4,27.6-24.4,49.5-52.9,49.5s-52.1-21.9-53.7-49.5H157.6   c-1.6,27.6-25.2,49.5-52.9,49.5c-27.7,0-51.3-21.9-52.9-49.5H23.5c-20.3,0-23.5-8.9-23.5-21.9v-62.6c0-10.6,0.8-18.7,6.5-30   l55.2-109.7c6.5-13,23.5-24.4,39-24.4l212.899,0.8c14.601,0,29.2,8.9,38.2,24.4l51.3,80.5l101.601,21.9   C530.7,288.45,535.6,305.45,536.4,318.449z M134.1,402.15c0-15.4-13-28.4-28.4-28.4c-16.2,0-28.4,13-28.4,28.4   c0,15.398,13,28.398,28.4,28.398C121.1,430.549,134.1,417.65,134.1,402.15z M191,187.65h-78.1c-12.2,0.8-17.9,5.7-24.4,19.5   l-25.2,55.3h127.6v-74.8H191L191,187.65z M360.1,262.35l-33.3-55.3c-6.5-10.6-16.2-19.5-30-19.5h-71.6v74.8H360.1L360.1,262.35z    M431.5,402.15c0-15.4-13-28.4-28.4-28.4c-15.399,0-28.399,13-28.399,28.4c0,15.398,13,28.398,28.399,28.398   C419.4,430.65,431.5,417.65,431.5,402.15z" fill="#fff"/>
</g>
<g>
</g>
<g>
</g>
<g>
</g>
<g>
</g>
<g>
</g>
<g>
</g>
<g>
</g>
<g>
</g>
<g>
</g>
<g>
</g>
<g>
</g>
<g>
</g>
<g>
</g>
<g>
</g>
<g>
</g>
</svg>
 -->

 <svg xmlns="http://www.w3.org/2000/svg" version="1.0" width="461.000000pt" height="228.000000pt" viewBox="0 0 461.000000 228.000000" preserveAspectRatio="xMidYMid meet">
<metadata fill="#ffffff">
Created by potrace 1.16, written by Peter Selinger 2001-2019
</metadata>
<g transform="translate(0.000000,228.000000) scale(0.100000,-0.100000)" fill="#ffffff" stroke="none">
<path d="M2725 2044 c-90 -10 -254 -47 -353 -80 -385 -129 -685 -386 -880 -754 -50 -93 -106 -225 -123 -285 -25 -92 -30 -119 -44 -210 -9 -55 -18 -172 -22 -260 -5 -136 -4 -162 9 -173 12 -9 89 -12 329 -10 l314 3 0 65 0 65 -258 3 -257 2 0 98 c1 207 55 421 158 622 46 89 124 211 149 231 12 10 37 -10 143 -116 l128 -128 40 33 c23 18 43 38 46 45 2 6 -54 70 -125 141 -71 71 -129 134 -129 141 0 18 144 138 239 200 69 46 206 116 296 154 74 31 284 76 375 81 l55 3 3 -157 3 -158 64 0 65 0 0 155 c0 117 3 155 13 156 75 8 251 -23 382 -66 120 -39 290 -128 396 -206 103 -77 179 -147 179 -165 0 -6 -56 -67 -125 -136 -69 -69 -125 -129 -125 -134 0 -12 73 -84 85 -84 5 0 67 57 137 127 l128 126 36 -47 c82 -108 185 -311 216 -426 5 -19 13 -51 19 -70 27 -101 63 -414 48 -422 -2 -1 -121 -5 -264 -8 l-260 -5 -3 -54 c-2 -37 1 -57 10 -62 15 -10 608 -12 632 -3 14 5 16 28 16 153 0 274 -58 526 -175 756 -76 150 -160 268 -273 383 -171 175 -297 261 -547 373 -47 20 -184 62 -269 80 -89 20 -379 34 -481 23z" fill="#ffffff"/>
<path d="M155 1395 c-41 -28 -43 -56 -5 -94 l32 -31 586 0 c360 0 601 4 623 10 70 20 75 113 5 125 -17 3 -296 6 -621 8 -578 2 -590 2 -620 -18z" fill="#ffffff"/>
<path d="M2390 1074 c0 -6 27 -66 110 -239 34 -71 82 -173 107 -225 195 -407 232 -477 272 -512 149 -128 351 -124 484 9 69 69 90 121 95 228 5 118 -18 185 -89 255 -54 54 -73 64 -674 350 -317 151 -305 145 -305 134z" fill="#ffffff"/>
<path d="M148 923 c-25 -6 -41 -54 -29 -86 7 -18 21 -29 48 -36 47 -13 941 -15 997 -1 45 10 56 23 56 67 0 64 12 63 -550 62 -278 -1 -512 -3 -522 -6z" fill="#ffffff"/>
<path d="M135 430 c-23 -25 -22 -80 1 -97 14 -10 119 -13 474 -13 430 0 458 1 473 18 25 27 22 78 -5 96 -20 14 -81 16 -474 16 -438 0 -451 -1 -469 -20z" fill="#ffffff"/>
</g>
</svg>