<?xml version="1.0" encoding="iso-8859-1"?>
<!-- Generator: Adobe Illustrator 16.0.0, SVG Export Plug-In . SVG Version: 6.00 Build 0)  -->
<!DOCTYPE svg PUBLIC "-//W3C//DTD SVG 1.1//EN" "http://www.w3.org/Graphics/SVG/1.1/DTD/svg11.dtd">
<svg xmlns="http://www.w3.org/2000/svg" xmlns:xlink="http://www.w3.org/1999/xlink" version="1.1" id="Capa_1" x="0px" y="0px" width="512px" height="512px" viewBox="0 0 612 612" style="enable-background:new 0 0 612 612;" xml:space="preserve">
<g>
	<path d="M444.5,242.05l2.4-9.7c0.8-1.6,1.6-3.2,3.199-3.2c1.601-0.8,4.101,0,5.7,1.6l68.3,27.6l-73.199-9.7   C446.2,248.55,443.7,245.25,444.5,242.05z M455.1,194.95l72.4,56l-55.3-72.4c-2.4-4.1-4.9-5.7-7.3-5.7c-1.601,0-2.4,0.8-4.101,1.6   l-8.899,8.9C448.6,186.85,450.2,190.85,455.1,194.95z M598.2,186.05h-18.7c-8.1,0-13.8,6.5-13.8,13.8v241.5   c0,8.1,6.5,13.801,13.8,13.801h18.7c8.1,0,13.8-6.5,13.8-13.801v-241.5C612,191.55,605.5,186.05,598.2,186.05z M502.3,158.25   c-0.8,0-1.6,0-2.399,0.8l-8.9,4.9c-3.2,1.6-3.2,5.7,0.8,9.7l44.8,58.6l-28.5-68.3C506.4,160.75,504.7,158.25,502.3,158.25z    M536.4,318.449v65.1c0,15.4-12.2,21.9-25.2,21.9h-55.3c-2.4,27.6-24.4,49.5-52.9,49.5s-52.1-21.9-53.7-49.5H157.6   c-1.6,27.6-25.2,49.5-52.9,49.5c-27.7,0-51.3-21.9-52.9-49.5H23.5c-20.3,0-23.5-8.9-23.5-21.9v-62.6c0-10.6,0.8-18.7,6.5-30   l55.2-109.7c6.5-13,23.5-24.4,39-24.4l212.899,0.8c14.601,0,29.2,8.9,38.2,24.4l51.3,80.5l101.601,21.9   C530.7,288.45,535.6,305.45,536.4,318.449z M134.1,402.15c0-15.4-13-28.4-28.4-28.4c-16.2,0-28.4,13-28.4,28.4   c0,15.398,13,28.398,28.4,28.398C121.1,430.549,134.1,417.65,134.1,402.15z M191,187.65h-78.1c-12.2,0.8-17.9,5.7-24.4,19.5   l-25.2,55.3h127.6v-74.8H191L191,187.65z M360.1,262.35l-33.3-55.3c-6.5-10.6-16.2-19.5-30-19.5h-71.6v74.8H360.1L360.1,262.35z    M431.5,402.15c0-15.4-13-28.4-28.4-28.4c-15.399,0-28.399,13-28.399,28.4c0,15.398,13,28.398,28.399,28.398   C419.4,430.65,431.5,417.65,431.5,402.15z" fill="#fff"/>
</g>
<g>
</g>
<g>
</g>
<g>
</g>
<g>
</g>
<g>
</g>
<g>
</g>
<g>
</g>
<g>
</g>
<g>
</g>
<g>
</g>
<g>
</g>
<g>
</g>
<g>
</g>
<g>
</g>
<g>
</g>
</svg>
