<svg xmlns="http://www.w3.org/2000/svg" version="1.0" width="371.000000pt" height="337.000000pt" viewBox="0 0 371.000000 337.000000" preserveAspectRatio="xMidYMid meet">
<metadata fill="#ffffff">
Created by potrace 1.16, written by Peter Selinger 2001-2019
</metadata>
<g transform="translate(0.000000,337.000000) scale(0.100000,-0.100000)" fill="#ffffff" stroke="none">
<path d="M950 3045 c-160 -45 -290 -146 -408 -317 -146 -212 -242 -556 -242 -865 0 -133 34 -360 79 -528 29 -105 105 -260 179 -364 252 -355 625 -412 916 -140 97 90 153 166 214 287 42 84 108 270 126 354 7 29 34 43 66 33 12 -4 55 -50 97 -103 43 -53 80 -99 83 -102 3 -3 23 -27 45 -53 21 -27 57 -58 79 -70 41 -22 43 -22 561 -18 484 3 522 4 556 22 78 40 109 106 109 235 0 94 0 95 28 105 103 39 169 93 213 175 40 73 53 151 39 222 -25 121 -89 201 -207 262 l-68 35 -5 100 c-6 114 -23 161 -76 203 -63 50 -83 52 -601 52 -451 0 -484 -1 -525 -19 -49 -22 -123 -96 -227 -229 -77 -98 -100 -117 -130 -107 -21 6 -25 15 -75 175 -103 327 -295 558 -536 648 -56 21 -225 25 -290 7z m2226 -822 c10 -14 13 -84 14 -317 0 -358 7 -336 -114 -336 -45 0 -88 5 -96 10 -13 8 -15 56 -18 311 -4 369 -10 349 115 349 70 0 88 -3 99 -17z m-1316 -363 l0 -210 -355 0 -355 0 0 210 0 210 355 0 355 0 0 -210z m1604 178 c83 -55 118 -177 75 -265 -23 -47 -83 -103 -111 -103 -17 0 -18 15 -18 188 0 166 3 202 17 202 2 0 19 -10 37 -22z" fill="#ffffff"/>
<path d="M3011 928 c-134 -19 -255 -108 -317 -233 -106 -215 -17 -470 201 -576 67 -32 75 -33 180 -33 103 0 114 1 175 31 86 42 135 84 181 156 141 217 61 505 -172 619 -30 14 -76 29 -104 33 -27 4 -57 8 -65 9 -8 2 -44 -1 -79 -6z m301 -275 c39 -36 25 -60 -120 -205 -94 -94 -145 -138 -160 -138 -28 0 -168 131 -176 166 -10 37 17 74 53 74 21 0 41 -13 75 -47 l46 -48 102 101 c122 121 142 132 180 97z" fill="#ffffff"/>
</g>
</svg>