<?xml version="1.0" encoding="utf-8"?>
<!-- Generator: Adobe Illustrator 24.1.1, SVG Export Plug-In . SVG Version: 6.00 Build 0)  -->
<svg version="1.1" id="Capa_1" xmlns="http://www.w3.org/2000/svg" xmlns:xlink="http://www.w3.org/1999/xlink" x="0px" y="0px"
	 viewBox="0 0 446.5 513.1" style="enable-background:new 0 0 446.5 513.1;" xml:space="preserve" fill="#fff">
<g>
	<path d="M441.7,472.4l-49.9-53.1l0,0c-3.3-3.5-7.8-5.4-12.6-5.3c-3.8,0-7.5,1.1-10.6,3.3l-4.7-4.9c17.3-19.9,26.4-45.6,25.6-71.9
		c-0.9-26.3-11.6-51.4-30.2-70.1c-19.4-19.6-45.8-30.6-73.3-30.5c-8.7,0-17.4,1.1-25.8,3.4c-7.9-4.7-16.3-8.8-24.9-12.2l-3.9-1.4v0
		c31.5-16.2,54.1-45.7,61.4-80.4s-1.4-70.8-23.8-98.3c-22.3-27.5-55.9-43.5-91.3-43.5c-35.4,0-69,16-91.3,43.5
		c-22.3,27.5-31.1,63.6-23.8,98.3c7.3,34.7,29.8,64.2,61.4,80.4c-25.7,9.2-48.8,24.6-67.2,44.8C24.3,310.2,6.5,356.7,6.9,404.9
		c0,6.2,5,11.2,11.2,11.2c6.2,0,11.2-5,11.2-11.2c-0.4-42.4,15.3-83.5,43.8-114.9c26.7-29.8,64.8-46.9,104.8-47.1
		c16.9,0,33.7,3.1,49.5,9.2l6,2.5c-26.3,15.6-44.4,42-49.5,72.1c-5.1,30.1,3.3,61,23,84.3c19.7,23.4,48.7,36.9,79.2,37
		c22.2,0.1,43.8-7.1,61.6-20.4l6,6.7c-1.5,3.3-2.1,6.9-1.6,10.5c0.5,3.6,2.1,6.9,4.5,9.6l50,53.1c3.1,3.5,7.6,5.5,12.3,5.6
		c5.4-0.1,10.5-2.3,14.2-6.2l7.6-8.2c3.5-3.4,5.5-8.1,5.7-13C446.7,480.9,445,476.1,441.7,472.4L441.7,472.4z M82.4,125.1
		c0-25.2,10-49.5,27.9-67.3c17.9-17.9,42.1-27.9,67.3-27.9s49.5,10,67.3,27.9c17.9,17.9,27.9,42.1,27.9,67.3
		c0,25.3-10,49.5-27.9,67.3c-17.9,17.9-42.1,27.9-67.3,27.9s-49.5-10-67.3-27.9C92.4,174.6,82.4,150.4,82.4,125.1z M286.2,425.6
		c-21.6,0.1-42.3-8.6-57.4-23.9C213.6,386.3,205,365.6,205,344c0-21.6,8.5-42.4,23.8-57.7c15.2-15.3,35.9-23.9,57.4-23.9
		s42.2,8.6,57.4,23.9c15.2,15.3,23.8,36.1,23.8,57.7c0,21.6-8.5,42.4-23.8,57.7C328.5,417,307.8,425.6,286.2,425.6L286.2,425.6z
		 M419.5,488.4l-43.8-46.6l3.2-3.4l43.8,46.6L419.5,488.4z"/>
	<path d="M286.3,289.1c-8.2,0-16,3.3-21.8,9.1c-5.8,5.8-9,13.7-9,21.8c0,6.2,5,11.2,11.2,11.2c6.2,0,11.2-5,11.2-11.2
		c0-3.4,2.1-6.5,5.3-7.8c3.2-1.3,6.8-0.6,9.2,1.9c2.4,2.4,3.1,6.1,1.8,9.2c-1.3,3.2-4.4,5.2-7.8,5.2c-6.2,0-11.2,5-11.2,11.2v19.8
		c0,6.2,5,11.2,11.2,11.2c6.2,0,11.2-5,11.2-11.2v-10.6c9-3.6,15.8-11.1,18.4-20.4c2.6-9.3,0.7-19.3-5.1-27
		C305,293.7,295.9,289.1,286.3,289.1L286.3,289.1z"/>
	<path d="M286.3,379.2c-4,0-7.6,2.4-9.1,6c-1.5,3.7-0.7,7.9,2.1,10.8c2.8,2.8,7.1,3.7,10.8,2.2c3.7-1.5,6.1-5.1,6.1-9.1
		C296.1,383.6,291.7,379.2,286.3,379.2L286.3,379.2z"/>
</g>
</svg>
