<!-- <?xml version="1.0" encoding="utf-8"?>
<svg version="1.1" id="Capa_1" xmlns="http://www.w3.org/2000/svg" xmlns:xlink="http://www.w3.org/1999/xlink" x="0px" y="0px"
	 viewBox="0 0 446.5 513.1" style="enable-background:new 0 0 446.5 513.1;" xml:space="preserve" fill="#fff">
<g>
	<path d="M441.7,472.4l-49.9-53.1l0,0c-3.3-3.5-7.8-5.4-12.6-5.3c-3.8,0-7.5,1.1-10.6,3.3l-4.7-4.9c17.3-19.9,26.4-45.6,25.6-71.9
		c-0.9-26.3-11.6-51.4-30.2-70.1c-19.4-19.6-45.8-30.6-73.3-30.5c-8.7,0-17.4,1.1-25.8,3.4c-7.9-4.7-16.3-8.8-24.9-12.2l-3.9-1.4v0
		c31.5-16.2,54.1-45.7,61.4-80.4s-1.4-70.8-23.8-98.3c-22.3-27.5-55.9-43.5-91.3-43.5c-35.4,0-69,16-91.3,43.5
		c-22.3,27.5-31.1,63.6-23.8,98.3c7.3,34.7,29.8,64.2,61.4,80.4c-25.7,9.2-48.8,24.6-67.2,44.8C24.3,310.2,6.5,356.7,6.9,404.9
		c0,6.2,5,11.2,11.2,11.2c6.2,0,11.2-5,11.2-11.2c-0.4-42.4,15.3-83.5,43.8-114.9c26.7-29.8,64.8-46.9,104.8-47.1
		c16.9,0,33.7,3.1,49.5,9.2l6,2.5c-26.3,15.6-44.4,42-49.5,72.1c-5.1,30.1,3.3,61,23,84.3c19.7,23.4,48.7,36.9,79.2,37
		c22.2,0.1,43.8-7.1,61.6-20.4l6,6.7c-1.5,3.3-2.1,6.9-1.6,10.5c0.5,3.6,2.1,6.9,4.5,9.6l50,53.1c3.1,3.5,7.6,5.5,12.3,5.6
		c5.4-0.1,10.5-2.3,14.2-6.2l7.6-8.2c3.5-3.4,5.5-8.1,5.7-13C446.7,480.9,445,476.1,441.7,472.4L441.7,472.4z M82.4,125.1
		c0-25.2,10-49.5,27.9-67.3c17.9-17.9,42.1-27.9,67.3-27.9s49.5,10,67.3,27.9c17.9,17.9,27.9,42.1,27.9,67.3
		c0,25.3-10,49.5-27.9,67.3c-17.9,17.9-42.1,27.9-67.3,27.9s-49.5-10-67.3-27.9C92.4,174.6,82.4,150.4,82.4,125.1z M286.2,425.6
		c-21.6,0.1-42.3-8.6-57.4-23.9C213.6,386.3,205,365.6,205,344c0-21.6,8.5-42.4,23.8-57.7c15.2-15.3,35.9-23.9,57.4-23.9
		s42.2,8.6,57.4,23.9c15.2,15.3,23.8,36.1,23.8,57.7c0,21.6-8.5,42.4-23.8,57.7C328.5,417,307.8,425.6,286.2,425.6L286.2,425.6z
		 M419.5,488.4l-43.8-46.6l3.2-3.4l43.8,46.6L419.5,488.4z"/>
	<path d="M286.3,289.1c-8.2,0-16,3.3-21.8,9.1c-5.8,5.8-9,13.7-9,21.8c0,6.2,5,11.2,11.2,11.2c6.2,0,11.2-5,11.2-11.2
		c0-3.4,2.1-6.5,5.3-7.8c3.2-1.3,6.8-0.6,9.2,1.9c2.4,2.4,3.1,6.1,1.8,9.2c-1.3,3.2-4.4,5.2-7.8,5.2c-6.2,0-11.2,5-11.2,11.2v19.8
		c0,6.2,5,11.2,11.2,11.2c6.2,0,11.2-5,11.2-11.2v-10.6c9-3.6,15.8-11.1,18.4-20.4c2.6-9.3,0.7-19.3-5.1-27
		C305,293.7,295.9,289.1,286.3,289.1L286.3,289.1z"/>
	<path d="M286.3,379.2c-4,0-7.6,2.4-9.1,6c-1.5,3.7-0.7,7.9,2.1,10.8c2.8,2.8,7.1,3.7,10.8,2.2c3.7-1.5,6.1-5.1,6.1-9.1
		C296.1,383.6,291.7,379.2,286.3,379.2L286.3,379.2z"/>
</g>
</svg> -->

<svg xmlns="http://www.w3.org/2000/svg" version="1.0" width="533.000000pt" height="528.000000pt" viewBox="0 0 533.000000 528.000000" preserveAspectRatio="xMidYMid meet">

<g transform="translate(0.000000,528.000000) scale(0.100000,-0.100000)" fill="#ffffff" stroke="none">
<path d="M3972 4928 c-13 -13 -15 -37 -6 -62 6 -14 67 -16 594 -16 l587 0 25 -25 c14 -14 28 -42 32 -63 3 -20 6 -259 6 -530 l0 -493 38 3 37 3 3 510 c2 347 -1 522 -8 548 -6 20 -25 53 -41 72 -57 64 -65 65 -694 65 -423 0 -564 -3 -573 -12z" fill="#ffffff"/>
<path d="M230 4907 c-19 -6 -50 -27 -70 -47 -57 -57 -60 -87 -60 -635 0 -526 -2 -510 57 -503 l28 3 5 527 5 526 24 26 24 26 581 2 581 3 0 40 0 40 -570 2 c-393 1 -581 -2 -605 -10z" fill="#ffffff"/>
<path d="M2415 4875 c-437 -46 -791 -222 -1037 -515 -109 -130 -180 -248 -258 -425 -27 -61 -62 -188 -80 -289 -23 -130 -28 -386 -9 -509 5 -40 21 -139 33 -222 13 -82 29 -190 36 -240 6 -49 15 -117 20 -150 5 -33 14 -96 19 -140 6 -44 18 -132 26 -195 8 -63 20 -151 26 -195 5 -44 14 -109 19 -145 5 -36 14 -103 20 -150 22 -159 39 -255 50 -285 35 -93 147 -346 168 -380 37 -58 282 -306 387 -389 147 -117 366 -271 430 -303 59 -29 120 -51 201 -72 58 -15 248 -13 314 3 113 28 196 64 275 119 27 19 243 194 255 207 5 5 131 116 189 166 19 16 77 79 129 139 102 118 118 147 208 378 60 152 72 205 109 482 14 105 30 219 35 255 5 36 14 101 20 145 6 44 15 107 20 140 5 33 21 148 35 255 14 107 30 222 35 256 16 98 12 486 -5 604 -88 584 -322 992 -715 1242 -203 129 -389 193 -639 218 -123 12 -159 11 -316 -5z m630 -706 c232 -56 407 -184 495 -364 99 -202 118 -457 48 -665 -60 -179 -160 -321 -393 -560 -142 -146 -187 -199 -213 -250 -37 -74 -72 -226 -72 -311 0 -58 0 -58 -32 -64 -18 -3 -105 -5 -193 -3 l-160 3 -3 50 c-8 113 29 296 84 414 47 102 96 162 341 417 244 255 293 347 293 554 0 250 -116 409 -333 456 -80 17 -145 17 -235 0 -167 -32 -282 -124 -338 -271 -4 -11 -10 -45 -13 -75 l-6 -55 -194 -3 -194 -2 7 78 c10 128 50 238 123 342 57 81 72 97 138 149 130 102 318 172 500 185 95 7 270 -6 350 -25z m-195 -2683 c122 -62 148 -256 47 -354 -87 -84 -247 -83 -333 3 -79 79 -82 217 -7 304 46 55 82 69 173 70 59 0 84 -4 120 -23z" fill="#ffffff"/>
<path d="M55 1398 c-3 -8 -4 -251 -3 -539 l3 -525 25 -38 c15 -22 45 -47 75 -61 l51 -25 574 2 575 3 0 35 0 35 -581 5 c-620 5 -598 3 -627 54 -9 15 -13 164 -17 541 l-5 520 -33 3 c-20 2 -34 -2 -37 -10z" fill="#ffffff"/>
<path d="M5085 1398 c-3 -7 -6 -246 -7 -530 l-3 -518 -28 -27 -27 -28 -580 -3 c-565 -3 -579 -3 -585 -22 -4 -11 -3 -29 0 -40 6 -20 11 -21 594 -18 l587 3 42 27 c81 54 77 25 77 628 l0 535 -33 3 c-20 2 -34 -2 -37 -10z" fill="#ffffff"/>
</g>
</svg>
