<svg xmlns="http://www.w3.org/2000/svg" version="1.0" width="538.000000pt" height="365.000000pt" viewBox="0 0 538.000000 365.000000" preserveAspectRatio="xMidYMid meet">
<metadata fill="#ffffff">
Created by potrace 1.16, written by Peter Selinger 2001-2019
</metadata>
<g transform="translate(0.000000,365.000000) scale(0.100000,-0.100000)" fill="#ffffff" stroke="none">
<path d="M2515 3323 c-374 -30 -576 -75 -875 -196 -277 -112 -583 -297 -754 -457 -23 -21 -54 -48 -69 -60 -45 -35 -209 -221 -287 -325 -82 -109 -175 -259 -243 -392 -62 -121 -62 -153 -3 -271 229 -455 556 -802 1001 -1064 338 -198 666 -310 1055 -359 121 -15 454 -16 585 0 277 32 499 84 725 171 30 11 69 26 85 32 70 26 317 159 405 217 341 227 643 548 827 881 57 102 112 215 118 242 8 33 -34 121 -160 333 -109 183 -251 360 -421 525 -316 306 -697 515 -1154 633 -278 72 -615 108 -835 90z m455 -208 c178 -23 299 -49 480 -103 264 -79 574 -250 805 -444 117 -100 325 -313 325 -334 0 -15 -179 -106 -310 -157 -210 -82 -475 -154 -725 -197 -308 -54 -526 -71 -895 -71 -173 1 -360 5 -415 11 -55 6 -145 15 -200 21 -410 43 -832 158 -1165 316 -52 25 -105 49 -118 54 -13 5 -22 15 -20 23 9 42 265 288 423 408 296 224 673 383 1065 449 234 39 556 49 750 24z m-2265 -1089 c304 -148 525 -225 830 -290 175 -38 168 -32 180 -141 24 -217 122 -413 284 -568 149 -142 297 -219 486 -253 149 -26 332 -14 471 31 94 31 230 106 304 168 182 153 291 343 336 587 9 47 20 97 26 111 11 30 27 36 203 74 66 15 131 30 145 34 14 5 45 14 70 21 179 51 367 124 532 207 70 36 133 63 139 61 6 -2 29 -39 53 -83 23 -44 59 -111 79 -148 20 -38 37 -76 37 -86 0 -22 -108 -215 -182 -326 -377 -560 -1019 -943 -1733 -1036 -58 -7 -181 -9 -345 -6 -220 4 -274 8 -390 31 -142 27 -190 38 -252 55 -21 6 -53 15 -70 20 -18 5 -55 16 -83 26 -515 179 -912 481 -1214 925 -133 196 -191 324 -162 355 4 6 34 59 66 120 63 119 84 155 93 155 3 0 47 -20 97 -44z m1369 -380 c100 -13 126 -27 126 -64 0 -36 68 -150 124 -207 98 -98 190 -135 337 -135 128 0 201 25 300 103 59 46 122 142 149 226 8 23 23 49 34 56 20 12 262 43 270 34 2 -2 0 -32 -5 -66 -32 -227 -164 -422 -364 -539 -236 -138 -476 -146 -726 -25 -228 110 -377 319 -414 584 l-7 47 38 0 c22 -1 84 -7 138 -14z m840 -45 c3 -5 -9 -31 -27 -57 -64 -95 -190 -142 -299 -110 -64 18 -132 66 -165 115 -42 63 -49 61 231 61 140 0 257 -4 260 -9z" fill="#ffffff"/>
</g>
</svg>