<!-- <?xml version="1.0" encoding="UTF-8"?>
<!DOCTYPE svg PUBLIC "-//W3C//DTD SVG 1.1//EN" "http://www.w3.org/Graphics/SVG/1.1/DTD/svg11.dtd">
<svg xmlns="http://www.w3.org/2000/svg" xml:space="preserve" width="5.7104mm" height="3.8917mm" version="1.1" style="shape-rendering:geometricPrecision; text-rendering:geometricPrecision; image-rendering:optimizeQuality; fill-rule:evenodd; clip-rule:evenodd"
viewBox="0 0 84 57"
 xmlns:xlink="http://www.w3.org/1999/xlink">
 <defs>
  <style type="text/css">
   <![CDATA[
    .fil0 {fill:#fff;fill-rule:nonzero}
   ]]>
  </style>
 </defs>
 <g id="Capa_x0020_1">
  <metadata id="CorelCorpID_0Corel-Layer"/>
  <g id="_1951592913936">
   <polygon class="fil0" points="47,29 16,29 16,38 0,24 16,9 16,19 47,19 "/>
   <path class="fil0" d="M54 0l-10 0c-1,0 -3,0 -4,1l0 0c-1,0 -3,1 -4,1l0 0 0 0c-1,1 -2,2 -3,3 -1,1 -1,2 -2,3l-2 6 5 0 2 -7 0 0c0,-1 0,-2 1,-2 0,-1 1,-1 2,-2l0 0c0,0 0,0 0,0l0 0c0,0 0,0 1,0l0 0 0 0 1 -1 0 0 0 0c0,0 1,0 1,0l0 0c0,0 1,0 1,0l10 0 0 0 11 0 0 0c0,0 1,0 2,0l0 0c1,0 1,1 2,1 1,0 1,1 2,2 0,0 0,1 1,2l0 0 2 12 3 17 0 0c0,1 0,2 0,3 -1,2 -1,3 -2,4l0 0c0,1 -1,1 -2,2 -1,0 -3,1 -4,1l-16 0 -12 0 0 0 0 0 0 0 -4 0c-1,0 -2,0 -3,-1 -2,0 -2,-1 -3,-2l0 0c-1,-1 -1,-2 -1,-3 -1,-1 -1,-2 0,-3l1 -4 -7 0 -2 4c-1,3 -1,5 -1,8 0,2 1,4 2,6l0 0c1,2 3,3 5,4 2,2 4,2 7,2l18 0 17 -1c3,0 5,0 7,-1 2,-2 4,-3 5,-5l0 0 0 0c1,-2 2,-4 3,-7 0,-2 0,-4 -1,-7l-5 -17 -3 -12c0,-1 -1,-2 -1,-3 -1,0 -2,-1 -3,-2l0 0 0 0c-1,-1 -3,-1 -4,-1 -1,-1 -3,-1 -4,-1l-9 0z"/>
  </g>
 </g>
</svg>
 -->
 <svg xmlns="http://www.w3.org/2000/svg" version="1.0" width="528.000000pt" height="502.000000pt" viewBox="0 0 528.000000 502.000000" preserveAspectRatio="xMidYMid meet">
<metadata fill="#ffffff">
Created by potrace 1.16, written by Peter Selinger 2001-2019
</metadata>
<g transform="translate(0.000000,502.000000) scale(0.100000,-0.100000)" fill="#ffffff" stroke="none">
<path d="M3062 4083 l3 -788 25 -7 c14 -4 52 -12 85 -19 174 -35 332 -154 405 -304 59 -119 70 -192 70 -454 0 -222 -8 -314 -37 -401 -18 -58 -75 -161 -116 -212 -69 -86 -211 -163 -347 -188 -36 -7 -71 -14 -77 -16 -10 -3 -13 -169 -13 -789 l0 -785 879 0 c601 0 889 3 912 11 157 50 248 153 278 314 16 85 15 4034 0 4107 -28 131 -98 222 -214 279 l-70 34 -892 3 -893 3 2 -788z" fill="#ffffff"/>
<path d="M859 3183 c-79 -74 -192 -180 -333 -313 -200 -189 -386 -374 -386 -385 0 -15 267 -275 575 -561 211 -195 224 -207 238 -201 8 3 17 27 21 54 6 38 24 345 26 436 0 16 42 17 745 17 512 0 761 3 797 11 138 29 212 114 211 239 -1 108 -48 181 -149 230 l-49 25 -771 -4 c-501 -2 -774 0 -778 7 -3 5 -11 101 -17 213 -13 252 -19 293 -41 297 -10 2 -47 -25 -89 -65z" fill="#ffffff"/>
</g>
</svg>