<?xml version="1.0" encoding="UTF-8"?>
<!DOCTYPE svg PUBLIC "-//W3C//DTD SVG 1.1//EN" "http://www.w3.org/Graphics/SVG/1.1/DTD/svg11.dtd">
<!-- Creator: CorelDRAW X7 -->
<svg xmlns="http://www.w3.org/2000/svg" xml:space="preserve" width="5.7104mm" height="3.8917mm" version="1.1" style="shape-rendering:geometricPrecision; text-rendering:geometricPrecision; image-rendering:optimizeQuality; fill-rule:evenodd; clip-rule:evenodd"
viewBox="0 0 84 57"
 xmlns:xlink="http://www.w3.org/1999/xlink">
 <defs>
  <style type="text/css">
   <![CDATA[
    .fil0 {fill:#fff;fill-rule:nonzero}
   ]]>
  </style>
 </defs>
 <g id="Capa_x0020_1">
  <metadata id="CorelCorpID_0Corel-Layer"/>
  <g id="_1951592913936">
   <polygon class="fil0" points="47,29 16,29 16,38 0,24 16,9 16,19 47,19 "/>
   <path class="fil0" d="M54 0l-10 0c-1,0 -3,0 -4,1l0 0c-1,0 -3,1 -4,1l0 0 0 0c-1,1 -2,2 -3,3 -1,1 -1,2 -2,3l-2 6 5 0 2 -7 0 0c0,-1 0,-2 1,-2 0,-1 1,-1 2,-2l0 0c0,0 0,0 0,0l0 0c0,0 0,0 1,0l0 0 0 0 1 -1 0 0 0 0c0,0 1,0 1,0l0 0c0,0 1,0 1,0l10 0 0 0 11 0 0 0c0,0 1,0 2,0l0 0c1,0 1,1 2,1 1,0 1,1 2,2 0,0 0,1 1,2l0 0 2 12 3 17 0 0c0,1 0,2 0,3 -1,2 -1,3 -2,4l0 0c0,1 -1,1 -2,2 -1,0 -3,1 -4,1l-16 0 -12 0 0 0 0 0 0 0 -4 0c-1,0 -2,0 -3,-1 -2,0 -2,-1 -3,-2l0 0c-1,-1 -1,-2 -1,-3 -1,-1 -1,-2 0,-3l1 -4 -7 0 -2 4c-1,3 -1,5 -1,8 0,2 1,4 2,6l0 0c1,2 3,3 5,4 2,2 4,2 7,2l18 0 17 -1c3,0 5,0 7,-1 2,-2 4,-3 5,-5l0 0 0 0c1,-2 2,-4 3,-7 0,-2 0,-4 -1,-7l-5 -17 -3 -12c0,-1 -1,-2 -1,-3 -1,0 -2,-1 -3,-2l0 0 0 0c-1,-1 -3,-1 -4,-1 -1,-1 -3,-1 -4,-1l-9 0z"/>
  </g>
 </g>
</svg>
