<svg xmlns="http://www.w3.org/2000/svg" version="1.0" width="365.000000pt" height="367.000000pt" viewBox="0 0 365.000000 367.000000" preserveAspectRatio="xMidYMid meet">
<metadata fill="#ffffff">
Created by potrace 1.16, written by Peter Selinger 2001-2019
</metadata>
<g transform="translate(0.000000,367.000000) scale(0.100000,-0.100000)" fill="#ffffff" stroke="none">
<path d="M1640 3558 c-159 -67 -200 -119 -200 -256 0 -205 -57 -284 -205 -285 -68 -1 -89 10 -173 84 -110 100 -213 123 -320 72 -67 -31 -210 -168 -265 -253 -89 -141 -76 -215 63 -359 71 -73 90 -107 90 -161 -1 -84 -63 -173 -139 -199 -19 -6 -73 -11 -121 -11 -137 0 -199 -39 -264 -167 -25 -50 -26 -59 -26 -210 l1 -158 37 -75 c30 -60 46 -81 86 -107 47 -32 51 -33 156 -33 154 0 211 -24 249 -105 27 -58 28 -148 2 -190 -10 -16 -41 -56 -70 -88 -99 -113 -120 -211 -67 -320 46 -93 213 -237 348 -300 80 -37 151 -13 248 88 101 103 166 126 256 89 88 -36 124 -93 124 -196 0 -77 19 -165 43 -201 28 -43 83 -89 135 -113 48 -22 65 -24 202 -24 87 0 161 5 177 11 114 46 170 95 191 168 7 21 12 80 12 130 0 170 60 241 203 241 69 0 67 1 189 -99 105 -87 201 -104 306 -54 104 48 277 245 309 352 24 81 -1 140 -109 258 -112 121 -121 181 -47 289 41 60 84 77 214 84 74 4 120 11 141 23 48 25 106 98 132 164 22 56 24 72 20 204 -3 136 -6 148 -34 209 -55 116 -115 150 -270 150 -121 0 -177 19 -209 73 -68 112 -59 190 35 289 94 99 130 213 97 305 -37 101 -169 226 -341 322 -92 52 -151 36 -260 -68 -45 -43 -96 -86 -113 -95 -47 -24 -115 -20 -172 9 -85 43 -101 76 -120 245 -16 142 -35 171 -164 244 l-65 36 -144 -1 c-78 0 -154 -5 -168 -11z m233 -1112 c14 -13 29 -39 32 -57 3 -19 5 -132 3 -252 l-3 -219 -28 -24 c-27 -23 -71 -31 -93 -16 -5 4 -18 18 -27 32 -15 21 -17 55 -17 261 l0 237 26 31 c32 38 71 41 107 7z m-256 -90 l28 -24 3 -176 c4 -202 2 -205 -66 -126 -24 28 -49 50 -57 50 -20 0 -65 -58 -96 -125 -92 -197 -3 -458 191 -554 83 -42 139 -54 232 -50 71 3 94 9 153 38 178 88 273 267 243 459 -18 117 -62 185 -196 302 -61 54 -69 94 -27 135 33 34 71 32 130 -6 110 -70 208 -203 246 -334 21 -75 19 -286 -4 -350 -73 -200 -238 -354 -432 -400 -78 -19 -215 -19 -285 0 -202 54 -376 219 -437 417 -12 37 -17 90 -17 173 1 106 4 128 27 189 30 77 86 173 117 201 11 10 20 23 20 29 0 6 -34 45 -75 86 -41 41 -75 78 -75 82 0 5 78 8 174 8 170 0 176 -1 203 -24z" fill="#ffffff"/>
</g>
</svg>