<?xml version="1.0" encoding="UTF-8"?>
<!DOCTYPE svg PUBLIC "-//W3C//DTD SVG 1.1//EN" "http://www.w3.org/Graphics/SVG/1.1/DTD/svg11.dtd">
<!-- Creator: CorelDRAW X7 -->
<svg xmlns="http://www.w3.org/2000/svg" xml:space="preserve" width="11.5637mm" height="11.9087mm" version="1.1" style="shape-rendering:geometricPrecision; text-rendering:geometricPrecision; image-rendering:optimizeQuality; fill-rule:evenodd; clip-rule:evenodd"
viewBox="0 0 198 204"
 xmlns:xlink="http://www.w3.org/1999/xlink">
 <defs>
  <style type="text/css">
   <![CDATA[
    .fil0 {fill:#FEFEFE;fill-rule:nonzero}
   ]]>
  </style>
 </defs>
 <g id="Capa_x0020_1">
  <metadata id="CorelCorpID_0Corel-Layer"/>
  <g>
   <path class="fil0" d="M16 196l0 0c0,2 -1,4 -2,6 -1,1 -4,2 -6,2l0 0 0 0 0 0 0 0 0 0c-2,0 -4,-1 -6,-2 -1,-2 -2,-4 -2,-6l0 0 0 0c0,0 0,0 0,0l0 -35c0,-1 0,-4 2,-8 1,-2 3,-4 5,-6 1,0 4,-1 7,-3 3,-1 7,-3 11,-5l0 0c7,-2 14,-5 19,-7 8,-3 14,-5 15,-5l0 0c3,1 4,2 5,3l0 0 0 0 1 0c1,1 3,3 6,5 4,2 9,4 15,4 6,0 10,-1 13,-2 3,-2 5,-3 6,-5l1 0c0,0 1,-1 2,-2l0 0c1,0 2,-1 3,-2l1 -1c1,0 3,0 4,0l1 1 0 0c2,0 5,1 9,2 4,2 8,3 13,5 5,2 10,5 15,7 4,2 8,5 11,7 1,1 2,2 3,2 1,1 1,2 2,3 1,2 1,3 2,4 0,2 1,3 1,4 0,0 0,1 0,1l0 9 0 0 -1 24 0 0c0,2 -1,4 -2,5 -1,2 -4,3 -6,3 -2,0 -4,-1 -6,-3 -1,-1 -2,-3 -2,-6l0 0 0 -32 0 0 0 0c0,0 0,0 0,-1l0 0c-1,0 -1,0 -1,0 -2,-2 -5,-4 -9,-6 -4,-2 -9,-4 -13,-5l0 0 0 0c-4,-2 -8,-3 -11,-4 -2,-1 -4,-2 -6,-2 0,0 0,0 0,0 -4,4 -10,8 -22,10l0 8c0,2 -2,4 -4,4l-8 0c-2,0 -4,-2 -4,-4l0 -8c-5,-1 -10,-3 -13,-5l0 0 0 0c-4,-2 -7,-4 -9,-5l-10 3 0 1 -14 5c-4,2 -8,4 -11,5 -2,1 -4,2 -4,2l0 0 0 0c0,0 0,0 0,0l-1 35zm74 1l-8 0c-2,0 -4,-2 -4,-4l0 -14c0,-3 2,-4 4,-4l8 0c2,0 4,1 4,4l0 14c0,2 -2,4 -4,4zm-4 -162c6,0 12,1 18,3 5,3 10,6 15,11 4,4 8,9 10,15 2,5 4,11 4,18 0,6 -2,12 -4,18 -2,5 -6,11 -10,15 -5,4 -10,8 -15,10l-1 0c-5,2 -11,4 -17,4 -7,0 -13,-2 -18,-4 -6,-2 -11,-6 -15,-10l-1 0c-4,-5 -7,-10 -10,-15l0 -1c-2,-5 -3,-11 -3,-17 0,-7 1,-13 3,-18l0 0 0 0c3,-6 6,-11 11,-15l0 0c4,-5 9,-8 15,-11l0 0c5,-2 11,-3 18,-3zm21 25c-3,-3 -6,-5 -10,-6 -3,-2 -7,-3 -11,-3 -4,0 -8,1 -12,3 -4,1 -7,3 -10,6l0 0c-3,3 -5,6 -6,10l0 0 0 0c-2,4 -3,8 -3,12 0,4 1,8 3,11 1,4 3,7 6,10 3,3 6,5 10,7 4,1 8,2 12,2 4,0 8,-1 11,-2 4,-2 7,-4 10,-7l0 0c3,-3 5,-6 7,-10 1,-3 2,-7 2,-11 0,-4 -1,-8 -2,-12 -2,-4 -4,-7 -7,-10zm47 -24l0 0 0 0zm-12 47l8 -9 -3 0c0,0 -1,0 -2,-1l0 0c-1,0 -2,0 -2,-1 -1,-1 -1,-1 -2,-2l0 0 0 0c0,-1 0,-2 0,-3 0,0 0,-1 0,-2l0 0c1,-1 1,-2 2,-2 1,-1 2,-2 4,-2l15 0c2,0 4,1 5,2l0 0c2,1 2,3 2,5 0,1 0,2 0,2l0 0 0 0c0,1 0,2 -1,2l0 1c0,0 0,0 -1,1 0,0 -1,1 -1,1l0 1 -7 7 5 0c2,0 3,1 5,2l0 0c0,0 1,1 1,2 1,1 1,2 1,3 0,1 -1,3 -2,4l0 0c-1,1 -2,1 -3,2 0,0 -1,0 -2,0l-17 0c-1,0 -2,0 -3,-1 -1,0 -2,0 -2,-1 -1,0 -1,0 -1,0 0,-1 -1,-2 -1,-2 -1,-1 -1,-2 -1,-3 0,-1 0,-1 0,-1l0 0c0,-1 1,-1 1,-2 0,0 0,0 0,0l0 0c0,-1 0,-1 1,-1 0,0 0,-1 0,-1l0 0 0 0 0 0 0 0 1 0 0 -1zm12 -47l18 -20 -11 0c-1,0 -2,-1 -3,-1 -1,0 -2,-1 -3,-1l0 0c-1,-1 -2,-2 -2,-3 0,-1 -1,-2 -1,-3 0,-1 1,-2 1,-3l0 0 0 0c0,-1 1,-2 2,-3l0 0 0 0c1,-1 2,-1 3,-2l0 0c1,0 2,0 3,0l26 0c3,0 5,1 6,2 2,2 3,4 3,7 0,1 0,2 0,3 0,1 -1,2 -1,3 -1,0 -1,1 -2,2 -1,1 -1,2 -2,3l0 0 -16 19 15 0c2,0 4,0 6,2l2 2c0,1 0,2 0,3 0,1 0,2 0,3l0 0 0 0c-1,1 -1,2 -2,3l0 0c-1,1 -2,1 -3,2l0 0 0 0c-1,0 -2,0 -3,0l-30 0c-1,0 -2,0 -4,0 -1,-1 -2,-1 -3,-2l0 0c-1,-1 -2,-2 -2,-3 -1,-2 -1,-3 -1,-4 0,-1 0,-1 0,-2 0,0 0,-1 0,-1l0 0 0 0c1,0 1,-1 1,-1 0,-1 0,-1 1,-1l0 0 0 0c0,-1 0,-1 0,-1l1 -1 0 0 1 -2z"/>
  </g>
 </g>
</svg>
