
<svg xmlns="http://www.w3.org/2000/svg" fill="#fff" xml:space="preserve" width="4.7209mm" height="4.1801mm" version="1.1" style="shape-rendering:geometricPrecision; text-rendering:geometricPrecision; image-rendering:optimizeQuality; fill-rule:evenodd; clip-rule:evenodd"
viewBox="0 0 29 26"
 xmlns:xlink="http://www.w3.org/1999/xlink">
 <g id="Capa_x0020_1">
  <metadata id="CorelCorpID_0Corel-Layer"/>
  <path class="fil0" d="M2 5l5 0 2 -4c0,0 0,-1 2,-1 1,0 3,0 3,0 0,0 3,0 4,0 2,0 2,1 2,1l2 4 5 0c1,0 2,0 2,2l0 16c0,1 -1,2 -2,2l-1 0 0 0 0 0c0,0 0,1 -1,1l-1 0c0,0 -1,-1 -1,-1l0 0 0 0 -17 0 0 0 0 0c0,0 -1,1 -1,1l-1 0c-1,0 -1,-1 -1,-1l0 0 0 0 -1 0c-1,0 -2,-1 -2,-2l0 -16c0,-2 1,-2 2,-2zm8 0l0 2 9 0 0 -2 -1 -2 -4 0 -3 0 -1 2zm3 4l3 0 0 4 4 0 0 3 -4 0 0 4 -3 0 0 -4 -4 0 0 -3 4 0 0 -4z"/>
 </g>
</svg>
