<svg xmlns="http://www.w3.org/2000/svg" width="47.33" height="59.33" viewBox="0 0 90 113" shape-rendering="geometricPrecision" image-rendering="optimizeQuality" fill-rule="evenodd" clip-rule="evenodd"><g fill="#fefefe"><path d="m55 99c1 0 1-1 2-1l5-1c1 0 2 2 2 3 0 0 0 1 0 1l-5-1c-2 0-2 0-4-1m-29 1c0 0 1-2 1-2 0-1 0-2 1-2l4 1c3 2 2 0 4 2l-9 2c-1 0-1-1-1-1m5-6c1 0 3-1 4-1l6-1c1-1 1 0 2 0 0 1 0 4 0 5 0 2-2 0-4 0-1 0-1 0-1 0-2-1-7-2-7-3m26 1l-3 1c-1 0-1 0-2 1h-2c-2 1-1 1-3 1 0-1 0-1 0-2v-3c0-2 0-1 0-2 1 0 1 0 2 1 2 0 10 2 10 2 0 1 0 1-1 1-1 0-1 0-1 0m-10-8c0-2 1-2 2-2l3-1c6-1 6-3 7 1l2 6c1 1 0 2-1 1l-4-1c-1 0-1 0-2 0-1-1-3-1-4-1-2-1-3 0-3-3m-18 5c0 0 0-1 0-1 1-1 0-1 1-3l1-3c0-1 0-1 1-1 0-1 0-1 0-1 2 0 7 2 9 2 1 0 2 0 2 2 0 3 0 2-3 3l-7 2c-2 0-2 1-4 1 0-1 0-1 0-1m8-11c0 0 0 0 0-1h4c2-1 1-1 3-1 0 1 0 3 0 4-2 0-2-1-4-1-2 0-3 0-3-1m14-1c1 0 3 0 3 1l-3 1c-4 1-4 2-4-1 0-1 0-1 0-2 1-1 1 0 4 1m-4-6c0-1 0-1 1-2 1 0 1 0 2 0 3-1 4-2 5 0 0 1 1 2 1 2 1 4 2 5 0 5-1 0-1-1-2-1l-5-1c-2-1-2 0-2-3m-14 5c0-1 0-1 0-1l2-6c0 0 1-1 1-1 1 0 5 1 7 1 2 1 1 2 1 4-2 2-8 2-10 3-1 1 0 0-1 0m14-9c0 0-1-3 2-2 0 0 0 1 1 1-1 0-1 0-2 0 0 1 0 1-1 1m-6-1c0-1 0-1 1-1 1 0 2 0 2 1-2 1 0 1-3 0m3-4c0 1-1 1-2 1-1 0-4 2-5 1 0-1 0-1 0-1l2-6c1-1 1-1 1-2 1 1 2 1 2 1 2 1 2 1 2 6m2-5c0 0 1-1 2-1 0 0 2 0 2 0 1 0 2 6 3 8-1 0-1 0-2 0-3-1-4-1-5-2v-5m0-9c0-1 0-1 0-2 2 0 2 1 2 2 0 1 1 1 1 2 0 1 1 2 0 2-4 0-3-2-3-4m-5 4c0-1 1-3 1-4 0 0 0-1 1-1 0-1 0-1 1-1 0 1 0 3 0 4 0 2-3 3-3 2m5-9c0 0 0 0 0-1 0 1 1 1 1 2-1 0-1 0-1-1m-2 1c0-1 0-1 0-1 0-1 0 0 0-1 1 1 1 0 1 1 0 2-1 1-1 1m0-9c0 1 1 1 0 4-1 1-1 1-1 1 0 1 0 1 0 1l-3 8c0 1-1 2-1 2l-5 16c0 0 0 0-1 1 0 0 0 0 0 1l-4 11c-1 2-2 6-3 9l-4 11c-1 1-2 2 0 4 1 1 2 1 3 2 4 1 10 2 14 2 4 0 3 1 4 1 1 1 3 1 4 1 0 0 0-1 0-1 1 0 1 0 1 0 0-1 2-1 3-1 3 0 19-2 18-7 0 0-1 0-1-1l-5-15c0 0 0-1-1-1l-4-13c0-1-1-1-1-2l-6-18c0 0 0-1-1-1 0-1 0-1 0-2l-1-3c0 0 0-1-1-1l-1-5c-2-3 0-3 0-4-1-2-3-1-3 0"/><path d="m67 4c0 1 1 2 2 2 0 0 0 1 0 1l2 1c0 0 0 0 0 0l1 2c2 1 4 4 5 6l1 2c1 2 1 2 3 4 1 3 1 5 2 7l1 6c0 1 0 2 0 3 0 3-1 5-1 8 0 2-1 4-2 5l-4 9c-1 2-4 6-5 7-1 1-4 3-4 4-2 3 1 5 3 5 2-1 5-3 6-5 0 0 0 0 1-1l1-1c0 0 0 0 0-1 3-2 4-5 5-7 1-1 2-3 3-5 0-1 1-5 2-6 1-7 1-10 1-17 0-1 0-1 0-2-1-2-1-4-2-6 0-3-2-8-4-10l-3-5c-1-1-7-9-9-9-1-1-3-1-3 0-1 1-2 2-2 3"/><path d="m0 38l1 10c1 2 1 4 2 7 1 1 1 3 2 5 1 2 1 1 3 4 0 1 0 1 1 2 3 4 3 3 6 7 1 0 1 0 1 1 0 0 1 0 1 0 3 3 6 1 6-2 0-2-2-2-3-3-1-1-2-2-3-3-1-1-3-4-4-5-1-2-3-5-3-7l-2-5c0-2-1-2-1-3-1-6 0-5 0-11v-6l2-4c0-1 0 0 0-2l2-3c0-1 0-1 0-1 1-3 4-7 6-9l2-2c1-2 4-2 4-5 0-1-1-2-2-2-2-2-4 0-7 3 0 0-1 1-1 1-2 2-2 3-4 5l-4 7c0 0-1 1-1 1v1c-1 1-1 1-1 2l-1 3c0 1 0 2-1 3-1 2-1 8-1 11"/><path d="m60 17c0 2 2 3 3 5 1 0 2 2 3 3l1 3c0 0 0 0 1 1 1 3 2 9 1 13v3c-1 3-3 7-5 9 0 1-1 1-1 1-1 2-5 4-2 7 0 1 1 1 2 1 1 0 2-1 3-1l1-2c1-1 3-3 4-4l1-3c1-1 2-4 2-5 1-1 1-1 1-3 0-1 0-1 0-2 1-4 1-8 0-11 0-2-1-3-1-5-1-2-2-4-3-5 0-1 0 0-1-1-1-2-2-4-4-6-4-3-6 0-6 2"/><path d="m15 37c0 2-1 5 0 6 0 1 0 3 1 4l1 3c0 1 0 1 0 2 1 0 1 0 1 0l6 9c4 4 6 0 6-1 0-2 0-2-1-3l-2-2c0 0 0-1-1-1 0-1-3-4-3-5 0-1-1-2-1-4-2-5-1-6-1-10 0-3 2-8 3-10 2-2 2-2 3-4 1-1 5-4 2-6-1-2-3-1-5 0-1 2-3 4-4 6-2 2-3 4-4 6 0 2-1 5-1 6 0 1 0 3 0 4"/><path d="m51 29c0 2 2 3 3 4v2c1 3 1 2 1 4 0 1 0 2 0 3-1 2-1 2-3 4-3 4 3 7 5 3l1-1c1-1 1-1 1-2 1-3 2-3 2-7 0-4-1-5-2-8-1-2-1-2-2-3 0 0 0 0 0-1-1 0-1 0-1 0-2-2-5 0-5 2"/><path d="m29 38l1 5c0 0 0 1 0 1 1 2 2 4 3 5 0 0 0 0 0 1 0 0 1 0 1 0 2 2 5 0 5-2 0-3-2-3-3-6-1-3-1-2-1-5 0-1 1-3 1-3 0-1 0-1 1-1 0-2 3-4 1-6 0-1-1-1-1-1-2-1-3 0-4 1l-2 3c-1 3-1 3-2 6 0 1 0 1 0 2"/></g></svg>