<svg xmlns="http://www.w3.org/2000/svg" width="44.938" height="52.57" viewBox="0 0 64 75" shape-rendering="geometricPrecision" image-rendering="optimizeQuality" fill-rule="evenodd" clip-rule="evenodd"><g fill="#fefefe"><path d="m3 32c0 6 1 10 4 14 1 2 2 4 3 5 0 1 2 1 2 2l-1 2c0 0 0 1 0 1l-2 6c-1 1-3 1-5 4-2 2-5 6-4 9 0 1 1 0 2 0h20c1 0 3 1 2-4-1-2-2-4-3-5-2-2-3-1-2-3 0-1 0-1 0-1 0-1 1-2 1-3 0 0 0 0 1 0l2 1c3 1 9 2 12 1 3 0 5 0 8-2 2-1 7-3 7-5 0-3-1-3-3-5-3-3-8-8-11-11-2-2-2-2 1-4l2-3c1 0 2 0 3-1 3-2 4-6 1-8l-1-1c-2-1-5-1-7 1 0 0 0 1-1 1-1 2 1 1-1 4-1 1-4 3-4 3-1 0-1 0-1-1l-6-5c-2-2-6-7-8-8 0 0-1-1-2-1-1 0-1 0-2 1-1 1-3 3-3 4-1 1-2 3-2 4-1 3-2 5-2 8"/><path d="m35 2c0 4 3 3 7 4l4 1c1 1 1 1 2 1 2 1 3 2 4 3l1 1c0 0 1 1 1 2 1 1 3 3 3 5 2 3 1 4 2 7 0 1 0 1 0 2 2 3 5 1 5-1 0-1 0-4 0-5 0-1-1-2-1-3l-2-4c0-2-1-3-2-4 0 0-1-1-1-1 0 0 0-1-1-1 0-1-1-2-2-3l-3-2c-3-1-7-3-9-3-2-1-5-1-7-1 0 1-1 1-1 2"/><path d="m28 11c0 1 0 2 1 2 2 2 3 0 8 2 3 1 5 3 8 4 0 1 0 1 1 1 0 1 0 1 0 1 1 1 1 1 1 1 1 1 1 1 1 2l2 2c1 3 1 3 2 8 0 1 0 3 1 4 2 1 3 0 4-1 1-3-1-9-2-12l-1-1c-1-2-2-5-3-6l-2-1c-1-2-2-3-4-4-2-1-3-1-4-2-2-1-4-2-6-2-3 0-6-1-7 1 0 0 0 1 0 1"/></g></svg>