<svg xmlns="http://www.w3.org/2000/svg" width="85.2" height="63.755" viewBox="0 0 252 189" shape-rendering="geometricPrecision" image-rendering="optimizeQuality" fill-rule="evenodd" clip-rule="evenodd"><g fill="#fefefe"><path d="m64 82c1-7 3-10 6-16l4-7c0-1 1-2 2-3 2-2 4-5 6-7 3-3 6-5 9-7 4-3 7-4 12-7 5-1 14-4 18-4h10c2 0 4 1 6 1 2 0 7 2 9 3 5 2 5 1 10 4 4 2 9 5 11 8 1 1 2 1 2 2 3 2 5 5 8 8 3 5 6 10 9 17 0 2 1 3 1 5 0 2 1 2 1 3 0 2 0 2 0 4 2 13 0 22-5 35l-4 7c0 1 0 1-1 1-2 3-3 5-5 8-4 4-14 12-20 14-1 1-3 2-5 2-2 1-3 2-6 2-3 1-9 2-12 2-10 0-12 0-21-2-1 0-2 0-3-1-1 0-2 0-3-1-8-3-14-7-21-13-2-2-4-5-7-8 0-1-1-1-1-2l-2-2c-2-4-4-9-6-13-1-4-2-8-3-12 0-5 0-6 0-11l1-10m76 107h-28c-1-2-2-1-4-1l-21-5c-1 0-2-1-3-1-8-3-10-4-18-8-5-2-11-6-15-10l-16-14c-1-1-2-2-3-3l-11-13c0-1-1-1-1-2-1 0-1 0-1-1-1-2-3-4-4-6l-4-7c-2-3-4-6-5-9l-6-13c0 0 0 0 0 0v-4l2-5c1-1 1-2 2-3l2-5c1-1 1-1 1-2l4-7c1-1 1-2 2-3 2-3 4-7 7-10 2-4 5-7 7-10l5-5c1-1 2-2 3-3 0-1 1-2 2-3l7-6c0 0 0 0 1-1 3-2 9-7 11-8 5-3 9-6 13-8 1 0 2-1 4-2 1 0 2 0 3-1 4-2 7-3 11-4 1-1 2-1 4-1 0 0 1-1 2-1l17-3c0 0 1 0 2-1 2 0 7 0 10 0 6 0 14-1 19 1 3 0 6 0 9 1 2 0 3 0 4 1l16 5c8 2 23 10 29 15 4 3 8 6 11 9l4 4c3 3 6 6 9 9 2 3 4 6 7 8 1 2 2 4 4 6 4 6 7 13 11 19l2 4c1 2 4 8 4 10h1v4h-1c0 2-6 14-7 17 0 0-1 1-1 1l-4 8c-5 7-6 8-11 15l-12 14-9 8c0 0 0 0 0 1-5 3-9 7-13 9-5 3-10 6-15 8-1 1-3 2-4 2-3 2-11 4-14 5-5 2-11 3-16 4-1 0-2 0-3 0-2 0-2 0-2 1"/><path d="m125 64c0 1 4 11-4 21-1 1-1 1-1 1l-5 4c-6 5-11 5-18 3h-1c-1 0-1 0-1 0-1 1 0 5 0 7 0 3 3 8 4 11 2 2 4 5 6 7 4 3 2 2 7 5 3 1 10 3 14 3 2 0 4-1 7-1 1 0 2 0 3-1 1 0 2 0 3-1 4-2 4-2 7-5 1 0 2-1 2-1 1-2 3-3 4-5l3-5c4-10 3-19-2-28 0-1-1-2-1-3-1 0-2-1-2-2l-4-4c-5-4-5-4-10-5-4-2-7-2-11-2 0 1 0 1 0 1"/></g></svg>