<svg id="Capa_1" data-name="Capa 1" xmlns="http://www.w3.org/2000/svg" viewBox="0 0 44.55 37.73"><defs><style>.cls-1{fill:#524c4f;}.cls-2,.cls-24{fill:#3d383c;}.cls-3{fill:#9d9e9e;}.cls-4{fill:#413c40;}.cls-5{fill:#524e51;}.cls-6{fill:#2f2c2e;}.cls-7{fill:#bebebd;}.cls-8{fill:#666465;}.cls-9{fill:#cbcaca;}.cls-10{fill:#b3b3b2;}.cls-11{fill:#e2e0e0;}.cls-12{fill:#494547;}.cls-13{fill:#353133;}.cls-14{fill:#747270;}.cls-15{fill:#5e5b5b;}.cls-16{fill:#e5e4e4;}.cls-17{fill:#b4b4b3;}.cls-18{fill:#332f32;}.cls-19,.cls-25{fill:#524d51;}.cls-20{fill:#b86933;}.cls-21{fill:#a9a9a9;}.cls-22{fill:#2d292b;}.cls-23{fill:#f2f8fd;}.cls-24,.cls-25{opacity:0.8;}</style></defs><path class="cls-1" d="M73.79,85.07l.37-.38-1.57,5.7-.83-.6,10.35-6.6-.15.23L81.89,83Zm8.4-2.7h.07a.34.34,0,0,1,.3.37l-.07.83c0,.07-.08.15-.15.22l-10.13,7c-.15.07-.3.15-.45.07a.52.52,0,0,1-.37-.67L73,84.47a1,1,0,0,1,.38-.38Z" transform="translate(-45.54 -71.14)"/><path class="cls-2" d="M57.59,80.19l-6.53,20.33a.29.29,0,0,0,.23.37.25.25,0,0,0,.37-.22l7.05-20.1a.61.61,0,0,0-.37-.75.56.56,0,0,0-.75.37" transform="translate(-45.54 -71.14)"/><path class="cls-2" d="M82,73.22c.52,0,1.12,1,.75,1.42s-1.5.45-1.58-.45a1.16,1.16,0,0,1,.53-.9.59.59,0,0,1,.3-.07" transform="translate(-45.54 -71.14)"/><path class="cls-3" d="M82,82.22a.79.79,0,0,1,.68-.08l.52.3a.68.68,0,0,1,.3.6,2.15,2.15,0,0,1-1,1.65.59.59,0,0,1-.6.08l-.68-.38a.66.66,0,0,1-.3-.6,3.11,3.11,0,0,1,1-1.57" transform="translate(-45.54 -71.14)"/><path class="cls-4" d="M78.44,78.69h0c1.2-1.42,4.2-4.5,7.65-3.07a4.78,4.78,0,0,0-3.9.67,10,10,0,0,0-3,2.7c-2.93,3.6-3.9,8.48-2.18,10.88a1.75,1.75,0,0,0,.53.52c-3.23-2.4-2.1-7.72.9-11.7" transform="translate(-45.54 -71.14)"/><path class="cls-5" d="M77.24,82.22a13.9,13.9,0,0,1,2-3.23c.15-.15.22-.3.37-.45a10.56,10.56,0,0,1,2.63-2.25,4.44,4.44,0,0,1,4.35-.45l.22.15c-1.12-.67-2.7-.52-4.35.45a10.35,10.35,0,0,0-2.62,2.25c-.15.15-.23.3-.38.45a12.11,12.11,0,0,0-2,3.23c-1.27,2.92-1.42,5.92-.22,7.57a3.57,3.57,0,0,0,1,.9L78,90.69a3.46,3.46,0,0,1-1-.9c-1.27-1.65-1.05-4.65.23-7.57" transform="translate(-45.54 -71.14)"/><path class="cls-4" d="M80.69,80.19a7.63,7.63,0,0,1,2.7-2.32c1.87-1.05,3.67-1,4.65.37,1.5,2.1.6,6.38-2,9.53a9.1,9.1,0,0,1-2.7,2.4c-1.88,1-3.68,1-4.65-.38-1.5-2.17-.6-6.45,2-9.6m-3.53,9.75a3.46,3.46,0,0,0,1,.9c3.37,1.88,6.45-1,7.65-2.32,2.55-2.85,3.82-6.9,3.07-9.68a4.56,4.56,0,0,0-2.1-2.77c-1.12-.68-2.7-.53-4.35.45a10,10,0,0,0-3,2.7C76.49,82.74,75.51,87.62,77.16,89.94Z" transform="translate(-45.54 -71.14)"/><path class="cls-6" d="M79.79,81.77c2-3.45,4.72-4.58,5.92-4.28.08,0,.08,0,.15.08a1.81,1.81,0,0,1,.75.75c1.35,1.87.53,5.7-1.72,8.62a7.67,7.67,0,0,1-2.4,2.1,3.48,3.48,0,0,1-3.45.38c-.08-.08-.15-.08-.23-.23s-1.87-2.77,1-7.42M78.44,90c1,1.5,3,1.57,5,.45a10.07,10.07,0,0,0,2.85-2.55c2.7-3.38,3.6-7.88,2-10.13-1.05-1.5-3-1.57-5-.45a10.07,10.07,0,0,0-2.85,2.55C77.76,83.27,76.86,87.84,78.44,90Z" transform="translate(-45.54 -71.14)"/><path class="cls-7" d="M83.16,89.19,82,88.52a3.06,3.06,0,0,1-3.23.3l1.13.67A3,3,0,0,0,83.16,89.19Z" transform="translate(-45.54 -71.14)"/><path class="cls-7" d="M85.11,87.47,84,86.79a6.87,6.87,0,0,1-2,1.65l1.13.68A6,6,0,0,0,85.11,87.47Z" transform="translate(-45.54 -71.14)"/><path class="cls-3" d="M80.91,84.39l.6-.37h.15l-.22.22Zm.3.83.3-.45.15-.08-.07.23Zm.23.22.3-.52.15-.15-.08.15Zm.45-2.32h-.23l-.37-.38.45.23Zm0-.3-.3-.53.37.38.08.22Zm.15-.75.15.3v.37l-.08-.07Zm.15,3.52.07-.6.08-.15v.23Zm.07-3.3v-.45l.15.53v.07Zm-.6.9.08.08h-.23L81.14,83Zm-.15.3.15.08-.22.07L81,83.57Zm-.07.3h.15l-.15.08-.53.07Zm1,1.28.07-.3v.07l-.07.68Zm.07-2.63v-.07l.08-.68v.45Zm.15,2.4v-.07l.15.22v.38Zm.15-2.62-.07.15v-.23l.15-.52Zm.08,2.32h0l.15.68-.15-.3Zm.15,0L83,84.32l.15.07.3.53Zm.22-.3L83.24,84h.22l.38.37Zm.15-.3-.07-.07h.22l.38.22Zm.15-.22-.15-.08.23-.07.45.07Zm.08-.3-.15-.08.15-.07.52-.08Zm0-.3h-.15l.22-.23.45-.15ZM83.91,82l-.3.45-.15.08.08-.23Zm-.22-.22-.3.52-.15.15.07-.15ZM78.21,86h0l2.18-1.28.67-.22-.67.6-2.18,1.27v.15l1.65-.9-1.57,1.35v.15l2.17-1.87.6-.38-.6.68-2.17,1.72v.15l1.65-1.27-1.58,1.72V88l2.18-2.32.75-.6-.6.82-2.18,2.25v.08h.15l1.58-1.65s-1.43,2-1.43,2h.08L80.76,86l.6-.68-.52.9s-2,2.63-2,2.7H79l1.43-2s-1.13,2.1-1.13,2.18h.08l.07-.08L81,86.12l.6-.9-.38,1S79.64,89,79.64,89.12h.08l.07-.08,1.13-2.1-.83,2.18v.07h.08l.07-.07,1.13-3,.3-.6-.15.6-1.28,3v.07h.08l.07-.07,1-2.18-.6,2.18v.07h.07s.08,0,.08-.07l.82-3,.45-1.05-.07,1-.83,3v.08h.08a.07.07,0,0,0,.07-.08l.6-2.25-.22,2.1h.07l.08-.07.3-2.93.22-.9.08.75-.38,2.93h.08l.07-.08.3-2.25.15,2h.15l.08-.07-.15-2.7-.23-.38.22.83.15,2.7h.15l.08-.08-.15-2.1s.52,1.73.52,1.8h.08l.07-.07-.67-2.33L83,85.22l.23.45.52,2.4h.08l.07-.08L83.46,86l.83,1.5h.15a.07.07,0,0,0,.08-.07l-1-2-.23-.9.53.52,1,2H85c.07,0,.07-.08.07-.08l-.82-1.65,1.2,1.13h.07l.08-.08-1.5-1.42-.38-.75.6.3,1.43,1.5h.07l.08-.08-1.2-1.27,1.5.75v-.08h-.08l-1.8-.82-.52-.53.75.08,1.8.9V85h-.08l-1.5-.75,1.73.23.07-.08v-.07h-.07l-2.1-.3-.53-.3.68-.08,2,.38.08-.08v-.07h-.08l-1.65-.3,1.88-.23a.07.07,0,0,0,.07-.07v-.08h-.07l-2.25.3-.6-.15.82-.3L87,82.89s.08,0,.08-.07v-.08H87l-1.72.15,1.87-.67.08-.08s0-.07-.08,0h-.07l-2.4.83-.75.07.9-.52,2.4-.83.07-.07s0-.08-.07,0h-.08l-1.8.67,1.88-1.12.07-.08h-.07l-2.4,1.43-.68.22.68-.6,2.4-1.35.07-.07h-.07l-1.8,1,1.72-1.5v-.08h-.07l-2.33,2-.6.38.6-.68L87.07,80s.07-.08,0-.08H87l-1.72,1.35,1.65-1.72v-.08h-.08l-2.17,2.33-.75.6.6-.83,2.17-2.25v-.07h-.07L85,80.87l1.43-2v-.08h-.16l-1.87,2.63-.6.67.52-.9,2-2.62v-.08h-.15l-1.42,1.95,1.12-2.1v-.07h-.07l-.08.07-1.57,2.93-.6.9.37-1,1.58-2.85v-.07h-.08l-.07.07-1.13,2.1L85,78.32v-.08H85l-.07.08-1.13,3-.3.6.15-.6,1.28-3h-.15l-.9,2.17.52-2h-.15l-.75,2.85L83,82.37l.08-1,.75-2.85h-.15l-.53,2,.15-1.88c-.07,0-.07.08-.15.08l-.22,2.55-.23.9-.07-.75.3-2.55c-.08,0-.08.07-.15.07l-.23,1.73-.07-1.5c-.08,0-.08.07-.15.07l.15,2.1-.15,1-.23-.82-.15-2-.15.15.08,1.35L81.59,80l-.08.07L82,81.62l.08.67-.23-.45-.37-1.72c-.08.07-.08.07-.08.15l.23,1.2-.45-.9-.08.07.68,1.28.22.9-.52-.53L80.76,81c0,.07-.07.07-.07.15l.45.9-.68-.68-.07.08.9.9.37.75-.6-.3-1-1-.08.08.75.75-1-.45-.08.07,1.28.6.52.53-.75-.08-1.27-.67-.08.07,1,.15-1.2-.15c0,.08-.08.08-.08.15l1.65.23.53.3-.68.07L79,83.19c0,.08,0,.08-.08.15l1.2.23-1.35.15c0,.07,0,.07-.07.15l1.87-.23.6.15-.82.3-1.8.15c0,.08,0,.08-.08.15l1.35-.07-1.42.52c0,.08,0,.08-.08.15l2-.67.75-.08-.9.53-2,.67v.15l1.5-.52-1.57,1C78.21,85.89,78.21,86,78.21,86Z" transform="translate(-45.54 -71.14)"/><path class="cls-8" d="M78.59,86.57a9.9,9.9,0,0,1,4.57-7.88c2.55-1.42,4.58-.3,4.58,2.63a9.9,9.9,0,0,1-4.58,7.87c-2.55,1.43-4.57.3-4.57-2.62m-.6.3c0,3.22,2.32,4.57,5.17,2.92a11.28,11.28,0,0,0,5.1-8.85c0-3.22-2.32-4.57-5.17-2.92A11.48,11.48,0,0,0,78,86.87Z" transform="translate(-45.54 -71.14)"/><path class="cls-8" d="M82.71,82.67a.79.79,0,0,1,.68-.08l.52.3a.68.68,0,0,1,.3.6,2.15,2.15,0,0,1-1,1.65.59.59,0,0,1-.6.08L82,84.84a.66.66,0,0,1-.3-.6,2.85,2.85,0,0,1,1-1.57" transform="translate(-45.54 -71.14)"/><path class="cls-9" d="M75.06,81.69a19.1,19.1,0,0,1,2.63-4.2,13.7,13.7,0,0,1,3-2.55c1.87-1.12,3.6-1.2,4.87-.45l2.78,1.65-10.5,7.13v.07l-2.78-1.65" transform="translate(-45.54 -71.14)"/><path class="cls-10" d="M83.46,76.59a5.34,5.34,0,0,1,4.2-.75,2.85,2.85,0,0,1,1.13.68V77l-11,6.38a15.3,15.3,0,0,1,5.7-6.83" transform="translate(-45.54 -71.14)"/><path class="cls-10" d="M78,82.82c.15-.3.3-.83.6-1.35a6,6,0,0,1,.52-.9c.23-.3.38-.6.68-1s.52-.67.75-1l.9-.9a9.32,9.32,0,0,1,2-1.43c.38-.15.75-.37,1.05-.45a2.62,2.62,0,0,1,1-.22,5,5,0,0,1,1.57.07.63.63,0,0,1,.38.15.28.28,0,0,1,.15.08,2,2,0,0,0-.6-.08,5.89,5.89,0,0,0-1.5.15,4.53,4.53,0,0,0-.9.3,5.89,5.89,0,0,0-1,.53c-.3.22-.67.45-1,.67l-1,.75c-.3.3-.6.53-.9.83s-.52.6-.82.9a21.07,21.07,0,0,0-1.28,1.72c-.37.53-.6,1-.82,1.28a5,5,0,0,1-.3.52,1.42,1.42,0,0,0,.45-.67" transform="translate(-45.54 -71.14)"/><path class="cls-9" d="M76.19,89.49c-.23.3-11.78,7.05-12.53,7.05l-3.07-2.25a1.81,1.81,0,0,1-.75-1.2,50.58,50.58,0,0,1-.9-7.12,5.28,5.28,0,0,1,.22-1.88,4.58,4.58,0,0,1,2.33-2.4,13.17,13.17,0,0,1,3.22-1c.9-.23,1.73-.38,2.63-.6s1.57-.38,2.4-.53c1.57-.3,3.07-.6,4.65-.82a23,23,0,0,1,2.32-.3,5.14,5.14,0,0,1,2.4,1,.5.5,0,0,1,.08.75c-3.38,3.45-2.85,8.92-3,9.22" transform="translate(-45.54 -71.14)"/><path class="cls-10" d="M59.69,87.17a17.91,17.91,0,0,1,1-3.53l3.68,2.18a53.11,53.11,0,0,0-2.63,5.1,34.79,34.79,0,0,0,.3,4.5l-1.57-1.13a1.81,1.81,0,0,1-.75-1.2c-.23-1-.45-2.32-.6-3.6.22-.75.37-1.5.6-2.32" transform="translate(-45.54 -71.14)"/><path class="cls-3" d="M52,99.62a.79.79,0,0,1,.68-.08l.52.3a.68.68,0,0,1,.3.6,2.15,2.15,0,0,1-1,1.65.59.59,0,0,1-.6.08l-.68-.38a.66.66,0,0,1-.3-.6A2.53,2.53,0,0,1,52,99.62" transform="translate(-45.54 -71.14)"/><path class="cls-4" d="M48.44,96.09h0c1.2-1.42,4.2-4.5,7.65-3.07a4.78,4.78,0,0,0-3.9.67,10,10,0,0,0-3,2.7c-2.93,3.6-3.9,8.48-2.18,10.88a1.75,1.75,0,0,0,.53.52c-3.3-2.47-2.18-7.8.9-11.7" transform="translate(-45.54 -71.14)"/><path class="cls-5" d="M47.16,99.62a14.63,14.63,0,0,1,2-3.23c.15-.15.23-.3.38-.45a10.35,10.35,0,0,1,2.62-2.25c1.58-.9,3.15-1.12,4.35-.45l.23.15c-1.13-.67-2.7-.52-4.35.45a10.56,10.56,0,0,0-2.63,2.25c-.15.15-.22.3-.37.45a11.85,11.85,0,0,0-2,3.23c-1.28,2.92-1.43,5.92-.23,7.57a3.46,3.46,0,0,0,1,.9l-.23-.15a3.57,3.57,0,0,1-1-.9c-1.28-1.72-1-4.72.22-7.57" transform="translate(-45.54 -71.14)"/><path class="cls-4" d="M50.61,97.52a7.84,7.84,0,0,1,2.7-2.33c1.88-1,3.68-1,4.65.38,1.5,2.1.6,6.37-2,9.52a8.73,8.73,0,0,1-2.7,2.4c-1.87,1.05-3.67,1-4.65-.37-1.5-2.18-.6-6.45,2-9.6m-3.45,9.82a3.46,3.46,0,0,0,1,.9c3.37,1.88,6.45-1,7.65-2.32,2.55-2.85,3.82-6.9,3.07-9.68a4.56,4.56,0,0,0-2.1-2.77c-1.12-.68-2.7-.53-4.35.45a10,10,0,0,0-3,2.7C46.41,100.07,45.44,104.94,47.16,107.34Z" transform="translate(-45.54 -71.14)"/><path class="cls-6" d="M49.71,99.09c2-3.45,4.73-4.57,5.93-4.27.07,0,.07,0,.15.07a1.81,1.81,0,0,1,.75.75c1.35,1.88.52,5.7-1.73,8.63a7.69,7.69,0,0,1-2.4,2.1,3.45,3.45,0,0,1-3.45.37c-.07-.07-.15-.07-.22-.22s-1.88-2.78,1-7.43m-1.35,8.33c1,1.5,3,1.57,5,.45a9.94,9.94,0,0,0,2.85-2.55c2.7-3.38,3.6-7.88,2-10.13-1-1.5-3-1.57-4.95-.45a9.94,9.94,0,0,0-2.85,2.55C47.69,100.67,46.79,105.17,48.36,107.42Z" transform="translate(-45.54 -71.14)"/><path class="cls-7" d="M53.09,106.52,52,105.84a3,3,0,0,1-3.22.3l1.12.68A3.06,3.06,0,0,0,53.09,106.52Z" transform="translate(-45.54 -71.14)"/><path class="cls-7" d="M56.31,95.72,55.19,95A3.18,3.18,0,0,1,56.54,98a8.27,8.27,0,0,1-.83,3.45l1.13.67a8.34,8.34,0,0,0,.82-3.45A3.3,3.3,0,0,0,56.31,95.72Z" transform="translate(-45.54 -71.14)"/><path class="cls-11" d="M56.84,102.09l-1.13-.67a11,11,0,0,1-1.8,2.77l1.13.68A11,11,0,0,0,56.84,102.09Z" transform="translate(-45.54 -71.14)"/><path class="cls-7" d="M55,104.87l-1.13-.68a6.83,6.83,0,0,1-2,1.65l1.12.68A7.19,7.19,0,0,0,55,104.87Z" transform="translate(-45.54 -71.14)"/><path class="cls-3" d="M50.84,101.79l.6-.37h.15l-.23.22Zm.3.83.3-.45.15-.08-.08.23Zm.22.15.3-.53.15-.15-.07.15Zm.45-2.25h-.22l-.38-.38.45.23Zm.08-.3-.3-.53.37.38.08.22Zm.07-.83.15.3v.38L52,100Zm.15,3.53.08-.6.07-.15v.22Zm.08-3.3v-.45l.15.52v.08Zm-.6,1,.07.08h-.22l-.38-.23Zm-.15.23.15.07-.23.08-.45-.08Zm-.08.3h.15l-.15.07-.52.08Zm1,1.27.08-.3v.08l-.08.67Zm.08-2.62v-.08l.07-.67v.45Zm.15,2.4v-.08l.15.23v.45Zm.15-2.63-.08.15v-.22l.15-.53Zm.07,2.33h0l.15.67-.15-.3Zm.15,0-.07-.23.15.08.3.52Zm.23-.23-.08-.22h.23l.37.37Zm.15-.3-.08-.07h.23l.37.22Zm.15-.3-.15-.07.22-.08.45.08Zm.07-.22-.15-.08.15-.07.53-.08Zm0-.3h-.15l.23-.23.45-.15Zm.23-1.2-.3.45-.15.07.07-.22Zm-.15-.15-.3.52-.15.15.07-.15Zm-5.55,4.2h0l2.17-1.28.68-.22-.68.6-2.17,1.27v.15l1.65-.9-1.58,1.35v.15l2.18-1.87.6-.38-.6.68-2.18,1.72v.15l1.65-1.27-1.57,1.72v.15l2.17-2.32.75-.6-.6.82-2.17,2.25v.08h.15L50.16,104s-1.42,2-1.42,2h.07l1.88-2.62.6-.68-.53.9s-1.95,2.63-1.95,2.7h.08l1.42-2s-1.12,2.1-1.12,2.18h.07l.08-.08,1.57-2.92.6-.9-.37,1s-1.58,2.85-1.58,2.93h.08l.08-.08,1.12-2.1L50,106.52v.07h.07l.08-.07,1.12-3,.3-.6-.15.6-1.27,3v.07h.07l.08-.07,1-2.18-.6,2.18v.07h.08a.07.07,0,0,0,.07-.07l.83-3,.45-1-.08,1-.82,3v.08h.07a.08.08,0,0,0,.08-.08l.6-2.25-.23,2.1h.08l.07-.07.3-2.93.23-.9.07.75-.37,2.93h.07l.08-.08.3-2.25.15,2h.15l.07-.07-.15-2.7.15-1,.23.82.15,2.7h.15l.07-.07-.15-2.1s.53,1.72.53,1.8H54l.08-.08-.68-2.32-.07-.68.22.45.53,2.4h.07l.08-.07-.45-2,.82,1.5h.15a.08.08,0,0,0,.08-.08l-1-2-.23-.9.53.53,1,2h.15a.07.07,0,0,0,.07-.07l-.82-1.65,1.2,1.12h.07l.08-.07-1.5-1.43L54,101l.6.3,1.43,1.5h.07l.08-.07L55,101.49l1.5.75v-.07h-.08l-1.8-.83-.52-.52.75.07,1.8.9v-.07h-.08L55,101l1.73.22.07-.07V101h-.07l-2.1-.3-.53-.3.68-.07,2,.37.08-.07v-.08h-.08l-1.65-.3,1.88-.22a.07.07,0,0,0,.07-.08v-.07h-.07l-2.25.3-.6-.15.82-.3,2.25-.15a.08.08,0,0,0,.08-.08v-.07h-.08l-1.72.15,1.87-.68.08-.07s0-.08-.08,0h-.07l-2.4.82-.75.08.9-.53,2.4-.82.07-.08s0-.07-.07,0h-.08l-1.8.68,1.88-1.13.07-.07h-.07l-2.4,1.42-.68.23.68-.6,2.4-1.35.07-.08h-.07l-1.8,1L57.44,97v-.07h-.07l-2.33,2-.6.37.6-.67,2.33-1.88s.07-.07,0-.07h-.08L55.57,98l1.65-1.73v-.07h-.08L55,98.49l-.75.6.6-.82L57,96v-.08h-.07l-1.58,1.65,1.43-2v-.07h-.15l-1.88,2.62-.6.68.53-.9,1.95-2.63v-.07h-.15L55,97.21l1.13-2.09V95h-.08l-.07.08L54.44,98l-.6.9.38-1,1.57-2.85V95h-.07l-.08.08-1.12,2.09L55.34,95V95h-.07l-.08.08-1.12,3-.3.6.15-.6,1.27-3H55l-.9,2.17.53-2h-.15L53.77,98l-.45,1,.07-1,.75-2.85H54l-.52,2,.15-1.88c-.08,0-.08.08-.15.08L53.24,98l-.22.9-.08-.75.3-2.55c-.07,0-.07.07-.15.07l-.22,1.73-.08-1.5c-.07,0-.07.07-.15.07l.15,2.1-.15,1-.22-.82-.15-2-.15.15.07,1.35-.3-1.12-.07.07.45,1.58.07.67-.22-.45-.38-1.72c-.07.07-.07.07-.07.15l.22,1.2-.45-.9-.07.07L52,98.64l.23.9L51.74,99l-.67-1.27c0,.07-.08.07-.08.15l.45.9-.67-.68-.08.08.9.9.38.75-.6-.3-1-1-.07.08.75.75-1-.45L50,99l1.27.61.53.52-.75-.07-1.28-.68-.07.08,1,.52-1.2-.15c0,.08-.07.08-.07.15l1.65.23.52.3-.67.07-1.58-.3c0,.08,0,.08-.07.15l1.2.23-1.35.15c0,.07,0,.07-.08.15l1.88-.23.6.15-.83.3-1.8.15c0,.08,0,.08-.07.15l1.35-.08-1.43.53c0,.07,0,.07-.07.15l2-.68.75-.07-.9.52-2,.68v.15l1.5-.53-1.58,1C48.14,103.29,48.14,103.29,48.14,103.37Z" transform="translate(-45.54 -71.14)"/><path class="cls-8" d="M48.51,103.89A9.9,9.9,0,0,1,53.09,96c2.55-1.43,4.57-.3,4.57,2.62a9.9,9.9,0,0,1-4.57,7.88c-2.55,1.42-4.58.3-4.58-2.63m-.6.38c0,3.22,2.33,4.57,5.18,2.92a11.28,11.28,0,0,0,5.1-8.85c0-3.22-2.33-4.57-5.18-2.92A11.39,11.39,0,0,0,47.91,104.27Z" transform="translate(-45.54 -71.14)"/><path class="cls-8" d="M52.64,100.07a.77.77,0,0,1,.67-.08l.53.3a.68.68,0,0,1,.3.6,2.13,2.13,0,0,1-1,1.65.59.59,0,0,1-.6.08l-.67-.38a.66.66,0,0,1-.3-.6,2.8,2.8,0,0,1,1-1.57" transform="translate(-45.54 -71.14)"/><path class="cls-2" d="M67.41,78.54a.29.29,0,0,1,.15-.07,10.26,10.26,0,0,0,2.7-.9,26.32,26.32,0,0,0,3.45-2.1,16,16,0,0,1,2.55-1.8,1,1,0,0,1,.9,0l-3.6,3.75-6.07,2.17a.63.63,0,0,1-.08-1" transform="translate(-45.54 -71.14)"/><path class="cls-12" d="M67.94,78.62a13,13,0,0,0,3.82-1.43.65.65,0,0,1,.3-.15c1.13-.67,2.1-1.35,2.85-1.87a19.32,19.32,0,0,1,1.73-1.28c.22-.15.45-.22.52-.15L82,76.59c-3,2.55-6.08,4.8-9.6,5.93l-4.88-2.85h-.07c-.23-.23.07-1,.45-1" transform="translate(-45.54 -71.14)"/><path class="cls-2" d="M72.74,81.54c.6-.3,2.47-.15,7.05-3.6a18.41,18.41,0,0,1,1.72-1.27c.23-.15.45-.23.53-.15a1,1,0,0,1,.37.52c.38,1.35-4.5,4.13-4.72,4.2-1.73,1-4,2-5.18,1.28h-.07c-.3-.23,0-.83.3-1" transform="translate(-45.54 -71.14)"/><path class="cls-13" d="M73.94,82a20.58,20.58,0,0,0,6.45-3.45,9.3,9.3,0,0,1,1.72-1.2c.3-.15.38-.15.38.08.07.45-1.8,2.1-4,3.37-3.83,2.25-5.55,1.88-5.1,1.43,0-.15.37-.23.6-.23" transform="translate(-45.54 -71.14)"/><path class="cls-14" d="M64.41,94.74a10.58,10.58,0,0,1,.6-.9,15.49,15.49,0,0,1,3.83-2.92c2-1.2,3.75-1.65,4.35-1.35l1,.52c-.6-.3-2.32.15-4.35,1.35A16.87,16.87,0,0,0,66,94.37a2.06,2.06,0,0,0-.6.9.76.76,0,0,0-.08.37.43.43,0,0,0,.23.38l-1-.53a.4.4,0,0,1-.22-.37.88.88,0,0,1,.07-.38" transform="translate(-45.54 -71.14)"/><path class="cls-15" d="M69.81,91.44c2.48-1.42,4.5-1.87,4.5-1s-2,2.77-4.5,4.27-4.5,1.88-4.5,1,2-2.78,4.5-4.28" transform="translate(-45.54 -71.14)"/><path class="cls-9" d="M71.09,80c2.1,2.55-2.93,5.77-7.28,6.37-2.85.38-4.5-.67-5-3.52a4.57,4.57,0,0,1,0-1.73c1-3.9,10.13-3.6,12.23-1.12" transform="translate(-45.54 -71.14)"/><path class="cls-16" d="M60.29,80c-.08-.53,1.5-1.2,3.45-1.5s3.67-.08,3.75.52S66,80.19,64,80.49s-3.68,0-3.75-.52" transform="translate(-45.54 -71.14)"/><path class="cls-17" d="M76.79,88.74s.75-.6,1.87-1.35c.6-.37,1.2-.82,2-1.27s1.5-.9,2.33-1.35a44.25,44.25,0,0,1,4.42-2.33,17.84,17.84,0,0,1,2.1-.9.44.44,0,0,1,.53.15.48.48,0,0,1-.08.68s-.75.6-1.87,1.35-2.7,1.72-4.28,2.62c-.82.45-1.57.9-2.32,1.28l-2.1,1a17.84,17.84,0,0,1-2.1.9.59.59,0,0,1-.6-.15.61.61,0,0,1,.15-.68" transform="translate(-45.54 -71.14)"/><path class="cls-2" d="M70.64,92.94c.15-.07.22-.07.3,0l2.92,1.65-.6,1L70.34,94a.37.37,0,0,1-.15-.3,1.13,1.13,0,0,1,.45-.75" transform="translate(-45.54 -71.14)"/><path class="cls-18" d="M73.11,95.34c0,.3.23.38.45.23a1,1,0,0,0,.45-.75c0-.3-.22-.38-.45-.23a1.17,1.17,0,0,0-.45.75" transform="translate(-45.54 -71.14)"/><path class="cls-2" d="M56.39,75a.26.26,0,0,0,.22-.08.4.4,0,0,0,.15-.6l-1.42-2.55a.41.41,0,0,0-.6-.15.4.4,0,0,0-.15.6L56,74.79a.43.43,0,0,0,.38.23" transform="translate(-45.54 -71.14)"/><path class="cls-19" d="M58.49,80.19a.38.38,0,0,0,.3-.15.4.4,0,0,0-.15-.52l-1-.6a.43.43,0,0,1-.23-.3l-.52-3.9c0-.23-.23-.3-.45-.3a.33.33,0,0,0-.3.45l.52,3.9a1.54,1.54,0,0,0,.6.9l1,.6a.27.27,0,0,1,.23-.08" transform="translate(-45.54 -71.14)"/><path class="cls-2" d="M55.49,79.22c-.23.45.52,1.42,1,1.2s1-1.2.15-1.58a1,1,0,0,0-1,.23.15.15,0,0,0-.15.15" transform="translate(-45.54 -71.14)"/><path class="cls-20" d="M55.64,79.29a.62.62,0,0,1,.67.3c.23.3.3.6.15.68a.62.62,0,0,1-.67-.3c-.23-.3-.3-.6-.15-.68" transform="translate(-45.54 -71.14)"/><path class="cls-21" d="M59,79.29l.68-1.12c-.08,0-.08,0-.08-.08l-.67,1.13C58.94,79.29,58.94,79.29,59,79.29Z" transform="translate(-45.54 -71.14)"/><path class="cls-19" d="M58.86,79.29l.68-1.12c-.23-.08-.38-.15-.38-.08l-.67,1.13C58.49,79.14,58.64,79.14,58.86,79.29Z" transform="translate(-45.54 -71.14)"/><path class="cls-19" d="M60.36,80.27,61,79.14A.24.24,0,0,0,61,79a3.23,3.23,0,0,0-.75-.52l-.67,1.12a3.23,3.23,0,0,1,.75.53A.23.23,0,0,1,60.36,80.27Z" transform="translate(-45.54 -71.14)"/><path class="cls-21" d="M59.46,79.59l.68-1.12c-.15-.08-.38-.23-.53-.3l-.67,1.12A4.54,4.54,0,0,1,59.46,79.59Z" transform="translate(-45.54 -71.14)"/><path class="cls-22" d="M59,79.29c-.45-.22-.6-.22-.37,0a6.07,6.07,0,0,0,1.27.83c.45.22.6.22.38,0A9.48,9.48,0,0,0,59,79.29" transform="translate(-45.54 -71.14)"/><path class="cls-21" d="M61,80.57l.75-1-.08-.08-.75,1Z" transform="translate(-45.54 -71.14)"/><path class="cls-19" d="M61,80.49l.75-1c-.22-.15-.3-.15-.37-.15l-.75,1A.73.73,0,0,1,61,80.49Z" transform="translate(-45.54 -71.14)"/><path class="cls-19" d="M62.31,81.62l.75-1.05a.23.23,0,0,0-.07-.15c-.15-.15-.45-.38-.68-.6l-.75,1.05a2.87,2.87,0,0,1,.68.6A.23.23,0,0,1,62.31,81.62Z" transform="translate(-45.54 -71.14)"/><path class="cls-21" d="M61.49,80.87l.75-1.05a1.47,1.47,0,0,0-.45-.3l-.75,1A1.47,1.47,0,0,1,61.49,80.87Z" transform="translate(-45.54 -71.14)"/><path class="cls-22" d="M61,80.57c-.45-.23-.6-.23-.38,0a6,6,0,0,0,1.2.9c.45.22.6.22.38,0a5.35,5.35,0,0,0-1.2-.9" transform="translate(-45.54 -71.14)"/><polygon class="cls-10" points="12.57 9.21 15.8 11.08 13.03 18.06 10.25 16.48 12.57 9.21"/><path class="cls-2" d="M60.81,83,60,85.14l-2.78-1.57.68-2.18c1,.53,2,1,2.92,1.65" transform="translate(-45.54 -71.14)"/><path class="cls-2" d="M60.74,82l-7.43,19.73a.37.37,0,0,0,.15.45c.15.07.38,0,.38-.15l8-19.58a.62.62,0,0,0-.3-.82.74.74,0,0,0-.82.37" transform="translate(-45.54 -71.14)"/><path class="cls-2" d="M59.09,78.69,62,80.34a1,1,0,0,1,.45,1.2l-.37,1.2a.81.81,0,0,1-.3.38l-.9.52-3.75-2.17a.63.63,0,0,1-.3-.45v-.9a1.12,1.12,0,0,1,.52-.9l.9-.53a.82.82,0,0,1,.83,0" transform="translate(-45.54 -71.14)"/><path class="cls-2" d="M61.26,82.52c-.22.45.53,1.42,1.05,1.2s1-1.2.15-1.58a1,1,0,0,0-1.05.23l-.15.15" transform="translate(-45.54 -71.14)"/><path class="cls-20" d="M61.41,82.59a.63.63,0,0,1,.68.3c.22.3.3.6.15.68a.63.63,0,0,1-.68-.3c-.22-.23-.3-.53-.15-.68" transform="translate(-45.54 -71.14)"/><path class="cls-19" d="M63.06,82.67a2.34,2.34,0,0,0,1-.23c1-.52,2.62-1.35,2.7-1.35a.39.39,0,1,0-.38-.67s-1.72.82-2.7,1.35a1.3,1.3,0,0,1-1.27,0L62,81.54a.4.4,0,0,0-.52.15.39.39,0,0,0,.15.53l.37.22a2.41,2.41,0,0,0,1.05.23" transform="translate(-45.54 -71.14)"/><path class="cls-2" d="M70.56,82.59a.49.49,0,0,0,.45-.3.5.5,0,0,0-.3-.6l-4-1.35a.53.53,0,0,0-.6.3.52.52,0,0,0,.3.6l4,1.35h.15" transform="translate(-45.54 -71.14)"/><path class="cls-19" d="M55.34,82.89c-.53,1.2,1.42,3.6,2.77,3.08s2.4-3.08.3-4a2.67,2.67,0,0,0-2.62.52.86.86,0,0,0-.45.45" transform="translate(-45.54 -71.14)"/><path class="cls-23" d="M55.71,82.89c.38-.3,1.2.08,1.88.83s.75,1.65.37,2-1.2-.08-1.87-.83-.75-1.65-.38-2" transform="translate(-45.54 -71.14)"/><path class="cls-2" d="M54.14,72.24a.77.77,0,0,0,1,.15.79.79,0,0,0,.37-1,.77.77,0,0,0-1.05-.15.74.74,0,0,0-.37,1" transform="translate(-45.54 -71.14)"/><path class="cls-2" d="M70.56,83c.38.15.75-.15.9-.6a.79.79,0,0,0-.37-1c-.38-.15-.75.15-.9.6s0,.9.37,1" transform="translate(-45.54 -71.14)"/><path class="cls-24" d="M57.89,79.37c-.08.15.6.75,1.57,1.35s1.8.82,1.95.67-3.37-2.25-3.52-2" transform="translate(-45.54 -71.14)"/><path class="cls-25" d="M57.21,82.07c.3.07.38.3.3.45s-.45.22-.67.15-.38-.3-.3-.45a.7.7,0,0,1,.67-.15" transform="translate(-45.54 -71.14)"/></svg>