<svg id="Capa_1" data-name="Capa 1" xmlns="http://www.w3.org/2000/svg" viewBox="0 0 63.95 50.38"><defs><style>.cls-1{fill:#332e2e;}.cls-2{fill:#443e3b;}.cls-3{fill:#d3d2d1;}.cls-4{fill:#802523;}.cls-5{fill:#cb5252;}.cls-6{fill:#9dcdea;}.cls-7{fill:#a52822;}.cls-12,.cls-8{fill:#4b464a;}.cls-13,.cls-9{fill:#342f31;}.cls-9{opacity:0.7;}.cls-10{fill:#f2f8fd;}.cls-11{fill:#a14d2a;}.cls-12{opacity:0.5;}.cls-14{fill:#fff;}</style></defs><polygon class="cls-1" points="31.1 37.84 32.45 39.79 30.65 42.94 24.5 39.41 31.1 37.84"/><polygon class="cls-1" points="59.3 21.64 60.57 23.59 58.85 26.74 52.62 23.14 59.3 21.64"/><path class="cls-1" d="M100.77,100.55a2.48,2.48,0,0,1,2.55-.23l2.25,1.28-5.1,8.77-2.25-1.27a2.67,2.67,0,0,1-1-2.33,8.17,8.17,0,0,1,3.6-6.22" transform="translate(-76.42 -60.24)"/><path class="cls-2" d="M99.5,108.05c0,2.25,1.57,3.22,3.6,2.1a8,8,0,0,0,3.6-6.23c0-2.32-1.58-3.22-3.6-2.1a7.76,7.76,0,0,0-3.6,6.23" transform="translate(-76.42 -60.24)"/><path class="cls-3" d="M103,109a5.34,5.34,0,0,0,2.48-4.28c0-1.57-1-2.25-2.4-1.5a5.34,5.34,0,0,0-2.48,4.28c0,1.57,1,2.25,2.4,1.5" transform="translate(-76.42 -60.24)"/><path class="cls-1" d="M129,84.27a2.45,2.45,0,0,1,2.55-.22l2.25,1.27-5.1,8.78-2.25-1.28a2.65,2.65,0,0,1-1-2.32,7.79,7.79,0,0,1,3.6-6.23" transform="translate(-76.42 -60.24)"/><path class="cls-2" d="M127.62,91.77c0,2.25,1.58,3.23,3.6,2.1a8,8,0,0,0,3.6-6.22c0-2.25-1.57-3.23-3.6-2.1a8,8,0,0,0-3.6,6.22" transform="translate(-76.42 -60.24)"/><path class="cls-3" d="M131.22,92.67a5.32,5.32,0,0,0,2.48-4.27c0-1.58-1-2.25-2.4-1.5a5.32,5.32,0,0,0-2.48,4.27c-.07,1.58,1,2.25,2.4,1.5" transform="translate(-76.42 -60.24)"/><path class="cls-4" d="M88.32,82.62l5.78-6.15A6.79,6.79,0,0,1,95.9,75l25.35-14.62c.3-.15,3.07,4.72,3.07,4.72l11.4,3.15L138.8,75a5.33,5.33,0,0,1,.37,1.88V81.2c.15.15.38.3.38.52v1.2a1.86,1.86,0,0,1-.68,1.43l-2.62,2-1,.6v-.3c0-2.32-1.87-3.07-4.2-1.72s-4.2,4.27-4.2,6.6v.3l-19.8,11.47V103c0-2.32-1.87-3.07-4.2-1.72s-4.2,4.27-4.2,6.6v.3l-1.35.82a11,11,0,0,1-8.4-.22A50.35,50.35,0,0,1,79.1,103a6.43,6.43,0,0,1-2.63-5.17v-.23c0-.3.08-.52.08-.9,0-1.5-.08-2.47-.08-2.92V92.15c.08-3,11.85-9.53,11.85-9.53" transform="translate(-76.42 -60.24)"/><path class="cls-4" d="M90.57,109.1a10.57,10.57,0,0,0,6.83-.3l1.35-.83v-.3a7.79,7.79,0,0,1,1.65-4.27Zm14.85-8.55c1,.15,1.65,1,1.65,2.4v.3l19.8-11.48v-.3a7.87,7.87,0,0,1,1.65-4.27Zm33.75-19.5v.07c.15.15.38.3.38.53v1.2a1.84,1.84,0,0,1-.68,1.42l-2.62,2-1,.6v-.3a2.21,2.21,0,0,0-1.65-2.4Z" transform="translate(-76.42 -60.24)"/><path class="cls-5" d="M95.9,75l25.35-14.62a1.28,1.28,0,0,1,1,0S132.65,66,135.65,68a.21.21,0,0,1,0,.37c-2.33,1.28-18,9.9-19.58,10.73s-5.85,3.45-7.12,4.12a.67.67,0,0,1-.53.08c-2.47-.75-13.65-7.5-13.27-7.8A6.08,6.08,0,0,1,95.9,75" transform="translate(-76.42 -60.24)"/><path class="cls-6" d="M103.55,91.17a1.09,1.09,0,0,0,.82-.3,2.1,2.1,0,0,0,.68-.75c.6-1,2.1-4.42,2.77-5.85a.26.26,0,0,0-.15-.37,86.34,86.34,0,0,1-13-7.5.22.22,0,0,0-.3,0l-5.1,5.4a.46.46,0,0,0,0,.6,47.31,47.31,0,0,0,13.88,8.7c.07,0,.3.07.45.07" transform="translate(-76.42 -60.24)"/><path class="cls-6" d="M106.77,91.25a69.2,69.2,0,0,1,3.45-7.58A2.15,2.15,0,0,1,111,83l3.23-1.88a.34.34,0,0,1,.52.23A55.2,55.2,0,0,1,116.15,87c0,.08-.15.23-.23.3l-8.62,5c-.83.37-1.28.45-.53-1" transform="translate(-76.42 -60.24)"/><path class="cls-7" d="M88,82.77c1.13,1.43,7.58,7.58,17.25,10.58,0,0-9.22,7.27-12.45,7.72-2.47.3-4.8-1-8.47-3.07-7-3.83-7.65-5.25-7.65-6-.15-2.48,9.07-8,11.32-9.23" transform="translate(-76.42 -60.24)"/><path class="cls-8" d="M76.7,96.57s.07.23.22.23.83-2.18,1.13-2a87.31,87.31,0,0,0,9.22,5.48,3.29,3.29,0,0,1,1.5,1.72l.6,1.8c.68,2.7,4.95,2.4,7.73,1.5a.89.89,0,0,1,1.2.83V108a.79.79,0,0,1-.38.68l-.45.22a11,11,0,0,1-8.4-.22,50.35,50.35,0,0,1-9.82-5.78,6.71,6.71,0,0,1-2.78-4.35c0-.3-.15-2.4.23-2.7Z" transform="translate(-76.42 -60.24)"/><path class="cls-9" d="M77.22,97.25c.15-.53.68-2.25,1-2.1a104.49,104.49,0,0,0,9,5.47,2.84,2.84,0,0,1,1.27,1.65,15.74,15.74,0,0,0,.75,2.55c-3.45-1-11.17-5.55-12-7.57" transform="translate(-76.42 -60.24)"/><path class="cls-10" d="M95.45,101.75c.75-.15,1.5,1.12.45,2.17-.9.9-4.5.68-5.7-.07-.23-.15-1-2.55-.68-2.48a14.13,14.13,0,0,0,5.93.38" transform="translate(-76.42 -60.24)"/><path class="cls-11" d="M95.45,101.75c.82-.15,1.57,1.12.45,2.17a1.52,1.52,0,0,1-.68.38,5.09,5.09,0,0,0,.23-2.55" transform="translate(-76.42 -60.24)"/><path class="cls-10" d="M76.85,95.6c-.08,0-.15-.15-.15-.23a10.57,10.57,0,0,1-.15-2.62c.15.75.9,1.2,1,1.42s-.52,1.5-.67,1.43" transform="translate(-76.42 -60.24)"/><path class="cls-12" d="M76.47,96.8c.08.15.15.22.23.37a4,4,0,0,0,.75.9,15.17,15.17,0,0,0,1.12,1.05,41,41,0,0,0,7.13,4.43c.67.37,1.35.67,2,1a21.55,21.55,0,0,0,2,.82c.67.23,1.35.38,2,.53a8.3,8.3,0,0,0,1.8.22,11.2,11.2,0,0,0,1.57-.07l1.2-.23a2.8,2.8,0,0,0,1-.37c.07-.08.15,0,.22.07s0,.15-.07.23a7.52,7.52,0,0,1-1,.45c-.3.07-.75.22-1.2.3a5.41,5.41,0,0,1-1.57.07,16.15,16.15,0,0,1-1.88-.15,10,10,0,0,1-2-.52c-.68-.23-1.43-.53-2.1-.83s-1.35-.67-2.1-1.05c-1.35-.75-2.7-1.5-4-2.25a29.91,29.91,0,0,1-3.22-2.32,8,8,0,0,1-1.13-1.13,5.51,5.51,0,0,1-.67-1,.6.6,0,0,1-.08-.6" transform="translate(-76.42 -60.24)"/><path class="cls-8" d="M139.17,81.5V80l.75.75a1.52,1.52,0,0,1,.45,1.12v1a1.74,1.74,0,0,1-.67,1.43l-1.8,1.42a1.76,1.76,0,0,1-.6.38l-1,.6-.45-.23V83.37Z" transform="translate(-76.42 -60.24)"/><path class="cls-13" d="M114.57,90.5l1.28-.75a.42.42,0,0,0,.22-.38v-.3c0-.15-.07-.15-.22-.07l-1.28.75a.4.4,0,0,0-.22.37v.3c0,.15.07.15.22.08" transform="translate(-76.42 -60.24)"/><path class="cls-13" d="M126.05,83.9l1.27-.75a.43.43,0,0,0,.23-.38v-.3c0-.15-.08-.15-.23-.07l-1.27.75a.4.4,0,0,0-.23.37v.3c0,.08.08.15.23.08" transform="translate(-76.42 -60.24)"/><path class="cls-6" d="M134.6,76.77l-6.45,3.6-2.48-5.47c2.25-1.28,3.83-2.1,5.1-2.7a1.15,1.15,0,0,1,1.58.52Z" transform="translate(-76.42 -60.24)"/><path class="cls-6" d="M116.52,80c.6-.38,6-3.38,8.4-4.73l2.48,5.4-9.23,5.4a31,31,0,0,0-.9-3.15c-.37-1.2-.67-2-.9-2.62-.07-.08,0-.23.15-.3" transform="translate(-76.42 -60.24)"/><polygon class="cls-14" points="3.57 41.36 7.47 43.84 7.47 45.04 3.57 42.64 3.57 41.36"/></svg>