<svg xmlns="http://www.w3.org/2000/svg" width="102.93" height="153.75" viewBox="0 0 569 850" shape-rendering="geometricPrecision" image-rendering="optimizeQuality" fill-rule="evenodd" clip-rule="evenodd"><defs><linearGradient id="0" gradientUnits="userSpaceOnUse" x1="352.15" x2="542.44"><stop stop-color="#e6e7e8"/><stop offset="1" stop-color="#fefefe"/></linearGradient></defs><path d="m32 0h293v850h-293c-18 0-32-14-32-31v-787c0-18 14-32 32-32" fill="#25516b"/><path d="m325 71c135 0 244 110 244 244 0 17-1 34-5 50-24 164-123 294-239 416v-359c59 0 107-48 107-107 0-58-48-106-107-106v-138" fill="url(#0)"/><path d="m325 781c-2 2-3 4-5 6-148-159-248-317-239-472 0-134 110-244 244-244v138c-59 0-106 48-106 106 0 59 47 107 106 107v359m-244-466" fill="#4487a0"/></svg>