<svg xmlns="http://www.w3.org/2000/svg" width="88.32" height="129.3" viewBox="0 0 1095 1603" shape-rendering="geometricPrecision" image-rendering="optimizeQuality" fill-rule="evenodd" clip-rule="evenodd"><defs><linearGradient id="0" gradientUnits="userSpaceOnUse" x1="608.44" x2="1035.09"><stop stop-color="#e6e7e8"/><stop offset="1" stop-color="#fefefe"/></linearGradient></defs><path d="m548 0c302 0 547 245 547 547 0 38-4 75-11 110-55 369-277 660-536 933v-804c132 0 239-107 239-239 0-132-107-239-239-239v-308" fill="url(#0)"/><path d="m548 1590c-4 5-8 9-12 13-332-355-555-708-535-1056 0-302 245-547 547-547v308c-132 0-239 107-239 239 0 132 107 239 239 239v804m-547-1043" fill="#4487a0"/></svg>