<svg xmlns="http://www.w3.org/2000/svg" xmlns:xlink="http://www.w3.org/1999/xlink"
    viewBox="0 0 1080 1350">
    <defs>
        <style>
            .cls-1{isolation:isolate;}.cls-14{fill:#c4c2c1;}.cls-2{fill:#1e1e1e;}.cls-3{fill:url(#linear-gradient);}.cls-4{fill:url(#linear-gradient-2);}.cls-5{fill:url(#linear-gradient-3);}.cls-6{fill:#504f59;}.cls-7{fill:#c6c4e6;}.cls-8{fill:#8e8f98;}.cls-9{fill:#8c8d96;}.cls-10{fill:url(#linear-gradient-4);}.cls-11{fill:#2d2c38;}.cls-12{fill:url(#linear-gradient-5);}.cls-13{fill:url(#linear-gradient-6);}.cls-15{fill:#353535;opacity:0.29;}.cls-16{fill:#3d4b4d;}.cls-17{fill:#fa0302;}.cls-18{fill:#1d232a;}.cls-19{fill:#9fa6aa;}.cls-20{fill:#363f47;}.cls-21{fill:#2b1f2c;}.cls-22{fill:#696b6f;}.cls-23{fill:#979cbd;}.cls-24{fill:#f6ece6;}.cls-25{fill:#eb670f;}.cls-26{fill:#e7e2de;mix-blend-mode:multiply;}.cls-27{fill:#eb6d00;}.cls-28{fill:#fb8f04;}</style>
        <linearGradient id="linear-gradient" x1="-2011.17" y1="1721.64" x2="-2061.28" y2="1634.84"
            gradientTransform="matrix(-0.73, -0.16, -0.15, 0.94, -407.38, -1148.75)"
            gradientUnits="userSpaceOnUse">
            <stop offset="0" stop-color="#181818" />
            <stop offset="0.27" stop-color="#262626" />
            <stop offset="0.77" stop-color="#2e2e2e" />
        </linearGradient>
        <linearGradient id="linear-gradient-2" x1="-2102.41" y1="1729.82" x2="-2057.1" y2="1651.34"
            gradientTransform="matrix(-0.73, -0.16, -0.15, 0.94, -407.38, -1148.75)"
            gradientUnits="userSpaceOnUse">
            <stop offset="0" stop-color="#141414" />
            <stop offset="0.44" stop-color="#1e1e1e" />
            <stop offset="0.78" stop-color="#202020" />
            <stop offset="0.98" stop-color="#292929" />
            <stop offset="1" stop-color="#2a2a2a" />
        </linearGradient>
        <linearGradient id="linear-gradient-3" x1="-2105.68" y1="1728.3" x2="-2062.09" y2="1652.8"
            gradientTransform="matrix(-0.73, -0.16, -0.15, 0.94, -407.38, -1148.75)"
            gradientUnits="userSpaceOnUse">
            <stop offset="0" stop-color="#161616" />
            <stop offset="0.3" stop-color="#1a1a1a" />
            <stop offset="0.79" stop-color="#1e1e1e" />
            <stop offset="0.8" stop-color="#1e1e1e" />
        </linearGradient>
        <linearGradient id="linear-gradient-4" x1="-1460.16" y1="1989.79" x2="-1514.1" y2="1896.37"
            xlink:href="#linear-gradient" />
        <linearGradient id="linear-gradient-5" x1="-1555.9" y1="1995.93" x2="-1508.85" y2="1914.43"
            xlink:href="#linear-gradient-2" />
        <linearGradient id="linear-gradient-6" x1="-1556.91" y1="1994.54" x2="-1511.64" y2="1916.14"
            xlink:href="#linear-gradient-3" />
    </defs>
    <g class="cls-1">
        <g id="Capa_1" data-name="Capa 1">
            <polygon class="cls-2"
                points="901.21 760.64 859.92 739.26 740.89 788.75 474.17 923.81 426.55 899.49 311.79 951.28 275.15 786.06 873.54 613.41 901.21 760.64" />
            <path class="cls-3"
                d="M789.21,774.82c-10.52-20.23-2.86-42.59,17-49.94,10.48-3.88,22.28-2.81,32.62,2l34.3,14.58-7.69,19.79c1.82,12.51-2.75,24.46-12.38,31.82l-6.84,17.59-30.41-12.91a48.16,48.16,0,0,1-5.51-2.34h0A48,48,0,0,1,789.21,774.82Z" />
            <path class="cls-4"
                d="M823.36,789.24c10.56,20.26,35.23,30.59,55,23.06s27.1-29.88,16.55-50-35-30.38-54.73-23S812.83,769,823.36,789.24Z" />
            <path class="cls-5"
                d="M827.75,789.37c10.16,19.48,33.89,29.41,52.92,22.17s26.06-28.74,15.91-48.08-33.67-29.22-52.64-22.15S817.62,769.92,827.75,789.37Z" />
            <path class="cls-6"
                d="M835.43,785.65c7.33,14.05,24.45,21.22,38.19,16s18.86-20.75,11.53-34.72-24.34-21.13-38-16S828.1,771.61,835.43,785.65Z" />
            <path class="cls-7"
                d="M836.7,784.23c6.64,12.73,22.15,19.23,34.6,14.51s17.09-18.79,10.45-31.46-22-19.15-34.48-14.5S830.06,771.51,836.7,784.23Z" />
            <path class="cls-7"
                d="M839,783.37c6,11.45,19.92,17.3,31.12,13.06s15.38-16.91,9.41-28.3-19.84-17.23-31-13a19.16,19.16,0,0,0-2.89,1.36c-8.06,4.59-11.33,14.21-8,23.63A23.68,23.68,0,0,0,839,783.37Z" />
            <path class="cls-8"
                d="M858.37,790.78c10.6-4,14.59-16,8.94-26.79a25.65,25.65,0,0,0-9.85-10.22,27.13,27.13,0,0,1,22,14.36c6,11.39,1.77,24.07-9.41,28.3-8.16,3.08-17.77.82-24.71-5.07A21.71,21.71,0,0,0,858.37,790.78Z" />
            <path class="cls-9"
                d="M839.42,781.52c3.67,7,12.22,10.61,19.1,8s9.46-10.37,5.8-17.37-12.19-10.58-19.06-8S835.76,774.51,839.42,781.52Z" />
            <path class="cls-8"
                d="M837.54,780.07a15.26,15.26,0,0,0,14.21,2.37c6.87-2.59,9.47-10.36,5.81-17.36a16.7,16.7,0,0,0-12-8.64C837.52,761,834.25,770.65,837.54,780.07Z" />
            <polygon class="cls-8"
                points="849.88 757.78 864.2 763.86 854.77 787.85 840.61 781.87 841.62 769.38 849.88 757.78" />
            <path class="cls-8"
                d="M846.83,780.42c3.66,7,12.21,10.6,19.08,8s9.44-10.36,5.78-17.36-12.18-10.57-19.05-8S843.16,773.41,846.83,780.42Z" />
            <path class="cls-7"
                d="M848.27,780.41c3.5,6.71,11.67,10.13,18.24,7.65s9-9.91,5.53-16.6-11.65-10.11-18.21-7.65S844.77,773.7,848.27,780.41Z" />
            <path class="cls-10"
                d="M347.79,937.59c-10.52-21.19-1.53-44.79,20-52.73a45.53,45.53,0,0,1,32.91,1h0l.24.1,36.5,15.12,8.13,16.23-36.13,58.28L374.91,961.3q-2.36-.84-4.64-1.92h0A47.85,47.85,0,0,1,347.79,937.59Z" />
            <path class="cls-11"
                d="M383.8,952.43c10.57,21.22,36.58,31.84,58,23.71s30-31.74,19.46-52.79-36.33-31.61-57.68-23.68S373.26,931.25,383.8,952.43Z" />
            <path class="cls-12"
                d="M383.8,952.43c10.57,21.22,36.58,31.84,58,23.71s30-31.74,19.46-52.79-36.33-31.61-57.68-23.68S373.26,931.25,383.8,952.43Z" />
            <path class="cls-13"
                d="M386.64,952.34c10.17,20.4,35.18,30.62,55.79,22.8s28.88-30.53,18.72-50.78S426.2,894,405.66,901.58,376.5,932,386.64,952.34Z" />
            <path class="cls-6"
                d="M396.83,948.52c7.33,14.72,25.38,22.09,40.26,16.46s20.89-22,13.55-36.67-25.26-22-40.11-16.45S389.5,933.81,396.83,948.52Z" />
            <path class="cls-7"
                d="M398.23,947c6.65,13.34,23,20,36.48,14.92S453.65,942,447,928.7s-22.9-19.92-36.35-14.9S391.59,933.69,398.23,947Z" />
            <path class="cls-8"
                d="M401.29,945.86c5.82,11.66,20.12,17.51,31.91,13.06s16.58-17.47,10.76-29.08-20-17.43-31.81-13S395.48,934.21,401.29,945.86Z" />
            <path class="cls-7"
                d="M403.94,944.87c5.1,10.22,17.63,15.34,28,11.44s14.53-15.3,9.44-25.48-17.57-15.29-27.89-11.43S398.85,934.66,403.94,944.87Z" />
            <path class="cls-8"
                d="M414,943.44c3,6.1,10.52,9.16,16.7,6.84s8.69-9.15,5.64-15.23-10.51-9.15-16.67-6.84S411,937.34,414,943.44Z" />
            <path class="cls-6"
                d="M436.06,939.3a8.34,8.34,0,0,1-2.28,6.6,2.07,2.07,0,0,0,0,2.73h0a2.08,2.08,0,0,0,3.06-.32,13.11,13.11,0,0,0,3-8.77,2.25,2.25,0,0,0-2.14-2.34h0A2,2,0,0,0,436.06,939.3Z" />
            <path class="cls-7"
                d="M417.07,943.16a12.13,12.13,0,0,0,14.71,6c5.43-2,7.65-8,5-13.41a12.12,12.12,0,0,0-14.68-6C416.63,931.79,414.39,937.79,417.07,943.16Z" />
            <path class="cls-8"
                d="M421.57,941.47a6.59,6.59,0,0,0,8,3.27,5.11,5.11,0,0,0,2.7-7.28,6.57,6.57,0,0,0-8-3.27A5.12,5.12,0,0,0,421.57,941.47Z" />
            <path class="cls-6"
                d="M409.26,936.38a8.36,8.36,0,0,1,2.3-6.61,2.06,2.06,0,0,0,0-2.72h0a2.1,2.1,0,0,0-3.07.31,13.13,13.13,0,0,0-3.05,8.77,2.24,2.24,0,0,0,2.14,2.35h0A2,2,0,0,0,409.26,936.38Z" />
            <path class="cls-6"
                d="M422.4,950.46a11.2,11.2,0,0,1-7.24-2.81,2.44,2.44,0,0,0-2.9-.28h0c-.76.62-.55,2,.63,3a17.72,17.72,0,0,0,9.6,3.72c1.47.11,2.5-.83,2.29-1.82h0A2.56,2.56,0,0,0,422.4,950.46Z" />
            <path class="cls-6"
                d="M422.94,925.24a11.22,11.22,0,0,1,7.22,2.81,2.43,2.43,0,0,0,2.89.28h0c.76-.61.55-2-.63-2.94a17.72,17.72,0,0,0-9.58-3.73c-1.46-.1-2.49.83-2.28,1.81h0A2.56,2.56,0,0,0,422.94,925.24Z" />
            <path class="cls-8"
                d="M435.27,947.23a13.11,13.11,0,0,0,3-8.77,2.61,2.61,0,0,0-.37-1.22,2.27,2.27,0,0,1,1.92,2.3,13.11,13.11,0,0,1-3,8.77,2.08,2.08,0,0,1-3.06.32c-.15-.16-.13-.38-.21-.57A2.29,2.29,0,0,0,435.27,947.23Z" />
            <path class="cls-8"
                d="M406.05,937.4a2,2,0,0,0,1.65-2.1,8.43,8.43,0,0,1,2.3-6.61,2,2,0,0,0,.24-2.15,1.76,1.76,0,0,1,1.34.5,2.07,2.07,0,0,1,0,2.73,8.36,8.36,0,0,0-2.3,6.61,1.79,1.79,0,0,1-3.43,1C405.9,937.36,406,937.4,406.05,937.4Z" />
            <path class="cls-8"
                d="M420.94,953c1.47.11,2.5-.83,2.29-1.82-.05-.21-.25-.34-.37-.52a2.38,2.38,0,0,1,1.92,1.6c.21,1-.82,1.93-2.29,1.82a17.72,17.72,0,0,1-9.6-3.72s0-.05-.06-.07A17.69,17.69,0,0,0,420.94,953Z" />
            <path class="cls-8"
                d="M431.5,927.25c.74-.6.54-2-.57-2.88a13.91,13.91,0,0,1,1.49,1c1.18.92,1.39,2.33.63,2.94a2.43,2.43,0,0,1-2.89-.28c-.51-.4-1-.71-1.42-1A2.35,2.35,0,0,0,431.5,927.25Z" />
            <path class="cls-8"
                d="M421.39,924.16a11.12,11.12,0,0,1,6.94,2.62,11,11,0,0,0-5.39-1.54,2.61,2.61,0,0,1-2-1.25A2,2,0,0,0,421.39,924.16Z" />
            <path id="body" class="cls-14"
                d="M31.3,907.9s80.26,62,179.54,92.45l59.69-8.78L391,948.33l-15.13-33.75s2.71-14.24,3.11-15.82,1.63-5.6,6.84-8.92,36.62-13.48,36.62-13.48,7.44-1.05,8.5-.93,7.54,2.85,7.54,2.85l13.3,8,7.92,7.32,14.72,30.11L826.29,787.3,810.78,761s-2.87-6.33-2-10.41,1.73-12.12,1.73-12.12a16.41,16.41,0,0,1,9.87-11.22c8.18-3.06,33-11.86,33-11.86s8.18.11,12.05,2.39L878,725.16s5.44,3.56,7.91,8.16l14,26.12,160.49-57.15L990.55,469.6,802,412.77,20.19,715l1.2,13.59L21,743l-1.44,11.5v86.59Z" />
            <path id="body-2" data-name="body" class="cls-15"
                d="M31.3,907.9s80.26,62,179.54,92.45l59.69-8.78L391,948.33l-15.13-33.75s2.71-14.24,3.11-15.82,1.63-5.6,6.84-8.92,36.62-13.48,36.62-13.48,7.44-1.05,8.5-.93,7.54,2.85,7.54,2.85l13.3,8,7.92,7.32,14.72,30.11L826.29,787.3,810.78,761s-2.87-6.33-2-10.41,1.73-12.12,1.73-12.12a16.41,16.41,0,0,1,9.87-11.22c8.18-3.06,33-11.86,33-11.86s8.18.11,12.05,2.39L878,725.16s5.44,3.56,7.91,8.16l14,26.12,160.49-57.15L990.55,469.6l-808,297L20.19,715l1.2,13.59L21,743l-1.44,11.5v86.59Z" />
            <path class="cls-16"
                d="M21.39,729.05,21,743.51,19.59,755s89.82,50.57,110.11,56.61c0,0,13.15,2.65,14.91,5.77s32.14,78.57,33.34,81c.41.85-.95.77-3,.35-3.88-.79-10.22-2.77-11.9-2-2.58,1.1-6,6.75-14.62,5.84,6,2.13,11.36,4,16.12,5.61l1.57.53,1.52.5,3,1,2.63.86,1.28.42c9.13,3,16.92,4.74,16.92,4.74L189.5,909l-1.8-10.69L170,765.26,20.19,715.45h0Z" />
            <path class="cls-17"
                d="M177.54,976c.88,3.35,5.69,7.47,10.74,9.18,3.5,1.18,6.18.92,7.24-.48h0a2.83,2.83,0,0,0,.32-2.49c-.89-3.36-5.69-7.48-10.75-9.19a11.48,11.48,0,0,0-4.67-.7C178.15,972.47,177,973.79,177.54,976Z" />
            <path class="cls-18"
                d="M19.59,841.61c70,33.54,170.3,78.69,170.3,78.69L176,813.28,19.59,755Z" />
            <polygon class="cls-19"
                points="471.56 918.11 822.96 781.64 826.29 787.3 474.17 923.81 471.56 918.11" />
            <path class="cls-19"
                d="M285.66,978.3l102.92-35.12,2.4,5.15L270.53,992.06l-59.69,8.78s-18.35-63.85-19.92-73.3L175.24,818l1.23-4.12,18.61,120.28,18.37,58.53Z" />
            <path class="cls-19"
                d="M1026,714.53l-.81.29-124,45.87c-.88.34-1.8-.37-2-1.58l-.78-3.86a2.45,2.45,0,0,1,1.15-2.79l122.67-46.71c.88-.33,1.79.37,2,1.57Z" />
            <polygon class="cls-20"
                points="1010.94 615.4 982.77 483.5 189.42 778.9 208.72 904.68 1010.94 615.4" />
            <polygon class="cls-20"
                points="694.5 818.17 597.85 855.37 557.69 658.32 654.16 619.71 694.5 818.17" />
            <polygon class="cls-20"
                points="1013.55 697.43 916.91 734.62 876.75 537.57 973.21 498.97 1013.55 697.43" />
            <path class="cls-21"
                d="M696.14,817.4l-99.41,38L556.05,655.76l98.78-39Zm-97.22,34.25,95.55-35.31L653.68,618.9l-94.4,38.32Z" />
            <path class="cls-21"
                d="M1015.2,698.08l-99.41,38L875.11,536.44,974.19,499ZM918,732.33l95.55-35.3L972.21,502.69,879,538.92Z" />
            <polygon class="cls-20"
                points="368.87 920.83 276.26 952.04 248.26 762.83 339.8 730.28 368.87 920.83" />
            <path class="cls-21"
                d="M370.4,921.67l-95.26,32.1L246.78,762l94.14-33.5Zm-93,28.66,90-30.33L338.68,732l-88.94,31.62Z" />
            <polygon class="cls-18"
                points="257.99 880.01 214.24 895.07 198.51 786.93 241.98 771.5 257.99 880.01" />
            <polygon class="cls-18"
                points="572.86 768.79 486.99 798.94 464.44 690.48 549.9 658.84 572.86 768.79" />
            <polygon class="cls-18"
                points="776.85 689.76 690.98 719.91 668.42 611.45 753.88 579.81 776.85 689.76" />
            <polygon class="cls-18"
                points="882.85 656.69 796.98 686.84 774.43 578.38 859.89 546.75 882.85 656.69" />
            <polygon class="cls-18"
                points="675.59 753.98 638.33 767.53 612.8 643.94 650.89 629.07 675.59 753.98" />
            <polygon class="cls-18"
                points="628.39 771.85 591.13 785.41 565.6 661.82 603.69 646.94 628.39 771.85" />
            <polygon class="cls-18"
                points="688.23 808.14 651.7 821.32 640.89 777.43 677.65 763.77 688.23 808.14" />
            <polygon class="cls-18"
                points="640.89 825.55 604.37 838.72 593.55 794.84 630.32 781.17 640.89 825.55" />
            <polygon class="cls-18"
                points="992.35 631.5 955.09 645.06 929.71 522.16 967.8 507.33 992.35 631.5" />
            <polygon class="cls-18"
                points="945.15 649.38 907.88 662.94 882.36 539.35 920.68 525.63 945.15 649.38" />
            <polygon class="cls-18"
                points="1004.99 685.67 967.17 699.31 957.65 654.96 994.41 641.29 1004.99 685.67" />
            <polygon class="cls-18"
                points="957.65 703.08 919.62 716.79 910.31 672.37 947.08 658.7 957.65 703.08" />
            <polygon class="cls-18"
                points="306.86 870.73 270.65 883.18 253.33 766.26 289.28 753.49 306.86 870.73" />
            <polygon class="cls-18"
                points="315.28 926.84 278.94 939.13 272.64 896.61 308.88 884.2 315.28 926.84" />
            <polygon class="cls-18"
                points="354.09 854.51 317.56 867.06 299.9 749.72 336.16 736.84 354.09 854.51" />
            <polygon class="cls-18"
                points="362.67 910.82 326.01 923.21 319.59 880.54 356.15 868.02 362.67 910.82" />
            <polygon class="cls-22"
                points="695.4 839.83 607.25 873.31 607.98 877.21 696.15 843.75 695.4 839.83" />
            <polygon class="cls-22"
                points="1011.77 713.85 918.29 749.35 919.1 753.34 1012.61 717.86 1011.77 713.85" />
            <polygon class="cls-22"
                points="363.83 918.48 280.07 946.74 280.64 950.57 364.42 922.34 363.83 918.48" />
            <path class="cls-19"
                d="M804.49,774.1a3.68,3.68,0,0,1-2.43,3.86c-1.65.63-3.22-.09-3.52-1.59a3.69,3.69,0,0,1,2.44-3.86C802.62,771.88,804.2,772.59,804.49,774.1Z" />
            <path class="cls-23"
                d="M804.55,772.62a3.68,3.68,0,0,1-2.44,3.87c-1.64.62-3.21-.09-3.51-1.59A3.7,3.7,0,0,1,801,771C802.68,770.41,804.25,771.12,804.55,772.62Z" />
            <path class="cls-24"
                d="M804,773.39a3.71,3.71,0,0,1-2.44,3.87c-1.64.63-3.22-.09-3.51-1.59a3.68,3.68,0,0,1,2.43-3.86C802.14,771.18,803.71,771.89,804,773.39Z" />
            <path class="cls-25"
                d="M803.56,773.57a3.14,3.14,0,0,1-2.07,3.28,2.08,2.08,0,0,1-3-1.35,3.12,3.12,0,0,1,2.07-3.28A2.08,2.08,0,0,1,803.56,773.57Z" />
            <path class="cls-19"
                d="M737.34,798.4a3.66,3.66,0,0,1-2.41,3.83c-1.62.62-3.17-.09-3.46-1.59a3.66,3.66,0,0,1,2.41-3.83C735.5,796.19,737.05,796.9,737.34,798.4Z" />
            <path class="cls-23"
                d="M737.4,796.93a3.67,3.67,0,0,1-2.41,3.84,2.41,2.41,0,0,1-3.46-1.59,3.67,3.67,0,0,1,2.41-3.84A2.41,2.41,0,0,1,737.4,796.93Z" />
            <path class="cls-24"
                d="M736.86,797.7a3.67,3.67,0,0,1-2.41,3.84c-1.62.61-3.17-.1-3.46-1.6a3.67,3.67,0,0,1,2.41-3.83C735,795.49,736.57,796.2,736.86,797.7Z" />
            <path class="cls-25"
                d="M736.42,797.87a3.11,3.11,0,0,1-2,3.25,2,2,0,0,1-2.93-1.35,3.11,3.11,0,0,1,2-3.25A2.05,2.05,0,0,1,736.42,797.87Z" />
            <path class="cls-19"
                d="M565.27,860.26a3.61,3.61,0,0,1-2.35,3.76,2.32,2.32,0,0,1-3.33-1.58,3.61,3.61,0,0,1,2.34-3.77A2.33,2.33,0,0,1,565.27,860.26Z" />
            <path class="cls-23"
                d="M565.34,858.82a3.61,3.61,0,0,1-2.35,3.76,2.33,2.33,0,0,1-3.34-1.59,3.61,3.61,0,0,1,2.35-3.76A2.33,2.33,0,0,1,565.34,858.82Z" />
            <path class="cls-24"
                d="M564.81,859.57a3.61,3.61,0,0,1-2.35,3.76,2.32,2.32,0,0,1-3.33-1.59,3.61,3.61,0,0,1,2.34-3.76A2.33,2.33,0,0,1,564.81,859.57Z" />
            <path class="cls-25"
                d="M564.83,860a3.06,3.06,0,0,1-2,3.19,2,2,0,0,1-2.83-1.35,3.07,3.07,0,0,1,2-3.19A2,2,0,0,1,564.83,860Z" />
            <path class="cls-19"
                d="M485,892.2a3.57,3.57,0,0,1-2.32,3.73,2.28,2.28,0,0,1-3.28-1.59,3.57,3.57,0,0,1,2.32-3.73A2.28,2.28,0,0,1,485,892.2Z" />
            <path class="cls-23"
                d="M485.11,890.77a3.6,3.6,0,0,1-2.32,3.73,2.28,2.28,0,0,1-3.28-1.59,3.57,3.57,0,0,1,2.32-3.73A2.29,2.29,0,0,1,485.11,890.77Z" />
            <path class="cls-24"
                d="M484.59,891.51a3.62,3.62,0,0,1-2.32,3.74,2.29,2.29,0,0,1-3.28-1.6,3.59,3.59,0,0,1,2.32-3.73A2.29,2.29,0,0,1,484.59,891.51Z" />
            <path class="cls-25"
                d="M484.16,891.68a3,3,0,0,1-2,3.16,1.94,1.94,0,0,1-2.79-1.35,3,3,0,0,1,2-3.16A1.93,1.93,0,0,1,484.16,891.68Z" />
            <path class="cls-19"
                d="M248.52,982.24a3.52,3.52,0,0,1-2.25,3.64,2.18,2.18,0,0,1-3.12-1.59,3.53,3.53,0,0,1,2.24-3.64A2.18,2.18,0,0,1,248.52,982.24Z" />
            <path class="cls-23"
                d="M248.59,980.83a3.51,3.51,0,0,1-2.24,3.64,2.17,2.17,0,0,1-3.12-1.59,3.52,3.52,0,0,1,2.24-3.64A2.18,2.18,0,0,1,248.59,980.83Z" />
            <path class="cls-24"
                d="M248.09,981.56a3.53,3.53,0,0,1-2.24,3.64,2.18,2.18,0,0,1-3.12-1.59A3.52,3.52,0,0,1,245,980,2.18,2.18,0,0,1,248.09,981.56Z" />
            <path class="cls-25"
                d="M247.68,981.72a3,3,0,0,1-1.9,3.08,1.85,1.85,0,0,1-2.65-1.34,3,3,0,0,1,1.9-3.09A1.84,1.84,0,0,1,247.68,981.72Z" />
            <polygon class="cls-26"
                points="891.63 474.08 898.98 471.59 890.45 467.98 886.49 473.53 891.63 474.08" />
            <polygon class="cls-27"
                points="886.49 473.53 877.96 469.93 876.8 467.56 885.34 471.16 886.49 473.53" />
            <polygon class="cls-28"
                points="885.34 471.16 892.69 468.67 884.17 465.07 876.8 467.56 885.34 471.16" />
            <polygon class="cls-25"
                points="885.34 471.16 892.69 468.67 893.85 471.04 886.49 473.53 885.34 471.16" />
            <polygon class="cls-26"
                points="848.92 456.04 856.31 453.56 847.77 449.94 843.77 455.49 848.92 456.04" />
            <polygon class="cls-27"
                points="843.77 455.49 835.22 451.87 834.07 449.51 842.62 453.12 843.77 455.49" />
            <polygon class="cls-28"
                points="842.62 453.12 850.01 450.64 841.47 447.02 834.07 449.51 842.62 453.12" />
            <polygon class="cls-25"
                points="842.62 453.12 850.01 450.64 851.16 453 843.77 455.49 842.62 453.12" />
            <polygon class="cls-26"
                points="806.12 437.96 813.54 435.48 804.97 431.86 800.95 437.4 806.12 437.96" />
            <polygon class="cls-27"
                points="800.95 437.4 792.37 433.78 791.22 431.41 799.8 435.03 800.95 437.4" />
            <polygon class="cls-28"
                points="799.8 435.03 807.23 432.56 798.66 428.93 791.22 431.41 799.8 435.03" />
            <polygon class="cls-25"
                points="799.8 435.03 807.23 432.56 808.37 434.92 800.95 437.4 799.8 435.03" />
            <polygon class="cls-16"
                points="1003.63 505.18 997.15 484.26 990.55 470.1 976.48 475.16 990.36 516.64 1003.63 505.18" />
            <polygon class="cls-18"
                points="1021.96 668.24 1049.76 659.15 1032.4 598.09 1003.63 505.18 988.89 517.22 1021.96 668.24" />
            <path class="cls-16"
                d="M1031.7,711.06l27.93-11.6s-8.27-37.54-9.87-40.31-27.8,9.09-27.8,9.09Z" />
            <polyline class="cls-16" points="990.36 516.64 988.89 517.22 976.48 475.16" />
            <path class="cls-17"
                d="M34.73,900.37c1.5,3.51,7,8.16,12.33,10.37,3.69,1.52,6.29,1.5,7.07.17v0a2.86,2.86,0,0,0-.16-2.51c-1.51-3.52-7-8.17-12.35-10.38a12.63,12.63,0,0,0-4.74-1.14C34.67,896.87,33.76,898.11,34.73,900.37Z" />
            <polygon class="cls-18"
                points="467.66 806.34 381.8 836.53 359.24 728.03 444.99 697.78 467.66 806.34" />
        </g>
    </g>
</svg>