<svg id="Capa_1" data-name="Capa 1" xmlns="http://www.w3.org/2000/svg" viewBox="0 0 85.43 79.07"><defs><style>.cls-1{fill:#e3e1e2;}.cls-2{fill:#534f52;}.cls-3{fill:#2e2a2c;}.cls-4{fill:#a52822;}.cls-5{fill:#c6c6c8;}.cls-6{fill:#1e1b1a;}.cls-7{fill:#5fa343;}.cls-8{fill:#477a40;}.cls-9{fill:#92bb67;}.cls-10{fill:#2d292b;}.cls-11{fill:#929394;}.cls-12{fill:#9dcdea;}.cls-13,.cls-14{fill:#fff;}.cls-13{fill-rule:evenodd;}.cls-15{fill:#30281f;}.cls-16{fill:#858586;}</style></defs><path class="cls-1" d="M79.58,116a4.1,4.1,0,0,1-1.57-.75c-.83-.45-1.43-.9-1.43-1a3.78,3.78,0,0,1,1.58.75c.82.52,1.5,1,1.42,1" transform="translate(-63.19 -44.4)"/><polygon class="cls-2" points="79.35 45.3 79.35 48 78.08 46.05 79.35 45.3"/><polygon class="cls-3" points="79.35 48 59.1 36.23 57.75 34.27 78.08 46.05 79.35 48"/><polygon class="cls-4" points="85.42 36.67 83.85 37.58 83.85 33.52 85.35 32.7 85.42 36.67"/><path class="cls-5" d="M136.76,90.07c1.43-.82,2.55-.15,2.55,1.43a5.56,5.56,0,0,1-2.55,4.42c-1.42.83-2.55.15-2.55-1.42a5.73,5.73,0,0,1,2.55-4.43" transform="translate(-63.19 -44.4)"/><path class="cls-6" d="M133.61,98.47,113.29,86.7A3,3,0,0,1,112,83.85a10,10,0,0,1,4.43-7.73L136.76,87.9a9.57,9.57,0,0,0-4.42,7.72,3,3,0,0,0,1.27,2.85" transform="translate(-63.19 -44.4)"/><path class="cls-2" d="M136.76,86.47c3.15-1.8,5.78-.37,5.78,3.3l-1.28.75c0-2.85-2-4-4.5-2.55a9.6,9.6,0,0,0-4.42,7.73l-1.28.75a12.59,12.59,0,0,1,5.7-10" transform="translate(-63.19 -44.4)"/><path class="cls-6" d="M136.76,96a5.59,5.59,0,0,0,2.55-4.43c0-1.65-1.12-2.25-2.55-1.42a5.59,5.59,0,0,0-2.55,4.42C134.21,96.15,135.41,96.75,136.76,96Zm0-8.1c2.48-1.43,4.5-.3,4.5,2.55a10,10,0,0,1-4.42,7.72c-2.48,1.43-4.5.3-4.5-2.55A9.78,9.78,0,0,1,136.76,87.9Z" transform="translate(-63.19 -44.4)"/><path class="cls-7" d="M131.06,96.37l1.28-.75Z" transform="translate(-63.19 -44.4)"/><path class="cls-7" d="M148.61,86.25l-6.07,3.52c0-3.67-2.63-5.1-5.78-3.3a12.48,12.48,0,0,0-5.7,9.9L107.44,110V87.3h0V80l41.17-23.78V77.1l-1.5.9v4l1.5-.9v5.18Z" transform="translate(-63.19 -44.4)"/><path class="cls-7" d="M107.36,87.3v0Z" transform="translate(-63.19 -44.4)"/><path class="cls-7" d="M107.36,87.3v0Z" transform="translate(-63.19 -44.4)"/><polygon class="cls-8" points="44.25 62.02 23.93 50.17 23.85 23.77 44.17 35.63 44.25 62.02"/><polygon class="cls-9" points="44.17 35.63 23.85 23.77 65.03 0 85.35 11.78 44.17 35.63"/><polygon class="cls-8" points="42.98 62.77 22.65 50.92 23.93 50.17 44.25 62.02 42.98 62.77"/><polygon class="cls-8" points="44.25 62.02 44.25 65.63 42.98 66.38 42.98 62.77 44.25 62.02"/><polygon class="cls-10" points="36.6 72.67 16.27 60.9 15 58.95 35.33 70.72 36.6 72.67"/><polygon class="cls-2" points="36.6 69.97 36.6 72.67 35.33 70.72 36.6 69.97"/><path class="cls-5" d="M94,114.82c1.43-.82,2.55-.15,2.55,1.5A5.59,5.59,0,0,1,94,120.75c-1.42.82-2.55.15-2.55-1.43a5.52,5.52,0,0,1,2.55-4.5" transform="translate(-63.19 -44.4)"/><path class="cls-6" d="M90.86,123.15c-6.75-3.9-13.5-7.88-20.25-11.78a3,3,0,0,1-1.27-2.85,10,10,0,0,1,4.42-7.72l20.33,11.77a9.61,9.61,0,0,0-4.43,7.73,2.85,2.85,0,0,0,1.2,2.85" transform="translate(-63.19 -44.4)"/><path class="cls-6" d="M94,120.67a5.56,5.56,0,0,0,2.55-4.42c0-1.65-1.12-2.25-2.55-1.5a5.59,5.59,0,0,0-2.55,4.42C91.46,120.82,92.66,121.5,94,120.67Zm0-8.1c2.48-1.42,4.5-.3,4.5,2.55a10,10,0,0,1-4.42,7.73c-2.48,1.42-4.5.3-4.5-2.55A9.81,9.81,0,0,1,94,112.57Z" transform="translate(-63.19 -44.4)"/><path class="cls-2" d="M94,111.15c3.15-1.8,5.78-.38,5.78,3.3l-1.28.75c0-2.85-2-4-4.5-2.55a9.57,9.57,0,0,0-4.42,7.72l-1.28.75a12.57,12.57,0,0,1,5.7-10" transform="translate(-63.19 -44.4)"/><polygon class="cls-11" points="21.82 78.53 1.57 66.75 1.5 62.4 21.82 74.17 21.82 78.53"/><path class="cls-8" d="M84,123.37,63.71,111.6c-.3-.15-.52-.9-.52-1.58s.3-2.55.75-2.77a6.05,6.05,0,0,0,.75-.45L85,118.57a4.87,4.87,0,0,1-.75.45c-.45.23-.75,2-.75,2.78,0,.67.23,1.42.53,1.57" transform="translate(-63.19 -44.4)"/><path class="cls-7" d="M85,118.57v4.35l-.75.45c-.45.23-.75-.75-.75-1.57s.3-2.55.75-2.78l.75-.45" transform="translate(-63.19 -44.4)"/><polygon class="cls-7" points="21.82 74.17 1.5 62.4 1.5 57.83 21.82 69.6 21.82 74.17"/><polygon class="cls-12" points="21.82 69.6 1.5 57.83 6.3 43.5 26.63 55.27 21.82 69.6"/><path class="cls-9" d="M85.24,77.25a1.29,1.29,0,0,0-1.35.15L71.44,84.6,91.69,96.37l12.45-7.2a1.5,1.5,0,0,1,1.35-.15Z" transform="translate(-63.19 -44.4)"/><path class="cls-7" d="M103.16,101.1V92.4l-10,5.77L90,108.67Zm1-11.93c1-.6,2-.15,2,1.13l.07,20.47-6.37,3.68c0-3.68-2.63-5.1-5.78-3.3a12.67,12.67,0,0,0-5.7,9.9L85,122.92V114l4.8-14.33c.53-1.42.83-2.7,1.88-3.3Z" transform="translate(-63.19 -44.4)"/><path class="cls-9" d="M89.81,99.67,69.49,87.9c.52-1.43.82-2.7,1.87-3.3L91.61,96.37c-1,.6-1.27,1.88-1.8,3.3" transform="translate(-63.19 -44.4)"/><polygon class="cls-3" points="13.05 64.65 12.6 63.98 7.88 61.13 7.5 61.5 13.05 64.65"/><path class="cls-3" d="M75.79,108.52c-.08,0-.08,0-.15-.07s-5.18-4.65-9.83-5.55c-.15,0-.22-.15-.15-.23s.15-.15.23-.15c4.72,1,9.82,5.48,10,5.63a.22.22,0,0,1,0,.3c.08.07,0,.07-.07.07" transform="translate(-63.19 -44.4)"/><polygon class="cls-3" points="21.15 69.15 20.7 68.47 15.97 65.63 15.6 66 21.15 69.15"/><path class="cls-3" d="M83.89,113.1c-.08,0-.08,0-.15-.08s-5.18-4.65-9.83-5.55c-.15,0-.22-.15-.15-.22s.15-.23.23-.15c4.72,1,9.82,5.47,10,5.62a.22.22,0,0,1,0,.3c.08,0,0,.08-.07.08" transform="translate(-63.19 -44.4)"/><path class="cls-13" d="M82.24,112.8a4.46,4.46,0,0,1,2.1,3.6c0,3.37-4.35.67-4.35-2.25,0-1.43,1.05-2,2.25-1.35" transform="translate(-63.19 -44.4)"/><path class="cls-13" d="M82.54,113.1a4,4,0,0,1,1.8,3.07c0,2.93-3.75.6-3.75-2a1.23,1.23,0,0,1,2-1.12" transform="translate(-63.19 -44.4)"/><path class="cls-6" d="M82.54,113.1a4,4,0,0,1,1.8,3.07c0,2.93-3.75.6-3.75-2a1.23,1.23,0,0,1,2-1.12" transform="translate(-63.19 -44.4)"/><path class="cls-6" d="M82.54,113.1a4,4,0,0,1,1.8,3.07c0,2.93-3.75.6-3.75-2a1.23,1.23,0,0,1,2-1.12" transform="translate(-63.19 -44.4)"/><path class="cls-14" d="M84.26,114.22c.6,1.28.45,2.55-.3,2.93s-1.87-.3-2.55-1.58-.45-2.55.3-2.92,2,.37,2.55,1.57" transform="translate(-63.19 -44.4)"/><path class="cls-6" d="M82.54,113.1a4,4,0,0,1,1.8,3.07c0,2.93-3.75.6-3.75-2a1.23,1.23,0,0,1,2-1.12" transform="translate(-63.19 -44.4)"/><path class="cls-14" d="M84.26,114.3c.6,1.2.45,2.55-.3,2.92s-1.87-.3-2.47-1.5-.45-2.55.3-2.92,1.87.22,2.47,1.5" transform="translate(-63.19 -44.4)"/><path class="cls-6" d="M82.54,113.1a4,4,0,0,1,1.8,3.07c0,2.93-3.75.6-3.75-2a1.23,1.23,0,0,1,2-1.12" transform="translate(-63.19 -44.4)"/><path class="cls-14" d="M84.26,114.3c.6,1.2.45,2.47-.3,2.85s-1.8-.3-2.4-1.5-.45-2.48.3-2.85,1.8.3,2.4,1.5" transform="translate(-63.19 -44.4)"/><path class="cls-6" d="M82.54,113.1a4,4,0,0,1,1.8,3.07c0,2.93-3.75.6-3.75-2a1.23,1.23,0,0,1,2-1.12" transform="translate(-63.19 -44.4)"/><path class="cls-14" d="M84.19,114.3c.6,1.2.45,2.4-.3,2.77s-1.8-.3-2.33-1.5-.45-2.4.3-2.77,1.8.3,2.33,1.5" transform="translate(-63.19 -44.4)"/><path class="cls-6" d="M82.54,113.1a4,4,0,0,1,1.8,3.07c0,2.93-3.75.6-3.75-2a1.23,1.23,0,0,1,2-1.12" transform="translate(-63.19 -44.4)"/><path class="cls-14" d="M84.19,114.3c.52,1.12.45,2.4-.3,2.7s-1.73-.3-2.33-1.43-.45-2.4.3-2.7,1.73.3,2.33,1.43" transform="translate(-63.19 -44.4)"/><path class="cls-6" d="M82.54,113.1a4,4,0,0,1,1.8,3.07c0,2.93-3.75.6-3.75-2a1.23,1.23,0,0,1,2-1.12" transform="translate(-63.19 -44.4)"/><path class="cls-14" d="M84.19,114.3c.52,1.12.45,2.32-.3,2.62s-1.73-.3-2.25-1.42-.45-2.33.3-2.63,1.65.3,2.25,1.43" transform="translate(-63.19 -44.4)"/><path class="cls-6" d="M82.54,113.1a4,4,0,0,1,1.8,3.07c0,2.93-3.75.6-3.75-2a1.23,1.23,0,0,1,2-1.12" transform="translate(-63.19 -44.4)"/><path class="cls-14" d="M84.11,114.37c.53,1.13.45,2.25-.22,2.63s-1.65-.3-2.25-1.35-.45-2.25.22-2.63,1.73.23,2.25,1.35" transform="translate(-63.19 -44.4)"/><path class="cls-6" d="M82.54,113.1a4,4,0,0,1,1.8,3.07c0,2.93-3.75.6-3.75-2a1.23,1.23,0,0,1,2-1.12" transform="translate(-63.19 -44.4)"/><path class="cls-14" d="M84.11,114.37c.53,1,.45,2.18-.22,2.55s-1.65-.3-2.18-1.35-.45-2.25.23-2.55,1.65.23,2.17,1.35" transform="translate(-63.19 -44.4)"/><path class="cls-6" d="M82.54,113.1a4,4,0,0,1,1.8,3.07c0,2.93-3.75.6-3.75-2a1.23,1.23,0,0,1,2-1.12" transform="translate(-63.19 -44.4)"/><path class="cls-14" d="M84.11,114.37c.53,1,.38,2.18-.22,2.48s-1.58-.3-2.1-1.35-.38-2.18.22-2.48,1.58.3,2.1,1.35" transform="translate(-63.19 -44.4)"/><path class="cls-6" d="M82.54,113.1a4,4,0,0,1,1.8,3.07c0,2.93-3.75.6-3.75-2a1.23,1.23,0,0,1,2-1.12" transform="translate(-63.19 -44.4)"/><path class="cls-14" d="M84,114.37c.52,1,.37,2.1-.23,2.4s-1.57-.3-2.1-1.27-.37-2.1.23-2.4,1.57.22,2.1,1.27" transform="translate(-63.19 -44.4)"/><path class="cls-6" d="M82.54,113.1a4,4,0,0,1,1.8,3.07c0,2.93-3.75.6-3.75-2a1.23,1.23,0,0,1,2-1.12" transform="translate(-63.19 -44.4)"/><path class="cls-14" d="M84,114.37c.52,1,.37,2.1-.23,2.4s-1.5-.22-2-1.27a1.83,1.83,0,0,1,.22-2.4c.6-.3,1.5.3,2,1.27" transform="translate(-63.19 -44.4)"/><path class="cls-6" d="M82.54,113.1a4,4,0,0,1,1.8,3.07c0,2.93-3.75.6-3.75-2a1.23,1.23,0,0,1,2-1.12" transform="translate(-63.19 -44.4)"/><path class="cls-14" d="M84,114.37c.45,1,.38,2-.22,2.33s-1.5-.23-1.95-1.2-.38-2,.22-2.33,1.5.23,1.95,1.2" transform="translate(-63.19 -44.4)"/><path class="cls-6" d="M82.54,113.1a4,4,0,0,1,1.8,3.07c0,2.93-3.75.6-3.75-2a1.23,1.23,0,0,1,2-1.12" transform="translate(-63.19 -44.4)"/><path class="cls-14" d="M84,114.45c.45,1,.38,2-.22,2.25s-1.43-.23-1.95-1.2-.38-2,.22-2.25,1.5.22,1.95,1.2" transform="translate(-63.19 -44.4)"/><path class="cls-6" d="M82.54,113.1a4,4,0,0,1,1.8,3.07c0,2.93-3.75.6-3.75-2a1.23,1.23,0,0,1,2-1.12" transform="translate(-63.19 -44.4)"/><path class="cls-14" d="M84,114.45c.45.9.38,1.87-.22,2.17s-1.43-.22-1.88-1.2-.37-1.87.23-2.17,1.42.22,1.87,1.2" transform="translate(-63.19 -44.4)"/><path class="cls-6" d="M82.54,113.1a4,4,0,0,1,1.8,3.07c0,2.93-3.75.6-3.75-2a1.23,1.23,0,0,1,2-1.12" transform="translate(-63.19 -44.4)"/><path class="cls-14" d="M83.89,114.45c.45.9.37,1.87-.23,2.17s-1.35-.22-1.8-1.12-.37-1.88.23-2.1c.6-.38,1.35.15,1.8,1" transform="translate(-63.19 -44.4)"/><path class="cls-6" d="M82.54,113.1a4,4,0,0,1,1.8,3.07c0,2.93-3.75.6-3.75-2a1.23,1.23,0,0,1,2-1.12" transform="translate(-63.19 -44.4)"/><path class="cls-14" d="M83.89,114.45c.45.9.37,1.8-.23,2.1s-1.35-.23-1.8-1.13-.37-1.8.23-2.1,1.35.23,1.8,1.13" transform="translate(-63.19 -44.4)"/><path class="cls-6" d="M82.54,113.1a4,4,0,0,1,1.8,3.07c0,2.93-3.75.6-3.75-2a1.23,1.23,0,0,1,2-1.12" transform="translate(-63.19 -44.4)"/><path class="cls-14" d="M83.89,114.45a1.51,1.51,0,0,1-.23,2c-.52.23-1.27-.22-1.72-1s-.3-1.8.22-2,1.28.22,1.73,1" transform="translate(-63.19 -44.4)"/><path class="cls-6" d="M82.54,113.1a4,4,0,0,1,1.8,3.07c0,2.93-3.75.6-3.75-2a1.23,1.23,0,0,1,2-1.12" transform="translate(-63.19 -44.4)"/><path class="cls-14" d="M83.81,114.52c.38.83.3,1.73-.22,2s-1.28-.22-1.65-1-.3-1.72.22-2,1.28.15,1.65,1" transform="translate(-63.19 -44.4)"/><path class="cls-6" d="M82.54,113.1a4,4,0,0,1,1.8,3.07c0,2.93-3.75.6-3.75-2a1.23,1.23,0,0,1,2-1.12" transform="translate(-63.19 -44.4)"/><path class="cls-14" d="M83.81,114.52c.38.83.3,1.65-.22,1.88s-1.2-.23-1.65-1-.3-1.65.22-1.87,1.28.15,1.65,1" transform="translate(-63.19 -44.4)"/><path class="cls-6" d="M82.54,113.1a4,4,0,0,1,1.8,3.07c0,2.93-3.75.6-3.75-2a1.23,1.23,0,0,1,2-1.12" transform="translate(-63.19 -44.4)"/><path class="cls-14" d="M83.81,114.52a1.51,1.51,0,0,1-.15,1.88c-.52.22-1.2-.23-1.57-1a1.5,1.5,0,0,1,.15-1.87c.45-.23,1.12.15,1.57,1" transform="translate(-63.19 -44.4)"/><path class="cls-6" d="M82.54,113.1a4,4,0,0,1,1.8,3.07c0,2.93-3.75.6-3.75-2a1.23,1.23,0,0,1,2-1.12" transform="translate(-63.19 -44.4)"/><path class="cls-14" d="M83.74,114.52c.37.75.3,1.58-.15,1.8s-1.13-.22-1.5-1-.3-1.58.15-1.8,1.12.22,1.5,1" transform="translate(-63.19 -44.4)"/><path class="cls-6" d="M82.54,113.1a4,4,0,0,1,1.8,3.07c0,2.93-3.75.6-3.75-2a1.23,1.23,0,0,1,2-1.12" transform="translate(-63.19 -44.4)"/><path class="cls-14" d="M83.74,114.52c.37.75.3,1.5-.15,1.73s-1.13-.15-1.5-.9-.3-1.5.15-1.73,1.12.15,1.5.9" transform="translate(-63.19 -44.4)"/><path class="cls-6" d="M82.54,113.1a4,4,0,0,1,1.8,3.07c0,2.93-3.75.6-3.75-2a1.23,1.23,0,0,1,2-1.12" transform="translate(-63.19 -44.4)"/><path class="cls-14" d="M83.66,114.52c.38.68.3,1.43-.15,1.65s-1.05-.15-1.42-.9-.3-1.42.15-1.65a1.35,1.35,0,0,1,1.42.9" transform="translate(-63.19 -44.4)"/><path class="cls-6" d="M82.54,113.1a4,4,0,0,1,1.8,3.07c0,2.93-3.75.6-3.75-2a1.23,1.23,0,0,1,2-1.12" transform="translate(-63.19 -44.4)"/><path class="cls-14" d="M83.66,114.6c.3.67.23,1.42-.15,1.65s-1.05-.15-1.35-.83-.3-1.42.15-1.65,1,.08,1.35.83" transform="translate(-63.19 -44.4)"/><path class="cls-6" d="M82.54,113.1a4,4,0,0,1,1.8,3.07c0,2.93-3.75.6-3.75-2a1.23,1.23,0,0,1,2-1.12" transform="translate(-63.19 -44.4)"/><path class="cls-14" d="M83.66,114.6c.3.67.23,1.35-.15,1.57s-1-.15-1.35-.82-.22-1.35.15-1.58,1,.15,1.35.83" transform="translate(-63.19 -44.4)"/><path class="cls-6" d="M82.54,113.1a4,4,0,0,1,1.8,3.07c0,2.93-3.75.6-3.75-2a1.23,1.23,0,0,1,2-1.12" transform="translate(-63.19 -44.4)"/><path class="cls-14" d="M83.59,114.6a1.19,1.19,0,0,1-.15,1.5c-.38.22-1-.15-1.28-.83a1.19,1.19,0,0,1,.15-1.5c.38-.15,1,.15,1.28.83" transform="translate(-63.19 -44.4)"/><path class="cls-6" d="M82.54,113.1a4,4,0,0,1,1.8,3.07c0,2.93-3.75.6-3.75-2a1.23,1.23,0,0,1,2-1.12" transform="translate(-63.19 -44.4)"/><path class="cls-14" d="M83.59,114.6c.3.6.22,1.27-.15,1.42s-.9-.15-1.2-.75-.23-1.27.15-1.42.9.15,1.2.75" transform="translate(-63.19 -44.4)"/><path class="cls-6" d="M82.54,113.1a4,4,0,0,1,1.8,3.07c0,2.93-3.75.6-3.75-2a1.23,1.23,0,0,1,2-1.12" transform="translate(-63.19 -44.4)"/><path class="cls-14" d="M83.59,114.6c.3.6.22,1.2-.15,1.42s-.9-.15-1.2-.75-.23-1.2.15-1.42.9.22,1.2.75" transform="translate(-63.19 -44.4)"/><path class="cls-6" d="M82.54,113.1a4,4,0,0,1,1.8,3.07c0,2.93-3.75.6-3.75-2a1.23,1.23,0,0,1,2-1.12" transform="translate(-63.19 -44.4)"/><path class="cls-14" d="M83.51,114.6a1,1,0,0,1-.15,1.35c-.37.15-.82-.15-1.12-.68a1,1,0,0,1,.15-1.35c.37-.15.9.15,1.12.68" transform="translate(-63.19 -44.4)"/><path class="cls-6" d="M82.54,113.1a4,4,0,0,1,1.8,3.07c0,2.93-3.75.6-3.75-2a1.23,1.23,0,0,1,2-1.12" transform="translate(-63.19 -44.4)"/><path class="cls-14" d="M83.51,114.67c.23.53.23,1.13-.15,1.28s-.82-.15-1-.68-.22-1.12.15-1.27.75.15,1.05.67" transform="translate(-63.19 -44.4)"/><path class="cls-6" d="M82.54,113.1a4,4,0,0,1,1.8,3.07c0,2.93-3.75.6-3.75-2a1.23,1.23,0,0,1,2-1.12" transform="translate(-63.19 -44.4)"/><path class="cls-14" d="M83.44,114.67c.22.53.22,1-.15,1.2s-.75-.15-1.05-.67-.23-1,.15-1.2.82.15,1,.67" transform="translate(-63.19 -44.4)"/><path class="cls-6" d="M82.54,113.1a4,4,0,0,1,1.8,3.07c0,2.93-3.75.6-3.75-2a1.23,1.23,0,0,1,2-1.12" transform="translate(-63.19 -44.4)"/><path class="cls-14" d="M83.44,114.67c.22.53.22,1-.15,1.13s-.75-.15-1-.6-.22-1,.15-1.13.75.15,1,.6" transform="translate(-63.19 -44.4)"/><path class="cls-6" d="M82.54,113.1a4,4,0,0,1,1.8,3.07c0,2.93-3.75.6-3.75-2a1.23,1.23,0,0,1,2-1.12" transform="translate(-63.19 -44.4)"/><path class="cls-14" d="M83.44,114.67a1,1,0,0,1-.08,1.13c-.3.15-.67-.15-.9-.6a1,1,0,0,1,.08-1.13c.22-.07.67.15.9.6" transform="translate(-63.19 -44.4)"/><path class="cls-6" d="M82.54,113.1a4,4,0,0,1,1.8,3.07c0,2.93-3.75.6-3.75-2a1.23,1.23,0,0,1,2-1.12" transform="translate(-63.19 -44.4)"/><path class="cls-14" d="M83.36,114.67a.85.85,0,0,1-.07,1c-.3.15-.68-.15-.9-.52a.85.85,0,0,1,.07-1c.3-.15.68.15.9.52" transform="translate(-63.19 -44.4)"/><path class="cls-6" d="M82.54,113.1a4,4,0,0,1,1.8,3.07c0,2.93-3.75.6-3.75-2a1.23,1.23,0,0,1,2-1.12" transform="translate(-63.19 -44.4)"/><path class="cls-14" d="M83.36,114.75c.23.45.15.82-.07,1s-.6-.07-.83-.52-.15-.82.08-1,.6.08.82.53" transform="translate(-63.19 -44.4)"/><path class="cls-6" d="M82.54,113.1a4,4,0,0,1,1.8,3.07c0,2.93-3.75.6-3.75-2a1.23,1.23,0,0,1,2-1.12" transform="translate(-63.19 -44.4)"/><path class="cls-14" d="M83.36,114.75c.23.37.15.82-.07.9s-.6-.08-.83-.53-.15-.82.08-.9.6.15.82.53" transform="translate(-63.19 -44.4)"/><path class="cls-6" d="M82.54,113.1a4,4,0,0,1,1.8,3.07c0,2.93-3.75.6-3.75-2a1.23,1.23,0,0,1,2-1.12" transform="translate(-63.19 -44.4)"/><path class="cls-14" d="M83.29,114.75c.15.37.15.75-.08.9s-.52-.08-.75-.45-.15-.75.08-.9.6.07.75.45" transform="translate(-63.19 -44.4)"/><path class="cls-6" d="M82.54,113.1a4,4,0,0,1,1.8,3.07c0,2.93-3.75.6-3.75-2a1.23,1.23,0,0,1,2-1.12" transform="translate(-63.19 -44.4)"/><path class="cls-14" d="M83.29,114.75c.15.37.15.67-.08.82s-.52-.07-.67-.45-.15-.67.07-.82.53.15.68.45" transform="translate(-63.19 -44.4)"/><path class="cls-6" d="M82.54,113.1a4,4,0,0,1,1.8,3.07c0,2.93-3.75.6-3.75-2a1.23,1.23,0,0,1,2-1.12" transform="translate(-63.19 -44.4)"/><path class="cls-14" d="M83.29,114.75c.15.3.15.67-.08.75s-.45-.08-.67-.38-.15-.67.07-.75.45.08.68.38" transform="translate(-63.19 -44.4)"/><path class="cls-6" d="M82.54,113.1a4,4,0,0,1,1.8,3.07c0,2.93-3.75.6-3.75-2a1.23,1.23,0,0,1,2-1.12" transform="translate(-63.19 -44.4)"/><path class="cls-14" d="M83.21,114.75c.15.3.15.6-.07.67s-.45-.07-.6-.37-.15-.6.07-.68.45.15.6.38" transform="translate(-63.19 -44.4)"/><path class="cls-6" d="M82.54,113.1a4,4,0,0,1,1.8,3.07c0,2.93-3.75.6-3.75-2a1.23,1.23,0,0,1,2-1.12" transform="translate(-63.19 -44.4)"/><path class="cls-14" d="M83.21,114.82c.15.3.08.53-.07.6s-.38-.07-.53-.3-.07-.52.08-.6.37,0,.52.3" transform="translate(-63.19 -44.4)"/><path class="cls-6" d="M82.54,113.1a4,4,0,0,1,1.8,3.07c0,2.93-3.75.6-3.75-2a1.23,1.23,0,0,1,2-1.12" transform="translate(-63.19 -44.4)"/><path class="cls-14" d="M83.14,114.82a.44.44,0,0,1-.08.6c-.15.08-.37-.07-.52-.3a.36.36,0,1,1,.6-.3" transform="translate(-63.19 -44.4)"/><path class="cls-6" d="M82.54,113.1a4,4,0,0,1,1.8,3.07c0,2.93-3.75.6-3.75-2a1.23,1.23,0,0,1,2-1.12" transform="translate(-63.19 -44.4)"/><path class="cls-14" d="M83.14,114.82c.07.23.07.45-.08.53s-.3-.08-.45-.3-.07-.45.08-.53.37.08.45.3" transform="translate(-63.19 -44.4)"/><path class="cls-6" d="M82.54,113.1a4,4,0,0,1,1.8,3.07c0,2.93-3.75.6-3.75-2a1.23,1.23,0,0,1,2-1.12" transform="translate(-63.19 -44.4)"/><path class="cls-14" d="M83.14,114.82c.07.23.07.38-.08.45s-.3-.07-.37-.22-.08-.38.07-.45.23.07.38.22" transform="translate(-63.19 -44.4)"/><path class="cls-6" d="M82.54,113.1a4,4,0,0,1,1.8,3.07c0,2.93-3.75.6-3.75-2a1.23,1.23,0,0,1,2-1.12" transform="translate(-63.19 -44.4)"/><path class="cls-14" d="M83.06,114.82c.08.15.08.38-.07.38s-.23-.08-.38-.23-.07-.37.08-.37a.4.4,0,0,1,.37.22" transform="translate(-63.19 -44.4)"/><path class="cls-6" d="M82.54,113.1a4,4,0,0,1,1.8,3.07c0,2.93-3.75.6-3.75-2a1.23,1.23,0,0,1,2-1.12" transform="translate(-63.19 -44.4)"/><path class="cls-14" d="M83.06,114.9c.08.15.08.3,0,.37s-.22,0-.3-.15a.34.34,0,0,1,0-.37c.08-.15.23,0,.3.15" transform="translate(-63.19 -44.4)"/><path class="cls-6" d="M82.54,113.1a4,4,0,0,1,1.8,3.07c0,2.93-3.75.6-3.75-2a1.23,1.23,0,0,1,2-1.12" transform="translate(-63.19 -44.4)"/><path class="cls-14" d="M83.06,114.9c.08.15.08.22,0,.3s-.15,0-.22-.15-.08-.23,0-.3.15,0,.22.15" transform="translate(-63.19 -44.4)"/><path class="cls-6" d="M82.54,113.1a4,4,0,0,1,1.8,3.07c0,2.93-3.75.6-3.75-2a1.23,1.23,0,0,1,2-1.12" transform="translate(-63.19 -44.4)"/><path class="cls-14" d="M83,114.9c.07.07,0,.22,0,.22s-.15,0-.23-.15,0-.22,0-.22.23.07.23.15" transform="translate(-63.19 -44.4)"/><path class="cls-6" d="M82.54,113.1a4,4,0,0,1,1.8,3.07c0,2.93-3.75.6-3.75-2a1.23,1.23,0,0,1,2-1.12" transform="translate(-63.19 -44.4)"/><path class="cls-14" d="M83,114.9v.15c-.08,0-.08,0-.15-.08v-.15c.07,0,.07,0,.15.08" transform="translate(-63.19 -44.4)"/><path class="cls-6" d="M82.54,113.1a4,4,0,0,1,1.8,3.07c0,2.93-3.75.6-3.75-2a1.23,1.23,0,0,1,2-1.12" transform="translate(-63.19 -44.4)"/><path class="cls-14" d="M82.91,114.9v.15a.07.07,0,0,1-.07-.08v-.15c.07,0,.07.08.07.08" transform="translate(-63.19 -44.4)"/><path class="cls-6" d="M82.54,113.1a4,4,0,0,1,1.8,3.07c0,2.93-3.75.6-3.75-2a1.23,1.23,0,0,1,2-1.12" transform="translate(-63.19 -44.4)"/><path class="cls-14" d="M82.91,114.9h0c-.07.07-.07,0,0,0" transform="translate(-63.19 -44.4)"/><path class="cls-13" d="M67.16,104.25A3.85,3.85,0,0,1,69,107.4c0,3-3.82.6-3.82-2a1.26,1.26,0,0,1,2-1.2" transform="translate(-63.19 -44.4)"/><path class="cls-13" d="M67.39,104.55a3.41,3.41,0,0,1,1.57,2.7c0,2.55-3.3.52-3.3-1.73.08-1,.83-1.5,1.73-1" transform="translate(-63.19 -44.4)"/><path class="cls-6" d="M67.39,104.55a3.41,3.41,0,0,1,1.57,2.7c0,2.55-3.3.52-3.3-1.73.08-1,.83-1.5,1.73-1" transform="translate(-63.19 -44.4)"/><path class="cls-6" d="M67.39,104.55a3.41,3.41,0,0,1,1.57,2.7c0,2.55-3.3.52-3.3-1.73.08-1,.83-1.5,1.73-1" transform="translate(-63.19 -44.4)"/><path class="cls-14" d="M69,105.52c.53,1.13.45,2.25-.22,2.63s-1.65-.3-2.25-1.35-.45-2.25.22-2.63,1.73.3,2.25,1.35" transform="translate(-63.19 -44.4)"/><path class="cls-6" d="M67.39,104.55a3.41,3.41,0,0,1,1.57,2.7c0,2.55-3.3.52-3.3-1.73.08-1,.83-1.5,1.73-1" transform="translate(-63.19 -44.4)"/><path class="cls-14" d="M69,105.52c.53,1,.45,2.25-.22,2.55s-1.65-.3-2.18-1.35-.45-2.25.23-2.55,1.65.3,2.17,1.35" transform="translate(-63.19 -44.4)"/><path class="cls-6" d="M67.39,104.55a3.41,3.41,0,0,1,1.57,2.7c0,2.55-3.3.52-3.3-1.73.08-1,.83-1.5,1.73-1" transform="translate(-63.19 -44.4)"/><path class="cls-14" d="M69,105.52c.53,1,.38,2.18-.22,2.48s-1.65-.3-2.1-1.35-.38-2.18.22-2.48,1.58.3,2.1,1.35" transform="translate(-63.19 -44.4)"/><path class="cls-6" d="M67.39,104.55a3.41,3.41,0,0,1,1.57,2.7c0,2.55-3.3.52-3.3-1.73.08-1,.83-1.5,1.73-1" transform="translate(-63.19 -44.4)"/><path class="cls-14" d="M68.89,105.6c.52,1.05.37,2.1-.23,2.47s-1.57-.3-2.1-1.27a1.94,1.94,0,0,1,.23-2.48c.67-.37,1.65.23,2.1,1.28" transform="translate(-63.19 -44.4)"/><path class="cls-6" d="M67.39,104.55a3.41,3.41,0,0,1,1.57,2.7c0,2.55-3.3.52-3.3-1.73.08-1,.83-1.5,1.73-1" transform="translate(-63.19 -44.4)"/><path class="cls-14" d="M68.89,105.6c.52,1.05.37,2.1-.23,2.4s-1.57-.23-2-1.28-.38-2.1.22-2.4,1.5.23,2,1.28" transform="translate(-63.19 -44.4)"/><path class="cls-6" d="M67.39,104.55a3.41,3.41,0,0,1,1.57,2.7c0,2.55-3.3.52-3.3-1.73.08-1,.83-1.5,1.73-1" transform="translate(-63.19 -44.4)"/><path class="cls-14" d="M68.89,105.6c.45,1,.37,2-.23,2.32s-1.5-.22-2-1.27-.38-2,.22-2.33,1.5.3,2,1.28" transform="translate(-63.19 -44.4)"/><path class="cls-6" d="M67.39,104.55a3.41,3.41,0,0,1,1.57,2.7c0,2.55-3.3.52-3.3-1.73.08-1,.83-1.5,1.73-1" transform="translate(-63.19 -44.4)"/><path class="cls-14" d="M68.81,105.6c.45,1,.38,2-.22,2.32s-1.5-.22-2-1.2-.38-2,.22-2.32,1.5.22,2,1.2" transform="translate(-63.19 -44.4)"/><path class="cls-6" d="M67.39,104.55a3.41,3.41,0,0,1,1.57,2.7c0,2.55-3.3.52-3.3-1.73.08-1,.83-1.5,1.73-1" transform="translate(-63.19 -44.4)"/><path class="cls-14" d="M68.81,105.6c.45,1,.38,2-.22,2.25s-1.43-.23-2-1.2-.38-2,.22-2.25,1.5.3,2,1.2" transform="translate(-63.19 -44.4)"/><path class="cls-6" d="M67.39,104.55a3.41,3.41,0,0,1,1.57,2.7c0,2.55-3.3.52-3.3-1.73.08-1,.83-1.5,1.73-1" transform="translate(-63.19 -44.4)"/><path class="cls-14" d="M68.81,105.6c.45.9.38,1.87-.22,2.17s-1.43-.22-1.88-1.2-.37-1.87.23-2.17,1.42.3,1.87,1.2" transform="translate(-63.19 -44.4)"/><path class="cls-6" d="M67.39,104.55a3.41,3.41,0,0,1,1.57,2.7c0,2.55-3.3.52-3.3-1.73.08-1,.83-1.5,1.73-1" transform="translate(-63.19 -44.4)"/><path class="cls-14" d="M68.74,105.67c.45.9.37,1.88-.23,2.18s-1.35-.23-1.8-1.13-.37-1.87.23-2.17,1.35.22,1.8,1.12" transform="translate(-63.19 -44.4)"/><path class="cls-6" d="M67.39,104.55a3.41,3.41,0,0,1,1.57,2.7c0,2.55-3.3.52-3.3-1.73.08-1,.83-1.5,1.73-1" transform="translate(-63.19 -44.4)"/><path class="cls-14" d="M68.74,105.67c.45.9.37,1.8-.23,2.1s-1.35-.22-1.8-1.12-.3-1.8.23-2.1,1.35.22,1.8,1.12" transform="translate(-63.19 -44.4)"/><path class="cls-6" d="M67.39,104.55a3.41,3.41,0,0,1,1.57,2.7c0,2.55-3.3.52-3.3-1.73.08-1,.83-1.5,1.73-1" transform="translate(-63.19 -44.4)"/><path class="cls-14" d="M68.74,105.67c.45.83.3,1.8-.23,2s-1.35-.23-1.72-1-.3-1.8.22-2,1.28.15,1.73,1" transform="translate(-63.19 -44.4)"/><path class="cls-6" d="M67.39,104.55a3.41,3.41,0,0,1,1.57,2.7c0,2.55-3.3.52-3.3-1.73.08-1,.83-1.5,1.73-1" transform="translate(-63.19 -44.4)"/><path class="cls-14" d="M68.66,105.67a1.53,1.53,0,0,1-.22,2c-.53.22-1.28-.23-1.73-1a1.52,1.52,0,0,1,.23-2,1.52,1.52,0,0,1,1.72,1" transform="translate(-63.19 -44.4)"/><path class="cls-6" d="M67.39,104.55a3.41,3.41,0,0,1,1.57,2.7c0,2.55-3.3.52-3.3-1.73.08-1,.83-1.5,1.73-1" transform="translate(-63.19 -44.4)"/><path class="cls-14" d="M68.66,105.67c.38.83.3,1.65-.22,2s-1.28-.22-1.65-1.05-.3-1.65.22-1.95,1.28.23,1.65,1" transform="translate(-63.19 -44.4)"/><path class="cls-6" d="M67.39,104.55a3.41,3.41,0,0,1,1.57,2.7c0,2.55-3.3.52-3.3-1.73.08-1,.83-1.5,1.73-1" transform="translate(-63.19 -44.4)"/><path class="cls-14" d="M68.66,105.67c.38.83.3,1.65-.22,1.88s-1.2-.23-1.58-1-.3-1.65.23-1.87,1.2.22,1.57,1" transform="translate(-63.19 -44.4)"/><path class="cls-6" d="M67.39,104.55a3.41,3.41,0,0,1,1.57,2.7c0,2.55-3.3.52-3.3-1.73.08-1,.83-1.5,1.73-1" transform="translate(-63.19 -44.4)"/><path class="cls-14" d="M68.59,105.75c.37.75.3,1.57-.15,1.8s-1.2-.23-1.58-1-.3-1.57.15-1.8,1.2.15,1.58,1" transform="translate(-63.19 -44.4)"/><path class="cls-6" d="M67.39,104.55a3.41,3.41,0,0,1,1.57,2.7c0,2.55-3.3.52-3.3-1.73.08-1,.83-1.5,1.73-1" transform="translate(-63.19 -44.4)"/><path class="cls-14" d="M68.59,105.75c.37.75.3,1.57-.15,1.8s-1.13-.23-1.5-1-.3-1.57.15-1.8,1.12.23,1.5,1" transform="translate(-63.19 -44.4)"/><path class="cls-6" d="M67.39,104.55a3.41,3.41,0,0,1,1.57,2.7c0,2.55-3.3.52-3.3-1.73.08-1,.83-1.5,1.73-1" transform="translate(-63.19 -44.4)"/><path class="cls-14" d="M68.59,105.75c.37.75.3,1.5-.15,1.72s-1.13-.22-1.5-.9-.3-1.5.15-1.72,1.12.15,1.5.9" transform="translate(-63.19 -44.4)"/><path class="cls-6" d="M67.39,104.55a3.41,3.41,0,0,1,1.57,2.7c0,2.55-3.3.52-3.3-1.73.08-1,.83-1.5,1.73-1" transform="translate(-63.19 -44.4)"/><path class="cls-14" d="M68.51,105.75c.38.67.3,1.5-.15,1.65s-1-.15-1.42-.9-.3-1.5.15-1.65,1.12.22,1.42.9" transform="translate(-63.19 -44.4)"/><path class="cls-6" d="M67.39,104.55a3.41,3.41,0,0,1,1.57,2.7c0,2.55-3.3.52-3.3-1.73.08-1,.83-1.5,1.73-1" transform="translate(-63.19 -44.4)"/><path class="cls-14" d="M68.51,105.75c.38.67.3,1.42-.15,1.65s-1-.15-1.42-.9-.3-1.43.15-1.65a1.33,1.33,0,0,1,1.42.9" transform="translate(-63.19 -44.4)"/><path class="cls-6" d="M67.39,104.55a3.41,3.41,0,0,1,1.57,2.7c0,2.55-3.3.52-3.3-1.73.08-1,.83-1.5,1.73-1" transform="translate(-63.19 -44.4)"/><path class="cls-14" d="M68.51,105.75c.3.67.23,1.35-.15,1.57s-1-.15-1.35-.82-.22-1.35.15-1.58,1,.15,1.35.83" transform="translate(-63.19 -44.4)"/><path class="cls-6" d="M67.39,104.55a3.41,3.41,0,0,1,1.57,2.7c0,2.55-3.3.52-3.3-1.73.08-1,.83-1.5,1.73-1" transform="translate(-63.19 -44.4)"/><path class="cls-14" d="M68.51,105.75c.3.67.23,1.35-.15,1.5s-1-.15-1.27-.83-.23-1.35.15-1.5.9.23,1.27.83" transform="translate(-63.19 -44.4)"/><path class="cls-6" d="M67.39,104.55a3.41,3.41,0,0,1,1.57,2.7c0,2.55-3.3.52-3.3-1.73.08-1,.83-1.5,1.73-1" transform="translate(-63.19 -44.4)"/><path class="cls-14" d="M68.44,105.82c.3.6.22,1.28-.15,1.5s-1-.15-1.28-.82-.22-1.28.15-1.5,1,.15,1.28.82" transform="translate(-63.19 -44.4)"/><path class="cls-6" d="M67.39,104.55a3.41,3.41,0,0,1,1.57,2.7c0,2.55-3.3.52-3.3-1.73.08-1,.83-1.5,1.73-1" transform="translate(-63.19 -44.4)"/><path class="cls-14" d="M68.44,105.82c.3.6.22,1.28-.15,1.43s-.9-.15-1.2-.75-.23-1.28.15-1.43.9.15,1.2.75" transform="translate(-63.19 -44.4)"/><path class="cls-6" d="M67.39,104.55a3.41,3.41,0,0,1,1.57,2.7c0,2.55-3.3.52-3.3-1.73.08-1,.83-1.5,1.73-1" transform="translate(-63.19 -44.4)"/><path class="cls-14" d="M68.44,105.82c.3.6.22,1.2-.15,1.35s-.9-.15-1.2-.75-.23-1.2.15-1.35.9.15,1.2.75" transform="translate(-63.19 -44.4)"/><path class="cls-6" d="M67.39,104.55a3.41,3.41,0,0,1,1.57,2.7c0,2.55-3.3.52-3.3-1.73.08-1,.83-1.5,1.73-1" transform="translate(-63.19 -44.4)"/><path class="cls-14" d="M68.36,105.82a1,1,0,0,1-.15,1.35c-.37.15-.82-.15-1.12-.67a1,1,0,0,1,.15-1.35c.37-.23.9.15,1.12.67" transform="translate(-63.19 -44.4)"/><path class="cls-6" d="M67.39,104.55a3.41,3.41,0,0,1,1.57,2.7c0,2.55-3.3.52-3.3-1.73.08-1,.83-1.5,1.73-1" transform="translate(-63.19 -44.4)"/><path class="cls-14" d="M68.36,105.82c.23.53.23,1.13-.15,1.28s-.82-.15-1-.68-.22-1.12.15-1.27.75.15,1,.67" transform="translate(-63.19 -44.4)"/><path class="cls-6" d="M67.39,104.55a3.41,3.41,0,0,1,1.57,2.7c0,2.55-3.3.52-3.3-1.73.08-1,.83-1.5,1.73-1" transform="translate(-63.19 -44.4)"/><path class="cls-14" d="M68.36,105.82c.23.53.23,1.05-.15,1.2s-.75-.15-1-.67-.22-1,.15-1.2.75.22,1,.67" transform="translate(-63.19 -44.4)"/><path class="cls-6" d="M67.39,104.55a3.41,3.41,0,0,1,1.57,2.7c0,2.55-3.3.52-3.3-1.73.08-1,.83-1.5,1.73-1" transform="translate(-63.19 -44.4)"/><path class="cls-14" d="M68.29,105.9c.22.52.22,1-.15,1.2s-.75-.15-1-.6-.22-1,.15-1.2.75.07,1,.6" transform="translate(-63.19 -44.4)"/><path class="cls-6" d="M67.39,104.55a3.41,3.41,0,0,1,1.57,2.7c0,2.55-3.3.52-3.3-1.73.08-1,.83-1.5,1.73-1" transform="translate(-63.19 -44.4)"/><path class="cls-14" d="M68.29,105.9a1,1,0,0,1-.08,1.12c-.3.15-.75-.15-1-.6s-.15-1,.15-1.12.67.07.9.6" transform="translate(-63.19 -44.4)"/><path class="cls-6" d="M67.39,104.55a3.41,3.41,0,0,1,1.57,2.7c0,2.55-3.3.52-3.3-1.73.08-1,.83-1.5,1.73-1" transform="translate(-63.19 -44.4)"/><path class="cls-14" d="M68.29,105.9a.85.85,0,0,1-.08,1c-.3.15-.67-.15-.9-.6a.85.85,0,0,1,.08-1c.22-.08.67.15.9.6" transform="translate(-63.19 -44.4)"/><path class="cls-6" d="M67.39,104.55a3.41,3.41,0,0,1,1.57,2.7c0,2.55-3.3.52-3.3-1.73.08-1,.83-1.5,1.73-1" transform="translate(-63.19 -44.4)"/><path class="cls-14" d="M68.21,105.9a.85.85,0,0,1-.07,1c-.3.15-.68-.08-.9-.53a.85.85,0,0,1,.07-1c.3-.15.68.08.9.53" transform="translate(-63.19 -44.4)"/><path class="cls-6" d="M67.39,104.55a3.41,3.41,0,0,1,1.57,2.7c0,2.55-3.3.52-3.3-1.73.08-1,.83-1.5,1.73-1" transform="translate(-63.19 -44.4)"/><path class="cls-14" d="M68.21,105.9a.75.75,0,0,1-.07,1c-.23.15-.6-.07-.83-.52a.77.77,0,0,1,.08-1c.22-.07.6.15.82.53" transform="translate(-63.19 -44.4)"/><path class="cls-6" d="M67.39,104.55a3.41,3.41,0,0,1,1.57,2.7c0,2.55-3.3.52-3.3-1.73.08-1,.83-1.5,1.73-1" transform="translate(-63.19 -44.4)"/><path class="cls-14" d="M68.21,105.9c.23.37.15.82-.07.9s-.6-.08-.75-.53-.15-.82.07-.9.53.15.75.53" transform="translate(-63.19 -44.4)"/><path class="cls-6" d="M67.39,104.55a3.41,3.41,0,0,1,1.57,2.7c0,2.55-3.3.52-3.3-1.73.08-1,.83-1.5,1.73-1" transform="translate(-63.19 -44.4)"/><path class="cls-14" d="M68.14,106c.15.38.15.75-.08.9s-.52-.07-.75-.45-.15-.75.08-.9.6.08.75.45" transform="translate(-63.19 -44.4)"/><path class="cls-6" d="M67.39,104.55a3.41,3.41,0,0,1,1.57,2.7c0,2.55-3.3.52-3.3-1.73.08-1,.83-1.5,1.73-1" transform="translate(-63.19 -44.4)"/><path class="cls-14" d="M68.14,106c.15.38.15.68-.08.83s-.52-.08-.67-.45-.15-.68.07-.83.53.08.68.45" transform="translate(-63.19 -44.4)"/><path class="cls-6" d="M67.39,104.55a3.41,3.41,0,0,1,1.57,2.7c0,2.55-3.3.52-3.3-1.73.08-1,.83-1.5,1.73-1" transform="translate(-63.19 -44.4)"/><path class="cls-14" d="M68.14,106c.15.3.15.68-.08.75a.6.6,0,0,1-.67-.37c-.15-.3-.15-.68.07-.75s.53.07.68.37" transform="translate(-63.19 -44.4)"/><path class="cls-6" d="M67.39,104.55a3.41,3.41,0,0,1,1.57,2.7c0,2.55-3.3.52-3.3-1.73.08-1,.83-1.5,1.73-1" transform="translate(-63.19 -44.4)"/><path class="cls-14" d="M68.06,106c.15.3.15.6-.07.75s-.45-.07-.6-.37-.15-.6.07-.75.45.07.6.37" transform="translate(-63.19 -44.4)"/><path class="cls-6" d="M67.39,104.55a3.41,3.41,0,0,1,1.57,2.7c0,2.55-3.3.52-3.3-1.73.08-1,.83-1.5,1.73-1" transform="translate(-63.19 -44.4)"/><path class="cls-14" d="M68.06,106a.53.53,0,0,1-.07.68c-.15.07-.45-.08-.6-.38s-.08-.6.07-.67.45.07.6.37" transform="translate(-63.19 -44.4)"/><path class="cls-6" d="M67.39,104.55a3.41,3.41,0,0,1,1.57,2.7c0,2.55-3.3.52-3.3-1.73.08-1,.83-1.5,1.73-1" transform="translate(-63.19 -44.4)"/><path class="cls-14" d="M68.06,106a.44.44,0,0,1-.07.6c-.15.08-.38-.07-.53-.3a.44.44,0,0,1,.08-.6c.15-.07.37.08.52.3" transform="translate(-63.19 -44.4)"/><path class="cls-6" d="M67.39,104.55a3.41,3.41,0,0,1,1.57,2.7c0,2.55-3.3.52-3.3-1.73.08-1,.83-1.5,1.73-1" transform="translate(-63.19 -44.4)"/><path class="cls-14" d="M68,106.05c.15.22.07.52-.08.52s-.37-.07-.45-.3a.34.34,0,0,1,.08-.52c.15-.08.37,0,.45.3" transform="translate(-63.19 -44.4)"/><path class="cls-6" d="M67.39,104.55a3.41,3.41,0,0,1,1.57,2.7c0,2.55-3.3.52-3.3-1.73.08-1,.83-1.5,1.73-1" transform="translate(-63.19 -44.4)"/><path class="cls-14" d="M68,106.05c.07.22.07.45-.08.52s-.3-.07-.45-.3-.07-.45.08-.52.37.07.45.3" transform="translate(-63.19 -44.4)"/><path class="cls-6" d="M67.39,104.55a3.41,3.41,0,0,1,1.57,2.7c0,2.55-3.3.52-3.3-1.73.08-1,.83-1.5,1.73-1" transform="translate(-63.19 -44.4)"/><path class="cls-14" d="M68,106.05c.07.22.07.37-.08.45s-.3-.08-.37-.23-.08-.37.07-.45.23,0,.38.23" transform="translate(-63.19 -44.4)"/><path class="cls-6" d="M67.39,104.55a3.41,3.41,0,0,1,1.57,2.7c0,2.55-3.3.52-3.3-1.73.08-1,.83-1.5,1.73-1" transform="translate(-63.19 -44.4)"/><path class="cls-14" d="M67.91,106.05c.08.15.08.37-.07.37s-.3-.07-.38-.22-.07-.38.08-.38.3.08.37.23" transform="translate(-63.19 -44.4)"/><path class="cls-6" d="M67.39,104.55a3.41,3.41,0,0,1,1.57,2.7c0,2.55-3.3.52-3.3-1.73.08-1,.83-1.5,1.73-1" transform="translate(-63.19 -44.4)"/><path class="cls-14" d="M67.91,106.05c.08.15.08.3,0,.37s-.22-.07-.3-.22a.36.36,0,0,1,0-.38.39.39,0,0,1,.3.23" transform="translate(-63.19 -44.4)"/><path class="cls-6" d="M67.39,104.55a3.41,3.41,0,0,1,1.57,2.7c0,2.55-3.3.52-3.3-1.73.08-1,.83-1.5,1.73-1" transform="translate(-63.19 -44.4)"/><path class="cls-14" d="M67.91,106.05c.08.15.08.3,0,.3s-.22,0-.22-.15-.08-.3,0-.3a.82.82,0,0,1,.22.15" transform="translate(-63.19 -44.4)"/><path class="cls-6" d="M67.39,104.55a3.41,3.41,0,0,1,1.57,2.7c0,2.55-3.3.52-3.3-1.73.08-1,.83-1.5,1.73-1" transform="translate(-63.19 -44.4)"/><path class="cls-14" d="M67.84,106.12c.07.08.07.23,0,.23s-.15,0-.23-.15-.07-.23,0-.23.23,0,.23.15" transform="translate(-63.19 -44.4)"/><path class="cls-6" d="M67.39,104.55a3.41,3.41,0,0,1,1.57,2.7c0,2.55-3.3.52-3.3-1.73.08-1,.83-1.5,1.73-1" transform="translate(-63.19 -44.4)"/><path class="cls-14" d="M67.84,106.12c.07.08,0,.15,0,.23s-.15,0-.15-.08,0-.15,0-.22.15,0,.15.07" transform="translate(-63.19 -44.4)"/><path class="cls-6" d="M67.39,104.55a3.41,3.41,0,0,1,1.57,2.7c0,2.55-3.3.52-3.3-1.73.08-1,.83-1.5,1.73-1" transform="translate(-63.19 -44.4)"/><path class="cls-14" d="M67.84,106.12v.15c-.08,0-.08,0-.15-.07v-.15c.07-.08.07,0,.15.07" transform="translate(-63.19 -44.4)"/><path class="cls-6" d="M67.39,104.55a3.41,3.41,0,0,1,1.57,2.7c0,2.55-3.3.52-3.3-1.73.08-1,.83-1.5,1.73-1" transform="translate(-63.19 -44.4)"/><path class="cls-14" d="M67.76,106.12v.08a.07.07,0,0,1-.07-.08v-.07c.07,0,.07,0,.07.07" transform="translate(-63.19 -44.4)"/><path class="cls-6" d="M67.39,104.55a3.41,3.41,0,0,1,1.57,2.7c0,2.55-3.3.52-3.3-1.73.08-1,.83-1.5,1.73-1" transform="translate(-63.19 -44.4)"/><path class="cls-14" d="M67.76,106.12h0" transform="translate(-63.19 -44.4)"/><path class="cls-15" d="M77.89,112.12c.52.3.82,1.58.82,2.1s-.45.75-1,.45l-7.13-4.12a2.14,2.14,0,0,1-1-1.58c0-.6.6-1.27,1.2-1Z" transform="translate(-63.19 -44.4)"/><path class="cls-16" d="M70.09,108.07c-.08,0-.08.08-.15.15l8.62,5c0-.07-.07-.15-.07-.22Z" transform="translate(-63.19 -44.4)"/><path class="cls-16" d="M69.71,109.42c0,.08.08.15.15.3l8.7,5c.08,0,.08-.08.15-.15Z" transform="translate(-63.19 -44.4)"/><path class="cls-16" d="M69.71,108.6a.29.29,0,0,1-.07.15L78.71,114v-.23Z" transform="translate(-63.19 -44.4)"/><polygon class="cls-12" points="39.98 48 39.98 56.7 26.85 64.28 29.93 53.77 39.98 48"/><path class="cls-6" d="M103.39,103.12c.22-.07.37,0,.37.23a.68.68,0,0,1-.37.6l-2.78,1.57c-.22.08-.37,0-.37-.22a.66.66,0,0,1,.37-.6Z" transform="translate(-63.19 -44.4)"/></svg>