<svg id="Capa_1" data-name="Capa 1" xmlns="http://www.w3.org/2000/svg" xmlns:xlink="http://www.w3.org/1999/xlink" viewBox="0 0 164.18 112.38"><defs><style>.cls-1{fill:none;}.cls-2{fill:#b1b1b1;}.cls-3{fill:#838485;}.cls-4{fill:#5b5954;}.cls-5{clip-path:url(#clip-path);}.cls-6{fill:url(#Degradado_sin_nombre_295);}.cls-7{fill:#4a4752;}.cls-8{clip-path:url(#clip-path-2);}.cls-9{fill:url(#Degradado_sin_nombre_295-2);}.cls-10{clip-path:url(#clip-path-3);}.cls-11{fill:url(#Degradado_sin_nombre_296);}.cls-12{fill:#d5d3d4;}.cls-13{clip-path:url(#clip-path-4);}.cls-14{fill:url(#Degradado_sin_nombre_299);}.cls-15{fill:#e0dfe0;}.cls-16{clip-path:url(#clip-path-5);}.cls-17{fill:url(#Degradado_sin_nombre_299-2);}.cls-18{fill:#d6d4d6;}.cls-19{clip-path:url(#clip-path-6);}.cls-20{fill:url(#Degradado_sin_nombre_299-3);}.cls-21{clip-path:url(#clip-path-7);}.cls-22{fill:url(#Degradado_sin_nombre_295-3);}.cls-23{clip-path:url(#clip-path-8);}.cls-24{fill:url(#Degradado_sin_nombre_295-4);}.cls-25{clip-path:url(#clip-path-9);}.cls-26{fill:url(#Degradado_sin_nombre_296-2);}.cls-27{clip-path:url(#clip-path-10);}.cls-28{fill:url(#Degradado_sin_nombre_299-4);}.cls-29{clip-path:url(#clip-path-11);}.cls-30{fill:url(#Degradado_sin_nombre_299-5);}.cls-31{clip-path:url(#clip-path-12);}.cls-32{fill:url(#Degradado_sin_nombre_299-6);}.cls-33{fill:#66537d;}.cls-34{fill:#bbccb6;}.cls-35{fill:#828384;}.cls-36{fill:#717071;}.cls-37{fill:#a1a2a2;}.cls-38{fill:#524e51;}.cls-39{clip-path:url(#clip-path-13);}.cls-40{fill:url(#Degradado_sin_nombre_295-5);}.cls-41{clip-path:url(#clip-path-14);}.cls-42{fill:url(#Degradado_sin_nombre_295-6);}.cls-43{clip-path:url(#clip-path-15);}.cls-44{fill:url(#Degradado_sin_nombre_296-3);}.cls-45{clip-path:url(#clip-path-16);}.cls-46{fill:url(#Degradado_sin_nombre_299-7);}.cls-47{clip-path:url(#clip-path-17);}.cls-48{fill:url(#Degradado_sin_nombre_298);}.cls-49{clip-path:url(#clip-path-18);}.cls-50{fill:url(#Degradado_sin_nombre_299-8);}.cls-51{clip-path:url(#clip-path-19);}.cls-52{fill:url(#Degradado_sin_nombre_295-7);}.cls-53{clip-path:url(#clip-path-20);}.cls-54{fill:url(#Degradado_sin_nombre_295-8);}.cls-55{clip-path:url(#clip-path-21);}.cls-56{fill:url(#Degradado_sin_nombre_296-4);}.cls-57{clip-path:url(#clip-path-22);}.cls-58{fill:url(#Degradado_sin_nombre_299-9);}.cls-59{clip-path:url(#clip-path-23);}.cls-60{fill:url(#Degradado_sin_nombre_298-2);}.cls-61{clip-path:url(#clip-path-24);}.cls-62{fill:url(#Degradado_sin_nombre_299-10);}.cls-63{fill:#477a40;}.cls-64{fill:#5fa343;}.cls-65{fill:#bcbdbf;}.cls-66{clip-path:url(#clip-path-25);}.cls-67{fill:url(#Degradado_sin_nombre_285);}.cls-68{clip-path:url(#clip-path-26);}.cls-69{fill:url(#Degradado_sin_nombre_299-11);}.cls-70{fill:#b7b7b7;}.cls-71{clip-path:url(#clip-path-27);}.cls-72{fill:url(#Degradado_sin_nombre_306);}.cls-73{fill:#e4eded;}.cls-74{fill:#bcc2c2;}.cls-75{fill:#dadce0;}.cls-76{fill:#a3a6a7;}.cls-77{clip-path:url(#clip-path-28);}.cls-78{fill:url(#Degradado_sin_nombre_306-2);}.cls-79{clip-path:url(#clip-path-29);}.cls-80{fill:url(#Degradado_sin_nombre_303);}.cls-81{fill:#c1c7c6;}.cls-82{clip-path:url(#clip-path-30);}.cls-83{fill:url(#Degradado_sin_nombre_306-3);}.cls-84{clip-path:url(#clip-path-31);}.cls-85{fill:url(#Degradado_sin_nombre_303-2);}.cls-86{clip-path:url(#clip-path-32);}.cls-87{fill:url(#Degradado_sin_nombre_306-4);}.cls-88{clip-path:url(#clip-path-33);}.cls-89{fill:url(#Degradado_sin_nombre_305);}.cls-90{fill:#7f7e7f;}.cls-91{fill:#c1c8d8;}.cls-92{fill:#e0e3e7;}.cls-93{fill:#8e622d;}.cls-94{fill:#9ec5ab;}.cls-95{fill:#92bb67;}.cls-96{clip-path:url(#clip-path-34);}.cls-97{fill:url(#Degradado_sin_nombre_306-5);}.cls-98{fill:#8c9093;}.cls-99{fill:#818587;}.cls-100{fill:#a0a6a8;}.cls-101{fill:#454248;}.cls-102{clip-path:url(#clip-path-35);}.cls-103{fill:url(#Degradado_sin_nombre_295-9);}.cls-104{clip-path:url(#clip-path-36);}.cls-105{fill:url(#Degradado_sin_nombre_296-5);}.cls-106{clip-path:url(#clip-path-37);}.cls-107{fill:url(#Degradado_sin_nombre_299-12);}.cls-108{clip-path:url(#clip-path-38);}.cls-109{fill:url(#Degradado_sin_nombre_298-3);}.cls-110{clip-path:url(#clip-path-39);}.cls-111{fill:url(#Degradado_sin_nombre_299-13);}.cls-112{fill:#9dcdea;}.cls-113{fill:#d5bf46;}.cls-114{fill:#c9cece;}.cls-115{fill:#d1d5d5;}.cls-116{fill:#a0acb5;}.cls-117{fill:#a44242;}.cls-118{clip-path:url(#clip-path-40);}.cls-119{fill:url(#Degradado_sin_nombre_306-6);}.cls-120{clip-path:url(#clip-path-41);}.cls-121{fill:url(#Degradado_sin_nombre_303-3);}.cls-122{clip-path:url(#clip-path-42);}.cls-123{fill:url(#Degradado_sin_nombre_306-7);}.cls-124{clip-path:url(#clip-path-43);}.cls-125{fill:url(#Degradado_sin_nombre_303-4);}.cls-126{clip-path:url(#clip-path-44);}.cls-127{fill:url(#Degradado_sin_nombre_306-8);}.cls-128{fill:#853830;}.cls-129{fill:#b08c39;}.cls-130{fill:#8f632e;}.cls-131{clip-path:url(#clip-path-45);}.cls-132{fill:url(#Degradado_sin_nombre_305-2);}.cls-133{clip-path:url(#clip-path-46);}.cls-134{fill:url(#Degradado_sin_nombre_306-9);}.cls-135{fill:#bf793e;}.cls-136{fill:#d4b65a;}.cls-137{fill:#9e4b39;}.cls-138{fill:#8292a0;}.cls-139{fill:#777f8a;}.cls-140{fill:#878788;}.cls-141{fill:#fafbfb;}.cls-142{fill:#dcd9d9;}.cls-143{fill:#f9fcfd;}.cls-144{fill:#8ea5d5;}.cls-145{fill:#4c4249;}.cls-146{fill:#cf826d;}</style><clipPath id="clip-path" transform="translate(-8.66 -27.96)"><path class="cls-1" d="M106.46,49.85c0,2.28.78,3.92,2.09,4.76,1.76,1.18,5.55,3.21,5.55,3.21,5.29-3.07,15.75-13.72,15.75-19,0-2.28-5-4-6.34-4.9-1.76-1.11-4.44-1-7.45.79-5.36,3.07-9.6,9.86-9.6,15.16"/></clipPath><linearGradient id="Degradado_sin_nombre_295" x1="-8803.38" y1="15710.16" x2="-8815.79" y2="15732.01" gradientUnits="userSpaceOnUse"><stop offset="0" stop-color="#70757f"/><stop offset="0.13" stop-color="#70757f"/><stop offset="0.44" stop-color="#56555d"/><stop offset="0.84" stop-color="#56555d"/><stop offset="1" stop-color="#45434a"/></linearGradient><clipPath id="clip-path-2" transform="translate(-8.66 -27.96)"><path class="cls-1" d="M112.53,53.31c0,2.28.79,3.92,2.09,4.77,1.77,1.17,5.56,3.2,5.56,3.2,5.29-3.07,15.74-13.72,15.74-19,0-2.29-5-4.05-6.34-4.9-1.76-1.11-4.44-1-7.44.78-5.29,3.07-9.61,9.87-9.61,15.16"/></clipPath><linearGradient id="Degradado_sin_nombre_295-2" x1="-9023.86" y1="15313.89" x2="-9036.93" y2="15335.75" xlink:href="#Degradado_sin_nombre_295"/><clipPath id="clip-path-3" transform="translate(-8.66 -27.96)"><path class="cls-1" d="M120.57,54.22c0,3.53,2.87,4.71,6.4,2.68s6.4-6.53,6.4-10.06-2.87-4.7-6.4-2.68-6.4,6.53-6.4,10.06"/></clipPath><linearGradient id="Degradado_sin_nombre_296" x1="9360.27" y1="9743.47" x2="9353.73" y2="9736.59" gradientUnits="userSpaceOnUse"><stop offset="0" stop-color="#dddee2"/><stop offset="0.13" stop-color="#dddee2"/><stop offset="0.44" stop-color="#bfc0c1"/><stop offset="0.84" stop-color="#bfc0c1"/><stop offset="1" stop-color="#a4a7a9"/></linearGradient><clipPath id="clip-path-4" transform="translate(-8.66 -27.96)"><path class="cls-1" d="M133.05,47.49c0,3.14-2.55,7.19-5.75,9s-5.75.72-5.75-2.42a5.28,5.28,0,0,1,.13-1,12.35,12.35,0,0,1,5.62-8c.26-.13.46-.26.65-.33,2.94-1.31,5.1-.13,5.1,2.74"/></clipPath><linearGradient id="Degradado_sin_nombre_299" x1="-8249.98" y1="13473.35" x2="-8257.17" y2="13484.9" gradientUnits="userSpaceOnUse"><stop offset="0" stop-color="#78787a"/><stop offset="0.16" stop-color="#78787a"/><stop offset="0.56" stop-color="#b0b2b3"/><stop offset="0.87" stop-color="#aaadae"/><stop offset="1" stop-color="#aaadae"/></linearGradient><clipPath id="clip-path-5" transform="translate(-8.66 -27.96)"><path class="cls-1" d="M129.91,46.58c0,2.35-2.94,6.6-5.29,8h-.07a.22.22,0,0,1-.13-.06c-.13,0-.19-.07-.32-.13s-.07,0-.13-.07a13,13,0,0,1-2.16-1,.88.88,0,0,1-.13-.45,10.47,10.47,0,0,1,.33-1.31,12.52,12.52,0,0,1,4.5-6.14,5.63,5.63,0,0,1,.79-.52c.19-.14.39-.2.59-.33a10.2,10.2,0,0,1,1.69,1.5c.27.39.33.46.33.46"/></clipPath><linearGradient id="Degradado_sin_nombre_299-2" x1="-8971.34" y1="15926.5" x2="-8976.57" y2="15935.65" xlink:href="#Degradado_sin_nombre_299"/><clipPath id="clip-path-6" transform="translate(-8.66 -27.96)"><path class="cls-1" d="M128.67,49.39a3.72,3.72,0,0,1-1.83,2.87c-1,.59-1.83.26-1.83-.78v-.33a4.12,4.12,0,0,1,1.77-2.55c.06-.06.13-.06.19-.13,1-.39,1.7,0,1.7.92"/></clipPath><linearGradient id="Degradado_sin_nombre_299-3" x1="-8873.88" y1="11982.65" x2="-8876.49" y2="11986.12" xlink:href="#Degradado_sin_nombre_299"/><clipPath id="clip-path-7" transform="translate(-8.66 -27.96)"><path class="cls-1" d="M84.38,62.59c0,2.28.78,3.92,2.09,4.76C88.23,68.53,92,70.56,92,70.56c5.29-3.07,15.74-13.72,15.74-19,0-2.28-5-4-6.33-4.9-1.77-1.11-4.45-1-7.45.79-5.29,3.07-9.6,9.86-9.6,15.16"/></clipPath><linearGradient id="Degradado_sin_nombre_295-3" x1="-8823.85" y1="15726.17" x2="-8836.26" y2="15748.03" xlink:href="#Degradado_sin_nombre_295"/><clipPath id="clip-path-8" transform="translate(-8.66 -27.96)"><path class="cls-1" d="M90.52,66.05c0,2.28.78,3.92,2.09,4.77C94.37,72,98.16,74,98.16,74c5.29-3.07,15.75-13.72,15.75-19,0-2.29-5-4-6.34-4.9-1.77-1.11-4.44-1-7.45.78-5.29,3.07-9.6,9.87-9.6,15.16"/></clipPath><linearGradient id="Degradado_sin_nombre_295-4" x1="-9047.48" y1="15323.34" x2="-9060.54" y2="15345.2" xlink:href="#Degradado_sin_nombre_295"/><clipPath id="clip-path-9" transform="translate(-8.66 -27.96)"><path class="cls-1" d="M98.55,67c0,3.53,2.88,4.71,6.4,2.68s6.41-6.53,6.41-10.06-2.88-4.7-6.41-2.68-6.4,6.53-6.4,10.06"/></clipPath><linearGradient id="Degradado_sin_nombre_296-2" x1="9238.04" y1="10721.84" x2="9232.16" y2="10714.96" xlink:href="#Degradado_sin_nombre_296"/><clipPath id="clip-path-10" transform="translate(-8.66 -27.96)"><path class="cls-1" d="M111,60.23c0,3.14-2.55,7.19-5.75,9s-5.75.72-5.75-2.42a6.16,6.16,0,0,1,.13-1,12.35,12.35,0,0,1,5.62-8,5.72,5.72,0,0,1,.65-.33c2.88-1.31,5.1-.2,5.1,2.74"/></clipPath><linearGradient id="Degradado_sin_nombre_299-4" x1="-8575.22" y1="12830.78" x2="-8583.06" y2="12842.35" xlink:href="#Degradado_sin_nombre_299"/><clipPath id="clip-path-11" transform="translate(-8.66 -27.96)"><path class="cls-1" d="M107.83,59.32c0,2.35-2.94,6.6-5.29,8h-.07a.22.22,0,0,1-.13-.06c-.13,0-.19-.07-.32-.13s-.07,0-.14-.07a13.36,13.36,0,0,1-2.15-1,.88.88,0,0,1-.13-.45,8.93,8.93,0,0,1,.32-1.31,12.6,12.6,0,0,1,4.51-6.14,5.11,5.11,0,0,1,.79-.52c.19-.14.39-.2.58-.33a10,10,0,0,1,1.7,1.5,4.09,4.09,0,0,0,.33.46"/></clipPath><linearGradient id="Degradado_sin_nombre_299-5" x1="-8993.32" y1="15939.05" x2="-8998.54" y2="15948.19" xlink:href="#Degradado_sin_nombre_299"/><clipPath id="clip-path-12" transform="translate(-8.66 -27.96)"><path class="cls-1" d="M106.65,62.13A3.72,3.72,0,0,1,104.82,65c-1,.59-1.82.26-1.82-.78v-.33a4.11,4.11,0,0,1,1.76-2.55c.06-.06.13-.06.2-.13,1-.39,1.69,0,1.69.92"/></clipPath><linearGradient id="Degradado_sin_nombre_299-6" x1="-8897.11" y1="11991.15" x2="-8899.72" y2="11994.62" xlink:href="#Degradado_sin_nombre_299"/><clipPath id="clip-path-13" transform="translate(-8.66 -27.96)"><path class="cls-1" d="M138.86,68.73c0,2.28.79,3.92,2.09,4.77,1.77,1.17,5.56,3.2,5.56,3.2,5.29-3.07,15.74-13.72,15.74-19,0-2.29-5-4-6.34-4.9-1.76-1.11-4.44-1-7.44.78-5.36,3.07-9.61,9.86-9.61,15.16"/></clipPath><linearGradient id="Degradado_sin_nombre_295-5" x1="-8999.1" y1="15325.97" x2="-9012.17" y2="15347.83" xlink:href="#Degradado_sin_nombre_295"/><clipPath id="clip-path-14" transform="translate(-8.66 -27.96)"><path class="cls-1" d="M145,72.19c0,2.29.79,3.92,2.09,4.77,1.77,1.17,5.56,3.2,5.56,3.2,5.29-3.07,15.74-13.72,15.74-19,0-2.29-5-4-6.34-4.9-1.76-1.11-4.44-1-7.44.78C149.25,60.1,145,66.9,145,72.19"/></clipPath><linearGradient id="Degradado_sin_nombre_295-6" x1="-8765.05" y1="15732.89" x2="-8777.46" y2="15754.74" xlink:href="#Degradado_sin_nombre_295"/><clipPath id="clip-path-15" transform="translate(-8.66 -27.96)"><path class="cls-1" d="M153,73c0,3.53,2.88,4.7,6.41,2.68s6.4-6.54,6.4-10.06S162.9,61,159.38,63,153,69.51,153,73"/></clipPath><linearGradient id="Degradado_sin_nombre_296-3" x1="-8421.45" y1="12753.69" x2="-8429.95" y2="12766.28" xlink:href="#Degradado_sin_nombre_296"/><clipPath id="clip-path-16" transform="translate(-8.66 -27.96)"><path class="cls-1" d="M165.52,66.37c0,3.14-2.55,7.19-5.75,9S154,76.11,154,73a5.28,5.28,0,0,1,.13-1,12.35,12.35,0,0,1,5.62-8,6.68,6.68,0,0,1,.65-.33c2.88-1.37,5.1-.2,5.1,2.74"/></clipPath><linearGradient id="Degradado_sin_nombre_299-7" x1="-8208.6" y1="13467.99" x2="-8215.79" y2="13479.53" xlink:href="#Degradado_sin_nombre_299"/><clipPath id="clip-path-17" transform="translate(-8.66 -27.96)"><path class="cls-1" d="M162.32,65.46c0,2.35-2.94,6.6-5.3,8H157a.19.19,0,0,1-.13-.07c-.13,0-.2-.07-.33-.13s-.06,0-.13-.07a13.81,13.81,0,0,1-2.16-1,1,1,0,0,1-.13-.45,10.47,10.47,0,0,1,.33-1.31,12.6,12.6,0,0,1,4.51-6.14,5,5,0,0,1,.78-.52c.2-.13.39-.2.59-.33A11.34,11.34,0,0,1,162,65a3.91,3.91,0,0,1,.33.46"/></clipPath><linearGradient id="Degradado_sin_nombre_298" x1="-9267.79" y1="15343.7" x2="-9273.02" y2="15352.2" gradientUnits="userSpaceOnUse"><stop offset="0" stop-color="#b0b2b3"/><stop offset="0.13" stop-color="#b0b2b3"/><stop offset="0.44" stop-color="#8e9193"/><stop offset="0.84" stop-color="#8e9193"/><stop offset="1" stop-color="#78787a"/></linearGradient><clipPath id="clip-path-18" transform="translate(-8.66 -27.96)"><path class="cls-1" d="M161.07,68.27a3.71,3.71,0,0,1-1.83,2.87c-1,.59-1.82.26-1.82-.78V70a4.11,4.11,0,0,1,1.76-2.55c.06-.06.13-.06.2-.13,1-.39,1.69-.06,1.69.92"/></clipPath><linearGradient id="Degradado_sin_nombre_299-8" x1="-7187.79" y1="15272.34" x2="-7189.75" y2="15276.41" xlink:href="#Degradado_sin_nombre_299"/><clipPath id="clip-path-19" transform="translate(-8.66 -27.96)"><path class="cls-1" d="M116.78,81.47c0,2.28.78,3.92,2.09,4.77,1.76,1.17,5.55,3.2,5.55,3.2,5.3-3.07,15.75-13.72,15.75-19,0-2.29-5-4.06-6.34-4.9-1.76-1.12-4.44-1-7.45.78-5.29,3.07-9.6,9.86-9.6,15.16"/></clipPath><linearGradient id="Degradado_sin_nombre_295-7" x1="-9019.67" y1="15342.14" x2="-9032.74" y2="15364" xlink:href="#Degradado_sin_nombre_295"/><clipPath id="clip-path-20" transform="translate(-8.66 -27.96)"><path class="cls-1" d="M122.92,84.93c0,2.28.78,3.92,2.09,4.77,1.77,1.17,5.55,3.2,5.55,3.2,5.3-3.07,15.75-13.72,15.75-19,0-2.29-5-4-6.34-4.9-1.76-1.11-4.44-1-7.45.78-5.29,3.07-9.6,9.87-9.6,15.16"/></clipPath><linearGradient id="Degradado_sin_nombre_295-8" x1="-8785.25" y1="15748.42" x2="-8797.66" y2="15770.28" xlink:href="#Degradado_sin_nombre_295"/><clipPath id="clip-path-21" transform="translate(-8.66 -27.96)"><path class="cls-1" d="M131,85.78c0,3.53,2.87,4.7,6.4,2.68s6.4-6.54,6.4-10.06-2.87-4.71-6.4-2.68S131,82.25,131,85.78"/></clipPath><linearGradient id="Degradado_sin_nombre_296-4" x1="-8164.73" y1="13388.78" x2="-8172.57" y2="13401.38" xlink:href="#Degradado_sin_nombre_296"/><clipPath id="clip-path-22" transform="translate(-8.66 -27.96)"><path class="cls-1" d="M143.43,79.11c0,3.14-2.54,7.19-5.74,9s-5.75.72-5.75-2.42a5.28,5.28,0,0,1,.13-1,12.31,12.31,0,0,1,5.62-8,6.68,6.68,0,0,1,.65-.33c2.87-1.37,5.09-.2,5.09,2.74"/></clipPath><linearGradient id="Degradado_sin_nombre_299-9" x1="-8230.85" y1="13480.99" x2="-8238.04" y2="13492.53" xlink:href="#Degradado_sin_nombre_299"/><clipPath id="clip-path-23" transform="translate(-8.66 -27.96)"><path class="cls-1" d="M140.23,78.13c0,2.36-2.94,6.6-5.29,8h-.06a.19.19,0,0,1-.13-.07.65.65,0,0,1-.33-.13c-.07,0-.07,0-.13-.06a14.81,14.81,0,0,1-2.16-1,1,1,0,0,1-.13-.46,10.47,10.47,0,0,1,.33-1.31A12.69,12.69,0,0,1,136.84,77a5.87,5.87,0,0,1,.78-.52c.2-.13.39-.2.59-.33a11.3,11.3,0,0,1,1.7,1.51,4.29,4.29,0,0,0,.32.45"/></clipPath><linearGradient id="Degradado_sin_nombre_298-2" x1="-8961.06" y1="15958.13" x2="-8966.29" y2="15967.28" xlink:href="#Degradado_sin_nombre_298"/><clipPath id="clip-path-24" transform="translate(-8.66 -27.96)"><path class="cls-1" d="M139.06,80.94a3.77,3.77,0,0,1-1.83,2.88c-1,.59-1.83.26-1.83-.79v-.32a4.06,4.06,0,0,1,1.76-2.55c.07-.07.13-.07.2-.13,1-.33,1.7,0,1.7.91"/></clipPath><linearGradient id="Degradado_sin_nombre_299-10" x1="-8908.53" y1="12168.29" x2="-8911.15" y2="12171.79" xlink:href="#Degradado_sin_nombre_299"/><clipPath id="clip-path-25" transform="translate(-8.66 -27.96)"><path class="cls-1" d="M122.2,51.41v2.36c0,1.56,2,2.87,4.38,2.87S131,55.33,131,53.77V51.28Z"/></clipPath><linearGradient id="Degradado_sin_nombre_285" x1="113.29" y1="26" x2="121.78" y2="26" gradientUnits="userSpaceOnUse"><stop offset="0" stop-color="#504d51"/><stop offset="0.16" stop-color="#504d51"/><stop offset="0.56" stop-color="#828587"/><stop offset="0.87" stop-color="#7e7f82"/><stop offset="1" stop-color="#7e7f82"/></linearGradient><clipPath id="clip-path-26" transform="translate(-8.66 -27.96)"><path class="cls-1" d="M118.48,49.26v1c0,2.94,3.66,5.29,8.1,5.29s8.1-2.35,8.1-5.29V49Z"/></clipPath><linearGradient id="Degradado_sin_nombre_299-11" x1="109.37" y1="24.34" x2="125.7" y2="24.34" xlink:href="#Degradado_sin_nombre_299"/><clipPath id="clip-path-27" transform="translate(-8.66 -27.96)"><path class="cls-1" d="M52.82,47.36V75.85c0,.78,1,1.5,2.29,1.5s2.28-.65,2.28-1.5V47.3Z"/></clipPath><linearGradient id="Degradado_sin_nombre_306" x1="44.04" y1="34.36" x2="48.61" y2="34.36" gradientUnits="userSpaceOnUse"><stop offset="0" stop-color="#a4a6a7"/><stop offset="0.16" stop-color="#a4a6a7"/><stop offset="0.56" stop-color="#dcdce1"/><stop offset="0.87" stop-color="#d6d8db"/><stop offset="1" stop-color="#d6d8db"/></linearGradient><clipPath id="clip-path-28" transform="translate(-8.66 -27.96)"><path class="cls-1" d="M31.2,85.06v1.11c0,1.24,1.56,2.29,3.46,2.29s3.46-1,3.46-2.29V84.93Z"/></clipPath><linearGradient id="Degradado_sin_nombre_306-2" x1="22.48" y1="58.73" x2="29.01" y2="58.73" xlink:href="#Degradado_sin_nombre_306"/><clipPath id="clip-path-29" transform="translate(-8.66 -27.96)"><path class="cls-1" d="M30.8,83.23v1.24c0,1.37,1.7,2.48,3.86,2.48s3.85-1.11,3.85-2.48V83.16Z"/></clipPath><linearGradient id="Degradado_sin_nombre_303" x1="21.82" y1="57.1" x2="29.66" y2="57.1" gradientUnits="userSpaceOnUse"><stop offset="0" stop-color="#bbbcbd"/><stop offset="0.16" stop-color="#bbbcbd"/><stop offset="0.56" stop-color="#f1f4fb"/><stop offset="0.87" stop-color="#eceff6"/><stop offset="1" stop-color="#eceff6"/></linearGradient><clipPath id="clip-path-30" transform="translate(-8.66 -27.96)"><path class="cls-1" d="M31.2,79.7v3.14c0,1.24,1.56,2.28,3.46,2.28s3.46-1,3.46-2.28v-3.2Z"/></clipPath><linearGradient id="Degradado_sin_nombre_306-3" x1="22.48" y1="54.42" x2="29.01" y2="54.42" xlink:href="#Degradado_sin_nombre_306"/><clipPath id="clip-path-31" transform="translate(-8.66 -27.96)"><path class="cls-1" d="M30.8,77.48v1.24c0,1.37,1.7,2.48,3.86,2.48s3.85-1.11,3.85-2.48V77.35Z"/></clipPath><linearGradient id="Degradado_sin_nombre_303-2" x1="21.82" y1="51.32" x2="29.66" y2="51.32" xlink:href="#Degradado_sin_nombre_303"/><clipPath id="clip-path-32" transform="translate(-8.66 -27.96)"><path class="cls-1" d="M31.2,76.11v1.11c0,1.24,1.56,2.29,3.46,2.29s3.46-1,3.46-2.29V76Z"/></clipPath><linearGradient id="Degradado_sin_nombre_306-4" x1="22.48" y1="49.78" x2="29.01" y2="49.78" xlink:href="#Degradado_sin_nombre_306"/><clipPath id="clip-path-33" transform="translate(-8.66 -27.96)"><path class="cls-1" d="M18,105.64v1.44a.67.67,0,0,1-.33.58c-.19.07-1.17.85-1.37.72L13,104.46a1.72,1.72,0,0,1-.84-1.5l-1.7-.72c0-.2,1-.65,1.17-.78a.07.07,0,0,0,.07-.07.59.59,0,0,1,.65,0l4.77,2.75a1.8,1.8,0,0,1,.85,1.5"/></clipPath><linearGradient id="Degradado_sin_nombre_305" x1="9618.5" y1="14208.41" x2="9621.11" y2="14212.25" gradientUnits="userSpaceOnUse"><stop offset="0" stop-color="#dcdce1"/><stop offset="0.13" stop-color="#dcdce1"/><stop offset="0.44" stop-color="#bdbec0"/><stop offset="0.84" stop-color="#bdbec0"/><stop offset="1" stop-color="#a4a6a7"/></linearGradient><clipPath id="clip-path-34" transform="translate(-8.66 -27.96)"><path class="cls-1" d="M98,106.68l14.38-8.49c1.89-1.11,2.09-4.38.39-7.32s-4.64-4.44-6.53-3.33L91.63,96.17Z"/></clipPath><linearGradient id="Degradado_sin_nombre_306-5" x1="8567.38" y1="15856.63" x2="8561.64" y2="15845.93" xlink:href="#Degradado_sin_nombre_306"/><clipPath id="clip-path-35" transform="translate(-8.66 -27.96)"><path class="cls-1" d="M50.86,127.85c0,2.29.78,3.92,2.09,4.77,1.77,1.18,5.55,3.2,5.55,3.2,5.3-3.07,15.75-13.72,15.75-19,0-2.29-5-4-6.34-4.9-1.76-1.11-4.44-1-7.45.78-5.35,3.07-9.6,9.8-9.6,15.16"/></clipPath><linearGradient id="Degradado_sin_nombre_295-9" x1="-9085.61" y1="15388.55" x2="-9098.68" y2="15410.42" xlink:href="#Degradado_sin_nombre_295"/><clipPath id="clip-path-36" transform="translate(-8.66 -27.96)"><path class="cls-1" d="M58.83,128.7c0,3.53,2.88,4.7,6.4,2.68s6.41-6.53,6.41-10.06-2.88-4.71-6.41-2.68-6.4,6.53-6.4,10.06"/></clipPath><linearGradient id="Degradado_sin_nombre_296-5" x1="-8515.09" y1="12810.31" x2="-8523.58" y2="12822.91" xlink:href="#Degradado_sin_nombre_296"/><clipPath id="clip-path-37" transform="translate(-8.66 -27.96)"><path class="cls-1" d="M71.37,122c0,3.13-2.54,7.18-5.74,9s-5.75.72-5.75-2.42a5.38,5.38,0,0,1,.13-1,12.31,12.31,0,0,1,5.62-8,6.68,6.68,0,0,1,.65-.33c2.87-1.37,5.09-.19,5.09,2.75"/></clipPath><linearGradient id="Degradado_sin_nombre_299-12" x1="-8605.04" y1="12840.44" x2="-8612.88" y2="12851.97" xlink:href="#Degradado_sin_nombre_299"/><clipPath id="clip-path-38" transform="translate(-8.66 -27.96)"><path class="cls-1" d="M68.17,121.06c0,2.35-2.94,6.59-5.29,8h-.06a.2.2,0,0,1-.13-.06c-.13,0-.2-.07-.33-.13s-.07,0-.13-.07a14.81,14.81,0,0,1-2.16-1,1,1,0,0,1-.13-.46,10.32,10.32,0,0,1,.33-1.3A12.6,12.6,0,0,1,64.78,120a5.13,5.13,0,0,1,.78-.53c.2-.13.39-.19.59-.32a10.81,10.81,0,0,1,1.7,1.5c.26.39.32.46.32.46"/></clipPath><linearGradient id="Degradado_sin_nombre_298-3" x1="-9033.16" y1="16001.12" x2="-9038.39" y2="16010.26" xlink:href="#Degradado_sin_nombre_298"/><clipPath id="clip-path-39" transform="translate(-8.66 -27.96)"><path class="cls-1" d="M66.93,123.87a3.72,3.72,0,0,1-1.83,2.87c-1,.59-1.83.26-1.83-.78v-.33A4.07,4.07,0,0,1,65,123.08c.06-.06.13-.06.19-.13,1-.39,1.7,0,1.7.92"/></clipPath><linearGradient id="Degradado_sin_nombre_299-13" x1="-7953.2" y1="14301.59" x2="-7955.16" y2="14305.07" xlink:href="#Degradado_sin_nombre_299"/><clipPath id="clip-path-40" transform="translate(-8.66 -27.96)"><path class="cls-1" d="M66.74,107v1.11c0,1.24,1.56,2.29,3.46,2.29s3.46-1,3.46-2.29v-1.24Z"/></clipPath><linearGradient id="Degradado_sin_nombre_306-6" x1="57.75" y1="80.68" x2="64.94" y2="80.68" xlink:href="#Degradado_sin_nombre_306"/><clipPath id="clip-path-41" transform="translate(-8.66 -27.96)"><path class="cls-1" d="M66.34,105.18v1.24c0,1.37,1.7,2.48,3.86,2.48s3.85-1.11,3.85-2.48v-1.37Z"/></clipPath><linearGradient id="Degradado_sin_nombre_303-3" x1="57.1" y1="79.02" x2="64.94" y2="79.02" xlink:href="#Degradado_sin_nombre_303"/><clipPath id="clip-path-42" transform="translate(-8.66 -27.96)"><path class="cls-1" d="M66.74,101.65v3.14c0,1.24,1.56,2.29,3.46,2.29s3.46-1,3.46-2.29v-3.2Z"/></clipPath><linearGradient id="Degradado_sin_nombre_306-7" x1="57.75" y1="76.37" x2="64.94" y2="76.37" xlink:href="#Degradado_sin_nombre_306"/><clipPath id="clip-path-43" transform="translate(-8.66 -27.96)"><path class="cls-1" d="M66.34,99.43v1.24c0,1.37,1.7,2.49,3.86,2.49s3.85-1.12,3.85-2.49V99.3Z"/></clipPath><linearGradient id="Degradado_sin_nombre_303-4" x1="57.1" y1="73.27" x2="64.94" y2="73.27" xlink:href="#Degradado_sin_nombre_303"/><clipPath id="clip-path-44" transform="translate(-8.66 -27.96)"><path class="cls-1" d="M66.74,98.06v1.11c0,1.24,1.56,2.29,3.46,2.29s3.46-1,3.46-2.29V97.93Z"/></clipPath><linearGradient id="Degradado_sin_nombre_306-8" x1="57.75" y1="71.73" x2="64.94" y2="71.73" xlink:href="#Degradado_sin_nombre_306"/><clipPath id="clip-path-45" transform="translate(-8.66 -27.96)"><path class="cls-1" d="M51.58,125v1.44a.68.68,0,0,1-.33.59c-.19.06-1.17.85-1.37.72l-3.27-3.92a1.73,1.73,0,0,1-.84-1.51l-1.7-.72c0-.19,1-.65,1.17-.78a.07.07,0,0,0,.07-.07.59.59,0,0,1,.65,0l4.77,2.75a1.74,1.74,0,0,1,.85,1.5"/></clipPath><linearGradient id="Degradado_sin_nombre_305-2" x1="9037.38" y1="15515.14" x2="9039.99" y2="15519.62" xlink:href="#Degradado_sin_nombre_305"/><clipPath id="clip-path-46" transform="translate(-8.66 -27.96)"><path class="cls-1" d="M86.4,67.16v32c0,.78,1,1.5,2.29,1.5S91,100,91,99.17V67.09Z"/></clipPath><linearGradient id="Degradado_sin_nombre_306-9" x1="77.35" y1="55.92" x2="81.93" y2="55.92" xlink:href="#Degradado_sin_nombre_306"/></defs><polygon class="cls-2" points="162.22 26.07 164.18 25.02 128.77 4.57 126.81 5.62 162.22 26.07"/><polygon class="cls-3" points="162.22 31.68 164.18 30.64 164.18 25.02 162.22 26.07 162.22 31.68"/><polygon class="cls-4" points="126.81 5.62 162.22 26.07 162.22 31.68 126.81 11.24 126.81 5.62"/><g class="cls-5"><rect class="cls-6" x="97.8" y="4.83" width="23.39" height="25.02"/></g><path class="cls-7" d="M128.87,37.14c-3.2-2.4-9.22.2-13.45,5.83s-5.07,12.13-1.87,14.54,9.23-.2,13.46-5.83,5.06-12.13,1.86-14.54" transform="translate(-8.66 -27.96)"/><g class="cls-8"><rect class="cls-9" x="103.88" y="8.3" width="23.39" height="25.02"/></g><path class="cls-7" d="M135,40.6c-3.2-2.4-9.22.2-13.45,5.83S116.5,58.56,119.7,61s9.22-.2,13.45-5.82S138.21,43,135,40.6" transform="translate(-8.66 -27.96)"/><g class="cls-10"><rect class="cls-11" x="111.91" y="14.18" width="12.8" height="16.79"/></g><path class="cls-12" d="M132.46,44c-2.11-1.59-6.1.17-8.92,3.92s-3.4,8.07-1.29,9.65,6.09-.17,8.91-3.92,3.4-8.07,1.3-9.65" transform="translate(-8.66 -27.96)"/><g class="cls-13"><rect class="cls-14" x="112.89" y="15.48" width="11.5" height="14.9"/></g><path class="cls-15" d="M130.3,47.17h0c0,2.41-2,5.48-4.31,6.86a4.07,4.07,0,0,1-1.24.52,2.13,2.13,0,0,1-2.81-1.11,1,1,0,0,1-.13-.46,10.47,10.47,0,0,1,.33-1.31,12.67,12.67,0,0,1,4.5-6.14,6.68,6.68,0,0,1,.79-.52c.19-.13.39-.2.59-.33s.06-.06.13-.06a2.28,2.28,0,0,1,2.15,2.55" transform="translate(-8.66 -27.96)"/><g class="cls-16"><rect class="cls-17" x="113.02" y="16.66" width="8.23" height="10"/></g><path class="cls-18" d="M130.43,48.15A7.73,7.73,0,0,1,126.71,54c-2,1.17-3.72.45-3.72-1.57a3.17,3.17,0,0,1,.06-.72,8.1,8.1,0,0,1,3.66-5.16,1.32,1.32,0,0,1,.46-.2c1.83-.85,3.26-.13,3.26,1.77" transform="translate(-8.66 -27.96)"/><g class="cls-19"><rect class="cls-20" x="116.35" y="20.12" width="3.66" height="4.77"/></g><path class="cls-15" d="M127.1,49.65a1.65,1.65,0,0,1-.72,1.18c-.39.26-.71.06-.71-.33v-.13a1.34,1.34,0,0,1,.71-1,.07.07,0,0,0,.07-.07c.39-.19.65-.06.65.33" transform="translate(-8.66 -27.96)"/><g class="cls-21"><rect class="cls-22" x="75.72" y="17.57" width="23.39" height="25.02"/></g><path class="cls-7" d="M106.81,49.9c-3.2-2.41-9.23.2-13.46,5.82s-5.06,12.14-1.86,14.54,9.22-.2,13.45-5.82S110,52.31,106.81,49.9" transform="translate(-8.66 -27.96)"/><g class="cls-23"><rect class="cls-24" x="81.86" y="21.04" width="23.39" height="25.02"/></g><path class="cls-7" d="M113,53.36c-3.2-2.41-9.23.2-13.46,5.82s-5.06,12.14-1.86,14.54,9.23-.2,13.45-5.82,5.07-12.13,1.87-14.54" transform="translate(-8.66 -27.96)"/><g class="cls-25"><rect class="cls-26" x="89.9" y="26.92" width="12.8" height="16.79"/></g><path class="cls-12" d="M98.94,67.22c0,3.53,2.88,4.71,6.41,2.68s6.4-6.53,6.4-10.06-2.88-4.7-6.4-2.68-6.41,6.54-6.41,10.06" transform="translate(-8.66 -27.96)"/><g class="cls-27"><rect class="cls-28" x="90.88" y="28.22" width="11.5" height="14.9"/></g><path class="cls-15" d="M108.22,59.91h0c0,2.41-2,5.48-4.31,6.86a4.07,4.07,0,0,1-1.24.52,2.13,2.13,0,0,1-2.81-1.11.89.89,0,0,1-.13-.46,7.86,7.86,0,0,1,.33-1.31,12.61,12.61,0,0,1,4.5-6.14,6,6,0,0,1,.79-.52c.19-.13.39-.2.58-.33s.07-.06.14-.06a2.28,2.28,0,0,1,2.15,2.55" transform="translate(-8.66 -27.96)"/><g class="cls-29"><rect class="cls-30" x="90.94" y="29.4" width="8.23" height="10"/></g><path class="cls-18" d="M108.42,60.89a7.75,7.75,0,0,1-3.73,5.88c-2,1.17-3.72.45-3.72-1.57a2.73,2.73,0,0,1,.07-.72,8,8,0,0,1,3.65-5.16,1.32,1.32,0,0,1,.46-.2c1.83-.91,3.27-.13,3.27,1.77" transform="translate(-8.66 -27.96)"/><g class="cls-31"><rect class="cls-32" x="94.34" y="32.86" width="3.66" height="4.77"/></g><path class="cls-15" d="M105.09,62.39a1.68,1.68,0,0,1-.72,1.18c-.4.26-.72.06-.72-.33v-.13a1.35,1.35,0,0,1,.72-1,.06.06,0,0,0,.06-.07c.33-.19.66-.06.66.33" transform="translate(-8.66 -27.96)"/><polygon class="cls-33" points="130.92 23.65 129.42 24.5 129.42 14.77 130.92 13.85 130.92 23.65"/><path class="cls-34" d="M131.72,45.11c-1.82-1.36-5.24.12-7.65,3.32s-2.89,6.91-1.07,8.27,5.24-.12,7.65-3.32,2.89-6.9,1.07-8.27" transform="translate(-8.66 -27.96)"/><polygon class="cls-35" points="155.03 22.61 96.63 52.85 76.31 39.85 125.37 11.5 133.08 9.93 155.03 22.61"/><polygon class="cls-36" points="155.03 22.61 145.75 24.5 125.37 11.5 133.08 9.93 155.03 22.61"/><polygon class="cls-37" points="98.06 29.01 121.91 15.22 135.5 23 111.72 36.72 98.06 29.01"/><path class="cls-35" d="M134.68,52.26c0-2.92-3.63-5.29-8.1-5.29s-8.1,2.37-8.1,5.29,3.63,5.29,8.1,5.29,8.1-2.36,8.1-5.29" transform="translate(-8.66 -27.96)"/><polygon class="cls-38" points="155.03 27.11 96.63 60.82 96.63 52.85 145.75 24.5 155.03 22.61 155.03 27.11"/><polygon class="cls-36" points="111.72 36.72 135.5 23 136.93 25.81 110.28 41.22 111.72 36.72"/><g class="cls-39"><rect class="cls-40" x="130.2" y="23.72" width="23.39" height="25.02"/></g><path class="cls-7" d="M161.26,56c-3.2-2.4-9.22.2-13.45,5.83s-5.07,12.13-1.87,14.54,9.23-.2,13.46-5.83,5.06-12.13,1.86-14.54" transform="translate(-8.66 -27.96)"/><g class="cls-41"><rect class="cls-42" x="136.35" y="27.18" width="23.39" height="25.02"/></g><path class="cls-7" d="M167.4,59.43c-3.2-2.41-9.23.2-13.46,5.82s-5.06,12.14-1.86,14.54,9.23-.2,13.45-5.82,5.07-12.13,1.87-14.54" transform="translate(-8.66 -27.96)"/><g class="cls-43"><rect class="cls-44" x="144.32" y="32.99" width="12.8" height="16.79"/></g><path class="cls-12" d="M164.85,62.83c-2.11-1.59-6.1.17-8.92,3.92s-3.4,8.07-1.29,9.65,6.09-.17,8.91-3.92,3.4-8.07,1.3-9.65" transform="translate(-8.66 -27.96)"/><g class="cls-45"><rect class="cls-46" x="145.36" y="34.3" width="11.5" height="14.96"/></g><path class="cls-15" d="M162.71,66.05h0c0,2.42-2,5.49-4.31,6.86a4,4,0,0,1-1.25.52,2.14,2.14,0,0,1-2.81-1.11,1,1,0,0,1-.13-.46,9.9,9.9,0,0,1,.33-1.3,12.67,12.67,0,0,1,4.51-6.15,5.87,5.87,0,0,1,.78-.52c.2-.13.39-.19.59-.33s.07-.06.13-.06a2.26,2.26,0,0,1,2.16,2.55" transform="translate(-8.66 -27.96)"/><g class="cls-47"><rect class="cls-48" x="145.43" y="35.54" width="8.23" height="10"/></g><path class="cls-18" d="M162.84,67a7.75,7.75,0,0,1-3.73,5.88c-2,1.17-3.72.45-3.72-1.57a2.73,2.73,0,0,1,.07-.72,8.11,8.11,0,0,1,3.65-5.16,1.32,1.32,0,0,1,.46-.2c1.83-.91,3.27-.19,3.27,1.77" transform="translate(-8.66 -27.96)"/><g class="cls-49"><rect class="cls-50" x="148.76" y="39" width="3.66" height="4.77"/></g><path class="cls-15" d="M159.51,68.47a1.64,1.64,0,0,1-.72,1.17c-.39.26-.72.07-.72-.33v-.13a1.37,1.37,0,0,1,.72-1,.06.06,0,0,0,.06-.06c.39-.2.66,0,.66.33" transform="translate(-8.66 -27.96)"/><g class="cls-51"><rect class="cls-52" x="108.12" y="36.45" width="23.39" height="25.02"/></g><path class="cls-7" d="M139.24,68.68c-3.2-2.41-9.23.2-13.46,5.82S120.72,86.64,123.92,89s9.22-.19,13.45-5.82,5.07-12.13,1.87-14.54" transform="translate(-8.66 -27.96)"/><g class="cls-53"><rect class="cls-54" x="114.26" y="39.92" width="23.39" height="25.02"/></g><path class="cls-7" d="M145.33,72.19c-3.2-2.41-9.22.2-13.45,5.82S126.82,90.14,130,92.55s9.22-.2,13.45-5.82,5.06-12.13,1.86-14.54" transform="translate(-8.66 -27.96)"/><g class="cls-55"><rect class="cls-56" x="122.3" y="45.73" width="12.8" height="16.79"/></g><path class="cls-12" d="M131.35,86.1c0,3.53,2.87,4.71,6.4,2.68s6.4-6.53,6.4-10.06-2.87-4.7-6.4-2.68-6.4,6.54-6.4,10.06" transform="translate(-8.66 -27.96)"/><g class="cls-57"><rect class="cls-58" x="123.28" y="47.04" width="11.5" height="14.96"/></g><path class="cls-15" d="M140.63,78.79h0c0,2.41-2,5.49-4.32,6.86a4,4,0,0,1-1.24.52,2.13,2.13,0,0,1-2.81-1.11,1,1,0,0,1-.13-.46,9.9,9.9,0,0,1,.33-1.3A12.67,12.67,0,0,1,137,77.15a5.87,5.87,0,0,1,.78-.52c.2-.13.39-.19.59-.33s.06-.06.13-.06c1.24,0,2.16.91,2.16,2.55" transform="translate(-8.66 -27.96)"/><g class="cls-59"><rect class="cls-60" x="123.34" y="48.21" width="8.23" height="10"/></g><path class="cls-18" d="M140.82,79.77a7.76,7.76,0,0,1-3.72,5.88c-2,1.17-3.73.45-3.73-1.57a2.73,2.73,0,0,1,.07-.72,8.1,8.1,0,0,1,3.66-5.16,1.24,1.24,0,0,1,.46-.2c1.82-.91,3.26-.19,3.26,1.77" transform="translate(-8.66 -27.96)"/><g class="cls-61"><rect class="cls-62" x="126.74" y="51.74" width="3.66" height="4.7"/></g><path class="cls-15" d="M137.49,81.2a1.64,1.64,0,0,1-.72,1.18c-.39.26-.72.07-.72-.33v-.13a1.4,1.4,0,0,1,.72-1s.07,0,.07-.06c.39-.2.65-.07.65.32" transform="translate(-8.66 -27.96)"/><path class="cls-63" d="M133.37,72.32c0,.52-3.52,4.12-6.59,9.67a37.25,37.25,0,0,0-3.53,8.23l-8.5-5.42a21.47,21.47,0,0,1,2.62-8.3A33.39,33.39,0,0,1,125,66.9Z" transform="translate(-8.66 -27.96)"/><path class="cls-64" d="M133.37,72.32c0,.52-3.52,4.12-6.59,9.67l-9.41-5.49A33.39,33.39,0,0,1,125,66.9Z" transform="translate(-8.66 -27.96)"/><path class="cls-63" d="M124.29,89.83l-1.11.39c.92-10.06,9.8-17.57,10.19-17.9l.53.72c-.07.06-8.76,7.38-9.61,16.79" transform="translate(-8.66 -27.96)"/><polygon class="cls-38" points="98.06 29.01 111.72 36.72 110.28 41.22 96.63 33.45 98.06 29.01"/><polygon class="cls-65" points="98.13 26.85 99.96 35.8 99.96 45.41 102.96 43.71 102.96 49 99.96 50.76 99.11 51.22 96.36 52.85 96.36 27.9 98.13 26.85"/><g class="cls-66"><rect class="cls-67" x="113.55" y="23.32" width="8.75" height="5.36"/></g><g class="cls-68"><rect class="cls-69" x="109.82" y="21.04" width="16.2" height="6.6"/></g><path class="cls-70" d="M134.68,49.26c0-2.92-3.63-5.29-8.1-5.29s-8.1,2.37-8.1,5.29,3.63,5.29,8.1,5.29,8.1-2.37,8.1-5.29" transform="translate(-8.66 -27.96)"/><g class="cls-71"><rect class="cls-72" x="44.16" y="19.34" width="4.57" height="30.05"/></g><path class="cls-73" d="M57.33,47.36c0,.79-1,1.51-2.29,1.51s-2.28-.66-2.28-1.51,1-1.5,2.28-1.5,2.29.72,2.29,1.5" transform="translate(-8.66 -27.96)"/><path class="cls-74" d="M58.83,35a2.84,2.84,0,0,1-1.11,2.48l-.59.52a2.18,2.18,0,0,0-.85,1.7V47a1.23,1.23,0,0,1-1.17.58A1.4,1.4,0,0,1,53.93,47v-8a3.8,3.8,0,0,1,1.44-3l2.48-2.22c0,.06.85-.2,1,1.18" transform="translate(-8.66 -27.96)"/><path class="cls-75" d="M54.39,47.43v-8a3.8,3.8,0,0,1,1.44-3l2.48-2.22h.26a.7.7,0,0,0-.78-.39L55.3,36.06a3.82,3.82,0,0,0-1.43,3v8c.13.19.32.39.52.39h0" transform="translate(-8.66 -27.96)"/><path class="cls-76" d="M58.44,36.65l-1.31,1.17a3.82,3.82,0,0,0-1.43,3v6.66c.32-.13.52-.26.58-.52V39.65A2.16,2.16,0,0,1,57.13,38l.59-.53c0,.07.39-.26.72-.78" transform="translate(-8.66 -27.96)"/><g class="cls-77"><rect class="cls-78" x="22.54" y="56.97" width="6.93" height="3.53"/></g><g class="cls-79"><rect class="cls-80" x="22.15" y="55.2" width="7.71" height="3.79"/></g><path class="cls-81" d="M38.51,83.3c0,1.37-1.7,2.48-3.85,2.48S30.8,84.67,30.8,83.3s1.7-2.49,3.86-2.49,3.85,1,3.85,2.49" transform="translate(-8.66 -27.96)"/><g class="cls-82"><rect class="cls-83" x="22.54" y="51.68" width="6.93" height="5.49"/></g><g class="cls-84"><rect class="cls-85" x="22.15" y="49.39" width="7.71" height="3.85"/></g><path class="cls-81" d="M38.51,77.48c0,1.37-1.7,2.48-3.85,2.48s-3.86-1.11-3.86-2.48S32.5,75,34.66,75s3.85,1.11,3.85,2.48" transform="translate(-8.66 -27.96)"/><g class="cls-86"><rect class="cls-87" x="22.54" y="48.02" width="6.93" height="3.53"/></g><path class="cls-73" d="M38.12,76.11c0,1.24-1.57,2.29-3.46,2.29s-5.62-.72-5.62-2,3.72-2.55,5.62-2.55,3.46,1,3.46,2.22" transform="translate(-8.66 -27.96)"/><path class="cls-34" d="M18.52,114c0,3.2,2.62,4.25,5.75,2.42S30,109,30,105.77s-2.61-2.75-5.75-.85c1-.52-5.75,11-5.75,9.08" transform="translate(-8.66 -27.96)"/><path class="cls-63" d="M41.06,100.28c-1-5.36-3.13-8.1-6.4-8.17a1.71,1.71,0,0,0-.59.07c-.33-.59-3.85.13-4.31.46-.26.13-4.38,5.49-11.43,18l-6.47-3.59c1.24-6.6,9.8-19.41,17.57-19.41h.07a6.31,6.31,0,0,1,2.81.66c1.11.52,6.27,2.8,7.18,4.31s1.11,5.09,1.57,7.64" transform="translate(-8.66 -27.96)"/><g class="cls-88"><rect class="cls-89" x="1.83" y="73.3" width="7.51" height="7.25"/></g><path class="cls-90" d="M16.82,106.36v1.43a.67.67,0,0,1-1,.59l-4.77-2.74a1.74,1.74,0,0,1-.85-1.5V102.7a.67.67,0,0,1,1-.59L16,104.85a1.81,1.81,0,0,1,.85,1.51" transform="translate(-8.66 -27.96)"/><path class="cls-91" d="M13.17,105.18a.89.89,0,0,1-.14.46c-.19.32-.65.39-1.17.13a2.53,2.53,0,0,1-1.24-2c0-.52.26-.79.72-.72a.9.9,0,0,1,.52.2,2.12,2.12,0,0,1,1.31,1.89" transform="translate(-8.66 -27.96)"/><path class="cls-91" d="M16,106.81a.89.89,0,0,1-.13.46c-.19.33-.65.39-1.17.13a2.52,2.52,0,0,1-1.24-2c0-.52.26-.78.72-.72a.9.9,0,0,1,.52.2,2.41,2.41,0,0,1,1.3,1.89" transform="translate(-8.66 -27.96)"/><path class="cls-92" d="M13.17,105.18a.89.89,0,0,1-.14.46.9.9,0,0,1-.52-.2,2.52,2.52,0,0,1-1.24-2,1.08,1.08,0,0,1,.13-.46.85.85,0,0,1,.52.2,2.36,2.36,0,0,1,1.25,2" transform="translate(-8.66 -27.96)"/><path class="cls-92" d="M16,106.81a.89.89,0,0,1-.13.46.88.88,0,0,1-.52-.19,2.55,2.55,0,0,1-1.24-2,1,1,0,0,1,.13-.46.84.84,0,0,1,.52.19,2.72,2.72,0,0,1,1.24,2" transform="translate(-8.66 -27.96)"/><polygon class="cls-93" points="9.54 83.23 75.39 41.94 75.39 31.75 9.54 73.04 9.54 83.23"/><polygon class="cls-94" points="28.61 68.79 47.3 59.58 47.3 52.85 28.61 63.63 28.61 68.79"/><polygon class="cls-94" points="47.69 63.96 75.39 47.95 75.39 37.43 47.69 53.44 47.69 63.96"/><polygon class="cls-94" points="75.39 32.14 48.93 47.43 48.93 50.37 75.39 35.08 75.39 32.14"/><path class="cls-64" d="M106.07,46.71,89.86,69.25,57.59,75.39V48c0-2.22,2-6.86,3.4-8.63,5.09-6.66,7.44-8.88,12.67-11.43Z" transform="translate(-8.66 -27.96)"/><path class="cls-63" d="M82,64.35c0-2.22,2.09-7.64,3.34-9.54,4.63-7.19,8.49-9.54,13.72-12V41.55L78.82,31c-5.22,2.48-9.34,7.45-12.15,14.5-.85,2.09-2.29,5.95-2.29,8.24L62.69,78.46l20.38-3.92Z" transform="translate(-8.66 -27.96)"/><path class="cls-95" d="M82,63.11c0-2.22,2.09-7.65,3.34-9.54,4.63-7.19,8.49-9.54,13.72-12L78.82,29.85c-5.22,2.49-9.34,7.45-12.15,14.51-.85,2.09-2.29,5.94-2.29,8.23l-1.69,24.7,20.38-3.92Z" transform="translate(-8.66 -27.96)"/><polygon class="cls-38" points="37.17 103.61 98.06 67.94 98.06 61.22 37.17 93.95 37.17 103.61"/><g class="cls-96"><rect class="cls-97" x="82.97" y="58.47" width="22.8" height="20.25"/></g><path class="cls-98" d="M91.82,96c1.9-1.11,4.84.4,6.54,3.34s1.5,6.2-.4,7.31-4.83-.39-6.53-3.33-1.5-6.27.39-7.32" transform="translate(-8.66 -27.96)"/><path class="cls-99" d="M91.76,97.47c1.5-.91,3.85.33,5.22,2.68s1.25,5-.32,5.88-3.86-.33-5.23-2.68-1.17-5,.33-5.88" transform="translate(-8.66 -27.96)"/><polygon class="cls-100" points="61.02 92.57 79.7 81.79 79.7 75.13 61.02 85.91 61.02 92.57"/><polygon class="cls-99" points="78.66 79.51 78.66 76.44 76.44 77.61 76.44 78.33 76.44 81.34 78.66 82.12 78.66 79.51"/><polygon class="cls-75" points="79.7 81.53 62.26 91.59 64.42 92.83 81.86 82.77 79.7 81.53"/><polygon class="cls-65" points="77.55 73.89 60.1 83.95 62.2 85.19 79.7 75.06 77.55 73.89"/><polygon class="cls-3" points="62.26 91.59 62.26 92.12 64.42 93.29 64.42 92.83 62.26 91.59"/><polygon class="cls-2" points="81.86 83.23 64.42 93.29 64.42 92.83 81.86 82.77 81.86 83.23"/><polygon class="cls-75" points="76.5 78.33 59.06 88.39 61.22 89.63 78.66 79.51 76.5 78.33"/><polygon class="cls-2" points="78.66 80.03 61.22 90.09 61.22 89.63 78.66 79.51 78.66 80.03"/><polygon class="cls-63" points="63.63 82.84 81.34 72.65 81.34 38.41 64.42 48.48 64.94 53.96 65.85 52.33 63.63 66.51 63.63 82.84"/><path class="cls-63" d="M43.94,122.69,72.29,110.8V94.47C65.82,91,43.94,107.21,43.94,107.21Z" transform="translate(-8.66 -27.96)"/><path class="cls-101" d="M77.39,121.32l-5.23-2.88a15.53,15.53,0,0,0-1.77-5.22c.2,0,.4-.07.59-.07,3.27.07,5.43,2.75,6.41,8.17" transform="translate(-8.66 -27.96)"/><g class="cls-102"><rect class="cls-103" x="42.2" y="82.84" width="23.39" height="25.02"/></g><path class="cls-7" d="M73.28,115.09c-3.2-2.4-9.23.2-13.46,5.83S54.76,133.05,58,135.46s9.22-.2,13.45-5.83,5.07-12.13,1.87-14.54" transform="translate(-8.66 -27.96)"/><g class="cls-104"><rect class="cls-105" x="50.17" y="88.65" width="12.8" height="16.79"/></g><path class="cls-12" d="M70.72,118.48c-2.1-1.58-6.1.18-8.92,3.92s-3.39,8.08-1.29,9.66,6.1-.17,8.92-3.92,3.4-8.07,1.29-9.66" transform="translate(-8.66 -27.96)"/><g class="cls-106"><rect class="cls-107" x="51.22" y="89.96" width="11.5" height="14.96"/></g><path class="cls-15" d="M68.57,121.71h0c0,2.42-2,5.49-4.32,6.86a3.75,3.75,0,0,1-1.24.52A2.13,2.13,0,0,1,60.2,128a1,1,0,0,1-.13-.46,10.32,10.32,0,0,1,.33-1.3,12.6,12.6,0,0,1,4.51-6.14,5.13,5.13,0,0,1,.78-.53c.2-.13.39-.19.59-.32s.06-.07.13-.07c1.24,0,2.16.92,2.16,2.55" transform="translate(-8.66 -27.96)"/><g class="cls-108"><rect class="cls-109" x="51.29" y="91.14" width="8.23" height="10"/></g><path class="cls-18" d="M68.7,122.62A7.73,7.73,0,0,1,65,128.5c-2,1.18-3.72.46-3.72-1.56a3.17,3.17,0,0,1,.06-.72A8.07,8.07,0,0,1,65,121.06a1.32,1.32,0,0,1,.46-.2c1.83-.85,3.27-.13,3.27,1.76" transform="translate(-8.66 -27.96)"/><g class="cls-110"><rect class="cls-111" x="54.62" y="94.6" width="3.66" height="4.77"/></g><path class="cls-15" d="M65.36,124.13a1.63,1.63,0,0,1-.71,1.17c-.4.26-.72.07-.72-.32v-.13a1.31,1.31,0,0,1,.72-1,.06.06,0,0,0,.06-.07c.39-.2.65-.07.65.33" transform="translate(-8.66 -27.96)"/><path class="cls-75" d="M75.49,91.07a1.37,1.37,0,0,1-1.31-1.63l1.38-9.28A4.81,4.81,0,0,1,77.78,77l4.7-3a1.84,1.84,0,0,1,.79-.26,1.48,1.48,0,0,1,1.5,1.5v8.36a3.93,3.93,0,0,1-2,3.4l-6.73,3.92A.88.88,0,0,1,75.49,91.07Z" transform="translate(-8.66 -27.96)"/><path class="cls-112" d="M75.88,90.55l6.73-3.92a3.46,3.46,0,0,0,1.7-3v-8.3a1.06,1.06,0,0,0-1.63-.91l-4.71,3a4.53,4.53,0,0,0-2,2.87l-1.37,9.28a.89.89,0,0,0,1.3,1" transform="translate(-8.66 -27.96)"/><path class="cls-75" d="M75.82,103.48a1.24,1.24,0,0,1-1.24-1.24v-6.4a1.76,1.76,0,0,1,.91-1.57L78,92.77a1,1,0,0,1,.59-.2,1.24,1.24,0,0,1,1.24,1.24v6.41a1.74,1.74,0,0,1-.92,1.56l-2.54,1.51a.69.69,0,0,1-.59.19" transform="translate(-8.66 -27.96)"/><path class="cls-112" d="M78.82,101.46,76.27,103a.83.83,0,0,1-1.24-.72v-6.4a1.24,1.24,0,0,1,.72-1.18l2.55-1.5a.83.83,0,0,1,1.24.72v6.4a1.5,1.5,0,0,1-.72,1.18" transform="translate(-8.66 -27.96)"/><path class="cls-63" d="M106.07,88.39,90,97.67V70.56a20.51,20.51,0,0,1,1.38-7.45c1.83-4.44,9.6-15,14.7-16.34Z" transform="translate(-8.66 -27.96)"/><polygon class="cls-75" points="97.41 59.52 77.74 70.88 77.74 73.82 78.46 74.28 98.06 59.97 97.41 59.52"/><polygon class="cls-76" points="98.06 59.97 78.46 71.34 78.46 74.28 98.06 62.91 98.06 59.97"/><path class="cls-99" d="M91.76,98v.46a.65.65,0,0,1-.33.52l-2,1.18a.22.22,0,0,1-.33-.2v-.13l1.7-1a.65.65,0,0,0,.33-.52V98l.33-.19c.06-.07.26,0,.26.19" transform="translate(-8.66 -27.96)"/><path class="cls-113" d="M91.1,98v.33a.66.66,0,0,1-.32.52l-1.7,1V99.5a.67.67,0,0,1,.33-.53Z" transform="translate(-8.66 -27.96)"/><path class="cls-99" d="M105.8,89.7v.45a.68.68,0,0,1-.32.53l-2,1.17a.22.22,0,0,1-.33-.19v-.13l1.7-1a.67.67,0,0,0,.33-.53V89.7l.32-.2c.07-.13.26,0,.26.2" transform="translate(-8.66 -27.96)"/><path class="cls-113" d="M105.15,89.7V90a.67.67,0,0,1-.33.53l-1.69,1V91.2a.66.66,0,0,1,.32-.52Z" transform="translate(-8.66 -27.96)"/><path class="cls-99" d="M101.1,92.44v.46a.66.66,0,0,1-.33.52l-2,1.18a.22.22,0,0,1-.32-.2v-.13l1.7-1a.68.68,0,0,0,.32-.52v-.33l.33-.19c.06-.07.26.06.26.19" transform="translate(-8.66 -27.96)"/><path class="cls-113" d="M100.45,92.44v.33a.66.66,0,0,1-.33.52l-1.7,1v-.33a.66.66,0,0,1,.33-.52Z" transform="translate(-8.66 -27.96)"/><path class="cls-99" d="M96.46,95.25v.46a.68.68,0,0,1-.32.52l-2,1.18a.22.22,0,0,1-.33-.2v-.13l1.7-1a.68.68,0,0,0,.32-.52v-.33l.33-.2c.07-.13.26,0,.26.2" transform="translate(-8.66 -27.96)"/><path class="cls-113" d="M95.74,95.19v.32a.66.66,0,0,1-.32.52l-1.7,1v-.32a.66.66,0,0,1,.32-.52Z" transform="translate(-8.66 -27.96)"/><path class="cls-64" d="M41.19,59.71c.46,9.34,34.89,27.77,32.41,18.75C72.88,75.78,90,66.9,90,66.9s-18.55-6.41-32.4-18.75c0,0-16.66,6.53-16.4,11.56" transform="translate(-8.66 -27.96)"/><path class="cls-63" d="M82.87,64c-6.07-2.75-15.09-6.8-23-13.33C54.06,53.5,42.83,59.58,43,63.3a6.74,6.74,0,0,0,.26,1.51c3.86,5,12.42,10.65,19.47,13.91,3.2.59,5.29-.13,4.51-3C66.54,73.36,80,66.37,82.87,64" transform="translate(-8.66 -27.96)"/><path class="cls-95" d="M82.87,64a106.92,106.92,0,0,1-23-13.85C54.06,53,42.83,59.06,43,62.78a6.57,6.57,0,0,0,.26,1.5c3.86,5,12.42,10.65,19.47,13.92,3.2.59,5.29-.13,4.51-3C66.54,72.84,79.61,65.66,82.87,64" transform="translate(-8.66 -27.96)"/><path class="cls-64" d="M72,94.53c-6.53,1.83-25.8,10.91-25.8,10.91l-24.89-15S30.41,83.75,40,75.72c7.12-6,31,17.31,32.34,18.68a.41.41,0,0,0-.33.13" transform="translate(-8.66 -27.96)"/><polygon class="cls-63" points="56.64 63.11 32.53 77.87 14.57 64.28 37.44 45.8 56.64 63.11"/><polygon class="cls-95" points="59.13 61.54 32.53 76.96 14.57 63.37 37.44 44.88 59.13 61.54"/><polygon class="cls-95" points="56.84 56.45 30.12 74.41 14.5 67.36 40.83 47.37 56.84 56.45"/><path class="cls-114" d="M30,97l4.05-3.14a27,27,0,0,0-10.32-3.72,3.68,3.68,0,0,0-3.46,1.31l-1.51,1.76Z" transform="translate(-8.66 -27.96)"/><path class="cls-73" d="M47.33,107.34v13.32l-3.39,2-.59-15V107L30.09,96.82l4.05-3.14c2.87,1.24,8.23,6.08,11.17,8.82a6.21,6.21,0,0,1,1.89,3.27,14,14,0,0,1,.13,1.57" transform="translate(-8.66 -27.96)"/><path class="cls-115" d="M47.33,107.34v13.32l-3.39,2-.59-15,3.79-1.83a7.34,7.34,0,0,1,.19,1.57" transform="translate(-8.66 -27.96)"/><path class="cls-116" d="M20.61,92.57l3.14.59A44.64,44.64,0,0,1,37,100.35l5.74,5.35a4.13,4.13,0,0,1,1.31,3v22L18.26,115.83V94.53a1.94,1.94,0,0,1,2.35-2" transform="translate(-8.66 -27.96)"/><polygon class="cls-73" points="1.5 77.87 42.47 101.52 45.01 101.07 46.25 101.78 43.31 103.61 0.07 78.72 1.5 77.87"/><path class="cls-116" d="M54.91,129.75,54,139.41l-.79.46a3,3,0,0,1-1.43.39,2.51,2.51,0,0,1-1.18-.32l-41-23.65a1.93,1.93,0,0,1-1-1.64v-8l41.87,24.18a2.79,2.79,0,0,0,1.18.32,2.28,2.28,0,0,0,1.44-.39Z" transform="translate(-8.66 -27.96)"/><path class="cls-115" d="M54.91,129.75,54,139.41l-.79.46a3,3,0,0,1-1.43.39v-9.08a2.24,2.24,0,0,0,1.43-.39Z" transform="translate(-8.66 -27.96)"/><path class="cls-117" d="M54,138l-.79.45a2.6,2.6,0,0,1-2.68.07L8.66,114.33v.39a2,2,0,0,0,.91,1.63l41,23.65a2.63,2.63,0,0,0,2.68-.06l.79-.46.13-1.57Z" transform="translate(-8.66 -27.96)"/><polygon class="cls-73" points="7.19 91.92 3.2 89.63 3.2 88.13 7.19 90.48 7.19 91.92"/><g class="cls-118"><rect class="cls-119" x="58.08" y="78.92" width="6.93" height="3.53"/></g><g class="cls-120"><rect class="cls-121" x="57.69" y="77.09" width="7.71" height="3.85"/></g><path class="cls-81" d="M74.05,105.18c0,1.37-1.7,2.48-3.85,2.48s-3.86-1.11-3.86-2.48,1.7-2.48,3.86-2.48,3.85,1.11,3.85,2.48" transform="translate(-8.66 -27.96)"/><g class="cls-122"><rect class="cls-123" x="58.08" y="73.63" width="6.93" height="5.49"/></g><g class="cls-124"><rect class="cls-125" x="57.69" y="71.34" width="7.71" height="3.85"/></g><path class="cls-81" d="M74.05,99.43c0,1.37-1.7,2.48-3.85,2.48s-3.86-1.11-3.86-2.48S68,97,70.2,97s3.85,1.11,3.85,2.48" transform="translate(-8.66 -27.96)"/><g class="cls-126"><rect class="cls-127" x="58.08" y="69.97" width="6.93" height="3.53"/></g><path class="cls-73" d="M73.66,98.06c0-1.26-1.55-2.29-3.46-2.29s-3.46,1-3.46,2.29,1.55,2.29,3.46,2.29,3.46-1,3.46-2.29" transform="translate(-8.66 -27.96)"/><path class="cls-63" d="M77.39,121.32a16.17,16.17,0,0,0-1.7-5.16,5.32,5.32,0,0,0-4.71-3,1.65,1.65,0,0,0-.58.07c-.33-.59-3.86.19-4.32.52-.19.13-3.46,1.76-7.77,6.79a60.46,60.46,0,0,0-6.53,9.41l-8.24-4.57c.53-2.88,3.27-6.34,6.86-9.41,4.71-4,10.85-7.25,15.29-7.25h.07a6.3,6.3,0,0,1,2.81.65c1.11.52,6.27,2.81,7.18,4.31a7,7,0,0,1,.59,1.51c.46,1.76.72,4.24,1,6.14" transform="translate(-8.66 -27.96)"/><path class="cls-95" d="M76.41,115.18c-.27.32-.46.65-.72,1a5.32,5.32,0,0,0-4.71-3,1.65,1.65,0,0,0-.58.07c-.33-.59-3.86.19-4.32.52-.19.13-3.46,1.76-7.77,6.79L50.47,116c4.7-4,10.84-7.25,15.29-7.25h.06a6.24,6.24,0,0,1,2.81.65c1.11.52,6.27,2.81,7.19,4.31a3.77,3.77,0,0,1,.59,1.51" transform="translate(-8.66 -27.96)"/><polygon class="cls-128" points="55.07 82.97 53.38 83.95 52 83.17 53.7 82.19 55.07 82.97"/><path class="cls-64" d="M79,121l-1.63.26c-1-5.35-3.14-8.1-6.41-8.16a1.91,1.91,0,0,0-.58.06c-6.67.59-15.62,10.06-16.73,15.88l-1.89.85c1.17-6.14,10-16.73,17.44-18.23a8.09,8.09,0,0,1,1.7-.2H71a6.42,6.42,0,0,1,4.84,2.09c1.37,1.51,2.55,3.79,3.2,7.45" transform="translate(-8.66 -27.96)"/><polygon class="cls-64" points="65.85 52.33 63.63 66.51 45.27 57.62 43.38 56.77 43.05 56.58 31.23 47.76 33.78 32.93 46.25 41.88 48.08 42.92 65.85 52.33"/><polygon class="cls-112" points="64.94 52.66 62.85 64.94 45.27 56.45 43.38 55.53 43.31 55.53 32.4 47.37 34.49 35.08 36.06 35.93 42.99 39.98 46.25 41.81 48.08 42.92 64.94 52.66"/><polygon class="cls-112" points="47.5 53.9 45.54 52.98 34.63 44.75 32.67 45.93 32.4 47.37 43.31 55.53 43.38 55.53 45.27 56.45 62.85 64.94 63.44 61.61 47.5 53.9"/><path class="cls-112" d="M51.64,67.94c-.19.13-.32.26-.52.39l-6.73,3.92a.88.88,0,0,1-1.3-1l1.43-6.46a3,3,0,0,1,.27-.85Z" transform="translate(-8.66 -27.96)"/><polygon class="cls-129" points="55.86 82.51 54.23 83.49 52.85 82.71 54.55 81.73 55.86 82.51"/><polygon class="cls-113" points="55.86 82.51 55.86 83.49 54.23 84.41 54.23 83.49 55.86 82.51"/><polygon class="cls-130" points="54.23 83.49 54.23 84.41 52.85 83.69 52.85 82.71 54.23 83.49"/><g class="cls-131"><rect class="cls-132" x="35.41" y="92.7" width="7.51" height="7.25"/></g><path class="cls-90" d="M50.34,125.69v1.44a.67.67,0,0,1-1,.59L44.59,125a1.74,1.74,0,0,1-.85-1.51V122a.67.67,0,0,1,1-.59l4.77,2.74a1.83,1.83,0,0,1,.85,1.5" transform="translate(-8.66 -27.96)"/><path class="cls-91" d="M46.68,124.52a1,1,0,0,1-.13.46c-.2.32-.65.39-1.18.13a2.55,2.55,0,0,1-1.24-2c0-.53.26-.79.72-.72a.84.84,0,0,1,.52.19,2.2,2.2,0,0,1,1.31,1.9" transform="translate(-8.66 -27.96)"/><path class="cls-91" d="M49.49,126.22a1,1,0,0,1-.13.45c-.2.33-.65.4-1.18.14a2.55,2.55,0,0,1-1.24-2c0-.53.26-.79.72-.72a.84.84,0,0,1,.52.19,2.2,2.2,0,0,1,1.31,1.9" transform="translate(-8.66 -27.96)"/><path class="cls-92" d="M46.68,124.52a1,1,0,0,1-.13.46.85.85,0,0,1-.52-.2,2.53,2.53,0,0,1-1.24-2,.89.89,0,0,1,.13-.46.9.9,0,0,1,.52.2,2.43,2.43,0,0,1,1.24,2" transform="translate(-8.66 -27.96)"/><path class="cls-92" d="M49.49,126.22a1,1,0,0,1-.13.45.84.84,0,0,1-.52-.19,2.55,2.55,0,0,1-1.25-2,.89.89,0,0,1,.14-.46.9.9,0,0,1,.52.2,2.43,2.43,0,0,1,1.24,2" transform="translate(-8.66 -27.96)"/><polygon class="cls-64" points="48.08 42.92 48.08 42.92 45.27 56.45 45.01 57.49 43.05 56.58 43.38 55.53 46.25 41.88 46.25 41.81 48.08 42.92"/><g class="cls-133"><rect class="cls-134" x="77.74" y="39.13" width="4.57" height="33.58"/></g><path class="cls-73" d="M91,67.16c0,.78-1,1.5-2.28,1.5S86.4,68,86.4,67.16s1-1.5,2.29-1.5,2.28.65,2.28,1.5" transform="translate(-8.66 -27.96)"/><path class="cls-74" d="M92.41,54.75a2.84,2.84,0,0,1-1.11,2.48l-.59.52a2.18,2.18,0,0,0-.85,1.7v7.32a1.23,1.23,0,0,1-1.17.58,1.4,1.4,0,0,1-1.18-.58v-8a3.8,3.8,0,0,1,1.44-3l2.48-2.22c0,.06.85-.13,1,1.18" transform="translate(-8.66 -27.96)"/><path class="cls-75" d="M88,67.22v-8a3.83,3.83,0,0,1,1.44-3L92,54h.27a.71.71,0,0,0-.79-.4L89,55.86a3.78,3.78,0,0,0-1.44,3v8a1,1,0,0,0,.52.39" transform="translate(-8.66 -27.96)"/><path class="cls-76" d="M92,56.44l-1.31,1.18a3.82,3.82,0,0,0-1.43,3v6.66c.32-.13.52-.26.58-.52V59.45a2.18,2.18,0,0,1,.85-1.7l.59-.52a2.77,2.77,0,0,0,.72-.79" transform="translate(-8.66 -27.96)"/><path class="cls-63" d="M41.19,59.71a7.44,7.44,0,0,0,.92,1.83c5.94,7.25,32.4,18.75,32.4,18.75l-.91-1.83S48.25,66.83,41.19,59.71" transform="translate(-8.66 -27.96)"/><path class="cls-95" d="M52.36,57.88l-.85.59c-.26.13-.26.39-.52.26l-.39-.33c-.26-.13-.59-.71-.33-.91l.85-.59c.26-.13,1.18-.59,1.44-.39l.13.06c.33.14-.07,1.12-.33,1.31" transform="translate(-8.66 -27.96)"/><path class="cls-135" d="M53.6,58l-1.37.92a.8.8,0,0,1-.91,0l-.33-.2c-.32-.2.07-1.44.39-1.57l1-.06c.27-.2.66-.59,1-.46l.27.2c.26.06.32,1,0,1.17" transform="translate(-8.66 -27.96)"/><path class="cls-136" d="M53.28,57.23l-.85.59a.85.85,0,0,1-.79,0l-.13-.07a.43.43,0,0,1,0-.72l.85-.59a.85.85,0,0,1,.79,0l.13.07a.43.43,0,0,1,0,.72" transform="translate(-8.66 -27.96)"/><path class="cls-95" d="M60.4,62.52l-.85.59c-.26.13-.26.39-.52.26l-.4-.33c-.26-.13-.58-.72-.32-.91l.85-.59c.26-.13,1.17-.59,1.44-.39l.13.06c.26.13-.07,1.11-.33,1.31" transform="translate(-8.66 -27.96)"/><path class="cls-135" d="M61.64,62.65l-1.37.92a.81.81,0,0,1-.92,0l-.32-.2c-.33-.2.06-1.44.39-1.57l1-.06c.26-.2.65-.59,1-.46l.26.19c.26.07.26,1,0,1.18" transform="translate(-8.66 -27.96)"/><path class="cls-136" d="M61.25,61.87l-.85.58a.78.78,0,0,1-.78,0l-.14-.06a.43.43,0,0,1,0-.72l.85-.59a.85.85,0,0,1,.79,0l.13.07a.43.43,0,0,1,0,.72" transform="translate(-8.66 -27.96)"/><path class="cls-95" d="M68.37,67.16l-.85.59c-.26.13-.26.39-.52.26l-.39-.33c-.27-.13-.59-.72-.33-.91l.85-.59c.26-.13,1.17-.59,1.44-.39l.13.06c.32.13-.07,1.11-.33,1.31" transform="translate(-8.66 -27.96)"/><path class="cls-135" d="M69.61,67.29l-1.37.91a.78.78,0,0,1-.92,0L67,68c-.33-.2.06-1.44.39-1.57l1-.07c.26-.19.65-.58,1-.45l.26.19c.26.07.33,1,0,1.18" transform="translate(-8.66 -27.96)"/><path class="cls-136" d="M69.28,66.51l-.85.58a.83.83,0,0,1-.78,0L67.52,67a.43.43,0,0,1,0-.72l.85-.59a.83.83,0,0,1,.78,0l.13.07a.42.42,0,0,1,0,.72" transform="translate(-8.66 -27.96)"/><path class="cls-137" d="M32.5,99.5a.55.55,0,0,1-.13.39c-.32.33-1,.26-1.83-.13a3.28,3.28,0,0,1-2-2.22c0-.53.46-.72,1.11-.59a2.47,2.47,0,0,1,.85.33c1.05.52,2,1.5,2,2.22" transform="translate(-8.66 -27.96)"/><path class="cls-138" d="M21.27,111l18.94,10.91a.92.92,0,0,0,1.37-.79V109.36a2.11,2.11,0,0,0-1.11-1.89L21.53,96.56a.91.91,0,0,0-1.37.78V109.1a2.26,2.26,0,0,0,1.11,1.9" transform="translate(-8.66 -27.96)"/><path class="cls-115" d="M40.67,121.71l-19-10.91a2.11,2.11,0,0,1-1.11-1.9V97.15a.8.8,0,0,1,.33-.66.92.92,0,0,0-.78.92v11.76a2.11,2.11,0,0,0,1.11,1.89L40.21,122a.89.89,0,0,0,1-.13,2.09,2.09,0,0,1-.59-.13" transform="translate(-8.66 -27.96)"/><path class="cls-139" d="M41.58,119.49v1a230.92,230.92,0,0,1-21.36-11.76v-1a237.58,237.58,0,0,0,21.36,11.76" transform="translate(-8.66 -27.96)"/><path class="cls-139" d="M41.58,117.66v1c-4.37-2.09-15.09-7.71-21.36-11.76v-1c6.21,4,17,9.6,21.36,11.76" transform="translate(-8.66 -27.96)"/><path class="cls-139" d="M41.58,115.76v1A228.57,228.57,0,0,1,20.22,105v-1a221.22,221.22,0,0,0,21.36,11.76" transform="translate(-8.66 -27.96)"/><path class="cls-139" d="M41.58,113.87v1a228.57,228.57,0,0,1-21.36-11.76v-.91a221.17,221.17,0,0,0,21.36,11.69" transform="translate(-8.66 -27.96)"/><path class="cls-116" d="M41.58,120v1c-4.83-2.35-15.48-8-21.36-11.82v-1C26.1,112,36.75,117.66,41.58,120" transform="translate(-8.66 -27.96)"/><path class="cls-116" d="M41.58,118.12v1c-4.37-2.09-15.09-7.71-21.36-11.76v-1a223.41,223.41,0,0,0,21.36,11.76" transform="translate(-8.66 -27.96)"/><path class="cls-116" d="M41.58,116.29v1c-4.83-2.35-15.48-8-21.36-11.83v-1c5.88,3.86,16.53,9.48,21.36,11.83" transform="translate(-8.66 -27.96)"/><path class="cls-116" d="M41.58,114.39v1a228.57,228.57,0,0,1-21.36-11.76v-1a221.22,221.22,0,0,0,21.36,11.76" transform="translate(-8.66 -27.96)"/><path class="cls-139" d="M41.58,112v1A233.32,233.32,0,0,1,20.22,101.2v-1A240.12,240.12,0,0,0,41.58,112" transform="translate(-8.66 -27.96)"/><path class="cls-139" d="M41.58,110.15v1c-4.37-2.09-15.09-7.71-21.36-11.76v-1c6.21,4,17,9.6,21.36,11.76" transform="translate(-8.66 -27.96)"/><path class="cls-139" d="M41.52,109.23a241.86,241.86,0,0,1-21.3-11.69,1.47,1.47,0,0,1,.26-.39.53.53,0,0,1,.39-.2c.33.2,3.07,1.89,4.45,2.81.06,0,.06.06.13.06,2.15,1.25,4.37,2.49,6.47,3.53.06,0,.13.07.19.07,2.81,1.37,8.56,4.64,8.56,4.64a1.84,1.84,0,0,1,.52.52,2.09,2.09,0,0,1,.33.65" transform="translate(-8.66 -27.96)"/><path class="cls-116" d="M41.58,112.5v1c-4.83-2.35-15.48-8-21.36-11.83v-1c5.88,3.79,16.53,9.48,21.36,11.83" transform="translate(-8.66 -27.96)"/><path class="cls-116" d="M41.58,110.6v1c-4.37-2.09-15.09-7.71-21.36-11.76v-1A221.22,221.22,0,0,0,41.58,110.6" transform="translate(-8.66 -27.96)"/><path class="cls-116" d="M41.58,109.69h0A230,230,0,0,1,20.22,97.93v-.2a.47.47,0,0,1,.07-.26,1.26,1.26,0,0,1,.26-.39c1.57,1,3.2,2.09,4.9,3.07.06,0,.06.07.13.07,2.15,1.24,4.38,2.48,6.47,3.52.06,0,.13.07.19.07,2,1,7.45,3.85,9.15,4.7a2.65,2.65,0,0,1,.32.59.77.77,0,0,0-.13.59" transform="translate(-8.66 -27.96)"/><polygon class="cls-76" points="102.96 43.71 99.96 41.35 99.96 45.41 102.96 43.71"/><polygon class="cls-76" points="98.13 26.85 97.41 25.87 97.41 27.31 98.13 26.85"/><polygon class="cls-73" points="15.22 96.49 11.24 94.21 11.24 92.77 15.22 95.06 15.22 96.49"/><polygon class="cls-73" points="23.26 101.13 19.21 98.84 19.21 97.34 23.26 99.69 23.26 101.13"/><polygon class="cls-73" points="31.23 105.7 27.24 103.42 27.24 101.98 31.23 104.27 31.23 105.7"/><polygon class="cls-73" points="39.26 110.34 35.28 108.06 35.28 106.55 39.26 108.91 39.26 110.34"/><path class="cls-140" d="M23.36,123.54a2.22,2.22,0,0,1-1.05-1.77v-3.26c0-.66.46-.85,1.05-.52l7.84,4.57a2.23,2.23,0,0,1,1,1.76v3.27c0,.65-.46.85-1,.52Z" transform="translate(-8.66 -27.96)"/><path class="cls-141" d="M23.68,123a2.23,2.23,0,0,1-1-1.76v-3.27c0-.65.46-.85,1-.52L31.52,122a2.21,2.21,0,0,1,1.05,1.76V127c0,.65-.46.85-1.05.52Z" transform="translate(-8.66 -27.96)"/><path class="cls-142" d="M23.36,123.08a2.21,2.21,0,0,1-1.05-1.76v-3.27c0-.65.46-.85,1.05-.52l7.84,4.57a2.23,2.23,0,0,1,1,1.77v3.26c0,.66-.46.85-1,.52Z" transform="translate(-8.66 -27.96)"/><path class="cls-143" d="M31.2,127.46l-7.84-4.57a1.88,1.88,0,0,1-.85-1.44v-3.27c0-.52.39-.72.85-.46l7.84,4.58a1.87,1.87,0,0,1,.85,1.43V127c0,.52-.4.72-.85.46" transform="translate(-8.66 -27.96)"/><path class="cls-144" d="M32.05,123.73a1.87,1.87,0,0,0-.85-1.43l-7.84-4.58c-.46-.26-.85-.06-.85.4Z" transform="translate(-8.66 -27.96)"/><path class="cls-144" d="M22.51,121.45a1.88,1.88,0,0,0,.85,1.44l7.84,4.57c.45.26.85.06.85-.39Z" transform="translate(-8.66 -27.96)"/><path class="cls-63" d="M96.59,83.23A1.24,1.24,0,0,1,95.35,82V68.92a1.77,1.77,0,0,1,.92-1.57l2.54-1.5a1.08,1.08,0,0,1,.59-.19,1.23,1.23,0,0,1,1.24,1.24V80a1.75,1.75,0,0,1-.91,1.57L97.18,83a.92.92,0,0,1-.59.2" transform="translate(-8.66 -27.96)"/><path class="cls-63" d="M99.66,81.2l-2.54,1.51A.83.83,0,0,1,95.87,82V68.92a1.23,1.23,0,0,1,.72-1.17l2.55-1.51a.83.83,0,0,1,1.24.72V80a1.5,1.5,0,0,1-.72,1.17" transform="translate(-8.66 -27.96)"/><path class="cls-135" d="M52.69,105.18l-.78.33a.51.51,0,0,0-.33.52v.33a.42.42,0,0,0,.52.39l.79-.33a.51.51,0,0,0,.32-.52v-.26c0-.39-.26-.59-.52-.46" transform="translate(-8.66 -27.96)"/><path class="cls-136" d="M52.89,105.38l-.79.32a.53.53,0,0,0-.32.53v.32a.41.41,0,0,0,.52.39l.78-.32a.52.52,0,0,0,.33-.52v-.27c0-.32-.26-.58-.52-.45" transform="translate(-8.66 -27.96)"/><path class="cls-145" d="M61.64,91.4l-.52.32a1.35,1.35,0,0,1-1.24,0l-5.69-2.55c-.72-.32-.78-.84-.13-1.11l.52-.26a1.66,1.66,0,0,1,1.12,0l5.61,2.49c.59.39.79.84.33,1.11" transform="translate(-8.66 -27.96)"/><polygon class="cls-146" points="50.5 63.7 50.96 63.83 53.31 62.46 52.98 62.26 50.5 63.7"/><polygon class="cls-146" points="49.33 63.24 49.72 63.37 52.13 62 51.74 61.8 49.33 63.24"/><polygon class="cls-146" points="48.08 62.78 48.54 62.91 50.96 61.54 50.57 61.35 48.08 62.78"/><polygon class="cls-146" points="46.91 62.33 47.37 62.46 49.72 61.08 49.33 60.89 46.91 62.33"/><polygon class="cls-146" points="45.73 61.8 46.19 61.93 48.61 60.63 48.21 60.43 45.73 61.8"/><polygon class="cls-146" points="44.82 61.22 45.27 61.35 47.63 59.97 47.23 59.78 44.82 61.22"/><path class="cls-145" d="M41.58,80l.53-.33a1,1,0,0,1,1,.07L47.4,82.9a.67.67,0,0,1-.13,1.24l-.52.2a.92.92,0,0,1-.92-.13l-4.18-3.07A.62.62,0,0,1,41.58,80" transform="translate(-8.66 -27.96)"/><polygon class="cls-146" points="35.08 52 34.76 51.81 32.4 53.11 32.67 53.38 35.08 52"/><polygon class="cls-146" points="36.06 52.59 35.67 52.4 33.32 53.7 33.58 53.96 36.06 52.59"/><polygon class="cls-146" points="36.98 53.18 36.59 52.98 34.23 54.29 34.49 54.55 36.98 53.18"/><polygon class="cls-146" points="37.89 53.77 37.5 53.57 35.15 54.88 35.41 55.14 37.89 53.77"/><polygon class="cls-146" points="38.74 54.42 38.35 54.23 36 55.47 36.26 55.73 38.74 54.42"/><polygon class="cls-146" points="39.4 55.14 39 54.94 36.65 56.19 36.91 56.45 39.4 55.14"/></svg>