<svg id="Capa_1" data-name="Capa 1" xmlns="http://www.w3.org/2000/svg" viewBox="0 0 151.72 128.85"><defs><style>.cls-1{fill:#464245;}.cls-2{fill:#c31b27;}.cls-3{fill:#2a2627;}.cls-4{fill:#605d60;}.cls-5{fill:#1e1b1a;}.cls-6{fill:#534f52;}.cls-7{fill:#edecec;}.cls-8{fill:#c6c6c8;}.cls-9{fill:#302c2e;}.cls-10{fill:#524c51;}.cls-11{fill:#393538;}.cls-12{fill:#9b9c9c;}.cls-13{fill:#423e42;}.cls-14{fill:#363335;}.cls-15{fill:#737273;}.cls-16{fill:#5fa343;}.cls-17{fill:#929394;}.cls-18{fill:#477a40;}.cls-19{fill:#a7a7a7;}.cls-20{fill:#88444a;}.cls-21{fill:#92bb67;}.cls-22{fill:#9dcdea;}.cls-23{fill:#959596;}.cls-24{fill:#30281f;}.cls-25{fill:#858586;}.cls-26{fill:#faefdd;}.cls-27{fill:#2e2a2c;}</style></defs><polygon class="cls-1" points="62.85 99.3 85.5 86.17 60.45 71.63 23.7 92.85 48.75 107.4 60.75 100.42 62.85 99.3"/><polygon class="cls-2" points="150.45 56.4 148.88 55.5 146.63 54.23 141.75 51.38 144 50.02 145.57 49.13 148.88 51 150.38 51.9 150.45 56.4"/><polygon class="cls-2" points="151.72 51.15 150.38 51.9 148.88 51 145.57 49.13 146.93 48.38 148.88 49.5 150.38 50.4 151.72 51.15"/><polygon class="cls-2" points="151.72 51.15 151.72 55.65 150.45 56.4 150.38 51.9 151.72 51.15"/><polygon class="cls-3" points="148.88 57.3 146.47 55.88 145.13 55.13 143.18 54 140.25 52.27 140.85 51.98 140.93 51.98 141.82 51.45 144.07 50.17 145.72 49.27 147 48.52 148.95 47.4 148.95 49.65 148.95 51.15 148.95 53.02 148.95 55.65 148.88 57.3"/><path class="cls-1" d="M159.76,63.1l-2.25,1.28-1,.6-1.12-.68h-.08l-.37-.22-.15-.08-.15-.07-.23-.08-.9-.52c-.67-.38-1.35-.75-1.95-1.13h.08l.9-.52,2.25-1.28Z" transform="translate(-10.88 -10.23)"/><path class="cls-4" d="M157.81,68.65c-.6-.3-1.13-.67-1.73-1s-1.35-.83-2.1-1.2c-.22-.15-.52-.3-.75-.45a18.8,18.8,0,0,0-1.72-1h0c-.83-.45-1.58-.9-2.4-1.42l.6-.38,1.35-.75.6-.3c.67.38,1.35.75,2,1.13l.9.52.22.08.15.07.15.08.38.22h.07l1.13.68c.15.07.22.22.3.3s.15.22.3.37a1.64,1.64,0,0,1,.15.3.29.29,0,0,1,.07.15c.08.08.08.15.15.3a.24.24,0,0,0,.08.15c0,.08.07.15.07.23s.08.15.08.3v.07a.3.3,0,0,0,.07.23,1.93,1.93,0,0,1,.08.67.92.92,0,0,0-.15.6" transform="translate(-10.88 -10.23)"/><path class="cls-4" d="M156.53,65l3.23-1.88v4.43l-1.95,1.12A4.81,4.81,0,0,0,156.53,65" transform="translate(-10.88 -10.23)"/><path class="cls-5" d="M154.28,70.68a6.31,6.31,0,0,1-2.77,4.87l-2.85-1.65-1.73-1.05-1.05-.6-1-.52L140,68.88l5.55-3.23,1.13-.67c.9.52,1.8,1,2.77,1.57l1.13.68a9.56,9.56,0,0,1,1,.6h0c.6.37,1.2.75,1.8,1a1.75,1.75,0,0,1,.53.52.3.3,0,0,1,.07.23c0,.07.08.15.08.22a1,1,0,0,1,.07.45.42.42,0,0,1,.15.38" transform="translate(-10.88 -10.23)"/><path class="cls-5" d="M151.51,75.55a2.53,2.53,0,0,1-.68.3c-.07,0-.15.08-.22.08s-.3.07-.45,0h-.38a.57.57,0,0,1-.37-.15c-.9-.53-1.88-1.13-2.78-1.65l-1.12-.68c-.45-.22-.9-.52-1.28-.75h0a1.47,1.47,0,0,1-.45-.3c-.52-.3-1-.6-1.5-.9s-1.35-.75-1.95-1.12l-1.42-.83,1.2-.67L145,71.73l1,.52,1,.6,1.72,1.05Z" transform="translate(-10.88 -10.23)"/><path class="cls-6" d="M156.46,69.48l-3.83-2.18-1-.6L150.31,66l-2.55-1.5,1.35-.75h.07l.6-.37,2.48,1.42,2.4,1.43.3.15.07.07a1,1,0,0,1,.3.23c.08.07.15.15.23.15a.07.07,0,0,1,.07.07l.15.15a5.91,5.91,0,0,1,.38.68c.07.07.07.22.15.3s.07.22.07.37v.15a3.43,3.43,0,0,0,.08.38c-.08.15,0,.37,0,.6" transform="translate(-10.88 -10.23)"/><polygon class="cls-4" points="150.45 56.4 148.88 57.3 148.88 55.5 148.88 52.88 148.88 51 148.88 49.5 148.88 47.25 150.38 46.35 150.38 50.4 150.38 51.9 150.45 56.4"/><path class="cls-7" d="M153.53,68.88c-.07,0-.07,0-.15-.08a.25.25,0,0,1-.15-.07h-.6a3.11,3.11,0,0,0-1.27.37l-1-.6-.75-.45-1-.6-3.07-1.8,1.12-.67c.9.52,1.8,1,2.78,1.57l1.12.68a8.74,8.74,0,0,1,1,.6h0a16,16,0,0,1,2,1" transform="translate(-10.88 -10.23)"/><path class="cls-7" d="M151.51,69.1c-.08.08-.15.08-.23.15s-.15.08-.22.15-.15.08-.23.15-.15.15-.22.15l-.23.23a3.9,3.9,0,0,0-.45.6c-.07.07-.15.22-.22.3s-.08.15-.15.22a7.18,7.18,0,0,0-.53,1.13c-.07.15-.07.3-.15.37a.74.74,0,0,0-.07.38c0,.07-.08.15-.08.3v1.12a.27.27,0,0,0,.08.23.28.28,0,0,0,.07.22A.22.22,0,0,0,149,75c0,.08.07.15.15.23a.07.07,0,0,0,.07.07h0c0,.08.08.08.08.15l.15.15.07.08.15.15c-.9-.53-1.87-1.13-2.77-1.65l-1.13-.68a14.71,14.71,0,0,1-1.27-.75h0a1.47,1.47,0,0,1-.45-.3c-.53-.3-1-.6-1.5-.9-.68-.37-1.35-.75-1.95-1.12l-1.43-.83,1.2-.67,5.55-3.23,3.08,1.8,1,.6.75.45Z" transform="translate(-10.88 -10.23)"/><path class="cls-8" d="M151.51,69.1c1.57-.9,2.77-.15,2.85,1.58a6.32,6.32,0,0,1-2.78,4.87c-1.57.9-2.85.15-2.85-1.57a5.91,5.91,0,0,1,2.78-4.88" transform="translate(-10.88 -10.23)"/><path class="cls-5" d="M155,66.25h0a.25.25,0,0,0-.15-.07c-.08,0-.15-.08-.23-.08s-.37-.07-.52-.15H153a.27.27,0,0,0-.23.08.28.28,0,0,0-.22.07c-.08,0-.15.08-.3.08s-.23.07-.38.15l-.45.22h-.07l-1.28-.75-2.55-1.5h.08l1.35-.75H149l.6-.37,2.48,1.42,2.4,1.43Z" transform="translate(-10.88 -10.23)"/><path class="cls-6" d="M156,64.6c-.08,0-.15-.07-.23-.07s-.15-.08-.22-.08-.08-.07-.15-.07h-.08c-.15,0-.22-.08-.37-.08h-.23a2.69,2.69,0,0,0-.75,0,1.18,1.18,0,0,0-.52.08,3.86,3.86,0,0,1-.38.07,1.14,1.14,0,0,0-.45.15c-.15.08-.3.08-.45.15h-.07c-.08,0-.08,0-.15.08a1.78,1.78,0,0,0-.53.3h-.07L149,63.7H149l.6-.37,1.35-.75.6-.3h.08Z" transform="translate(-10.88 -10.23)"/><path class="cls-9" d="M121.88,62.35v0Z" transform="translate(-10.88 -10.23)"/><path class="cls-9" d="M151.51,66.63a3.32,3.32,0,0,0-.83.6.83.83,0,0,0-.37.37c-.15.15-.38.3-.53.45a1.83,1.83,0,0,0-.37.45c-.08.08-.15.23-.3.3a5.87,5.87,0,0,0-.6.9,7,7,0,0,0-.75,1.28c-.08.15-.15.37-.23.52a1.38,1.38,0,0,0-.15.38c-.07.22-.15.45-.22.75,0,.07-.08.15-.08.22s-.07.23-.07.3a.27.27,0,0,1-.08.23c0,.15-.07.22-.07.37a.42.42,0,0,1-.08.3,5.71,5.71,0,0,0-.07,1V76a.3.3,0,0,0,.07.23v.22a4.78,4.78,0,0,0,.23.6.25.25,0,0,0,.07.15.38.38,0,0,1,.15.3c.08.08.08.15.15.23s.08.07.15.15a.81.81,0,0,0,.38.3l-3.3-2-.9-.53-2.93-1.65-1-.6-1.43-.82h0L136,71.2l.6-.37.6-.38,1.73-1h0l1.2-.67,5.55-3.23,1.12-.67.9-.53,2.55,1.5Z" transform="translate(-10.88 -10.23)"/><path class="cls-4" d="M121.88,62.35v0Z" transform="translate(-10.88 -10.23)"/><path class="cls-4" d="M145.21,75.93l-.6.37-.83.45c-1.2-.67-2.47-1.42-3.75-2.17a7.64,7.64,0,0,0-1.12-.6c-.45-.23-.83-.53-1.28-.75a14.83,14.83,0,0,0-1.5-.83c-.37-.22-.75-.45-1-.6l.83-.45.6-.37,2.4,1.42,1.72,1,.75.45,2,1.2Z" transform="translate(-10.88 -10.23)"/><path class="cls-4" d="M143.78,76.75h0c-1.2-.67-2.47-1.42-3.82-2.17a7.73,7.73,0,0,0-1.13-.6c-.45-.23-.82-.53-1.27-.75-.83-.45-1.65-1-2.55-1.5h0a11.22,11.22,0,0,1,1.05.6,13,13,0,0,0,1.5.82c.45.23.82.53,1.27.75a7.73,7.73,0,0,0,1.13.6q2,1.25,3.82,2.25" transform="translate(-10.88 -10.23)"/><path class="cls-4" d="M143.93,72.25l2.55-1.5a12.33,12.33,0,0,0-1.27,5.18l-1.43.82,1.43-.82a5.17,5.17,0,0,0-1.28-3.68" transform="translate(-10.88 -10.23)"/><path class="cls-6" d="M121.88,62.35v0Z" transform="translate(-10.88 -10.23)"/><path class="cls-6" d="M143.78,76.75c-1.2-.67-2.47-1.42-3.75-2.17a7.64,7.64,0,0,0-1.12-.6c-.45-.23-.83-.53-1.28-.75a14.83,14.83,0,0,0-1.5-.83c-.37-.22-.75-.45-1-.6l.83-.45.6-.37.6-.38L139.58,72l2.48,1.42.3.15h.07c.08.08.23.15.3.23s.15.15.23.15v.07c.07.08.07.15.15.15s.15.23.22.38.08.15.15.22c.08.23.15.38.23.68v.22a.46.46,0,0,0,.07.3v.75" transform="translate(-10.88 -10.23)"/><path class="cls-5" d="M141.68,78a6.33,6.33,0,0,1-2.77,4.88l-2.85-1.65-1.73-1.05-1.05-.6-.9-.53-4.87-2.85,5.55-3.22,1.12-.68,2.7,1.58,1.13.67,1,.6,1.8,1.05c.08.08.15.08.23.15l.07.08c.08.07.08.07.08.15s.07.07.07.15a4.78,4.78,0,0,1,.23.6v.22c.22.23.22.3.22.45" transform="translate(-10.88 -10.23)"/><path class="cls-5" d="M138.91,82.83a3.1,3.1,0,0,1-1.28.37h-.37c-.08,0-.15-.07-.23-.07s-.07,0-.15-.08L134,81.4l-1.12-.67-1.73-1-1.87-1.13-1.5-.9c-.53-.3-1-.6-1.5-.9l1.12-.67,4.88,2.85.9.52,1,.6h0l1.72,1Z" transform="translate(-10.88 -10.23)"/><path class="cls-7" d="M140.86,76.15h0c-.15-.07-.23-.15-.38-.15h-.37a1.74,1.74,0,0,0-.6.08c-.08,0-.23.07-.3.07a.57.57,0,0,1-.38.15l-1-.6-.75-.45-1.05-.6L133,72.85l1.13-.67,2.7,1.57,1.12.68,1,.6Z" transform="translate(-10.88 -10.23)"/><path class="cls-7" d="M138.83,76.38a3.1,3.1,0,0,0-.82.6l-.23.22a17.58,17.58,0,0,1-.45.6c-.07.08-.15.15-.15.23s-.15.22-.22.37-.15.23-.23.38l-.22.45a1,1,0,0,0-.15.52v.15c0,.15-.08.23-.08.38s-.07.22-.07.37v.9c0,.15.07.38.07.45s0,.15.08.15.07.15.15.23.07.15.15.22.07.08.15.15L137,83l-2.85-1.65-1.12-.68-1.73-1.05-1.87-1.12-1.5-.9-1.5-.9,1.12-.68,5.55-3.22,3.08,1.8,1,.6.75.45Z" transform="translate(-10.88 -10.23)"/><path class="cls-8" d="M138.83,76.38c1.58-.9,2.78-.15,2.85,1.57a6.33,6.33,0,0,1-2.77,4.88c-1.58.9-2.78.15-2.85-1.58a6.31,6.31,0,0,1,2.77-4.87" transform="translate(-10.88 -10.23)"/><path class="cls-5" d="M121.88,62.35v0Z" transform="translate(-10.88 -10.23)"/><path class="cls-5" d="M142.28,73.53h0a.22.22,0,0,0-.15-.08.29.29,0,0,1-.15-.07h-.07c-.08,0-.15-.08-.23-.08h-1.12a.27.27,0,0,0-.23.08,1,1,0,0,0-.45.15h-.07c-.15.07-.23.07-.38.15l-.45.22-1.27-.75-2.55-1.5h0l.82-.45.6-.37.6-.38,2.48,1.43,2.47,1.42Z" transform="translate(-10.88 -10.23)"/><polygon class="cls-4" points="123.08 72.15 121.65 72.97 117.9 70.8 112.95 67.95 114.38 67.13 119.33 69.97 121.8 71.47 123.08 72.15"/><line class="cls-5" x1="124.5" y1="75.3" x2="124.5" y2="75.3"/><path class="cls-5" d="M138.83,73.9a3.34,3.34,0,0,0-.82.6c-.08,0-.08.08-.15.08l-.08.07a.07.07,0,0,0-.07.08c-.15.07-.23.22-.38.3a1.21,1.21,0,0,0-.3.3l-.3.3a1.39,1.39,0,0,0-.3.37,5.7,5.7,0,0,0-.75,1,4.5,4.5,0,0,0-.37.6,6.9,6.9,0,0,0-.53,1c0,.08-.07.15-.07.23a.24.24,0,0,1-.08.15,6.6,6.6,0,0,0-.3.82c0,.08-.07.23-.07.3v.08c0,.07-.08.15-.08.22v.08c-.07.22-.07.37-.15.6,0,.07-.07.15-.07.3s-.08.22-.08.37v1.58c0,.15.08.3.08.45s0,.15.07.15v.07c0,.08.08.15.08.23s0,.07.07.15a.51.51,0,0,1,.15.3,2,2,0,0,0,.83.75l-3.38-2L128,81.4l-4.88-2.85.6-.37,1.43-.83,1-.52,1.13-.68,5.55-3.22,1.12-.68.9-.52,2.55,1.5Z" transform="translate(-10.88 -10.23)"/><path class="cls-1" d="M121.88,62.35v0Z" transform="translate(-10.88 -10.23)"/><polygon class="cls-1" points="145.65 54.75 145.05 55.05 143.7 55.8 143.63 55.8 143.1 56.1 141.68 56.92 140.7 57.45 140.7 57.45 139.5 58.13 137.4 59.33 135.45 60.45 133.88 61.35 132.82 61.95 132.68 62.02 132.68 62.02 130.95 63.08 130.88 63.08 130.35 63.38 129.75 63.75 128.93 64.2 127.95 64.72 126.83 65.4 124.72 66.6 124.72 66.6 122.78 67.72 121.28 68.63 120.08 69.3 119.1 69.83 117.67 70.65 117.08 70.95 110.03 75 105.15 72.15 110.03 69.3 112.2 68.03 112.8 67.65 114.22 66.83 115.2 66.3 116.33 65.63 121.88 62.4 123 61.73 123.9 61.2 123.9 61.2 124.72 60.75 125.33 60.38 125.92 60 127.65 58.95 127.65 58.95 128.85 58.27 134.4 55.05 135.53 54.38 136.43 53.85 136.5 53.85 137.85 53.1 137.93 53.1 138.53 52.73 139.88 51.98 140.48 51.67 142.43 52.8 143.33 53.33 143.55 53.4 143.7 53.48 143.85 53.55 144.23 53.78 144.3 53.78 145.65 54.75"/><path class="cls-10" d="M138.91,82.83A6.14,6.14,0,0,0,141.68,78c0-1.8-1.27-2.47-2.85-1.57a6.12,6.12,0,0,0-2.77,4.87C136.06,83,137.33,83.73,138.91,82.83Zm-.08-8.93c2.7-1.57,4.95-.3,4.95,2.78a10.76,10.76,0,0,1-4.87,8.47c-2.7,1.58-4.95.3-4.95-2.77A10.9,10.9,0,0,1,138.83,73.9Z" transform="translate(-10.88 -10.23)"/><path class="cls-11" d="M138.83,72.33c2-1.2,3.9-1.13,5,0A4.85,4.85,0,0,1,145.13,76l-1.42.83c0-3.15-2.25-4.35-5-2.78a10.91,10.91,0,0,0-4.88,8.48l-1.42.82a11.71,11.71,0,0,1,1.27-5.1,14.35,14.35,0,0,1,5.1-5.92" transform="translate(-10.88 -10.23)"/><polygon class="cls-4" points="110.25 79.58 101.55 74.55 105.3 72.38 110.25 75.22 110.25 79.58"/><path class="cls-4" d="M132.53,83.2l1.43-.82L121.13,89.8V85.38L133.81,78a13.41,13.41,0,0,0-1.28,5.17" transform="translate(-10.88 -10.23)"/><path class="cls-4" d="M101,100.9l-4.58-2.7-1.57-.9-2-1.2.68-.37,2,1.2h0l.9.52,4.05,2.4v.3a.63.63,0,0,0,.15.38.9.9,0,0,0,.38.37" transform="translate(-10.88 -10.23)"/><polygon class="cls-1" points="89.55 89.55 85.5 87.22 84.6 86.7 82.58 85.5 84.22 84.53 85.42 83.85 88.28 82.2 89.55 82.88 89.55 89.55"/><path class="cls-12" d="M121.13,89.8l-19,11a1.2,1.2,0,0,1-1.2.15.76.76,0,0,1-.38-.45c-.07-.15-.07-.22-.15-.37v-8.4l12-6.9,3.75-2.18,4.88-2.85v5.7Z" transform="translate(-10.88 -10.23)"/><path class="cls-10" d="M151.51,75.55a6.12,6.12,0,0,0,2.77-4.87c0-1.8-1.27-2.48-2.85-1.58A6.14,6.14,0,0,0,148.66,74C148.73,75.7,149.93,76.45,151.51,75.55Zm0-8.92c2.7-1.58,5-.3,5,2.77a10.8,10.8,0,0,1-4.88,8.48c-2.7,1.57-5,.3-5-2.78A10.71,10.71,0,0,1,151.51,66.63Z" transform="translate(-10.88 -10.23)"/><polygon class="cls-4" points="89.55 82.88 88.28 82.2 89.55 81.53 89.55 82.88"/><path class="cls-4" d="M90,106.68l.6.37a1.6,1.6,0,0,0-.6-.37m-3.6-2.1h0l.45.22Zm4.2,2.47h0c-.23-.15-.38-.22-.6-.37s-.53-.3-.75-.45c-.45-.3-.9-.53-1.43-.83-.22-.15-.52-.3-.75-.45H87c-.08,0-.15-.07-.23-.15l-.45-.22h0l-.22-.15-.23-.15-.07-.08-1-.6a.07.07,0,0,1-.07-.07l-.15-.08h-.08c-.07-.07-.15-.07-.22-.15h0c-.3-.22-.68-.37-1-.6s-.67-.37-1-.6h-.07l-.08.08,2,1.2h0l.37.22,1.28.75,4,2.33,1,.6v-.15C90.76,107.13,90.68,107.05,90.61,107.05Z" transform="translate(-10.88 -10.23)"/><path class="cls-11" d="M151.51,65.05c2-1.2,3.9-1.12,5-.07a4.81,4.81,0,0,1,1.28,3.67l-1.43.83c0-3.15-2.25-4.35-4.95-2.78a10.9,10.9,0,0,0-4.87,8.48l-1.43.82a12.12,12.12,0,0,1,1.28-5.17,13.75,13.75,0,0,1,5.1-5.78" transform="translate(-10.88 -10.23)"/><path class="cls-4" d="M92.26,106.3l-1.43.83c-.07-.08-.15-.08-.22-.15a2.62,2.62,0,0,1-.6-.38c-.23-.15-.53-.3-.75-.45-.45-.3-.9-.52-1.43-.82-.22-.15-.52-.3-.75-.45H87c-.08,0-.15-.08-.23-.15l-.45-.23h0l-.22-.15-.23-.15-.07-.07-1-.6a.07.07,0,0,1-.07-.08l-.15-.07h-.08c-.07-.08-.15-.08-.22-.15h0c-.3-.23-.68-.38-1-.6s-.67-.38-1-.6l-.22-.15c.07,0,.15.07.22.15l1.35-.75h.08c.67.37,1.35.82,2,1.2h0c.08.07.15.07.23.15l.22.15a3.93,3.93,0,0,1,.6.37c.3.15.53.3.83.45,1,.53,1.87,1.13,2.85,1.65a15.33,15.33,0,0,0,1.8,1" transform="translate(-10.88 -10.23)"/><polygon class="cls-13" points="89.55 82.88 85.5 85.28 85.42 83.85 88.28 82.2 89.55 81.53 89.55 82.88"/><polygon class="cls-13" points="85.5 85.28 84.22 84.53 85.42 83.85 85.5 85.28"/><path class="cls-5" d="M86,113.2a2.25,2.25,0,0,1-1.28.38.62.62,0,0,1-.37-.08.3.3,0,0,1-.23-.07H84c-.08,0-.08-.08-.15-.08L81,111.7,79.88,111l-1.35-.75-1.87-1.13-1.2-.75-2-1.2.23-.15,1-.52,2,1.2,3.67,2.1,1,.6,1.8,1Z" transform="translate(-10.88 -10.23)"/><polygon class="cls-5" points="54.3 84.45 54.3 84.9 54.3 83.1 54.3 84.45"/><path class="cls-5" d="M65.18,100.6v0Z" transform="translate(-10.88 -10.23)"/><path class="cls-5" d="M88.73,108.33A6.31,6.31,0,0,1,86,113.2l-2.85-1.65-1.8-1-1-.6-3.68-2.1-2-1.2,4.87-2.77.75-.45,1.2-.68.15.08,1.88,1.12.52.3,1.13.68,2.85,1.65a1.84,1.84,0,0,1,.52.52c0,.08.08.15.08.23s.07.15.07.22a.9.9,0,0,1,.08.45.88.88,0,0,1,.07.38" transform="translate(-10.88 -10.23)"/><path class="cls-4" d="M92.26,106.3c-.6-.3-1.13-.67-1.73-1-.9-.53-1.87-1-2.85-1.65-.3-.15-.52-.3-.82-.45a3.92,3.92,0,0,1-.6-.38c-.08-.07-.15-.07-.23-.15h0c-.07,0-.15-.07-.22-.15h0c-.68-.37-1.35-.75-2-1.2l.6-.37,2-1.13.9.53,1.13.67,2,1.13.15.07c.15.08.22.15.37.23l.23.22.22.23c.08.07.08.15.15.22s.15.23.23.3.07.15.15.23a4.75,4.75,0,0,1,.37,1.12c0,.08.08.23.08.3v.08c0,.15.07.37.07.52a2,2,0,0,0-.07.6" transform="translate(-10.88 -10.23)"/><path class="cls-6" d="M90.61,107.05h0c-.23-.15-.38-.22-.6-.37s-.53-.3-.75-.45c-.45-.3-.9-.53-1.43-.83-.22-.15-.52-.3-.75-.45H87c-.08,0-.15-.07-.23-.15l-.45-.22c-.07-.08-.15-.08-.22-.15s-.15-.08-.23-.15c-.37-.23-.75-.38-1.12-.6a.08.08,0,0,1-.08-.08c-.07,0-.07-.07-.15-.07h-.07c-.08-.08-.15-.08-.23-.15h0c-.3-.23-.67-.38-1-.6s-.68-.38-1.05-.6l1.35-.75h.07l.6-.38,2,1.2.22.15L89.26,104h.07a2.73,2.73,0,0,1,1,1.35c.08.15.08.22.15.37a.9.9,0,0,1,.08.45.74.74,0,0,0,.07.38v.6c.08,0,0-.08-.07-.08" transform="translate(-10.88 -10.23)"/><polygon class="cls-7" points="54.3 84.45 54.3 84.45 54.3 83.1 54.3 84.45"/><path class="cls-7" d="M87.91,106.53a.08.08,0,0,1-.08-.08h-.07c-.08,0-.08,0-.15-.07h-.38a3.11,3.11,0,0,0-1.27.37l-1.73-1-1-.6-.9-.52-.75-.45-1.35-.75,1.2-.68.15.08,1.88,1.12.52.3,1.13.68Z" transform="translate(-10.88 -10.23)"/><path class="cls-7" d="M65.18,94.68v0Z" transform="translate(-10.88 -10.23)"/><path class="cls-7" d="M65.18,100.6v0Z" transform="translate(-10.88 -10.23)"/><path class="cls-7" d="M86,106.75a5.3,5.3,0,0,0-1.95,2.1l-.23.45c0,.08-.07.15-.07.23s-.08.15-.08.22a1.51,1.51,0,0,0-.15.53c0,.07,0,.15-.07.15a.26.26,0,0,1-.08.22c0,.08-.07.23-.07.3a.66.66,0,0,1-.08.38v.9c0,.07,0,.15.08.15,0,.15.07.22.15.37s.07.15.15.23a.16.16,0,0,0,.15.15l.3.3-2.85-1.65L80,111.1l-1.35-.75-1.87-1.12-1.2-.75-2-1.2.23-.15,1-.53,4.88-2.77.75-.45,1.35.75.75.45.9.52,1,.6Z" transform="translate(-10.88 -10.23)"/><path class="cls-8" d="M86,106.75c1.57-.9,2.77-.15,2.85,1.58A6.32,6.32,0,0,1,86,113.2c-1.57.9-2.77.15-2.85-1.57A6,6,0,0,1,86,106.75" transform="translate(-10.88 -10.23)"/><path class="cls-4" d="M81,112.83l-1.43.82c-.45-.3-1-.52-1.42-.82l-.3-.15h0c-.9-.53-1.88-1.05-2.78-1.65-.6-.3-1.12-.68-1.72-1-.08-.07-.15-.07-.23-.15h0a1.54,1.54,0,0,0-.6-.3,5.55,5.55,0,0,0-.6-.3.57.57,0,0,0-.3-.15c-.07,0-.07-.07-.15-.07a1.68,1.68,0,0,1-.45-.3l.6-.38.83-.45,2,1.2.45.23,4.43,2.55.37.22Z" transform="translate(-10.88 -10.23)"/><path class="cls-4" d="M79.66,113.65l-.6.38-.83.45c-1.57-.9-3.15-1.88-4.87-2.85-.45-.23-.83-.53-1.28-.75a.28.28,0,0,1-.15-.08.29.29,0,0,1-.15-.07h0c-.37-.23-.82-.45-1.27-.75s-.53-.3-.83-.45h0a3.92,3.92,0,0,0-.6-.38,2.24,2.24,0,0,0,.6.3l.83-.45.52-.3h.08c.15.08.3.23.45.3s.07.08.15.08a.57.57,0,0,0,.3.15,5.55,5.55,0,0,0,.6.3,5.55,5.55,0,0,0,.6.3h0c.07.07.15.07.22.15.6.37,1.2.67,1.73,1,1,.53,1.87,1.13,2.77,1.65h0l.3.15c.45.3.9.6,1.43.9" transform="translate(-10.88 -10.23)"/><polygon class="cls-5" points="54.3 82.05 54.3 82.95 54.23 82.05 54.3 82.05"/><polygon class="cls-5" points="54.3 84.45 54.3 84.9 54.3 83.1 54.3 84.45"/><path class="cls-5" d="M65.18,100.6v0Z" transform="translate(-10.88 -10.23)"/><path class="cls-5" d="M86,104.35l-.08.08a5.36,5.36,0,0,0-.75.52c-.07,0-.07.08-.15.15s-.22.15-.3.23l-.22.22-.23.23L84,106a2.92,2.92,0,0,0-.6.75c-.08.08-.15.15-.15.23-.15.15-.23.37-.38.52a4.5,4.5,0,0,0-.37.6c-.15.23-.23.45-.38.68a2.31,2.31,0,0,0-.3.75,5.62,5.62,0,0,1-.22.6c-.08.15-.08.3-.15.45s-.08.22-.08.3a.28.28,0,0,1-.07.22c0,.15-.08.23-.08.38a.49.49,0,0,1-.07.3c0,.15,0,.3-.08.37V113a4,4,0,0,0,.23,1.42c.07.15.07.23.15.38s.07.22.15.3.07.15.15.22.07.08.15.15a.69.69,0,0,0,.37.3.08.08,0,0,1,.08.08L79.28,114l-.15-.08-.9-.52-3.9-2.25-1.5-.83-.22-.15-2-1.2.53-.3h.07l.6-.37.83-.45,1-.53.23-.15,1-.52,4.88-2.78.75-.45,1.2-.67.15-.08.67-.37.08-.08,2,1.2h0l.38.23Z" transform="translate(-10.88 -10.23)"/><path class="cls-4" d="M59.78,103.68h0c-.22-.08-.37-.23-.6-.3a2.59,2.59,0,0,0,.6.3" transform="translate(-10.88 -10.23)"/><path class="cls-4" d="M78.23,114.4v.15c-.3-.15-.6-.37-.9-.52-1.35-.75-2.7-1.58-4.12-2.4-.38-.23-.83-.45-1.28-.75-.15-.08-.22-.15-.37-.23h0a8.83,8.83,0,0,0-1.13-.6c-.3-.15-.6-.37-1-.52l.07-.08h.08a4.5,4.5,0,0,0-.6-.37,2.25,2.25,0,0,0,.6.3c.3.15.52.3.82.45a10.64,10.64,0,0,1,1.28.75c.07,0,.07.07.15.07s.07.08.15.08c.45.22.82.52,1.27.75,1.73,1.12,3.38,2.1,5,2.92" transform="translate(-10.88 -10.23)"/><polyline class="cls-5" points="40.35 93.15 40.27 93.15 40.35 93.15"/><path class="cls-5" d="M76.13,115.68a6.31,6.31,0,0,1-2.77,4.87l-2.85-1.65-.08-.07c-.52-.3-1.12-.68-1.65-1-.37-.22-.67-.37-1-.6-.15-.07-.22-.15-.37-.22-1.13-.6-2.18-1.28-3.3-1.88h0l-1.58-.9a12.17,12.17,0,0,1-1.35-.82c-.45-.3-.9-.53-1.35-.83v-3.75L65.26,112l.37-.22,2-1.13h.08l2,1.13a6,6,0,0,1,.9.52c.38.23.75.45,1,.6.6.38,1.2.68,1.8,1,.83.6,1.73,1.13,2.7,1.73" transform="translate(-10.88 -10.23)"/><polygon class="cls-6" points="54.3 81.97 54.3 82.95 54.23 82.05 54.23 81.97 54.3 81.97"/><polygon class="cls-6" points="54.3 84.45 54.3 84.9 54.3 83.1 54.3 84.45"/><path class="cls-6" d="M65.18,100.6v0Z" transform="translate(-10.88 -10.23)"/><path class="cls-6" d="M85.88,102.7a7.3,7.3,0,0,0-1.2.83l-.07.07c-.15.15-.38.3-.53.45l-.07.08a9.71,9.71,0,0,0-.83.9c-.15.15-.3.37-.45.52s-.37.45-.52.68a12.33,12.33,0,0,0-1,1.72l-.23.45-.22.45v.08l-.23.45a1.14,1.14,0,0,0-.15.45,1.47,1.47,0,0,0-.15.6,1.83,1.83,0,0,0-.15.6c-.07.15-.07.3-.15.52s-.07.3-.07.45a9.66,9.66,0,0,0-.15,1.51v.07c-.45-.3-1-.52-1.43-.82l-.3-.15h0c-.9-.52-1.87-1-2.77-1.65-.6-.3-1.13-.67-1.73-1-.07-.08-.15-.08-.22-.15h0a1.48,1.48,0,0,0-.6-.3,3.72,3.72,0,0,0-.6-.3.57.57,0,0,0-.3-.15c-.08,0-.08-.08-.15-.08a1.47,1.47,0,0,1-.45-.3l.6-.37.82-.45,1-.53.22-.15,1-.52,4.87-2.78.75-.45,1.2-.67.15-.08.68-.37.07-.08h.08l-.23-.15c.08,0,.15.08.23.15l1.35-.75,2,1.2Z" transform="translate(-10.88 -10.23)"/><path class="cls-4" d="M79.66,113.58h0c-.45-.23-1-.53-1.43-.75a.51.51,0,0,0-.3-.15h0c-.9-.53-1.87-1.05-2.77-1.65-.6-.3-1.13-.68-1.73-1-.07-.07-.15-.07-.22-.15h0a1.61,1.61,0,0,0-.6-.3,6.67,6.67,0,0,0-.6-.3.65.65,0,0,0-.3-.15c-.08,0-.08-.07-.15-.07a1.68,1.68,0,0,1-.45-.3l.6-.38.82-.45,1-.52.22-.15,2,1.2,1.87,1c.08,0,.15.07.23.15s.15.07.22.15a.15.15,0,0,1,.15.15.9.9,0,0,1,.38.37l.07.08a3.34,3.34,0,0,1,.53.9c0,.07.07.22.07.3a.42.42,0,0,1,.08.3h0c0,.07.07.15.07.3s.08.3.08.45v.6a.4.4,0,0,1,.15.3" transform="translate(-10.88 -10.23)"/><path class="cls-5" d="M76.13,115.68c-.9-.53-1.87-1.05-2.77-1.65-.6-.38-1.2-.68-1.8-1-.38-.23-.75-.45-1-.6a5.28,5.28,0,0,1-.9-.53l-2-1.12,1.13-.6h0l1.8,1.05.3.15.52.3,1.13.67,2.77,1.58h.08c.07,0,.07.07.15.07l.22.23a.37.37,0,0,1,.15.3c0,.15.08.22.15.37s.08.23.08.3v.15a.62.62,0,0,1,.07.38" transform="translate(-10.88 -10.23)"/><path class="cls-5" d="M73.28,120.48a2.23,2.23,0,0,1-1.27.37h-.23a.28.28,0,0,1-.22-.07h-.15a.22.22,0,0,1-.15-.08s-.08,0-.08-.07L68.33,119l-1.12-.68h0l-.45-.3-3.15-1.87a4.8,4.8,0,0,1-.83-.53c-1.05-.6-2.1-1.2-3.15-1.87v-1.35c.45.3.9.52,1.35.82s.9.53,1.35.83l1.58.9h0c1.12.6,2.17,1.27,3.3,1.87.15.08.22.15.37.23.38.22.68.37,1,.6.53.3,1.13.67,1.65,1l.08.08Z" transform="translate(-10.88 -10.23)"/><path class="cls-6" d="M59.78,103.68h0c-.22-.08-.37-.23-.6-.3a2.59,2.59,0,0,0,.6.3" transform="translate(-10.88 -10.23)"/><path class="cls-6" d="M78.23,114.4c-1.57-.9-3.15-1.87-4.87-2.85-.45-.22-.83-.52-1.28-.75-.07,0-.07-.07-.15-.07a.28.28,0,0,1-.15-.08h0c-.37-.22-.82-.45-1.27-.75s-.53-.3-.83-.45a3.93,3.93,0,0,0-.6-.37,2.59,2.59,0,0,0,.6.3l.83-.45.52-.3h.08l.6-.38,2,1.2.23.15,2.77,1.58h.08a1.83,1.83,0,0,1,.45.37l.07.08.23.22.07.08a.51.51,0,0,1,.15.3c.08.07.08.15.15.22.08.23.15.53.23.83v.6a2.11,2.11,0,0,1,.07.52" transform="translate(-10.88 -10.23)"/><path class="cls-7" d="M75.23,113.8h0a.29.29,0,0,1-.15-.07h-.37a2.25,2.25,0,0,0-.68.07.65.65,0,0,0-.3.15.07.07,0,0,0-.07.08c-.08,0-.15.07-.23.15l-1.8-1.05-1-.6-.9-.53-2-1.12h0l1.13-.6h0l1.8,1,.3.15.52.3,1.13.67Z" transform="translate(-10.88 -10.23)"/><polyline class="cls-7" points="40.35 93.15 40.27 93.15 40.35 93.15"/><path class="cls-7" d="M70.51,118.9h0v.38a.49.49,0,0,0,.07.3.26.26,0,0,0,.08.22c0,.08.07.15.07.23s.08.15.15.22l.23.23a.25.25,0,0,0,.15.07c.07,0,.07.08.15.08L68.56,119l-1.13-.68h0L67,118l-3.15-1.87L63,115.6l-3.15-1.87v-5.1l5.47,3.15.38-.23,2-1.12h.07l2,1.12.9.53,1,.6,1.8,1a7.1,7.1,0,0,0-2.92,5.17" transform="translate(-10.88 -10.23)"/><polygon class="cls-4" points="46.2 104.47 46.2 104.92 45.83 104.7 46.2 104.47"/><polygon class="cls-4" points="57.52 109.88 56.1 110.7 49.58 106.95 48.75 106.42 48.75 104.78 51 106.13 56.25 109.13 57.52 109.88"/><polyline class="cls-5" points="40.35 93.15 40.27 93.15 40.35 93.15"/><path class="cls-5" d="M43.66,107.35Z" transform="translate(-10.88 -10.23)"/><polygon class="cls-5" points="46.2 104.47 46.2 105.15 45.75 105.38 45.23 105.08 45.83 104.7 46.2 104.47"/><path class="cls-5" d="M73.28,111.63a.25.25,0,0,1-.15.07l-.07.08a2.13,2.13,0,0,0-.53.37l-.07.08c-.15.15-.38.3-.53.45l-.15.15-.07.07a.28.28,0,0,0-.08.15l-.37.38c-.23.22-.38.45-.6.67s-.15.15-.15.23-.23.3-.3.45a1.74,1.74,0,0,0-.3.52c-.08.15-.15.23-.23.38v.07a.63.63,0,0,0-.15.38,10.69,10.69,0,0,0-.52,1.35c-.08.15-.08.3-.15.45s-.08.22-.08.3-.07.15-.07.22-.08.23-.08.38a.48.48,0,0,1-.07.3c0,.15-.08.3-.08.45v1.58a1.14,1.14,0,0,0,.15.45.26.26,0,0,0,.08.22c.07.15.07.23.15.38a.29.29,0,0,0,.07.15c0,.07.08.07.08.15s.15.15.15.22l.07.08.23.22.15.15-3.15-1.8-6.68-3.9-.22-.15v-8.55L65,111.93l.38-.22,2-1.13h.07l1.13-.6h0l.82-.45.08-.08.82.53,1.2.67.38.23Z" transform="translate(-10.88 -10.23)"/><path class="cls-5" d="M50,96.4h0" transform="translate(-10.88 -10.23)"/><path class="cls-5" d="M59.78,103.68h0c-.22-.08-.37-.23-.6-.3a2.59,2.59,0,0,0,.6.3" transform="translate(-10.88 -10.23)"/><path class="cls-5" d="M76.73,111.25h0c-.07,0-.07-.07-.15-.07s-.15-.08-.22-.08-.15-.07-.3-.07h-1a1.68,1.68,0,0,0-.82.22,2.71,2.71,0,0,0-.9.45h-.08L72,111l-.38-.22-1.2-.68-.82-.52h.07a3.92,3.92,0,0,0-.6-.38,2.24,2.24,0,0,0,.6.3l.83-.45.52-.3h.08l.6-.37,2,1.2.23.15Z" transform="translate(-10.88 -10.23)"/><path class="cls-6" d="M59.78,103.68h0c-.22-.08-.37-.23-.6-.3a2.59,2.59,0,0,0,.6.3" transform="translate(-10.88 -10.23)"/><polyline class="cls-6" points="40.35 93.15 40.27 93.15 40.35 93.15"/><polygon class="cls-6" points="46.2 104.47 46.2 104.92 45.83 104.7 46.2 104.47"/><path class="cls-6" d="M73.28,110c-.15.07-.37.22-.52.3a7,7,0,0,1-.75.52l-.08.08a2.28,2.28,0,0,0-.6.6,1.21,1.21,0,0,0-.3.3l-.15.15c-.07.15-.22.22-.37.37a14.38,14.38,0,0,0-1,1.2c-.07.15-.22.3-.3.45a12.35,12.35,0,0,0-.75,1.2l-.22.45-.23.45a3.55,3.55,0,0,0-.22.53,1,1,0,0,0-.15.52l-.23.68c-.07.15-.07.37-.15.52h0a1.81,1.81,0,0,1-.15.53c0,.15-.07.3-.07.52a10.56,10.56,0,0,0-.15,1.58l-6.53-3.75-.82-.53v-7.87L65,111.93l.38-.23,2-1.12h.07l1.13-.6h0l.82-.45.08-.08h.07a3.93,3.93,0,0,0-.6-.37,2.59,2.59,0,0,0,.6.3l.83-.45.52-.3,2,1.2Z" transform="translate(-10.88 -10.23)"/><path class="cls-5" d="M89.33,104h0a1.17,1.17,0,0,0-.37-.15c-.08,0-.15-.08-.3-.08a.3.3,0,0,1-.23-.07H87.38a.28.28,0,0,0-.22.07.63.63,0,0,0-.38.15c-.07,0-.15.08-.22.08s-.15.07-.23.07l-.45.23h-.07l-1.28-.75a13.68,13.68,0,0,1,1.2-.83l-.22-.15h0l-2-1.2h.08l.6-.37,2,1.2.23.15Z" transform="translate(-10.88 -10.23)"/><polygon class="cls-6" points="54.23 79.5 54.23 79.5 54.23 78.08 54.23 79.5"/><path class="cls-6" d="M67.21,91.08Z" transform="translate(-10.88 -10.23)"/><path class="cls-6" d="M90.31,102.18c-.08,0-.08-.08-.15-.08s-.23-.07-.38-.15a.29.29,0,0,1-.15-.07h-.07a.42.42,0,0,1-.3-.08H88a1.46,1.46,0,0,0-.52.15c-.08,0-.15.08-.3.08s-.15.07-.3.07-.15.08-.3.15-.23.08-.3.15-.23.08-.3.15h-.08l-.22-.15h0l-2-1.2h.08l.6-.37,2-1.13.9.53,1.12.67Z" transform="translate(-10.88 -10.23)"/><path class="cls-10" d="M86,113.2a6.12,6.12,0,0,0,2.77-4.87c0-1.8-1.27-2.48-2.85-1.58a6.14,6.14,0,0,0-2.77,4.88C83.11,113.35,84.38,114.1,86,113.2Zm0-8.85c2.7-1.57,5-.3,5,2.78v.15A11,11,0,0,1,86,115.6c-2.62,1.5-4.8.38-5-2.62v-.15A10.31,10.31,0,0,1,86,104.35Z" transform="translate(-10.88 -10.23)"/><path class="cls-11" d="M85.88,102.7c3.45-2,6.3-.37,6.3,3.6l-1.42.83c0-3.08-2.25-4.35-5-2.78a10.91,10.91,0,0,0-4.88,8.48l-1.42.82a14.32,14.32,0,0,1,6.37-11" transform="translate(-10.88 -10.23)"/><polygon class="cls-13" points="54.3 81.97 54.3 82.95 54.23 82.05 54.23 81.97 54.3 81.97"/><polygon class="cls-13" points="54.23 79.5 54.23 79.5 54.23 78.08 54.23 79.5"/><path class="cls-13" d="M67.21,91.08Z" transform="translate(-10.88 -10.23)"/><path class="cls-13" d="M82.28,102.18h0l-.22-.15c.07.07.15.07.22.15" transform="translate(-10.88 -10.23)"/><path class="cls-6" d="M50,96.4h0" transform="translate(-10.88 -10.23)"/><path class="cls-6" d="M77.56,109.45a1.64,1.64,0,0,0-.3-.15c-.08,0-.23-.07-.3-.07s-.15-.08-.3-.08a2.65,2.65,0,0,0-1,0,.66.66,0,0,0-.38.08.49.49,0,0,0-.3.07,5.56,5.56,0,0,0-1,.38,3.34,3.34,0,0,0-.6.3h-.08l-.22-.15-2-1.2h.08l.6-.38.82-.45,1-.52.22-.15,2,1.2,1.8,1.12" transform="translate(-10.88 -10.23)"/><polygon class="cls-4" points="68.78 103.42 70.13 102.6 70.13 102.75 68.33 103.8 67.35 104.4 67.35 104.17 68.17 103.72 68.78 103.42"/><path class="cls-4" d="M96.38,102.93a2.3,2.3,0,0,1-1,1.8l-4.5,2.62v-.15l1.43-.82V104.8c0-.15-.08-.3-.08-.45a.57.57,0,0,0-.15-.3c-.07-.15-.07-.22-.15-.37s-.07-.15-.15-.23-.07-.07-.07-.15-.08-.07-.08-.15-.07-.15-.15-.22l-.22-.23-.23-.22c-.07,0-.07-.08-.15-.08s-.07-.07-.15-.07h-.07c-.08-.08-.15-.08-.23-.15s-.22-.08-.37-.15-.15,0-.15-.08H88.13a1.46,1.46,0,0,0-.52.15c-.08,0-.15.08-.3.08s-.15.07-.3.07h-.15c-.08,0-.08,0-.15.08s-.23.07-.3.15-.23.07-.3.15H86c-.07.07-.22.15-.3.22s-.22.15-.3.23-.37.22-.52.37h-.08l-.07.08c-.15.15-.38.3-.53.45l-.07.07a9.71,9.71,0,0,0-.83.9c-.15.15-.3.38-.45.53s-.37.45-.52.67a13.06,13.06,0,0,0-1,1.73l-.23.45-.22.45v.07l-.23.45a1.14,1.14,0,0,0-.15.45,23120353147371.18,23120353147371.18,0,0,0-.3,1.2c-.07.15-.07.3-.15.53s-.07.3-.07.45a9.65,9.65,0,0,0-.15,1.5V112c0-.08-.08-.23-.08-.3s-.07-.23-.07-.3-.08-.23-.08-.3a2.57,2.57,0,0,0-.52-.9l-.08-.08c-.15-.15-.22-.3-.37-.37l-.08-.08-.07-.07c-.08-.08-.15-.08-.23-.15s-.15-.08-.22-.15-.15-.08-.23-.08h-.15c-.07,0-.07,0-.15-.08h-.22a3.45,3.45,0,0,0-1.2,0h-.23a.44.44,0,0,0-.3.08c-.15.07-.3.07-.45.15s-.3.07-.37.15-.08,0-.15.07a.57.57,0,0,0-.3.15h-.15c-.08,0-.08.08-.15.08h-.15c-.15.07-.38.22-.53.3a6.08,6.08,0,0,1-.75.52l-.07.08a2.14,2.14,0,0,0-.6.6,1,1,0,0,0-.3.3l-.15.15c-.08.15-.23.22-.38.37-.37.38-.67.83-1,1.2-.08.15-.23.3-.3.45A10.68,10.68,0,0,0,69,115l-.23.45-.22.45a3.47,3.47,0,0,0-.23.53,1.14,1.14,0,0,0-.15.52c-.07.23-.15.45-.22.68s-.08.37-.15.52h0a2.19,2.19,0,0,1-.15.53c0,.15-.08.3-.08.52a12.06,12.06,0,0,0-.15,1.58l1.43-.83v.15L67,121.15l-6.52,3.75-2,1.13V118.3l1.57-.9.23-.15.6-.37,1.42-.83,1-.52,1.12-.68h0l3.6-2.1,2-1.12.83-.53.3-.15.82-.45h0l.08-.07h.07l.83-.45.52-.3h.08l.6-.38.82-.45,1-.52.22-.15,1-.53L82,104.88l.75-.38,1.2-.67.83-.45h0l.07-.08,1.35-.75h0l.08-.07.6-.38.9-.52,1.12-.68,6.45-3.75.68-.37.9-.53v1.8Z" transform="translate(-10.88 -10.23)"/><polygon class="cls-14" points="76.35 91.5 75.45 91.95 74.85 92.33 74.78 92.33 73.5 93.15 73.42 93.15 73.35 93.22 73.28 93.22 72.53 93.67 71.33 94.35 70.58 94.8 70.58 93.97 70.58 92.55 70.58 92.4 71.25 92.03 71.4 91.95 72.75 91.2 72.83 91.13 73.42 90.83 75.38 89.63 76.35 89.1 76.35 90.22 76.35 91.5"/><path class="cls-10" d="M73.28,120.48a6.12,6.12,0,0,0,2.78-4.88c0-1.8-1.28-2.47-2.85-1.57a6.11,6.11,0,0,0-2.78,4.87C70.51,120.7,71.78,121.38,73.28,120.48Zm0-8.85c2.7-1.58,5-.3,5,2.77v.15a11,11,0,0,1-4.87,8.33c-2.63,1.5-4.8.37-5-2.63v-.15A10.88,10.88,0,0,1,73.28,111.63Z" transform="translate(-10.88 -10.23)"/><polygon class="cls-3" points="54.3 84.45 54.3 84.9 54.3 83.1 54.3 84.45"/><polygon class="cls-3" points="70.58 93.97 70.58 94.8 68.55 93.6 69.3 93.15 70.42 92.47 70.58 92.4 70.58 92.55 70.58 93.97"/><path class="cls-8" d="M73.28,114c1.58-.9,2.85-.15,2.85,1.57a6.33,6.33,0,0,1-2.77,4.88c-1.58.9-2.78.15-2.85-1.58A6.31,6.31,0,0,1,73.28,114" transform="translate(-10.88 -10.23)"/><path class="cls-11" d="M73.28,110c3.53-2,6.3-.38,6.38,3.6l-1.43.82c0-3.07-2.25-4.35-5-2.77a10.88,10.88,0,0,0-4.87,8.47l-1.43.83a13.85,13.85,0,0,1,6.3-11" transform="translate(-10.88 -10.23)"/><path class="cls-13" d="M59.78,103.68h0c-.22-.08-.37-.23-.6-.3a2.59,2.59,0,0,0,.6.3" transform="translate(-10.88 -10.23)"/><path class="cls-13" d="M69.68,109.45h0c-.22-.07-.37-.22-.6-.3.23.08.38.23.6.3" transform="translate(-10.88 -10.23)"/><polyline class="cls-3" points="40.35 93.15 40.27 93.15 40.35 93.15"/><polygon class="cls-3" points="56.7 102.83 54.67 101.63 56.63 100.5 56.7 100.42 56.7 100.5 56.7 102.83"/><polygon class="cls-14" points="59.63 100.8 59.63 101.17 58.73 101.63 56.7 102.83 56.7 100.5 56.7 100.42 57.83 99.83 58.65 99.3 58.73 99.3 58.8 99.22 59.55 98.78 59.55 99.9 59.63 100.8"/><polygon class="cls-4" points="54.3 81.97 54.3 82.95 54.23 82.05 54.23 81.97 54.3 81.97"/><polygon class="cls-4" points="54.23 79.5 54.23 79.5 54.23 78.08 54.23 79.5"/><path class="cls-4" d="M67.21,91.08Z" transform="translate(-10.88 -10.23)"/><polygon class="cls-4" points="54.3 84.45 54.3 84.9 54.3 83.1 54.3 84.45"/><path class="cls-4" d="M65.18,100.6v0Z" transform="translate(-10.88 -10.23)"/><path class="cls-4" d="M121.88,62.35v0Z" transform="translate(-10.88 -10.23)"/><polygon class="cls-15" points="54.3 81.97 54.3 82.95 54.23 82.05 54.23 81.97 54.3 81.97"/><polygon class="cls-15" points="54.23 79.5 54.23 79.5 54.23 78.08 54.23 79.5"/><polygon class="cls-15" points="54.3 84.45 54.3 84.9 54.3 83.1 54.3 84.45"/><path class="cls-15" d="M67.21,91.08Z" transform="translate(-10.88 -10.23)"/><path class="cls-15" d="M121.88,62.35v0Z" transform="translate(-10.88 -10.23)"/><polygon class="cls-4" points="54.3 81.97 54.3 82.95 54.23 82.05 54.23 81.97 54.3 81.97"/><polygon class="cls-4" points="54.3 84.45 54.3 84.9 54.3 83.1 54.3 84.45"/><polygon class="cls-4" points="54.23 79.5 54.23 79.5 54.23 78.08 54.23 79.5"/><path class="cls-4" d="M67.21,91.08Z" transform="translate(-10.88 -10.23)"/><path class="cls-4" d="M121.88,62.35v0Z" transform="translate(-10.88 -10.23)"/><polygon class="cls-15" points="54.23 79.5 54.23 79.5 54.23 78.08 54.23 79.5"/><polygon class="cls-4" points="54.23 79.5 54.23 79.5 54.23 78.08 54.23 79.5"/><path class="cls-16" d="M121.88,62.43ZM67.21,91.08Zm95.32-46.73V24.78l-5,2.92L155,29.13l-2.18,1.27-2.55,1.43-2.17,1.27-2.55,1.43L65,81v8.85h0v5.4h0v16.87l.38-.22,2-1.13h.07l1.13-.6h0l.82-.45.08-.07h.07a3.92,3.92,0,0,0-.6-.38,2.24,2.24,0,0,0,.6.3l.83-.45.52-.3H71l.6-.37.82-.45,1-.53.22-.15,1-.52,4.87-2.78.75-.45,1.2-.67.15-.08.68-.37.07-.08h.08l-.23-.15c.08,0,.15.08.23.15l1.35-.75h.07l.6-.37,2-1.13.9-.52,5.55-3.23.68-.37,1.72-1,1.2-.67,2.85-1.65,1.2-.68,12-6.9L116.18,83l4.88-2.85,2.17-1.28.6-.37,1.43-.83,1-.52,1.13-.68,5.55-3.22,1.12-.68.9-.52h0l.83-.45.6-.38.6-.37,1.72-1h0l1.2-.68,5.55-3.22,1.13-.68.9-.52h.07l1.35-.75H149l.6-.38,1.35-.75.6-.3h.07l.9-.52,2.25-1.28,1.65-.9,1.28-.75,2-1.12,1.57-.9,1.28-.75Z" transform="translate(-10.88 -10.23)"/><polygon class="cls-16" points="54.23 79.5 54.23 79.5 54.23 78.08 54.23 79.5"/><polygon class="cls-16" points="54.3 81.97 54.3 82.95 54.23 82.05 54.23 81.97 54.3 81.97"/><polygon class="cls-16" points="54.3 84.45 54.3 84.9 54.3 83.1 54.3 84.45"/><path class="cls-16" d="M65.18,100.6v0Z" transform="translate(-10.88 -10.23)"/><path class="cls-16" d="M69.68,109.45h0c-.22-.07-.37-.22-.6-.3.23.08.38.23.6.3" transform="translate(-10.88 -10.23)"/><path class="cls-16" d="M82.28,102.18h0l-.22-.15c.07.07.15.07.22.15" transform="translate(-10.88 -10.23)"/><path class="cls-15" d="M65.18,100.6v0Z" transform="translate(-10.88 -10.23)"/><path class="cls-5" d="M38.41,122.58l-.53,4.12-1.42,3.75c0,.08-.08.23-.08.3-.07.38-.15,1-.22,1.58,0,.15-.08.3-.08.45a8.23,8.23,0,0,0-.07,1.27l-.23-.15-5.47-3.22-4.5-2.63-6-3.52-1.13-.68a4.53,4.53,0,0,1-.67-.6,2.89,2.89,0,0,1-.6-1.27,3.43,3.43,0,0,1-.08-.38c0-.15-.07-.3-.07-.45v-.75a11,11,0,0,1,4.2-7.72Z" transform="translate(-10.88 -10.23)"/><path class="cls-5" d="M43.43,138.33h0l-3.15-1.8,1.88-1.05v.6a.49.49,0,0,0,.07.3.26.26,0,0,0,.08.22,1,1,0,0,0,.15.45.51.51,0,0,0,.15.3v.08c.07.07.07.15.15.22s.07.08.07.15l.23.23a1,1,0,0,0,.3.22.07.07,0,0,1,.07.08" transform="translate(-10.88 -10.23)"/><path class="cls-5" d="M47,126.78a10.88,10.88,0,0,0-4.87,8.47l-1.43.83v-.68a1.77,1.77,0,0,1,.08-.6.7.7,0,0,1,.07-.37,13.58,13.58,0,0,1,.38-1.65v-.08c0-.07.07-.15.07-.22s.08-.15.08-.3,0-.08.07-.15.15-.38.23-.53a3.47,3.47,0,0,1,.37-.75.07.07,0,0,1,.08-.07c.07-.15.15-.23.22-.38a2,2,0,0,1,.3-.52c.08-.15.15-.23.23-.38s.22-.37.37-.6a.24.24,0,0,0,.08-.15c.15-.22.3-.37.45-.6l.07-.07c.15-.23.3-.38.45-.6a.59.59,0,0,1,.3-.3c.15-.15.23-.3.38-.38l.52-.52c.08-.08.23-.15.3-.3Z" transform="translate(-10.88 -10.23)"/><path class="cls-10" d="M47.11,135.63c-1.58.9-2.85.15-2.85-1.58A6.31,6.31,0,0,1,47,129.18c1.58-.9,2.78-.15,2.85,1.57a6.33,6.33,0,0,1-2.77,4.88M47,126.78a10.88,10.88,0,0,0-4.87,8.47V136a.46.46,0,0,0,.07.3.27.27,0,0,0,.08.23,1,1,0,0,0,.15.45.57.57,0,0,0,.15.3v.07c.07.08.07.15.15.23s.07.07.07.15l.23.22a1,1,0,0,0,.3.23.07.07,0,0,1,.07.07.08.08,0,0,1,.08.08.07.07,0,0,1,.07.07c.9.53,2.1.45,3.53-.37A10.91,10.91,0,0,0,52,129.7v-.15C52,126.48,49.73,125.2,47,126.78Z" transform="translate(-10.88 -10.23)"/><path class="cls-8" d="M47.11,129.18c1.57-.9,2.77-.15,2.85,1.57a6.34,6.34,0,0,1-2.78,4.88c-1.57.9-2.85.15-2.85-1.58a5.93,5.93,0,0,1,2.78-4.87" transform="translate(-10.88 -10.23)"/><polygon class="cls-17" points="46.2 104.47 46.2 105.15 45.75 105.38 39.9 108.75 39.9 108.15 45.23 105.08 45.83 104.7 46.2 104.47"/><polygon class="cls-15" points="54.3 81.97 54.3 82.95 54.23 82.05 54.23 81.97 54.3 81.97"/><polygon class="cls-15" points="54.3 84.45 54.3 84.9 54.3 83.1 54.3 84.45"/><path class="cls-11" d="M53.41,128.73l-1.43.82c0-3.07-2.25-4.35-4.95-2.77a10.88,10.88,0,0,0-4.87,8.47l-1.43.83v-.68a1.77,1.77,0,0,1,.08-.6.7.7,0,0,1,.07-.37,13.58,13.58,0,0,1,.38-1.65v-.08c0-.07.07-.15.07-.22s.08-.15.08-.3,0-.08.07-.15.15-.38.23-.53a3.47,3.47,0,0,1,.37-.75.07.07,0,0,1,.08-.07c.07-.15.15-.23.22-.38a2,2,0,0,1,.3-.52c.08-.15.15-.23.23-.38s.22-.37.37-.6a.24.24,0,0,0,.08-.15c.15-.22.3-.37.45-.6l.07-.07c.15-.23.3-.38.45-.6a.59.59,0,0,1,.3-.3c.15-.15.23-.3.38-.38l.52-.52c.08-.08.23-.15.3-.3s.23-.15.3-.23.23-.15.3-.22.23-.15.3-.23.23-.15.3-.22c3.53-1.88,6.38-.23,6.38,3.75" transform="translate(-10.88 -10.23)"/><polygon class="cls-15" points="54.23 79.5 54.23 79.5 54.23 78.08 54.23 79.5"/><polygon class="cls-18" points="54.3 101.4 54.3 101.85 48.83 98.63 48.83 98.25 48.9 95.92 48.9 95.85 48.9 94.58 48.9 93.67 48.9 93.53 48.9 93.45 48.9 92.55 48.9 91.95 48.9 91.88 48.9 91.2 48.9 90.22 48.9 89.17 48.9 88.88 48.9 88.8 48.98 87.22 48.98 84.3 48.98 82.8 48.98 82.2 48.98 81.83 49.05 80.25 49.05 79.88 49.05 79.13 48.67 78.9 46.2 77.47 36.3 71.7 33.75 70.28 31.57 69 29.25 67.58 29.25 67.42 29.18 64.95 29.18 62.02 29.18 56.17 34.2 59.1 36.75 60.6 38.92 61.88 41.48 63.3 43.58 64.58 46.13 66 54.23 70.72 54.23 76.28 54.23 76.58 54.23 77.4 54.23 79.65 54.23 79.95 54.23 82.05 54.3 82.95 54.3 84.9 54.3 85.28 54.3 87.38 54.3 90.38 54.3 92.25 54.3 93.38 54.3 95.1 54.3 95.7 54.3 97.72 54.3 99 54.3 99.15 54.3 101.4"/><path class="cls-16" d="M50,96.4h0" transform="translate(-10.88 -10.23)"/><polyline class="cls-16" points="40.35 93.15 40.27 93.15 40.35 93.15"/><path class="cls-16" d="M59.78,103.68h0c-.22-.08-.37-.23-.6-.3a2.59,2.59,0,0,0,.6.3" transform="translate(-10.88 -10.23)"/><path class="cls-4" d="M41.56,120.4h0l-.08-.07v0c0,.07,0,.07.08.07" transform="translate(-10.88 -10.23)"/><polyline class="cls-4" points="40.35 93.15 40.27 93.15 40.35 93.15"/><path class="cls-19" d="M41.56,120.4h0l-.08-.07v0c0,.07,0,.07.08.07" transform="translate(-10.88 -10.23)"/><polyline class="cls-19" points="40.35 93.15 40.27 93.15 40.35 93.15"/><polygon class="cls-17" points="46.2 106.28 39.9 109.95 39.9 109.28 46.2 105.67 46.2 106.28"/><path class="cls-19" d="M43.66,107.35Z" transform="translate(-10.88 -10.23)"/><path class="cls-16" d="M59.18,103.38a2.27,2.27,0,0,1,.6.37c-.22-.15-.37-.22-.6-.37m-9.9,15.82-3.07,1.73a.89.89,0,0,0-.38.67c0,.23.15.38.38.23l3.07-1.73a.89.89,0,0,0,.38-.67C49.66,119.2,49.43,119.05,49.28,119.2Zm-5.62-11.85Zm-2.25,12.9v0C41.48,120.33,41.41,120.33,41.41,120.25Z" transform="translate(-10.88 -10.23)"/><path class="cls-16" d="M50.78,120.18v-.68l6.3-3.67v.67Zm6.3-2.55-6.3,3.67v-.6l6.3-3.6Zm-6.3.75,5.33-3.08.6-.37.37-.23v.6l-.45.23-5.85,3.37Zm-.9-2.63a3.48,3.48,0,0,1-1.27,1.58l-6.23,3.6a1.47,1.47,0,0,1-.6.15.93.93,0,0,1-.9-1v-.3l.53-4.57V115a11.15,11.15,0,0,1,.37-1.57v-.08l1.5-5.4a.24.24,0,0,0,.08-.15l.22-.45a5.57,5.57,0,0,1,.75-.9c.08-.07.15-.15.23-.15l1.12-.67L50,103.15l.15-.07h0l.15-.08.07-.07h0c.08,0,.08-.08.15-.08a.74.74,0,0,1,.38-.07.93.93,0,0,1,.9,1V108a6.5,6.5,0,0,1-.23,1.2c-.07.15-.07.3-.15.45l-.15.52-.37,1.43-.15.6Zm-.6,4.35-3.07,1.73c-.23.15-.38,0-.38-.23a.89.89,0,0,1,.38-.67l3.07-1.73c.23-.15.38,0,.38.23A.89.89,0,0,1,49.28,120.1ZM59.41,89.58c-.08,0-.08.07-.15.07-.23.15-.6.38-1,.6l-.67.45c-.08.08-.23.15-.3.23a15.6,15.6,0,0,0-1.65,1.12c-.68.45-1.43,1-2.25,1.65-.45.3-.9.68-1.35,1-.68.53-1.35,1.13-2,1.73H50c-.15.15-.3.22-.45.37s-.45.38-.68.6c-.52.45-1,1-1.5,1.5s-.9,1-1.35,1.43l-.07.07c0,.08-.08.08-.08.15s-.07.08-.15.15c-.67.75-1.27,1.5-2,2.33-.52.67-1,1.42-1.57,2.17-.08.08-.15.23-.23.3-.22.38-.45.68-.67,1-.08.08-.08.15-.15.3s-.15.3-.08.3h0c.15.08.83-.3,1-.15v.08a.26.26,0,0,1-.08.22c-.07.23-.22.45-.3.75s-.22.6-.37.9-.23.6-.38.9-.15.38-.22.6-.15.45-.23.75v.08a7.42,7.42,0,0,0-.3,1c-.15.53-.3,1.13-.45,1.65a8.47,8.47,0,0,0-.3,1.28c-.07.3-.15.6-.22.82a.53.53,0,0,1-.08.3c-.07.23-.07.38-.15.6s-.07.38-.07.53a4.67,4.67,0,0,0-.15,1v.3a2.63,2.63,0,0,0-.08.75c-.07.75-.15,1.42-.15,1.87v1L38,126.63l-1.43,3.75c0,.07-.07.22-.07.3-.08.37-.15,1-.23,1.57,0,.15-.07.3-.07.45a7.26,7.26,0,0,0-.08,1.28v5.1l4.35-2.55,1.88-1.05v-.23l-1.43.83v-.68a1.77,1.77,0,0,1,.08-.6.7.7,0,0,1,.07-.37,13.58,13.58,0,0,1,.38-1.65v-.08c0-.07.07-.15.07-.22s.08-.15.08-.3,0-.08.07-.15.15-.38.23-.53a3.47,3.47,0,0,1,.37-.75.07.07,0,0,1,.08-.07c.07-.15.15-.23.22-.38a2,2,0,0,1,.3-.52c.08-.15.15-.23.23-.38s.22-.37.37-.6a.24.24,0,0,0,.08-.15c.15-.22.3-.37.45-.6L44,128c.15-.23.3-.38.45-.6a.59.59,0,0,1,.3-.3c.15-.15.23-.3.38-.38l.52-.52c.08-.08.23-.15.3-.3s.23-.15.3-.23.23-.15.3-.22.23-.15.3-.23.23-.15.3-.22c3.53-2,6.3-.38,6.38,3.6l-1.43.82v.15L58.21,126V118.3l1.57-.9V103.75c-.22-.15-.37-.22-.6-.37.23.07.38.22.6.3V89.35C59.86,89.35,59.71,89.43,59.41,89.58Z" transform="translate(-10.88 -10.23)"/><polygon class="cls-17" points="46.2 106.8 46.2 107.4 39.9 111.08 39.9 110.47 46.2 106.8"/><path class="cls-20" d="M67.21,91.08Z" transform="translate(-10.88 -10.23)"/><path class="cls-20" d="M121.88,62.35v0Z" transform="translate(-10.88 -10.23)"/><polygon class="cls-18" points="25.05 128.78 0.07 114.22 0 111 0 109.65 5.17 112.65 9 114.9 14.63 118.2 19.43 120.9 24.82 124.13 25.05 124.2 25.05 128.78"/><polygon class="cls-21" points="151.65 14.55 146.55 17.4 144.07 18.9 141.9 20.1 139.43 21.6 137.25 22.8 134.7 24.3 54.23 70.72 46.13 66 43.58 64.58 41.48 63.3 38.92 61.88 36.75 60.6 34.2 59.1 29.18 56.17 126.6 0 151.65 14.55"/><path class="cls-22" d="M42.08,107.13a.28.28,0,0,1-.07.22,6.15,6.15,0,0,0-.3.75c-.15.3-.23.6-.38.9s-.22.6-.37.9-.15.38-.23.6-.15.45-.22.75v.08a6.15,6.15,0,0,0-.3,1c-.15.53-.3,1.13-.45,1.65a7.41,7.41,0,0,0-.3,1.28c-.08.3-.15.6-.23.82a.59.59,0,0,1-.07.3c-.08.23-.08.38-.15.6s-.08.38-.08.53a5.32,5.32,0,0,0-.15,1v.3a3,3,0,0,0-.07.75c-.08.75-.15,1.42-.15,1.87v1l-17-9.9-2.17-1.27L13.51,108A42.19,42.19,0,0,1,17,93.1c.6.38,1.2.68,1.8,1.05,2.7,1.58,5.47,3.15,8.17,4.73,4.73,2.77,9.45,5.47,14.18,8.25h0c.15.07.82-.3,1-.15v.15h0" transform="translate(-10.88 -10.23)"/><path class="cls-21" d="M59.93,89.35a1.44,1.44,0,0,0-.45.3c-.07,0-.07.08-.15.08s-.6.37-1,.6l-.68.45c-.07.07-.22.15-.3.22a16.93,16.93,0,0,0-1.65,1.13c-.67.45-1.42,1.05-2.25,1.65a15.44,15.44,0,0,0-1.35,1c-.67.52-1.35,1.12-2,1.72H50c-.15.15-.3.23-.45.38s-.45.37-.67.6c-.53.45-1,1-1.5,1.5s-.9,1-1.35,1.42l-.08.08c0,.07-.07.07-.07.15s-.08.07-.15.15c-.68.75-1.28,1.5-1.95,2.32s-1.05,1.43-1.58,2.18c-.07.07-.15.22-.22.3-.23.37-.45.67-.68,1.05-.07.07-.07.15-.15.3s-.15.3-.07.3c-4.73-2.78-9.45-5.48-14.18-8.25-2.7-1.58-5.47-3.15-8.17-4.73-.6-.37-1.2-.67-1.8-1-.3-.15-.53-.3-.83-.45-.07,0-.07-.15.08-.37,5.62-9.53,16-15.9,18.3-17.25.3-.15.45-.23.45-.3L40.21,78l2.4,1.35,2.17,1.28,2.55,1.5,9.9,5.77,2.4,1.43Z" transform="translate(-10.88 -10.23)"/><path class="cls-21" d="M50,96.4h0" transform="translate(-10.88 -10.23)"/><path class="cls-21" d="M38.41,122.58l-.53,4.12-1.42,3.75c0,.08-.08.23-.08.3-.07.38-.15,1-.22,1.58,0,.15-.08.3-.08.45a8.23,8.23,0,0,0-.07,1.27v.53l-.23-.15-5.47-3.15-4.73-2.78L20,125.2,16.13,123,11,120a5.28,5.28,0,0,1,.07-1v-.23a8.85,8.85,0,0,1,.15-1.35.62.62,0,0,1,.08-.37v-.15c.07-.38.15-.75.22-1l1.43-3.75.52-4.12,5.85,3.37,2.18,1.28Z" transform="translate(-10.88 -10.23)"/><polyline class="cls-23" points="40.35 93.15 40.27 93.15 40.35 93.15"/><path class="cls-23" d="M41.56,120.4h0l-.08-.07v0c0,.07,0,.07.08.07" transform="translate(-10.88 -10.23)"/><path class="cls-20" d="M51.46,107.88a3.29,3.29,0,0,1-.23,1.12c-.07.15-.07.38-.15.53l-.15.45-.37,1.42-.15.6-1,3.6a3.1,3.1,0,0,1-1,1.28l-6.23,3.6a.46.46,0,0,1-.3.07h-.07s-.08,0-.08-.07l-.07-.08a.07.07,0,0,0-.08-.07V120l.6-4.8a4.3,4.3,0,0,1,.38-1.65L44,108.1c0-.07.07-.07.07-.15s.08-.22.15-.3a2.23,2.23,0,0,1,.83-.82l.22-.15,1-.6,4.12-2.4.3-.15.15-.08h0c.08,0,.08-.07.15-.07h.38c.07,0,.07,0,.07.07s.08.08.08.15v4.28Zm.52-3.53v-.52a.89.89,0,0,0-.9-1,.62.62,0,0,0-.37.08c-.08,0-.08.07-.15.07h0l-.08.08-.15.07h0l-.15.08-4.27,2.47-1.13.68c-.07.07-.15.07-.22.15a2.82,2.82,0,0,0-.75.9l-.23.45a.25.25,0,0,1-.07.15l-1.5,5.4v.07a4,4,0,0,0-.38,1.58v.22l-.52,4.58v.3a.88.88,0,0,0,.9,1,1.71,1.71,0,0,0,.6-.15l6.22-3.6a3.45,3.45,0,0,0,1.28-1.57l1-3.53.15-.6.37-1.42.15-.53c.08-.15.08-.3.15-.45a3.36,3.36,0,0,0,.23-1.2v-.22Z" transform="translate(-10.88 -10.23)"/><polyline class="cls-22" points="40.35 93.15 40.27 93.15 40.35 93.15"/><path class="cls-22" d="M51.46,107.8v.08a3.29,3.29,0,0,1-.23,1.12c-.07.15-.07.38-.15.53l-.15.45-.37,1.42-.15.6-1,3.6a3.1,3.1,0,0,1-1,1.28l-6.23,3.6a.46.46,0,0,1-.3.07h-.07s-.08,0-.08-.07l-.07-.08-.08-.07V120l.6-4.8a4.3,4.3,0,0,1,.38-1.65L44,108.1c0-.07.07-.07.07-.15s.08-.22.15-.3a2.23,2.23,0,0,1,.83-.82l.22-.15,1-.6,4.12-2.4.3-.15.15-.08h0c.08,0,.08-.07.15-.07h.3s.08,0,.08.07.07.08.07.15v.45Z" transform="translate(-10.88 -10.23)"/><path class="cls-22" d="M41.56,120.4h0l-.08-.07v0c0,.07,0,.07.08.07" transform="translate(-10.88 -10.23)"/><path class="cls-24" d="M29,127.75c.9.53,1.27,2.4,1.27,3.3s-.75,1.2-1.57.68l-11.1-6.45A3.3,3.3,0,0,1,16,122.73c0-.9,1-2,1.8-1.5Z" transform="translate(-10.88 -10.23)"/><path class="cls-25" d="M16.81,121.38l-.23.22L30,129.48c-.08-.15-.08-.3-.15-.38Z" transform="translate(-10.88 -10.23)"/><path class="cls-25" d="M16.21,123.48l.22.45L30,131.88c.07-.08.15-.15.15-.23Z" transform="translate(-10.88 -10.23)"/><path class="cls-25" d="M16.13,122.28c0,.07-.07.15-.07.3l14.17,8.25v-.38Z" transform="translate(-10.88 -10.23)"/><path class="cls-26" d="M33,128.88c1.65,1,2.77,2.1,2.77,4.35,0,2.92-1.05,2.47-1.87,2-.08,0-.08-.07-.15-.07a.24.24,0,0,1-.15-.08s-.08,0-.08-.07c-.52-.3-1.2-.68-2-1.05-2.85-1.65-6.52-4-6.15-5.33.3-1,1.88-2.47,4.5-1.2A22.69,22.69,0,0,1,33,128.88" transform="translate(-10.88 -10.23)"/><path class="cls-26" d="M12,122.28c.07,0,.07.07.15.07a.28.28,0,0,1,.15.08.07.07,0,0,1,.07.07c.53.3,1.13.68,1.8,1,2.63,1.5,6.08,3.23,5.7,1.58a11.5,11.5,0,0,0-4.12-5.93c-1-.67-2-1.42-2.85-1.87a3.92,3.92,0,0,0-1.73-.6c-.15,1.12-.3,2.62-.3,3.15v1.35a3.74,3.74,0,0,0,1.13,1" transform="translate(-10.88 -10.23)"/><path class="cls-17" d="M49.66,119.43a.89.89,0,0,1-.38.67l-3.07,1.73c-.23.15-.38,0-.38-.23a.89.89,0,0,1,.38-.67l3.07-1.73c.15-.15.38-.07.38.23" transform="translate(-10.88 -10.23)"/><polygon class="cls-27" points="15.6 105.67 15.15 104.85 9.53 101.55 9.07 101.92 15.6 105.67"/><path class="cls-27" d="M26,115.3c-.07,0-.15,0-.15-.07s-6.07-5.48-11.55-6.53c-.15,0-.22-.15-.22-.3s.15-.22.3-.22c5.55,1.12,11.47,6.45,11.77,6.67a.33.33,0,0,1,0,.38c-.07.07-.07.07-.15.07" transform="translate(-10.88 -10.23)"/><polygon class="cls-27" points="25.05 111 24.6 110.17 19.05 106.8 18.6 107.25 25.05 111"/><path class="cls-27" d="M35.48,120.63c-.07,0-.15,0-.15-.08s-6.07-5.47-11.55-6.52c-.15,0-.22-.15-.22-.3s.15-.23.3-.23c5.55,1.13,11.47,6.45,11.77,6.68.08.07.08.22,0,.37s-.07.08-.15.08" transform="translate(-10.88 -10.23)"/></svg>