<svg xmlns="http://www.w3.org/2000/svg" xmlns:xlink="http://www.w3.org/1999/xlink"
    viewBox="0 0 1080 1350">
    <defs>
        <style>
            .cls-1{isolation:isolate;}.cls-14{fill:#c4c2c1;}.cls-2{fill:#1e1e1e;}.cls-3{fill:url(#linear-gradient);}.cls-4{fill:url(#linear-gradient-2);}.cls-5{fill:url(#linear-gradient-3);}.cls-6{fill:#504f59;}.cls-7{fill:#c8c6e8;}.cls-8{fill:#90919a;}.cls-9{fill:#8e8f98;}.cls-10{fill:url(#linear-gradient-4);}.cls-11{fill:#2d2c38;}.cls-12{fill:url(#linear-gradient-5);}.cls-13{fill:url(#linear-gradient-6);}.cls-15{fill:#353535;opacity:0.29;}.cls-16{fill:#3d4b4d;}.cls-17{fill:#cbd0d3;}.cls-18{fill:#1d232a;}.cls-19{fill:#a1a8ac;}.cls-20{fill:#363f47;}.cls-21{fill:#2b1f2c;}.cls-22{fill:#696b6f;}.cls-23{fill:#999ebf;}.cls-24{fill:#f8eee8;}.cls-25{fill:#ed670e;}.cls-26{fill:#e9e4e0;mix-blend-mode:multiply;}.cls-27{fill:#ed6d00;}.cls-28{fill:#fd9101;}</style>
        <linearGradient id="linear-gradient" x1="305.35" y1="893.77" x2="253.94" y2="804.73"
            gradientUnits="userSpaceOnUse">
            <stop offset="0" stop-color="#181818" />
            <stop offset="0.27" stop-color="#262626" />
            <stop offset="0.77" stop-color="#2e2e2e" />
        </linearGradient>
        <linearGradient id="linear-gradient-2" x1="239" y1="893.64" x2="275.24" y2="830.87"
            gradientTransform="translate(470.33 -11.89) rotate(30.31)"
            gradientUnits="userSpaceOnUse">
            <stop offset="0" stop-color="#141414" />
            <stop offset="0.44" stop-color="#1e1e1e" />
            <stop offset="0.78" stop-color="#202020" />
            <stop offset="0.98" stop-color="#292929" />
            <stop offset="1" stop-color="#2a2a2a" />
        </linearGradient>
        <linearGradient id="linear-gradient-3" x1="237.41" y1="892.83" x2="272.28" y2="832.45"
            gradientUnits="userSpaceOnUse">
            <stop offset="0" stop-color="#161616" />
            <stop offset="0.3" stop-color="#1a1a1a" />
            <stop offset="0.79" stop-color="#1e1e1e" />
            <stop offset="0.8" stop-color="#1e1e1e" />
        </linearGradient>
        <linearGradient id="linear-gradient-4" x1="730.34" y1="1133.9" x2="678.93" y2="1044.85"
            xlink:href="#linear-gradient" />
        <linearGradient id="linear-gradient-5" x1="666.6" y1="1132.26" x2="702.85" y2="1069.49"
            gradientTransform="translate(649.19 -195.08) rotate(30.31)"
            xlink:href="#linear-gradient-2" />
        <linearGradient id="linear-gradient-6" x1="666.41" y1="1131.45" x2="701.27" y2="1071.06"
            xlink:href="#linear-gradient-3" />
    </defs>
    <g class="cls-1">
        <g id="Capa_1" data-name="Capa 1">
            <polygon class="cls-2"
                points="214.93 841.4 247.17 821.6 369.6 897.15 643.12 1088.62 672.1 1065.68 782.84 1137.88 747.32 951.94 178.52 664.42 214.93 841.4" />
            <path class="cls-3"
                d="M316.12,870.31c0-23.11-16.33-51.28-36.47-62.9-10.65-6.15-20.24-6.45-26.9-1.94L230,818.66l15.44,25.18a85.79,85.79,0,0,0,24.7,40.28l13.58,22.15,20-11.68a17.29,17.29,0,0,0,3.63-2.11h0C312.81,888.32,316.12,880.71,316.12,870.31Z" />
            <ellipse class="cls-4" cx="257.12" cy="862.26" rx="29.68" ry="51.41"
                transform="translate(-400.03 247.64) rotate(-30.31)" />
            <path class="cls-5"
                d="M289.93,882.89c0,22.24-15.71,31.19-35.08,20s-35.09-38.27-35.09-60.5,15.71-31.19,35.09-20S289.93,860.66,289.93,882.89Z" />
            <path class="cls-6"
                d="M281.78,877.4c0,16.05-11.34,22.52-25.34,14.44s-25.33-27.64-25.33-43.7,11.34-22.53,25.33-14.45S281.78,861.34,281.78,877.4Z" />
            <path class="cls-7"
                d="M280.08,875.51c0,14.55-10.28,20.41-23,13.09s-23-25.05-23-39.6,10.28-20.4,23-13.08S280.08,861,280.08,875.51Z" />
            <path class="cls-7"
                d="M277.77,874.18c0,13.09-9.25,18.36-20.65,11.77s-20.65-22.53-20.65-35.61,9.24-18.36,20.65-11.78a32.67,32.67,0,0,1,3.07,2c8.9,6.66,15.95,18.77,17.33,29.77A29.24,29.24,0,0,1,277.77,874.18Z" />
            <path class="cls-8"
                d="M264.57,880.63C253.78,874.4,245,859.3,245,846.91c0-5,1.43-8.8,3.84-11.14-7.3-.56-12.4,4.84-12.4,14.57,0,13.08,9.24,29,20.65,35.61,8.31,4.8,15.47,3.3,18.74-2.93C272.67,883.78,268.78,883.06,264.57,880.63Z" />
            <path class="cls-9"
                d="M276.56,871.88c0,8-5.67,11.26-12.66,7.22s-12.67-13.82-12.67-21.85S256.9,846,263.9,850,276.56,863.85,276.56,871.88Z" />
            <path class="cls-8"
                d="M277.52,870.37c-2.17,3.15-6.29,3.74-11,1-7-4-12.67-13.82-12.67-21.85,0-5.39,2.56-8.62,6.36-8.93C269.09,847.26,276.14,859.37,277.52,870.37Z" />
            <polygon class="cls-8"
                points="257.12 841.66 247.62 847.16 266.34 877.55 275.71 872.14 269.31 856.86 257.12 841.66" />
            <path class="cls-8"
                d="M269.79,869.57c0,8-5.67,11.27-12.67,7.23S244.45,863,244.45,854.94s5.67-11.26,12.67-7.22S269.79,861.54,269.79,869.57Z" />
            <path class="cls-7"
                d="M268.56,869.37c0,7.68-5.43,10.77-12.12,6.91s-12.11-13.22-12.11-20.89,5.42-10.77,12.11-6.91S268.56,861.7,268.56,869.37Z" />
            <path class="cls-10"
                d="M743.72,1108.92c0-23.11-16.33-51.27-36.47-62.9-10-5.8-19.13-6.39-25.72-2.66h0l-.15.09-23,13.3v17.84l51.72,71,21.6-12.55a17.79,17.79,0,0,0,2.9-1.68h0C740.26,1127.26,743.72,1119.56,743.72,1108.92Z" />
            <ellipse class="cls-11" cx="684.73" cy="1100.87" rx="29.68" ry="51.41"
                transform="translate(-461.99 496.05) rotate(-30.31)" />
            <ellipse class="cls-12" cx="684.73" cy="1100.87" rx="29.68" ry="51.41"
                transform="translate(-461.99 496.05) rotate(-30.31)" />
            <path class="cls-13"
                d="M718.92,1121.51c0,22.23-15.71,31.19-35.08,20s-35.08-38.28-35.08-60.51,15.7-31.19,35.08-20S718.92,1099.28,718.92,1121.51Z" />
            <path class="cls-6"
                d="M709.39,1116c0,16.06-11.35,22.52-25.34,14.45s-25.34-27.65-25.34-43.71,11.35-22.52,25.34-14.44S709.39,1100,709.39,1116Z" />
            <path class="cls-7"
                d="M707.68,1114.13c0,14.55-10.28,20.41-22.95,13.09s-23-25-23-39.6,10.28-20.41,23-13.09S707.68,1099.58,707.68,1114.13Z" />
            <path class="cls-8"
                d="M704.81,1112.47c0,12.73-9,17.86-20.08,11.45s-20.09-21.91-20.09-34.64,9-17.86,20.09-11.46S704.81,1099.74,704.81,1112.47Z" />
            <path class="cls-7"
                d="M702.33,1111c0,11.16-7.88,15.65-17.6,10s-17.61-19.21-17.61-30.37,7.88-15.65,17.61-10S702.33,1099.88,702.33,1111Z" />
            <path class="cls-8"
                d="M693.78,1108.28c0,6.66-4.71,9.35-10.52,6s-10.53-11.48-10.53-18.15,4.72-9.35,10.53-6S693.78,1101.61,693.78,1108.28Z" />
            <path class="cls-6"
                d="M674.68,1101.06a19.93,19.93,0,0,0,4.43,7.85,3.91,3.91,0,0,1,1.1,3.14h0c-.26.82-1.46.58-2.56-.71a31.68,31.68,0,0,1-5.88-10.42c-.53-1.6-.09-2.7.77-2.46h0A4,4,0,0,1,674.68,1101.06Z" />
            <path class="cls-7"
                d="M691.26,1107.62c0,5.87-4.14,8.24-9.26,5.28s-9.27-10.11-9.27-16,4.15-8.24,9.27-5.29S691.26,1101.74,691.26,1107.62Z" />
            <path class="cls-8"
                d="M687,1105.17c0,3.19-2.25,4.48-5,2.87a11.09,11.09,0,0,1-5-8.68c0-3.19,2.26-4.48,5-2.87A11.09,11.09,0,0,1,687,1105.17Z" />
            <path class="cls-6"
                d="M694.77,1100.69a19.93,19.93,0,0,0-4.43-7.85,3.92,3.92,0,0,1-1.1-3.15h0c.26-.82,1.46-.58,2.56.72a31.58,31.58,0,0,1,5.88,10.42c.53,1.59.09,2.69-.77,2.46h0A4.06,4.06,0,0,1,694.77,1100.69Z" />
            <path class="cls-6"
                d="M689.94,1115.41c2.38.09,3.4-.44,4.61-2.42.43-.7,1.34-.79,2.19,0h0a3,3,0,0,1,.67,3.32,6.59,6.59,0,0,1-6.13,3.22,3.13,3.13,0,0,1-2.53-2.35h0C688.53,1116.07,689.09,1115.38,689.94,1115.41Z" />
            <path class="cls-6"
                d="M679.51,1086.34c-2.38-.1-3.4.44-4.61,2.42-.43.7-1.34.79-2.19,0h0a3,3,0,0,1-.67-3.32,6.58,6.58,0,0,1,6.13-3.22,3.12,3.12,0,0,1,2.53,2.35h0C680.92,1085.68,680.36,1086.37,679.51,1086.34Z" />
            <path class="cls-8"
                d="M678.46,1110.27a31.71,31.71,0,0,1-5.89-10.42,3.59,3.59,0,0,1-.19-1.37c-.74,0-1.1,1-.61,2.44a31.68,31.68,0,0,0,5.88,10.42c1.1,1.29,2.3,1.53,2.56.71a2.39,2.39,0,0,0-.06-.63A3.07,3.07,0,0,1,678.46,1110.27Z" />
            <path class="cls-8"
                d="M697.71,1102.22a4.09,4.09,0,0,1-2.14-2.6,19.93,19.93,0,0,0-4.43-7.85,4.4,4.4,0,0,1-1-2.51.69.69,0,0,0-.86.43,3.92,3.92,0,0,0,1.1,3.15,19.93,19.93,0,0,1,4.43,7.85,4.06,4.06,0,0,0,2.14,2.6c.57.16.92-.31,1-1.09C697.82,1102.2,697.77,1102.24,697.71,1102.22Z" />
            <path class="cls-8"
                d="M692.08,1118.46a3.13,3.13,0,0,1-2.53-2.35c0-.24.07-.36.09-.56a1.24,1.24,0,0,0-.89,1.63,3.13,3.13,0,0,0,2.53,2.35,6.59,6.59,0,0,0,6.13-3.22s0,0,0-.07A6.59,6.59,0,0,1,692.08,1118.46Z" />
            <path class="cls-8"
                d="M673.51,1087.69a3,3,0,0,1-.69-3.25,6.25,6.25,0,0,0-.78,1,3,3,0,0,0,.67,3.32c.85.79,1.76.7,2.19,0a7,7,0,0,1,.73-1C675.18,1088.38,674.32,1088.44,673.51,1087.69Z" />
            <path class="cls-8"
                d="M680.31,1085.27c-2.28-.09-3.32.43-4.47,2.23.9-1,1.92-1.23,3.67-1.16.67,0,1-.49,1.11-1.21C680.5,1085.16,680.44,1085.27,680.31,1085.27Z" />
            <path id="body_bus" data-name="body bus" class="cls-14"
                d="M29.48,716.86l-7.8-100.3V478.31l1.86-8.6s9.07-9.4,10.53-10.65,34.27-25.19,34.7-25.47l33.43-21.39L146,389.58c.42-.22,49.14-23.25,49.14-23.25l14.09-5.28s7.06-4,11.11-1.66l50.28,29.11L570.54,562.14,830.88,712.88,1058.1,844.43s3.12,2.12,3.07,4.53,0,15.91,0,15.91l-1.61,30.58s1.62,106.16,1.7,108,.63,14.83,2.52,18.47a17.91,17.91,0,0,1,2,6.66l1.65,38-.06,8.38s-1.22,7.57-1.81,10.36-3,9.33-3,9.33-4.81,7.85-5.44,8.2-11.94,11.23-16.5,14.76-29,20.49-29,20.49-37.14,22.3-42.73,25.37-46.13,23.9-46.13,23.9L889,1202.58s-21.37,7.56-25,7.6-23.51-7.64-23.51-7.64l-119.65-69.08v-31.4s-.88-8-3.07-12.9-7.9-18.49-10.79-22.14a83.7,83.7,0,0,0-6.65-7.25l-33.25-19.6s-8.19-5.66-13.79.26l-7,7.43s-3.07,2.52-3.07,9.36v31.4L292.62,886.24v-31.4A38.8,38.8,0,0,0,289.56,842c-1.9-4-6.71-22.53-20.85-31.77L238.87,793s-8.7-5.14-13.8.25l-7,7.44A14.9,14.9,0,0,0,215,810v31.41L88.62,768.46Z" />
            <path class="cls-15"
                d="M20,477.1,836.09,965.15,838.83,1203l-117.31-69.31-.31-35.21s-9.79-26.59-13.5-31.15a63,63,0,0,0-8.36-8.58c-.6-.4-25.75-15-26.54-15.43s-5.43-3.39-7.37-4.06-6.15-1.28-7.3-.93a27.14,27.14,0,0,0-4.16,2.33l-7.9,8.52-2.22,5.57v34.1L293.33,886.47l-.4-35.75s-1.27-5.13-1.74-6.31-4-9-4.53-10.21-4-8.84-4.64-10-6.19-10.38-6.19-10.38a20.18,20.18,0,0,1-4-1.77c-1.34-.91-7.51-4.54-9.54-5.71s-24-14.32-26.61-14.84-7.13-1-9.91,2l-7,7.44-2.34,4.17-.73,36.58L89.33,768.69,28.15,717,21,629.76s-1.38-34.29-.5-47.11S20,477.1,20,477.1Z" />
            <path class="cls-15"
                d="M838.92,961.67l19.07,1s6.26,1.8,11.86-.12,22.84-7.63,33.62-13.09,116.74-67,116.74-67l22.28-15s11.41-10.07,12.77-15.74,0,52.61,0,52.61l4.89,184.17-28.27,30.16s-66.69,44.74-77.16,48.72-25.12,15.46-42.76,22-32.77,11.28-38,13.3-15.22,7.19-17.91,6.78-17.2-6.66-17.2-6.66Z" />
            <path class="cls-16"
                d="M1061.52,902.1c-1.94,4.23-6.07,9.92-13.48,15.5s-54.26,33.95-85.14,52.9-67.61,37.67-83.25,42.24c0,0-10.68,1.39-10.95,5s4.16,93.51,4.12,96.4c0,1,1.16,1.09,2.83.86,3.14-.43,8-2,9.77-.86,2.76,1.73,8.19,9.22,15.44,9.29-4.41,1.8-8.44,3.36-12,4.69l-1.18.44-1.14.42-2.22.81-2,.7-1,.34a96.06,96.06,0,0,1-13.12,3.52v-20l-5-144.39c14.89,5.4,61.92-27.72,102.36-51.46,19.58-11.5,67.88-39.51,80.19-49,9.58-7.39,15.53-14.13,15.65-20.2l.09,15.67C1061.53,866.18,1061.51,901.38,1061.52,902.1Z" />
            <path class="cls-16"
                d="M1069.45,1089c0,6.34-70.49,55.28-108.36,78.38-42.5,25.93-85.81,38.55-94.61,34.85l.08-6.25.23-25,202.66-114.21Z" />
            <path class="cls-17"
                d="M892.71,1180c.58,3.67-1.56,7.81-4.79,9.2a4.66,4.66,0,0,1-5.73-1.29v0a6.22,6.22,0,0,1-1.17-2.83c-.58-3.69,1.56-7.82,4.8-9.21a5,5,0,0,1,3.31-.3A5.15,5.15,0,0,1,892.71,1180Z" />
            <path class="cls-17"
                d="M1064.35,1079.33a12.89,12.89,0,0,1-5.59,10.49c-2.25,1.33-4.24,1-5.32-.6h0a5.5,5.5,0,0,1-.8-2.86,12.86,12.86,0,0,1,5.61-10.5,4.84,4.84,0,0,1,3.19-.78C1063.12,1075.33,1064.26,1076.86,1064.35,1079.33Z" />
            <path class="cls-18"
                d="M1069.46,1056.58c-1.52,1.41-1.63,2.66-3.17,4l-1.9,1.68c-1.28,1.12-2.55,2.23-3.83,3.32q-3.75,3.2-7.5,6.26c-44.51,36.32-120.37,76-149.4,87.88-7.86,3.21-14.49,5.65-19.54,7.41l-4,1.36c-4.41,1.47-11.89,2.16-11.89,2.16v-26.93l-1.37-92-1.37-53.41c14.91,5.4,62.51-9.1,103-32.84,19.6-11.5,68-39.51,80.31-49,9.59-7.38,15.55-14.13,15.67-20.2l.09,5.06,3.3,128.32,1,18.11Z" />
            <polygon class="cls-19"
                points="292.95 877.16 643.48 1079.3 643.48 1089.04 292.95 886.66 292.95 877.16" />
            <path class="cls-19"
                d="M106.29,769.52l109,62.85v9.46L89,768.88,27.76,717.21S20,628.85,20,616.91V478.66l3.1-3V628.41L31.76,711Z" />
            <polygon class="cls-19"
                points="843.45 1203.99 840.79 1202.96 721.14 1133.88 721.14 1124.08 842.68 1194.18 843.45 1203.99" />
            <polygon class="cls-20"
                points="837.07 1115.8 837.07 957.11 44.36 499.44 44.36 658.12 837.07 1115.8" />
            <polygon class="cls-20"
                points="524.23 1020.19 428.11 964.7 428.11 728.44 524.23 783.93 524.23 1020.19" />
            <path class="cls-21"
                d="M525.6,1022.56l-98.86-57.07V726.07l98.86,57.07Zm-96.12-58.65,93.38,53.91V784.73l-93.38-53.92Z" />
            <polygon class="cls-20"
                points="202.41 834.39 106.29 778.89 106.29 542.64 202.41 598.13 202.41 834.39" />
            <path class="cls-21"
                d="M203.78,836.76l-98.86-57.07V540.27l98.86,57.07ZM107.66,778.1,201,832V598.92L107.66,545Z" />
            <polygon class="cls-20"
                points="837.07 1200.81 740.96 1145.32 740.96 909.06 837.07 964.56 837.07 1200.81" />
            <path class="cls-21"
                d="M838.44,1203.18l-98.86-57.07V906.69l98.86,57.07Zm-96.11-58.65,93.37,53.91V965.35l-93.37-53.91Z" />
            <polygon class="cls-18"
                points="626.38 986.61 533.86 933.2 533.86 797.2 626.38 850.62 626.38 986.61" />
            <polygon class="cls-18"
                points="729.93 1046.4 637.41 992.98 637.41 856.99 729.93 910.4 729.93 1046.4" />
            <polygon class="cls-18"
                points="317.72 808.41 225.2 754.99 225.2 619 317.72 672.41 317.72 808.41" />
            <polygon class="cls-18"
                points="98.67 681.94 52.41 655.23 52.41 519.24 98.67 545.95 98.67 681.94" />
            <polygon class="cls-18"
                points="421.27 868.19 328.74 814.77 328.74 678.78 421.27 732.2 421.27 868.19" />
            <polygon class="cls-18"
                points="783.19 1093.78 745.29 1071.89 745.29 925.53 783.19 947.41 783.19 1093.78" />
            <polygon class="cls-18"
                points="783.19 1155.54 745.29 1133.66 745.29 1080.89 783.19 1102.78 783.19 1155.54" />
            <polygon class="cls-18"
                points="832.24 1122.1 794.34 1100.21 794.34 953.85 832.24 975.73 832.24 1122.1" />
            <polygon class="cls-18"
                points="832.24 1183.86 794.34 1161.98 794.34 1109.21 832.24 1131.1 832.24 1183.86" />
            <polygon class="cls-18"
                points="470.6 913.3 432.69 891.42 432.69 745.05 470.6 766.93 470.6 913.3" />
            <polygon class="cls-18"
                points="470.6 975.06 432.69 953.18 432.69 900.42 470.6 922.3 470.6 975.06" />
            <polygon class="cls-18"
                points="519.64 941.62 481.74 919.74 481.74 773.37 519.64 795.25 519.64 941.62" />
            <polygon class="cls-18"
                points="519.64 1003.38 481.74 981.5 481.74 928.74 519.64 950.62 519.64 1003.38" />
            <polygon class="cls-18"
                points="148.77 719.79 110.87 697.91 110.87 551.54 148.77 573.42 148.77 719.79" />
            <polygon class="cls-18"
                points="148.77 789.26 110.87 767.38 110.87 714.62 148.77 736.5 148.77 789.26" />
            <polygon class="cls-18"
                points="197.82 748.11 159.92 726.23 159.92 579.86 197.82 601.74 197.82 748.11" />
            <polygon class="cls-18"
                points="197.82 817.58 159.92 795.7 159.92 742.93 197.82 764.82 197.82 817.58" />
            <polygon class="cls-22"
                points="519.64 1012.8 432.69 962.6 432.69 967.34 519.64 1017.54 519.64 1012.8" />
            <polygon class="cls-22"
                points="832.49 1193.42 745.54 1143.22 745.54 1147.96 832.49 1198.16 832.49 1193.42" />
            <polygon class="cls-22"
                points="197.82 827 110.87 776.8 110.87 781.54 197.82 831.74 197.82 827" />
            <path class="cls-19"
                d="M638.41,1053.15c0,1.81-1.27,2.54-2.85,1.63a6.29,6.29,0,0,1-2.85-4.92c0-1.81,1.28-2.54,2.85-1.63A6.28,6.28,0,0,1,638.41,1053.15Z" />
            <path class="cls-23"
                d="M638.72,1051.71c0,1.81-1.27,2.54-2.85,1.63a6.28,6.28,0,0,1-2.85-4.92c0-1.81,1.27-2.54,2.85-1.63A6.27,6.27,0,0,1,638.72,1051.71Z" />
            <path class="cls-24"
                d="M638.1,1052c0,1.81-1.28,2.54-2.85,1.63a6.27,6.27,0,0,1-2.85-4.92c0-1.81,1.27-2.54,2.85-1.63A6.31,6.31,0,0,1,638.1,1052Z" />
            <path class="cls-25"
                d="M637.67,1051.73c0,1.54-1.08,2.16-2.42,1.38a5.32,5.32,0,0,1-2.42-4.17c0-1.53,1.08-2.15,2.42-1.38A5.32,5.32,0,0,1,637.67,1051.73Z" />
            <path class="cls-19"
                d="M567.35,1013.59c0,1.8-1.27,2.53-2.85,1.62a6.29,6.29,0,0,1-2.85-4.92c0-1.81,1.28-2.53,2.85-1.62A6.27,6.27,0,0,1,567.35,1013.59Z" />
            <path class="cls-23"
                d="M567.66,1012.14c0,1.81-1.27,2.54-2.85,1.63a6.27,6.27,0,0,1-2.85-4.92c0-1.81,1.27-2.54,2.85-1.63A6.28,6.28,0,0,1,567.66,1012.14Z" />
            <path class="cls-24"
                d="M567,1012.42c0,1.8-1.27,2.53-2.85,1.62a6.27,6.27,0,0,1-2.85-4.92c0-1.81,1.27-2.53,2.85-1.62A6.27,6.27,0,0,1,567,1012.42Z" />
            <path class="cls-25"
                d="M566.61,1012.17c0,1.53-1.08,2.15-2.42,1.38a5.32,5.32,0,0,1-2.42-4.18c0-1.53,1.08-2.15,2.42-1.38A5.32,5.32,0,0,1,566.61,1012.17Z" />
            <path class="cls-19"
                d="M394.5,906.61c0,1.81-1.28,2.54-2.85,1.63a6.28,6.28,0,0,1-2.86-4.92c0-1.81,1.28-2.54,2.86-1.63A6.29,6.29,0,0,1,394.5,906.61Z" />
            <path class="cls-23"
                d="M394.81,905.17c0,1.81-1.28,2.54-2.85,1.63a6.29,6.29,0,0,1-2.86-4.92c0-1.81,1.28-2.54,2.86-1.63A6.29,6.29,0,0,1,394.81,905.17Z" />
            <path class="cls-24"
                d="M394.19,905.44c0,1.81-1.28,2.54-2.85,1.63a6.28,6.28,0,0,1-2.86-4.92c0-1.81,1.28-2.54,2.86-1.63A6.29,6.29,0,0,1,394.19,905.44Z" />
            <path class="cls-25"
                d="M393.76,905.19c0,1.54-1.09,2.15-2.42,1.38a5.33,5.33,0,0,1-2.43-4.17c0-1.54,1.09-2.15,2.43-1.38A5.35,5.35,0,0,1,393.76,905.19Z" />
            <path class="cls-19"
                d="M359.56,885.89c0,1.81-1.27,2.54-2.85,1.63a6.27,6.27,0,0,1-2.85-4.92c0-1.81,1.27-2.54,2.85-1.63A6.27,6.27,0,0,1,359.56,885.89Z" />
            <path class="cls-23"
                d="M359.87,884.45c0,1.81-1.28,2.54-2.85,1.63a6.29,6.29,0,0,1-2.85-4.93c0-1.8,1.27-2.53,2.85-1.62A6.29,6.29,0,0,1,359.87,884.45Z" />
            <path class="cls-24"
                d="M359.25,884.72c0,1.81-1.28,2.54-2.85,1.63a6.28,6.28,0,0,1-2.86-4.92c0-1.81,1.28-2.54,2.86-1.63A6.29,6.29,0,0,1,359.25,884.72Z" />
            <path class="cls-25"
                d="M358.82,884.47c0,1.54-1.09,2.15-2.42,1.38a5.32,5.32,0,0,1-2.42-4.17c0-1.54,1.08-2.15,2.42-1.38A5.35,5.35,0,0,1,358.82,884.47Z" />
            <path class="cls-19"
                d="M70.49,722.16c0,1.81-1.27,2.53-2.85,1.63a6.29,6.29,0,0,1-2.85-4.93c0-1.8,1.27-2.53,2.85-1.62A6.27,6.27,0,0,1,70.49,722.16Z" />
            <path class="cls-23"
                d="M70.8,720.72c0,1.8-1.28,2.53-2.85,1.62a6.27,6.27,0,0,1-2.85-4.92c0-1.81,1.27-2.53,2.85-1.63A6.31,6.31,0,0,1,70.8,720.72Z" />
            <path class="cls-24"
                d="M70.18,721c0,1.81-1.28,2.53-2.85,1.63a6.3,6.3,0,0,1-2.86-4.93c0-1.8,1.28-2.53,2.86-1.62A6.29,6.29,0,0,1,70.18,721Z" />
            <path class="cls-25"
                d="M69.75,720.74c0,1.53-1.09,2.15-2.42,1.38a5.32,5.32,0,0,1-2.42-4.18c0-1.53,1.08-2.15,2.42-1.38A5.36,5.36,0,0,1,69.75,720.74Z" />
            <polygon class="cls-26"
                points="910.79 897.69 904.17 893.9 909.4 890.78 914.56 897.69 910.79 897.69" />
            <polygon class="cls-27"
                points="914.56 897.69 919.79 894.57 919.79 891.98 914.56 895.09 914.56 897.69" />
            <polygon class="cls-28"
                points="914.56 895.09 907.93 891.3 913.17 888.18 919.79 891.98 914.56 895.09" />
            <polygon class="cls-25"
                points="914.56 895.09 907.93 891.3 907.93 893.9 914.56 897.69 914.56 895.09" />
            <polygon class="cls-26"
                points="936.98 882.11 930.35 878.31 935.59 875.2 940.74 882.11 936.98 882.11" />
            <polygon class="cls-27"
                points="940.74 882.11 945.98 878.99 945.98 876.39 940.74 879.51 940.74 882.11" />
            <polygon class="cls-28"
                points="940.74 879.51 934.12 875.72 939.36 872.6 945.98 876.39 940.74 879.51" />
            <polygon class="cls-25"
                points="940.74 879.51 934.12 875.72 934.12 878.31 940.74 882.11 940.74 879.51" />
            <polygon class="cls-26"
                points="963.17 866.52 956.54 862.73 961.78 859.61 966.93 866.52 963.17 866.52" />
            <polygon class="cls-27"
                points="966.93 866.52 972.17 863.4 972.17 860.81 966.93 863.93 966.93 866.52" />
            <polygon class="cls-28"
                points="966.93 863.93 960.3 860.13 965.54 857.02 972.17 860.81 966.93 863.93" />
            <polygon class="cls-25"
                points="966.93 863.93 960.3 860.13 960.3 862.73 966.93 866.52 966.93 863.93" />
        </g>
    </g>
</svg>