<svg id="Capa_1" data-name="Capa 1" xmlns="http://www.w3.org/2000/svg"
    xmlns:xlink="http://www.w3.org/1999/xlink" viewBox="0 0 1080 1350">
    <defs>
        <style>
            .cls-1{fill:#1e1e1e;}.cls-14{fill:#c4c2c1;}.cls-2{fill:url(#linear-gradient);}.cls-3{fill:url(#linear-gradient-2);}.cls-4{fill:url(#linear-gradient-3);}.cls-5{fill:url(#linear-gradient-4);}.cls-6{fill:url(#linear-gradient-5);}.cls-7{fill:url(#linear-gradient-6);}.cls-8{fill:url(#linear-gradient-7);}.cls-9{fill:url(#linear-gradient-8);}.cls-10{fill:url(#linear-gradient-9);}.cls-11{fill:url(#linear-gradient-10);}.cls-12{fill:url(#linear-gradient-11);}.cls-13{fill:url(#linear-gradient-12);}.cls-120{fill:url(#linear-gradient-13);}.cls-15{fill:url(#linear-gradient-14);}.cls-16{fill:url(#linear-gradient-15);}.cls-17{fill:url(#linear-gradient-22);}.cls-18{fill:url(#linear-gradient-29);}.cls-19{fill:url(#linear-gradient-30);}.cls-20{fill:url(#linear-gradient-31);}.cls-21{fill:url(#linear-gradient-32);}.cls-22{fill:url(#linear-gradient-33);}.cls-23{fill:url(#linear-gradient-34);}.cls-24{fill:url(#linear-gradient-35);}.cls-25{fill:url(#linear-gradient-36);}.cls-26{fill:url(#linear-gradient-37);}.cls-27{fill:url(#linear-gradient-38);}.cls-28{fill:url(#linear-gradient-39);}.cls-29{fill:url(#linear-gradient-40);}.cls-30{fill:url(#linear-gradient-41);}.cls-31{fill:url(#linear-gradient-42);}.cls-32{fill:url(#linear-gradient-43);}.cls-33{fill:url(#linear-gradient-44);}.cls-34{fill:url(#linear-gradient-45);}.cls-35{fill:url(#linear-gradient-46);}.cls-36{fill:url(#linear-gradient-47);}.cls-37{fill:url(#linear-gradient-48);}.cls-38{fill:url(#linear-gradient-49);}.cls-39{fill:url(#linear-gradient-50);}.cls-40{fill:url(#linear-gradient-51);}.cls-41{fill:url(#linear-gradient-52);}.cls-42{fill:url(#linear-gradient-53);}.cls-43{fill:url(#linear-gradient-54);}.cls-44{fill:url(#linear-gradient-55);}.cls-45{fill:url(#linear-gradient-56);}.cls-46{fill:url(#linear-gradient-57);}.cls-47{fill:url(#linear-gradient-58);}.cls-48{fill:url(#linear-gradient-59);}.cls-49{fill:url(#linear-gradient-60);}.cls-50{fill:url(#linear-gradient-61);}.cls-51{fill:url(#linear-gradient-62);}.cls-52{fill:url(#linear-gradient-63);}.cls-53{fill:url(#linear-gradient-64);}.cls-54{fill:url(#linear-gradient-65);}.cls-55{fill:url(#linear-gradient-66);}.cls-56{fill:url(#linear-gradient-67);}.cls-57{fill:url(#linear-gradient-68);}.cls-58{fill:url(#linear-gradient-69);}.cls-59{fill:#8e8b9e;}.cls-60{fill:#84858e;}.cls-61{fill:#bcbadc;}.cls-62{fill:#131313;}.cls-63{fill:url(#linear-gradient-70);}.cls-64{fill:url(#linear-gradient-71);}.cls-65{fill:url(#linear-gradient-72);}.cls-66{fill:url(#linear-gradient-73);}.cls-67{fill:url(#linear-gradient-74);}.cls-68{fill:url(#linear-gradient-75);}.cls-69{fill:url(#linear-gradient-76);}.cls-70{fill:url(#linear-gradient-77);}.cls-71{fill:url(#linear-gradient-78);}.cls-72{fill:url(#linear-gradient-79);}.cls-73{fill:url(#linear-gradient-80);}.cls-74{fill:url(#linear-gradient-81);}.cls-75{fill:url(#linear-gradient-82);}.cls-76{fill:url(#linear-gradient-83);}.cls-77{fill:url(#linear-gradient-84);}.cls-78{fill:url(#linear-gradient-91);}.cls-79{fill:url(#linear-gradient-98);}.cls-80{fill:url(#linear-gradient-99);}.cls-81{fill:url(#linear-gradient-100);}.cls-82{fill:url(#linear-gradient-101);}.cls-83{fill:url(#linear-gradient-102);}.cls-84{fill:url(#linear-gradient-103);}.cls-85{fill:url(#linear-gradient-104);}.cls-86{fill:url(#linear-gradient-105);}.cls-87{fill:url(#linear-gradient-106);}.cls-88{fill:url(#linear-gradient-107);}.cls-89{fill:url(#linear-gradient-108);}.cls-90{fill:url(#linear-gradient-109);}.cls-91{fill:url(#linear-gradient-110);}.cls-92{fill:url(#linear-gradient-111);}.cls-93{fill:url(#linear-gradient-112);}.cls-94{fill:url(#linear-gradient-113);}.cls-95{fill:url(#linear-gradient-114);}.cls-96{fill:url(#linear-gradient-115);}.cls-97{fill:url(#linear-gradient-116);}.cls-98{fill:url(#linear-gradient-117);}.cls-99{fill:url(#linear-gradient-118);}.cls-100{fill:url(#linear-gradient-119);}.cls-101{fill:url(#linear-gradient-120);}.cls-102{fill:url(#linear-gradient-121);}.cls-103{fill:url(#linear-gradient-122);}.cls-104{fill:url(#linear-gradient-123);}.cls-105{fill:url(#linear-gradient-124);}.cls-106{fill:url(#linear-gradient-125);}.cls-107{fill:url(#linear-gradient-126);}.cls-108{fill:url(#linear-gradient-127);}.cls-109{fill:url(#linear-gradient-128);}.cls-110{fill:url(#linear-gradient-129);}.cls-111{fill:url(#linear-gradient-130);}.cls-112{fill:url(#linear-gradient-131);}.cls-113{fill:url(#linear-gradient-132);}.cls-114{fill:url(#linear-gradient-133);}.cls-115{fill:url(#linear-gradient-134);}.cls-116{fill:url(#linear-gradient-135);}.cls-117{fill:url(#linear-gradient-136);}.cls-118{fill:url(#linear-gradient-137);}.cls-119{fill:url(#linear-gradient-138);}.cls-121,.cls-122{fill:#353535;}.cls-121{opacity:0.29;}.cls-123{fill:#b1b1b1;}.cls-124{fill:#a4a4a4;}.cls-125{fill:#bebebe;}.cls-126{fill:#292929;}.cls-127{fill:#fff;}.cls-128{fill:#1d232a;}.cls-129{fill:#a5abaf;}.cls-130{fill:#383f48;}.cls-131{fill:#c3bfe2;}.cls-132{fill:#b4babe;}.cls-133{fill:url(#linear-gradient-139);}.cls-134{fill:url(#linear-gradient-140);}.cls-135{fill:#4a4a56;}.cls-136{fill:#636363;}</style>
        <linearGradient id="linear-gradient" x1="9263.74" y1="627.22" x2="9263.47" y2="626.75"
            gradientTransform="translate(-7001.96 370.33) scale(0.77 0.64)"
            gradientUnits="userSpaceOnUse">
            <stop offset="0" stop-color="#181818" />
            <stop offset="0.27" stop-color="#262626" />
            <stop offset="0.77" stop-color="#2e2e2e" />
        </linearGradient>
        <linearGradient id="linear-gradient-2" x1="9264.87" y1="626.7" x2="9264.62" y2="626.27"
            xlink:href="#linear-gradient" />
        <linearGradient id="linear-gradient-3" x1="9273.55" y1="627.64" x2="9271.71" y2="624.45"
            xlink:href="#linear-gradient" />
        <linearGradient id="linear-gradient-4" x1="9292.05" y1="646.97" x2="9280.78" y2="627.44"
            xlink:href="#linear-gradient" />
        <linearGradient id="linear-gradient-5" x1="9315.56" y1="654.48" x2="9306.9" y2="639.47"
            xlink:href="#linear-gradient" />
        <linearGradient id="linear-gradient-6" x1="9332.16" y1="729.31" x2="9296.88" y2="668.21"
            xlink:href="#linear-gradient" />
        <linearGradient id="linear-gradient-7" x1="9335.7" y1="677.46" x2="9332.73" y2="672.32"
            xlink:href="#linear-gradient" />
        <linearGradient id="linear-gradient-8" x1="9339.26" y1="683.5" x2="9335.75" y2="677.43"
            xlink:href="#linear-gradient" />
        <linearGradient id="linear-gradient-9" x1="9348.17" y1="702.54" x2="9344.67" y2="696.48"
            xlink:href="#linear-gradient" />
        <linearGradient id="linear-gradient-10" x1="9352.94" y1="714.99" x2="9346.36" y2="703.58"
            xlink:href="#linear-gradient" />
        <linearGradient id="linear-gradient-11" x1="9353.39" y1="771.24" x2="9352" y2="768.84"
            xlink:href="#linear-gradient" />
        <linearGradient id="linear-gradient-12" x1="9355.15" y1="765.18" x2="9353.72" y2="762.72"
            xlink:href="#linear-gradient" />
        <linearGradient id="linear-gradient-13" x1="9356.78" y1="760.11" x2="9354.18" y2="755.61"
            xlink:href="#linear-gradient" />
        <linearGradient id="linear-gradient-14" x1="9359.01" y1="752.36" x2="9348.86" y2="734.78"
            xlink:href="#linear-gradient" />
        <linearGradient id="linear-gradient-15" x1="8999.64" y1="775.89" x2="8904.32" y2="610.78"
            gradientTransform="translate(-6715.21 370.33) scale(0.77 0.64)"
            xlink:href="#linear-gradient" />
        <linearGradient id="linear-gradient-22" x1="9330.17" y1="730.46" x2="9294.89" y2="669.36"
            xlink:href="#linear-gradient" />
        <linearGradient id="linear-gradient-29" x1="9000.35" y1="774.55" x2="8905.72" y2="610.66"
            gradientTransform="translate(-6715.21 370.33) scale(0.77 0.64)"
            xlink:href="#linear-gradient" />
        <linearGradient id="linear-gradient-30" x1="9264.52" y1="626.93" x2="9265" y2="626.09"
            gradientTransform="translate(-7001.96 370.33) scale(0.77 0.64)"
            gradientUnits="userSpaceOnUse">
            <stop offset="0" stop-color="#141414" />
            <stop offset="0.44" stop-color="#1e1e1e" />
            <stop offset="0.78" stop-color="#202020" />
            <stop offset="0.98" stop-color="#292929" />
            <stop offset="1" stop-color="#2a2a2a" />
        </linearGradient>
        <linearGradient id="linear-gradient-31" x1="9271.84" y1="627.41" x2="9273.42" y2="624.69"
            xlink:href="#linear-gradient-30" />
        <linearGradient id="linear-gradient-32" x1="9266.1" y1="697.18" x2="9274.26" y2="683.04"
            xlink:href="#linear-gradient-30" />
        <linearGradient id="linear-gradient-33" x1="9282.29" y1="735.77" x2="9290.44" y2="721.65"
            xlink:href="#linear-gradient-30" />
        <linearGradient id="linear-gradient-34" x1="9282.32" y1="644.26" x2="9290.11" y2="630.77"
            xlink:href="#linear-gradient-30" />
        <linearGradient id="linear-gradient-35" x1="9309.41" y1="650.75" x2="9312.88" y2="644.75"
            xlink:href="#linear-gradient-30" />
        <linearGradient id="linear-gradient-36" x1="9333.58" y1="676.09" x2="9335.02" y2="673.6"
            xlink:href="#linear-gradient-30" />
        <linearGradient id="linear-gradient-37" x1="9336.59" y1="682.06" x2="9338.42" y2="678.88"
            xlink:href="#linear-gradient-30" />
        <linearGradient id="linear-gradient-38" x1="9243.02" y1="710.24" x2="9245.8" y2="705.43"
            xlink:href="#linear-gradient-30" />
        <linearGradient id="linear-gradient-39" x1="9256.87" y1="630.65" x2="9258.71" y2="627.46"
            xlink:href="#linear-gradient-30" />
        <linearGradient id="linear-gradient-40" x1="9263.2" y1="627.34" x2="9263.68" y2="626.52"
            xlink:href="#linear-gradient-30" />
        <linearGradient id="linear-gradient-41" x1="9304.29" y1="788.13" x2="9304.52" y2="787.72"
            xlink:href="#linear-gradient-30" />
        <linearGradient id="linear-gradient-42" x1="9296.36" y1="723.63" x2="9321.58" y2="679.95"
            xlink:href="#linear-gradient-30" />
        <linearGradient id="linear-gradient-43" x1="9345.3" y1="701.45" x2="9347.54" y2="697.57"
            xlink:href="#linear-gradient-30" />
        <linearGradient id="linear-gradient-44" x1="9347.52" y1="713.11" x2="9352.01" y2="705.33"
            xlink:href="#linear-gradient-30" />
        <linearGradient id="linear-gradient-45" x1="9351.65" y1="771.85" x2="9353.73" y2="768.23"
            xlink:href="#linear-gradient-30" />
        <linearGradient id="linear-gradient-46" x1="9353.48" y1="765.61" x2="9355.39" y2="762.29"
            xlink:href="#linear-gradient-30" />
        <linearGradient id="linear-gradient-47" x1="9353.97" y1="760.47" x2="9356.99" y2="755.25"
            xlink:href="#linear-gradient-30" />
        <linearGradient id="linear-gradient-48" x1="9349.1" y1="750.27" x2="9357.28" y2="736.1"
            xlink:href="#linear-gradient-30" />
        <linearGradient id="linear-gradient-49" x1="8903.51" y1="753.55" x2="8964.63" y2="647.7"
            gradientTransform="translate(-6715.21 370.33) scale(0.77 0.64)"
            xlink:href="#linear-gradient-30" />
        <linearGradient id="linear-gradient-50" x1="9264.52" y1="626.93" x2="9265" y2="626.09"
            gradientTransform="translate(-7001.96 370.33) scale(0.77 0.64)"
            gradientUnits="userSpaceOnUse">
            <stop offset="0" stop-color="#161616" />
            <stop offset="0.3" stop-color="#1a1a1a" />
            <stop offset="0.79" stop-color="#1e1e1e" />
            <stop offset="0.8" stop-color="#1e1e1e" />
        </linearGradient>
        <linearGradient id="linear-gradient-51" x1="9271.84" y1="627.41" x2="9273.42" y2="624.69"
            xlink:href="#linear-gradient-50" />
        <linearGradient id="linear-gradient-52" x1="9266.1" y1="697.18" x2="9274.26" y2="683.04"
            xlink:href="#linear-gradient-50" />
        <linearGradient id="linear-gradient-53" x1="9282.29" y1="735.77" x2="9290.44" y2="721.65"
            xlink:href="#linear-gradient-50" />
        <linearGradient id="linear-gradient-54" x1="9282.32" y1="644.26" x2="9290.11" y2="630.77"
            xlink:href="#linear-gradient-50" />
        <linearGradient id="linear-gradient-55" x1="9309.41" y1="650.75" x2="9312.88" y2="644.75"
            xlink:href="#linear-gradient-50" />
        <linearGradient id="linear-gradient-56" x1="9333.58" y1="676.09" x2="9335.02" y2="673.6"
            xlink:href="#linear-gradient-50" />
        <linearGradient id="linear-gradient-57" x1="9336.59" y1="682.06" x2="9338.42" y2="678.88"
            xlink:href="#linear-gradient-50" />
        <linearGradient id="linear-gradient-58" x1="9243.02" y1="710.24" x2="9245.8" y2="705.43"
            xlink:href="#linear-gradient-50" />
        <linearGradient id="linear-gradient-59" x1="9256.87" y1="630.65" x2="9258.71" y2="627.46"
            xlink:href="#linear-gradient-50" />
        <linearGradient id="linear-gradient-60" x1="9263.2" y1="627.34" x2="9263.68" y2="626.52"
            xlink:href="#linear-gradient-50" />
        <linearGradient id="linear-gradient-61" x1="9304.29" y1="788.13" x2="9304.52" y2="787.72"
            xlink:href="#linear-gradient-50" />
        <linearGradient id="linear-gradient-62" x1="9296.36" y1="723.63" x2="9321.58" y2="679.95"
            xlink:href="#linear-gradient-50" />
        <linearGradient id="linear-gradient-63" x1="9345.3" y1="701.45" x2="9347.54" y2="697.57"
            xlink:href="#linear-gradient-50" />
        <linearGradient id="linear-gradient-64" x1="9347.52" y1="713.11" x2="9352.01" y2="705.33"
            xlink:href="#linear-gradient-50" />
        <linearGradient id="linear-gradient-65" x1="9351.65" y1="771.85" x2="9353.73" y2="768.23"
            xlink:href="#linear-gradient-50" />
        <linearGradient id="linear-gradient-66" x1="9353.48" y1="765.61" x2="9355.39" y2="762.29"
            xlink:href="#linear-gradient-50" />
        <linearGradient id="linear-gradient-67" x1="9353.97" y1="760.47" x2="9356.99" y2="755.25"
            xlink:href="#linear-gradient-50" />
        <linearGradient id="linear-gradient-68" x1="9349.1" y1="750.27" x2="9357.28" y2="736.1"
            xlink:href="#linear-gradient-50" />
        <linearGradient id="linear-gradient-69" x1="8903.51" y1="753.55" x2="8964.63" y2="647.7"
            gradientTransform="translate(-6715.21 370.33) scale(0.77 0.64)"
            xlink:href="#linear-gradient-50" />
        <linearGradient id="linear-gradient-70" x1="9832.39" y1="1051.87" x2="9832.12" y2="1051.41"
            xlink:href="#linear-gradient" />
        <linearGradient id="linear-gradient-71" x1="9833.52" y1="1051.35" x2="9833.28" y2="1050.92"
            xlink:href="#linear-gradient" />
        <linearGradient id="linear-gradient-72" x1="9842.21" y1="1052.29" x2="9840.37" y2="1049.11"
            xlink:href="#linear-gradient" />
        <linearGradient id="linear-gradient-73" x1="9860.71" y1="1071.62" x2="9849.44" y2="1052.1"
            xlink:href="#linear-gradient" />
        <linearGradient id="linear-gradient-74" x1="9884.22" y1="1079.13" x2="9875.55" y2="1064.12"
            xlink:href="#linear-gradient" />
        <linearGradient id="linear-gradient-75" x1="9900.81" y1="1153.96" x2="9865.54" y2="1092.86"
            xlink:href="#linear-gradient" />
        <linearGradient id="linear-gradient-76" x1="9904.36" y1="1102.11" x2="9901.39" y2="1096.97"
            xlink:href="#linear-gradient" />
        <linearGradient id="linear-gradient-77" x1="9907.92" y1="1108.16" x2="9904.41" y2="1102.08"
            xlink:href="#linear-gradient" />
        <linearGradient id="linear-gradient-78" x1="9916.83" y1="1127.19" x2="9913.33" y2="1121.13"
            xlink:href="#linear-gradient" />
        <linearGradient id="linear-gradient-79" x1="9921.6" y1="1139.64" x2="9915.02" y2="1128.24"
            xlink:href="#linear-gradient" />
        <linearGradient id="linear-gradient-80" x1="9922.04" y1="1195.89" x2="9920.66" y2="1193.49"
            xlink:href="#linear-gradient" />
        <linearGradient id="linear-gradient-81" x1="9923.81" y1="1189.84" x2="9922.38" y2="1187.37"
            xlink:href="#linear-gradient" />
        <linearGradient id="linear-gradient-82" x1="9925.43" y1="1184.76" x2="9922.84" y2="1180.27"
            xlink:href="#linear-gradient" />
        <linearGradient id="linear-gradient-83" x1="9927.67" y1="1177.02" x2="9917.52" y2="1159.43"
            xlink:href="#linear-gradient" />
        <linearGradient id="linear-gradient-84" x1="9568.3" y1="1200.54" x2="9472.98" y2="1035.44"
            gradientTransform="translate(-6715.21 370.33) scale(0.77 0.64)"
            xlink:href="#linear-gradient" />
        <linearGradient id="linear-gradient-91" x1="9898.82" y1="1155.11" x2="9863.55" y2="1094.01"
            xlink:href="#linear-gradient" />
        <linearGradient id="linear-gradient-98" x1="9569" y1="1199.21" x2="9474.38" y2="1035.32"
            gradientTransform="translate(-6715.21 370.33) scale(0.77 0.64)"
            xlink:href="#linear-gradient" />
        <linearGradient id="linear-gradient-99" x1="9833.18" y1="1051.58" x2="9833.66" y2="1050.75"
            xlink:href="#linear-gradient-30" />
        <linearGradient id="linear-gradient-100" x1="9840.5" y1="1052.06" x2="9842.08" y2="1049.34"
            xlink:href="#linear-gradient-30" />
        <linearGradient id="linear-gradient-101" x1="9834.76" y1="1121.83" x2="9842.92" y2="1107.7"
            xlink:href="#linear-gradient-30" />
        <linearGradient id="linear-gradient-102" x1="9850.95" y1="1160.42" x2="9859.1" y2="1146.3"
            xlink:href="#linear-gradient-30" />
        <linearGradient id="linear-gradient-103" x1="9850.98" y1="1068.91" x2="9858.77" y2="1055.42"
            xlink:href="#linear-gradient-30" />
        <linearGradient id="linear-gradient-104" x1="9878.07" y1="1075.41" x2="9881.53" y2="1069.41"
            xlink:href="#linear-gradient-30" />
        <linearGradient id="linear-gradient-105" x1="9902.24" y1="1100.74" x2="9903.67" y2="1098.25"
            xlink:href="#linear-gradient-30" />
        <linearGradient id="linear-gradient-106" x1="9905.24" y1="1106.71" x2="9907.08" y2="1103.53"
            xlink:href="#linear-gradient-30" />
        <linearGradient id="linear-gradient-107" x1="9811.68" y1="1134.89" x2="9814.46" y2="1130.08"
            xlink:href="#linear-gradient-30" />
        <linearGradient id="linear-gradient-108" x1="9825.53" y1="1055.3" x2="9827.37" y2="1052.11"
            xlink:href="#linear-gradient-30" />
        <linearGradient id="linear-gradient-109" x1="9831.86" y1="1052" x2="9832.34" y2="1051.18"
            xlink:href="#linear-gradient-30" />
        <linearGradient id="linear-gradient-110" x1="9872.94" y1="1212.78" x2="9873.18" y2="1212.37"
            xlink:href="#linear-gradient-30" />
        <linearGradient id="linear-gradient-111" x1="9865.02" y1="1148.28" x2="9890.24" y2="1104.6"
            xlink:href="#linear-gradient-30" />
        <linearGradient id="linear-gradient-112" x1="9913.96" y1="1126.1" x2="9916.2" y2="1122.22"
            xlink:href="#linear-gradient-30" />
        <linearGradient id="linear-gradient-113" x1="9916.18" y1="1137.77" x2="9920.67" y2="1129.98"
            xlink:href="#linear-gradient-30" />
        <linearGradient id="linear-gradient-114" x1="9920.31" y1="1196.5" x2="9922.39" y2="1192.89"
            xlink:href="#linear-gradient-30" />
        <linearGradient id="linear-gradient-115" x1="9922.14" y1="1190.26" x2="9924.05" y2="1186.95"
            xlink:href="#linear-gradient-30" />
        <linearGradient id="linear-gradient-116" x1="9922.63" y1="1185.12" x2="9925.64" y2="1179.9"
            xlink:href="#linear-gradient-30" />
        <linearGradient id="linear-gradient-117" x1="9917.76" y1="1174.92" x2="9925.94" y2="1160.75"
            xlink:href="#linear-gradient-30" />
        <linearGradient id="linear-gradient-118" x1="9472.17" y1="1178.21" x2="9533.29" y2="1072.35"
            gradientTransform="translate(-6715.21 370.33) scale(0.77 0.64)"
            xlink:href="#linear-gradient-30" />
        <linearGradient id="linear-gradient-119" x1="9833.18" y1="1051.58" x2="9833.66" y2="1050.75"
            xlink:href="#linear-gradient-50" />
        <linearGradient id="linear-gradient-120" x1="9840.5" y1="1052.06" x2="9842.08" y2="1049.34"
            xlink:href="#linear-gradient-50" />
        <linearGradient id="linear-gradient-121" x1="9834.76" y1="1121.83" x2="9842.92" y2="1107.7"
            xlink:href="#linear-gradient-50" />
        <linearGradient id="linear-gradient-122" x1="9850.95" y1="1160.42" x2="9859.1" y2="1146.3"
            xlink:href="#linear-gradient-50" />
        <linearGradient id="linear-gradient-123" x1="9850.98" y1="1068.91" x2="9858.77" y2="1055.42"
            xlink:href="#linear-gradient-50" />
        <linearGradient id="linear-gradient-124" x1="9878.07" y1="1075.41" x2="9881.53" y2="1069.41"
            xlink:href="#linear-gradient-50" />
        <linearGradient id="linear-gradient-125" x1="9902.24" y1="1100.74" x2="9903.67" y2="1098.25"
            xlink:href="#linear-gradient-50" />
        <linearGradient id="linear-gradient-126" x1="9905.24" y1="1106.71" x2="9907.08" y2="1103.53"
            xlink:href="#linear-gradient-50" />
        <linearGradient id="linear-gradient-127" x1="9811.68" y1="1134.89" x2="9814.46" y2="1130.08"
            xlink:href="#linear-gradient-50" />
        <linearGradient id="linear-gradient-128" x1="9825.53" y1="1055.3" x2="9827.37" y2="1052.11"
            xlink:href="#linear-gradient-50" />
        <linearGradient id="linear-gradient-129" x1="9831.86" y1="1052" x2="9832.34" y2="1051.18"
            xlink:href="#linear-gradient-50" />
        <linearGradient id="linear-gradient-130" x1="9872.94" y1="1212.78" x2="9873.18" y2="1212.37"
            xlink:href="#linear-gradient-50" />
        <linearGradient id="linear-gradient-131" x1="9865.02" y1="1148.28" x2="9890.24" y2="1104.6"
            xlink:href="#linear-gradient-50" />
        <linearGradient id="linear-gradient-132" x1="9913.96" y1="1126.1" x2="9916.2" y2="1122.22"
            xlink:href="#linear-gradient-50" />
        <linearGradient id="linear-gradient-133" x1="9916.18" y1="1137.77" x2="9920.67" y2="1129.98"
            xlink:href="#linear-gradient-50" />
        <linearGradient id="linear-gradient-134" x1="9920.31" y1="1196.5" x2="9922.39" y2="1192.89"
            xlink:href="#linear-gradient-50" />
        <linearGradient id="linear-gradient-135" x1="9922.14" y1="1190.26" x2="9924.05" y2="1186.95"
            xlink:href="#linear-gradient-50" />
        <linearGradient id="linear-gradient-136" x1="9922.63" y1="1185.12" x2="9925.64" y2="1179.9"
            xlink:href="#linear-gradient-50" />
        <linearGradient id="linear-gradient-137" x1="9917.76" y1="1174.92" x2="9925.94" y2="1160.75"
            xlink:href="#linear-gradient-50" />
        <linearGradient id="linear-gradient-138" x1="9472.17" y1="1178.21" x2="9533.29" y2="1072.35"
            gradientTransform="translate(-6715.21 370.33) scale(0.77 0.64)"
            xlink:href="#linear-gradient-50" />
        <linearGradient id="linear-gradient-139" x1="13006.49" y1="898.31" x2="13015.56" y2="882.59"
            gradientTransform="translate(-12474.83)" xlink:href="#linear-gradient-50" />
        <linearGradient id="linear-gradient-140" x1="12983.69" y1="905.68" x2="13003.87" y2="870.72"
            gradientTransform="translate(-12474.83)" xlink:href="#linear-gradient-50" />
    </defs>
    <path class="cls-1"
        d="M255.56,839.12c-.06,19-7,32.33-18.24,38.61l-32.47,18.16c.72-.4,1.37-.91,2.05-1.37-11.48,7.73-28.06,7.45-46.54-2.82C125.84,872.51,97.93,826,98,787.78c.06-19,7.07-32.41,18.36-38.66l-.12,0L148.75,731c11.37-6.37,27.11-5.47,44.48,4.19C227.76,754.39,255.67,800.93,255.56,839.12ZM201,845c.08-24.69-18-54.81-40.3-67.21s-40.5-2.44-40.57,22.25,18,54.81,40.3,67.22S200.93,869.7,201,845Z" />
    <path class="cls-2"
        d="M132.19,773.72c-.11.2-.33.3-.43.49l-.22-.29A1.63,1.63,0,0,1,132.19,773.72Z" />
    <path class="cls-3" d="M133.37,773.52c-.43.1-.76.1-1.08.2l.11-.1Z" />
    <path class="cls-4"
        d="M141.52,773.42a31.64,31.64,0,0,0-5.26-.2,5.62,5.62,0,0,1,1.29-.1H138c.75,0,1.4.1,2,.1C140.45,773.32,141,773.32,141.52,773.42Z" />
    <path class="cls-5"
        d="M152.79,787.21c-2.47.6-6-2-7.94-5.65-1.61-3.18-1.39-6.35.54-7.44h.1a23.62,23.62,0,0,1,3.44.89c.86.3,1.72.59,2.68,1a11.58,11.58,0,0,1,2.47,3.38C156,783.15,155.37,786.62,152.79,787.21Z" />
    <path class="cls-6"
        d="M174,790.59a4.41,4.41,0,0,1-4.4-.2,11.72,11.72,0,0,1-5.58-7.84A91.5,91.5,0,0,1,174,790.59Z" />
    <path class="cls-7"
        d="M184.56,831.87c0,6.85-3.44,11-8.7,11.51l-.75-1.19c3-1.49,4.94-4.86,4.94-9.72,0-9.43-7.3-21-16.2-25.8-4.73-2.49-8.91-2.58-11.92-.8l-.75-1.19c3.11-4.17,8.91-5,15.56-1.39C176.62,808.65,184.56,821.35,184.56,831.87Z" />
    <path class="cls-8"
        d="M187.56,806.37a11.36,11.36,0,0,1-1.07-1.19,10.76,10.76,0,0,1-1.29-2.09C186.06,804.18,186.81,805.28,187.56,806.37Z" />
    <path class="cls-9"
        d="M190.14,810.34c-.86-1.39-1.72-2.68-2.58-4,.86,1.19,1.61,2.48,2.47,3.67A.35.35,0,0,1,190.14,810.34Z" />
    <path class="cls-10"
        d="M196.69,822.74c-.65-1.39-1.29-2.78-1.94-4.26.32.59.54,1.19.86,1.68C195.93,821.05,196.36,821.85,196.69,822.74Z" />
    <path class="cls-11"
        d="M199.9,831a11.94,11.94,0,0,1-3-5.06,6.57,6.57,0,0,1-.21-3.18c.53,1.09,1,2.19,1.39,3.28a22.27,22.27,0,0,1,1.07,2.88A15.27,15.27,0,0,1,199.9,831Z" />
    <path class="cls-12"
        d="M201.09,864.72a7.43,7.43,0,0,1-.54,1.59c-.22.3-.32.69-.54,1A20,20,0,0,0,201.09,864.72Z" />
    <path class="cls-13"
        d="M202.27,860.85l-.33,1.49a2.77,2.77,0,0,0-.42,1A18,18,0,0,0,202.27,860.85Z" />
    <path class="cls-120"
        d="M203,856.09c-.11.89-.22,1.78-.33,2.58a7.39,7.39,0,0,1-.32,1.58C202.59,858.87,202.8,857.58,203,856.09Z" />
    <path class="cls-15"
        d="M203.34,851.12a32.74,32.74,0,0,1-.32,4.67,8,8,0,0,1-2.47-1.59c-3-2.58-4.62-6.85-3.65-9.53.86-2.28,3.22-2.68,5.9-1.09v.1A59.51,59.51,0,0,1,203.34,851.12Z" />
    <path class="cls-16"
        d="M209.34,851.31c0,11.41-3.47,19.93-9.4,25.34a6.6,6.6,0,0,1-1.74,1.43l-.46-.59a8.68,8.68,0,0,0,1.28-1.43c4.75-5.41,7.4-13.34,7.4-23.23a51.84,51.84,0,0,0-.37-6.58c-2.92-26.94-23.47-57.42-48.12-70.68-9.41-5.07-18.36-6.93-25.85-5.83a18,18,0,0,0-2.83.59h-.09l-.27-.5c1-.34,2.1-.76,3.19-1.1,8.13-1.94,18-.51,28.86,5.32C187.7,788.32,209.34,822.86,209.34,851.31Z" />
    <path class="cls-3" d="M133.37,773.52c-.43.1-.76.1-1.08.2l.11-.1Z" />
    <path class="cls-4"
        d="M141.52,773.42a31.64,31.64,0,0,0-5.26-.2,5.62,5.62,0,0,1,1.29-.1H138c.75,0,1.4.1,2,.1C140.45,773.32,141,773.32,141.52,773.42Z" />
    <path class="cls-5"
        d="M152.79,787.21c-2.47.6-6-2-7.94-5.65-1.61-3.18-1.39-6.35.54-7.44h.1a23.62,23.62,0,0,1,3.44.89c.86.3,1.72.59,2.68,1a11.58,11.58,0,0,1,2.47,3.38C156,783.15,155.37,786.62,152.79,787.21Z" />
    <path class="cls-6"
        d="M174,790.59a4.41,4.41,0,0,1-4.4-.2,11.72,11.72,0,0,1-5.58-7.84A91.5,91.5,0,0,1,174,790.59Z" />
    <path class="cls-8"
        d="M187.56,806.37a11.36,11.36,0,0,1-1.07-1.19,10.76,10.76,0,0,1-1.29-2.09C186.06,804.18,186.81,805.28,187.56,806.37Z" />
    <path class="cls-9"
        d="M190.14,810.34c-.86-1.39-1.72-2.68-2.58-4,.86,1.19,1.61,2.48,2.47,3.67A.35.35,0,0,1,190.14,810.34Z" />
    <path class="cls-17"
        d="M184.56,831.87c0,6.85-3.44,11-8.7,11.51a10.83,10.83,0,0,1-4.29-.29,10.14,10.14,0,0,0,3.54-.9c3-1.49,4.94-4.86,4.94-9.72,0-9.43-7.3-21-16.2-25.8-4.73-2.49-8.91-2.58-11.92-.8a7.33,7.33,0,0,0-2.36,2.28,11.78,11.78,0,0,1,1.61-3.47c3.11-4.17,8.91-5,15.56-1.39C176.62,808.65,184.56,821.35,184.56,831.87Z" />
    <path class="cls-10"
        d="M196.69,822.74c-.65-1.39-1.29-2.78-1.94-4.26.32.59.54,1.19.86,1.68C195.93,821.05,196.36,821.85,196.69,822.74Z" />
    <path class="cls-11"
        d="M199.9,831a11.94,11.94,0,0,1-3-5.06,6.57,6.57,0,0,1-.21-3.18c.53,1.09,1,2.19,1.39,3.28a22.27,22.27,0,0,1,1.07,2.88A15.27,15.27,0,0,1,199.9,831Z" />
    <path class="cls-12"
        d="M201.09,864.72a7.43,7.43,0,0,1-.54,1.59c-.22.3-.32.69-.54,1A20,20,0,0,0,201.09,864.72Z" />
    <path class="cls-13"
        d="M202.27,860.85l-.33,1.49a2.77,2.77,0,0,0-.42,1A18,18,0,0,0,202.27,860.85Z" />
    <path class="cls-120"
        d="M203,856.09c-.11.89-.22,1.78-.33,2.58a7.39,7.39,0,0,1-.32,1.58C202.59,858.87,202.8,857.58,203,856.09Z" />
    <path class="cls-15"
        d="M203.34,851.12a32.74,32.74,0,0,1-.32,4.67,8,8,0,0,1-2.47-1.59c-3-2.58-4.62-6.85-3.65-9.53.86-2.28,3.22-2.68,5.9-1.09v.1A59.51,59.51,0,0,1,203.34,851.12Z" />
    <path class="cls-18"
        d="M209.34,851.31c0,11.41-3.47,19.93-9.4,25.34-.37-.25-.55-.34-.92-.59,4.75-5.41,7.4-13.34,7.4-23.23a51.84,51.84,0,0,0-.37-6.58c-2.92-26.94-23.47-57.42-48.12-70.68-9.41-5.07-18.36-6.93-25.85-5.83a3.78,3.78,0,0,1,0-1c8.13-1.94,18-.51,28.86,5.32C187.7,788.32,209.34,822.86,209.34,851.31Z" />
    <path class="cls-19" d="M133.37,773.52c-.43.1-.76.1-1.08.2l.11-.1Z" />
    <path class="cls-20"
        d="M141.52,773.42a31.64,31.64,0,0,0-5.26-.2,5.62,5.62,0,0,1,1.29-.1H138c.75,0,1.4.1,2,.1C140.45,773.32,141,773.32,141.52,773.42Z" />
    <path class="cls-21"
        d="M138.73,821.25c-3-.59-6.22-4.06-7.19-7.74s.75-6.25,3.76-5.65,6.11,4,7.08,7.74S141.74,821.85,138.73,821.25Z" />
    <path class="cls-22"
        d="M154.08,845.47c-1.83,1.68-5.37.39-7.94-3s-3.11-7.34-1.29-9.13,5.47-.4,7.94,3S155.9,843.68,154.08,845.47Z" />
    <path class="cls-23"
        d="M152.79,787.21c-2.47.6-6-2-7.94-5.65-1.61-3.18-1.39-6.35.54-7.44h.1a23.62,23.62,0,0,1,3.44.89c.86.3,1.72.59,2.68,1a11.58,11.58,0,0,1,2.47,3.38C156,783.15,155.37,786.62,152.79,787.21Z" />
    <path class="cls-24"
        d="M174,790.59a4.41,4.41,0,0,1-4.4-.2,11.72,11.72,0,0,1-5.58-7.84A91.5,91.5,0,0,1,174,790.59Z" />
    <path class="cls-25"
        d="M187.56,806.37a11.36,11.36,0,0,1-1.07-1.19,10.76,10.76,0,0,1-1.29-2.09C186.06,804.18,186.81,805.28,187.56,806.37Z" />
    <path class="cls-26"
        d="M190.14,810.34c-.86-1.39-1.72-2.68-2.58-4,.86,1.19,1.61,2.48,2.47,3.67A.35.35,0,0,1,190.14,810.34Z" />
    <path class="cls-27"
        d="M116.63,824.33c.42,1.39,1,2.78,1.5,4.17a48.43,48.43,0,0,1-1.93-5.06A3.47,3.47,0,0,1,116.63,824.33Z" />
    <path class="cls-28"
        d="M127.46,775.11a6.53,6.53,0,0,1,1.51-.5,10.34,10.34,0,0,0-2.36,1.09l-.11.1a1.26,1.26,0,0,0-.54.1c.32-.2.65-.3,1-.49a13.33,13.33,0,0,1,.43-.2C127.46,775.21,127.46,775.21,127.46,775.11Z" />
    <path class="cls-29" d="M131.54,773.92a1.63,1.63,0,0,1,.65-.2c-.11.2-.33.3-.43.49Z" />
    <path class="cls-30"
        d="M166,878.61a46.74,46.74,0,0,1-5.26-2.18c.86.4,1.83.79,2.69,1.09A25.67,25.67,0,0,0,166,878.61Z" />
    <path class="cls-31"
        d="M184.56,831.87c0,6.85-3.44,11-8.7,11.51a10.83,10.83,0,0,1-4.29-.29,10.14,10.14,0,0,0,3.54-.9c3-1.49,4.94-4.86,4.94-9.72,0-9.43-7.3-21-16.2-25.8-4.73-2.49-8.91-2.58-11.92-.8a7.33,7.33,0,0,0-2.36,2.28,11.78,11.78,0,0,1,1.61-3.47c3.11-4.17,8.91-5,15.56-1.39C176.62,808.65,184.56,821.35,184.56,831.87Z" />
    <path class="cls-32"
        d="M196.69,822.74c-.65-1.39-1.29-2.78-1.94-4.26.32.59.54,1.19.86,1.68C195.93,821.05,196.36,821.85,196.69,822.74Z" />
    <path class="cls-33"
        d="M199.9,831a11.94,11.94,0,0,1-3-5.06,6.57,6.57,0,0,1-.21-3.18c.53,1.09,1,2.19,1.39,3.28a22.27,22.27,0,0,1,1.07,2.88A15.27,15.27,0,0,1,199.9,831Z" />
    <path class="cls-34"
        d="M201.09,864.72a7.43,7.43,0,0,1-.54,1.59c-.22.3-.32.69-.54,1A20,20,0,0,0,201.09,864.72Z" />
    <path class="cls-35"
        d="M202.27,860.85l-.33,1.49a2.77,2.77,0,0,0-.42,1A18,18,0,0,0,202.27,860.85Z" />
    <path class="cls-36"
        d="M203,856.09c-.11.89-.22,1.78-.33,2.58a7.39,7.39,0,0,1-.32,1.58C202.59,858.87,202.8,857.58,203,856.09Z" />
    <path class="cls-37"
        d="M203.34,851.12a32.74,32.74,0,0,1-.32,4.67,8,8,0,0,1-2.47-1.59c-3-2.58-4.62-6.85-3.65-9.53.86-2.28,3.22-2.68,5.9-1.09v.1A59.51,59.51,0,0,1,203.34,851.12Z" />
    <path class="cls-38"
        d="M209.34,851.31c0,11.41-3.47,19.93-9.4,25.34a6.6,6.6,0,0,1-1.74,1.43l-.09.17a28.07,28.07,0,0,1-4.29,2.45,23.14,23.14,0,0,0,3.92-3.21,8.68,8.68,0,0,0,1.28-1.43c4.75-5.41,7.4-13.34,7.4-23.23a51.84,51.84,0,0,0-.37-6.58c-2.92-26.94-23.47-57.42-48.12-70.68-9.41-5.07-18.36-6.93-25.85-5.83a18,18,0,0,0-2.83.59h-.09a22.54,22.54,0,0,0-4,1.44,12.38,12.38,0,0,1,3.74-1.94c1-.34,2.1-.76,3.19-1.1,8.13-1.94,18-.51,28.86,5.32C187.7,788.32,209.34,822.86,209.34,851.31Z" />
    <path class="cls-39" d="M133.37,773.52c-.43.1-.76.1-1.08.2l.11-.1Z" />
    <path class="cls-40"
        d="M141.52,773.42a31.64,31.64,0,0,0-5.26-.2,5.62,5.62,0,0,1,1.29-.1H138c.75,0,1.4.1,2,.1C140.45,773.32,141,773.32,141.52,773.42Z" />
    <path class="cls-41"
        d="M138.73,821.25c-3-.59-6.22-4.06-7.19-7.74s.75-6.25,3.76-5.65,6.11,4,7.08,7.74S141.74,821.85,138.73,821.25Z" />
    <path class="cls-42"
        d="M154.08,845.47c-1.83,1.68-5.37.39-7.94-3s-3.11-7.34-1.29-9.13,5.47-.4,7.94,3S155.9,843.68,154.08,845.47Z" />
    <path class="cls-43"
        d="M152.79,787.21c-2.47.6-6-2-7.94-5.65-1.61-3.18-1.39-6.35.54-7.44h.1a23.62,23.62,0,0,1,3.44.89c.86.3,1.72.59,2.68,1a11.58,11.58,0,0,1,2.47,3.38C156,783.15,155.37,786.62,152.79,787.21Z" />
    <path class="cls-44"
        d="M174,790.59a4.41,4.41,0,0,1-4.4-.2,11.72,11.72,0,0,1-5.58-7.84A91.5,91.5,0,0,1,174,790.59Z" />
    <path class="cls-45"
        d="M187.56,806.37a11.36,11.36,0,0,1-1.07-1.19,10.76,10.76,0,0,1-1.29-2.09C186.06,804.18,186.81,805.28,187.56,806.37Z" />
    <path class="cls-46"
        d="M190.14,810.34c-.86-1.39-1.72-2.68-2.58-4,.86,1.19,1.61,2.48,2.47,3.67A.35.35,0,0,1,190.14,810.34Z" />
    <path class="cls-47"
        d="M116.63,824.33c.42,1.39,1,2.78,1.5,4.17a48.43,48.43,0,0,1-1.93-5.06A3.47,3.47,0,0,1,116.63,824.33Z" />
    <path class="cls-48"
        d="M127.46,775.11a6.53,6.53,0,0,1,1.51-.5,10.34,10.34,0,0,0-2.36,1.09l-.11.1a1.26,1.26,0,0,0-.54.1c.32-.2.65-.3,1-.49a13.33,13.33,0,0,1,.43-.2C127.46,775.21,127.46,775.21,127.46,775.11Z" />
    <path class="cls-49" d="M131.54,773.92a1.63,1.63,0,0,1,.65-.2c-.11.2-.33.3-.43.49Z" />
    <path class="cls-50"
        d="M166,878.61a46.74,46.74,0,0,1-5.26-2.18c.86.4,1.83.79,2.69,1.09A25.67,25.67,0,0,0,166,878.61Z" />
    <path class="cls-51"
        d="M184.56,831.87c0,6.85-3.44,11-8.7,11.51a10.83,10.83,0,0,1-4.29-.29,10.14,10.14,0,0,0,3.54-.9c3-1.49,4.94-4.86,4.94-9.72,0-9.43-7.3-21-16.2-25.8-4.73-2.49-8.91-2.58-11.92-.8a7.33,7.33,0,0,0-2.36,2.28,11.78,11.78,0,0,1,1.61-3.47c3.11-4.17,8.91-5,15.56-1.39C176.62,808.65,184.56,821.35,184.56,831.87Z" />
    <path class="cls-52"
        d="M196.69,822.74c-.65-1.39-1.29-2.78-1.94-4.26.32.59.54,1.19.86,1.68C195.93,821.05,196.36,821.85,196.69,822.74Z" />
    <path class="cls-53"
        d="M199.9,831a11.94,11.94,0,0,1-3-5.06,6.57,6.57,0,0,1-.21-3.18c.53,1.09,1,2.19,1.39,3.28a22.27,22.27,0,0,1,1.07,2.88A15.27,15.27,0,0,1,199.9,831Z" />
    <path class="cls-54"
        d="M201.09,864.72a7.43,7.43,0,0,1-.54,1.59c-.22.3-.32.69-.54,1A20,20,0,0,0,201.09,864.72Z" />
    <path class="cls-55"
        d="M202.27,860.85l-.33,1.49a2.77,2.77,0,0,0-.42,1A18,18,0,0,0,202.27,860.85Z" />
    <path class="cls-56"
        d="M203,856.09c-.11.89-.22,1.78-.33,2.58a7.39,7.39,0,0,1-.32,1.58C202.59,858.87,202.8,857.58,203,856.09Z" />
    <path class="cls-57"
        d="M203.34,851.12a32.74,32.74,0,0,1-.32,4.67,8,8,0,0,1-2.47-1.59c-3-2.58-4.62-6.85-3.65-9.53.86-2.28,3.22-2.68,5.9-1.09v.1A59.51,59.51,0,0,1,203.34,851.12Z" />
    <path class="cls-58"
        d="M209.34,851.31c0,11.41-3.47,19.93-9.4,25.34a6.6,6.6,0,0,1-1.74,1.43l-.09.17a28.07,28.07,0,0,1-4.29,2.45,23.14,23.14,0,0,0,3.92-3.21,8.68,8.68,0,0,0,1.28-1.43c4.75-5.41,7.4-13.34,7.4-23.23a51.84,51.84,0,0,0-.37-6.58c-2.92-26.94-23.47-57.42-48.12-70.68-9.41-5.07-18.36-6.93-25.85-5.83a18,18,0,0,0-2.83.59h-.09a22.54,22.54,0,0,0-4,1.44,12.38,12.38,0,0,1,3.74-1.94c1-.34,2.1-.76,3.19-1.1,8.13-1.94,18-.51,28.86,5.32C187.7,788.32,209.34,822.86,209.34,851.31Z" />
    <path class="cls-59"
        d="M138.73,821.25c-3-.59-6.22-4.06-7.19-7.74s.75-6.25,3.76-5.65,6.11,4,7.08,7.74S141.74,821.85,138.73,821.25Z" />
    <path class="cls-59"
        d="M154.08,845.47c-1.83,1.68-5.37.39-7.94-3s-3.11-7.34-1.29-9.13,5.47-.4,7.94,3S155.9,843.68,154.08,845.47Z" />
    <path class="cls-59"
        d="M152.79,787.21c-2.47.6-6-2-7.94-5.65-1.61-3.18-1.39-6.35.54-7.44h.1a23.62,23.62,0,0,1,3.44.89c.86.3,1.72.59,2.68,1a11.58,11.58,0,0,1,2.47,3.38C156,783.15,155.37,786.62,152.79,787.21Z" />
    <path class="cls-59"
        d="M174,790.59a4.41,4.41,0,0,1-4.4-.2,11.72,11.72,0,0,1-5.58-7.84A91.5,91.5,0,0,1,174,790.59Z" />
    <path class="cls-59"
        d="M187.56,806.37a11.36,11.36,0,0,1-1.07-1.19,10.76,10.76,0,0,1-1.29-2.09C186.06,804.18,186.81,805.28,187.56,806.37Z" />
    <path class="cls-59"
        d="M116.63,824.33c.42,1.39,1,2.78,1.5,4.17a48.43,48.43,0,0,1-1.93-5.06A3.47,3.47,0,0,1,116.63,824.33Z" />
    <path class="cls-59" d="M131.54,773.92a1.63,1.63,0,0,1,.65-.2c-.11.2-.33.3-.43.49Z" />
    <path class="cls-59"
        d="M166,878.61a46.74,46.74,0,0,1-5.26-2.18c.86.4,1.83.79,2.69,1.09A25.67,25.67,0,0,0,166,878.61Z" />
    <path class="cls-59"
        d="M184.56,831.87c0,6.85-3.44,11-8.7,11.51a10.83,10.83,0,0,1-4.29-.29,10.14,10.14,0,0,0,3.54-.9c3-1.49,4.94-4.86,4.94-9.72,0-9.43-7.3-21-16.2-25.8-4.73-2.49-8.91-2.58-11.92-.8a7.33,7.33,0,0,0-2.36,2.28,11.78,11.78,0,0,1,1.61-3.47c3.11-4.17,8.91-5,15.56-1.39C176.62,808.65,184.56,821.35,184.56,831.87Z" />
    <path class="cls-59"
        d="M199.9,831a11.94,11.94,0,0,1-3-5.06,6.57,6.57,0,0,1-.21-3.18c.53,1.09,1,2.19,1.39,3.28a22.27,22.27,0,0,1,1.07,2.88A15.27,15.27,0,0,1,199.9,831Z" />
    <path class="cls-59"
        d="M203.34,851.12a32.74,32.74,0,0,1-.32,4.67,8,8,0,0,1-2.47-1.59c-3-2.58-4.62-6.85-3.65-9.53.86-2.28,3.22-2.68,5.9-1.09v.1A59.51,59.51,0,0,1,203.34,851.12Z" />
    <path class="cls-59"
        d="M163.42,877.52c-.86-.3-1.83-.69-2.69-1.09a46.74,46.74,0,0,0,5.26,2.18A25.67,25.67,0,0,1,163.42,877.52ZM126.5,775.8l.11-.1.32-.29c-.32.19-.65.29-1,.49A1.26,1.26,0,0,1,126.5,775.8Zm34.44-1.75c-10.86-5.83-20.73-7.26-28.86-5.32-1.09.34-2.19.76-3.19,1.1a12.38,12.38,0,0,0-3.74,1.94,22.54,22.54,0,0,1,4-1.44h.09a18,18,0,0,1,2.83-.59c7.49-1.1,16.44.76,25.85,5.83,24.65,13.26,45.2,43.74,48.12,70.68a51.84,51.84,0,0,1,.37,6.58c0,9.89-2.65,17.82-7.4,23.23a8.68,8.68,0,0,1-1.28,1.43,23.14,23.14,0,0,1-3.92,3.21,28.07,28.07,0,0,0,4.29-2.45l.09-.17a6.6,6.6,0,0,0,1.74-1.43c5.93-5.41,9.4-13.93,9.4-25.34C209.34,822.86,187.7,788.32,160.94,774.05Z" />
    <path class="cls-60"
        d="M138.73,821.25c-3-.59-6.22-4.06-7.19-7.74s.75-6.25,3.76-5.65,6.11,4,7.08,7.74S141.74,821.85,138.73,821.25Z" />
    <path class="cls-60"
        d="M154.08,845.47c-1.83,1.68-5.37.39-7.94-3s-3.11-7.34-1.29-9.13,5.47-.4,7.94,3S155.9,843.68,154.08,845.47Z" />
    <path class="cls-60"
        d="M152.79,787.21c-2.47.6-6-2-7.94-5.65-1.61-3.18-1.39-6.35.54-7.44h.1a23.62,23.62,0,0,1,3.44.89c.86.3,1.72.59,2.68,1a11.58,11.58,0,0,1,2.47,3.38C156,783.15,155.37,786.62,152.79,787.21Z" />
    <path class="cls-60"
        d="M174,790.59a4.41,4.41,0,0,1-4.4-.2,11.72,11.72,0,0,1-5.58-7.84A91.5,91.5,0,0,1,174,790.59Z" />
    <path class="cls-60"
        d="M187.56,806.37a11.36,11.36,0,0,1-1.07-1.19,10.76,10.76,0,0,1-1.29-2.09C186.06,804.18,186.81,805.28,187.56,806.37Z" />
    <path class="cls-60"
        d="M184.56,831.87c0,6.85-3.44,11-8.7,11.51a10.83,10.83,0,0,1-4.29-.29,10.14,10.14,0,0,0,3.54-.9c3-1.49,4.94-4.86,4.94-9.72,0-9.43-7.3-21-16.2-25.8-4.73-2.49-8.91-2.58-11.92-.8a7.33,7.33,0,0,0-2.36,2.28,11.78,11.78,0,0,1,1.61-3.47c3.11-4.17,8.91-5,15.56-1.39C176.62,808.65,184.56,821.35,184.56,831.87Z" />
    <path class="cls-60"
        d="M199.9,831a11.94,11.94,0,0,1-3-5.06,6.57,6.57,0,0,1-.21-3.18c.53,1.09,1,2.19,1.39,3.28a22.27,22.27,0,0,1,1.07,2.88A15.27,15.27,0,0,1,199.9,831Z" />
    <path class="cls-60"
        d="M203.34,851.12a32.74,32.74,0,0,1-.32,4.67,8,8,0,0,1-2.47-1.59c-3-2.58-4.62-6.85-3.65-9.53.86-2.28,3.22-2.68,5.9-1.09v.1A59.51,59.51,0,0,1,203.34,851.12Z" />
    <path class="cls-61"
        d="M116.63,824.33a3.47,3.47,0,0,0-.43-.89,48.43,48.43,0,0,0,1.93,5.06C117.59,827.11,117.05,825.72,116.63,824.33Zm46.79,53.19c-.86-.3-1.83-.69-2.69-1.09a46.74,46.74,0,0,0,5.26,2.18A25.67,25.67,0,0,1,163.42,877.52Z" />
    <path class="cls-61"
        d="M206.05,846.25c-2.92-26.94-23.47-57.42-48.12-70.68-9.41-5.07-18.36-6.93-25.85-5.83a18,18,0,0,0-2.83.59h-.09a22.54,22.54,0,0,0-4,1.44c-9.59,4.22-15.62,14.44-15.62,29.3,0,28.46,21.73,63,48.4,77.35,14.24,7.52,27,7.85,35.89,2.28a23.14,23.14,0,0,0,3.92-3.21,8.68,8.68,0,0,0,1.28-1.43c4.75-5.41,7.4-13.34,7.4-23.23A51.84,51.84,0,0,0,206.05,846.25Zm-3,9.54v.34a6.08,6.08,0,0,0-.18,1.27,7,7,0,0,0-.19,1.26,8.21,8.21,0,0,1-.27,1.61,1.35,1.35,0,0,1-.09.59,9.07,9.07,0,0,0-.36,1.52c-.37.84-.55,1.69-.83,2.36s-.36,1.1-.55,1.61c-.09.08-.27.25-.27.42l-.27.5a11.1,11.1,0,0,1-.73,1.52c-.37.6-.64,1.1-1,1.69,0,.09-.09.09-.09.17a20.32,20.32,0,0,0-1.28,1.78,18.53,18.53,0,0,0-1.28,1.43s0,.09-.18.09V874h-.09c-.64.68-1.19,1.1-1.83,1.69A5.44,5.44,0,0,1,192,876.9c-.27.09-.37.25-.55.34a.08.08,0,0,0-.09.08h-.18a3.87,3.87,0,0,1-1.1.68c-.18.08-.36.25-.45.25s-.1.09-.28.09a5.67,5.67,0,0,1-1.46.67,10.18,10.18,0,0,1-2.28.76,24.63,24.63,0,0,1-3,.76,8.27,8.27,0,0,1-1.64.17,23,23,0,0,1-4.84,0,6.47,6.47,0,0,1-1.19-.08,30.56,30.56,0,0,1-3.74-.59c-1.74-.43-3.47-.85-5.21-1.44-.36-.17-.82-.34-1.27-.51a13,13,0,0,1-2.56-1.09c-.55-.17-.91-.43-1.37-.59a28.75,28.75,0,0,1-2.83-1.36,18.52,18.52,0,0,0-2.28-1.26c-.1-.09-.19-.26-.28-.34a40.5,40.5,0,0,1-4.29-2.7,3.48,3.48,0,0,0-.73-.43c-.91-.75-1.74-1.43-2.74-2.11a74.89,74.89,0,0,1-5.66-5c-1-.84-1.92-1.69-2.93-2.7-.27-.25-.63-.68-.91-.93-1.19-1.35-2.37-2.62-3.56-4a.8.8,0,0,0-.37-.42c-.09-.09-.09-.09-.09-.17a4.71,4.71,0,0,1-.82-1,9.8,9.8,0,0,1-.91-1.1l-1.55-2.11c-1.19-1.61-2.47-3.3-3.56-5a26.38,26.38,0,0,1-1.92-3.13,44.3,44.3,0,0,1-2.65-4.56,83.3,83.3,0,0,1-4.11-8.53c-.18-.42-.37-.84-.46-1.1-.27-.84-.64-1.6-.91-2.44a16,16,0,0,1-1-2.62,3.35,3.35,0,0,0-.36-1c-.18-.85-.46-1.78-.73-2.71,0-.08-.09-.25-.09-.33-.55-1.95-.82-3.64-1.19-5.41-.27-1.35-.55-2.87-.73-4.31s-.37-2.95-.37-4.39v-.67a12.88,12.88,0,0,1-.09-1.86c0-.93.09-2,.09-3,0-.59.19-1.18.19-1.77a1.06,1.06,0,0,1,.09-.42,5.58,5.58,0,0,1,.09-1.18v-.09c0-.17.09-.42.09-.59a1.35,1.35,0,0,1,.09-.59,17.28,17.28,0,0,1,.46-2.11c0-.09.09-.25.09-.34v-.17c0-.08.09-.17.09-.25a.79.79,0,0,1,.28-.68,3.4,3.4,0,0,1,.27-1v-.09c0-.25,0-.33.09-.42a21.38,21.38,0,0,1,.82-2,3.84,3.84,0,0,1,.37-1,.46.46,0,0,1,.27-.42c.18-.51.55-1,.73-1.52a10,10,0,0,0,.64-1.1c.19-.25.46-.67.64-.93a7.8,7.8,0,0,1,1.37-1.85,9.41,9.41,0,0,1,1-1.1c.18-.17.27-.34.54-.59l.64-.59c.37-.34.83-.76,1.28-1.1l.18-.17a2.11,2.11,0,0,1,.46-.25h.09s.09,0,.09-.17a6.16,6.16,0,0,1,.83-.34.59.59,0,0,0,.18-.25,1.87,1.87,0,0,1,.46-.26c.08-.08.18-.25.27-.25a.08.08,0,0,0,.09-.08.09.09,0,0,1,.09-.09c.18,0,.27-.08.37-.08a10.25,10.25,0,0,1,1-.51.33.33,0,0,0,.18-.08.28.28,0,0,0,.18-.09c.1,0,.1,0,.1-.08a.33.33,0,0,1,.27-.09,7.09,7.09,0,0,1,1.28-.42,1,1,0,0,1,.55-.25l1.92-.51h.09a1.84,1.84,0,0,1,.64-.17h.09l.09-.08h.46a3.18,3.18,0,0,1,.54-.09,8.93,8.93,0,0,1,1.56-.25,6.05,6.05,0,0,1,1.36-.09,6.47,6.47,0,0,1,1.28-.08H138c.73,0,1.37.08,2,.08a11.62,11.62,0,0,1,1.46.26c.37,0,.55.08.91.08a8.07,8.07,0,0,1,1.28.17,8.31,8.31,0,0,1,1.37.34,2.44,2.44,0,0,0,.37.08h.09a25,25,0,0,1,3.38.85c1.28.42,2.74,1,4.2,1.6a12.65,12.65,0,0,0,1.64.68,35.36,35.36,0,0,1,3.2,1.6c1.1.59,2,1.1,3.1,1.78a17.91,17.91,0,0,1,3,1.94,84.8,84.8,0,0,1,9.95,8,72.27,72.27,0,0,1,5.84,5.91c.92,1,1.83,2.11,2.74,3.21s1.65,2.2,2.47,3.21c.18.08.18.08.18.17.83,1.1,1.56,2.19,2.38,3.29.45.59.82,1.27,1.28,1.94a11.86,11.86,0,0,0,1.18,1.69.5.5,0,0,1,.09.34c.83,1.27,1.56,2.62,2.38,4a2.49,2.49,0,0,1,.36.68c.64,1.1,1.28,2.28,1.83,3.38.37.59.55,1.18.91,1.68a9.08,9.08,0,0,0,.46,1.36l.55,1.26c.55,1.1,1,2.11,1.46,3.21a28.54,28.54,0,0,1,1,3,19.11,19.11,0,0,1,.83,2v.26c.36.93.63,2,.91,3,.09.42.27.76.36,1.18v.34a1.7,1.7,0,0,1,.19.67,2.56,2.56,0,0,1,.18.68v.08c.27,1.1.55,2.2.73,3.3s.36,2.11.46,3v.17a52.32,52.32,0,0,1,.54,7.43A38.11,38.11,0,0,1,203,855.79Z" />
    <path class="cls-59"
        d="M195.4,874.05c-.65.69-1.18,1.09-1.83,1.69a10.86,10.86,0,0,1-1.61,1.19c-.21.1-.32.2-.53.29a.1.1,0,0,0-.11.1h-.11a7.31,7.31,0,0,1-1.18.7.84.84,0,0,1-.43.2c-.11,0-.11.1-.21.1a7.37,7.37,0,0,1-1.5.69,19,19,0,0,1-2.26.79,25.86,25.86,0,0,1-3,.7,9,9,0,0,1-1.72.2,19.49,19.49,0,0,1-4.83,0,5.16,5.16,0,0,1-1.18-.1,24.5,24.5,0,0,1-3.76-.6,47.42,47.42,0,0,1-5.15-1.39,25.67,25.67,0,0,1-2.57-1.09c-.86-.3-1.83-.69-2.69-1.09s-1.82-.89-2.79-1.39c-.75-.4-1.5-.89-2.25-1.29l-.32-.3a46.53,46.53,0,0,1-4.29-2.68,3.61,3.61,0,0,0-.76-.49c-.86-.7-1.71-1.39-2.68-2.09a64.16,64.16,0,0,1-5.69-5c-1-.89-1.93-1.69-2.9-2.68-.32-.3-.64-.69-1-1-1.18-1.29-2.36-2.58-3.54-4-.11-.1-.22-.3-.32-.4s-.11-.1-.11-.19a3.93,3.93,0,0,1-.86-1,7,7,0,0,1-.86-1.09l-1.61-2.08c-1.18-1.59-2.47-3.28-3.54-5a33.75,33.75,0,0,1-1.93-3.17c-1-1.49-1.83-3-2.69-4.57a88.63,88.63,0,0,1-4.07-8.53,6.08,6.08,0,0,1-.43-1.09c-.54-1.39-1.08-2.78-1.5-4.17a3.47,3.47,0,0,0-.43-.89c-.11-.4-.22-.7-.33-1-.21-.89-.53-1.78-.75-2.67,0-.1-.11-.3-.11-.4-.53-1.89-.85-3.57-1.18-5.36-.32-1.39-.53-2.88-.75-4.37s-.32-2.87-.32-4.36v-.7a9.68,9.68,0,0,1-.11-1.78c0-1,.11-2.09.11-3,0-.6.11-1.19.11-1.79a.7.7,0,0,1,.11-.4,4.83,4.83,0,0,1,.1-1.19v-.1c0-.19.11-.39.11-.59a1.17,1.17,0,0,1,.11-.6,14,14,0,0,1,.43-2.08c0-.1.1-.3.1-.4v-.1c0-.1.11-.19.11-.29a1.35,1.35,0,0,1,.22-.7,3.47,3.47,0,0,1,.32-1v-.1c0-.2,0-.3.1-.4a10.85,10.85,0,0,1,.76-2,3,3,0,0,1,.43-1.09.71.71,0,0,1,.21-.4c.22-.5.54-1,.75-1.49s.43-.69.65-1.09.42-.7.64-1a8.52,8.52,0,0,1,1.39-1.79,4.53,4.53,0,0,1,1-1.09c.22-.2.32-.4.54-.6l.64-.59a11.32,11.32,0,0,1,1.29-1.09l.21-.2a1.59,1.59,0,0,1,.43-.3h.11s.11,0,.11-.1a4.63,4.63,0,0,1,.75-.4l.21-.19c.11-.1.32-.2.43-.3s.22-.2.32-.2a.1.1,0,0,0,.11-.1.1.1,0,0,1,.11-.1c.11,0,.21-.1.32-.1a1.26,1.26,0,0,1,.54-.1l.11-.1a10.34,10.34,0,0,1,2.36-1.09c.21-.1.32-.1.53-.2a14,14,0,0,1,1.93-.49h.11l.22.29c-4.73,5.07-7.41,12.61-7.41,22.33,0,26.6,20.28,58.85,45.29,72.25C179.19,873.85,188.1,875.54,195.4,874.05Z" />
    <path class="cls-60"
        d="M200.55,854.2c-3-2.58-4.62-6.85-3.65-9.53.86-2.28,3.22-2.68,5.9-1.09-.11-1-.32-2-.53-3.07s-.43-2.19-.65-3.28v-.1a2.18,2.18,0,0,0-.21-.69,2.37,2.37,0,0,0-.22-.7v-.3c-.1-.39-.21-.79-.32-1.19-.32-1-.54-2.08-1-3.07V831a11.94,11.94,0,0,1-3-5.06,6.57,6.57,0,0,1-.21-3.18c-.65-1.39-1.29-2.78-1.94-4.26-.53-1.1-1.18-2.29-1.82-3.38a2.46,2.46,0,0,0-.43-.69c-.75-1.39-1.5-2.78-2.36-4.07s-1.72-2.68-2.58-4a11.36,11.36,0,0,1-1.07-1.19,10.76,10.76,0,0,1-1.29-2.09c0-.1,0-.1-.11-.2-.85-1-1.6-2.08-2.46-3.17s-1.83-2.18-2.79-3.18a79.42,79.42,0,0,0-5.8-5.95,4.41,4.41,0,0,1-4.4-.2,11.72,11.72,0,0,1-5.58-7.84,30.34,30.34,0,0,0-3-1.88c-1.08-.7-2-1.2-3.12-1.79a31.09,31.09,0,0,0-3.22-1.59c-1.07-.5-2.14-.89-3.11-1.29a11.58,11.58,0,0,1,2.47,3.38c1.93,3.77,1.29,7.24-1.29,7.83s-6-2-7.94-5.65c-1.61-3.18-1.39-6.35.54-7.44-.11,0-.22-.1-.33-.1l-1.39-.3a5.77,5.77,0,0,0-1.29-.2c-.32,0-.54-.1-.86-.1a31.64,31.64,0,0,0-5.26-.2,6.06,6.06,0,0,0-1.39.1,6.72,6.72,0,0,0-1.5.2c-.43.1-.76.1-1.08.2h-.1c-.11.2-.33.3-.43.49-4.73,5.07-7.41,12.61-7.41,22.33,0,26.6,20.28,58.85,45.29,72.25,9.55,5.06,18.46,6.75,25.76,5.26h.1V874a.1.1,0,0,0,.11-.1c.43-.5.86-.89,1.29-1.39l1.29-1.79c0-.09.11-.09.11-.19.32-.6.64-1.1,1-1.69a9.45,9.45,0,0,0,.75-1.49,20,20,0,0,0,1.08-2.58,5.66,5.66,0,0,0,.43-1.39,18,18,0,0,0,.75-2.48,1.27,1.27,0,0,0,.1-.6c.22-1.38.43-2.67.65-4.16v-.3A8,8,0,0,1,200.55,854.2Zm-61.82-33c-3-.59-6.22-4.06-7.19-7.74s.75-6.25,3.76-5.65,6.11,4,7.08,7.74S141.74,821.85,138.73,821.25Zm3.76-24.41c-.86,2-2.79,2.48-4.94,1.49a9.73,9.73,0,0,1-2.25-1.49c-3-2.58-4.72-7-3.76-9.63a2.93,2.93,0,0,1,2.58-1.88,6.39,6.39,0,0,1,4.72,1.88C141.74,789.89,143.46,794.16,142.49,796.84Zm11.59,48.63c-1.83,1.68-5.37.39-7.94-3s-3.11-7.34-1.29-9.13,5.47-.4,7.94,3S155.9,843.68,154.08,845.47Zm15.56,17.76c-3.11-1.69-5.69-5.75-5.69-9.13,0-2.88,1.83-4.27,4.29-3.47a5.12,5.12,0,0,1,1.4.49,12.07,12.07,0,0,1,5.26,6.46,11.88,11.88,0,0,1,.43,2.58C175.33,863.53,172.75,864.92,169.64,863.23ZM178.22,847c-3.21.49-7.18-.2-11.48-2.48a38.52,38.52,0,0,1-9.23-7.15c-.1-.1-.21-.2-.21-.3a44.09,44.09,0,0,1-9.12-14.59c-.11-.09-.11-.09-.11-.19a30.25,30.25,0,0,1-2.26-11.12,15.61,15.61,0,0,1,3.12-10c3.65-4.27,10.3-5,17.81-1,11.59,6.15,20.93,21,20.93,33.34C187.67,841.2,183.91,846,178.22,847Zm14.92,20.74a4.9,4.9,0,0,1-1.71,0c-2.15-.5-4.83-2.78-6.23-5.66a7.82,7.82,0,0,1-.86-5.56,3.09,3.09,0,0,1,2.15-2.18c2.58-.59,6.12,1.89,7.94,5.56S195.72,867.1,193.14,867.7Z" />
    <path class="cls-62"
        d="M166.74,800.12c-7.51-4-14.16-3.28-17.81,1a15.61,15.61,0,0,0-3.12,10,30.25,30.25,0,0,0,2.26,11.12c0,.1,0,.1.11.19A44.09,44.09,0,0,0,157.3,837c0,.1.11.2.21.3a38.52,38.52,0,0,0,9.23,7.15c4.3,2.28,8.27,3,11.48,2.48,5.69-1,9.45-5.76,9.45-13.5C187.67,821.15,178.33,806.27,166.74,800.12Zm9.12,43.26a10.83,10.83,0,0,1-4.29-.29,15.17,15.17,0,0,1-7.72-2.09,30.64,30.64,0,0,1-9-7.74c-.11-.2-.32-.3-.32-.49a68.49,68.49,0,0,1-4.08-6.46,26.89,26.89,0,0,1-2.79-11.11,12.69,12.69,0,0,1,1.93-7.05,11.78,11.78,0,0,1,1.61-3.47c3.11-4.17,8.91-5,15.56-1.39,9.88,5.36,17.82,18.06,17.82,28.58C184.56,838.72,181.12,842.89,175.86,843.38Z" />
    <path class="cls-62"
        d="M184.56,831.87c0,6.85-3.44,11-8.7,11.51a10.83,10.83,0,0,1-4.29-.29,10.14,10.14,0,0,0,3.54-.9c3-1.49,4.94-4.86,4.94-9.72,0-9.43-7.3-21-16.2-25.8-4.73-2.49-8.91-2.58-11.92-.8a7.33,7.33,0,0,0-2.36,2.28,11.78,11.78,0,0,1,1.61-3.47c3.11-4.17,8.91-5,15.56-1.39C176.62,808.65,184.56,821.35,184.56,831.87Z" />
    <path class="cls-59"
        d="M184.56,831.87c0,6.85-3.44,11-8.7,11.51a10.83,10.83,0,0,1-4.29-.29,10.14,10.14,0,0,0,3.54-.9c3-1.49,4.94-4.86,4.94-9.72,0-9.43-7.3-21-16.2-25.8-4.73-2.49-8.91-2.58-11.92-.8a7.33,7.33,0,0,0-2.36,2.28,11.78,11.78,0,0,1,1.61-3.47c3.11-4.17,8.91-5,15.56-1.39C176.62,808.65,184.56,821.35,184.56,831.87Z" />
    <path class="cls-61"
        d="M180.05,832.47c0,4.86-1.93,8.23-4.94,9.72a10.14,10.14,0,0,1-3.54.9,15.17,15.17,0,0,1-7.72-2.09,30.64,30.64,0,0,1-9-7.74c-.11-.2-.32-.3-.32-.49a68.49,68.49,0,0,1-4.08-6.46,26.89,26.89,0,0,1-2.79-11.11,12.69,12.69,0,0,1,1.93-7.05,7.33,7.33,0,0,1,2.36-2.28c3-1.78,7.19-1.69,11.92.8C172.75,811.43,180.05,823,180.05,832.47Z" />
    <path class="cls-62"
        d="M174,790.59a4.41,4.41,0,0,1-4.4-.2,11.72,11.72,0,0,1-5.58-7.84A91.5,91.5,0,0,1,174,790.59Z" />
    <path class="cls-62"
        d="M187.56,806.37a11.36,11.36,0,0,1-1.07-1.19,10.76,10.76,0,0,1-1.29-2.09C186.06,804.18,186.81,805.28,187.56,806.37Z" />
    <path class="cls-62"
        d="M199.9,831a11.94,11.94,0,0,1-3-5.06,6.57,6.57,0,0,1-.21-3.18c.53,1.09,1,2.19,1.39,3.28a22.27,22.27,0,0,1,1.07,2.88A15.27,15.27,0,0,1,199.9,831Z" />
    <path class="cls-62"
        d="M203.34,851.12a32.74,32.74,0,0,1-.32,4.67,8,8,0,0,1-2.47-1.59c-3-2.58-4.62-6.85-3.65-9.53.86-2.28,3.22-2.68,5.9-1.09v.1A59.51,59.51,0,0,1,203.34,851.12Z" />
    <path class="cls-62"
        d="M193.14,867.7a4.9,4.9,0,0,1-1.71,0c-2.15-.5-4.83-2.78-6.23-5.66a7.82,7.82,0,0,1-.86-5.56,3.09,3.09,0,0,1,2.15-2.18c2.58-.59,6.12,1.89,7.94,5.56S195.72,867.1,193.14,867.7Z" />
    <path class="cls-62"
        d="M175.33,860.16c0,3.37-2.58,4.76-5.69,3.07S164,857.48,164,854.1c0-2.88,1.83-4.27,4.29-3.47a5.12,5.12,0,0,1,1.4.49,12.07,12.07,0,0,1,5.26,6.46A11.88,11.88,0,0,1,175.33,860.16Z" />
    <path class="cls-62"
        d="M154.08,845.47c-1.83,1.68-5.37.39-7.94-3s-3.11-7.34-1.29-9.13,5.47-.4,7.94,3S155.9,843.68,154.08,845.47Z" />
    <path class="cls-62"
        d="M138.73,821.25c-3-.59-6.22-4.06-7.19-7.74s.75-6.25,3.76-5.65,6.11,4,7.08,7.74S141.74,821.85,138.73,821.25Z" />
    <path class="cls-62"
        d="M142.49,796.84c-.86,2-2.79,2.48-4.94,1.49a9.73,9.73,0,0,1-2.25-1.49c-3-2.58-4.72-7-3.76-9.63a2.93,2.93,0,0,1,2.58-1.88,6.39,6.39,0,0,1,4.72,1.88C141.74,789.89,143.46,794.16,142.49,796.84Z" />
    <path class="cls-62"
        d="M152.79,787.21c-2.47.6-6-2-7.94-5.65-1.61-3.18-1.39-6.35.54-7.44h.1a23.62,23.62,0,0,1,3.44.89c.86.3,1.72.59,2.68,1a11.58,11.58,0,0,1,2.47,3.38C156,783.15,155.37,786.62,152.79,787.21Z" />
    <path class="cls-1"
        d="M693.48,1112.48c-.06,19-7,32.32-18.24,38.6l-32.47,18.17c.72-.4,1.37-.92,2.06-1.38-11.49,7.74-28.07,7.46-46.54-2.81-34.53-19.2-62.44-65.73-62.32-103.93,0-19,7.06-32.4,18.35-38.66l-.11,0,32.46-18.16c11.37-6.36,27.11-5.47,44.49,4.19C665.69,1027.74,693.59,1074.28,693.48,1112.48Zm-54.55,5.88c.07-24.69-18-54.8-40.31-67.21s-40.49-2.44-40.57,22.26,18,54.8,40.31,67.21S638.86,1143.06,638.93,1118.36Z" />
    <path class="cls-63"
        d="M570.11,1047.07c-.11.2-.32.3-.43.5l-.21-.3A1.59,1.59,0,0,1,570.11,1047.07Z" />
    <path class="cls-64" d="M571.29,1046.87c-.43.1-.75.1-1.07.2l.1-.1Z" />
    <path class="cls-65"
        d="M579.45,1046.77a32.78,32.78,0,0,0-5.26-.19,5.62,5.62,0,0,1,1.29-.1h.42c.76,0,1.4.1,2,.1C578.37,1046.68,578.91,1046.68,579.45,1046.77Z" />
    <path class="cls-66"
        d="M590.71,1060.57c-2.46.59-6-2-7.94-5.66-1.61-3.17-1.39-6.35.54-7.44h.11a26.78,26.78,0,0,1,3.43.89c.86.3,1.72.6,2.68,1a11.85,11.85,0,0,1,2.47,3.38C593.94,1056.5,593.29,1060,590.71,1060.57Z" />
    <path class="cls-67"
        d="M612,1063.94a4.36,4.36,0,0,1-4.4-.2,11.7,11.7,0,0,1-5.58-7.84A92.94,92.94,0,0,1,612,1063.94Z" />
    <path class="cls-68"
        d="M622.48,1105.23c0,6.84-3.43,11-8.69,11.51l-.75-1.19c3-1.49,4.93-4.87,4.93-9.73,0-9.43-7.29-21-16.2-25.8-4.72-2.48-8.91-2.58-11.91-.79l-.76-1.19c3.12-4.17,8.91-5,15.57-1.39C614.54,1082,622.48,1094.71,622.48,1105.23Z" />
    <path class="cls-69"
        d="M625.49,1079.72a9.77,9.77,0,0,1-1.08-1.19,11.14,11.14,0,0,1-1.28-2.08C624,1077.54,624.73,1078.63,625.49,1079.72Z" />
    <path class="cls-70"
        d="M628.06,1083.69c-.86-1.39-1.71-2.68-2.57-4,.86,1.19,1.61,2.48,2.46,3.67A.35.35,0,0,1,628.06,1083.69Z" />
    <path class="cls-71"
        d="M634.61,1096.1c-.64-1.39-1.29-2.78-1.93-4.27.32.59.53,1.19.86,1.69C633.86,1094.41,634.29,1095.2,634.61,1096.1Z" />
    <path class="cls-72"
        d="M637.83,1104.33a11.8,11.8,0,0,1-3-5.06,6.66,6.66,0,0,1-.21-3.17c.53,1.09,1,2.18,1.39,3.27a22.86,22.86,0,0,1,1.08,2.88A17.34,17.34,0,0,1,637.83,1104.33Z" />
    <path class="cls-73"
        d="M639,1138.07a6.76,6.76,0,0,1-.54,1.59c-.21.3-.32.7-.54,1A18.14,18.14,0,0,0,639,1138.07Z" />
    <path class="cls-74"
        d="M640.19,1134.2c-.11.5-.21,1-.32,1.49a2.83,2.83,0,0,0-.43,1A16.82,16.82,0,0,0,640.19,1134.2Z" />
    <path class="cls-75"
        d="M640.94,1129.44c-.11.89-.21,1.79-.32,2.58a9,9,0,0,1-.32,1.59C640.51,1132.22,640.73,1130.93,640.94,1129.44Z" />
    <path class="cls-76"
        d="M641.26,1124.48a32.6,32.6,0,0,1-.32,4.66,7.92,7.92,0,0,1-2.47-1.58c-3-2.59-4.61-6.85-3.65-9.53.86-2.28,3.22-2.68,5.91-1.09v.1A59.47,59.47,0,0,1,641.26,1124.48Z" />
    <path class="cls-77"
        d="M647.26,1124.67c0,11.4-3.46,19.93-9.4,25.33a7,7,0,0,1-1.73,1.44l-.46-.59a9.2,9.2,0,0,0,1.28-1.44c4.74-5.4,7.39-13.34,7.39-23.22a53.91,53.91,0,0,0-.36-6.59c-2.92-26.94-23.47-57.42-48.13-70.68-9.4-5.06-18.35-6.92-25.84-5.82a15.66,15.66,0,0,0-2.83.59h-.09l-.28-.51c1-.34,2.1-.76,3.2-1.1,8.13-1.94,18-.5,28.86,5.32C625.62,1061.67,647.26,1096.21,647.26,1124.67Z" />
    <path class="cls-64" d="M571.29,1046.87c-.43.1-.75.1-1.07.2l.1-.1Z" />
    <path class="cls-65"
        d="M579.45,1046.77a32.78,32.78,0,0,0-5.26-.19,5.62,5.62,0,0,1,1.29-.1h.42c.76,0,1.4.1,2,.1C578.37,1046.68,578.91,1046.68,579.45,1046.77Z" />
    <path class="cls-66"
        d="M590.71,1060.57c-2.46.59-6-2-7.94-5.66-1.61-3.17-1.39-6.35.54-7.44h.11a26.78,26.78,0,0,1,3.43.89c.86.3,1.72.6,2.68,1a11.85,11.85,0,0,1,2.47,3.38C593.94,1056.5,593.29,1060,590.71,1060.57Z" />
    <path class="cls-67"
        d="M612,1063.94a4.36,4.36,0,0,1-4.4-.2,11.7,11.7,0,0,1-5.58-7.84A92.94,92.94,0,0,1,612,1063.94Z" />
    <path class="cls-69"
        d="M625.49,1079.72a9.77,9.77,0,0,1-1.08-1.19,11.14,11.14,0,0,1-1.28-2.08C624,1077.54,624.73,1078.63,625.49,1079.72Z" />
    <path class="cls-70"
        d="M628.06,1083.69c-.86-1.39-1.71-2.68-2.57-4,.86,1.19,1.61,2.48,2.46,3.67A.35.35,0,0,1,628.06,1083.69Z" />
    <path class="cls-78"
        d="M622.48,1105.23c0,6.84-3.43,11-8.69,11.51a10.65,10.65,0,0,1-4.29-.3,10.48,10.48,0,0,0,3.54-.89c3-1.49,4.93-4.87,4.93-9.73,0-9.43-7.29-21-16.2-25.8-4.72-2.48-8.91-2.58-11.91-.79a7.16,7.16,0,0,0-2.37,2.28,12,12,0,0,1,1.61-3.47c3.12-4.17,8.91-5,15.57-1.39C614.54,1082,622.48,1094.71,622.48,1105.23Z" />
    <path class="cls-71"
        d="M634.61,1096.1c-.64-1.39-1.29-2.78-1.93-4.27.32.59.53,1.19.86,1.69C633.86,1094.41,634.29,1095.2,634.61,1096.1Z" />
    <path class="cls-72"
        d="M637.83,1104.33a11.8,11.8,0,0,1-3-5.06,6.66,6.66,0,0,1-.21-3.17c.53,1.09,1,2.18,1.39,3.27a22.86,22.86,0,0,1,1.08,2.88A17.34,17.34,0,0,1,637.83,1104.33Z" />
    <path class="cls-73"
        d="M639,1138.07a6.76,6.76,0,0,1-.54,1.59c-.21.3-.32.7-.54,1A18.14,18.14,0,0,0,639,1138.07Z" />
    <path class="cls-74"
        d="M640.19,1134.2c-.11.5-.21,1-.32,1.49a2.83,2.83,0,0,0-.43,1A16.82,16.82,0,0,0,640.19,1134.2Z" />
    <path class="cls-75"
        d="M640.94,1129.44c-.11.89-.21,1.79-.32,2.58a9,9,0,0,1-.32,1.59C640.51,1132.22,640.73,1130.93,640.94,1129.44Z" />
    <path class="cls-76"
        d="M641.26,1124.48a32.6,32.6,0,0,1-.32,4.66,7.92,7.92,0,0,1-2.47-1.58c-3-2.59-4.61-6.85-3.65-9.53.86-2.28,3.22-2.68,5.91-1.09v.1A59.47,59.47,0,0,1,641.26,1124.48Z" />
    <path class="cls-79"
        d="M647.26,1124.67c0,11.4-3.46,19.93-9.4,25.33-.37-.25-.55-.34-.91-.59,4.74-5.4,7.39-13.34,7.39-23.22a53.91,53.91,0,0,0-.36-6.59c-2.92-26.94-23.47-57.42-48.13-70.68-9.4-5.06-18.35-6.92-25.84-5.82a3.86,3.86,0,0,1,0-1c8.13-1.94,18-.5,28.86,5.32C625.62,1061.67,647.26,1096.21,647.26,1124.67Z" />
    <path class="cls-80" d="M571.29,1046.87c-.43.1-.75.1-1.07.2l.1-.1Z" />
    <path class="cls-81"
        d="M579.45,1046.77a32.78,32.78,0,0,0-5.26-.19,5.62,5.62,0,0,1,1.29-.1h.42c.76,0,1.4.1,2,.1C578.37,1046.68,578.91,1046.68,579.45,1046.77Z" />
    <path class="cls-82"
        d="M576.66,1094.61c-3-.6-6.23-4.07-7.19-7.74s.75-6.25,3.75-5.66,6.12,4,7.09,7.74S579.66,1095.2,576.66,1094.61Z" />
    <path class="cls-83"
        d="M592,1118.82c-1.82,1.69-5.36.4-7.94-3s-3.11-7.35-1.29-9.13,5.48-.4,7.94,3S593.83,1117,592,1118.82Z" />
    <path class="cls-84"
        d="M590.71,1060.57c-2.46.59-6-2-7.94-5.66-1.61-3.17-1.39-6.35.54-7.44h.11a26.78,26.78,0,0,1,3.43.89c.86.3,1.72.6,2.68,1a11.85,11.85,0,0,1,2.47,3.38C593.94,1056.5,593.29,1060,590.71,1060.57Z" />
    <path class="cls-85"
        d="M612,1063.94a4.36,4.36,0,0,1-4.4-.2,11.7,11.7,0,0,1-5.58-7.84A92.94,92.94,0,0,1,612,1063.94Z" />
    <path class="cls-86"
        d="M625.49,1079.72a9.77,9.77,0,0,1-1.08-1.19,11.14,11.14,0,0,1-1.28-2.08C624,1077.54,624.73,1078.63,625.49,1079.72Z" />
    <path class="cls-87"
        d="M628.06,1083.69c-.86-1.39-1.71-2.68-2.57-4,.86,1.19,1.61,2.48,2.46,3.67A.35.35,0,0,1,628.06,1083.69Z" />
    <path class="cls-88"
        d="M554.55,1097.68c.43,1.39,1,2.78,1.5,4.17a46.78,46.78,0,0,1-1.93-5.06A3.81,3.81,0,0,1,554.55,1097.68Z" />
    <path class="cls-89"
        d="M565.39,1048.46a6,6,0,0,1,1.5-.49,9.56,9.56,0,0,0-2.36,1.09l-.11.1a1.26,1.26,0,0,0-.54.1c.33-.2.65-.3,1-.5a13.33,13.33,0,0,0,.43-.2C565.39,1048.56,565.39,1048.56,565.39,1048.46Z" />
    <path class="cls-90" d="M569.47,1047.27a1.59,1.59,0,0,1,.64-.2c-.11.2-.32.3-.43.5Z" />
    <path class="cls-91"
        d="M603.92,1152a45.38,45.38,0,0,1-5.26-2.19c.86.4,1.82.8,2.68,1.1S603.06,1151.67,603.92,1152Z" />
    <path class="cls-92"
        d="M622.48,1105.23c0,6.84-3.43,11-8.69,11.51a10.65,10.65,0,0,1-4.29-.3,10.48,10.48,0,0,0,3.54-.89c3-1.49,4.93-4.87,4.93-9.73,0-9.43-7.29-21-16.2-25.8-4.72-2.48-8.91-2.58-11.91-.79a7.16,7.16,0,0,0-2.37,2.28,12,12,0,0,1,1.61-3.47c3.12-4.17,8.91-5,15.57-1.39C614.54,1082,622.48,1094.71,622.48,1105.23Z" />
    <path class="cls-93"
        d="M634.61,1096.1c-.64-1.39-1.29-2.78-1.93-4.27.32.59.53,1.19.86,1.69C633.86,1094.41,634.29,1095.2,634.61,1096.1Z" />
    <path class="cls-94"
        d="M637.83,1104.33a11.8,11.8,0,0,1-3-5.06,6.66,6.66,0,0,1-.21-3.17c.53,1.09,1,2.18,1.39,3.27a22.86,22.86,0,0,1,1.08,2.88A17.34,17.34,0,0,1,637.83,1104.33Z" />
    <path class="cls-95"
        d="M639,1138.07a6.76,6.76,0,0,1-.54,1.59c-.21.3-.32.7-.54,1A18.14,18.14,0,0,0,639,1138.07Z" />
    <path class="cls-96"
        d="M640.19,1134.2c-.11.5-.21,1-.32,1.49a2.83,2.83,0,0,0-.43,1A16.82,16.82,0,0,0,640.19,1134.2Z" />
    <path class="cls-97"
        d="M640.94,1129.44c-.11.89-.21,1.79-.32,2.58a9,9,0,0,1-.32,1.59C640.51,1132.22,640.73,1130.93,640.94,1129.44Z" />
    <path class="cls-98"
        d="M641.26,1124.48a32.6,32.6,0,0,1-.32,4.66,7.92,7.92,0,0,1-2.47-1.58c-3-2.59-4.61-6.85-3.65-9.53.86-2.28,3.22-2.68,5.91-1.09v.1A59.47,59.47,0,0,1,641.26,1124.48Z" />
    <path class="cls-99"
        d="M647.26,1124.67c0,11.4-3.46,19.93-9.4,25.33a7,7,0,0,1-1.73,1.44l-.1.17a29.85,29.85,0,0,1-4.29,2.45,23.62,23.62,0,0,0,3.93-3.21,9.2,9.2,0,0,0,1.28-1.44c4.74-5.4,7.39-13.34,7.39-23.22a53.91,53.91,0,0,0-.36-6.59c-2.92-26.94-23.47-57.42-48.13-70.68-9.4-5.06-18.35-6.92-25.84-5.82a15.66,15.66,0,0,0-2.83.59h-.09a22.11,22.11,0,0,0-4,1.43,12.85,12.85,0,0,1,3.74-1.94c1-.34,2.1-.76,3.2-1.1,8.13-1.94,18-.5,28.86,5.32C625.62,1061.67,647.26,1096.21,647.26,1124.67Z" />
    <path class="cls-100" d="M571.29,1046.87c-.43.1-.75.1-1.07.2l.1-.1Z" />
    <path class="cls-101"
        d="M579.45,1046.77a32.78,32.78,0,0,0-5.26-.19,5.62,5.62,0,0,1,1.29-.1h.42c.76,0,1.4.1,2,.1C578.37,1046.68,578.91,1046.68,579.45,1046.77Z" />
    <path class="cls-102"
        d="M576.66,1094.61c-3-.6-6.23-4.07-7.19-7.74s.75-6.25,3.75-5.66,6.12,4,7.09,7.74S579.66,1095.2,576.66,1094.61Z" />
    <path class="cls-103"
        d="M592,1118.82c-1.82,1.69-5.36.4-7.94-3s-3.11-7.35-1.29-9.13,5.48-.4,7.94,3S593.83,1117,592,1118.82Z" />
    <path class="cls-104"
        d="M590.71,1060.57c-2.46.59-6-2-7.94-5.66-1.61-3.17-1.39-6.35.54-7.44h.11a26.78,26.78,0,0,1,3.43.89c.86.3,1.72.6,2.68,1a11.85,11.85,0,0,1,2.47,3.38C593.94,1056.5,593.29,1060,590.71,1060.57Z" />
    <path class="cls-105"
        d="M612,1063.94a4.36,4.36,0,0,1-4.4-.2,11.7,11.7,0,0,1-5.58-7.84A92.94,92.94,0,0,1,612,1063.94Z" />
    <path class="cls-106"
        d="M625.49,1079.72a9.77,9.77,0,0,1-1.08-1.19,11.14,11.14,0,0,1-1.28-2.08C624,1077.54,624.73,1078.63,625.49,1079.72Z" />
    <path class="cls-107"
        d="M628.06,1083.69c-.86-1.39-1.71-2.68-2.57-4,.86,1.19,1.61,2.48,2.46,3.67A.35.35,0,0,1,628.06,1083.69Z" />
    <path class="cls-108"
        d="M554.55,1097.68c.43,1.39,1,2.78,1.5,4.17a46.78,46.78,0,0,1-1.93-5.06A3.81,3.81,0,0,1,554.55,1097.68Z" />
    <path class="cls-109"
        d="M565.39,1048.46a6,6,0,0,1,1.5-.49,9.56,9.56,0,0,0-2.36,1.09l-.11.1a1.26,1.26,0,0,0-.54.1c.33-.2.65-.3,1-.5a13.33,13.33,0,0,0,.43-.2C565.39,1048.56,565.39,1048.56,565.39,1048.46Z" />
    <path class="cls-110" d="M569.47,1047.27a1.59,1.59,0,0,1,.64-.2c-.11.2-.32.3-.43.5Z" />
    <path class="cls-111"
        d="M603.92,1152a45.38,45.38,0,0,1-5.26-2.19c.86.4,1.82.8,2.68,1.1S603.06,1151.67,603.92,1152Z" />
    <path class="cls-112"
        d="M622.48,1105.23c0,6.84-3.43,11-8.69,11.51a10.65,10.65,0,0,1-4.29-.3,10.48,10.48,0,0,0,3.54-.89c3-1.49,4.93-4.87,4.93-9.73,0-9.43-7.29-21-16.2-25.8-4.72-2.48-8.91-2.58-11.91-.79a7.16,7.16,0,0,0-2.37,2.28,12,12,0,0,1,1.61-3.47c3.12-4.17,8.91-5,15.57-1.39C614.54,1082,622.48,1094.71,622.48,1105.23Z" />
    <path class="cls-113"
        d="M634.61,1096.1c-.64-1.39-1.29-2.78-1.93-4.27.32.59.53,1.19.86,1.69C633.86,1094.41,634.29,1095.2,634.61,1096.1Z" />
    <path class="cls-114"
        d="M637.83,1104.33a11.8,11.8,0,0,1-3-5.06,6.66,6.66,0,0,1-.21-3.17c.53,1.09,1,2.18,1.39,3.27a22.86,22.86,0,0,1,1.08,2.88A17.34,17.34,0,0,1,637.83,1104.33Z" />
    <path class="cls-115"
        d="M639,1138.07a6.76,6.76,0,0,1-.54,1.59c-.21.3-.32.7-.54,1A18.14,18.14,0,0,0,639,1138.07Z" />
    <path class="cls-116"
        d="M640.19,1134.2c-.11.5-.21,1-.32,1.49a2.83,2.83,0,0,0-.43,1A16.82,16.82,0,0,0,640.19,1134.2Z" />
    <path class="cls-117"
        d="M640.94,1129.44c-.11.89-.21,1.79-.32,2.58a9,9,0,0,1-.32,1.59C640.51,1132.22,640.73,1130.93,640.94,1129.44Z" />
    <path class="cls-118"
        d="M641.26,1124.48a32.6,32.6,0,0,1-.32,4.66,7.92,7.92,0,0,1-2.47-1.58c-3-2.59-4.61-6.85-3.65-9.53.86-2.28,3.22-2.68,5.91-1.09v.1A59.47,59.47,0,0,1,641.26,1124.48Z" />
    <path class="cls-119"
        d="M647.26,1124.67c0,11.4-3.46,19.93-9.4,25.33a7,7,0,0,1-1.73,1.44l-.1.17a29.85,29.85,0,0,1-4.29,2.45,23.62,23.62,0,0,0,3.93-3.21,9.2,9.2,0,0,0,1.28-1.44c4.74-5.4,7.39-13.34,7.39-23.22a53.91,53.91,0,0,0-.36-6.59c-2.92-26.94-23.47-57.42-48.13-70.68-9.4-5.06-18.35-6.92-25.84-5.82a15.66,15.66,0,0,0-2.83.59h-.09a22.11,22.11,0,0,0-4,1.43,12.85,12.85,0,0,1,3.74-1.94c1-.34,2.1-.76,3.2-1.1,8.13-1.94,18-.5,28.86,5.32C625.62,1061.67,647.26,1096.21,647.26,1124.67Z" />
    <path class="cls-59"
        d="M576.66,1094.61c-3-.6-6.23-4.07-7.19-7.74s.75-6.25,3.75-5.66,6.12,4,7.09,7.74S579.66,1095.2,576.66,1094.61Z" />
    <path class="cls-59"
        d="M592,1118.82c-1.82,1.69-5.36.4-7.94-3s-3.11-7.35-1.29-9.13,5.48-.4,7.94,3S593.83,1117,592,1118.82Z" />
    <path class="cls-59"
        d="M590.71,1060.57c-2.46.59-6-2-7.94-5.66-1.61-3.17-1.39-6.35.54-7.44h.11a26.78,26.78,0,0,1,3.43.89c.86.3,1.72.6,2.68,1a11.85,11.85,0,0,1,2.47,3.38C593.94,1056.5,593.29,1060,590.71,1060.57Z" />
    <path class="cls-59"
        d="M612,1063.94a4.36,4.36,0,0,1-4.4-.2,11.7,11.7,0,0,1-5.58-7.84A92.94,92.94,0,0,1,612,1063.94Z" />
    <path class="cls-59"
        d="M625.49,1079.72a9.77,9.77,0,0,1-1.08-1.19,11.14,11.14,0,0,1-1.28-2.08C624,1077.54,624.73,1078.63,625.49,1079.72Z" />
    <path class="cls-59"
        d="M554.55,1097.68c.43,1.39,1,2.78,1.5,4.17a46.78,46.78,0,0,1-1.93-5.06A3.81,3.81,0,0,1,554.55,1097.68Z" />
    <path class="cls-59" d="M569.47,1047.27a1.59,1.59,0,0,1,.64-.2c-.11.2-.32.3-.43.5Z" />
    <path class="cls-59"
        d="M603.92,1152a45.38,45.38,0,0,1-5.26-2.19c.86.4,1.82.8,2.68,1.1S603.06,1151.67,603.92,1152Z" />
    <path class="cls-59"
        d="M622.48,1105.23c0,6.84-3.43,11-8.69,11.51a10.65,10.65,0,0,1-4.29-.3,10.48,10.48,0,0,0,3.54-.89c3-1.49,4.93-4.87,4.93-9.73,0-9.43-7.29-21-16.2-25.8-4.72-2.48-8.91-2.58-11.91-.79a7.16,7.16,0,0,0-2.37,2.28,12,12,0,0,1,1.61-3.47c3.12-4.17,8.91-5,15.57-1.39C614.54,1082,622.48,1094.71,622.48,1105.23Z" />
    <path class="cls-59"
        d="M637.83,1104.33a11.8,11.8,0,0,1-3-5.06,6.66,6.66,0,0,1-.21-3.17c.53,1.09,1,2.18,1.39,3.27a22.86,22.86,0,0,1,1.08,2.88A17.34,17.34,0,0,1,637.83,1104.33Z" />
    <path class="cls-59"
        d="M641.26,1124.48a32.6,32.6,0,0,1-.32,4.66,7.92,7.92,0,0,1-2.47-1.58c-3-2.59-4.61-6.85-3.65-9.53.86-2.28,3.22-2.68,5.91-1.09v.1A59.47,59.47,0,0,1,641.26,1124.48Z" />
    <path class="cls-59"
        d="M601.34,1150.88c-.86-.3-1.82-.7-2.68-1.1a45.38,45.38,0,0,0,5.26,2.19C603.06,1151.67,602.2,1151.27,601.34,1150.88Zm-36.92-101.72.11-.1.32-.3c-.32.2-.64.3-1,.5A1.26,1.26,0,0,1,564.42,1049.16Zm34.45-1.76c-10.87-5.82-20.73-7.26-28.86-5.32-1.1.34-2.19.76-3.2,1.1a12.85,12.85,0,0,0-3.74,1.94,22.11,22.11,0,0,1,4-1.43h.09a15.66,15.66,0,0,1,2.83-.59c7.49-1.1,16.44.76,25.84,5.82,24.66,13.26,45.21,43.74,48.13,70.68a53.91,53.91,0,0,1,.36,6.59c0,9.88-2.65,17.82-7.39,23.22a9.2,9.2,0,0,1-1.28,1.44,23.62,23.62,0,0,1-3.93,3.21,29.85,29.85,0,0,0,4.29-2.45l.1-.17a7,7,0,0,0,1.73-1.44c5.94-5.4,9.4-13.93,9.4-25.33C647.26,1096.21,625.62,1061.67,598.87,1047.4Z" />
    <path class="cls-60"
        d="M576.66,1094.61c-3-.6-6.23-4.07-7.19-7.74s.75-6.25,3.75-5.66,6.12,4,7.09,7.74S579.66,1095.2,576.66,1094.61Z" />
    <path class="cls-60"
        d="M592,1118.82c-1.82,1.69-5.36.4-7.94-3s-3.11-7.35-1.29-9.13,5.48-.4,7.94,3S593.83,1117,592,1118.82Z" />
    <path class="cls-60"
        d="M590.71,1060.57c-2.46.59-6-2-7.94-5.66-1.61-3.17-1.39-6.35.54-7.44h.11a26.78,26.78,0,0,1,3.43.89c.86.3,1.72.6,2.68,1a11.85,11.85,0,0,1,2.47,3.38C593.94,1056.5,593.29,1060,590.71,1060.57Z" />
    <path class="cls-60"
        d="M612,1063.94a4.36,4.36,0,0,1-4.4-.2,11.7,11.7,0,0,1-5.58-7.84A92.94,92.94,0,0,1,612,1063.94Z" />
    <path class="cls-60"
        d="M625.49,1079.72a9.77,9.77,0,0,1-1.08-1.19,11.14,11.14,0,0,1-1.28-2.08C624,1077.54,624.73,1078.63,625.49,1079.72Z" />
    <path class="cls-60"
        d="M622.48,1105.23c0,6.84-3.43,11-8.69,11.51a10.65,10.65,0,0,1-4.29-.3,10.48,10.48,0,0,0,3.54-.89c3-1.49,4.93-4.87,4.93-9.73,0-9.43-7.29-21-16.2-25.8-4.72-2.48-8.91-2.58-11.91-.79a7.16,7.16,0,0,0-2.37,2.28,12,12,0,0,1,1.61-3.47c3.12-4.17,8.91-5,15.57-1.39C614.54,1082,622.48,1094.71,622.48,1105.23Z" />
    <path class="cls-60"
        d="M637.83,1104.33a11.8,11.8,0,0,1-3-5.06,6.66,6.66,0,0,1-.21-3.17c.53,1.09,1,2.18,1.39,3.27a22.86,22.86,0,0,1,1.08,2.88A17.34,17.34,0,0,1,637.83,1104.33Z" />
    <path class="cls-60"
        d="M641.26,1124.48a32.6,32.6,0,0,1-.32,4.66,7.92,7.92,0,0,1-2.47-1.58c-3-2.59-4.61-6.85-3.65-9.53.86-2.28,3.22-2.68,5.91-1.09v.1A59.47,59.47,0,0,1,641.26,1124.48Z" />
    <path class="cls-61"
        d="M554.55,1097.68a3.81,3.81,0,0,0-.43-.89,46.78,46.78,0,0,0,1.93,5.06C555.51,1100.46,555,1099.07,554.55,1097.68Zm46.79,53.2c-.86-.3-1.82-.7-2.68-1.1a45.38,45.38,0,0,0,5.26,2.19C603.06,1151.67,602.2,1151.27,601.34,1150.88Z" />
    <path class="cls-61"
        d="M644,1119.6c-2.92-26.94-23.47-57.42-48.13-70.68-9.4-5.06-18.35-6.92-25.84-5.82a15.66,15.66,0,0,0-2.83.59h-.09a22.11,22.11,0,0,0-4,1.43c-9.59,4.23-15.62,14.44-15.62,29.3,0,28.46,21.74,63,48.4,77.36,14.25,7.51,27,7.85,35.89,2.28a23.62,23.62,0,0,0,3.93-3.21,9.2,9.2,0,0,0,1.28-1.44c4.74-5.4,7.39-13.34,7.39-23.22A53.91,53.91,0,0,0,644,1119.6Zm-3,9.54v.34a6.17,6.17,0,0,0-.18,1.27,7,7,0,0,0-.18,1.27,10.09,10.09,0,0,1-.27,1.6,1.23,1.23,0,0,1-.1.59,9.3,9.3,0,0,0-.36,1.52c-.37.85-.55,1.69-.82,2.37s-.37,1.09-.55,1.6c-.09.08-.27.25-.27.42s-.19.34-.28.51a11.69,11.69,0,0,1-.73,1.52c-.37.59-.64,1.1-1,1.69,0,.08-.08.08-.08.17a19.63,19.63,0,0,0-1.28,1.77,16.56,16.56,0,0,0-1.28,1.44s0,.08-.18.08v.08h-.1c-.64.68-1.18,1.1-1.82,1.69a5.48,5.48,0,0,1-1.56,1.19c-.27.08-.36.25-.54.33a.09.09,0,0,0-.09.09h-.19a3.78,3.78,0,0,1-1.09.67c-.19.09-.37.26-.46.26s-.09.08-.27.08a6,6,0,0,1-1.46.68,11,11,0,0,1-2.29.76,28.68,28.68,0,0,1-3,.76,9.32,9.32,0,0,1-1.65.17,24.44,24.44,0,0,1-4.84,0,5.67,5.67,0,0,1-1.18-.09,28.63,28.63,0,0,1-3.75-.59c-1.73-.42-3.47-.84-5.2-1.44-.37-.16-.82-.33-1.28-.5a13.61,13.61,0,0,1-2.56-1.1c-.55-.17-.91-.42-1.37-.59-.91-.34-1.82-.85-2.83-1.35a20,20,0,0,0-2.28-1.27c-.09-.08-.18-.25-.28-.34a41.55,41.55,0,0,1-4.29-2.7,3,3,0,0,0-.73-.42,30.15,30.15,0,0,0-2.74-2.11c-2-1.61-3.83-3.21-5.66-5-1-.85-1.92-1.69-2.92-2.71-.28-.25-.64-.67-.91-.93-1.19-1.35-2.38-2.61-3.57-4a.89.89,0,0,0-.36-.43c-.09-.08-.09-.08-.09-.17a4.22,4.22,0,0,1-.82-1,9.09,9.09,0,0,1-.92-1.1l-1.55-2.11c-1.19-1.6-2.47-3.29-3.56-5a29.2,29.2,0,0,1-1.92-3.12,47.38,47.38,0,0,1-2.65-4.56,83.3,83.3,0,0,1-4.11-8.53c-.18-.43-.36-.85-.45-1.1-.28-.85-.64-1.61-.92-2.45a15.29,15.29,0,0,1-1-2.62,3.2,3.2,0,0,0-.37-1c-.18-.84-.45-1.77-.73-2.7,0-.09-.09-.26-.09-.34-.55-1.94-.82-3.63-1.19-5.41-.27-1.35-.54-2.87-.73-4.3s-.36-3-.36-4.39V1078a12.88,12.88,0,0,1-.09-1.86c0-.93.09-2,.09-2.95,0-.59.18-1.18.18-1.78a1.09,1.09,0,0,1,.09-.42,5.63,5.63,0,0,1,.09-1.18v-.08c0-.17.1-.43.1-.59a1.39,1.39,0,0,1,.09-.6,18.07,18.07,0,0,1,.45-2.11c0-.08.09-.25.09-.34v-.16c0-.09.09-.17.09-.26a.81.81,0,0,1,.28-.67,3.47,3.47,0,0,1,.27-1v-.08c0-.25,0-.34.09-.42a19.26,19.26,0,0,1,.83-2,3.35,3.35,0,0,1,.36-1,.45.45,0,0,1,.28-.42c.18-.51.54-1,.73-1.52.18-.34.45-.68.64-1.1.18-.26.45-.68.63-.93a8.38,8.38,0,0,1,1.37-1.86,9.41,9.41,0,0,1,1-1.1c.18-.17.27-.33.55-.59l.64-.59a14.56,14.56,0,0,1,1.28-1.1l.18-.17a2,2,0,0,1,.45-.25h.1s.09,0,.09-.17c.27-.08.45-.25.82-.34a.59.59,0,0,0,.18-.25,2.11,2.11,0,0,1,.46-.25c.09-.09.18-.26.27-.26a.08.08,0,0,0,.09-.08.08.08,0,0,1,.09-.08c.19,0,.28-.09.37-.09a9.44,9.44,0,0,1,1-.51.33.33,0,0,0,.18-.08.31.31,0,0,0,.18-.09c.09,0,.09,0,.09-.08a.36.36,0,0,1,.27-.08,8.38,8.38,0,0,1,1.28-.43,1.27,1.27,0,0,1,.55-.25l1.92-.51h.09a1.9,1.9,0,0,1,.64-.17h.09l.09-.08h.46a3.53,3.53,0,0,1,.55-.08,7.83,7.83,0,0,1,1.55-.26,6.85,6.85,0,0,1,1.37-.08,5.67,5.67,0,0,1,1.28-.09h.45c.73,0,1.37.09,2,.09a9.72,9.72,0,0,1,1.46.25c.37,0,.55.09.92.09a8.26,8.26,0,0,1,1.28.16,8.84,8.84,0,0,1,1.37.34c.09,0,.18.09.36.09h.09a24.18,24.18,0,0,1,3.38.84c1.28.42,2.74,1,4.2,1.61a14.9,14.9,0,0,0,1.64.67c1.19.51,2.1,1,3.2,1.61s2,1.09,3.11,1.77a17.82,17.82,0,0,1,3,1.94,86.9,86.9,0,0,1,9.95,8,75.76,75.76,0,0,1,5.85,5.91c.91,1,1.83,2.12,2.74,3.21s1.64,2.2,2.46,3.21c.19.09.19.09.19.17.82,1.1,1.55,2.2,2.37,3.29.46.6.82,1.27,1.28,2a11.16,11.16,0,0,0,1.19,1.69.46.46,0,0,1,.09.33c.82,1.27,1.55,2.62,2.37,4.06a2.24,2.24,0,0,1,.37.67c.64,1.1,1.28,2.28,1.82,3.38.37.59.55,1.18.92,1.69a7.92,7.92,0,0,0,.45,1.35l.55,1.27c.55,1.09,1,2.11,1.46,3.21a28.37,28.37,0,0,1,1,3,19.16,19.16,0,0,1,.82,2v.25a28.29,28.29,0,0,1,.91,3c.09.42.28.76.37,1.18v.34a1.86,1.86,0,0,1,.18.68,2.41,2.41,0,0,1,.18.67v.09c.28,1.09.55,2.19.73,3.29s.37,2.11.46,3v.17a51.12,51.12,0,0,1,.55,7.43A36,36,0,0,1,641,1129.14Z" />
    <path class="cls-59"
        d="M633.32,1147.4c-.64.7-1.18,1.09-1.82,1.69a10.68,10.68,0,0,1-1.61,1.19c-.22.1-.33.2-.54.3a.1.1,0,0,0-.11.1h-.1a7.3,7.3,0,0,1-1.19.69.81.81,0,0,1-.42.2c-.11,0-.11.1-.22.1a6.68,6.68,0,0,1-1.5.7,22.34,22.34,0,0,1-2.25.79,24.55,24.55,0,0,1-3,.69,8.93,8.93,0,0,1-1.72.2,19.49,19.49,0,0,1-4.83,0,5.16,5.16,0,0,1-1.18-.1,24.35,24.35,0,0,1-3.75-.59,51,51,0,0,1-5.15-1.39c-.86-.3-1.72-.7-2.58-1.09s-1.82-.7-2.68-1.1-1.83-.89-2.79-1.38c-.76-.4-1.51-.9-2.26-1.29l-.32-.3c-1.39-.8-2.9-1.69-4.29-2.68a3.49,3.49,0,0,0-.75-.5c-.86-.69-1.72-1.39-2.69-2.08a67.45,67.45,0,0,1-5.68-5c-1-.9-1.94-1.69-2.9-2.68-.32-.3-.65-.7-1-1-1.18-1.29-2.36-2.58-3.54-4-.11-.09-.21-.29-.32-.39s-.11-.1-.11-.2a4.29,4.29,0,0,1-.86-1,8.89,8.89,0,0,1-.86-1.09l-1.61-2.09c-1.18-1.59-2.46-3.27-3.54-5a34.7,34.7,0,0,1-1.93-3.18c-1-1.48-1.82-3-2.68-4.56a90,90,0,0,1-4.08-8.54,7.59,7.59,0,0,1-.43-1.09c-.54-1.39-1.07-2.78-1.5-4.17a3.81,3.81,0,0,0-.43-.89c-.11-.4-.22-.69-.32-1-.22-.89-.54-1.79-.75-2.68,0-.1-.11-.3-.11-.4a51.38,51.38,0,0,1-1.18-5.36c-.32-1.39-.54-2.87-.75-4.36s-.33-2.88-.33-4.37v-.69a10.81,10.81,0,0,1-.1-1.79c0-1,.1-2.08.1-3,0-.59.11-1.19.11-1.78a.7.7,0,0,1,.11-.4,4.37,4.37,0,0,1,.11-1.19v-.1c0-.2.1-.4.1-.6a1.15,1.15,0,0,1,.11-.59,15.51,15.51,0,0,1,.43-2.09c0-.1.11-.29.11-.39v-.1c0-.1.11-.2.11-.3a1.28,1.28,0,0,1,.21-.69,3.53,3.53,0,0,1,.32-1v-.1c0-.19,0-.29.11-.39a10.93,10.93,0,0,1,.75-2,3.65,3.65,0,0,1,.43-1.09.78.78,0,0,1,.21-.4c.22-.49.54-1,.75-1.49s.43-.69.65-1.09.43-.69.64-1a8.48,8.48,0,0,1,1.4-1.79,4.44,4.44,0,0,1,1-1.09c.22-.2.33-.39.54-.59l.65-.6a13.75,13.75,0,0,1,1.28-1.09l.22-.2a1.32,1.32,0,0,1,.43-.3h.1s.11,0,.11-.09a5.1,5.1,0,0,1,.75-.4l.22-.2c.1-.1.32-.2.43-.3a.54.54,0,0,1,.32-.2.1.1,0,0,0,.11-.1.1.1,0,0,1,.1-.1c.11,0,.22-.09.32-.09a1.26,1.26,0,0,1,.54-.1l.11-.1a9.56,9.56,0,0,1,2.36-1.09c.22-.1.32-.1.54-.2a13.36,13.36,0,0,1,1.93-.5h.11l.21.3c-4.72,5.06-7.41,12.6-7.41,22.33,0,26.59,20.29,58.85,45.29,72.24C617.12,1147.2,626,1148.89,633.32,1147.4Z" />
    <path class="cls-60"
        d="M638.47,1127.56c-3-2.59-4.61-6.85-3.65-9.53.86-2.28,3.22-2.68,5.91-1.09-.11-1-.32-2-.54-3.08s-.43-2.18-.64-3.27v-.1a2.37,2.37,0,0,0-.22-.7,2.47,2.47,0,0,0-.21-.69v-.3l-.33-1.19c-.32-1-.53-2.09-1-3.08v-.2a11.8,11.8,0,0,1-3-5.06,6.66,6.66,0,0,1-.21-3.17c-.64-1.39-1.29-2.78-1.93-4.27-.54-1.09-1.18-2.28-1.83-3.37a2.21,2.21,0,0,0-.43-.7c-.75-1.39-1.5-2.78-2.36-4.07s-1.71-2.68-2.57-4a9.77,9.77,0,0,1-1.08-1.19,11.14,11.14,0,0,1-1.28-2.08c0-.1,0-.1-.11-.2-.86-1-1.61-2.09-2.47-3.18s-1.82-2.18-2.79-3.17a79.56,79.56,0,0,0-5.8-6,4.36,4.36,0,0,1-4.4-.2,11.7,11.7,0,0,1-5.58-7.84,29.21,29.21,0,0,0-3-1.88c-1.08-.7-2-1.19-3.11-1.79a32.07,32.07,0,0,0-3.22-1.58c-1.08-.5-2.15-.9-3.12-1.3a11.85,11.85,0,0,1,2.47,3.38c1.94,3.77,1.29,7.24-1.29,7.84s-6-2-7.94-5.66c-1.61-3.17-1.39-6.35.54-7.44-.11,0-.21-.1-.32-.1l-1.4-.3a5.77,5.77,0,0,0-1.28-.2c-.33,0-.54-.1-.86-.1a32.78,32.78,0,0,0-5.26-.19,6.11,6.11,0,0,0-1.4.1,6.83,6.83,0,0,0-1.5.19c-.43.1-.75.1-1.07.2h-.11c-.11.2-.32.3-.43.5-4.72,5.06-7.41,12.6-7.41,22.33,0,26.59,20.29,58.85,45.29,72.24,9.56,5.06,18.46,6.75,25.76,5.26h.11v-.1a.1.1,0,0,0,.11-.1c.43-.49.86-.89,1.28-1.38l1.29-1.79c0-.1.11-.1.11-.2.32-.59.64-1.09,1-1.69a9,9,0,0,0,.74-1.49,18.14,18.14,0,0,0,1.08-2.58,5.58,5.58,0,0,0,.43-1.38,16.82,16.82,0,0,0,.75-2.49,1.11,1.11,0,0,0,.11-.59c.21-1.39.43-2.68.64-4.17v-.3A7.92,7.92,0,0,1,638.47,1127.56Zm-61.81-33c-3-.6-6.23-4.07-7.19-7.74s.75-6.25,3.75-5.66,6.12,4,7.09,7.74S579.66,1095.2,576.66,1094.61Zm3.75-24.41c-.86,2-2.79,2.48-4.93,1.48a9.52,9.52,0,0,1-2.26-1.48c-3-2.58-4.72-7-3.75-9.63a2.92,2.92,0,0,1,2.57-1.89,6.35,6.35,0,0,1,4.72,1.89C579.66,1063.25,581.38,1067.52,580.41,1070.2ZM592,1118.82c-1.82,1.69-5.36.4-7.94-3s-3.11-7.35-1.29-9.13,5.48-.4,7.94,3S593.83,1117,592,1118.82Zm15.56,17.77c-3.11-1.69-5.68-5.76-5.68-9.13,0-2.88,1.82-4.27,4.29-3.48a4.71,4.71,0,0,1,1.39.5,12,12,0,0,1,5.26,6.45,11.39,11.39,0,0,1,.43,2.58C613.25,1136.88,610.68,1138.27,607.56,1136.59Zm8.59-16.28c-3.22.5-7.19-.2-11.48-2.48a38.32,38.32,0,0,1-9.23-7.15c-.11-.09-.22-.19-.22-.29a44.19,44.19,0,0,1-9.12-14.59c-.11-.1-.11-.1-.11-.2a30.18,30.18,0,0,1-2.25-11.11,15.63,15.63,0,0,1,3.11-10c3.65-4.26,10.3-5,17.82-1,11.59,6.15,20.92,21,20.92,33.34C625.59,1114.56,621.84,1119.32,616.15,1120.31Zm14.92,20.74a5,5,0,0,1-1.72,0c-2.15-.49-4.83-2.78-6.22-5.66a7.74,7.74,0,0,1-.86-5.55,3.07,3.07,0,0,1,2.14-2.19c2.58-.59,6.12,1.89,8,5.56S633.64,1140.46,631.07,1141.05Z" />
    <path class="cls-62"
        d="M604.67,1073.47c-7.52-4-14.17-3.27-17.82,1a15.63,15.63,0,0,0-3.11,10A30.18,30.18,0,0,0,586,1095.6c0,.1,0,.1.11.2a44.19,44.19,0,0,0,9.12,14.59c0,.1.11.2.22.29a38.32,38.32,0,0,0,9.23,7.15c4.29,2.28,8.26,3,11.48,2.48,5.69-1,9.44-5.75,9.44-13.5C625.59,1094.51,616.26,1079.62,604.67,1073.47Zm9.12,43.27a10.65,10.65,0,0,1-4.29-.3,15.18,15.18,0,0,1-7.73-2.08,30.94,30.94,0,0,1-9-7.74c-.1-.2-.32-.3-.32-.5a68.32,68.32,0,0,1-4.08-6.45,27,27,0,0,1-2.79-11.12,12.73,12.73,0,0,1,1.93-7,12,12,0,0,1,1.61-3.47c3.12-4.17,8.91-5,15.57-1.39,9.87,5.35,17.81,18.06,17.81,28.58C622.48,1112.07,619.05,1116.24,613.79,1116.74Z" />
    <path class="cls-62"
        d="M622.48,1105.23c0,6.84-3.43,11-8.69,11.51a10.65,10.65,0,0,1-4.29-.3,10.48,10.48,0,0,0,3.54-.89c3-1.49,4.93-4.87,4.93-9.73,0-9.43-7.29-21-16.2-25.8-4.72-2.48-8.91-2.58-11.91-.79a7.16,7.16,0,0,0-2.37,2.28,12,12,0,0,1,1.61-3.47c3.12-4.17,8.91-5,15.57-1.39C614.54,1082,622.48,1094.71,622.48,1105.23Z" />
    <path class="cls-59"
        d="M622.48,1105.23c0,6.84-3.43,11-8.69,11.51a10.65,10.65,0,0,1-4.29-.3,10.48,10.48,0,0,0,3.54-.89c3-1.49,4.93-4.87,4.93-9.73,0-9.43-7.29-21-16.2-25.8-4.72-2.48-8.91-2.58-11.91-.79a7.16,7.16,0,0,0-2.37,2.28,12,12,0,0,1,1.61-3.47c3.12-4.17,8.91-5,15.57-1.39C614.54,1082,622.48,1094.71,622.48,1105.23Z" />
    <path class="cls-61"
        d="M618,1105.82c0,4.86-1.93,8.24-4.93,9.73a10.48,10.48,0,0,1-3.54.89,15.18,15.18,0,0,1-7.73-2.08,30.94,30.94,0,0,1-9-7.74c-.1-.2-.32-.3-.32-.5a68.32,68.32,0,0,1-4.08-6.45,27,27,0,0,1-2.79-11.12,12.73,12.73,0,0,1,1.93-7,7.16,7.16,0,0,1,2.37-2.28c3-1.79,7.19-1.69,11.91.79C610.68,1084.78,618,1096.39,618,1105.82Z" />
    <path class="cls-62"
        d="M612,1063.94a4.36,4.36,0,0,1-4.4-.2,11.7,11.7,0,0,1-5.58-7.84A92.94,92.94,0,0,1,612,1063.94Z" />
    <path class="cls-62"
        d="M625.49,1079.72a9.77,9.77,0,0,1-1.08-1.19,11.14,11.14,0,0,1-1.28-2.08C624,1077.54,624.73,1078.63,625.49,1079.72Z" />
    <path class="cls-62"
        d="M637.83,1104.33a11.8,11.8,0,0,1-3-5.06,6.66,6.66,0,0,1-.21-3.17c.53,1.09,1,2.18,1.39,3.27a22.86,22.86,0,0,1,1.08,2.88A17.34,17.34,0,0,1,637.83,1104.33Z" />
    <path class="cls-62"
        d="M641.26,1124.48a32.6,32.6,0,0,1-.32,4.66,7.92,7.92,0,0,1-2.47-1.58c-3-2.59-4.61-6.85-3.65-9.53.86-2.28,3.22-2.68,5.91-1.09v.1A59.47,59.47,0,0,1,641.26,1124.48Z" />
    <path class="cls-62"
        d="M631.07,1141.05a5,5,0,0,1-1.72,0c-2.15-.49-4.83-2.78-6.22-5.66a7.74,7.74,0,0,1-.86-5.55,3.07,3.07,0,0,1,2.14-2.19c2.58-.59,6.12,1.89,8,5.56S633.64,1140.46,631.07,1141.05Z" />
    <path class="cls-62"
        d="M613.25,1133.51c0,3.37-2.57,4.76-5.69,3.08s-5.68-5.76-5.68-9.13c0-2.88,1.82-4.27,4.29-3.48a4.71,4.71,0,0,1,1.39.5,12,12,0,0,1,5.26,6.45A11.39,11.39,0,0,1,613.25,1133.51Z" />
    <path class="cls-62"
        d="M592,1118.82c-1.82,1.69-5.36.4-7.94-3s-3.11-7.35-1.29-9.13,5.48-.4,7.94,3S593.83,1117,592,1118.82Z" />
    <path class="cls-62"
        d="M576.66,1094.61c-3-.6-6.23-4.07-7.19-7.74s.75-6.25,3.75-5.66,6.12,4,7.09,7.74S579.66,1095.2,576.66,1094.61Z" />
    <path class="cls-62"
        d="M580.41,1070.2c-.86,2-2.79,2.48-4.93,1.48a9.52,9.52,0,0,1-2.26-1.48c-3-2.58-4.72-7-3.75-9.63a2.92,2.92,0,0,1,2.57-1.89,6.35,6.35,0,0,1,4.72,1.89C579.66,1063.25,581.38,1067.52,580.41,1070.2Z" />
    <path class="cls-62"
        d="M590.71,1060.57c-2.46.59-6-2-7.94-5.66-1.61-3.17-1.39-6.35.54-7.44h.11a26.78,26.78,0,0,1,3.43.89c.86.3,1.72.6,2.68,1a11.85,11.85,0,0,1,2.47,3.38C593.94,1056.5,593.29,1060,590.71,1060.57Z" />
    <path id="BODY" class="cls-14"
        d="M67.8,692.37v-60.7a36.94,36.94,0,0,1,1.14-5.46,35,35,0,0,1,2.17-4.28c.37-.52,1.24-1.64,1.47-1.9s.7-.76.7-.76l.69-.67.37-.35,0-3.36a9,9,0,0,1,.2-.9,6.09,6.09,0,0,1,.44-1,8,8,0,0,1,.58-.75l.38-.35.54-.39,1.36-.79,4.84-2.8,4.93-2.84,5.9-3.41,11.29-6.52,17.53-10.13,19.72-11.38,21.81-12.6,136.47-78.81,2-1.14a14.46,14.46,0,0,1,2-.94,11.11,11.11,0,0,1,3.32-.64c1.28,0,2.19.09,2.19.09l1.89.41a17.72,17.72,0,0,1,2.62,1.16l5.1,2.95,33.16,19.14L532.93,607.37l94.27-54.43s1.1-.59,1.64-.81a24.06,24.06,0,0,1,2.3-.73,16.07,16.07,0,0,1,2.12-.35c.33,0,1.75-.06,2,0s1.32.19,1.45.21,1.63.38,1.94.48,1.42.55,1.52.6l2.22,1.21,36.33,21,69.12,39.91a30.83,30.83,0,0,1,6.77,5.16c2.57,2.83,4.25,5.09,4.25,5.09s2.09,3.36,2.68,4.69,1.51,3.81,1.51,3.81l43,131.53L846.31,788,983.9,867.41s3.7,2.28,4.72,3,5.61,4.13,6.75,5.11,3.57,3.17,3.78,3.37,4.23,4.27,5.26,5.47,4.69,5.81,5.6,7.14,4.38,6.82,4.71,7.56v6.5l.08,97.63-239,138-29.51-10.49-56.77-32.78a25,25,0,0,1-3.35-2.44,26.62,26.62,0,0,1-3.89-4.85c-.72-1.4-2.53-6.38-3.1-8.09l-7-20.61-3.73-11.06s-2.39-4.89-3-5.92-4.82-8.2-5.8-9.69a51.46,51.46,0,0,0-3.9-5.26l-7.54-6.78-9-8.07c-.54-.48-1.56-1.49-2-1.8a14,14,0,0,0-3.42-1.39c-1.17-.28-8.6-1.46-8.6-1.46L608,1009.08l-7-.22L590.61,1010l-11.16,1.25s-1,.16-1.21.22-4.57,1.71-5.66,2.17-6.27,2.71-7.42,3.17a53.91,53.91,0,0,1-6.31,2.18,6.58,6.58,0,0,1-2,.22,2.36,2.36,0,0,1-.92-.34l-2.52-1.5-16.86-10.08-21.83-13.09-259-159.82-.57-13.07L68.78,703.79a5.94,5.94,0,0,1-.74-.95,9.65,9.65,0,0,1-.24-1.52Z" />
    <path class="cls-14"
        d="M74.45,608.82,300.13,478.49a11.92,11.92,0,0,1,11.92,0L530.33,604.73,397.5,683.6l7.89,122.09L74.45,616.84A4.63,4.63,0,0,1,74.45,608.82Z" />
    <polygon class="cls-121"
        points="101.95 615.47 405.52 791.1 400.1 686.24 499.75 627.07 519.3 615.47 308.74 495.71 101.95 615.47" />
    <polygon class="cls-122"
        points="169.46 654.45 308.74 574.36 446.73 659.05 400.1 686.24 401.71 717.32 405.53 790.78 169.46 654.45" />
    <path class="cls-121"
        d="M746.69,1130.68l-56.78-32.78a19.56,19.56,0,0,1-8.75-10.69l-12.28-36.36c-1.09-3.24-10.1-18.61-12.67-20.87l-18.51-16.65c-3.61-3.2-31.51-4.5-36.33-4.47l-21.53,2.43c-3.33,0-20.34,9.39-23.26,7.8,0,0-197.14-117.08-300.52-184.36-40.64-26.45-54.42-46.55-54.7-46.79L75.15,707.56a19.57,19.57,0,0,1-7-15l-.38-59.53c0-9.44,6.65-16.21,6.65-16.21L405.39,805.69l-1.25-47.92L401,704.38s-.85-17.35-.92-18.14l107.47,49.84a19.51,19.51,0,0,1,8.77,10.84l42.31,129.63a19.55,19.55,0,0,0,8.81,10.88l191,110.26,23.3,13.46a19.55,19.55,0,0,1,9.47,20.42l-15.5,85.65A19.56,19.56,0,0,1,759.91,1133h0A19.6,19.6,0,0,1,746.69,1130.68Z" />
    <polygon class="cls-121"
        points="1015.11 899.06 776.2 1037.01 776.2 1141.17 1015.19 1003.19 1015.11 899.06" />
    <polygon class="cls-121"
        points="308.74 574.36 308.74 495.71 101.95 615.47 169.46 654.45 308.74 574.36" />
    <polygon class="cls-14"
        points="1002.53 1010.5 1015.19 1003.19 1015.11 899.06 776.2 1037.01 776.2 1141.17 790.79 1132.75 790.79 1045.7 920.99 984.65 1002.53 923.45 1002.53 1010.5" />
    <polygon class="cls-123"
        points="1032.13 986.15 1032.13 1034.95 928.25 1105.08 777.23 1181.98 777.19 1133.15 1032.13 986.15" />
    <polygon class="cls-124"
        points="777.19 1133.15 745.83 1114.99 745.83 1163.86 777.23 1181.98 777.19 1133.15" />
    <polygon class="cls-125"
        points="751.67 1111.62 768.53 1121.51 920.79 1045.88 1007.52 983.53 1007.52 971.93 1032.13 986.15 1022.09 991.95 928.25 1057.26 783.12 1129.92 777.19 1133.15 745.83 1114.99 751.67 1111.62" />
    <polygon class="cls-123" points="47.87 696 47.87 724.66 70.58 737.69 70.58 709.12 47.87 696" />
    <polygon class="cls-125"
        points="53.61 692.63 68.49 684.04 68.5 701.23 76.55 705.85 70.58 709.12 47.87 696 53.61 692.63" />
    <polygon class="cls-124"
        points="70.58 737.69 76.47 734.48 76.55 705.85 70.58 709.12 70.58 737.69" />
    <polygon class="cls-126"
        points="994.15 951.75 920.38 1009.98 790.68 1068.57 790.68 1110.31 920.38 1045.88 994.15 992.26 994.15 951.75" />
    <path class="cls-127"
        d="M977.91,979.42c0,8.33,2.66,15.08,5.94,15.08s5.94-6.75,5.94-15.08-2.66-15.08-5.94-15.08S977.91,971.09,977.91,979.42Z" />
    <path class="cls-127"
        d="M956.64,994.5c0,8.33,2.67,15.08,6,15.08s5.94-6.75,5.94-15.08-2.66-15.08-5.94-15.08S956.64,986.17,956.64,994.5Z" />
    <path class="cls-127"
        d="M821.19,1071.7c0,8.33,2.66,15.08,5.95,15.08s5.94-6.75,5.94-15.08-2.66-15.08-5.94-15.08S821.19,1063.37,821.19,1071.7Z" />
    <path class="cls-127"
        d="M799.93,1081.78c0,8.33,2.66,15.09,5.94,15.09s6-6.76,6-15.09-2.66-15.08-6-15.08S799.93,1073.45,799.93,1081.78Z" />
    <polygon class="cls-128"
        points="784.61 767.6 743.76 649.33 526.24 774.78 565.43 894.18 784.61 767.6" />
    <polygon class="cls-128"
        points="408.92 723.56 408.92 816.17 543 892.15 507.84 780.5 408.92 723.56" />
    <path class="cls-129"
        d="M418.35,845.46c-2.33-.52-26.13-13.66-27.56-17-1.16-2.72-.19-7.57,2-10.94a.49.49,0,0,0,.13-.26l.39-.58s27.56,18.44,28.46,20.64v.06C422.17,839.37,420.75,845.91,418.35,845.46Z" />
    <path class="cls-130"
        d="M421.78,837.37v.06c-.06,1.68-1.16,2.66-2.91,1.62l-22.38-12.87a8.61,8.61,0,0,1-3.82-6.6v-.84a6.65,6.65,0,0,1,.13-1.17.49.49,0,0,0,.13-.26l.39-.58c.71-.84,1.87-1,3.17-.19l16.3,9.38a23.64,23.64,0,0,1,8.22,8.8A5.85,5.85,0,0,1,421.78,837.37Z" />
    <path class="cls-131"
        d="M399.2,822.91c0,1.3-.92,1.82-2.05,1.17a4.53,4.53,0,0,1-2.06-3.55c0-1.3.92-1.82,2.06-1.17A4.54,4.54,0,0,1,399.2,822.91Z" />
    <path class="cls-132"
        d="M532.56,898.26a3.52,3.52,0,0,1-1.07.34,7.64,7.64,0,0,1-1.14.4c-.85.28-1.76.56-2.72.85s-1.7.51-2.61.73H525c-1.7.4-3.34.8-4.88,1.08a41.87,41.87,0,0,1-4.19.63c-1.14.11-2.33.22-3.58.28-.85.06-1.64.06-2.38.06h-.46a21.09,21.09,0,0,1-7.94-1.31,10.78,10.78,0,0,1-3.06-1.87c-2.67-2.38-3.12-5.67-3.18-8.23,0-.68.06-.62.06-1.24.4-6.64,2.78-8.57,7.2-9.87.12-.06.23-.06.35-.12l4.82,3,18,11.12,1.87,1.13,4.88,3Z" />
    <path class="cls-133"
        d="M547.6,893.38a1.57,1.57,0,0,1-.34.23,16.85,16.85,0,0,1-5.39,1.7h-3.29l-11-.12h-1.36l-.51-1.13-2.16-4.65s.79-.34,2-.8c.39-.17.85-.34,1.36-.51l1.42-.51c2-.68,4-1.19,4.65-.9s2-.17,3.8-.69c.4-.11.74-.22,1.13-.34.23,0,.4-.11.63-.17l.56-.17a21,21,0,0,1,3-.51.23.23,0,0,1,.17,0,4.16,4.16,0,0,1,2.84.39C548,887,549.24,892,547.6,893.38Z" />
    <path class="cls-134"
        d="M542.09,888.78c-.05.52-.17,1-.22,1.42s-.17.68-.29,1a1.86,1.86,0,0,1-.34.85,7.37,7.37,0,0,1-.34.74l-.34.51c-.17.28-.4.51-.57.79-.34.34-.68.68-1.07,1a.51.51,0,0,1-.23.23h-.11a22.07,22.07,0,0,1-2.67,1.42c-.68.34-1.82.85-3.4,1.47a6.73,6.73,0,0,0-1,.4,7.64,7.64,0,0,1-1.14.4c-.85.28-1.76.56-2.72.85s-1.7.51-2.61.73H525c-1.7.4-3.34.8-4.88,1.08a41.87,41.87,0,0,1-4.19.63c-1.14.11-2.33.22-3.58.28-.85.06-1.64.06-2.38.06h-.46a21.09,21.09,0,0,1-7.94-1.31,10.78,10.78,0,0,1-3.06-1.87c-2.67-2.38-3.12-5.67-3.18-8.23,0-.68.06-.62.06-1.24.4-6.64,2.78-8.57,7.2-9.87.12-.06.23-.06.35-.12l5.33-1.47c.51-.12,1-.29,1.59-.4s1-.28,1.53-.4c7.49-1.93,14.46-3.4,14.46-3.4a2.32,2.32,0,0,1,.63-.11,15.77,15.77,0,0,1,7.09-.12,6.16,6.16,0,0,1,1.36.34c.45.12.91.29,1.36.46v.05a9.6,9.6,0,0,1,5.28,6.13v.06a3.52,3.52,0,0,1,.34,1.07l.17,1.2c.05.51.11,1,.11,1.41A18.31,18.31,0,0,1,542.09,888.78Z" />
    <path class="cls-135"
        d="M542.15,888.84a8.77,8.77,0,0,1-.28,1.36c-.12.34-.17.68-.29,1a1.86,1.86,0,0,1-.34.85.36.36,0,0,1,0,.22,2.49,2.49,0,0,0-.29.52l-.34.51c-.17.28-.4.51-.57.79-.34.34-.68.68-1.07,1a.51.51,0,0,1-.23.23h-.11a19.12,19.12,0,0,1-6,3h-.06a3.52,3.52,0,0,1-1.07.34,7.64,7.64,0,0,1-1.14.4c-.85.28-1.76.56-2.72.85s-1.7.51-2.61.73H525c-1.7.4-3.34.8-4.88,1.08a41.87,41.87,0,0,1-4.19.63c-1.14.11-2.33.22-3.58.28-.85.06-1.64.06-2.38.06h-.46c-1.07-.12-2-.17-2.77-.29-3.69-.51-6.47-2.61-5.73-11.12.39-5.1,2.89-7.09,6.75-8.28a54.07,54.07,0,0,1,5.84-1.36,9.28,9.28,0,0,0,1.59-.34c.57-.06,1.13-.17,1.7-.28a.2.2,0,0,1,.17-.06,123.37,123.37,0,0,1,13.9-2.5,37,37,0,0,1,4.14-.28,8.38,8.38,0,0,1,1.25.06,4.4,4.4,0,0,1,1.19.11,4.92,4.92,0,0,1,1.59.28,4.11,4.11,0,0,1,2.44,2.5v.06a3.52,3.52,0,0,1,.34,1.07,9.59,9.59,0,0,1,.45,2.56A19.45,19.45,0,0,1,542.15,888.84Z" />
    <path class="cls-136"
        d="M556.91,1014.17s11.44,4.1,49.76,19.05c8.08,3.15,53.35,39.91,64.6,49,13.32,10.8,30.61,23.72,30.61,23.72,0-40.11-16.91-100.61-74.15-104.76C599,999.14,588.92,1000.7,556.91,1014.17Z" />
    <path class="cls-136"
        d="M131.18,742.8s6.83,4.51,26.72,16.85c7.37,4.58,53.35,39.92,64.6,49,13.32,10.8,30.61,23.72,30.61,23.72,0-40.11-16.91-100.61-74.14-104.76C150.27,725.57,144.3,733.94,131.18,742.8Z" />
</svg>