<svg id="Capa_1" data-name="Capa 1" xmlns="http://www.w3.org/2000/svg" viewBox="0 0 1080 1350">
    <defs>
        <style>
            .cls-1{fill:#434342;}.cls-14{fill:#c4c2c1;}.cls-2{fill:#413d49;}.cls-3{fill:#18161c;}.cls-4{fill:#898b8d;}.cls-5{fill:#9fa1a2;}.cls-6{fill:#646669;}.cls-7{fill:#c1c3c4;}.cls-8{fill:#808487;}.cls-9{fill:#aaacae;}.cls-10{fill:#abadaf;}.cls-11{fill:#b455b4;}.cls-12{fill:#36323e;}.cls-13{fill:#d566d6;}.cls-15{fill:#1d232a;}.cls-16{fill:#fff;}</style>
    </defs>
    <polygon class="cls-1"
        points="848.75 743.29 833.99 749.69 917.6 906.86 932.36 900.46 848.75 743.29" />
    <path class="cls-1"
        d="M890.49,806.76l-41.13-78.59-28.08,14.05,41.13,78.58c1,1.92,8,.33,15.78-3.54S891.45,808.68,890.49,806.76Z" />
    <path class="cls-1"
        d="M838.66,735.07a17.21,17.21,0,0,1-3.76,2.19c-2.47,1-3.87,1.12-5.08-1.16l-1.51-2.84-3.41-6.4-8.15-15.34q-10.11-19-20.21-38L774,631.12q-10.76-20.22-21.5-40.43l-17.05-32q-4.57-8.62-9.17-17.24l-.72-1.35,9.8-4.25L741,546.48l14.74,27.7,20.38,38.32L798.73,655q10.71,20.13,21.41,40.25L837,726.84c.73,1.39,1.48,2.77,2.21,4.16.49.93,1.08,1.65.67,2.7A4,4,0,0,1,838.66,735.07Z" />
    <path class="cls-2"
        d="M163.07,375.66c-59.21-34.18-107.19-6.82-107.19,61.1s48,150.7,107.19,184.88,107.17,6.81,107.17-61.11S222.26,409.83,163.07,375.66Zm0,221.46c-47.39-27.36-85.82-93.63-85.82-148s38.43-76.28,85.82-48.92,85.8,93.62,85.8,148S210.46,624.48,163.07,597.12Z" />
    <path class="cls-3"
        d="M87.27,395.78c-40.62,4.93-52.92,21.24-54,79.88s30.94,97.51,64,132.75S185.53,643,201,632.8s-19.69-21.36-19.69-21.36-23.6,4-60.88-36.46S70.12,499.15,65.24,473.49s9.18-66.1,9.18-66.1Z" />
    <path class="cls-4"
        d="M158.67,402.75C111.28,375.39,50.18,415.31,50.18,469.7S88.6,590.34,136,617.7s108.5-12.56,108.5-67S206.07,430.11,158.67,402.75Zm0,180.37C119.25,560.36,87.29,505.24,87.29,460s32-63.46,71.38-40.7,71.39,77.88,71.39,123.12S198.1,605.88,158.67,583.12Z" />
    <path class="cls-5"
        d="M204.64,591a35.22,35.22,0,0,1-5.2,5c-19.89-11.46-33.74-34.63-48.44-58.85-8.56,7.1-19.29,35.08-16.06,53.89-1.89-1.23-3.77-2.53-5.61-3.91-9.07-26.81-2.82-61.32-.36-84-7.56-7.08-15.06-6.85-21.28-5.86a64.11,64.11,0,0,0-19.19,6.77c-.85-2.47-1.62-4.94-2.33-7.42,10.75-13.64,23.53-25.5,42.08-24.26-7.62-18-30.95-27.49-44.69-40.57a35.49,35.49,0,0,1,5.23-5C108.71,438.17,138.69,448.8,153,473c8.55-7.1,6.74-27.44,3.5-46.25,1.9,1.23,3.79,2.55,5.64,3.93,9.11,26.82,15.59,54,12.88,76.38,7.56,7.08,15.06,6.85,21.28,5.86a64,64,0,0,0,19.19-6.77c.84,2.45,1.62,4.91,2.31,7.37-10.78,13.56-23.48,25.14-42.06,24.31C183.38,555.76,190.91,577.91,204.64,591Z" />
    <path class="cls-6"
        d="M171.88,516.5c0,12.6-8.9,17.67-19.87,11.33s-19.87-21.68-19.87-34.27S141,475.89,152,482.23,171.88,503.91,171.88,516.5Z" />
    <path class="cls-7"
        d="M204.64,591a35.22,35.22,0,0,1-5.2,5c-19.89-11.46-51.53-24.36-66.23-48.58-8.55,7.1-1.5,24.81,1.73,43.62-1.89-1.23-3.77-2.53-5.61-3.91-9.07-26.81-20.6-51.05-18.14-73.78-7.56-7.07-15.06-6.84-21.28-5.85a63.84,63.84,0,0,0-19.19,6.77c-.85-2.47-1.63-5-2.33-7.42,10.75-13.64,23.53-25.51,42.08-24.26-7.62-18-13.17-37.76-26.91-50.84a35.49,35.49,0,0,1,5.23-5c19.92,11.45,32.12,32.35,46.45,56.51,8.55-7.09,20-30.19,16.77-49,1.9,1.23,3.79,2.55,5.64,3.93,9.11,26.82,2.32,56.76-.39,79.14,7.56,7.08,15.06,6.85,21.28,5.85,6.9-1.1,23.29-10.23,29.28-13.32.84,2.45,1.62,4.91,2.31,7.37-10.78,13.56-33.57,31.7-52.15,30.87C165.6,566,190.91,577.91,204.64,591Z" />
    <path class="cls-8"
        d="M154.1,526.77c0,12.59-8.9,17.66-19.87,11.33s-19.88-21.68-19.88-34.28,8.9-17.66,19.88-11.33S154.1,514.18,154.1,526.77Z" />
    <ellipse class="cls-9" cx="131.12" cy="517.34" rx="16.17" ry="28.02"
        transform="translate(-243.17 136.89) rotate(-30.31)" />
    <path class="cls-10"
        d="M127.58,420.68c-47.39-27.36-85.8-5.47-85.8,48.92s38.41,120.64,85.8,148,85.82,5.46,85.82-48.92S175,448,127.58,420.68Zm0,180.37C88.16,578.29,56.2,523.17,56.2,477.93s32-63.46,71.39-40.7S199,515.12,199,560.35,167,623.81,127.59,601.05Z" />
    <path class="cls-2"
        d="M95.77,364.07c-26.09,8.86-58.34,27.75-67.86,46.19s26.74-5.69,51-7.27,44.3.54,69.61,22.95,69.23,71.85,72,140.54S176.18,660,190.17,656.35,236,634.58,247,623.57s15.78-37.49,13.07-83.19-34.84-98.12-57-122-95.4-50.75-95.4-50.75Z" />
    <path class="cls-11" d="M113.64,412.5c.11-.08.2-.16.31-.23-.25.18-.49.36-.72.56Z" />
    <path class="cls-11" d="M162,573.81c.61.4,1.2.79,1.81,1.17l-.88-.56Z" />
    <path class="cls-11"
        d="M172,417.79c.31.2.63.41.93.62q-.9-.62-1.8-1.17C171.4,417.41,171.7,417.6,172,417.79Z" />
    <path class="cls-12"
        d="M123.17,398.7C64,364.51,16,391.87,16,459.8S64,610.49,123.17,644.67s107.18,6.81,107.18-61.11S182.37,432.87,123.17,398.7Zm0,221.45c-47.4-27.36-85.81-93.63-85.81-148s38.41-76.28,85.81-48.91S209,516.84,209,571.22,170.56,647.51,123.17,620.15Z" />
    <path class="cls-13" d="M64.93,440.62l.31-.22c-.24.18-.49.36-.72.55Z" />
    <path class="cls-13" d="M113.33,601.93q.9.6,1.8,1.17l-.87-.56Z" />
    <path class="cls-13"
        d="M123.28,445.91l.92.62c-.6-.41-1.19-.79-1.8-1.17C122.69,445.53,123,445.73,123.28,445.91Z" />
    <path class="cls-2"
        d="M922.09,792.17C862.9,758,814.91,785.36,814.91,853.29s48,150.69,107.18,184.87S1029.27,1045,1029.27,977,981.28,826.35,922.09,792.17Zm0,221.46c-47.38-27.36-85.81-93.63-85.81-148s38.43-76.28,85.81-48.92,85.81,93.63,85.81,148S969.49,1041,922.09,1013.63Z" />
    <path class="cls-3"
        d="M841,818.35c-36.76,14.91-59.6,25.84-48,94.93s49.31,112.86,82.79,130,61.45,19.84,78.59,5.17-.94-10.47-30-22.46-57.76-47-72.55-79.75-20.06-48-21.91-61.44,0-50.16,0-50.16Z" />
    <path class="cls-4"
        d="M917.69,819.26C870.3,791.9,812,826.9,812,881.28s38.42,120.65,85.81,148,105.74-7.64,105.74-62S965.09,846.62,917.69,819.26Zm0,180.38c-39.42-22.77-71.38-77.89-71.38-123.13s32-63.45,71.38-40.69,71.38,77.88,71.38,123.12S957.12,1022.4,917.69,999.64Z" />
    <path class="cls-5"
        d="M973,934.66a2.61,2.61,0,0,1-.22-.51c-.68-3.2-1.52-6.36-2.35-9.51a58.15,58.15,0,0,1-15.06,4.76c-6.22,1-13.72,1.23-21.28-5.85,2.71-22.38-3.77-49.56-12.88-76.38-1.85-1.38-3.74-2.7-5.64-3.93,3.23,18.81,5.05,39.15-3.5,46.25-14.33-24.17-42.78-36.36-62.71-47.81a35.43,35.43,0,0,0-5.22,5c13.74,13.08,35.54,24.16,43.16,42.13C868.73,887.53,856,899.4,845.2,913c.7,2.47,1.48,5,2.33,7.42a64.11,64.11,0,0,1,19.19-6.77c6.22-1,13.72-1.22,21.28,5.85-2.46,22.73-6.62,59.71,2.45,86.52,1.84,1.37,3.72,2.68,5.61,3.91-3.23-18.82,5.41-49.26,14-56.36,8.47,24.38,26.57,45.42,46.45,56.88a35.15,35.15,0,0,0,5.2-5c-13.73-13.08-19.26-33.26-26.88-51.22C951.19,955.05,963,946.1,973,934.66Z" />
    <path class="cls-7"
        d="M959.07,1003.64a35.68,35.68,0,0,1-5.2,5c-19.89-11.46-46.93-20.5-61.63-44.71-8.55,7.1.59,27.27,3.82,46.09-1.89-1.23-3.77-2.54-5.61-3.91-9.07-26.81-22.69-53.52-20.23-76.25-7.56-7.08-15.06-6.85-21.28-5.85-6.9,1.1-8.17-.83-14.17,2.26-.85-2.47-1.62-4.94-2.33-7.41,10.75-13.65,18.51-21,37.06-19.77-7.62-18-14.26-39.31-28-52.39a36,36,0,0,1,5.23-5c19.93,11.45,33.21,33.91,47.54,58.07,8.55-7.1,6.73-27.43,3.5-46.25q2.85,1.86,5.64,3.93c9.1,26.83,15.59,54,12.88,76.39,7.56,7.07,15.06,6.84,21.28,5.85a63.84,63.84,0,0,0,19.19-6.77q1.26,3.68,2.31,7.37c-10.78,13.56-23.49,25.14-42.06,24.31C924.63,982.55,945.34,990.56,959.07,1003.64Z" />
    <path class="cls-2"
        d="M1006.69,1039.53c-17.21,16.53-56.5,33-56.5,33s14.63-33.61,20.56-46.66-.46-75.62-7-100.63-38-67.87-66.35-85.8-123.2,5.06-109-15S843,783.23,857.3,779.78s72.67,16.64,103.26,54,41.05,57.53,48.43,84,7.91,58.5,3.16,83.6S1006.69,1039.53,1006.69,1039.53Z" />
    <path class="cls-10"
        d="M886.6,837.19c-47.39-27.36-85.81-5.46-85.81,48.92s38.42,120.64,85.81,148,85.82,5.46,85.82-48.92S934,864.55,886.6,837.19Zm0,180.37c-39.42-22.76-71.38-77.88-71.38-123.12s32-63.46,71.38-40.69S958,931.63,958,976.87,926,1040.33,886.6,1017.56Z" />
    <path class="cls-12"
        d="M882.19,815.21C823,781,775,808.4,775,876.31s48,150.7,107.17,184.87,107.19,6.83,107.19-61.11S941.39,849.39,882.19,815.21Zm0,221.45c-47.38-27.36-85.81-93.62-85.81-148s38.43-76.27,85.81-48.91S968,933.36,968,987.74,929.6,1064,882.19,1036.66Z" />
    <path id="BODY" class="cls-14"
        d="M213.37,514.49l16.37-4.1s6.43,34.17,7.61,43,6.73,49.77,7.44,54.09l.71,4.33.42,2.44s0-1.79,0-3.43.12-5.76.12-5.76.51-6,.58-6.55,1.68-9.63,2-10.84A24.42,24.42,0,0,1,251,581.5a20,20,0,0,1,3.42-4.27,25.82,25.82,0,0,1,4-1.91c.45-.08,2.92.49,3.62.12s5.43.23,5.43.23l4.81,1,3.89,1.47-.62-4.11-1.81-12.89,16.7-2.45.26,1.94,2.93,19.76,1.1,6.5s-.14-6.76-.11-7.58.38-6.27.44-6.8,1.15-8,1.32-8.86,1.52-6.24,2.07-7.58,2.11-4.73,3.58-6,2.29-2.21,4.23-2.63a41,41,0,0,1,5.35-.53s5.06.74,5.48.82a51.28,51.28,0,0,1,6.38,1.72c1.75.72,7.69,3.42,7.69,3.42L350.89,563s-1.76-3.14-2.25-4.23-2.21-5.78-2.41-6.54-.48-1.85-.62-2.62-.41-2.6-.45-3a34.64,34.64,0,0,1-.11-4,31.55,31.55,0,0,1,.71-4.35,17,17,0,0,1,1.69-3.66,9.38,9.38,0,0,1,3.77-3.26,10.64,10.64,0,0,1,3-.84,15.93,15.93,0,0,1,4.6.38,32,32,0,0,1,4.13,1.61c.65.34,2.56,1.52,2.56,1.52l2.81,2.13,4.88,5,9.16-5.29s-.49-1.28-.53-1.37-.5-1.5-.57-1.76-.52-2-.57-2.27-.3-1.68-.35-2.15-.13-1.13-.13-1.13a3.58,3.58,0,0,1-.18-.42c0-.13-.69-1.19,1.11-3.72a24.83,24.83,0,0,1,4.63-5.46,87.42,87.42,0,0,1,7.52-5.38c1.21-.7,10.29-5.17,13.07-6.25s12.9-4.48,13.74-4.73,10.85-3,11.71-3.23,13.79-3.24,13.79-3.24,16-2.68,17.21-2.83,25.54-2.21,28.22-2.31,34.25,0,36.54.14,42.57,4,56.66,6.51A287.58,287.58,0,0,1,612.55,503s30.2,8.88,33.36,10,23,9.18,28.5,12.17,16.59,8.81,25.07,16.29,17.79,17.46,18.11,17.84S729.47,574,731,578.66s5.43,19.23,5.43,19.23,2.82,14,3.2,19.47a137,137,0,0,1,.33,14.82c-.21,2.5-.74,9.82-2.81,14.34s-3,6.22-3.87,7.32a32.74,32.74,0,0,1-4.18,4.42c-1.21.91-2.7,1.89-2.7,1.89l-7.82,5.05s2.52,15.89,1.3,21.85-1.53,7.36-2.6,10.2-5.06,12.1-6.51,15S687,753.94,680.76,763s-14,20.24-20.47,28.3-21.7,25.92-28,30.85-10,7.57-12.91,8.65a27.79,27.79,0,0,1-6.87,1.85,66,66,0,0,1-7.65-1.23l-2.24-.92S588.73,845.69,586.18,848s-7.41,6.2-8.18,6.74a79.24,79.24,0,0,1-6.92,4.06,26.33,26.33,0,0,1-4.63,1.61,25.79,25.79,0,0,1-4.71.49c-.92-.06-2.76,0-7.1-1.88s-30.8-15-30.8-15l-85.5-46L380,764.89l-50.2-29.84-41.09-26.17-27.66-20s-9.27-7.88-11.16-10.54a110.16,110.16,0,0,1-7.36-12.77c-1.24-2.85-5.31-14.13-5.31-14.13S232,632.4,230.52,624s-6.79-44.78-6.79-44.78l-4.55-33.7Z" />
    <path class="cls-14"
        d="M174.4,351.86c-23.23-2.81-51.68,18.64-51.09,28.44.57,9.28,52,27.42,74.95,57.74S270.92,541.1,270.92,541.1s20,20.73,33.14,21.46,50.54-22.69,48.71-28.12C331.43,524.79,309,488.66,309,488.66s-43.24-69.61-73.3-92.82S174.4,351.86,174.4,351.86Z" />
    <path class="cls-14"
        d="M239.11,390.56c-28.46-23.68-46.05-32.94-61.5-38.18S182,371,197.43,380.21s38.47,20.21,64.7,63.78,37.89,62.33,53.34,77.94,37.3,12.51,37.3,12.51S305.85,469.23,299.15,458,273.21,418.94,239.11,390.56Z" />
    <path class="cls-14"
        d="M190.4,418.68C162,395,144.35,385.74,128.91,380.5s4.37,18.58,19.82,27.83,38.47,20.21,64.7,63.78,37.88,62.34,53.33,77.94,37.3,12.51,37.3,12.51-46.92-65.21-53.62-76.44S224.5,447.06,190.4,418.68Z" />
    <path class="cls-14"
        d="M941.83,787.8c18.13,15.42-29.08,32.82-49.46,29.46-25.25-4.17-124.5,25.18-114.24-.08s48.57-54.46,87.57-55.44S941.83,787.8,941.83,787.8Z" />
    <path class="cls-14"
        d="M893.12,815.92c4.66,3.06-24.19,1.42-34.68,5.06s-16.61,21.18-27.1,25.15-35-4.14-41.68,11.06-11.07,33.4-17.78,37.89-10.2-35.32,3.5-71.56,44.3-34.62,57.42-33.73S868.35,799.61,893.12,815.92Z" />
    <path class="cls-15"
        d="M404.79,525.65a12.59,12.59,0,0,0-1.51-3.12c-2-3-5.24-5-8.51-6.51-9-4.22-18.71-5.15-28.13-7.8-8.94-2.51-18-3-26.39-7.62-14.48-8-30.89-32.22-31.53-41.29s-21.88-35.7-27-37.34a20.6,20.6,0,0,0-10.3-.26s-53.11,17.14-48.71,28.12C234.85,457,249,499,263.5,516s36.28,27.26,61.71,33.58,46.14-2.23,51.94-2.56c2-.12,4.12-1.45,5.84-2.32,3.39-1.69,6.7-3.58,10-5.48,2-1.16,4-2.33,5.95-3.52,1.5-.89,4.16-1.86,5.3-3.13C405.77,530.88,405.59,528.06,404.79,525.65Z" />
    <path class="cls-1"
        d="M801.3,605c-7.63-4.41-17.17-4.52-19.55-3.67-6.62,2.37-12.07,14.86-9,22.09a21.31,21.31,0,0,0,12.86,10.24C789.71,634.77,801.3,605,801.3,605Z" />
    <path class="cls-1"
        d="M781,625.62c0,7.38,5.22,10.35,11.65,6.64s11.65-12.71,11.65-20.09-5.22-10.36-11.65-6.64S781,618.24,781,625.62Z" />
    <path class="cls-1"
        d="M783.7,625.11c0,6.22,4.39,8.72,9.81,5.59s9.81-10.7,9.81-16.92-4.4-8.71-9.81-5.59S783.7,618.9,783.7,625.11Z" />
    <path class="cls-1"
        d="M785.64,620.93c0,2.87,2,4,4.53,2.58a10,10,0,0,0,4.53-7.81c0-2.87-2-4-4.53-2.59A10,10,0,0,0,785.64,620.93Z" />
    <path class="cls-1"
        d="M727.8,287.83l-16.92-11.07,36.56-43h0c.7-1.36,2.3-2.25,4.63-2.35,4.63-.2,9.09,4.52,11.56,8.4,1.22,1.91,1.41,3.68.74,5h0l0,.06h0Z" />
    <path class="cls-1"
        d="M727.1,282.74c2.47,3.88.72,7.19-3.9,7.39s-9.09-4.53-11.56-8.41-.72-7.18,3.9-7.39S724.63,278.86,727.1,282.74Z" />
    <path class="cls-1"
        d="M906,942.93c0,13.38-9.45,18.77-21.11,12s-21.11-23-21.11-36.42,9.45-18.77,21.11-12S906,929.55,906,942.93Z" />
    <path class="cls-1"
        d="M778.77,595.92c-21.86-12.62-71.18-27.34-79.62,1.55-8.56,29.31,33.32,65.76,43.15,65.16S778.77,595.92,778.77,595.92Z" />
    <path class="cls-1"
        d="M731.49,644c0,17.18,12.14,24.1,27.12,15.46s27.11-29.59,27.11-46.77-12.13-24.11-27.11-15.46S731.49,626.83,731.49,644Z" />
    <path class="cls-16"
        d="M739.77,641.69c0,13.22,9.34,18.54,20.86,11.89s20.85-22.75,20.85-36-9.34-18.54-20.85-11.89S739.77,628.48,739.77,641.69Z" />
    <polygon class="cls-1"
        points="799.17 776.06 784.41 782.46 868.01 939.63 882.77 933.23 799.17 776.06" />
    <path class="cls-1"
        d="M846.67,850.7l-41.13-78.59-28.08,14,41.13,78.58c1,1.92,8,.33,15.78-3.55S847.63,852.62,846.67,850.7Z" />
    <polygon class="cls-1"
        points="796.68 777.14 786.89 781.38 675.95 572.83 685.74 568.58 796.68 777.14" />
    <path class="cls-1"
        d="M651.45,588a60.28,60.28,0,0,1-48.54-24.48L507.32,434.22A15.42,15.42,0,0,0,486,430.9l-9.27-12.83A31.32,31.32,0,0,1,520,424.81l95.58,129.25a44.5,44.5,0,0,0,58.08,12.08L743.23,526A44.58,44.58,0,0,0,763,472.73L706.4,310.8a33.25,33.25,0,0,1,11-37.21l5.45,5.78,4.85,6.25c-6.48,5.05-8.79,12.89-6.32,20l56.61,161.93a60.42,60.42,0,0,1-26.8,72.2l-69.53,40.13A60.11,60.11,0,0,1,651.45,588Z" />
    <path class="cls-1"
        d="M431.14,457.15l-4.64-18.51,53.21-25.5h0c1.5-.31,3.2.38,4.74,2.13,3.05,3.49,4.84,8.3,3.36,12.66-.72,2.14-2,3.39-3.44,3.71h-.07Z" />
    <path class="cls-1"
        d="M434.67,453.42c-1.48,4.36-5.15,5.06-8.2,1.58s-4.85-8.29-3.37-12.65,5.16-5.06,8.21-1.58S436.15,449.06,434.67,453.42Z" />
    <path class="cls-1"
        d="M727.31,642.67c-7.63-4.4-17.17-4.52-19.55-3.67-6.62,2.37-12.06,14.87-9,22.1a21.34,21.34,0,0,0,12.86,10.23C715.72,672.48,727.31,642.67,727.31,642.67Z" />
    <path class="cls-1"
        d="M707,663.33c0,7.39,5.22,10.36,11.65,6.65s11.65-12.71,11.65-20.1-5.22-10.35-11.65-6.64S707,656,707,663.33Z" />
    <path class="cls-1"
        d="M709.71,662.83c0,6.21,4.39,8.72,9.81,5.59s9.81-10.7,9.81-16.92-4.4-8.72-9.81-5.59S709.71,656.61,709.71,662.83Z" />
    <path class="cls-1"
        d="M711.65,658.64c0,2.87,2,4,4.53,2.58a10,10,0,0,0,4.53-7.81c0-2.87-2-4-4.53-2.58A10,10,0,0,0,711.65,658.64Z" />
</svg>