<?xml version="1.0" encoding="utf-8"?>
<svg version="1.1" id="Capa_1" xmlns="http://www.w3.org/2000/svg" xmlns:xlink="http://www.w3.org/1999/xlink" x="0px" y="0px"
	 viewBox="0 0 32 32" style="enable-background:new 0 0 32 32;" xml:space="preserve">
<style type="text/css">
	.st0{fill:#45E845;}
</style>
<g>
	<path class="st0" d="M4.8,13.5l7.3-1.1l1.1-7.3c0-0.1,0.2-0.1,0.2,0l9.8,18.3c0,0.1,0,0.1-0.1,0.1L4.7,13.7
		C4.6,13.7,4.7,13.5,4.8,13.5z"/>
	<path d="M4.4,13.3c0.1-0.1,0.2-0.1,0.3-0.1l0,0l7-1l1-7c0-0.2,0.2-0.4,0.4-0.4c0.2,0,0.4,0.1,0.5,0.3l9.8,18.3
		c0.2,0.4-0.3,0.8-0.6,0.6L4.5,14.1c-0.2-0.1-0.3-0.3-0.3-0.5C4.3,13.4,4.3,13.3,4.4,13.3z M22.3,22.7L13.4,6.1l-1,6.7l-6.7,1
		L22.3,22.7z M23.2,23.2C23.2,23.2,23.2,23.2,23.2,23.2L23.2,23.2z M22.8,23.6L22.8,23.6L22.8,23.6z"/>
</g>
</svg>
