<svg id="Capa_1" data-name="Capa 1" xmlns="http://www.w3.org/2000/svg" viewBox="0 0 59.28 59.28"><defs><style>.cls-1{fill:#599eff;}.cls-2{fill:#fff;}</style></defs><rect class="cls-1" width="59.28" height="59.28" rx="7.18"/><polygon class="cls-2" points="23.67 5.54 23.67 26.23 41.58 15.88 23.67 5.54"/><rect class="cls-2" x="4.08" y="31.56" width="51.12" height="12.58" rx="6.29"/><path class="cls-1" d="M364.17,419.53h-8.09L350.36,418h-7.47L337,419.53h-7.92a4.45,4.45,0,0,1-4.46-4.46h0a4.46,4.46,0,0,1,4.46-4.46h8l5.8,1.42h7.47l5.22-1.42h8.59a4.46,4.46,0,0,1,4.46,4.46h0A4.46,4.46,0,0,1,364.17,419.53Z" transform="translate(-316.98 -377.22)"/><circle class="cls-2" cx="29.64" cy="37.85" r="1.94"/><rect class="cls-2" x="25.45" y="44.14" width="8.38" height="8.26"/><rect class="cls-2" x="20.1" y="52.4" width="19.04" height="2.24"/></svg>