<?xml version="1.0" encoding="UTF-8"?>
<!DOCTYPE svg PUBLIC "-//W3C//DTD SVG 1.1//EN" "http://www.w3.org/Graphics/SVG/1.1/DTD/svg11.dtd">
<!-- Creator: CorelDRAW X7 -->
<svg xmlns="http://www.w3.org/2000/svg" xml:space="preserve" width="39.6875mm" height="6.082mm" version="1.1" style="shape-rendering:geometricPrecision; text-rendering:geometricPrecision; image-rendering:optimizeQuality; fill-rule:evenodd; clip-rule:evenodd"
viewBox="0 0 928 142"
 xmlns:xlink="http://www.w3.org/1999/xlink">
 <defs>
  <style type="text/css">
   <![CDATA[
    .fil0 {fill:#FEFEFE}
    .fil1 {fill:#FEFEFE;fill-rule:nonzero}
   ]]>
  </style>
 </defs>
 <g id="Capa_x0020_1">
  <metadata id="CorelCorpID_0Corel-Layer"/>
  <g id="osinergmin.cdr">
   <path class="fil0" d="M634 61c12,-3 17,13 7,16 -13,4 -17,-12 -7,-16zm-146 1c0,-4 4,-7 8,-7 5,-1 8,2 8,7l-16 0zm-82 41c0,-8 0,-16 0,-24 0,-6 -2,-17 6,-17 4,0 5,3 5,6 1,7 0,27 0,35l36 0 0 -27c1,4 1,6 5,12 7,11 21,17 34,18 11,0 21,-2 29,-6 6,-3 14,-10 16,-18l-34 0c-1,2 -4,7 -10,4 -4,-1 -6,-5 -5,-10l49 0 0 27 36 0c0,-6 -1,-24 0,-29 1,-4 4,-7 8,-8 3,-1 9,-1 13,1 0,4 -1,7 0,11 2,8 8,17 15,20 6,3 14,4 21,3 9,-2 13,-8 15,-9 1,10 -1,15 -10,17 -3,0 -16,1 -19,1 -2,0 -4,-1 -6,-1l1 24c10,4 26,4 37,1 18,-4 30,-15 31,-33 0,-6 1,-59 0,-63l-33 0 -1 8c-1,-1 -3,-3 -5,-4 -1,-1 -3,-3 -5,-4 -5,-2 -11,-2 -17,-1 -10,1 -17,8 -21,15l0 -16c-6,0 -11,1 -15,3 -3,1 -4,2 -6,4 -1,1 -3,3 -4,4l0 -9 -35 0 0 26c-2,-5 -2,-7 -6,-12 -14,-19 -47,-20 -64,-7 -10,7 -11,12 -14,21 -1,-8 1,-12 -3,-19 -7,-11 -22,-13 -32,-9 -8,2 -11,7 -13,9l0 -9 -34 0c-1,3 -1,59 -1,65l36 0z"/>
   <path class="fil0" d="M196 59c-1,-25 34,-25 35,-3 1,24 -34,25 -35,3zm72 5c3,4 3,8 12,12 6,2 17,3 17,6 -1,5 -9,4 -13,2 -4,-1 -8,-4 -11,-5 -1,1 -9,17 -10,20 3,2 13,4 17,5 15,3 33,3 45,-7 1,-1 5,-5 5,-6l1 12 35 0 0 -65 -35 0 0 35c-10,-12 -30,-9 -30,-15 2,-8 17,2 21,3 1,-2 7,-17 8,-19 -3,-3 -13,-5 -16,-5 -15,-2 -36,-1 -44,14l-1 2c-7,-61 -110,-56 -111,3 -1,48 61,64 94,36 4,-3 6,-5 9,-10 4,-5 6,-11 7,-18z"/>
   <path class="fil0" d="M4 124l0 -37c1,3 3,12 4,14l13 -6c1,1 1,3 2,5 7,10 16,18 27,22 1,0 1,0 2,0l1 1 -49 1zm100 -16l5 -3c7,-3 14,-8 19,-15 1,-1 4,-6 5,-8l0 41 -33 0c3,-1 8,-1 10,-3l-6 -12zm-45 -90c25,0 39,8 48,30 1,2 2,6 4,8 3,-1 6,-4 9,-5 0,19 -6,32 -23,41 -2,1 -4,2 -7,3 -2,1 -7,2 -8,3l3 13c-15,-1 -25,-1 -36,-9 -6,-5 -14,-18 -15,-29 -4,1 -9,5 -13,7 -5,-28 15,-46 41,-51 0,-3 -3,-8 -3,-11zm-55 37c-1,-4 -1,-45 0,-52l33 0c-1,2 -3,1 -6,3l6 14c-7,3 -16,8 -21,14 -4,4 -12,15 -12,21zm113 -23c-1,-1 -2,-4 -2,-6 -10,-18 -28,-20 -32,-23l50 0 0 25 -1 -2c-5,1 -10,5 -15,6zm-117 -32l0 127 136 0 0 -127 -136 0z"/>
   <path class="fil0" d="M681 104l32 0c3,-14 -4,-42 5,-42 8,0 5,13 5,19 0,7 0,16 1,23 2,1 30,1 32,0 1,-6 0,-16 0,-23 0,-6 -2,-18 6,-18 7,0 5,12 5,18 0,8 0,15 0,23l32 0c0,-10 0,-19 0,-29 0,-9 1,-20 -3,-27 -6,-11 -22,-13 -31,-8 -4,2 -6,4 -8,6l-1 -7c-4,-1 -12,0 -16,0 -5,0 -13,-2 -16,0l-1 6c-4,-3 -6,-9 -20,-9 -10,1 -16,5 -19,11 -4,7 -3,18 -3,27 0,5 -1,27 0,30z"/>
   <path class="fil0" d="M876 48l0 -8 -34 0c-1,3 -1,62 0,65l35 0c1,-6 0,-17 0,-23 0,-7 -2,-18 5,-18 8,-1 6,11 6,17 0,7 0,18 0,24l36 0 0 -32c0,-10 1,-19 -5,-26 -8,-12 -29,-12 -39,-2l-4 3z"/>
   <polygon class="fil0" points="803,45 803,47 803,105 805,105 836,105 838,105 838,40 803,40 "/>
   <path class="fil0" d="M330 35l36 0c0,-3 0,-21 0,-23l-36 0 0 23z"/>
   <polygon class="fil0" points="802,37 838,37 838,14 802,13 "/>
   <path class="fil0" d="M179 128c3,-11 -10,-13 -12,-5 -3,11 10,14 12,5z"/>
   <g>
    <path class="fil1" d="M164 127c0,-3 1,-5 2,-7 2,-2 4,-3 7,-3 2,0 3,1 5,1 1,1 2,2 3,4 1,1 1,3 1,5 0,2 0,4 -1,5 -1,2 -2,3 -3,4 -2,1 -3,1 -5,1 -2,0 -3,-1 -5,-1 -1,-1 -2,-2 -3,-4 -1,-1 -1,-3 -1,-5zm2 0c0,3 1,4 2,6 2,1 3,2 5,2 2,0 3,-1 5,-2 1,-2 1,-3 1,-6 0,-1 0,-3 0,-4 -1,-1 -2,-2 -3,-3 -1,0 -2,-1 -3,-1 -2,0 -3,1 -5,2 -1,1 -2,3 -2,6zm19 10l0 -14 2 0 0 2c1,-1 1,-2 2,-2 0,0 1,-1 1,-1 1,0 2,1 3,1l-1 2c-1,0 -1,0 -2,0 -1,0 -1,0 -1,0 -1,1 -1,1 -1,2 -1,0 -1,1 -1,2l0 8 -2 0zm8 1l3 0c0,1 0,1 1,2 0,0 1,0 2,0 1,0 2,0 2,0 1,-1 1,-1 2,-2 0,-1 0,-2 0,-3 -1,1 -3,2 -4,2 -2,0 -3,-1 -4,-2 -2,-2 -2,-3 -2,-5 0,-2 0,-3 1,-4 0,-1 1,-2 2,-3 1,0 2,-1 3,-1 2,0 3,1 4,2l0 -1 2 0 0 12c0,2 0,3 -1,4 0,1 -1,2 -2,2 -1,1 -2,1 -3,1 -2,0 -3,0 -4,-1 -1,-1 -2,-2 -2,-3zm2 -9c0,2 1,4 1,4 1,1 2,2 3,2 1,0 2,-1 3,-2 1,0 1,-2 1,-3 0,-2 0,-3 -1,-4 -1,-1 -2,-2 -3,-2 -1,0 -2,1 -3,2 0,1 -1,2 -1,3zm23 6c-1,1 -2,1 -3,1 -1,1 -1,1 -2,1 -2,0 -3,-1 -4,-1 -1,-1 -1,-2 -1,-3 0,-1 0,-1 0,-2 1,0 1,-1 2,-1 0,-1 1,-1 1,-1 1,0 1,0 2,0 2,-1 4,-1 5,-1 0,-1 0,-1 0,-1 0,-1 -1,-1 -1,-2 -1,0 -2,-1 -3,-1 -1,0 -2,1 -2,1 -1,0 -1,1 -1,2l-3 0c0,-1 1,-2 1,-3 1,0 1,-1 2,-1 1,0 2,-1 4,-1 1,0 2,1 2,1 1,0 2,1 2,1 0,0 1,1 1,2 0,0 0,1 0,2l0 3c0,2 0,3 0,4 0,0 0,1 1,2l-3 0c0,-1 0,-1 0,-2zm0 -5c-1,0 -3,0 -4,1 -1,0 -2,0 -2,0 -1,0 -1,0 -1,1 -1,0 -1,0 -1,1 0,0 1,1 1,1 1,1 1,1 2,1 1,0 2,0 3,-1 0,0 1,0 1,-1 0,-1 1,-1 1,-2l0 -1zm5 7l0 -14 3 0 0 2c1,-2 2,-3 4,-3 1,0 2,1 2,1 1,0 1,1 2,1 0,1 0,1 1,2 0,0 0,1 0,2l0 9 -3 0 0 -9c0,-1 0,-1 0,-2 0,0 0,-1 -1,-1 0,0 -1,-1 -2,-1 -1,0 -1,1 -2,1 -1,1 -1,2 -1,4l0 8 -3 0zm15 -17l0 -2 3 0 0 2 -3 0zm0 17l0 -14 3 0 0 14 -3 0zm5 -5l3 0c0,1 0,2 1,2 0,1 1,1 2,1 1,0 2,0 3,-1 0,0 0,-1 0,-1 0,-1 0,-1 0,-1 -1,-1 -1,-1 -3,-1 -1,-1 -3,-1 -3,-1 -1,-1 -1,-1 -2,-2 0,0 0,-1 0,-2 0,0 0,-1 0,-1 0,-1 1,-1 1,-2 1,0 1,0 2,0 0,0 1,-1 2,-1 1,0 2,1 3,1 0,0 1,1 1,1 1,1 1,1 1,2l-2 1c0,-1 0,-2 -1,-2 0,0 -1,-1 -2,-1 -1,0 -2,1 -2,1 -1,0 -1,1 -1,1 0,0 0,1 0,1 0,0 1,0 1,1 0,0 1,0 2,0 2,1 3,1 4,1 0,1 1,1 1,2 1,0 1,1 1,2 0,0 0,1 -1,2 0,0 -1,1 -2,1 -1,1 -2,1 -3,1 -2,0 -3,-1 -4,-1 -1,-1 -1,-2 -2,-4zm15 5l0 -14 2 0 0 2c0,-1 1,-2 1,-2 1,0 2,-1 3,-1 1,0 2,1 2,1 1,1 1,1 2,2 1,-2 2,-3 4,-3 1,0 2,1 3,2 1,0 1,2 1,3l0 10 -2 0 0 -9c0,-1 0,-2 0,-2 0,-1 -1,-1 -1,-1 -1,0 -1,-1 -2,-1 -1,0 -1,1 -2,1 -1,1 -1,2 -1,4l0 8 -2 0 0 -9c0,-1 0,-2 -1,-3 0,0 -1,-1 -2,-1 0,0 -1,1 -2,1 0,0 -1,1 -1,2 0,0 0,1 0,2l0 8 -2 0zm21 -7c0,-3 1,-5 2,-6 1,-1 3,-2 4,-2 2,0 4,1 5,2 1,2 2,3 2,5 0,2 -1,4 -1,5 -1,1 -1,1 -2,2 -1,1 -3,1 -4,1 -2,0 -3,-1 -4,-2 -2,-1 -2,-3 -2,-5zm2 0c0,1 1,3 1,4 1,1 2,1 3,1 1,0 2,0 3,-1 1,-1 1,-3 1,-4 0,-2 0,-3 -1,-4 -1,-1 -2,-2 -3,-2 -1,0 -2,1 -3,2 0,1 -1,2 -1,4zm20 0l3 0c0,1 0,2 0,3 1,0 2,1 2,1 1,0 2,1 3,1 1,0 2,0 3,-1 1,0 1,0 2,-1 0,0 0,-1 0,-2 0,0 0,-1 0,-1 -1,-1 -1,-1 -2,-1 -1,0 -2,-1 -4,-1 -1,-1 -3,-1 -3,-1 -1,-1 -2,-1 -2,-2 -1,-1 -1,-2 -1,-3 0,-1 0,-1 1,-2 0,-1 1,-2 2,-2 1,-1 2,-1 4,-1 1,0 2,0 3,1 2,0 2,1 3,2 1,1 1,2 1,3l-2 0c-1,-1 -1,-2 -2,-3 -1,0 -2,-1 -3,-1 -2,0 -3,1 -3,1 -1,1 -2,2 -2,2 0,1 1,2 1,2 1,0 2,1 4,1 2,1 3,1 4,2 1,0 2,1 3,1 0,1 0,2 0,3 0,1 0,2 0,3 -1,1 -2,2 -3,2 -1,1 -2,1 -4,1 -1,0 -3,0 -4,-1 -1,0 -2,-1 -3,-2 0,-1 -1,-2 -1,-4zm28 7l0 -2c-1,1 -3,2 -5,2 -1,0 -1,0 -2,-1 -1,0 -1,0 -2,-1 0,0 0,-1 0,-2 0,0 0,-1 0,-2l0 -8 2 0 0 7c0,2 0,2 0,3 0,0 1,1 1,1 0,1 1,1 2,1 0,0 1,0 2,-1 0,0 1,-1 1,-1 0,-1 0,-2 0,-3l0 -7 3 0 0 14 -2 0zm5 5l0 -19 3 0 0 2c0,-1 1,-2 1,-2 1,0 2,-1 3,-1 1,0 2,1 3,1 1,1 1,2 2,3 0,1 0,2 0,4 0,1 0,2 0,3 -1,1 -2,2 -3,3 -1,1 -2,1 -3,1 0,0 -1,0 -2,-1 0,0 -1,0 -1,-1l0 7 -3 0zm3 -12c0,2 0,3 1,4 0,1 1,1 2,1 1,0 2,0 3,-1 1,-1 1,-3 1,-4 0,-2 0,-4 -1,-4 -1,-1 -2,-2 -3,-2 -1,0 -2,1 -2,2 -1,1 -1,2 -1,4zm22 2l2 0c0,2 -1,3 -2,4 -1,0 -2,1 -4,1 -2,0 -4,-1 -5,-2 -1,-1 -2,-3 -2,-5 0,-3 1,-4 2,-6 1,-1 3,-2 5,-2 2,0 3,1 4,2 2,2 2,3 2,6 0,0 0,0 0,0l-10 0c0,2 0,3 1,4 1,1 2,1 3,1 1,0 2,0 2,-1 1,0 1,-1 2,-2zm-8 -4l8 0c0,-1 -1,-2 -1,-2 -1,-1 -2,-2 -3,-2 -1,0 -2,1 -3,1 -1,1 -1,2 -1,3zm13 9l0 -14 2 0 0 2c1,-1 1,-2 2,-2 0,0 1,-1 1,-1 1,0 2,1 3,1l-1 2c-1,0 -1,0 -2,0 -1,0 -1,0 -1,0 -1,1 -1,1 -1,2 -1,0 -1,1 -1,2l0 8 -2 0zm13 0l-6 -14 3 0 3 8c0,1 1,2 1,3 0,-1 0,-2 1,-3l3 -8 2 0 -5 14 -2 0zm9 -17l0 -2 3 0 0 2 -3 0zm0 17l0 -14 3 0 0 14 -3 0zm5 -5l2 0c1,1 1,2 2,2 0,1 1,1 2,1 1,0 2,0 2,-1 1,0 1,-1 1,-1 0,-1 0,-1 0,-1 -1,-1 -2,-1 -3,-1 -2,-1 -3,-1 -3,-1 -1,-1 -2,-1 -2,-2 0,0 0,-1 0,-2 0,0 0,-1 0,-1 0,-1 1,-1 1,-2 1,0 1,0 2,0 0,0 1,-1 2,-1 1,0 2,1 3,1 0,0 1,1 1,1 1,1 1,1 1,2l-2 1c0,-1 -1,-2 -1,-2 -1,0 -1,-1 -2,-1 -1,0 -2,1 -2,1 -1,0 -1,1 -1,1 0,0 0,1 0,1 0,0 1,0 1,1 0,0 1,0 2,0 2,1 3,1 4,1 0,1 1,1 1,2 0,0 1,1 1,2 0,0 -1,1 -1,2 0,0 -1,1 -2,1 -1,1 -2,1 -3,1 -2,0 -3,-1 -4,-1 -1,-1 -2,-2 -2,-4zm14 -2c0,-3 0,-5 2,-6 1,-1 2,-2 4,-2 2,0 3,1 5,2 1,2 1,3 1,5 0,2 0,4 0,5 -1,1 -2,1 -3,2 -1,1 -2,1 -3,1 -2,0 -3,-1 -5,-2 -1,-1 -1,-3 -1,-5zm2 0c0,1 0,3 1,4 1,1 2,1 3,1 1,0 2,0 3,-1 1,-1 1,-3 1,-4 0,-2 0,-3 -1,-4 -1,-1 -2,-2 -3,-2 -1,0 -2,1 -3,2 -1,1 -1,2 -1,4zm13 7l0 -14 2 0 0 2c1,-1 1,-2 2,-2 0,0 1,-1 1,-1 1,0 2,1 3,1l-1 2c-1,0 -1,0 -2,0 0,0 -1,0 -1,0 -1,1 -1,1 -1,2 0,0 0,1 0,2l0 8 -3 0zm25 0l0 -2c0,1 -2,2 -3,2 -2,0 -3,0 -3,-1 -1,-1 -2,-1 -3,-3 0,-1 0,-2 0,-3 0,-2 0,-3 0,-4 1,-1 1,-2 2,-3 1,0 2,-1 3,-1 1,0 2,1 3,1 0,0 1,1 1,1l0 -6 3 0 0 19 -3 0zm-7 -7c0,1 0,3 1,4 1,1 2,1 3,1 1,0 2,0 2,-1 1,-1 1,-2 1,-4 0,-2 0,-3 -1,-4 0,-1 -1,-2 -2,-2 -1,0 -2,1 -3,2 -1,1 -1,2 -1,4zm23 2l2 0c0,2 -1,3 -2,4 -1,0 -2,1 -4,1 -2,0 -4,-1 -5,-2 -1,-1 -2,-3 -2,-5 0,-3 1,-4 2,-6 1,-1 3,-2 5,-2 2,0 3,1 4,2 2,2 2,3 2,6 0,0 0,0 0,0l-10 0c0,2 0,3 1,4 1,1 2,1 3,1 1,0 2,0 2,-1 1,0 1,-1 2,-2zm-8 -4l8 0c0,-1 -1,-2 -1,-2 -1,-1 -2,-2 -3,-2 -1,0 -2,1 -3,1 0,1 -1,2 -1,3zm20 9l0 -19 3 0 0 19 -3 0zm15 -2c0,1 -1,1 -2,1 -1,1 -2,1 -3,1 -1,0 -2,-1 -3,-1 -1,-1 -1,-2 -1,-3 0,-1 0,-1 0,-2 0,0 1,-1 1,-1 1,-1 1,-1 2,-1 0,0 1,0 2,0 2,-1 3,-1 4,-1 0,-1 0,-1 0,-1 0,-1 0,-1 0,-2 -1,0 -2,-1 -3,-1 -1,0 -2,1 -3,1 0,0 0,1 -1,2l-2 0c0,-1 1,-2 1,-3 0,0 1,-1 2,-1 1,0 2,-1 3,-1 1,0 2,1 3,1 1,0 1,1 2,1 0,0 0,1 0,2 1,0 1,1 1,2l0 3c0,2 0,3 0,4 0,0 0,1 0,2l-2 0c0,-1 -1,-1 -1,-2zm0 -5c-1,0 -2,0 -4,1 -1,0 -1,0 -2,0 0,0 0,0 -1,1 0,0 0,0 0,1 0,0 0,1 1,1 0,1 1,1 2,1 1,0 2,0 2,-1 1,0 1,0 2,-1 0,-1 0,-1 0,-2l0 -1zm14 7l0 -19 3 0 0 19 -3 0zm7 0l0 -14 2 0 0 2c1,-2 3,-3 4,-3 1,0 2,1 3,1 0,0 1,1 1,1 1,1 1,1 1,2 0,0 0,1 0,2l0 9 -2 0 0 -9c0,-1 0,-1 0,-2 -1,0 -1,-1 -1,-1 -1,0 -1,-1 -2,-1 -1,0 -2,1 -3,1 0,1 -1,2 -1,4l0 8 -2 0zm19 0l-6 -14 3 0 3 8c0,1 0,2 1,3 0,-1 0,-2 1,-3l3 -8 2 0 -5 14 -2 0zm19 -5l2 0c0,2 -1,3 -2,4 -1,0 -3,1 -4,1 -2,0 -4,-1 -5,-2 -1,-1 -2,-3 -2,-5 0,-3 1,-4 2,-6 1,-1 3,-2 5,-2 2,0 3,1 4,2 1,2 2,3 2,6 0,0 0,0 0,0l-10 0c0,2 0,3 1,4 1,1 2,1 3,1 1,0 1,0 2,-1 1,0 1,-1 2,-2zm-8 -4l8 0c-1,-1 -1,-2 -1,-2 -1,-1 -2,-2 -3,-2 -1,0 -2,1 -3,1 -1,1 -1,2 -1,3zm13 9l0 -14 2 0 0 2c0,-1 1,-2 1,-2 1,0 1,-1 2,-1 1,0 2,1 2,1l0 2c-1,0 -2,0 -2,0 -1,0 -1,0 -2,0 0,1 0,1 0,2 -1,0 -1,1 -1,2l0 8 -2 0zm8 -5l2 0c0,1 1,2 1,2 1,1 2,1 3,1 1,0 2,0 2,-1 1,0 1,-1 1,-1 0,-1 0,-1 -1,-1 0,-1 -1,-1 -2,-1 -2,-1 -3,-1 -4,-1 0,-1 -1,-1 -1,-2 -1,0 -1,-1 -1,-2 0,0 0,-1 1,-1 0,-1 0,-1 1,-2 0,0 1,0 1,0 1,0 2,-1 2,-1 1,0 2,1 3,1 1,0 2,1 2,1 0,1 1,1 1,2l-3 1c0,-1 0,-2 0,-2 -1,0 -2,-1 -3,-1 -1,0 -1,1 -2,1 0,0 -1,1 -1,1 0,0 1,1 1,1 0,0 0,0 1,1 0,0 1,0 2,0 1,1 3,1 3,1 1,1 1,1 2,2 0,0 0,1 0,2 0,0 0,1 0,2 -1,0 -2,1 -2,1 -1,1 -2,1 -3,1 -2,0 -3,-1 -4,-1 -1,-1 -2,-2 -2,-4zm14 -12l0 -2 2 0 0 2 -2 0zm0 17l0 -14 2 0 0 14 -2 0zm5 -7c0,-3 1,-5 2,-6 1,-1 3,-2 5,-2 1,0 3,1 4,2 1,2 2,3 2,5 0,2 0,4 -1,5 0,1 -1,1 -2,2 -1,1 -2,1 -3,1 -2,0 -4,-1 -5,-2 -1,-1 -2,-3 -2,-5zm2 0c0,1 1,3 2,4 0,1 1,1 3,1 1,0 2,0 2,-1 1,-1 2,-3 2,-4 0,-2 -1,-3 -2,-4 0,-1 -1,-2 -2,-2 -2,0 -3,1 -3,2 -1,1 -2,2 -2,4zm3 -9l1 -4 3 0 -2 4 -2 0zm11 16l0 -14 2 0 0 2c1,-2 2,-3 4,-3 1,0 2,1 3,1 0,0 1,1 1,1 0,1 1,1 1,2 0,0 0,1 0,2l0 9 -2 0 0 -9c0,-1 0,-1 -1,-2 0,0 0,-1 -1,-1 0,0 -1,-1 -1,-1 -1,0 -2,1 -3,1 -1,1 -1,2 -1,4l0 8 -2 0zm98 -5l2 0c0,2 -1,3 -2,4 -1,0 -2,1 -4,1 -2,0 -3,-1 -4,-2 -2,-1 -2,-3 -2,-5 0,-3 0,-4 2,-6 1,-1 2,-2 4,-2 2,0 4,1 5,2 1,2 1,3 1,6 0,0 0,0 0,0l-10 0c0,2 1,3 1,4 1,1 2,1 3,1 1,0 2,0 2,-1 1,0 2,-1 2,-2zm-8 -4l8 0c0,-1 0,-2 -1,-2 -1,-1 -2,-2 -3,-2 -1,0 -2,1 -3,1 0,1 -1,2 -1,3zm13 9l0 -14 2 0 0 2c1,-2 3,-3 5,-3 1,0 1,1 2,1 1,0 1,1 2,1 0,1 0,1 0,2 0,0 1,1 1,2l0 9 -3 0 0 -9c0,-1 0,-1 0,-2 0,0 -1,-1 -1,-1 -1,0 -1,-1 -2,-1 -1,0 -2,1 -2,1 -1,1 -1,2 -1,4l0 8 -3 0zm23 0l0 -19 14 0 0 2 -12 0 0 6 11 0 0 2 -11 0 0 6 12 0 0 3 -14 0z"/>
    <path class="fil1" d="M738 137l0 -14 2 0 0 2c1,-2 3,-3 5,-3 1,0 1,1 2,1 1,0 1,1 2,1 0,1 0,1 0,2 0,0 0,1 0,2l0 9 -2 0 0 -9c0,-1 0,-1 0,-2 0,0 -1,-1 -1,-1 -1,0 -1,-1 -2,-1 -1,0 -2,1 -2,1 -1,1 -1,2 -1,4l0 8 -3 0zm24 -5l3 0c0,2 -1,3 -2,4 -1,0 -3,1 -4,1 -2,0 -4,-1 -5,-2 -1,-1 -2,-3 -2,-5 0,-3 1,-4 2,-6 1,-1 3,-2 5,-2 2,0 3,1 4,2 1,2 2,3 2,6 0,0 0,0 0,0l-10 0c0,2 0,3 1,4 1,1 2,1 3,1 1,0 1,0 2,-1 1,0 1,-1 1,-2zm-7 -4l7 0c0,-1 0,-2 0,-2 -1,-1 -2,-2 -3,-2 -1,0 -2,1 -3,1 -1,1 -1,2 -1,3zm13 9l0 -14 2 0 0 2c0,-1 1,-2 1,-2 1,0 1,-1 2,-1 1,0 2,1 2,1l-1 2c0,0 -1,0 -1,0 -1,0 -1,0 -2,0 0,1 0,1 0,2 -1,0 -1,1 -1,2l0 8 -2 0zm8 1l3 0c0,1 0,1 0,2 1,0 2,0 3,0 1,0 2,0 2,0 1,-1 1,-1 1,-2 1,-1 1,-2 1,-3 -1,1 -3,2 -4,2 -2,0 -4,-1 -5,-2 -1,-2 -1,-3 -1,-5 0,-2 0,-3 1,-4 0,-1 1,-2 2,-3 0,0 2,-1 3,-1 1,0 3,1 4,2l0 -1 2 0 0 12c0,2 0,3 -1,4 0,1 -1,2 -2,2 -1,1 -2,1 -3,1 -2,0 -3,0 -4,-1 -1,-1 -2,-2 -2,-3zm2 -9c0,2 1,4 1,4 1,1 2,2 3,2 1,0 2,-1 3,-2 0,0 1,-2 1,-3 0,-2 -1,-3 -1,-4 -1,-1 -2,-2 -3,-2 -1,0 -2,1 -3,2 0,1 -1,2 -1,3zm14 8l0 -14 3 0 0 14 -3 0zm0 -16l1 -4 3 0 -2 4 -2 0zm16 14c-1,1 -2,1 -3,1 0,1 -1,1 -2,1 -2,0 -3,-1 -4,-1 0,-1 -1,-2 -1,-3 0,-1 0,-1 1,-2 0,0 0,-1 1,-1 0,-1 1,-1 1,-1 1,0 2,0 3,0 1,-1 3,-1 4,-1 0,-1 0,-1 0,-1 0,-1 0,-1 -1,-2 -1,0 -1,-1 -3,-1 -1,0 -2,1 -2,1 -1,0 -1,1 -1,2l-2 0c0,-1 0,-2 1,-3 0,0 1,-1 2,-1 1,0 2,-1 3,-1 1,0 2,1 3,1 0,0 1,1 1,1 1,0 1,1 1,2 0,0 0,1 0,2l0 3c0,2 0,3 0,4 0,0 1,1 1,2l-3 0c0,-1 0,-1 0,-2zm0 -5c-1,0 -2,0 -4,1 -1,0 -2,0 -2,0 -1,0 -1,0 -1,1 0,0 0,0 0,1 0,0 0,1 0,1 1,1 1,1 2,1 1,0 2,0 3,-1 1,0 1,0 1,-1 1,-1 1,-1 1,-2l0 -1zm13 12l0 -2c0,0 1,0 1,0 1,0 1,0 1,0 1,-1 1,-1 1,-1 0,0 0,-1 1,-2 0,0 0,0 0,0l-5 -14 2 0 3 8c1,1 1,2 1,3 0,-1 1,-2 1,-3l3 -8 2 0 -5 14c0,1 -1,2 -1,3 -1,1 -1,1 -2,2 0,0 -1,0 -1,0 -1,0 -1,0 -2,0zm21 -5l0 -19 4 0 4 13c1,1 1,2 1,3 0,-1 1,-2 1,-3l5 -13 3 0 0 19 -2 0 0 -16 -6 16 -2 0 -6 -17 0 17 -2 0zm22 -17l0 -2 2 0 0 2 -2 0zm0 17l0 -14 2 0 0 14 -2 0zm6 0l0 -14 2 0 0 2c1,-2 2,-3 4,-3 1,0 2,1 3,1 0,0 1,1 1,1 1,1 1,1 1,2 0,0 0,1 0,2l0 9 -2 0 0 -9c0,-1 0,-1 -1,-2 0,0 0,-1 0,-1 -1,0 -1,-1 -2,-1 -1,0 -2,1 -3,1 0,1 -1,2 -1,4l0 8 -2 0zm24 -5l3 0c-1,2 -2,3 -3,4 -1,0 -2,1 -4,1 -2,0 -3,-1 -4,-2 -1,-1 -2,-3 -2,-5 0,-3 1,-4 2,-6 1,-1 2,-2 4,-2 2,0 4,1 5,2 1,2 2,3 2,6 0,0 0,0 0,0l-11 0c0,2 1,3 2,4 0,1 1,1 2,1 1,0 2,0 3,-1 0,0 1,-1 1,-2zm-8 -4l8 0c0,-1 0,-2 -1,-2 0,-1 -1,-2 -3,-2 -1,0 -2,1 -2,1 -1,1 -1,2 -2,3zm13 9l0 -14 3 0 0 2c0,-1 1,-2 1,-2 1,0 1,-1 2,-1 0,0 1,1 2,1l-1 2c0,0 -1,0 -2,0 0,0 -1,0 -1,0 0,1 -1,1 -1,2 0,0 0,1 0,2l0 8 -3 0zm10 0l0 -14 3 0 0 14 -3 0zm-1 -16l2 -4 3 0 -3 4 -2 0zm17 14c-1,1 -2,1 -3,1 -1,1 -1,1 -2,1 -2,0 -3,-1 -4,-1 -1,-1 -1,-2 -1,-3 0,-1 0,-1 0,-2 1,0 1,-1 2,-1 0,-1 1,-1 1,-1 1,0 1,0 2,0 2,-1 4,-1 5,-1 0,-1 0,-1 0,-1 0,-1 -1,-1 -1,-2 -1,0 -2,-1 -3,-1 -1,0 -2,1 -2,1 -1,0 -1,1 -1,2l-3 0c1,-1 1,-2 1,-3 1,0 2,-1 2,-1 1,0 2,-1 4,-1 1,0 2,1 2,1 1,0 2,1 2,1 0,0 1,1 1,2 0,0 0,1 0,2l0 3c0,2 0,3 0,4 0,0 0,1 1,2l-3 0c0,-1 0,-1 0,-2zm0 -5c-1,0 -3,0 -4,1 -1,0 -2,0 -2,0 -1,0 -1,0 -1,1 0,0 -1,0 -1,1 0,0 1,1 1,1 1,1 1,1 2,1 1,0 2,0 3,-1 0,0 1,0 1,-1 0,-1 1,-1 1,-2l0 -1z"/>
   </g>
  </g>
 </g>
</svg>
