<svg id="Capa_1" data-name="Capa 1" xmlns="http://www.w3.org/2000/svg" xmlns:xlink="http://www.w3.org/1999/xlink" viewBox="0 0 80.08 70.63"><defs><style>.cls-1{fill:none;}.cls-2{fill:#c31b27;}.cls-3{fill:#c6c6c8;}.cls-4{fill:#1e1b1a;}.cls-5{fill:#5c595b;}.cls-6{fill:#afb0b0;}.cls-7{fill:#5f5e60;}.cls-8{fill:#6c8ac5;}.cls-9{fill:#352f76;}.cls-10{fill:#3c5fa5;}.cls-11{clip-path:url(#clip-path);}.cls-12{fill:url(#Degradado_sin_nombre_256);}.cls-13{fill:#9dcdea;}.cls-14{fill:#30281f;}.cls-15{fill:#858586;}.cls-16{clip-path:url(#clip-path-2);}.cls-17{fill:url(#Degradado_sin_nombre_257);}.cls-18{fill:#fff;}.cls-19{fill:#e3e1e2;}.cls-20{fill:#2e2a2c;}</style><clipPath id="clip-path" transform="translate(-66.04 -53.28)"><path class="cls-1" d="M94.07,103.66l-.38-.22-5.25-3,.38-.38,3.6,2.18a28,28,0,0,0-7-4.2c.15.07.22.15.22.22a.22.22,0,0,1,0,.3h-.07l.15.23-5.33-3.08.23-.22,2.77,1.65.08-.08a23.06,23.06,0,0,0-7.88-4.12l-.45-.3.08-.15a.26.26,0,0,1,.22-.08c3.53.68,7.2,3.38,9,4.8,4.58,1.28,9.08,5.33,9.3,5.55a.22.22,0,0,1,0,.3h-.07Z"/></clipPath><linearGradient id="Degradado_sin_nombre_256" x1="8.83" y1="44.76" x2="27.58" y2="44.76" gradientUnits="userSpaceOnUse"><stop offset="0" stop-color="#59afcc"/><stop offset="1" stop-color="#446a70"/></linearGradient><clipPath id="clip-path-2" transform="translate(-66.04 -53.28)"><path class="cls-1" d="M86.19,120.39a1.27,1.27,0,0,1-.45.37,1.81,1.81,0,0,1-1.95-.07c-.82-.53-6.22-3.6-6.52-3.75a1.69,1.69,0,0,1,.07-.45,3.43,3.43,0,0,0,.08-.38c0-.07,0-.15.07-.15l.23-.45c0-.07.07-.07.07-.15a1.68,1.68,0,0,1,.45-.3c.08,0,.15-.07.3-.07a3,3,0,0,1,.75.07,5.11,5.11,0,0,1,.68.3c2.32,1.35,2.4,1.43,2.4,1.43l1.95,1.12s.82.68,1.42.38.45,2.1.45,2.1"/></clipPath><linearGradient id="Degradado_sin_nombre_257" x1="11.06" y1="62.26" x2="19.14" y2="66.62" gradientUnits="userSpaceOnUse"><stop offset="0" stop-color="#fff"/><stop offset="0.74" stop-color="#fff"/><stop offset="0.82" stop-color="#e3e1e2"/><stop offset="1" stop-color="#e3e1e2"/></linearGradient></defs><path class="cls-2" d="M146.12,82.29l-1.05.6a.88.88,0,0,1-1.43-.83,2.93,2.93,0,0,1,1.43-2.4l1.05-.6v3.23" transform="translate(-66.04 -53.28)"/><path class="cls-3" d="M135.39,91.44c1.73-1,3.15-.23,3.15,1.8a7.07,7.07,0,0,1-3.15,5.47c-1.72,1-3.15.23-3.15-1.8a7,7,0,0,1,3.15-5.47" transform="translate(-66.04 -53.28)"/><path class="cls-4" d="M135.39,88.66c-.15.08-.37.23-.6.38a1.3,1.3,0,0,0-.37.3,1.53,1.53,0,0,0-.38.3,12.21,12.21,0,0,0-4.12,8.4v.3a1.79,1.79,0,0,0,.07.6V99c0,.15.08.38.08.53a1.28,1.28,0,0,0,.15.52,1.14,1.14,0,0,1,.15.45,2.71,2.71,0,0,0,.52.75l.3.3a1.11,1.11,0,0,0,.3.23l-3.67-2.1-1.5-.9a7.75,7.75,0,0,0,.6-3c0-2.18.6-2.78,1.72-5.1A51,51,0,0,0,130.89,86l3.08,1.8Z" transform="translate(-66.04 -53.28)"/><path class="cls-5" d="M135.39,98.71c-1.72,1-3.15.23-3.15-1.8a7.1,7.1,0,0,1,3.15-5.47c1.73-1,3.15-.23,3.15,1.8a7,7,0,0,1-3.15,5.47m0-10c-.15.08-.37.23-.6.38a1.3,1.3,0,0,0-.37.3,1.53,1.53,0,0,0-.38.3,12.21,12.21,0,0,0-4.12,8.4v.3a1.79,1.79,0,0,0,.07.6V99c0,.15.08.38.08.53a1.28,1.28,0,0,0,.15.52,1.14,1.14,0,0,1,.15.45,2.71,2.71,0,0,0,.52.75l.3.3a1.11,1.11,0,0,0,.3.23c1,.6,2.4.52,4-.38A12.48,12.48,0,0,0,141,92v-.23C140.94,88.36,138.47,86.94,135.39,88.66Z" transform="translate(-66.04 -53.28)"/><path class="cls-4" d="M142.52,90.91l-1.58.9c0-3.52-2.47-5-5.55-3.15-.15.08-.37.23-.6.38a1.3,1.3,0,0,0-.37.3,1.53,1.53,0,0,0-.38.3,12.86,12.86,0,0,0-4.12,8.4v.3l-1.5.9h-.08v-.9A17,17,0,0,1,134,87.69c.07-.08.22-.15.3-.3a1.76,1.76,0,0,0,.37-.3c.08-.08.23-.15.3-.23s.23-.15.38-.22c4-2,7.2-.23,7.2,4.27" transform="translate(-66.04 -53.28)"/><path class="cls-4" d="M135.39,84.69a1.54,1.54,0,0,1-.67,1.2c-.38.22-.68.07-.68-.38v-1.8a1.53,1.53,0,0,1,.68-1.2.41.41,0,0,1,.67.38Z" transform="translate(-66.04 -53.28)"/><polygon class="cls-6" points="45.43 44.76 42.88 46.18 42.51 45.96 40.1 44.53 40.03 44.53 35.3 41.76 35.6 41.01 36.2 39.43 42.58 43.11 44.6 44.31 45.43 44.76"/><path class="cls-7" d="M111.47,97.06l-.83.45-1.65,1-2-1.13-5.25-3.07.6-1.58.15-.45a1.35,1.35,0,0,1,.07-.37l6.9,4Z" transform="translate(-66.04 -53.28)"/><path class="cls-6" d="M111.84,97.29a.82.82,0,0,1-.45.75l-.82-.53-2-1.2-6.3-3.67.15-.45a1.28,1.28,0,0,1,.08-.38.29.29,0,0,1,.07-.15l7,4,2.1,1.28v.07c.22.15.22.15.22.23" transform="translate(-66.04 -53.28)"/><path class="cls-6" d="M108.92,99.46a.24.24,0,0,0-.15.08h-.15L105.92,98l-.75-.45-2.48-1.42c-.45-.3-.9-.53-1.35-.83l.08-.15,4.72,2.78h0l2.4,1.42Z" transform="translate(-66.04 -53.28)"/><path class="cls-6" d="M111.84,94.51l-2.25,1.28-.15.15-.82.45-1.65,1-.83.45h0l-.15.08-7.42,4.27,2.77-7,.08-.15.3-.83.6-1.57.15-.45a1.45,1.45,0,0,1,.07-.38.28.28,0,0,1,.08-.15,4.14,4.14,0,0,1,1.5-1.72h0Z" transform="translate(-66.04 -53.28)"/><path class="cls-7" d="M111.77,97.06a.15.15,0,0,0-.23,0h-.07l-2-1.12-6.9-4a.28.28,0,0,1,.08-.15l7,4Z" transform="translate(-66.04 -53.28)"/><path class="cls-8" d="M141.77,65.26l-38.85,22.5L83.27,76.36l38.85-22.5c1,.6,2.1,1.2,3.22,1.88.3.15.6.37.9.52,3.68,2.18,7.73,4.5,11.48,6.68.3.15.6.37.9.52l3.15,1.8" transform="translate(-66.04 -53.28)"/><path class="cls-9" d="M144.84,75.46l-5,2.85v-9a28.51,28.51,0,0,0,2.48-1.42c1.35-.83,2.47.6,2.47,3.07Z" transform="translate(-66.04 -53.28)"/><path class="cls-10" d="M145,65h-.07a1.64,1.64,0,0,0-.3-.15h-.08c-.07,0-.15-.07-.3-.07a1.19,1.19,0,0,0-.75,0,.49.49,0,0,0-.3.07.55.55,0,0,0-.3.08c-.07,0-.22.07-.3.07s-.15,0-.15.08-.07,0-.15.07-.07.08-.15.08-.22.07-.3.15h-.15c-1-.6-2.1-1.2-3.22-1.88-.3-.15-.6-.37-.9-.52-3.68-2.18-7.73-4.5-11.48-6.68-.3-.15-.6-.37-.9-.52-1.12-.68-2.17-1.28-3.22-1.88.15-.07,2-1,3.22-.3Z" transform="translate(-66.04 -53.28)"/><path class="cls-7" d="M108.54,99.24v.22l-2.7-1.57-.75-.45L102.62,96l-1.35-.82.07-.15.3-.83,5.25,3.08,2,1.12a1.36,1.36,0,0,0-.38.83" transform="translate(-66.04 -53.28)"/><path class="cls-4" d="M111.84,97.29a.82.82,0,0,1-.45.75l-2.47,1.42a.24.24,0,0,0-.15.08h-.15v-.23a1,1,0,0,1,.45-.75l1.65-1,.82-.45h.3v.15" transform="translate(-66.04 -53.28)"/><path class="cls-3" d="M100,111.84c1.73-1,3.15-.23,3.15,1.8a7.07,7.07,0,0,1-3.15,5.47c-1.72,1-3.15.23-3.15-1.8a7.1,7.1,0,0,1,3.15-5.47" transform="translate(-66.04 -53.28)"/><path class="cls-4" d="M94.52,118.66v.15a1.73,1.73,0,0,0,.07.6.66.66,0,0,0,.08.38.61.61,0,0,0,.07.3c.08.22.08.37.15.52s.08.15.08.3,0,.08.07.08a1.93,1.93,0,0,0,.45.6c0,.07.08.07.08.15a1,1,0,0,0,.3.22c.07.08.22.15.3.23L92.49,120,90,118.59a8.4,8.4,0,0,0,1.57-2.7c.53-1.58.75-3,1.88-4.13,1.35-1.35,2.62-2.77,4-4.2l1.28.75,1.42.83a11.55,11.55,0,0,0-5.62,9.52" transform="translate(-66.04 -53.28)"/><path class="cls-9" d="M83.57,97.06a.08.08,0,0,0-.08.08l-2.77-1.65-.23.22-4.72-2.77a23.4,23.4,0,0,1,7.8,4.12" transform="translate(-66.04 -53.28)"/><path class="cls-9" d="M92.49,102.24l-3.6-2.18-.37.38-2.78-1.65-.15-.23h.08a.24.24,0,0,0,0-.3L85.44,98a24.08,24.08,0,0,1,7,4.2" transform="translate(-66.04 -53.28)"/><g class="cls-11"><rect class="cls-12" x="9.06" y="39.13" width="18.97" height="11.25"/></g><path class="cls-9" d="M128.34,98.49A16.1,16.1,0,0,1,134,87.84L130.89,86c-.67,1.57-1.5,3.15-2.25,4.65-1.2,2.25-1.72,2.92-1.72,5.1a7.75,7.75,0,0,1-.6,3l1.5.9.52-.3h.08v-.23h-.08v-.22a.51.51,0,0,1,0-.45m-16.57-1.43-2.1-1.27-.15.15-.83.45-1.65,1-.82.45h0l-.15.08,2.7,1.57v-.22a1,1,0,0,1,.45-.75l1.65-1,.82-.45Zm-14.48,10.5-4,4.2a9,9,0,0,0-1.88,4.13,7.16,7.16,0,0,1-1.57,2.7L92.34,120l.53-.3v-1.12a1.73,1.73,0,0,1,.07-.6v-.08c0-.22.08-.37.08-.6v-.15a1.71,1.71,0,0,1,.15-.6c.15-.52.3-1,.45-1.5.07-.15.07-.3.15-.37s.15-.38.22-.53a4.07,4.07,0,0,1,.38-.75c.15-.22.22-.52.37-.75a3.13,3.13,0,0,1,.38-.6c.07-.15.15-.22.22-.37s.15-.23.23-.38a1,1,0,0,0,.22-.3,3.34,3.34,0,0,0,.38-.52c.15-.23.3-.38.45-.6a9.53,9.53,0,0,1,1.8-1.73ZM85.82,118.21h0v2.55a1.27,1.27,0,0,0,.45-.37S86.42,117.91,85.82,118.21Z" transform="translate(-66.04 -53.28)"/><path class="cls-9" d="M140,78.31v-9c.07,0,1.12-.6,2.47-1.42s2.48.6,2.48,3.07v4.5Zm-26.55,15.3v-9l25.12-14.47v9Zm21.3-7.72c-.38.22-.68.07-.68-.38v-1.8a1.53,1.53,0,0,1,.68-1.2.41.41,0,0,1,.67.38v1.8A1.54,1.54,0,0,1,134.72,85.89ZM111.47,98,109,99.46a.28.28,0,0,0-.15.08h-.15L106,98l-7.42,4.28,2.77-7,.08-.15.3-.82.6-1.58.15-.45a1.35,1.35,0,0,1,.07-.37.24.24,0,0,1,.08-.15,4.15,4.15,0,0,1,1.5-1.73h0l.67-.45c2-1.2,6.75-3.9,7-4v9l-2.25,1.28,2.1,1.2h.08v.22A.8.8,0,0,1,111.47,98Zm34.65-15.75-1.05.6a.88.88,0,0,1-1.43-.83,2.93,2.93,0,0,1,1.43-2.4l1.05-.6V67.74c0-1.65-.53-2.48-1.2-2.85-.08-.08-.15-.08-.3-.15h-.08c-.07,0-.15-.08-.3-.08h-.75a.44.44,0,0,0-.3.08.61.61,0,0,0-.3.07c-.07,0-.15.08-.3.08s-.15,0-.15.07-.07,0-.15.08-.07.07-.15.07a1.64,1.64,0,0,0-.3.15h-.15l-38.85,22.5a5.69,5.69,0,0,0-1,.9,7.18,7.18,0,0,0-1.13,1.88.15.15,0,0,1,.15.15.26.26,0,0,1,.08.22v.38c0,.15-.08.3-.08.52a6,6,0,0,1-.45,1.28c-.07.07-.07.22-.15.37s-.22.53-.3.83a.29.29,0,0,1-.07.15C99,96.69,98,99.31,97,101.34a8.91,8.91,0,0,1-2.17,3,1.64,1.64,0,0,1-.3.15l-.08.07a8.83,8.83,0,0,0-.75.75l-1.35,1.35a43.63,43.63,0,0,0-5.1,6.45c-.15.3-.3.53-.45.83a5.68,5.68,0,0,0-.37.75c-.08.15-.15.37-.23.52a1.14,1.14,0,0,0-.15.45,5.9,5.9,0,0,0-.37,1.58v1.05c.6-.3.37,2.1.37,2.1a1.27,1.27,0,0,1-.45.37v3.15l6.6-3.82-2.47-1.43a8.2,8.2,0,0,0,1.57-2.7c.53-1.57.75-3,1.88-4.12,1.35-1.35,2.62-2.78,4-4.2l1.28.75c.22-.15.45-.38.67-.53a7.07,7.07,0,0,1,.75-.45c3.9-2.25,7.13-.45,7.13,4l-1.58.9v.23l22.2-12.83-1.5-.9a7.54,7.54,0,0,0,.6-3c0-2.17.6-2.77,1.73-5.1.82-1.5,1.57-3.07,2.25-4.65l3.07,1.8a3.92,3.92,0,0,0,.38-.3,1.3,1.3,0,0,0,.37-.3c.08-.07.23-.15.3-.22s.23-.15.38-.23c3.9-2.25,7.12-.45,7.12,4l-1.57.9V92l2.77-1.58a5.2,5.2,0,0,0,2.4-4.12A22.22,22.22,0,0,0,146.12,82.29Z" transform="translate(-66.04 -53.28)"/><polygon class="cls-9" points="72.5 25.86 47.38 40.33 47.3 31.33 72.43 16.86 72.5 25.86"/><path class="cls-5" d="M100,119.11c-1.72,1-3.15.23-3.15-1.8a7.1,7.1,0,0,1,3.15-5.47c1.73-1,3.15-.23,3.15,1.8a6.57,6.57,0,0,1-3.15,5.47m0-10a11.86,11.86,0,0,0-5.47,9.52v.15a1.73,1.73,0,0,0,.07.6.66.66,0,0,0,.08.38.61.61,0,0,0,.07.3c.08.22.08.37.15.52s.08.15.08.3,0,.08.07.08a1.93,1.93,0,0,0,.45.6c0,.07.08.07.08.15a1,1,0,0,0,.3.22c.07.08.22.15.3.23a3.77,3.77,0,0,0,3.9-.38,12.48,12.48,0,0,0,5.55-9.37v-.23C105.54,108.76,103.07,107.34,100,109.14Z" transform="translate(-66.04 -53.28)"/><path class="cls-4" d="M107.12,111.39l-1.58.9c0-3.53-2.47-5-5.55-3.15a11.86,11.86,0,0,0-5.47,9.52l-1.58.9v-1A1.53,1.53,0,0,1,93,118v-.08c0-.22.07-.37.07-.6v-.15a2,2,0,0,1,.15-.6c.15-.52.3-1,.45-1.5.08-.15.08-.3.15-.37s.15-.38.23-.53a3.47,3.47,0,0,1,.37-.75c.15-.22.23-.52.38-.75a2.64,2.64,0,0,1,.37-.6c.08-.15.15-.22.23-.37s.15-.23.22-.38a1,1,0,0,0,.23-.3,3.34,3.34,0,0,0,.37-.52c.15-.23.3-.38.45-.6a10.17,10.17,0,0,1,1.8-1.73c.23-.15.46-.37.68-.52a6.18,6.18,0,0,1,.75-.45c4-2.18,7.2-.38,7.2,4.2" transform="translate(-66.04 -53.28)"/><path class="cls-13" d="M111.84,94.51l-2.25,1.28-.15.15-.82.45-1.65,1-.83.45h0l-.15.08-7.42,4.27,2.77-7,.08-.15.3-.83.6-1.57.15-.45a1.45,1.45,0,0,1,.07-.38.28.28,0,0,1,.08-.15,4.14,4.14,0,0,1,1.5-1.72h0l.67-.45c2-1.2,6.75-3.9,7-4Z" transform="translate(-66.04 -53.28)"/><path class="cls-8" d="M94.89,104.11c-.07.08-.22.23-.3.3l-.07.08a5.9,5.9,0,0,0-.75.75l-1.35,1.35a42.46,42.46,0,0,0-5.1,6.45c-.15.3-.3.52-.45.82s-.3.53-.38.75-.15.38-.22.53a1,1,0,0,0-.15.45,5.57,5.57,0,0,0-.38,1.57v.9l-19.65-11.4c-.07-.22-1-4.12,8.7-13.5l.38-.37.45.3,4.72,2.77,5.33,3.08,2.77,1.65,5.25,3,.38.22Z" transform="translate(-66.04 -53.28)"/><polygon class="cls-10" points="19.78 70.56 0.13 59.16 0.06 56.53 0.06 53.98 0.06 53.31 19.78 64.78 19.78 64.93 19.78 67.48 19.78 70.56"/><path class="cls-10" d="M102.92,87.76a5.73,5.73,0,0,0-1,.9,6.88,6.88,0,0,0-1.12,1.88l-.68-.38L90,84.31l-8.85-5.17a5.83,5.83,0,0,1,2.1-2.85Z" transform="translate(-66.04 -53.28)"/><path class="cls-14" d="M79.07,114.76c.52.3.82,1.58.82,2.1s-.45.75-1,.45l-7.2-4.2a2.24,2.24,0,0,1-1-1.65c0-.6.6-1.27,1.2-1Z" transform="translate(-66.04 -53.28)"/><path class="cls-15" d="M71.12,110.64c-.08,0-.08.07-.15.15l8.77,5c0-.07-.07-.15-.07-.22Z" transform="translate(-66.04 -53.28)"/><path class="cls-15" d="M70.74,112a.65.65,0,0,0,.15.3l8.85,5.1c.08,0,.08-.08.15-.15Z" transform="translate(-66.04 -53.28)"/><path class="cls-15" d="M70.67,111.16a.24.24,0,0,1-.08.15l9.23,5.33v-.23Z" transform="translate(-66.04 -53.28)"/><g class="cls-16"><rect class="cls-17" x="11.23" y="61.71" width="9.15" height="6.23"/></g><path class="cls-18" d="M70.59,109.81c-2.17-1.27-2.25-1.35-2.25-1.35l-1.8-1-.3-.15c-.07.45,0,1.88,0,2.55a1.67,1.67,0,0,0,.83.83c.82.45,5.92,3.37,6.15,3.52-.15-.15-.3-3-2.63-4.35" transform="translate(-66.04 -53.28)"/><path class="cls-19" d="M83.12,118.81a3.78,3.78,0,0,1-1.58-.75c-.82-.45-1.42-.9-1.42-1a4.1,4.1,0,0,1,1.57.75c.83.53,1.5,1,1.43,1" transform="translate(-66.04 -53.28)"/><path class="cls-19" d="M71,111.54a4.1,4.1,0,0,1-1.57-.75c-.83-.45-1.43-.9-1.43-1.05a3.78,3.78,0,0,1,1.58.75A6.62,6.62,0,0,1,71,111.54" transform="translate(-66.04 -53.28)"/><path class="cls-13" d="M101,91.06v.38c0,.15-.07.3-.07.52a7.39,7.39,0,0,1-.45,1.28c-.08.07-.08.22-.15.37a7.8,7.8,0,0,0-.3.83.28.28,0,0,1-.08.15c-.9,2.25-1.87,4.87-2.92,6.9a8.78,8.78,0,0,1-2.18,3c-.07.07-.15.07-.3.15l.3-.3-.82-.53-.3-.52h.07a.22.22,0,0,0,0-.3c-.22-.15-4.8-4.28-9.3-5.55-1.8-1.43-5.47-4-9-4.8a.28.28,0,0,0-.22.07l.6-1.42,5.17-12,8.85,5.17,10.13,5.85.67.38a.15.15,0,0,1,.15.15c.15,0,.15.07.15.22" transform="translate(-66.04 -53.28)"/><polygon class="cls-20" points="19.86 45.73 14.23 42.51 14.38 42.36 14.61 42.13 17.38 43.78 18.2 44.31 18.2 44.31 19.41 44.98 19.48 45.13 19.63 45.36 19.86 45.73"/><polygon class="cls-20" points="28.03 50.38 27.73 50.16 22.48 47.16 22.86 46.78 26.45 48.96 27.66 49.63 27.73 49.86 28.03 50.38"/><path class="cls-20" d="M85.67,98.49h0a.25.25,0,0,1-.15.07c-.08,0-.08,0-.15-.07a12.21,12.21,0,0,0-1.05-.9h0c-.23-.15-.45-.38-.75-.6a23.07,23.07,0,0,0-7.88-4.13c-.07,0-.22-.07-.3-.07s-.15-.15-.15-.23v-.07a.08.08,0,0,1,.08-.08.28.28,0,0,1,.22-.07c3.53.67,7.2,3.37,9,4.8.38.3.68.6.9.75s.23.15.23.22a.36.36,0,0,1,0,.38" transform="translate(-66.04 -53.28)"/><path class="cls-20" d="M93.84,103.06h0a.22.22,0,0,1-.15.08c-.07,0-.07,0-.15-.08a12.43,12.43,0,0,0-1.05-.9,28.16,28.16,0,0,0-7-4.2c-.37-.15-.75-.22-1.12-.37h0a2.08,2.08,0,0,0-.68-.15c-.15,0-.22-.15-.15-.23a.07.07,0,0,1,.08-.07l.07-.08h.15l.83.23c4.57,1.27,9.07,5.32,9.3,5.55a.34.34,0,0,1-.08.22" transform="translate(-66.04 -53.28)"/></svg>