<svg id="Capa_1" data-name="Capa 1" data-type="auto.svg" xmlns="http://www.w3.org/2000/svg" viewBox="0 0 63.95 50.38"><defs><style>.cls-1{fill:#332e2e;}.cls-2{fill:#443e3b;}.cls-3{fill:#d3d2d1;}.body{fill:#17d244;}.cls-6{fill:#87e5ff;}.cls-12,.cls-8{fill:#4b464a;}.cls-13,.cls-9{fill:#342f31;}.cls-9{opacity:0.7;}.cls-10{fill:#f2f8fd;}.cls-11{fill:#a14d2a;}.cls-12{opacity:0.5;}.cls-14{fill:#fff;}</style></defs><polygon class="cls-1" points="31.1 37.84 32.45 39.79 30.65 42.94 24.5 39.41 31.1 37.84"/><polygon class="cls-1" points="59.3 21.64 60.57 23.59 58.85 26.74 52.62 23.14 59.3 21.64"/><path class="cls-1" d="M98.11,100.55a2.48,2.48,0,0,1,2.55-.23l2.25,1.28-5.1,8.77-2.25-1.27a2.67,2.67,0,0,1-1-2.33,8.14,8.14,0,0,1,3.6-6.22" transform="translate(-73.76 -60.24)"/><path class="cls-2" d="M96.83,108.05c0,2.25,1.58,3.22,3.6,2.1a8,8,0,0,0,3.6-6.23c0-2.25-1.57-3.22-3.6-2.1a7.79,7.79,0,0,0-3.6,6.23" transform="translate(-73.76 -60.24)"/><path class="cls-3" d="M100.36,109a5.33,5.33,0,0,0,2.47-4.28c0-1.57-1-2.25-2.4-1.5A5.33,5.33,0,0,0,98,107.45c0,1.57,1.05,2.25,2.4,1.5" transform="translate(-73.76 -60.24)"/><path class="cls-1" d="M126.31,84.27a2.45,2.45,0,0,1,2.55-.22l2.25,1.27L126,94.1l-2.25-1.28a2.65,2.65,0,0,1-1.05-2.32,7.76,7.76,0,0,1,3.6-6.23" transform="translate(-73.76 -60.24)"/><path class="cls-2" d="M125,91.77c0,2.25,1.57,3.23,3.6,2.1a8,8,0,0,0,3.6-6.22c0-2.25-1.58-3.23-3.6-2.1a8,8,0,0,0-3.6,6.22" transform="translate(-73.76 -60.24)"/><path class="cls-3" d="M128.56,92.67A5.31,5.31,0,0,0,131,88.4c0-1.58-1.05-2.25-2.4-1.5a5.31,5.31,0,0,0-2.47,4.27c-.08,1.58,1,2.25,2.4,1.5" transform="translate(-73.76 -60.24)"/><path class="body" d="M85.66,82.62l5.77-6.15a7.12,7.12,0,0,1,1.8-1.5l25.35-14.62c.3-.15,3.08,4.72,3.08,4.72l11.4,3.15L136.13,75a5.13,5.13,0,0,1,.38,1.88V81.2c.15.15.37.3.37.52v1.2a1.85,1.85,0,0,1-.67,1.43l-2.63,2-1,.6v-.3c0-2.32-1.88-3.07-4.2-1.72s-4.2,4.27-4.2,6.6v.3l-19.8,11.32v-.3c0-2.32-1.88-3.07-4.2-1.72s-4.2,4.27-4.2,6.6v.3l-1.35.82a11,11,0,0,1-8.4-.22,50.73,50.73,0,0,1-9.83-5.78,6.42,6.42,0,0,1-2.62-5.17v-.23c0-.3.07-.52.07-.9,0-1.5-.07-2.47-.07-2.92V92c.07-2.85,11.85-9.38,11.85-9.38" transform="translate(-73.76 -60.24)"/><path class="body" d="M87.91,109.1a10.55,10.55,0,0,0,6.82-.3l1.35-.83v-.3a7.87,7.87,0,0,1,1.65-4.27Zm14.85-8.55c1,.15,1.65,1,1.65,2.4v.3l19.8-11.48v-.3a7.79,7.79,0,0,1,1.65-4.27Zm33.75-19.5v.07c.15.15.37.3.37.53v1.2a1.83,1.83,0,0,1-.67,1.42l-2.63,2-1,.6v-.23a2.23,2.23,0,0,0-1.65-2.4Z" transform="translate(-73.76 -60.24)"/><path class="body" d="M93.23,75l25.35-14.62a1.28,1.28,0,0,1,1,0S130,66,133,68a.21.21,0,0,1,0,.37c-2.32,1.28-18,9.9-19.57,10.73s-5.85,3.45-7.13,4.12a.65.65,0,0,1-.52.08c-2.48-.75-13.65-7.5-13.28-7.8s.45-.3.75-.53" transform="translate(-73.76 -60.24)"/><path class="cls-6" d="M100.88,91.17a1.13,1.13,0,0,0,.83-.3,2.07,2.07,0,0,0,.67-.75c.6-1,2.1-4.42,2.78-5.85a.27.27,0,0,0-.15-.37A85.86,85.86,0,0,1,92,76.4a.22.22,0,0,0-.3,0l-5.1,5.4a.46.46,0,0,0,0,.6,47.22,47.22,0,0,0,13.87,8.7.87.87,0,0,0,.45.07" transform="translate(-73.76 -60.24)"/><path class="cls-6" d="M104.11,91.25a67.36,67.36,0,0,1,3.45-7.58,2.07,2.07,0,0,1,.75-.67l3.22-1.88a.35.35,0,0,1,.53.23A56.12,56.12,0,0,1,113.48,87c0,.08-.15.23-.22.3l-8.63,5c-.82.37-1.27.45-.52-1" transform="translate(-73.76 -60.24)"/><path class="body" d="M85.36,82.85c1.12,1.42,7.57,7.57,17.25,10.57,0,0-9.23,7.28-12.45,7.73-2.48.3-4.8-1.05-8.48-3.08-7-3.82-7.65-5.25-7.65-6-.15-2.55,9.08-8,11.33-9.22" transform="translate(-73.76 -60.24)"/><path class="cls-8" d="M74,96.57s.08.23.23.23.82-2.18,1.12-2a87.31,87.31,0,0,0,9.23,5.48,3.38,3.38,0,0,1,1.5,1.72l.6,1.8c.67,2.7,5,2.4,7.72,1.5a.89.89,0,0,1,1.2.83V108a.8.8,0,0,1-.37.68l-.45.22a11,11,0,0,1-8.4-.22,50.73,50.73,0,0,1-9.83-5.78,6.69,6.69,0,0,1-2.77-4.35c0-.3-.15-2.4.22-2.7Z" transform="translate(-73.76 -60.24)"/><path class="cls-9" d="M74.56,97.25c.15-.53.67-2.25,1-2.1,3.38,2.32,7,4.42,9,5.47a2.9,2.9,0,0,1,1.28,1.65,14.79,14.79,0,0,0,.75,2.55c-3.45-1-11.18-5.55-12-7.57" transform="translate(-73.76 -60.24)"/><path class="cls-10" d="M92.78,101.75c.75-.15,1.5,1.12.45,2.17-.9.9-4.5.68-5.7-.07-.22-.15-1-2.55-.67-2.48a14.09,14.09,0,0,0,5.92.38" transform="translate(-73.76 -60.24)"/><path class="cls-11" d="M92.78,101.75c.83-.15,1.58,1.12.45,2.17a1.48,1.48,0,0,1-.67.38,5.08,5.08,0,0,0,.22-2.55" transform="translate(-73.76 -60.24)"/><path class="cls-10" d="M74.18,95.67c-.07,0-.15-.15-.15-.22a11.18,11.18,0,0,1-.15-2.63c.15.75.9,1.2,1,1.43a3.19,3.19,0,0,1-.68,1.42" transform="translate(-73.76 -60.24)"/><path class="cls-12" d="M73.81,96.8c.07.15.15.22.22.37a4,4,0,0,0,.75.9c.3.3.68.68,1.13,1.05A40.52,40.52,0,0,0,83,103.55c.68.37,1.35.67,2,1a21.38,21.38,0,0,0,2,.82c.68.23,1.35.38,2,.53a8.44,8.44,0,0,0,1.8.22,11.42,11.42,0,0,0,1.58-.07l1.2-.23a2.79,2.79,0,0,0,1-.37c.08-.08.15,0,.23.07s0,.15-.08.23a7,7,0,0,1-1,.45c-.3.07-.75.22-1.2.3a5.46,5.46,0,0,1-1.58.07,15.82,15.82,0,0,1-1.87-.15,10.1,10.1,0,0,1-2-.52c-.67-.23-1.42-.53-2.1-.83s-1.35-.67-2.1-1.05c-1.35-.75-2.7-1.5-4-2.25a30.09,30.09,0,0,1-3.23-2.32,7.92,7.92,0,0,1-1.12-1.13,5.63,5.63,0,0,1-.68-1,.58.58,0,0,1-.07-.6" transform="translate(-73.76 -60.24)"/><path class="cls-8" d="M136.51,81.5V80l.75.75a1.52,1.52,0,0,1,.45,1.12v1a1.75,1.75,0,0,1-.68,1.43l-1.8,1.42a1.67,1.67,0,0,1-.6.38l-1,.6-.45-.23V83.37Z" transform="translate(-73.76 -60.24)"/><path class="cls-13" d="M111.91,90.5l1.27-.75a.43.43,0,0,0,.23-.38v-.3c0-.15-.08-.15-.23-.07l-1.27.75a.4.4,0,0,0-.23.37v.3c0,.15.08.15.23.08" transform="translate(-73.76 -60.24)"/><path class="cls-13" d="M123.38,83.9l1.28-.75a.42.42,0,0,0,.22-.38v-.3c0-.15-.07-.15-.22-.07l-1.28.75a.4.4,0,0,0-.22.37v.3c0,.08.07.15.22.08" transform="translate(-73.76 -60.24)"/><path class="cls-6" d="M131.93,76.77l-6.45,3.6L123,74.9c2.25-1.28,3.82-2.1,5.1-2.7a1.14,1.14,0,0,1,1.57.52Z" transform="translate(-73.76 -60.24)"/><path class="cls-6" d="M113.86,80c.6-.38,6-3.38,8.4-4.73l2.47,5.4-9.22,5.4c-.23-1.12-.6-2.17-.9-3.15-.38-1.2-.68-2-.9-2.62-.08-.08,0-.23.15-.3" transform="translate(-73.76 -60.24)"/><polygon class="cls-14" points="3.57 41.44 7.47 43.84 7.47 45.04 3.57 42.64 3.57 41.44"/></svg>