<svg id="Capa_1" data-name="Capa 1" xmlns="http://www.w3.org/2000/svg"
    xmlns:xlink="http://www.w3.org/1999/xlink" viewBox="0 0 1080 1350">
    <defs>
        <style>
            .cls-1{fill:#1e1e1e;}.cls-2{fill:url(#linear-gradient);}.cls-3{fill:url(#linear-gradient-2);}.cls-4{fill:url(#linear-gradient-3);}.cls-5{fill:#504f59;}.cls-6{fill:#c8c6e8;}.cls-7{fill:#90919a;}.cls-8{fill:#8e8f98;}.cls-9{fill:url(#linear-gradient-4);}.cls-10{fill:#2d2c38;}.cls-11{fill:url(#linear-gradient-5);}.cls-12{fill:url(#linear-gradient-6);}.cls-14{fill:#c4c2c1;}.cls-15{fill:#a1a8ac;}.cls-16{fill:#363f47;}.cls-17{fill:#2b1f2c;}.cls-18{fill:#1d232a;}.cls-19{fill:#696b6f;}.cls-20{fill:#999ebf;}.cls-21{fill:#f8eee8;}.cls-22{fill:#ed670e;}.cls-23{fill:#3d4b4d;}</style>
        <linearGradient id="linear-gradient" x1="1316.48" y1="1216.83" x2="1227.27" y2="1062.32"
            gradientTransform="matrix(0.76, 0.02, -0.01, 0.49, -589.34, 195.85)"
            gradientUnits="userSpaceOnUse">
            <stop offset="0" stop-color="#181818" />
            <stop offset="0.27" stop-color="#262626" />
            <stop offset="0.77" stop-color="#2e2e2e" />
        </linearGradient>
        <linearGradient id="linear-gradient-2" x1="1191.14" y1="1255.76" x2="1272.28" y2="1115.22"
            gradientTransform="matrix(0.76, 0.02, -0.01, 0.49, -589.34, 195.85)"
            gradientUnits="userSpaceOnUse">
            <stop offset="0" stop-color="#141414" />
            <stop offset="0.44" stop-color="#1e1e1e" />
            <stop offset="0.78" stop-color="#202020" />
            <stop offset="0.98" stop-color="#292929" />
            <stop offset="1" stop-color="#2a2a2a" />
        </linearGradient>
        <linearGradient id="linear-gradient-3" x1="1189.1" y1="1256.85" x2="1267.21" y2="1121.55"
            gradientTransform="matrix(0.76, 0.02, -0.01, 0.49, -589.34, 195.85)"
            gradientUnits="userSpaceOnUse">
            <stop offset="0" stop-color="#161616" />
            <stop offset="0.3" stop-color="#1a1a1a" />
            <stop offset="0.79" stop-color="#1e1e1e" />
            <stop offset="0.8" stop-color="#1e1e1e" />
        </linearGradient>
        <linearGradient id="linear-gradient-4" x1="1916.01" y1="1176.42" x2="1834.67" y2="1035.53"
            xlink:href="#linear-gradient" />
        <linearGradient id="linear-gradient-5" x1="1810.33" y1="1206.35" x2="1882.92" y2="1080.63"
            xlink:href="#linear-gradient-2" />
        <linearGradient id="linear-gradient-6" x1="1810.58" y1="1205.71" x2="1880.42" y2="1084.74"
            xlink:href="#linear-gradient-3" />
    </defs>
    <polygon class="cls-1"
        points="272.2 818.45 312.38 779.55 455.01 783.75 745.48 813.08 775.43 776.69 882.17 783.66 852.89 635.91 232.23 660.23 272.2 818.45" />
    <path class="cls-2"
        d="M394.47,772.93c.69-22.75-17.77-41.25-41.43-41.32a45.36,45.36,0,0,0-32.38,13.49l-28.22,26.49,18.11,16.18a40.56,40.56,0,0,0,28.7,25.65l15.63,14,24.2-23.33a44.38,44.38,0,0,0,4.36-4.2h0A42,42,0,0,0,394.47,772.93Z" />
    <path class="cls-3"
        d="M367.41,798.82c-.7,22.87-20.5,41.78-44.43,42.23-24.17.46-43.36-18-42.65-41.31s21-42.18,45.18-42.24C349.43,757.45,368.1,776,367.41,798.82Z" />
    <path class="cls-4"
        d="M363.05,800.54c-.66,22-19.74,40.23-42.79,40.67-23.27.44-41.74-17.35-41.06-39.75s20.24-40.6,43.49-40.67C345.74,760.72,363.72,778.52,363.05,800.54Z" />
    <path class="cls-5"
        d="M353.49,799.86c-.49,15.93-14.3,29.07-31,29.35s-30-12.57-29.56-28.7,14.56-29.27,31.32-29.36S354,783.92,353.49,799.86Z" />
    <path class="cls-6"
        d="M351.5,799c-.44,14.44-13,26.35-28.05,26.59s-27.21-11.41-26.76-26S309.86,773.06,325,773,351.94,784.54,351.5,799Z" />
    <path class="cls-6"
        d="M348.78,799c-.4,13-11.67,23.7-25.26,23.91s-24.45-10.26-24-23.39S311.31,775.7,325,775.62a27.18,27.18,0,0,1,3.65.24c10.55,1.45,18.66,9.39,20,19.51A23.19,23.19,0,0,1,348.78,799Z" />
    <path class="cls-7"
        d="M332.7,813.2c-12.88.18-23.06-9.74-22.68-22.14a22.49,22.49,0,0,1,5-13.41c-8.88,3.72-15.28,12.14-15.57,21.89-.4,13.13,10.4,23.61,24,23.39a26,26,0,0,0,22.7-14A24.48,24.48,0,0,1,332.7,813.2Z" />
    <path class="cls-8"
        d="M347.4,797.44c-.24,8-7.16,14.53-15.47,14.64s-14.93-6.31-14.68-14.33,7.22-14.59,15.56-14.65S347.64,789.46,347.4,797.44Z" />
    <path class="cls-7"
        d="M348.6,795.37a15.85,15.85,0,0,1-13.3,7.48c-8.32.09-14.9-6.33-14.66-14.35a15.08,15.08,0,0,1,8-12.64C339.16,777.31,347.27,785.25,348.6,795.37Z" />
    <polygon class="cls-7"
        points="324.87 778.71 313.17 789.78 334.92 809.09 346.36 798.2 339.13 786.74 324.87 778.71" />
    <path class="cls-7"
        d="M339.32,799.12c-.24,8-7.18,14.56-15.52,14.67s-15-6.31-14.73-14.35,7.25-14.61,15.61-14.67S339.56,791.13,339.32,799.12Z" />
    <path class="cls-6"
        d="M337.84,799.64c-.23,7.64-6.86,13.93-14.84,14s-14.32-6-14.09-13.72,6.93-14,14.93-14S338.08,792,337.84,799.64Z" />
    <path class="cls-9"
        d="M847.35,769.21c.62-20.68-14.57-37.51-34.08-37.6a35.58,35.58,0,0,0-25.52,10.94h0a1.21,1.21,0,0,1-.16.16L764.08,766.9l-.49,16.26,49.73,36.72,21.59-22.75a35.94,35.94,0,0,0,2.88-3h0A40.2,40.2,0,0,0,847.35,769.21Z" />
    <path class="cls-10"
        d="M824.94,792.67c-.63,20.77-17,37.89-36.72,38.23-19.89.34-35.63-16.48-35-37.59s17.41-38.22,37.29-38.23C810.23,755.07,825.57,771.89,824.94,792.67Z" />
    <path class="cls-11"
        d="M824.94,792.67c-.63,20.77-17,37.89-36.72,38.23-19.89.34-35.63-16.48-35-37.59s17.41-38.22,37.29-38.23C810.23,755.07,825.57,771.89,824.94,792.67Z" />
    <path class="cls-12"
        d="M822.72,793.49c-.61,20-16.37,36.46-35.35,36.79-19.14.33-34.28-15.86-33.66-36.16s16.74-36.77,35.87-36.79C808.55,757.31,823.32,773.5,822.72,793.49Z" />
    <path class="cls-5"
        d="M813.46,793.58C813,808.05,801.6,820,787.88,820.15s-24.7-11.48-24.25-26.11,12-26.53,25.85-26.58S813.9,779.11,813.46,793.58Z" />
    <path class="cls-6"
        d="M811.83,792.79c-.4,13.11-10.75,23.89-23.18,24.06s-22.36-10.41-22-23.66,10.91-24,23.4-24.07S812.23,779.67,811.83,792.79Z" />
    <path class="cls-7"
        d="M809,792.81c-.35,11.48-9.41,20.91-20.29,21.06s-19.55-9.12-19.2-20.7,9.53-21,20.46-21.06S809.38,781.33,809,792.81Z" />
    <path class="cls-6"
        d="M806.61,792.83c-.3,10.07-8.25,18.34-17.79,18.46s-17.13-8-16.82-18.15,8.35-18.41,17.93-18.45S806.92,782.76,806.61,792.83Z" />
    <path class="cls-7"
        d="M798.2,794.87c-.19,6-5,11-10.66,11s-10.23-4.78-10-10.84,5-11,10.71-11S798.38,788.84,798.2,794.87Z" />
    <path class="cls-5"
        d="M779.31,798.51a8.07,8.07,0,0,0,4.23,4.76,2,2,0,0,1,1,2.26h0a1.72,1.72,0,0,1-2.54.72,12.71,12.71,0,0,1-5.62-6.31,1.94,1.94,0,0,1,.84-2.65h0A1.82,1.82,0,0,1,779.31,798.51Z" />
    <path class="cls-6"
        d="M795.71,795.62a9.85,9.85,0,0,1-9.4,9.72c-5,.06-9-4.21-8.84-9.55s4.38-9.69,9.43-9.73S795.87,790.3,795.71,795.62Z" />
    <path class="cls-7"
        d="M791.56,795.66a5.37,5.37,0,0,1-5.11,5.28,4.87,4.87,0,0,1-4.81-5.19,5.36,5.36,0,0,1,5.12-5.28A4.87,4.87,0,0,1,791.56,795.66Z" />
    <path class="cls-5"
        d="M799.39,787.49a8.09,8.09,0,0,0-4.2-4.76,2,2,0,0,1-1-2.26h0a1.72,1.72,0,0,1,2.53-.71,12.72,12.72,0,0,1,5.57,6.32,1.92,1.92,0,0,1-.83,2.63h0A1.8,1.8,0,0,1,799.39,787.49Z" />
    <path class="cls-5"
        d="M794.17,803.37a9,9,0,0,0,4.67-4.65,1.94,1.94,0,0,1,2.17-1.16h0c.82.26,1.16,1.5.57,2.65a14.12,14.12,0,0,1-6.18,6.17,1.63,1.63,0,0,1-2.46-.77h0A2.15,2.15,0,0,1,794.17,803.37Z" />
    <path class="cls-5"
        d="M784.56,782.58a9,9,0,0,0-4.69,4.65,2,2,0,0,1-2.2,1.16h0c-.83-.26-1.18-1.51-.58-2.66a14.15,14.15,0,0,1,6.24-6.17,1.64,1.64,0,0,1,2.46.79h0A2.11,2.11,0,0,1,784.56,782.58Z" />
    <path class="cls-7"
        d="M782.84,804.85a12.69,12.69,0,0,1-5.61-6.31,2.34,2.34,0,0,1-.16-1.15,2,2,0,0,0-.68,2.55,12.71,12.71,0,0,0,5.62,6.31,1.73,1.73,0,0,0,2.54-.72c.06-.19,0-.36,0-.55A2,2,0,0,1,782.84,804.85Z" />
    <path class="cls-7"
        d="M802.27,787.32a1.8,1.8,0,0,1-2-1.22,8.09,8.09,0,0,0-4.2-4.76,2,2,0,0,1-1-1.71,1.37,1.37,0,0,0-.87.84,2,2,0,0,0,1,2.26,8.09,8.09,0,0,1,4.2,4.76,1.81,1.81,0,0,0,2.06,1.22,1.59,1.59,0,0,0,1-1.5C802.37,787.24,802.33,787.3,802.27,787.32Z" />
    <path class="cls-7"
        d="M796.23,805a1.63,1.63,0,0,1-2.46-.77c0-.19.07-.36.1-.55a2,2,0,0,0-.93,2,1.63,1.63,0,0,0,2.46.77,14.12,14.12,0,0,0,6.18-6.17.26.26,0,0,1,0-.08A14.11,14.11,0,0,1,796.23,805Z" />
    <path class="cls-7"
        d="M778.51,787c-.81-.26-1.15-1.46-.61-2.59a12.45,12.45,0,0,0-.81,1.33c-.6,1.15-.25,2.4.58,2.66a2,2,0,0,0,2.2-1.16,12.78,12.78,0,0,1,.76-1.3A1.92,1.92,0,0,1,778.51,787Z" />
    <path class="cls-7"
        d="M785.39,781.18a8.86,8.86,0,0,0-4.54,4.4,8.7,8.7,0,0,1,3.71-3,2.17,2.17,0,0,0,1.14-1.68C785.58,781,785.52,781.12,785.39,781.18Z" />
    <path class="cls-14"
        d="M29.05,576.54l33.43-80.91H987.3l7,4.88L996,655.09l-1.35,32.42,2.37,7.45-1,10.52-6.3,21.11L959.3,797.67l-6.48,8.42L937,809.25l-115.44,2.3.24-.49a54.77,54.77,0,0,0,5.52-21.38l.15-3a6,6,0,0,0,.13-2.2h0a46.56,46.56,0,0,0-18.3-31.08h0c-1.14-.85-5.49-2.32-6.85-2.74-4.22-1.32-9.6-2.44-13.34-2.27l-4.83.36a32,32,0,0,0-16,5.72c-1.53,1.07-3.2,2.2-5.18,3.38h0a36.15,36.15,0,0,0-17.66,31.06v25.22l-76.56,2.58L458,819.06l-93,1.05,1.47-14.1c1.46-5.83,2.66-12.86,1-18.94l-3.33-11.45c-3-4.8-11.62-18.08-17.76-20,0,0-7-2.79-10.65-3.93-3.85-1.22-11.62-3-11.62-3-4.3-1-9.09.68-13.44,1.37l-9,1.44a64.2,64.2,0,0,0-9.67,2.32h0a24.83,24.83,0,0,0-14.13,11.71c-.12.22-.23.43-.33.6h0a42.41,42.41,0,0,0-5.22,20.1L272,821.16,135.6,822.68l-22.39.25-80-16.36-6.51-93.09-1.35-10Z" />
    <path class="cls-14"
        d="M29.91,578.21,24.62,712.93,31.13,806l83.29,17.17,158.81-2.53.85-37.73,15.82-22.58s8.06-2.86,8.38-2.94,42.25-1,43.6-.78,5.63.69,8.57,3,14.49,18,15.25,20.46,1.37,4.33,1.16,12.07l-.7,27,380.17-6.08.77-30.51s-.07-2.93,2.3-7.38S759,761.12,759,761.12s5.06-5.36,10.54-5.91,32.89-.2,32.89-.2,4.68.6,7,2.42,7.57,5.82,11.93,16.32c2.8,6.71,2,10,2,10l-.48,28.12,131.27-5.46,6.49-8.42,4.33-21.79-2.37-7.46-.43-187-6.4-4.88H30.33Z" />
    <polygon class="cls-15"
        points="365.25 810.7 745.44 806.94 745.17 815.84 364.96 820.11 365.25 810.7" />
    <path class="cls-15"
        d="M135.9,813l136.42-1.35-.29,9.54-158.82,1.77-80-16.36s-7.76-88.68-6.51-93.09L32,578.75l1,1.59L29.64,715.57l9.14,82Z" />
    <polygon class="cls-15"
        points="937.1 813.25 934.63 813.72 821.65 814.99 821.92 806.18 936.64 805.05 937.1 813.25" />
    <polygon class="cls-16" points="941.2 733.36 941.2 577.4 59.36 577.4 58.46 739.89 941.2 733.36" />
    <polygon class="cls-16"
        points="625.43 809.15 521.77 813.01 522.74 586.23 626.38 587.25 625.43 809.15" />
    <path class="cls-17"
        d="M626.87,810.58l-106.62,4,1-228.37,106.6-.44Zm-103.59.86L624,807.72l.94-219-100.32,0Z" />
    <polygon class="cls-16"
        points="256.29 821.33 135.6 822.68 142.88 582.48 263.54 582.28 256.29 821.33" />
    <path class="cls-17"
        d="M257.92,822.91l-124.13,1.43,7.34-242.06H265.22ZM137.41,821l117.25-1.27,6.44-234.28-116.57.75Z" />
    <polygon class="cls-18"
        points="391.68 722.67 281.96 725.14 282.04 588.23 391.75 588.73 391.68 722.67" />
    <polygon class="cls-18"
        points="510.82 722.67 401.11 725.14 401.18 588.23 510.89 588.73 510.82 722.67" />
    <polygon class="cls-18"
        points="729.42 725.39 636.04 726.58 636.41 591.68 730.22 592.07 729.42 725.39" />
    <polygon class="cls-18"
        points="834.37 726.04 740.99 727.24 741.36 592.33 835.17 592.72 834.37 726.04" />
    <polygon class="cls-18"
        points="130.03 726.19 69.68 726.89 71.32 584.05 131.66 584.05 130.03 726.19" />
    <polygon class="cls-18"
        points="570.82 731.79 529.49 732.46 530.92 592.11 572.24 592.64 570.82 731.79" />
    <polygon class="cls-18"
        points="570.83 795.95 529.49 797.2 529.92 746.6 571.25 745.79 570.83 795.95" />
    <polygon class="cls-18"
        points="620.55 795.13 579.21 796.38 579.64 745.78 620.97 744.97 620.55 795.13" />
    <polygon class="cls-18"
        points="193.64 740.76 145.5 741.39 147.29 589.88 195.4 590.66 193.64 740.76" />
    <polygon class="cls-18"
        points="190.09 807.56 141.93 807.96 143.58 753.37 191.73 753.47 190.09 807.56" />
    <polygon class="cls-18"
        points="251.1 807.05 204.08 807.44 205.72 753.5 252.72 753.6 251.1 807.05" />
    <polygon class="cls-19"
        points="617.82 812.82 523.99 813.78 523.85 818.33 617.68 817.27 617.82 812.82" />
    <polygon class="cls-19"
        points="927.11 809.64 845.29 810.48 845.16 814.72 926.98 813.8 927.11 809.64" />
    <polygon class="cls-19"
        points="250.81 816.59 141.63 817.71 141.48 822.62 250.66 821.39 250.81 816.59" />
    <path class="cls-15"
        d="M741,785.73a3.06,3.06,0,0,1-3,3,2.81,2.81,0,0,1-2.78-3,3.06,3.06,0,0,1,3-3A2.82,2.82,0,0,1,741,785.73Z" />
    <path class="cls-20"
        d="M741.36,784.24a3.06,3.06,0,0,1-3,3,2.82,2.82,0,0,1-2.78-3,3.06,3.06,0,0,1,3-3A2.81,2.81,0,0,1,741.36,784.24Z" />
    <path class="cls-21"
        d="M740.72,784.82a3.06,3.06,0,0,1-3,3,2.81,2.81,0,0,1-2.78-3,3.06,3.06,0,0,1,3-3A2.81,2.81,0,0,1,740.72,784.82Z" />
    <path class="cls-22"
        d="M740.28,784.82a2.6,2.6,0,0,1-2.51,2.56,2.39,2.39,0,0,1-2.35-2.53,2.6,2.6,0,0,1,2.51-2.56A2.39,2.39,0,0,1,740.28,784.82Z" />
    <path class="cls-15"
        d="M668.52,787.42a3.14,3.14,0,0,1-3,3.06,2.88,2.88,0,0,1-2.87-3,3.14,3.14,0,0,1,3-3.06A2.88,2.88,0,0,1,668.52,787.42Z" />
    <path class="cls-20"
        d="M668.88,785.91a3.13,3.13,0,0,1-3,3.06,2.88,2.88,0,0,1-2.86-3,3.14,3.14,0,0,1,3-3.06A2.88,2.88,0,0,1,668.88,785.91Z" />
    <path class="cls-21"
        d="M668.22,786.5a3.13,3.13,0,0,1-3.05,3.06,2.88,2.88,0,0,1-2.87-3,3.15,3.15,0,0,1,3.06-3.06A2.88,2.88,0,0,1,668.22,786.5Z" />
    <path class="cls-22"
        d="M667.77,786.5a2.66,2.66,0,0,1-2.58,2.6,2.44,2.44,0,0,1-2.44-2.57,2.67,2.67,0,0,1,2.59-2.6A2.44,2.44,0,0,1,667.77,786.5Z" />
    <path class="cls-15"
        d="M482.58,781.4a3.33,3.33,0,0,1-3.3,3.18,3.06,3.06,0,0,1-3.1-3.16,3.32,3.32,0,0,1,3.3-3.18A3.07,3.07,0,0,1,482.58,781.4Z" />
    <path class="cls-20"
        d="M483,779.83a3.32,3.32,0,0,1-3.29,3.18,3.06,3.06,0,0,1-3.11-3.16,3.33,3.33,0,0,1,3.3-3.18A3.06,3.06,0,0,1,483,779.83Z" />
    <path class="cls-21"
        d="M482.26,780.44a3.32,3.32,0,0,1-3.3,3.18,3,3,0,0,1-3.1-3.15,3.31,3.31,0,0,1,3.3-3.18A3.06,3.06,0,0,1,482.26,780.44Z" />
    <path class="cls-22"
        d="M481.77,780.45a2.8,2.8,0,0,1-2.79,2.69,2.6,2.6,0,0,1-2.64-2.68,2.81,2.81,0,0,1,2.8-2.69A2.58,2.58,0,0,1,481.77,780.45Z" />
    <path class="cls-15"
        d="M388,787.05a3.43,3.43,0,0,1-3.42,3.25,3.14,3.14,0,0,1-3.23-3.22,3.42,3.42,0,0,1,3.42-3.24A3.14,3.14,0,0,1,388,787.05Z" />
    <path class="cls-20"
        d="M388.38,785.45A3.43,3.43,0,0,1,385,788.7a3.14,3.14,0,0,1-3.23-3.22,3.42,3.42,0,0,1,3.42-3.24A3.14,3.14,0,0,1,388.38,785.45Z" />
    <path class="cls-21"
        d="M387.64,786.08a3.43,3.43,0,0,1-3.43,3.24,3.15,3.15,0,0,1-3.23-3.21,3.43,3.43,0,0,1,3.43-3.25A3.16,3.16,0,0,1,387.64,786.08Z" />
    <path class="cls-22"
        d="M387.13,786.08a2.89,2.89,0,0,1-2.9,2.75,2.66,2.66,0,0,1-2.74-2.72,2.91,2.91,0,0,1,2.91-2.76A2.67,2.67,0,0,1,387.13,786.08Z" />
    <path class="cls-15"
        d="M90.31,785.51A3.74,3.74,0,0,1,86.47,789a3.45,3.45,0,0,1-3.63-3.41,3.73,3.73,0,0,1,3.84-3.44A3.44,3.44,0,0,1,90.31,785.51Z" />
    <path class="cls-20"
        d="M90.77,783.81a3.75,3.75,0,0,1-3.84,3.44,3.46,3.46,0,0,1-3.64-3.41,3.75,3.75,0,0,1,3.85-3.44A3.44,3.44,0,0,1,90.77,783.81Z" />
    <path class="cls-21"
        d="M89.94,784.47a3.75,3.75,0,0,1-3.84,3.44,3.45,3.45,0,0,1-3.64-3.41,3.75,3.75,0,0,1,3.84-3.44A3.46,3.46,0,0,1,89.94,784.47Z" />
    <path class="cls-22"
        d="M89.37,784.48a3.18,3.18,0,0,1-3.26,2.91A2.92,2.92,0,0,1,83,784.5a3.18,3.18,0,0,1,3.26-2.92A2.93,2.93,0,0,1,89.37,784.48Z" />
    <polygon class="cls-18"
        points="255.62 740.76 207.49 741.39 209.27 589.88 257.39 590.66 255.62 740.76" />
    <polygon class="cls-18"
        points="620.54 731.79 579.21 732.46 580.64 592.11 621.96 592.64 620.54 731.79" />
    <polygon class="cls-16"
        points="938.66 804.39 841.61 808.07 842.52 591.47 939.55 592.45 938.66 804.39" />
    <path class="cls-17"
        d="M940,805.75l-99.82,3.83L841.11,590h99.81Zm-97,.82L937.31,803l.89-210.08H843.93Z" />
    <polygon class="cls-18"
        points="887.54 730.5 848.84 731.14 850.18 597.09 888.87 596.88 887.54 730.5" />
    <polygon class="cls-18"
        points="886.16 791.82 848.85 792.15 849.24 744.64 886.31 744.55 886.16 791.82" />
    <polygon class="cls-18"
        points="932.71 791.82 895.39 792.15 895.78 744.64 932.85 744.55 932.71 791.82" />
    <polygon class="cls-18"
        points="934.09 730.5 895.39 731.14 896.73 597.09 935.42 597.09 934.09 730.5" />
    <polygon class="cls-23"
        points="941.2 577.4 957.75 577.4 964.16 582.28 964.35 595.77 941.21 595.26 941.2 577.4" />
    <polygon class="cls-18"
        points="941.21 595.26 964.35 595.77 965.72 740.68 940.28 740.68 941.21 595.26" />
    <polygon class="cls-23"
        points="939.55 740.68 965.72 740.68 964.26 772.51 938.79 773.57 939.55 740.68" />
    <polygon class="cls-23"
        points="987.3 495.63 957.75 577.4 964.16 582.28 994.26 500.51 987.3 495.63" />
    <polygon class="cls-18"
        points="964.35 595.77 994.44 515.72 995.66 637.66 995.87 660.18 994.69 687.5 965.72 740.68 964.35 595.77" />
    <polygon class="cls-23"
        points="994.26 500.51 994.44 515.72 964.35 595.77 964.16 582.28 994.26 500.51" />
    <polygon class="cls-23"
        points="994.69 687.5 965.72 740.68 964.26 772.51 997.06 694.96 994.69 687.5" />
    <polygon class="cls-16"
        points="940.92 808.47 940.01 805.75 940.14 773.57 964.26 772.51 997.06 694.96 996.09 705.49 989.79 726.59 959.3 797.67 952.82 806.09 940.92 808.47" />
</svg>