<svg id="Capa_1" data-name="Capa 1" xmlns="http://www.w3.org/2000/svg"
    xmlns:xlink="http://www.w3.org/1999/xlink" viewBox="0 0 1080 1350">
    <defs>
        <style>
            .cls-1{fill:#1e1e1e;}.cls-2{fill:#9693a6;}.cls-3{fill:#8c8d96;}.cls-14{fill:#c4c2c1;}.cls-5{fill:#353535;opacity:0.29;}.cls-6{fill:#1d232a;}.cls-7{fill:url(#linear-gradient);}.cls-8{fill:#4a4a56;}.cls-9{fill:#b3b3b3;}.cls-10{fill:#fc8f04;}.cls-11{fill:#a9afb3;}.cls-12{fill:#383f48;}.cls-13{fill:#828286;}</style>
        <linearGradient id="linear-gradient" x1="-2238.58" y1="878.11" x2="-2215.34" y2="878.11"
            gradientTransform="matrix(1, 0, 0, -1, 2927.77, 1457.29)" gradientUnits="userSpaceOnUse">
            <stop offset="0" stop-color="#161616" />
            <stop offset="0.3" stop-color="#1a1a1a" />
            <stop offset="0.79" stop-color="#1e1e1e" />
            <stop offset="0.8" stop-color="#1e1e1e" />
        </linearGradient>
    </defs>
    <ellipse class="cls-1" cx="336.2" cy="707.93" rx="85.57" ry="80.46" />
    <ellipse class="cls-2" cx="336.2" cy="707.93" rx="56.32" ry="52.96" />
    <ellipse class="cls-3" cx="336.2" cy="707.93" rx="50.7" ry="47.67" />
    <ellipse class="cls-1" cx="336.2" cy="707.93" rx="25.88" ry="24.34" />
    <ellipse class="cls-2" cx="336.2" cy="707.93" rx="23.29" ry="21.89" />
    <ellipse class="cls-1" cx="336.2" cy="671.86" rx="4.97" ry="4.67" />
    <ellipse class="cls-1" cx="355.42" cy="676.65" rx="4.97" ry="4.67" />
    <ellipse class="cls-1" cx="369.51" cy="689.83" rx="4.97" ry="4.67" />
    <ellipse class="cls-1" cx="374.69" cy="707.88" rx="4.97" ry="4.67" />
    <ellipse class="cls-1" cx="369.56" cy="725.94" rx="4.97" ry="4.67" />
    <ellipse class="cls-1" cx="355.51" cy="739.17" rx="4.97" ry="4.67" />
    <ellipse class="cls-1" cx="336.31" cy="744.01" rx="4.97" ry="4.67" />
    <ellipse class="cls-1" cx="317.11" cy="739.16" rx="4.97" ry="4.67" />
    <ellipse class="cls-1" cx="303.07" cy="725.92" rx="4.97" ry="4.67" />
    <ellipse class="cls-1" cx="297.96" cy="707.86" rx="4.97" ry="4.67" />
    <ellipse class="cls-1" cx="303.15" cy="689.81" rx="4.97" ry="4.67" />
    <ellipse class="cls-1" cx="317.25" cy="676.63" rx="4.97" ry="4.67" />
    <ellipse class="cls-1" cx="873.95" cy="708.18" rx="85.57" ry="80.46" />
    <ellipse class="cls-2" cx="873.95" cy="708.18" rx="56.32" ry="52.96" />
    <ellipse class="cls-3" cx="873.95" cy="708.18" rx="50.7" ry="47.67" />
    <ellipse class="cls-1" cx="873.95" cy="708.18" rx="25.88" ry="24.34" />
    <ellipse class="cls-2" cx="873.95" cy="708.18" rx="23.29" ry="21.89" />
    <ellipse class="cls-1" cx="873.95" cy="672.11" rx="4.97" ry="4.67" />
    <ellipse class="cls-1" cx="893.17" cy="676.9" rx="4.97" ry="4.67" />
    <ellipse class="cls-1" cx="907.26" cy="690.09" rx="4.97" ry="4.67" />
    <ellipse class="cls-1" cx="912.43" cy="708.13" rx="4.97" ry="4.67" />
    <ellipse class="cls-1" cx="907.31" cy="726.2" rx="4.97" ry="4.67" />
    <ellipse class="cls-1" cx="893.26" cy="739.42" rx="4.97" ry="4.67" />
    <ellipse class="cls-1" cx="874.06" cy="744.26" rx="4.97" ry="4.67" />
    <ellipse class="cls-1" cx="854.86" cy="739.41" rx="4.97" ry="4.67" />
    <ellipse class="cls-1" cx="840.82" cy="726.17" rx="4.97" ry="4.67" />
    <ellipse class="cls-1" cx="835.71" cy="708.11" rx="4.97" ry="4.67" />
    <ellipse class="cls-1" cx="840.9" cy="690.06" rx="4.97" ry="4.67" />
    <ellipse class="cls-1" cx="855" cy="676.88" rx="4.97" ry="4.67" />
    <path class="cls-14"
        d="M987.72,586.94V700.55s-.13,16.53-16.54,17.3l-17.36,6.47s-4.2,11.6-15.61,11.6H27.64v-136l33-18.07,281.2-5L343.48,434s-.18-11.6,11.23-11.6L376.44,416s-.68-10.75,11.23-11.6H637.31s4.74-.8,8.74,4.83S752.48,552.81,752.48,552.81A34.83,34.83,0,0,0,774,563.56l195,7.48S987.72,571.42,987.72,586.94Z" />
    <path class="cls-5"
        d="M25.75,599.87v87.38l19.64.53v48.14H936.33c9.14,0,16.55-7.75,16.55-17.3V605c0-9.92-13.76-7.76-23.25-7.76l-188.1-3c-5.39,0-48-2.39-51.06-7l-103-150.43c-2-3-12.41-14.33-15.91-14.33H352.83A11.49,11.49,0,0,0,341.59,434l-1.88,160.21Z" />
    <polygon class="cls-6"
        points="421.78 456.8 585.29 456.8 677.16 594.25 421.78 594.25 421.78 456.8" />
    <rect class="cls-7" x="689.2" y="571.15" width="23.24" height="16.05" rx="0.46" />
    <rect class="cls-8" x="641.89" y="561.11" width="57.15" height="36.14" rx="1.61" />
    <path class="cls-9"
        d="M29.64,687.78H24a3.22,3.22,0,0,0-3.38,3v46.54a3.59,3.59,0,0,0,3.77,3.38H47.28v-53Z" />
    <ellipse class="cls-1" cx="227.68" cy="754.88" rx="85.57" ry="80.46" />
    <ellipse class="cls-2" cx="227.68" cy="754.88" rx="56.32" ry="52.96" />
    <ellipse class="cls-3" cx="227.68" cy="754.88" rx="50.7" ry="47.67" />
    <ellipse class="cls-1" cx="227.68" cy="754.88" rx="25.88" ry="24.34" />
    <ellipse class="cls-2" cx="227.68" cy="754.88" rx="23.29" ry="21.89" />
    <ellipse class="cls-1" cx="227.68" cy="718.81" rx="4.97" ry="4.67" />
    <ellipse class="cls-1" cx="246.9" cy="723.6" rx="4.97" ry="4.67" />
    <ellipse class="cls-1" cx="260.99" cy="736.78" rx="4.97" ry="4.67" />
    <ellipse class="cls-1" cx="266.17" cy="754.83" rx="4.97" ry="4.67" />
    <ellipse class="cls-1" cx="261.04" cy="772.89" rx="4.97" ry="4.67" />
    <ellipse class="cls-1" cx="246.99" cy="786.12" rx="4.97" ry="4.67" />
    <ellipse class="cls-1" cx="227.79" cy="790.96" rx="4.97" ry="4.67" />
    <ellipse class="cls-1" cx="208.59" cy="786.11" rx="4.97" ry="4.67" />
    <ellipse class="cls-1" cx="194.55" cy="772.87" rx="4.97" ry="4.67" />
    <ellipse class="cls-1" cx="189.44" cy="754.81" rx="4.97" ry="4.67" />
    <ellipse class="cls-1" cx="194.63" cy="736.76" rx="4.97" ry="4.67" />
    <ellipse class="cls-1" cx="208.73" cy="723.58" rx="4.97" ry="4.67" />
    <path class="cls-8"
        d="M945.41,693.17h5a3,3,0,0,1,3,3v46.55a3.38,3.38,0,0,1-3.38,3.37H929.63v-53Z" />
    <path class="cls-10"
        d="M937.28,618.8H931.7a3.2,3.2,0,0,0-3.35,3v46.55a3.57,3.57,0,0,0,3.73,3.38l22.68,3v-54Z" />
    <path class="cls-10"
        d="M981.79,608.64a5.4,5.4,0,0,0-1,3.53l.22,47.51c0,1.1.62,1.73,1.08,1.11l5.68-7.85V602.21Z" />
    <path class="cls-10"
        d="M964.05,620.15c.14,8.33.22,39.21.23,46.68a3,3,0,0,1-1.37,2.54l-8.15,5.34v-54l7.28-2A1.57,1.57,0,0,1,964.05,620.15Z" />
    <path class="cls-11"
        d="M422.22,607H488a1.36,1.36,0,0,1,1.36,1.36v21.35a.85.85,0,0,1-.85.85H422.63a.85.85,0,0,1-.85-.85V607.46a.44.44,0,0,1,.44-.44Z" />
    <path class="cls-12"
        d="M485.11,619.44H426c-2.32,0-4.2-1.57-4.2-3.5v-5.43c0-1.93,1.88-3.49,4.2-3.49h51.49c4.45,0,8.5,2.15,10.37,5.51l1.08,2C490.21,616.79,488.17,619.44,485.11,619.44Z" />
    <ellipse class="cls-11" cx="432.13" cy="613.23" rx="4.52" ry="3.76" />
    <ellipse class="cls-1" cx="811.39" cy="755.6" rx="85.57" ry="80.46" />
    <ellipse class="cls-2" cx="811.39" cy="755.6" rx="56.32" ry="52.96" />
    <ellipse class="cls-3" cx="811.39" cy="755.6" rx="50.7" ry="47.67" />
    <ellipse class="cls-1" cx="811.39" cy="755.6" rx="25.88" ry="24.34" />
    <ellipse class="cls-2" cx="811.39" cy="755.6" rx="23.29" ry="21.89" />
    <ellipse class="cls-1" cx="811.39" cy="719.53" rx="4.97" ry="4.67" />
    <ellipse class="cls-1" cx="830.61" cy="724.32" rx="4.97" ry="4.67" />
    <ellipse class="cls-1" cx="844.7" cy="737.5" rx="4.97" ry="4.67" />
    <ellipse class="cls-1" cx="849.88" cy="755.55" rx="4.97" ry="4.67" />
    <ellipse class="cls-1" cx="844.75" cy="773.61" rx="4.97" ry="4.67" />
    <ellipse class="cls-1" cx="830.7" cy="786.84" rx="4.97" ry="4.67" />
    <ellipse class="cls-1" cx="811.5" cy="791.68" rx="4.97" ry="4.67" />
    <ellipse class="cls-1" cx="792.3" cy="786.83" rx="4.97" ry="4.67" />
    <ellipse class="cls-1" cx="778.26" cy="773.59" rx="4.97" ry="4.67" />
    <ellipse class="cls-1" cx="773.15" cy="755.53" rx="4.97" ry="4.67" />
    <ellipse class="cls-1" cx="778.34" cy="737.48" rx="4.97" ry="4.67" />
    <ellipse class="cls-1" cx="792.44" cy="724.3" rx="4.97" ry="4.67" />
    <polygon class="cls-6"
        points="599.78 455.2 654.96 432.98 749.27 558.76 690.47 587.2 599.78 455.2" />
    <polygon class="cls-13"
        points="990.15 673.62 990.15 700.18 990.15 715.33 953.48 742.75 953.48 696.2 990.15 673.62" />
    <polygon class="cls-13"
        points="929.63 693.17 987.72 666.13 990.15 664.63 990.15 673.62 953.48 696.2 929.63 693.17" />
    <polyline class="cls-13" points="990.15 664.63 987.72 664.38 987.72 666.13" />
</svg>