<svg id="Capa_1" data-name="Capa 1" xmlns="http://www.w3.org/2000/svg"
    xmlns:xlink="http://www.w3.org/1999/xlink" viewBox="0 0 1080 1350">
    <defs>
        <style>
            .cls-1{fill:#1e1e1e;}.cls-2{fill:#9895a8;}.cls-3{fill:#8e8f98;}.cls-14{fill:#c4c2c1;}.cls-5{fill:#a9afb3;}.cls-6{fill:#383f48;}.cls-7{fill:url(#linear-gradient);}.cls-8{fill:#4a4a56;}.cls-9{fill:#292929;}.cls-10{fill:#fd0101;}.cls-11{fill:#fd8d0b;}.cls-12{fill:#e0e1e5;}.cls-13{fill:#353535;opacity:0.29;}</style>
        <linearGradient id="linear-gradient" x1="-2115.81" y1="750.69" x2="-2099.4" y2="750.69"
            gradientTransform="matrix(1, 0, 0, -1, 3047.22, 1457.29)" gradientUnits="userSpaceOnUse">
            <stop offset="0" stop-color="#161616" />
            <stop offset="0.3" stop-color="#1a1a1a" />
            <stop offset="0.79" stop-color="#1e1e1e" />
            <stop offset="0.8" stop-color="#1e1e1e" />
        </linearGradient>
    </defs>
    <circle class="cls-1" cx="337.65" cy="826.76" r="65.76" />
    <circle class="cls-2" cx="337.65" cy="826.76" r="43.28" />
    <circle class="cls-3" cx="337.65" cy="826.76" r="38.96" />
    <circle class="cls-1" cx="337.65" cy="826.76" r="19.89" />
    <circle class="cls-2" cx="337.65" cy="826.76" r="17.89" />
    <circle class="cls-1" cx="337.65" cy="797.28" r="3.82" />
    <circle class="cls-1" cx="322.88" cy="801.19" r="3.82" />
    <circle class="cls-1" cx="312.05" cy="811.97" r="3.82" />
    <circle class="cls-1" cx="308.07" cy="826.72" r="3.82" />
    <circle class="cls-1" cx="312.01" cy="841.48" r="3.82" />
    <circle class="cls-1" cx="322.8" cy="852.29" r="3.82" />
    <circle class="cls-1" cx="337.56" cy="856.24" r="3.82" />
    <circle class="cls-1" cx="352.32" cy="852.28" r="3.82" />
    <circle class="cls-1" cx="363.11" cy="841.46" r="3.82" />
    <circle class="cls-1" cx="367.03" cy="826.7" r="3.82" />
    <circle class="cls-1" cx="363.04" cy="811.95" r="3.82" />
    <circle class="cls-1" cx="352.21" cy="801.18" r="3.82" />
    <circle class="cls-1" cx="890.73" cy="830.62" r="65.76" />
    <circle class="cls-2" cx="890.73" cy="830.62" r="43.28" />
    <circle class="cls-3" cx="890.73" cy="830.62" r="38.96" />
    <circle class="cls-1" cx="890.73" cy="830.62" r="19.89" />
    <circle class="cls-2" cx="890.73" cy="830.62" r="17.89" />
    <circle class="cls-1" cx="890.73" cy="801.14" r="3.82" />
    <circle class="cls-1" cx="875.96" cy="805.05" r="3.82" />
    <circle class="cls-1" cx="865.13" cy="815.83" r="3.82" />
    <circle class="cls-1" cx="861.15" cy="830.58" r="3.82" />
    <circle class="cls-1" cx="865.09" cy="845.34" r="3.82" />
    <circle class="cls-1" cx="875.89" cy="856.15" r="3.82" />
    <circle class="cls-1" cx="890.65" cy="860.1" r="3.82" />
    <circle class="cls-1" cx="905.4" cy="856.14" r="3.82" />
    <circle class="cls-1" cx="916.19" cy="845.32" r="3.82" />
    <circle class="cls-1" cx="920.12" cy="830.56" r="3.82" />
    <circle class="cls-1" cx="916.13" cy="815.81" r="3.82" />
    <circle class="cls-1" cx="905.29" cy="805.04" r="3.82" />
    <polygon class="cls-14"
        points="1027.29 807.51 963.96 848.58 876.46 847.83 732.72 847.6 35.61 847.6 35.61 489.78 91.38 449.68 788.16 449.68 788.16 528.84 967.85 554.92 1041.7 667.89 1027.29 807.51" />
    <path class="cls-5"
        d="M747.43,714.68h45.91A1.36,1.36,0,0,1,794.7,716v14.44a.85.85,0,0,1-.85.85h-46a.85.85,0,0,1-.85-.85V715.12A.44.44,0,0,1,747.43,714.68Z" />
    <path class="cls-6"
        d="M791.73,723.45H750a2.75,2.75,0,0,1-3-2.47v-3.83a2.75,2.75,0,0,1,3-2.47h36.37a8.32,8.32,0,0,1,7.33,3.89l.76,1.38C795.33,721.59,793.89,723.45,791.73,723.45Z" />
    <ellipse class="cls-5" cx="754.3" cy="719.06" rx="3.2" ry="2.66" />
    <polygon class="cls-1"
        points="746.99 695.57 744.89 598.49 893.1 602.16 947.82 676.4 947.82 703.58 746.99 701.14 746.99 695.57" />
    <rect class="cls-7" x="931.41" y="700.92" width="16.42" height="11.34" rx="0.46" />
    <rect class="cls-8" x="897.99" y="693.83" width="40.37" height="25.53" rx="1.61" />
    <path class="cls-9"
        d="M35.61,857V838.12l128.15,1.78S185.07,823.58,197,822s30.75-.35,40.57,4.56,21,18.14,21,18.14l101.06-1.91H488.6l109.43.07H688l44.42,1V857l-459.2-.39" />
    <circle class="cls-1" cx="206.12" cy="884.3" r="65.76" />
    <circle class="cls-2" cx="206.12" cy="884.3" r="43.28" />
    <circle class="cls-3" cx="206.12" cy="884.3" r="38.96" />
    <circle class="cls-1" cx="206.12" cy="884.3" r="19.89" />
    <circle class="cls-2" cx="206.12" cy="884.3" r="17.89" />
    <circle class="cls-1" cx="206.12" cy="854.82" r="3.82" />
    <circle class="cls-1" cx="191.35" cy="858.73" r="3.82" />
    <circle class="cls-1" cx="180.52" cy="869.51" r="3.82" />
    <circle class="cls-1" cx="176.54" cy="884.26" r="3.82" />
    <circle class="cls-1" cx="180.48" cy="899.02" r="3.82" />
    <circle class="cls-1" cx="191.28" cy="909.83" r="3.82" />
    <circle class="cls-1" cx="206.04" cy="913.78" r="3.82" />
    <circle class="cls-1" cx="220.79" cy="909.82" r="3.82" />
    <circle class="cls-1" cx="231.58" cy="899" r="3.82" />
    <circle class="cls-1" cx="235.51" cy="884.24" r="3.82" />
    <circle class="cls-1" cx="231.52" cy="869.49" r="3.82" />
    <circle class="cls-1" cx="220.68" cy="858.72" r="3.82" />
    <path class="cls-10"
        d="M40.74,836.53h0c-2.82,0-5.13-.15-5.13-1.9V814.86c0-2.82,2.31-1.75,5.13-1.75h0a5.15,5.15,0,0,1,5.13,5.13V831.4A5.15,5.15,0,0,1,40.74,836.53Z" />
    <path class="cls-9"
        d="M732.39,855.21,736.6,759l86.78,3.75s32.43,27.14,35.56,38.45,22,57.69,22,57.69l-17.16-.19s-10-30-21.54-37.39-29.66-10-29.66-10-26.64-3.12-29.33.44-28.51,14.42-28.51,14.42Z" />
    <circle class="cls-1" cx="797.98" cy="869.58" r="65.76" />
    <circle class="cls-2" cx="797.98" cy="869.58" r="43.28" />
    <circle class="cls-3" cx="797.98" cy="869.58" r="38.96" />
    <circle class="cls-1" cx="797.98" cy="869.58" r="19.89" />
    <circle class="cls-2" cx="797.98" cy="869.58" r="17.89" />
    <circle class="cls-1" cx="797.98" cy="840.1" r="3.82" />
    <circle class="cls-1" cx="783.21" cy="844.01" r="3.82" />
    <circle class="cls-1" cx="772.38" cy="854.79" r="3.82" />
    <circle class="cls-1" cx="768.4" cy="869.54" r="3.82" />
    <circle class="cls-1" cx="772.34" cy="884.3" r="3.82" />
    <circle class="cls-1" cx="783.14" cy="895.11" r="3.82" />
    <circle class="cls-1" cx="797.9" cy="899.06" r="3.82" />
    <circle class="cls-1" cx="812.65" cy="895.1" r="3.82" />
    <circle class="cls-1" cx="823.44" cy="884.28" r="3.82" />
    <circle class="cls-1" cx="827.37" cy="869.52" r="3.82" />
    <circle class="cls-1" cx="823.38" cy="854.77" r="3.82" />
    <circle class="cls-1" cx="812.54" cy="844" r="3.82" />
    <polygon class="cls-1"
        points="938.36 581.8 971.22 566.41 1028.63 651.04 956.19 680.57 899.29 600.92 938.36 581.8" />
    <polygon class="cls-8"
        points="1038.4 679.12 962.59 712.27 963.92 801.2 1028.63 767.61 1038.4 679.12" />
    <polygon class="cls-9"
        points="1030.19 779.43 962.59 815.1 933.31 815.1 931.4 846.73 963.96 848.58 1027.29 807.51 1030.19 779.43" />
    <path class="cls-11"
        d="M962.28,837.51l-.5,4.22-.81,6.1H928.54c-5.52,0-10.14-2.56-12.15-6.1a7.89,7.89,0,0,1-.9-3.69V825c0-5.42,5.82-9.78,13-9.78h21.59C957.26,821.41,961.58,829.16,962.28,837.51Z" />
    <path class="cls-12"
        d="M962.28,837.51h0l.31,10.13-13.16.19a69.42,69.42,0,0,1-7-16.64,68.19,68.19,0,0,1-2.51-16h22.39C962.45,816,962.28,837.51,962.28,837.51Z" />
    <polygon class="cls-12"
        points="1020.56 784.55 1030.19 779.43 1027.29 807.51 1022.32 810.73 1020.56 784.55" />
    <path class="cls-13"
        d="M736.6,588.56l156.85,4.18,62.74,87.83V801.2H858.94s-30-40.11-40.08-40.11-55-2.09-55-2.09H736.6Z" />
    <polygon class="cls-13"
        points="732.22 841.52 736.6 491.14 35.61 489.78 35.61 845.34 732.22 841.52" />
    <polygon class="cls-13"
        points="788.16 528.84 967.85 554.92 893.45 592.74 736.6 588.57 788.16 528.84" />
</svg>