<svg id="Capa_1" data-name="Capa 1" xmlns="http://www.w3.org/2000/svg" viewBox="0 0 1080 1350">
    <defs>
        <style>
            .cls-1{fill:#1e1e1e;}.cls-2{fill:#9693a6;}.cls-3{fill:#8c8d96;}.cls-14{fill:#c4c2c1;}.cls-5,.cls-7{fill:#353535;}.cls-5{opacity:0.29;}.cls-6{fill:#696565;}.cls-8{fill:#1d232a;}.cls-9{fill:#a7adb1;}.cls-10{fill:#383f48;}.cls-11{fill:#96a0a1;}.cls-12{fill:#b2b2b2;}.cls-13{fill:#606060;}.cls-4{fill:#d4d9dd;}</style>
    </defs>
    <path class="cls-1"
        d="M188.53,796.34a89.84,89.84,0,0,0,179.68,0c0-49.62-40.22-59.13-89.84-59.13S188.53,746.72,188.53,796.34Z" />
    <circle class="cls-2" cx="278.37" cy="796.34" r="59.13" />
    <circle class="cls-3" cx="278.37" cy="796.34" r="53.23" />
    <circle class="cls-1" cx="278.37" cy="796.34" r="27.17" />
    <circle class="cls-2" cx="278.37" cy="796.34" r="24.45" />
    <circle class="cls-1" cx="278.37" cy="756.06" r="5.21" />
    <circle class="cls-1" cx="258.19" cy="761.41" r="5.21" />
    <circle class="cls-1" cx="243.4" cy="776.13" r="5.21" />
    <circle class="cls-1" cx="237.96" cy="796.28" r="5.21" />
    <circle class="cls-1" cx="243.34" cy="816.45" r="5.21" />
    <circle class="cls-1" cx="258.09" cy="831.22" r="5.21" />
    <circle class="cls-1" cx="278.26" cy="836.62" r="5.21" />
    <circle class="cls-1" cx="298.41" cy="831.2" r="5.21" />
    <circle class="cls-1" cx="313.15" cy="816.43" r="5.21" />
    <circle class="cls-1" cx="318.52" cy="796.25" r="5.21" />
    <circle class="cls-1" cx="313.07" cy="776.11" r="5.21" />
    <circle class="cls-1" cx="298.26" cy="761.39" r="5.21" />
    <path class="cls-1"
        d="M421.44,793.92a89.84,89.84,0,0,0,179.68,0c0-49.62-40.22-59.13-89.84-59.13S421.44,744.3,421.44,793.92Z" />
    <circle class="cls-2" cx="511.28" cy="793.92" r="59.13" />
    <circle class="cls-3" cx="511.28" cy="793.92" r="53.23" />
    <circle class="cls-1" cx="511.28" cy="793.92" r="27.17" />
    <circle class="cls-2" cx="511.28" cy="793.92" r="24.45" />
    <circle class="cls-1" cx="511.28" cy="753.64" r="5.21" />
    <circle class="cls-1" cx="491.1" cy="758.99" r="5.21" />
    <circle class="cls-1" cx="476.31" cy="773.71" r="5.21" />
    <circle class="cls-1" cx="470.87" cy="793.86" r="5.21" />
    <circle class="cls-1" cx="476.25" cy="814.03" r="5.21" />
    <circle class="cls-1" cx="491.01" cy="828.8" r="5.21" />
    <circle class="cls-1" cx="511.17" cy="834.2" r="5.21" />
    <circle class="cls-1" cx="531.32" cy="828.78" r="5.21" />
    <circle class="cls-1" cx="546.06" cy="814" r="5.21" />
    <circle class="cls-1" cx="551.43" cy="793.83" r="5.21" />
    <circle class="cls-1" cx="545.98" cy="773.69" r="5.21" />
    <circle class="cls-1" cx="531.17" cy="758.97" r="5.21" />
    <path class="cls-1"
        d="M875.12,780.42a89.84,89.84,0,1,0,179.68,0c0-49.62-40.22-59.13-89.84-59.13S875.12,730.8,875.12,780.42Z" />
    <circle class="cls-2" cx="964.96" cy="780.42" r="59.13" />
    <circle class="cls-3" cx="964.96" cy="780.42" r="53.23" />
    <circle class="cls-1" cx="964.96" cy="780.42" r="27.17" />
    <circle class="cls-2" cx="964.96" cy="780.42" r="24.45" />
    <circle class="cls-1" cx="964.96" cy="740.14" r="5.21" />
    <circle class="cls-1" cx="944.78" cy="745.49" r="5.21" />
    <circle class="cls-1" cx="929.99" cy="760.21" r="5.21" />
    <circle class="cls-1" cx="924.55" cy="780.36" r="5.21" />
    <circle class="cls-1" cx="929.93" cy="800.53" r="5.21" />
    <circle class="cls-1" cx="944.68" cy="815.3" r="5.21" />
    <circle class="cls-1" cx="964.85" cy="820.7" r="5.21" />
    <circle class="cls-1" cx="985" cy="815.28" r="5.21" />
    <circle class="cls-1" cx="999.74" cy="800.51" r="5.21" />
    <circle class="cls-1" cx="1005.11" cy="780.33" r="5.21" />
    <circle class="cls-1" cx="999.66" cy="760.19" r="5.21" />
    <circle class="cls-1" cx="984.85" cy="745.47" r="5.21" />
    <path class="cls-14"
        d="M1074.11,792.59l-39.89,38.81-2.44,1.2-36.18-.08-469.36-.37L57.49,828.37V800.66l66.12-68.78H536V404l42.34-40,18.12,7.45,16.37,7.79L632.18,390l9.91,6.36s16.13,12.28,17.56,13.59,11.5,12,11.5,12,8.35,13.06,9,14.6,3.17,11.93,3.17,11.93h136L931.93,567.81l111.45,5.9s13.56,1,13.56,14.29V743.14s6.82-.9,8.24-.91a27.79,27.79,0,0,1,4.56.31,14.26,14.26,0,0,1,1.62.6l2.51,6.86,2.16,8.83,3,18.51v7.24l-.58,2.56-.76,2.7a8.82,8.82,0,0,1-.91,1.35,9.88,9.88,0,0,1-.86.58Z" />
    <polygon class="cls-5" points="538.62 773.9 538.62 834.26 81.09 830.76 81.09 773.9 538.62 773.9" />
    <path class="cls-5" d="M535.79,406s100.88,37.09,105,84.48.43,344.11.43,344.11H535.79Z" />
    <path class="cls-5"
        d="M999.35,615.72l-109.93-5.89-10,126.49,120,98.21,15,.08V630C1014.44,622.4,1007.81,616.13,999.35,615.72Z" />
    <polygon class="cls-5"
        points="640.79 490.5 776.78 490.5 889.42 609.83 879.81 743.72 641.1 743.72 640.79 490.5" />
    <polygon class="cls-5" points="81.09 773.9 57.31 802.67 57.31 830.37 81.09 830.76 81.09 773.9" />
    <polygon class="cls-6"
        points="1056.93 743.14 1014.44 778.4 1032.85 778.94 1071.36 743.14 1071.44 742.93 1069.88 742.57 1066.61 742.26 1064.85 742.25 1062.95 742.39 1056.93 743.14" />
    <polygon class="cls-6"
        points="1056.93 743.14 1066.61 742.26 1069.74 742.54 1071.44 742.93 1073.87 750 1076.03 758.83 1077.08 765.28 1079.05 777.34 1079.05 784.58 1078.47 787.14 1077.71 789.84 1076.8 791.18 1075.94 791.77 1074.67 792.34 1074.11 792.59 1034.22 831.4 1031.78 832.6 1014.44 832.6 1014.44 778.4 1056.93 743.14" />
    <polygon class="cls-7"
        points="1071.36 743.14 1032.85 778.94 1014.44 778.4 1014.44 832.6 1031.78 832.6 1032.85 779.6 1071.36 743.14" />
    <polygon class="cls-8"
        points="661.51 522.63 771.74 522.63 843.52 617.75 663.11 620.32 661.51 522.63" />
    <path class="cls-9"
        d="M662,631.7h37.86a1.36,1.36,0,0,1,1.36,1.36v11.63a.85.85,0,0,1-.85.85h-38a.85.85,0,0,1-.85-.85V632.15a.44.44,0,0,1,.44-.44Z" />
    <path class="cls-10"
        d="M698.7,639H664a2.29,2.29,0,0,1-2.47-2.06v-3.19a2.29,2.29,0,0,1,2.47-2h30.23a6.93,6.93,0,0,1,6.1,3.24l.63,1.15C701.7,637.44,700.5,639,698.7,639Z" />
    <ellipse class="cls-9" cx="667.59" cy="635.35" rx="2.66" ry="2.21" />
    <polygon class="cls-11"
        points="642.62 835.53 650.74 835.53 650.74 760.2 864.73 760.2 864.73 744.63 645.63 744.63 642.62 835.53" />
    <rect class="cls-12" x="650.75" y="770.73" width="213.38" height="13.97" />
    <polygon class="cls-13"
        points="650.75 759.29 653.78 759.29 653.78 767.24 650.75 770.73 650.75 759.29" />
    <polygon class="cls-4"
        points="650.77 770.73 653.56 767.24 861.5 767.73 864.13 770.73 650.77 770.73" />
    <rect class="cls-12" x="650.76" y="796.15" width="213.37" height="13.97" />
    <polygon class="cls-13"
        points="650.76 784.7 653.79 784.7 653.79 792.65 650.76 796.15 650.76 784.7" />
    <polygon class="cls-4"
        points="650.78 796.15 653.57 792.65 861.5 793.14 864.13 796.15 650.78 796.15" />
    <rect class="cls-12" x="650.76" y="821.56" width="214.28" height="13.97" />
    <polygon class="cls-13"
        points="650.76 810.11 653.79 810.11 653.79 818.07 650.76 821.56 650.76 810.11" />
    <polygon class="cls-4"
        points="650.78 821.56 653.59 818.07 862.4 818.55 865.04 821.56 650.78 821.56" />
    <circle class="cls-1" cx="907.38" cy="849.55" r="89.84" />
    <circle class="cls-2" cx="907.38" cy="849.55" r="59.13" />
    <circle class="cls-3" cx="907.38" cy="849.55" r="53.23" />
    <circle class="cls-1" cx="907.38" cy="849.55" r="27.17" />
    <circle class="cls-2" cx="907.38" cy="849.55" r="24.45" />
    <circle class="cls-1" cx="907.38" cy="809.28" r="5.21" />
    <circle class="cls-1" cx="887.2" cy="814.62" r="5.21" />
    <circle class="cls-1" cx="872.41" cy="829.34" r="5.21" />
    <circle class="cls-1" cx="866.97" cy="849.49" r="5.21" />
    <circle class="cls-1" cx="872.35" cy="869.66" r="5.21" />
    <circle class="cls-1" cx="887.1" cy="884.43" r="5.21" />
    <circle class="cls-1" cx="907.26" cy="889.83" r="5.21" />
    <circle class="cls-1" cx="927.42" cy="884.41" r="5.21" />
    <circle class="cls-1" cx="942.16" cy="869.64" r="5.21" />
    <circle class="cls-1" cx="947.53" cy="849.47" r="5.21" />
    <circle class="cls-1" cx="942.08" cy="829.32" r="5.21" />
    <circle class="cls-1" cx="927.27" cy="814.6" r="5.21" />
    <circle class="cls-1" cx="436.4" cy="849.57" r="89.84" />
    <circle class="cls-2" cx="436.4" cy="849.57" r="59.13" />
    <circle class="cls-3" cx="436.4" cy="849.57" r="53.23" />
    <circle class="cls-1" cx="436.4" cy="849.57" r="27.17" />
    <circle class="cls-2" cx="436.4" cy="849.57" r="24.45" />
    <circle class="cls-1" cx="436.4" cy="809.29" r="5.21" />
    <circle class="cls-1" cx="416.22" cy="814.63" r="5.21" />
    <circle class="cls-1" cx="401.43" cy="829.36" r="5.21" />
    <circle class="cls-1" cx="395.99" cy="849.51" r="5.21" />
    <circle class="cls-1" cx="401.37" cy="869.68" r="5.21" />
    <circle class="cls-1" cx="416.12" cy="884.44" r="5.21" />
    <circle class="cls-1" cx="436.29" cy="889.84" r="5.21" />
    <circle class="cls-1" cx="456.44" cy="884.43" r="5.21" />
    <circle class="cls-1" cx="471.18" cy="869.65" r="5.21" />
    <circle class="cls-1" cx="476.55" cy="849.48" r="5.21" />
    <circle class="cls-1" cx="471.1" cy="829.33" r="5.21" />
    <circle class="cls-1" cx="456.29" cy="814.62" r="5.21" />
    <circle class="cls-1" cx="203.84" cy="849.57" r="89.84" />
    <circle class="cls-2" cx="203.84" cy="849.57" r="59.13" />
    <circle class="cls-3" cx="203.84" cy="849.57" r="53.23" />
    <circle class="cls-1" cx="203.84" cy="849.57" r="27.17" />
    <circle class="cls-2" cx="203.84" cy="849.57" r="24.45" />
    <circle class="cls-1" cx="203.84" cy="809.29" r="5.21" />
    <circle class="cls-1" cx="183.67" cy="814.63" r="5.21" />
    <circle class="cls-1" cx="168.87" cy="829.36" r="5.21" />
    <circle class="cls-1" cx="163.44" cy="849.51" r="5.21" />
    <circle class="cls-1" cx="168.82" cy="869.68" r="5.21" />
    <circle class="cls-1" cx="183.57" cy="884.44" r="5.21" />
    <circle class="cls-1" cx="203.73" cy="889.84" r="5.21" />
    <circle class="cls-1" cx="223.89" cy="884.43" r="5.21" />
    <circle class="cls-1" cx="238.63" cy="869.65" r="5.21" />
    <circle class="cls-1" cx="243.99" cy="849.48" r="5.21" />
    <circle class="cls-1" cx="238.54" cy="829.33" r="5.21" />
    <circle class="cls-1" cx="223.74" cy="814.62" r="5.21" />
    <path class="cls-11"
        d="M1000.21,836.27s.08-24.18-8.5-40.65-14-27.41-24.74-36.71-26.11-22.12-44-25.06-30.07-2.37-46.28,3.7a75.69,75.69,0,0,0-26.4,17l-14.22,16.15s-10.46,15.66-13.8,25.41-6.6,24.05-6.6,24.05l-1.39,17.08,10-15.72,18.87-29.73S851.09,781.12,858,776c6-4.43,21.69-9.15,25.72-10.32a10.69,10.69,0,0,1,1.92-.38c4.63-.5,24.66-2.5,31.15-.53,16.37,5,22.44,8.55,28.56,12.31,10.08,6.18,14.37,8.26,24.67,20.78C974.18,802.89,1000.21,836.27,1000.21,836.27Z" />
    <path class="cls-11"
        d="M529.34,844.23s.08-24.18-8.49-40.65-14.56-20.39-25.32-29.68S446,772.76,446,772.76c16.37,5,22.43,8.55,28.56,12.31,10.07,6.18,14.36,8.26,24.67,20.77C503.32,810.85,529.34,844.23,529.34,844.23Z" />
    <rect class="cls-8" x="48.33" y="802.67" width="9.79" height="31.59" />
    <polygon class="cls-8"
        points="828.84 463.4 787.22 492.69 882.17 595.04 921.8 562.87 828.84 463.4" />
    <polygon class="cls-8"
        points="1054.38 604.6 1019.3 620.32 1019.3 757.32 1054.38 732.13 1054.38 604.6" />
</svg>