<svg id="Capa_1" data-name="Capa 1" xmlns="http://www.w3.org/2000/svg"
    xmlns:xlink="http://www.w3.org/1999/xlink" viewBox="0 0 1080 1350">
    <defs>
        <style>
            .cls-1{fill:#1e1e1e;}.cls-14{fill:#c4c2c1;}.cls-2{fill:url(#linear-gradient);}.cls-3{fill:url(#linear-gradient-2);}.cls-4{fill:url(#linear-gradient-3);}.cls-5{fill:#504f59;}.cls-6{fill:#c8c6e8;}.cls-7{fill:#90919a;}.cls-8{fill:#8e8f98;}.cls-9{fill:url(#linear-gradient-4);}.cls-10{fill:#2d2c38;}.cls-11{fill:url(#linear-gradient-5);}.cls-12{fill:url(#linear-gradient-6);}.cls-15{fill:#a1a8ac;}.cls-16{fill:#363f47;}.cls-17{fill:#2b1f2c;}.cls-18{fill:#1d232a;}.cls-19{fill:#696b6f;}.cls-20{fill:#999ebf;}.cls-21{fill:#f8eee8;}.cls-22{fill:#ed670e;}.cls-23{fill:#3d4b4d;}</style>
        <linearGradient id="linear-gradient" x1="1871.19" y1="1143.6" x2="1781.98" y2="989.09"
            gradientTransform="matrix(-0.76, 0.02, 0.01, 0.49, 2045.78, 221.04)"
            gradientUnits="userSpaceOnUse">
            <stop offset="0" stop-color="#181818" />
            <stop offset="0.27" stop-color="#262626" />
            <stop offset="0.77" stop-color="#2e2e2e" />
        </linearGradient>
        <linearGradient id="linear-gradient-2" x1="1745.84" y1="1182.53" x2="1826.99" y2="1041.99"
            gradientTransform="matrix(-0.76, 0.02, 0.01, 0.49, 2045.78, 221.04)"
            gradientUnits="userSpaceOnUse">
            <stop offset="0" stop-color="#141414" />
            <stop offset="0.44" stop-color="#1e1e1e" />
            <stop offset="0.78" stop-color="#202020" />
            <stop offset="0.98" stop-color="#292929" />
            <stop offset="1" stop-color="#2a2a2a" />
        </linearGradient>
        <linearGradient id="linear-gradient-3" x1="1743.8" y1="1183.63" x2="1821.92" y2="1048.33"
            gradientTransform="matrix(-0.76, 0.02, 0.01, 0.49, 2045.78, 221.04)"
            gradientUnits="userSpaceOnUse">
            <stop offset="0" stop-color="#161616" />
            <stop offset="0.3" stop-color="#1a1a1a" />
            <stop offset="0.79" stop-color="#1e1e1e" />
            <stop offset="0.8" stop-color="#1e1e1e" />
        </linearGradient>
        <linearGradient id="linear-gradient-4" x1="2470.71" y1="1103.19" x2="2389.37" y2="962.31"
            xlink:href="#linear-gradient" />
        <linearGradient id="linear-gradient-5" x1="2365.04" y1="1133.13" x2="2437.62" y2="1007.41"
            xlink:href="#linear-gradient-2" />
        <linearGradient id="linear-gradient-6" x1="2365.28" y1="1132.49" x2="2435.13" y2="1011.52"
            xlink:href="#linear-gradient-3" />
    </defs>
    <polygon class="cls-1"
        points="764.04 820.82 723.86 781.92 581.24 786.13 290.77 815.45 260.82 779.07 154.08 786.04 183.35 638.28 804.02 662.6 764.04 820.82" />
    <path class="cls-2"
        d="M641.77,775.31c-.69-22.75,17.78-41.25,41.44-41.32a45.32,45.32,0,0,1,32.38,13.49L743.81,774,725.7,790.15A40.59,40.59,0,0,1,697,815.79l-15.64,14-24.19-23.33a45.57,45.57,0,0,1-4.36-4.2h0A42,42,0,0,1,641.77,775.31Z" />
    <path class="cls-3"
        d="M668.84,801.19c.7,22.88,20.5,41.78,44.43,42.24,24.17.46,43.36-18,42.65-41.31s-21-42.19-45.18-42.24C686.81,759.82,668.15,778.32,668.84,801.19Z" />
    <path class="cls-4"
        d="M673.19,802.92c.67,22,19.75,40.22,42.8,40.66,23.27.44,41.74-17.35,41.06-39.74s-20.24-40.6-43.5-40.67C690.51,763.1,672.53,780.9,673.19,802.92Z" />
    <path class="cls-5"
        d="M682.76,802.23c.49,15.94,14.3,29.08,31,29.36s30-12.57,29.56-28.7S728.72,773.61,712,773.53,682.28,786.3,682.76,802.23Z" />
    <path class="cls-6"
        d="M684.75,801.36c.43,14.45,13,26.35,28,26.59s27.2-11.4,26.76-26-13.17-26.51-28.35-26.59S684.31,786.92,684.75,801.36Z" />
    <path class="cls-6"
        d="M687.47,801.39c.39,13,11.67,23.71,25.25,23.92s24.46-10.27,24.06-23.39S724.94,778.08,711.29,778a24.24,24.24,0,0,0-3.65.24c-10.55,1.45-18.66,9.39-20,19.51A23,23,0,0,0,687.47,801.39Z" />
    <path class="cls-7"
        d="M703.55,815.58c12.87.18,23.06-9.74,22.68-22.14a22.46,22.46,0,0,0-5-13.41c8.87,3.71,15.27,12.13,15.57,21.89.4,13.12-10.4,23.6-24.06,23.39a26,26,0,0,1-22.69-14A24.56,24.56,0,0,0,703.55,815.58Z" />
    <path class="cls-8"
        d="M688.85,799.81c.24,8,7.16,14.54,15.47,14.65s14.93-6.31,14.68-14.34-7.22-14.58-15.56-14.64S688.61,791.83,688.85,799.81Z" />
    <path class="cls-7"
        d="M687.65,797.75a15.88,15.88,0,0,0,13.29,7.48c8.33.09,14.91-6.33,14.67-14.35a15.08,15.08,0,0,0-8-12.64C697.09,779.69,689,787.63,687.65,797.75Z" />
    <polygon class="cls-7"
        points="711.38 781.09 723.08 792.15 701.33 811.47 689.89 800.58 697.12 789.12 711.38 781.09" />
    <path class="cls-7"
        d="M696.93,801.49c.24,8,7.17,14.56,15.51,14.68s15-6.32,14.73-14.35-7.24-14.61-15.61-14.68S696.68,793.5,696.93,801.49Z" />
    <path class="cls-6"
        d="M698.4,802c.24,7.64,6.87,13.92,14.85,14s14.32-6,14.08-13.72-6.92-14-14.92-14S698.17,794.37,698.4,802Z" />
    <path class="cls-9"
        d="M188.9,771.58c-.62-20.67,14.57-37.5,34.08-37.59a35.55,35.55,0,0,1,25.51,10.93h0l.15.16,23.52,24.19.49,16.25-49.73,36.73-21.6-22.75a39.46,39.46,0,0,1-2.88-3h0A40.28,40.28,0,0,1,188.9,771.58Z" />
    <path class="cls-10"
        d="M211.31,795c.63,20.78,17,37.89,36.72,38.23,19.89.35,35.62-16.48,35-37.58s-17.4-38.22-37.28-38.24C226,757.44,210.68,774.27,211.31,795Z" />
    <path class="cls-11"
        d="M211.31,795c.63,20.78,17,37.89,36.72,38.23,19.89.35,35.62-16.48,35-37.58s-17.4-38.22-37.28-38.24C226,757.44,210.68,774.27,211.31,795Z" />
    <path class="cls-12"
        d="M213.53,795.87c.61,20,16.37,36.46,35.35,36.79,19.14.33,34.28-15.86,33.66-36.16s-16.74-36.77-35.87-36.79C227.7,759.68,212.93,775.88,213.53,795.87Z" />
    <path class="cls-5"
        d="M222.79,796c.43,14.47,11.85,26.36,25.58,26.57s24.69-11.49,24.25-26.12-12.05-26.52-25.85-26.57S222.35,781.49,222.79,796Z" />
    <path class="cls-6"
        d="M224.42,795.16c.4,13.12,10.75,23.89,23.18,24.07s22.36-10.42,22-23.66-10.91-24-23.41-24.07S224,782.05,224.42,795.16Z" />
    <path class="cls-7"
        d="M227.22,795.19c.34,11.48,9.41,20.91,20.29,21.06s19.55-9.12,19.2-20.71-9.54-21-20.47-21.06S226.87,783.71,227.22,795.19Z" />
    <path class="cls-6"
        d="M229.63,795.21c.31,10.07,8.26,18.33,17.8,18.46s17.13-8,16.82-18.15-8.35-18.41-17.93-18.46S229.33,785.14,229.63,795.21Z" />
    <path class="cls-7"
        d="M238.05,797.25c.18,6,4.95,11,10.66,11s10.23-4.79,10-10.85-5-11-10.71-11S237.87,791.22,238.05,797.25Z" />
    <path class="cls-5"
        d="M256.94,800.88a8.08,8.08,0,0,1-4.23,4.76,2,2,0,0,0-1,2.26h0a1.72,1.72,0,0,0,2.54.73,12.73,12.73,0,0,0,5.62-6.32,1.93,1.93,0,0,0-.84-2.64h0A1.81,1.81,0,0,0,256.94,800.88Z" />
    <path class="cls-6"
        d="M240.54,798c.16,5.32,4.36,9.67,9.4,9.73s9-4.22,8.84-9.55-4.39-9.69-9.43-9.73S240.38,792.68,240.54,798Z" />
    <path class="cls-7"
        d="M244.69,798a5.37,5.37,0,0,0,5.11,5.29,4.86,4.86,0,0,0,4.8-5.19,5.35,5.35,0,0,0-5.12-5.29A4.87,4.87,0,0,0,244.69,798Z" />
    <path class="cls-5"
        d="M236.86,789.87a8.09,8.09,0,0,1,4.2-4.76,2,2,0,0,0,1-2.26h0a1.71,1.71,0,0,0-2.53-.71,12.7,12.7,0,0,0-5.57,6.31,1.92,1.92,0,0,0,.83,2.63h0A1.8,1.8,0,0,0,236.86,789.87Z" />
    <path class="cls-5"
        d="M242.07,805.75a9,9,0,0,1-4.66-4.65,1.94,1.94,0,0,0-2.17-1.16h0c-.82.26-1.17,1.5-.57,2.64a14.19,14.19,0,0,0,6.18,6.18,1.64,1.64,0,0,0,2.46-.77h0A2.13,2.13,0,0,0,242.07,805.75Z" />
    <path class="cls-5"
        d="M251.69,785a9,9,0,0,1,4.69,4.64,2,2,0,0,0,2.2,1.17h0c.82-.27,1.17-1.51.58-2.66a14.15,14.15,0,0,0-6.24-6.17,1.65,1.65,0,0,0-2.47.78h0A2.15,2.15,0,0,0,251.69,785Z" />
    <path class="cls-7"
        d="M253.41,807.23a12.67,12.67,0,0,0,5.61-6.32,2.42,2.42,0,0,0,.16-1.14,2,2,0,0,1,.68,2.54,12.73,12.73,0,0,1-5.62,6.32,1.73,1.73,0,0,1-2.54-.72c-.06-.19,0-.37,0-.55A2,2,0,0,0,253.41,807.23Z" />
    <path class="cls-7"
        d="M234,789.69a1.8,1.8,0,0,0,2.05-1.21,8.09,8.09,0,0,1,4.2-4.76,2,2,0,0,0,1-1.72,1.41,1.41,0,0,1,.87.85,2,2,0,0,1-1,2.26,8.09,8.09,0,0,0-4.2,4.76,1.8,1.8,0,0,1-2.06,1.21,1.59,1.59,0,0,1-1-1.49A.86.86,0,0,0,234,789.69Z" />
    <path class="cls-7"
        d="M240,807.36a1.63,1.63,0,0,0,2.46-.77c0-.19-.08-.36-.1-.55a2,2,0,0,1,.93,2,1.64,1.64,0,0,1-2.46.77,14.19,14.19,0,0,1-6.18-6.18s0,0,0-.07A14.19,14.19,0,0,0,240,807.36Z" />
    <path class="cls-7"
        d="M257.74,789.37c.81-.26,1.15-1.46.6-2.59a11.11,11.11,0,0,1,.82,1.33c.59,1.15.24,2.39-.58,2.66a2,2,0,0,1-2.2-1.17,14.7,14.7,0,0,0-.76-1.29A1.93,1.93,0,0,0,257.74,789.37Z" />
    <path class="cls-7"
        d="M250.86,783.56a8.89,8.89,0,0,1,4.54,4.4,8.63,8.63,0,0,0-3.71-3,2.17,2.17,0,0,1-1.14-1.69C250.67,783.36,250.73,783.5,250.86,783.56Z" />
    <path class="cls-14"
        d="M1007.19,578.92,973.77,498H49l-7,4.88L40.21,657.47l1.35,32.41-2.37,7.46,1,10.52L46.45,729,77,800.05l6.48,8.42,15.84,3.16,115.43,2.3-.23-.49A54.65,54.65,0,0,1,209,792.06l-.15-3a5.83,5.83,0,0,1-.13-2.2h0A46.52,46.52,0,0,1,227,755.77h0c1.14-.85,5.49-2.32,6.85-2.75,4.22-1.32,9.59-2.43,13.34-2.27l4.83.37a32.05,32.05,0,0,1,16,5.71c1.53,1.07,3.2,2.21,5.18,3.39h0a36.13,36.13,0,0,1,17.66,31.06v25.21l76.55,2.58,210.92,2.37,93,1-1.48-14.1c-1.45-5.82-2.66-12.86-1-18.94L672.13,778c3-4.81,11.62-18.08,17.76-20,0,0,7-2.78,10.65-3.93,3.85-1.22,11.61-3,11.61-3,4.31-1,9.09.69,13.45,1.38l9,1.44a64.2,64.2,0,0,1,9.67,2.32h0A24.85,24.85,0,0,1,758.45,768q.18.35.33.6h0a42.29,42.29,0,0,1,5.21,20.1l.23,34.82,136.43,1.53,22.39.25,80-16.37,6.51-93.09,1.35-10Z" />
    <path class="cls-14"
        d="M1006.33,580.58l5.3,134.73-6.51,93.09-83.29,17.17L763,823l-.84-37.73-15.82-22.58s-8.06-2.85-8.38-2.94-42.25-1-43.61-.78-5.62.7-8.56,3-14.49,18-15.25,20.45-1.37,4.33-1.17,12.08l.71,27-380.17-6.08L289.15,785s.07-2.93-2.3-7.38-9.59-14.07-9.59-14.07-5.06-5.37-10.54-5.91-32.89-.2-32.89-.2-4.68.6-7,2.41-7.57,5.83-11.94,16.33c-2.79,6.71-2,10-2,10l.48,28.12L82.15,808.78l-6.48-8.42-4.33-21.8,2.37-7.45.43-187,6.4-4.88h925.38Z" />
    <polygon class="cls-15" points="671 813.07 290.81 809.32 291.08 818.22 671.29 822.48 671 813.07" />
    <path class="cls-15"
        d="M900.35,815.34,763.93,814l.29,9.53L923,825.31l80-16.37s7.76-88.67,6.51-93.09l-5.29-134.72-1,1.59,3.35,135.22-9.14,82Z" />
    <polygon class="cls-15"
        points="99.15 815.62 101.61 816.1 214.59 817.36 214.33 808.55 99.61 807.42 99.15 815.62" />
    <polygon class="cls-16"
        points="95.05 735.74 95.05 579.77 976.89 579.77 977.79 742.27 95.05 735.74" />
    <polygon class="cls-16"
        points="410.82 811.53 514.48 815.39 513.51 588.6 409.87 589.63 410.82 811.53" />
    <path class="cls-17"
        d="M408.41,588.15,515,588.6,516,817l-106.62-4Zm103.23,3-100.32,0,.94,219L513,813.82Z" />
    <polygon class="cls-16"
        points="779.96 823.7 900.65 825.06 893.37 584.85 772.71 584.65 779.96 823.7" />
    <path class="cls-17"
        d="M771,584.65H895.12l7.34,242.07-124.13-1.44Zm120.69,4-116.57-.76,6.44,234.28,117.25,1.28Z" />
    <polygon class="cls-18"
        points="644.57 725.04 754.28 727.52 754.21 590.61 644.5 591.11 644.57 725.04" />
    <polygon class="cls-18"
        points="525.43 725.04 635.14 727.52 635.07 590.61 525.36 591.11 525.43 725.04" />
    <polygon class="cls-18"
        points="306.82 727.77 400.2 728.96 399.83 594.05 306.03 594.44 306.82 727.77" />
    <polygon class="cls-18"
        points="201.88 728.42 295.25 729.62 294.88 594.71 201.08 595.1 201.88 728.42" />
    <polygon class="cls-18"
        points="906.22 728.56 966.57 729.26 964.93 586.43 904.58 586.43 906.22 728.56" />
    <polygon class="cls-18"
        points="465.43 734.17 506.76 734.83 505.32 594.48 464.01 595.02 465.43 734.17" />
    <polygon class="cls-18"
        points="465.42 798.32 506.76 799.57 506.33 748.98 465 748.16 465.42 798.32" />
    <polygon class="cls-18"
        points="415.7 797.51 457.04 798.76 456.61 748.16 415.28 747.35 415.7 797.51" />
    <polygon class="cls-18"
        points="842.61 743.14 890.74 743.77 888.96 592.26 840.85 593.03 842.61 743.14" />
    <polygon class="cls-18"
        points="846.16 809.93 894.32 810.34 892.66 755.74 844.52 755.85 846.16 809.93" />
    <polygon class="cls-18"
        points="785.15 809.42 832.17 809.82 830.53 755.88 783.53 755.98 785.15 809.42" />
    <polygon class="cls-19"
        points="418.43 815.19 512.26 816.16 512.4 820.7 418.57 819.65 418.43 815.19" />
    <polygon class="cls-19"
        points="109.14 812.02 190.96 812.86 191.08 817.1 109.27 816.18 109.14 812.02" />
    <polygon class="cls-19"
        points="785.44 818.96 894.62 820.09 894.76 824.99 785.59 823.77 785.44 818.96" />
    <path class="cls-15"
        d="M295.25,788.1a3.06,3.06,0,0,0,2.95,3,2.82,2.82,0,0,0,2.78-3,3.06,3.06,0,0,0-3-3A2.81,2.81,0,0,0,295.25,788.1Z" />
    <path class="cls-20"
        d="M294.89,786.62a3.06,3.06,0,0,0,3,3,2.81,2.81,0,0,0,2.77-3,3.06,3.06,0,0,0-3-3A2.82,2.82,0,0,0,294.89,786.62Z" />
    <path class="cls-21"
        d="M295.53,787.2a3.06,3.06,0,0,0,3,3,2.82,2.82,0,0,0,2.78-3,3.07,3.07,0,0,0-3-3A2.82,2.82,0,0,0,295.53,787.2Z" />
    <path class="cls-22"
        d="M296,787.2a2.6,2.6,0,0,0,2.5,2.56,2.4,2.4,0,0,0,2.36-2.54,2.59,2.59,0,0,0-2.51-2.55A2.38,2.38,0,0,0,296,787.2Z" />
    <path class="cls-15"
        d="M367.73,789.8a3.14,3.14,0,0,0,3,3.06,2.88,2.88,0,0,0,2.87-3,3.12,3.12,0,0,0-3-3.06A2.88,2.88,0,0,0,367.73,789.8Z" />
    <path class="cls-20"
        d="M367.37,788.29a3.13,3.13,0,0,0,3,3.06,2.88,2.88,0,0,0,2.87-3,3.12,3.12,0,0,0-3-3.06A2.87,2.87,0,0,0,367.37,788.29Z" />
    <path class="cls-21"
        d="M368,788.88a3.13,3.13,0,0,0,3.05,3.06,2.88,2.88,0,0,0,2.86-3,3.12,3.12,0,0,0-3.05-3.06A2.88,2.88,0,0,0,368,788.88Z" />
    <path class="cls-22"
        d="M368.47,788.88a2.67,2.67,0,0,0,2.59,2.6,2.44,2.44,0,0,0,2.43-2.58,2.65,2.65,0,0,0-2.59-2.59A2.44,2.44,0,0,0,368.47,788.88Z" />
    <path class="cls-15"
        d="M553.67,783.78A3.32,3.32,0,0,0,557,787a3.07,3.07,0,0,0,3.11-3.16,3.32,3.32,0,0,0-3.3-3.18A3.07,3.07,0,0,0,553.67,783.78Z" />
    <path class="cls-20"
        d="M553.28,782.21a3.31,3.31,0,0,0,3.29,3.18,3.05,3.05,0,0,0,3.1-3.16,3.32,3.32,0,0,0-3.29-3.18A3.05,3.05,0,0,0,553.28,782.21Z" />
    <path class="cls-21"
        d="M554,782.82a3.32,3.32,0,0,0,3.3,3.18,3.06,3.06,0,0,0,3.1-3.16,3.32,3.32,0,0,0-3.3-3.18A3.07,3.07,0,0,0,554,782.82Z" />
    <path class="cls-22"
        d="M554.48,782.82a2.81,2.81,0,0,0,2.79,2.7,2.59,2.59,0,0,0,2.63-2.68,2.81,2.81,0,0,0-2.79-2.7A2.59,2.59,0,0,0,554.48,782.82Z" />
    <path class="cls-15"
        d="M648.28,789.43a3.41,3.41,0,0,0,3.42,3.24,3.14,3.14,0,0,0,3.23-3.21,3.41,3.41,0,0,0-3.43-3.24A3.14,3.14,0,0,0,648.28,789.43Z" />
    <path class="cls-20"
        d="M647.87,787.83a3.42,3.42,0,0,0,3.42,3.24,3.14,3.14,0,0,0,3.23-3.21,3.42,3.42,0,0,0-3.42-3.25A3.16,3.16,0,0,0,647.87,787.83Z" />
    <path class="cls-21"
        d="M648.61,788.45A3.43,3.43,0,0,0,652,791.7a3.14,3.14,0,0,0,3.23-3.22,3.41,3.41,0,0,0-3.42-3.24A3.14,3.14,0,0,0,648.61,788.45Z" />
    <path class="cls-22"
        d="M649.12,788.46a2.89,2.89,0,0,0,2.9,2.75,2.67,2.67,0,0,0,2.74-2.73,2.91,2.91,0,0,0-2.91-2.75A2.67,2.67,0,0,0,649.12,788.46Z" />
    <path class="cls-15"
        d="M945.94,787.88a3.73,3.73,0,0,0,3.83,3.44,3.44,3.44,0,0,0,3.64-3.41,3.75,3.75,0,0,0-3.84-3.44A3.44,3.44,0,0,0,945.94,787.88Z" />
    <path class="cls-20"
        d="M945.48,786.19a3.73,3.73,0,0,0,3.84,3.43,3.44,3.44,0,0,0,3.63-3.41,3.72,3.72,0,0,0-3.84-3.43A3.44,3.44,0,0,0,945.48,786.19Z" />
    <path class="cls-21"
        d="M946.31,786.85a3.75,3.75,0,0,0,3.84,3.44,3.45,3.45,0,0,0,3.64-3.41,3.75,3.75,0,0,0-3.85-3.44A3.44,3.44,0,0,0,946.31,786.85Z" />
    <path class="cls-22"
        d="M946.88,786.85a3.18,3.18,0,0,0,3.26,2.92,2.92,2.92,0,0,0,3.08-2.89A3.17,3.17,0,0,0,950,784,2.92,2.92,0,0,0,946.88,786.85Z" />
    <polygon class="cls-18"
        points="780.63 743.14 828.76 743.77 826.98 592.26 778.86 593.03 780.63 743.14" />
    <polygon class="cls-18"
        points="415.7 734.17 457.04 734.83 455.6 594.48 414.28 595.02 415.7 734.17" />
    <polygon class="cls-16"
        points="97.59 806.76 194.64 810.45 193.73 593.85 96.7 594.83 97.59 806.76" />
    <path class="cls-17"
        d="M95.33,592.39h99.81L196.06,812l-99.82-3.83Zm97,2.92H98.05l.89,210.08L193.22,809Z" />
    <polygon class="cls-18"
        points="148.71 732.87 187.41 733.51 186.07 599.47 147.38 599.26 148.71 732.87" />
    <polygon class="cls-18"
        points="150.09 794.19 187.4 794.53 187.01 747.02 149.94 746.92 150.09 794.19" />
    <polygon class="cls-18"
        points="103.54 794.19 140.86 794.53 140.46 747.02 103.4 746.92 103.54 794.19" />
    <polygon class="cls-18"
        points="102.16 732.87 140.86 733.51 139.52 599.47 100.83 599.47 102.16 732.87" />
    <polygon class="cls-23"
        points="95.05 579.77 78.49 579.77 72.09 584.65 71.9 598.14 95.04 597.64 95.05 579.77" />
    <polygon class="cls-18" points="95.04 597.64 71.9 598.14 70.53 743.05 95.97 743.05 95.04 597.64" />
    <polygon class="cls-23" points="96.7 743.05 70.53 743.05 71.99 774.88 97.46 775.95 96.7 743.05" />
    <polygon class="cls-23" points="48.95 498 78.49 579.77 72.09 584.65 41.99 502.88 48.95 498" />
    <polygon class="cls-18"
        points="71.9 598.14 41.81 518.09 40.59 640.03 40.38 662.56 41.56 689.88 70.53 743.05 71.9 598.14" />
    <polygon class="cls-23" points="41.99 502.88 41.81 518.09 71.9 598.14 72.09 584.65 41.99 502.88" />
    <polygon class="cls-23"
        points="41.56 689.88 70.53 743.05 71.99 774.88 39.19 697.34 41.56 689.88" />
    <polygon class="cls-16"
        points="95.33 810.84 96.24 808.13 96.11 775.95 71.99 774.88 39.19 697.34 40.16 707.86 46.45 728.97 76.94 800.05 83.43 808.47 95.33 810.84" />
</svg>