<svg id="Capa_1" data-name="Capa 1" xmlns="http://www.w3.org/2000/svg"
    xmlns:xlink="http://www.w3.org/1999/xlink" viewBox="0 0 1080 1350">
    <defs>
        <style>
            .cls-1{fill:#1e1e1e;}.cls-2{fill:#9895a8;}.cls-3{fill:#8e8f98;}.cls-14{fill:#c4c2c1;}.cls-5{fill:#a9afb3;}.cls-6{fill:#383f48;}.cls-7{fill:url(#linear-gradient);}.cls-8{fill:#4a4a56;}.cls-9{fill:#292929;}.cls-10{fill:#fd0101;}.cls-11{fill:#fd8d0b;}.cls-12{fill:#e0e1e5;}.cls-13{fill:#353535;opacity:0.29;}</style>
        <linearGradient id="linear-gradient" x1="-2090.81" y1="731.5" x2="-2074.4" y2="731.5"
            gradientTransform="translate(2245.3 -5.71)" gradientUnits="userSpaceOnUse">
            <stop offset="0" stop-color="#161616" />
            <stop offset="0.3" stop-color="#1a1a1a" />
            <stop offset="0.79" stop-color="#1e1e1e" />
            <stop offset="0.8" stop-color="#1e1e1e" />
        </linearGradient>
    </defs>
    <circle class="cls-1" cx="764.67" cy="845.95" r="65.76" />
    <circle class="cls-2" cx="764.67" cy="845.95" r="43.28" />
    <circle class="cls-3" cx="764.67" cy="845.95" r="38.96" />
    <circle class="cls-1" cx="764.67" cy="845.95" r="19.89" />
    <circle class="cls-2" cx="764.67" cy="845.95" r="17.89" />
    <circle class="cls-1" cx="764.67" cy="816.47" r="3.82" />
    <circle class="cls-1" cx="779.44" cy="820.38" r="3.82" />
    <circle class="cls-1" cx="790.26" cy="831.16" r="3.82" />
    <circle class="cls-1" cx="794.24" cy="845.91" r="3.82" />
    <circle class="cls-1" cx="790.31" cy="860.67" r="3.82" />
    <circle class="cls-1" cx="779.51" cy="871.48" r="3.82" />
    <circle class="cls-1" cx="764.75" cy="875.44" r="3.82" />
    <circle class="cls-1" cx="750" cy="871.47" r="3.82" />
    <circle class="cls-1" cx="739.21" cy="860.66" r="3.82" />
    <circle class="cls-1" cx="735.28" cy="845.89" r="3.82" />
    <circle class="cls-1" cx="739.27" cy="831.14" r="3.82" />
    <circle class="cls-1" cx="750.11" cy="820.37" r="3.82" />
    <circle class="cls-1" cx="211.58" cy="849.81" r="65.76" />
    <circle class="cls-2" cx="211.58" cy="849.81" r="43.28" />
    <circle class="cls-3" cx="211.58" cy="849.81" r="38.96" />
    <circle class="cls-1" cx="211.58" cy="849.81" r="19.89" />
    <circle class="cls-2" cx="211.58" cy="849.81" r="17.89" />
    <circle class="cls-1" cx="211.58" cy="820.33" r="3.82" />
    <circle class="cls-1" cx="226.35" cy="824.24" r="3.82" />
    <circle class="cls-1" cx="237.18" cy="835.02" r="3.82" />
    <circle class="cls-1" cx="241.16" cy="849.77" r="3.82" />
    <circle class="cls-1" cx="237.22" cy="864.53" r="3.82" />
    <circle class="cls-1" cx="226.43" cy="875.34" r="3.82" />
    <circle class="cls-1" cx="211.67" cy="879.29" r="3.82" />
    <circle class="cls-1" cx="196.91" cy="875.33" r="3.82" />
    <circle class="cls-1" cx="186.12" cy="864.51" r="3.82" />
    <circle class="cls-1" cx="182.2" cy="849.75" r="3.82" />
    <circle class="cls-1" cx="186.19" cy="835" r="3.82" />
    <circle class="cls-1" cx="197.02" cy="824.23" r="3.82" />
    <polygon class="cls-14"
        points="75.02 826.7 138.35 867.77 225.86 867.02 369.59 866.8 1066.7 866.8 1066.7 508.97 1010.94 468.87 314.16 468.87 314.16 548.03 134.47 574.12 60.61 687.09 75.02 826.7" />
    <path class="cls-5"
        d="M308.46,733.87h46a.85.85,0,0,1,.85.85v14.44a1.36,1.36,0,0,1-1.36,1.36H308.06a.44.44,0,0,1-.44-.44V734.72a.85.85,0,0,1,.85-.85Z"
        transform="translate(662.94 1484.39) rotate(180)" />
    <path class="cls-6"
        d="M310.59,742.64h41.77a2.75,2.75,0,0,0,3-2.46v-3.84a2.76,2.76,0,0,0-3-2.47H316a8.29,8.29,0,0,0-7.32,3.9l-.77,1.37C307,740.78,308.42,742.64,310.59,742.64Z" />
    <ellipse class="cls-5" cx="348.01" cy="738.26" rx="3.2" ry="2.66" />
    <polygon class="cls-1"
        points="355.33 714.76 357.42 617.69 209.21 621.35 154.49 695.59 154.49 722.78 355.33 720.34 355.33 714.76" />
    <rect class="cls-7" x="154.49" y="720.12" width="16.42" height="11.34" rx="0.46"
        transform="translate(325.4 1451.58) rotate(180)" />
    <rect class="cls-8" x="163.95" y="713.02" width="40.37" height="25.53" rx="1.61"
        transform="translate(368.28 1451.58) rotate(180)" />
    <path class="cls-9"
        d="M1066.71,876.15V857.32l-128.16,1.77s-21.31-16.32-33.23-17.93-30.75-.35-40.57,4.56-21,18.14-21,18.14L742.66,862H613.72L504.28,862H414.35l-44.43,1.05v13.08l459.2-.4" />
    <circle class="cls-1" cx="896.19" cy="903.49" r="65.76" />
    <circle class="cls-2" cx="896.19" cy="903.49" r="43.28" />
    <circle class="cls-3" cx="896.19" cy="903.49" r="38.96" />
    <circle class="cls-1" cx="896.19" cy="903.49" r="19.89" />
    <circle class="cls-2" cx="896.19" cy="903.49" r="17.89" />
    <circle class="cls-1" cx="896.19" cy="874.01" r="3.82" />
    <circle class="cls-1" cx="910.96" cy="877.92" r="3.82" />
    <circle class="cls-1" cx="921.79" cy="888.7" r="3.82" />
    <circle class="cls-1" cx="925.77" cy="903.45" r="3.82" />
    <circle class="cls-1" cx="921.83" cy="918.21" r="3.82" />
    <circle class="cls-1" cx="911.03" cy="929.02" r="3.82" />
    <circle class="cls-1" cx="896.28" cy="932.98" r="3.82" />
    <circle class="cls-1" cx="881.52" cy="929.01" r="3.82" />
    <circle class="cls-1" cx="870.73" cy="918.19" r="3.82" />
    <circle class="cls-1" cx="866.81" cy="903.43" r="3.82" />
    <circle class="cls-1" cx="870.8" cy="888.68" r="3.82" />
    <circle class="cls-1" cx="881.63" cy="877.91" r="3.82" />
    <path class="cls-10"
        d="M1061.58,855.72h0c2.82,0,5.13-.15,5.13-1.9V834.05c0-2.82-2.31-1.74-5.13-1.74h0a5.14,5.14,0,0,0-5.13,5.13v13.15A5.14,5.14,0,0,0,1061.58,855.72Z" />
    <path class="cls-9"
        d="M369.92,874.4l-4.21-96.21-86.77,3.75s-32.43,27.14-35.57,38.45-22,57.69-22,57.69l17.16-.19s10.05-30,21.54-37.39,29.66-10,29.66-10,26.64-3.13,29.33.43,28.52,14.42,28.52,14.42Z" />
    <circle class="cls-1" cx="304.33" cy="888.77" r="65.76" />
    <circle class="cls-2" cx="304.33" cy="888.77" r="43.28" />
    <circle class="cls-3" cx="304.33" cy="888.77" r="38.96" />
    <circle class="cls-1" cx="304.33" cy="888.77" r="19.89" />
    <circle class="cls-2" cx="304.33" cy="888.77" r="17.89" />
    <circle class="cls-1" cx="304.33" cy="859.29" r="3.82" />
    <circle class="cls-1" cx="319.1" cy="863.2" r="3.82" />
    <circle class="cls-1" cx="329.93" cy="873.98" r="3.82" />
    <circle class="cls-1" cx="333.91" cy="888.73" r="3.82" />
    <circle class="cls-1" cx="329.97" cy="903.49" r="3.82" />
    <circle class="cls-1" cx="319.17" cy="914.3" r="3.82" />
    <circle class="cls-1" cx="304.42" cy="918.26" r="3.82" />
    <circle class="cls-1" cx="289.66" cy="914.29" r="3.82" />
    <circle class="cls-1" cx="278.87" cy="903.47" r="3.82" />
    <circle class="cls-1" cx="274.95" cy="888.71" r="3.82" />
    <circle class="cls-1" cx="278.94" cy="873.96" r="3.82" />
    <circle class="cls-1" cx="289.77" cy="863.19" r="3.82" />
    <polygon class="cls-1"
        points="163.95 601 131.1 585.61 73.69 670.23 146.13 699.77 203.02 620.11 163.95 601" />
    <polygon class="cls-8"
        points="63.91 698.31 139.73 731.46 138.39 820.39 73.69 786.8 63.91 698.31" />
    <polygon class="cls-9"
        points="72.12 798.62 139.73 834.29 169 834.29 170.91 865.92 138.35 867.77 75.02 826.7 72.12 798.62" />
    <path class="cls-11"
        d="M140,856.71l.51,4.21.8,6.1h32.43c5.52,0,10.14-2.56,12.15-6.1a7.89,7.89,0,0,0,.9-3.69v-13c0-5.42-5.82-9.78-13-9.78H152.18C145.05,840.6,140.74,848.35,140,856.71Z" />
    <path class="cls-12"
        d="M140,856.71h0l-.3,10.12,13.16.19a68.93,68.93,0,0,0,7-16.63,67.83,67.83,0,0,0,2.51-16H140C139.86,835.23,140,856.71,140,856.71Z" />
    <polygon class="cls-12" points="81.75 803.74 72.12 798.62 75.02 826.7 79.99 829.92 81.75 803.74" />
    <path class="cls-13"
        d="M365.71,607.76l-156.85,4.17-62.73,87.84V820.39h97.24s30-40.11,40.08-40.11,55-2.09,55-2.09h27.29Z" />
    <polygon class="cls-13"
        points="370.1 860.72 365.71 510.33 1066.7 508.97 1066.7 864.53 370.1 860.72" />
    <polygon class="cls-13"
        points="314.16 548.03 134.47 574.12 208.86 611.93 365.71 607.76 314.16 548.03" />
</svg>