<svg xmlns="http://www.w3.org/2000/svg" width="180.4" height="149.15" viewBox="0 0 1282 1060" shape-rendering="geometricPrecision" image-rendering="optimizeQuality" fill-rule="evenodd" clip-rule="evenodd"><g fill="#fefefe"><path d="m490 672c-37 0-27-50-20-72 25-86 80-138 175-138 8 0 24 11 24 28 0 47-45 13-101 53-65 48-26 128-77 128zm-119-20v265c0 9 7 16 16 16h502c9 0 16-7 16-16v-261c0-81-29-150-70-191-33-33-65-64-118-80-119-34-237 12-302 112-27 42-44 98-44 154z"/><path d="m372 1000v59h522c17 0 12-17 12-55 0-9-7-16-16-16h-506c-9 0-12 3-12 12"/><path d="m597 39v206c0 48 83 60 83-8v-194c0-58-83-55-83-4"/><path d="m918 371c0 31 32 52 61 37 11-6 8-5 15-13l100-102c21-23 50-45 50-65 0-22-22-44-44-44-23 0-80 66-98 84-21 21-84 74-84 102z"/><path d="m0 656c0 27 12 51 44 51h194c60 0 52-83 12-83h-218c-12 0-32 20-32 32"/><path d="m1001 656c0 31 17 51 44 51h194c55 0 58-83 8-83h-214c-12 0-32 20-32 32"/><path d="m368 375c0-32-16-38-39-60l-100-101c-2-2-3-4-6-6-55-56-101 14-64 52l117 116c11 12 32 44 61 36 16-5 31-17 31-37"/></g></svg>