<svg xmlns="http://www.w3.org/2000/svg" width="50.01" height="40.752" viewBox="0 0 66 53" shape-rendering="geometricPrecision" image-rendering="optimizeQuality" fill-rule="evenodd" clip-rule="evenodd"><path d="m61 41h-56c-3 0-5-2-5-5v-12c0-2 2-5 5-5h2c0 0 4-11 5-14 1-4 2-5 5-5h32c2 0 3 1 5 5 1 4 4 14 4 14h3c2 0 5 3 5 5v12c0 3-3 5-5 5m-44-5h32v-2h-32v2m32-17c0-2-3-5-5-5-3 0-5 3-5 5 0 0 10 0 10 0m-32 13h32v-3h-32v3m0-5h32v-3h-32v3m-12 2c0 3 2 5 5 5 3 0 5-2 5-5 0-3-2-5-5-5-3 0-5 2-5 5m46-24c0-2-1-3-2-3h-15v3h1c1 0 1 0 1 1 0 1 0 1-1 1h-5c0 0-1 0-1-1 0-1 1-1 1-1h2v-3h-15c-2 0-2 1-3 3 0 2-4 14-4 14h28c0-3 2-6 6-6 3 0 6 3 6 6h6c0 0-4-12-5-14m5 19c-3 0-5 3-5 5 0 3 2 5 5 5 2 0 5-2 5-5 0-2-3-5-5-5m-44 26c0 2-1 3-4 3-2 0-3-1-3-3v-6h7v6m49 0c0 2-2 3-4 3-2 0-4-1-4-3v-6h8v6" fill="#fefefe"/></svg>