<svg xmlns="http://www.w3.org/2000/svg" width="140.22" height="137.12" viewBox="0 0 5349 5231" shape-rendering="geometricPrecision" image-rendering="optimizeQuality" fill-rule="evenodd" clip-rule="evenodd"><g fill="#fefefe"><path d="m4241 1474c149 215 272 482 311 744 16 106 30 193 30 305 0 334-58 548-181 845-70 168-187 324-306 460l-139 141c-1 1-3 3-5 4-62 57-119 106-193 152-29 18-43 30-73 48l-225 120c-115 55-227 88-349 117-340 81-746 72-1076-58-15-6-34-12-47-18-24-10-19-9-38-18-271-116-498-275-696-489-66-72-127-157-180-240l-144-267c-8-19-11-28-19-46-9-21-7-12-17-39-13-34-24-59-32-89l-49-185c-13-55-28-153-35-208l-12-203c0-38 6-14 6-54 0-22-1-16 1-42 12-173 41-343 95-503 9-27 22-60 34-87l33-79c44-101 109-217 172-304 18-25 33-49 51-71 18-23 36-42 55-66 20-25 33-43 56-66 16-16 49-37 49-63 0-34-517-529-532-537-15 5-1-2-16 8l-141 148c-140 172-262 353-362 553-8 17-6 10-13 24-69 140-125 301-169 466-80 305-84 515-84 831 0 214 73 581 165 787 35 79 56 148 95 223 89 171 185 336 305 489 128 162 279 298 432 436l133 100c307 232 742 405 1120 457 463 64 908 27 1346-128 114-40 217-92 323-143 100-48 198-116 290-176 60-39 126-89 180-138 20-18 27-21 47-37 15-13 23-24 37-37 53-49 110-94 159-149 18-20 18-26 37-47 15-16 23-22 36-38l264-361c64-97 115-199 160-306l69-173 133-567c24-190 16-348 16-544 0-58-12-95-17-142l-61-322-92-290c-10-27-10-35-22-62-165-349-248-483-512-795l-80-70-190 192c-10 10-7 7-14 14l-183 181c-1 1-3 3-5 5l-79 79c-1 1-3 3-5 5-1 1-3 3-5 5-2 2-8 7-10 9l-41 53 209 257z"/><path d="m2212 50v2781c0 22 15 37 37 37h859c22 0 28-6 28-28v-2809c0-45-123-28-205-28h-709c-5 21-9 21-9 47z"/></g></svg>