<svg xmlns="http://www.w3.org/2000/svg" width="160.87" height="147.83" viewBox="0 0 2344 2155" shape-rendering="geometricPrecision" image-rendering="optimizeQuality" fill-rule="evenodd" clip-rule="evenodd"><g fill="#fefefe"><path d="m737 780c12-6 1-7 16-11h64c12 20 10 7 42 11 12 2 10 5 15 13 44 0 25 3 38 11 8 5 5 1 13 3 14 4 4 8 20 12 15 4 9 0 19 10 21 22 42 44 62 62 13 12 5 5 11 22 2 6 9 11 15 16 14 13 4 7 10 21 6 13 9 1 12 17 2 10-2 22 1 31 3 9 9 7 12 17l-1 122c-4 10-10 6-12 20-1 8 1 21-1 28-4 14-17 8-26 37-5 14-7 4-11 20-4 16-10 16-27 35-9 9-37 41-49 44-29 6-15 19-37 24-27 7-5 5-20 12-7 3-21 2-29 2-9 17-7 14-33 13-25 0-26-5-36 11-50 0-23-4-41-10-7-2-21-1-28-1-59 0-30-9-48-13-41 0-25-6-47-22-10-8-4-2-14-5-9-3-20-14-23-24-14 0-15 3-22-5l-6-7c-1-1-2-2-3-3l-16-16c-7-8-2-5-13-10l-1-18c-10-7-20-14-23-25-5-17-1-6-9-17-8-11-2-3-5-14-6-22-13 5-13-43-14-11-11-9-11-32v-88c0-21-2-18 11-29 0-14-3-22 6-33 16-18 1-10 12-25 13-17 2 0 10-19 3-8 12-16 23-23v-18c9-4 18-15 25-22 1-1 2-2 3-3l8-8c23-27 19-22 37-22 3-10 0-4 5-10l6-5c0 0 1-1 1-1l4-4c0 0 1-1 1-1 0 0 1-1 2-1 6-3 4-1 11-3 20-6-2-12 41-12 13-7 4-10 19-13 7-1 24 0 32 0zm587 8c7-13 24-23 33-34 10-12-3-10 26-38 18-17 12-7 17-26 7-25 30-10 26-59-1-11 0-8-7-14-10-10-3 0-7-15-3-11-10-15-19-23l-127-127c-14-15-14-7-27-15-17-11-7-8-36-8l-5 6c-3 3-1 2-5 3-9 4-14 2-22 10l-25 26c-14 13-6-8-40 26-24 24-23 9-40 27-7 8-12 16-23 14-21-6 2-13-40-13-13-4-2-5-14-10-4-2-11-2-17-4-3-12 0-14-7-22-6-8-8-2-9-17-1-16 0-36 0-53-6-13-7-3-11-16v-75c-19-12-9-8-16-28-20 0-16-2-26-13h-245c-11 17-8 10-28 15l-1 27c-9 20-14-1-13 40 0 18 0 36 0 53-8 5-7 2-11 11 0 16 4 55-3 66-18 27-25 5-38 27-28 0-25-4-40 13-16 0-13 0-22-8-18-17 0 16-48-34-3-3-14-15-16-16-16-10-5 8-39-27-24-24-15-9-31-19-4-3-13-16-34-7-14 6 1 5-15 9-20 5-14 4-30 21-18 19-132 136-149 147v53c4 9 1 1 6 7 17 21-14 0 36 49 22 21 14 10 20 31 2 6 17 19 22 25 5 5 23 22 26 25 10 15-7 21-10 31-5 16 4 4-9 17-8 8-5 7-6 20 0 20-6 17-16 30-13 0-26 0-38 0-22 0-12 3-26 11-19 5-58-6-75 1-8 3-5 6-13 12-11 0-32-3-41 3-1 1-11 11-12 12-5 7-3 8-4 19 0 32-3 235 0 257l3 9c10 8 7-2 19 7 8 6 1 8 16 9 16 1 36 0 53 0 33 0 12 12 40 14 16 1 34 0 50 0 14 7 2 7 19 11 14 3 8 0 17 10 16 16 0 25 13 40 12 14 3 1 9 17 7 23 30 12-6 47l-15 14c-11 14 7 8-33 47-11 11-5 3-9 17-3 12-3 7-11 15-32 32-26 23-26 67 10 7 18 16 26 24 29 29-13 2 41 54l73 73c41 40 20 23 42 30 12 4 1 4 14 10 21 5 27-4 31-7 12-9 10 2 23-11 12-12 22-29 38-33 18-4 25-21 39-33 8-7 4-3 13-5 12-3 19-13 27-24h30c11 16 17 9 28 17 10 7-5 3 14 7 12 3 6-1 14 7 12 12 13 10 12 32-1 102 12-6 11 109 0 38 5 18 13 37l2 27c20 5 17-2 28 15h244c8-11 9-13 26-13 7-20-3-17 16-28v-75c4-13 5-3 11-16 0-16-2-41 0-56 2-15 4-9 10-16 5-7 3-12 6-21 6-2 13-2 17-4 10-4 3-4 11-8 15-8 13 5 25-15h43c7 12 21 23 30 33 27 28 24 10 37 24 7 7 25 28 31 30 20 8 8-4 36 26 40 0 21-4 41-10 21-7 8 2 30-21l152-150c0-19 6-57-5-69-10-11-25-24-36-36-26-25 13 1-31-43-10-10-13-9-16-22-5-21-5-7-13-22v-34c6-12 5-4 10-12 5-8 3-14 9-22 17-23-11-25 45-24 28 0 13-1 29-11 15 0 30 0 45 0 27 0 16-3 32-13 35 0 45 8 67-17 4-9 0-194 0-231 0-48 9-54-21-55-6-14-6-13-22-13-12 0-25 0-37 0-9-7-3-9-15-12-7-2-15-1-22-1-17 0-34 0-50 0-15-7-2-9-19-11-38-4-17 4-29-20-5-10-5-1-9-13-3-9 2-6-5-15-5-7-4 1-9-11v-48z"/><path d="m1728 1660c0-13 5-7 9-15l2-6c1-3 0-2 1-7l28-30c49-50 26-16 45-32 23-19 11-2 25-13 10-8-1-11 47-10 19 1 14 3 23 13 35 0 24-3 42 15 0 0 1 1 1 1l2 3c13 14 13 2 23 12 8 8 0 7 6 18l28 28c15 15-3-5 5 5 5 20 1 55 2 78 0 23 3 17-8 31-9 11-2 3-6 16-4 11-24 26-33 36-3 3-2 3-5 6l-8 8c-18 18-12 1-27 15-12 11-12 7-32 7-13 6-2 7-16 11-18 2-12-9-24-11-8 0-22 1-29 0-15-2-8-6-18-11-13-7-9 4-21-8l-28-28c-24-23-1-12-16-29-5-5-18-15-19-21v-82zm413-165c9-14-2-6 5-18 11-19 10 0 10-38 14-8 8-2 11-17 5-20 2-1 13-16v-38c3-13 30-13 1-40-12-11-14-1-30-18-18-19-15-10-29-16-9-5 1-2-9-7-7-3-6-1-13-3-13-5-1-7-18-12-17-5-8 1-20-12-4-4-10-13-17-13-14 0-22-2-31 7l-63 64c-21 21 3 9-21 34-8 8-24 30-35 32-16 2-34 0-51 0-10-15-24-19-28-35-4-16-17-23-27-34-33-33-17-14-25-36-2-4-11-12-15-17-4-4-12-12-16-14-15 0-20-3-30 5-10 7 1 3-12 6-21 5-8 9-22 13-8 2-5-2-13 3-5 3-3 5-10 9-11 6-14 2-23 11-22 22-19 10-31 19-8 6 1 4-10 8-12 5-22 4-29 20 6 10 9 3 11 16 1 8-1 20 0 29 3 15 8 8 12 18 3 7 1 19 2 28 16 9 8 16 17 28 15 19 6 1 9 36l10 7c1 19 2 10-6 20-4 6-4 10-7 18-3 7-8 8-10 14-5 13 4 9-6 17-9 7-69 3-80 3-10 15-8 14-31 13-65-1-36 3-54 10-3 1-14 2-18 3-6 24-2 142-2 176 0 7 12 20 17 23 8 4 9 1 16 5 5 2 5 5 9 9l80 1c8 12 6 13 26 13h32c11 2 7 11 11 19 4 9 4 0 9 12 5 10 0 7 5 16 5 7 8 1 8 12 0 17-7 12-10 24-2 9 0 18-3 25-6 11-6 0-11 17-5 18-7 10-11 19-4 9 0 18-3 26-4 10-9 3-12 18-2 12 3 14-4 24-12 16-12 17 6 33 8 8-2 2 10 5l11 3c11 7-3 6 18 11 14 3 3-1 11 5 18 14 9-4 27 16 15 16 10 11 28 17 15 5 0 13 31 13 3 8 1 11 12 11 13 0 10 0 17-7l15-16c0 0 1-1 1-1l10-11c3-3 1-1 4-4l42-39 1-18c11-7 36-33 41-40h56c11 0 12 0 15 10 6 22 16 21 33 39 12 13-2 12 17 31l48 48c21 22 27 3 33 0l6-2c3-1 2 0 7-1 9-3 3-1 9-7 20-17 2 11 30-18 17-17 18-9 30-17 8-5-3-2 9-7 7-3 6 0 13-3 9-4 0-1 8-7 11-8 13 1 30-18 12-13 6-32-7-41-1-15 3-24-5-32-5-6-5 0-8-11-1-6 0-12-1-18-2-12-2-4-7-12-7-11-2-3-5-14-5-17-8-2-13-22-5-22-12-8-13-24-1-18 9-6 13-24 4-17 3-12 15-23 25-25 19-12 50-17 10-1 11-6 16-12 23-3 47 0 70-1 19-1 9-8 24-11 9-2 18-1 27-4v-187c0-15-6-11-16-14-6-2-2 0-6-2-13-8-1-8-27-8-11 0-26 1-37 0-17-1-11-11-21-13-16 0-32 0-48 0-31 0-12-10-33-14 0-27-6-21-21-37-6-7-5 2-5-14 4-15 6-7 11-14z"/><path d="m1845 314c15-5 3-5 16-11 24-5 36 11 37 11 13 3 29-6 41 4l34 35c56 54 18 27 36 49 8 9 8 2 8 18v74c0 22-13-7-13 33-23 9-25 32-28 35-11 12-7-5-24 13l-16 16c-12 4-24 0-35 2-13 3-8 13-22 13-38 0-19-10-34-13h-25c-3-4-4-9-11-12-18-7-5 8-42-30-46-48-19-20-30-42-4-8-9-2-9-15 0-123 1-50 11-90 3-10-2-3 5-11 24-28-12-2 28-40 22-21 15-21 30-25 29-6-5-13 42-13zm299-80c6-19 12 2 12-38 6-14 6-3 10-14 3-10-3-6 5-16 13-17 8 0 9-36 10-7 14-8 13-26-1-12-6-15-14-23-9-9-15-4-25-12-15-13-11 0-25-12-7-6-12-16-21-18-11-3-5 3-14-4-6-5 1-5-10-8-9-3-5 2-15-4-8-5-8-7-19-11-9-3-7-9-16-11-20 0-16 2-28 14l-41 41c-14 14-9 10-14 26-2 5-33 35-40 42-20 21-22 15-67 14-4-7-30-33-41-40v-18c-9-4-6-2-12-9l-57-57c-1-1-2-2-3-3-5-5-4-5-8-10-29 0-14 3-26 9-7 3-7 0-15 4-12 6 1 1-8 8-9 7-4 1-15 4-14 4-2-1-9 6l-16 16c-9 6-5 1-14 4-12 5-2 5-22 10-8 2-2-1-9 6-12 12-14 2-24 11-2 2-13 13-14 17 0 19 4 10 9 21 4 9 0 16 3 26 4 12 10 3 12 19 1 16-4 13 5 25 13 16 4 11 10 22 5 8 9 2 11 17 2 16-4 12 5 25 3 5 10 9 5 21-4 9-5 0-11 20-5 16-8 6-11 17-4 13 4 16-12 18-16 2-44-6-59 2-9 5-3 9-18 11-13 2-43 0-58 0-11 11-2 11-24 11-13 0-17 0-19 12-3 21 0 181 2 190 27 1 27-4 43 12 14 0 54-4 65 4 15 12-1 10 47 9 45 0 26 3 36 22 4 7 6 3 10 14 9 28 13 12 12 36l-11 7c-2 47-6 22-13 44-3 10-3 15-13 20-2 22 4 22-8 35-9 10-6 18-6 34-9 8-18 16-6 29 13 15 15 7 28 15 5 3 2 5 10 9 8 4 7 0 15 4 7 4 3 4 8 8 14 9 9-5 25 12 9 9 9 13 20 15 12 3 4-3 13 5 7 6-2 4 11 8 10 3 10 1 18 8 6 5 21 6 29 4 3-2 16-13 17-16 7-15-6-8 10-22 71-68 26-37 55-67 9-9 23-21 30-32 61 0 45-9 81 26 37 36 21 20 30 42 3 9 34 36 43 45 8 8 19 24 30 25 17 1 10-7 24-11 11-3 4 3 14-5 7-6 0-5 10-8 8-3 4 2 13-4 9-5 1-4 10-9 8-4 7 0 15-4 8-4 11-12 17-17 13-12 10 3 25-12 14-13 11-1 24-11 7-5 14-10 14-20 0-14-7-11-13-21l-1-38c-11-15-7 6-12-18-3-13 1-8-11-15 0-42-3-20-11-40l-2-9c-2-8 1-2-2-8-5-7-7 1-11-14 0-27 13 1 13-38 11-3 9-6 16-13 2-2 4-3 7-6 19-19 39-3 57-8 13-8 3-13 24-13 16-1 56 5 69-3 3-2 4-4 6-5 18-11 22 4 22-30v-173c-10-2-18-2-27-4-13-3-6-8-19-10-34-6-50 12-69-11-7-8-41 0-53-3-7-3-22-19-27-24-12-13-2-6-7-19-5-14-25-11-4-32 10-11 2-4 6-17z"/></g></svg>