<svg xmlns="http://www.w3.org/2000/svg" width="175.77" height="141.57" viewBox="0 0 794 639" shape-rendering="geometricPrecision" image-rendering="optimizeQuality" fill-rule="evenodd" clip-rule="evenodd"><g fill="#fefefe"><path d="m699 169c0-7 0-3 7-10 25-24 19-21 30-2l9 17c2 4 4 8 6 12 4 7 6 8 4 12-3 0-54-27-56-28zm58 45c0 6-13 16-17 21-2 2-3 3-5 5l-3 2c0 0 0 0 0 0l-5 5c0 0 0 0 0 0-1 1 0 0-1 1l-2 2c-1 1-1 1-2 2-39 37-76 75-114 113-7 6-13 12-19 19-5 6-13 13-19 18-6 5-13 13-19 19l-57 56c-17 15-32 31-48 47l-10 9c-2 2-7 9-11 9-3 0-10-5-12-6l-106-64c-3-2-3-2-6-4-10-5-20-12-29-18-35-21-72-42-107-64-4-3-8-5-12-7l-76-46c-2-2-4-2-6-3-13-8-23-11-12-17 12-7 23-15 35-22l29-18c2-1 4-2 6-4l12-7c4-3 7-5 11-8l27-20c2-1 4-3 5-4l32-24c4-3 7-5 11-8l60-44c2-2 3-2 5-3 30-23 62-45 92-68l38-28c10-8 36-25 44-32 5-4 6-5 12-2l92 40c22 10 45 19 66 29 4 2 9 4 13 6 2 1 4 2 7 3 3 1 3 2 6 3 4 1 9 4 13 6l27 12c17 7 19 6 5 18l-8 6c-4 3-6 5-10 9l-10 9c-4 4-8 4-8 10 11 4 22 11 33 15 13 5 25 12 38 18 2 1 3 1 5 3 4 2 7 3 10 5zm35 27c1-6 1-16 1-22 0-9-6-17-10-24-1-3-3-5-4-7-9-21-19-40-29-60-1-2-3-6-4-7-3-3-33-15-39-17-5-2-11-4-16-6l-142-60c-10-4-21-9-31-13-10-4-22-10-31-13-5-2-11-5-16-7-9-3-6-6-15 0l-118 84c-5 3-8 6-13 9l-66 47c-9 5-17 13-26 18-9 6-30 22-39 28l-13 9c-5 4-8 6-13 9-4 3-9 7-14 10-11 7-28 21-39 28-2 1-4 3-7 5l-80 53c-8 6-20 11-27 18-3 3-2 4-1 8 2 5 3 12 4 18 2 8 4 19 6 27 2 8 1 11 8 15 14 8 36 23 48 30 3 2 4 2 7 4 2 1 5 3 7 4 14 9 28 16 41 26 2 1 5 3 7 4 3 2 4 3 7 4l34 21c20 13 42 25 62 38 9 6 19 11 28 17l87 53c17 11 35 21 52 32l14 9c4 2 10 9 15 5 5-3 17-17 22-22 30-30 59-60 89-90l25-26c1-1 2-1 3-3 2-2 4-3 5-6 5-7 46-47 55-56l22-23c7-7 14-15 22-22 15-15 30-30 44-45l67-67c12-12 4-18 7-37z"/><path d="m417 400c-13-7-30-17-42-23l-184-99c-9-6-15-1-18 4 4 4 12 8 18 11l237 130c3 2 6 3 9 5 5 3 24 15 27 14 3-2 8-7 9-10-2-2-1-2-4-4l-52-28"/><path d="m511 381c5 2 6 5 10 3 1 0 7-6 7-7 3-5-2-6-6-7-4-2-6-3-9-5l-258-130c-2-1-2-1-4-2-7-4-13-4-18 3 2 4 13 8 17 11 6 3 12 6 18 9l112 58c9 4 18 9 27 14 0 0 0 0 1 0 22 11 45 23 66 34 3 2 6 3 9 5l19 9c3 2 6 3 9 5"/><path d="m289 190c2 4 10 7 17 10 19 9 48 25 65 33 3 2 6 3 10 5 6 3 13 6 18 9 13 6 25 13 38 18 6 3 18 10 27 14 2 1 3 2 5 3l66 33c2 1 2 1 5 2 2 1 3 1 5 2l23 12c4 2 6 3 10 0 2-2 5-6 6-8-3-4-12-7-17-10-6-3-12-7-19-9-3-1-6-3-9-4l-149-72c-2-1-3-1-5-2-2-1-3-2-5-2-3-1-6-3-9-4l-37-18c-2-1-3-1-5-2l-24-12c-3-1-6-4-9-3-2 1-7 4-9 6z"/><path d="m342 148c2 3 12 7 17 9 6 3 12 6 18 9 3 1 6 3 8 4l27 13c11 6 23 11 35 17 6 3 12 6 18 8 3 1 5 3 8 4l102 49c7 3 46 24 49 23 3-1 6-4 8-6 4-6 0-6-4-8-3-1-2-1-5-2l-91-43c-22-12-53-25-77-36-2-1-3-1-4-2l-24-12c-4-2-6-3-10-5l-57-27c-3-2-7-4-10-3 0 0-4 2-5 3-2 1-3 2-3 4z"/><path d="m392 110c2 3 30 15 34 17 2 1 3 1 4 2l35 17c2 1 3 1 4 2 3 2 6 3 9 4 18 8 40 20 58 27l92 43c6 3 43 21 45 20 3-2 8-7 9-10-5-4-36-18-44-22l-65-29c-2-1-6-3-9-4l-69-31c-2-1-2-2-4-2l-14-6c-2-1-4-1-5-2l-46-21c-5-2-11-5-18-8-7-3-7-4-14 0-3 2-3 1-4 4z"/></g></svg>