<svg xmlns="http://www.w3.org/2000/svg" width="58.09" height="64.58" viewBox="0 0 99 111" shape-rendering="geometricPrecision" image-rendering="optimizeQuality" fill-rule="evenodd" clip-rule="evenodd"><path d="m61 25c0 1 0 1 0 1 1 2 1 5 1 7 0 16-13 29-29 29-16 0-29-13-29-29 0-16 13-29 29-29 13 0 25 9 28 21m-61 7c0 2 0 2 0 3 0 2 0 2 1 3v3c1 2 2 4 3 7 0 0 1 1 1 2 0 0 1 1 1 1l6 7c1 1 3 3 5 4h1c0 0 0 1 1 1 1 1 3 1 5 2 0 0 1 0 1 0 8 3 17 2 25-2 0-1 1-1 2-1 0 0 4 4 4 5 0 1-2 0 1 4l19 24c1 0 1 1 1 1 2 2 4 4 5 6 1 1 1 1 1 2 0 1 0 1 1 2 0 0 0 0 1 1 0 0 4 4 8 3 3 0 4-1 4-1 0 0 0 0 0-1 2-2 3-6 1-9 0-1-2-3-3-4-1 0-1 0-2-1 0 0-1-1-1-2l-6-6c-3-3-6-7-9-10l-8-10c0 0 0 0 0 0-1-1-5-5-5-5-1 0-2 1-3 0l-2-3c0 0 0 0 0 0l-1-1c0 0 0-1 0-1l1-2c0 0 0 0 0 0 1 0 1 0 1 0 2-2 3-6 4-8 1-3 2-6 2-8 0-1 1-3 1-4 0-4-2-11-4-15l-1-2c-1 0-1 0-1 0-1-2-3-4-4-6-2-2-3-3-5-4-1-1-3-2-5-3-2-2-6-3-9-4-6 0-12 0-18 2 0 0 0 0-1 1-2 1-5 2-7 4 0 0-1 0-1 1 0 0 0 0-1 1l-3 3c-1 2-3 4-4 6 0 1 0 1 0 1-2 3-2 6-3 9v4" fill="#fefefe"/></svg>