<svg xmlns="http://www.w3.org/2000/svg" width="19" height="19" viewBox="0 0 88 70" shape-rendering="geometricPrecision" image-rendering="optimizeQuality" fill-rule="evenodd" clip-rule="evenodd"><g fill="#96989a"><path d="m40 0h-3c-1 0-1 1-1 1h-2-2c-1 1-1 0-2 0v1c-1 0-1 0-1 0h-2v1h-1-1-1v1h-1-1-1v1h-1-1c0 0 0 0 0 0v1h-1c-1 0-1 0-1 0v1h-1c-1 0-1 0-1 0l-1 1c0 0-1 0-1 0l-1 1-1 1h-1l-1 1-1 1h-1c0 0 0 1 0 1h-1l-2 2-3 3-1 1v1c0 0 0 0 0 0v2c0 0 0 0 0 0v1h1v1c0 0 0 0 0 0 0 1 0 1 1 1l1 1h1c0 0 1 1 1 1h2c0 0 0-1 0-1h1c1 0 1-1 2-1l2-3h1l1-1 1-1h1v-1h1 1v-1h1c1 0 1-1 1-1h1l1-1h1c0 0 0 0 0 0h1c0-1 0-1 0-1h1 1l1-1c1 0 1 0 1 0s0 0 0-1h1 1 1 1v-1h2c0 0 0 0 0 0h2 2c1 0 1 0 1-1h10c0 1 0 1 1 1h2 2 1l1 1h1 1 1 1c0 1 0 1 0 1s0 0 1 0l1 1h1 1c0 0 0 0 0 1h1c0 0 0 0 0 0h1l1 1c1 0 1 1 2 1h1v1h1l1 1h1v1h1l1 1h1l2 3c1 0 1 1 2 1 0 0 0 0 0 0h1c0 0 0 1 0 1h3v-1c1 0 1 0 1 0l1-1c0 0 1 0 1 0v-1c0 0 0 0 0 0v-1h1v-1c0 0 0 0 0 0v-2c0 0 0 0 0 0v-1l-1-1-2-3h-1l-2-2-1-1h-1c0 0 0-1-1-1 0 0-1-1-1-1l-1-1h-1l-1-1c0 0-1 0-1 0 0 0 0 0-1 0v-1h-1c-1 0-1-1-1-1h-1l-1-1c0 0 0 0 0 0h-1-1v-1h-1-1-1v-1c-1 0-1 0-1 0h-1-1l-1-1h-1-1v-1h-1c-1 0-1 0-1 0h-2-2v-1h-4c0 0 0 0-1 0h-6c-1 0-1 0-1 0"/><path d="m40 29c0 0 0 0 1 0h6c1 0 1 0 1 0h2v1h1c1 0 0 0 1 0h1c0 0 0 1 0 1h1 1 1v1h1 1l1 1h1c0 0 0 1 1 1 0 0 0 0 0 0h1c0 0 1 1 1 1l1 2h1l2 2h1v1h1c0 0 0 0 0 0h3c0 0 0 0 0 0h1c0-1 0-1 0-1h1l1-1 1-1v-1c0 0 0 0 0 0v-3c0 0 0 0 0 0v-1h-1v-1c0-1 0-1-1-1l-3-3c-1 0-1-1-2-1l-1-1c0 0 0 0-1 0l-1-1h-1v-1h-1-1v-1h-1c-1 0 0 0-1-1 0 0 0 0-1 0h-1v-1h-1-1-2v-1h-1-2-2c0-1 0-1-1-1h-3c0 0 0 0 0 0h-4c0 0 0 0 0 0h-3c-1 0-1 0-1 1h-2-2-1v1h-2-1-1v1h-1c0 0 0 0 0 0-1 0-1 0-1 0l-1 1h-1v1h-1-1v1h-1l-1 1h-1l-1 1c-1 0-2 1-2 1 0 0-2 2-2 3h-1l-1 1-1 1v1c0 0 0 0 0 0v3c0 0 0 0 0 0v1c1 0 1 1 1 1l1 1h1c0 0 0 0 0 1h1c0 0 0 0 1 0h2l1-1h1l2-3h1l1-1c0 0 1-1 1-1h1c0 0 0 0 0 0 1 0 1-1 1-1h1c1 0 0-1 1-1 0 0 0 0 1 0h1v-1h1 1 1c0 0 0-1 0-1h1c1 0 0 0 1 0h1v-1h2"/><path d="m43 47c0 0 0 0 0 0h2c0 0 0 0 0 0h2c1 0 1 0 1 1h1 1v1h1c1 0 1 0 1 0l3 3h1v1c0 0 0 0 1 0 0 0 0 0 1 0h1c0 0 0 0 0 0h2l1-1 1-1 1-1c0 0 0 0 0-1v-3-1h-1v-1l-2-2h-1c0 0-1-2-1-2h-1-1c0 0 0-1 0-1-1 0-1 0-1 0h-1c0-1 0-1 0-1h-1c0 0 0 0 0 0h-1v-1c-1 0-1 0-1 0h-1-1v-1h-2c0 0 0 0 0 0h-8c0 0 0 0 0 0h-2v1h-1-1-1l-1 1c0 0 0 0 0 0h-1v1h-1-1v1h-1-1l-1 2h-1l-2 2v1h-1v1 3c0 1 0 1 0 1l1 1 1 1 1 1h1c0 0 0 0 1 0h1c1 0 1 0 1 0 1 0 1 0 1 0l1-1 3-2v-1c0 0 0 0 1 0l1-1h1 1c1 0 0-1 1-1h2"/><circle cx="44" cy="61" r="9"/></g></svg>