<svg xmlns="http://www.w3.org/2000/svg" width="19" height="19" viewBox="0 0 105 83" xmlns:xlink="http://www.w3.org/1999/xlink" shape-rendering="geometricPrecision" image-rendering="optimizeQuality" fill-rule="evenodd" clip-rule="evenodd"><defs><linearGradient id="3" gradientUnits="userSpaceOnUse" xlink:href="#0" y1="82.39" x2="0" y2="62.758"/><linearGradient id="2" gradientUnits="userSpaceOnUse" xlink:href="#0" y1="31.617" x2="0" y2="0"/><linearGradient id="0" gradientUnits="userSpaceOnUse" y1="63.57" x2="0" y2="42.782"><stop stop-color="#3e4095"/><stop offset=".49" stop-color="#0098da"/><stop offset="1" stop-color="#fefefe"/></linearGradient><linearGradient id="1" gradientUnits="userSpaceOnUse" xlink:href="#0" y1="47.536" x2="0" y2="21.23"/></defs><path d="m48 0h-4c-1 0-1 1-1 1h-3-2c-1 1-1 1-2 1-1 0-2 0-2 1h-2-1-1l-1 1h-1-1v1h-1-1v1h-1-1c0 0 0 1 0 1h-1-1c0 0 0 0-1 0v1h-1c-1 0-1 0-1 1h-1v1h-1c0 0 0 0 0 0h-1v1h-1-1l-1 1-1 1-2 1c0 0-1 1-1 1h-1l-2 3-4 3v1h-1v1c0 0 0 0 0 1v2c0 0 0 0 0 1v1h1c0 1 1 1 1 1 0 1 0 1 1 1v1h1 1c0 0 0 1 1 1h2c0 0 0-1 1-1h1c0 0 1-1 1-2h1l3-3 2-1 1-1h1l1-1 1-1h1l1-1c0 0 1 0 1-1h1l1-1h1c0 0 0 0 1 0 0-1 0-1 0-1h1 1l1-1h1 1c0 0 0 0 0-1 1 0 1 0 1 0h1 2v-1h1 1 1c0 0 0 0 0-1h3 3c0 0 0 0 0-1h13c0 1 0 1 0 1h3 2v1h2 2v1h1 1 1c0 0 0 0 0 0h1c0 1 0 1 0 1h1 1l1 1h1c0 0 0 0 0 1h1c0 0 0 0 0 0h1 1v1h1c1 0 1 1 2 1v1h1 1v1h1l1 1h1v1h1l1 1h1l3 3c0 1 1 2 2 2 0 0 0 0 0 0h1c0 0 0 1 1 1h3v-1c1 0 1 0 1 0l1-1c1 0 1 0 1 0v-1c0 0 1-1 1-1v-1c0-1 1-1 1-1v-2c0-1-1-1-1-1v-1-1l-4-3-2-2h-1l-1-2h-1c0 0 0-1-1-1 0 0-1-1-1-1h-1v-1h-1-1l-1-1c0 0 0 0-1 0 0-1 0-1-1-1l-1-1h-1c0 0 0-1-1-1h-1-1c0 0 0-1 0-1h-1-1v-1h-1-1l-1-1h-1c-1 0-1-1-1-1h-1-2-1l-1-1h-1-2c0 0 0 0 0-1h-2-1-3v-1h-4c0 0 0 0-1 0h-8c0 0 0 0 0 0" fill="url(#2)"/><path d="m48 35c0 0 0 0 0 0h8c1 0 1 0 1 0h2 1 1c1 0 0 1 1 1h1c0 0 0 0 0 0h1l1 1h1 1v1h1 1l1 1h1c0 0 1 1 1 1h1c0 0 0 1 0 1 0 0 1 1 2 1l2 2 3 3h1 1c0 0 0 1 0 1h3c1 0 1-1 1-1 0 0 0 0 1 0v-1h1l1-1 1-1v-1c0 0 0 0 0-1v-3c0 0 0 0 0 0v-1h-1v-1c0-1 0-1-1-1l-3-4h-1c0 0-1-1-1-1h-1l-1-1h-1c0 0 0-1 0-1h-1-1v-1h-1v-1h-1-1v-1h-1-1c0 0 0 0 0 0h-1c0-1 0-1 0-1h-1-1v-1h-1-1l-1-1h-1-2v-1h-2-3c0 0 0 0 0 0h-4c-1-1-1-1-1-1h-4c0 0 0 0 0 1h-4c-1 0-1 0-1 0h-3-1l-1 1h-1-2v1h-1-1l-1 1c-1 0-1 0-1 0-1 0 0 1-1 1h-1-1l-1 1h-1l-1 1-1 1h-1-1v1h-1l-1 1c0 0-1 1-1 1h-1c0 0-3 3-3 3l-1 1v1l-1 1v1c-1 0-1 0-1 0v3c0 1 0 1 1 1v1c0 0 1 1 1 1l1 1v1h1c0 0 0 0 0 0h1c0 0 0 1 1 1h2v-1h1 1v-1h1l3-3 2-1c0 0 1-1 1-1h1c0 0 0-1 0-1h1c0 0 0 0 0-1h1 1c0 0 0-1 0-1h1c0 0 0 0 0 0h1l1-1h1 1v-1h1c0 0 0 0 1 0h1c0 0 0-1 1-1h1 3" fill="url(#1)"/><path d="m51 56c0 0 0 0 0 0h3c0 0 0 0 0 0h2c1 0 1 0 1 1h1 1l1 1h1c0 0 0 1 0 1h1l3 3h1v1h1c0 0 0 0 0 0h1c0 0 0 1 1 1h1c0 0 0-1 1-1h1l1-1h1l1-1v-1h1v-1c0 0 0 0 0 0v-4-1l-1-1-3-3h-1c0-1-1-2-1-2h-1v-1h-1c0 0 0 0 0 0h-1c0 0 0-1 0-1h-1-1c0 0 0-1 0-1h-1c0 0 0 0 0 0l-1-1c-1 0-1 0-1 0h-1-2v-1h-2c0 0 0 0 0 0h-9c0 0 0 0-1 0h-2v1h-1-1-1-1v1c-1 0-1 0-1 0h-1v1h-1l-1 1h-1l-1 1-2 2-4 3v1 1 4c0 0 0 0 0 0v1l1 1 1 1 1 1h1 1c0 0 0 1 0 1h2c0 0 0-1 0-1h1c1 0 1 0 1 0l1-1h1l2-3h1c0 0 0-1 1-1h1v-1h1 1 1c0 0 0-1 0-1h3" fill="url(#0)"/><circle cx="52" cy="73" r="11" fill="url(#3)"/></svg>